<svg width="11" height="36" viewBox="0 0 11 36" fill="none" xmlns="http://www.w3.org/2000/svg">
<g clip-path="url(#clip0_59_122)">
<mask id="path-1-inside-1_59_122" fill="white">
<path fill-rule="evenodd" clip-rule="evenodd" d="M9.97253 0C9.72381 2.24998 7.81628 4 5.5 4C3.18372 4 1.27619 2.24998 1.02747 0H-21C-26.5228 0 -31 4.47715 -31 10V26C-31 31.5228 -26.5228 36 -21 36H1.02747C1.27619 33.75 3.18372 32 5.5 32C7.81628 32 9.72381 33.75 9.97253 36H93C98.5228 36 103 31.5228 103 26V10C103 4.47715 98.5228 0 93 0H9.97253Z"/>
</mask>
<path fill-rule="evenodd" clip-rule="evenodd" d="M9.97253 0C9.72381 2.24998 7.81628 4 5.5 4C3.18372 4 1.27619 2.24998 1.02747 0H-21C-26.5228 0 -31 4.47715 -31 10V26C-31 31.5228 -26.5228 36 -21 36H1.02747C1.27619 33.75 3.18372 32 5.5 32C7.81628 32 9.72381 33.75 9.97253 36H93C98.5228 36 103 31.5228 103 26V10C103 4.47715 98.5228 0 93 0H9.97253Z" fill="#FF888A"/>
<path d="M9.97253 0V-1H9.07699L8.97859 -0.109875L9.97253 0ZM1.02747 0L2.02141 -0.109875L1.92301 -1H1.02747V0ZM1.02747 36V37H1.92301L2.02141 36.1099L1.02747 36ZM9.97253 36L8.97859 36.1099L9.07699 37H9.97253V36ZM5.5 5C8.33168 5 10.6624 2.8609 10.9665 0.109875L8.97859 -0.109875C8.78526 1.63905 7.30088 3 5.5 3V5ZM0.0335204 0.109875C0.337631 2.8609 2.66832 5 5.5 5V3C3.69912 3 2.21474 1.63905 2.02141 -0.109875L0.0335204 0.109875ZM-21 1H1.02747V-1H-21V1ZM-30 10C-30 5.02944 -25.9706 1 -21 1V-1C-27.0751 -1 -32 3.92487 -32 10H-30ZM-30 26V10H-32V26H-30ZM-21 35C-25.9706 35 -30 30.9706 -30 26H-32C-32 32.0751 -27.0751 37 -21 37V35ZM1.02747 35H-21V37H1.02747V35ZM5.5 31C2.66832 31 0.337631 33.1391 0.0335204 35.8901L2.02141 36.1099C2.21474 34.361 3.69912 33 5.5 33V31ZM10.9665 35.8901C10.6624 33.1391 8.33168 31 5.5 31V33C7.30088 33 8.78526 34.361 8.97859 36.1099L10.9665 35.8901ZM93 35H9.97253V37H93V35ZM102 26C102 30.9706 97.9706 35 93 35V37C99.0751 37 104 32.0751 104 26H102ZM102 10V26H104V10H102ZM93 1C97.9706 1 102 5.02944 102 10H104C104 3.92487 99.0751 -1 93 -1V1ZM9.97253 1H93V-1H9.97253V1Z" fill="black" mask="url(#path-1-inside-1_59_122)"/>
<path d="M6 6L6 31" stroke="black" stroke-linecap="round" stroke-dasharray="2 2"/>
</g>
<defs>
<clipPath id="clip0_59_122">
<rect width="11" height="36" fill="white"/>
</clipPath>
</defs>
</svg>
