<svg width="24" height="24" viewBox="0 0 24 24" fill="none" xmlns="http://www.w3.org/2000/svg">
<path d="M10.3115 2.42432C10.7948 1.11839 12.6418 1.11839 13.125 2.42432L15.3359 8.40088C15.3866 8.53763 15.4951 8.64519 15.6318 8.6958L21.6084 10.9077C22.914 11.3911 22.9141 13.2379 21.6084 13.7212L15.6318 15.9321C15.495 15.9828 15.3866 16.0912 15.3359 16.228L13.125 22.2046C12.6417 23.5103 10.7949 23.5102 10.3115 22.2046L8.09961 16.228C8.049 16.0912 7.94144 15.9828 7.80469 15.9321L1.82812 13.7212C0.5222 13.238 0.522196 11.391 1.82812 10.9077L7.80469 8.6958C7.94124 8.64515 8.04896 8.53743 8.09961 8.40088L10.3115 2.42432Z" fill="#FFE100" stroke="black"/>
</svg>
