<svg width="66" height="69" viewBox="0 0 66 69" fill="none" xmlns="http://www.w3.org/2000/svg">
<path d="M60.3121 42.3105C59.955 43.8587 60.7516 47.2911 62.9599 46.9626C60.7696 47.9242 56.8872 49.1048 54.0278 48.8168C52.4437 48.6578 48.9122 46.4375 47.5366 43.0441C46.5885 40.2058 47.9146 39.5352 48.0781 36.7059C46.7865 34.0415 44.0847 32.7469 45.0973 29.4735C45.7589 27.3387 47.6281 26.5272 51.3995 25.318C52.8862 23.6348 53.6333 22.3222 56.1146 21.5091C57.8563 20.939 60.7711 22.4542 63.9605 24.1269C61.9578 23.9889 60.8011 25.534 60.9317 26.9022C61.0802 28.4579 62.5954 28.8869 62.9299 31.8003C62.1033 33.7025 60.5716 33.9845 60.6556 35.9378C60.7036 37.0629 62.6104 38.9156 60.3106 42.3105H60.3121Z" fill="#9A814D"/>
<path d="M34.0166 1.02539C34.8914 0.90554 35.9365 1.22742 36.7246 1.59863C37.1419 1.79518 37.5464 2.03333 37.8867 2.29492C38.2047 2.53932 38.5601 2.87446 38.7568 3.29102L38.9932 3.79199L38.6934 4.25879C37.176 6.61785 34.9865 10.3434 35.1035 17.1846L35.1221 17.8564V17.8584C35.1497 18.6191 35.2076 19.4213 35.2969 20.2646L35.3291 20.5654L35.1885 20.834L35.1562 20.8945L34.7012 21.7627L33.8242 21.3242C33.8039 21.3141 33.7401 21.2826 33.6846 21.2529C33.2587 21.0275 32.7398 20.671 32.1875 20.2822L31.8975 20.0781L31.8018 19.7373C31.7097 19.4116 31.6114 18.9793 31.5176 18.4648C31.3136 17.3447 31.1219 15.7801 31.0664 13.9541V13.9531C30.9603 10.4245 31.3621 5.84242 33.2383 1.61133L33.4648 1.10156L34.0166 1.02539Z" fill="#D9732B" stroke="#4B371F" stroke-width="2"/>
<path d="M18.8008 3.16895C22.6162 2.58803 25.3164 3.60407 27.0498 5.25684C28.7398 6.86832 29.4281 9.01195 29.3838 10.5752L29.3564 11.5469H28.5771C26.8261 12.2455 25.2549 12.2988 23.8799 11.8828C22.4732 11.4571 21.3692 10.5717 20.5312 9.59277C18.8824 7.66641 18.103 5.19369 17.9639 4.31348L17.8066 3.32031L18.8008 3.16895ZM28.8271 11.4424C28.8384 11.4368 28.8482 11.4316 28.8535 11.4287C28.8559 11.4274 28.858 11.4265 28.8594 11.4258C28.8607 11.425 28.8623 11.4238 28.8623 11.4238C28.8669 11.4213 28.8483 11.4317 28.8271 11.4424Z" fill="#54A833" stroke="#4B371F" stroke-width="2"/>
<path d="M10.9678 15.043C19.634 10.2721 27.184 14.4486 31.46 17.3389C31.7257 17.3591 32.0208 17.3476 32.3525 17.2979L32.4521 17.2881C32.7296 17.2744 32.9909 17.3772 33.1836 17.5576C33.2871 17.2699 33.5172 17.0362 33.8223 16.9404C37.6307 15.7457 43.7399 12.2603 53.001 13.6289L53.5566 13.7217C59.2286 14.7722 62.9139 18.7646 64.9199 23.7002C65.0659 24.0593 64.9914 24.4711 64.7285 24.7559C64.4656 25.0406 64.061 25.1472 63.6914 25.0303C63.1825 24.8692 62.6755 24.7027 62.1846 24.541C60.8205 24.0919 59.5896 23.6896 58.5449 23.4756C57.5845 23.2789 56.987 23.2891 56.6484 23.4014L56.5186 23.4561C54.9937 24.2517 54.7367 25.0582 53.7275 26.6719C53.632 26.8244 53.497 26.949 53.3369 27.0312C51.9354 27.7517 51.0084 28.2776 50.3975 28.8037C49.906 29.2269 49.6536 29.6202 49.5439 30.1084L49.5059 30.3242C49.41 31.0276 49.2801 31.6719 49.1689 32.2393C49.0552 32.8198 48.9629 33.3076 48.9199 33.7617C48.8485 34.5159 48.9166 35.1194 49.2676 35.7285L49.4355 35.9902L49.5029 36.0986C49.5625 36.2109 49.6006 36.3338 49.6143 36.4609C49.842 38.5826 50.1217 39.8419 51.1338 41.7627C51.8385 42.909 52.91 44.2188 53.9531 45.2266C54.4771 45.7327 54.9695 46.1385 55.3809 46.4062C55.5865 46.5401 55.7523 46.6261 55.876 46.6748C55.9573 46.7068 55.9997 46.7141 56.0098 46.7158C58.1143 46.5789 59.0008 46.4275 59.7578 46.3086C60.5791 46.1796 61.2602 46.0879 62.8896 46.0879C63.2347 46.088 63.5557 46.2668 63.7383 46.5596C63.9206 46.8524 63.9389 47.2185 63.7871 47.5283C61.7035 51.7799 58.7505 55.7464 55.9824 58.8779C53.2239 61.9986 50.5928 64.3537 49.1143 65.3535C47.2763 66.5964 45.4631 67.1844 43.6523 67.2061C41.8512 67.2275 40.1345 66.6878 38.4824 65.8086V65.8076C37.9516 65.5249 37.1117 65.2118 36.0742 64.918C34.3483 64.8442 32.5605 65.5012 30.4238 66.2197C28.3371 66.9215 25.9631 67.655 23.4473 67.2637C22.0727 67.0497 20.4494 66.1625 18.7793 64.918C17.0783 63.6504 15.2165 61.9265 13.3525 59.8887C9.62604 55.8145 5.82516 50.4152 3.23828 44.7383C1.35554 40.6065 0.428663 34.8028 1.375 29.2412C2.32505 23.6582 5.1854 18.2258 10.9678 15.043Z" fill="#F70F0F" stroke="#4B371F" stroke-width="2" stroke-linejoin="round"/>
<path d="M49.3526 17.3189C46.1527 18.6195 49.054 22.4 42.6513 23.2191C35.3364 24.1552 35.6875 27.2471 38.2738 27.9656C42.5598 29.1568 48.673 26.9335 51.4513 23.4411C54.5297 19.5722 53.2801 15.7242 49.3526 17.3189Z" fill="#F74125"/>
<path d="M22.6481 18.3807C20.0862 19.7556 19.0626 23.5073 23.9196 23.2813C27.5705 23.1098 28.684 20.7412 27.2329 19.0151C26.4951 18.1384 24.5104 17.3816 22.6509 18.3807H22.6481Z" fill="white"/>
<path d="M32.5005 18.285C32.3055 17.2139 32.1194 15.6987 32.0654 13.9225C32.0474 13.2879 32.0444 12.6218 32.0654 11.9303C32.355 12.6474 32.9175 11.5897 33.4021 10.0925C34.2272 7.54225 36.9275 4.46689 37.8516 3.7168C36.2209 6.2521 33.8341 10.3461 34.1222 17.8905C34.1507 18.6781 34.2107 19.5032 34.3022 20.3688L34.2707 20.4288C34.2317 20.4093 34.1912 20.3898 34.1522 20.3688C33.7921 20.1782 33.3256 19.8602 32.763 19.4642C32.682 19.1776 32.5905 18.7786 32.5005 18.285Z" fill="#8C3D1B"/>
<path d="M49.8196 36.7169C50.0581 38.9387 49.1655 40.1823 50.2696 42.2675C51.7773 44.7293 53.222 47.6991 54.4746 47.6181C56.7369 47.4725 57.1975 48.6487 58.7772 47.6181C59.5404 47.1257 61.7261 46.9525 62.9549 46.9525C58.9065 55.3011 51.3302 62.6464 48.5534 64.5242C45.1525 66.8239 42.0532 66.5749 38.9523 64.9247C38.3102 64.5827 37.3516 64.2331 36.2355 63.9226C32.239 63.6841 28.0955 66.974 23.601 66.2749C19.1004 65.5743 9.22328 55.4601 4.14818 44.3228C1.65489 38.8501 0.888303 30.2106 4.2742 23.4238C2.22496 31.1257 3.28708 43.6537 16.2996 49.3229C27.7145 54.296 40.442 51.5671 49.3695 44.3678C50.5111 43.2202 50.8427 41.4485 51.0062 38.5216C51.0572 37.614 49.53 38.3611 49.8196 36.7169Z" fill="#CC0808"/>
<path d="M56.6498 54.4347C59.9393 50.5476 60.8556 49.5037 62.9259 47.0117C58.8705 55.3359 51.3233 62.6511 48.5531 64.5244C45.1522 66.8242 42.0528 66.5751 38.952 64.9249C38.3099 64.5829 37.3513 64.2333 36.2351 63.9228C32.2387 63.6843 28.0952 66.9742 23.6006 66.2751C22.1515 66.0486 20.1427 64.8469 17.918 62.9462C22.441 65.4695 25.7174 64.8859 28.5257 63.5748C27.9257 63.3497 26.9505 63.1247 24.4752 63.1247C27.7756 61.7746 33.1763 60.3494 40.6021 62.8997C45.5572 64.6024 50.049 62.2356 56.6498 54.4347Z" fill="#992626"/>
<path d="M62.4977 23.5902C59.8004 22.7021 57.3371 21.8995 56.0559 22.5686C55.3163 22.9541 54.8108 23.3652 54.4072 23.8197C56.6665 20.9664 59.8394 21.1854 59.4598 20.0183C58.6842 18.0815 57.4601 16.5214 55.8954 15.4277C59.7539 16.9594 62.4032 20.1653 63.9934 24.0763C63.4908 23.9172 62.9897 23.7522 62.4977 23.5902Z" fill="#CC0808"/>
<path d="M31.1148 18.3062C31.5498 18.3707 32.0089 18.3572 32.5009 18.2852C32.591 18.7787 32.6825 19.1778 32.7635 19.4643C32.2819 19.1268 31.7299 18.7307 31.1133 18.3092V18.3062H31.1148Z" fill="#CC0808"/>
<path d="M41.2514 17.7193C43.7522 17.2947 44.5023 18.3823 42.6526 19.32C41.0759 20.2066 36.9264 21.7247 34.2696 20.4301L34.3011 20.3701C34.2096 19.5045 34.1496 18.6794 34.1211 17.8918C36.8829 17.0202 40.4923 15.1555 45.4219 14.5254C39.1317 15.679 39.7018 17.9833 41.2514 17.7193Z" fill="#CC0808"/>
<path d="M62.9267 31.7773C62.9297 31.7863 62.9297 31.7938 62.9297 31.8013C62.1031 33.7036 60.5714 33.9856 60.6554 35.9388C60.6644 36.1384 60.7319 36.3604 60.8234 36.6109C59.2933 35.6763 56.962 35.2187 55.8789 35.2938C54.5137 35.3883 53.6886 34.5437 52.8125 32.856C56.8795 36.2314 57.043 31.3738 59.2033 33.0825C60.0419 33.7471 62.3206 33.1215 62.9267 31.7788V31.7773Z" fill="#5F332D"/>
<path d="M53.7834 22.7377C53.7834 22.7377 53.7894 22.7332 53.7924 22.7317C54.3925 22.2471 55.1095 21.8376 56.1147 21.5091C57.8564 20.939 60.7712 22.4542 63.9606 24.1269C61.9579 23.9889 60.8012 25.534 60.9317 26.9022C60.9557 27.1527 61.0158 27.3748 61.0983 27.5818C60.1486 27.2772 59.154 27.7198 58.848 30.1936C58.0229 28.5794 57.0823 26.4941 55.0405 26.7972C52.9973 27.1002 51.8617 28.1338 51.4461 29.478C48.2552 28.9484 47.9972 32.4304 48.3513 33.3995C48.9243 34.9746 50.4695 35.7442 51.9277 36.2438C50.834 38.5691 50.189 41.2889 52.6808 42.1545C54.6895 42.8506 56.0487 41.6204 56.5257 40.2868C57.2713 41.5874 60.2341 42.411 61.2498 40.3993C61.0787 40.9769 60.7847 41.6099 60.3092 42.3105C59.9521 43.8587 60.7487 47.2911 62.957 46.9626C60.7667 47.9242 56.8843 49.1048 54.0249 48.8168C52.4407 48.6578 48.9093 46.4375 47.5337 43.0441C46.5855 40.2058 47.9117 39.5352 48.0752 36.7058C46.7836 34.0415 44.0817 32.7469 45.0944 29.4735C45.7559 27.3387 47.6252 26.5272 51.3966 25.318C52.2802 24.3189 52.9013 23.4503 53.7804 22.7377H53.7834ZM54.874 46.376C56.6142 47.2611 59.7016 46.3415 58.6785 44.3718C58.1579 43.3696 57.2278 43.0366 56.3427 43.7267C55.4576 44.4153 53.7489 45.8029 54.874 46.376Z" fill="#5F332D"/>
<path d="M25.9933 5.65625C26.2192 6.50192 25.9191 7.21437 25.3364 7.71599C24.1038 8.77945 21.6085 8.89877 20.1836 7.34412C21.5598 9.78036 24.1559 12.3324 28.3762 10.5496C28.3785 10.5496 28.382 10.5473 28.3843 10.5461C28.4237 9.15711 27.7437 7.09274 25.9933 5.65625Z" fill="#2A731C"/>
<path d="M63.8662 24.75C62.712 24.8617 60.6269 25.7105 61.5205 28.2126C62.6376 31.3403 62.9725 33.4626 61.5205 34.4678C60.0686 35.4731 61.5205 37.372 61.5205 38.0422C61.5205 38.7124 61.1857 42.175 60.4038 42.2867C59.6219 42.3984 59.7334 45.3026 62.3024 45.526" stroke="#4B371F" stroke-width="2" stroke-linecap="round" stroke-linejoin="round"/>
<path d="M15.7862 23.9363C10.4719 25.8951 7.93535 36.9361 13.3498 42.128" stroke="white" stroke-width="6" stroke-linecap="round" stroke-linejoin="round"/>
<path d="M28.0098 15.3281C35.8851 20.9534 37.9425 21.114 42.957 18.5425" stroke="#4B371F" stroke-width="2" stroke-linecap="round" stroke-linejoin="round"/>
</svg>
