<svg width="61" height="53" viewBox="0 0 61 53" fill="none" xmlns="http://www.w3.org/2000/svg">
<path d="M35.9482 2.0791C37.6721 1.74428 39.1671 1.66176 40.6885 1.99512C40.8632 2.0334 41.0372 2.07568 41.21 2.12207C42.714 2.52604 44.0034 3.28664 45.3799 4.37695C46.732 5.44802 48.2518 6.90736 50.1807 8.75586C52.634 11.107 54.5643 12.9542 55.9453 14.6084C57.3496 16.2905 58.2868 17.8862 58.6582 19.7764C58.7003 19.9906 58.7358 20.2065 58.7656 20.4229C59.0287 22.3311 58.6623 24.1452 57.8809 26.1924C57.1124 28.2056 55.8862 30.5798 54.3301 33.6006L52.4229 37.3027C51.2907 39.5005 50.3981 41.237 49.5381 42.5928C48.6622 43.9736 47.7675 45.0481 46.585 45.8994C45.4022 46.7508 44.0984 47.2581 42.5107 47.6504C40.9521 48.0355 39.0226 48.3311 36.5791 48.707L27.3027 50.1338L27.2998 50.1348L27.2666 50.1396C24.8084 50.5178 22.8698 50.8178 21.2656 50.9229C19.6342 51.0297 18.2423 50.9449 16.8701 50.501C16.327 50.3253 15.7972 50.1098 15.2861 49.8555C13.9948 49.2129 12.9409 48.2987 11.8496 47.0811C10.7767 45.8839 9.60147 44.3147 8.10938 42.3252C6.48098 40.154 5.19696 38.4446 4.28418 36.958C3.35632 35.4468 2.74745 34.0672 2.52637 32.5244C2.43921 31.916 2.40108 31.301 2.41211 30.6865C2.44013 29.1281 2.87307 27.6831 3.60645 26.0684C4.3278 24.4801 5.38989 22.6248 6.73633 20.2686L9.14844 16.0469C11.0623 12.6977 12.1988 10.658 14 9.23438C15.8012 7.81076 18.0483 7.17633 21.749 6.08789L29.6709 3.75781C32.2339 3.004 34.2549 2.40802 35.9482 2.0791Z" fill="url(#paint0_linear_38899_1811)" stroke="#4B371F" stroke-width="3"/>
<path d="M22.2133 49.3983L41.4082 46.4453H41.4082C43.7192 46.0897 44.8746 45.912 45.3524 45.0677C45.8301 44.2233 45.3875 43.1413 44.5022 40.9773L41.8404 34.4707C40.6727 31.6163 40.0888 30.1891 38.8558 29.5073C37.6229 28.8254 36.1037 29.0896 33.0653 29.6181L26.3792 30.7808C23.9898 31.1964 22.795 31.4042 21.9418 32.1671C21.0886 32.9301 20.749 34.0942 20.0699 36.4225L17.7651 44.3248C16.9742 47.0366 16.5787 48.3924 17.3021 49.2175C18.0255 50.0426 19.4215 49.8278 22.2133 49.3983Z" fill="#B60000"/>
<path d="M11.2203 43.5997L5.06341 34.9077C3.97186 33.3667 3.42609 32.5962 3.56634 31.7787C3.70659 30.9613 4.47798 30.4168 6.02077 29.3277L9.65669 26.7612C12.245 24.9342 13.5392 24.0206 14.8812 24.065C15.3648 24.081 15.8416 24.1846 16.2882 24.3708C17.5275 24.8875 18.3257 26.2558 19.9221 28.9925C20.5885 30.1348 20.9216 30.706 21.0555 31.3318C21.105 31.5631 21.1339 31.7983 21.1418 32.0348C21.1633 32.6743 20.9781 33.3091 20.6078 34.5787L20.6078 34.5787L18.3244 42.4077C17.3174 45.8603 16.8138 47.5867 15.5762 47.7943C14.3386 48.002 13.2991 46.5346 11.2203 43.5997Z" fill="white"/>
<path opacity="0.3" d="M52.688 13.3292L42.916 4.53433C42.0197 3.72772 41.5716 3.32441 41.0848 3.4166C40.598 3.50879 40.3284 4.04802 39.7892 5.12649L39.209 6.28688C38.9252 6.85454 38.7833 7.13836 38.8176 7.43435C38.852 7.73034 39.0551 7.97412 39.4614 8.46168L45.8235 16.0961C46.1183 16.45 46.2658 16.6269 46.4674 16.7214C46.6689 16.8158 46.8993 16.8158 47.3599 16.8158H51.3501C53.5456 16.8158 54.6434 16.8158 54.8897 16.174C55.1359 15.5323 54.32 14.7979 52.688 13.3292Z" fill="white"/>
<path d="M35.7981 29.1457L26.6657 30.734C24.1738 31.1673 22.9278 31.384 21.8389 30.9194C21.808 30.9062 21.7772 30.8926 21.7466 30.8786C20.6698 30.3866 19.9908 29.3197 18.6328 27.1857C17.3694 25.2004 16.7378 24.2078 16.71 23.0974C16.7092 23.0658 16.7088 23.0341 16.7087 23.0024C16.7073 21.8918 17.3126 20.8828 18.5234 18.865L21.3508 14.1525C22.1778 12.7743 22.5912 12.0852 23.2173 11.6153C23.8434 11.1454 24.6205 10.9409 26.1748 10.5319L33.1743 8.6899C35.449 8.0913 36.5864 7.792 37.6549 8.10593C38.7234 8.41986 39.5181 9.28681 41.1075 11.0207L42.3886 12.4183C44.3319 14.5382 45.3035 15.5982 45.4371 16.9196C45.5707 18.2411 44.8309 19.4741 43.3513 21.94L41.2874 25.38C40.3607 26.9244 39.8974 27.6967 39.1786 28.1897C38.4599 28.6828 37.5726 28.8371 35.7981 29.1457Z" fill="#FF5F5F"/>
<defs>
<linearGradient id="paint0_linear_38899_1811" x1="13.6245" y1="7.7993" x2="29.6872" y2="51.7578" gradientUnits="userSpaceOnUse">
<stop stop-color="#FF4D4D"/>
<stop offset="1" stop-color="#CF0D0D"/>
</linearGradient>
</defs>
</svg>
