<svg width="68" height="66" viewBox="0 0 68 66" fill="none" xmlns="http://www.w3.org/2000/svg">
<path d="M35.6239 40.0215L36.1403 40.1432C36.1403 40.1432 39.5989 43.2207 40.5014 46.8226C41.4883 50.757 37.8864 60.5231 26.3838 62.3765C22.4365 63.0132 25.674 55.3467 25.1828 51.1353L35.6239 40.0215Z" fill="#C8C8E6"/>
<path d="M25.949 63.4963C24.9676 63.4963 24.3803 63.055 24.0607 62.6849C22.9357 61.3818 23.299 58.9696 23.7199 56.1765C23.9853 54.4159 24.2596 52.5952 24.1041 51.2605C24.0859 51.1043 24.102 50.946 24.1514 50.7966C24.2008 50.6473 24.2823 50.5105 24.3901 50.3957L34.8312 39.2819C34.9618 39.1428 35.1269 39.0405 35.3099 38.9855C35.4929 38.9305 35.6872 38.9247 35.8732 38.9686L36.3895 39.0904C36.5652 39.1318 36.7276 39.2162 36.8622 39.336C37.0137 39.4708 40.5814 42.6798 41.5539 46.5603C42.1734 49.0307 41.2752 52.592 39.2651 55.6327C36.5149 59.793 32.0015 62.5677 26.5563 63.4452C26.346 63.479 26.1414 63.4963 25.949 63.4963ZM26.304 51.5245C26.3881 53.0379 26.1235 54.7941 25.8665 56.4985C25.6131 58.1801 25.2302 60.7216 25.7059 61.2728C25.7184 61.2874 25.7569 61.332 25.949 61.332C26.0258 61.332 26.1135 61.3242 26.2098 61.3087C32.411 60.3095 35.7464 57.0229 37.4524 54.4419C39.3652 51.5481 39.8276 48.5999 39.4477 47.0855C38.8168 44.5668 36.7518 42.2761 35.8474 41.3659L26.304 51.5245Z" fill="#4B371F"/>
<path opacity="0.81" d="M6.7354 48.8267C3.13266 52.3385 -0.112973 62.2201 1.52002 63.8814C3.93532 66.3382 12.3841 62.5307 15.9866 59.0181C19.5888 55.5066 20.8337 50.458 18.1696 47.7496C14.0744 43.5828 10.6041 45.0558 6.7354 48.8267Z" fill="#FFC800"/>
<path opacity="0.81" d="M3.89922 65.7455C2.52753 65.7455 1.46601 65.3732 0.744483 64.6388C0.231629 64.1172 -0.0117735 63.3036 0.0004373 62.1523C0.0400546 58.4665 2.8613 51.0891 5.97587 48.053C8.7423 45.3567 10.9823 44.1543 13.2389 44.1543C15.201 44.1543 17.0674 45.0826 18.944 46.9921C20.1016 48.1691 20.7032 49.7543 20.6842 51.5767C20.6552 54.3446 19.1823 57.4159 16.7447 59.7921C13.857 62.6079 7.87099 65.7455 3.89922 65.7455ZM13.2391 46.3186C11.5942 46.3186 9.82228 47.3308 7.49354 49.6007C6.0068 51.0498 4.38521 53.9591 3.26127 57.1935C1.99107 60.8481 2.07411 62.8057 2.30693 63.138C2.66619 63.5019 3.37252 63.5812 3.89949 63.5812C7.19668 63.5812 12.6964 60.7123 15.2276 58.2444C17.2622 56.2611 18.4906 53.7602 18.5139 51.5537C18.5272 50.3009 18.1506 49.276 17.3943 48.5073C15.9467 47.0345 14.5875 46.3186 13.2391 46.3186Z" fill="#4B371F"/>
<path d="M24.7398 29.0032L25.1884 28.4296C25.1884 28.4296 21.3865 19.3752 12.7605 26.248C9.69609 28.6891 -1.3433 39.6939 6.1829 39.4598C13.7086 39.2263 15.6452 39.8524 15.6452 39.8524L24.7398 29.0032Z" fill="#C8C8E6"/>
<path d="M15.6457 40.935C15.5388 40.935 15.4311 40.9193 15.3256 40.8868C15.2697 40.8711 13.838 40.4899 9.33221 40.4899C8.37 40.4899 7.32177 40.5072 6.21737 40.5416C3.8037 40.6189 2.95952 39.6208 2.66646 38.7872C1.19709 34.606 11.9733 25.4904 12.0837 25.4027C14.4263 23.5363 16.6883 22.5898 18.8064 22.5898C23.8549 22.5898 26.0971 27.7905 26.1902 28.0119C26.2647 28.1891 26.2905 28.3829 26.2649 28.5734C26.2394 28.7638 26.1634 28.944 26.0448 29.0955L25.5962 29.6691C25.5888 29.6788 25.5811 29.6883 25.5731 29.6975L16.4785 40.5467C16.3767 40.6682 16.2493 40.766 16.1054 40.8331C15.9615 40.9002 15.8046 40.935 15.6457 40.935ZM9.33221 38.3253C12.5675 38.3253 14.3422 38.515 15.2298 38.6611L23.91 28.3049C23.2829 27.1915 21.5921 24.7542 18.8062 24.7542C17.1927 24.7542 15.3866 25.5413 13.4383 27.0935C8.36973 31.1313 4.29864 36.8872 4.71462 38.0712C4.76699 38.2206 5.17673 38.3813 5.95199 38.3813C6.0163 38.3813 6.08169 38.3802 6.14953 38.3781C7.27645 38.3434 8.3472 38.3253 9.33221 38.3253Z" fill="#4B371F"/>
<path d="M58.2382 36.9103C69.6461 25.3057 67.57 10.961 63.9938 5.829C61.2342 1.86862 56.9989 1.37834 56.9989 1.37834C17.8065 -2.86397 15.6455 39.85 15.6455 39.85C15.6455 39.85 23.9019 41.6659 25.1827 51.1337C25.1827 51.1337 48.1135 47.208 58.2382 36.9103Z" fill="#906EFF"/>
<path opacity="0.31" d="M25.4593 35.6899C25.4593 35.6899 41.469 1.18349 58.6268 2.67922C58.6268 2.67922 29.7385 -6.99836 19.1558 27.3022L25.4593 35.6899Z" fill="white"/>
<path opacity="0.81" d="M9.87188 50.6055C8.02642 52.4038 6.36331 57.4665 7.19989 58.3171C8.43698 59.5761 12.7656 57.6261 14.611 55.8265C16.4568 54.0275 17.0942 51.4413 15.7298 50.053C13.6317 47.9185 11.8538 48.6731 9.87188 50.6055Z" fill="white"/>
<path d="M33.2754 18.5312C33.2753 20.3612 33.6366 22.1732 34.3389 23.864C35.0411 25.5547 36.0704 27.0909 37.3681 28.385C38.6658 29.679 40.2064 30.7055 41.9019 31.4058C43.5975 32.1062 45.4147 32.4666 47.25 32.4666C49.0852 32.4666 50.9025 32.1062 52.5981 31.4058C54.2936 30.7055 55.8342 29.679 57.1319 28.385C58.4295 27.0909 59.4589 25.5547 60.1611 23.864C60.8633 22.1732 61.2247 20.3612 61.2246 18.5312C61.2247 16.7012 60.8633 14.8891 60.1611 13.1984C59.4589 11.5076 58.4295 9.9714 57.1319 8.67736C55.8342 7.38332 54.2936 6.35683 52.5981 5.6565C50.9025 4.95616 49.0852 4.5957 47.25 4.5957C45.4147 4.5957 43.5975 4.95616 41.9019 5.6565C40.2064 6.35683 38.6658 7.38332 37.3681 8.67736C36.0704 9.9714 35.0411 11.5076 34.3389 13.1984C33.6366 14.8891 33.2753 16.7012 33.2754 18.5312Z" fill="#906EFF"/>
<path d="M36.439 20.595C36.439 23.8634 37.7411 26.9979 40.0588 29.3091C42.3766 31.6202 45.5201 32.9185 48.7979 32.9185C52.0757 32.9185 55.2193 31.6202 57.5371 29.3091C59.8548 26.9979 61.1569 23.8634 61.1569 20.595C61.1569 17.3266 59.8548 14.1921 57.5371 11.881C55.2193 9.56985 52.0757 8.27148 48.7979 8.27148C45.5201 8.27148 42.3766 9.56985 40.0588 11.881C37.7411 14.1921 36.439 17.3266 36.439 20.595Z" fill="#673DFF"/>
<path d="M26.042 47.7247C27.7529 49.6273 26.042 47.7247 26.5399 51.4045C26.5399 51.4045 49.1185 45.5817 59.2432 35.2845C69.1375 25.22 67.899 13.2518 64.4977 8.08789C65.1665 26.4906 46.3546 38.9118 26.042 47.7247Z" fill="#673DFF"/>
<path d="M37.4214 18.2454C37.4214 20.9165 38.4645 23.4782 40.3213 25.367C42.1782 27.2558 44.6965 28.3169 47.3225 28.3169C49.9484 28.3169 52.4668 27.2558 54.3236 25.367C56.1804 23.4782 57.2235 20.9165 57.2235 18.2454C57.2235 16.9228 56.9674 15.6131 56.4699 14.3912C55.9723 13.1692 55.243 12.0589 54.3236 11.1237C52.4668 9.23493 49.9484 8.17383 47.3225 8.17383C44.6965 8.17383 42.1782 9.23493 40.3213 11.1237C38.4645 13.0125 37.4214 15.5742 37.4214 18.2454Z" fill="#BED3EB"/>
<path d="M47.3217 29.3995C41.2637 29.3995 36.3354 24.3958 36.3354 18.2456C36.3354 12.0955 41.2637 7.0918 47.3217 7.0918C53.3796 7.0918 58.3081 12.0955 58.3081 18.2456C58.3081 24.3958 53.3796 29.3995 47.3217 29.3995ZM47.3217 9.25638C42.4609 9.25638 38.5063 13.289 38.5063 18.2456C38.5063 23.2023 42.4609 27.2349 47.3217 27.2349C52.1826 27.2349 56.1373 23.2023 56.1373 18.2456C56.1373 13.289 52.1826 9.25638 47.3217 9.25638Z" fill="#4B371F"/>
<path d="M42.2279 46.3325C37.7664 26.8913 19.3725 23.543 19.3725 23.543L19.372 23.5432C15.9416 32.0852 15.5527 39.7679 15.5527 39.7679C15.5527 39.7679 23.8509 41.5926 25.1382 51.1087C25.1385 51.109 33.4085 49.6925 42.2279 46.3325Z" fill="#C8C8E6"/>
<path d="M25.1378 52.1905C24.8751 52.1905 24.6213 52.0955 24.4235 51.9231C24.2257 51.7507 24.0973 51.5126 24.0622 51.253C22.8965 42.6363 15.6242 40.8935 15.3152 40.8234C15.0657 40.767 14.844 40.6248 14.6891 40.4218C14.5342 40.2188 14.4559 39.9678 14.468 39.713C14.4843 39.3916 14.9057 31.7509 18.3638 23.1404C18.4183 23.0046 18.5 22.8809 18.6039 22.7773C18.7287 22.6541 18.8813 22.5626 19.0489 22.5105C19.2164 22.4584 19.3941 22.4472 19.567 22.4778C19.7634 22.5135 24.4345 23.3912 29.7087 26.7334C34.5849 29.823 40.8985 35.6896 43.2855 46.0907C43.3439 46.345 43.3082 46.6118 43.1849 46.8419C43.0617 47.0721 42.8592 47.2501 42.6148 47.3432C33.7966 50.7026 25.4363 52.1905 25.1378 52.1905ZM16.7031 38.9927C18.929 39.7888 24.5408 42.4918 26.0246 49.8384C28.4133 49.363 34.4796 48.0334 40.9457 45.6556C39.0519 38.3496 34.9076 32.6164 28.6165 28.6057C24.9737 26.2834 21.5799 25.2133 20.041 24.8101C17.6347 31.1413 16.902 36.9039 16.7031 38.9927Z" fill="#4B371F"/>
<path opacity="0.83" d="M53.2207 19.9129C52.9329 19.9129 52.6568 19.7989 52.4533 19.5959C52.2497 19.3929 52.1353 19.1176 52.1353 18.8306C52.1353 17.8887 51.8548 16.9826 51.3237 16.2101C51.1661 15.9732 51.1083 15.684 51.1627 15.4049C51.2172 15.1259 51.3795 14.8793 51.6147 14.7186C51.8499 14.5579 52.139 14.4959 52.4197 14.546C52.7003 14.5961 52.95 14.7542 53.1147 14.9863C53.8934 16.1177 54.309 17.4584 54.3064 18.8306C54.3063 19.1176 54.1918 19.3929 53.9883 19.5958C53.7847 19.7988 53.5086 19.9128 53.2207 19.9129ZM41.1977 19.1014C40.9098 19.1014 40.6338 18.9874 40.4302 18.7845C40.2267 18.5815 40.1123 18.3062 40.1123 18.0192C40.1123 14.266 43.1742 11.2129 46.9376 11.2129C48.0078 11.2129 49.033 11.4532 49.9841 11.9269C50.2393 12.0566 50.4327 12.2815 50.5223 12.5528C50.6119 12.8241 50.5903 13.1196 50.4623 13.3751C50.3342 13.6305 50.1101 13.8252 49.8388 13.9166C49.5675 14.008 49.2709 13.9888 49.0137 13.8632C48.3694 13.5415 47.6584 13.3751 46.9379 13.3775C44.3714 13.3775 42.2834 15.4598 42.2834 18.0192C42.2832 18.3062 42.1688 18.5814 41.9652 18.7844C41.7616 18.9873 41.4856 19.1014 41.1977 19.1014Z" fill="white"/>
<path opacity="0.63" d="M19.663 24.5254L19.6627 24.5259C16.5809 32.7451 16.2314 40.1372 16.2314 40.1372C16.2314 40.1372 17.5239 39.0619 20.0008 41.8597C20.8802 38.9553 24.6257 32.2508 28.2626 28.3659C23.6974 25.3138 19.663 24.5254 19.663 24.5254Z" fill="white"/>
<path opacity="0.31" d="M22.6143 45.1164C27.984 43.4199 31.9819 38.8648 36.0714 34.7754C36.0714 34.7748 41.0564 41.3944 41.607 46.1116C41.607 46.1116 34.0756 49.326 25.3289 50.8298C25.3289 50.8301 25.1354 46.8181 22.6143 45.1164Z" fill="#4B371F"/>
<path d="M25.1828 52.2163C24.9202 52.2161 24.6665 52.1211 24.4687 51.9487C24.271 51.7764 24.1425 51.5385 24.1071 51.279C22.9479 42.71 15.7159 40.9764 15.4084 40.9066C15.1589 40.8502 14.9373 40.708 14.7824 40.505C14.6275 40.3019 14.5492 40.051 14.5613 39.7962C14.5819 39.3914 15.1178 29.7701 19.9096 19.9916C24.3793 10.8714 33.519 0 51.6813 0C53.4324 0 55.2607 0.101736 57.116 0.302771C57.3168 0.326041 61.8806 0.899926 64.8853 5.21178C66.6396 7.72946 68.3309 12.6818 67.817 19.0297C67.4271 23.8437 65.5832 30.9849 59.0135 37.6681C54.6909 42.0646 47.705 45.8478 38.2494 48.9134C31.257 51.1802 25.6036 52.1603 25.3665 52.2009C25.3058 52.2112 25.2443 52.2164 25.1828 52.2163ZM16.7961 39.0759C19.0136 39.87 24.5918 42.5603 26.0693 49.8645C28.039 49.4727 32.506 48.5008 37.6074 46.8451C46.584 43.9319 53.45 40.2345 57.463 36.1529C68.3553 25.0727 66.5107 11.3378 63.1022 6.44667C60.6737 2.96142 56.907 2.45789 56.8693 2.45329C55.1036 2.26226 53.3542 2.16458 51.6811 2.16458C44.1443 2.16458 37.6291 4.13219 32.3163 8.01302C28.0578 11.1238 24.5397 15.4735 21.8601 20.9415C18.0503 28.7167 17.0349 36.5609 16.7961 39.0759Z" fill="#4B371F"/>
<path opacity="0.15" d="M25.2291 52.4747C25.2291 52.4747 24.3391 61.6709 30.5715 57.8017C36.8039 53.9323 40.1895 49.8547 40.1895 47.1133C40.1895 47.1133 40.1412 61.3841 25.0913 62.168C25.0915 62.168 23.2184 54.4794 25.2291 52.4747Z" fill="#4B371F"/>
</svg>
