<svg width="97" height="85" viewBox="0 0 97 85" fill="none" xmlns="http://www.w3.org/2000/svg">
<g filter="url(#filter0_d_38899_1820)">
<path d="M68.8581 13.4575C69.1048 13.4595 69.3251 13.5552 69.4962 13.6983C71.3691 15.2658 73.3604 15.2742 74.3082 15.0544C74.6164 14.9829 74.9752 15.0402 75.2481 15.282L75.9206 15.8777C76.1956 16.1216 76.2596 16.4562 76.2743 16.6893C76.2891 16.9228 76.259 17.174 76.2462 17.3187C76.2383 17.4076 76.2703 17.6967 76.8168 18.1813C77.5759 18.8544 78.1925 18.8907 78.4929 18.8346C78.7715 18.7826 79.1964 18.7825 79.5248 19.0737L80.144 19.6228C80.4106 19.8592 80.492 20.18 80.4897 20.4494C80.4874 20.7164 80.4054 20.9789 80.287 21.1908C80.2407 21.2737 80.2146 21.3619 80.2138 21.4563C80.2131 21.5489 80.2365 21.6736 80.3283 21.8327C80.4383 22.0233 80.6559 22.1634 80.9871 22.2418C81.3152 22.3194 81.6884 22.3187 81.9908 22.2842C82.309 22.2479 82.6607 22.3503 82.9015 22.6243L84.3101 24.2271C84.5271 24.474 84.5665 24.7707 84.5638 24.9896C84.561 25.2062 84.5146 25.4237 84.4851 25.5661L84.4792 25.5958L84.4786 25.6887C84.4963 25.8243 84.5989 26.0883 85.0458 26.4847C85.7794 27.1352 86.3805 27.1908 86.6901 27.1436C87.0006 27.0963 87.4787 27.1257 87.7992 27.4904L89.1288 29.0032C89.3449 29.2492 89.3978 29.5489 89.3766 29.8026C89.3557 30.053 89.2618 30.2912 89.1368 30.4825C89.079 30.571 89.0443 30.6656 89.0387 30.7655C89.0334 30.8622 89.0531 30.9949 89.1525 31.1671C89.2697 31.37 89.3955 31.4524 89.4968 31.4898C89.6068 31.5304 89.7333 31.5332 89.8603 31.5064C90.1827 31.4384 90.6661 31.4603 90.9917 31.8307L92.1555 33.1546C92.4175 33.4529 92.4446 33.828 92.3701 34.1271C92.2963 34.4226 92.1134 34.7022 91.8566 34.8852C91.6763 35.0136 91.5233 35.1804 91.4312 35.39C91.341 35.595 91.2946 35.8726 91.3721 36.2517C91.4565 36.6639 91.5703 36.9081 91.6717 37.0579C91.7698 37.2028 91.8721 37.2831 91.9762 37.3518C92.0044 37.3704 92.0321 37.3889 92.064 37.4087C92.0938 37.4272 92.1312 37.4493 92.1662 37.4725C92.2339 37.5172 92.3327 37.5877 92.4172 37.6904C92.6308 37.9499 92.6329 38.2551 92.5557 38.5434L91.9721 40.7214C91.8851 41.046 91.641 41.3052 91.3211 41.4114C65.0077 50.1458 35.9926 63.8873 24.2631 69.9235C23.7258 70.2 23.1387 69.9277 22.8981 69.4638C21.3969 66.5689 18.7524 66.2577 17.242 66.5186C16.767 66.6007 16.2402 66.3541 16.0662 65.8396L15.3396 63.6916C15.2229 63.3463 15.3097 62.9911 15.5002 62.7338C15.6812 62.4892 15.8684 62.1663 15.9652 61.8433C16.0629 61.5174 16.0512 61.2591 15.9413 61.0685C15.8322 60.8795 15.7161 60.796 15.6218 60.7555C15.5219 60.7126 15.4082 60.7023 15.2898 60.7191C14.9251 60.7709 14.3515 60.6959 14.0651 60.1998L13.3055 58.8842C13.0865 58.5048 13.1522 58.0605 13.3741 57.749C13.5512 57.5006 13.7252 57.1859 13.8124 56.8756C13.8999 56.564 13.8847 56.3176 13.7787 56.1336C13.6866 55.9742 13.5899 55.8908 13.5092 55.8451C13.4273 55.7987 13.3383 55.7773 13.2436 55.7759C13.001 55.7726 12.7325 55.7122 12.5003 55.5808C12.2658 55.4481 12.0287 55.2172 11.9572 54.8681L11.7687 53.9491C11.7047 53.6358 11.7979 53.333 11.9676 53.1087C12.1504 52.8673 12.3456 52.5397 12.4483 52.2093C12.552 51.8751 12.5415 51.61 12.4294 51.4156C12.3373 51.2562 12.2406 51.1728 12.1599 51.1271C12.0779 51.0807 11.988 51.06 11.8932 51.0586C11.6505 51.0552 11.382 50.9949 11.1498 50.8635C10.9155 50.7308 10.6792 50.4997 10.6077 50.1511L10.4192 49.2321C10.3551 48.9189 10.4485 48.616 10.6181 48.3917C10.8009 48.1502 10.9963 47.8218 11.099 47.4913C11.2026 47.1575 11.1917 46.8928 11.0798 46.6986C10.9806 46.5266 10.7945 46.3954 10.5128 46.3131C10.2308 46.2308 9.89962 46.213 9.5996 46.2312C9.11683 46.2603 8.59757 45.9578 8.48426 45.4056L8.2568 44.2962C8.19276 43.9829 8.28596 43.6801 8.45571 43.4558C8.63844 43.2144 8.83367 42.8868 8.93632 42.5564C9.0401 42.2222 9.0296 41.9571 8.91745 41.7627C8.87648 41.6918 8.84266 41.6654 8.82781 41.6558C8.81466 41.6473 8.80061 41.6414 8.77644 41.64C8.71241 41.6365 8.59185 41.6645 8.41992 41.7669C8.13707 41.9354 7.79721 41.9771 7.49643 41.9006C7.18982 41.8226 6.8832 41.6072 6.75695 41.2344L6.24269 39.7125C6.04453 39.1267 6.42321 38.6082 6.76905 38.3744C7.24357 38.0538 7.73629 37.3251 8.17647 36.4121C8.60508 35.5229 8.94368 34.5458 9.14781 33.8284C9.22064 33.5724 9.39174 33.3525 9.62895 33.2213C34.021 19.7281 59.0216 14.4492 68.7507 13.4621L68.8581 13.4575Z" fill="url(#paint0_linear_38899_1820)" stroke="#4B371F"/>
<path d="M46.5109 51.5147C39.0938 42.8948 27.3802 34.6467 20.9967 30.6832C20.2926 30.246 20.3761 29.1854 21.1441 28.8738L28.1344 26.0373C28.3982 25.9302 28.6896 25.9374 28.944 26.0651C37.4147 30.3159 51.3237 40.3069 58.479 45.7154C59.0939 46.1802 58.9672 47.1344 58.2545 47.428L47.6611 51.7924C47.2578 51.9586 46.7954 51.8453 46.5109 51.5147Z" fill="white" fill-opacity="0.8"/>
<path d="M60.967 45.592C48.0668 34.5505 38.967 29.3519 33.0434 25.9346C32.3059 25.5092 32.4119 24.4213 33.2154 24.1398L34.6781 23.6274C34.7897 23.5883 34.8968 23.5674 35.0148 23.5757C40.2037 23.9377 58.6758 36.7836 66.488 42.6148C67.1289 43.0932 66.9626 44.0865 66.205 44.3428L61.9443 45.7842C61.6094 45.8975 61.2356 45.8219 60.967 45.592Z" fill="white" fill-opacity="0.8"/>
<path d="M90.909 41.0232C64.7939 49.718 36.0993 63.2866 24.2559 69.3667C23.8472 69.5765 23.3366 69.478 23.1906 69.0424C22.8665 68.0752 23.1285 66.5398 25.6924 65.0595C29.8149 62.6794 82.6958 37.6452 92.0726 38.4153L91.5588 40.3328C91.4717 40.658 91.2285 40.9168 90.909 41.0232Z" fill="#C3783E"/>
<path d="M24.6617 65.6549C38.0599 57.9195 66.0406 45.1046 87.2101 38.9288" stroke="#FFF549" stroke-width="2" stroke-linecap="round"/>
<path d="M86.0638 35.0956C63.2885 40.7195 33.7881 54.8598 23.3035 60.9292C22.7664 61.2402 22.0771 61.0015 21.8531 60.4227L12.8115 37.0616C12.633 36.6003 12.815 36.0792 13.2465 35.8376C31.8508 25.4185 58.1486 18.4942 68.6863 16.6778C68.9982 16.624 69.304 16.7259 69.5315 16.946L86.5267 33.3894C87.0966 33.9408 86.8337 34.9055 86.0638 35.0956Z" stroke="#955E33" stroke-linecap="round"/>
<path d="M16.4058 34.6914L25.8096 58.1197" stroke="#955E33" stroke-linecap="round" stroke-dasharray="1 2"/>
<path d="M66.2954 17.5703L82.3186 35.8027" stroke="#955E33" stroke-linecap="round" stroke-dasharray="1 2"/>
</g>
<path d="M63.0406 37.7029C62.482 37.8865 61.9137 37.6944 61.3355 37.1266C60.7688 36.5551 60.2521 35.8092 59.7855 34.889C59.3188 33.9689 58.9375 33.0585 58.6416 32.158C58.1583 30.6876 57.963 29.3056 58.0557 28.0121C58.1561 26.7035 58.7648 25.8656 59.8819 25.4985C60.372 25.3374 60.8613 25.385 61.3497 25.6412C61.8495 25.8938 62.3354 26.2771 62.8076 26.7914C63.2759 27.2942 63.8781 28.012 64.6141 28.9447L65.1689 29.6527C65.0037 29.2271 64.8874 28.9117 64.82 28.7065C64.3817 27.3728 64.2099 26.2547 64.3048 25.352C64.411 24.4456 64.8574 23.8632 65.6439 23.6047C66.59 23.2937 67.4252 23.6444 68.1495 24.6568C68.87 25.6577 69.4794 26.9162 69.9776 28.4322C70.2736 29.3327 70.4668 30.3049 70.5573 31.3487C70.6591 32.3888 70.5603 33.3369 70.2607 34.1932C69.9612 35.0495 69.3897 35.6162 68.5461 35.8934C68.0332 36.062 67.523 36.0276 67.0156 35.7902C66.5158 35.5377 66.0449 35.181 65.6029 34.72C65.1723 34.2553 64.623 33.6022 63.9549 32.7609C63.6077 32.3193 63.3416 31.9899 63.1566 31.7729L63.6288 33.1522C63.9248 34.0527 64.119 34.7972 64.2114 35.3857C64.3 35.9628 64.2581 36.4502 64.0857 36.8479C63.9247 37.2419 63.5763 37.5269 63.0406 37.7029Z" fill="#FFF4C2"/>
<path d="M56.5018 36.4243C57.1056 36.3016 57.6045 36.3018 57.9986 36.4249C58.4004 36.5328 58.6799 36.8261 58.8373 37.3049C58.9946 37.7836 58.9398 38.1932 58.6727 38.5336C58.4171 38.8702 58.065 39.1438 57.6164 39.3544C57.164 39.5536 56.5674 39.7749 55.8264 40.0185C55.0969 40.2582 54.491 40.4321 54.0087 40.5401C53.5226 40.6367 53.0768 40.6254 52.6713 40.506C52.2658 40.3867 51.9844 40.0877 51.827 39.6089C51.6734 39.1416 51.7149 38.749 51.9515 38.4313C52.1958 38.0984 52.5783 37.8022 53.0992 37.5426C52.825 36.9002 52.4855 35.9634 52.0809 34.7324C51.7175 33.6267 51.4481 32.7301 51.2726 32.0426C50.589 32.1915 50.0179 32.2024 49.5594 32.0752C49.1008 31.9481 48.7835 31.6166 48.6074 31.0809C48.435 30.5566 48.49 30.1091 48.7724 29.7384C49.0547 29.3677 49.443 29.0696 49.9372 28.844C50.4314 28.6185 51.0832 28.3727 51.8925 28.1067C52.7018 27.8407 53.3723 27.6519 53.904 27.5403C54.4356 27.4287 54.9251 27.4384 55.3723 27.5692C55.8308 27.6964 56.1463 28.0221 56.3186 28.5465C56.4947 29.0822 56.4302 29.5392 56.125 29.9173C55.8313 30.2917 55.3594 30.6236 54.7094 30.9131C54.9724 31.5213 55.2931 32.401 55.6715 33.5523C56.0349 34.6579 56.3117 35.6153 56.5018 36.4243Z" fill="#FFF4C2"/>
<path d="M43.3057 44.208C42.371 44.5153 41.5566 44.1893 40.8625 43.2302C40.1798 42.2674 39.5649 40.9539 39.0179 39.2896C38.662 38.2068 38.5224 37.1286 38.599 36.0551C38.6833 34.9665 39.0345 33.9985 39.6528 33.1512C40.2673 32.2925 41.1558 31.672 42.3185 31.2899C43.2532 30.9827 44.168 30.9031 45.0628 31.051C45.9539 31.1876 46.7416 31.5475 47.4259 32.1309C48.1217 32.7106 48.6269 33.4792 48.9416 34.4367C49.305 35.5424 49.388 36.5444 49.1907 37.4428C48.9934 38.3413 48.6014 39.089 48.0145 39.686C47.4277 40.2831 46.741 40.7108 45.9545 40.9693C45.3162 41.1791 44.6936 41.2638 44.0866 41.2233C44.2749 41.5656 44.4009 41.8336 44.4646 42.0274C44.8205 43.1103 44.4342 43.8372 43.3057 44.208ZM44.8441 38.3978C45.2545 38.2629 45.5591 37.9986 45.7581 37.6048C45.9647 37.1959 46.0024 36.792 45.8713 36.393C45.7364 35.9827 45.4664 35.6799 45.0612 35.4847C44.6637 35.2743 44.2598 35.2366 43.8494 35.3714C43.4505 35.5026 43.1477 35.7726 42.9411 36.1815C42.7307 36.579 42.693 36.983 42.8278 37.3933C42.959 37.7923 43.229 38.0951 43.6379 38.3017C44.0431 38.4969 44.4451 38.5289 44.8441 38.3978Z" fill="#FFF4C2"/>
<path d="M35.0355 46.9263C34.2832 47.1735 33.5256 47.3088 32.7629 47.3322C32.0078 47.3404 31.3518 47.2276 30.7951 46.9938C30.2345 46.7486 29.8737 46.381 29.7126 45.8908C29.559 45.4235 29.5797 45.0062 29.7748 44.6389C29.9699 44.2717 30.284 44.0169 30.7171 43.8745C31.0021 43.7809 31.2603 43.7402 31.4917 43.7526C31.7307 43.7498 31.9981 43.7756 32.2938 43.83C32.5062 43.8612 32.6844 43.8847 32.8285 43.9005C32.9803 43.9011 33.1303 43.8771 33.2785 43.8284C33.6546 43.7048 33.794 43.4948 33.6966 43.1984C33.6591 43.0844 33.5475 43.0138 33.3617 42.9864C33.1721 42.9477 32.8649 42.916 32.4401 42.8915C31.6814 42.8503 31.0499 42.7737 30.5458 42.6615C29.7687 42.4875 29.1798 42.2138 28.7792 41.8402C28.3899 41.463 28.0829 40.9324 27.8582 40.2484C27.6409 39.5873 27.6476 38.8968 27.8782 38.1768C28.1052 37.4455 28.5253 36.7832 29.1387 36.1901C29.7521 35.597 30.492 35.158 31.3583 34.8733C32.2018 34.5961 33.0143 34.4743 33.7958 34.5079C34.5849 34.5264 35.2539 34.6981 35.8027 35.0229C36.3592 35.3326 36.7273 35.761 36.9071 36.3081C37.1132 36.9351 37.0806 37.4699 36.8093 37.9127C36.5457 38.3404 36.1859 38.6291 35.73 38.779C35.3538 38.9026 35.0614 38.9735 34.8526 38.9916C34.6552 39.0059 34.4522 39.0032 34.2436 38.9833C34.0767 38.975 33.9382 38.9763 33.8281 38.9873C33.7143 38.9868 33.5662 39.0165 33.3838 39.0764C33.2356 39.1252 33.11 39.2233 33.007 39.3708C32.9115 39.5032 32.8919 39.6549 32.9481 39.8259C32.9893 39.9513 33.099 40.0352 33.2772 40.0777C33.4516 40.1088 33.6469 40.1267 33.8632 40.1314C34.0794 40.1361 34.2331 40.1424 34.3241 40.1504C35.5116 40.1895 36.4385 40.3775 37.1049 40.7142C37.7675 41.0395 38.2281 41.5954 38.4866 42.3819C38.805 43.3508 38.6609 44.2381 38.0542 45.0437C37.4552 45.8342 36.4489 46.4617 35.0355 46.9263Z" fill="#FFF4C2"/>
<path d="M69.9779 28.4341C69.4796 26.9181 68.8701 25.6596 68.1496 24.6586C67.4706 23.7096 66.6943 23.3416 65.8204 23.5555L65.6445 23.6059C64.858 23.8644 64.4114 24.4478 64.3052 25.3542C64.2104 26.2568 64.3819 27.375 64.8202 28.7084C64.8876 28.9136 65.004 29.2292 65.1692 29.6548L64.6144 28.9463C63.8785 28.0138 63.2762 27.2963 62.8079 26.7935C62.3948 26.3437 61.9712 25.9937 61.537 25.7441L61.3501 25.6427C60.9229 25.4186 60.495 25.3543 60.0664 25.4495L59.8823 25.4998C58.7652 25.867 58.1568 26.7053 58.0564 28.0138C57.9637 29.3073 58.1587 30.6894 58.642 32.1599L58.7568 32.4977C59.0344 33.2879 59.3775 34.086 59.7858 34.8912C60.2524 35.8112 60.7693 36.5567 61.336 37.1282C61.9141 37.6959 62.4823 37.8882 63.0407 37.7048C63.5765 37.5287 63.9252 37.2436 64.0862 36.8496C64.2586 36.452 64.3002 35.9646 64.2116 35.3875C64.1192 34.7991 63.9252 34.0547 63.6293 33.1543L63.1574 31.7748C63.3424 31.9918 63.6085 32.3209 63.9555 32.7622C64.6236 33.6036 65.1727 34.2573 65.6033 34.722C66.0453 35.1829 66.5164 35.5398 67.0162 35.7923C67.4601 35.9999 67.9063 36.0522 68.3544 35.9491L68.5467 35.8952C69.3901 35.6179 69.9612 35.0511 70.2607 34.1949C70.5603 33.3387 70.6599 32.3907 70.5581 31.3507C70.4789 30.4373 70.3208 29.5784 70.0843 28.7747L69.9779 28.4341ZM71.6877 27.8722C72.0312 28.9175 72.2495 30.0276 72.3507 31.1954L72.3496 31.1948C72.47 32.4486 72.3561 33.6571 71.9601 34.789C71.4804 36.1602 70.4973 37.1485 69.1087 37.605C68.1424 37.9225 67.1586 37.8459 66.2531 37.4223L66.229 37.4108L66.2046 37.3985C66.09 37.3406 65.9778 37.278 65.8672 37.2134C65.8297 37.3315 65.7882 37.4496 65.7378 37.5658L65.7359 37.5655C65.3102 38.5719 64.4563 39.134 63.6027 39.4146C62.1679 39.8861 60.9242 39.2469 60.0745 38.4124L60.0579 38.3956C59.328 37.6596 58.7096 36.7473 58.1808 35.7046C57.6766 34.7103 57.259 33.716 56.9322 32.7218C56.5934 31.6909 56.3721 30.6725 56.2811 29.6713C56.4441 29.3456 56.4583 28.9719 56.3186 28.5471C56.2949 28.4748 56.2675 28.4069 56.2384 28.3422C56.2427 28.1894 56.2502 28.037 56.2611 27.8851L56.262 27.8765C56.3309 26.978 56.5856 26.0982 57.1316 25.3465C57.6876 24.5813 58.4533 24.075 59.3203 23.79C60.298 23.4687 61.2808 23.5826 62.1608 24.0368L62.1617 24.0365C62.3408 24.127 62.5151 24.2275 62.6848 24.3363C62.8127 23.9176 63.0082 23.5122 63.2915 23.1425C63.7626 22.5278 64.3909 22.1235 65.0826 21.8961C65.9234 21.6199 66.8189 21.6165 67.677 21.9768C68.4948 22.3202 69.1246 22.9289 69.6105 23.6068L69.9226 24.0639C70.6331 25.1562 71.2153 26.435 71.6877 27.8722Z" fill="#4B371F"/>
<path d="M56.319 28.546C56.1682 28.0873 55.9082 27.7806 55.5383 27.6259L55.3732 27.5683C54.9819 27.4537 54.5581 27.432 54.1021 27.5032L53.9049 27.5393C53.5062 27.623 53.0292 27.7502 52.4743 27.9207L51.8933 28.1061C51.084 28.3721 50.4318 28.6176 49.9376 28.8432C49.4435 29.0688 49.0551 29.367 48.7728 29.7376C48.4905 30.1083 48.4358 30.556 48.6081 31.0803L48.6813 31.2718C48.8662 31.6957 49.1591 31.9633 49.5602 32.0745C50.0188 32.2016 50.5904 32.1911 51.2739 32.0422C51.4494 32.7296 51.7186 33.626 52.0819 34.7313L52.3728 35.5996C52.6519 36.4126 52.8943 37.06 53.1 37.5419C52.5792 37.8014 52.1969 38.0978 51.9527 38.4305L51.8727 38.553C51.7082 38.8474 51.6938 39.1993 51.8282 39.6083L51.8928 39.7795C52.0576 40.159 52.3171 40.4015 52.6718 40.5059C53.0773 40.6252 53.5234 40.6365 54.0095 40.5399C54.3713 40.4588 54.8026 40.34 55.3035 40.1849L55.8269 40.0184C56.3827 39.8357 56.8574 39.6646 57.2509 39.5069L57.6169 39.3542C58.0655 39.1436 58.418 38.8698 58.6737 38.5333C58.9073 38.2355 58.9786 37.8844 58.8873 37.4806L58.8378 37.3045C58.6804 36.8258 58.4009 36.5327 57.9991 36.4247C57.6052 36.3017 57.1065 36.3009 56.5029 36.4234C56.3128 35.6145 56.0352 34.657 55.6718 33.5514C55.2936 32.4005 54.9732 31.521 54.7103 30.9128C55.3603 30.6234 55.8319 30.291 56.1256 29.9167C56.3926 29.5858 56.4759 29.1947 56.3746 28.7433L56.319 28.546ZM58.0529 28.0659C58.0145 28.6526 58.0368 29.2573 58.1164 29.8803C58.0122 30.2853 57.8225 30.6808 57.5268 31.0472L57.5257 31.0467C57.3469 31.2716 57.1436 31.4725 56.9248 31.6558C57.0691 32.0599 57.2224 32.5048 57.3816 32.9895C57.5644 33.5455 57.7277 34.0716 57.8711 34.5658C58.0708 34.5904 58.2694 34.6305 58.4661 34.6876L58.4667 34.6865C58.4771 34.6893 58.4872 34.6929 58.4975 34.6958C58.5102 34.6996 58.5234 34.7022 58.5361 34.7062L58.5355 34.7073C59.6108 35.0232 60.2531 35.8465 60.5476 36.7425C60.8543 37.6759 60.7941 38.7282 60.1061 39.6212C60.1004 39.6287 60.0954 39.6367 60.0896 39.6442L60.0885 39.6436C59.6313 40.2371 59.0399 40.6745 58.3818 40.9834L58.3626 40.9925L58.3423 41.0011C57.8153 41.2331 57.1575 41.4756 56.3889 41.7282C55.6308 41.9773 54.9638 42.1702 54.4025 42.2959L54.382 42.3008L54.3603 42.3052C53.6383 42.4487 52.8931 42.4467 52.1643 42.2323C51.0768 41.9123 50.4199 41.0875 50.1184 40.1703C49.8496 39.3525 49.8373 38.3876 50.3902 37.5269L50.5088 37.3556C50.6332 37.1872 50.7706 37.0317 50.9173 36.8874C50.747 36.4143 50.5654 35.8816 50.3721 35.2933C50.2137 34.8114 50.0715 34.3631 49.9453 33.9498C49.6536 33.931 49.3636 33.8876 49.0794 33.8088C48.9131 33.7627 48.7569 33.7034 48.6091 33.6359C48.3083 33.0416 47.9156 32.5395 47.4265 32.1319C47.2714 31.9997 47.1093 31.881 46.9436 31.7717C46.9279 31.7288 46.9126 31.6857 46.8983 31.6423C46.5801 30.6742 46.6302 29.5813 47.3414 28.6475L47.5322 28.4146C47.9927 27.8894 48.5614 27.4934 49.1905 27.2063C49.769 26.9422 50.49 26.6728 51.3313 26.3963C52.1726 26.1198 52.9129 25.9089 53.5352 25.7783C54.3004 25.6177 55.0859 25.6153 55.8535 25.835L55.8541 25.8339C56.9924 26.1496 57.7035 26.9942 58.0288 27.9841C58.0377 28.0111 58.0446 28.0387 58.0529 28.0659Z" fill="#4B371F"/>
<path d="M48.9425 34.4381C48.6672 33.6004 48.246 32.907 47.679 32.3585L47.4271 32.1323C46.8283 31.6218 46.15 31.282 45.3929 31.1136L45.0638 31.0525C44.2808 30.923 43.4822 30.9676 42.6686 31.1866L42.3191 31.2913C41.1565 31.6735 40.2678 32.294 39.6534 33.1526L39.5404 33.3128C38.9922 34.1213 38.6786 35.0362 38.5996 36.0568L38.5812 36.4597C38.5615 37.3998 38.7073 38.3435 39.0187 39.2908C39.5656 40.9549 40.1806 42.2684 40.8632 43.2312C41.514 44.1304 42.2705 44.4734 43.1327 44.2596L43.3066 44.2089C44.4349 43.838 44.821 43.1116 44.4652 42.0289C44.4015 41.8351 44.2753 41.5667 44.087 41.2244C44.694 41.2649 45.317 41.18 45.9553 40.9702C46.6434 40.744 47.2554 40.3889 47.7907 39.9035L48.0156 39.6872C48.6023 39.0902 48.9941 38.3425 49.1914 37.4441C49.364 36.6581 49.3218 35.7929 49.0653 34.8483L48.9425 34.4381ZM43.8501 35.3727C44.2605 35.2378 44.6646 35.2755 45.0622 35.4859L44.4673 36.7184C44.4595 36.7101 44.4532 36.7035 44.4479 36.6989L44.2534 37.0838L44.2545 37.0843C44.2653 37.0866 44.278 37.0906 44.2931 37.092C44.353 37.0976 44.3978 37.0872 44.4121 37.0825L44.8448 38.3991C44.4459 38.5302 44.0437 38.4986 43.6385 38.3034C43.2297 38.0968 42.9595 37.7938 42.8284 37.3949C42.6935 36.9846 42.7313 36.5803 42.9416 36.1829C43.1482 35.7739 43.4512 35.5038 43.8501 35.3727ZM44.5382 36.8329L44.5153 36.7831C44.503 36.7614 44.4882 36.7407 44.4725 36.7231C44.4709 36.7213 44.4688 36.7201 44.4673 36.7184L45.0622 35.4859C45.4673 35.6811 45.7375 35.9841 45.8723 36.3944L45.9131 36.5438C45.991 36.8941 45.94 37.2485 45.7591 37.6065L45.6788 37.7476C45.4816 38.0638 45.2038 38.2811 44.8448 38.3991L44.4121 37.0825C44.4229 37.0789 44.4405 37.0719 44.4619 37.0596C44.4836 37.0473 44.5043 37.0325 44.5219 37.0168C44.5289 37.0106 44.5333 37.0035 44.5381 36.9985C44.541 36.9863 44.5456 36.9705 44.5474 36.9511C44.5502 36.9214 44.5499 36.8955 44.5475 36.8752L44.5382 36.8329ZM44.2343 37.0651L44.4179 36.6837C44.4104 36.6822 44.3998 36.6802 44.3868 36.6792C44.3662 36.6775 44.3447 36.6778 44.3243 36.6803C44.3039 36.6828 44.2895 36.6871 44.2828 36.6893C44.2772 36.6912 44.2421 36.7048 44.2015 36.7401C44.1782 36.7603 44.1641 36.7782 44.1571 36.788C44.155 36.7961 44.152 36.8099 44.1503 36.8291C44.1481 36.8525 44.1485 36.878 44.1513 36.9027C44.1542 36.9271 44.1589 36.9456 44.1625 36.9564L44.181 36.9957C44.191 37.0134 44.2054 37.0348 44.2252 37.057C44.2279 37.06 44.2317 37.0623 44.2343 37.0651ZM50.6523 33.8761C51.0899 35.2077 51.2316 36.5441 50.9492 37.8303C50.6867 39.0255 50.1462 40.087 49.2989 40.949C48.5131 41.7484 47.5797 42.3308 46.5173 42.68C46.4755 42.6937 46.4328 42.7049 46.391 42.7178C46.3958 43.215 46.2973 43.7312 46.0317 44.2309C45.5403 45.1553 44.679 45.6523 43.8686 45.9187C43.0513 46.1873 42.1741 46.2057 41.326 45.8663C40.5103 45.5399 39.8842 44.9484 39.4053 44.2867L39.4004 44.28L39.3951 44.2725C39.1249 43.8913 38.8713 43.4733 38.63 43.0226C38.6051 42.8136 38.5596 42.6 38.4882 42.3828C38.3324 41.9089 38.102 41.5197 37.7995 41.2133C37.6282 40.7797 37.4643 40.3259 37.3089 39.8528C37.089 39.1839 36.9374 38.5093 36.8544 37.8311C37.0821 37.4046 37.1019 36.8983 36.9083 36.3092C36.8779 36.2166 36.8397 36.1286 36.7985 36.0428C36.8008 36.0047 36.8016 35.9662 36.8043 35.928L36.8054 35.9175C36.9076 34.5983 37.3197 33.3819 38.0493 32.3052L38.1994 32.0922C39.0699 30.882 40.2964 30.0617 41.7571 29.5815C42.9367 29.1938 44.1379 29.0795 45.3359 29.2739L45.3364 29.2728C46.5262 29.4552 47.5982 29.9375 48.5216 30.7032C48.5363 30.8243 48.5657 30.9501 48.6087 31.0807C48.7848 31.6165 49.1022 31.9478 49.5608 32.0749C49.641 32.0971 49.7249 32.1136 49.8121 32.1274C50.1653 32.6589 50.4448 33.2448 50.6523 33.8761Z" fill="#4B371F"/>
<path d="M38.4884 42.3835C38.2299 41.597 37.7685 41.0411 37.1058 40.7158C36.4396 40.3792 35.5129 40.1913 34.3258 40.1522C34.2461 40.1452 34.1181 40.1411 33.9424 40.1367L33.8646 40.1336C33.6484 40.1289 33.4531 40.1102 33.2787 40.0791C33.1006 40.0366 32.9903 39.953 32.9491 39.8276C32.8999 39.678 32.9091 39.5429 32.9761 39.4228L33.0085 39.3724C33.1115 39.225 33.2374 39.127 33.3855 39.0783C33.5678 39.0184 33.7159 38.9882 33.8297 38.9887L33.8779 39.4844L33.8889 38.9859C33.9881 38.9796 34.1067 38.9786 34.2449 38.9855C34.4535 39.0053 34.6569 39.0077 34.8543 38.9933C35.063 38.9752 35.3557 38.9044 35.7317 38.7808C36.1306 38.6496 36.4557 38.4118 36.7073 38.0679L36.8105 37.9146C37.0818 37.4719 37.1145 36.9368 36.9084 36.3099C36.7286 35.7628 36.3606 35.334 35.8042 35.0244C35.324 34.7402 34.7516 34.5736 34.0874 34.5239L33.7971 34.5101C33.0156 34.4765 32.2026 34.5976 31.3592 34.8748C30.493 35.1595 29.7531 35.5986 29.1398 36.1916C28.5265 36.7847 28.1067 37.4471 27.8798 38.1783L27.8036 38.4476C27.6509 39.071 27.6696 39.6722 27.8597 40.2506L27.9478 40.4991C28.1625 41.0642 28.44 41.5123 28.7806 41.8424C29.1813 42.2158 29.7702 42.4893 30.5472 42.6633C31.0513 42.7754 31.6828 42.8524 32.4415 42.8936C32.8663 42.9181 33.1739 42.9496 33.3635 42.9883L33.4884 43.0166C33.6 43.0534 33.6696 43.1148 33.6977 43.2004L33.7237 43.3075C33.757 43.5477 33.6089 43.7216 33.2802 43.8297L33.2522 43.7446L33.237 43.8421C33.1028 43.8818 32.9674 43.9023 32.8302 43.9018C32.6862 43.886 32.5078 43.8627 32.2955 43.8314C31.9999 43.7771 31.7323 43.7519 31.4933 43.7547C31.2619 43.7423 31.0032 43.7826 30.7182 43.8762C30.2852 44.0186 29.9713 44.2738 29.7763 44.6409C29.5813 45.0081 29.5605 45.4254 29.714 45.8926C29.8751 46.3827 30.2358 46.7506 30.7963 46.9958C31.353 47.2295 32.0091 47.3424 32.7641 47.3342C33.5268 47.3108 34.2843 47.1749 35.0366 46.9277C36.3618 46.4921 37.3292 45.9134 37.9385 45.1913L38.0553 45.0456C38.624 44.2904 38.7866 43.4633 38.5423 42.5646L38.4884 42.3835ZM33.2802 43.8297L33.237 43.8421L33.2522 43.7446L33.2802 43.8297ZM33.8297 38.9887C33.8485 38.9869 33.8683 38.9872 33.8889 38.9859L33.8779 39.4844L33.8297 38.9887ZM38.6292 35.7841C38.6183 35.8743 38.6068 35.9655 38.5997 36.0574C38.5526 36.7176 38.5883 37.3795 38.7048 38.0432C38.6246 38.3179 38.5072 38.5897 38.3451 38.8543L38.3428 38.8587C38.2682 38.9798 38.1871 39.0953 38.1018 39.2062C38.6028 39.4843 39.0215 39.8441 39.3632 40.2662C39.6753 41.0923 40.006 41.8157 40.3582 42.435C40.6188 43.7437 40.3291 45.0182 39.4934 46.128L39.4903 46.1327C38.5853 47.3269 37.1957 48.1126 35.5985 48.6375C34.6888 48.9365 33.761 49.1039 32.8196 49.1327L32.8013 49.1332L32.7838 49.1334C31.8424 49.1436 30.9319 49.0046 30.0993 48.655L30.0754 48.6443C29.1411 48.2356 28.3551 47.522 28.0042 46.4546C27.7279 45.6139 27.72 44.675 28.1869 43.7961C28.2072 43.7578 28.2292 43.7206 28.2507 43.6835C28.0029 43.5319 27.7684 43.3583 27.5534 43.1579L27.5404 43.1464L27.528 43.1339C26.8724 42.4983 26.4369 41.6858 26.1499 40.8126C25.8037 39.7593 25.8299 38.6782 26.1658 37.6298C26.4932 36.5844 27.0872 35.6729 27.8886 34.898C28.7105 34.1032 29.691 33.5286 30.7972 33.165C31.8071 32.833 32.8249 32.6715 33.8383 32.7103L33.8391 32.7101C33.8509 32.7103 33.8629 32.711 33.8747 32.7113L33.8738 32.7116C34.87 32.7394 35.8286 32.96 36.6787 33.4521C37.5852 33.9565 38.2818 34.7241 38.6183 35.7479C38.6222 35.7599 38.6254 35.7721 38.6292 35.7841Z" fill="#4B371F"/>
<defs>
<filter id="filter0_d_38899_1820" x="3.68604" y="12.957" width="89.4155" height="60.5781" filterUnits="userSpaceOnUse" color-interpolation-filters="sRGB">
<feFlood flood-opacity="0" result="BackgroundImageFix"/>
<feColorMatrix in="SourceAlpha" type="matrix" values="0 0 0 0 0 0 0 0 0 0 0 0 0 0 0 0 0 0 127 0" result="hardAlpha"/>
<feOffset dx="-2" dy="3"/>
<feComposite in2="hardAlpha" operator="out"/>
<feColorMatrix type="matrix" values="0 0 0 0 0.294118 0 0 0 0 0.215686 0 0 0 0 0.121569 0 0 0 1 0"/>
<feBlend mode="normal" in2="BackgroundImageFix" result="effect1_dropShadow_38899_1820"/>
<feBlend mode="normal" in="SourceGraphic" in2="effect1_dropShadow_38899_1820" result="shape"/>
</filter>
<linearGradient id="paint0_linear_38899_1820" x1="60.2866" y1="10.7304" x2="23.5727" y2="69.7169" gradientUnits="userSpaceOnUse">
<stop stop-color="#ED9947"/>
<stop offset="0.609219" stop-color="#FAEA71"/>
<stop offset="1" stop-color="#EFA647"/>
</linearGradient>
</defs>
</svg>
