<svg width="19" height="20" viewBox="0 0 19 20" fill="none" xmlns="http://www.w3.org/2000/svg">
<path d="M6.75781 1.28711C10.0626 1.04942 13.3861 1.29958 16.6182 2.03223L16.6426 2.03809C17.0972 2.14141 17.6208 2.42053 17.8691 2.91602C18.0058 3.18883 18.0505 3.5224 17.9277 3.84863C17.8236 4.12509 17.6288 4.32228 17.4189 4.4502L17.3281 4.5C15.8834 5.23945 14.553 6.08071 13.3428 6.99805C14.4408 7.16325 15.5284 7.39407 16.5996 7.68848L16.7812 7.75C17.2059 7.91931 17.6248 8.27704 17.7305 8.81543L17.75 8.94727C17.8068 9.55521 17.4066 10.0079 16.9473 10.1963L16.8486 10.2324C11.9343 11.8162 8.30431 14.847 6.28711 18.1982L6.28613 18.2012C6.11448 18.4842 5.83986 18.692 5.51074 18.7686C5.21909 18.8362 4.91762 18.7928 4.65527 18.6543C4.12819 18.376 3.8363 17.7605 3.96094 17.165V17.1641C4.35108 15.3133 4.98566 13.4647 5.86035 11.666C4.89893 11.8041 3.94669 12.0013 3.00977 12.2588H3.00879C2.60678 12.3691 2.13359 12.3295 1.75 12.0664V12.0654C1.34075 11.7842 1.10915 11.2847 1.23242 10.7559L1.36621 10.208C2.06153 7.47019 3.18156 4.74019 4.72168 2.11914C5.02141 1.60875 5.61653 1.38458 6.0957 1.34082L6.75781 1.28711Z" fill="#B0FAFF" stroke="black" stroke-width="1.6"/>
<path d="M6.80029 4C6.13363 5.2 5.12029 7.2 4.80029 8.8" stroke="black" stroke-width="1.6" stroke-linecap="round"/>
</svg>
