<svg width="54" height="54" viewBox="0 0 54 54" fill="none" xmlns="http://www.w3.org/2000/svg">
<path fill-rule="evenodd" clip-rule="evenodd" d="M5.16598 23.7843L14.3501 8.5623L17.2042 10.2843L8.02011 25.5063L5.16598 23.7843ZM36.561 42.7265L45.7451 27.5045L48.5992 29.2265L39.4151 44.4485L36.561 42.7265ZM33.7064 41.004L31.9845 43.858L29.1313 42.1365L27.4093 44.9906L30.2634 46.7127L31.9853 43.8587L34.8385 45.5802L36.5605 42.7261L33.7064 41.004ZM44.6138 22.9285L42.8918 25.7826L45.7459 27.5046L47.4679 24.6505L44.6138 22.9285ZM8.01935 25.5061L6.29734 28.3602L9.15146 30.0822L10.8735 27.2281L8.01935 25.5061ZM18.9268 7.43049L17.2048 10.2846L20.0589 12.0066L21.7808 9.1527L24.634 10.8741L26.356 8.02002L23.5019 6.29801L21.78 9.15194L18.9268 7.43049ZM9.1518 30.0819L7.42979 32.936L10.2839 34.658L12.0059 31.8039L9.1518 30.0819ZM43.4808 18.352L41.7589 21.2058L44.6131 22.9278L46.3351 20.0737L43.4814 18.352L45.2032 15.4982L28.0785 5.16608L26.3565 8.02021L43.4808 18.352ZM27.4096 44.9909L25.6875 47.845L8.56278 37.513L10.2848 34.6588L27.4096 44.9909Z" fill="black"/>
<rect x="29.1316" y="42.1367" width="3.33337" height="20.0002" transform="rotate(121.104 29.1316 42.1367)" fill="#FAAA01"/>
<rect width="24.4447" height="26.667" transform="matrix(-0.516598 0.856228 0.856228 0.516598 21.7801 9.15234)" fill="#FDD700"/>
<rect width="3.33337" height="20.0002" transform="matrix(-0.516598 0.856228 0.856228 0.516598 26.3566 8.02051)" fill="#FBEF00"/>
<rect width="3.33337" height="3.33337" transform="matrix(-0.516598 0.856228 0.856228 0.516598 21.7801 9.15234)" fill="#FBEF00"/>
<rect width="3.33337" height="3.33337" transform="matrix(-0.516598 0.856228 0.856228 0.516598 41.7596 21.207)" fill="#FBEF00"/>
<rect width="3.33337" height="3.33337" transform="matrix(-0.516598 0.856228 0.856228 0.516598 20.0582 12.0068)" fill="white"/>
<rect width="3.33337" height="3.33337" transform="matrix(-0.516598 0.856228 0.856228 0.516598 24.6348 10.874)" fill="white"/>
<rect width="17.778" height="3.33337" transform="matrix(-0.516598 0.856228 0.856228 0.516598 17.205 10.2842)" fill="#FBEF00"/>
<rect x="13.729" y="28.9502" width="3.33337" height="3.33337" transform="rotate(121.104 13.729 28.9502)" fill="#FAAA01"/>
<rect x="33.7066" y="41.0039" width="3.33337" height="3.33337" transform="rotate(121.104 33.7066 41.0039)" fill="#FAAA01"/>
<rect x="45.7454" y="27.5049" width="17.778" height="3.33337" transform="rotate(121.104 45.7454 27.5049)" fill="#FAAA01"/>
<rect x="33.1467" y="36.9727" width="3.07696" height="16.9233" transform="rotate(121.104 33.1467 36.9727)" fill="black"/>
<rect x="34.7358" y="34.3379" width="3.07696" height="16.9233" transform="rotate(121.104 34.7358 34.3379)" fill="#FAAA01"/>
<rect x="37.1192" y="30.3857" width="7.6924" height="3.07696" transform="rotate(121.104 37.1192 30.3857)" fill="black"/>
<rect x="20.2451" y="25.5947" width="3.07696" height="3.07696" transform="rotate(121.104 20.2451 25.5947)" fill="black"/>
</svg>
