<svg width="1473" height="790" viewBox="0 0 1473 790" fill="none" xmlns="http://www.w3.org/2000/svg">
<path d="M1463.61 764.281L1448.68 788.125C1448.18 788.922 1446.96 788.652 1446.84 787.72L1442.14 750.626C1442.07 750.028 1442.53 749.5 1443.13 749.5H1467.19C1467.98 749.5 1468.46 750.366 1468.04 751.035C1467.29 752.251 1466.26 753.929 1465.19 755.702C1463.64 758.269 1463.58 761.832 1463.76 763.608C1463.79 763.843 1463.74 764.081 1463.61 764.281Z" fill="#E1AF6D" stroke="black" stroke-linecap="round" stroke-linejoin="round"/>
<g filter="url(#filter0_i_2_2)">
<path d="M260.124 0.499939H-1C3.15177 40.5334 3.98913 122.38 6.12433 129.497C8.25953 136.614 13.0934 144.386 16.8003 147.5L8.79332 152.627C8.79332 170.42 9.41609 209.741 11.9072 224.687C14.3982 239.633 10.8692 246.335 8.79332 247.818V284.293C11.4623 286.517 16.8003 297.637 16.8003 324.326C16.8003 351.015 11.4623 367.77 8.79332 372.811V473.339L19.9142 477.5L3.90016 490.687V533.834L11.9072 539.5L3.90016 546.289V713L119.5 788.269H1447.83V665.055C1435.22 665.5 1430.3 663.068 1433.5 662C1436.7 660.932 1447.83 657.5 1447.83 657.5V478L1442.05 471.115L1447.83 460.885V328.329C1446.05 326.402 1444.36 325.194 1444 319.5C1443.64 313.806 1445.75 311.207 1447.83 307.5C1444.27 286.445 1453.01 230.697 1462.51 193.995C1473.5 151.5 1469 72.4999 1469 72.4999L1280 0.499939H1183.15L1176.48 7.17218L1168.03 1.49994H274.803L269.021 5.83773L260.124 0.499939Z" fill="#B5956E"/>
</g>
<path d="M260.124 0.499939H-1C3.15177 40.5334 3.98913 122.38 6.12433 129.497C8.25953 136.614 13.0934 144.386 16.8003 147.5L8.79332 152.627C8.79332 170.42 9.41609 209.741 11.9072 224.687C14.3982 239.633 10.8692 246.335 8.79332 247.818V284.293C11.4623 286.517 16.8003 297.637 16.8003 324.326C16.8003 351.015 11.4623 367.77 8.79332 372.811V473.339L19.9142 477.5L3.90016 490.687V533.834L11.9072 539.5L3.90016 546.289V713L119.5 788.269H1447.83V665.055C1435.22 665.5 1430.3 663.068 1433.5 662C1436.7 660.932 1447.83 657.5 1447.83 657.5V478L1442.05 471.115L1447.83 460.885V328.329C1446.05 326.402 1444.36 325.194 1444 319.5C1443.64 313.806 1445.75 311.207 1447.83 307.5C1444.27 286.445 1453.01 230.697 1462.51 193.995C1473.5 151.5 1469 72.4999 1469 72.4999L1280 0.499939H1183.15L1176.48 7.17218L1168.03 1.49994H274.803L269.021 5.83773L260.124 0.499939Z" stroke="black" stroke-linecap="round" stroke-linejoin="round"/>
<path d="M1280 -6.10352e-05L1469 72.5466C1456.31 69.3756 1444.51 70.6566 1434.45 89.4585C1433.71 90.8487 1433.04 92.1954 1432.45 93.4999L1452.5 101.5C1457.33 110 1461.5 127.6 1439.5 130C1436.15 128.224 1423.93 123.472 1407.33 104.67C1386.59 81.1681 1352.33 68.9469 1330.33 47.0115C1308.33 25.076 1272 9.99994 1280 -6.10352e-05Z" fill="#E1AF6D"/>
<path d="M1439.5 130C1436.15 128.224 1423.93 123.472 1407.33 104.67C1386.59 81.1681 1352.33 68.9469 1330.33 47.0115C1308.33 25.076 1272 9.99994 1280 -6.10352e-05L1469 72.5466C1456.31 69.3756 1444.51 70.6566 1434.45 89.4585C1433.71 90.8487 1433.04 92.1954 1432.45 93.4999M1439.5 130C1431.97 124.355 1423.01 114.249 1432.45 93.4999M1439.5 130C1461.5 127.6 1457.33 110 1452.5 101.5L1432.45 93.4999" stroke="black" stroke-linecap="round"/>
<path d="M454.955 294.705L322.484 340.353C314.415 343.134 309 350.728 309 359.262V362.349L321.808 510.691C322.525 518.997 328.319 525.987 336.348 528.232L610.812 604.974C620.171 607.59 630.056 603.101 634.245 594.332L666.052 527.74C667.076 525.597 668.473 523.654 670.178 522.001L785.007 410.673C791.257 404.613 792.87 395.208 788.996 387.412L758.394 325.836C755.912 320.84 751.456 317.109 746.102 315.542L614.902 277.142C612.327 276.388 609.627 276.16 606.962 276.472L459.149 293.749C457.72 293.916 456.314 294.236 454.955 294.705Z" fill="#523D37" stroke="black" stroke-linecap="round"/>
<path d="M635 666.5V642M635 642L310.169 555.506C302.224 553.391 296.383 546.629 295.446 538.461L271 325.5M635 642L704.748 538.36C705.58 537.124 706.548 535.984 707.633 534.963L833.5 416.5M833.5 416.5L1059.07 404.106C1060.36 404.035 1061.64 404.088 1062.91 404.264L1245.5 429.5M833.5 416.5L776 293M1245.5 429.5C1273.83 457.333 1336.9 516 1362.5 528C1394.5 543 1412.5 431 1390.5 397.5C1368.5 364 1300.5 395 1245.5 429.5ZM776 293L637.647 254.241C635.89 253.749 634.075 253.5 632.251 253.5H600.5M776 293L891.773 222.657C893.58 221.559 895.549 220.755 897.607 220.274L1078.5 178M271 325.5L465.748 268.017C466.914 267.673 468.108 267.436 469.316 267.309L600.5 253.5M271 325.5L113.5 346M600.5 253.5L635.14 198.653C639.571 191.637 639.209 182.612 634.23 175.973L579.5 103" stroke="#86675E" stroke-width="6" stroke-linecap="square" stroke-dasharray="12 24"/>
<path d="M1358.48 397.553L1281.95 429.06C1273.04 432.726 1271.86 444.86 1279.9 450.169L1358.36 502.008C1365.11 506.469 1374.25 503.104 1376.5 495.331L1385.19 465.307C1385.72 463.461 1385.8 461.514 1385.43 459.63L1374.82 406.307C1373.34 398.896 1365.47 394.677 1358.48 397.553Z" fill="#523D37" stroke="black" stroke-linecap="round"/>
<path d="M1358.48 390.553L1281.95 422.06C1273.04 425.726 1271.86 437.86 1279.9 443.169L1358.36 495.008C1365.11 499.469 1374.25 496.104 1376.5 488.331L1385.19 458.307C1385.72 456.461 1385.8 454.514 1385.43 452.63L1374.82 399.307C1373.34 391.896 1365.47 387.677 1358.48 390.553Z" fill="#9BB468" stroke="black" stroke-linecap="round"/>
<path d="M1118.59 115.656L1102.2 90.6635C1096.6 82.1155 1103.57 70.9215 1113.71 72.1739L1158 77.6411C1168.91 78.9881 1172.41 93.078 1163.41 99.3819L1135.51 118.907C1129.96 122.789 1122.3 121.317 1118.59 115.656Z" fill="#9BB468" stroke="black" stroke-linecap="round"/>
<path d="M423.934 626.78L416.894 624.937C412.757 623.853 408.499 626.215 407.228 630.298L389.23 688.123C387.627 693.272 391.475 698.5 396.869 698.5H416.708C420.84 698.5 424.292 695.354 424.674 691.24L429.872 635.259C430.234 631.36 427.721 627.772 423.934 626.78Z" fill="#9BB468" stroke="black" stroke-linecap="round"/>
<path d="M475.89 640.061L453.487 633.951C448.76 632.662 443.995 635.887 443.435 640.754L437.526 692.085C436.979 696.835 440.693 701 445.474 701H465.354C469.206 701 472.512 698.254 473.218 694.466L481.649 649.245C482.412 645.151 479.907 641.157 475.89 640.061Z" fill="#9BB468" stroke="black" stroke-linecap="round"/>
<path d="M520.533 651.267L507.02 647.911C502.76 646.853 498.443 649.425 497.345 653.675L487.581 691.501C486.274 696.564 490.098 701.5 495.327 701.5H516.478C520.705 701.5 524.203 698.212 524.463 693.993L526.59 659.524C526.827 655.671 524.28 652.198 520.533 651.267Z" fill="#9BB468" stroke="black" stroke-linecap="round"/>
<path d="M559.282 660.987L546.591 658.644C541.863 657.77 537.439 661.234 537.152 666.033L535.507 693.522C535.232 698.12 538.887 702 543.493 702H557.855C560.706 702 563.343 700.482 564.774 698.016L568.483 691.624C569.461 689.94 569.79 687.957 569.41 686.046L565.675 667.292C565.035 664.08 562.502 661.582 559.282 660.987Z" fill="#9BB468" stroke="black" stroke-linecap="round"/>
<path d="M638.359 706.385L593.491 703.369C590.184 703.147 587.265 700.908 586.692 697.643C581.887 670.247 612.986 668.493 629 676.5C638.344 681.172 643.345 690.36 645.723 698.032C647.157 702.661 643.195 706.71 638.359 706.385Z" fill="#9BB468" stroke="black" stroke-linecap="round"/>
<ellipse cx="1080.5" cy="542.5" rx="33.5" ry="5.5" fill="#BBC356"/>
<ellipse cx="1028" cy="602" rx="29" ry="9" fill="#BBC356"/>
<ellipse cx="135" cy="573.5" rx="26" ry="6.5" fill="#BBC356"/>
<path d="M831.141 293.205L914.257 242.184C916.074 241.068 918.058 240.251 920.133 239.762L1078.73 202.389C1081.22 201.802 1083.58 200.742 1085.67 199.267L1202.19 117.096C1205.95 114.446 1210.5 113.172 1215.09 113.488L1328.47 121.293C1338.5 121.983 1346.45 130.006 1347.06 140.038L1358.68 331.944C1359.17 340.127 1354.63 347.784 1347.2 351.263L1245.39 398.976C1241.87 400.623 1237.95 401.212 1234.11 400.671L1068.18 377.307C1066.73 377.103 1065.26 377.058 1063.81 377.174L871.898 392.397C863.547 393.06 855.668 388.448 852.158 380.841L823.445 318.631C819.199 309.43 822.505 298.507 831.141 293.205Z" fill="#523D37" stroke="black" stroke-linecap="round"/>
<path d="M1225 50.0436C1230.36 49.61 1241.34 52.2746 1251 63.9999" stroke="#86675E" stroke-width="6" stroke-linecap="square"/>
<path d="M1232 39.0931C1237.75 38.6096 1252.73 39.5578 1264 52.9999" stroke="#86675E" stroke-width="6" stroke-linecap="square"/>
<path d="M1220 82.9999C1225.29 71.8484 1242.3 47.0363 1268 36.9999" stroke="#86675E" stroke-width="6" stroke-linecap="square"/>
<path d="M134.5 727C177 761.5 275 742.5 393 711.5" stroke="#86675E" stroke-width="4" stroke-linecap="square" stroke-dasharray="8 12"/>
<path d="M38 711H120" stroke="#86675E" stroke-width="4" stroke-linecap="round"/>
<path d="M78.5 670L78.5 698" stroke="#86675E" stroke-width="4" stroke-linecap="round"/>
<path d="M79.5 722L79.5 750" stroke="#86675E" stroke-width="4" stroke-linecap="round"/>
<path d="M62 700C64.3333 700.833 69.5 702.7 71.5 703.5" stroke="#86675E" stroke-width="3" stroke-linecap="round"/>
<path d="M89 703.109L95 699.609" stroke="#86675E" stroke-width="3" stroke-linecap="round"/>
<path d="M87 718.609L93 722.109" stroke="#86675E" stroke-width="3" stroke-linecap="round"/>
<path d="M70.5 718.609L64.5 722.109" stroke="#86675E" stroke-width="3" stroke-linecap="round"/>
<ellipse cx="79.5" cy="711" rx="5.5" ry="6" fill="#86675E"/>
<path d="M90.5089 782.192C100.211 788.42 123.159 788.731 130 788.42C121.293 788.42 89.4723 758.526 78.0707 743.267H69.6749V731.745C41.8135 682.17 25.1049 678.496 20.2333 682.855C17.4969 701.041 12.7067 705.858 4 712.708C28.5654 741.669 80.8071 775.964 90.5089 782.192Z" fill="#E1AF6D" stroke="black" stroke-linecap="round"/>
<path d="M51.9999 589L77.9999 609" stroke="#86675E" stroke-width="6" stroke-linecap="square"/>
<path d="M63.5873 582.66L66.4124 615.341" stroke="#86675E" stroke-width="6" stroke-linecap="square"/>
<path d="M189.242 81.4052C169.099 79.6917 124.283 78.7256 106.166 88.5695C83.5201 100.874 82.3516 129.303 102.5 120C122.648 110.697 118.206 76.2066 58.5 74.9999" stroke="#86675E" stroke-width="4" stroke-linecap="square" stroke-dasharray="8 12"/>
<path d="M1350.5 685.01C1351.83 679.01 1355.5 667.01 1359.5 667.01C1364.5 667.01 1375 676.51 1377.5 679.51M1350.5 685.01C1353.5 692.51 1380 682.51 1377.5 679.51M1350.5 685.01C1352.09 683.8 1354.72 682.244 1358 680.962M1377.5 679.51C1374.43 678.664 1371.39 678.428 1368.5 678.598M1358 680.962C1361.04 679.776 1364.63 678.825 1368.5 678.598M1358 680.962C1358.57 682.126 1360.28 683.986 1363 683.492M1368.5 678.598C1368.67 679.386 1368.1 681.371 1364.5 683.01C1363.97 683.251 1363.47 683.406 1363 683.492M1363 683.492V701.01" stroke="#86675E" stroke-width="2" stroke-linecap="square"/>
<path d="M1347 665.01C1344.6 665.41 1342 680.51 1342 684.01C1342 687.705 1344.59 688.168 1347 687.605C1348.83 687.177 1350.57 686.157 1351 685.51C1352 684.01 1350 664.51 1347 665.01Z" fill="#86675E"/>
<path d="M1347 687.605C1348.83 687.177 1350.57 686.157 1351 685.51C1352 684.01 1350 664.51 1347 665.01C1344.6 665.41 1342 680.51 1342 684.01C1342 687.705 1344.59 688.168 1347 687.605ZM1347 687.605V700.51" stroke="#86675E" stroke-width="2" stroke-linecap="square"/>
<path d="M1335.02 671.525C1336.55 671.934 1339 680.102 1339 683.68C1339 687.457 1337.35 687.931 1335.81 687.354C1334.65 686.917 1333.54 685.875 1333.26 685.213C1332.63 683.679 1333.11 671.014 1335.02 671.525Z" fill="#86675E"/>
<path d="M1335.81 687.354C1334.65 686.917 1333.54 685.875 1333.26 685.213C1332.63 683.679 1333.11 671.014 1335.02 671.525C1336.55 671.934 1339 680.102 1339 683.68C1339 687.457 1337.35 687.931 1335.81 687.354ZM1335.81 687.354V694.51" stroke="#86675E" stroke-width="2" stroke-linecap="square"/>
<path d="M1402 714C1355.33 711.666 1228.4 719.6 1094 770" stroke="#86675E" stroke-width="4" stroke-linecap="square" stroke-dasharray="8 12"/>
<path d="M407.872 46.9639C403.888 46.9399 400.9 45.9559 398.908 44.0119C396.94 42.0679 395.956 38.9119 395.956 34.5439C395.956 30.5839 396.916 27.4759 398.836 25.2199C400.756 22.9399 403.468 21.7999 406.972 21.7999C409.132 21.7999 411.016 22.1239 412.624 22.7719C414.232 23.4199 415.468 24.3439 416.332 25.5439C417.196 26.7439 417.628 28.1599 417.628 29.7919C417.628 31.0879 417.34 32.2399 416.764 33.2479C416.212 34.2559 415.384 35.1559 414.28 35.9479C415.168 36.0919 415.936 36.5719 416.584 37.3879C417.256 38.2039 417.592 39.1519 417.592 40.2319C417.592 41.3839 417.28 42.4759 416.656 43.5079C416.056 44.5159 415.024 45.3439 413.56 45.9919C412.12 46.6399 410.224 46.9639 407.872 46.9639ZM405.388 33.5359C405.82 33.7519 406.36 33.8599 407.008 33.8599C407.776 33.8599 408.436 33.6799 408.988 33.3199C409.564 32.9359 409.852 32.3719 409.852 31.6279C409.852 30.9079 409.564 30.3679 408.988 30.0079C408.436 29.6239 407.764 29.4319 406.972 29.4319C406.348 29.4319 405.82 29.5399 405.388 29.7559C405.052 29.8999 404.8 30.1519 404.632 30.5119C404.464 30.8719 404.38 31.2559 404.38 31.6639C404.38 32.0719 404.464 32.4559 404.632 32.8159C404.8 33.1519 405.052 33.3919 405.388 33.5359ZM405.388 41.9599C405.844 42.1519 406.384 42.2479 407.008 42.2479C407.776 42.2479 408.436 42.0919 408.988 41.7799C409.564 41.4439 409.852 40.9519 409.852 40.3039C409.852 39.6799 409.564 39.1999 408.988 38.8639C408.412 38.5279 407.74 38.3599 406.972 38.3599C406.372 38.3599 405.844 38.4559 405.388 38.6479C405.052 38.7919 404.8 39.0199 404.632 39.3319C404.464 39.6199 404.38 39.9439 404.38 40.3039C404.38 40.6639 404.464 40.9999 404.632 41.3119C404.8 41.5999 405.052 41.8159 405.388 41.9599ZM444.244 41.2399C445.396 41.5999 445.972 42.3559 445.972 43.5079C445.972 44.5879 445.42 45.4399 444.316 46.0639C443.212 46.6879 441.304 46.9999 438.592 46.9999C435.208 46.9999 432.304 46.1839 429.88 44.5519C427.48 42.9199 426.28 39.6799 426.28 34.8319C426.28 32.3839 426.7 30.1759 427.54 28.2079C428.38 26.2399 429.628 24.6799 431.284 23.5279C432.964 22.3759 435.016 21.7999 437.44 21.7999C440.68 21.7999 442.96 22.3039 444.28 23.3119C445.6 24.2959 446.26 25.5079 446.26 26.9479C446.26 27.6199 446.092 28.2439 445.756 28.8199C445.42 29.3719 444.916 29.8039 444.244 30.1159C443.668 30.4039 442.924 30.5479 442.012 30.5479L441.04 30.5119C440.848 30.4879 440.572 30.4759 440.212 30.4759C438.964 30.4759 437.98 30.7039 437.26 31.1599C436.54 31.5919 436.048 32.2639 435.784 33.1759C436.792 33.1279 437.704 33.1039 438.52 33.1039C440.944 33.1039 442.516 33.1759 443.236 33.3199C444.052 33.4879 444.676 33.8119 445.108 34.2919C445.564 34.7719 445.792 35.3359 445.792 35.9839C445.792 36.6319 445.576 37.1959 445.144 37.6759C444.712 38.1319 444.064 38.4439 443.2 38.6119C442.528 38.7559 440.896 38.8279 438.304 38.8279C437.248 38.8279 436.504 38.8159 436.072 38.7919C436.816 40.3759 438.208 41.1679 440.248 41.1679C440.368 41.1679 440.644 41.1439 441.076 41.0959C441.652 41.0479 442.144 41.0239 442.552 41.0239C443.248 41.0239 443.812 41.0959 444.244 41.2399ZM476.102 31.9879C476.102 33.7399 475.838 35.2879 475.31 36.6319C474.806 37.9759 474.086 39.1039 473.15 40.0159C473.942 41.2399 474.338 42.4279 474.338 43.5799C474.338 44.5639 473.954 45.3799 473.186 46.0279C472.442 46.6759 471.59 46.9999 470.63 46.9999C470.078 46.9999 469.574 46.9159 469.118 46.7479C468.662 46.5799 468.17 46.2919 467.642 45.8839C467.186 45.5239 466.754 45.0319 466.346 44.4079C465.938 43.7839 465.614 43.1359 465.374 42.4639C464.582 42.3679 463.79 42.1639 462.998 41.8519C463.142 42.6199 463.214 43.2079 463.214 43.6159C463.214 45.8959 462.026 47.0359 459.65 47.0359C457.658 47.0359 456.254 45.8719 455.438 43.5439C454.622 41.2159 454.214 38.3719 454.214 35.0119C454.214 32.7319 454.622 30.5959 455.438 28.6039C456.278 26.5879 457.55 24.9679 459.254 23.7439C460.958 22.4959 463.034 21.8719 465.482 21.8719C467.45 21.8719 469.238 22.2919 470.846 23.1319C472.454 23.9479 473.726 25.1239 474.662 26.6599C475.622 28.1959 476.102 29.9719 476.102 31.9879ZM462.638 33.6799C462.638 34.4959 462.962 35.2159 463.61 35.8399C464.258 36.4399 465.002 36.7399 465.842 36.7399C466.706 36.7399 467.45 36.4399 468.074 35.8399C468.722 35.2159 469.046 34.4959 469.046 33.6799C469.046 32.8399 468.722 32.1199 468.074 31.5199C467.45 30.8959 466.706 30.5839 465.842 30.5839C465.002 30.5839 464.258 30.8959 463.61 31.5199C462.962 32.1439 462.638 32.8639 462.638 33.6799ZM489.662 47.0719C488.054 47.0719 486.758 46.2919 485.774 44.7319C484.814 43.1479 484.25 41.0119 484.082 38.3239C484.058 37.9399 484.046 37.3759 484.046 36.6319C484.046 33.7279 484.526 31.1599 485.486 28.9279C486.446 26.6719 487.802 24.9319 489.554 23.7079C491.33 22.4599 493.394 21.8359 495.746 21.8359C498.098 21.8359 500.15 22.4599 501.902 23.7079C503.678 24.9319 505.034 26.6599 505.97 28.8919C506.93 31.1239 507.41 33.7039 507.41 36.6319C507.41 37.3759 507.398 37.9399 507.374 38.3239C507.206 41.0599 506.642 43.1959 505.682 44.7319C504.722 46.2679 503.426 47.0359 501.794 47.0359C500.474 47.0359 499.55 46.6759 499.022 45.9559C498.518 45.2359 498.266 44.3599 498.266 43.3279C498.266 42.8479 498.302 42.4279 498.374 42.0679C497.126 42.1159 496.022 42.1399 495.062 42.1399C494.462 42.1399 493.802 42.1159 493.082 42.0679C493.154 42.4279 493.19 42.8479 493.19 43.3279C493.19 44.3839 492.926 45.2719 492.398 45.9919C491.894 46.7119 490.982 47.0719 489.662 47.0719ZM492.83 35.6599C494.126 35.6119 495.074 35.5879 495.674 35.5879C496.322 35.5879 497.27 35.6119 498.518 35.6599C498.566 35.3959 498.59 34.9999 498.59 34.4719C498.59 33.3439 498.35 32.4319 497.87 31.7359C497.39 31.0159 496.646 30.6559 495.638 30.6559C494.654 30.6559 493.922 31.0039 493.442 31.6999C492.962 32.3959 492.722 33.2959 492.722 34.3999C492.722 34.8079 492.758 35.2279 492.83 35.6599ZM538.979 27.1639C538.979 28.7479 538.319 29.8999 536.999 30.6199C535.703 31.3159 533.579 31.7359 530.627 31.8799C530.723 33.0319 530.771 34.5199 530.771 36.3439C530.771 38.8879 530.627 40.9279 530.339 42.4639C530.075 43.9759 529.607 45.1039 528.935 45.8479C528.263 46.5679 527.327 46.9279 526.127 46.9279C524.951 46.9279 524.051 46.5439 523.427 45.7759C522.803 45.0079 522.371 43.8679 522.131 42.3559C521.891 40.8439 521.771 38.8399 521.771 36.3439C521.771 34.6639 521.807 33.1759 521.879 31.8799C519.887 31.7839 518.279 31.5799 517.055 31.2679C515.855 30.9319 514.967 30.4399 514.391 29.7919C513.815 29.1439 513.527 28.2679 513.527 27.1639C513.527 25.8199 513.983 24.7639 514.895 23.9959C515.807 23.2279 517.175 22.6879 518.999 22.3759C520.823 22.0639 523.211 21.9079 526.163 21.9079C529.139 21.9079 531.551 22.0639 533.399 22.3759C535.247 22.6879 536.639 23.2279 537.575 23.9959C538.511 24.7639 538.979 25.8199 538.979 27.1639ZM557.744 47.0359C555.56 47.0599 553.532 46.5199 551.66 45.4159C549.812 44.3119 548.324 42.7999 547.196 40.8799C546.092 38.9359 545.516 36.7879 545.468 34.4359C545.444 32.1799 545.972 30.0919 547.052 28.1719C548.132 26.2519 549.62 24.7279 551.516 23.5999C553.412 22.4479 555.488 21.8719 557.744 21.8719C559.952 21.8479 561.992 22.3999 563.864 23.5279C565.76 24.6559 567.26 26.2039 568.364 28.1719C569.468 30.1399 570.02 32.3119 570.02 34.6879C570.02 36.9199 569.468 38.9719 568.364 40.8439C567.26 42.7159 565.76 44.2039 563.864 45.3079C561.992 46.4119 559.952 46.9879 557.744 47.0359ZM557.852 40.0159C558.956 40.0159 559.892 39.6199 560.66 38.8279C561.452 38.0359 561.836 37.0039 561.812 35.7319C561.812 34.4359 561.428 33.3919 560.66 32.5999C559.892 31.8079 558.956 31.4119 557.852 31.4119C556.748 31.4119 555.812 31.8079 555.044 32.5999C554.276 33.3919 553.892 34.4359 553.892 35.7319C553.892 37.0039 554.276 38.0359 555.044 38.8279C555.812 39.6199 556.748 40.0159 557.852 40.0159ZM587.44 46.9999C585.52 46.9999 583.84 46.4719 582.4 45.4159C580.984 44.3599 579.892 42.8599 579.124 40.9159C578.356 38.9719 577.972 36.6799 577.972 34.0399C577.972 32.5039 578.224 30.8599 578.728 29.1079C579.256 27.3559 580 25.8799 580.96 24.6799C581.944 23.4559 583.084 22.8439 584.38 22.8439C585.436 22.8439 586.312 23.2279 587.008 23.9959C587.704 24.7639 588.052 25.7119 588.052 26.8399C588.052 27.1759 587.968 27.6319 587.8 28.2079C587.656 28.7599 587.488 29.3359 587.296 29.9359C586.936 30.9679 586.66 31.8799 586.468 32.6719C586.276 33.4399 586.18 34.1839 586.18 34.9039C586.18 35.9599 586.336 36.7279 586.648 37.2079C586.96 37.6879 587.344 37.9279 587.8 37.9279C588.4 37.9279 588.82 37.6279 589.06 37.0279C589.324 36.4039 589.456 35.2639 589.456 33.6079L589.42 31.1239C589.42 29.2039 589.672 27.6799 590.176 26.5519C590.68 25.3999 591.688 24.8239 593.2 24.8239C594.328 24.8239 595.18 25.1359 595.756 25.7599C596.332 26.3839 596.704 27.1759 596.872 28.1359C597.04 29.0719 597.124 30.2119 597.124 31.5559V33.3919C597.124 35.1439 597.268 36.3919 597.556 37.1359C597.868 37.8559 598.36 38.2159 599.032 38.2159C599.488 38.2159 599.836 37.9879 600.076 37.5319C600.34 37.0519 600.472 36.3439 600.472 35.4079C600.472 34.7119 600.388 34.0159 600.22 33.3199C600.052 32.6239 599.788 31.7359 599.428 30.6559C599.116 29.6239 598.888 28.8559 598.744 28.3519C598.624 27.8239 598.564 27.3199 598.564 26.8399C598.564 25.7119 598.924 24.7759 599.644 24.0319C600.388 23.2879 601.252 22.9159 602.236 22.9159C603.652 22.9159 604.84 23.5159 605.8 24.7159C606.784 25.8919 607.516 27.3439 607.996 29.0719C608.476 30.7999 608.716 32.4559 608.716 34.0399C608.716 36.6799 608.332 38.9719 607.564 40.9159C606.796 42.8599 605.692 44.3599 604.252 45.4159C602.836 46.4479 601.168 46.9639 599.248 46.9639C598.192 46.9639 597.16 46.7239 596.152 46.2439C595.144 45.7639 594.208 45.0439 593.344 44.0839C592.48 45.0439 591.532 45.7759 590.5 46.2799C589.492 46.7599 588.472 46.9999 587.44 46.9999ZM622.263 46.9999C621.087 46.9999 620.127 46.2799 619.383 44.8399C618.663 43.3999 618.147 41.6599 617.835 39.6199C617.523 37.5799 617.367 35.6119 617.367 33.7159C617.367 30.6199 617.859 27.8719 618.843 25.4719C619.851 23.0479 621.531 21.8359 623.883 21.8359C624.915 21.8359 625.815 22.2319 626.583 23.0239C627.375 23.8159 628.059 24.8479 628.635 26.1199C629.211 27.3679 629.907 29.1079 630.723 31.3399L631.335 33.0319C631.287 32.1199 631.263 31.4479 631.263 31.0159C631.263 28.2079 631.635 25.9759 632.379 24.3199C633.147 22.6639 634.359 21.8359 636.015 21.8359C638.007 21.8359 639.375 23.0239 640.119 25.3999C640.863 27.7519 641.235 30.5239 641.235 33.7159C641.235 35.6119 640.995 37.5799 640.515 39.6199C640.059 41.6599 639.279 43.3999 638.175 44.8399C637.071 46.2799 635.631 46.9999 633.855 46.9999C632.775 46.9999 631.827 46.6159 631.011 45.8479C630.219 45.0559 629.547 44.0839 628.995 42.9319C628.467 41.7799 627.831 40.1959 627.087 38.1799C626.703 37.1239 626.403 36.3319 626.187 35.8039L626.223 38.7199C626.223 40.6159 626.127 42.1519 625.935 43.3279C625.743 44.4799 625.359 45.3799 624.783 46.0279C624.231 46.6759 623.391 46.9999 622.263 46.9999ZM681.436 46.9999C680.62 46.9999 679.936 46.7959 679.384 46.3879C678.856 45.9559 678.484 45.3799 678.268 44.6599C678.076 43.9879 677.956 43.2559 677.908 42.4639C677.884 41.6719 677.872 40.5559 677.872 39.1159C677.872 37.7719 677.812 36.7759 677.692 36.1279C677.596 35.4799 677.344 35.1559 676.936 35.1559C676.456 35.1559 676.12 35.3719 675.928 35.8039C675.736 36.2119 675.64 36.7999 675.64 37.5679C675.64 38.2639 675.736 39.3559 675.928 40.8439C675.952 41.1319 676 41.5879 676.072 42.2119C676.144 42.8359 676.18 43.3519 676.18 43.7599C676.18 44.9119 675.916 45.7279 675.388 46.2079C674.884 46.6879 674.14 46.9279 673.156 46.9279C671.98 46.9279 670.96 46.2919 670.096 45.0199C669.232 43.7479 668.584 42.1639 668.152 40.2679C667.72 38.3479 667.504 36.4639 667.504 34.6159C667.504 32.4079 667.816 30.3559 668.44 28.4599C669.088 26.5639 670.048 25.0399 671.32 23.8879C672.616 22.7359 674.176 22.1599 676 22.1599C677.536 22.1599 678.76 22.6399 679.672 23.5999C680.584 24.5359 681.196 25.6759 681.508 27.0199C681.772 25.6999 682.36 24.5599 683.272 23.5999C684.208 22.6399 685.432 22.1599 686.944 22.1599C688.744 22.1599 690.28 22.7239 691.552 23.8519C692.848 24.9559 693.832 26.5039 694.504 28.4959C695.2 30.4879 695.548 32.7919 695.548 35.4079C695.548 37.1119 695.308 38.8759 694.828 40.6999C694.348 42.4999 693.676 43.9999 692.812 45.1999C691.948 46.3999 690.964 46.9999 689.86 46.9999C688.852 46.9999 688.084 46.7479 687.556 46.2439C687.028 45.7399 686.764 44.9119 686.764 43.7599C686.764 43.2319 686.86 42.2479 687.052 40.8079C687.244 39.2719 687.34 38.1679 687.34 37.4959C687.34 35.9359 686.92 35.1559 686.08 35.1559C685.648 35.1559 685.372 35.5039 685.252 36.1999C685.156 36.8959 685.096 38.0239 685.072 39.5839C685.072 40.7599 685.048 41.7439 685 42.5359C684.952 43.3039 684.844 44.0119 684.676 44.6599C684.484 45.3559 684.1 45.9199 683.524 46.3519C682.972 46.7839 682.276 46.9999 681.436 46.9999ZM709.105 47.0719C707.497 47.0719 706.201 46.2919 705.217 44.7319C704.257 43.1479 703.693 41.0119 703.525 38.3239C703.501 37.9399 703.489 37.3759 703.489 36.6319C703.489 33.7279 703.969 31.1599 704.929 28.9279C705.889 26.6719 707.245 24.9319 708.997 23.7079C710.773 22.4599 712.837 21.8359 715.189 21.8359C717.541 21.8359 719.593 22.4599 721.345 23.7079C723.121 24.9319 724.477 26.6599 725.413 28.8919C726.373 31.1239 726.853 33.7039 726.853 36.6319C726.853 37.3759 726.841 37.9399 726.817 38.3239C726.649 41.0599 726.085 43.1959 725.125 44.7319C724.165 46.2679 722.869 47.0359 721.237 47.0359C719.917 47.0359 718.993 46.6759 718.465 45.9559C717.961 45.2359 717.709 44.3599 717.709 43.3279C717.709 42.8479 717.745 42.4279 717.817 42.0679C716.569 42.1159 715.465 42.1399 714.505 42.1399C713.905 42.1399 713.245 42.1159 712.525 42.0679C712.597 42.4279 712.633 42.8479 712.633 43.3279C712.633 44.3839 712.369 45.2719 711.841 45.9919C711.337 46.7119 710.425 47.0719 709.105 47.0719ZM712.273 35.6599C713.569 35.6119 714.517 35.5879 715.117 35.5879C715.765 35.5879 716.713 35.6119 717.961 35.6599C718.009 35.3959 718.033 34.9999 718.033 34.4719C718.033 33.3439 717.793 32.4319 717.313 31.7359C716.833 31.0159 716.089 30.6559 715.081 30.6559C714.097 30.6559 713.365 31.0039 712.885 31.6999C712.405 32.3959 712.165 33.2959 712.165 34.3999C712.165 34.8079 712.201 35.2279 712.273 35.6599ZM740.225 47.0359C738.257 47.0359 736.913 45.9079 736.193 43.6519C735.497 41.3959 735.149 38.5159 735.149 35.0119C735.149 32.7319 735.557 30.5959 736.373 28.6039C737.213 26.5879 738.485 24.9679 740.189 23.7439C741.893 22.4959 743.969 21.8719 746.417 21.8719C748.385 21.8719 750.173 22.2919 751.781 23.1319C753.389 23.9479 754.661 25.1239 755.597 26.6599C756.557 28.1959 757.037 29.9719 757.037 31.9879C757.037 34.3159 756.569 36.2719 755.633 37.8559C754.697 39.4399 753.485 40.6159 751.997 41.3839C750.509 42.1519 748.937 42.5359 747.281 42.5359C745.937 42.5359 744.701 42.3079 743.573 41.8519C743.717 42.6199 743.789 43.2079 743.789 43.6159C743.789 45.8959 742.601 47.0359 740.225 47.0359ZM746.777 36.9559C747.641 36.9559 748.385 36.6439 749.009 36.0199C749.657 35.3719 749.981 34.6279 749.981 33.7879C749.981 32.9239 749.657 32.1799 749.009 31.5559C748.385 30.9079 747.641 30.5839 746.777 30.5839C745.937 30.5839 745.193 30.9079 744.545 31.5559C743.897 32.1799 743.573 32.9239 743.573 33.7879C743.573 34.6279 743.897 35.3719 744.545 36.0199C745.193 36.6439 745.937 36.9559 746.777 36.9559Z" fill="#86675E"/>
<path d="M830.651 462.237L721.901 566.098C719.897 568.012 718.313 570.321 717.249 572.879L665.438 697.41C660.259 709.86 668.632 723.763 682.059 725.007L1002.94 754.74C1004.8 754.912 1006.68 754.824 1008.51 754.476L1295.28 700.144C1302.29 698.817 1308.05 693.86 1310.42 687.134L1347.45 581.922C1350.19 574.133 1347.87 565.46 1341.59 560.09L1226.26 461.333C1223.33 458.831 1219.75 457.224 1215.94 456.707L1058.49 435.32C1056.93 435.107 1055.34 435.081 1053.77 435.241L842.435 456.804C838.012 457.255 833.866 459.167 830.651 462.237Z" fill="#523D37" stroke="black" stroke-linecap="round"/>
<path d="M268.33 54.9674L71.5462 157.957C64.5279 161.63 60.3389 169.099 60.8641 177.003L69.0807 300.644C69.8485 312.197 80.2364 320.686 91.7113 319.138L276.435 294.211C277.477 294.071 278.506 293.848 279.512 293.546L451.686 241.845C453.552 241.285 455.49 241 457.438 241H560.561C567.102 241 573.229 237.802 576.969 232.436L597.25 203.337C602.176 196.269 602.023 186.841 596.87 179.938L532.504 93.7046C529.303 89.4149 524.515 86.5878 519.212 85.8557L280.339 52.8752C276.216 52.3059 272.018 53.0373 268.33 54.9674Z" fill="#523D37" stroke="black" stroke-linecap="round"/>
<path d="M263.378 571.251L248.499 388.874C247.652 378.493 238.98 370.5 228.565 370.5H226.438C224.819 370.5 223.205 370.697 221.634 371.086L94.2401 402.61C84.1945 405.096 77.7043 414.835 79.2765 425.063L117.577 674.238C118.995 683.46 126.6 690.476 135.906 691.148L353.973 706.88C363.104 707.539 371.517 701.913 374.397 693.223L390.964 643.224C394.533 632.455 388.438 620.877 377.54 617.722L277.751 588.836C269.774 586.527 264.054 579.528 263.378 571.251Z" fill="#523D37" stroke="black" stroke-linecap="round"/>
<path d="M671.216 161.228L627.706 112.823C616.514 100.372 624.658 80.5034 641.368 79.4892L773 71.5H1039.4C1046.3 71.5 1052.72 75.0601 1056.37 80.918L1088.19 131.939C1095.59 143.808 1088.83 159.414 1075.11 162.138L892.428 198.418C890.487 198.804 888.613 199.476 886.869 200.411L779.75 257.879C775.404 260.21 770.35 260.854 765.558 259.686L675.552 237.742C663.34 234.765 656.869 221.392 662.113 209.968L674.519 182.941C677.846 175.693 676.548 167.16 671.216 161.228Z" fill="#523D37" stroke="black" stroke-linecap="round"/>
<defs>
<filter id="filter0_i_2_2" x="-21.5" y="-6.10352e-05" width="1491.91" height="814.769" filterUnits="userSpaceOnUse" color-interpolation-filters="sRGB">
<feFlood flood-opacity="0" result="BackgroundImageFix"/>
<feBlend mode="normal" in="SourceGraphic" in2="BackgroundImageFix" result="shape"/>
<feColorMatrix in="SourceAlpha" type="matrix" values="0 0 0 0 0 0 0 0 0 0 0 0 0 0 0 0 0 0 127 0" result="hardAlpha"/>
<feOffset dx="-20" dy="26"/>
<feGaussianBlur stdDeviation="30"/>
<feComposite in2="hardAlpha" operator="arithmetic" k2="-1" k3="1"/>
<feColorMatrix type="matrix" values="0 0 0 0 0 0 0 0 0 0 0 0 0 0 0 0 0 0 0.2 0"/>
<feBlend mode="normal" in2="shape" result="effect1_innerShadow_2_2"/>
</filter>
</defs>
</svg>
