<svg width="1473" height="790" viewBox="0 0 1473 790" fill="none" xmlns="http://www.w3.org/2000/svg">
  <g filter="url(#filter0_i_22057_76)">
    <path d="M262.124 1.5H1C5.15177 41.5334 5.98913 123.38 8.12433 130.497C10.2595 137.614 15.0934 145.386 18.8003 148.5L10.7933 153.627C10.7933 171.42 11.4161 210.741 13.9072 225.687C16.3982 240.633 12.8692 247.335 10.7933 248.818V285.293C13.4623 287.517 18.8003 298.637 18.8003 325.326C18.8003 352.015 13.4623 368.77 10.7933 373.811V474.339L21.9142 478.5L5.90016 491.687V534.834L13.9072 540.5L5.90016 547.289V714L121.5 789.269H1449.83V666.055C1437.22 666.5 1432.3 664.068 1435.5 663C1438.7 661.932 1449.83 658.5 1449.83 658.5V479L1444.05 472.115L1449.83 461.885V329.329C1448.05 327.402 1446.36 326.194 1446 320.5C1445.64 314.806 1447.75 312.207 1449.83 308.5C1446.27 287.445 1455.01 231.697 1464.51 194.995C1475.5 152.5 1471 73.5 1471 73.5L1282 1.5H1185.15L1178.48 8.17224L1170.03 2.5H276.803L271.021 6.83779L262.124 1.5Z" fill="#B5956E"/>
  </g>
  <path d="M262.124 1.5H1C5.15177 41.5334 5.98913 123.38 8.12433 130.497C10.2595 137.614 15.0934 145.386 18.8003 148.5L10.7933 153.627C10.7933 171.42 11.4161 210.741 13.9072 225.687C16.3982 240.633 12.8692 247.335 10.7933 248.818V285.293C13.4623 287.517 18.8003 298.637 18.8003 325.326C18.8003 352.015 13.4623 368.77 10.7933 373.811V474.339L21.9142 478.5L5.90016 491.687V534.834L13.9072 540.5L5.90016 547.289V714L121.5 789.269H1449.83V666.055C1437.22 666.5 1432.3 664.068 1435.5 663C1438.7 661.932 1449.83 658.5 1449.83 658.5V479L1444.05 472.115L1449.83 461.885V329.329C1448.05 327.402 1446.36 326.194 1446 320.5C1445.64 314.806 1447.75 312.207 1449.83 308.5C1446.27 287.445 1455.01 231.697 1464.51 194.995C1475.5 152.5 1471 73.5 1471 73.5L1282 1.5H1185.15L1178.48 8.17224L1170.03 2.5H276.803L271.021 6.83779L262.124 1.5Z" stroke="black" stroke-linecap="round" stroke-linejoin="round"/>
  <path d="M1282 1L1471 73.5466C1458.31 70.3756 1446.51 71.6567 1436.45 90.4585C1435.71 91.8488 1435.04 93.1954 1434.45 94.5L1454.5 102.5C1459.33 111 1463.5 128.6 1441.5 131C1438.15 129.224 1425.93 124.472 1409.33 105.671C1388.59 82.1682 1354.33 69.947 1332.33 48.0115C1310.33 26.076 1274 11 1282 1Z" fill="#E1AF6D"/>
  <path d="M1441.5 131C1438.15 129.224 1425.93 124.472 1409.33 105.671C1388.59 82.1682 1354.33 69.947 1332.33 48.0115C1310.33 26.076 1274 11 1282 1L1471 73.5466C1458.31 70.3756 1446.51 71.6567 1436.45 90.4585C1435.71 91.8488 1435.04 93.1954 1434.45 94.5M1441.5 131C1433.97 125.355 1425.01 115.249 1434.45 94.5M1441.5 131C1463.5 128.6 1459.33 111 1454.5 102.5L1434.45 94.5" stroke="black" stroke-linecap="round"/>
  <path d="M456.955 295.705L324.484 341.353C316.415 344.134 311 351.728 311 360.262V363.349L323.808 511.691C324.525 519.997 330.319 526.987 338.348 529.232L612.812 605.974C622.171 608.591 632.056 604.101 636.245 595.333L668.052 528.74C669.076 526.597 670.473 524.654 672.178 523.001L787.007 411.673C793.257 405.614 794.87 396.208 790.996 388.413L760.394 326.836C757.912 321.841 753.456 318.109 748.102 316.542L616.902 278.142C614.327 277.388 611.627 277.161 608.962 277.472L461.149 294.749C459.72 294.916 458.314 295.236 456.955 295.705Z" fill="#523D37" stroke="black" stroke-linecap="round"/>
  <path d="M637 667.5V643M637 643L312.169 556.507C304.224 554.391 298.383 547.629 297.446 539.461L273 326.5M637 643L706.748 539.361C707.58 538.124 708.548 536.984 709.633 535.963L835.5 417.5M835.5 417.5L1061.07 405.106C1062.36 405.035 1063.64 405.088 1064.91 405.264L1247.5 430.5M835.5 417.5L778 294M1247.5 430.5C1275.83 458.333 1338.9 517 1364.5 529C1396.5 544 1414.5 432 1392.5 398.5C1370.5 365 1302.5 396 1247.5 430.5ZM778 294L639.647 255.241C637.89 254.749 636.075 254.5 634.251 254.5H602.5M778 294L893.773 223.657C895.58 222.559 897.549 221.755 899.607 221.274L1080.5 179M273 326.5L467.748 269.017C468.914 268.673 470.108 268.436 471.316 268.309L602.5 254.5M273 326.5L115.5 347M602.5 254.5L637.14 199.653C641.571 192.637 641.209 183.613 636.23 176.974L581.5 104" stroke="#86675E" stroke-width="6" stroke-linecap="square" stroke-dasharray="12 24"/>
  <path d="M1360.48 398.553L1283.95 430.06C1275.04 433.726 1273.86 445.86 1281.9 451.169L1360.36 503.008C1367.11 507.469 1376.25 504.105 1378.5 496.331L1387.19 466.307C1387.72 464.461 1387.8 462.514 1387.43 460.63L1376.82 407.307C1375.34 399.897 1367.47 395.677 1360.48 398.553Z" fill="#523D37" stroke="black" stroke-linecap="round"/>
  <path d="M1360.48 391.553L1283.95 423.06C1275.04 426.726 1273.86 438.86 1281.9 444.169L1360.36 496.008C1367.11 500.469 1376.25 497.105 1378.5 489.331L1387.19 459.307C1387.72 457.461 1387.8 455.514 1387.43 453.63L1376.82 400.307C1375.34 392.897 1367.47 388.677 1360.48 391.553Z" fill="#9BB468" stroke="black" stroke-linecap="round"/>
  <path d="M1120.59 116.656L1104.2 91.6635C1098.6 83.1156 1105.57 71.9216 1115.71 73.174L1160 78.6411C1170.91 79.9881 1174.41 94.078 1165.41 100.382L1137.51 119.907C1131.96 123.789 1124.3 122.318 1120.59 116.656Z" fill="#9BB468" stroke="black" stroke-linecap="round"/>
  <path d="M425.934 627.78L418.894 625.936C414.757 624.853 410.499 627.215 409.228 631.298L391.23 689.122C389.627 694.272 393.475 699.5 398.869 699.5H418.708C422.84 699.5 426.292 696.354 426.674 692.24L431.872 636.259C432.234 632.36 429.721 628.772 425.934 627.78Z" fill="#9BB468" stroke="black" stroke-linecap="round"/>
  <path d="M477.89 641.061L455.487 634.951C450.76 633.662 445.995 636.887 445.435 641.754L439.526 693.085C438.979 697.835 442.693 702 447.474 702H467.354C471.206 702 474.512 699.254 475.218 695.466L483.649 650.245C484.412 646.151 481.907 642.157 477.89 641.061Z" fill="#9BB468" stroke="black" stroke-linecap="round"/>
  <path d="M522.533 652.267L509.02 648.911C504.76 647.853 500.443 650.425 499.345 654.675L489.581 692.5C488.274 697.564 492.098 702.5 497.327 702.5H518.478C522.705 702.5 526.203 699.212 526.463 694.993L528.59 660.524C528.827 656.671 526.28 653.198 522.533 652.267Z" fill="#9BB468" stroke="black" stroke-linecap="round"/>
  <path d="M561.282 661.987L548.591 659.643C543.863 658.77 539.439 662.234 539.152 667.033L537.507 694.522C537.232 699.12 540.887 703 545.493 703H559.855C562.706 703 565.343 701.482 566.774 699.016L570.483 692.624C571.461 690.94 571.79 688.956 571.41 687.046L567.675 668.292C567.035 665.08 564.502 662.582 561.282 661.987Z" fill="#9BB468" stroke="black" stroke-linecap="round"/>
  <path d="M640.359 707.385L595.491 704.369C592.184 704.146 589.265 701.908 588.692 698.643C583.887 671.247 614.986 669.493 631 677.5C640.344 682.172 645.345 691.36 647.723 699.031C649.157 703.661 645.195 707.71 640.359 707.385Z" fill="#9BB468" stroke="black" stroke-linecap="round"/>
  <path d="M833.141 294.205L916.257 243.184C918.074 242.068 920.058 241.251 922.133 240.762L1080.73 203.389C1083.22 202.802 1085.58 201.742 1087.67 200.267L1204.19 118.096C1207.95 115.447 1212.5 114.172 1217.09 114.488L1330.47 122.293C1340.5 122.984 1348.45 131.006 1349.06 141.038L1360.68 332.944C1361.17 341.127 1356.63 348.784 1349.2 352.263L1247.39 399.976C1243.87 401.623 1239.95 402.212 1236.11 401.671L1070.18 378.307C1068.73 378.103 1067.26 378.058 1065.81 378.174L873.898 393.397C865.547 394.06 857.668 389.448 854.158 381.841L825.445 319.631C821.199 310.43 824.505 299.507 833.141 294.205Z" fill="#523D37" stroke="black" stroke-linecap="round"/>
  <path d="M1227 51.0437C1232.36 50.61 1243.34 53.2746 1253 65" stroke="#86675E" stroke-width="6" stroke-linecap="square"/>
  <path d="M1234 40.0932C1239.75 39.6097 1254.73 40.5579 1266 54" stroke="#86675E" stroke-width="6" stroke-linecap="square"/>
  <path d="M1222 84C1227.29 72.8485 1244.3 48.0364 1270 38" stroke="#86675E" stroke-width="6" stroke-linecap="square"/>
  <path d="M136.5 728C179 762.5 277 743.5 395 712.5" stroke="#86675E" stroke-width="4" stroke-linecap="square" stroke-dasharray="8 12"/>
  <path d="M40 712H122" stroke="#86675E" stroke-width="4" stroke-linecap="round"/>
  <path d="M80.5 671L80.5 699" stroke="#86675E" stroke-width="4" stroke-linecap="round"/>
  <path d="M81.5 723L81.5 751" stroke="#86675E" stroke-width="4" stroke-linecap="round"/>
  <path d="M64 701C66.3333 701.833 71.5 703.7 73.5 704.5" stroke="#86675E" stroke-width="3" stroke-linecap="round"/>
  <path d="M91 704.108L97 700.608" stroke="#86675E" stroke-width="3" stroke-linecap="round"/>
  <path d="M89 719.608L95 723.108" stroke="#86675E" stroke-width="3" stroke-linecap="round"/>
  <path d="M72.5 719.608L66.5 723.108" stroke="#86675E" stroke-width="3" stroke-linecap="round"/>
  <ellipse cx="81.5" cy="712" rx="5.5" ry="6" fill="#86675E"/>
  <path d="M92.5089 783.192C102.211 789.42 125.159 789.731 132 789.42C123.293 789.42 91.4723 759.525 80.0707 744.267H71.6749V732.745C43.8135 683.17 27.1049 679.496 22.2333 683.855C19.4969 702.041 14.7067 706.858 6 713.708C30.5654 742.669 82.8071 776.964 92.5089 783.192Z" fill="#E1AF6D" stroke="black" stroke-linecap="round"/>
  <path d="M53.9999 590L79.9999 610" stroke="#86675E" stroke-width="6" stroke-linecap="square"/>
  <path d="M65.5873 583.66L68.4124 616.341" stroke="#86675E" stroke-width="6" stroke-linecap="square"/>
  <path d="M191.242 82.4052C171.099 80.6917 126.283 79.7257 108.166 89.5696C85.5201 101.874 84.3516 130.303 104.5 121C124.648 111.697 120.206 77.2067 60.5 76" stroke="#86675E" stroke-width="4" stroke-linecap="square" stroke-dasharray="8 12"/>
  <path d="M1352.5 686.01C1353.83 680.01 1357.5 668.01 1361.5 668.01C1366.5 668.01 1377 677.51 1379.5 680.51M1352.5 686.01C1355.5 693.51 1382 683.51 1379.5 680.51M1352.5 686.01C1354.09 684.799 1356.72 683.244 1360 681.962M1379.5 680.51C1376.43 679.664 1373.39 679.428 1370.5 679.598M1360 681.962C1363.04 680.776 1366.63 679.825 1370.5 679.598M1360 681.962C1360.57 683.126 1362.28 684.986 1365 684.492M1370.5 679.598C1370.67 680.386 1370.1 682.371 1366.5 684.01C1365.97 684.251 1365.47 684.406 1365 684.492M1365 684.492V702.01" stroke="#86675E" stroke-width="2" stroke-linecap="square"/>
  <path d="M1349 666.009C1346.6 666.409 1344 681.51 1344 685.01C1344 688.705 1346.59 689.168 1349 688.605C1350.83 688.177 1352.57 687.157 1353 686.509C1354 685.009 1352 665.509 1349 666.009Z" fill="#86675E"/>
  <path d="M1349 688.605C1350.83 688.177 1352.57 687.157 1353 686.509C1354 685.009 1352 665.509 1349 666.009C1346.6 666.409 1344 681.51 1344 685.01C1344 688.705 1346.59 689.168 1349 688.605ZM1349 688.605V701.51" stroke="#86675E" stroke-width="2" stroke-linecap="square"/>
  <path d="M1337.02 672.525C1338.55 672.934 1341 681.102 1341 684.68C1341 688.457 1339.35 688.931 1337.81 688.354C1336.65 687.917 1335.54 686.874 1335.26 686.213C1334.63 684.679 1335.11 672.014 1337.02 672.525Z" fill="#86675E"/>
  <path d="M1337.81 688.354C1336.65 687.917 1335.54 686.874 1335.26 686.213C1334.63 684.679 1335.11 672.014 1337.02 672.525C1338.55 672.934 1341 681.102 1341 684.68C1341 688.457 1339.35 688.931 1337.81 688.354ZM1337.81 688.354V695.51" stroke="#86675E" stroke-width="2" stroke-linecap="square"/>
  <path d="M1404 715C1357.33 712.666 1230.4 720.6 1096 771" stroke="#86675E" stroke-width="4" stroke-linecap="square" stroke-dasharray="8 12"/>
  <path d="M409.872 47.964C405.888 47.94 402.9 46.956 400.908 45.012C398.94 43.068 397.956 39.912 397.956 35.544C397.956 31.584 398.916 28.476 400.836 26.22C402.756 23.94 405.468 22.8 408.972 22.8C411.132 22.8 413.016 23.124 414.624 23.772C416.232 24.42 417.468 25.344 418.332 26.544C419.196 27.744 419.628 29.16 419.628 30.792C419.628 32.088 419.34 33.24 418.764 34.248C418.212 35.256 417.384 36.156 416.28 36.948C417.168 37.092 417.936 37.572 418.584 38.388C419.256 39.204 419.592 40.152 419.592 41.232C419.592 42.384 419.28 43.476 418.656 44.508C418.056 45.516 417.024 46.344 415.56 46.992C414.12 47.64 412.224 47.964 409.872 47.964ZM407.388 34.536C407.82 34.752 408.36 34.86 409.008 34.86C409.776 34.86 410.436 34.68 410.988 34.32C411.564 33.936 411.852 33.372 411.852 32.628C411.852 31.908 411.564 31.368 410.988 31.008C410.436 30.624 409.764 30.432 408.972 30.432C408.348 30.432 407.82 30.54 407.388 30.756C407.052 30.9 406.8 31.152 406.632 31.512C406.464 31.872 406.38 32.256 406.38 32.664C406.38 33.072 406.464 33.456 406.632 33.816C406.8 34.152 407.052 34.392 407.388 34.536ZM407.388 42.96C407.844 43.152 408.384 43.248 409.008 43.248C409.776 43.248 410.436 43.092 410.988 42.78C411.564 42.444 411.852 41.952 411.852 41.304C411.852 40.68 411.564 40.2 410.988 39.864C410.412 39.528 409.74 39.36 408.972 39.36C408.372 39.36 407.844 39.456 407.388 39.648C407.052 39.792 406.8 40.02 406.632 40.332C406.464 40.62 406.38 40.944 406.38 41.304C406.38 41.664 406.464 42 406.632 42.312C406.8 42.6 407.052 42.816 407.388 42.96ZM446.244 42.24C447.396 42.6 447.972 43.356 447.972 44.508C447.972 45.588 447.42 46.44 446.316 47.064C445.212 47.688 443.304 48 440.592 48C437.208 48 434.304 47.184 431.88 45.552C429.48 43.92 428.28 40.68 428.28 35.832C428.28 33.384 428.7 31.176 429.54 29.208C430.38 27.24 431.628 25.68 433.284 24.528C434.964 23.376 437.016 22.8 439.44 22.8C442.68 22.8 444.96 23.304 446.28 24.312C447.6 25.296 448.26 26.508 448.26 27.948C448.26 28.62 448.092 29.244 447.756 29.82C447.42 30.372 446.916 30.804 446.244 31.116C445.668 31.404 444.924 31.548 444.012 31.548L443.04 31.512C442.848 31.488 442.572 31.476 442.212 31.476C440.964 31.476 439.98 31.704 439.26 32.16C438.54 32.592 438.048 33.264 437.784 34.176C438.792 34.128 439.704 34.104 440.52 34.104C442.944 34.104 444.516 34.176 445.236 34.32C446.052 34.488 446.676 34.812 447.108 35.292C447.564 35.772 447.792 36.336 447.792 36.984C447.792 37.632 447.576 38.196 447.144 38.676C446.712 39.132 446.064 39.444 445.2 39.612C444.528 39.756 442.896 39.828 440.304 39.828C439.248 39.828 438.504 39.816 438.072 39.792C438.816 41.376 440.208 42.168 442.248 42.168C442.368 42.168 442.644 42.144 443.076 42.096C443.652 42.048 444.144 42.024 444.552 42.024C445.248 42.024 445.812 42.096 446.244 42.24ZM478.102 32.988C478.102 34.74 477.838 36.288 477.31 37.632C476.806 38.976 476.086 40.104 475.15 41.016C475.942 42.24 476.338 43.428 476.338 44.58C476.338 45.564 475.954 46.38 475.186 47.028C474.442 47.676 473.59 48 472.63 48C472.078 48 471.574 47.916 471.118 47.748C470.662 47.58 470.17 47.292 469.642 46.884C469.186 46.524 468.754 46.032 468.346 45.408C467.938 44.784 467.614 44.136 467.374 43.464C466.582 43.368 465.79 43.164 464.998 42.852C465.142 43.62 465.214 44.208 465.214 44.616C465.214 46.896 464.026 48.036 461.65 48.036C459.658 48.036 458.254 46.872 457.438 44.544C456.622 42.216 456.214 39.372 456.214 36.012C456.214 33.732 456.622 31.596 457.438 29.604C458.278 27.588 459.55 25.968 461.254 24.744C462.958 23.496 465.034 22.872 467.482 22.872C469.45 22.872 471.238 23.292 472.846 24.132C474.454 24.948 475.726 26.124 476.662 27.66C477.622 29.196 478.102 30.972 478.102 32.988ZM464.638 34.68C464.638 35.496 464.962 36.216 465.61 36.84C466.258 37.44 467.002 37.74 467.842 37.74C468.706 37.74 469.45 37.44 470.074 36.84C470.722 36.216 471.046 35.496 471.046 34.68C471.046 33.84 470.722 33.12 470.074 32.52C469.45 31.896 468.706 31.584 467.842 31.584C467.002 31.584 466.258 31.896 465.61 32.52C464.962 33.144 464.638 33.864 464.638 34.68ZM491.662 48.072C490.054 48.072 488.758 47.292 487.774 45.732C486.814 44.148 486.25 42.012 486.082 39.324C486.058 38.94 486.046 38.376 486.046 37.632C486.046 34.728 486.526 32.16 487.486 29.928C488.446 27.672 489.802 25.932 491.554 24.708C493.33 23.46 495.394 22.836 497.746 22.836C500.098 22.836 502.15 23.46 503.902 24.708C505.678 25.932 507.034 27.66 507.97 29.892C508.93 32.124 509.41 34.704 509.41 37.632C509.41 38.376 509.398 38.94 509.374 39.324C509.206 42.06 508.642 44.196 507.682 45.732C506.722 47.268 505.426 48.036 503.794 48.036C502.474 48.036 501.55 47.676 501.022 46.956C500.518 46.236 500.266 45.36 500.266 44.328C500.266 43.848 500.302 43.428 500.374 43.068C499.126 43.116 498.022 43.14 497.062 43.14C496.462 43.14 495.802 43.116 495.082 43.068C495.154 43.428 495.19 43.848 495.19 44.328C495.19 45.384 494.926 46.272 494.398 46.992C493.894 47.712 492.982 48.072 491.662 48.072ZM494.83 36.66C496.126 36.612 497.074 36.588 497.674 36.588C498.322 36.588 499.27 36.612 500.518 36.66C500.566 36.396 500.59 36 500.59 35.472C500.59 34.344 500.35 33.432 499.87 32.736C499.39 32.016 498.646 31.656 497.638 31.656C496.654 31.656 495.922 32.004 495.442 32.7C494.962 33.396 494.722 34.296 494.722 35.4C494.722 35.808 494.758 36.228 494.83 36.66ZM540.979 28.164C540.979 29.748 540.319 30.9 538.999 31.62C537.703 32.316 535.579 32.736 532.627 32.88C532.723 34.032 532.771 35.52 532.771 37.344C532.771 39.888 532.627 41.928 532.339 43.464C532.075 44.976 531.607 46.104 530.935 46.848C530.263 47.568 529.327 47.928 528.127 47.928C526.951 47.928 526.051 47.544 525.427 46.776C524.803 46.008 524.371 44.868 524.131 43.356C523.891 41.844 523.771 39.84 523.771 37.344C523.771 35.664 523.807 34.176 523.879 32.88C521.887 32.784 520.279 32.58 519.055 32.268C517.855 31.932 516.967 31.44 516.391 30.792C515.815 30.144 515.527 29.268 515.527 28.164C515.527 26.82 515.983 25.764 516.895 24.996C517.807 24.228 519.175 23.688 520.999 23.376C522.823 23.064 525.211 22.908 528.163 22.908C531.139 22.908 533.551 23.064 535.399 23.376C537.247 23.688 538.639 24.228 539.575 24.996C540.511 25.764 540.979 26.82 540.979 28.164ZM559.744 48.036C557.56 48.06 555.532 47.52 553.66 46.416C551.812 45.312 550.324 43.8 549.196 41.88C548.092 39.936 547.516 37.788 547.468 35.436C547.444 33.18 547.972 31.092 549.052 29.172C550.132 27.252 551.62 25.728 553.516 24.6C555.412 23.448 557.488 22.872 559.744 22.872C561.952 22.848 563.992 23.4 565.864 24.528C567.76 25.656 569.26 27.204 570.364 29.172C571.468 31.14 572.02 33.312 572.02 35.688C572.02 37.92 571.468 39.972 570.364 41.844C569.26 43.716 567.76 45.204 565.864 46.308C563.992 47.412 561.952 47.988 559.744 48.036ZM559.852 41.016C560.956 41.016 561.892 40.62 562.66 39.828C563.452 39.036 563.836 38.004 563.812 36.732C563.812 35.436 563.428 34.392 562.66 33.6C561.892 32.808 560.956 32.412 559.852 32.412C558.748 32.412 557.812 32.808 557.044 33.6C556.276 34.392 555.892 35.436 555.892 36.732C555.892 38.004 556.276 39.036 557.044 39.828C557.812 40.62 558.748 41.016 559.852 41.016ZM589.44 48C587.52 48 585.84 47.472 584.4 46.416C582.984 45.36 581.892 43.86 581.124 41.916C580.356 39.972 579.972 37.68 579.972 35.04C579.972 33.504 580.224 31.86 580.728 30.108C581.256 28.356 582 26.88 582.96 25.68C583.944 24.456 585.084 23.844 586.38 23.844C587.436 23.844 588.312 24.228 589.008 24.996C589.704 25.764 590.052 26.712 590.052 27.84C590.052 28.176 589.968 28.632 589.8 29.208C589.656 29.76 589.488 30.336 589.296 30.936C588.936 31.968 588.66 32.88 588.468 33.672C588.276 34.44 588.18 35.184 588.18 35.904C588.18 36.96 588.336 37.728 588.648 38.208C588.96 38.688 589.344 38.928 589.8 38.928C590.4 38.928 590.82 38.628 591.06 38.028C591.324 37.404 591.456 36.264 591.456 34.608L591.42 32.124C591.42 30.204 591.672 28.68 592.176 27.552C592.68 26.4 593.688 25.824 595.2 25.824C596.328 25.824 597.18 26.136 597.756 26.76C598.332 27.384 598.704 28.176 598.872 29.136C599.04 30.072 599.124 31.212 599.124 32.556V34.392C599.124 36.144 599.268 37.392 599.556 38.136C599.868 38.856 600.36 39.216 601.032 39.216C601.488 39.216 601.836 38.988 602.076 38.532C602.34 38.052 602.472 37.344 602.472 36.408C602.472 35.712 602.388 35.016 602.22 34.32C602.052 33.624 601.788 32.736 601.428 31.656C601.116 30.624 600.888 29.856 600.744 29.352C600.624 28.824 600.564 28.32 600.564 27.84C600.564 26.712 600.924 25.776 601.644 25.032C602.388 24.288 603.252 23.916 604.236 23.916C605.652 23.916 606.84 24.516 607.8 25.716C608.784 26.892 609.516 28.344 609.996 30.072C610.476 31.8 610.716 33.456 610.716 35.04C610.716 37.68 610.332 39.972 609.564 41.916C608.796 43.86 607.692 45.36 606.252 46.416C604.836 47.448 603.168 47.964 601.248 47.964C600.192 47.964 599.16 47.724 598.152 47.244C597.144 46.764 596.208 46.044 595.344 45.084C594.48 46.044 593.532 46.776 592.5 47.28C591.492 47.76 590.472 48 589.44 48ZM624.263 48C623.087 48 622.127 47.28 621.383 45.84C620.663 44.4 620.147 42.66 619.835 40.62C619.523 38.58 619.367 36.612 619.367 34.716C619.367 31.62 619.859 28.872 620.843 26.472C621.851 24.048 623.531 22.836 625.883 22.836C626.915 22.836 627.815 23.232 628.583 24.024C629.375 24.816 630.059 25.848 630.635 27.12C631.211 28.368 631.907 30.108 632.723 32.34L633.335 34.032C633.287 33.12 633.263 32.448 633.263 32.016C633.263 29.208 633.635 26.976 634.379 25.32C635.147 23.664 636.359 22.836 638.015 22.836C640.007 22.836 641.375 24.024 642.119 26.4C642.863 28.752 643.235 31.524 643.235 34.716C643.235 36.612 642.995 38.58 642.515 40.62C642.059 42.66 641.279 44.4 640.175 45.84C639.071 47.28 637.631 48 635.855 48C634.775 48 633.827 47.616 633.011 46.848C632.219 46.056 631.547 45.084 630.995 43.932C630.467 42.78 629.831 41.196 629.087 39.18C628.703 38.124 628.403 37.332 628.187 36.804L628.223 39.72C628.223 41.616 628.127 43.152 627.935 44.328C627.743 45.48 627.359 46.38 626.783 47.028C626.231 47.676 625.391 48 624.263 48ZM683.436 48C682.62 48 681.936 47.796 681.384 47.388C680.856 46.956 680.484 46.38 680.268 45.66C680.076 44.988 679.956 44.256 679.908 43.464C679.884 42.672 679.872 41.556 679.872 40.116C679.872 38.772 679.812 37.776 679.692 37.128C679.596 36.48 679.344 36.156 678.936 36.156C678.456 36.156 678.12 36.372 677.928 36.804C677.736 37.212 677.64 37.8 677.64 38.568C677.64 39.264 677.736 40.356 677.928 41.844C677.952 42.132 678 42.588 678.072 43.212C678.144 43.836 678.18 44.352 678.18 44.76C678.18 45.912 677.916 46.728 677.388 47.208C676.884 47.688 676.14 47.928 675.156 47.928C673.98 47.928 672.96 47.292 672.096 46.02C671.232 44.748 670.584 43.164 670.152 41.268C669.72 39.348 669.504 37.464 669.504 35.616C669.504 33.408 669.816 31.356 670.44 29.46C671.088 27.564 672.048 26.04 673.32 24.888C674.616 23.736 676.176 23.16 678 23.16C679.536 23.16 680.76 23.64 681.672 24.6C682.584 25.536 683.196 26.676 683.508 28.02C683.772 26.7 684.36 25.56 685.272 24.6C686.208 23.64 687.432 23.16 688.944 23.16C690.744 23.16 692.28 23.724 693.552 24.852C694.848 25.956 695.832 27.504 696.504 29.496C697.2 31.488 697.548 33.792 697.548 36.408C697.548 38.112 697.308 39.876 696.828 41.7C696.348 43.5 695.676 45 694.812 46.2C693.948 47.4 692.964 48 691.86 48C690.852 48 690.084 47.748 689.556 47.244C689.028 46.74 688.764 45.912 688.764 44.76C688.764 44.232 688.86 43.248 689.052 41.808C689.244 40.272 689.34 39.168 689.34 38.496C689.34 36.936 688.92 36.156 688.08 36.156C687.648 36.156 687.372 36.504 687.252 37.2C687.156 37.896 687.096 39.024 687.072 40.584C687.072 41.76 687.048 42.744 687 43.536C686.952 44.304 686.844 45.012 686.676 45.66C686.484 46.356 686.1 46.92 685.524 47.352C684.972 47.784 684.276 48 683.436 48ZM711.105 48.072C709.497 48.072 708.201 47.292 707.217 45.732C706.257 44.148 705.693 42.012 705.525 39.324C705.501 38.94 705.489 38.376 705.489 37.632C705.489 34.728 705.969 32.16 706.929 29.928C707.889 27.672 709.245 25.932 710.997 24.708C712.773 23.46 714.837 22.836 717.189 22.836C719.541 22.836 721.593 23.46 723.345 24.708C725.121 25.932 726.477 27.66 727.413 29.892C728.373 32.124 728.853 34.704 728.853 37.632C728.853 38.376 728.841 38.94 728.817 39.324C728.649 42.06 728.085 44.196 727.125 45.732C726.165 47.268 724.869 48.036 723.237 48.036C721.917 48.036 720.993 47.676 720.465 46.956C719.961 46.236 719.709 45.36 719.709 44.328C719.709 43.848 719.745 43.428 719.817 43.068C718.569 43.116 717.465 43.14 716.505 43.14C715.905 43.14 715.245 43.116 714.525 43.068C714.597 43.428 714.633 43.848 714.633 44.328C714.633 45.384 714.369 46.272 713.841 46.992C713.337 47.712 712.425 48.072 711.105 48.072ZM714.273 36.66C715.569 36.612 716.517 36.588 717.117 36.588C717.765 36.588 718.713 36.612 719.961 36.66C720.009 36.396 720.033 36 720.033 35.472C720.033 34.344 719.793 33.432 719.313 32.736C718.833 32.016 718.089 31.656 717.081 31.656C716.097 31.656 715.365 32.004 714.885 32.7C714.405 33.396 714.165 34.296 714.165 35.4C714.165 35.808 714.201 36.228 714.273 36.66ZM742.225 48.036C740.257 48.036 738.913 46.908 738.193 44.652C737.497 42.396 737.149 39.516 737.149 36.012C737.149 33.732 737.557 31.596 738.373 29.604C739.213 27.588 740.485 25.968 742.189 24.744C743.893 23.496 745.969 22.872 748.417 22.872C750.385 22.872 752.173 23.292 753.781 24.132C755.389 24.948 756.661 26.124 757.597 27.66C758.557 29.196 759.037 30.972 759.037 32.988C759.037 35.316 758.569 37.272 757.633 38.856C756.697 40.44 755.485 41.616 753.997 42.384C752.509 43.152 750.937 43.536 749.281 43.536C747.937 43.536 746.701 43.308 745.573 42.852C745.717 43.62 745.789 44.208 745.789 44.616C745.789 46.896 744.601 48.036 742.225 48.036ZM748.777 37.956C749.641 37.956 750.385 37.644 751.009 37.02C751.657 36.372 751.981 35.628 751.981 34.788C751.981 33.924 751.657 33.18 751.009 32.556C750.385 31.908 749.641 31.584 748.777 31.584C747.937 31.584 747.193 31.908 746.545 32.556C745.897 33.18 745.573 33.924 745.573 34.788C745.573 35.628 745.897 36.372 746.545 37.02C747.193 37.644 747.937 37.956 748.777 37.956Z" fill="#86675E"/>
  <path d="M832.651 463.237L723.901 567.098C721.897 569.012 720.313 571.321 719.249 573.879L667.438 698.41C662.259 710.86 670.632 724.763 684.059 726.007L1004.94 755.74C1006.8 755.913 1008.68 755.824 1010.51 755.476L1297.28 701.144C1304.29 699.817 1310.05 694.86 1312.42 688.134L1349.45 582.922C1352.19 575.133 1349.87 566.461 1343.59 561.09L1228.26 462.333C1225.33 459.831 1221.75 458.225 1217.94 457.707L1060.49 436.32C1058.93 436.107 1057.34 436.081 1055.77 436.241L844.435 457.804C840.012 458.255 835.866 460.167 832.651 463.237Z" fill="#523D37" stroke="black" stroke-linecap="round"/>
  <path d="M270.33 55.9675L73.5462 158.957C66.5279 162.63 62.3389 170.099 62.8641 178.003L71.0807 301.644C71.8485 313.197 82.2364 321.686 93.7113 320.138L278.435 295.211C279.477 295.071 280.506 294.848 281.512 294.546L453.686 242.845C455.552 242.285 457.49 242 459.438 242H562.561C569.102 242 575.229 238.802 578.969 233.436L599.25 204.337C604.176 197.269 604.023 187.841 598.87 180.938L534.504 94.7046C531.303 90.415 526.515 87.5878 521.212 86.8557L282.339 53.8753C278.216 53.306 274.018 54.0374 270.33 55.9675Z" fill="#523D37" stroke="black" stroke-linecap="round"/>
  <path d="M265.378 572.251L250.499 389.874C249.652 379.493 240.98 371.5 230.565 371.5H228.438C226.819 371.5 225.205 371.697 223.634 372.086L96.2401 403.61C86.1945 406.096 79.7043 415.835 81.2765 426.063L119.577 675.238C120.995 684.46 128.6 691.476 137.906 692.148L355.973 707.88C365.104 708.539 373.517 702.913 376.397 694.223L392.964 644.224C396.533 633.455 390.438 621.877 379.54 618.722L279.751 589.836C271.774 587.527 266.054 580.528 265.378 572.251Z" fill="#523D37" stroke="black" stroke-linecap="round"/>
  <path d="M673.216 162.228L629.706 113.823C618.514 101.372 626.658 81.5034 643.368 80.4892L775 72.5H1041.4C1048.3 72.5 1054.72 76.0601 1058.37 81.918L1090.19 132.939C1097.59 144.808 1090.83 160.414 1077.11 163.138L894.428 199.418C892.487 199.804 890.613 200.476 888.869 201.411L781.75 258.879C777.404 261.21 772.35 261.854 767.558 260.686L677.552 238.742C665.34 235.765 658.869 222.392 664.113 210.968L676.519 183.941C679.846 176.693 678.548 168.16 673.216 162.228Z" fill="#523D37" stroke="black" stroke-linecap="round"/>
  <defs>
    <filter id="filter0_i_22057_76" x="-19.5" y="1" width="1491.91" height="814.769" filterUnits="userSpaceOnUse" color-interpolation-filters="sRGB">
      <feFlood flood-opacity="0" result="BackgroundImageFix"/>
      <feBlend mode="normal" in="SourceGraphic" in2="BackgroundImageFix" result="shape"/>
      <feColorMatrix in="SourceAlpha" type="matrix" values="0 0 0 0 0 0 0 0 0 0 0 0 0 0 0 0 0 0 127 0" result="hardAlpha"/>
      <feOffset dx="-20" dy="26"/>
      <feGaussianBlur stdDeviation="30"/>
      <feComposite in2="hardAlpha" operator="arithmetic" k2="-1" k3="1"/>
      <feColorMatrix type="matrix" values="0 0 0 0 0 0 0 0 0 0 0 0 0 0 0 0 0 0 0.2 0"/>
      <feBlend mode="normal" in2="shape" result="effect1_innerShadow_22057_76"/>
    </filter>
  </defs>
</svg>
