<svg width="437" height="265" viewBox="0 0 437 265" fill="none" xmlns="http://www.w3.org/2000/svg">
<g filter="url(#filter0_d_31513_10400)">
<path d="M68.3561 243.399L9.5415 132.923C4.29533 123.068 8.13215 110.827 18.0645 105.73L111.623 57.7196C113.201 56.9101 114.879 56.314 116.614 55.9469L322.851 12.3012C326.854 11.4542 331.02 11.855 334.788 13.4497L424.296 51.3344C431.694 54.4656 436.5 61.7193 436.5 69.7526V181.833C436.5 190.074 431.445 197.471 423.767 200.466L290.005 252.633C287.689 253.536 285.224 254 282.738 254H86.0102C78.6186 254 71.8296 249.923 68.3561 243.399Z" fill="#E7F075"/>
<path d="M68.3561 243.399L9.5415 132.923C4.29533 123.068 8.13215 110.827 18.0645 105.73L111.623 57.7196C113.201 56.9101 114.879 56.314 116.614 55.9469L322.851 12.3012C326.854 11.4542 331.02 11.855 334.788 13.4497L424.296 51.3344C431.694 54.4656 436.5 61.7193 436.5 69.7526V181.833C436.5 190.074 431.445 197.471 423.767 200.466L290.005 252.633C287.689 253.536 285.224 254 282.738 254H86.0102C78.6186 254 71.8296 249.923 68.3561 243.399Z" stroke="black" stroke-linecap="round"/>
</g>
<path d="M216.278 205L164 254H282L277.021 205H216.278Z" fill="#E0C6A0" stroke="black" stroke-linejoin="round"/>
<ellipse cx="250" cy="226.5" rx="8" ry="2.5" fill="black" fill-opacity="0.1"/>
<ellipse cx="225" cy="221.5" rx="8" ry="2.5" fill="black" fill-opacity="0.1"/>
<ellipse cx="232" cy="246" rx="10" ry="3" fill="black" fill-opacity="0.1"/>
<ellipse cx="260" cy="218" rx="10" ry="3" fill="black" fill-opacity="0.1"/>
<ellipse cx="213.5" cy="233" rx="13.5" ry="4" fill="black" fill-opacity="0.1"/>
<ellipse cx="260" cy="243" rx="11" ry="3" fill="black" fill-opacity="0.1"/>
<ellipse cx="79.5" cy="181" rx="17.5" ry="6" fill="black" fill-opacity="0.2"/>
<ellipse cx="112.5" cy="167" rx="17.5" ry="6" fill="black" fill-opacity="0.2"/>
<path d="M85.6822 76.272L81.0132 181.992H89.3507L85.6822 76.272Z" fill="#896736" stroke="black"/>
<path d="M78.3454 96.6156C71.0636 101.47 63.8937 101.507 61.0034 100.618C71.6543 99.059 81.7708 82.3734 86.3495 73.9375C87.6648 91.0128 99.007 98.172 104.025 99.2836C95.4874 99.2836 88.2393 93.0583 85.6825 89.9456C85.6825 89.9456 83.348 93.2806 78.3454 96.6156Z" fill="#14653C" stroke="black"/>
<path d="M78.3451 110.956C70.0076 115.959 57.8903 116.848 55 115.959C70.3411 114.362 81.1035 102.717 85.6822 94.2812C86.9975 111.357 103.358 113.958 108.694 114.958C91.6852 116.292 88.239 107.399 85.6822 104.286C85.6822 104.286 83.5006 107.863 78.3451 110.956Z" fill="#14653C" stroke="black"/>
<path d="M78.3451 122.961C70.0076 127.963 57.8903 128.853 55 127.963C70.3411 126.366 81.1035 114.722 85.6822 106.286C86.9975 123.361 103.024 123.628 108.36 124.628C91.3517 125.962 88.239 119.403 85.6822 116.291C85.6822 116.291 83.5006 119.867 78.3451 122.961Z" fill="#14653C" stroke="black"/>
<path d="M64.0045 135.97C74.9434 135.97 83.6811 127.299 86.6826 122.964C86.6826 124.854 85.5487 129.701 81.0131 133.969C76.4775 138.238 67.7842 137.082 64.0045 135.97Z" fill="#14653C" stroke="black"/>
<path d="M100.69 134.636C94.8204 134.636 88.9063 129.967 86.6829 127.633C85.1266 129.411 83.1478 133.302 87.6834 134.636C92.2191 135.97 98.2443 135.192 100.69 134.636Z" fill="#14653C" stroke="black"/>
<path d="M74.6762 142.403C79.3826 142.403 84.1245 138.782 85.9072 136.971C87.1551 138.351 88.7417 141.368 85.105 142.403C81.4683 143.438 76.6372 142.834 74.6762 142.403Z" fill="#14653C" stroke="black"/>
<path d="M119.825 69.1167L115.591 164.992H123.152L119.825 69.1167Z" fill="#896736" stroke="black"/>
<path d="M113.171 87.5663C106.567 91.9688 100.065 92.0022 97.444 91.1957C107.103 89.7821 116.278 74.6503 120.43 67C121.623 82.4852 131.909 88.9777 136.46 89.9859C128.717 89.9859 122.144 84.3402 119.825 81.5174C119.825 81.5174 117.708 84.5419 113.171 87.5663Z" fill="#14653C" stroke="black"/>
<path d="M113.171 100.571C105.61 105.108 94.6212 105.914 92 105.108C105.913 103.659 115.673 93.0991 119.825 85.4487C121.018 100.934 135.855 103.293 140.694 104.2C125.269 105.41 122.144 97.3449 119.825 94.5221C119.825 94.5221 117.847 97.7658 113.171 100.571Z" fill="#14653C" stroke="black"/>
<path d="M113.171 111.459C105.61 115.996 94.6212 116.802 92 115.996C105.913 114.547 115.673 103.987 119.825 96.3369C121.018 111.822 135.552 112.064 140.391 112.971C124.967 114.181 122.144 108.233 119.825 105.41C119.825 105.41 117.847 108.654 113.171 111.459Z" fill="#14653C" stroke="black"/>
<path d="M100.166 123.255C110.086 123.255 118.01 115.391 120.732 111.459C120.732 113.173 119.704 117.569 115.591 121.44C111.477 125.311 103.594 124.263 100.166 123.255Z" fill="#14653C" stroke="black"/>
<path d="M133.435 122.045C128.112 122.045 122.749 117.811 120.732 115.694C119.321 117.307 117.526 120.835 121.64 122.045C125.753 123.255 131.217 122.549 133.435 122.045Z" fill="#14653C" stroke="black"/>
<path d="M109.844 129.089C114.112 129.089 118.413 125.805 120.029 124.163C121.161 125.414 122.6 128.15 119.302 129.089C116.004 130.027 111.623 129.48 109.844 129.089Z" fill="#14653C" stroke="black"/>
<path d="M134.417 58.6987H355.98L367.415 70.2385H122.982L134.417 58.6987Z" fill="#D8CABD" stroke="black" stroke-linejoin="round"/>
<ellipse cx="244.149" cy="193.344" rx="142.149" ry="23.0796" fill="black" fill-opacity="0.2"/>
<path d="M127.093 194.029H366.577L368.003 186.686H125.667L127.093 194.029Z" fill="#A38B76" stroke="black" stroke-linejoin="round"/>
<path d="M169.226 205.151H323.73L324.649 199.983H168.306L169.226 205.151Z" fill="#A38B76" stroke="black" stroke-linejoin="round"/>
<path d="M168.306 199.982H324.649L315.453 190.938H177.503L168.306 199.982Z" fill="#CCC1B0" stroke="black" stroke-linejoin="round"/>
<path d="M125.08 186.685H367.415L353.16 173.047H139.335L125.08 186.685Z" fill="#CCC1B0" stroke="black" stroke-linejoin="round"/>
<rect x="136.619" y="59.748" width="219.256" height="2.09814" fill="#AA6852" stroke="black"/>
<path d="M133.472 64.9932H359.022V61.8459H133.472V64.9932Z" fill="#D8CABD" stroke="black"/>
<rect x="135.57" y="64.9932" width="221.354" height="5.24536" fill="#AA6852" stroke="black"/>
<path d="M124.411 74.4351H365.986L367.415 70.2388H122.982L124.411 74.4351Z" fill="#A38B76" stroke="black" stroke-linejoin="round"/>
<path d="M127.178 74.4351H363.219L362.503 77.5823H127.991L127.178 74.4351Z" fill="#AA6852" stroke="black"/>
<path d="M126.505 82.8276H365.99L367.415 77.5823H125.08L126.505 82.8276Z" fill="#A38B76" stroke="black" stroke-linejoin="round"/>
<path d="M126.129 82.8276H366.366L360.635 180.391H131.859L126.129 82.8276Z" fill="#AA6852" stroke="black"/>
<path d="M220.146 127.487L217.849 108.441C217.896 98.0123 226.365 89.5728 236.806 89.5728H251.493C261.933 89.5728 270.402 98.0123 270.449 108.441L268.152 127.487H244.149H220.146Z" fill="#D3F8FF" stroke="#602B00" stroke-width="3"/>
<path d="M138.191 154.606L137.155 135.731H162.396L162.395 154.688L162.395 173.645H139.235L138.191 154.606Z" fill="#D3F8FF" stroke="#602B00" stroke-width="3"/>
<path d="M136.175 109.49L135.063 90.6216H162.395L162.395 109.578L162.395 128.535H137.297L136.175 109.49Z" fill="#D3F8FF" stroke="#602B00" stroke-width="3"/>
<path d="M222.25 155.123L221.088 135.731H267.209L266.047 155.123L264.874 174.694H244.149H223.423L222.25 155.123Z" fill="#D3F8FF" stroke="#602B00" stroke-width="3"/>
<path d="M143.527 47.1592H347.531L359.022 59.748H133.472L143.527 47.1592Z" fill="#C55542" stroke="black"/>
<path d="M246.247 19.8833L357.973 70.2387H134.521L246.247 19.8833Z" fill="#D8CABD" stroke="black"/>
<path d="M246.247 19.4989L357.973 70.2387L337.92 46.983L246.247 1L152.426 46.983L134.521 70.2387L246.247 19.4989Z" fill="#C55542"/>
<path d="M246.247 19.4989L357.973 70.2387L337.92 46.983L246.247 1M246.247 19.4989L134.521 70.2387L152.426 46.983L246.247 1M246.247 19.4989V1" stroke="black"/>
<g filter="url(#filter1_i_31513_10400)">
<path d="M246.247 25.1289L334.894 64.9936H157.601L246.247 25.1289Z" fill="#AA6852"/>
</g>
<path d="M246.247 25.1289L334.894 64.9936H157.601L246.247 25.1289Z" stroke="black"/>
<g filter="url(#filter2_i_31513_10400)">
<path d="M246.247 31.4229L311.814 60.7969H180.68L246.247 31.4229Z" fill="#D8CABD"/>
</g>
<path d="M246.247 31.4229L311.814 60.7969H180.68L246.247 31.4229Z" stroke="black"/>
<path d="M135.57 69.1895H357.973L355.104 78.6311H138.44L135.57 69.1895Z" fill="#A38B76" stroke="black" stroke-linejoin="round"/>
<path d="M168.091 82.8276H182.99L185.926 180.391H172.495L168.091 82.8276Z" fill="#D8CABD" stroke="black"/>
<path d="M195.367 82.8276H209.692L211.103 180.391H198.19L195.367 82.8276Z" fill="#D8CABD" stroke="black"/>
<rect x="169.141" y="179.342" width="17.8342" height="3.14721" rx="1.57361" fill="#D9CEC6" stroke="black"/>
<rect x="196.417" y="179.342" width="17.8342" height="3.14721" rx="1.57361" fill="#D9CEC6" stroke="black"/>
<path d="M352.247 154.609L353.244 135.731H329.05L329.05 154.688L329.05 173.645H351.241L352.247 154.609Z" fill="#D3F8FF" stroke="#602B00" stroke-width="3"/>
<path d="M355.271 109.49L356.383 90.6216H329.051L329.051 109.578L329.051 128.535H354.149L355.271 109.49Z" fill="#D3F8FF" stroke="#602B00" stroke-width="3"/>
<path d="M322.305 82.8276H307.407L304.471 180.391H317.901L322.305 82.8276Z" fill="#D8CABD" stroke="black"/>
<path d="M295.029 82.8276H280.705L279.293 180.391H292.206L295.029 82.8276Z" fill="#D8CABD" stroke="black"/>
<rect width="18.8833" height="3.14721" rx="1.57361" transform="matrix(-1 0 0 1 322.305 179.342)" fill="#D9CEC6" stroke="black"/>
<rect width="18.8833" height="3.14721" rx="1.57361" transform="matrix(-1 0 0 1 295.029 179.342)" fill="#D9CEC6" stroke="black"/>
<path fill-rule="evenodd" clip-rule="evenodd" d="M172.888 89.1277C172.888 92.4625 170.185 95.166 166.85 95.166C163.515 95.166 160.811 92.4625 160.811 89.1277C160.811 85.7928 163.515 83.0894 166.85 83.0894L166.871 83.0894H182.105C182.105 83.0894 182.105 83.0894 182.106 83.0894C185.44 83.09 188.143 85.7932 188.143 89.1277C188.143 92.4626 185.439 95.166 182.105 95.166C178.77 95.166 176.066 92.4626 176.066 89.1277C176.066 88.8033 176.092 88.4848 176.141 88.1743H172.813C172.862 88.4848 172.888 88.8033 172.888 89.1277Z" fill="#D8CABD"/>
<path d="M166.85 83.0894L166.851 82.5894H166.85V83.0894ZM166.871 83.0894L166.871 83.5894H166.871V83.0894ZM182.106 83.0894L182.106 82.5894L182.106 83.0894ZM176.141 88.1743L176.635 88.2526L176.727 87.6743H176.141V88.1743ZM172.813 88.1743V87.6743H172.228L172.319 88.2526L172.813 88.1743ZM166.85 95.666C170.461 95.666 173.388 92.7387 173.388 89.1277H172.388C172.388 92.1864 169.908 94.666 166.85 94.666V95.666ZM160.311 89.1277C160.311 92.7387 163.239 95.666 166.85 95.666V94.666C163.791 94.666 161.311 92.1864 161.311 89.1277H160.311ZM166.85 82.5894C163.239 82.5894 160.311 85.5167 160.311 89.1277H161.311C161.311 86.0689 163.791 83.5894 166.85 83.5894V82.5894ZM166.872 82.5894L166.851 82.5894L166.849 83.5894L166.871 83.5894L166.872 82.5894ZM182.105 82.5894H166.871V83.5894H182.105V82.5894ZM182.105 83.5894C182.105 83.5894 182.105 83.5894 182.106 83.5894L182.106 82.5894C182.105 82.5894 182.105 82.5894 182.105 82.5894V83.5894ZM182.106 83.5894C185.164 83.59 187.643 86.0693 187.643 89.1277H188.643C188.643 85.5171 185.716 82.5901 182.106 82.5894L182.106 83.5894ZM187.643 89.1277C187.643 92.1864 185.163 94.666 182.105 94.666V95.666C185.716 95.666 188.643 92.7387 188.643 89.1277H187.643ZM182.105 94.666C179.046 94.666 176.566 92.1864 176.566 89.1277H175.566C175.566 92.7387 178.494 95.666 182.105 95.666V94.666ZM176.566 89.1277C176.566 88.8296 176.59 88.5374 176.635 88.2526L175.647 88.096C175.594 88.4323 175.566 88.777 175.566 89.1277H176.566ZM172.813 88.6743H176.141V87.6743H172.813V88.6743ZM173.388 89.1277C173.388 88.7769 173.36 88.4323 173.307 88.096L172.319 88.2526C172.365 88.5373 172.388 88.8296 172.388 89.1277H173.388Z" fill="black"/>
<circle cx="182.102" cy="89.1243" r="3.49586" fill="#D9CEC6" stroke="black"/>
<circle cx="166.846" cy="89.1243" r="3.49586" fill="#D9CEC6" stroke="black"/>
<path fill-rule="evenodd" clip-rule="evenodd" d="M286.188 89.1277C286.188 92.4625 283.485 95.166 280.15 95.166C276.815 95.166 274.111 92.4625 274.111 89.1277C274.111 85.7928 276.815 83.0894 280.15 83.0894L280.171 83.0894H295.404C295.404 83.0894 295.405 83.0894 295.405 83.0894C298.74 83.09 301.442 85.7932 301.442 89.1277C301.442 92.4626 298.739 95.166 295.404 95.166C292.069 95.166 289.366 92.4626 289.366 89.1277C289.366 88.8033 289.391 88.4848 289.441 88.1743H286.113C286.162 88.4848 286.188 88.8033 286.188 89.1277Z" fill="#D8CABD"/>
<path d="M280.15 83.0894L280.151 82.5894H280.15V83.0894ZM280.171 83.0894L280.17 83.5894H280.171V83.0894ZM295.405 83.0894L295.405 82.5894L295.405 83.0894ZM289.441 88.1743L289.934 88.2526L290.026 87.6743H289.441V88.1743ZM286.113 88.1743V87.6743H285.528L285.619 88.2526L286.113 88.1743ZM280.15 95.666C283.761 95.666 286.688 92.7387 286.688 89.1277H285.688C285.688 92.1864 283.208 94.666 280.15 94.666V95.666ZM273.611 89.1277C273.611 92.7387 276.539 95.666 280.15 95.666V94.666C277.091 94.666 274.611 92.1864 274.611 89.1277H273.611ZM280.15 82.5894C276.539 82.5894 273.611 85.5167 273.611 89.1277H274.611C274.611 86.0689 277.091 83.5894 280.15 83.5894V82.5894ZM280.172 82.5894L280.151 82.5894L280.149 83.5894L280.17 83.5894L280.172 82.5894ZM295.404 82.5894H280.171V83.5894H295.404V82.5894ZM295.404 83.5894C295.405 83.5894 295.405 83.5894 295.405 83.5894L295.405 82.5894C295.405 82.5894 295.404 82.5894 295.404 82.5894V83.5894ZM295.405 83.5894C298.463 83.59 300.942 86.0693 300.942 89.1277H301.942C301.942 85.5171 299.016 82.5901 295.405 82.5894L295.405 83.5894ZM300.942 89.1277C300.942 92.1864 298.463 94.666 295.404 94.666V95.666C299.015 95.666 301.942 92.7387 301.942 89.1277H300.942ZM295.404 94.666C292.345 94.666 289.866 92.1864 289.866 89.1277H288.866C288.866 92.7387 291.793 95.666 295.404 95.666V94.666ZM289.866 89.1277C289.866 88.8296 289.889 88.5374 289.934 88.2526L288.947 88.096C288.893 88.4323 288.866 88.777 288.866 89.1277H289.866ZM286.113 88.6743H289.441V87.6743H286.113V88.6743ZM286.688 89.1277C286.688 88.7769 286.66 88.4323 286.607 88.096L285.619 88.2526C285.664 88.5373 285.688 88.8296 285.688 89.1277H286.688Z" fill="black"/>
<circle cx="295.404" cy="89.1243" r="3.49586" fill="#D9CEC6" stroke="black"/>
<circle cx="280.15" cy="89.1243" r="3.49586" fill="#D9CEC6" stroke="black"/>
<path fill-rule="evenodd" clip-rule="evenodd" d="M201.752 89.1277C201.752 92.4625 199.049 95.166 195.714 95.166C192.379 95.166 189.675 92.4625 189.675 89.1277C189.675 85.7928 192.379 83.0894 195.714 83.0894L195.735 83.0894H210.968C210.968 83.0894 210.968 83.0894 210.968 83.0894C214.303 83.0894 217.007 85.7928 217.007 89.1277C217.007 92.4626 214.303 95.166 210.968 95.166C207.633 95.166 204.93 92.4626 204.93 89.1277C204.93 88.8033 204.956 88.4848 205.005 88.1743H201.677C201.726 88.4848 201.752 88.8033 201.752 89.1277Z" fill="#D8CABD"/>
<path d="M195.714 83.0894L195.715 82.5894H195.714V83.0894ZM195.735 83.0894L195.735 83.5894H195.735V83.0894ZM210.968 83.0894V83.5894H210.968L210.968 83.0894ZM205.005 88.1743L205.499 88.2526L205.59 87.6743H205.005V88.1743ZM201.677 88.1743V87.6743H201.092L201.183 88.2526L201.677 88.1743ZM195.714 95.666C199.325 95.666 202.252 92.7387 202.252 89.1277H201.252C201.252 92.1864 198.772 94.666 195.714 94.666V95.666ZM189.175 89.1277C189.175 92.7387 192.103 95.666 195.714 95.666V94.666C192.655 94.666 190.175 92.1864 190.175 89.1277H189.175ZM195.714 82.5894C192.103 82.5894 189.175 85.5167 189.175 89.1277H190.175C190.175 86.0689 192.655 83.5894 195.714 83.5894V82.5894ZM195.736 82.5894L195.715 82.5894L195.713 83.5894L195.735 83.5894L195.736 82.5894ZM210.968 82.5894H195.735V83.5894H210.968V82.5894ZM210.968 83.5894C210.968 83.5894 210.968 83.5894 210.968 83.5894V82.5894C210.968 82.5894 210.968 82.5894 210.968 82.5894L210.968 83.5894ZM210.968 83.5894C214.027 83.5894 216.507 86.069 216.507 89.1277H217.507C217.507 85.5167 214.579 82.5894 210.968 82.5894V83.5894ZM216.507 89.1277C216.507 92.1864 214.027 94.666 210.968 94.666V95.666C214.579 95.666 217.507 92.7387 217.507 89.1277H216.507ZM210.968 94.666C207.91 94.666 205.43 92.1864 205.43 89.1277H204.43C204.43 92.7387 207.357 95.666 210.968 95.666V94.666ZM205.43 89.1277C205.43 88.8296 205.453 88.5374 205.499 88.2526L204.511 88.096C204.458 88.4323 204.43 88.777 204.43 89.1277H205.43ZM201.677 88.6743H205.005V87.6743H201.677V88.6743ZM202.252 89.1277C202.252 88.7769 202.224 88.4323 202.171 88.096L201.183 88.2526C201.229 88.5373 201.252 88.8296 201.252 89.1277H202.252Z" fill="black"/>
<circle cx="210.969" cy="89.1243" r="3.49586" fill="#D9CEC6" stroke="black"/>
<circle cx="195.713" cy="89.1243" r="3.49586" fill="#D9CEC6" stroke="black"/>
<path fill-rule="evenodd" clip-rule="evenodd" d="M315.058 89.1277C315.058 92.4625 312.354 95.166 309.019 95.166C305.685 95.166 302.981 92.4625 302.981 89.1277C302.981 85.7928 305.685 83.0894 309.019 83.0894L309.041 83.0894H324.274C324.274 83.0894 324.274 83.0894 324.275 83.0894C327.609 83.09 330.312 85.7932 330.312 89.1277C330.312 92.4626 327.608 95.166 324.274 95.166C320.939 95.166 318.235 92.4626 318.235 89.1277C318.235 88.8033 318.261 88.4848 318.31 88.1743H314.983C315.032 88.4848 315.058 88.8033 315.058 89.1277Z" fill="#D8CABD"/>
<path d="M309.019 83.0894L309.02 82.5894H309.019V83.0894ZM309.041 83.0894L309.04 83.5894H309.041V83.0894ZM324.275 83.0894L324.275 82.5894L324.275 83.0894ZM318.31 88.1743L318.804 88.2526L318.896 87.6743H318.31V88.1743ZM314.983 88.1743V87.6743H314.397L314.489 88.2526L314.983 88.1743ZM309.019 95.666C312.63 95.666 315.558 92.7387 315.558 89.1277H314.558C314.558 92.1864 312.078 94.666 309.019 94.666V95.666ZM302.481 89.1277C302.481 92.7387 305.408 95.666 309.019 95.666V94.666C305.961 94.666 303.481 92.1864 303.481 89.1277H302.481ZM309.019 82.5894C305.408 82.5894 302.481 85.5167 302.481 89.1277H303.481C303.481 86.0689 305.961 83.5894 309.019 83.5894V82.5894ZM309.042 82.5894L309.02 82.5894L309.019 83.5894L309.04 83.5894L309.042 82.5894ZM324.274 82.5894H309.041V83.5894H324.274V82.5894ZM324.274 83.5894C324.274 83.5894 324.274 83.5894 324.275 83.5894L324.275 82.5894C324.274 82.5894 324.274 82.5894 324.274 82.5894V83.5894ZM324.275 83.5894C327.333 83.59 329.812 86.0693 329.812 89.1277H330.812C330.812 85.5171 327.885 82.5901 324.275 82.5894L324.275 83.5894ZM329.812 89.1277C329.812 92.1864 327.332 94.666 324.274 94.666V95.666C327.885 95.666 330.812 92.7387 330.812 89.1277H329.812ZM324.274 94.666C321.215 94.666 318.735 92.1864 318.735 89.1277H317.735C317.735 92.7387 320.663 95.666 324.274 95.666V94.666ZM318.735 89.1277C318.735 88.8296 318.759 88.5374 318.804 88.2526L317.816 88.096C317.763 88.4323 317.735 88.777 317.735 89.1277H318.735ZM314.983 88.6743H318.31V87.6743H314.983V88.6743ZM315.558 89.1277C315.558 88.7769 315.53 88.4323 315.477 88.096L314.489 88.2526C314.534 88.5373 314.558 88.8296 314.558 89.1277H315.558Z" fill="black"/>
<circle cx="324.276" cy="89.1243" r="3.49586" fill="#D9CEC6" stroke="black"/>
<circle cx="309.021" cy="89.1243" r="3.49586" fill="#D9CEC6" stroke="black"/>
<path d="M253.048 51.6543C253.748 52.5668 253.895 53.5587 253.489 54.6301C253.082 55.7014 252.276 56.4042 251.069 56.7383C250.492 56.8981 249.904 56.9043 249.303 56.7571C248.703 56.6099 248.211 56.3313 247.828 55.9212C246.436 56.5279 245.128 56.4983 243.905 55.8322C242.682 55.166 241.946 54.0836 241.699 52.5847C241.091 52.4399 240.573 52.1545 240.147 51.7286C239.721 51.3027 239.413 50.7655 239.225 50.117C238.922 49.0761 239.163 48.1013 239.947 47.1927C240.732 46.284 241.642 45.8891 242.678 46.0078L244.497 46.223C244.693 45.5971 245.031 45.038 245.512 44.5455C245.992 44.0529 246.559 43.6975 247.214 43.4794L246.827 42.1484C246.762 41.9265 246.783 41.7225 246.89 41.5363C246.996 41.3501 247.163 41.2255 247.39 41.1626C247.618 41.0996 247.827 41.1201 248.017 41.224C248.208 41.3279 248.336 41.4907 248.4 41.7126L248.847 43.2483C249.549 43.2569 250.167 43.4035 250.704 43.6883C251.24 43.9731 251.761 44.4327 252.267 45.0671L253.788 44.6458C254.015 44.5828 254.224 44.6033 254.415 44.7072C254.606 44.8111 254.733 44.974 254.798 45.1958C254.862 45.4176 254.841 45.6216 254.735 45.8079C254.629 45.994 254.462 46.1186 254.234 46.1816L252.871 46.5593C253.024 47.2174 253.021 47.8729 252.861 48.5255C252.702 49.1782 252.4 49.7503 251.957 50.2417L253.048 51.6543ZM246.722 54.07C246.588 53.6093 246.498 53.1504 246.45 52.6935C246.402 52.2366 246.397 51.7815 246.435 51.3284C246.088 51.6275 245.693 51.8796 245.252 52.0848C244.811 52.2898 244.359 52.4383 243.894 52.5301C244.088 53.1956 244.437 53.6658 244.942 53.9408C245.447 54.2158 246.041 54.2589 246.722 54.07ZM243.561 50.4097C244.12 50.2548 244.595 50.0497 244.983 49.7946C245.372 49.5394 245.848 49.1127 246.411 48.5142L242.891 48.1061C242.324 48.0417 241.893 48.1658 241.597 48.4784C241.3 48.791 241.219 49.1776 241.353 49.6383C241.482 50.082 241.725 50.3651 242.082 50.4875C242.438 50.61 242.931 50.5841 243.561 50.4097ZM250.474 54.6906C250.911 54.5696 251.222 54.3221 251.406 53.9485C251.59 53.5748 251.565 53.2452 251.331 52.9597L248.902 49.8708C248.729 50.5089 248.63 51.1264 248.605 51.7233C248.58 52.3202 248.632 52.8405 248.761 53.2842C248.925 53.8473 249.151 54.2503 249.439 54.4932C249.727 54.7362 250.072 54.802 250.474 54.6906ZM250.553 48.5288C250.678 48.3097 250.752 48.0449 250.775 47.7343C250.798 47.4237 250.765 47.1148 250.676 46.8076C250.517 46.2616 250.199 45.8516 249.723 45.5779C249.246 45.3042 248.737 45.2424 248.195 45.3925C247.881 45.4797 247.598 45.6132 247.348 45.7931C247.098 45.973 246.904 46.1834 246.766 46.4243L249.08 46.7793L250.553 48.5288Z" fill="#451D07" fill-opacity="0.5"/>
<path d="M235.407 45.1864C235.328 45.2147 235.224 45.1864 235.224 45.0735C235.145 44.7631 234.988 44.0574 235.276 43.4647C235.564 42.872 236.192 42.5616 236.479 42.4487C236.558 42.4204 236.662 42.4487 236.662 42.5616C236.767 42.872 236.898 43.5776 236.61 44.1703C236.322 44.7631 235.695 45.0735 235.407 45.1864ZM235.198 46.8234C235.59 46.4848 236.113 46.3719 236.401 46.3436C236.505 46.3436 236.584 46.4283 236.558 46.5412C236.479 46.8517 236.322 47.3597 235.93 47.6984C235.538 48.0371 235.014 48.15 234.727 48.1782C234.648 48.1782 234.596 48.1218 234.57 48.0653C234.517 48.1218 234.439 48.15 234.361 48.0935C234.099 47.9242 233.602 47.5008 233.393 46.8799C233.183 46.259 233.34 45.6098 233.445 45.3275C233.471 45.2429 233.576 45.1864 233.68 45.2429C233.942 45.4122 234.439 45.8356 234.648 46.4565C234.779 46.8517 234.779 47.2468 234.727 47.5573C234.805 47.3033 234.962 47.0492 235.198 46.8234ZM233.968 49.533C234.177 49.8717 234.256 50.295 234.256 50.6337C234.308 50.3797 234.387 50.0693 234.596 49.787C234.91 49.3636 235.381 49.1378 235.668 49.0532C235.773 49.0249 235.852 49.1096 235.852 49.1943C235.852 49.4765 235.799 50.041 235.485 50.4644C235.171 50.916 234.701 51.1136 234.413 51.1982C234.334 51.2265 234.256 51.17 234.23 51.1136C234.204 51.1982 234.125 51.2265 234.047 51.1982C233.759 51.0853 233.183 50.8031 232.843 50.2386C232.503 49.7023 232.53 49.0249 232.556 48.7145C232.556 48.6016 232.66 48.5451 232.765 48.5734C233.053 48.7145 233.628 48.9967 233.968 49.533ZM232.896 51.9038C233.183 51.9321 233.811 52.045 234.282 52.4966C234.57 52.7506 234.727 53.0893 234.831 53.3715C234.831 53.1175 234.831 52.8635 234.936 52.5812C235.119 52.0732 235.511 51.7345 235.747 51.5651C235.825 51.5087 235.956 51.5369 235.982 51.6498C236.061 51.9321 236.139 52.4683 235.956 52.9764C235.773 53.4844 235.381 53.8231 235.145 53.9924C235.093 54.0207 235.014 54.0207 234.962 53.9924C234.936 54.0489 234.884 54.0771 234.805 54.0489C234.491 54.0207 233.864 53.9078 233.419 53.4562C232.948 53.0046 232.791 52.3837 232.739 52.0732C232.713 51.9603 232.791 51.8756 232.896 51.9038ZM234.387 54.9521C234.701 54.8956 235.433 54.8674 236.008 55.2625C236.27 55.4319 236.479 55.6577 236.636 55.8835C236.532 55.6295 236.453 55.319 236.453 55.0085C236.453 54.3029 236.819 53.682 237.002 53.3997C237.055 53.3151 237.186 53.3151 237.238 53.3997C237.421 53.682 237.787 54.2747 237.787 55.0085C237.787 55.7141 237.421 56.3351 237.238 56.6173C237.186 56.702 237.055 56.702 237.002 56.6173L236.976 56.5891C236.976 56.6173 237.002 56.6455 237.002 56.6455C237.029 56.7302 236.976 56.8431 236.872 56.8431C236.558 56.8713 235.825 56.9278 235.25 56.5326C234.674 56.1657 234.361 55.4883 234.256 55.1496C234.23 55.065 234.282 54.9521 234.387 54.9521Z" fill="#451D07" fill-opacity="0.5"/>
<path d="M257.214 45.1864C257.293 45.2147 257.397 45.1864 257.397 45.0735C257.476 44.7631 257.633 44.0574 257.345 43.4647C257.057 42.872 256.43 42.5616 256.142 42.4487C256.063 42.4204 255.959 42.4487 255.959 42.5616C255.854 42.872 255.723 43.5776 256.011 44.1703C256.299 44.7631 256.927 45.0735 257.214 45.1864ZM257.424 46.8234C257.031 46.4848 256.508 46.3719 256.22 46.3436C256.116 46.3436 256.037 46.4283 256.063 46.5412C256.142 46.8517 256.299 47.3597 256.691 47.6984C257.084 48.0371 257.607 48.15 257.894 48.1782C257.973 48.1782 258.025 48.1218 258.051 48.0653C258.104 48.1218 258.182 48.15 258.261 48.0935C258.522 47.9242 259.019 47.5008 259.228 46.8799C259.438 46.259 259.281 45.6098 259.176 45.3275C259.15 45.2429 259.045 45.1864 258.941 45.2429C258.679 45.4122 258.182 45.8356 257.973 46.4565C257.842 46.8517 257.842 47.2468 257.894 47.5573C257.816 47.3033 257.659 47.0492 257.424 46.8234ZM258.653 49.533C258.444 49.8717 258.365 50.295 258.365 50.6337C258.313 50.3797 258.235 50.0693 258.025 49.787C257.711 49.3636 257.241 49.1378 256.953 49.0532C256.848 49.0249 256.77 49.1096 256.77 49.1943C256.77 49.4765 256.822 50.041 257.136 50.4644C257.45 50.916 257.921 51.1136 258.208 51.1982C258.287 51.2265 258.365 51.17 258.391 51.1136C258.418 51.1982 258.496 51.2265 258.575 51.1982C258.862 51.0853 259.438 50.8031 259.778 50.2386C260.118 49.7023 260.092 49.0249 260.065 48.7145C260.065 48.6016 259.961 48.5451 259.856 48.5734C259.569 48.7145 258.993 48.9967 258.653 49.533ZM259.725 51.9038C259.438 51.9321 258.81 52.045 258.339 52.4966C258.051 52.7506 257.894 53.0893 257.79 53.3715C257.79 53.1175 257.79 52.8635 257.685 52.5812C257.502 52.0732 257.11 51.7345 256.874 51.5651C256.796 51.5087 256.665 51.5369 256.639 51.6498C256.56 51.9321 256.482 52.4683 256.665 52.9764C256.848 53.4844 257.241 53.8231 257.476 53.9924C257.528 54.0207 257.607 54.0207 257.659 53.9924C257.685 54.0489 257.738 54.0771 257.816 54.0489C258.13 54.0207 258.758 53.9078 259.202 53.4562C259.673 53.0046 259.83 52.3837 259.882 52.0732C259.909 51.9603 259.83 51.8756 259.725 51.9038ZM258.235 54.9521C257.921 54.8956 257.188 54.8674 256.613 55.2625C256.351 55.4319 256.142 55.6577 255.985 55.8835C256.09 55.6295 256.168 55.319 256.168 55.0085C256.168 54.3029 255.802 53.682 255.619 53.3997C255.566 53.3151 255.436 53.3151 255.383 53.3997C255.2 53.682 254.834 54.2747 254.834 55.0085C254.834 55.7141 255.2 56.3351 255.383 56.6173C255.436 56.702 255.566 56.702 255.619 56.6173L255.645 56.5891C255.645 56.6173 255.619 56.6455 255.619 56.6455C255.593 56.7302 255.645 56.8431 255.75 56.8431C256.063 56.8713 256.796 56.9278 257.371 56.5326C257.947 56.1657 258.261 55.4883 258.365 55.1496C258.391 55.065 258.339 54.9521 258.235 54.9521Z" fill="#451D07" fill-opacity="0.5"/>
<rect x="124.77" y="32.9966" width="2.86219" height="36.7175" fill="#C1C1C1" stroke="black"/>
<path d="M146.098 36.6053C143.923 33.873 131.305 35.2191 125.143 34.8396V57.7041C128.261 57.0083 136.717 54.8469 142.977 59.1774C146.098 61.3363 157.984 58.6453 160.812 58.3923V37.3917C156.897 37.6763 148.273 39.3377 146.098 36.6053Z" fill="#FCBE24" stroke="black"/>
<rect x="363.763" y="32.9956" width="2.86219" height="36.7175" fill="#C1C1C1" stroke="black"/>
<circle cx="364.856" cy="32.2091" r="2.62268" fill="#C1C1C1" stroke="black"/>
<path d="M384.854 36.6782C382.615 33.832 369.626 35.2342 363.283 34.8389V58.6561C366.492 57.9313 375.197 55.6799 381.641 60.1908C384.854 62.4397 397.09 59.6365 400 59.373V37.4973C395.97 37.7938 387.093 39.5244 384.854 36.6782Z" fill="#262626" stroke="black"/>
<path d="M147.367 49.5562C148.113 50.4687 148.27 51.4606 147.836 52.5319C147.403 53.6033 146.543 54.3061 145.256 54.6402C144.64 54.7999 144.012 54.8062 143.372 54.659C142.732 54.5118 142.207 54.2331 141.798 53.8231C140.313 54.4298 138.919 54.4001 137.614 53.734C136.309 53.0679 135.525 51.9854 135.261 50.4866C134.612 50.3418 134.06 50.0564 133.605 49.6304C133.151 49.2046 132.823 48.6674 132.622 48.0189C132.299 46.978 132.556 46.0032 133.392 45.0945C134.229 44.1859 135.2 43.791 136.305 43.9097L138.246 44.1249C138.455 43.499 138.815 42.9398 139.328 42.4473C139.84 41.9547 140.445 41.5994 141.143 41.3812L140.73 40.0502C140.662 39.8284 140.684 39.6244 140.797 39.4382C140.911 39.252 141.089 39.1274 141.332 39.0644C141.574 39.0015 141.797 39.022 142 39.1258C142.204 39.2297 142.34 39.3926 142.409 39.6144L142.885 41.1502C143.634 41.1587 144.294 41.3054 144.866 41.5902C145.438 41.875 145.994 42.3346 146.533 42.969L148.156 42.5476C148.398 42.4847 148.621 42.5052 148.824 42.6091C149.028 42.7129 149.164 42.8758 149.233 43.0976C149.302 43.3195 149.279 43.5235 149.166 43.7097C149.052 43.8959 148.874 44.0205 148.632 44.0834L147.177 44.4611C147.341 45.1192 147.338 45.7747 147.167 46.4274C146.997 47.0801 146.675 47.6522 146.203 48.1435L147.367 49.5562ZM140.619 51.9719C140.476 51.5112 140.379 51.0523 140.328 50.5954C140.277 50.1384 140.272 49.6834 140.313 49.2303C139.942 49.5294 139.522 49.7815 139.051 49.9866C138.581 50.1917 138.098 50.3401 137.602 50.432C137.809 51.0975 138.181 51.5677 138.72 51.8426C139.259 52.1177 139.892 52.1607 140.619 51.9719ZM137.247 48.3116C137.844 48.1567 138.349 47.9516 138.764 47.6964C139.179 47.4413 139.686 47.0145 140.287 46.4161L136.532 46.0079C135.928 45.9435 135.468 46.0677 135.151 46.3802C134.835 46.6928 134.749 47.0795 134.892 47.5402C135.029 47.9839 135.288 48.267 135.669 48.3894C136.049 48.5119 136.575 48.4859 137.247 48.3116ZM144.621 52.5924C145.087 52.4714 145.418 52.224 145.615 51.8504C145.811 51.4767 145.784 51.1471 145.535 50.8616L142.944 47.7727C142.759 48.4107 142.654 49.0283 142.627 49.6252C142.601 50.2221 142.656 50.7423 142.794 51.186C142.968 51.7491 143.209 52.1522 143.516 52.3951C143.824 52.638 144.192 52.7038 144.621 52.5924ZM144.705 46.4307C144.838 46.2116 144.917 45.9467 144.942 45.6361C144.966 45.3255 144.931 45.0166 144.836 44.7095C144.666 44.1634 144.328 43.7535 143.82 43.4798C143.311 43.2061 142.768 43.1443 142.19 43.2944C141.854 43.3815 141.553 43.5151 141.286 43.6949C141.02 43.8748 140.813 44.0852 140.666 44.3262L143.134 44.6811L144.705 46.4307Z" fill="#451D07"/>
<path d="M380.847 53.3349C380.672 53.1549 380.52 52.956 380.392 52.7422C380.067 52.2454 379.522 51.0789 379.521 49.7963C378.372 50.4484 377.046 50.5753 376.436 50.5497C376.206 50.5493 375.977 50.5258 375.752 50.4795C376.007 51.6891 376.648 52.5721 377.673 53.1283C378.668 53.6684 379.726 53.7372 380.847 53.3349ZM384.971 48.0223C385.3 47.6171 385.533 47.1465 385.653 46.6439C385.795 46.0647 385.798 45.4831 385.661 44.8989L386.876 44.5641C386.97 44.5412 387.058 44.4999 387.134 44.4428C387.211 44.3857 387.275 44.314 387.322 44.232C387.369 44.15 387.398 44.0595 387.407 43.9662C387.417 43.8729 387.407 43.7786 387.378 43.6892C387.354 43.5982 387.312 43.5127 387.254 43.4381C387.195 43.3634 387.121 43.3012 387.037 43.2552C386.953 43.2096 386.86 43.1813 386.764 43.172C386.667 43.1627 386.57 43.1727 386.478 43.2012L385.123 43.5752C384.672 43.0122 384.208 42.6042 383.73 42.3513C383.253 42.0989 382.701 41.9688 382.076 41.9611L381.678 40.5976C381.655 40.5066 381.613 40.4212 381.554 40.3466C381.495 40.2721 381.422 40.21 381.338 40.1642C381.253 40.1186 381.16 40.0903 381.064 40.081C380.968 40.0717 380.871 40.0817 380.779 40.1102C380.685 40.1329 380.597 40.174 380.521 40.2309C380.444 40.2877 380.38 40.3592 380.333 40.441C380.286 40.523 380.256 40.6136 380.247 40.707C380.237 40.8005 380.247 40.8948 380.276 40.9844L380.621 42.1657C380.044 42.3567 379.524 42.6816 379.105 43.1121C378.766 43.4559 378.496 43.859 378.311 44.3002L382.366 44.7862L384.971 48.0223ZM376.425 44.7268C375.719 44.7294 375.043 45.0045 374.545 45.4915C374.048 45.9786 373.77 46.6378 373.773 47.324C373.776 48.0102 374.059 48.6673 374.56 49.1507C375.061 49.6341 375.739 49.9042 376.445 49.9016H376.46C377.079 49.93 378.586 49.7639 379.658 48.9208L381.787 45.3694L376.425 44.7268ZM380.227 49.2583L382.319 45.7684L385.588 49.8436C385.938 50.4394 386.031 51.1461 385.845 51.8083C385.66 52.4704 385.211 53.0338 384.598 53.3744C383.985 53.715 383.258 53.805 382.577 53.6245C381.896 53.444 381.316 53.0079 380.966 52.4121L380.958 52.3986C380.627 51.8971 380.032 50.5693 380.227 49.2583Z" fill="url(#paint0_linear_31513_10400)"/>
<circle cx="125.668" cy="32.2096" r="2.62268" fill="#C1C1C1" stroke="black"/>
<defs>
<filter id="filter0_d_31513_10400" x="6.69122" y="11.3677" width="430.309" height="253.132" filterUnits="userSpaceOnUse" color-interpolation-filters="sRGB">
<feFlood flood-opacity="0" result="BackgroundImageFix"/>
<feColorMatrix in="SourceAlpha" type="matrix" values="0 0 0 0 0 0 0 0 0 0 0 0 0 0 0 0 0 0 127 0" result="hardAlpha"/>
<feOffset dy="10"/>
<feComposite in2="hardAlpha" operator="out"/>
<feColorMatrix type="matrix" values="0 0 0 0 0.321569 0 0 0 0 0.239216 0 0 0 0 0.215686 0 0 0 1 0"/>
<feBlend mode="normal" in2="BackgroundImageFix" result="effect1_dropShadow_31513_10400"/>
<feBlend mode="normal" in="SourceGraphic" in2="effect1_dropShadow_31513_10400" result="shape"/>
</filter>
<filter id="filter1_i_31513_10400" x="157.396" y="24.5806" width="177.703" height="40.9131" filterUnits="userSpaceOnUse" color-interpolation-filters="sRGB">
<feFlood flood-opacity="0" result="BackgroundImageFix"/>
<feBlend mode="normal" in="SourceGraphic" in2="BackgroundImageFix" result="shape"/>
<feColorMatrix in="SourceAlpha" type="matrix" values="0 0 0 0 0 0 0 0 0 0 0 0 0 0 0 0 0 0 127 0" result="hardAlpha"/>
<feOffset dy="4"/>
<feComposite in2="hardAlpha" operator="arithmetic" k2="-1" k3="1"/>
<feColorMatrix type="matrix" values="0 0 0 0 0 0 0 0 0 0 0 0 0 0 0 0 0 0 0.25 0"/>
<feBlend mode="normal" in2="shape" result="effect1_innerShadow_31513_10400"/>
</filter>
<filter id="filter2_i_31513_10400" x="180.476" y="30.875" width="131.543" height="30.4219" filterUnits="userSpaceOnUse" color-interpolation-filters="sRGB">
<feFlood flood-opacity="0" result="BackgroundImageFix"/>
<feBlend mode="normal" in="SourceGraphic" in2="BackgroundImageFix" result="shape"/>
<feColorMatrix in="SourceAlpha" type="matrix" values="0 0 0 0 0 0 0 0 0 0 0 0 0 0 0 0 0 0 127 0" result="hardAlpha"/>
<feOffset dy="4"/>
<feComposite in2="hardAlpha" operator="arithmetic" k2="-1" k3="1"/>
<feColorMatrix type="matrix" values="0 0 0 0 0 0 0 0 0 0 0 0 0 0 0 0 0 0 0.25 0"/>
<feBlend mode="normal" in2="shape" result="effect1_innerShadow_31513_10400"/>
</filter>
<linearGradient id="paint0_linear_31513_10400" x1="395.601" y1="46.9936" x2="366.334" y2="47.4043" gradientUnits="userSpaceOnUse">
<stop stop-color="#F8F29C"/>
<stop offset="0.165" stop-color="#F6DB2A"/>
<stop offset="0.333" stop-color="#F4A435"/>
<stop offset="0.55" stop-color="#E85A46"/>
<stop offset="0.699" stop-color="#B93483"/>
<stop offset="0.867" stop-color="#502B6E"/>
<stop offset="1" stop-color="#2A2136"/>
</linearGradient>
</defs>
</svg>
