<svg width="687" height="322" viewBox="0 0 687 322" fill="none" xmlns="http://www.w3.org/2000/svg">
<path d="M167.651 28.237L58.901 132.098C56.8972 134.012 55.313 136.321 54.2487 138.879L2.43848 263.41C-2.74115 275.86 5.63204 289.763 19.0588 291.007L339.942 320.74C341.802 320.913 343.676 320.824 345.511 320.476L632.279 266.144C639.285 264.817 645.055 259.86 647.422 253.134L684.452 147.922C687.193 140.133 684.866 131.461 678.594 126.09L563.257 27.3329C560.335 24.8308 556.753 23.2246 552.941 22.7068L395.493 1.32007C393.928 1.10744 392.343 1.08102 390.771 1.24137L179.435 22.8038C175.012 23.255 170.866 25.1668 167.651 28.237Z" fill="#EBF479" stroke="black" stroke-linecap="round"/>
<path d="M351 145.397C415.5 145.397 435.604 180.999 469 180.999C512.5 180.998 491.5 89 599.966 145.397" stroke="#BBC356" stroke-width="16" stroke-linecap="round"/>
<ellipse cx="553.5" cy="189.5" rx="40.5" ry="6.5" fill="#BBC356"/>
<ellipse cx="602.5" cy="198" rx="27.5" ry="8" fill="#BBC356"/>
<path d="M570.735 119.183L565.589 186.653H586.173L570.735 119.183Z" fill="#896736" stroke="black" stroke-linejoin="round"/>
<path d="M620.48 166.07H537.923C533.4 145.38 546.594 134.46 553.756 131.587C549.61 133.023 540.638 133.023 537.923 121.529C535.209 110.035 551.176 94.6113 557.584 91.7377C541.002 87.1635 553.756 54 568.458 54C576.484 54 603.327 83.161 582.029 89.8623C585.045 89.8623 598.181 91.7377 606.758 113.466C610.78 123.654 604.224 129.195 598.537 128.051C613.768 137.494 619.432 158.523 620.48 166.07Z" fill="#14653C" stroke="black" stroke-linejoin="round"/>
<path d="M605.614 138.623L601.04 199.232H621.624L605.614 138.623Z" fill="#896736" stroke="black" stroke-linejoin="round"/>
<path d="M654.788 178.649H573.361C568.9 162.604 581.913 154.136 588.977 151.907C584.887 153.021 576.038 153.021 573.361 144.107C570.684 135.193 587.286 128.508 593.607 126.279C590.632 114.766 588.019 91.7378 606.758 91.7378C625.497 91.7378 620.209 114.766 616.863 126.279C619.838 126.279 627.571 128.508 634.71 137.422C641.849 146.336 633.966 150.793 629.133 151.907C646.98 158.147 653.672 172.335 654.788 178.649Z" fill="#238252" stroke="black" stroke-linejoin="round"/>
<path d="M211.424 118.846C205.855 126.498 195.705 125.076 191.256 121.838C186.807 118.6 187.716 109.772 193.285 102.12C198.854 94.4678 211.137 90.1028 215.586 93.3407C220.035 96.5785 216.993 111.194 211.424 118.846Z" fill="#BBC356"/>
<ellipse cx="171.158" cy="103.893" rx="8.94559" ry="15.3864" transform="rotate(36.047 171.158 103.893)" fill="#BBC356"/>
<ellipse cx="144.598" cy="96.3002" rx="8.94559" ry="15.3864" transform="rotate(36.047 144.598 96.3002)" fill="#BBC356"/>
<path d="M326.966 164.997C324.973 190.923 455.466 197.997 432.466 242.497C409.466 286.997 315.466 288.498 238.966 268.501C162.466 248.503 229.755 142.003 282.966 90.0006C326.966 47.0005 501 12.0003 501 57.5007C501 103.001 335.5 54 326.966 164.997Z" fill="#B2E0FF" stroke="black" stroke-linecap="round"/>
<path d="M417.005 115.7C421.113 122.451 428.132 121.014 431.128 119.451C432.305 121.014 437.419 123.639 448.46 121.639C459.502 119.639 462.904 110.804 463.225 106.637C465.044 105.491 468.232 101.448 466.435 94.4471C464.637 87.446 456.698 85.2789 452.954 85.0706C453.596 82.0492 452.055 75.8813 440.757 75.3812C429.459 74.8812 426.206 83.9242 425.992 88.5082C425.35 87.9872 422.847 88.3206 417.968 93.8215C413.089 99.3225 415.935 103.823 417.968 105.386C415.935 106.011 412.897 108.949 417.005 115.7Z" fill="#66CC9A"/>
<path d="M456.484 106.637L454.238 111.637M434.016 115.7H439.152M448.46 99.448C448.032 100.698 446.727 103.261 444.929 103.511M424.708 99.448C425.35 98.8229 427.083 97.9477 428.881 99.448M431.128 90.384C431.877 90.4881 433.503 91.0716 434.016 92.5718M441.72 82.5702C442.362 83.2996 443.646 85.1335 443.646 86.6333M460.336 95.3848C461.085 95.6973 462.519 96.635 462.262 97.8852M431.128 119.451C428.132 121.014 421.113 122.451 417.005 115.7C412.897 108.949 415.935 106.011 417.968 105.386C415.935 103.823 413.089 99.3225 417.968 93.8215C422.847 88.3206 425.35 87.9872 425.992 88.5082C426.206 83.9242 429.459 74.8812 440.757 75.3812C452.055 75.8813 453.596 82.0492 452.954 85.0706C456.698 85.2789 464.637 87.446 466.435 94.4471C468.232 101.448 465.044 105.491 463.225 106.637C462.904 110.804 459.502 119.639 448.46 121.639C437.419 123.639 432.305 121.014 431.128 119.451Z" stroke="black" stroke-linecap="round"/>
<path d="M493.549 103.449C487.604 114.963 475.221 111.794 469.622 108.322C460.992 105.452 462.505 99.0575 464.492 96.6674C464.483 94.0735 466.078 88.1018 472.532 84.9662C478.986 81.8305 484.01 86.2225 485.715 88.8104C490.804 88.8922 499.495 91.9342 493.549 103.449Z" fill="#65C33E"/>
<path d="M475.844 90.3417C475.846 91.0401 475.852 92.6763 475.855 93.634M481.238 92.1184L480.649 94.8143M486.342 96.5899C486.245 97.3884 485.752 99.1062 484.556 99.5893M469.622 108.322C475.221 111.794 487.604 114.963 493.549 103.449C499.495 91.9342 490.804 88.8922 485.715 88.8104C484.01 86.2225 478.986 81.8305 472.532 84.9662C466.078 88.1018 464.483 94.0735 464.492 96.6674C462.505 99.0575 460.992 105.452 469.622 108.322Z" stroke="black" stroke-linecap="round"/>
<rect x="370.441" y="100.705" width="8.6708" height="36.1954" rx="4.3354" fill="#A05A5A" stroke="black"/>
<rect x="252.16" y="78.3877" width="8.6708" height="33.2198" rx="4.3354" fill="#A05A5A" stroke="black"/>
<path d="M226.928 120.445C226.781 120.415 226.628 120.452 226.511 120.547C226.394 120.642 226.327 120.785 226.327 120.935V127.499C226.327 127.737 226.493 127.941 226.725 127.989L345.705 152.605C345.852 152.636 346.005 152.599 346.122 152.504C346.238 152.409 346.306 152.266 346.306 152.116V145.551C346.306 145.314 346.14 145.11 345.907 145.062L226.928 120.445Z" fill="#BA6966" stroke="black" stroke-linejoin="round"/>
<path d="M376.256 113.14C376.256 112.934 376.13 112.749 375.938 112.674C375.747 112.599 375.529 112.649 375.389 112.8L345.439 145.212C345.354 145.304 345.306 145.425 345.306 145.551V152.116C345.306 152.321 345.432 152.506 345.624 152.581C345.816 152.656 346.034 152.606 346.173 152.455L376.123 120.043C376.209 119.951 376.256 119.83 376.256 119.704V113.14Z" fill="#BA6966" stroke="black" stroke-linejoin="round"/>
<mask id="path-21-outside-1_22318_1816" maskUnits="userSpaceOnUse" x="333.549" y="108.267" width="43" height="38" fill="black">
<rect fill="white" x="333.549" y="108.267" width="43" height="38"/>
<path d="M375.346 112.318L345.396 144.73L335.549 142.679L365.499 110.267L375.346 112.318Z"/>
</mask>
<path d="M375.346 112.318L345.396 144.73L335.549 142.679L365.499 110.267L375.346 112.318Z" fill="#CBA2A0"/>
<path d="M375.346 112.318L376.08 112.997C376.325 112.733 376.408 112.357 376.298 112.014C376.188 111.671 375.903 111.413 375.55 111.339L375.346 112.318ZM345.396 144.73L345.192 145.709C345.536 145.781 345.892 145.667 346.13 145.409L345.396 144.73ZM335.549 142.679L334.815 142L333.616 143.297L335.345 143.658L335.549 142.679ZM365.499 110.267L365.703 109.288L365.149 109.173L364.765 109.588L365.499 110.267ZM374.611 111.64L344.661 144.051L346.13 145.409L376.08 112.997L374.611 111.64ZM345.6 143.751L335.753 141.7L335.345 143.658L345.192 145.709L345.6 143.751ZM336.284 143.357L366.234 110.946L364.765 109.588L334.815 142L336.284 143.357ZM365.295 111.246L375.142 113.297L375.55 111.339L365.703 109.288L365.295 111.246Z" fill="black" mask="url(#path-21-outside-1_22318_1816)"/>
<mask id="path-23-outside-2_22318_1816" maskUnits="userSpaceOnUse" x="322.472" y="106.216" width="43" height="38" fill="black">
<rect fill="white" x="322.472" y="106.216" width="43" height="38"/>
<path d="M364.269 110.268L334.319 142.679L324.472 140.628L354.422 108.216L364.269 110.268Z"/>
</mask>
<path d="M364.269 110.268L334.319 142.679L324.472 140.628L354.422 108.216L364.269 110.268Z" fill="#CBA2A0"/>
<path d="M364.269 110.268L365.003 110.946C365.247 110.682 365.331 110.306 365.221 109.963C365.111 109.62 364.825 109.362 364.472 109.289L364.269 110.268ZM334.319 142.679L334.115 143.658C334.458 143.73 334.815 143.616 335.053 143.358L334.319 142.679ZM324.472 140.628L323.738 139.949L322.539 141.247L324.268 141.607L324.472 140.628ZM354.422 108.216L354.626 107.237L354.072 107.122L353.687 107.538L354.422 108.216ZM363.534 109.589L333.584 142.001L335.053 143.358L365.003 110.946L363.534 109.589ZM334.522 141.7L324.676 139.649L324.268 141.607L334.115 143.658L334.522 141.7ZM325.206 141.307L355.156 108.895L353.687 107.538L323.738 139.949L325.206 141.307ZM354.218 109.195L364.065 111.247L364.472 109.289L354.626 107.237L354.218 109.195Z" fill="black" mask="url(#path-23-outside-2_22318_1816)"/>
<mask id="path-25-outside-3_22318_1816" maskUnits="userSpaceOnUse" x="311.395" y="104.165" width="43" height="38" fill="black">
<rect fill="white" x="311.395" y="104.165" width="43" height="38"/>
<path d="M353.191 108.216L323.241 140.628L313.395 138.577L343.344 106.165L353.191 108.216Z"/>
</mask>
<path d="M353.191 108.216L323.241 140.628L313.395 138.577L343.344 106.165L353.191 108.216Z" fill="#CBA2A0"/>
<path d="M353.191 108.216L353.926 108.895C354.17 108.63 354.253 108.255 354.143 107.912C354.034 107.568 353.748 107.311 353.395 107.237L353.191 108.216ZM323.241 140.628L323.037 141.607C323.381 141.679 323.737 141.565 323.976 141.307L323.241 140.628ZM313.395 138.577L312.66 137.898L311.461 139.195L313.191 139.556L313.395 138.577ZM343.344 106.165L343.548 105.186L342.994 105.071L342.61 105.486L343.344 106.165ZM352.457 107.538L322.507 139.949L323.976 141.307L353.926 108.895L352.457 107.538ZM323.445 139.649L313.598 137.598L313.191 139.556L323.037 141.607L323.445 139.649ZM314.129 139.255L344.079 106.844L342.61 105.486L312.66 137.898L314.129 139.255ZM343.141 107.144L352.987 109.195L353.395 107.237L343.548 105.186L343.141 107.144Z" fill="black" mask="url(#path-25-outside-3_22318_1816)"/>
<mask id="path-27-outside-4_22318_1816" maskUnits="userSpaceOnUse" x="300.317" y="102.113" width="43" height="38" fill="black">
<rect fill="white" x="300.317" y="102.113" width="43" height="38"/>
<path d="M342.114 106.165L312.164 138.576L302.317 136.525L332.267 104.113L342.114 106.165Z"/>
</mask>
<path d="M342.114 106.165L312.164 138.576L302.317 136.525L332.267 104.113L342.114 106.165Z" fill="#CBA2A0"/>
<path d="M342.114 106.165L342.848 106.843C343.093 106.579 343.176 106.203 343.066 105.86C342.956 105.517 342.67 105.259 342.318 105.186L342.114 106.165ZM312.164 138.576L311.96 139.555C312.304 139.627 312.66 139.513 312.898 139.255L312.164 138.576ZM302.317 136.525L301.583 135.846L300.384 137.144L302.113 137.504L302.317 136.525ZM332.267 104.113L332.471 103.134L331.917 103.019L331.533 103.435L332.267 104.113ZM341.379 105.486L311.429 137.898L312.898 139.255L342.848 106.843L341.379 105.486ZM312.368 137.597L302.521 135.546L302.113 137.504L311.96 139.555L312.368 137.597ZM303.052 137.204L333.002 104.792L331.533 103.435L301.583 135.846L303.052 137.204ZM332.063 105.092L341.91 107.144L342.318 105.186L332.471 103.134L332.063 105.092Z" fill="black" mask="url(#path-27-outside-4_22318_1816)"/>
<mask id="path-29-outside-5_22318_1816" maskUnits="userSpaceOnUse" x="289.24" y="100.062" width="43" height="38" fill="black">
<rect fill="white" x="289.24" y="100.062" width="43" height="38"/>
<path d="M331.036 104.114L301.086 136.526L291.24 134.474L321.19 102.062L331.036 104.114Z"/>
</mask>
<path d="M331.036 104.114L301.086 136.526L291.24 134.474L321.19 102.062L331.036 104.114Z" fill="#CBA2A0"/>
<path d="M331.036 104.114L331.771 104.793C332.015 104.528 332.099 104.152 331.989 103.809C331.879 103.466 331.593 103.208 331.24 103.135L331.036 104.114ZM301.086 136.526L300.882 137.504C301.226 137.576 301.582 137.462 301.821 137.204L301.086 136.526ZM291.24 134.474L290.505 133.795L289.306 135.093L291.036 135.453L291.24 134.474ZM321.19 102.062L321.394 101.084L320.839 100.968L320.455 101.384L321.19 102.062ZM330.302 103.435L300.352 135.847L301.821 137.204L331.771 104.793L330.302 103.435ZM301.29 135.547L291.444 133.495L291.036 135.453L300.882 137.504L301.29 135.547ZM291.974 135.153L321.924 102.741L320.455 101.384L290.505 133.795L291.974 135.153ZM320.986 103.041L330.832 105.093L331.24 103.135L321.394 101.084L320.986 103.041Z" fill="black" mask="url(#path-29-outside-5_22318_1816)"/>
<mask id="path-31-outside-6_22318_1816" maskUnits="userSpaceOnUse" x="278.162" y="98.0107" width="43" height="38" fill="black">
<rect fill="white" x="278.162" y="98.0107" width="43" height="38"/>
<path d="M319.959 102.062L290.009 134.474L280.162 132.422L310.112 100.011L319.959 102.062Z"/>
</mask>
<path d="M319.959 102.062L290.009 134.474L280.162 132.422L310.112 100.011L319.959 102.062Z" fill="#CBA2A0"/>
<path d="M319.959 102.062L320.693 102.741C320.938 102.476 321.021 102.1 320.911 101.757C320.801 101.414 320.516 101.157 320.163 101.083L319.959 102.062ZM290.009 134.474L289.805 135.453C290.149 135.524 290.505 135.41 290.743 135.152L290.009 134.474ZM280.162 132.422L279.428 131.744L278.229 133.041L279.958 133.401L280.162 132.422ZM310.112 100.011L310.316 99.0318L309.762 98.9163L309.378 99.3321L310.112 100.011ZM319.224 101.383L289.274 133.795L290.743 135.152L320.693 102.741L319.224 101.383ZM290.213 133.495L280.366 131.443L279.958 133.401L289.805 135.453L290.213 133.495ZM280.897 133.101L310.847 100.689L309.378 99.3321L279.428 131.744L280.897 133.101ZM309.908 100.99L319.755 103.041L320.163 101.083L310.316 99.0318L309.908 100.99Z" fill="black" mask="url(#path-31-outside-6_22318_1816)"/>
<mask id="path-33-outside-7_22318_1816" maskUnits="userSpaceOnUse" x="267.085" y="95.9595" width="43" height="38" fill="black">
<rect fill="white" x="267.085" y="95.9595" width="43" height="38"/>
<path d="M308.881 100.011L278.932 132.422L269.085 130.371L299.035 97.9595L308.881 100.011Z"/>
</mask>
<path d="M308.881 100.011L278.932 132.422L269.085 130.371L299.035 97.9595L308.881 100.011Z" fill="#CBA2A0"/>
<path d="M308.881 100.011L309.616 100.69C309.86 100.425 309.944 100.049 309.834 99.706C309.724 99.3629 309.438 99.1053 309.085 99.0319L308.881 100.011ZM278.932 132.422L278.728 133.401C279.071 133.473 279.428 133.359 279.666 133.101L278.932 132.422ZM269.085 130.371L268.35 129.692L267.152 130.99L268.881 131.35L269.085 130.371ZM299.035 97.9595L299.239 96.9805L298.685 96.865L298.3 97.2808L299.035 97.9595ZM308.147 99.3322L278.197 131.744L279.666 133.101L309.616 100.69L308.147 99.3322ZM279.135 131.443L269.289 129.392L268.881 131.35L278.728 133.401L279.135 131.443ZM269.819 131.05L299.769 98.6381L298.3 97.2808L268.35 129.692L269.819 131.05ZM298.831 98.9385L308.678 100.99L309.085 99.0319L299.239 96.9805L298.831 98.9385Z" fill="black" mask="url(#path-33-outside-7_22318_1816)"/>
<mask id="path-35-outside-8_22318_1816" maskUnits="userSpaceOnUse" x="256.008" y="93.9077" width="43" height="38" fill="black">
<rect fill="white" x="256.008" y="93.9077" width="43" height="38"/>
<path d="M297.804 97.9591L267.854 130.371L258.008 128.319L287.957 95.9077L297.804 97.9591Z"/>
</mask>
<path d="M297.804 97.9591L267.854 130.371L258.008 128.319L287.957 95.9077L297.804 97.9591Z" fill="#CBA2A0"/>
<path d="M297.804 97.9591L298.539 98.6378C298.783 98.3731 298.866 97.9974 298.756 97.6543C298.647 97.3111 298.361 97.0536 298.008 96.9801L297.804 97.9591ZM267.854 130.371L267.65 131.35C267.994 131.421 268.35 131.307 268.589 131.049L267.854 130.371ZM258.008 128.319L257.273 127.641L256.074 128.938L257.804 129.298L258.008 128.319ZM287.957 95.9077L288.161 94.9287L287.607 94.8133L287.223 95.229L287.957 95.9077ZM297.07 97.2804L267.12 129.692L268.589 131.049L298.539 98.6378L297.07 97.2804ZM268.058 129.392L258.211 127.34L257.804 129.298L267.65 131.35L268.058 129.392ZM258.742 128.998L288.692 96.5864L287.223 95.229L257.273 127.641L258.742 128.998ZM287.754 96.8867L297.6 98.9381L298.008 96.9801L288.161 94.9287L287.754 96.8867Z" fill="black" mask="url(#path-35-outside-8_22318_1816)"/>
<mask id="path-37-outside-9_22318_1816" maskUnits="userSpaceOnUse" x="244.93" y="91.8569" width="43" height="38" fill="black">
<rect fill="white" x="244.93" y="91.8569" width="43" height="38"/>
<path d="M286.727 95.9083L256.777 128.32L246.93 126.269L276.88 93.8569L286.727 95.9083Z"/>
</mask>
<path d="M286.727 95.9083L256.777 128.32L246.93 126.269L276.88 93.8569L286.727 95.9083Z" fill="#CBA2A0"/>
<path d="M286.727 95.9083L287.461 96.587C287.706 96.3224 287.789 95.9467 287.679 95.6035C287.569 95.2604 287.283 95.0028 286.931 94.9293L286.727 95.9083ZM256.777 128.32L256.573 129.299C256.917 129.371 257.273 129.257 257.511 128.999L256.777 128.32ZM246.93 126.269L246.196 125.59L244.997 126.887L246.726 127.248L246.93 126.269ZM276.88 93.8569L277.084 92.878L276.53 92.7625L276.146 93.1783L276.88 93.8569ZM285.992 95.2296L256.042 127.641L257.511 128.999L287.461 96.587L285.992 95.2296ZM256.981 127.341L247.134 125.29L246.726 127.248L256.573 129.299L256.981 127.341ZM247.665 126.947L277.615 94.5356L276.146 93.1783L246.196 125.59L247.665 126.947ZM276.676 94.8359L286.523 96.8873L286.931 94.9293L277.084 92.878L276.676 94.8359Z" fill="black" mask="url(#path-37-outside-9_22318_1816)"/>
<mask id="path-39-outside-10_22318_1816" maskUnits="userSpaceOnUse" x="233.853" y="89.8057" width="43" height="38" fill="black">
<rect fill="white" x="233.853" y="89.8057" width="43" height="38"/>
<path d="M275.649 93.857L245.699 126.269L235.853 124.217L265.803 91.8057L275.649 93.857Z"/>
</mask>
<path d="M275.649 93.857L245.699 126.269L235.853 124.217L265.803 91.8057L275.649 93.857Z" fill="#CBA2A0"/>
<path d="M275.649 93.857L276.384 94.5357C276.628 94.2711 276.712 93.8954 276.602 93.5522C276.492 93.2091 276.206 92.9515 275.853 92.8781L275.649 93.857ZM245.699 126.269L245.495 127.248C245.839 127.319 246.195 127.205 246.434 126.947L245.699 126.269ZM235.853 124.217L235.118 123.539L233.919 124.836L235.649 125.196L235.853 124.217ZM265.803 91.8057L266.007 90.8267L265.452 90.7112L265.068 91.127L265.803 91.8057ZM274.915 93.1784L244.965 125.59L246.434 126.947L276.384 94.5357L274.915 93.1784ZM245.903 125.29L236.057 123.238L235.649 125.196L245.495 127.248L245.903 125.29ZM236.587 124.896L266.537 92.4843L265.068 91.127L235.118 123.539L236.587 124.896ZM265.599 92.7846L275.445 94.836L275.853 92.8781L266.007 90.8267L265.599 92.7846Z" fill="black" mask="url(#path-39-outside-10_22318_1816)"/>
<mask id="path-41-outside-11_22318_1816" maskUnits="userSpaceOnUse" x="223.186" y="87.3433" width="43" height="38" fill="black">
<rect fill="white" x="223.186" y="87.3433" width="43" height="38"/>
<path d="M264.982 91.3946L235.032 123.806L225.186 121.755L255.136 89.3433L264.982 91.3946Z"/>
</mask>
<path d="M264.982 91.3946L235.032 123.806L225.186 121.755L255.136 89.3433L264.982 91.3946Z" fill="#CBA2A0"/>
<path d="M264.982 91.3946L265.717 92.0733C265.961 91.8087 266.044 91.433 265.935 91.0898C265.825 90.7467 265.539 90.4891 265.186 90.4157L264.982 91.3946ZM235.032 123.806L234.828 124.785C235.172 124.857 235.528 124.743 235.767 124.485L235.032 123.806ZM225.186 121.755L224.451 121.076L223.252 122.374L224.982 122.734L225.186 121.755ZM255.136 89.3433L255.34 88.3643L254.785 88.2488L254.401 88.6646L255.136 89.3433ZM264.248 90.716L234.298 123.128L235.767 124.485L265.717 92.0733L264.248 90.716ZM235.236 122.827L225.39 120.776L224.982 122.734L234.828 124.785L235.236 122.827ZM225.92 122.434L255.87 90.0219L254.401 88.6646L224.451 121.076L225.92 122.434ZM254.932 90.3222L264.778 92.3736L265.186 90.4157L255.34 88.3643L254.932 90.3222Z" fill="black" mask="url(#path-41-outside-11_22318_1816)"/>
<rect x="222.403" y="112.607" width="8.6708" height="33.9637" rx="4.3354" fill="#A05A5A" stroke="black"/>
<rect x="343.66" y="134.925" width="8.6708" height="32.4759" rx="4.3354" fill="#A05A5A" stroke="black"/>
<path d="M351.547 161.178C346.002 162.421 346.669 169.362 347.696 172.677C347.696 174.645 349.904 178.643 358.736 178.892C367.567 179.141 366.523 170.501 364.897 166.15C362.758 163.975 357.093 159.935 351.547 161.178Z" fill="#999999" stroke="black" stroke-linecap="round" stroke-linejoin="round"/>
<path d="M351.547 161.178C346.002 162.421 346.669 169.362 347.696 172.677C350.948 173.713 358.941 173.858 364.897 166.15C362.758 163.975 357.093 159.935 351.547 161.178Z" fill="#D9D9D9" stroke="black" stroke-linecap="round" stroke-linejoin="round"/>
<path d="M362.196 176.243C361.255 171.582 361.94 160.829 372.209 155.11C382.478 149.392 393.261 150.863 397.368 152.313C399.508 153.867 403.735 159.088 403.53 167.542C403.334 175.575 398.687 179.836 392.747 180.461C373.236 186.819 364.25 180.298 362.196 176.243Z" fill="#D9D9D9"/>
<path d="M397.368 152.313C393.261 150.863 382.478 149.392 372.209 155.11C361.94 160.829 361.255 171.582 362.196 176.243C364.25 180.298 373.236 186.819 392.747 180.461M397.368 152.313C399.508 153.867 403.735 159.088 403.53 167.542C403.334 175.575 398.687 179.836 392.747 180.461M397.368 152.313C390.18 155.421 381.708 162.569 379.14 167.542C376.573 172.514 378.37 177.797 386.842 179.973C388.873 180.494 390.874 180.658 392.747 180.461" stroke="black" stroke-linecap="round" stroke-linejoin="round"/>
<path d="M397.368 152.313C399.507 153.867 403.735 159.088 403.53 167.542C403.334 175.575 398.687 179.836 392.747 180.461C373.236 186.819 364.25 180.298 362.196 176.243C365.792 176.036 374.011 175 378.116 172.514C377.91 170.907 378.28 169.207 379.14 167.542C381.708 162.569 390.18 155.421 397.368 152.313Z" fill="#676767"/>
<path d="M392.747 180.461C398.687 179.836 403.334 175.575 403.53 167.542C403.735 159.088 399.507 153.867 397.368 152.313C390.18 155.421 381.708 162.569 379.14 167.542C378.28 169.207 377.91 170.907 378.116 172.514M392.747 180.461C390.874 180.658 388.873 180.494 386.842 179.973C381.208 178.526 378.526 175.704 378.116 172.514M392.747 180.461C373.236 186.819 364.25 180.298 362.196 176.243C365.792 176.036 374.011 175 378.116 172.514" stroke="black" stroke-linecap="round" stroke-linejoin="round"/>
<path d="M403.53 167.542C403.735 159.088 399.508 153.867 397.368 152.313C390.18 155.421 381.708 162.569 379.14 167.542C376.573 172.514 378.37 177.797 386.842 179.973C388.873 180.494 390.874 180.658 392.747 180.461C398.687 179.836 403.334 175.575 403.53 167.542Z" fill="#999999" stroke="black" stroke-linecap="round" stroke-linejoin="round"/>
<path d="M412 237.5C412 250.479 371.706 261 322 261C272.294 261 238.5 251 232 237.5C225.5 224 256 163 289 187C322 211 412 224.521 412 237.5Z" fill="#7BCAFF"/>
<ellipse cx="446.5" cy="56.5" rx="38.5" ry="11.5" fill="#7BCAFF"/>
<path d="M386 237.5C386 246.06 362.047 253 332.5 253C302.953 253 262.5 250 253 237.5C243.5 225 253.953 215 283.5 215C313.047 215 386 228.94 386 237.5Z" fill="#44B4FF"/>
<ellipse cx="446.5" cy="56.5" rx="25.5" ry="7.5" fill="#44B4FF"/>
<ellipse cx="171.5" cy="276.61" rx="57.5" ry="13.5" fill="#BBC356"/>
<ellipse cx="107.5" cy="249.11" rx="62.5" ry="14" fill="#BBC356"/>
<path d="M137.563 142.5C117.497 142.5 104.394 158.152 96.1217 178.064C87.8396 198 84.3103 222.396 83.4722 240.305C83.2943 244.107 85.3068 247.678 88.7012 249.421C128.175 269.695 166.681 259.289 185.313 249.34C188.478 247.65 190.264 244.3 190.16 240.742C189.639 222.866 186.523 198.363 178.557 178.31C170.599 158.282 157.713 142.5 137.563 142.5Z" fill="#3AA75D" stroke="black" stroke-linecap="round"/>
<path d="M137.563 143C121.315 143 109.649 153.42 101.428 168.176C100.34 173.907 102.103 185.861 117.863 187.826C133.623 189.791 142.532 180.048 145.017 174.931C149.907 183.528 164.023 198.142 181.369 187.826C173.853 163.565 160.389 143 137.563 143Z" fill="#1D773A"/>
<path d="M189.741 246.161C189.741 211.774 179.306 143 137.563 143C166.527 166.58 168.444 229.913 164.717 256.79C175.481 253.896 184.167 249.786 189.741 246.161Z" fill="#9EFFBD" fill-opacity="0.58"/>
<path d="M186.885 206.623C171.067 206.623 160.562 217.029 153.814 230.494C147.066 243.957 144.012 260.58 143.108 273.292C142.82 277.331 145.094 281.107 148.828 282.69C179.283 295.609 208.797 289.276 224.126 282.616C227.64 281.09 229.693 277.533 229.503 273.734C228.869 261.039 226.151 244.307 219.649 230.731C213.146 217.152 202.796 206.623 186.885 206.623Z" fill="#3AA75D" stroke="black" stroke-linecap="round"/>
<path d="M186.885 207.123C173.723 207.123 164.272 214.442 157.612 224.807C156.731 228.833 158.159 237.229 170.926 238.609C183.693 239.99 190.911 233.146 192.923 229.552C196.885 235.59 208.32 245.856 222.372 238.609C216.284 221.568 205.376 207.123 186.885 207.123Z" fill="#1D773A"/>
<path d="M229.004 273.759C227.74 248.441 218.158 207.123 186.885 207.123C210.349 223.686 211.901 268.172 208.882 287.05C214.737 285.685 219.833 283.936 223.916 282.162C227.227 280.725 229.184 277.363 229.004 273.759Z" fill="#9EFFBD" fill-opacity="0.58"/>
</svg>
