<svg width="314" height="340" viewBox="0 0 314 340" fill="none" xmlns="http://www.w3.org/2000/svg">
  <path d="M184.878 203.251L169.999 20.8737C169.152 10.4931 160.48 2.5 150.065 2.5H147.938C146.319 2.5 144.705 2.69663 143.134 3.08559L15.7401 34.6101C5.69446 37.0959 -0.795748 46.8346 0.776474 57.063L39.0772 306.238C40.4947 315.46 48.1 322.476 57.4059 323.148L275.473 338.88C284.604 339.539 293.017 333.913 295.897 325.223L312.464 275.224C316.033 264.455 309.938 252.877 299.04 249.722L199.251 220.836C191.274 218.527 185.554 211.528 184.878 203.251Z" fill="#FEB474" stroke="black" stroke-linecap="round"/>
  <path d="M53.1008 11.5C36.8814 11.5 26.1196 22.1904 19.2127 36.0124C12.3066 49.8328 9.19251 66.8876 8.28193 79.8959C7.99922 83.9346 10.2735 87.7082 14.0036 89.2973C45.3144 102.636 75.6736 96.0723 91.3527 89.2244C94.8628 87.6914 96.9145 84.1352 96.7289 80.3367C96.0942 67.3467 93.3237 50.1835 86.6699 36.2494C80.0149 22.313 69.4133 11.5 53.1008 11.5Z" fill="#A7723A" stroke="black" stroke-linecap="round"/>
  <path d="M53.1008 12C39.6248 12 29.9491 19.4935 23.131 30.1053C22.2283 34.2268 23.6908 42.8231 36.7619 44.2362C49.833 45.6493 57.2223 38.6427 59.2831 34.9628C63.3387 41.1451 75.0465 51.655 89.4332 44.2362C83.1996 26.7889 72.0323 12 53.1008 12Z" fill="#77491D"/>
  <path d="M96.2293 80.3611C94.9635 54.4527 85.1758 12 53.1006 12C77.1232 28.9571 78.7129 74.5025 75.6218 93.8308C81.6771 92.4192 86.9394 90.6054 91.1414 88.771C94.4491 87.327 96.4055 83.966 96.2293 80.3611Z" fill="#FFEA9E" fill-opacity="0.58"/>
  <ellipse cx="137.409" cy="80.6456" rx="13.4182" ry="3.35455" fill="#A7723A"/>
  <path d="M144.937 3.70703L141.523 81.0179H147.62L144.937 3.70703Z" fill="#896736" stroke="black"/>
  <path d="M139.572 18.584C134.247 22.1341 129.004 22.161 126.89 21.5106C134.679 20.3708 142.077 8.16899 145.425 2C146.387 14.4868 154.681 19.7222 158.351 20.5351C152.107 20.5351 146.807 15.9826 144.937 13.7064C144.937 13.7064 143.23 16.1452 139.572 18.584Z" fill="#14653C" stroke="black"/>
  <path d="M139.572 29.0706C133.475 32.7289 124.614 33.3792 122.5 32.7289C133.719 31.5608 141.589 23.0455 144.937 16.8765C145.899 29.3633 157.863 31.2656 161.765 31.9972C149.327 32.9727 146.807 26.4692 144.937 24.193C144.937 24.193 143.342 26.8085 139.572 29.0706Z" fill="#14653C" stroke="black"/>
  <path d="M139.572 37.8509C133.475 41.5091 124.614 42.1595 122.5 41.5091C133.719 40.341 141.589 31.8257 144.937 25.6567C145.899 38.1435 157.619 38.3387 161.521 39.0703C149.083 40.0458 146.807 35.2495 144.937 32.9732C144.937 32.9732 143.342 35.5888 139.572 37.8509Z" fill="#14653C" stroke="black"/>
  <path d="M129.085 47.3625C137.084 47.3625 143.474 41.0216 145.669 37.8511C145.669 39.2331 144.84 42.7775 141.523 45.8992C138.206 49.0209 131.849 48.1755 129.085 47.3625Z" fill="#14653C" stroke="black"/>
  <path d="M155.912 46.3867C151.62 46.3867 147.295 42.9723 145.669 41.2651C144.531 42.5658 143.084 45.4111 146.4 46.3867C149.717 47.3622 154.123 46.7932 155.912 46.3867Z" fill="#14653C" stroke="black"/>
  <path d="M136.889 52.0659C140.331 52.0659 143.798 49.4178 145.102 48.0938C146.015 49.1025 147.175 51.3093 144.515 52.0659C141.856 52.8225 138.323 52.3811 136.889 52.0659Z" fill="#14653C" stroke="black"/>
  <path d="M103.391 55.5C92.8188 55.5 85.5607 61.1058 80.7272 68.6167C75.9045 76.111 73.4718 85.5292 72.5059 93.2846C71.9738 97.5572 74.5433 101.558 78.6302 102.896C98.1102 109.272 116.773 106.416 127.695 102.819C131.568 101.543 133.937 97.7716 133.542 93.7283C132.784 85.9631 130.585 76.4358 125.92 68.8338C121.243 61.2135 114.063 55.5 103.391 55.5Z" fill="#77491D" stroke="black" stroke-linecap="round"/>
  <path d="M103.391 56C94.057 56 87.3557 60.4482 82.6334 66.7474C82.0082 69.194 82.7178 85.0462 91.7709 85.8851C100.824 86.7239 106.245 71.8153 107.672 69.6309C113.421 82.1065 123.175 82.1065 128.554 75.1356C124.237 64.7788 116.502 56 103.391 56Z" fill="#A7723A"/>
  <path d="M133.044 93.7769C131.536 78.3286 124.302 56 103.39 56C120.029 66.0659 121.13 93.1019 118.989 104.575C122.183 103.937 125.059 103.16 127.535 102.345C131.179 101.145 133.417 97.5952 133.044 93.7769Z" fill="#FFEA9E" fill-opacity="0.58"/>
  <path d="M63.2143 113.615L58.6925 216H66.7671L63.2143 113.615Z" fill="#896736" stroke="black"/>
  <path d="M56.1088 133.317C49.0566 138.018 42.1129 138.054 39.3137 137.193C49.6287 135.683 59.426 119.524 63.8603 111.354C65.1341 127.891 76.1185 134.824 80.9783 135.901C72.71 135.901 65.6905 129.872 63.2143 126.857C63.2143 126.857 60.9535 130.087 56.1088 133.317Z" fill="#14653C" stroke="black"/>
  <path d="M56.1087 147.205C48.0342 152.049 36.2992 152.911 33.5 152.049C48.3571 150.503 58.78 139.225 63.2143 131.056C64.4881 147.592 80.3323 150.112 85.5 151.081C69.028 152.372 65.6905 143.76 63.2143 140.745C63.2143 140.745 61.1016 144.209 56.1087 147.205Z" fill="#14653C" stroke="black"/>
  <path d="M56.1087 158.832C48.0342 163.677 36.2992 164.538 33.5 163.677C48.3571 162.13 58.78 150.853 63.2143 142.683C64.4881 159.22 80.0093 159.478 85.177 160.447C68.705 161.739 65.6905 155.387 63.2143 152.373C63.2143 152.373 61.1016 155.836 56.1087 158.832Z" fill="#14653C" stroke="black"/>
  <path d="M42.2205 171.429C52.8142 171.429 61.2764 163.031 64.1832 158.833C64.1832 160.663 63.0851 165.357 58.6925 169.491C54.3 173.625 45.8809 172.505 42.2205 171.429Z" fill="#14653C" stroke="black"/>
  <path d="M77.7484 170.137C72.064 170.137 66.3364 165.615 64.1832 163.354C62.676 165.077 60.7596 168.845 65.1522 170.137C69.5447 171.429 75.3799 170.675 77.7484 170.137Z" fill="#14653C" stroke="black"/>
  <path d="M52.5559 177.658C57.1138 177.658 61.7061 174.151 63.4326 172.397C64.6411 173.733 66.1777 176.656 62.6557 177.658C59.1337 178.66 54.455 178.075 52.5559 177.658Z" fill="#14653C" stroke="black"/>
  <ellipse cx="171.5" cy="278" rx="120" ry="26" fill="#A7723A"/>
  <ellipse cx="248.5" cy="316.5" rx="39" ry="8.5" fill="#A7723A"/>
  <path d="M192.735 267.491L213.323 272.295L221.902 213.961L201.657 186.51L151.216 176.902L126.167 221.167L128.912 248.618C140.167 245.324 153.274 248.618 158.421 250.677C159.108 251.935 161.029 254.932 163.225 256.853C165.971 259.255 182.784 260.971 187.588 262.344C191.366 263.423 192.579 266.138 192.728 267.425C192.731 267.447 192.733 267.469 192.735 267.491Z" fill="#3F3F3F"/>
  <path d="M192.735 267.491L213.323 272.295L221.902 213.961L201.657 186.51L151.216 176.902L126.167 221.167L128.912 248.618C140.167 245.324 153.274 248.618 158.421 250.677C159.108 251.935 161.029 254.932 163.225 256.853M192.735 267.491C192.621 266.233 191.431 263.442 187.588 262.344C182.784 260.971 165.971 259.255 163.225 256.853M192.735 267.491C191.706 257.54 189.235 235.991 187.588 229.402C185.529 221.167 184.5 216.02 178.667 211.216C172.833 206.412 167.686 186.51 155.333 186.51M163.225 256.853C162.654 244.844 160.892 219.451 158.421 213.961C155.333 207.098 150.186 191.314 146.412 188.912" stroke="black"/>
  <path d="M126.851 242.512L126.5 241.99C128.129 240.568 137.095 237.819 140.254 240.772C151.553 232.055 158.415 234.857 159.642 238.51C160.624 241.433 157.479 243.904 155.784 244.774C160.414 245.052 162.857 248.95 163.5 250.863C157.327 253.508 152.394 252.893 150.699 252.255C153.505 260.05 148.244 264.666 145.263 266C134.916 261.841 135.177 256.449 136.827 253.817C134.831 256.282 130.819 256.714 128.955 256.605C126.894 248.698 130.945 246.377 133.364 246.176C129.803 246.373 127.542 243.828 126.851 242.512Z" fill="#CF6029"/>
  <path d="M140.254 240.772C140.691 241.181 141.078 241.595 141.405 241.99C142.224 243.44 144 247.036 144.562 249.82M140.254 240.772C137.095 237.819 128.129 240.568 126.5 241.99L126.851 242.512C127.552 243.846 129.867 246.444 133.514 246.166C131.118 246.282 126.851 248.532 128.955 256.605C130.942 256.721 135.373 256.222 137.197 253.299C135.268 255.677 134.181 261.546 145.263 266C148.244 264.666 153.505 260.05 150.699 252.255C152.394 252.893 157.327 253.508 163.5 250.863C162.857 248.95 160.414 245.052 155.784 244.774C157.479 243.904 160.624 241.433 159.642 238.51C158.415 234.857 151.553 232.055 140.254 240.772Z" stroke="black"/>
  <path d="M179.058 259.642L178.538 259.519C178.73 257.693 182.724 250.802 186.396 250.816C188.394 238.862 194.284 236.642 197.159 238.208C199.459 239.46 198.928 242.814 198.376 244.335C201.418 241.834 205.191 242.849 206.697 243.669C204.382 248.881 200.956 251.348 199.532 251.93C205.781 255.161 205.173 261.074 204.088 263.626C195.245 267.015 192.292 263.508 191.799 260.916C191.98 263.603 189.732 266.19 188.509 267.199C182.658 263.467 183.839 259.682 185.229 258.159C183.126 260.339 180.249 260.061 179.058 259.642Z" fill="#CF6029"/>
  <path d="M186.396 250.816C186.905 250.818 187.385 250.852 187.817 250.909C189.164 251.339 192.347 252.551 194.304 253.959M186.396 250.816C182.724 250.802 178.73 257.693 178.538 259.519L179.058 259.642C180.265 260.067 183.207 260.347 185.317 258.067C183.892 259.523 182.536 263.389 188.509 267.199C189.813 266.123 192.283 263.253 191.73 260.38C191.903 262.974 194.616 267.256 204.088 263.626C205.173 261.074 205.781 255.161 199.532 251.93C200.956 251.348 204.382 248.881 206.697 243.669C205.191 242.849 201.418 241.834 198.376 244.335C198.928 242.814 199.459 239.46 197.159 238.208C194.284 236.642 188.394 238.862 186.396 250.816Z" stroke="black"/>
  <path d="M175 242.5C163.8 243.3 159.667 251.167 159 255C158.2 261.4 160 264.333 161 265C179.4 267.4 188 262.667 190 260L185.5 258C188.7 256 190.5 249.833 191 247C181.4 242.6 176.333 245.167 175 247V242.5Z" fill="#906925"/>
  <path d="M161 265C179.4 267.4 188 262.667 190 260L185.5 258C188.7 256 190.5 249.833 191 247C181.4 242.6 176.333 245.167 175 247V242.5C163.8 243.3 159.667 251.167 159 255C158.2 261.4 160 264.333 161 265ZM161 265C164.333 260.667 173.3 251.5 182.5 249.5" stroke="black"/>
  <path d="M223.5 251.372C218.944 251.65 209.886 252.455 205.561 253.664C206.505 252.82 208.96 250.842 211.226 249.686V248C208.315 249.445 201.831 253.01 199.188 255.708C194.59 256.442 187.589 257.559 180.78 258.65L161 254.263L155.5 249L154 249.5L157 253.664L130.5 251.372V253.664V258.84V261.731V262.935V267.271V272.33C128.5 273.886 126.1 277 132.5 277C138.9 277 149.661 275.653 154.242 274.979C165.153 276.259 176.096 277.641 181.485 278.593C191.304 280.327 206.19 276.104 212.406 273.775C213.165 272.505 214.133 270.835 215.185 268.957C216.43 266.735 217.79 264.221 219.056 261.731C219.892 260.084 220.687 258.448 221.379 256.913C221.798 255.986 222.178 255.096 222.508 254.263C222.933 253.191 223.273 252.213 223.5 251.372Z" fill="#A86C43"/>
  <path d="M203.909 254.263C204.319 254.054 204.881 253.854 205.561 253.664M205.561 253.664C209.886 252.455 218.944 251.65 223.5 251.372C223.273 252.213 222.933 253.191 222.508 254.263M205.561 253.664C206.505 252.82 208.96 250.842 211.226 249.686V248C208.315 249.445 201.831 253.01 199.188 255.708M199.188 255.708H200.84M199.188 255.708C194.59 256.442 187.589 257.559 180.78 258.65M130.5 258.84C138.447 260.205 155.804 262.694 161.657 261.731C163.86 261.368 168.292 260.653 173.5 259.817M130.5 258.84V261.731V262.935M130.5 258.84V253.664M130.5 272.33V267.271M130.5 272.33C136.322 272.946 145.271 273.928 154.242 274.979M130.5 272.33C128.5 273.886 126.1 277 132.5 277C138.9 277 149.661 275.653 154.242 274.979M212.406 273.775C206.19 276.104 191.304 280.327 181.485 278.593C176.096 277.641 165.153 276.259 154.242 274.979M212.406 273.775C213.165 272.505 214.133 270.835 215.185 268.957M212.406 273.775L194.939 274.979L168.739 273.775M222.508 254.263C217.488 254.825 206.127 256.527 200.84 258.84M222.508 254.263C222.178 255.096 221.798 255.986 221.379 256.913M191.398 261.731C184.003 262.694 168.219 264.814 164.254 265.585M147.967 265.585L130.5 262.935M130.5 262.935V267.271M221.379 256.913L185.261 267.271C177 268.315 158.872 270.306 152.452 269.921C146.031 269.535 135.142 267.994 130.5 267.271M221.379 256.913C220.687 258.448 219.892 260.084 219.056 261.731M219.056 261.731L205.561 264.621M219.056 261.731C217.79 264.221 216.43 266.735 215.185 268.957M199.188 267.271L180.305 271.125L159.297 272.109M154.576 272.33L159.297 272.109M215.185 268.957L193.759 272.33L168.739 273.775M168.739 273.775L159.297 272.109M130.5 253.664C138.953 253.792 159.387 255.203 173.5 259.817M130.5 253.664V251.372L157 253.664L154 249.5L155.5 249L161 254.263L180.78 258.65M173.5 259.817C175.816 259.445 178.285 259.049 180.78 258.65" stroke="black"/>
  <path d="M215.039 260.284L212.294 277.098C227.667 280.941 233.34 277.327 234.255 275.039C255.667 274.765 256.673 272.18 254.5 270.922L271.314 265.088L265.824 254.451L257.245 247.588L250.039 215.333L234.255 207.441L231.51 200.578L215.039 189.255L200.971 165.235L181.069 160.775L173.863 157L129.255 160.775L123.422 172.784L94.5981 189.255L86.7059 222.882L75.7255 226.657L58.2255 265.088L74.8677 271.093L91.5099 277.098L106.608 285.333L134.745 280.529L129.255 244.5L133.029 233.52V226.657L147.784 189.255L177.637 184.794L193.078 200.578L208.52 207.441L215.039 247.588V260.284Z" fill="#ADADAD"/>
  <path d="M91.5099 277.098L106.608 285.333L134.745 280.529L129.255 244.5L133.029 233.52V226.657L147.784 189.255L177.637 184.794L193.078 200.578L208.52 207.441L215.039 247.588V260.284L212.294 277.098C227.667 280.941 233.34 277.327 234.255 275.039M91.5099 277.098L99.402 247.588L109.01 189.255L118.275 184.794L123.422 172.784M91.5099 277.098L74.8677 271.093M123.422 172.784L94.5981 189.255L86.7059 222.882L75.7255 226.657L58.2255 265.088L74.8677 271.093M123.422 172.784L129.255 160.775L173.863 157L181.069 160.775M181.069 160.775L200.971 165.235L215.039 189.255L231.51 200.578L234.255 207.441M181.069 160.775C177.18 161.346 168.098 162.559 162.882 162.833M234.255 207.441L250.039 215.333L257.245 247.588L265.824 254.451L271.314 265.088L254.5 270.922C256.673 272.18 255.667 274.765 234.255 275.039M234.255 207.441L238.029 249.99C236.771 251.82 234.255 256.441 234.255 260.284C234.255 264.127 234.255 271.722 234.255 275.039M83.2746 231.118L74.8677 271.093" stroke="black"/>
  <path d="M75.7255 226.657L58.2255 265.088L74.8676 271.093L91.5098 277.098L99.4019 247.588L109.01 189.255L118.274 184.794L123.422 172.784L94.598 189.255L86.7059 222.882L75.7255 226.657Z" fill="#727272"/>
  <path d="M75.7255 226.657L58.2255 265.088L74.8676 271.093L91.5098 277.098L99.4019 247.588L109.01 189.255L118.274 184.794L123.422 172.784L94.598 189.255L86.7059 222.882L75.7255 226.657Z" fill="#727272"/>
  <path d="M123.422 172.784L94.598 189.255L86.7059 222.882L75.7255 226.657L58.2255 265.088L74.8676 271.093M123.422 172.784L129.255 160.774M123.422 172.784L118.274 184.794L109.01 189.255L99.4019 247.588L91.5098 277.098L74.8676 271.093M83.2745 231.118L74.8676 271.093" stroke="black" stroke-linejoin="round"/>
  <path d="M117.555 207.336L114.882 238.073M123.791 189.518L132.255 186.846L142.055 172.146M214.664 200.655L224.018 210.009L227.136 234.064" stroke="black"/>
  <path d="M79.8433 269.55L68.1766 249.991L64.059 242.099C62.3433 242.442 58.6374 243.471 57.5394 244.844C56.4413 246.216 54.3368 249.991 52.0492 250.334L44.5002 275.383L57.5394 279.157C63.1439 277.899 75.4511 274.216 79.8433 269.55Z" fill="#999999"/>
  <path d="M64.059 242.099L68.1766 249.991L79.8433 269.55C75.4511 274.216 63.1439 277.899 57.5394 279.157M64.059 242.099C62.3433 242.442 58.6374 243.471 57.5394 244.844C56.4413 246.216 54.3368 249.991 52.0492 250.334L44.5002 275.383L57.5394 279.157M64.059 242.099C63.0296 244.615 60.2845 250.883 57.5394 255.824C54.7943 260.765 54.2224 273.553 57.5394 279.157" stroke="black"/>
  <path d="M101.804 283.275L90.1376 263.716L79.5003 256.167C77.7846 256.51 74.0787 257.54 72.9807 258.912C71.8827 260.285 67.033 261.314 64.7454 261.657L57.1964 286.706L79.5003 292.883C85.1049 291.625 97.4121 287.941 101.804 283.275Z" fill="#B6B6B6"/>
  <path d="M79.5003 256.167L90.1376 263.716L101.804 283.275C97.4121 287.942 85.1049 291.625 79.5003 292.883M79.5003 256.167C77.7846 256.51 74.0787 257.54 72.9807 258.912C71.8827 260.285 67.033 261.314 64.7454 261.657L57.1964 286.706L79.5003 292.883M79.5003 256.167C78.4709 258.683 75.7258 264.951 72.9807 269.892C70.2356 274.834 76.1833 287.278 79.5003 292.883" stroke="black" stroke-linejoin="round"/>
  <path d="M72.9809 258.912C74.079 257.54 77.7848 256.51 79.5005 256.167C78.4711 258.683 75.726 264.951 72.9809 269.892C70.2358 274.834 76.1835 287.278 79.5005 292.883L57.1966 286.706L64.7456 261.657C67.0332 261.314 71.8829 260.285 72.9809 258.912Z" fill="#727272"/>
  <path d="M72.9809 258.912C74.079 257.54 77.7848 256.51 79.5005 256.167C78.4711 258.683 75.726 264.951 72.9809 269.892C70.2358 274.834 76.1835 287.278 79.5005 292.883L57.1966 286.706L64.7456 261.657C67.0332 261.314 71.8829 260.285 72.9809 258.912Z" fill="#727272"/>
  <path d="M72.9809 258.912C74.079 257.54 77.7848 256.51 79.5005 256.167C78.4711 258.683 75.726 264.951 72.9809 269.892C70.2358 274.834 76.1835 287.278 79.5005 292.883L57.1966 286.706L64.7456 261.657C67.0332 261.314 71.8829 260.285 72.9809 258.912Z" stroke="black" stroke-linejoin="round"/>
  <path d="M289.5 270.921L278.177 254.829L267.54 251.02C265.824 251.193 262.118 251.712 261.02 252.405C259.922 253.098 253.814 259.255 253.814 259.255L251.069 275.382L267.54 277.441C273.716 277.441 285.108 273.277 289.5 270.921Z" fill="#727272"/>
  <path d="M289.5 270.921L278.177 254.829L267.54 251.02C265.824 251.193 262.118 251.712 261.02 252.405C259.922 253.098 253.814 259.255 253.814 259.255L251.069 275.382L267.54 277.441C273.716 277.441 285.108 273.277 289.5 270.921Z" fill="#727272"/>
  <path d="M267.54 251.02L278.177 254.829L289.5 270.921C285.108 273.277 273.716 277.441 267.54 277.441M267.54 251.02C265.824 251.193 262.118 251.712 261.02 252.405C259.922 253.098 253.814 259.255 253.814 259.255L251.069 275.382L267.54 277.441M267.54 251.02C266.51 252.289 264.532 257.085 267.54 259.255C275.089 264.7 264.108 269.847 267.54 277.441" stroke="black"/>
  <path d="M278.177 254.829L289.5 270.921C285.108 273.277 273.716 277.441 267.54 277.441C264.108 269.847 275.089 264.7 267.54 259.255C264.532 257.085 266.51 252.289 267.54 251.02L278.177 254.829Z" fill="#B6B6B6" stroke="black"/>
  <path d="M212.98 272.294L218.127 278.47L208.52 280.872L198.912 278.47L202.686 272.294H212.98Z" fill="#727272"/>
  <path d="M212.98 272.294L218.127 278.47L208.52 280.872L198.912 278.47L202.686 272.294H212.98Z" fill="#727272"/>
  <path d="M212.98 272.294L218.127 278.47L208.52 280.872L198.912 278.47L202.686 272.294H212.98Z" stroke="black"/>
  <path d="M250.76 264.291C256.364 266.043 256.889 274.654 256.451 278.74C255.576 277.281 252.949 274.012 249.446 272.61C245.943 271.209 240.689 272.027 238.5 272.61C240.251 269.108 245.155 262.54 250.76 264.291Z" fill="#FF4848" stroke="black" stroke-linejoin="round"/>
  <path d="M246.501 276.551C252.105 278.303 253.944 280.492 256.451 278.741C255.576 277.282 252.949 274.013 249.446 272.612C245.943 271.21 240.689 272.028 238.5 272.612C238.5 274.362 240.896 274.8 246.501 276.551Z" fill="#6E1313" stroke="black" stroke-linejoin="round"/>
  <path d="M248.252 284.433C247.552 281.28 247.96 276.114 248.252 273.924C246.063 269.546 242.122 284.433 242.56 286.184C242.998 287.935 249.128 288.373 248.252 284.433Z" fill="#F6D6B7" stroke="black"/>
  <path d="M102.772 279.826C97.8618 280.145 95.9519 284.811 95.6107 287.105C96.5814 286.404 99.3032 284.91 102.425 284.542C105.546 284.174 109.727 285.225 111.428 285.796C110.588 283.673 107.682 279.506 102.772 279.826Z" fill="#BC8420" stroke="black" stroke-linejoin="round"/>
  <path d="M104.171 287.043C99.2605 287.363 97.3722 288.354 95.6103 287.106C96.581 286.405 99.3028 284.911 102.424 284.543C105.546 284.175 109.727 285.226 111.427 285.797C111.127 286.758 109.081 286.724 104.171 287.043Z" fill="#593C08" stroke="black" stroke-linejoin="round"/>
  <path d="M101.614 291.796C102.202 289.147 103.188 287.414 102.943 285.575C104.783 281.896 106.764 291.796 106.396 293.267C106.028 294.739 100.878 295.107 101.614 291.796Z" fill="#AF855B" stroke="black"/>
  <path d="M182.673 279.777C186.057 276.558 195.363 278.436 199.593 279.777C204.73 278.23 210.169 279.777 210.169 281.325C210.169 282.563 207.349 282.872 205.939 282.872C207.953 283.904 211.619 286.401 210.169 288.134C208.719 289.867 204.73 287.412 202.917 285.967C202.716 288.443 201.527 293.024 198.385 291.538C195.242 290.053 195.867 287.205 196.572 285.967C191.939 288.65 181.947 293.519 179.047 291.538C176.146 289.557 185.493 284.936 190.529 282.872C186.5 283.182 179.288 282.996 182.673 279.777Z" fill="#F18C34"/>
  <path d="M199.593 279.777C195.363 278.436 186.057 276.558 182.673 279.777C179.288 282.996 186.5 283.182 190.529 282.872C185.493 284.936 176.146 289.557 179.047 291.538C181.947 293.519 191.939 288.65 196.572 285.967C195.867 287.205 195.242 290.053 198.385 291.538C201.527 293.024 202.716 288.443 202.917 285.967C204.73 287.412 208.719 289.867 210.169 288.134C211.619 286.401 207.953 283.904 205.939 282.872C207.349 282.872 210.169 282.563 210.169 281.325C210.169 279.777 204.73 278.23 199.593 279.777ZM199.593 279.777C198.284 280.396 195.424 281.882 194.457 282.872" stroke="black"/>
  <path d="M118.836 262.056C118.609 260.707 120.45 260.932 121.399 261.213C121.399 263.686 123.488 267.114 124.532 268.519C138.656 267.17 141.808 270.142 141.618 271.797C144.474 272.043 147.436 272.567 148.167 273.577C149.306 275.151 145.035 276.106 142.757 276.387C146.079 276.2 152.951 276.162 153.863 277.511C154.774 278.86 151.585 279.572 149.876 279.759C151.869 279.572 156.312 279.647 158.134 281.445C159.957 283.243 154.527 284.442 151.585 284.817C153.103 285.192 156.027 286.896 155.571 290.718C155.142 294.322 148.6 290.379 144.831 287.561C145.544 288.344 145.948 289.856 144.181 292.123C141.902 295.045 138.675 289.969 137.346 287.065C137.536 288.002 137.232 290.325 134.499 292.123C131.769 293.919 129.948 288.019 129.375 284.831C129.556 285.87 128.841 288.308 124.532 289.875C120.203 291.449 121.589 283.787 122.823 279.759C122.349 280.508 120.317 282.063 115.989 282.288C111.66 282.513 117.792 274.326 121.399 270.205C120.64 268.051 119.064 263.405 118.836 262.056Z" fill="#A6AA30"/>
  <path d="M137.346 271.61C138.467 271.61 140.026 271.66 141.618 271.797M141.618 271.797C144.474 272.043 147.436 272.567 148.167 273.577C149.306 275.151 145.035 276.106 142.757 276.387C146.079 276.2 152.951 276.162 153.863 277.511C154.774 278.86 151.585 279.572 149.876 279.759C151.869 279.572 156.312 279.647 158.134 281.445C159.957 283.243 154.527 284.442 151.585 284.817C153.103 285.192 156.027 286.896 155.571 290.718C155.116 294.54 147.788 289.875 144.181 287.065C145.13 287.533 146.459 289.201 144.181 292.123C141.902 295.045 138.675 289.969 137.346 287.065C137.536 288.002 137.232 290.325 134.499 292.123C131.765 293.921 129.942 288.002 129.373 284.817C129.563 285.847 128.86 288.301 124.532 289.875C120.203 291.449 121.589 283.787 122.823 279.759C122.349 280.508 120.317 282.063 115.989 282.288C111.66 282.513 117.792 274.326 121.399 270.205C120.64 268.051 119.064 263.405 118.836 262.056C118.609 260.707 120.45 260.932 121.399 261.213C121.399 263.686 123.488 267.114 124.532 268.519M141.618 271.797C141.808 270.142 138.656 267.17 124.532 268.519M124.532 268.519C127.333 271.797 135.185 279.366 144.181 283.412" stroke="black"/>
</svg>
