<svg width="539" height="290" viewBox="0 0 539 290" fill="none" xmlns="http://www.w3.org/2000/svg">
<path d="M10.1413 181.205L93.257 130.184C95.074 129.068 97.0576 128.251 99.1328 127.762L257.728 90.3888C260.22 89.8017 262.575 88.7419 264.667 87.2668L381.191 5.09615C384.949 2.44656 389.504 1.17239 394.091 1.48814L507.472 9.29335C517.498 9.98353 525.454 18.0064 526.062 28.0376L537.679 219.944C538.175 228.127 533.626 235.784 526.203 239.263L424.386 286.976C420.871 288.623 416.954 289.212 413.11 288.671L247.178 265.307C245.73 265.103 244.265 265.058 242.808 265.174L50.8983 280.397C42.5472 281.06 34.6681 276.448 31.1575 268.841L2.4452 206.631C-1.80147 197.43 1.50482 186.507 10.1413 181.205Z" fill="#B3E352" stroke="black" stroke-linecap="round"/>
<ellipse cx="134.5" cy="255.5" rx="49.5" ry="10.5" fill="#7EA82B"/>
<ellipse cx="408.5" cy="199" rx="49.5" ry="9" fill="#7EA82B"/>
<ellipse cx="244.5" cy="216" rx="103.5" ry="12" fill="#7EA82B"/>
<path d="M328.59 65.8389L322.912 194.398H333.051L328.59 65.8389Z" fill="#896736" stroke="black"/>
<path d="M319.668 90.5774C310.813 96.4808 302.094 96.5255 298.579 95.444C311.531 93.5486 323.833 73.2584 329.401 63C331 83.7642 344.793 92.47 350.895 93.8218C340.513 93.8218 331.699 86.2516 328.59 82.4664C328.59 82.4664 325.751 86.5219 319.668 90.5774Z" fill="#14653C" stroke="black"/>
<path d="M319.668 108.016C309.529 114.1 294.794 115.181 291.279 114.1C309.935 112.157 323.022 97.9971 328.59 87.7388C330.189 108.503 350.084 111.666 356.573 112.883C335.89 114.505 331.699 103.69 328.59 99.9053C328.59 99.9053 325.937 104.255 319.668 108.016Z" fill="#14653C" stroke="black"/>
<path d="M319.668 122.616C309.529 128.699 294.794 129.781 291.279 128.699C309.935 126.757 323.022 112.597 328.59 102.338C330.189 123.103 349.679 123.427 356.167 124.644C335.484 126.266 331.699 118.29 328.59 114.505C328.59 114.505 325.937 118.854 319.668 122.616Z" fill="#14653C" stroke="black"/>
<path d="M302.229 138.433C315.531 138.433 326.157 127.888 329.807 122.616C329.807 124.914 328.428 130.808 322.912 135.999C317.397 141.19 306.825 139.785 302.229 138.433Z" fill="#14653C" stroke="black"/>
<path d="M346.84 136.81C339.702 136.81 332.51 131.132 329.806 128.293C327.914 130.456 325.508 135.187 331.023 136.81C336.539 138.432 343.866 137.485 346.84 136.81Z" fill="#14653C" stroke="black"/>
<path d="M315.207 146.254C320.93 146.254 326.696 141.851 328.864 139.649C330.382 141.326 332.311 144.996 327.889 146.254C323.466 147.512 317.591 146.778 315.207 146.254Z" fill="#14653C" stroke="black"/>
<path d="M278.11 201.844C278.482 201.757 278.866 201.731 279.246 201.768L466.788 219.942C470.73 220.324 471.105 225.93 467.249 226.833L338.274 257.05C337.902 257.138 337.518 257.163 337.138 257.126L149.596 238.952C145.654 238.57 145.279 232.964 149.135 232.061L278.11 201.844Z" fill="#FFC9A3" stroke="black"/>
<path d="M289.102 120.207H184.503L211.511 173.004L319.385 175.914L289.102 120.207Z" fill="#AFA05E"/>
<path d="M319.385 175.914L289.102 120.207H184.503L211.511 173.004M319.385 175.914L211.511 173.004M319.385 175.914L338.184 210.839M211.511 173.004L225.944 201.744" stroke="black"/>
<path d="M289.584 120.207L178.275 120.209L145.169 179.145L259.752 182.053L289.584 120.207Z" fill="#F7E697"/>
<path d="M259.752 182.053L289.584 120.207L178.275 120.209L145.169 179.145M259.752 182.053L145.169 179.145M259.752 182.053L238.652 230.438M145.169 179.145L119.703 221.346" stroke="black"/>
<rect x="383.343" y="118.079" width="10.3838" height="83.0648" rx="1.5" fill="#A05A5A" stroke="black"/>
<path d="M390.724 120.206V196.827" stroke="black"/>
<rect x="351.819" y="124.209" width="73.4324" height="41.0324" rx="1.5" fill="#E0CEAC" stroke="black"/>
<path d="M420.497 127.212V163.99" stroke="black"/>
<rect x="331.575" y="151.559" width="7.99168" height="108.437" rx="3.99584" transform="rotate(39.7375 331.575 151.559)" fill="#B08686" stroke="black"/>
<rect x="267.336" y="200.104" width="7.99168" height="67.5564" rx="3.99584" transform="rotate(-53.6135 267.336 200.104)" fill="#B08686" stroke="black"/>
<path d="M331.778 157.435C332.063 157.102 332.48 156.91 332.918 156.91H365.571C366.817 156.91 367.52 158.341 366.758 159.327L323.633 215.103C323.319 215.508 322.819 215.726 322.309 215.679L287.803 212.508C286.591 212.397 286.009 210.965 286.8 210.04L331.778 157.435Z" fill="#FFF3BC" stroke="black" stroke-linejoin="round"/>
<rect x="336.996" y="198.046" width="6.10768" height="37.2107" rx="3.05384" transform="rotate(-18.1347 336.996 198.046)" fill="#B08686" stroke="black"/>
<rect x="371.107" y="153.413" width="7.99168" height="113.233" rx="3.99584" transform="rotate(39.7375 371.107 153.413)" fill="#A05A5A" stroke="black"/>
<rect x="251.57" y="220.244" width="7.99168" height="50.9764" rx="3.99584" transform="rotate(-90.1098 251.57 220.244)" fill="#A05A5A" stroke="black"/>
<rect x="253.877" y="218.038" width="4.14977" height="37.2554" rx="2.07488" transform="rotate(-90 253.877 218.038)" fill="#FFF3BC" stroke="black" stroke-linejoin="round"/>
<rect x="286.427" y="220.2" width="7.99168" height="39.6612" rx="3.99584" transform="rotate(-90.1098 286.427 220.2)" fill="#A05A5A" stroke="black"/>
<rect x="302.006" y="203.382" width="7.99168" height="68.4371" rx="3.99584" transform="rotate(-55.6891 302.006 203.382)" fill="#A05A5A" stroke="black"/>
<path d="M137.797 232.096C142.083 232.89 141.567 237.321 140.774 239.438C140.774 240.694 139.067 243.247 132.241 243.406C125.416 243.565 126.223 238.049 127.479 235.271C129.133 233.882 133.511 231.303 137.797 232.096Z" fill="#999999" stroke="black" stroke-linecap="round" stroke-linejoin="round"/>
<path d="M137.797 232.096C142.083 232.89 141.567 237.321 140.774 239.438C139.294 235.271 135.547 235.271 127.479 235.271C129.133 233.882 133.511 231.303 137.797 232.096Z" fill="#D9D9D9" stroke="black" stroke-linecap="round" stroke-linejoin="round"/>
<path d="M146.15 234.762C141.835 235.561 136.93 240.471 137.729 242.602C137.729 243.867 144.871 245.99 151.744 246.15C158.617 246.309 157.804 240.755 156.539 237.958C154.874 236.56 150.465 233.963 146.15 234.762Z" fill="#999999" stroke="black" stroke-linecap="round" stroke-linejoin="round"/>
<path d="M146.15 234.762C141.835 235.561 142.18 238.163 146.606 240.383C152.833 244.821 150.447 240.126 156.539 237.958C154.874 236.56 150.465 233.963 146.15 234.762Z" fill="#D9D9D9" stroke="black" stroke-linecap="round" stroke-linejoin="round"/>
<path d="M113.402 232.177C106.802 233.399 107.596 240.223 108.818 243.482C108.818 245.417 111.446 249.349 121.957 249.593C132.468 249.837 131.226 241.343 129.29 237.065C126.744 234.927 120.002 230.954 113.402 232.177Z" fill="#999999" stroke="black" stroke-linecap="round" stroke-linejoin="round"/>
<path d="M113.402 232.177C106.802 233.399 107.596 240.223 108.818 243.482C111.097 237.065 116.867 237.065 129.29 237.065C126.744 234.927 120.002 230.954 113.402 232.177Z" fill="#D9D9D9" stroke="black" stroke-linecap="round" stroke-linejoin="round"/>
<path d="M105.412 241.056C98.812 242.278 99.6065 249.102 100.829 252.362C100.829 254.297 103.456 258.228 113.968 258.472C124.479 258.717 123.236 250.223 121.301 245.945C118.755 243.806 112.012 239.834 105.412 241.056Z" fill="#999999" stroke="black" stroke-linecap="round" stroke-linejoin="round"/>
<path d="M105.412 241.056C98.812 242.278 99.6065 249.102 100.829 252.362C104.699 253.38 114.212 253.523 121.301 245.945C118.755 243.806 112.012 239.834 105.412 241.056Z" fill="#D9D9D9" stroke="black" stroke-linecap="round" stroke-linejoin="round"/>
<rect x="122.888" y="237.669" width="7.15878" height="33.3628" rx="3.57939" transform="rotate(-55.6891 122.888 237.669)" fill="#B27D7D" stroke="black"/>
<rect x="-0.694837" y="-0.131154" width="7.15878" height="33.3628" rx="3.57939" transform="matrix(-0.563683 -0.825991 -0.825991 0.563683 150.43 236.281)" fill="#A05A5A" stroke="black"/>
<path d="M158.591 241.714C156.105 242.425 151.637 246.745 149.713 248.816C148.425 250.148 149.713 258.581 156.815 258.581C162.497 258.581 166.876 257.693 168.356 257.249C169.244 255.622 170.753 251.657 169.688 248.816C168.356 245.265 161.698 240.827 158.591 241.714Z" fill="#999999" stroke="black" stroke-linecap="round" stroke-linejoin="round"/>
<path d="M158.591 241.714C156.105 242.425 151.637 246.745 149.714 248.816L158.591 251.923L169.688 248.816C168.356 245.265 161.698 240.827 158.591 241.714Z" fill="#D9D9D9" stroke="black" stroke-linecap="round" stroke-linejoin="round"/>
<path d="M140.034 247.27C133.434 248.492 134.228 255.317 135.451 258.576C135.451 260.511 138.078 264.442 148.59 264.687C159.101 264.931 157.858 256.437 155.923 252.159C153.377 250.02 146.634 246.048 140.034 247.27Z" fill="#999999" stroke="black" stroke-linecap="round" stroke-linejoin="round"/>
<path d="M140.034 247.27C133.434 248.492 134.228 255.317 135.451 258.576C137.729 252.159 143.499 252.159 155.923 252.159C153.377 250.02 146.634 246.048 140.034 247.27Z" fill="#D9D9D9" stroke="black" stroke-linecap="round" stroke-linejoin="round"/>
<path d="M120.504 247.27C113.904 248.492 114.698 255.317 115.92 258.576C115.92 260.511 118.548 264.442 129.059 264.687C139.57 264.931 138.328 256.437 136.393 252.159C133.846 250.02 127.104 246.048 120.504 247.27Z" fill="#999999" stroke="black" stroke-linecap="round" stroke-linejoin="round"/>
<path d="M120.504 247.27C113.904 248.492 114.698 255.317 115.92 258.576C119.791 259.594 127.076 255.475 136.393 252.159C133.846 250.02 127.104 246.048 120.504 247.27Z" fill="#D9D9D9" stroke="black" stroke-linecap="round" stroke-linejoin="round"/>
<mask id="path-46-inside-1_22383_10470" fill="white">
<path fill-rule="evenodd" clip-rule="evenodd" d="M148.045 210.746C149.556 209.89 150.337 208.355 150.277 205.27C157.906 211.299 150.585 241.081 130.584 234.987C126.557 233.991 123.087 231.444 120.931 227.9C118.776 224.357 118.108 220.104 119.076 216.071C120.108 212.762 122.357 209.968 125.369 208.253C124.28 210.759 124.584 213.514 125.904 215.24C126.531 213.219 127.689 211.359 131.097 211.107C130.118 213.117 130.506 214.909 131.163 216.637C133.782 215.602 133.576 212.293 133.333 208.381C132.988 202.842 132.569 196.096 139.986 192.889C138.804 199.756 142.403 204.014 146.002 208.271C146.694 209.09 147.387 209.909 148.045 210.746Z"/>
</mask>
<path fill-rule="evenodd" clip-rule="evenodd" d="M148.045 210.746C149.556 209.89 150.337 208.355 150.277 205.27C157.906 211.299 150.585 241.081 130.584 234.987C126.557 233.991 123.087 231.444 120.931 227.9C118.776 224.357 118.108 220.104 119.076 216.071C120.108 212.762 122.357 209.968 125.369 208.253C124.28 210.759 124.584 213.514 125.904 215.24C126.531 213.219 127.689 211.359 131.097 211.107C130.118 213.117 130.506 214.909 131.163 216.637C133.782 215.602 133.576 212.293 133.333 208.381C132.988 202.842 132.569 196.096 139.986 192.889C138.804 199.756 142.403 204.014 146.002 208.271C146.694 209.09 147.387 209.909 148.045 210.746Z" fill="#FF6242"/>
<path d="M150.277 205.27L150.897 204.485L149.236 203.173L149.277 205.289L150.277 205.27ZM148.045 210.746L147.259 211.364L147.79 212.04L148.538 211.616L148.045 210.746ZM130.584 234.987L130.875 234.03L130.85 234.022L130.824 234.016L130.584 234.987ZM120.931 227.9L121.786 227.381H121.786L120.931 227.9ZM119.076 216.071L118.121 215.773L118.111 215.805L118.103 215.837L119.076 216.071ZM125.369 208.253L126.286 208.651L127.482 205.898L124.874 207.384L125.369 208.253ZM125.904 215.24L125.11 215.848L126.286 217.385L126.859 215.536L125.904 215.24ZM131.097 211.107L131.996 211.544L132.756 209.981L131.023 210.109L131.097 211.107ZM131.163 216.637L130.228 216.993L130.589 217.94L131.531 217.567L131.163 216.637ZM133.333 208.381L134.331 208.319L133.333 208.381ZM139.986 192.889L140.971 193.058L141.284 191.237L139.589 191.971L139.986 192.889ZM146.002 208.271L145.239 208.917L146.002 208.271ZM149.277 205.289C149.306 206.757 149.13 207.754 148.831 208.449C148.545 209.114 148.128 209.55 147.552 209.876L148.538 211.616C149.473 211.086 150.201 210.327 150.669 209.239C151.123 208.182 151.308 206.868 151.277 205.251L149.277 205.289ZM130.292 235.943C135.553 237.546 140.055 236.8 143.686 234.62C147.287 232.458 149.956 228.934 151.702 225.088C153.449 221.24 154.308 216.994 154.231 213.293C154.155 209.648 153.159 206.273 150.897 204.485L149.657 206.055C151.21 207.282 152.16 209.89 152.231 213.335C152.302 216.722 151.511 220.672 149.881 224.261C148.251 227.853 145.816 231.009 142.657 232.905C139.529 234.783 135.615 235.474 130.875 234.03L130.292 235.943ZM120.077 228.42C122.37 232.189 126.061 234.899 130.344 235.957L130.824 234.016C127.053 233.084 123.804 230.699 121.786 227.381L120.077 228.42ZM118.103 215.837C117.074 220.128 117.784 224.651 120.077 228.42L121.786 227.381C119.767 224.062 119.142 220.081 120.048 216.304L118.103 215.837ZM124.874 207.384C121.642 209.225 119.229 212.223 118.121 215.773L120.03 216.369C120.987 213.302 123.072 210.712 125.864 209.122L124.874 207.384ZM126.698 214.633C125.631 213.237 125.319 210.877 126.286 208.651L124.452 207.854C123.241 210.641 123.536 213.791 125.11 215.848L126.698 214.633ZM126.859 215.536C127.15 214.599 127.53 213.817 128.144 213.237C128.74 212.675 129.65 212.217 131.17 212.104L131.023 210.109C129.136 210.249 127.763 210.847 126.771 211.783C125.797 212.702 125.285 213.86 124.949 214.944L126.859 215.536ZM130.197 210.669C129.039 213.05 129.535 215.17 130.228 216.993L132.098 216.282C131.477 214.649 131.197 213.185 131.996 211.544L130.197 210.669ZM132.335 208.443C132.459 210.439 132.558 212.114 132.336 213.421C132.123 214.672 131.659 215.366 130.796 215.707L131.531 217.567C133.286 216.874 134.029 215.395 134.307 213.755C134.577 212.171 134.45 210.235 134.331 208.319L132.335 208.443ZM139.589 191.971C135.588 193.701 133.642 196.437 132.786 199.491C131.953 202.462 132.165 205.708 132.335 208.443L134.331 208.319C134.157 205.515 133.986 202.619 134.712 200.031C135.414 197.524 136.966 195.284 140.383 193.807L139.589 191.971ZM146.766 207.626C143.142 203.339 139.877 199.417 140.971 193.058L139 192.719C137.731 200.095 141.664 204.688 145.239 208.917L146.766 207.626ZM148.831 210.128C148.16 209.275 147.456 208.442 146.766 207.626L145.239 208.917C145.933 209.738 146.613 210.543 147.259 211.364L148.831 210.128Z" fill="black" mask="url(#path-46-inside-1_22383_10470)"/>
<path d="M137.439 226.825C139.313 226.08 140.944 224.788 142.157 223.109C143.473 225.514 142.96 227.804 141.557 229.372C140.009 231.104 137.358 231.976 134.752 231.11C133.863 230.8 133.075 230.209 132.491 229.407C132.042 228.79 131.731 228.07 131.58 227.304C133.532 227.735 135.562 227.572 137.439 226.825Z" fill="#FFE500" stroke="black"/>
<path d="M407.044 181.794C401.44 183.545 400.914 192.156 401.352 196.243C402.228 194.783 404.855 191.514 408.357 190.113C411.86 188.712 417.114 189.529 419.303 190.113C417.552 186.61 412.648 180.043 407.044 181.794Z" fill="#FF4848" stroke="black" stroke-linejoin="round"/>
<path d="M411.303 194.053C405.698 195.804 403.86 197.994 401.352 196.243C402.228 194.784 404.855 191.515 408.357 190.114C411.86 188.712 417.114 189.53 419.303 190.114C419.303 191.864 416.907 192.302 411.303 194.053Z" fill="#6E1313" stroke="black" stroke-linejoin="round"/>
<path d="M409.551 201.934C410.252 198.782 409.843 193.616 409.551 191.426C411.74 187.048 415.681 201.934 415.243 203.686C414.805 205.437 408.676 205.875 409.551 201.934Z" fill="#F6D6B7" stroke="black"/>
<path d="M444.407 179.696C439.497 180.015 437.587 184.682 437.246 186.975C438.216 186.274 440.938 184.78 444.06 184.412C447.181 184.045 451.362 185.095 453.063 185.666C452.223 183.543 449.317 179.376 444.407 179.696Z" fill="#BC8420" stroke="black" stroke-linejoin="round"/>
<path d="M445.805 186.913C440.895 187.233 439.007 188.224 437.245 186.976C438.216 186.275 440.938 184.781 444.059 184.414C447.181 184.046 451.362 185.096 453.062 185.667C452.762 186.628 450.716 186.594 445.805 186.913Z" fill="#593C08" stroke="black" stroke-linejoin="round"/>
<path d="M443.249 191.665C443.838 189.017 444.824 187.284 444.578 185.444C446.418 181.766 448.399 191.665 448.031 193.137C447.664 194.608 442.513 194.976 443.249 191.665Z" fill="#AF855B" stroke="black"/>
<path d="M374.905 186.753C377.9 186.947 379.065 189.794 379.273 191.192C378.681 190.765 377.021 189.854 375.117 189.63C373.213 189.405 370.663 190.046 369.626 190.394C370.138 189.099 371.91 186.558 374.905 186.753Z" fill="#BC8420" stroke="black" stroke-linejoin="round"/>
<path d="M374.052 191.154C377.047 191.349 378.198 191.954 379.273 191.193C378.681 190.765 377.021 189.854 375.117 189.63C373.213 189.405 370.663 190.046 369.626 190.394C369.809 190.981 371.057 190.96 374.052 191.154Z" fill="#593C08" stroke="black" stroke-linejoin="round"/>
<path d="M375.611 194.054C375.252 192.439 374.651 191.382 374.8 190.26C373.679 188.016 372.47 194.054 372.694 194.952C372.919 195.849 376.06 196.073 375.611 194.054Z" fill="#AF855B" stroke="black"/>
</svg>
