<svg width="341" height="338" viewBox="0 0 341 338" fill="none" xmlns="http://www.w3.org/2000/svg">
<g filter="url(#filter0_d_31513_10295)">
<path d="M10.5727 139.047L62.5747 90.2453C64.5057 88.4331 66.7773 87.0225 69.2577 86.0952L260.233 14.7025C270.785 10.7578 282.512 16.3026 286.159 26.9613L335.693 171.719C336.875 175.174 337.089 178.886 336.311 182.454L317.307 269.623C315.604 277.436 309.411 283.483 301.56 285L83.0648 327.215C80.4603 327.718 77.7625 327.175 75.5553 325.704C73.8895 324.593 72.5918 323.012 71.8274 321.162L5.77415 161.267C2.59982 153.583 4.51028 144.737 10.5727 139.047Z" fill="#C5ED74"/>
<path d="M10.5727 139.047L62.5747 90.2453C64.5057 88.4331 66.7773 87.0225 69.2577 86.0952L260.233 14.7025C270.785 10.7578 282.512 16.3026 286.159 26.9613L335.693 171.719C336.875 175.174 337.089 178.886 336.311 182.454L317.307 269.623C315.604 277.436 309.411 283.483 301.56 285L83.0648 327.215C80.4603 327.718 77.7625 327.175 75.5553 325.704C73.8895 324.593 72.5918 323.012 71.8274 321.162L5.77415 161.267C2.59982 153.583 4.51028 144.737 10.5727 139.047Z" stroke="black" stroke-linecap="round"/>
</g>
<ellipse cx="129" cy="280.926" rx="57" ry="12" fill="#7EA82B"/>
<ellipse cx="132" cy="182" rx="88" ry="10" fill="#7EA82B"/>
<path d="M161.767 29.4941L156.781 142.399H165.685L161.767 29.4941Z" fill="#896736" stroke="black"/>
<path d="M153.932 51.2194C146.155 56.4039 138.498 56.4432 135.411 55.4934C146.786 53.8288 157.59 36.0092 162.48 27C163.884 45.2358 175.997 52.8815 181.357 54.0687C172.239 54.0687 164.498 47.4203 161.767 44.0961C161.767 44.0961 159.274 47.6577 153.932 51.2194Z" fill="#14653C" stroke="black"/>
<path d="M153.932 66.5345C145.028 71.877 132.087 72.8268 129 71.877C145.384 70.1711 156.878 57.7353 161.767 48.7261C163.172 66.9619 180.644 69.74 186.343 70.8085C168.178 72.2331 164.498 62.7353 161.767 59.4111C161.767 59.4111 159.438 63.2309 153.932 66.5345Z" fill="#14653C" stroke="black"/>
<path d="M153.932 79.3577C145.028 84.7002 132.087 85.65 129 84.7002C145.384 82.9943 156.878 70.5585 161.767 61.5493C163.172 79.7851 180.288 80.07 185.987 81.1385C167.822 82.5632 164.498 75.5586 161.767 72.2343C161.767 72.2343 159.438 76.0542 153.932 79.3577Z" fill="#14653C" stroke="black"/>
<path d="M138.617 93.2485C150.299 93.2485 159.631 83.9881 162.836 79.3579C162.836 81.3762 161.625 86.5525 156.781 91.1114C151.937 95.6704 142.653 94.4357 138.617 93.2485Z" fill="#14653C" stroke="black"/>
<path d="M177.795 91.8218C171.526 91.8218 165.21 86.8355 162.836 84.3423C161.173 86.2418 159.06 90.3971 163.904 91.8218C168.748 93.2465 175.183 92.4154 177.795 91.8218Z" fill="#14653C" stroke="black"/>
<path d="M150.013 100.116C155.04 100.116 160.104 96.2486 162.008 94.3149C163.34 95.7882 165.035 99.0109 161.151 100.116C157.267 101.221 152.108 100.576 150.013 100.116Z" fill="#14653C" stroke="black"/>
<path d="M210.531 4.83887L204.854 133.398H214.992L210.531 4.83887Z" fill="#896736" stroke="black"/>
<path d="M201.609 29.5774C192.754 35.4808 184.035 35.5255 180.521 34.444C193.473 32.5486 205.775 12.2584 211.342 2C212.942 22.7642 226.734 31.47 232.837 32.8218C222.455 32.8218 213.641 25.2516 210.531 21.4664C210.531 21.4664 207.693 25.5219 201.609 29.5774Z" fill="#14653C" stroke="black"/>
<path d="M201.609 47.0163C191.47 53.0995 176.735 54.181 173.221 53.0995C191.876 51.1571 204.963 36.9971 210.531 26.7388C212.131 47.503 232.026 50.6662 238.514 51.8829C217.831 53.5051 213.641 42.6904 210.531 38.9053C210.531 38.9053 207.879 43.2547 201.609 47.0163Z" fill="#14653C" stroke="black"/>
<path d="M201.609 61.6159C191.47 67.6992 176.735 68.7806 173.221 67.6992C191.876 65.7567 204.963 51.5967 210.531 41.3384C212.131 62.1026 231.62 62.427 238.109 63.6437C217.426 65.2659 213.641 57.29 210.531 53.5049C210.531 53.5049 207.879 57.8543 201.609 61.6159Z" fill="#14653C" stroke="black"/>
<path d="M184.171 77.4327C197.473 77.4327 208.098 66.8884 211.748 61.6162C211.748 63.9143 210.369 69.8083 204.854 74.9994C199.338 80.1904 188.767 78.7845 184.171 77.4327Z" fill="#14653C" stroke="black"/>
<path d="M228.781 75.8095C221.643 75.8095 214.452 70.1318 211.748 67.293C209.855 69.4559 207.449 74.1873 212.965 75.8095C218.48 77.4317 225.807 76.4854 228.781 75.8095Z" fill="#14653C" stroke="black"/>
<path d="M197.148 85.2542C202.871 85.2542 208.638 80.8507 210.805 78.6489C212.323 80.3264 214.252 83.996 209.83 85.2542C205.408 86.5123 199.533 85.7784 197.148 85.2542Z" fill="#14653C" stroke="black"/>
<path d="M260.531 43.8389L254.854 172.398H264.992L260.531 43.8389Z" fill="#896736" stroke="black"/>
<path d="M251.609 68.5774C242.754 74.4808 234.035 74.5255 230.521 73.444C243.473 71.5486 255.775 51.2584 261.342 41C262.942 61.7642 276.734 70.47 282.837 71.8218C272.455 71.8218 263.641 64.2516 260.531 60.4664C260.531 60.4664 257.693 64.5219 251.609 68.5774Z" fill="#14653C" stroke="black"/>
<path d="M251.609 86.0163C241.47 92.0995 226.735 93.181 223.221 92.0995C241.876 90.1571 254.963 75.9971 260.531 65.7388C262.131 86.503 282.026 89.6662 288.514 90.8829C267.831 92.5051 263.641 81.6904 260.531 77.9053C260.531 77.9053 257.879 82.2547 251.609 86.0163Z" fill="#14653C" stroke="black"/>
<path d="M251.609 100.616C241.47 106.699 226.735 107.781 223.221 106.699C241.876 104.757 254.963 90.5967 260.531 80.3384C262.131 101.103 281.62 101.427 288.109 102.644C267.426 104.266 263.641 96.29 260.531 92.5049C260.531 92.5049 257.879 96.8543 251.609 100.616Z" fill="#14653C" stroke="black"/>
<path d="M234.171 116.433C247.473 116.433 258.098 105.888 261.748 100.616C261.748 102.914 260.369 108.808 254.854 113.999C249.338 119.19 238.767 117.785 234.171 116.433Z" fill="#14653C" stroke="black"/>
<path d="M278.781 114.81C271.643 114.81 264.452 109.132 261.748 106.293C259.855 108.456 257.449 113.187 262.965 114.81C268.48 116.432 275.807 115.485 278.781 114.81Z" fill="#14653C" stroke="black"/>
<path d="M247.148 124.254C252.871 124.254 258.638 119.851 260.805 117.649C262.323 119.326 264.252 122.996 259.83 124.254C255.408 125.512 249.533 124.778 247.148 124.254Z" fill="#14653C" stroke="black"/>
<path d="M203.134 90H106.492L131.445 138.78L231.112 141.469L203.134 90Z" fill="#AFA05E"/>
<path d="M231.112 141.469L203.134 90H106.492L131.445 138.78M231.112 141.469L131.445 138.78M231.112 141.469L248.481 173.737M131.445 138.78L144.78 165.334" stroke="black"/>
<path d="M203.578 90L100.737 90.0025L70.1503 144.454L176.016 147.141L203.578 90Z" fill="#F7E697"/>
<path d="M176.016 147.141L203.578 90L100.737 90.0025L70.1503 144.454M176.016 147.141L70.1503 144.454M176.016 147.141L156.521 191.845M70.1503 144.454L46.6217 183.445" stroke="black"/>
<ellipse cx="276.195" cy="187.052" rx="46.1949" ry="8.39907" fill="#7EA82B"/>
<rect x="262.085" y="112.5" width="9.62369" height="77.4518" rx="1.5" fill="#A05A5A" stroke="black"/>
<path d="M268.939 114.45V185.955" stroke="black"/>
<rect x="232.664" y="118.226" width="68.4626" height="38.2259" rx="1.5" fill="#E0CEAC" stroke="black"/>
<path d="M296.945 122.773V151.073" stroke="black"/>
<path d="M284.168 171.93C278.938 173.564 278.448 181.6 278.856 185.414C279.674 184.052 282.125 181.001 285.394 179.693C288.663 178.386 293.566 179.148 295.609 179.693C293.975 176.424 289.398 170.295 284.168 171.93Z" fill="#FF4848" stroke="black" stroke-linejoin="round"/>
<path d="M288.142 183.369C282.912 185.004 281.196 187.047 278.856 185.413C279.673 184.051 282.125 181 285.394 179.693C288.663 178.385 293.566 179.148 295.609 179.693C295.609 181.327 293.372 181.735 288.142 183.369Z" fill="#6E1313" stroke="black" stroke-linejoin="round"/>
<path d="M286.508 190.722C287.162 187.78 286.781 182.959 286.508 180.916C288.551 176.83 292.229 190.722 291.82 192.357C291.411 193.991 285.691 194.4 286.508 190.722Z" fill="#F6D6B7" stroke="black"/>
<path d="M254.176 176.557C256.97 176.739 258.058 179.395 258.252 180.7C257.699 180.301 256.15 179.451 254.373 179.242C252.597 179.032 250.217 179.63 249.249 179.955C249.726 178.747 251.381 176.375 254.176 176.557Z" fill="#BC8420" stroke="black" stroke-linejoin="round"/>
<path d="M253.38 180.667C256.175 180.849 257.25 181.413 258.252 180.702C257.7 180.303 256.151 179.453 254.374 179.244C252.597 179.034 250.217 179.632 249.249 179.957C249.42 180.504 250.585 180.485 253.38 180.667Z" fill="#593C08" stroke="black" stroke-linejoin="round"/>
<path d="M254.835 183.374C254.5 181.866 253.939 180.88 254.078 179.833C253.031 177.739 251.903 183.374 252.113 184.211C252.322 185.049 255.254 185.258 254.835 183.374Z" fill="#AF855B" stroke="black"/>
<path d="M172.407 192.703C172.834 192.573 173.281 192.526 173.726 192.564L323.871 205.523C327.561 205.842 328.293 210.924 324.843 212.271L214.088 255.508C213.56 255.714 212.99 255.789 212.427 255.726L48.3612 237.412C44.5811 236.99 44.0926 231.691 47.732 230.585L172.407 192.703L172.262 192.224L172.407 192.703Z" fill="#FFC9A3" stroke="black"/>
<ellipse cx="196" cy="223" rx="64" ry="10" fill="black" fill-opacity="0.25"/>
<rect x="223.181" y="137.704" width="7.99168" height="108.437" rx="3.99584" transform="rotate(39.7375 223.181 137.704)" fill="#B08686" stroke="black"/>
<rect x="158.941" y="186.249" width="7.99168" height="67.5564" rx="3.99584" transform="rotate(-53.6135 158.941 186.249)" fill="#B08686" stroke="black"/>
<path d="M223.384 143.58C223.669 143.247 224.085 143.055 224.524 143.055H257.177C258.423 143.055 259.126 144.486 258.363 145.472L215.238 201.248C214.924 201.653 214.425 201.871 213.914 201.824L179.408 198.653C178.196 198.542 177.614 197.11 178.405 196.185L223.384 143.58Z" fill="#FFF3BC" stroke="black" stroke-linejoin="round"/>
<rect x="228.601" y="184.191" width="6.10768" height="37.2107" rx="3.05384" transform="rotate(-18.1347 228.601 184.191)" fill="#B08686" stroke="black"/>
<rect x="262.712" y="139.558" width="7.99168" height="113.233" rx="3.99584" transform="rotate(39.7375 262.712 139.558)" fill="#A05A5A" stroke="black"/>
<rect x="143.175" y="206.389" width="7.99168" height="50.9764" rx="3.99584" transform="rotate(-90.1098 143.175 206.389)" fill="#A05A5A" stroke="black"/>
<rect x="145.483" y="204.183" width="4.14977" height="37.2554" rx="2.07488" transform="rotate(-90 145.483 204.183)" fill="#FFF3BC" stroke="black" stroke-linejoin="round"/>
<rect x="178.032" y="206.345" width="7.99168" height="39.6612" rx="3.99584" transform="rotate(-90.1098 178.032 206.345)" fill="#A05A5A" stroke="black"/>
<rect x="193.612" y="189.527" width="7.99168" height="68.4371" rx="3.99584" transform="rotate(-55.6891 193.612 189.527)" fill="#A05A5A" stroke="black"/>
<path d="M136.025 253.148C140.96 254.062 140.366 259.164 139.452 261.602C139.452 263.049 137.487 265.988 129.627 266.171C121.767 266.354 122.696 260.002 124.143 256.803C126.047 255.204 131.089 252.234 136.025 253.148Z" fill="#999999" stroke="black" stroke-linecap="round" stroke-linejoin="round"/>
<path d="M136.025 253.148C140.96 254.062 140.366 259.164 139.452 261.602C137.748 256.803 133.433 256.803 124.143 256.803C126.047 255.204 131.089 252.234 136.025 253.148Z" fill="#D9D9D9" stroke="black" stroke-linecap="round" stroke-linejoin="round"/>
<path d="M145.643 256.218C140.674 257.138 135.025 262.792 135.946 265.246C135.946 266.703 144.17 269.147 152.084 269.331C159.998 269.515 159.063 263.12 157.606 259.899C155.689 258.288 150.612 255.298 145.643 256.218Z" fill="#999999" stroke="black" stroke-linecap="round" stroke-linejoin="round"/>
<path d="M145.642 256.218C140.673 257.138 141.071 260.135 146.168 262.69C153.338 267.801 150.591 262.395 157.605 259.899C155.688 258.288 150.612 255.298 145.642 256.218Z" fill="#D9D9D9" stroke="black" stroke-linecap="round" stroke-linejoin="round"/>
<path d="M107.932 253.24C100.332 254.647 101.247 262.505 102.655 266.259C102.655 268.487 105.68 273.014 117.784 273.295C129.888 273.577 128.457 263.796 126.229 258.87C123.297 256.407 115.532 251.833 107.932 253.24Z" fill="#999999" stroke="black" stroke-linecap="round" stroke-linejoin="round"/>
<path d="M107.932 253.24C100.332 254.647 101.247 262.505 102.655 266.259C105.278 258.87 111.923 258.87 126.229 258.87C123.297 256.407 115.532 251.833 107.932 253.24Z" fill="#D9D9D9" stroke="black" stroke-linecap="round" stroke-linejoin="round"/>
<path d="M98.732 263.466C91.132 264.873 92.0468 272.731 93.4542 276.484C93.4542 278.713 96.4802 283.24 108.584 283.521C120.688 283.803 119.257 274.021 117.028 269.095C114.096 266.632 106.332 262.058 98.732 263.466Z" fill="#999999" stroke="black" stroke-linecap="round" stroke-linejoin="round"/>
<path d="M98.732 263.466C91.132 264.873 92.0468 272.731 93.4542 276.484C97.911 277.657 108.865 277.822 117.028 269.095C114.096 266.632 106.332 262.058 98.732 263.466Z" fill="#D9D9D9" stroke="black" stroke-linecap="round" stroke-linejoin="round"/>
<rect x="118.751" y="259.584" width="8.39496" height="38.5692" rx="4.19748" transform="rotate(-55.6891 118.751 259.584)" fill="#B27D7D" stroke="black"/>
<rect x="-0.694837" y="-0.131154" width="8.39496" height="38.5692" rx="4.19748" transform="matrix(-0.563683 -0.825991 -0.825991 0.563683 150.752 258.062)" fill="#A05A5A" stroke="black"/>
<path d="M159.969 264.225C157.106 265.043 151.961 270.018 149.746 272.403C148.262 273.937 149.746 283.647 157.924 283.647C164.467 283.647 169.51 282.625 171.213 282.114C172.236 280.24 173.973 275.674 172.747 272.403C171.213 268.314 163.547 263.203 159.969 264.225Z" fill="#999999" stroke="black" stroke-linecap="round" stroke-linejoin="round"/>
<path d="M159.969 264.225C157.107 265.043 151.962 270.018 149.747 272.403L159.969 275.981L172.747 272.403C171.214 268.314 163.547 263.203 159.969 264.225Z" fill="#D9D9D9" stroke="black" stroke-linecap="round" stroke-linejoin="round"/>
<path d="M138.601 270.623C131.001 272.03 131.915 279.888 133.323 283.641C133.323 285.869 136.349 290.396 148.452 290.678C160.556 290.959 159.125 281.178 156.897 276.252C153.965 273.789 146.201 269.215 138.601 270.623Z" fill="#999999" stroke="black" stroke-linecap="round" stroke-linejoin="round"/>
<path d="M138.601 270.623C131.001 272.03 131.915 279.888 133.323 283.641C135.946 276.252 142.591 276.252 156.897 276.252C153.965 273.789 146.201 269.215 138.601 270.623Z" fill="#D9D9D9" stroke="black" stroke-linecap="round" stroke-linejoin="round"/>
<path d="M116.111 270.623C108.511 272.03 109.426 279.888 110.833 283.641C110.833 285.869 113.859 290.396 125.963 290.678C138.066 290.959 136.636 281.178 134.407 276.252C131.475 273.789 123.711 269.215 116.111 270.623Z" fill="#999999" stroke="black" stroke-linecap="round" stroke-linejoin="round"/>
<path d="M116.111 270.623C108.511 272.03 109.426 279.888 110.833 283.641C115.29 284.814 123.679 280.07 134.407 276.252C131.475 273.789 123.711 269.215 116.111 270.623Z" fill="#D9D9D9" stroke="black" stroke-linecap="round" stroke-linejoin="round"/>
<mask id="path-67-inside-1_31513_10295" fill="white">
<path fill-rule="evenodd" clip-rule="evenodd" d="M147.825 228.563C149.565 227.577 150.464 225.81 150.395 222.257C159.18 229.199 150.749 263.495 127.718 256.476C123.081 255.33 119.086 252.397 116.603 248.316C114.121 244.236 113.352 239.339 114.466 234.694C115.655 230.885 118.245 227.667 121.713 225.692C120.459 228.578 120.809 231.751 122.33 233.738C123.051 231.411 124.385 229.27 128.309 228.979C127.182 231.294 127.629 233.358 128.385 235.347C131.401 234.155 131.164 230.344 130.884 225.839C130.487 219.462 130.004 211.694 138.544 208C137.184 215.908 141.328 220.81 145.473 225.713C146.27 226.656 147.067 227.599 147.825 228.563Z"/>
</mask>
<path fill-rule="evenodd" clip-rule="evenodd" d="M147.825 228.563C149.565 227.577 150.464 225.81 150.395 222.257C159.18 229.199 150.749 263.495 127.718 256.476C123.081 255.33 119.086 252.397 116.603 248.316C114.121 244.236 113.352 239.339 114.466 234.694C115.655 230.885 118.245 227.667 121.713 225.692C120.459 228.578 120.809 231.751 122.33 233.738C123.051 231.411 124.385 229.27 128.309 228.979C127.182 231.294 127.629 233.358 128.385 235.347C131.401 234.155 131.164 230.344 130.884 225.839C130.487 219.462 130.004 211.694 138.544 208C137.184 215.908 141.328 220.81 145.473 225.713C146.27 226.656 147.067 227.599 147.825 228.563Z" fill="#FF6242"/>
<path d="M150.395 222.257L151.015 221.473L149.354 220.16L149.395 222.277L150.395 222.257ZM147.825 228.563L147.038 229.181L147.57 229.857L148.318 229.433L147.825 228.563ZM127.718 256.476L128.01 255.52L127.984 255.512L127.958 255.506L127.718 256.476ZM116.603 248.316L115.749 248.836L116.603 248.316ZM114.466 234.694L113.512 234.397L113.502 234.429L113.494 234.461L114.466 234.694ZM121.713 225.692L122.63 226.091L123.826 223.338L121.218 224.823L121.713 225.692ZM122.33 233.738L121.535 234.346L122.711 235.883L123.285 234.035L122.33 233.738ZM128.309 228.979L129.208 229.417L129.968 227.854L128.235 227.982L128.309 228.979ZM128.385 235.347L127.45 235.703L127.81 236.65L128.752 236.277L128.385 235.347ZM130.884 225.839L129.886 225.902L130.884 225.839ZM138.544 208L139.53 208.17L139.843 206.349L138.148 207.082L138.544 208ZM145.473 225.713L144.709 226.359L145.473 225.713ZM149.395 222.277C149.428 223.978 149.225 225.15 148.869 225.978C148.527 226.776 148.022 227.302 147.332 227.693L148.318 229.433C149.367 228.839 150.182 227.988 150.707 226.768C151.218 225.578 151.431 224.089 151.395 222.238L149.395 222.277ZM127.427 257.433C133.445 259.267 138.584 258.412 142.728 255.924C146.841 253.455 149.896 249.425 151.898 245.015C153.901 240.604 154.885 235.738 154.797 231.499C154.709 227.317 153.566 223.489 151.015 221.473L149.775 223.042C151.617 224.497 152.714 227.559 152.797 231.541C152.879 235.465 151.963 240.036 150.077 244.189C148.191 248.343 145.369 252.005 141.698 254.209C138.058 256.395 133.507 257.195 128.01 255.52L127.427 257.433ZM115.749 248.836C118.369 253.142 122.585 256.238 127.478 257.447L127.958 255.506C123.578 254.423 119.803 251.652 117.458 247.797L115.749 248.836ZM113.494 234.461C112.318 239.363 113.129 244.53 115.749 248.836L117.458 247.797C115.112 243.942 114.386 239.316 115.439 234.928L113.494 234.461ZM121.218 224.823C117.53 226.924 114.776 230.345 113.512 234.397L115.421 234.992C116.534 231.424 118.96 228.411 122.208 226.561L121.218 224.823ZM123.124 233.131C121.856 231.474 121.498 228.696 122.63 226.091L120.796 225.294C119.42 228.461 119.762 232.028 121.535 234.346L123.124 233.131ZM123.285 234.035C123.623 232.944 124.071 232.015 124.805 231.322C125.521 230.646 126.604 230.108 128.382 229.977L128.235 227.982C126.09 228.141 124.544 228.818 123.432 229.868C122.338 230.9 121.758 232.205 121.374 233.442L123.285 234.035ZM127.409 228.542C126.103 231.227 126.658 233.618 127.45 235.703L129.32 234.992C128.6 233.097 128.261 231.362 129.208 229.417L127.409 228.542ZM129.886 225.902C130.028 228.194 130.144 230.142 129.885 231.668C129.635 233.139 129.08 233.997 128.017 234.417L128.752 236.277C130.707 235.505 131.541 233.862 131.857 232.003C132.163 230.199 132.02 227.99 131.882 225.777L129.886 225.902ZM138.148 207.082C133.585 209.055 131.373 212.169 130.4 215.643C129.449 219.036 129.689 222.747 129.886 225.902L131.882 225.777C131.681 222.554 131.482 219.192 132.325 216.183C133.146 213.256 134.963 210.638 138.941 208.918L138.148 207.082ZM146.236 225.068C142.067 220.136 138.257 215.569 139.53 208.17L137.559 207.83C136.111 216.247 140.589 221.485 144.709 226.359L146.236 225.068ZM148.611 227.946C147.84 226.965 147.031 226.008 146.236 225.068L144.709 226.359C145.508 227.304 146.293 228.233 147.038 229.181L148.611 227.946Z" fill="black" mask="url(#path-67-inside-1_31513_10295)"/>
<path d="M135.584 247.01C137.764 246.143 139.658 244.63 141.054 242.66C142.657 245.496 142.068 248.212 140.411 250.064C138.609 252.08 135.525 253.094 132.494 252.086C131.455 251.724 130.534 251.034 129.854 250.098C129.307 249.348 128.937 248.468 128.771 247.533C131.037 248.057 133.401 247.879 135.584 247.01Z" fill="#FFE500" stroke="black"/>
<path d="M253.82 236.001C247.865 236.389 245.549 242.048 245.135 244.829C246.312 243.979 249.613 242.168 253.399 241.722C257.184 241.276 262.255 242.549 264.318 243.242C263.3 240.667 259.775 235.614 253.82 236.001Z" fill="#BC8420" stroke="black" stroke-linejoin="round"/>
<path d="M255.516 244.755C249.561 245.142 247.271 246.344 245.134 244.831C246.311 243.981 249.612 242.169 253.398 241.723C257.184 241.277 262.254 242.551 264.317 243.243C263.952 244.409 261.471 244.367 255.516 244.755Z" fill="#593C08" stroke="black" stroke-linejoin="round"/>
<path d="M252.415 250.519C253.129 247.306 254.325 245.205 254.028 242.974C256.258 238.512 258.662 250.519 258.216 252.303C257.769 254.088 251.523 254.534 252.415 250.519Z" fill="#AF855B" stroke="black"/>
<defs>
<filter id="filter0_d_31513_10295" x="3.75818" y="12.9302" width="333.512" height="324.968" filterUnits="userSpaceOnUse" color-interpolation-filters="sRGB">
<feFlood flood-opacity="0" result="BackgroundImageFix"/>
<feColorMatrix in="SourceAlpha" type="matrix" values="0 0 0 0 0 0 0 0 0 0 0 0 0 0 0 0 0 0 127 0" result="hardAlpha"/>
<feOffset dy="10"/>
<feComposite in2="hardAlpha" operator="out"/>
<feColorMatrix type="matrix" values="0 0 0 0 0.321569 0 0 0 0 0.239216 0 0 0 0 0.215686 0 0 0 1 0"/>
<feBlend mode="normal" in2="BackgroundImageFix" result="effect1_dropShadow_31513_10295"/>
<feBlend mode="normal" in="SourceGraphic" in2="effect1_dropShadow_31513_10295" result="shape"/>
</filter>
</defs>
</svg>
