<svg width="471" height="239" viewBox="0 0 471 239" fill="none" xmlns="http://www.w3.org/2000/svg">
  <path
    d="M49.2163 139.228L5.70565 90.8225C-5.48555 78.3723 2.65826 58.5034 19.3682 57.4892L151 49.5H417.401C424.305 49.5 430.72 53.0601 434.372 58.918L466.186 109.939C473.586 121.808 466.83 137.414 453.11 140.138L270.428 176.418C268.487 176.804 266.613 177.476 264.869 178.411L157.75 235.879C153.404 238.21 148.35 238.854 143.558 237.686L53.5524 215.742C41.3398 212.765 34.8692 199.392 40.1131 187.968L52.5187 160.941C55.846 153.693 54.5482 145.16 49.2163 139.228Z"
    fill="#E6DA83"
    stroke="black"
    stroke-linecap="round"
  />
  <ellipse cx="97.5" cy="113.668" rx="58" ry="10.5" fill="#798D9D" />
  <ellipse cx="283.5" cy="108.5" rx="58" ry="10.5" fill="#798D9D" />
  <ellipse cx="350.5" cy="121.5" rx="58" ry="10.5" fill="#798D9D" />
  <path
    d="M318.703 0.5C299.518 0.5 287.018 16.2445 279.14 36.2206C271.248 56.2306 267.897 80.7041 267.112 98.629C266.95 102.346 268.873 105.849 272.159 107.62C309.76 127.885 346.433 117.488 364.204 107.53C367.261 105.817 368.96 102.533 368.866 99.0619C368.383 81.1704 365.427 56.5903 357.836 36.465C350.258 16.3743 337.967 0.5 318.703 0.5Z"
    fill="#92C9AD"
    stroke="black"
    stroke-linecap="round"
  />
  <path
    d="M318.703 1C303.215 1 292.095 11.4373 284.259 26.2179C283.221 31.9585 284.902 43.9319 299.924 45.9001C314.947 47.8683 323.439 38.1092 325.808 32.9836C330.469 41.5946 343.925 56.2333 360.459 45.9001C353.295 21.5986 340.46 1 318.703 1Z"
    fill="white"
    fill-opacity="0.5"
  />
  <path
    d="M373.961 48.6567C361.096 48.6567 352.633 58.9625 347.237 72.1207C341.829 85.308 339.408 101.563 338.716 113.901C338.508 117.617 340.427 121.152 343.768 122.841C367.889 135.039 391.22 129.124 403.569 122.738C406.694 121.122 408.403 117.8 408.269 114.328C407.795 102.009 405.645 85.6496 400.436 72.352C395.239 59.0843 386.904 48.6567 373.961 48.6567Z"
    fill="#92C9AD"
    stroke="black"
    stroke-linecap="round"
  />
  <path
    d="M373.961 49.1566C363.401 49.1566 355.819 56.2734 350.476 66.3516C349.768 70.2659 350.914 78.43 361.157 79.7721C371.401 81.1141 377.191 74.4598 378.806 70.9649C381.984 76.8363 391.159 86.8178 402.433 79.7721C397.548 63.2019 388.797 49.1566 373.961 49.1566Z"
    fill="white"
    fill-opacity="0.5"
  />
  <path
    d="M124.451 41.5C111.586 41.5 103.123 51.8058 97.7268 64.964C92.3189 78.1513 89.8979 94.4058 89.2062 106.744C88.9978 110.46 90.9168 113.995 94.2579 115.684C118.379 127.882 141.71 121.967 154.059 115.582C157.184 113.966 158.893 110.643 158.759 107.171C158.285 94.8524 156.135 78.4929 150.926 65.1953C145.729 51.9276 137.394 41.5 124.451 41.5Z"
    fill="#92C9AD"
    stroke="black"
    stroke-linecap="round"
  />
  <path
    d="M124.451 42C113.891 42 106.309 49.1167 100.966 59.195C100.258 63.1093 101.404 71.2734 111.647 72.6154C121.891 73.9575 127.681 67.3032 129.296 63.8083C132.474 69.6797 141.649 79.6612 152.923 72.6154C148.038 56.0453 139.287 42 124.451 42Z"
    fill="white"
    fill-opacity="0.5"
  />
  <ellipse cx="311.5" cy="136.5" rx="26" ry="3.5" fill="#798D9D" />
  <path
    d="M332.325 41.1169L328.091 136.992H335.652L332.325 41.1169Z"
    fill="#896736"
    stroke="black"
  />
  <path
    d="M325.671 59.5663C319.067 63.9688 312.565 64.0022 309.944 63.1957C319.603 61.7821 328.778 46.6503 332.93 39C334.123 54.4852 344.409 60.9777 348.96 61.9859C341.217 61.9859 334.644 56.3402 332.325 53.5174C332.325 53.5174 330.208 56.5419 325.671 59.5663Z"
    fill="#14653C"
    stroke="black"
  />
  <path
    d="M325.671 72.5711C318.11 77.1078 307.121 77.9143 304.5 77.1078C318.413 75.6592 328.173 65.0991 332.325 57.4488C333.518 72.934 348.355 75.2931 353.194 76.2004C337.769 77.4102 334.644 69.345 332.325 66.5222C332.325 66.5222 330.347 69.7658 325.671 72.5711Z"
    fill="#14653C"
    stroke="black"
  />
  <path
    d="M325.671 83.4594C318.11 87.9961 307.121 88.8026 304.5 87.9961C318.413 86.5475 328.173 75.9875 332.325 68.3371C333.518 83.8224 348.052 84.0643 352.891 84.9717C337.467 86.1814 334.644 80.2333 332.325 77.4105C332.325 77.4105 330.347 80.6542 325.671 83.4594Z"
    fill="#14653C"
    stroke="black"
  />
  <path
    d="M312.666 95.2548C322.586 95.2548 330.51 87.3912 333.232 83.4594C333.232 85.1733 332.204 89.5688 328.091 93.4401C323.977 97.3114 316.094 96.263 312.666 95.2548Z"
    fill="#14653C"
    stroke="black"
  />
  <path
    d="M345.935 94.0454C340.612 94.0454 335.249 89.8111 333.232 87.694C331.821 89.3071 330.026 92.8356 334.14 94.0454C338.253 95.2552 343.717 94.5495 345.935 94.0454Z"
    fill="#14653C"
    stroke="black"
  />
  <path
    d="M322.344 101.088C326.612 101.088 330.913 97.8045 332.529 96.1625C333.661 97.4135 335.1 100.15 331.802 101.088C328.504 102.027 324.123 101.479 322.344 101.088Z"
    fill="#14653C"
    stroke="black"
  />
  <path
    d="M137.062 117.988C136.899 118.168 136.89 118.439 137.04 118.63L148.159 132.838C148.202 132.893 148.255 132.938 148.316 132.971L156.346 137.295C156.456 137.354 156.584 137.37 156.705 137.34L166.589 134.869C166.772 134.823 166.914 134.677 166.955 134.492L168.191 128.932C168.205 128.867 168.207 128.8 168.195 128.734L164.488 108.349C164.45 108.14 164.285 107.978 164.075 107.945L148.632 105.474C148.464 105.447 148.295 105.507 148.181 105.633L137.062 117.988Z"
    fill="#921D64"
    stroke="black"
    stroke-linejoin="round"
  />
  <path
    d="M148.766 120.619L156.404 136.482C156.508 136.698 156.751 136.81 156.983 136.748L165.406 134.502C165.657 134.435 165.815 134.187 165.77 133.932L162.259 114.04C162.201 113.711 161.842 113.53 161.543 113.68L148.993 119.955C148.749 120.077 148.648 120.373 148.766 120.619Z"
    fill="#D55AAA"
  />
  <path
    d="M163.8 110.687L167.067 128.11C167.079 128.173 167.078 128.238 167.066 128.301L166.37 131.778C166.262 132.32 165.484 132.311 165.388 131.767L162.161 113.485C162.149 113.416 162.152 113.345 162.169 113.277L162.823 110.658C162.954 110.137 163.701 110.159 163.8 110.687Z"
    fill="#AE2A5D"
  />
  <path
    d="M148.553 119.585V107.27C148.553 106.812 147.988 106.595 147.681 106.936L138.044 117.645C137.779 117.938 137.944 118.407 138.333 118.472L147.971 120.078C148.275 120.129 148.553 119.894 148.553 119.585Z"
    fill="#BD3789"
  />
  <path
    d="M148.553 119.367V107.395C148.553 107.023 148.944 106.781 149.276 106.948L161.248 112.934C161.617 113.118 161.617 113.644 161.248 113.828L149.276 119.814C148.944 119.98 148.553 119.739 148.553 119.367Z"
    fill="#F37EC6"
  />
  <path
    d="M162.826 108.364L152.455 106.949C151.906 106.875 151.661 107.616 152.147 107.883L161.574 113.068C161.862 113.226 162.221 113.069 162.3 112.751L163.243 108.98C163.315 108.691 163.121 108.404 162.826 108.364Z"
    fill="#C73F93"
  />
  <path
    d="M149.17 119.558L160.343 113.971C160.936 113.675 161.648 114.027 161.772 114.679L163.996 126.353"
    stroke="url(#paint0_linear_0_1)"
    stroke-width="1.2"
    stroke-linecap="round"
    stroke-linejoin="round"
  />
  <path
    d="M176.612 69.005C176.449 69.1266 176.376 69.3352 176.427 69.5322L184.143 99.0992C184.185 99.2627 184.308 99.3937 184.468 99.4472C184.628 99.5007 184.805 99.4696 184.937 99.3645L198.964 88.2275C199.027 88.1772 199.078 88.1122 199.11 88.0382L201.09 83.5641C201.117 83.5032 201.131 83.4375 201.132 83.3708L201.453 65.5751C201.456 65.363 201.326 65.1716 201.127 65.0976L188.537 60.4089C188.378 60.3497 188.2 60.3751 188.064 60.4764L176.612 69.005Z"
    fill="#921D64"
    stroke="black"
    stroke-linejoin="round"
  />
  <path
    d="M186.086 73.3213L189.808 87.8473C189.868 88.0799 190.084 88.2373 190.324 88.2222L197.675 87.7603C197.934 87.744 198.137 87.5323 198.143 87.2728L198.542 70.0856C198.549 69.7513 198.233 69.5037 197.91 69.5916L186.439 72.7148C186.175 72.7866 186.018 73.0567 186.086 73.3213Z"
    fill="#D55AAA"
  />
  <path
    d="M200.404 67.7497L200.218 82.6405C200.217 82.7045 200.204 82.7677 200.179 82.8268L199.156 85.2801C198.943 85.7903 198.182 85.6287 198.194 85.0759L198.555 69.5222C198.557 69.4521 198.573 69.383 198.603 69.3196L199.452 67.5292C199.682 67.0442 200.41 67.213 200.404 67.7497Z"
    fill="#AE2A5D"
  />
  <path
    d="M186.079 72.2656L188.106 62.155C188.196 61.7057 187.685 61.382 187.317 61.6557L177.642 68.8613C177.326 69.0971 177.394 69.5896 177.763 69.7298L185.412 72.6347C185.701 72.7444 186.019 72.5685 186.079 72.2656Z"
    fill="#BD3789"
  />
  <path
    d="M186.122 72.0516L188.099 62.1915C188.172 61.827 188.603 61.6669 188.896 61.8952L197.768 68.8019C198.093 69.055 197.99 69.5706 197.592 69.6788L186.744 72.6323C186.385 72.7299 186.049 72.416 186.122 72.0516Z"
    fill="#F37EC6"
  />
  <path
    d="M199.905 65.2791L191.842 62.487C191.318 62.3056 190.932 62.9843 191.356 63.3416L198.061 68.997C198.312 69.2085 198.695 69.1254 198.835 68.8291L200.193 65.9658C200.321 65.6968 200.186 65.3765 199.905 65.2791Z"
    fill="#C73F93"
  />
  <path
    d="M186.588 72.4289L196.761 69.6591C197.401 69.4849 198.03 69.9705 198.024 70.6336L197.928 80.6554"
    stroke="url(#paint1_linear_0_1)"
    stroke-width="1.2"
    stroke-linecap="round"
    stroke-linejoin="round"
  />
  <path
    d="M212.959 114.597L191.444 116.822L143.22 132.402L134.317 159.111L249.313 169.498L278.247 162.079L279.731 156.144L268.602 127.209L212.959 114.597Z"
    fill="#BBBBBB"
    stroke="black"
    stroke-linecap="round"
    stroke-linejoin="round"
  />
  <path
    d="M212.796 114.614L194.573 116.499C193.603 116.599 193.336 117.887 194.186 118.365L203.158 123.412C203.261 123.47 203.374 123.509 203.491 123.528L254.273 131.623C254.426 131.648 254.583 131.636 254.731 131.589L265.08 128.321C266.053 128.014 265.995 126.618 265 126.393L213.119 114.633C213.013 114.609 212.904 114.602 212.796 114.614Z"
    fill="#838E97"
  />
  <path
    d="M278.247 162.079L249.313 168.756L254.506 146.499L269.344 141.305L278.247 162.079Z"
    fill="#999999"
    stroke="black"
    stroke-linecap="round"
    stroke-linejoin="round"
  />
  <path
    d="M269.344 141.305L267.86 127.95L189.96 117.564L146.187 133.144L254.506 146.498L269.344 141.305Z"
    fill="#D9D9D9"
    stroke="black"
    stroke-linecap="round"
    stroke-linejoin="round"
  />
  <path
    d="M226.313 65.6305L204.798 67.8563L193.669 106.435L264.893 131.66L266.376 90.1135L263.409 67.8563L226.313 65.6305Z"
    fill="#D9D9D9"
    stroke="black"
    stroke-linecap="round"
    stroke-linejoin="round"
  />
  <path
    d="M257.5 74.0001L205 69.5001L193.669 106.435L265.5 131L257.5 74.0001Z"
    fill="#BBBBBB"
    stroke="black"
    stroke-linecap="round"
    stroke-linejoin="round"
  />
  <path
    d="M266.376 90.1138L265.5 131.5L257.473 73.7918L263.409 70.0822L266.376 90.1138Z"
    fill="#999999"
    stroke="black"
    stroke-linecap="round"
    stroke-linejoin="round"
  />
  <path
    d="M204.056 91.5974L182.541 93.8231L175.122 130.919L245.603 139.08L264.893 130.919L259.699 104.21L204.056 91.5974Z"
    fill="#BBBBBB"
    stroke="black"
    stroke-linecap="round"
    stroke-linejoin="round"
  />
  <path
    d="M204.056 92.3397L182.541 94.5654L194.411 101.243L245.603 109.404L259.699 104.952L204.056 92.3397Z"
    fill="#D9D9D9"
    stroke="black"
    stroke-linecap="round"
    stroke-linejoin="round"
  />
  <path
    d="M264.893 129.435L245.603 138.338L248.571 110.145L258.957 105.694L264.893 129.435Z"
    fill="#999999"
    stroke="black"
    stroke-linecap="round"
    stroke-linejoin="round"
  />
  <path
    d="M175.864 129.435L212.217 133.886L207.024 168.756L170.67 164.304L175.864 129.435Z"
    fill="black"
  />
  <path
    d="M235.681 114.027L231.382 113.273C230.867 113.182 230.369 113.505 230.24 114.012L226.454 128.957C226.367 129.301 226.468 129.665 226.721 129.914L230.945 134.083C231.508 134.638 232.463 134.351 232.626 133.577L236.487 115.218C236.604 114.664 236.238 114.124 235.681 114.027Z"
    fill="#553322"
    stroke="black"
    stroke-linejoin="round"
  />
  <path
    d="M225.22 128.622L174.865 118.551C174.236 118.425 173.653 118.915 173.669 119.556L173.914 129.433C173.926 129.91 174.274 130.313 174.745 130.393L216.561 137.577C216.632 137.589 216.705 137.594 216.778 137.59L230.264 136.948C231.085 136.909 231.511 135.952 230.99 135.316L225.798 128.969C225.651 128.79 225.447 128.668 225.22 128.622Z"
    fill="#553322"
    stroke="black"
    stroke-linejoin="round"
  />
  <path
    d="M206.388 151.462L210.453 128.917C210.55 128.381 211.058 128.021 211.596 128.107L222.396 129.843C222.927 129.928 223.295 130.417 223.231 130.95L218.166 172.957C218.1 173.505 217.602 173.896 217.053 173.83L202.224 172.042C201.623 171.97 201.223 171.384 201.375 170.798L206.388 151.462Z"
    fill="#DDAA44"
    stroke="black"
    stroke-linejoin="round"
  />
  <path
    d="M157.422 142.558L161.487 120.014C161.584 119.477 162.092 119.117 162.63 119.204L173.431 120.94C173.961 121.025 174.329 121.514 174.265 122.047L169.2 164.053C169.134 164.602 168.636 164.993 168.088 164.927L153.258 163.139C152.657 163.066 152.258 162.481 152.409 161.895L157.422 142.558Z"
    fill="#DDAA44"
    stroke="black"
    stroke-linejoin="round"
  />
  <path
    d="M224.896 170.412L229.201 133.824C229.249 133.414 229.041 133.017 228.676 132.823L224.632 130.678C224.012 130.349 223.255 130.744 223.171 131.441L218.255 172.212C218.163 172.98 218.94 173.558 219.649 173.248L224.304 171.211C224.629 171.069 224.855 170.765 224.896 170.412Z"
    fill="#AA6622"
    stroke="black"
    stroke-linejoin="round"
  />
  <path
    d="M175.93 161.509L180.235 124.921C180.283 124.511 180.075 124.114 179.71 123.92L175.666 121.775C175.046 121.446 174.289 121.842 174.205 122.539L169.289 163.309C169.197 164.077 169.974 164.655 170.683 164.345L175.338 162.308C175.664 162.166 175.889 161.862 175.93 161.509Z"
    fill="#AA6622"
    stroke="black"
    stroke-linejoin="round"
  />
  <path
    d="M229.92 113.277L163.679 102.875C163.149 102.792 162.648 103.142 162.543 103.668L160.671 113.075C160.628 113.292 160.658 113.517 160.757 113.715L161.224 114.655C161.469 115.148 161.27 115.746 160.778 115.994L160.093 116.338C159.755 116.508 159.542 116.853 159.542 117.231V117.898C159.542 118.39 159.899 118.808 160.384 118.886L225.545 129.281C226.083 129.366 226.59 129.007 226.687 128.471L228.558 118.13C228.603 117.879 228.446 117.635 228.198 117.572C227.642 117.433 227.743 116.615 228.316 116.615H230.063C230.45 116.615 230.765 116.3 230.765 115.913V114.265C230.765 113.773 230.406 113.353 229.92 113.277Z"
    fill="#DDAA44"
    stroke="black"
    stroke-linecap="round"
    stroke-linejoin="round"
  />
  <path
    d="M225.571 116.822L195.153 112.37"
    stroke="black"
    stroke-linecap="round"
    stroke-linejoin="round"
  />
  <path
    d="M163.993 115.339L178.831 117.564"
    stroke="black"
    stroke-linecap="round"
    stroke-linejoin="round"
  />
  <path
    d="M130.829 148.836C130.773 148.877 130.726 148.929 130.692 148.988L127.068 155.2C126.965 155.377 126.98 155.599 127.106 155.76L136.424 167.666C136.466 167.72 136.52 167.765 136.581 167.798L143.31 171.422C143.42 171.481 143.547 171.497 143.668 171.466L151.95 169.396C152.134 169.35 152.276 169.204 152.317 169.019L153.353 164.361C153.367 164.295 153.368 164.228 153.356 164.163L150.251 147.08C150.222 146.926 150.123 146.793 149.982 146.723L143.771 143.617C143.678 143.57 143.573 143.554 143.471 143.57L136.742 144.605C136.663 144.617 136.588 144.648 136.523 144.695L130.829 148.836Z"
    fill="#A91C57"
    stroke="black"
    stroke-linejoin="round"
  />
  <path
    d="M137.031 157.449L143.367 170.609C143.472 170.825 143.715 170.937 143.947 170.875L150.868 169.03C151.119 168.963 151.277 168.715 151.232 168.46L148.322 151.972C148.264 151.642 147.905 151.462 147.606 151.611L137.258 156.785C137.014 156.907 136.913 157.203 137.031 157.449Z"
    fill="#E02D72"
  />
  <path
    d="M149.663 149.418L152.329 163.639C152.341 163.702 152.34 163.766 152.328 163.829L151.833 166.306C151.724 166.848 150.946 166.839 150.85 166.294L148.224 151.416C148.212 151.346 148.215 151.276 148.232 151.207L148.686 149.389C148.816 148.868 149.564 148.891 149.663 149.418Z"
    fill="#AE2A5D"
  />
  <path
    d="M136.735 156.34L135.851 149.268C135.814 148.976 135.534 148.778 135.246 148.842L131.326 149.713C131.196 149.742 131.084 149.821 131.012 149.933L127.906 154.815C127.713 155.117 127.892 155.518 128.245 155.577L136.156 156.895C136.486 156.95 136.776 156.672 136.735 156.34Z"
    fill="#D71243"
  />
  <path
    d="M136.73 156.304L135.829 149.096C135.801 148.875 135.923 148.662 136.128 148.575L142.702 145.757C142.898 145.673 143.126 145.723 143.269 145.881L147.762 150.823C147.985 151.068 147.912 151.458 147.616 151.606L137.45 156.689C137.141 156.843 136.773 156.646 136.73 156.304Z"
    fill="#FC8AA7"
  />
  <path
    d="M133.47 149.237L135.737 148.733C135.767 148.726 135.797 148.717 135.825 148.704L142.726 145.747C142.91 145.668 143.029 145.487 143.029 145.287V145.172C143.029 144.863 142.752 144.628 142.447 144.679L136.934 145.598C136.858 145.61 136.785 145.641 136.722 145.686L133.068 148.344C132.629 148.663 132.941 149.354 133.47 149.237Z"
    fill="#BF1131"
  />
  <path
    d="M148.844 147.004L143.722 144.87C143.392 144.733 143.029 144.975 143.029 145.332V145.424C143.029 145.548 143.076 145.668 143.159 145.76L147.577 150.62C147.846 150.915 148.336 150.792 148.432 150.405L149.137 147.587C149.197 147.347 149.072 147.1 148.844 147.004Z"
    fill="#AF1043"
  />
  <path
    d="M137.335 156.488L146.506 151.903C147.099 151.606 147.811 151.958 147.935 152.61L149.759 162.182"
    stroke="url(#paint2_linear_0_1)"
    stroke-width="1.2"
    stroke-linecap="round"
    stroke-linejoin="round"
  />
  <path
    d="M187.239 105.023C187.27 105.236 187.433 105.405 187.645 105.444L203.967 108.411C204.163 108.447 204.362 108.363 204.472 108.197L208.775 101.742H214.443C214.672 101.742 214.872 101.586 214.928 101.364L218.637 86.5255C218.673 86.3819 218.644 86.2298 218.557 86.1101L212.621 77.9491C212.539 77.8354 212.412 77.7618 212.272 77.7463L192.241 75.5206C192.082 75.5029 191.923 75.5626 191.816 75.6812L184.397 83.8422C184.296 83.9524 184.25 84.1017 184.272 84.2492L187.239 105.023Z"
    fill="#921D64"
    stroke="black"
    stroke-linejoin="round"
  />
  <path
    d="M201.21 88.3794L217.314 86.979C218.089 86.9116 218.494 86.0238 218.036 85.3946L212.751 78.1276C212.586 77.9002 212.332 77.753 212.053 77.7219L192.494 75.5487C192.176 75.5133 191.86 75.6328 191.644 75.8699L184.973 83.2081C184.458 83.7747 184.745 84.6863 185.491 84.856L200.901 88.3583C201.002 88.3812 201.106 88.3884 201.21 88.3794Z"
    fill="#F896CB"
    stroke="black"
    stroke-linejoin="round"
  />
  <path
    d="M201.088 77.9249V87.2616C201.088 87.5825 200.791 87.8203 200.478 87.7492L185.602 84.3684C185.229 84.2835 185.085 83.8278 185.343 83.5445L192.002 76.2192C192.117 76.0935 192.287 76.0344 192.454 76.0623L200.671 77.4317C200.912 77.4719 201.088 77.6805 201.088 77.9249Z"
    fill="#C53382"
  />
  <path
    d="M203.722 107.845L197.853 106.541C197.589 106.482 197.42 106.224 197.471 105.958L201.014 87.5338C201.058 87.3064 201.252 87.1387 201.483 87.1287L217.483 86.433C217.817 86.4185 218.071 86.7295 217.99 87.0538L214.538 100.863C214.482 101.086 214.282 101.242 214.052 101.242H208.775C208.608 101.242 208.452 101.326 208.359 101.465L204.246 107.634C204.132 107.806 203.923 107.89 203.722 107.845Z"
    fill="#D5429C"
  />
  <path
    d="M188.101 105.008L196.903 106.363C197.169 106.403 197.419 106.227 197.47 105.963L200.993 87.6422C201.046 87.3691 200.865 87.1056 200.592 87.0559L185.449 84.3027C185.113 84.2417 184.816 84.5275 184.865 84.8654L187.682 104.585C187.713 104.803 187.883 104.975 188.101 105.008Z"
    fill="#921D64"
  />
  <path
    d="M216.669 86.3535L200.894 86.3536M200.894 86.3536L197.38 105.694M200.894 86.3536L200.894 78.2434"
    stroke="url(#paint3_linear_0_1)"
    stroke-width="1.2"
    stroke-linecap="round"
    stroke-linejoin="round"
  />
  <path
    d="M197.801 163.539C197.639 163.719 197.63 163.99 197.779 164.182L205.214 173.682C205.257 173.736 205.31 173.781 205.371 173.814L210.74 176.705C210.85 176.764 210.978 176.78 211.099 176.75L217.707 175.098C217.891 175.052 218.033 174.906 218.074 174.721L218.9 171.004C218.915 170.939 218.916 170.871 218.904 170.806L216.426 157.175C216.388 156.967 216.222 156.805 216.013 156.771L205.687 155.119C205.519 155.092 205.35 155.152 205.236 155.278L197.801 163.539Z"
    fill="#921D64"
    stroke="black"
    stroke-linejoin="round"
  />
  <path
    d="M205.822 165.557L210.798 175.892C210.902 176.108 211.145 176.22 211.377 176.158L216.73 174.731C216.98 174.664 217.138 174.417 217.093 174.161L214.811 161.23C214.753 160.9 214.394 160.72 214.095 160.869L206.049 164.893C205.804 165.015 205.703 165.311 205.822 165.557Z"
    fill="#D55AAA"
  />
  <path
    d="M215.942 159.514L217.981 170.387C217.993 170.45 217.993 170.515 217.98 170.578L217.694 172.008C217.585 172.55 216.807 172.541 216.711 171.997L214.713 160.675C214.701 160.606 214.703 160.535 214.72 160.466L214.966 159.485C215.096 158.964 215.843 158.987 215.942 159.514Z"
    fill="#AE2A5D"
  />
  <path
    d="M205.608 164.522V156.916C205.608 156.457 205.043 156.241 204.736 156.581L198.783 163.196C198.519 163.489 198.683 163.959 199.073 164.023L205.026 165.016C205.33 165.066 205.608 164.831 205.608 164.522Z"
    fill="#BD3789"
  />
  <path
    d="M205.608 164.303V156.834C205.608 156.463 205.999 156.221 206.332 156.387L213.8 160.122C214.169 160.306 214.169 160.832 213.8 161.016L206.332 164.75C205.999 164.917 205.608 164.675 205.608 164.303Z"
    fill="#F37EC6"
  />
  <path
    d="M214.968 157.189L209.101 156.389C208.552 156.314 208.307 157.055 208.793 157.323L214.126 160.256C214.413 160.414 214.773 160.257 214.852 159.939L215.385 157.806C215.458 157.517 215.263 157.229 214.968 157.189Z"
    fill="#C73F93"
  />
  <path
    d="M206.021 164.7L213.099 161.161C213.693 160.864 214.405 161.216 214.529 161.868L215.934 169.243"
    stroke="url(#paint4_linear_0_1)"
    stroke-width="1.2"
    stroke-linecap="round"
    stroke-linejoin="round"
  />
  <path
    d="M212.129 177.297C212.129 177.487 212.236 177.66 212.406 177.744L217.569 180.326C217.638 180.361 217.715 180.379 217.792 180.379H228.118C228.261 180.379 228.397 180.318 228.492 180.211L232.622 175.564C232.754 175.416 232.786 175.205 232.704 175.025L230.122 169.346C230.065 169.219 229.957 169.122 229.825 169.078L222.081 166.497C221.97 166.46 221.85 166.463 221.742 166.505L212.448 170.119C212.256 170.194 212.129 170.379 212.129 170.585V177.297Z"
    fill="#F57EC3"
    stroke="black"
    stroke-linejoin="round"
  />
  <path
    d="M213.372 177.669L217.254 179.61C217.534 179.75 217.872 179.601 217.958 179.3L218.72 176.634C218.782 176.416 218.69 176.184 218.496 176.068L216.525 174.885C216.354 174.782 216.139 174.791 215.977 174.907L213.305 176.815C212.999 177.034 213.035 177.501 213.372 177.669Z"
    fill="#EA2978"
  />
  <path
    d="M227.36 179.879H218.455C218.123 179.879 217.883 179.561 217.975 179.241L218.721 176.627C218.783 176.413 218.979 176.265 219.202 176.265H226.24C226.44 176.265 226.621 176.384 226.699 176.568L227.82 179.182C227.961 179.512 227.719 179.879 227.36 179.879Z"
    fill="#FAC7EA"
  />
  <path
    d="M228.642 179.29L231.936 175.584C232.112 175.387 232.103 175.086 231.916 174.899L230.511 173.494C230.326 173.309 230.031 173.298 229.832 173.468L226.848 176.026C226.683 176.168 226.628 176.401 226.714 176.602L227.808 179.155C227.953 179.492 228.398 179.564 228.642 179.29Z"
    fill="#F178C2"
  />
  <path
    d="M229.795 169.833L231.792 174.228C231.885 174.431 231.626 174.61 231.469 174.452L230.252 173.235C230.207 173.19 230.171 173.137 230.146 173.079L228.92 170.219C228.785 169.904 229.017 169.553 229.36 169.553C229.547 169.553 229.717 169.663 229.795 169.833Z"
    fill="#DF399A"
  />
  <path
    d="M212.629 176.326V170.995C212.629 170.757 212.798 170.552 213.031 170.505L214.731 170.165C214.998 170.112 215.258 170.281 215.317 170.547L216.172 174.393C216.215 174.589 216.138 174.792 215.974 174.908L213.42 176.733C213.089 176.969 212.629 176.732 212.629 176.326Z"
    fill="#D52C6B"
  />
  <path
    d="M216.244 174.716L218.825 176.265M218.825 176.265H226.57M218.825 176.265L217.793 179.879M226.57 176.265L230.184 173.167M226.57 176.265L228.118 179.879"
    stroke="url(#paint5_linear_0_1)"
    stroke-width="1.2"
    stroke-linecap="round"
    stroke-linejoin="round"
  />
  <path
    d="M184.249 178.439C184.249 178.629 184.356 178.802 184.526 178.887L190.776 182.012C190.845 182.046 190.922 182.064 190.999 182.064H203.499C203.642 182.064 203.778 182.003 203.873 181.897L208.873 176.272C209.004 176.124 209.036 175.913 208.954 175.733L205.829 168.858C205.772 168.731 205.664 168.634 205.532 168.59L196.157 165.465C196.047 165.428 195.927 165.431 195.818 165.474L184.568 169.849C184.376 169.923 184.249 170.108 184.249 170.315V178.439Z"
    fill="#F57EC3"
    stroke="black"
    stroke-linejoin="round"
  />
  <path
    d="M185.492 178.811L190.46 181.295C190.74 181.435 191.079 181.286 191.165 180.985L192.144 177.558C192.206 177.341 192.114 177.108 191.92 176.992L189.405 175.483C189.235 175.381 189.02 175.389 188.858 175.505L185.425 177.957C185.119 178.176 185.155 178.642 185.492 178.811Z"
    fill="#EA2978"
  />
  <path
    d="M202.741 181.564H191.662C191.33 181.564 191.09 181.246 191.181 180.927L192.146 177.552C192.207 177.337 192.403 177.189 192.626 177.189H201.294C201.495 177.189 201.675 177.308 201.754 177.492L203.2 180.867C203.342 181.197 203.1 181.564 202.741 181.564Z"
    fill="#FAC7EA"
  />
  <path
    d="M204.022 180.976L208.186 176.292C208.362 176.094 208.353 175.793 208.166 175.606L206.327 173.767C206.142 173.582 205.846 173.571 205.648 173.741L201.903 176.95C201.737 177.093 201.683 177.326 201.769 177.527L203.189 180.841C203.333 181.177 203.779 181.25 204.022 180.976Z"
    fill="#F178C2"
  />
  <path
    d="M205.507 169.358L208.043 174.935C208.135 175.138 207.877 175.317 207.719 175.16L206.067 173.508C206.022 173.463 205.986 173.41 205.961 173.351L204.423 169.762C204.281 169.432 204.523 169.065 204.882 169.065H205.052C205.248 169.065 205.426 169.179 205.507 169.358Z"
    fill="#DF399A"
  />
  <path
    d="M184.749 177.468V170.724C184.749 170.486 184.918 170.281 185.151 170.234L187.394 169.785C187.661 169.732 187.922 169.902 187.981 170.167L189.053 174.991C189.096 175.187 189.018 175.39 188.855 175.507L185.54 177.875C185.209 178.111 184.749 177.874 184.749 177.468Z"
    fill="#D52C6B"
  />
  <path
    d="M189.124 175.315L192.249 177.19M192.249 177.19H201.624M192.249 177.19L190.999 181.564M201.624 177.19L205.999 173.44M201.624 177.19L203.499 181.564"
    stroke="url(#paint6_linear_0_1)"
    stroke-width="1.2"
    stroke-linecap="round"
    stroke-linejoin="round"
  />
  <path
    d="M76.0472 140.178C70.5018 141.421 71.1693 148.362 72.1963 151.677C72.1963 153.645 74.4041 157.643 83.2356 157.892C92.067 158.141 91.023 149.501 89.3971 145.15C87.2577 142.975 81.5925 138.935 76.0472 140.178Z"
    fill="#999999"
    stroke="black"
    stroke-linecap="round"
    stroke-linejoin="round"
  />
  <path
    d="M76.0472 140.178C70.5018 141.421 71.1693 148.362 72.1963 151.677C75.4482 152.713 83.441 152.858 89.3971 145.15C87.2577 142.975 81.5925 138.935 76.0472 140.178Z"
    fill="#D9D9D9"
    stroke="black"
    stroke-linecap="round"
    stroke-linejoin="round"
  />
  <path
    d="M86.6963 155.243C85.755 150.582 86.4396 139.829 96.7088 134.11C106.978 128.392 117.761 129.863 121.868 131.313C124.008 132.867 128.235 138.088 128.03 146.542C127.834 154.575 123.187 158.836 117.247 159.461C97.7356 165.819 88.7501 159.298 86.6963 155.243Z"
    fill="#D9D9D9"
  />
  <path
    d="M121.868 131.313C117.761 129.863 106.978 128.392 96.7088 134.11C86.4396 139.829 85.755 150.582 86.6963 155.243C88.7501 159.298 97.7356 165.819 117.247 159.461M121.868 131.313C124.008 132.867 128.235 138.088 128.03 146.542C127.834 154.575 123.187 158.836 117.247 159.461M121.868 131.313C114.68 134.421 106.208 141.569 103.64 146.542C101.073 151.514 102.87 156.797 111.342 158.973C113.373 159.494 115.374 159.658 117.247 159.461"
    stroke="black"
    stroke-linecap="round"
    stroke-linejoin="round"
  />
  <path
    d="M121.868 131.313C124.007 132.867 128.235 138.088 128.03 146.542C127.834 154.575 123.187 158.836 117.247 159.461C97.7355 165.819 88.75 159.298 86.6962 155.243C90.2924 155.036 98.5109 154 102.616 151.514C102.41 149.907 102.78 148.207 103.64 146.542C106.208 141.569 114.68 134.421 121.868 131.313Z"
    fill="#676767"
  />
  <path
    d="M117.247 159.461C123.187 158.836 127.834 154.575 128.03 146.542C128.235 138.088 124.007 132.867 121.868 131.313C114.68 134.421 106.208 141.569 103.64 146.542C102.78 148.207 102.41 149.907 102.616 151.514M117.247 159.461C115.374 159.658 113.373 159.494 111.342 158.973C105.708 157.526 103.026 154.704 102.616 151.514M117.247 159.461C97.7355 165.819 88.75 159.298 86.6962 155.243C90.2924 155.036 98.5109 154 102.616 151.514"
    stroke="black"
    stroke-linecap="round"
    stroke-linejoin="round"
  />
  <path
    d="M128.03 146.542C128.235 138.088 124.008 132.867 121.868 131.313C114.68 134.421 106.208 141.569 103.64 146.542C101.073 151.514 102.87 156.797 111.342 158.973C113.373 159.494 115.374 159.658 117.247 159.461C123.187 158.836 127.834 154.575 128.03 146.542Z"
    fill="#999999"
    stroke="black"
    stroke-linecap="round"
    stroke-linejoin="round"
  />
  <defs>
    <linearGradient
      id="paint0_linear_0_1"
      x1="156.583"
      y1="113.38"
      x2="156.583"
      y2="126.353"
      gradientUnits="userSpaceOnUse"
    >
      <stop stop-color="white" />
      <stop offset="1" stop-color="white" stop-opacity="0" />
    </linearGradient>
    <linearGradient
      id="paint1_linear_0_1"
      x1="193.874"
      y1="68.4775"
      x2="191.684"
      y2="79.4038"
      gradientUnits="userSpaceOnUse"
    >
      <stop stop-color="white" />
      <stop offset="1" stop-color="white" stop-opacity="0" />
    </linearGradient>
    <linearGradient
      id="paint2_linear_0_1"
      x1="143.547"
      y1="151.312"
      x2="143.547"
      y2="162.182"
      gradientUnits="userSpaceOnUse"
    >
      <stop stop-color="white" />
      <stop offset="1" stop-color="white" stop-opacity="0" />
    </linearGradient>
    <linearGradient
      id="paint3_linear_0_1"
      x1="195.074"
      y1="85.1866"
      x2="192.012"
      y2="100.463"
      gradientUnits="userSpaceOnUse"
    >
      <stop stop-color="white" />
      <stop offset="1" stop-color="white" stop-opacity="0" />
    </linearGradient>
    <linearGradient
      id="paint4_linear_0_1"
      x1="210.977"
      y1="160.57"
      x2="210.977"
      y2="169.243"
      gradientUnits="userSpaceOnUse"
    >
      <stop stop-color="white" />
      <stop offset="1" stop-color="white" stop-opacity="0" />
    </linearGradient>
    <linearGradient
      id="paint5_linear_0_1"
      x1="223.214"
      y1="173.167"
      x2="223.214"
      y2="179.879"
      gradientUnits="userSpaceOnUse"
    >
      <stop stop-color="white" />
      <stop offset="1" stop-color="white" stop-opacity="0" />
    </linearGradient>
    <linearGradient
      id="paint6_linear_0_1"
      x1="197.562"
      y1="173.44"
      x2="197.562"
      y2="181.564"
      gradientUnits="userSpaceOnUse"
    >
      <stop stop-color="white" />
      <stop offset="1" stop-color="white" stop-opacity="0" />
    </linearGradient>
  </defs>
</svg>