<svg width="504" height="237" viewBox="0 0 504 237" fill="none" xmlns="http://www.w3.org/2000/svg">
<g filter="url(#filter0_d_31513_10137)">
<path d="M71.2163 127.228L27.7056 78.8225C16.5145 66.3723 24.6583 46.5034 41.3682 45.4892L173 37.5H439.401C446.305 37.5 452.72 41.0601 456.372 46.918L488.186 97.9392C495.586 109.808 488.83 125.414 475.11 128.138L292.428 164.418C290.487 164.804 288.613 165.476 286.869 166.411L179.75 223.879C175.404 226.21 170.35 226.854 165.558 225.686L75.5524 203.742C63.3398 200.765 56.8692 187.392 62.1131 175.968L74.5187 148.941C77.846 141.693 76.5482 133.16 71.2163 127.228Z" fill="#FAED8C"/>
<path d="M71.2163 127.228L27.7056 78.8225C16.5145 66.3723 24.6583 46.5034 41.3682 45.4892L173 37.5H439.401C446.305 37.5 452.72 41.0601 456.372 46.918L488.186 97.9392C495.586 109.808 488.83 125.414 475.11 128.138L292.428 164.418C290.487 164.804 288.613 165.476 286.869 166.411L179.75 223.879C175.404 226.21 170.35 226.854 165.558 225.686L75.5524 203.742C63.3398 200.765 56.8692 187.392 62.1131 175.968L74.5187 148.941C77.846 141.693 76.5482 133.16 71.2163 127.228Z" stroke="black" stroke-linecap="round"/>
</g>
<ellipse cx="119.5" cy="101.668" rx="58" ry="10.5" fill="black" fill-opacity="0.25"/>
<path fill-rule="evenodd" clip-rule="evenodd" d="M361.585 99.1856C362.835 98.3284 363.5 97.4283 363.5 96.5C363.5 90.701 337.533 86 305.5 86C273.467 86 247.5 90.701 247.5 96.5C247.5 102.299 273.467 107 305.5 107C309.231 107 312.88 106.936 316.415 106.814C315.165 107.672 314.5 108.572 314.5 109.5C314.5 115.299 340.467 120 372.5 120C404.533 120 430.5 115.299 430.5 109.5C430.5 103.701 404.533 99 372.5 99C368.769 99 365.12 99.0638 361.585 99.1856Z" fill="black" fill-opacity="0.25"/>
<path d="M345.901 0.805664C328.795 0.805664 317.622 14.7582 310.559 32.4899C303.482 50.2542 300.434 72.0253 299.679 88.1227C299.504 91.8392 301.429 95.3601 304.729 97.1108C337.89 114.704 370.162 105.809 386.177 97.0203C389.252 95.3328 390.962 92.0314 390.858 88.5593C390.377 72.492 387.684 50.6134 380.875 32.7336C374.079 14.8873 363.087 0.805664 345.901 0.805664Z" fill="#92C9AD" stroke="black" stroke-linecap="round"/>
<path d="M345.901 1.30566C332.032 1.30566 322.075 10.652 315.058 23.8876C314.129 29.0283 315.634 39.7501 329.086 41.5126C342.538 43.2751 350.143 34.536 352.264 29.9462C356.438 37.6571 368.487 50.7657 383.293 41.5126C376.878 19.7512 365.385 1.30566 345.901 1.30566Z" fill="white" fill-opacity="0.5"/>
<path d="M401.988 47.5C391.432 47.5 384.446 55.8247 379.959 66.4958C375.462 77.1931 373.385 90.4409 372.73 100.712C372.493 104.427 374.411 107.989 377.788 109.625C396.997 118.928 415.485 114.573 425.772 109.513C428.936 107.956 430.649 104.619 430.49 101.147C430.021 90.8879 428.17 77.5332 423.834 66.7256C419.51 55.945 412.621 47.5 401.988 47.5Z" fill="#92C9AD" stroke="black" stroke-linecap="round"/>
<path d="M401.988 48C393.23 48 386.941 53.9025 382.509 62.2612C381.923 65.5077 382.873 72.2789 391.369 73.392C399.864 74.505 404.667 68.9861 406.006 66.0874C408.642 70.9571 416.252 79.2356 425.602 73.392C421.551 59.649 414.293 48 401.988 48Z" fill="white" fill-opacity="0.5"/>
<path d="M146.451 29.5C133.586 29.5 125.123 39.8058 119.727 52.964C114.319 66.1513 111.898 82.4058 111.206 94.744C110.998 98.4605 112.917 101.995 116.258 103.684C140.379 115.882 163.71 109.967 176.059 103.582C179.184 101.966 180.893 98.6433 180.759 95.171C180.285 82.8524 178.135 66.4929 172.926 53.1953C167.729 39.9276 159.394 29.5 146.451 29.5Z" fill="#92C9AD" stroke="black" stroke-linecap="round"/>
<path d="M146.451 30C135.891 30 128.309 37.1167 122.966 47.195C122.258 51.1093 123.404 59.2734 133.647 60.6154C143.891 61.9575 149.681 55.3032 151.296 51.8083C154.474 57.6797 163.649 67.6612 174.923 60.6154C170.038 44.0453 161.287 30 146.451 30Z" fill="white" fill-opacity="0.5"/>
<ellipse cx="333.5" cy="124.5" rx="26" ry="3.5" fill="black" fill-opacity="0.25"/>
<path d="M354.325 29.1167L350.091 124.992H357.652L354.325 29.1167Z" fill="#896736" stroke="black"/>
<path d="M347.671 47.5663C341.067 51.9688 334.565 52.0022 331.944 51.1957C341.603 49.7821 350.778 34.6503 354.93 27C356.123 42.4852 366.409 48.9777 370.959 49.9859C363.217 49.9859 356.644 44.3402 354.325 41.5174C354.325 41.5174 352.208 44.5419 347.671 47.5663Z" fill="#14653C" stroke="black"/>
<path d="M347.671 60.571C340.11 65.1077 329.121 65.9142 326.5 65.1077C340.413 63.6591 350.173 53.0991 354.325 45.4487C355.518 60.934 370.355 63.293 375.194 64.2004C359.769 65.4102 356.644 57.3449 354.325 54.5221C354.325 54.5221 352.347 57.7658 347.671 60.571Z" fill="#14653C" stroke="black"/>
<path d="M347.671 71.4592C340.11 75.9959 329.121 76.8024 326.5 75.9959C340.413 74.5473 350.173 63.9872 354.325 56.3369C355.518 71.8221 370.052 72.0641 374.891 72.9714C359.467 74.1812 356.644 68.2331 354.325 65.4103C354.325 65.4103 352.347 68.654 347.671 71.4592Z" fill="#14653C" stroke="black"/>
<path d="M334.666 83.2549C344.586 83.2549 352.51 75.3913 355.232 71.4595C355.232 73.1733 354.204 77.5689 350.091 81.4402C345.977 85.3115 338.094 84.263 334.666 83.2549Z" fill="#14653C" stroke="black"/>
<path d="M367.935 82.0452C362.612 82.0452 357.249 77.811 355.232 75.6938C353.821 77.3069 352.026 80.8354 356.14 82.0452C360.253 83.255 365.717 82.5493 367.935 82.0452Z" fill="#14653C" stroke="black"/>
<path d="M344.344 89.0886C348.612 89.0886 352.913 85.8046 354.529 84.1626C355.661 85.4136 357.1 88.1503 353.802 89.0886C350.504 90.0268 346.123 89.4795 344.344 89.0886Z" fill="#14653C" stroke="black"/>
<path d="M173.93 112.058C173.973 112.112 174.026 112.157 174.087 112.19L183.556 117.289C183.666 117.348 183.794 117.364 183.915 117.334L195.569 114.42C195.753 114.374 195.895 114.228 195.936 114.043L197.393 107.488C197.407 107.423 197.408 107.355 197.396 107.29L193.026 83.2528C192.988 83.0441 192.823 82.8821 192.613 82.8486L174.403 79.935C174.236 79.9082 174.066 79.9681 173.953 80.0942L160.841 94.6621C160.679 94.8426 160.67 95.1136 160.819 95.3048L173.93 112.058Z" fill="#921D64" stroke="black" stroke-linejoin="round"/>
<path d="M174.538 97.6271L183.614 116.477C183.718 116.693 183.961 116.805 184.193 116.743L194.276 114.055C194.527 113.988 194.684 113.74 194.639 113.485L190.465 89.831C190.407 89.5017 190.048 89.3211 189.749 89.4707L174.765 96.9629C174.52 97.0851 174.419 97.3809 174.538 97.6271Z" fill="#D55AAA"/>
<path d="M192.227 85.5885L196.158 106.553C196.169 106.616 196.169 106.681 196.156 106.743L195.24 111.328C195.131 111.87 194.353 111.861 194.257 111.316L190.367 89.2719C190.355 89.2027 190.357 89.1318 190.374 89.0637L191.25 85.5594C191.38 85.0387 192.128 85.061 192.227 85.5885Z" fill="#AE2A5D"/>
<path d="M174.324 96.5916V81.7317C174.324 81.2734 173.759 81.0566 173.453 81.3972L161.823 94.3188C161.559 94.6123 161.723 95.0816 162.113 95.1465L173.742 97.0848C174.047 97.1356 174.324 96.9005 174.324 96.5916Z" fill="#BD3789"/>
<path d="M174.324 96.3719V81.9653C174.324 81.5936 174.715 81.3518 175.048 81.5181L189.454 88.7214C189.823 88.9056 189.823 89.4315 189.454 89.6158L175.048 96.8191C174.715 96.9854 174.324 96.7436 174.324 96.3719Z" fill="#F37EC6"/>
<path d="M191.253 83.266L178.448 81.5199C177.899 81.4451 177.654 82.1864 178.139 82.4535L189.78 88.8558C190.067 89.0139 190.426 88.8572 190.506 88.539L191.67 83.8827C191.742 83.5939 191.548 83.3063 191.253 83.266Z" fill="#C73F93"/>
<path d="M175.052 96.4548L188.437 89.762C189.031 89.4654 189.743 89.8179 189.867 90.4693L192.533 104.467" stroke="url(#paint0_linear_31513_10137)" stroke-width="1.2" stroke-linecap="round" stroke-linejoin="round"/>
<path d="M216.376 72.3064C216.419 72.47 216.541 72.6009 216.701 72.6545C216.862 72.708 217.038 72.6769 217.171 72.5718L233.71 59.4398C233.773 59.3895 233.824 59.3245 233.856 59.2505L236.19 53.975C236.217 53.914 236.232 53.8483 236.233 53.7817L236.61 32.7982C236.614 32.5861 236.484 32.3947 236.285 32.3207L221.439 26.792C221.28 26.7328 221.102 26.7583 220.966 26.8596L207.464 36.9159C207.3 37.0375 207.227 37.2461 207.278 37.4431L216.376 72.3064Z" fill="#921D64" stroke="black" stroke-linejoin="round"/>
<path d="M218.558 41.8482L222.988 59.1336C223.048 59.3661 223.264 59.5235 223.504 59.5085L232.327 58.9539C232.586 58.9377 232.79 58.726 232.796 58.4665L233.27 37.9983C233.278 37.664 232.962 37.4165 232.639 37.5043L218.911 41.2417C218.647 41.3134 218.49 41.5836 218.558 41.8482Z" fill="#D55AAA"/>
<path d="M235.468 34.9545L235.243 52.9399C235.243 53.0039 235.23 53.0672 235.205 53.1262L233.808 56.4741C233.595 56.9844 232.834 56.8228 232.847 56.27L233.283 37.4354C233.285 37.3652 233.301 37.2961 233.332 37.2327L234.516 34.734C234.746 34.2491 235.475 34.4179 235.468 34.9545Z" fill="#AE2A5D"/>
<path d="M218.552 40.7924L221.009 28.5382C221.099 28.0889 220.587 27.7652 220.22 28.0389L208.494 36.7722C208.177 37.008 208.246 37.5005 208.615 37.6407L217.885 41.1616C218.173 41.2713 218.492 41.0954 218.552 40.7924Z" fill="#BD3789"/>
<path d="M218.595 40.5788L220.983 28.6682C221.056 28.3038 221.487 28.1436 221.78 28.372L232.497 36.7149C232.822 36.968 232.718 37.4836 232.321 37.5919L219.216 41.1595C218.858 41.2571 218.522 40.9432 218.595 40.5788Z" fill="#F37EC6"/>
<path d="M234.97 32.4827L224.913 29C224.389 28.8186 224.003 29.4973 224.427 29.8546L232.79 36.9089C233.041 37.1204 233.424 37.0373 233.564 36.741L235.258 33.1694C235.386 32.9004 235.251 32.5802 234.97 32.4827Z" fill="#C73F93"/>
<path d="M219.172 40.8821L231.397 37.554C232.037 37.3798 232.666 37.8653 232.66 38.5285L232.544 50.5822" stroke="url(#paint1_linear_31513_10137)" stroke-width="1.2" stroke-linecap="round" stroke-linejoin="round"/>
<path d="M250.267 90.6021L224.898 93.2265L168.035 111.597L157.537 143.09L293.132 155.338L327.25 146.59L329 139.591L315.877 105.474L250.267 90.6021Z" fill="#BBBBBB" stroke="black" stroke-linecap="round" stroke-linejoin="round"/>
<path d="M250.103 90.619L228.027 92.9027C227.057 93.0031 226.79 94.2908 227.64 94.769L238.738 101.012C238.842 101.07 238.954 101.109 239.071 101.128L299.023 110.685C299.176 110.71 299.333 110.698 299.481 110.651L312.355 106.586C313.328 106.279 313.27 104.883 312.275 104.657L250.427 90.6384C250.321 90.6143 250.212 90.6078 250.103 90.619Z" fill="#838E97"/>
<path d="M327.25 146.587L293.133 154.461L299.257 128.216L316.753 122.093L327.25 146.587Z" fill="#999999" stroke="black" stroke-linecap="round" stroke-linejoin="round"/>
<path d="M316.753 122.091L315.003 106.345L223.149 94.0977L171.535 112.469L299.257 128.215L316.753 122.091Z" fill="#D9D9D9" stroke="black" stroke-linecap="round" stroke-linejoin="round"/>
<path d="M266.013 32.8613L240.644 35.4857L227.522 80.9757L311.503 110.719L313.253 61.73L309.754 35.4857L266.013 32.8613Z" fill="#D9D9D9" stroke="black" stroke-linecap="round" stroke-linejoin="round"/>
<path d="M302.788 42.7319L240.883 37.4258L227.523 80.9772L312.221 109.942L302.788 42.7319Z" fill="#BBBBBB" stroke="black" stroke-linecap="round" stroke-linejoin="round"/>
<path d="M313.254 61.7321L312.22 110.532L302.756 42.4863L309.754 38.1123L313.254 61.7321Z" fill="#999999" stroke="black" stroke-linecap="round" stroke-linejoin="round"/>
<path d="M239.77 63.4819L214.401 66.1064L205.653 109.847L288.759 119.47L311.504 109.847L305.381 78.3536L239.77 63.4819Z" fill="#BBBBBB" stroke="black" stroke-linecap="round" stroke-linejoin="round"/>
<path d="M239.77 64.3569L214.401 66.9814L228.397 74.8546L288.759 84.4775L305.38 79.2287L239.77 64.3569Z" fill="#D9D9D9" stroke="black" stroke-linecap="round" stroke-linejoin="round"/>
<path d="M311.504 108.099L288.76 118.596L292.259 85.3538L304.506 80.105L311.504 108.099Z" fill="#999999" stroke="black" stroke-linecap="round" stroke-linejoin="round"/>
<path d="M206.527 108.095L249.392 113.344L243.269 154.46L200.403 149.211L206.527 108.095Z" fill="black"/>
<path d="M277.242 89.9606L271.826 89.0105C271.311 88.92 270.813 89.2425 270.684 89.7499L266.154 107.633C266.067 107.977 266.168 108.341 266.421 108.59L271.708 113.808C272.271 114.363 273.226 114.076 273.389 113.302L278.048 91.1514C278.164 90.598 277.799 90.0583 277.242 89.9606Z" fill="#553322" stroke="black" stroke-linejoin="round"/>
<path d="M264.788 107.149L205.13 95.2171C204.501 95.0913 203.918 95.5815 203.934 96.2225L204.233 108.239C204.245 108.717 204.592 109.119 205.063 109.2L254.534 117.698C254.606 117.71 254.678 117.715 254.751 117.711L271.028 116.936C271.849 116.897 272.275 115.94 271.755 115.304L265.366 107.496C265.219 107.317 265.015 107.194 264.788 107.149Z" fill="#553322" stroke="black" stroke-linejoin="round"/>
<path d="M242.519 134.07L247.344 107.314C247.44 106.778 247.948 106.418 248.486 106.504L261.565 108.607C262.095 108.692 262.464 109.181 262.399 109.714L256.385 159.594C256.319 160.142 255.821 160.533 255.273 160.467L237.405 158.313C236.805 158.24 236.405 157.655 236.557 157.069L242.519 134.07Z" fill="#DDAA44" stroke="black" stroke-linejoin="round"/>
<path d="M184.782 123.568L189.606 96.8123C189.703 96.276 190.211 95.9159 190.749 96.0024L203.828 98.1047C204.358 98.1899 204.726 98.6786 204.662 99.2117L198.648 149.092C198.582 149.64 198.084 150.031 197.536 149.965L179.668 147.811C179.067 147.739 178.668 147.153 178.82 146.567L184.782 123.568Z" fill="#DDAA44" stroke="black" stroke-linejoin="round"/>
<path d="M264.331 156.516L269.433 113.15C269.481 112.74 269.272 112.343 268.908 112.15L263.8 109.44C263.18 109.111 262.423 109.507 262.339 110.204L256.474 158.848C256.382 159.616 257.159 160.194 257.868 159.884L263.738 157.316C264.064 157.173 264.289 156.869 264.331 156.516Z" fill="#AA6622" stroke="black" stroke-linejoin="round"/>
<path d="M206.593 146.019L211.695 102.653C211.744 102.243 211.535 101.846 211.171 101.653L206.063 98.9431C205.443 98.6141 204.686 99.0098 204.602 99.7068L198.737 148.351C198.644 149.119 199.422 149.697 200.131 149.386L206.001 146.818C206.327 146.676 206.552 146.372 206.593 146.019Z" fill="#AA6622" stroke="black" stroke-linejoin="round"/>
<path d="M270.418 89.0676L191.99 76.752C191.46 76.6688 190.959 77.0185 190.854 77.5447L188.601 88.8654C188.558 89.0825 188.588 89.3078 188.687 89.506L189.344 90.8279C189.59 91.321 189.39 91.9196 188.898 92.1669L187.832 92.7025C187.494 92.8723 187.281 93.218 187.281 93.5961V94.6457C187.281 95.1372 187.638 95.5558 188.123 95.6332L265.281 107.942C265.819 108.028 266.326 107.668 266.423 107.132L268.66 94.7665C268.714 94.4697 268.528 94.182 268.236 94.1085C267.581 93.9439 267.7 92.9794 268.375 92.9794H270.435C270.892 92.9794 271.262 92.6087 271.262 92.1515V90.0555C271.262 89.5631 270.904 89.144 270.418 89.0676Z" fill="#DDAA44" stroke="black" stroke-linecap="round" stroke-linejoin="round"/>
<path d="M265.139 93.2239L229.271 87.9751" stroke="black" stroke-linecap="round" stroke-linejoin="round"/>
<path d="M192.529 91.4756L210.026 94.1" stroke="black" stroke-linecap="round" stroke-linejoin="round"/>
<path d="M149.068 138.522C148.965 138.699 148.98 138.921 149.106 139.082L160.093 153.12C160.135 153.175 160.189 153.22 160.25 153.252L168.184 157.525C168.294 157.584 168.422 157.6 168.543 157.57L178.309 155.128C178.492 155.082 178.634 154.937 178.675 154.752L179.896 149.259C179.911 149.193 179.912 149.126 179.9 149.061L176.238 128.918C176.21 128.764 176.11 128.631 175.969 128.561L168.645 124.898C168.552 124.852 168.448 124.836 168.345 124.852L160.411 126.072C160.332 126.084 160.257 126.115 160.193 126.162L153.478 131.045C153.422 131.086 153.376 131.138 153.341 131.197L149.068 138.522Z" fill="#A91C57" stroke="black" stroke-linejoin="round"/>
<path d="M160.7 141.048L168.242 156.711C168.346 156.927 168.589 157.039 168.821 156.977L177.133 154.76C177.384 154.693 177.542 154.446 177.497 154.19L174.031 134.55C173.973 134.22 173.614 134.04 173.315 134.189L160.927 140.383C160.683 140.506 160.582 140.801 160.7 141.048Z" fill="#E02D72"/>
<path d="M175.558 131.256L178.78 148.444C178.792 148.507 178.792 148.571 178.779 148.634L178.098 152.038C177.99 152.58 177.212 152.571 177.116 152.027L173.934 133.995C173.921 133.926 173.924 133.855 173.941 133.787L174.581 131.227C174.711 130.706 175.459 130.728 175.558 131.256Z" fill="#AE2A5D"/>
<path d="M160.403 139.941L159.334 131.386C159.297 131.094 159.017 130.896 158.729 130.96L153.975 132.017C153.845 132.045 153.733 132.124 153.661 132.236L149.906 138.138C149.713 138.44 149.892 138.841 150.245 138.9L159.825 140.496C160.155 140.551 160.445 140.273 160.403 139.941Z" fill="#D71243"/>
<path d="M160.399 139.906L159.312 131.214C159.285 130.993 159.407 130.78 159.612 130.693L167.484 127.319C167.68 127.235 167.907 127.285 168.051 127.442L173.471 133.404C173.694 133.65 173.621 134.04 173.324 134.188L161.119 140.291C160.81 140.445 160.442 140.248 160.399 139.906Z" fill="#FC8AA7"/>
<path d="M156.12 131.541L159.221 130.852C159.251 130.845 159.281 130.835 159.309 130.823L167.509 127.309C167.692 127.23 167.812 127.05 167.812 126.85V126.549C167.812 126.24 167.534 126.005 167.229 126.056L160.604 127.16C160.527 127.173 160.455 127.203 160.392 127.249L155.717 130.648C155.279 130.967 155.591 131.658 156.12 131.541Z" fill="#BF1131"/>
<path d="M174.738 128.845L168.503 126.247C168.174 126.11 167.811 126.352 167.811 126.708V126.986C167.811 127.11 167.857 127.23 167.941 127.322L173.286 133.202C173.555 133.497 174.045 133.374 174.141 132.987L175.031 129.428C175.091 129.188 174.967 128.94 174.738 128.845Z" fill="#AF1043"/>
<path d="M161.097 139.993L172.122 134.481C172.715 134.184 173.427 134.537 173.551 135.188L175.746 146.707" stroke="url(#paint2_linear_31513_10137)" stroke-width="1.2" stroke-linecap="round" stroke-linejoin="round"/>
<path d="M239.68 83.217C239.877 83.2527 240.075 83.1684 240.186 83.0024L245.286 75.3518H252.017C252.247 75.3518 252.447 75.1957 252.502 74.9731L256.876 57.477C256.912 57.3334 256.883 57.1813 256.796 57.0616L249.797 47.4387C249.714 47.325 249.588 47.2514 249.448 47.2359L225.828 44.6115C225.669 44.5938 225.511 44.6535 225.403 44.7721L216.655 54.3949C216.555 54.5052 216.509 54.6545 216.53 54.802L220.029 79.2966C220.06 79.5096 220.223 79.6793 220.435 79.7178L239.68 83.217Z" fill="#921D64" stroke="black" stroke-linejoin="round"/>
<path d="M236.392 59.5967L255.553 57.9305C256.328 57.8631 256.733 56.9753 256.275 56.3461L249.927 47.6172C249.761 47.3898 249.508 47.2426 249.229 47.2115L226.082 44.6396C225.763 44.6042 225.447 44.7237 225.231 44.9608L217.231 53.7609C216.716 54.3275 217.003 55.239 217.75 55.4087L236.084 59.5755C236.185 59.5985 236.289 59.6056 236.392 59.5967Z" fill="#F896CB" stroke="black" stroke-linejoin="round"/>
<path d="M236.271 47.2816V58.4789C236.271 58.7998 235.973 59.0376 235.66 58.9665L217.86 54.9212C217.487 54.8363 217.344 54.3805 217.601 54.0973L225.59 45.3101C225.704 45.1844 225.874 45.1253 226.042 45.1532L235.853 46.7884C236.094 46.8286 236.271 47.0372 236.271 47.2816Z" fill="#C53382"/>
<path d="M239.435 82.651L232.371 81.0811C232.107 81.0224 231.937 80.7643 231.988 80.4986L236.196 58.6187C236.24 58.3913 236.434 58.2237 236.665 58.2136L255.722 57.3851C256.056 57.3705 256.31 57.6815 256.228 58.0059L252.112 74.4734C252.056 74.6959 251.856 74.8521 251.627 74.8521H245.286C245.119 74.8521 244.963 74.9356 244.87 75.0747L239.96 82.4403C239.845 82.6121 239.637 82.6958 239.435 82.651Z" fill="#D5429C"/>
<path d="M220.891 79.2858L231.42 80.9058C231.686 80.9467 231.937 80.7701 231.988 80.5061L236.175 58.7301C236.228 58.457 236.047 58.1935 235.774 58.1437L217.707 54.859C217.372 54.7979 217.075 55.0838 217.123 55.4216L220.472 78.8624C220.503 79.0804 220.673 79.2524 220.891 79.2858Z" fill="#921D64"/>
<path d="M254.642 57.2968L236.042 57.297M236.042 57.297L231.897 80.1019M236.042 57.297L236.042 47.7339" stroke="url(#paint3_linear_31513_10137)" stroke-width="1.2" stroke-linecap="round" stroke-linejoin="round"/>
<path d="M241.205 160.215C241.247 160.269 241.301 160.314 241.362 160.347L247.693 163.756C247.803 163.815 247.93 163.831 248.051 163.801L255.844 161.853C256.027 161.807 256.169 161.661 256.21 161.476L257.184 157.093C257.199 157.028 257.2 156.96 257.188 156.895L254.266 140.823C254.228 140.614 254.063 140.452 253.853 140.419L241.678 138.471C241.51 138.444 241.34 138.504 241.227 138.63L232.46 148.37C232.298 148.551 232.289 148.822 232.438 149.013L241.205 160.215Z" fill="#921D64" stroke="black" stroke-linejoin="round"/>
<path d="M241.812 150.611L247.75 162.944C247.854 163.16 248.098 163.272 248.33 163.21L254.792 161.487C255.043 161.42 255.201 161.172 255.155 160.917L252.43 145.47C252.371 145.14 252.013 144.96 251.714 145.109L242.039 149.947C241.795 150.069 241.694 150.364 241.812 150.611Z" fill="#D55AAA"/>
<path d="M253.709 143.161L256.191 156.402C256.203 156.465 256.203 156.53 256.19 156.592L255.756 158.763C255.648 159.305 254.87 159.296 254.774 158.752L252.332 144.914C252.319 144.845 252.322 144.774 252.339 144.706L252.732 143.132C252.862 142.611 253.61 142.634 253.709 143.161Z" fill="#AE2A5D"/>
<path d="M241.599 149.576V140.267C241.599 139.809 241.033 139.592 240.727 139.933L233.442 148.027C233.178 148.321 233.342 148.79 233.732 148.855L241.016 150.069C241.321 150.12 241.599 149.885 241.599 149.576Z" fill="#BD3789"/>
<path d="M241.598 149.358V140.262C241.598 139.89 241.99 139.648 242.322 139.814L251.419 144.363C251.787 144.547 251.787 145.073 251.419 145.257L242.322 149.805C241.99 149.972 241.598 149.73 241.598 149.358Z" fill="#F37EC6"/>
<path d="M252.734 140.838L245.24 139.816C244.691 139.741 244.446 140.483 244.931 140.75L251.744 144.497C252.032 144.655 252.391 144.498 252.47 144.18L253.152 141.455C253.224 141.166 253.029 140.879 252.734 140.838Z" fill="#C73F93"/>
<path d="M242.086 149.68L250.644 145.401C251.237 145.104 251.949 145.457 252.073 146.108L253.774 155.037" stroke="url(#paint4_linear_31513_10137)" stroke-width="1.2" stroke-linecap="round" stroke-linejoin="round"/>
<path d="M249.698 156.154C249.506 156.229 249.38 156.414 249.38 156.62V164.534C249.38 164.723 249.487 164.897 249.656 164.981L255.744 168.025C255.813 168.06 255.89 168.078 255.967 168.078H268.143C268.286 168.078 268.422 168.017 268.517 167.91L273.387 162.431C273.518 162.283 273.55 162.072 273.469 161.892L270.425 155.195C270.367 155.069 270.259 154.972 270.128 154.928L260.996 151.884C260.885 151.847 260.765 151.85 260.656 151.892L249.698 156.154Z" fill="#F57EC3" stroke="black" stroke-linejoin="round"/>
<path d="M250.622 164.907L255.429 167.311C255.709 167.451 256.047 167.302 256.133 167.001L257.08 163.687C257.142 163.47 257.05 163.238 256.856 163.121L254.422 161.661C254.252 161.558 254.036 161.567 253.874 161.683L250.555 164.053C250.249 164.272 250.285 164.739 250.622 164.907Z" fill="#EA2978"/>
<path d="M267.385 167.577H256.63C256.298 167.577 256.058 167.259 256.15 166.94L257.082 163.679C257.143 163.464 257.339 163.316 257.562 163.316H265.987C266.187 163.316 266.368 163.435 266.447 163.619L267.845 166.88C267.986 167.21 267.744 167.577 267.385 167.577Z" fill="#FAC7EA"/>
<path d="M268.667 166.989L272.701 162.451C272.877 162.253 272.868 161.953 272.68 161.765L270.906 159.991C270.721 159.806 270.426 159.795 270.227 159.965L266.596 163.077C266.43 163.219 266.376 163.453 266.462 163.654L267.833 166.854C267.978 167.191 268.423 167.263 268.667 166.989Z" fill="#F178C2"/>
<path d="M270.103 155.696L272.558 161.095C272.65 161.298 272.392 161.477 272.234 161.32L270.647 159.732C270.602 159.687 270.566 159.634 270.541 159.576L269.051 156.1C268.91 155.77 269.152 155.403 269.511 155.403H269.648C269.844 155.403 270.022 155.517 270.103 155.696Z" fill="#DF399A"/>
<path d="M249.88 163.562V157.029C249.88 156.791 250.048 156.586 250.282 156.539L252.444 156.107C252.71 156.053 252.971 156.223 253.03 156.489L254.069 161.167C254.113 161.363 254.035 161.566 253.872 161.682L250.67 163.969C250.339 164.205 249.88 163.969 249.88 163.562Z" fill="#D52C6B"/>
<path d="M254.141 161.49L257.185 163.316M257.185 163.316H266.317M257.185 163.316L255.968 167.578M266.317 163.316L270.578 159.664M266.317 163.316L268.143 167.578" stroke="url(#paint5_linear_31513_10137)" stroke-width="1.2" stroke-linecap="round" stroke-linejoin="round"/>
<path d="M216.823 155.834C216.631 155.908 216.504 156.094 216.504 156.3V165.88C216.504 166.069 216.611 166.243 216.781 166.327L224.15 170.012C224.22 170.047 224.296 170.065 224.374 170.065H239.113C239.256 170.065 239.392 170.004 239.486 169.897L245.382 163.264C245.513 163.117 245.545 162.905 245.463 162.725L241.779 154.619C241.721 154.492 241.614 154.395 241.482 154.352L230.427 150.667C230.317 150.63 230.197 150.633 230.088 150.675L216.823 155.834Z" fill="#F57EC3" stroke="black" stroke-linejoin="round"/>
<path d="M217.747 166.251L223.835 169.295C224.115 169.435 224.453 169.287 224.539 168.986L225.742 164.775C225.804 164.557 225.713 164.325 225.519 164.209L222.444 162.364C222.273 162.262 222.058 162.27 221.896 162.386L217.68 165.397C217.373 165.616 217.41 166.083 217.747 166.251Z" fill="#EA2978"/>
<path d="M238.355 169.565H225.037C224.705 169.565 224.465 169.247 224.556 168.928L225.744 164.769C225.805 164.554 226.002 164.406 226.225 164.406H236.572C236.772 164.406 236.953 164.525 237.032 164.709L238.814 168.868C238.955 169.198 238.713 169.565 238.355 169.565Z" fill="#FAC7EA"/>
<path d="M239.636 168.976L244.695 163.285C244.871 163.087 244.862 162.786 244.675 162.599L242.388 160.312C242.203 160.127 241.908 160.116 241.709 160.286L237.181 164.167C237.015 164.309 236.961 164.543 237.047 164.744L238.803 168.841C238.947 169.178 239.393 169.25 239.636 168.976Z" fill="#F178C2"/>
<path d="M241.457 155.119L244.552 161.928C244.644 162.131 244.386 162.31 244.229 162.152L242.129 160.052C242.084 160.007 242.048 159.954 242.023 159.896L240.149 155.523C240.007 155.193 240.249 154.826 240.608 154.826H241.002C241.198 154.826 241.376 154.94 241.457 155.119Z" fill="#DF399A"/>
<path d="M217.004 164.909V156.71C217.004 156.471 217.173 156.266 217.406 156.22L220.209 155.659C220.476 155.606 220.736 155.775 220.795 156.041L222.091 161.873C222.135 162.068 222.057 162.271 221.894 162.388L217.795 165.316C217.464 165.552 217.004 165.315 217.004 164.909Z" fill="#D52C6B"/>
<path d="M222.163 162.195L225.848 164.406M225.848 164.406H236.902M225.848 164.406L224.374 169.565M236.902 164.406L242.061 159.984M236.902 164.406L239.113 169.565" stroke="url(#paint6_linear_31513_10137)" stroke-width="1.2" stroke-linecap="round" stroke-linejoin="round"/>
<path d="M98.0472 128.178C92.5018 129.421 93.1693 136.362 94.1963 139.677C94.1963 141.645 96.4041 145.643 105.236 145.892C114.067 146.141 113.023 137.501 111.397 133.15C109.258 130.975 103.593 126.935 98.0472 128.178Z" fill="#999999" stroke="black" stroke-linecap="round" stroke-linejoin="round"/>
<path d="M98.0472 128.178C92.5018 129.421 93.1693 136.362 94.1963 139.677C97.4482 140.713 105.441 140.858 111.397 133.15C109.258 130.975 103.593 126.935 98.0472 128.178Z" fill="#D9D9D9" stroke="black" stroke-linecap="round" stroke-linejoin="round"/>
<path d="M108.696 143.243C107.755 138.582 108.44 127.829 118.709 122.11C128.978 116.392 139.761 117.863 143.868 119.313C146.008 120.867 150.235 126.088 150.03 134.542C149.834 142.575 145.187 146.836 139.247 147.461C119.736 153.819 110.75 147.298 108.696 143.243Z" fill="#D9D9D9"/>
<path d="M143.868 119.313C139.761 117.863 128.978 116.392 118.709 122.11C108.44 127.829 107.755 138.582 108.696 143.243C110.75 147.298 119.736 153.819 139.247 147.461M143.868 119.313C146.008 120.867 150.235 126.088 150.03 134.542C149.834 142.575 145.187 146.836 139.247 147.461M143.868 119.313C136.68 122.421 128.208 129.569 125.64 134.542C123.073 139.514 124.87 144.797 133.342 146.973C135.373 147.494 137.374 147.658 139.247 147.461" stroke="black" stroke-linecap="round" stroke-linejoin="round"/>
<path d="M143.868 119.313C146.007 120.867 150.235 126.088 150.03 134.542C149.834 142.575 145.187 146.836 139.247 147.461C119.736 153.819 110.75 147.298 108.696 143.243C112.292 143.036 120.511 142 124.616 139.514C124.41 137.907 124.78 136.207 125.64 134.542C128.208 129.569 136.68 122.421 143.868 119.313Z" fill="#676767"/>
<path d="M139.247 147.461C145.187 146.836 149.834 142.575 150.03 134.542C150.235 126.088 146.007 120.867 143.868 119.313C136.68 122.421 128.208 129.569 125.64 134.542C124.78 136.207 124.41 137.907 124.616 139.514M139.247 147.461C137.374 147.658 135.373 147.494 133.342 146.973C127.708 145.526 125.026 142.704 124.616 139.514M139.247 147.461C119.736 153.819 110.75 147.298 108.696 143.243C112.292 143.036 120.511 142 124.616 139.514" stroke="black" stroke-linecap="round" stroke-linejoin="round"/>
<path d="M150.03 134.542C150.235 126.088 146.008 120.867 143.868 119.313C136.68 122.421 128.208 129.569 125.64 134.542C123.073 139.514 124.87 144.797 133.342 146.973C135.373 147.494 137.374 147.658 139.247 147.461C145.187 146.836 149.834 142.575 150.03 134.542Z" fill="#999999" stroke="black" stroke-linecap="round" stroke-linejoin="round"/>
<defs>
<filter id="filter0_d_31513_10137" x="22.0479" y="37" width="469.683" height="199.755" filterUnits="userSpaceOnUse" color-interpolation-filters="sRGB">
<feFlood flood-opacity="0" result="BackgroundImageFix"/>
<feColorMatrix in="SourceAlpha" type="matrix" values="0 0 0 0 0 0 0 0 0 0 0 0 0 0 0 0 0 0 127 0" result="hardAlpha"/>
<feOffset dy="10"/>
<feComposite in2="hardAlpha" operator="out"/>
<feColorMatrix type="matrix" values="0 0 0 0 0.321569 0 0 0 0 0.239216 0 0 0 0 0.215686 0 0 0 1 0"/>
<feBlend mode="normal" in2="BackgroundImageFix" result="effect1_dropShadow_31513_10137"/>
<feBlend mode="normal" in="SourceGraphic" in2="effect1_dropShadow_31513_10137" result="shape"/>
</filter>
<linearGradient id="paint0_linear_31513_10137" x1="183.793" y1="89.1709" x2="183.793" y2="104.467" gradientUnits="userSpaceOnUse">
<stop stop-color="white"/>
<stop offset="1" stop-color="white" stop-opacity="0"/>
</linearGradient>
<linearGradient id="paint1_linear_31513_10137" x1="227.764" y1="36.2229" x2="225.182" y2="49.1064" gradientUnits="userSpaceOnUse">
<stop stop-color="white"/>
<stop offset="1" stop-color="white" stop-opacity="0"/>
</linearGradient>
<linearGradient id="paint2_linear_31513_10137" x1="168.421" y1="133.89" x2="168.421" y2="146.707" gradientUnits="userSpaceOnUse">
<stop stop-color="white"/>
<stop offset="1" stop-color="white" stop-opacity="0"/>
</linearGradient>
<linearGradient id="paint3_linear_31513_10137" x1="229.179" y1="55.9209" x2="225.569" y2="73.9335" gradientUnits="userSpaceOnUse">
<stop stop-color="white"/>
<stop offset="1" stop-color="white" stop-opacity="0"/>
</linearGradient>
<linearGradient id="paint4_linear_31513_10137" x1="247.93" y1="144.81" x2="247.93" y2="155.037" gradientUnits="userSpaceOnUse">
<stop stop-color="white"/>
<stop offset="1" stop-color="white" stop-opacity="0"/>
</linearGradient>
<linearGradient id="paint5_linear_31513_10137" x1="262.36" y1="159.664" x2="262.36" y2="167.578" gradientUnits="userSpaceOnUse">
<stop stop-color="white"/>
<stop offset="1" stop-color="white" stop-opacity="0"/>
</linearGradient>
<linearGradient id="paint6_linear_31513_10137" x1="232.112" y1="159.984" x2="232.112" y2="169.565" gradientUnits="userSpaceOnUse">
<stop stop-color="white"/>
<stop offset="1" stop-color="white" stop-opacity="0"/>
</linearGradient>
</defs>
</svg>
