<svg width="488" height="335" viewBox="0 0 488 335" fill="none" xmlns="http://www.w3.org/2000/svg">
<path d="M146.955 19.7048L14.4841 65.3534C6.41543 68.1339 1 75.7279 1 84.2623V87.3487L13.8078 235.691C14.5249 243.997 20.3191 250.987 28.3481 253.232L302.812 329.974C312.171 332.591 322.056 328.101 326.245 319.333L358.052 252.74C359.076 250.597 360.473 248.654 362.178 247.001L477.007 135.673C483.257 129.614 484.87 120.208 480.996 112.413L450.394 50.836C447.912 45.8406 443.456 42.109 438.102 40.5421L306.902 2.14199C304.327 1.38837 301.627 1.16051 298.962 1.47198L151.149 18.7489C149.72 18.9158 148.314 19.2363 146.955 19.7048Z" fill="#B3E352" stroke="black" stroke-linecap="round"/>
<ellipse cx="351" cy="187.5" rx="15" ry="5.5" fill="#7EA82B"/>
<ellipse cx="176" cy="187.5" rx="15" ry="5.5" fill="#7EA82B"/>
<ellipse cx="142.5" cy="204.5" rx="34.5" ry="5.5" fill="#7EA82B"/>
<ellipse cx="77" cy="178" rx="25" ry="6" fill="#7EA82B"/>
<ellipse cx="292" cy="210" rx="25" ry="5" fill="#7EA82B"/>
<ellipse cx="318.5" cy="233.5" rx="23.5" ry="5.5" fill="#7EA82B"/>
<ellipse cx="114" cy="181" rx="25" ry="6" fill="#7EA82B"/>
<ellipse cx="252.5" cy="192" rx="80.5" ry="9" fill="#7EA82B"/>
<path d="M82.0271 111.951L77.2942 174.005H96.2259L82.0271 111.951Z" fill="#896736" stroke="black" stroke-linejoin="round"/>
<path d="M127.779 155.073H51.8492C47.6887 136.044 59.8236 126.001 66.4111 123.358C62.5973 124.68 54.3455 124.68 51.8492 114.108C49.3529 103.536 64.0377 89.3511 69.9318 86.7082C54.6812 82.5012 66.4111 52 79.9328 52C87.3143 52 112.002 78.82 92.4144 84.9833C95.1881 84.9833 107.269 86.7082 115.158 106.692C118.857 116.063 112.828 121.158 107.597 120.107C121.605 128.791 126.815 148.132 127.779 155.073Z" fill="#14653C" stroke="black" stroke-linejoin="round"/>
<path d="M114.106 129.832L109.899 185.575H128.831L114.106 129.832Z" fill="#896736" stroke="black" stroke-linejoin="round"/>
<path d="M159.332 166.642H84.4423C80.3388 151.885 92.3074 144.097 98.8047 142.047C95.0431 143.072 86.9044 143.072 84.4423 134.873C81.9802 126.675 97.249 120.526 103.062 118.477C100.327 107.887 97.9228 86.708 115.158 86.708C132.392 86.708 127.529 107.887 124.452 118.477C127.187 118.477 134.3 120.526 140.866 128.725C147.432 136.923 140.182 141.022 135.736 142.047C152.151 147.786 158.306 160.835 159.332 166.642Z" fill="#238252" stroke="black" stroke-linejoin="round"/>
<path d="M190.05 70.4546C169.098 82.3852 154.526 107.604 154.526 128.903C154.526 146.3 164.247 157.136 179.226 163.029H250.83C265.809 157.136 275.53 146.3 275.53 128.903C275.53 107.604 260.958 82.3852 240.006 70.4546H190.05Z" fill="#DCA450" stroke="black" stroke-linecap="round"/>
<path d="M160.039 104.313C156.5 112.319 154.526 120.65 154.526 128.453C154.526 134.751 155.812 140.186 158.169 144.833H271.886C274.244 140.186 275.53 134.751 275.53 128.453C275.53 120.65 273.556 112.319 270.017 104.313H160.039Z" fill="#EBD783" stroke="black" stroke-linecap="round"/>
<path d="M215.028 51.5825C211.043 51.5825 207.812 54.6373 207.812 58.4056C207.812 60.955 209.291 63.1777 211.481 64.349H218.575C220.765 63.1777 222.244 60.955 222.244 58.4056C222.244 54.6373 219.013 51.5825 215.028 51.5825Z" fill="#A77148" stroke="black" stroke-linecap="round"/>
<path d="M183.944 74.3401C183.944 66.9828 189.909 61.0186 197.266 61.0186H233.345C240.702 61.0186 246.667 66.9828 246.667 74.3401H183.944Z" fill="#A77148" stroke="black" stroke-linecap="round"/>
<rect x="185.277" y="154.066" width="36.5167" height="9.60965" rx="4" transform="rotate(90 185.277 154.066)" fill="#76500D" stroke="black" stroke-linecap="round"/>
<rect x="266.959" y="154.066" width="36.5167" height="9.60965" rx="4" transform="rotate(90 266.959 154.066)" fill="#76500D" stroke="black" stroke-linecap="round"/>
<rect x="359.211" y="154.066" width="36.5167" height="9.60965" rx="4" transform="rotate(90 359.211 154.066)" fill="#76500D" stroke="black" stroke-linecap="round"/>
<path d="M256.874 34.2935C227.682 50.916 207.379 86.0523 207.379 115.728C207.379 139.967 220.923 155.064 241.793 163.274H341.557C362.427 155.064 375.971 139.967 375.971 115.728C375.971 86.0523 355.668 50.916 326.476 34.2935H256.874Z" fill="#DCA450" stroke="black" stroke-linecap="round"/>
<path d="M215.061 81.4692C210.129 92.6231 207.379 104.23 207.379 115.101C207.379 123.877 209.171 131.449 212.456 137.924H370.894C374.179 131.449 375.971 123.877 375.971 115.101C375.971 104.23 373.221 92.6231 368.29 81.4692H215.061Z" fill="#EBD783" stroke="black" stroke-linecap="round"/>
<path d="M291.675 69.0957C263.913 69.0957 241.407 91.487 241.407 119.108C241.407 137.794 251.707 154.087 266.967 162.672H316.383C331.643 154.087 341.943 137.794 341.943 119.108C341.943 91.487 319.437 69.0957 291.675 69.0957Z" fill="#A77148"/>
<path d="M291.675 69.0957C263.913 69.0957 241.407 91.487 241.407 119.108C241.407 137.794 251.707 154.087 266.967 162.672H316.383C331.643 154.087 341.943 137.794 341.943 119.108C341.943 91.487 319.437 69.0957 291.675 69.0957Z" fill="#A77148"/>
<path d="M291.675 69.0957C263.913 69.0957 241.407 91.487 241.407 119.108C241.407 137.794 251.707 154.087 266.967 162.672H316.383C331.643 154.087 341.943 137.794 341.943 119.108C341.943 91.487 319.437 69.0957 291.675 69.0957Z" stroke="black" stroke-linecap="round"/>
<path d="M291.675 77.6011C268.611 77.6011 249.914 95.9212 249.914 118.52C249.914 133.809 258.471 147.139 271.148 154.163H312.202C324.879 147.139 333.436 133.809 333.436 118.52C333.436 95.9212 314.739 77.6011 291.675 77.6011Z" fill="#C09344" stroke="black" stroke-linecap="round"/>
<path d="M291.675 8C286.122 8 281.621 12.2562 281.621 17.5065C281.621 21.0584 283.681 24.1553 286.733 25.7872H296.617C299.669 24.1553 301.729 21.0584 301.729 17.5065C301.729 12.2562 297.227 8 291.675 8Z" fill="#A77148" stroke="black" stroke-linecap="round"/>
<path d="M248.367 39.708C248.367 29.4573 256.677 21.1475 266.928 21.1475H317.196C327.447 21.1475 335.756 29.4573 335.756 39.708H248.367Z" fill="#A77148" stroke="black" stroke-linecap="round"/>
<rect x="178.55" y="162.715" width="167.208" height="11.5316" rx="4" fill="#C09344" stroke="black" stroke-linecap="round"/>
<rect x="262.154" y="172.325" width="71.1114" height="11.5316" rx="4" fill="#C09344" stroke="black" stroke-linecap="round"/>
<rect x="254.466" y="181.934" width="71.1114" height="11.5316" rx="4" fill="#C09344" stroke="black" stroke-linecap="round"/>
<rect x="249.661" y="49.3364" width="73.9943" height="27.868" rx="4" transform="rotate(-3.73462 249.661 49.3364)" fill="#C09344" stroke="black" stroke-linecap="round"/>
<path d="M273.293 58.8298C272.722 58.8671 272.168 58.8251 271.63 58.7038C271.1 58.5734 270.662 58.3762 270.315 58.1122C269.967 57.8397 269.781 57.5174 269.756 57.1456C269.733 56.791 269.823 56.5028 270.026 56.2812C270.228 56.0595 270.494 55.9379 270.823 55.9165C271.039 55.9024 271.227 55.9205 271.386 55.9709C271.554 56.0121 271.736 56.0783 271.933 56.1697C272.076 56.2298 272.197 56.2784 272.295 56.3155C272.401 56.3433 272.51 56.3535 272.622 56.3462C272.908 56.3275 273.043 56.2058 273.028 55.9809C273.023 55.8945 272.958 55.8249 272.832 55.7723C272.707 55.711 272.498 55.6334 272.205 55.5397C271.682 55.374 271.254 55.2066 270.922 55.0372C270.409 54.7753 270.047 54.4776 269.834 54.1441C269.63 53.81 269.511 53.3836 269.477 52.8647C269.444 52.3631 269.573 51.8813 269.865 51.4193C270.155 50.9487 270.569 50.5613 271.105 50.2571C271.641 49.9529 272.237 49.7793 272.894 49.7364C273.534 49.6946 274.125 49.756 274.665 49.9205C275.214 50.0757 275.651 50.3165 275.976 50.6426C276.309 50.9596 276.49 51.3256 276.517 51.7407C276.548 52.2164 276.428 52.5846 276.159 52.8454C275.897 53.097 275.594 53.234 275.248 53.2566C274.962 53.2752 274.745 53.2721 274.596 53.2471C274.455 53.2215 274.314 53.183 274.171 53.1315C274.056 53.0956 273.959 53.0715 273.88 53.0593C273.8 53.0384 273.692 53.0325 273.553 53.0415C273.441 53.0489 273.335 53.0948 273.236 53.1795C273.146 53.2549 273.105 53.3574 273.113 53.4871C273.119 53.5823 273.181 53.6608 273.298 53.7226C273.414 53.7758 273.548 53.8235 273.698 53.8658C273.849 53.9081 273.955 53.9403 274.017 53.9623C274.841 54.2038 275.455 54.5024 275.86 54.8581C276.265 55.2051 276.487 55.677 276.526 56.2738C276.574 57.0089 276.313 57.6034 275.744 58.0575C275.182 58.5024 274.365 58.7598 273.293 58.8298ZM280.101 58.3724C279.47 58.4136 278.906 58.294 278.41 58.0137C277.913 57.7248 277.517 57.3077 277.221 56.7625C276.933 56.2081 276.765 55.559 276.716 54.8153C276.669 54.0888 276.748 53.5104 276.955 53.0801C277.161 52.6497 277.472 52.421 277.887 52.3939C278.622 52.3459 279.014 52.6981 279.063 53.4505C279.073 53.6062 279.078 53.7448 279.077 53.8665C279.076 53.9795 279.074 54.0795 279.071 54.1665C279.059 54.5147 279.06 54.7926 279.073 55.0001C279.098 55.3807 279.195 55.6653 279.363 55.8541C279.532 56.0428 279.729 56.1298 279.954 56.1152C280.187 56.0999 280.371 55.9924 280.506 55.7925C280.648 55.5834 280.707 55.2843 280.682 54.8952C280.664 54.6184 280.634 54.3641 280.593 54.1323C280.579 54.055 280.563 53.9432 280.545 53.7967C280.526 53.6416 280.512 53.4992 280.504 53.3695C280.454 52.6084 280.797 52.2039 281.532 52.1559C281.947 52.1288 282.281 52.3155 282.533 52.716C282.793 53.1072 282.947 53.6703 282.995 54.4055C283.07 55.5557 282.862 56.4899 282.37 57.2081C281.878 57.9177 281.121 58.3057 280.101 58.3724ZM285.12 59.9077C284.696 59.9354 284.375 59.7392 284.157 59.3192C283.939 58.9079 283.79 58.4312 283.712 57.8892C283.642 57.3466 283.577 56.6299 283.519 55.7391C283.475 55.0559 283.461 54.4532 283.479 53.9309C283.506 53.408 283.611 52.9496 283.793 52.5555C283.976 52.1614 284.279 51.9506 284.703 51.9229C285.144 51.8941 285.475 52.0462 285.697 52.3791C285.886 52.2191 286.125 52.0863 286.414 51.9806C286.71 51.8657 287.023 51.7976 287.351 51.7761C287.905 51.74 288.424 51.845 288.909 52.0913C289.394 52.3376 289.79 52.6852 290.097 53.1341C290.405 53.5831 290.576 54.0843 290.613 54.6378C290.649 55.1912 290.544 55.7148 290.298 56.2086C290.052 56.6936 289.704 57.0898 289.255 57.397C288.806 57.7042 288.305 57.8759 287.752 57.912C287.414 57.9341 287.096 57.9114 286.796 57.8441C286.496 57.7682 286.237 57.6592 286.019 57.517C286.055 58.0705 286.066 58.4998 286.051 58.8047C286.036 59.1097 285.957 59.3623 285.814 59.5628C285.68 59.7713 285.449 59.8862 285.12 59.9077ZM287.546 55.7629C287.771 55.7482 287.96 55.6533 288.114 55.4783C288.276 55.294 288.349 55.0895 288.334 54.8646C288.32 54.6398 288.221 54.4508 288.037 54.2978C287.861 54.1356 287.661 54.0618 287.436 54.0765C287.211 54.0911 287.018 54.1906 286.856 54.3749C286.703 54.5499 286.633 54.7498 286.648 54.9747C286.663 55.1996 286.758 55.3931 286.933 55.5553C287.117 55.7084 287.321 55.7775 287.546 55.7629ZM294.457 57.4353C293.817 57.4771 293.242 57.3886 292.733 57.17C292.224 56.9514 291.816 56.6263 291.51 56.1946C291.212 55.7538 291.044 55.2479 291.007 54.6771C290.97 54.115 291.07 53.5874 291.307 53.0942C291.553 52.6005 291.909 52.1951 292.375 51.8781C292.84 51.5611 293.38 51.3826 293.994 51.3425C294.548 51.3064 295.044 51.3869 295.482 51.5841C295.92 51.7813 296.264 52.0585 296.513 52.4157C296.762 52.7642 296.899 53.1374 296.925 53.5352C296.967 54.1839 296.752 54.6756 296.279 55.0105C295.814 55.3361 295.244 55.521 294.569 55.565C294.12 55.5944 293.735 55.563 293.417 55.4709C293.704 55.8777 294.146 56.0616 294.743 56.0227C294.985 56.0069 295.242 55.9597 295.515 55.8811C295.617 55.8484 295.716 55.8289 295.811 55.8227C296.001 55.8103 296.155 55.848 296.274 55.9357C296.401 56.023 296.47 56.1487 296.481 56.3131C296.499 56.5812 296.35 56.8254 296.034 57.0457C295.718 57.2575 295.192 57.3873 294.457 57.4353ZM293.352 53.8857C293.438 54.0017 293.548 54.0857 293.682 54.1378C293.823 54.1807 293.976 54.1967 294.141 54.186C294.331 54.1736 294.492 54.1196 294.625 54.0241C294.766 53.928 294.833 53.8108 294.824 53.6724C294.813 53.5167 294.74 53.3869 294.603 53.283C294.474 53.1784 294.293 53.1338 294.06 53.149C293.826 53.1643 293.645 53.2499 293.516 53.406C293.396 53.5528 293.341 53.7127 293.352 53.8857ZM299.075 57.1338C298.522 57.17 298.129 56.8699 297.896 56.2337C297.672 55.597 297.523 54.7078 297.448 53.5662C297.414 53.0473 297.408 52.6135 297.428 52.2648C297.457 51.9068 297.554 51.6008 297.72 51.3468C297.894 51.0836 298.176 50.9393 298.565 50.9139C298.807 50.8981 299.023 50.9404 299.212 51.041C299.409 51.141 299.541 51.2931 299.606 51.4973C299.785 51.3119 300.023 51.1661 300.32 51.0599C300.617 50.9536 300.939 50.8892 301.285 50.8666C301.561 50.8486 301.847 50.8994 302.141 51.0191C302.444 51.1383 302.699 51.3128 302.905 51.5425C303.119 51.763 303.235 52.0117 303.253 52.2884C303.271 52.5651 303.188 52.8181 303.003 53.0473C302.827 53.2673 302.578 53.3877 302.258 53.4086C302.154 53.4154 302.054 53.4089 301.957 53.3892C301.869 53.3689 301.79 53.348 301.719 53.3266C301.541 53.2687 301.401 53.2431 301.297 53.2499C300.96 53.2719 300.67 53.4254 300.428 53.7105C300.194 53.9863 300.091 54.3317 300.118 54.7469C300.148 55.2052 300.155 55.5869 300.14 55.8918C300.126 56.1968 300.04 56.476 299.882 56.7294C299.725 56.9742 299.456 57.109 299.075 57.1338ZM271.292 70.9729C270.998 70.9921 270.747 70.9346 270.539 70.8006C270.338 70.6574 270.191 70.4585 270.096 70.2042C270.011 69.9665 269.95 69.7056 269.914 69.4213C269.887 69.1365 269.857 68.7346 269.823 68.2157C269.791 67.7314 269.746 67.3739 269.688 67.1433C269.638 66.912 269.539 66.8012 269.392 66.8108C269.219 66.8221 269.103 66.9078 269.044 67.068C268.985 67.2195 268.964 67.4337 268.982 67.7104C268.998 67.9612 269.059 68.3525 269.163 68.8841C269.178 68.9874 269.206 69.1505 269.247 69.3737C269.287 69.5969 269.313 69.782 269.322 69.929C269.349 70.3441 269.273 70.6443 269.094 70.8297C268.924 71.0146 268.662 71.1185 268.307 71.1417C267.883 71.1693 267.501 70.9642 267.16 70.5261C266.818 70.0881 266.547 69.5325 266.347 68.8595C266.146 68.1778 266.024 67.504 265.981 66.8381C265.929 66.0424 265.993 65.2957 266.173 64.5978C266.362 63.8993 266.672 63.3276 267.104 62.8825C267.543 62.4369 268.092 62.1927 268.749 62.1498C269.303 62.1136 269.755 62.2578 270.106 62.5823C270.457 62.8981 270.704 63.2945 270.848 63.7715C270.912 63.2896 271.098 62.865 271.404 62.4976C271.718 62.1297 272.148 61.9279 272.693 61.8924C273.342 61.85 273.908 62.0171 274.393 62.3937C274.886 62.761 275.277 63.2957 275.566 63.9977C275.864 64.6991 276.043 65.5212 276.105 66.4638C276.145 67.0779 276.1 67.7191 275.97 68.3877C275.839 69.0476 275.632 69.6039 275.349 70.0567C275.066 70.5094 274.726 70.7488 274.328 70.7747C273.965 70.7984 273.682 70.7257 273.48 70.5565C273.278 70.3873 273.163 70.0951 273.136 69.68C273.124 69.4898 273.135 69.1329 273.17 68.6095C273.203 68.0515 273.212 67.6514 273.196 67.4093C273.16 66.8472 272.99 66.576 272.687 66.5957C272.532 66.6059 272.44 66.7378 272.413 66.9914C272.395 67.2445 272.4 67.6523 272.428 68.215C272.456 68.6388 272.47 68.9939 272.472 69.2805C272.472 69.5583 272.45 69.816 272.405 70.0535C272.352 70.3088 272.227 70.521 272.03 70.6903C271.841 70.8589 271.595 70.9531 271.292 70.9729ZM279.109 70.4626C278.435 70.5067 277.871 70.3915 277.419 70.117C276.966 69.8339 276.721 69.4026 276.683 68.8232C276.65 68.3216 276.845 67.9094 277.267 67.5865C277.689 67.2637 278.228 67.0808 278.886 67.0379C279.128 67.0221 279.354 67.0291 279.564 67.0588C279.783 67.0792 279.933 67.1129 280.014 67.1597C280 66.9435 279.897 66.7721 279.707 66.6456C279.516 66.5104 279.234 66.455 278.862 66.4793C278.698 66.49 278.565 66.5117 278.463 66.5444C278.36 66.5771 278.251 66.6234 278.133 66.6832C278.015 66.743 277.905 66.7892 277.803 66.822C277.71 66.8541 277.581 66.8756 277.417 66.8863C277.14 66.9043 276.919 66.8493 276.754 66.7211C276.589 66.5842 276.497 66.3688 276.478 66.0747C276.456 65.7374 276.558 65.4441 276.785 65.1948C277.021 64.945 277.321 64.7517 277.685 64.615C278.049 64.4696 278.417 64.3848 278.789 64.3605C279.524 64.3125 280.147 64.4108 280.658 64.6554C281.177 64.8908 281.568 65.2257 281.831 65.6601C282.103 66.094 282.256 66.5834 282.292 67.1283C282.311 67.4223 282.303 67.6964 282.267 67.9506C282.24 68.2042 282.193 68.4028 282.124 68.5462C282.252 68.6421 282.35 68.7572 282.42 68.8917C282.498 69.0255 282.542 69.166 282.552 69.313C282.568 69.5638 282.496 69.7856 282.334 69.9785C282.182 70.1709 281.967 70.2761 281.691 70.2941C281.483 70.3077 281.312 70.2884 281.179 70.2363C281.045 70.1843 280.901 70.0982 280.745 69.9781C280.537 70.1219 280.306 70.2325 280.05 70.31C279.803 70.3869 279.49 70.4378 279.109 70.4626ZM279.283 69.1355C279.465 69.1236 279.605 69.0754 279.704 68.9908C279.811 68.9056 279.861 68.8068 279.854 68.6944C279.846 68.582 279.784 68.4905 279.666 68.42C279.557 68.3489 279.412 68.3193 279.231 68.3312C279.049 68.3431 278.904 68.3916 278.797 68.4767C278.698 68.5614 278.653 68.6599 278.66 68.7723C278.667 68.8847 278.726 68.9765 278.834 69.0475C278.952 69.118 279.101 69.1473 279.283 69.1355ZM284.522 70.1093C283.968 70.1455 283.575 69.8454 283.343 69.2092C283.119 68.5725 282.969 67.6833 282.895 66.5417C282.861 66.0228 282.854 65.589 282.875 65.2403C282.904 64.8823 283.001 64.5763 283.167 64.3223C283.341 64.0591 283.622 63.9148 284.011 63.8894C284.254 63.8736 284.469 63.9159 284.658 64.0165C284.856 64.1165 284.987 64.2686 285.053 64.4728C285.232 64.2874 285.47 64.1416 285.767 64.0353C286.064 63.9291 286.385 63.8647 286.731 63.8421C287.008 63.8241 287.293 63.8749 287.588 63.9946C287.891 64.1138 288.146 64.2883 288.352 64.518C288.566 64.7385 288.682 64.9872 288.7 65.2639C288.718 65.5406 288.635 65.7936 288.45 66.0228C288.273 66.2428 288.025 66.3632 287.705 66.3841C287.601 66.3909 287.501 66.3844 287.404 66.3647C287.316 66.3444 287.236 66.3235 287.165 66.3021C286.988 66.2442 286.847 66.2186 286.743 66.2254C286.406 66.2474 286.117 66.4009 285.875 66.6859C285.641 66.9618 285.537 67.3072 285.564 67.7224C285.594 68.1807 285.602 68.5624 285.587 68.8673C285.572 69.1723 285.486 69.4515 285.329 69.7049C285.171 69.9497 284.902 70.0845 284.522 70.1093ZM294.306 66.2398C294.446 66.3957 294.674 66.6891 294.989 67.1202C295.361 67.6344 295.559 68.0774 295.584 68.4493C295.603 68.752 295.519 68.9877 295.33 69.1563C295.141 69.3163 294.912 69.4051 294.644 69.4226C294.393 69.4389 294.131 69.3518 293.858 69.1612C293.594 68.97 293.312 68.7061 293.012 68.3696C292.692 67.9997 292.48 67.7356 292.374 67.5775C292.264 67.6281 292.142 67.6795 292.006 67.7318C291.988 68.3844 291.898 68.8636 291.735 69.1695C291.573 69.4754 291.306 69.6405 290.934 69.6647C290.553 69.6896 290.24 69.5537 289.995 69.257C289.75 68.9603 289.554 68.4868 289.407 67.8363C289.269 67.1852 289.165 66.3192 289.095 65.2381C289.027 64.209 289.004 63.3811 289.024 62.7545C289.052 62.1186 289.166 61.6118 289.367 61.2339C289.568 60.8473 289.893 60.6394 290.343 60.61C290.715 60.5857 291 60.6974 291.198 60.945C291.406 61.192 291.55 61.543 291.632 61.998C291.722 62.4437 291.792 63.0471 291.841 63.8082L291.895 64.6255L291.932 64.597C292.411 64.2269 292.835 63.9344 293.203 63.7193C293.58 63.5036 293.924 63.3856 294.236 63.3653C294.59 63.3422 294.875 63.4452 295.089 63.6743C295.312 63.8943 295.433 64.1513 295.452 64.4453C295.473 64.7567 295.388 65.0488 295.197 65.3218C295.006 65.5948 294.709 65.9008 294.306 66.2398ZM299.286 69.1456C298.646 69.1874 298.071 69.099 297.562 68.8803C297.053 68.6617 296.645 68.3366 296.339 67.9049C296.041 67.4641 295.873 66.9583 295.836 66.3875C295.799 65.8253 295.9 65.2977 296.137 64.8045C296.382 64.3108 296.738 63.9054 297.204 63.5884C297.669 63.2714 298.209 63.0929 298.823 63.0528C299.377 63.0167 299.873 63.0972 300.311 63.2944C300.75 63.4916 301.093 63.7688 301.343 64.126C301.591 64.4746 301.728 64.8477 301.754 65.2456C301.797 65.8942 301.581 66.3859 301.108 66.7208C300.643 67.0464 300.073 67.2313 299.399 67.2753C298.949 67.3047 298.565 67.2733 298.246 67.1812C298.533 67.588 298.975 67.772 299.572 67.733C299.814 67.7172 300.071 67.67 300.344 67.5914C300.446 67.5587 300.545 67.5392 300.64 67.533C300.83 67.5206 300.985 67.5583 301.103 67.6461C301.231 67.7333 301.3 67.8591 301.31 68.0234C301.328 68.2915 301.179 68.5357 300.863 68.7561C300.547 68.9678 300.021 69.0976 299.286 69.1456ZM298.182 65.596C298.267 65.712 298.377 65.796 298.511 65.8481C298.652 65.891 298.805 65.907 298.97 65.8963C299.16 65.8839 299.322 65.8299 299.454 65.7344C299.596 65.6383 299.662 65.5211 299.653 65.3827C299.643 65.2271 299.569 65.0973 299.432 64.9933C299.304 64.8888 299.123 64.8441 298.889 64.8594C298.656 64.8746 298.474 64.9603 298.346 65.1163C298.225 65.2631 298.17 65.4231 298.182 65.596ZM308.353 62.9128C308.383 63.3625 308.191 63.6833 307.778 63.8753C307.364 64.0586 306.79 64.1786 306.056 64.2352C306.061 64.452 306.08 64.8025 306.111 65.2869C306.143 65.7798 306.201 66.1278 306.284 66.3308C306.336 66.475 306.408 66.5659 306.497 66.6035C306.595 66.6406 306.735 66.6618 306.918 66.6672C306.979 66.6719 307.045 66.6807 307.115 66.6935C307.193 66.697 307.281 66.7044 307.377 66.7154C307.579 66.7457 307.741 66.8436 307.865 67.0093C307.988 67.1662 308.058 67.3745 308.075 67.6339C308.095 67.9279 307.958 68.167 307.666 68.3511C307.374 68.5352 306.964 68.6444 306.437 68.6788C305.953 68.7105 305.481 68.6023 305.022 68.3543C304.562 68.0977 304.235 67.737 304.039 67.272C303.833 66.7731 303.684 65.8144 303.591 64.3961C302.984 64.4183 302.491 64.3724 302.11 64.2583C301.737 64.135 301.538 63.8874 301.514 63.5155C301.484 63.0485 301.636 62.7259 301.972 62.5476C302.307 62.3607 302.799 62.2418 303.447 62.1908C303.428 61.4973 303.498 60.9151 303.659 60.4443C303.818 59.9649 304.145 59.7091 304.638 59.6769C305.139 59.6442 305.478 59.8392 305.653 60.262C305.837 60.6843 305.945 61.2722 305.977 62.0257C306.763 61.9657 307.346 61.9884 307.727 62.0938C308.116 62.1987 308.325 62.4717 308.353 62.9128Z" fill="#0C0C0C"/>
<path d="M125.306 200.243C124.365 195.582 125.049 184.829 135.319 179.11C145.588 173.392 156.37 174.863 160.478 176.313C162.617 177.867 166.845 183.088 166.64 191.542C166.444 199.575 161.797 203.836 155.857 204.461C136.345 210.819 127.36 204.298 125.306 200.243Z" fill="#B6B6B6"/>
<path d="M160.478 176.313C156.37 174.863 145.588 173.392 135.319 179.11C125.049 184.829 124.365 195.582 125.306 200.243C127.36 204.298 136.345 210.819 155.857 204.461M160.478 176.313C162.617 177.867 166.845 183.088 166.64 191.542C166.444 199.575 161.797 203.836 155.857 204.461M160.478 176.313C153.29 179.421 144.818 186.569 142.25 191.542C139.683 196.514 141.48 201.797 149.952 203.973C151.983 204.494 153.984 204.658 155.857 204.461" stroke="black" stroke-linecap="round" stroke-linejoin="round"/>
<path d="M160.478 176.313C162.617 177.867 166.845 183.088 166.639 191.542C166.444 199.575 161.797 203.836 155.857 204.461C136.345 210.819 127.36 204.298 125.306 200.243C128.902 200.036 137.121 199 141.226 196.514C141.02 194.907 141.39 193.207 142.25 191.542C144.817 186.569 153.29 179.421 160.478 176.313Z" fill="#7C7C7C"/>
<path d="M155.857 204.461C161.797 203.836 166.444 199.575 166.639 191.542C166.845 183.088 162.617 177.867 160.478 176.313C153.29 179.421 144.817 186.569 142.25 191.542C141.39 193.207 141.02 194.907 141.226 196.514M155.857 204.461C153.984 204.658 151.983 204.494 149.952 203.973C144.318 202.526 141.635 199.704 141.226 196.514M155.857 204.461C136.345 210.819 127.36 204.298 125.306 200.243C128.902 200.036 137.121 199 141.226 196.514" stroke="black" stroke-linecap="round" stroke-linejoin="round"/>
<path d="M166.64 191.542C166.845 183.088 162.617 177.867 160.478 176.313C153.29 179.421 144.818 186.569 142.25 191.542C139.683 196.514 141.48 201.797 149.952 203.973C151.983 204.494 153.984 204.658 155.857 204.461C161.797 203.836 166.444 199.575 166.64 191.542Z" fill="#818181" stroke="black" stroke-linecap="round" stroke-linejoin="round"/>
<path d="M162.547 189.233C157.002 190.476 157.669 197.416 158.696 200.731C158.696 202.7 160.904 206.698 169.736 206.947C178.567 207.195 177.523 198.556 175.897 194.205C173.758 192.03 168.093 187.99 162.547 189.233Z" fill="#999999" stroke="black" stroke-linecap="round" stroke-linejoin="round"/>
<path d="M162.547 189.233C157.002 190.476 157.669 197.416 158.696 200.731C161.948 201.767 169.941 201.913 175.897 194.205C173.758 192.03 168.093 187.99 162.547 189.233Z" fill="#B6B6B6" stroke="black" stroke-linecap="round" stroke-linejoin="round"/>
</svg>
