<svg width="434" height="343" viewBox="0 0 434 343" fill="none" xmlns="http://www.w3.org/2000/svg">
<g filter="url(#filter0_d_31513_9861)">
<path d="M146.955 19.7048L14.4841 65.3534C6.41543 68.1339 1 75.7279 1 84.2623V87.3487L13.8078 235.691C14.5249 243.997 20.3191 250.987 28.3481 253.232L306.249 330.935C313.979 333.096 322.253 330.426 327.262 324.154L426.491 199.902C431.111 194.117 432.158 186.253 429.211 179.462L363.22 27.3435C360.92 22.0423 356.44 17.995 350.933 16.2437L307.105 2.30543C304.399 1.44501 301.542 1.17047 298.722 1.50006L151.149 18.7489C149.72 18.9158 148.314 19.2363 146.955 19.7048Z" fill="#A0C752"/>
<path d="M146.955 19.7048L14.4841 65.3534C6.41543 68.1339 1 75.7279 1 84.2623V87.3487L13.8078 235.691C14.5249 243.997 20.3191 250.987 28.3481 253.232L306.249 330.935C313.979 333.096 322.253 330.426 327.262 324.154L426.491 199.902C431.111 194.117 432.158 186.253 429.211 179.462L363.22 27.3435C360.92 22.0423 356.44 17.995 350.933 16.2437L307.105 2.30543C304.399 1.44501 301.542 1.17047 298.722 1.50006L151.149 18.7489C149.72 18.9158 148.314 19.2363 146.955 19.7048Z" stroke="black" stroke-linecap="round"/>
</g>
<ellipse cx="341" cy="206.5" rx="15" ry="5.5" fill="#7EA82B"/>
<ellipse cx="166" cy="206.5" rx="15" ry="5.5" fill="#7EA82B"/>
<ellipse cx="132.5" cy="223.5" rx="34.5" ry="5.5" fill="#7EA82B"/>
<ellipse cx="67" cy="197" rx="25" ry="6" fill="#7EA82B"/>
<ellipse cx="282" cy="229" rx="25" ry="5" fill="#7EA82B"/>
<ellipse cx="308.5" cy="252.5" rx="23.5" ry="5.5" fill="#7EA82B"/>
<ellipse cx="104" cy="200" rx="25" ry="6" fill="#7EA82B"/>
<ellipse cx="242.5" cy="211" rx="80.5" ry="9" fill="#7EA82B"/>
<path d="M72.0271 130.951L67.2942 193.005H86.2259L72.0271 130.951Z" fill="#896736" stroke="black" stroke-linejoin="round"/>
<path d="M117.779 174.073H41.8492C37.6887 155.044 49.8236 145.001 56.4111 142.358C52.5973 143.68 44.3455 143.68 41.8492 133.108C39.3529 122.536 54.0377 108.351 59.9318 105.708C44.6812 101.501 56.4111 71 69.9328 71C77.3143 71 102.002 97.82 82.4144 103.983C85.1881 103.983 97.2694 105.708 105.158 125.692C108.857 135.063 102.828 140.158 97.5971 139.107C111.605 147.791 116.815 167.132 117.779 174.073Z" fill="#14653C" stroke="black" stroke-linejoin="round"/>
<path d="M104.106 148.832L99.899 204.575H118.831L104.106 148.832Z" fill="#896736" stroke="black" stroke-linejoin="round"/>
<path d="M149.332 185.642H74.4423C70.3388 170.885 82.3074 163.097 88.8047 161.047C85.0431 162.072 76.9044 162.072 74.4423 153.873C71.9802 145.675 87.249 139.526 93.0624 137.477C90.3267 126.887 87.9228 105.708 105.158 105.708C122.392 105.708 117.529 126.887 114.452 137.477C117.187 137.477 124.3 139.526 130.866 147.725C137.432 155.923 130.182 160.022 125.736 161.047C142.151 166.786 148.306 179.835 149.332 185.642Z" fill="#238252" stroke="black" stroke-linejoin="round"/>
<path d="M180.05 89.4546C159.098 101.385 144.526 126.604 144.526 147.903C144.526 165.3 154.247 176.136 169.226 182.029H240.83C255.809 176.136 265.53 165.3 265.53 147.903C265.53 126.604 250.958 101.385 230.006 89.4546H180.05Z" fill="#DCA450" stroke="black" stroke-linecap="round"/>
<path d="M150.039 123.314C146.5 131.319 144.526 139.65 144.526 147.453C144.526 153.751 145.812 159.186 148.169 163.834H261.886C264.244 159.186 265.53 153.751 265.53 147.453C265.53 139.65 263.556 131.319 260.017 123.314H150.039Z" fill="#EBD783" stroke="black" stroke-linecap="round"/>
<path d="M205.028 70.5825C201.043 70.5825 197.812 73.6373 197.812 77.4056C197.812 79.955 199.291 82.1777 201.481 83.349H208.575C210.765 82.1777 212.244 79.955 212.244 77.4056C212.244 73.6373 209.013 70.5825 205.028 70.5825Z" fill="#A77148" stroke="black" stroke-linecap="round"/>
<path d="M173.944 93.3401C173.944 85.9828 179.909 80.0186 187.266 80.0186H223.345C230.702 80.0186 236.667 85.9828 236.667 93.3401H173.944Z" fill="#A77148" stroke="black" stroke-linecap="round"/>
<rect x="175.277" y="173.067" width="36.5167" height="9.60965" rx="4" transform="rotate(90 175.277 173.067)" fill="#76500D" stroke="black" stroke-linecap="round"/>
<rect x="256.959" y="173.067" width="36.5167" height="9.60965" rx="4" transform="rotate(90 256.959 173.067)" fill="#76500D" stroke="black" stroke-linecap="round"/>
<rect x="349.211" y="173.067" width="36.5167" height="9.60965" rx="4" transform="rotate(90 349.211 173.067)" fill="#76500D" stroke="black" stroke-linecap="round"/>
<path d="M246.874 53.2935C217.682 69.916 197.379 105.052 197.379 134.728C197.379 158.967 210.923 174.064 231.793 182.274H331.557C352.427 174.064 365.971 158.967 365.971 134.728C365.971 105.052 345.668 69.916 316.476 53.2935H246.874Z" fill="#DCA450" stroke="black" stroke-linecap="round"/>
<path d="M205.06 100.469C200.129 111.623 197.379 123.23 197.379 134.101C197.379 142.877 199.171 150.448 202.456 156.924H360.894C364.179 150.448 365.971 142.877 365.971 134.101C365.971 123.23 363.221 111.623 358.29 100.469H205.06Z" fill="#EBD783" stroke="black" stroke-linecap="round"/>
<path d="M281.675 88.0955C253.912 88.0955 231.407 110.487 231.407 138.108C231.407 156.794 241.707 173.086 256.967 181.672H306.383C321.643 173.086 331.943 156.794 331.943 138.108C331.943 110.487 309.437 88.0955 281.675 88.0955Z" fill="#A77148"/>
<path d="M281.675 88.0955C253.912 88.0955 231.407 110.487 231.407 138.108C231.407 156.794 241.707 173.086 256.967 181.672H306.383C321.643 173.086 331.943 156.794 331.943 138.108C331.943 110.487 309.437 88.0955 281.675 88.0955Z" fill="#A77148"/>
<path d="M281.675 88.0955C253.912 88.0955 231.407 110.487 231.407 138.108C231.407 156.794 241.707 173.086 256.967 181.672H306.383C321.643 173.086 331.943 156.794 331.943 138.108C331.943 110.487 309.437 88.0955 281.675 88.0955Z" stroke="black" stroke-linecap="round"/>
<path d="M281.675 96.6008C258.611 96.6008 239.914 114.921 239.914 137.52C239.914 152.809 248.471 166.139 261.148 173.163H302.202C314.879 166.139 323.436 152.809 323.436 137.52C323.436 114.921 304.739 96.6008 281.675 96.6008Z" fill="#C09344" stroke="black" stroke-linecap="round"/>
<path d="M281.675 27.0002C276.122 27.0002 271.621 31.2564 271.621 36.5067C271.621 40.0586 273.681 43.1555 276.733 44.7875H286.617C289.669 43.1555 291.729 40.0586 291.729 36.5067C291.729 31.2564 287.227 27.0002 281.675 27.0002Z" fill="#A77148" stroke="black" stroke-linecap="round"/>
<path d="M238.367 58.7078C238.367 48.4571 246.677 40.1472 256.928 40.1472H307.196C317.447 40.1472 325.756 48.4571 325.756 58.7078H238.367Z" fill="#A77148" stroke="black" stroke-linecap="round"/>
<path d="M286.864 84.7007C287.122 84.7007 287.337 84.8964 287.362 85.1528L288.995 102.135C289.008 102.275 288.962 102.414 288.867 102.519C288.773 102.623 288.638 102.682 288.497 102.682H275.108C274.967 102.682 274.832 102.623 274.738 102.519C274.643 102.414 274.597 102.275 274.61 102.135L276.243 85.1528C276.268 84.8964 276.483 84.7007 276.741 84.7007H286.864Z" fill="#F7BE4A" stroke="black" stroke-linejoin="round"/>
<path d="M288.497 101.683C288.773 101.683 288.997 101.906 288.997 102.183V107.174C288.997 107.199 288.995 107.225 288.991 107.25L288.497 107.174C288.991 107.25 288.991 107.251 288.991 107.251L288.991 107.252L288.991 107.254L288.99 107.259L288.987 107.274C288.985 107.285 288.982 107.3 288.978 107.319C288.971 107.356 288.959 107.406 288.942 107.468C288.909 107.592 288.855 107.763 288.77 107.966C288.599 108.37 288.303 108.902 287.799 109.432C286.779 110.503 284.966 111.5 281.802 111.5C278.639 111.5 276.826 110.503 275.806 109.432C275.302 108.902 275.006 108.37 274.835 107.966C274.75 107.763 274.696 107.592 274.662 107.468C274.646 107.406 274.634 107.356 274.626 107.319C274.623 107.3 274.62 107.285 274.618 107.274L274.615 107.259L274.614 107.254L274.614 107.252L274.614 107.251C274.614 107.251 274.614 107.25 275.108 107.174L274.614 107.25C274.61 107.225 274.608 107.199 274.608 107.174V102.183C274.608 101.906 274.832 101.683 275.108 101.683H288.497Z" fill="#D39924" stroke="black" stroke-linejoin="round"/>
<path d="M315.766 84.7007C315.906 84.7007 316.04 84.7598 316.135 84.8635L331.647 101.845C331.78 101.991 331.815 102.203 331.735 102.384C331.655 102.565 331.476 102.682 331.278 102.682H316.582C316.407 102.682 316.245 102.591 316.154 102.441L305.867 85.4597C305.774 85.3053 305.771 85.1125 305.859 84.9553C305.948 84.798 306.114 84.7007 306.295 84.7007H315.766Z" fill="white" stroke="black" stroke-linejoin="round"/>
<path d="M331.278 101.683C331.554 101.683 331.778 101.906 331.778 102.183V107.174C331.778 107.202 331.775 107.23 331.771 107.258L331.278 107.174C331.771 107.258 331.77 107.258 331.77 107.259L331.77 107.26L331.77 107.262L331.769 107.267L331.766 107.282C331.764 107.294 331.76 107.309 331.756 107.328C331.747 107.366 331.735 107.417 331.716 107.48C331.679 107.605 331.619 107.778 331.525 107.981C331.336 108.389 331.011 108.921 330.46 109.448C329.348 110.512 327.377 111.5 323.93 111.5C320.482 111.5 318.512 110.512 317.4 109.448C316.848 108.921 316.523 108.389 316.335 107.981C316.241 107.778 316.181 107.605 316.144 107.48C316.125 107.417 316.112 107.366 316.104 107.328C316.099 107.309 316.096 107.294 316.094 107.282L316.091 107.267L316.09 107.262L316.089 107.26L316.089 107.259C316.089 107.258 316.089 107.258 316.582 107.174L316.089 107.258C316.084 107.23 316.082 107.202 316.082 107.174V102.183C316.082 101.906 316.306 101.683 316.582 101.683H331.278Z" fill="#D9D9D9" stroke="black" stroke-linejoin="round"/>
<path d="M306.296 84.7007C306.47 84.7007 306.633 84.792 306.723 84.9416L317.01 101.923C317.104 102.078 317.107 102.271 317.018 102.428C316.93 102.585 316.763 102.682 316.583 102.682H302.213C301.996 102.682 301.803 102.541 301.737 102.334L296.348 85.3519C296.3 85.1999 296.327 85.0341 296.422 84.9054C296.516 84.7767 296.666 84.7007 296.825 84.7007H306.296Z" fill="#F7BE4A" stroke="black" stroke-linejoin="round"/>
<path d="M316.583 101.683C316.859 101.683 317.083 101.906 317.083 102.183V107.174C317.083 107.201 317.08 107.229 317.076 107.256L316.583 107.174C317.076 107.256 317.076 107.256 317.076 107.257L317.075 107.258L317.075 107.26L317.074 107.265L317.071 107.28C317.069 107.292 317.066 107.307 317.062 107.326C317.053 107.363 317.041 107.414 317.023 107.477C316.987 107.602 316.928 107.774 316.836 107.977C316.652 108.384 316.334 108.916 315.795 109.444C314.705 110.51 312.774 111.5 309.398 111.5C306.022 111.5 304.091 110.51 303.001 109.444C302.462 108.916 302.144 108.384 301.96 107.977C301.868 107.774 301.81 107.602 301.773 107.477C301.755 107.414 301.743 107.363 301.734 107.326C301.73 107.307 301.727 107.292 301.725 107.28L301.722 107.265L301.721 107.26L301.721 107.258L301.72 107.257C301.72 107.256 301.72 107.256 302.213 107.174L301.72 107.256C301.716 107.229 301.713 107.201 301.713 107.174V102.183C301.713 101.906 301.937 101.683 302.213 101.683H316.583Z" fill="#D39924" stroke="black" stroke-linejoin="round"/>
<path d="M296.825 84.7007C297.042 84.7007 297.235 84.8418 297.301 85.0495L302.69 102.031C302.738 102.183 302.711 102.349 302.617 102.478C302.522 102.606 302.372 102.682 302.213 102.682H288.497C288.241 102.682 288.027 102.489 288 102.235L286.204 85.2533C286.189 85.1123 286.234 84.9716 286.329 84.8662C286.424 84.7609 286.559 84.7007 286.701 84.7007H296.825Z" fill="white" stroke="black" stroke-linejoin="round"/>
<path d="M302.213 101.683C302.489 101.683 302.713 101.906 302.713 102.183V107.174C302.713 107.2 302.711 107.226 302.707 107.252L302.213 107.174C302.707 107.252 302.707 107.253 302.707 107.253L302.707 107.254L302.706 107.256L302.705 107.261L302.703 107.276C302.701 107.287 302.698 107.303 302.694 107.321C302.686 107.358 302.674 107.409 302.657 107.471C302.622 107.595 302.567 107.767 302.479 107.97C302.304 108.375 302.001 108.907 301.485 109.436C300.442 110.505 298.589 111.5 295.355 111.5C292.121 111.5 290.268 110.505 289.225 109.436C288.709 108.907 288.406 108.375 288.231 107.97C288.143 107.767 288.088 107.595 288.053 107.471C288.036 107.409 288.024 107.358 288.016 107.321C288.012 107.303 288.01 107.287 288.007 107.276L288.005 107.261L288.004 107.256L288.004 107.254L288.003 107.253C288.003 107.253 288.003 107.252 288.497 107.174L288.003 107.252C287.999 107.226 287.997 107.2 287.997 107.174V102.183C287.997 101.906 288.221 101.683 288.497 101.683H302.213Z" fill="#D9D9D9" stroke="black" stroke-linejoin="round"/>
<path d="M266.616 84.7007C266.398 84.7007 266.206 84.8418 266.14 85.0495L260.751 102.031C260.703 102.183 260.73 102.349 260.824 102.478C260.918 102.606 261.068 102.682 261.228 102.682H275.107C275.365 102.682 275.58 102.487 275.605 102.23L277.238 85.2485C277.251 85.1083 277.205 84.9688 277.11 84.8645C277.015 84.7602 276.881 84.7007 276.74 84.7007H266.616Z" fill="white" stroke="black" stroke-linejoin="round"/>
<path d="M275.108 101.683C275.384 101.683 275.608 101.906 275.608 102.183V107.174C275.608 107.2 275.606 107.226 275.602 107.252L275.108 107.174C275.602 107.252 275.602 107.253 275.602 107.253L275.601 107.254L275.601 107.256L275.6 107.261L275.598 107.276C275.595 107.287 275.593 107.303 275.589 107.321C275.581 107.358 275.569 107.409 275.552 107.471C275.517 107.595 275.462 107.767 275.374 107.97C275.199 108.375 274.896 108.907 274.38 109.436C273.337 110.505 271.484 111.5 268.25 111.5C265.016 111.5 263.163 110.505 262.12 109.436C261.604 108.907 261.301 108.375 261.126 107.97C261.038 107.767 260.983 107.595 260.948 107.471C260.931 107.409 260.919 107.358 260.911 107.321C260.907 107.303 260.904 107.287 260.902 107.276L260.9 107.261L260.899 107.256L260.898 107.254L260.898 107.253C260.898 107.253 260.898 107.252 261.392 107.174L260.898 107.252C260.894 107.226 260.892 107.2 260.892 107.174V102.183C260.892 101.906 261.116 101.683 261.392 101.683H275.108Z" fill="#D9D9D9" stroke="black" stroke-linejoin="round"/>
<path d="M257.146 84.7007C256.972 84.7007 256.811 84.7908 256.72 84.9386L246.27 101.92C246.175 102.075 246.171 102.268 246.259 102.426C246.348 102.584 246.515 102.682 246.696 102.682H261.391C261.611 102.682 261.805 102.539 261.869 102.329L267.094 85.3477C267.141 85.1961 267.113 85.0313 267.019 84.9036C266.924 84.776 266.775 84.7007 266.617 84.7007H257.146Z" fill="#F7BE4A" stroke="black" stroke-linejoin="round"/>
<path d="M261.391 101.683C261.667 101.683 261.891 101.906 261.891 102.183V107.174C261.891 107.202 261.888 107.23 261.884 107.258L261.391 107.174C261.884 107.258 261.884 107.258 261.884 107.259L261.883 107.26L261.883 107.262L261.882 107.267L261.879 107.282C261.877 107.294 261.874 107.309 261.869 107.328C261.861 107.366 261.848 107.417 261.829 107.48C261.792 107.605 261.732 107.778 261.638 107.981C261.45 108.389 261.124 108.921 260.573 109.448C259.461 110.512 257.49 111.5 254.043 111.5C250.595 111.5 248.625 110.512 247.513 109.448C246.962 108.921 246.636 108.389 246.448 107.981C246.354 107.778 246.294 107.605 246.257 107.48C246.238 107.417 246.225 107.366 246.217 107.328C246.212 107.309 246.209 107.294 246.207 107.282L246.204 107.267L246.203 107.262L246.203 107.26L246.202 107.259C246.202 107.258 246.202 107.258 246.695 107.174L246.202 107.258C246.197 107.23 246.195 107.202 246.195 107.174V102.183C246.195 101.906 246.419 101.683 246.695 101.683H261.391Z" fill="#D39924" stroke="black" stroke-linejoin="round"/>
<path d="M247.675 84.7007C247.536 84.7007 247.403 84.759 247.308 84.8615L231.633 101.843C231.498 101.989 231.462 102.201 231.542 102.383C231.622 102.565 231.801 102.682 232 102.682H246.696C246.869 102.682 247.031 102.592 247.122 102.444L257.572 85.4627C257.667 85.3085 257.671 85.1149 257.583 84.9568C257.494 84.7987 257.327 84.7007 257.146 84.7007H247.675Z" fill="white" stroke="black" stroke-linejoin="round"/>
<path d="M246.696 101.683C246.972 101.683 247.196 101.906 247.196 102.183V107.174C247.196 107.202 247.193 107.23 247.189 107.258L246.696 107.174C247.189 107.258 247.188 107.258 247.188 107.259L247.188 107.26L247.188 107.262L247.187 107.267L247.184 107.282C247.182 107.294 247.178 107.309 247.174 107.328C247.165 107.366 247.153 107.417 247.134 107.48C247.097 107.605 247.037 107.778 246.943 107.981C246.754 108.389 246.429 108.921 245.878 109.448C244.766 110.512 242.795 111.5 239.348 111.5C235.9 111.5 233.93 110.512 232.818 109.448C232.267 108.921 231.941 108.389 231.753 107.981C231.659 107.778 231.599 107.605 231.562 107.48C231.543 107.417 231.53 107.366 231.522 107.328C231.517 107.309 231.514 107.294 231.512 107.282L231.509 107.267L231.508 107.262L231.507 107.26L231.507 107.259C231.507 107.258 231.507 107.258 232 107.174L231.507 107.258C231.502 107.23 231.5 107.202 231.5 107.174V102.183C231.5 101.906 231.724 101.683 232 101.683H246.696Z" fill="#D9D9D9" stroke="black" stroke-linejoin="round"/>
<path d="M245.656 86.1108H245.156V85.6108V80.3875V80.3043L245.183 80.2256L245.656 80.3875C245.183 80.2256 245.183 80.2248 245.183 80.224L245.184 80.2223L245.185 80.2181L245.189 80.2071C245.192 80.1987 245.196 80.1881 245.201 80.1753C245.212 80.1498 245.226 80.1156 245.245 80.0734C245.284 79.989 245.343 79.8727 245.428 79.7291C245.598 79.4418 245.874 79.0467 246.305 78.5808C247.17 77.6485 248.654 76.4394 251.163 75.2424C256.175 72.8513 265.293 70.4999 281.798 70.4999C298.303 70.4999 307.422 72.8513 312.434 75.2424C314.943 76.4394 316.427 77.6485 317.291 78.5808C317.723 79.0467 317.999 79.4418 318.169 79.7291C318.254 79.8727 318.313 79.989 318.351 80.0734C318.371 80.1156 318.385 80.1498 318.395 80.1753C318.4 80.1881 318.404 80.1987 318.408 80.2071L318.412 80.2181L318.413 80.2223L318.414 80.224C318.414 80.2248 318.414 80.2256 317.941 80.3875L318.414 80.2256L318.441 80.3043V80.3875V85.6108V86.1108H317.941H245.656Z" fill="#D39924" stroke="black"/>
<rect x="168.55" y="181.716" width="167.208" height="11.5316" rx="4" fill="#C09344" stroke="black" stroke-linecap="round"/>
<rect x="252.154" y="191.325" width="71.1114" height="11.5316" rx="4" fill="#C09344" stroke="black" stroke-linecap="round"/>
<rect x="244.466" y="200.934" width="71.1114" height="11.5316" rx="4" fill="#C09344" stroke="black" stroke-linecap="round"/>
<path d="M115.306 219.243C114.365 214.582 115.049 203.829 125.319 198.11C135.588 192.392 146.37 193.863 150.478 195.313C152.617 196.867 156.845 202.088 156.64 210.542C156.444 218.575 151.797 222.836 145.857 223.461C126.345 229.819 117.36 223.298 115.306 219.243Z" fill="#B6B6B6"/>
<path d="M150.478 195.313C146.37 193.863 135.588 192.392 125.319 198.11C115.049 203.829 114.365 214.582 115.306 219.243C117.36 223.298 126.345 229.819 145.857 223.461M150.478 195.313C152.617 196.867 156.845 202.088 156.64 210.542C156.444 218.575 151.797 222.836 145.857 223.461M150.478 195.313C143.29 198.421 134.818 205.569 132.25 210.542C129.683 215.514 131.48 220.797 139.952 222.973C141.983 223.494 143.984 223.658 145.857 223.461" stroke="black" stroke-linecap="round" stroke-linejoin="round"/>
<path d="M150.478 195.313C152.617 196.867 156.845 202.088 156.639 210.542C156.444 218.575 151.797 222.836 145.857 223.461C126.345 229.819 117.36 223.298 115.306 219.243C118.902 219.036 127.121 218 131.226 215.514C131.02 213.907 131.39 212.207 132.25 210.542C134.817 205.569 143.29 198.421 150.478 195.313Z" fill="#7C7C7C"/>
<path d="M145.857 223.461C151.797 222.836 156.444 218.575 156.639 210.542C156.845 202.088 152.617 196.867 150.478 195.313C143.29 198.421 134.817 205.569 132.25 210.542C131.39 212.207 131.02 213.907 131.226 215.514M145.857 223.461C143.984 223.658 141.983 223.494 139.952 222.973C134.318 221.526 131.635 218.704 131.226 215.514M145.857 223.461C126.345 229.819 117.36 223.298 115.306 219.243C118.902 219.036 127.121 218 131.226 215.514" stroke="black" stroke-linecap="round" stroke-linejoin="round"/>
<path d="M156.64 210.542C156.845 202.088 152.617 196.867 150.478 195.313C143.29 198.421 134.818 205.569 132.25 210.542C129.683 215.514 131.48 220.797 139.952 222.973C141.983 223.494 143.984 223.658 145.857 223.461C151.797 222.836 156.444 218.575 156.64 210.542Z" fill="#818181" stroke="black" stroke-linecap="round" stroke-linejoin="round"/>
<path d="M152.547 208.233C147.002 209.476 147.669 216.416 148.696 219.731C148.696 221.7 150.904 225.698 159.736 225.947C168.567 226.195 167.523 217.556 165.897 213.205C163.758 211.03 158.093 206.99 152.547 208.233Z" fill="#999999" stroke="black" stroke-linecap="round" stroke-linejoin="round"/>
<path d="M152.547 208.233C147.002 209.476 147.669 216.416 148.696 219.731C151.948 220.767 159.941 220.913 165.897 213.205C163.758 211.03 158.093 206.99 152.547 208.233Z" fill="#B6B6B6" stroke="black" stroke-linecap="round" stroke-linejoin="round"/>
<defs>
<filter id="filter0_d_31513_9861" x="0.5" y="0.864746" width="430.864" height="341.31" filterUnits="userSpaceOnUse" color-interpolation-filters="sRGB">
<feFlood flood-opacity="0" result="BackgroundImageFix"/>
<feColorMatrix in="SourceAlpha" type="matrix" values="0 0 0 0 0 0 0 0 0 0 0 0 0 0 0 0 0 0 127 0" result="hardAlpha"/>
<feOffset dy="10"/>
<feComposite in2="hardAlpha" operator="out"/>
<feColorMatrix type="matrix" values="0 0 0 0 0.321569 0 0 0 0 0.239216 0 0 0 0 0.215686 0 0 0 1 0"/>
<feBlend mode="normal" in2="BackgroundImageFix" result="effect1_dropShadow_31513_9861"/>
<feBlend mode="normal" in="SourceGraphic" in2="effect1_dropShadow_31513_9861" result="shape"/>
</filter>
</defs>
</svg>
