<svg width="484" height="332" viewBox="0 0 484 332" fill="none" xmlns="http://www.w3.org/2000/svg">
  <path d="M146.955 19.7048L14.4841 65.3534C6.41543 68.1339 1 75.7279 1 84.2623V87.3487L13.8078 235.691C14.5249 243.997 20.3191 250.987 28.3481 253.232L302.812 329.974C312.171 332.591 322.056 328.101 326.245 319.333L358.052 252.74C359.076 250.597 360.473 248.654 362.178 247.001L477.007 135.673C483.257 129.614 484.87 120.208 480.996 112.413L450.394 50.836C447.912 45.8406 443.456 42.109 438.102 40.5421L306.902 2.14199C304.327 1.38837 301.627 1.16051 298.962 1.47198L151.149 18.7489C149.72 18.9158 148.314 19.2363 146.955 19.7048Z" fill="#B3E352" stroke="black" stroke-linecap="round"/>
  <ellipse cx="350" cy="187.5" rx="15" ry="5.5" fill="#7EA82B"/>
  <ellipse cx="175" cy="187.5" rx="15" ry="5.5" fill="#7EA82B"/>
  <ellipse cx="141.5" cy="204.5" rx="34.5" ry="5.5" fill="#7EA82B"/>
  <ellipse cx="76" cy="178" rx="25" ry="6" fill="#7EA82B"/>
  <ellipse cx="291" cy="210" rx="25" ry="5" fill="#7EA82B"/>
  <ellipse cx="317.5" cy="233.5" rx="23.5" ry="5.5" fill="#7EA82B"/>
  <ellipse cx="113" cy="181" rx="25" ry="6" fill="#7EA82B"/>
  <ellipse cx="251.5" cy="192" rx="80.5" ry="9" fill="#7EA82B"/>
  <path d="M81.0271 111.951L76.2942 174.005H95.2259L81.0271 111.951Z" fill="#896736" stroke="black" stroke-linejoin="round"/>
  <path d="M126.779 155.073H50.8492C46.6887 136.044 58.8236 126.001 65.4111 123.358C61.5973 124.68 53.3455 124.68 50.8492 114.108C48.3529 103.536 63.0377 89.3511 68.9318 86.7082C53.6812 82.5012 65.4111 52 78.9328 52C86.3143 52 111.002 78.82 91.4144 84.9833C94.1881 84.9833 106.269 86.7082 114.158 106.692C117.857 116.063 111.828 121.158 106.597 120.107C120.605 128.791 125.815 148.132 126.779 155.073Z" fill="#14653C" stroke="black" stroke-linejoin="round"/>
  <path d="M113.106 129.832L108.899 185.575H127.831L113.106 129.832Z" fill="#896736" stroke="black" stroke-linejoin="round"/>
  <path d="M158.332 166.642H83.4423C79.3388 151.885 91.3074 144.097 97.8047 142.047C94.0431 143.072 85.9044 143.072 83.4423 134.873C80.9802 126.675 96.249 120.526 102.062 118.477C99.3267 107.887 96.9228 86.708 114.158 86.708C131.392 86.708 126.529 107.887 123.452 118.477C126.187 118.477 133.3 120.526 139.866 128.725C146.432 136.923 139.182 141.022 134.736 142.047C151.151 147.786 157.306 160.835 158.332 166.642Z" fill="#238252" stroke="black" stroke-linejoin="round"/>
  <path d="M189.05 70.4546C168.098 82.3852 153.526 107.604 153.526 128.903C153.526 146.3 163.247 157.136 178.226 163.029H249.83C264.809 157.136 274.53 146.3 274.53 128.903C274.53 107.604 259.958 82.3852 239.006 70.4546H189.05Z" fill="#DCA450" stroke="black" stroke-linecap="round"/>
  <path d="M159.039 104.313C155.5 112.319 153.526 120.65 153.526 128.453C153.526 134.751 154.812 140.186 157.169 144.833H270.886C273.244 140.186 274.53 134.751 274.53 128.453C274.53 120.65 272.556 112.319 269.017 104.313H159.039Z" fill="#EBD783" stroke="black" stroke-linecap="round"/>
  <path d="M214.028 51.5825C210.043 51.5825 206.812 54.6373 206.812 58.4056C206.812 60.955 208.291 63.1777 210.481 64.349H217.575C219.765 63.1777 221.244 60.955 221.244 58.4056C221.244 54.6373 218.013 51.5825 214.028 51.5825Z" fill="#A77148" stroke="black" stroke-linecap="round"/>
  <path d="M182.944 74.3401C182.944 66.9828 188.909 61.0186 196.266 61.0186H232.345C239.702 61.0186 245.667 66.9828 245.667 74.3401H182.944Z" fill="#A77148" stroke="black" stroke-linecap="round"/>
  <rect x="184.277" y="154.066" width="36.5167" height="9.60965" rx="4" transform="rotate(90 184.277 154.066)" fill="#76500D" stroke="black" stroke-linecap="round"/>
  <rect x="265.959" y="154.066" width="36.5167" height="9.60965" rx="4" transform="rotate(90 265.959 154.066)" fill="#76500D" stroke="black" stroke-linecap="round"/>
  <rect x="358.211" y="154.066" width="36.5167" height="9.60965" rx="4" transform="rotate(90 358.211 154.066)" fill="#76500D" stroke="black" stroke-linecap="round"/>
  <path d="M255.874 34.2935C226.682 50.916 206.379 86.0523 206.379 115.728C206.379 139.967 219.923 155.064 240.793 163.274H340.557C361.427 155.064 374.971 139.967 374.971 115.728C374.971 86.0523 354.668 50.916 325.476 34.2935H255.874Z" fill="#DCA450" stroke="black" stroke-linecap="round"/>
  <path d="M214.06 81.4692C209.129 92.6231 206.379 104.23 206.379 115.101C206.379 123.877 208.171 131.449 211.456 137.924H369.894C373.179 131.449 374.971 123.877 374.971 115.101C374.971 104.23 372.221 92.6231 367.29 81.4692H214.06Z" fill="#EBD783" stroke="black" stroke-linecap="round"/>
  <path d="M290.675 69.0957C262.912 69.0957 240.407 91.487 240.407 119.108C240.407 137.794 250.707 154.087 265.967 162.672H315.383C330.643 154.087 340.943 137.794 340.943 119.108C340.943 91.487 318.437 69.0957 290.675 69.0957Z" fill="#A77148"/>
  <path d="M290.675 69.0957C262.912 69.0957 240.407 91.487 240.407 119.108C240.407 137.794 250.707 154.087 265.967 162.672H315.383C330.643 154.087 340.943 137.794 340.943 119.108C340.943 91.487 318.437 69.0957 290.675 69.0957Z" fill="#A77148"/>
  <path d="M290.675 69.0957C262.912 69.0957 240.407 91.487 240.407 119.108C240.407 137.794 250.707 154.087 265.967 162.672H315.383C330.643 154.087 340.943 137.794 340.943 119.108C340.943 91.487 318.437 69.0957 290.675 69.0957Z" stroke="black" stroke-linecap="round"/>
  <path d="M290.675 77.6011C267.611 77.6011 248.914 95.9212 248.914 118.52C248.914 133.809 257.471 147.139 270.148 154.163H311.202C323.879 147.139 332.436 133.809 332.436 118.52C332.436 95.9212 313.739 77.6011 290.675 77.6011Z" fill="#C09344" stroke="black" stroke-linecap="round"/>
  <path d="M290.675 8C285.122 8 280.621 12.2562 280.621 17.5065C280.621 21.0584 282.681 24.1553 285.733 25.7872H295.617C298.669 24.1553 300.729 21.0584 300.729 17.5065C300.729 12.2562 296.227 8 290.675 8Z" fill="#A77148" stroke="black" stroke-linecap="round"/>
  <path d="M247.367 39.708C247.367 29.4573 255.677 21.1475 265.928 21.1475H316.196C326.447 21.1475 334.756 29.4573 334.756 39.708H247.367Z" fill="#A77148" stroke="black" stroke-linecap="round"/>
  <path d="M295.864 65.7007C296.122 65.7007 296.337 65.8964 296.362 66.1528L297.995 83.1345C298.008 83.2748 297.962 83.4143 297.867 83.5186C297.773 83.6229 297.638 83.6824 297.497 83.6824H284.108C283.967 83.6824 283.832 83.6229 283.738 83.5186C283.643 83.4143 283.597 83.2748 283.61 83.1345L285.243 66.1528C285.268 65.8964 285.483 65.7007 285.741 65.7007H295.864Z" fill="#F7BE4A" stroke="black" stroke-linejoin="round"/>
  <path d="M297.497 82.6826C297.773 82.6826 297.997 82.9065 297.997 83.1826V88.1736C297.997 88.1993 297.995 88.225 297.991 88.2504L297.497 88.1736C297.991 88.2504 297.991 88.2508 297.991 88.2512L297.991 88.2521L297.991 88.2542L297.99 88.2593L297.987 88.2737C297.985 88.2852 297.982 88.3003 297.978 88.3187C297.971 88.3556 297.959 88.406 297.942 88.4681C297.909 88.5921 297.855 88.7632 297.77 88.9656C297.599 89.3704 297.303 89.9025 296.799 90.4317C295.779 91.5029 293.966 92.5 290.802 92.5C287.639 92.5 285.826 91.5029 284.806 90.4317C284.302 89.9025 284.006 89.3704 283.835 88.9656C283.75 88.7632 283.696 88.5921 283.662 88.4681C283.646 88.406 283.634 88.3556 283.626 88.3187C283.623 88.3003 283.62 88.2852 283.618 88.2737L283.615 88.2593L283.614 88.2542L283.614 88.2521L283.614 88.2512C283.614 88.2508 283.614 88.2504 284.108 88.1736L283.614 88.2504C283.61 88.225 283.608 88.1993 283.608 88.1736V83.1826C283.608 82.9065 283.832 82.6826 284.108 82.6826H297.497Z" fill="#D39924" stroke="black" stroke-linejoin="round"/>
  <path d="M324.766 65.7007C324.906 65.7007 325.04 65.7598 325.135 65.8635L340.647 82.8452C340.78 82.9914 340.815 83.2028 340.735 83.3841C340.655 83.5654 340.476 83.6824 340.278 83.6824H325.582C325.407 83.6824 325.245 83.591 325.154 83.4414L314.867 66.4597C314.774 66.3053 314.771 66.1125 314.859 65.9553C314.948 65.798 315.114 65.7007 315.295 65.7007H324.766Z" fill="white" stroke="black" stroke-linejoin="round"/>
  <path d="M340.278 82.6826C340.554 82.6826 340.778 82.9065 340.778 83.1826V88.1736C340.778 88.2018 340.775 88.2299 340.771 88.2577L340.278 88.1736C340.771 88.2577 340.77 88.2582 340.77 88.2586L340.77 88.2596L340.77 88.2617L340.769 88.2671L340.766 88.2821C340.764 88.2939 340.76 88.3094 340.756 88.3282C340.747 88.3658 340.735 88.417 340.716 88.4798C340.679 88.6053 340.619 88.7778 340.525 88.9813C340.336 89.3889 340.011 89.9209 339.46 90.4481C338.348 91.5117 336.377 92.5 332.93 92.5C329.482 92.5 327.512 91.5117 326.4 90.4481C325.848 89.9209 325.523 89.3889 325.335 88.9813C325.241 88.7778 325.181 88.6053 325.144 88.4798C325.125 88.417 325.112 88.3658 325.104 88.3282C325.099 88.3094 325.096 88.2939 325.094 88.2821L325.091 88.2671L325.09 88.2617L325.089 88.2596L325.089 88.2586C325.089 88.2582 325.089 88.2577 325.582 88.1736L325.089 88.2577C325.084 88.2299 325.082 88.2018 325.082 88.1736V83.1826C325.082 82.9065 325.306 82.6826 325.582 82.6826H340.278Z" fill="#D9D9D9" stroke="black" stroke-linejoin="round"/>
  <path d="M315.296 65.7007C315.47 65.7007 315.633 65.792 315.723 65.9416L326.01 82.9233C326.104 83.0777 326.107 83.2705 326.018 83.4278C325.93 83.5851 325.763 83.6824 325.583 83.6824H311.213C310.996 83.6824 310.803 83.5413 310.737 83.3336L305.348 66.3519C305.3 66.1999 305.327 66.0341 305.422 65.9054C305.516 65.7767 305.666 65.7007 305.825 65.7007H315.296Z" fill="#F7BE4A" stroke="black" stroke-linejoin="round"/>
  <path d="M325.583 82.6826C325.859 82.6826 326.083 82.9065 326.083 83.1826V88.1736C326.083 88.2012 326.08 88.2287 326.076 88.2559L325.583 88.1736C326.076 88.2559 326.076 88.2563 326.076 88.2568L326.075 88.2577L326.075 88.2598L326.074 88.2652L326.071 88.28C326.069 88.2918 326.066 88.3071 326.062 88.3258C326.053 88.3633 326.041 88.4143 326.023 88.4769C325.987 88.602 325.928 88.7742 325.836 88.9774C325.652 89.3843 325.334 89.9164 324.795 90.4442C323.705 91.5098 321.774 92.5 318.398 92.5C315.022 92.5 313.091 91.5098 312.001 90.4442C311.462 89.9164 311.144 89.3843 310.96 88.9774C310.868 88.7742 310.81 88.602 310.773 88.4769C310.755 88.4143 310.743 88.3633 310.734 88.3258C310.73 88.3071 310.727 88.2918 310.725 88.28L310.722 88.2652L310.721 88.2598L310.721 88.2577L310.72 88.2568C310.72 88.2563 310.72 88.2559 311.213 88.1736L310.72 88.2559C310.716 88.2287 310.713 88.2012 310.713 88.1736V83.1826C310.713 82.9065 310.937 82.6826 311.213 82.6826H325.583Z" fill="#D39924" stroke="black" stroke-linejoin="round"/>
  <path d="M305.825 65.7007C306.042 65.7007 306.235 65.8418 306.301 66.0495L311.69 83.0312C311.738 83.1831 311.711 83.349 311.617 83.4777C311.522 83.6063 311.372 83.6824 311.213 83.6824H297.497C297.241 83.6824 297.027 83.4893 297 83.235L295.204 66.2533C295.189 66.1123 295.234 65.9716 295.329 65.8662C295.424 65.7609 295.559 65.7007 295.701 65.7007H305.825Z" fill="white" stroke="black" stroke-linejoin="round"/>
  <path d="M311.213 82.6826C311.489 82.6826 311.713 82.9065 311.713 83.1826V88.1736C311.713 88.2 311.711 88.2263 311.707 88.2523L311.213 88.1736C311.707 88.2523 311.707 88.2527 311.707 88.2531L311.707 88.254L311.706 88.2561L311.705 88.2613L311.703 88.2759C311.701 88.2874 311.698 88.3026 311.694 88.3211C311.686 88.3582 311.674 88.4088 311.657 88.471C311.622 88.5954 311.567 88.7669 311.479 88.9696C311.304 89.3751 311.001 89.9072 310.485 90.436C309.442 91.5054 307.589 92.5 304.355 92.5C301.121 92.5 299.268 91.5054 298.225 90.436C297.709 89.9072 297.406 89.3751 297.231 88.9696C297.143 88.7669 297.088 88.5954 297.053 88.471C297.036 88.4088 297.024 88.3582 297.016 88.3211C297.012 88.3026 297.01 88.2874 297.007 88.2759L297.005 88.2613L297.004 88.2561L297.004 88.254L297.003 88.2531C297.003 88.2527 297.003 88.2523 297.497 88.1736L297.003 88.2523C296.999 88.2263 296.997 88.2 296.997 88.1736V83.1826C296.997 82.9065 297.221 82.6826 297.497 82.6826H311.213Z" fill="#D9D9D9" stroke="black" stroke-linejoin="round"/>
  <path d="M275.616 65.7007C275.398 65.7007 275.206 65.8418 275.14 66.0495L269.751 83.0312C269.703 83.1831 269.73 83.349 269.824 83.4777C269.918 83.6063 270.068 83.6824 270.228 83.6824H284.107C284.365 83.6824 284.58 83.4867 284.605 83.2302L286.238 66.2485C286.251 66.1083 286.205 65.9688 286.11 65.8645C286.015 65.7602 285.881 65.7007 285.74 65.7007H275.616Z" fill="white" stroke="black" stroke-linejoin="round"/>
  <path d="M284.108 82.6826C284.384 82.6826 284.608 82.9065 284.608 83.1826V88.1736C284.608 88.2 284.606 88.2263 284.602 88.2523L284.108 88.1736C284.602 88.2523 284.602 88.2527 284.602 88.2531L284.601 88.254L284.601 88.2561L284.6 88.2613L284.598 88.2759C284.595 88.2874 284.593 88.3026 284.589 88.3211C284.581 88.3582 284.569 88.4088 284.552 88.471C284.517 88.5954 284.462 88.7669 284.374 88.9696C284.199 89.3751 283.896 89.9072 283.38 90.436C282.337 91.5054 280.484 92.5 277.25 92.5C274.016 92.5 272.163 91.5054 271.12 90.436C270.604 89.9072 270.301 89.3751 270.126 88.9696C270.038 88.7669 269.983 88.5954 269.948 88.471C269.931 88.4088 269.919 88.3582 269.911 88.3211C269.907 88.3026 269.904 88.2874 269.902 88.2759L269.9 88.2613L269.899 88.2561L269.898 88.254L269.898 88.2531C269.898 88.2527 269.898 88.2523 270.392 88.1736L269.898 88.2523C269.894 88.2263 269.892 88.2 269.892 88.1736V83.1826C269.892 82.9065 270.116 82.6826 270.392 82.6826H284.108Z" fill="#D9D9D9" stroke="black" stroke-linejoin="round"/>
  <path d="M266.146 65.7007C265.972 65.7007 265.811 65.7908 265.72 65.9386L255.27 82.9203C255.175 83.0746 255.171 83.2682 255.259 83.4263C255.348 83.5844 255.515 83.6824 255.696 83.6824H270.391C270.611 83.6824 270.805 83.5392 270.869 83.3294L276.094 66.3477C276.141 66.1961 276.113 66.0313 276.019 65.9036C275.924 65.776 275.775 65.7007 275.617 65.7007H266.146Z" fill="#F7BE4A" stroke="black" stroke-linejoin="round"/>
  <path d="M270.391 82.6826C270.667 82.6826 270.891 82.9065 270.891 83.1826V88.1736C270.891 88.2018 270.888 88.2299 270.884 88.2577L270.391 88.1736C270.884 88.2577 270.884 88.2582 270.884 88.2586L270.883 88.2596L270.883 88.2617L270.882 88.2671L270.879 88.2821C270.877 88.2939 270.874 88.3094 270.869 88.3282C270.861 88.3658 270.848 88.417 270.829 88.4798C270.792 88.6053 270.732 88.7778 270.638 88.9813C270.45 89.3889 270.124 89.9209 269.573 90.4481C268.461 91.5117 266.49 92.5 263.043 92.5C259.595 92.5 257.625 91.5117 256.513 90.4481C255.962 89.9209 255.636 89.3889 255.448 88.9813C255.354 88.7778 255.294 88.6053 255.257 88.4798C255.238 88.417 255.225 88.3658 255.217 88.3282C255.212 88.3094 255.209 88.2939 255.207 88.2821L255.204 88.2671L255.203 88.2617L255.203 88.2596L255.202 88.2586C255.202 88.2582 255.202 88.2577 255.695 88.1736L255.202 88.2577C255.197 88.2299 255.195 88.2018 255.195 88.1736V83.1826C255.195 82.9065 255.419 82.6826 255.695 82.6826H270.391Z" fill="#D39924" stroke="black" stroke-linejoin="round"/>
  <path d="M256.675 65.7007C256.536 65.7007 256.403 65.759 256.308 65.8615L240.633 82.8432C240.498 82.9892 240.462 83.201 240.542 83.3829C240.622 83.5648 240.801 83.6824 241 83.6824H255.696C255.869 83.6824 256.031 83.5923 256.122 83.4444L266.572 66.4627C266.667 66.3085 266.671 66.1149 266.583 65.9568C266.494 65.7987 266.327 65.7007 266.146 65.7007H256.675Z" fill="white" stroke="black" stroke-linejoin="round"/>
  <path d="M255.696 82.6826C255.972 82.6826 256.196 82.9065 256.196 83.1826V88.1736C256.196 88.2018 256.193 88.2299 256.189 88.2577L255.696 88.1736C256.189 88.2577 256.188 88.2582 256.188 88.2586L256.188 88.2596L256.188 88.2617L256.187 88.2671L256.184 88.2821C256.182 88.2939 256.178 88.3094 256.174 88.3282C256.165 88.3658 256.153 88.417 256.134 88.4798C256.097 88.6053 256.037 88.7778 255.943 88.9813C255.754 89.3889 255.429 89.9209 254.878 90.4481C253.766 91.5117 251.795 92.5 248.348 92.5C244.9 92.5 242.93 91.5117 241.818 90.4481C241.267 89.9209 240.941 89.3889 240.753 88.9813C240.659 88.7778 240.599 88.6053 240.562 88.4798C240.543 88.417 240.53 88.3658 240.522 88.3282C240.517 88.3094 240.514 88.2939 240.512 88.2821L240.509 88.2671L240.508 88.2617L240.507 88.2596L240.507 88.2586C240.507 88.2582 240.507 88.2577 241 88.1736L240.507 88.2577C240.502 88.2299 240.5 88.2018 240.5 88.1736V83.1826C240.5 82.9065 240.724 82.6826 241 82.6826H255.696Z" fill="#D9D9D9" stroke="black" stroke-linejoin="round"/>
  <path d="M254.656 67.1108H254.156V66.6108V61.3875V61.3043L254.183 61.2256L254.656 61.3875C254.183 61.2256 254.183 61.2248 254.183 61.224L254.184 61.2223L254.185 61.2181L254.189 61.2071C254.192 61.1987 254.196 61.1881 254.201 61.1753C254.212 61.1498 254.226 61.1156 254.245 61.0734C254.284 60.989 254.343 60.8727 254.428 60.7291C254.598 60.4418 254.874 60.0467 255.305 59.5808C256.17 58.6485 257.654 57.4394 260.163 56.2424C265.175 53.8513 274.293 51.4999 290.798 51.4999C307.303 51.4999 316.422 53.8513 321.434 56.2424C323.943 57.4394 325.427 58.6485 326.291 59.5808C326.723 60.0467 326.999 60.4418 327.169 60.7291C327.254 60.8727 327.313 60.989 327.351 61.0734C327.371 61.1156 327.385 61.1498 327.395 61.1753C327.4 61.1881 327.404 61.1987 327.408 61.2071L327.412 61.2181L327.413 61.2223L327.414 61.224C327.414 61.2248 327.414 61.2256 326.941 61.3875L327.414 61.2256L327.441 61.3043V61.3875V66.6108V67.1108H326.941H254.656Z" fill="#D39924" stroke="black"/>
  <rect x="177.55" y="162.715" width="167.208" height="11.5316" rx="4" fill="#C09344" stroke="black" stroke-linecap="round"/>
  <rect x="261.154" y="172.325" width="71.1114" height="11.5316" rx="4" fill="#C09344" stroke="black" stroke-linecap="round"/>
  <rect x="253.466" y="181.934" width="71.1114" height="11.5316" rx="4" fill="#C09344" stroke="black" stroke-linecap="round"/>
  <path d="M124.306 200.243C123.365 195.582 124.049 184.829 134.319 179.11C144.588 173.392 155.37 174.863 159.478 176.313C161.617 177.867 165.845 183.088 165.64 191.542C165.444 199.575 160.797 203.836 154.857 204.461C135.345 210.819 126.36 204.298 124.306 200.243Z" fill="#B6B6B6"/>
  <path d="M159.478 176.313C155.37 174.863 144.588 173.392 134.319 179.11C124.049 184.829 123.365 195.582 124.306 200.243C126.36 204.298 135.345 210.819 154.857 204.461M159.478 176.313C161.617 177.867 165.845 183.088 165.64 191.542C165.444 199.575 160.797 203.836 154.857 204.461M159.478 176.313C152.29 179.421 143.818 186.569 141.25 191.542C138.683 196.514 140.48 201.797 148.952 203.973C150.983 204.494 152.984 204.658 154.857 204.461" stroke="black" stroke-linecap="round" stroke-linejoin="round"/>
  <path d="M159.478 176.313C161.617 177.867 165.845 183.088 165.639 191.542C165.444 199.575 160.797 203.836 154.857 204.461C135.345 210.819 126.36 204.298 124.306 200.243C127.902 200.036 136.121 199 140.226 196.514C140.02 194.907 140.39 193.207 141.25 191.542C143.817 186.569 152.29 179.421 159.478 176.313Z" fill="#7C7C7C"/>
  <path d="M154.857 204.461C160.797 203.836 165.444 199.575 165.639 191.542C165.845 183.088 161.617 177.867 159.478 176.313C152.29 179.421 143.817 186.569 141.25 191.542C140.39 193.207 140.02 194.907 140.226 196.514M154.857 204.461C152.984 204.658 150.983 204.494 148.952 203.973C143.318 202.526 140.635 199.704 140.226 196.514M154.857 204.461C135.345 210.819 126.36 204.298 124.306 200.243C127.902 200.036 136.121 199 140.226 196.514" stroke="black" stroke-linecap="round" stroke-linejoin="round"/>
  <path d="M165.64 191.542C165.845 183.088 161.617 177.867 159.478 176.313C152.29 179.421 143.818 186.569 141.25 191.542C138.683 196.514 140.48 201.797 148.952 203.973C150.983 204.494 152.984 204.658 154.857 204.461C160.797 203.836 165.444 199.575 165.64 191.542Z" fill="#818181" stroke="black" stroke-linecap="round" stroke-linejoin="round"/>
  <path d="M161.547 189.233C156.002 190.476 156.669 197.416 157.696 200.731C157.696 202.7 159.904 206.698 168.736 206.947C177.567 207.195 176.523 198.556 174.897 194.205C172.758 192.03 167.093 187.99 161.547 189.233Z" fill="#999999" stroke="black" stroke-linecap="round" stroke-linejoin="round"/>
  <path d="M161.547 189.233C156.002 190.476 156.669 197.416 157.696 200.731C160.948 201.767 168.941 201.913 174.897 194.205C172.758 192.03 167.093 187.99 161.547 189.233Z" fill="#B6B6B6" stroke="black" stroke-linecap="round" stroke-linejoin="round"/>
</svg>
