<svg width="539" height="290" viewBox="0 0 539 290" fill="none" xmlns="http://www.w3.org/2000/svg">
<path d="M10.1413 181.205L93.257 130.184C95.074 129.068 97.0576 128.251 99.1328 127.762L257.728 90.3888C260.22 89.8017 262.575 88.7419 264.667 87.2668L381.191 5.09615C384.949 2.44656 389.504 1.17239 394.091 1.48814L507.472 9.29335C517.498 9.98353 525.454 18.0064 526.062 28.0376L537.679 219.944C538.175 228.127 533.626 235.784 526.203 239.263L424.386 286.976C420.871 288.623 416.954 289.212 413.11 288.671L247.178 265.307C245.73 265.103 244.265 265.058 242.808 265.174L50.8983 280.397C42.5472 281.06 34.6681 276.448 31.1575 268.841L2.4452 206.631C-1.80147 197.43 1.50482 186.507 10.1413 181.205Z" fill="black" fill-opacity="0.15" stroke="black" stroke-linecap="round"/>
</svg>
