<svg width="214" height="267" viewBox="0 0 214 267" fill="none" xmlns="http://www.w3.org/2000/svg">
<path fill-rule="evenodd" clip-rule="evenodd" d="M74.0701 1C74.0701 0.723858 73.8462 0.5 73.5701 0.5C73.2939 0.5 73.0701 0.723858 73.0701 1V4.36452C72.2179 4.58608 71.5888 5.36064 71.5888 6.28213V6.85939C71.0461 7.3802 70.7083 8.11287 70.7083 8.92444V9.44025C68.986 10.3882 67.7842 12.1651 67.6408 14.2335C67.6312 14.3714 67.6263 14.5106 67.6263 14.6509V17.0724V21.3001H64.3771V20.1491C64.3771 19.8729 64.1532 19.6491 63.8771 19.6491C63.6009 19.6491 63.3771 19.8729 63.3771 20.1491V21.3001H63.2236C62.9475 21.3001 62.7236 21.524 62.7236 21.8001C62.7236 22.0762 62.9475 22.3001 63.2236 22.3001H63.3771V24.114H63.2236V26.7556H64.5443L63.2348 45.3913L11.3129 74.6719C-3.12871 82.816 -1.95934 103.986 13.2913 110.49L69.0895 134.286C74.7172 136.686 78.9368 141.53 80.5426 147.433L106.206 241.784C109.309 253.193 121.58 259.434 132.628 255.223L200.124 229.494C207.877 226.539 213 219.103 213 210.806V86.619C213 80.5886 210.279 74.8802 205.595 71.0827L139.069 17.1532C132.691 11.9831 123.801 11.2359 116.65 15.2687L83.001 34.2445L82.4748 26.7556H83.9164V24.114H83.763V22.3001H83.9164C84.1926 22.3001 84.4164 22.0762 84.4164 21.8001C84.4164 21.524 84.1926 21.3001 83.9164 21.3001H83.763V20.1491C83.763 19.8729 83.5391 19.6491 83.263 19.6491C82.9868 19.6491 82.763 19.8729 82.763 20.1491V21.3001H79.5137V17.0724V14.6509C79.5137 12.4058 78.2689 10.4514 76.4318 9.44028V8.92443C76.4318 8.11284 76.094 7.38016 75.5512 6.85934V6.28213C75.5512 5.36066 74.9222 4.58612 74.0701 4.36454V1ZM82.763 24.114V22.3001H79.5137V24.114H82.763ZM67.6263 24.114V22.3001H64.3771V24.114H67.6263Z" fill="black" fill-opacity="0.15"/>
<path d="M73.0701 4.36452L73.1959 4.84844L73.5701 4.75115V4.36452H73.0701ZM71.5888 6.85939L71.935 7.22014L72.0888 7.07255V6.85939H71.5888ZM70.7083 9.44025L70.9494 9.87829L71.2083 9.73579V9.44025H70.7083ZM67.6408 14.2335L68.1396 14.2681V14.2681L67.6408 14.2335ZM67.6263 21.3001V21.8001H68.1263V21.3001H67.6263ZM64.3771 21.3001H63.8771V21.8001H64.3771V21.3001ZM63.3771 21.3001V21.8001H63.8771V21.3001H63.3771ZM63.3771 22.3001H63.8771V21.8001H63.3771V22.3001ZM63.3771 24.114V24.614H63.8771V24.114H63.3771ZM63.2236 24.114V23.614H62.7236V24.114H63.2236ZM63.2236 26.7556H62.7236V27.2556H63.2236V26.7556ZM64.5443 26.7556L65.043 26.7907L65.0806 26.2556H64.5443V26.7556ZM63.2348 45.3913L63.4804 45.8268L63.7147 45.6947L63.7336 45.4263L63.2348 45.3913ZM11.3129 74.6719L11.5585 75.1074L11.3129 74.6719ZM13.2913 110.49L13.4875 110.03L13.2913 110.49ZM69.0895 134.286L69.2857 133.826L69.0895 134.286ZM80.5426 147.433L80.0602 147.565L80.5426 147.433ZM106.206 241.784L106.688 241.652L106.206 241.784ZM132.628 255.223L132.807 255.69L132.628 255.223ZM200.124 229.494L200.302 229.961L200.124 229.494ZM205.595 71.0827L205.91 70.6943L205.595 71.0827ZM139.069 17.1532L139.383 16.7648L139.069 17.1532ZM116.65 15.2687L116.404 14.8332V14.8332L116.65 15.2687ZM83.001 34.2445L82.5022 34.2795L82.5577 35.0685L83.2466 34.68L83.001 34.2445ZM82.4748 26.7556V26.2556H81.9384L81.976 26.7907L82.4748 26.7556ZM83.9164 26.7556V27.2556H84.4164V26.7556H83.9164ZM83.9164 24.114H84.4164V23.614H83.9164V24.114ZM83.763 24.114H83.263V24.614H83.763V24.114ZM83.763 22.3001V21.8001H83.263V22.3001H83.763ZM83.763 21.3001H83.263V21.8001H83.763V21.3001ZM82.763 21.3001V21.8001H83.263V21.3001H82.763ZM79.5137 21.3001H79.0137V21.8001H79.5137V21.3001ZM76.4318 9.44028H75.9318V9.73582L76.1907 9.87832L76.4318 9.44028ZM75.5512 6.85934H75.0512V7.07251L75.205 7.22011L75.5512 6.85934ZM74.0701 4.36454H73.5701V4.75116L73.9442 4.84845L74.0701 4.36454ZM82.763 24.114V24.614H83.263V24.114H82.763ZM82.763 22.3001H83.263V21.8001H82.763V22.3001ZM79.5137 22.3001V21.8001H79.0137V22.3001H79.5137ZM79.5137 24.114H79.0137V24.614H79.5137V24.114ZM67.6263 24.114V24.614H68.1263V24.114H67.6263ZM67.6263 22.3001H68.1263V21.8001H67.6263V22.3001ZM64.3771 22.3001V21.8001H63.8771V22.3001H64.3771ZM64.3771 24.114H63.8771V24.614H64.3771V24.114ZM73.5701 1H74.5701C74.5701 0.447713 74.1223 0 73.5701 0V1ZM73.5701 1V0C73.0178 0 72.5701 0.447718 72.5701 1H73.5701ZM73.5701 4.36452V1H72.5701V4.36452H73.5701ZM72.0888 6.28213C72.0888 5.59388 72.5587 5.01411 73.1959 4.84844L72.9442 3.88061C71.8772 4.15805 71.0888 5.12739 71.0888 6.28213H72.0888ZM72.0888 6.85939V6.28213H71.0888V6.85939H72.0888ZM71.2083 8.92444C71.2083 8.25459 71.4865 7.65057 71.935 7.22014L71.2426 6.49863C70.6057 7.10982 70.2083 7.97114 70.2083 8.92444H71.2083ZM71.2083 9.44025V8.92444H70.2083V9.44025H71.2083ZM68.1396 14.2681C68.2709 12.3751 69.3708 10.7471 70.9494 9.87829L70.4672 9.00221C68.6012 10.0292 67.2976 11.9552 67.142 14.1989L68.1396 14.2681ZM68.1263 14.6509C68.1263 14.5221 68.1308 14.3945 68.1396 14.2681L67.142 14.1989C67.1316 14.3483 67.1263 14.499 67.1263 14.6509H68.1263ZM68.1263 17.0724V14.6509H67.1263V17.0724H68.1263ZM68.1263 21.3001V17.0724H67.1263V21.3001H68.1263ZM64.3771 21.8001H67.6263V20.8001H64.3771V21.8001ZM63.8771 20.1491V21.3001H64.8771V20.1491H63.8771ZM63.8771 20.1491H64.8771C64.8771 19.5968 64.4294 19.1491 63.8771 19.1491V20.1491ZM63.8771 20.1491V19.1491C63.3248 19.1491 62.8771 19.5968 62.8771 20.1491H63.8771ZM63.8771 21.3001V20.1491H62.8771V21.3001H63.8771ZM63.2236 21.8001H63.3771V20.8001H63.2236V21.8001ZM63.2236 21.8001V20.8001C62.6713 20.8001 62.2236 21.2478 62.2236 21.8001H63.2236ZM63.2236 21.8001H62.2236C62.2236 22.3524 62.6713 22.8001 63.2236 22.8001V21.8001ZM63.3771 21.8001H63.2236V22.8001H63.3771V21.8001ZM63.8771 24.114V22.3001H62.8771V24.114H63.8771ZM63.2236 24.614H63.3771V23.614H63.2236V24.614ZM63.7236 26.7556V24.114H62.7236V26.7556H63.7236ZM64.5443 26.2556H63.2236V27.2556H64.5443V26.2556ZM63.7336 45.4263L65.043 26.7907L64.0455 26.7206L62.736 45.3562L63.7336 45.4263ZM11.5585 75.1074L63.4804 45.8268L62.9892 44.9558L11.0673 74.2363L11.5585 75.1074ZM13.4875 110.03C-1.38193 103.688 -2.52207 83.0479 11.5585 75.1074L11.0673 74.2363C-3.73535 82.584 -2.53675 104.283 13.0952 110.949L13.4875 110.03ZM69.2857 133.826L13.4875 110.03L13.0952 110.949L68.8934 134.746L69.2857 133.826ZM81.0251 147.302C79.3792 141.251 75.0541 136.286 69.2857 133.826L68.8934 134.746C74.3804 137.086 78.4945 141.809 80.0602 147.565L81.0251 147.302ZM106.688 241.652L81.0251 147.302L80.0602 147.565L105.723 241.915L106.688 241.652ZM132.45 254.755C121.678 258.862 109.714 252.777 106.688 241.652L105.723 241.915C108.904 253.61 121.482 260.007 132.807 255.69L132.45 254.755ZM199.946 229.027L132.45 254.755L132.807 255.69L200.302 229.961L199.946 229.027ZM212.5 210.806C212.5 218.896 207.505 226.145 199.946 229.027L200.302 229.961C208.249 226.932 213.5 219.311 213.5 210.806H212.5ZM212.5 86.619V210.806H213.5V86.619H212.5ZM205.28 71.4711C209.847 75.1737 212.5 80.7394 212.5 86.619H213.5C213.5 80.4379 210.711 74.5867 205.91 70.6943L205.28 71.4711ZM138.754 17.5416L205.28 71.4711L205.91 70.6943L139.383 16.7648L138.754 17.5416ZM116.895 15.7043C123.868 11.7722 132.535 12.5008 138.754 17.5416L139.383 16.7648C132.846 11.4654 123.734 10.6995 116.404 14.8332L116.895 15.7043ZM83.2466 34.68L116.895 15.7043L116.404 14.8332L82.7554 33.8089L83.2466 34.68ZM81.976 26.7907L82.5022 34.2795L83.4998 34.2094L82.9735 26.7206L81.976 26.7907ZM83.9164 26.2556H82.4748V27.2556H83.9164V26.2556ZM83.4164 24.114V26.7556H84.4164V24.114H83.4164ZM83.763 24.614H83.9164V23.614H83.763V24.614ZM83.263 22.3001V24.114H84.263V22.3001H83.263ZM83.9164 21.8001H83.763V22.8001H83.9164V21.8001ZM83.9164 21.8001V22.8001C84.4687 22.8001 84.9164 22.3524 84.9164 21.8001H83.9164ZM83.9164 21.8001H84.9164C84.9164 21.2478 84.4687 20.8001 83.9164 20.8001V21.8001ZM83.763 21.8001H83.9164V20.8001H83.763V21.8001ZM83.263 20.1491V21.3001H84.263V20.1491H83.263ZM83.263 20.1491H84.263C84.263 19.5968 83.8153 19.1491 83.263 19.1491V20.1491ZM83.263 20.1491V19.1491C82.7107 19.1491 82.263 19.5968 82.263 20.1491H83.263ZM83.263 21.3001V20.1491H82.263V21.3001H83.263ZM79.5137 21.8001H82.763V20.8001H79.5137V21.8001ZM79.0137 17.0724V21.3001H80.0137V17.0724H79.0137ZM79.0137 14.6509V17.0724H80.0137V14.6509H79.0137ZM76.1907 9.87832C77.8745 10.8051 79.0137 12.5953 79.0137 14.6509H80.0137C80.0137 12.2162 78.6632 10.0977 76.6729 9.00225L76.1907 9.87832ZM75.9318 8.92443V9.44028H76.9318V8.92443H75.9318ZM75.205 7.22011C75.6536 7.65054 75.9318 8.25457 75.9318 8.92443H76.9318C76.9318 7.97111 76.5343 7.10978 75.8974 6.49858L75.205 7.22011ZM75.0512 6.28213V6.85934H76.0512V6.28213H75.0512ZM73.9442 4.84845C74.5814 5.01414 75.0512 5.5939 75.0512 6.28213H76.0512C76.0512 5.12742 75.2629 4.1581 74.1959 3.88064L73.9442 4.84845ZM73.5701 1V4.36454H74.5701V1H73.5701ZM83.263 24.114V22.3001H82.263V24.114H83.263ZM82.763 21.8001H79.5137V22.8001H82.763V21.8001ZM79.0137 22.3001V24.114H80.0137V22.3001H79.0137ZM79.5137 24.614H82.763V23.614H79.5137V24.614ZM68.1263 24.114V22.3001H67.1263V24.114H68.1263ZM67.6263 21.8001H64.3771V22.8001H67.6263V21.8001ZM63.8771 22.3001V24.114H64.8771V22.3001H63.8771ZM64.3771 24.614H67.6263V23.614H64.3771V24.614Z" fill="black"/>
</svg>
