<svg width="542" height="268" viewBox="0 0 542 268" fill="none" xmlns="http://www.w3.org/2000/svg">
<path d="M208.33 2.96745L11.5462 105.957C4.52793 109.63 0.338879 117.099 0.864137 125.003L9.08074 248.644C9.84853 260.197 20.2364 268.686 31.7113 267.138L216.435 242.211C217.477 242.071 218.506 241.848 219.512 241.546L391.686 189.845C393.552 189.285 395.49 189 397.438 189H500.561C507.102 189 513.229 185.802 516.969 180.436L537.25 151.337C542.176 144.269 542.023 134.841 536.87 127.938L472.504 41.7046C469.303 37.415 464.515 34.5878 459.212 33.8557L220.339 0.875262C216.216 0.305971 212.018 1.03735 208.33 2.96745Z" fill="black" fill-opacity="0.15" stroke="black" stroke-linecap="round"/>
</svg>
