<svg width="149" height="243" viewBox="0 0 149 243" fill="none" xmlns="http://www.w3.org/2000/svg">
  <path fill-rule="evenodd" clip-rule="evenodd" d="M99.083 1.98879C99.5737 0.269328 102.011 0.269328 102.501 1.98879C102.765 2.91117 103.712 3.45828 104.643 3.22506C106.377 2.79029 107.595 4.90064 106.352 6.18534C105.684 6.87449 105.684 7.96872 106.352 8.65787C107.595 9.94257 106.377 12.0529 104.643 11.6182L103.335 11.2904C103.133 11.2399 102.928 11.3584 102.871 11.5582C102.827 11.7124 102.883 11.8765 103.008 11.9773C103.765 12.5895 104.571 13.5156 105.437 14.8202C107.147 17.3966 110.332 18.7309 113.192 17.5538L120.48 14.5533C127.468 11.6768 135.343 15.8965 136.818 23.3075L147.624 77.6041C147.873 78.8584 147.921 80.1445 147.765 81.4138L137.139 167.654C137.064 168.267 137.301 168.883 137.301 169.5C137.301 170.409 136.698 171.234 136.587 172.137L129.237 231.79C128.066 241.293 116.783 245.665 109.515 239.431L62.9973 199.533C58.8114 195.942 53.2966 194.594 47.811 194.03C44.8277 193.722 42.6797 192.94 43.0317 191.444C43.3815 189.957 44.4043 188.823 45.5011 187.607C46.3828 186.63 46.2359 185.156 45.2366 184.299L5.64723 150.343C2.1882 147.376 0.708152 142.706 1.82694 138.289L21.5185 60.5348C22.4509 56.8531 25.0712 53.8301 28.5831 52.3843L32.602 50.7299C37.7472 48.6118 41.65 44.3908 43.8736 39.2902C44.5108 37.8287 44.9489 37 45.1163 37C46.0367 37 46.1963 37.5281 48.0089 43.5268C48.1329 43.9369 48.5834 44.1509 48.9796 43.9878L83.9016 29.6115C84.4488 29.3862 84.7299 28.7912 84.7299 28.1994C84.7299 25.8714 86.6171 23.9842 88.9451 23.9842C90.0132 23.9842 91.1908 23.6801 91.7173 22.7507C92.0352 22.1897 92.3385 21.6549 92.6254 21.1489L92.6327 21.136C93.8376 19.0112 94.753 17.3969 95.2429 16.4988C96.2779 14.6012 97.3628 12.8529 98.5817 11.861C98.6873 11.7751 98.7352 11.6356 98.6978 11.5047C98.6493 11.3347 98.4747 11.2339 98.3033 11.2769L96.9417 11.6182C95.2073 12.0529 93.9889 9.94257 95.2326 8.65787C95.8998 7.96872 95.8998 6.87449 95.2326 6.18534C93.9889 4.90064 95.2073 2.79029 96.9417 3.22506C97.8722 3.45828 98.8198 2.91117 99.083 1.98879Z" fill="black" fill-opacity="0.15"/>
  <path d="M120.48 14.5533L120.29 14.0909L120.48 14.5533ZM136.818 23.3075L136.327 23.4051L136.818 23.3075ZM147.624 77.6041L147.133 77.7017L147.624 77.6041ZM147.765 81.4138L147.268 81.3527L147.765 81.4138ZM129.237 231.79L128.741 231.729L129.237 231.79ZM109.515 239.431L109.189 239.811L109.515 239.431ZM43.0317 191.444L42.545 191.329L43.0317 191.444ZM5.64723 150.343L5.32171 150.723H5.32171L5.64723 150.343ZM1.82694 138.289L2.31164 138.411H2.31164L1.82694 138.289ZM21.5185 60.5348L22.0032 60.6575L21.5185 60.5348ZM28.5831 52.3843L28.3928 51.922L28.5831 52.3843ZM92.6254 21.1489L93.0604 21.3955L93.0604 21.3955L92.6254 21.1489ZM92.6327 21.136L92.1978 20.8894L92.1978 20.8894L92.6327 21.136ZM95.2429 16.4988L94.8039 16.2594L94.8039 16.2594L95.2429 16.4988ZM96.9417 11.6182L96.8202 11.1332L96.9417 11.6182ZM98.5817 11.861L98.2661 11.4732L98.5817 11.861ZM91.7173 22.7507L91.2823 22.5042L91.7173 22.7507ZM45.2366 184.299L45.5621 183.92L45.2366 184.299ZM105.437 14.8202L105.854 14.5437L105.437 14.8202ZM62.9973 199.533L62.6718 199.912L62.9973 199.533ZM47.811 194.03L47.8622 193.532L47.811 194.03ZM83.9016 29.6115L83.7113 29.1492L83.9016 29.6115ZM103.008 11.9773L102.694 12.366L103.008 11.9773ZM48.9796 43.9878L48.7893 43.5254L48.9796 43.9878ZM103.335 11.2904L103.214 11.7754L103.335 11.2904ZM104.643 11.6182L104.521 12.1032L104.643 11.6182ZM98.3033 11.2769L98.1817 10.7919L98.3033 11.2769ZM136.587 172.137L137.083 172.198L136.587 172.137ZM137.139 167.654L137.635 167.716L137.139 167.654ZM103.214 11.7754L104.521 12.1032L104.764 11.1332L103.457 10.8054L103.214 11.7754ZM105.854 14.5437C104.972 13.2144 104.132 12.2438 103.323 11.5886L102.694 12.366C103.397 12.9351 104.171 13.8167 105.021 15.0966L105.854 14.5437ZM120.29 14.0909L113.001 17.0914L113.382 18.0161L120.671 15.0156L120.29 14.0909ZM137.308 23.2099C135.771 15.4902 127.568 11.0946 120.29 14.0909L120.671 15.0156C127.367 12.259 134.914 16.3029 136.327 23.4051L137.308 23.2099ZM148.114 77.5065L137.308 23.2099L136.327 23.4051L147.133 77.7017L148.114 77.5065ZM148.261 81.475C148.424 80.1528 148.374 78.8131 148.114 77.5065L147.133 77.7017C147.373 78.9037 147.418 80.1363 147.268 81.3527L148.261 81.475ZM137.635 167.716L148.261 81.475L147.268 81.3527L136.643 167.593L137.635 167.716ZM129.733 231.851L137.083 172.198L136.09 172.076L128.741 231.729L129.733 231.851ZM109.189 239.811C116.76 246.304 128.514 241.751 129.733 231.851L128.741 231.729C127.619 240.836 116.806 245.026 109.84 239.052L109.189 239.811ZM62.6718 199.912L109.189 239.811L109.84 239.052L63.3228 199.153L62.6718 199.912ZM42.545 191.329C42.4249 191.84 42.5197 192.314 42.7985 192.719C43.0647 193.106 43.4777 193.402 43.952 193.632C44.8983 194.092 46.2519 194.372 47.7597 194.527L47.8622 193.532C46.3868 193.38 45.1747 193.115 44.3892 192.733C43.9976 192.543 43.7532 192.343 43.6224 192.153C43.5042 191.981 43.4626 191.796 43.5184 191.559L42.545 191.329ZM45.1298 187.272C44.0515 188.468 42.9294 189.696 42.545 191.329L43.5184 191.559C43.8337 190.219 44.7571 189.179 45.8724 187.942L45.1298 187.272ZM5.32171 150.723L44.911 184.679L45.5621 183.92L5.97275 149.964L5.32171 150.723ZM1.34224 138.166C0.176838 142.767 1.71855 147.632 5.32171 150.723L5.97275 149.964C2.65784 147.12 1.23947 142.645 2.31164 138.411L1.34224 138.166ZM21.0338 60.412L1.34224 138.166L2.31164 138.411L22.0032 60.6575L21.0338 60.412ZM28.3928 51.922C24.7345 53.428 22.005 56.5769 21.0338 60.412L22.0032 60.6575C22.8967 57.1292 25.4078 54.2322 28.7735 52.8467L28.3928 51.922ZM32.4116 50.2676L28.3928 51.922L28.7735 52.8467L32.7923 51.1923L32.4116 50.2676ZM45.1163 36.5C44.9057 36.5 44.7621 36.6182 44.7123 36.6617C44.6444 36.7209 44.5865 36.7911 44.5395 36.8544C44.4435 36.9839 44.3398 37.1579 44.2309 37.3599C44.0108 37.7683 43.7355 38.356 43.4153 39.0904L44.332 39.49C44.6489 38.7629 44.9112 38.2055 45.1113 37.8342C45.2125 37.6463 45.2895 37.5219 45.3427 37.4502C45.3702 37.4131 45.379 37.407 45.3697 37.4152C45.3644 37.4198 45.3441 37.437 45.3095 37.4548C45.2756 37.4721 45.2082 37.5 45.1163 37.5V36.5ZM48.4876 43.3821C47.587 40.402 47.0832 38.7313 46.687 37.8154C46.4903 37.3608 46.2893 37.014 46.0209 36.7914C45.7196 36.5415 45.3999 36.5 45.1163 36.5V37.5C45.2929 37.5 45.3383 37.5245 45.3825 37.5611C45.4595 37.625 45.5843 37.7851 45.7692 38.2124C46.136 39.0603 46.6182 40.6529 47.5303 43.6714L48.4876 43.3821ZM83.7113 29.1492L48.7893 43.5254L49.17 44.4501L84.092 30.0739L83.7113 29.1492ZM88.9451 23.4842C86.341 23.4842 84.2299 25.5953 84.2299 28.1994H85.2299C85.2299 26.1476 86.8932 24.4842 88.9451 24.4842V23.4842ZM92.1905 20.9022C91.9036 21.4082 91.6002 21.9432 91.2823 22.5042L92.1524 22.9972C92.4702 22.4363 92.7734 21.9015 93.0604 21.3955L92.1905 20.9022ZM92.1978 20.8894L92.1905 20.9023L93.0604 21.3955L93.0677 21.3826L92.1978 20.8894ZM94.8039 16.2594C94.3166 17.1529 93.404 18.7623 92.1978 20.8894L93.0676 21.3826C94.2713 19.2601 95.1894 17.641 95.6818 16.7382L94.8039 16.2594ZM98.2661 11.4732C96.961 12.5353 95.8352 14.3687 94.8039 16.2594L95.6818 16.7382C96.7206 14.8337 97.7646 13.1706 98.8973 12.2488L98.2661 11.4732ZM97.0633 12.1032L98.4249 11.7619L98.1817 10.7919L96.8202 11.1332L97.0633 12.1032ZM96.8202 3.71005C98.0123 4.00888 99.2265 3.30786 99.5638 2.12601L98.6022 1.85158C98.413 2.51447 97.732 2.90767 97.0633 2.74006L96.8202 3.71005ZM95.5919 9.00565C96.4467 8.12263 96.4467 6.72058 95.5919 5.83756L94.8734 6.53312C95.3529 7.02841 95.3529 7.81481 94.8734 8.31009L95.5919 9.00565ZM96.8202 11.1332C95.5737 11.4456 94.698 9.92894 95.5919 9.00565L94.8734 8.31009C93.2798 9.9562 94.8409 12.6602 97.0633 12.1032L96.8202 11.1332ZM98.8973 12.2488C99.1489 12.0441 99.274 11.7017 99.1786 11.3674L98.217 11.6419C98.1963 11.5694 98.2257 11.5061 98.2661 11.4732L98.8973 12.2488ZM88.9451 24.4842C90.057 24.4842 91.4857 24.1737 92.1524 22.9972L91.2823 22.5042C90.8958 23.1864 89.9695 23.4842 88.9451 23.4842V24.4842ZM45.8724 187.942C46.9562 186.741 46.7587 184.946 45.5621 183.92L44.911 184.679C45.7131 185.367 45.8095 186.519 45.1298 187.272L45.8724 187.942ZM105.021 15.0966C106.833 17.8282 110.257 19.3027 113.382 18.0161L113.001 17.0914C110.408 18.159 107.461 16.965 105.854 14.5437L105.021 15.0966ZM95.5919 5.83756C94.698 4.91427 95.5737 3.3976 96.8202 3.71005L97.0633 2.74006C94.8409 2.18299 93.2798 4.88702 94.8734 6.53312L95.5919 5.83756ZM63.3228 199.153C59.0203 195.463 53.3811 194.101 47.8622 193.532L47.7597 194.527C53.2121 195.088 58.6026 196.422 62.6718 199.912L63.3228 199.153ZM84.092 30.0739C84.8857 29.7471 85.2299 28.9212 85.2299 28.1994H84.2299C84.2299 28.6612 84.012 29.0254 83.7113 29.1492L84.092 30.0739ZM102.39 11.421C102.288 11.7783 102.422 12.146 102.694 12.366L103.323 11.5886C103.345 11.607 103.366 11.6466 103.352 11.6955L102.39 11.421ZM47.5303 43.6714C47.7397 44.3642 48.5007 44.7256 49.17 44.4501L48.7893 43.5254C48.6661 43.5761 48.5261 43.5096 48.4875 43.3821L47.5303 43.6714ZM103.457 10.8054C102.993 10.6893 102.521 10.9617 102.39 11.421L103.352 11.6955C103.335 11.7551 103.274 11.7905 103.214 11.7754L103.457 10.8054ZM105.992 9.00565C106.886 9.92894 106.011 11.4456 104.764 11.1332L104.521 12.1032C106.743 12.6602 108.305 9.9562 106.711 8.31009L105.992 9.00565ZM99.1786 11.3674C99.0561 10.938 98.6149 10.6833 98.1817 10.7919L98.4249 11.7619C98.3345 11.7845 98.2426 11.7314 98.217 11.6419L99.1786 11.3674ZM136.801 169.5C136.801 169.852 136.684 170.207 136.518 170.643C136.363 171.051 136.155 171.55 136.09 172.076L137.083 172.198C137.129 171.822 137.279 171.457 137.453 170.999C137.617 170.569 137.801 170.057 137.801 169.5H136.801ZM105.992 5.83756C105.138 6.72058 105.138 8.12263 105.992 9.00565L106.711 8.31009C106.231 7.81481 106.231 7.02841 106.711 6.53312L105.992 5.83756ZM32.7923 51.1923C38.0743 49.0178 42.0642 44.6918 44.332 39.49L43.4153 39.0904C41.2358 44.0897 37.4201 48.2057 32.4116 50.2676L32.7923 51.1923ZM104.764 3.71005C106.011 3.3976 106.886 4.91427 105.992 5.83756L106.711 6.53312C108.305 4.88702 106.743 2.18299 104.521 2.74006L104.764 3.71005ZM136.643 167.593C136.596 167.977 136.648 168.346 136.698 168.656C136.752 168.986 136.801 169.243 136.801 169.5H137.801C137.801 169.14 137.732 168.78 137.685 168.495C137.636 168.189 137.607 167.944 137.635 167.716L136.643 167.593ZM102.982 1.85158C102.353 -0.351601 99.231 -0.3516 98.6022 1.85158L99.5638 2.12601C99.9165 0.890256 101.668 0.890256 102.02 2.12601L102.982 1.85158ZM102.02 2.12601C102.358 3.30786 103.572 4.00888 104.764 3.71005L104.521 2.74006C103.852 2.90767 103.171 2.51447 102.982 1.85158L102.02 2.12601Z" fill="black"/>
</svg>
