<svg width="471" height="239" viewBox="0 0 471 239" fill="none" xmlns="http://www.w3.org/2000/svg">
  <path
    fill-rule="evenodd"
    clip-rule="evenodd"
    d="M260.55 49.5C269.495 49.5 277.166 43.478 280.542 35.1938C288.426 15.8428 300.685 1 319.154 1C339.78 1 352.387 19.5112 359.746 42.14C361.146 46.4461 365.071 49.5 369.6 49.5V49.5C370.192 49.5 370.783 49.4414 371.37 49.361C372.356 49.2262 373.37 49.1567 374.413 49.1567C375.144 49.1567 375.861 49.1909 376.563 49.2578C377.745 49.3704 378.927 49.5 380.114 49.5H417.853C424.756 49.5 431.171 53.0601 434.824 58.918L466.637 109.939C474.038 121.808 467.281 137.414 453.562 140.138L270.88 176.418C268.938 176.804 267.065 177.476 265.321 178.411L158.201 235.879C153.855 238.21 148.801 238.854 144.009 237.686L54.0038 215.742C41.7912 212.765 35.3205 199.392 40.5645 187.968L52.97 160.941C56.2973 153.693 54.9996 145.16 49.6676 139.228L6.15701 90.8225C-5.03418 78.3723 3.10963 58.5034 19.8196 57.4892L96.8391 52.8146C102.566 52.467 107.598 49.2947 112.3 46.0064C115.934 43.4648 120.112 42 124.903 42C128.461 42 131.669 42.808 134.558 44.265C139.91 46.9642 145.469 49.8631 151.451 49.5V49.5H260.55Z"
    fill="black"
    fill-opacity="0.15"
  />
  <path
    d="M434.824 58.918L434.399 59.1825L434.399 59.1825L434.824 58.918ZM466.637 109.939L467.061 109.675L467.061 109.675L466.637 109.939ZM453.562 140.138L453.464 139.648L453.464 139.648L453.562 140.138ZM270.88 176.418L270.977 176.909L270.977 176.909L270.88 176.418ZM265.321 178.411L265.084 177.971L265.084 177.971L265.321 178.411ZM158.201 235.879L157.965 235.438L157.965 235.438L158.201 235.879ZM144.009 237.686L144.128 237.2L144.128 237.2L144.009 237.686ZM54.0038 215.742L54.1222 215.256L54.1222 215.256L54.0038 215.742ZM40.5645 187.968L40.11 187.759L40.11 187.759L40.5645 187.968ZM52.97 160.941L52.5156 160.733L52.5156 160.733L52.97 160.941ZM49.6676 139.228L50.0395 138.894L49.6676 139.228ZM6.15701 90.8225L6.52887 90.4883L6.52887 90.4883L6.15701 90.8225ZM19.8196 57.4892L19.7893 56.9901L19.7893 56.9901L19.8196 57.4892ZM134.558 44.265L134.333 44.7115L134.558 44.265ZM96.8391 52.8146L96.8088 52.3155L96.8391 52.8146ZM112.3 46.0064L112.013 45.5966L112.3 46.0064ZM376.563 49.2578L376.611 48.76L376.563 49.2578ZM371.37 49.361L371.302 48.8657L371.37 49.361ZM280.542 35.1938L280.079 35.0052L280.542 35.1938ZM319.154 0.5C300.36 0.5 287.98 15.6124 280.079 35.0052L281.005 35.3825C288.872 16.0732 301.01 1.5 319.154 1.5V0.5ZM360.221 41.9853C356.531 30.6372 351.512 20.2798 344.798 12.7514C338.074 5.21174 329.638 0.5 319.154 0.5V1.5C329.296 1.5 337.476 6.04388 344.052 13.417C350.638 20.8014 355.602 31.014 359.27 42.2946L360.221 41.9853ZM374.413 48.6567C373.347 48.6567 372.311 48.7277 371.302 48.8657L371.438 49.8564C372.401 49.7247 373.392 49.6567 374.413 49.6567V48.6567ZM376.611 48.76C375.892 48.6916 375.16 48.6567 374.413 48.6567V49.6567C375.129 49.6567 375.83 49.6902 376.516 49.7555L376.611 48.76ZM417.853 49H380.114V50H417.853V49ZM435.248 58.6534C431.504 52.6491 424.928 49 417.853 49V50C424.583 50 430.838 53.4711 434.399 59.1825L435.248 58.6534ZM467.061 109.675L435.248 58.6534L434.399 59.1825L466.213 110.204L467.061 109.675ZM453.659 140.629C467.721 137.836 474.647 121.84 467.061 109.675L466.213 110.204C473.428 121.776 466.841 136.991 453.464 139.648L453.659 140.629ZM270.977 176.909L453.659 140.629L453.464 139.648L270.782 175.928L270.977 176.909ZM265.557 178.852C267.258 177.94 269.084 177.285 270.977 176.909L270.782 175.928C268.792 176.323 266.872 177.012 265.084 177.971L265.557 178.852ZM158.438 236.319L265.557 178.852L265.084 177.971L157.965 235.438L158.438 236.319ZM143.891 238.171C148.802 239.369 153.983 238.709 158.438 236.319L157.965 235.438C153.728 237.711 148.8 238.339 144.128 237.2L143.891 238.171ZM53.8853 216.228L143.891 238.171L144.128 237.2L54.1222 215.256L53.8853 216.228ZM40.11 187.759C34.735 199.469 41.3674 213.176 53.8853 216.228L54.1222 215.256C42.2149 212.353 35.906 199.315 41.0189 188.176L40.11 187.759ZM52.5156 160.733L40.11 187.759L41.0189 188.176L53.4244 161.15L52.5156 160.733ZM49.2958 139.562C54.4944 145.346 55.7598 153.665 52.5156 160.733L53.4244 161.15C56.8349 153.72 55.5047 144.974 50.0395 138.894L49.2958 139.562ZM5.78516 91.1568L49.2958 139.562L50.0395 138.894L6.52887 90.4883L5.78516 91.1568ZM19.7893 56.9901C2.66159 58.0297 -5.68582 78.3953 5.78516 91.1568L6.52887 90.4883C-4.38255 78.3493 3.55767 58.9771 19.8499 57.9883L19.7893 56.9901ZM96.8088 52.3155L19.7893 56.9901L19.8499 57.9883L96.8693 53.3137L96.8088 52.3155ZM124.903 41.5C120.002 41.5 115.725 43.0004 112.013 45.5966L112.586 46.4161C116.142 43.9292 120.221 42.5 124.903 42.5V41.5ZM134.784 43.8186C131.825 42.3266 128.54 41.5 124.903 41.5V42.5C128.382 42.5 131.514 43.2894 134.333 44.7115L134.784 43.8186ZM260.55 49H151.451V50H260.55V49ZM134.333 44.7115C139.651 47.3937 145.338 50.372 151.482 49.9991L151.421 49.0009C145.599 49.3543 140.169 46.5346 134.784 43.8186L134.333 44.7115ZM96.8693 53.3137C102.753 52.9566 107.889 49.7009 112.586 46.4161L112.013 45.5966C107.306 48.8885 102.38 51.9774 96.8088 52.3155L96.8693 53.3137ZM376.516 49.7555C377.686 49.8671 378.898 50 380.114 50V49C378.957 49 377.804 48.8737 376.611 48.76L376.516 49.7555ZM369.6 50C370.224 50 370.84 49.9383 371.438 49.8564L371.302 48.8657C370.726 48.9445 370.16 49 369.6 49V50ZM359.27 42.2946C360.733 46.7916 364.839 50 369.6 50V49C365.304 49 361.56 46.1006 360.221 41.9853L359.27 42.2946ZM280.079 35.0052C276.767 43.1331 269.26 49 260.55 49V50C269.731 50 277.566 43.8228 281.005 35.3825L280.079 35.0052Z"
    fill="black"
  />
</svg>