<svg width="484" height="332" viewBox="0 0 484 332" fill="none" xmlns="http://www.w3.org/2000/svg">
  <path d="M146.955 19.7048L14.4841 65.3534C6.41543 68.1339 1 75.7279 1 84.2623V87.3487L13.8078 235.691C14.5249 243.997 20.3191 250.987 28.3481 253.232L302.812 329.974C312.171 332.591 322.056 328.101 326.245 319.333L358.052 252.74C359.076 250.597 360.473 248.654 362.178 247.001L477.007 135.673C483.257 129.614 484.87 120.208 480.996 112.413L450.394 50.836C447.912 45.8406 443.456 42.109 438.102 40.5421L306.902 2.14199C304.327 1.38837 301.627 1.16051 298.962 1.47198L151.149 18.7489C149.72 18.9158 148.314 19.2363 146.955 19.7048Z" fill="black" fill-opacity="0.15" stroke="black" stroke-linecap="round"/>
</svg>
