<svg width="687" height="322" viewBox="0 0 687 322" fill="none" xmlns="http://www.w3.org/2000/svg">
  <path d="M167.651 28.237L58.901 132.098C56.8972 134.012 55.313 136.321 54.2487 138.879L2.43848 263.41C-2.74115 275.86 5.63204 289.763 19.0588 291.007L339.942 320.74C341.802 320.913 343.676 320.824 345.511 320.476L632.279 266.144C639.285 264.817 645.055 259.86 647.422 253.134L684.452 147.922C687.193 140.133 684.866 131.461 678.594 126.09L563.257 27.3329C560.335 24.8308 556.753 23.2246 552.941 22.7068L395.493 1.32007C393.928 1.10744 392.343 1.08102 390.771 1.24137L179.435 22.8038C175.012 23.255 170.866 25.1668 167.651 28.237Z" fill="black" fill-opacity="0.15" stroke="black" stroke-linecap="round"/>
</svg>
