<svg width="76" height="10" viewBox="0 0 76 10" fill="none" xmlns="http://www.w3.org/2000/svg">
<path d="M0 9.61642V0.591859H5.34385C6.53421 0.591859 7.45673 0.786756 8.11143 1.17655C8.76612 1.56634 9.09347 2.17222 9.09347 2.99417C9.09347 3.42633 8.98294 3.81613 8.76187 4.16355C8.54081 4.51098 8.17945 4.78637 7.6778 4.98974C8.25597 5.18464 8.66834 5.44733 8.91492 5.7778C9.16149 6.10828 9.28478 6.51078 9.28478 6.98531C9.28478 7.85811 8.94893 8.51483 8.27723 8.95547C7.61403 9.3961 6.6745 9.61642 5.45863 9.61642H0ZM5.3566 2.4349H2.55076V4.18897H5.3566C6.20686 4.18897 6.63198 3.91358 6.63198 3.36278V3.24838C6.63198 2.70606 6.20686 2.4349 5.3566 2.4349ZM2.55076 7.73524H5.45863C6.3344 7.73524 6.77228 7.4429 6.77228 6.85821V6.74381C6.77228 6.20149 6.3344 5.93033 5.45863 5.93033H2.55076V7.73524Z" fill="#F8F8F8"/>
<path d="M10.4497 9.61642V0.591859H18.8672V2.47303H13.0004V4.15084H18.2933V5.95575H13.0004V7.73524H18.9565V9.61642H10.4497Z" fill="#F8F8F8"/>
<path d="M19.0331 5.96162V4.15084L33.8402 4.14497V5.95575L19.0331 5.96162Z" fill="#2BD95C"/>
<path d="M34.5623 9.61642V0.591859H37.1131V7.73524H42.5462V9.61642H34.5623Z" fill="#F8F8F8"/>
<path d="M54.5525 9.61642V0.591859H57.167L61.5033 5.6507H61.516V0.591859H63.8883V9.61642H61.9369L56.9374 3.79494H56.9247V9.61642H54.5525Z" fill="#F8F8F8"/>
<path d="M70.4648 9.78166C69.402 9.78166 68.4582 9.591 67.6335 9.20968C66.8173 8.81989 66.1753 8.27756 65.7077 7.58272C65.2485 6.87939 65.019 6.0532 65.019 5.10414C65.019 4.15508 65.2613 3.33312 65.7459 2.63827C66.2306 1.94342 66.898 1.40534 67.7483 1.02402C68.5985 0.642702 69.5721 0.452042 70.6689 0.452042C71.6297 0.452042 72.4629 0.579149 73.1686 0.833361C73.8829 1.0791 74.461 1.42229 74.9032 1.86292C75.3538 2.29509 75.6599 2.7908 75.8214 3.35007L73.5385 3.89663C73.3685 3.48141 73.1389 3.16788 72.8498 2.95604C72.5692 2.73572 72.2461 2.58743 71.8805 2.51117C71.5149 2.42643 71.1238 2.38406 70.7072 2.38406C70.129 2.38406 69.6018 2.48151 69.1257 2.67641C68.6581 2.86283 68.2839 3.1467 68.0033 3.52802C67.7313 3.90934 67.5952 4.39234 67.5952 4.97703V5.23125C67.5952 5.80746 67.7355 6.2947 68.0161 6.69297C68.3052 7.08276 68.7006 7.37934 69.2022 7.58272C69.7124 7.77761 70.2905 7.87506 70.9367 7.87506C71.4639 7.87506 71.9315 7.81574 72.3397 7.69711C72.7478 7.57 73.0666 7.39206 73.2962 7.16326C73.5343 6.93447 73.6533 6.65484 73.6533 6.32436V6.23539H70.3883V4.48132H76V9.61642H73.9721L73.8701 8.72667C73.4365 9.09105 72.9221 9.35797 72.3269 9.52744C71.7317 9.69692 71.111 9.78166 70.4648 9.78166Z" fill="#F8F8F8"/>
<path fill-rule="evenodd" clip-rule="evenodd" d="M44.8406 0.0480398C45.2512 -0.0262609 45.4648 -0.0167994 45.8619 0.0934239C45.9957 0.130535 46.254 0.258327 46.4357 0.377365C46.8504 0.649201 47.2677 0.750701 47.9742 0.751687C48.7542 0.752801 49.1978 0.635014 49.7016 0.292416C50.458 -0.221925 51.7758 -0.0117193 52.5561 0.747808C52.9213 1.10329 53.1124 1.41322 53.2641 1.89676C53.3728 2.24357 53.3863 2.35838 53.3672 2.76876C53.341 3.33077 53.2311 3.66975 52.9344 4.10235L52.7273 4.40414L52.7219 5.39754C52.7156 6.52771 52.6631 6.7907 52.3007 7.50499C51.624 8.83875 50.4568 9.6433 48.7865 9.92703C47.4025 10.1621 46.0679 9.82722 44.8963 8.95147C44.3535 8.54572 43.9909 8.10752 43.6991 7.50499C43.3341 6.75153 43.2864 6.50778 43.2818 5.37311L43.2779 4.40414L43.0744 4.10778C42.6557 3.49778 42.5095 2.84649 42.6466 2.20126C42.8895 1.05848 43.7111 0.252403 44.8406 0.0480398ZM46.5189 1.91887C46.3096 1.79898 46.0943 1.76348 45.7643 1.79397C45.2601 1.84061 44.8463 2.12979 44.632 2.58567C44.3704 3.14257 44.4475 3.70813 44.8438 4.13843L44.8585 4.15394C44.9536 4.25708 44.9625 4.29985 44.9882 4.36923C45.0224 4.46167 45.037 4.59924 45.0131 4.84828L45.0084 4.87815C44.7944 6.32262 45.4261 7.4423 46.7692 7.99918C48.0083 8.51291 49.6312 8.13037 50.4418 7.13339C50.6654 6.85836 50.8548 6.47327 50.9513 6.09731C51.0427 5.74151 51.0501 5.12494 50.9681 4.72919C50.9511 4.4209 50.9712 4.35634 51.1561 4.11981C51.2291 4.04862 51.334 3.89887 51.3892 3.78699C51.4781 3.60681 51.4892 3.54121 51.4888 3.21368C51.4884 2.89112 51.4759 2.81667 51.3896 2.63222C51.2515 2.33729 50.9904 2.07272 50.6956 1.92818C50.4693 1.81721 50.4236 1.80832 50.0791 1.80832H50.0608C49.9171 1.80829 49.828 1.80827 49.742 1.82461C49.6017 1.85132 49.4696 1.92152 49.1224 2.10662L49.0952 2.12136C48.7062 2.32866 48.3696 2.39624 47.854 2.37116C47.4179 2.34992 47.1459 2.27836 46.842 2.10429L46.5189 1.91887Z" fill="white"/>
</svg>
