<svg width="358" height="72" viewBox="0 0 358 72" fill="none" xmlns="http://www.w3.org/2000/svg">
                <path d="M123.015 12.8C123.551 13.214 123.973 13.766 124.28 14.456C124.602 15.146 124.763 15.9893 124.763 16.986C124.763 18.2587 124.51 19.263 124.004 19.999C123.498 20.735 122.831 21.2563 122.003 21.563C121.175 21.8543 120.285 22 119.335 22H108.295V4.29H118.3C119.296 4.29 120.239 4.46633 121.129 4.819C122.018 5.15633 122.739 5.693 123.291 6.429C123.858 7.165 124.142 8.108 124.142 9.258C124.142 10.1167 124.042 10.8373 123.843 11.42C123.659 11.9873 123.383 12.4473 123.015 12.8ZM117.035 10.109H115.333V11.351H117.127C117.249 11.351 117.38 11.3127 117.518 11.236C117.671 11.1593 117.748 10.9983 117.748 10.753C117.748 10.4923 117.656 10.3237 117.472 10.247C117.303 10.155 117.157 10.109 117.035 10.109ZM115.333 16.158H117.725C117.847 16.158 117.978 16.1197 118.116 16.043C118.269 15.9663 118.346 15.8053 118.346 15.56C118.346 15.2993 118.254 15.1307 118.07 15.054C117.901 14.962 117.755 14.916 117.633 14.916H115.333V16.158ZM132.857 22H125.612V4.29H136.146C137.127 4.29 138.024 4.46633 138.837 4.819C139.665 5.17167 140.324 5.739 140.815 6.521C141.306 7.303 141.551 8.34567 141.551 9.649C141.551 10.017 141.52 10.4157 141.459 10.845C141.413 11.2743 141.298 11.7037 141.114 12.133C140.93 12.547 140.646 12.9227 140.263 13.26C139.895 13.582 139.389 13.835 138.745 14.019L142.379 22H134.306L133.064 17.262H132.857V22ZM134.444 9.948H132.236V11.19H134.513C134.636 11.19 134.766 11.1517 134.904 11.075C135.057 10.9983 135.134 10.8373 135.134 10.592C135.134 10.3313 135.05 10.1627 134.881 10.086C134.712 9.994 134.567 9.948 134.444 9.948ZM150.174 15.054V15.997H157.212V22H142.929V4.29H156.798V9.465H150.174V10.408H156.177V15.054H150.174ZM176.169 22H168.717L168.487 19.884H165.221L164.991 22H157.539L162.093 4.29H171.615L176.169 22ZM166.233 10.845L165.98 13.053H167.728L167.475 10.845H166.233ZM183.704 22L176.666 21.977V4.29H183.911L183.819 8.269L183.612 10.822H183.819L185.774 4.29H193.226L189.431 12.386L193.64 22H185.567L183.819 15.468H183.612L183.704 22ZM201.767 22.023L194.522 22V4.29H201.767V22.023ZM209.708 22H202.877V4.29H210.95L212.491 10.73H212.698L212.606 4.29H219.437V22H211.985L209.8 13.72H209.593L209.708 22ZM237.323 9.166V9.856L230.078 10.684V10.27C230.078 9.718 229.802 9.442 229.25 9.442C228.698 9.442 228.422 9.718 228.422 10.27V15.928C228.422 16.48 228.698 16.756 229.25 16.756C229.802 16.756 230.078 16.48 230.078 15.928V15.215H229.25V11.305H237.323V16.986C237.323 18.6727 236.595 19.9913 235.138 20.942C233.681 21.8927 231.65 22.368 229.043 22.368C226.636 22.368 224.681 21.9003 223.178 20.965C221.691 20.0143 220.817 18.7033 220.556 17.032C220.495 16.6027 220.441 16.043 220.395 15.353C220.364 14.663 220.349 13.8963 220.349 13.053C220.349 12.2557 220.364 11.5273 220.395 10.868C220.441 10.1933 220.495 9.65667 220.556 9.258C220.817 7.57133 221.698 6.26033 223.201 5.325C224.704 4.38967 226.651 3.922 229.043 3.922C231.588 3.922 233.589 4.38967 235.046 5.325C236.503 6.245 237.262 7.52533 237.323 9.166ZM243.982 9.557V11.397C243.982 11.9797 243.745 12.478 243.269 12.892C242.794 13.306 242.035 13.513 240.992 13.513C239.965 13.513 239.206 13.2983 238.715 12.869C238.225 12.4397 237.979 11.9337 237.979 11.351V9.534C237.979 8.95133 238.225 8.44533 238.715 8.016C239.206 7.58667 239.965 7.372 240.992 7.372C242.035 7.372 242.794 7.579 243.269 7.993C243.745 8.407 243.982 8.92833 243.982 9.557ZM243.982 18.504V20.344C243.982 20.9267 243.745 21.425 243.269 21.839C242.794 22.253 242.035 22.46 240.992 22.46C239.965 22.46 239.206 22.2453 238.715 21.816C238.225 21.3867 237.979 20.8807 237.979 20.298V18.481C237.979 17.8983 238.225 17.3923 238.715 16.963C239.206 16.5337 239.965 16.319 240.992 16.319C242.035 16.319 242.794 16.526 243.269 16.94C243.745 17.354 243.982 17.8753 243.982 18.504ZM43.795 35.8C44.3316 36.214 44.7533 36.766 45.06 37.456C45.3819 38.146 45.5429 38.9893 45.5429 39.986C45.5429 41.2587 45.2899 42.263 44.7839 42.999C44.2779 43.735 43.6109 44.2563 42.7829 44.563C41.9549 44.8543 41.0656 45 40.1149 45H29.0749V27.29H39.0799C40.0766 27.29 41.0196 27.4663 41.9089 27.819C42.7983 28.1563 43.519 28.693 44.071 29.429C44.6383 30.165 44.922 31.108 44.922 32.258C44.922 33.1167 44.8223 33.8373 44.623 34.42C44.4389 34.9873 44.1629 35.4473 43.795 35.8ZM37.8149 33.109H36.1129V34.351H37.9069C38.0296 34.351 38.1599 34.3127 38.2979 34.236C38.4513 34.1593 38.5279 33.9983 38.5279 33.753C38.5279 33.4923 38.4359 33.3237 38.2519 33.247C38.0833 33.155 37.9376 33.109 37.8149 33.109ZM36.1129 39.158H38.5049C38.6276 39.158 38.7579 39.1197 38.896 39.043C39.0493 38.9663 39.1259 38.8053 39.1259 38.56C39.1259 38.2993 39.0339 38.1307 38.8499 38.054C38.6813 37.962 38.5356 37.916 38.4129 37.916H36.1129V39.158ZM63.0213 40.216C62.776 41.826 61.925 43.091 60.4683 44.011C59.0117 44.9157 57.1027 45.368 54.7413 45.368C52.38 45.368 50.471 44.9157 49.0143 44.011C47.573 43.1063 46.722 41.8567 46.4613 40.262C46.4 39.8327 46.3463 39.2577 46.3003 38.537C46.2697 37.801 46.2543 37.0113 46.2543 36.168C46.2543 35.3553 46.2697 34.604 46.3003 33.914C46.3463 33.2087 46.4 32.6567 46.4613 32.258C46.722 30.5713 47.5807 29.2603 49.0373 28.325C50.494 27.3897 52.3953 26.922 54.7413 26.922C57.1027 26.922 59.0117 27.3897 60.4683 28.325C61.925 29.245 62.776 30.5253 63.0213 32.166C63.0827 32.5647 63.1287 33.1167 63.1593 33.822C63.2053 34.512 63.2283 35.271 63.2283 36.099C63.2283 36.973 63.2053 37.7703 63.1593 38.491C63.1287 39.2117 63.0827 39.7867 63.0213 40.216ZM55.3623 39.158V33.132C55.3623 32.718 55.1553 32.511 54.7413 32.511C54.3273 32.511 54.1203 32.718 54.1203 33.132V39.158C54.1203 39.572 54.3273 39.779 54.7413 39.779C55.1553 39.779 55.3623 39.572 55.3623 39.158ZM70.8437 34.949L71.5337 27.29H79.2157L74.5697 40.538V45H66.9107V40.538L62.2417 27.29H69.9237L70.6367 34.949H70.8437ZM87.6232 36.398L95.1442 36.835V40.009C95.1442 41.665 94.3929 42.9607 92.8902 43.896C91.4029 44.8313 89.3252 45.299 86.6572 45.299C85.1086 45.299 83.7362 45.092 82.5402 44.678C81.3442 44.264 80.3859 43.666 79.6652 42.884C78.9446 42.0867 78.5152 41.1283 78.3772 40.009C78.3312 39.595 78.2929 39.0507 78.2622 38.376C78.2316 37.686 78.2162 36.9347 78.2162 36.122C78.2162 35.3093 78.2316 34.5657 78.2622 33.891C78.2929 33.2163 78.3312 32.672 78.3772 32.258C78.5152 31.1233 78.9446 30.165 79.6652 29.383C80.3859 28.5857 81.3442 27.98 82.5402 27.566C83.7362 27.1367 85.1086 26.922 86.6572 26.922C88.4052 26.922 89.9079 27.1367 91.1652 27.566C92.4379 27.9953 93.4192 28.6087 94.1092 29.406C94.7992 30.188 95.1442 31.1387 95.1442 32.258V34.351L87.6232 35.156V33.293C87.6232 32.879 87.4162 32.672 87.0022 32.672C86.5882 32.672 86.3812 32.879 86.3812 33.293V38.882C86.3812 39.296 86.5882 39.503 87.0022 39.503C87.4162 39.503 87.6232 39.296 87.6232 38.882V36.398ZM112.75 40.216C112.505 41.826 111.654 43.091 110.197 44.011C108.74 44.9157 106.831 45.368 104.47 45.368C102.109 45.368 100.2 44.9157 98.7428 44.011C97.3015 43.1063 96.4505 41.8567 96.1898 40.262C96.1285 39.8327 96.0748 39.2577 96.0288 38.537C95.9982 37.801 95.9828 37.0113 95.9828 36.168C95.9828 35.3553 95.9982 34.604 96.0288 33.914C96.0748 33.2087 96.1285 32.6567 96.1898 32.258C96.4505 30.5713 97.3092 29.2603 98.7658 28.325C100.223 27.3897 102.124 26.922 104.47 26.922C106.831 26.922 108.74 27.3897 110.197 28.325C111.654 29.245 112.505 30.5253 112.75 32.166C112.811 32.5647 112.857 33.1167 112.888 33.822C112.934 34.512 112.957 35.271 112.957 36.099C112.957 36.973 112.934 37.7703 112.888 38.491C112.857 39.2117 112.811 39.7867 112.75 40.216ZM105.091 39.158V33.132C105.091 32.718 104.884 32.511 104.47 32.511C104.056 32.511 103.849 32.718 103.849 33.132V39.158C103.849 39.572 104.056 39.779 104.47 39.779C104.884 39.779 105.091 39.572 105.091 39.158ZM119.837 27.29H127.289V38.836C127.289 38.882 127.312 38.997 127.358 39.181C127.42 39.365 127.604 39.457 127.91 39.457C128.217 39.457 128.393 39.365 128.439 39.181C128.501 38.997 128.531 38.882 128.531 38.836V27.29H135.983V39.158C135.983 40.0013 135.845 40.7987 135.569 41.55C135.293 42.286 134.841 42.9453 134.212 43.528C133.584 44.0953 132.733 44.5477 131.659 44.885C130.601 45.207 129.283 45.368 127.703 45.368C126.308 45.368 125.112 45.1993 124.115 44.862C123.119 44.5247 122.306 44.0647 121.677 43.482C121.049 42.8993 120.581 42.24 120.274 41.504C119.983 40.768 119.837 40.0013 119.837 39.204V27.29ZM143.808 45H136.977V27.29H145.05L146.591 33.73H146.798L146.706 27.29H153.537V45H146.085L143.9 36.72H143.693L143.808 45ZM161.832 27.29V37.962H168.87V45H154.587V27.29H161.832ZM186.399 40.216C186.154 41.826 185.303 43.091 183.846 44.011C182.39 44.9157 180.481 45.368 178.119 45.368C175.758 45.368 173.849 44.9157 172.392 44.011C170.951 43.1063 170.1 41.8567 169.839 40.262C169.778 39.8327 169.724 39.2577 169.678 38.537C169.648 37.801 169.632 37.0113 169.632 36.168C169.632 35.3553 169.648 34.604 169.678 33.914C169.724 33.2087 169.778 32.6567 169.839 32.258C170.1 30.5713 170.959 29.2603 172.415 28.325C173.872 27.3897 175.773 26.922 178.119 26.922C180.481 26.922 182.39 27.3897 183.846 28.325C185.303 29.245 186.154 30.5253 186.399 32.166C186.461 32.5647 186.507 33.1167 186.537 33.822C186.583 34.512 186.606 35.271 186.606 36.099C186.606 36.973 186.583 37.7703 186.537 38.491C186.507 39.2117 186.461 39.7867 186.399 40.216ZM178.74 39.158V33.132C178.74 32.718 178.533 32.511 178.119 32.511C177.705 32.511 177.498 32.718 177.498 33.132V39.158C177.498 39.572 177.705 39.779 178.119 39.779C178.533 39.779 178.74 39.572 178.74 39.158ZM196.851 36.398L204.372 36.835V40.009C204.372 41.665 203.62 42.9607 202.118 43.896C200.63 44.8313 198.553 45.299 195.885 45.299C194.336 45.299 192.964 45.092 191.768 44.678C190.572 44.264 189.613 43.666 188.893 42.884C188.172 42.0867 187.743 41.1283 187.605 40.009C187.559 39.595 187.52 39.0507 187.49 38.376C187.459 37.686 187.444 36.9347 187.444 36.122C187.444 35.3093 187.459 34.5657 187.49 33.891C187.52 33.2163 187.559 32.672 187.605 32.258C187.743 31.1233 188.172 30.165 188.893 29.383C189.613 28.5857 190.572 27.98 191.768 27.566C192.964 27.1367 194.336 26.922 195.885 26.922C197.633 26.922 199.135 27.1367 200.393 27.566C201.665 27.9953 202.647 28.6087 203.337 29.406C204.027 30.188 204.372 31.1387 204.372 32.258V34.351L196.851 35.156V33.293C196.851 32.879 196.644 32.672 196.23 32.672C195.816 32.672 195.609 32.879 195.609 33.293V38.882C195.609 39.296 195.816 39.503 196.23 39.503C196.644 39.503 196.851 39.296 196.851 38.882V36.398ZM212.386 45L205.348 44.977V27.29H212.593L212.501 31.269L212.294 33.822H212.501L214.456 27.29H221.908L218.113 35.386L222.322 45H214.249L212.501 38.468H212.294L212.386 45ZM238.471 36.398L245.992 36.835V40.009C245.992 41.665 245.241 42.9607 243.738 43.896C242.251 44.8313 240.173 45.299 237.505 45.299C235.956 45.299 234.584 45.092 233.388 44.678C232.192 44.264 231.234 43.666 230.513 42.884C229.792 42.0867 229.363 41.1283 229.225 40.009C229.179 39.595 229.141 39.0507 229.11 38.376C229.079 37.686 229.064 36.9347 229.064 36.122C229.064 35.3093 229.079 34.5657 229.11 33.891C229.141 33.2163 229.179 32.672 229.225 32.258C229.363 31.1233 229.792 30.165 230.513 29.383C231.234 28.5857 232.192 27.98 233.388 27.566C234.584 27.1367 235.956 26.922 237.505 26.922C239.253 26.922 240.756 27.1367 242.013 27.566C243.286 27.9953 244.267 28.6087 244.957 29.406C245.647 30.188 245.992 31.1387 245.992 32.258V34.351L238.471 35.156V33.293C238.471 32.879 238.264 32.672 237.85 32.672C237.436 32.672 237.229 32.879 237.229 33.293V38.882C237.229 39.296 237.436 39.503 237.85 39.503C238.264 39.503 238.471 39.296 238.471 38.882V36.398ZM263.598 40.216C263.352 41.826 262.501 43.091 261.045 44.011C259.588 44.9157 257.679 45.368 255.318 45.368C252.956 45.368 251.047 44.9157 249.591 44.011C248.149 43.1063 247.298 41.8567 247.038 40.262C246.976 39.8327 246.923 39.2577 246.877 38.537C246.846 37.801 246.831 37.0113 246.831 36.168C246.831 35.3553 246.846 34.604 246.877 33.914C246.923 33.2087 246.976 32.6567 247.038 32.258C247.298 30.5713 248.157 29.2603 249.614 28.325C251.07 27.3897 252.972 26.922 255.318 26.922C257.679 26.922 259.588 27.3897 261.045 28.325C262.501 29.245 263.352 30.5253 263.598 32.166C263.659 32.5647 263.705 33.1167 263.736 33.822C263.782 34.512 263.805 35.271 263.805 36.099C263.805 36.973 263.782 37.7703 263.736 38.491C263.705 39.2117 263.659 39.7867 263.598 40.216ZM255.939 39.158V33.132C255.939 32.718 255.732 32.511 255.318 32.511C254.904 32.511 254.697 32.718 254.697 33.132V39.158C254.697 39.572 254.904 39.779 255.318 39.779C255.732 39.779 255.939 39.572 255.939 39.158ZM271.318 45H264.487L264.901 27.29H273.802L274.768 33.247H274.975L275.941 27.29H284.773L285.187 45H278.356V35.8H278.149L276.7 45H272.974L271.525 35.57H271.318V45ZM293.498 45.023L286.253 45V27.29H293.498V45.023ZM301.439 45H294.608V27.29H302.681L304.222 33.73H304.429L304.337 27.29H311.168V45H303.716L301.531 36.72H301.324L301.439 45ZM329.054 32.166V32.856L321.809 33.684V33.27C321.809 32.718 321.533 32.442 320.981 32.442C320.429 32.442 320.153 32.718 320.153 33.27V38.928C320.153 39.48 320.429 39.756 320.981 39.756C321.533 39.756 321.809 39.48 321.809 38.928V38.215H320.981V34.305H329.054V39.986C329.054 41.6727 328.325 42.9913 326.869 43.942C325.412 44.8927 323.38 45.368 320.774 45.368C318.366 45.368 316.411 44.9003 314.909 43.965C313.421 43.0143 312.547 41.7033 312.287 40.032C312.225 39.6027 312.172 39.043 312.126 38.353C312.095 37.663 312.08 36.8963 312.08 36.053C312.08 35.2557 312.095 34.5273 312.126 33.868C312.172 33.1933 312.225 32.6567 312.287 32.258C312.547 30.5713 313.429 29.2603 314.932 28.325C316.434 27.3897 318.382 26.922 320.774 26.922C323.319 26.922 325.32 27.3897 326.777 28.325C328.233 29.245 328.992 30.5253 329.054 32.166ZM88.9958 64.8C88.7291 66.55 87.8041 67.925 86.2208 68.925C84.6375 69.9083 82.5625 70.4 79.9958 70.4C77.4291 70.4 75.3541 69.9083 73.7708 68.925C72.2041 67.9417 71.2791 66.5833 70.9958 64.85C70.9291 64.3833 70.8708 63.7583 70.8208 62.975C70.7875 62.175 70.7708 61.3167 70.7708 60.4C70.7708 59.5167 70.7875 58.7 70.8208 57.95C70.8708 57.1833 70.9291 56.5833 70.9958 56.15C71.2791 54.3167 72.2125 52.8917 73.7958 51.875C75.3791 50.8583 77.4458 50.35 79.9958 50.35C82.5625 50.35 84.6375 50.8583 86.2208 51.875C87.8041 52.875 88.7291 54.2667 88.9958 56.05C89.0625 56.4833 89.1125 57.0833 89.1458 57.85C89.1958 58.6 89.2208 59.425 89.2208 60.325C89.2208 61.275 89.1958 62.1417 89.1458 62.925C89.1125 63.7083 89.0625 64.3333 88.9958 64.8ZM80.6708 63.65V57.1C80.6708 56.65 80.4458 56.425 79.9958 56.425C79.5458 56.425 79.3208 56.65 79.3208 57.1V63.65C79.3208 64.1 79.5458 64.325 79.9958 64.325C80.4458 64.325 80.6708 64.1 80.6708 63.65ZM97.6812 70H90.2562V50.75H99.0312L100.706 57.75H100.931L100.831 50.75H108.256V70H100.156L97.7812 61H97.5562L97.6812 70ZM127.041 58.125C128.374 58.125 129.449 58.3833 130.266 58.9C131.083 59.4 131.683 60.0583 132.066 60.875C132.449 61.675 132.641 62.525 132.641 63.425C132.641 65.6417 131.983 67.3583 130.666 68.575C129.349 69.775 127.474 70.375 125.041 70.375C123.441 70.375 122.091 70.2083 120.991 69.875C119.891 69.5417 118.999 69.075 118.316 68.475C117.633 67.875 117.108 67.1833 116.741 66.4C116.391 65.6 116.158 64.7417 116.041 63.825C115.924 62.9083 115.874 61.9667 115.891 61C115.941 59 116.149 57.3167 116.516 55.95C116.899 54.5833 117.483 53.4917 118.266 52.675C119.049 51.8583 120.066 51.2667 121.316 50.9C122.583 50.5333 124.124 50.35 125.941 50.35C126.774 50.35 127.649 50.3833 128.566 50.45C129.499 50.5167 130.499 50.6 131.566 50.7L131.066 57.675C130.399 57.525 129.774 57.425 129.191 57.375C128.608 57.3083 128.066 57.275 127.566 57.275C126.433 57.275 125.574 57.4083 124.991 57.675C124.424 57.925 124.024 58.2417 123.791 58.625C124.424 58.4417 125.008 58.3167 125.541 58.25C126.074 58.1667 126.574 58.125 127.041 58.125ZM124.291 63.875C124.558 63.875 124.758 63.7917 124.891 63.625C125.024 63.4417 125.091 63.225 125.091 62.975C125.091 62.6917 124.974 62.4083 124.741 62.125C124.524 61.8417 124.108 61.6667 123.491 61.6V61.875C123.491 62.1417 123.483 62.4333 123.466 62.75C123.466 63.05 123.524 63.3167 123.641 63.55C123.758 63.7667 123.974 63.875 124.291 63.875ZM151.709 50.75V58.175H146.884V70H138.559V58.175H133.709V50.75H151.709ZM162.833 56.15V50.75H170.933V70H162.833V63.8H160.808V70H152.708V50.75H160.808V56.15H162.833ZM196.759 64.8C196.493 66.55 195.568 67.925 193.984 68.925C192.401 69.9083 190.326 70.4 187.759 70.4C185.193 70.4 183.118 69.9083 181.534 68.925C179.968 67.9417 179.043 66.5833 178.759 64.85C178.693 64.3833 178.634 63.7583 178.584 62.975C178.551 62.175 178.534 61.3167 178.534 60.4C178.534 59.5167 178.551 58.7 178.584 57.95C178.634 57.1833 178.693 56.5833 178.759 56.15C179.043 54.3167 179.976 52.8917 181.559 51.875C183.143 50.8583 185.209 50.35 187.759 50.35C190.326 50.35 192.401 50.8583 193.984 51.875C195.568 52.875 196.493 54.2667 196.759 56.05C196.826 56.4833 196.876 57.0833 196.909 57.85C196.959 58.6 196.984 59.425 196.984 60.325C196.984 61.275 196.959 62.1417 196.909 62.925C196.876 63.7083 196.826 64.3333 196.759 64.8ZM188.434 63.65V57.1C188.434 56.65 188.209 56.425 187.759 56.425C187.309 56.425 187.084 56.65 187.084 57.1V63.65C187.084 64.1 187.309 64.325 187.759 64.325C188.209 64.325 188.434 64.1 188.434 63.65ZM213.345 50.75V56.875H205.92V57.9H213.12V63.35H205.92V70H198.045V50.75H213.345ZM228.296 70H220.871L221.321 50.75H230.996L232.046 57.225H232.271L233.321 50.75H242.921L243.371 70H235.946V60H235.721L234.146 70H230.096L228.521 59.75H228.296V70ZM264.179 70H256.079L255.829 67.7H252.279L252.029 70H243.929L248.879 50.75H259.229L264.179 70ZM253.379 57.875L253.104 60.275H255.004L254.729 57.875H253.379ZM269.593 59.075L270.343 50.75H278.693L273.643 65.15V70H265.318V65.15L260.243 50.75H268.593L269.368 59.075H269.593ZM286.565 63.275H280.065C280.048 62.8417 280.006 62.2083 279.94 61.375C279.873 60.525 279.798 59.575 279.715 58.525C279.648 57.475 279.581 56.4083 279.515 55.325C279.465 54.225 279.423 53.2 279.39 52.25C279.356 51.3 279.348 50.525 279.365 49.925L279.39 49.9H287.24L287.215 49.925C287.248 50.525 287.248 51.3 287.215 52.25C287.181 53.2 287.131 54.225 287.065 55.325C287.015 56.4083 286.956 57.4833 286.89 58.55C286.823 59.6 286.756 60.5417 286.69 61.375C286.64 62.2083 286.598 62.8417 286.565 63.275ZM286.565 66.2V68.2C286.565 68.8333 286.306 69.375 285.79 69.825C285.273 70.275 284.448 70.5 283.315 70.5C282.198 70.5 281.373 70.2667 280.84 69.8C280.306 69.3333 280.04 68.7833 280.04 68.15V66.175C280.04 65.5417 280.306 64.9917 280.84 64.525C281.373 64.0583 282.198 63.825 283.315 63.825C284.448 63.825 285.273 64.05 285.79 64.5C286.306 64.95 286.565 65.5167 286.565 66.2Z" fill="#392C1D"/>
                <line x1="301" y1="60.5" x2="338" y2="60.5" stroke="black"/>
                <line x1="18" y1="60.5" x2="55" y2="60.5" stroke="black"/>
              </svg>