<svg width="180" height="33" viewBox="0 0 180 33" fill="none" xmlns="http://www.w3.org/2000/svg">
  <path d="M0.5 32.5V0.5H164.178L178.724 32.5H0.5Z" fill="#392C1D" stroke="#392C1D"/>
  <path d="M9.684 21V12.6H14.172C15.332 12.6 16.188 12.808 16.74 13.224C17.292 13.632 17.568 14.156 17.568 14.796C17.568 15.22 17.448 15.6 17.208 15.936C16.976 16.264 16.636 16.524 16.188 16.716C15.74 16.908 15.188 17.004 14.532 17.004L14.772 16.356C15.428 16.356 15.992 16.448 16.464 16.632C16.944 16.816 17.312 17.084 17.568 17.436C17.832 17.78 17.964 18.196 17.964 18.684C17.964 19.412 17.66 19.98 17.052 20.388C16.452 20.796 15.572 21 14.412 21H9.684ZM12.468 19.02H14.172C14.484 19.02 14.716 18.964 14.868 18.852C15.028 18.74 15.108 18.576 15.108 18.36C15.108 18.144 15.028 17.98 14.868 17.868C14.716 17.756 14.484 17.7 14.172 17.7H12.276V15.828H13.788C14.108 15.828 14.34 15.776 14.484 15.672C14.636 15.56 14.712 15.404 14.712 15.204C14.712 14.996 14.636 14.84 14.484 14.736C14.34 14.632 14.108 14.58 13.788 14.58H12.468V19.02ZM21.5573 15.72H25.3013V17.76H21.5573V15.72ZM21.7493 18.864H25.9493V21H18.9653V12.6H25.7933V14.736H21.7493V18.864ZM27.0395 21V12.6H31.0835C31.8675 12.6 32.5435 12.728 33.1115 12.984C33.6875 13.24 34.1315 13.608 34.4435 14.088C34.7555 14.56 34.9115 15.12 34.9115 15.768C34.9115 16.416 34.7555 16.976 34.4435 17.448C34.1315 17.912 33.6875 18.268 33.1115 18.516C32.5435 18.764 31.8675 18.888 31.0835 18.888H28.6115L29.8715 17.724V21H27.0395ZM32.0675 21L30.0035 17.94H33.0035L35.0915 21H32.0675ZM29.8715 18.036L28.6115 16.752H30.9035C31.2955 16.752 31.5835 16.664 31.7675 16.488C31.9595 16.312 32.0555 16.072 32.0555 15.768C32.0555 15.464 31.9595 15.224 31.7675 15.048C31.5835 14.872 31.2955 14.784 30.9035 14.784H28.6115L29.8715 13.5V18.036ZM35.0689 21L38.7409 12.6H41.5249L45.1969 21H42.2689L39.5569 13.944H40.6609L37.9489 21H35.0689ZM37.2529 19.536L37.9729 17.496H41.8369L42.5569 19.536H37.2529ZM53.6625 21.192C52.9745 21.192 52.3385 21.084 51.7545 20.868C51.1785 20.652 50.6785 20.348 50.2545 19.956C49.8305 19.556 49.4985 19.088 49.2585 18.552C49.0265 18.016 48.9105 17.432 48.9105 16.8C48.9105 16.16 49.0265 15.576 49.2585 15.048C49.4985 14.512 49.8305 14.048 50.2545 13.656C50.6785 13.256 51.1785 12.948 51.7545 12.732C52.3385 12.516 52.9705 12.408 53.6505 12.408C54.3385 12.408 54.9705 12.516 55.5465 12.732C56.1225 12.948 56.6225 13.256 57.0465 13.656C57.4705 14.048 57.7985 14.512 58.0305 15.048C58.2705 15.576 58.3905 16.16 58.3905 16.8C58.3905 17.432 58.2705 18.016 58.0305 18.552C57.7985 19.088 57.4705 19.556 57.0465 19.956C56.6225 20.348 56.1225 20.652 55.5465 20.868C54.9705 21.084 54.3425 21.192 53.6625 21.192ZM53.6505 18.9C53.9145 18.9 54.1585 18.852 54.3825 18.756C54.6145 18.66 54.8145 18.524 54.9825 18.348C55.1585 18.164 55.2945 17.944 55.3905 17.688C55.4865 17.424 55.5345 17.128 55.5345 16.8C55.5345 16.472 55.4865 16.18 55.3905 15.924C55.2945 15.66 55.1585 15.44 54.9825 15.264C54.8145 15.08 54.6145 14.94 54.3825 14.844C54.1585 14.748 53.9145 14.7 53.6505 14.7C53.3865 14.7 53.1385 14.748 52.9065 14.844C52.6825 14.94 52.4825 15.08 52.3065 15.264C52.1385 15.44 52.0065 15.66 51.9105 15.924C51.8145 16.18 51.7665 16.472 51.7665 16.8C51.7665 17.128 51.8145 17.424 51.9105 17.688C52.0065 17.944 52.1385 18.164 52.3065 18.348C52.4825 18.524 52.6825 18.66 52.9065 18.756C53.1385 18.852 53.3865 18.9 53.6505 18.9ZM59.4184 21V12.6H63.4624C64.2464 12.6 64.9224 12.728 65.4904 12.984C66.0664 13.24 66.5104 13.608 66.8224 14.088C67.1344 14.56 67.2904 15.12 67.2904 15.768C67.2904 16.416 67.1344 16.976 66.8224 17.448C66.5104 17.92 66.0664 18.288 65.4904 18.552C64.9224 18.808 64.2464 18.936 63.4624 18.936H60.9904L62.2504 17.724V21H59.4184ZM62.2504 18.036L60.9904 16.752H63.2824C63.6744 16.752 63.9624 16.664 64.1464 16.488C64.3384 16.312 64.4344 16.072 64.4344 15.768C64.4344 15.464 64.3384 15.224 64.1464 15.048C63.9624 14.872 63.6744 14.784 63.2824 14.784H60.9904L62.2504 13.5V18.036ZM68.2192 21V12.6H72.2632C73.0472 12.6 73.7232 12.728 74.2912 12.984C74.8672 13.24 75.3112 13.608 75.6232 14.088C75.9352 14.56 76.0912 15.12 76.0912 15.768C76.0912 16.416 75.9352 16.976 75.6232 17.448C75.3112 17.92 74.8672 18.288 74.2912 18.552C73.7232 18.808 73.0472 18.936 72.2632 18.936H69.7912L71.0512 17.724V21H68.2192ZM71.0512 18.036L69.7912 16.752H72.0832C72.4752 16.752 72.7632 16.664 72.9472 16.488C73.1392 16.312 73.2352 16.072 73.2352 15.768C73.2352 15.464 73.1392 15.224 72.9472 15.048C72.7632 14.872 72.4752 14.784 72.0832 14.784H69.7912L71.0512 13.5V18.036ZM81.5531 21.192C80.8651 21.192 80.2291 21.084 79.6451 20.868C79.0691 20.652 78.5691 20.348 78.1451 19.956C77.7211 19.556 77.3891 19.088 77.1491 18.552C76.9171 18.016 76.8011 17.432 76.8011 16.8C76.8011 16.16 76.9171 15.576 77.1491 15.048C77.3891 14.512 77.7211 14.048 78.1451 13.656C78.5691 13.256 79.0691 12.948 79.6451 12.732C80.2291 12.516 80.8611 12.408 81.5411 12.408C82.2291 12.408 82.8611 12.516 83.4371 12.732C84.0131 12.948 84.5131 13.256 84.9371 13.656C85.3611 14.048 85.6891 14.512 85.9211 15.048C86.1611 15.576 86.2811 16.16 86.2811 16.8C86.2811 17.432 86.1611 18.016 85.9211 18.552C85.6891 19.088 85.3611 19.556 84.9371 19.956C84.5131 20.348 84.0131 20.652 83.4371 20.868C82.8611 21.084 82.2331 21.192 81.5531 21.192ZM81.5411 18.9C81.8051 18.9 82.0491 18.852 82.2731 18.756C82.5051 18.66 82.7051 18.524 82.8731 18.348C83.0491 18.164 83.1851 17.944 83.2811 17.688C83.3771 17.424 83.4251 17.128 83.4251 16.8C83.4251 16.472 83.3771 16.18 83.2811 15.924C83.1851 15.66 83.0491 15.44 82.8731 15.264C82.7051 15.08 82.5051 14.94 82.2731 14.844C82.0491 14.748 81.8051 14.7 81.5411 14.7C81.2771 14.7 81.0291 14.748 80.7971 14.844C80.5731 14.94 80.3731 15.08 80.1971 15.264C80.0291 15.44 79.8971 15.66 79.8011 15.924C79.7051 16.18 79.6571 16.472 79.6571 16.8C79.6571 17.128 79.7051 17.424 79.8011 17.688C79.8971 17.944 80.0291 18.164 80.1971 18.348C80.3731 18.524 80.5731 18.66 80.7971 18.756C81.0291 18.852 81.2771 18.9 81.5411 18.9ZM87.309 21V12.6H91.353C92.137 12.6 92.813 12.728 93.381 12.984C93.957 13.24 94.401 13.608 94.713 14.088C95.025 14.56 95.181 15.12 95.181 15.768C95.181 16.416 95.025 16.976 94.713 17.448C94.401 17.912 93.957 18.268 93.381 18.516C92.813 18.764 92.137 18.888 91.353 18.888H88.881L90.141 17.724V21H87.309ZM92.337 21L90.273 17.94H93.273L95.361 21H92.337ZM90.141 18.036L88.881 16.752H91.173C91.565 16.752 91.853 16.664 92.037 16.488C92.229 16.312 92.325 16.072 92.325 15.768C92.325 15.464 92.229 15.224 92.037 15.048C91.853 14.872 91.565 14.784 91.173 14.784H88.881L90.141 13.5V18.036ZM97.9572 21V14.796H95.4972V12.6H103.249V14.796H100.789V21H97.9572ZM107.888 21.192C106.6 21.192 105.596 20.844 104.876 20.148C104.156 19.452 103.796 18.476 103.796 17.22V12.6H106.628V17.136C106.628 17.776 106.744 18.232 106.976 18.504C107.208 18.768 107.52 18.9 107.912 18.9C108.312 18.9 108.624 18.768 108.848 18.504C109.08 18.232 109.196 17.776 109.196 17.136V12.6H111.98V17.22C111.98 18.476 111.62 19.452 110.9 20.148C110.18 20.844 109.176 21.192 107.888 21.192ZM113.278 21V12.6H115.606L119.878 17.712H118.798V12.6H121.558V21H119.23L114.958 15.888H116.038V21H113.278ZM122.922 21V12.6H125.754V21H122.922ZM128.942 21V14.796H126.482V12.6H134.234V14.796H131.774V21H128.942ZM134.969 21V12.6H137.801V21H134.969ZM141.756 15.72H145.5V17.76H141.756V15.72ZM141.948 18.864H146.148V21H139.164V12.6H145.992V14.736H141.948V18.864ZM150.371 21.192C149.667 21.192 148.987 21.112 148.331 20.952C147.675 20.792 147.135 20.584 146.711 20.328L147.623 18.264C148.023 18.496 148.467 18.684 148.955 18.828C149.451 18.964 149.931 19.032 150.395 19.032C150.667 19.032 150.879 19.016 151.031 18.984C151.191 18.944 151.307 18.892 151.379 18.828C151.451 18.756 151.487 18.672 151.487 18.576C151.487 18.424 151.403 18.304 151.235 18.216C151.067 18.128 150.843 18.056 150.563 18C150.291 17.936 149.991 17.872 149.663 17.808C149.335 17.736 149.003 17.644 148.667 17.532C148.339 17.42 148.035 17.272 147.755 17.088C147.483 16.904 147.263 16.664 147.095 16.368C146.927 16.064 146.843 15.688 146.843 15.24C146.843 14.72 146.987 14.248 147.275 13.824C147.571 13.392 148.007 13.048 148.583 12.792C149.167 12.536 149.891 12.408 150.755 12.408C151.323 12.408 151.883 12.468 152.435 12.588C152.987 12.708 153.483 12.892 153.923 13.14L153.071 15.192C152.655 14.984 152.251 14.828 151.859 14.724C151.475 14.62 151.099 14.568 150.731 14.568C150.459 14.568 150.243 14.592 150.083 14.64C149.923 14.688 149.807 14.752 149.735 14.832C149.671 14.912 149.639 15 149.639 15.096C149.639 15.24 149.723 15.356 149.891 15.444C150.059 15.524 150.279 15.592 150.551 15.648C150.831 15.704 151.135 15.764 151.463 15.828C151.799 15.892 152.131 15.98 152.459 16.092C152.787 16.204 153.087 16.352 153.359 16.536C153.639 16.72 153.863 16.96 154.031 17.256C154.199 17.552 154.283 17.92 154.283 18.36C154.283 18.872 154.135 19.344 153.839 19.776C153.551 20.2 153.119 20.544 152.543 20.808C151.967 21.064 151.243 21.192 150.371 21.192Z" fill="#EDD7B8"/>
</svg>
