<svg width="321" height="33" viewBox="0 0 321 33" fill="none" xmlns="http://www.w3.org/2000/svg">
<path d="M240.334 32.5H63.7095C61.789 32.5 60.0877 31.2824 59.4604 29.4814L59.4028 29.3047L50.6743 0.5H253.371L244.641 29.3047C244.066 31.2021 242.317 32.5 240.334 32.5Z" fill="#392C1D" stroke="#392C1D"/>
<path d="M79.684 20V11.6H84.172C85.332 11.6 86.188 11.808 86.74 12.224C87.292 12.632 87.568 13.156 87.568 13.796C87.568 14.22 87.448 14.6 87.208 14.936C86.976 15.264 86.636 15.524 86.188 15.716C85.74 15.908 85.188 16.004 84.532 16.004L84.772 15.356C85.428 15.356 85.992 15.448 86.464 15.632C86.944 15.816 87.312 16.084 87.568 16.436C87.832 16.78 87.964 17.196 87.964 17.684C87.964 18.412 87.66 18.98 87.052 19.388C86.452 19.796 85.572 20 84.412 20H79.684ZM82.468 18.02H84.172C84.484 18.02 84.716 17.964 84.868 17.852C85.028 17.74 85.108 17.576 85.108 17.36C85.108 17.144 85.028 16.98 84.868 16.868C84.716 16.756 84.484 16.7 84.172 16.7H82.276V14.828H83.788C84.108 14.828 84.34 14.776 84.484 14.672C84.636 14.56 84.712 14.404 84.712 14.204C84.712 13.996 84.636 13.84 84.484 13.736C84.34 13.632 84.108 13.58 83.788 13.58H82.468V18.02ZM91.5573 14.72H95.3013V16.76H91.5573V14.72ZM91.7493 17.864H95.9493V20H88.9653V11.6H95.7933V13.736H91.7493V17.864ZM97.0395 20V11.6H101.083C101.867 11.6 102.543 11.728 103.111 11.984C103.687 12.24 104.131 12.608 104.443 13.088C104.755 13.56 104.911 14.12 104.911 14.768C104.911 15.416 104.755 15.976 104.443 16.448C104.131 16.912 103.687 17.268 103.111 17.516C102.543 17.764 101.867 17.888 101.083 17.888H98.6115L99.8715 16.724V20H97.0395ZM102.067 20L100.003 16.94H103.003L105.091 20H102.067ZM99.8715 17.036L98.6115 15.752H100.903C101.295 15.752 101.583 15.664 101.767 15.488C101.959 15.312 102.055 15.072 102.055 14.768C102.055 14.464 101.959 14.224 101.767 14.048C101.583 13.872 101.295 13.784 100.903 13.784H98.6115L99.8715 12.5V17.036ZM105.069 20L108.741 11.6H111.525L115.197 20H112.269L109.557 12.944H110.661L107.949 20H105.069ZM107.253 18.536L107.973 16.496H111.837L112.557 18.536H107.253ZM123.663 20.192C122.975 20.192 122.339 20.084 121.755 19.868C121.179 19.652 120.679 19.348 120.255 18.956C119.831 18.556 119.499 18.088 119.259 17.552C119.027 17.016 118.911 16.432 118.911 15.8C118.911 15.16 119.027 14.576 119.259 14.048C119.499 13.512 119.831 13.048 120.255 12.656C120.679 12.256 121.179 11.948 121.755 11.732C122.339 11.516 122.971 11.408 123.651 11.408C124.339 11.408 124.971 11.516 125.547 11.732C126.123 11.948 126.623 12.256 127.047 12.656C127.471 13.048 127.799 13.512 128.031 14.048C128.271 14.576 128.391 15.16 128.391 15.8C128.391 16.432 128.271 17.016 128.031 17.552C127.799 18.088 127.471 18.556 127.047 18.956C126.623 19.348 126.123 19.652 125.547 19.868C124.971 20.084 124.343 20.192 123.663 20.192ZM123.651 17.9C123.915 17.9 124.159 17.852 124.383 17.756C124.615 17.66 124.815 17.524 124.983 17.348C125.159 17.164 125.295 16.944 125.391 16.688C125.487 16.424 125.535 16.128 125.535 15.8C125.535 15.472 125.487 15.18 125.391 14.924C125.295 14.66 125.159 14.44 124.983 14.264C124.815 14.08 124.615 13.94 124.383 13.844C124.159 13.748 123.915 13.7 123.651 13.7C123.387 13.7 123.139 13.748 122.907 13.844C122.683 13.94 122.483 14.08 122.307 14.264C122.139 14.44 122.007 14.66 121.911 14.924C121.815 15.18 121.767 15.472 121.767 15.8C121.767 16.128 121.815 16.424 121.911 16.688C122.007 16.944 122.139 17.164 122.307 17.348C122.483 17.524 122.683 17.66 122.907 17.756C123.139 17.852 123.387 17.9 123.651 17.9ZM129.418 20V11.6H133.462C134.246 11.6 134.922 11.728 135.49 11.984C136.066 12.24 136.51 12.608 136.822 13.088C137.134 13.56 137.29 14.12 137.29 14.768C137.29 15.416 137.134 15.976 136.822 16.448C136.51 16.92 136.066 17.288 135.49 17.552C134.922 17.808 134.246 17.936 133.462 17.936H130.99L132.25 16.724V20H129.418ZM132.25 17.036L130.99 15.752H133.282C133.674 15.752 133.962 15.664 134.146 15.488C134.338 15.312 134.434 15.072 134.434 14.768C134.434 14.464 134.338 14.224 134.146 14.048C133.962 13.872 133.674 13.784 133.282 13.784H130.99L132.25 12.5V17.036ZM138.219 20V11.6H142.263C143.047 11.6 143.723 11.728 144.291 11.984C144.867 12.24 145.311 12.608 145.623 13.088C145.935 13.56 146.091 14.12 146.091 14.768C146.091 15.416 145.935 15.976 145.623 16.448C145.311 16.92 144.867 17.288 144.291 17.552C143.723 17.808 143.047 17.936 142.263 17.936H139.791L141.051 16.724V20H138.219ZM141.051 17.036L139.791 15.752H142.083C142.475 15.752 142.763 15.664 142.947 15.488C143.139 15.312 143.235 15.072 143.235 14.768C143.235 14.464 143.139 14.224 142.947 14.048C142.763 13.872 142.475 13.784 142.083 13.784H139.791L141.051 12.5V17.036ZM151.553 20.192C150.865 20.192 150.229 20.084 149.645 19.868C149.069 19.652 148.569 19.348 148.145 18.956C147.721 18.556 147.389 18.088 147.149 17.552C146.917 17.016 146.801 16.432 146.801 15.8C146.801 15.16 146.917 14.576 147.149 14.048C147.389 13.512 147.721 13.048 148.145 12.656C148.569 12.256 149.069 11.948 149.645 11.732C150.229 11.516 150.861 11.408 151.541 11.408C152.229 11.408 152.861 11.516 153.437 11.732C154.013 11.948 154.513 12.256 154.937 12.656C155.361 13.048 155.689 13.512 155.921 14.048C156.161 14.576 156.281 15.16 156.281 15.8C156.281 16.432 156.161 17.016 155.921 17.552C155.689 18.088 155.361 18.556 154.937 18.956C154.513 19.348 154.013 19.652 153.437 19.868C152.861 20.084 152.233 20.192 151.553 20.192ZM151.541 17.9C151.805 17.9 152.049 17.852 152.273 17.756C152.505 17.66 152.705 17.524 152.873 17.348C153.049 17.164 153.185 16.944 153.281 16.688C153.377 16.424 153.425 16.128 153.425 15.8C153.425 15.472 153.377 15.18 153.281 14.924C153.185 14.66 153.049 14.44 152.873 14.264C152.705 14.08 152.505 13.94 152.273 13.844C152.049 13.748 151.805 13.7 151.541 13.7C151.277 13.7 151.029 13.748 150.797 13.844C150.573 13.94 150.373 14.08 150.197 14.264C150.029 14.44 149.897 14.66 149.801 14.924C149.705 15.18 149.657 15.472 149.657 15.8C149.657 16.128 149.705 16.424 149.801 16.688C149.897 16.944 150.029 17.164 150.197 17.348C150.373 17.524 150.573 17.66 150.797 17.756C151.029 17.852 151.277 17.9 151.541 17.9ZM157.309 20V11.6H161.353C162.137 11.6 162.813 11.728 163.381 11.984C163.957 12.24 164.401 12.608 164.713 13.088C165.025 13.56 165.181 14.12 165.181 14.768C165.181 15.416 165.025 15.976 164.713 16.448C164.401 16.912 163.957 17.268 163.381 17.516C162.813 17.764 162.137 17.888 161.353 17.888H158.881L160.141 16.724V20H157.309ZM162.337 20L160.273 16.94H163.273L165.361 20H162.337ZM160.141 17.036L158.881 15.752H161.173C161.565 15.752 161.853 15.664 162.037 15.488C162.229 15.312 162.325 15.072 162.325 14.768C162.325 14.464 162.229 14.224 162.037 14.048C161.853 13.872 161.565 13.784 161.173 13.784H158.881L160.141 12.5V17.036ZM167.957 20V13.796H165.497V11.6H173.249V13.796H170.789V20H167.957ZM177.888 20.192C176.6 20.192 175.596 19.844 174.876 19.148C174.156 18.452 173.796 17.476 173.796 16.22V11.6H176.628V16.136C176.628 16.776 176.744 17.232 176.976 17.504C177.208 17.768 177.52 17.9 177.912 17.9C178.312 17.9 178.624 17.768 178.848 17.504C179.08 17.232 179.196 16.776 179.196 16.136V11.6H181.98V16.22C181.98 17.476 181.62 18.452 180.9 19.148C180.18 19.844 179.176 20.192 177.888 20.192ZM183.278 20V11.6H185.606L189.878 16.712H188.798V11.6H191.558V20H189.23L184.958 14.888H186.038V20H183.278ZM192.922 20V11.6H195.754V20H192.922ZM198.942 20V13.796H196.482V11.6H204.234V13.796H201.774V20H198.942ZM204.969 20V11.6H207.801V20H204.969ZM211.756 14.72H215.5V16.76H211.756V14.72ZM211.948 17.864H216.148V20H209.164V11.6H215.992V13.736H211.948V17.864ZM220.371 20.192C219.667 20.192 218.987 20.112 218.331 19.952C217.675 19.792 217.135 19.584 216.711 19.328L217.623 17.264C218.023 17.496 218.467 17.684 218.955 17.828C219.451 17.964 219.931 18.032 220.395 18.032C220.667 18.032 220.879 18.016 221.031 17.984C221.191 17.944 221.307 17.892 221.379 17.828C221.451 17.756 221.487 17.672 221.487 17.576C221.487 17.424 221.403 17.304 221.235 17.216C221.067 17.128 220.843 17.056 220.563 17C220.291 16.936 219.991 16.872 219.663 16.808C219.335 16.736 219.003 16.644 218.667 16.532C218.339 16.42 218.035 16.272 217.755 16.088C217.483 15.904 217.263 15.664 217.095 15.368C216.927 15.064 216.843 14.688 216.843 14.24C216.843 13.72 216.987 13.248 217.275 12.824C217.571 12.392 218.007 12.048 218.583 11.792C219.167 11.536 219.891 11.408 220.755 11.408C221.323 11.408 221.883 11.468 222.435 11.588C222.987 11.708 223.483 11.892 223.923 12.14L223.071 14.192C222.655 13.984 222.251 13.828 221.859 13.724C221.475 13.62 221.099 13.568 220.731 13.568C220.459 13.568 220.243 13.592 220.083 13.64C219.923 13.688 219.807 13.752 219.735 13.832C219.671 13.912 219.639 14 219.639 14.096C219.639 14.24 219.723 14.356 219.891 14.444C220.059 14.524 220.279 14.592 220.551 14.648C220.831 14.704 221.135 14.764 221.463 14.828C221.799 14.892 222.131 14.98 222.459 15.092C222.787 15.204 223.087 15.352 223.359 15.536C223.639 15.72 223.863 15.96 224.031 16.256C224.199 16.552 224.283 16.92 224.283 17.36C224.283 17.872 224.135 18.344 223.839 18.776C223.551 19.2 223.119 19.544 222.543 19.808C221.967 20.064 221.243 20.192 220.371 20.192Z" fill="#EDD7B8"/>
<line x1="-8.74228e-08" y1="1" x2="321" y2="0.999972" stroke="#392C1D" stroke-width="2"/>
</svg>
