<svg width="152" height="149" viewBox="0 0 152 149" fill="none" xmlns="http://www.w3.org/2000/svg">
  <path fill-rule="evenodd" clip-rule="evenodd" d="M86.1444 0H68.8561L72.6287 56.3189L47.7363 5.65886L32.7642 14.303L64.1892 61.1879L17.3036 29.7625L8.65948 44.7346L59.3221 69.6283L3 65.8555L3 83.1438L59.3166 79.3714L8.65914 104.263L17.3033 119.235L64.1927 87.8066L32.7643 134.697L47.7364 143.341L72.6287 92.681L68.8561 149H86.1444L82.3718 92.6808L107.264 143.341L122.236 134.697L90.8079 87.8067L137.697 119.235L146.341 104.263L95.684 79.3715L152 83.1438V65.8555L95.6785 69.6283L146.341 44.7346L137.697 29.7625L90.8115 61.1879L122.236 14.303L107.264 5.6589L82.3718 56.319L86.1444 0Z" fill="url(#paint0_radial_45_6105)"/>
  <g filter="url(#filter0_i_45_6105)">
    <ellipse cx="104.322" cy="84.9219" rx="40" ry="28" fill="#FBBF24"/>
  </g>
  <path d="M143.822 84.9219C143.822 92.4459 139.466 99.3088 132.32 104.311C125.175 109.313 115.278 112.422 104.322 112.422C93.3666 112.422 83.4695 109.313 76.3247 104.311C69.1784 99.3088 64.8223 92.4459 64.8223 84.9219C64.8223 77.3978 69.1784 70.535 76.3247 65.5325C83.4695 60.5312 93.3666 57.4219 104.322 57.4219C115.278 57.4219 125.175 60.5312 132.32 65.5325C139.466 70.535 143.822 77.3978 143.822 84.9219Z" stroke="black"/>
  <path opacity="0.6" d="M71.3809 82.4883C71.773 87.9665 76.0867 98.3144 97.2632 101.358M109.616 101.358C111.577 101.358 116.44 101.114 120.204 100.14" stroke="white" stroke-width="4" stroke-linecap="round"/>
  <path d="M121.6 80.9156C123.589 82.2569 124.006 83.7148 122.851 85.2896C121.696 86.8645 119.405 87.8974 115.977 88.3886C114.338 88.6234 112.666 88.6325 110.961 88.4162C109.256 88.1998 107.858 87.7902 106.768 87.1876C102.814 88.0793 99.0995 88.0358 95.6239 87.0567C92.1483 86.0774 90.0598 84.4864 89.3583 82.2832C87.6284 82.0703 86.1581 81.6508 84.9474 81.0248C83.7368 80.3987 82.8636 79.6091 82.3279 78.656C81.468 77.1259 82.1522 75.6931 84.3806 74.3575C86.609 73.0218 89.1946 72.4413 92.1376 72.6158L97.3072 72.9321C97.8637 72.0122 98.8242 71.1902 100.189 70.4662C101.553 69.7422 103.165 69.2199 105.024 68.8993L103.925 66.9428C103.742 66.6167 103.801 66.3168 104.104 66.0431C104.406 65.7694 104.88 65.5863 105.526 65.4938C106.172 65.4012 106.766 65.4313 107.308 65.584C107.85 65.7367 108.212 65.9761 108.396 66.3022L109.664 68.5596C111.657 68.5722 113.416 68.7878 114.939 69.2064C116.463 69.625 117.943 70.3005 119.38 71.233L123.701 70.6138C124.347 70.5212 124.941 70.5513 125.483 70.704C126.025 70.8567 126.387 71.0961 126.571 71.4222C126.754 71.7483 126.695 72.0481 126.392 72.3219C126.09 72.5956 125.616 72.7787 124.97 72.8712L121.095 73.4264C121.531 74.3938 121.523 75.3572 121.069 76.3166C120.615 77.276 119.759 78.1169 118.501 78.8392L121.6 80.9156ZM103.629 84.4663C103.248 83.7892 102.99 83.1149 102.854 82.4431C102.718 81.7715 102.704 81.1027 102.813 80.4366C101.826 80.8762 100.705 81.2468 99.4523 81.5483C98.1994 81.8498 96.913 82.068 95.5932 82.2029C96.143 83.1811 97.1353 83.8722 98.5702 84.2765C100.005 84.6808 101.691 84.7441 103.629 84.4663ZM94.6468 79.0862C96.2364 78.8584 97.5834 78.557 98.6876 78.1819C99.7919 77.8069 101.144 77.1796 102.743 76.3L92.7437 75.7C91.134 75.6054 89.908 75.7879 89.0659 76.2473C88.2237 76.7068 87.993 77.2751 88.3736 77.9523C88.7401 78.6045 89.4302 79.0206 90.4438 79.2005C91.4575 79.3805 92.8584 79.3424 94.6468 79.0862ZM114.286 85.3785C115.528 85.2008 116.41 84.8371 116.934 84.2879C117.457 83.7385 117.386 83.254 116.721 82.8345L109.821 78.2941C109.329 79.232 109.047 80.1396 108.976 81.017C108.906 81.8944 109.054 82.6592 109.421 83.3112C109.886 84.1391 110.527 84.7315 111.345 85.0885C112.163 85.4456 113.143 85.5423 114.286 85.3785ZM114.51 76.3214C114.865 75.9994 115.076 75.6101 115.142 75.1535C115.207 74.697 115.113 74.2429 114.859 73.7914C114.408 72.9888 113.506 72.3863 112.153 71.984C110.799 71.5816 109.353 71.4908 107.813 71.7114C106.918 71.8395 106.116 72.0358 105.406 72.3002C104.696 72.5646 104.145 72.8738 103.754 73.228L110.327 73.7497L114.51 76.3214Z" fill="#78350F"/>
  <g filter="url(#filter1_i_45_6105)">
    <ellipse cx="47.8692" cy="77.62" rx="40" ry="28" transform="rotate(-23.629 47.8692 77.62)" fill="#FBBF24"/>
  </g>
  <path d="M84.0575 61.7879C87.0732 68.6811 85.8331 76.7146 81.2909 84.162C76.7497 91.6078 68.9287 98.4232 58.8915 102.814C48.8543 107.206 38.5408 108.324 29.9904 106.606C21.4382 104.887 14.6966 100.345 11.6808 93.4521C8.66509 86.5588 9.90525 78.5254 14.4474 71.078C18.9886 63.6322 26.8096 56.8168 36.8468 52.4256C46.884 48.0344 57.1975 46.9161 65.7479 48.6345C74.3001 50.3532 81.0417 54.8947 84.0575 61.7879Z" stroke="black"/>
  <path opacity="0.6" d="M16.7139 88.5938C19.2689 93.4555 27.3685 101.207 47.9894 95.5073M59.3067 90.5561C61.1031 89.7702 65.4605 87.5981 68.5192 85.1969" stroke="white" stroke-width="4" stroke-linecap="round"/>
  <path d="M62.0931 67.024C64.4527 67.4557 65.4187 68.6244 64.9921 70.53C64.5655 72.4356 62.8806 74.3002 59.937 76.1242C58.5294 76.9962 57.001 77.6749 55.3522 78.16C53.7033 78.6452 52.2587 78.8301 51.0184 78.715C47.7533 81.1167 44.3326 82.5658 40.756 83.0619C37.1793 83.5578 34.6282 82.9372 33.1024 81.1999C31.4322 81.6982 29.9171 81.9032 28.557 81.8149C27.1969 81.7266 26.0804 81.3532 25.2076 80.6947C23.8066 79.6376 23.8591 78.0506 25.3653 75.9338C26.8715 73.8169 29.0077 72.2487 31.7739 71.2291L36.6369 69.4468C36.778 68.3809 37.3285 67.2429 38.2883 66.0327C39.2482 64.8226 40.5156 63.698 42.0907 62.6589L40.2992 61.3072C40.0006 61.0819 39.935 60.7832 40.1023 60.4113C40.2697 60.0393 40.6306 59.6815 41.1852 59.3379C41.7398 58.9943 42.2959 58.7838 42.8538 58.7064C43.4116 58.6291 43.8398 58.703 44.1384 58.9283L46.2055 60.488C48.0365 59.7006 49.7338 59.1934 51.2973 58.9663C52.861 58.7391 54.4876 58.7649 56.1776 59.0433L59.8885 56.7439C60.4434 56.4001 60.9993 56.1898 61.5574 56.1123C62.1151 56.035 62.5432 56.109 62.8417 56.3343C63.1407 56.5594 63.2061 56.8581 63.0389 57.23C62.8712 57.6021 62.5103 57.9599 61.9559 58.3035L58.6286 60.3651C59.416 61.0766 59.7942 61.9626 59.7629 63.0235C59.7316 64.0845 59.2847 65.1978 58.4213 66.3639L62.0931 67.024ZM47.0513 77.4803C46.4312 77.0124 45.9243 76.4982 45.5306 75.9373C45.1368 75.3764 44.8563 74.7691 44.689 74.1153C43.9605 74.9138 43.0827 75.7023 42.0556 76.4808C41.0285 77.2592 39.9375 77.9747 38.7824 78.6273C39.6782 79.3031 40.8644 79.5386 42.341 79.3338C43.8176 79.1291 45.3877 78.5113 47.0513 77.4803ZM36.6661 76.1512C38.0312 75.3054 39.1444 74.4894 40.0058 73.7032C40.8672 72.9169 41.8541 71.8005 42.9665 70.3537L33.5654 73.8117C32.0527 74.3703 31.0026 75.0288 30.4153 75.7873C29.8279 76.5457 29.8443 77.1589 30.4644 77.6268C31.0616 78.0774 31.8606 78.182 32.8614 77.9406C33.8622 77.6992 35.1304 77.1028 36.6661 76.1512ZM57.1808 74.0444C58.2473 73.3838 58.91 72.6969 59.1693 71.984C59.4284 71.2709 59.1694 70.8555 58.3917 70.7378L50.251 69.3434C50.1754 70.4002 50.2812 71.3446 50.5683 72.1767C50.8554 73.0087 51.2975 73.6501 51.8947 74.1006C52.6527 74.6726 53.4779 74.9582 54.3704 74.9573C55.2629 74.9567 56.1997 74.6523 57.1808 74.0444ZM53.7556 65.6569C53.9525 65.2193 53.9894 64.7783 53.8664 64.3337C53.7433 63.8892 53.4751 63.511 53.0617 63.199C52.3267 62.6445 51.2587 62.4541 49.8575 62.6279C48.4564 62.8017 47.0946 63.2983 45.7723 64.1177C45.0044 64.5935 44.3481 65.0948 43.8034 65.6217C43.2587 66.1486 42.878 66.6527 42.6615 67.1341L48.8927 64.9774L53.7556 65.6569Z" fill="#78350F"/>
  <defs>
    <filter id="filter0_i_45_6105" x="64.3223" y="56.9219" width="80" height="56" filterUnits="userSpaceOnUse" color-interpolation-filters="sRGB">
      <feFlood flood-opacity="0" result="BackgroundImageFix"/>
      <feBlend mode="normal" in="SourceGraphic" in2="BackgroundImageFix" result="shape"/>
      <feColorMatrix in="SourceAlpha" type="matrix" values="0 0 0 0 0 0 0 0 0 0 0 0 0 0 0 0 0 0 127 0" result="hardAlpha"/>
      <feOffset dy="-6"/>
      <feComposite in2="hardAlpha" operator="arithmetic" k2="-1" k3="1"/>
      <feColorMatrix type="matrix" values="0 0 0 0 0 0 0 0 0 0 0 0 0 0 0 0 0 0 0.25 0"/>
      <feBlend mode="normal" in2="shape" result="effect1_innerShadow_45_6105"/>
    </filter>
    <filter id="filter1_i_45_6105" x="9.53223" y="47.3657" width="76.6738" height="60.5088" filterUnits="userSpaceOnUse" color-interpolation-filters="sRGB">
      <feFlood flood-opacity="0" result="BackgroundImageFix"/>
      <feBlend mode="normal" in="SourceGraphic" in2="BackgroundImageFix" result="shape"/>
      <feColorMatrix in="SourceAlpha" type="matrix" values="0 0 0 0 0 0 0 0 0 0 0 0 0 0 0 0 0 0 127 0" result="hardAlpha"/>
      <feOffset dy="-6"/>
      <feComposite in2="hardAlpha" operator="arithmetic" k2="-1" k3="1"/>
      <feColorMatrix type="matrix" values="0 0 0 0 0 0 0 0 0 0 0 0 0 0 0 0 0 0 0.25 0"/>
      <feBlend mode="normal" in2="shape" result="effect1_innerShadow_45_6105"/>
    </filter>
    <radialGradient id="paint0_radial_45_6105" cx="0" cy="0" r="1" gradientUnits="userSpaceOnUse" gradientTransform="translate(77.5 74.5) rotate(90) scale(74.5)">
      <stop stop-color="white" stop-opacity="0.6"/>
      <stop offset="1" stop-color="white" stop-opacity="0"/>
    </radialGradient>
  </defs>
</svg>
