<svg width="150" height="149" viewBox="0 0 150 149" fill="none" xmlns="http://www.w3.org/2000/svg">
  <path fill-rule="evenodd" clip-rule="evenodd" d="M83.1444 0H65.8561L69.6287 56.3189L44.7363 5.65886L29.7642 14.303L61.1892 61.1879L14.3036 29.7625L5.65948 44.7346L56.3221 69.6283L7.55695e-07 65.8555L0 83.1438L56.3166 79.3714L5.65914 104.263L14.3033 119.235L61.1927 87.8066L29.7643 134.697L44.7364 143.341L69.6287 92.681L65.8561 149H83.1444L79.3718 92.6808L104.264 143.341L119.236 134.697L87.8079 87.8067L134.697 119.235L143.341 104.263L92.684 79.3715L149 83.1438V65.8555L92.6785 69.6283L143.341 44.7346L134.697 29.7625L87.8115 61.1879L119.236 14.303L104.264 5.6589L79.3718 56.319L83.1444 0Z" fill="url(#paint0_radial_45_6106)"/>
  <g filter="url(#filter0_i_45_6106)">
    <ellipse cx="48.1899" cy="85.8386" rx="40" ry="28" transform="rotate(3.25399 48.1899 85.8386)" fill="#78350F"/>
  </g>
  <path d="M87.6262 88.0807C87.1991 95.5927 82.4605 102.197 75.0417 106.786C67.6246 111.374 57.567 113.916 46.629 113.294C35.6909 112.672 25.9863 109.006 19.1369 103.608C12.286 98.2075 8.32652 91.1084 8.7536 83.5965C9.18068 76.0846 13.9193 69.4801 21.3381 64.8913C28.7553 60.3036 38.8129 57.7611 49.7509 58.383C60.6889 59.0048 70.3935 62.6709 77.2429 68.0697C84.0938 73.4698 88.0533 80.5688 87.6262 88.0807Z" stroke="black"/>
  <path opacity="0.6" d="M15.4404 81.5371C15.521 87.0288 19.2404 97.6048 40.21 101.845M52.543 102.547C54.5006 102.658 59.3693 102.691 63.1833 101.932" stroke="white" stroke-width="4" stroke-linecap="round"/>
  <path fill-rule="evenodd" clip-rule="evenodd" d="M27.2749 70.1024C28.4079 68.5452 30.5346 67.7058 32.7521 67.3063C35.008 66.8998 37.2677 66.9663 38.4759 67.1727C39.0291 67.2672 39.5932 67.4426 40.2708 67.697C40.5833 67.8143 40.9025 67.9415 41.2517 68.0806L41.3365 68.1145C41.7136 68.2647 42.1207 68.4261 42.5549 68.5874C44.3211 69.2432 46.5421 69.8971 49.7363 70.0787C53.552 70.2956 56.1488 69.7349 58.2238 69.2304L58.581 69.1434C60.5121 68.672 61.7133 68.3787 63.2059 68.5849C65.0383 68.838 67.2964 69.4972 69.0559 70.4701C70.8003 71.4345 71.9786 72.6602 71.8982 74.0753C71.795 75.8898 70.5166 77.1728 69.4478 77.8755C68.6791 78.381 68.2118 79.0997 68.4437 79.86C69.1245 82.092 68.8017 85.2583 66.0158 87.7061C63.2891 90.1019 58.0806 91.9178 48.5256 91.3746C38.6704 90.8143 33.3885 88.5734 30.7486 85.9508C28.062 83.2818 27.9498 80.0601 29.0085 77.4279C29.254 76.8172 28.9868 76.1864 28.435 75.6717C27.1049 74.4312 25.7267 72.23 27.2749 70.1024ZM39.0103 65.8983C37.3008 65.6063 34.5593 65.5547 31.9041 66.0331C29.2106 66.5185 26.5165 67.5671 25.0929 69.5236C23.1528 72.1901 24.9083 74.8692 26.449 76.3061C26.7182 76.5572 26.805 76.8244 26.715 77.0484C25.5797 79.8713 25.628 83.4723 28.7267 86.5506C31.872 89.6754 38.0002 92.1068 48.4502 92.7009C58.723 93.2849 64.7859 91.32 68.0162 88.4817C71.1874 85.6953 71.5074 82.1743 70.759 79.7208C70.6655 79.4142 70.8475 79.0638 71.2717 78.7849C72.6075 77.9066 74.1249 76.3609 74.2473 74.2088C74.3554 72.3082 72.748 70.7144 70.6366 69.547C68.5403 68.388 65.8725 67.603 63.6127 67.2908C61.3195 66.974 59.4194 67.4446 57.6682 67.8783C57.5029 67.9193 57.3389 67.9599 57.176 67.9995C55.2183 68.4754 53.0435 68.9361 49.8117 68.7524C47.1333 68.6001 45.2976 68.0631 43.7459 67.487C43.3507 67.3402 42.9744 67.1911 42.5975 67.0409L42.5073 67.005C42.1649 66.8685 41.8167 66.7297 41.4725 66.6006C40.7259 66.3203 39.9158 66.053 39.0103 65.8983ZM41.2074 83.1095L41.2074 83.1095C42.2458 83.2355 43.1321 83.343 43.6186 83.3707C44.9319 83.4453 44.9252 81.1164 41.4185 80.6159C39.2219 80.3024 37.9527 80.792 37.2717 81.4054C36.6019 82.0086 37.6424 82.7041 38.9308 82.8435C39.7073 82.9276 40.4924 83.0228 41.2058 83.1093L41.2065 83.1094L41.2069 83.1095L41.2071 83.1095L41.2074 83.1095ZM56.2046 83.9632L56.2046 83.9632L56.2049 83.9632L56.2055 83.9632L56.2066 83.9632C56.9251 83.9581 57.7158 83.9525 58.4967 83.957C59.7926 83.9645 60.9052 83.3914 60.3081 82.7161C59.701 82.0295 58.4954 81.3992 56.2775 81.4618C52.7367 81.5616 52.4661 83.8747 53.7793 83.9494C54.2658 83.9771 55.1586 83.9707 56.2046 83.9632ZM35.3322 73.4005L35.3322 73.4005C34.3026 73.8236 33.4239 74.1848 32.9066 74.3478C31.5104 74.7876 28.9256 72.1623 32.3186 70.6486C34.703 69.5849 36.8977 69.9759 38.3746 70.6115C39.4419 71.0708 39.1193 71.9032 38.0768 72.3004C37.1383 72.6581 36.1837 73.0505 35.3322 73.4004L35.3322 73.4004L35.3322 73.4005ZM64.3498 76.1385C63.8543 75.918 63.0221 75.4595 62.0472 74.9223C61.2409 74.4781 60.3369 73.9801 59.445 73.5184C58.4542 73.0055 58.228 72.1419 59.3405 71.8065C60.8799 71.3424 63.1048 71.2027 65.3532 72.5298C68.5528 74.4183 65.6871 76.7337 64.3498 76.1385ZM48.336 83.3042C49.623 83.3774 50.4911 83.5598 51.0432 83.7481C51.6353 83.95 51.6839 84.3683 51.3022 84.6661C50.6604 85.1668 49.5842 85.7037 48.2041 85.6252C46.8239 85.5467 45.8155 84.8914 45.2346 84.3211C44.8891 83.982 44.9848 83.5718 45.596 83.4384C46.1659 83.3139 47.0491 83.231 48.336 83.3042Z" fill="white"/>
  <g filter="url(#filter1_i_45_6106)">
    <ellipse cx="100.561" cy="77.8908" rx="40" ry="28" transform="rotate(29.0242 100.561 77.8908)" fill="#78350F"/>
  </g>
  <path d="M135.101 97.0554C131.45 103.635 124.312 107.522 115.636 108.429C106.962 109.336 96.7989 107.253 87.2191 101.937C77.6392 96.6217 70.4937 89.1011 66.6727 81.2613C62.8509 73.4198 62.3716 65.3053 66.0221 58.7262C69.6726 52.1471 76.8114 48.2596 85.4873 47.3526C94.1614 46.4459 104.324 48.5289 113.904 53.8444C123.484 59.1599 130.629 66.6805 134.45 74.5203C138.272 82.3618 138.751 90.4762 135.101 97.0554Z" stroke="black"/>
  <path opacity="0.6" d="M72.9395 59.7788C70.6244 64.7593 69.3759 75.9006 86.4162 88.8362M97.2178 94.8296C98.9324 95.7809 103.303 97.9273 107.067 98.9023" stroke="white" stroke-width="4" stroke-linecap="round"/>
  <path fill-rule="evenodd" clip-rule="evenodd" d="M88.5684 54.6264C90.2658 53.7167 92.5459 53.8854 94.7165 54.4897C96.9248 55.1044 98.9309 56.1468 99.9291 56.8579C100.386 57.1835 100.818 57.5867 101.318 58.1104C101.548 58.3519 101.78 58.6052 102.034 58.8823L102.096 58.9497C102.37 59.2489 102.666 59.5713 102.987 59.9053C104.293 61.2637 106.009 62.8182 108.806 64.3705C112.148 66.2248 114.73 66.8488 116.818 67.2967L117.178 67.3735C119.122 67.7886 120.331 68.0468 121.586 68.8813C123.126 69.906 124.873 71.4814 126.034 73.1224C127.186 74.7493 127.714 76.3654 127.026 77.6047C126.145 79.194 124.436 79.7936 123.167 79.9617C122.256 80.0827 121.522 80.5268 121.401 81.3123C121.043 83.6183 119.376 86.3294 115.803 87.3225C112.306 88.2945 106.826 87.6654 98.4572 83.022C89.8258 78.2327 86.0435 73.9184 84.8063 70.4089C83.5473 66.8372 84.847 63.8873 86.9447 61.9771C87.4314 61.5339 87.465 60.8496 87.1918 60.1462C86.5333 58.4508 86.2492 55.8694 88.5684 54.6264ZM100.964 55.9425C99.5519 54.9364 97.1055 53.698 94.5064 52.9745C91.8697 52.2405 88.9878 52.0135 86.8551 53.1566C83.9486 54.7143 84.3648 57.8903 85.1275 59.8541C85.2608 60.1973 85.2228 60.4756 85.0443 60.6382C82.7946 62.6867 81.2726 65.9506 82.7247 70.07C84.1987 74.2515 88.6604 79.1053 97.8127 84.1836C106.81 89.1758 113.124 90.0422 117.267 88.8906C121.334 87.7601 123.153 84.7284 123.546 82.1935C123.595 81.8768 123.911 81.6404 124.415 81.5736C125.999 81.3634 128.038 80.6312 129.084 78.7463C130.008 77.0817 129.253 74.9476 127.859 72.9784C126.475 71.0232 124.414 69.1564 122.515 67.8928C120.587 66.6106 118.672 66.2082 116.906 65.8374C116.739 65.8024 116.574 65.7677 116.41 65.7326C114.44 65.31 112.281 64.7794 109.451 63.2089C107.105 61.9073 105.685 60.6256 104.538 59.4321C104.246 59.1281 103.972 58.8302 103.698 58.5312L103.633 58.4596C103.384 58.1878 103.13 57.9114 102.877 57.6455C102.326 57.0685 101.713 56.4756 100.964 55.9425ZM95.4602 72.3973L95.4603 72.3973C96.3406 72.9622 97.092 73.4443 97.5181 73.6808C98.6683 74.3189 99.6748 72.2188 96.7345 70.2435C94.8927 69.0061 93.5368 68.8952 92.6569 69.1515C91.7914 69.4036 92.4261 70.4823 93.5257 71.168C94.1885 71.5812 94.8541 72.0083 95.4589 72.3964L95.4595 72.3968L95.4599 72.397L95.46 72.3971L95.4602 72.3973ZM108.595 79.6863L108.595 79.6863L108.595 79.6865L108.596 79.6867L108.597 79.6872C109.246 79.9949 109.96 80.3337 110.662 80.6772C111.825 81.2474 113.076 81.215 112.832 80.3473C112.584 79.465 111.772 78.3733 109.748 77.4653C106.516 76.0158 105.267 77.9813 106.417 78.6194C106.843 78.8559 107.65 79.2383 108.595 79.6863ZM94.3905 61.0995L94.3905 61.0995C93.2794 61.033 92.331 60.9762 91.7943 60.8981C90.3457 60.6871 89.1593 57.1991 92.8731 57.3112C95.4827 57.3899 97.2892 58.6962 98.3429 59.9106C99.1044 60.7883 98.4519 61.3976 97.3404 61.3021C96.3397 61.2162 95.3095 61.1545 94.3905 61.0995L94.3905 61.0995L94.3905 61.0995ZM119.332 76.181C118.981 75.767 118.431 74.9923 117.787 74.0847C117.254 73.3341 116.656 72.4926 116.054 71.689C115.385 70.7964 115.556 69.9204 116.704 70.102C118.292 70.3534 120.356 71.1949 121.804 73.3675C123.865 76.4593 120.277 77.2985 119.332 76.181ZM101.795 75.6719C102.922 76.2973 103.625 76.839 104.04 77.2485C104.486 77.6878 104.348 78.0857 103.874 78.1879C103.079 78.3598 101.876 78.3754 100.667 77.7047C99.4585 77.034 98.8353 76.0054 98.5601 75.2392C98.3965 74.7837 98.6609 74.4559 99.2694 74.6014C99.8367 74.7371 100.668 75.0465 101.795 75.6719Z" fill="white"/>
  <defs>
    <filter id="filter0_i_45_6106" x="8.22266" y="57.79" width="79.9346" height="56.0972" filterUnits="userSpaceOnUse" color-interpolation-filters="sRGB">
      <feFlood flood-opacity="0" result="BackgroundImageFix"/>
      <feBlend mode="normal" in="SourceGraphic" in2="BackgroundImageFix" result="shape"/>
      <feColorMatrix in="SourceAlpha" type="matrix" values="0 0 0 0 0 0 0 0 0 0 0 0 0 0 0 0 0 0 127 0" result="hardAlpha"/>
      <feOffset dy="-6"/>
      <feComposite in2="hardAlpha" operator="arithmetic" k2="-1" k3="1"/>
      <feColorMatrix type="matrix" values="0 0 0 0 0 0 0 0 0 0 0 0 0 0 0 0 0 0 0.25 0"/>
      <feBlend mode="normal" in2="shape" result="effect1_innerShadow_45_6106"/>
    </filter>
    <filter id="filter1_i_45_6106" x="63.0293" y="46.647" width="75.0645" height="62.4873" filterUnits="userSpaceOnUse" color-interpolation-filters="sRGB">
      <feFlood flood-opacity="0" result="BackgroundImageFix"/>
      <feBlend mode="normal" in="SourceGraphic" in2="BackgroundImageFix" result="shape"/>
      <feColorMatrix in="SourceAlpha" type="matrix" values="0 0 0 0 0 0 0 0 0 0 0 0 0 0 0 0 0 0 127 0" result="hardAlpha"/>
      <feOffset dy="-6"/>
      <feComposite in2="hardAlpha" operator="arithmetic" k2="-1" k3="1"/>
      <feColorMatrix type="matrix" values="0 0 0 0 0 0 0 0 0 0 0 0 0 0 0 0 0 0 0.25 0"/>
      <feBlend mode="normal" in2="shape" result="effect1_innerShadow_45_6106"/>
    </filter>
    <radialGradient id="paint0_radial_45_6106" cx="0" cy="0" r="1" gradientUnits="userSpaceOnUse" gradientTransform="translate(74.5 74.5) rotate(90) scale(74.5)">
      <stop stop-color="white" stop-opacity="0.6"/>
      <stop offset="1" stop-color="white" stop-opacity="0"/>
    </radialGradient>
  </defs>
</svg>
