<svg width="152" height="149" viewBox="0 0 152 149" fill="none" xmlns="http://www.w3.org/2000/svg">
  <path fill-rule="evenodd" clip-rule="evenodd" d="M84.1444 0H66.8561L70.6287 56.3189L45.7363 5.65886L30.7642 14.303L62.1892 61.1879L15.3036 29.7625L6.65948 44.7346L57.3221 69.6283L1 65.8555L1 83.1438L57.3166 79.3714L6.65914 104.263L15.3033 119.235L62.1927 87.8066L30.7643 134.697L45.7364 143.341L70.6287 92.681L66.8561 149H84.1444L80.3718 92.6808L105.264 143.341L120.236 134.697L88.8079 87.8067L135.697 119.235L144.341 104.263L93.684 79.3715L150 83.1438V65.8555L93.6785 69.6283L144.341 44.7346L135.697 29.7625L88.8115 61.1879L120.236 14.303L105.264 5.6589L80.3718 56.319L84.1444 0Z" fill="url(#paint0_radial_45_6109)"/>
  <g filter="url(#filter0_di_45_6109)">
    <mask id="path-2-outside-1_45_6109" maskUnits="userSpaceOnUse" x="4" y="34" width="144" height="75" fill="black">
      <rect fill="white" x="4" y="34" width="144" height="75"/>
      <path fill-rule="evenodd" clip-rule="evenodd" d="M68.3147 89.4407C65.3646 91.5116 62.0973 93.3592 58.5593 94.907C38.32 103.762 16.8883 99.4545 10.6901 85.287C4.49196 71.1195 15.8745 52.4565 36.1138 43.602C55.9214 34.9363 76.8713 38.8768 83.5658 52.3292C89.4996 49.8903 96.4113 48.4919 103.79 48.4919C125.881 48.4919 143.79 61.028 143.79 76.4919C143.79 91.9559 125.881 104.492 103.79 104.492C88.3722 104.492 74.9921 98.3862 68.3147 89.4407Z"/>
    </mask>
    <path fill-rule="evenodd" clip-rule="evenodd" d="M68.3147 89.4407C65.3646 91.5116 62.0973 93.3592 58.5593 94.907C38.32 103.762 16.8883 99.4545 10.6901 85.287C4.49196 71.1195 15.8745 52.4565 36.1138 43.602C55.9214 34.9363 76.8713 38.8768 83.5658 52.3292C89.4996 49.8903 96.4113 48.4919 103.79 48.4919C125.881 48.4919 143.79 61.028 143.79 76.4919C143.79 91.9559 125.881 104.492 103.79 104.492C88.3722 104.492 74.9921 98.3862 68.3147 89.4407Z" fill="white"/>
    <path d="M68.3147 89.4407L71.5202 87.048L69.1963 83.9347L66.0165 86.1668L68.3147 89.4407ZM58.5593 94.907L56.956 91.2424L56.956 91.2424L58.5593 94.907ZM36.1138 43.602L37.717 47.2667L37.717 47.2667L36.1138 43.602ZM83.5658 52.3292L79.9847 54.1113L81.6432 57.444L85.0864 56.0289L83.5658 52.3292ZM66.0165 86.1668C63.2867 88.0831 60.2524 89.8002 56.956 91.2424L60.1625 98.5716C63.9421 96.9181 67.4425 94.9401 70.6129 92.7146L66.0165 86.1668ZM56.956 91.2424C47.4961 95.381 37.9121 96.3691 30.1474 94.8087C22.3676 93.2452 16.7871 89.2435 14.3548 83.6838L7.02547 86.8903C10.7913 95.498 19.0257 100.734 28.5712 102.652C38.1317 104.573 49.3832 103.288 60.1625 98.5716L56.956 91.2424ZM14.3548 83.6838C11.9224 78.1241 12.771 71.3097 16.9029 64.5349C21.0268 57.7734 28.2571 51.4053 37.717 47.2667L34.5105 39.9374C23.7312 44.6532 15.1506 52.0439 10.073 60.3694C5.00331 68.6816 3.25965 78.2825 7.02547 86.8903L14.3548 83.6838ZM37.717 47.2667C46.9732 43.2172 56.3519 42.1828 64.0288 43.6045C71.7278 45.0303 77.3515 48.82 79.9847 54.1113L87.1469 50.5471C83.0855 42.386 74.8871 37.4793 65.4856 35.7382C56.062 33.993 45.062 35.3212 34.5105 39.9374L37.717 47.2667ZM85.0864 56.0289C90.5159 53.7973 96.9088 52.4919 103.79 52.4919V44.4919C95.9138 44.4919 88.4832 45.9834 82.0452 48.6295L85.0864 56.0289ZM103.79 52.4919C114.115 52.4919 123.292 55.4281 129.78 59.9699C136.281 64.5205 139.79 70.4235 139.79 76.4919H147.79C147.79 67.0965 142.344 58.9994 134.368 53.416C126.379 47.8238 115.555 44.4919 103.79 44.4919V52.4919ZM139.79 76.4919C139.79 82.5604 136.281 88.4634 129.78 93.014C123.292 97.5558 114.115 100.492 103.79 100.492V108.492C115.555 108.492 126.379 105.16 134.368 99.5679C142.344 93.9845 147.79 85.8874 147.79 76.4919H139.79ZM103.79 100.492C89.2811 100.492 77.2535 94.7289 71.5202 87.048L65.1093 91.8334C72.7306 102.044 87.4633 108.492 103.79 108.492V100.492Z" fill="white" mask="url(#path-2-outside-1_45_6109)"/>
  </g>
  <g filter="url(#filter1_i_45_6109)">
    <ellipse cx="104.322" cy="76.9224" rx="40" ry="28" fill="#FBBF24"/>
  </g>
  <path d="M143.822 76.9224C143.822 84.4464 139.466 91.3093 132.32 96.3117C125.175 101.313 115.278 104.422 104.322 104.422C93.3666 104.422 83.4695 101.313 76.3247 96.3117C69.1784 91.3093 64.8223 84.4464 64.8223 76.9224C64.8223 69.3983 69.1784 62.5354 76.3247 57.533C83.4695 52.5316 93.3666 49.4224 104.322 49.4224C115.278 49.4224 125.175 52.5316 132.32 57.533C139.466 62.5354 143.822 69.3983 143.822 76.9224Z" stroke="black"/>
  <path opacity="0.6" d="M71.3809 74.4888C71.773 79.967 76.0867 90.3149 97.2632 93.3583M109.616 93.3583C111.577 93.3583 116.44 93.1149 120.204 92.1409" stroke="white" stroke-width="4" stroke-linecap="round"/>
  <path d="M121.6 72.9159C123.589 74.2571 124.006 75.715 122.851 77.2899C121.696 78.8647 119.405 79.8976 115.977 80.3889C114.338 80.6236 112.666 80.6328 110.961 80.4164C109.256 80.2 107.858 79.7904 106.768 79.1879C102.814 80.0795 99.0995 80.036 95.6239 79.057C92.1483 78.0777 90.0598 76.4866 89.3583 74.2834C87.6284 74.0706 86.1581 73.6511 84.9474 73.025C83.7368 72.399 82.8636 71.6094 82.3279 70.6562C81.468 69.1262 82.1522 67.6933 84.3806 66.3577C86.609 65.0221 89.1946 64.4415 92.1376 64.6161L97.3072 64.9324C97.8637 64.0124 98.8242 63.1905 100.189 62.4665C101.553 61.7425 103.165 61.2202 105.024 60.8995L103.925 58.9431C103.742 58.617 103.801 58.3171 104.104 58.0434C104.406 57.7697 104.88 57.5865 105.526 57.494C106.172 57.4015 106.766 57.4316 107.308 57.5843C107.85 57.737 108.212 57.9764 108.396 58.3024L109.664 60.5599C111.657 60.5724 113.416 60.788 114.939 61.2066C116.463 61.6253 117.943 62.3008 119.38 63.2333L123.701 62.614C124.347 62.5215 124.941 62.5516 125.483 62.7043C126.025 62.857 126.387 63.0964 126.571 63.4224C126.754 63.7485 126.695 64.0484 126.392 64.3221C126.09 64.5958 125.616 64.7789 124.97 64.8715L121.095 65.4267C121.531 66.394 121.523 67.3574 121.069 68.3168C120.615 69.2763 119.759 70.1171 118.501 70.8394L121.6 72.9159ZM103.629 76.4666C103.248 75.7894 102.99 75.1151 102.854 74.4434C102.718 73.7717 102.704 73.1029 102.813 72.4368C101.826 72.8765 100.705 73.247 99.4523 73.5485C98.1994 73.85 96.913 74.0682 95.5932 74.2031C96.143 75.1813 97.1353 75.8725 98.5702 76.2768C100.005 76.681 101.691 76.7443 103.629 76.4666ZM94.6468 71.0864C96.2364 70.8586 97.5834 70.5572 98.6876 70.1822C99.7919 69.8071 101.144 69.1798 102.743 68.3002L92.7437 67.7002C91.134 67.6057 89.908 67.7881 89.0659 68.2475C88.2237 68.707 87.993 69.2753 88.3736 69.9526C88.7401 70.6047 89.4302 71.0208 90.4438 71.2008C91.4575 71.3808 92.8584 71.3427 94.6468 71.0864ZM114.286 77.3788C115.528 77.201 116.41 76.8373 116.934 76.2881C117.457 75.7387 117.386 75.2542 116.721 74.8347L109.821 70.2943C109.329 71.2322 109.047 72.1399 108.976 73.0173C108.906 73.8946 109.054 74.6594 109.421 75.3115C109.886 76.1394 110.527 76.7318 111.345 77.0887C112.163 77.4459 113.143 77.5425 114.286 77.3788ZM114.51 68.3216C114.865 67.9996 115.076 67.6103 115.142 67.1538C115.207 66.6972 115.113 66.2432 114.859 65.7917C114.408 64.989 113.506 64.3865 112.153 63.9842C110.799 63.5818 109.353 63.491 107.813 63.7117C106.918 63.8398 106.116 64.036 105.406 64.3004C104.696 64.5648 104.145 64.8741 103.754 65.2283L110.327 65.75L114.51 68.3216Z" fill="#78350F"/>
  <g filter="url(#filter2_i_45_6109)">
    <ellipse cx="47.8692" cy="69.6205" rx="40" ry="28" transform="rotate(-23.629 47.8692 69.6205)" fill="#FBBF24"/>
  </g>
  <path d="M84.0575 53.7884C87.0732 60.6816 85.8331 68.7151 81.2909 76.1625C76.7497 83.6083 68.9287 90.4237 58.8915 94.8149C48.8543 99.2061 38.5408 100.324 29.9904 98.606C21.4382 96.8873 14.6966 92.3458 11.6808 85.4526C8.66509 78.5593 9.90525 70.5259 14.4474 63.0785C18.9886 55.6327 26.8096 48.8173 36.8468 44.4261C46.884 40.0349 57.1975 38.9166 65.7479 40.635C74.3001 42.3537 81.0417 46.8952 84.0575 53.7884Z" stroke="black"/>
  <path opacity="0.6" d="M16.7139 80.5945C19.2689 85.4563 27.3685 93.2075 47.9894 87.5081M59.3067 82.5569C61.1031 81.771 65.4605 79.5988 68.5192 77.1976" stroke="white" stroke-width="4" stroke-linecap="round"/>
  <path d="M62.0931 59.0247C64.4527 59.4564 65.4187 60.6251 64.9921 62.5307C64.5655 64.4363 62.8806 66.3009 59.937 68.1249C58.5294 68.9969 57.001 69.6756 55.3522 70.1608C53.7033 70.6459 52.2587 70.8309 51.0184 70.7158C47.7533 73.1174 44.3326 74.5665 40.756 75.0626C37.1793 75.5585 34.6282 74.938 33.1024 73.2006C31.4322 73.699 29.9171 73.904 28.557 73.8157C27.1969 73.7273 26.0804 73.3539 25.2076 72.6954C23.8066 71.6383 23.8591 70.0513 25.3653 67.9345C26.8715 65.8177 29.0077 64.2494 31.7739 63.2298L36.6369 61.4475C36.778 60.3816 37.3285 59.2436 38.2883 58.0335C39.2482 56.8233 40.5156 55.6987 42.0907 54.6596L40.2992 53.3079C40.0006 53.0826 39.935 52.784 40.1023 52.412C40.2697 52.04 40.6306 51.6822 41.1852 51.3386C41.7398 50.995 42.2959 50.7845 42.8538 50.7072C43.4116 50.6298 43.8398 50.7037 44.1384 50.929L46.2055 52.4887C48.0365 51.7014 49.7338 51.1941 51.2973 50.967C52.861 50.7398 54.4876 50.7656 56.1776 51.044L59.8885 48.7446C60.4434 48.4008 60.9993 48.1905 61.5574 48.113C62.1151 48.0357 62.5432 48.1097 62.8417 48.335C63.1407 48.5602 63.2061 48.8589 63.0389 49.2308C62.8712 49.6029 62.5103 49.9606 61.9559 50.3042L58.6286 52.3659C59.416 53.0773 59.7942 53.9634 59.7629 55.0243C59.7316 56.0852 59.2847 57.1985 58.4213 58.3646L62.0931 59.0247ZM47.0513 69.481C46.4312 69.0132 45.9243 68.499 45.5306 67.938C45.1368 67.3772 44.8563 66.7698 44.689 66.116C43.9605 66.9146 43.0827 67.7031 42.0556 68.4815C41.0285 69.2599 39.9375 69.9754 38.7824 70.628C39.6782 71.3038 40.8644 71.5393 42.341 71.3346C43.8176 71.1298 45.3877 70.512 47.0513 69.481ZM36.6661 68.1519C38.0312 67.3061 39.1444 66.4901 40.0058 65.7039C40.8672 64.9177 41.8541 63.8012 42.9665 62.3545L33.5654 65.8125C32.0527 66.371 31.0026 67.0295 30.4153 67.788C29.8279 68.5465 29.8443 69.1596 30.4644 69.6276C31.0616 70.0781 31.8606 70.1827 32.8614 69.9413C33.8622 69.6999 35.1304 69.1035 36.6661 68.1519ZM57.1808 66.0451C58.2473 65.3845 58.91 64.6976 59.1693 63.9847C59.4284 63.2717 59.1694 62.8562 58.3917 62.7385L50.251 61.3441C50.1754 62.4009 50.2812 63.3453 50.5683 64.1774C50.8554 65.0095 51.2975 65.6508 51.8947 66.1013C52.6527 66.6733 53.4779 66.9589 54.3704 66.9581C55.2629 66.9575 56.1997 66.6531 57.1808 66.0451ZM53.7556 57.6577C53.9525 57.2201 53.9894 56.779 53.8664 56.3345C53.7433 55.8899 53.4751 55.5117 53.0617 55.1998C52.3267 54.6452 51.2587 54.4548 49.8575 54.6287C48.4564 54.8025 47.0946 55.2991 45.7723 56.1185C45.0044 56.5942 44.3481 57.0955 43.8034 57.6224C43.2587 58.1493 42.878 58.6535 42.6615 59.1348L48.8927 56.9781L53.7556 57.6577Z" fill="#78350F"/>
  <defs>
    <filter id="filter0_di_45_6109" x="0.99707" y="34.9998" width="150.793" height="81.4922" filterUnits="userSpaceOnUse" color-interpolation-filters="sRGB">
      <feFlood flood-opacity="0" result="BackgroundImageFix"/>
      <feColorMatrix in="SourceAlpha" type="matrix" values="0 0 0 0 0 0 0 0 0 0 0 0 0 0 0 0 0 0 127 0" result="hardAlpha"/>
      <feOffset dy="4"/>
      <feGaussianBlur stdDeviation="2"/>
      <feComposite in2="hardAlpha" operator="out"/>
      <feColorMatrix type="matrix" values="0 0 0 0 0 0 0 0 0 0 0 0 0 0 0 0 0 0 0.25 0"/>
      <feBlend mode="normal" in2="BackgroundImageFix" result="effect1_dropShadow_45_6109"/>
      <feBlend mode="normal" in="SourceGraphic" in2="effect1_dropShadow_45_6109" result="shape"/>
      <feColorMatrix in="SourceAlpha" type="matrix" values="0 0 0 0 0 0 0 0 0 0 0 0 0 0 0 0 0 0 127 0" result="hardAlpha"/>
      <feOffset dy="-6"/>
      <feComposite in2="hardAlpha" operator="arithmetic" k2="-1" k3="1"/>
      <feColorMatrix type="matrix" values="0 0 0 0 0 0 0 0 0 0 0 0 0 0 0 0 0 0 0.25 0"/>
      <feBlend mode="normal" in2="shape" result="effect2_innerShadow_45_6109"/>
    </filter>
    <filter id="filter1_i_45_6109" x="64.3223" y="48.9224" width="80" height="56" filterUnits="userSpaceOnUse" color-interpolation-filters="sRGB">
      <feFlood flood-opacity="0" result="BackgroundImageFix"/>
      <feBlend mode="normal" in="SourceGraphic" in2="BackgroundImageFix" result="shape"/>
      <feColorMatrix in="SourceAlpha" type="matrix" values="0 0 0 0 0 0 0 0 0 0 0 0 0 0 0 0 0 0 127 0" result="hardAlpha"/>
      <feOffset dy="-6"/>
      <feComposite in2="hardAlpha" operator="arithmetic" k2="-1" k3="1"/>
      <feColorMatrix type="matrix" values="0 0 0 0 0 0 0 0 0 0 0 0 0 0 0 0 0 0 0.25 0"/>
      <feBlend mode="normal" in2="shape" result="effect1_innerShadow_45_6109"/>
    </filter>
    <filter id="filter2_i_45_6109" x="9.53223" y="39.366" width="76.6738" height="60.509" filterUnits="userSpaceOnUse" color-interpolation-filters="sRGB">
      <feFlood flood-opacity="0" result="BackgroundImageFix"/>
      <feBlend mode="normal" in="SourceGraphic" in2="BackgroundImageFix" result="shape"/>
      <feColorMatrix in="SourceAlpha" type="matrix" values="0 0 0 0 0 0 0 0 0 0 0 0 0 0 0 0 0 0 127 0" result="hardAlpha"/>
      <feOffset dy="-6"/>
      <feComposite in2="hardAlpha" operator="arithmetic" k2="-1" k3="1"/>
      <feColorMatrix type="matrix" values="0 0 0 0 0 0 0 0 0 0 0 0 0 0 0 0 0 0 0.25 0"/>
      <feBlend mode="normal" in2="shape" result="effect1_innerShadow_45_6109"/>
    </filter>
    <radialGradient id="paint0_radial_45_6109" cx="0" cy="0" r="1" gradientUnits="userSpaceOnUse" gradientTransform="translate(75.5 74.5) rotate(90) scale(74.5)">
      <stop stop-color="white" stop-opacity="0.6"/>
      <stop offset="1" stop-color="white" stop-opacity="0"/>
    </radialGradient>
  </defs>
</svg>
