<svg width="152" height="149" viewBox="0 0 152 149" fill="none" xmlns="http://www.w3.org/2000/svg">
  <g filter="url(#filter0_di_45_6108)">
    <mask id="path-1-outside-1_45_6108" maskUnits="userSpaceOnUse" x="5.22168" y="33.6465" width="139" height="77" fill="black">
      <rect fill="white" x="5.22168" y="33.6465" width="139" height="77"/>
      <path fill-rule="evenodd" clip-rule="evenodd" d="M88.9764 94.3737C108.293 105.092 130.035 102.819 137.538 89.2973C145.041 75.7753 135.464 56.1248 116.146 45.4065C96.8294 34.6882 75.0877 36.961 67.5849 50.4829C67.1797 51.2131 66.8244 51.9612 66.5177 52.7248C61.9997 51.1753 57.0277 50.1815 51.7787 49.8831C29.723 48.6291 11.1317 60.1284 10.2539 75.5674C9.37612 91.0065 26.5443 104.539 48.6001 105.793C64.3449 106.688 78.3242 101.084 85.3544 92.1872C86.5197 92.9507 87.7277 93.6808 88.9764 94.3737Z"/>
    </mask>
    <path fill-rule="evenodd" clip-rule="evenodd" d="M88.9764 94.3737C108.293 105.092 130.035 102.819 137.538 89.2973C145.041 75.7753 135.464 56.1248 116.146 45.4065C96.8294 34.6882 75.0877 36.961 67.5849 50.4829C67.1797 51.2131 66.8244 51.9612 66.5177 52.7248C61.9997 51.1753 57.0277 50.1815 51.7787 49.8831C29.723 48.6291 11.1317 60.1284 10.2539 75.5674C9.37612 91.0065 26.5443 104.539 48.6001 105.793C64.3449 106.688 78.3242 101.084 85.3544 92.1872C86.5197 92.9507 87.7277 93.6808 88.9764 94.3737Z" fill="white"/>
    <path d="M137.538 89.2973L141.036 91.238L141.036 91.238L137.538 89.2973ZM88.9764 94.3737L90.9172 90.876L90.9172 90.876L88.9764 94.3737ZM116.146 45.4065L118.087 41.9088L116.146 45.4065ZM67.5849 50.4829L71.0825 52.4236L71.0825 52.4236L67.5849 50.4829ZM66.5177 52.7248L65.2201 56.5084L68.8135 57.7408L70.2294 54.2156L66.5177 52.7248ZM51.7787 49.8831L51.5517 53.8766L51.7787 49.8831ZM10.2539 75.5674L6.26034 75.3404L10.2539 75.5674ZM48.6001 105.793L48.373 109.786L48.373 109.786L48.6001 105.793ZM85.3544 92.1872L87.5464 88.8413L84.4851 86.8357L82.216 89.7073L85.3544 92.1872ZM134.04 87.3566C131.096 92.6629 125.164 96.1222 117.272 96.9472C109.395 97.7707 99.946 95.8858 90.9172 90.876L87.0357 97.8714C97.3239 103.58 108.405 105.918 118.103 104.904C127.787 103.892 136.477 99.4535 141.036 91.238L134.04 87.3566ZM114.206 48.9041C123.235 53.9139 129.834 60.9336 133.304 68.053C136.781 75.1862 136.985 82.0502 134.04 87.3566L141.036 91.238C145.594 83.0224 144.761 73.3002 140.495 64.548C136.223 55.7821 128.375 47.6173 118.087 41.9088L114.206 48.9041ZM71.0825 52.4236C74.0268 47.1173 79.9589 43.658 87.8512 42.8329C95.7282 42.0095 105.177 43.8944 114.206 48.9041L118.087 41.9088C107.799 36.2003 96.7183 33.8624 87.0195 34.8763C77.336 35.8886 68.6457 40.3266 64.0872 48.5422L71.0825 52.4236ZM70.2294 54.2156C70.4745 53.6055 70.7584 53.0077 71.0825 52.4236L64.0872 48.5422C63.601 49.4185 63.1742 50.3169 62.8059 51.2339L70.2294 54.2156ZM51.5517 53.8766C56.4434 54.1547 61.0548 55.08 65.2201 56.5084L67.8153 48.9411C62.9447 47.2707 57.6119 46.2083 52.0058 45.8895L51.5517 53.8766ZM14.2474 75.7945C14.5919 69.7358 18.43 64.0415 25.1787 59.8672C31.9143 55.7011 41.2427 53.2905 51.5517 53.8766L52.0058 45.8895C40.259 45.2217 29.2639 47.9338 20.9704 53.0635C12.6901 58.1852 6.79365 65.9601 6.26034 75.3404L14.2474 75.7945ZM48.8271 101.799C38.5181 101.213 29.523 97.7608 23.3031 92.8581C17.071 87.9458 13.903 81.8532 14.2474 75.7945L6.26034 75.3404C5.72703 84.7207 10.7043 93.1138 18.3507 99.141C26.0093 105.178 36.6262 109.118 48.373 109.786L48.8271 101.799ZM82.216 89.7073C76.2068 97.312 63.6557 102.642 48.8271 101.799L48.373 109.786C65.0341 110.734 80.4417 104.856 88.4929 94.6672L82.216 89.7073ZM90.9172 90.876C89.754 90.2306 88.6298 89.5511 87.5464 88.8413L83.1624 95.5331C84.4097 96.3503 85.7015 97.1311 87.0357 97.8714L90.9172 90.876Z" fill="white" mask="url(#path-1-outside-1_45_6108)"/>
  </g>
  <path fill-rule="evenodd" clip-rule="evenodd" d="M83.1444 0H65.8561L69.6287 56.3189L44.7363 5.65886L29.7642 14.303L61.1892 61.1879L14.3036 29.7625L5.65948 44.7346L56.3221 69.6283L7.55695e-07 65.8555L0 83.1438L56.3166 79.3714L5.65914 104.263L14.3033 119.235L61.1927 87.8066L29.7643 134.697L44.7364 143.341L69.6287 92.681L65.8561 149H83.1444L79.3718 92.6808L104.264 143.341L119.236 134.697L87.8079 87.8067L134.697 119.235L143.341 104.263L92.684 79.3715L149 83.1438V65.8555L92.6785 69.6283L143.341 44.7346L134.697 29.7625L87.8115 61.1879L119.236 14.303L104.264 5.6589L79.3718 56.319L83.1444 0Z" fill="url(#paint0_radial_45_6108)"/>
  <g filter="url(#filter1_i_45_6108)">
    <ellipse cx="50.1889" cy="77.8386" rx="40" ry="28" transform="rotate(3.25399 50.1889 77.8386)" fill="#78350F"/>
  </g>
  <path d="M89.6253 80.0807C89.1982 87.5927 84.4595 94.1972 77.0408 98.7859C69.6236 103.374 59.566 105.916 48.628 105.294C37.69 104.672 27.9853 101.006 21.136 95.6075C14.2851 90.2075 10.3255 83.1084 10.7526 75.5965C11.1797 68.0846 15.9183 61.4801 23.3371 56.8913C30.7543 52.3036 40.8119 49.7611 51.7499 50.383C62.6879 51.0048 72.3925 54.6709 79.2419 60.0697C86.0928 65.4698 90.0523 72.5688 89.6253 80.0807Z" stroke="black"/>
  <path opacity="0.6" d="M17.4395 73.5371C17.52 79.0288 21.2394 89.6048 42.209 93.8454M54.542 94.5466C56.4996 94.6579 61.3684 94.6908 65.1823 93.9322" stroke="white" stroke-width="4" stroke-linecap="round"/>
  <path fill-rule="evenodd" clip-rule="evenodd" d="M29.2739 62.1024C30.4069 60.5452 32.5337 59.7058 34.7511 59.3063C37.007 58.8998 39.2668 58.9663 40.4749 59.1727C41.0281 59.2672 41.5922 59.4426 42.2698 59.697C42.5823 59.8143 42.9015 59.9415 43.2507 60.0806L43.3356 60.1145C43.7126 60.2647 44.1197 60.4261 44.5539 60.5874C46.3201 61.2432 48.5412 61.8971 51.7354 62.0787C55.551 62.2956 58.1478 61.7349 60.2228 61.2304L60.5801 61.1434C62.5111 60.672 63.7124 60.3787 65.2049 60.5849C67.0373 60.838 69.2954 61.4972 71.0549 62.4701C72.7993 63.4345 73.9776 64.6602 73.8972 66.0753C73.794 67.8898 72.5156 69.1728 71.4468 69.8755C70.6781 70.381 70.2108 71.0997 70.4427 71.86C71.1235 74.092 70.8007 77.2583 68.0148 79.7061C65.2881 82.1019 60.0796 83.9178 50.5246 83.3746C40.6694 82.8143 35.3875 80.5734 32.7476 77.9508C30.061 75.2818 29.9489 72.0601 31.0075 69.4279C31.2531 68.8172 30.9858 68.1864 30.434 67.6717C29.1039 66.4312 27.7258 64.23 29.2739 62.1024ZM41.0093 57.8983C39.2998 57.6063 36.5583 57.5547 33.9032 58.0331C31.2096 58.5185 28.5156 59.5671 27.0919 61.5236C25.1518 64.1901 26.9074 66.8692 28.4481 68.3061C28.7173 68.5572 28.8041 68.8244 28.714 69.0484C27.5787 71.8713 27.6271 75.4723 30.7257 78.5506C33.8711 81.6754 39.9992 84.1068 50.4492 84.7009C60.722 85.2849 66.7849 83.32 70.0152 80.4817C73.1865 77.6953 73.5064 74.1743 72.758 71.7208C72.6645 71.4142 72.8465 71.0638 73.2707 70.7849C74.6065 69.9066 76.124 68.3609 76.2463 66.2088C76.3544 64.3082 74.7471 62.7144 72.6356 61.547C70.5393 60.388 67.8715 59.603 65.6118 59.2908C63.3185 58.974 61.4184 59.4446 59.6672 59.8783C59.5019 59.9193 59.3379 59.9599 59.1751 59.9995C57.2173 60.4754 55.0426 60.9361 51.8108 60.7524C49.1323 60.6001 47.2967 60.0631 45.745 59.487C45.3497 59.3402 44.9734 59.1911 44.5965 59.0409L44.5063 59.005C44.1639 58.8685 43.8157 58.7297 43.4716 58.6006C42.725 58.3203 41.9149 58.053 41.0093 57.8983ZM43.2064 75.1095L43.2065 75.1095C44.2448 75.2355 45.1312 75.343 45.6177 75.3707C46.9309 75.4453 46.9242 73.1164 43.4176 72.6159C41.221 72.3024 39.9517 72.792 39.2707 73.4054C38.6009 74.0086 39.6414 74.7041 40.9298 74.8435C41.7063 74.9276 42.4915 75.0228 43.2049 75.1093L43.2055 75.1094L43.206 75.1095L43.2061 75.1095L43.2064 75.1095ZM58.2036 75.9632L58.2037 75.9632L58.2039 75.9632L58.2046 75.9632L58.2056 75.9632C58.9241 75.9581 59.7148 75.9525 60.4957 75.957C61.7916 75.9645 62.9042 75.3914 62.3071 74.7161C61.7 74.0295 60.4945 73.3992 58.2765 73.4618C54.7357 73.5616 54.4651 75.8747 55.7783 75.9494C56.2648 75.9771 57.1576 75.9707 58.2036 75.9632ZM37.3312 65.4005L37.3312 65.4005C36.3017 65.8236 35.4229 66.1848 34.9056 66.3478C33.5094 66.7876 30.9246 64.1623 34.3177 62.6486C36.702 61.5849 38.8967 61.9759 40.3736 62.6115C41.441 63.0708 41.1183 63.9032 40.0758 64.3004C39.1373 64.6581 38.1827 65.0505 37.3312 65.4004L37.3312 65.4004L37.3312 65.4005ZM66.3488 68.1385C65.8533 67.918 65.0211 67.4595 64.0462 66.9223C63.2399 66.4781 62.3359 65.9801 61.444 65.5184C60.4532 65.0055 60.227 64.1419 61.3395 63.8065C62.8789 63.3424 65.1038 63.2027 67.3522 64.5298C70.5519 66.4183 67.6862 68.7337 66.3488 68.1385ZM50.335 75.3042C51.622 75.3774 52.4901 75.5598 53.0422 75.7481C53.6343 75.95 53.6829 76.3683 53.3013 76.6661C52.6594 77.1668 51.5832 77.7037 50.2031 77.6252C48.8229 77.5467 47.8145 76.8914 47.2336 76.3211C46.8881 75.982 46.9838 75.5718 47.595 75.4384C48.1649 75.3139 49.0481 75.231 50.335 75.3042Z" fill="white"/>
  <g filter="url(#filter2_di_45_6108)">
    <ellipse cx="102.561" cy="69.8908" rx="40" ry="28" transform="rotate(29.0242 102.561 69.8908)" fill="#78350F"/>
    <path d="M137.1 89.0554C133.449 95.6345 126.311 99.522 117.635 100.429C108.961 101.336 98.7979 99.2527 89.2181 93.9372C79.6383 88.6217 72.4927 81.1011 68.6717 73.2613C64.8499 65.4198 64.3706 57.3053 68.0211 50.7262C71.6716 44.1471 78.8104 40.2596 87.4864 39.3526C96.1604 38.4459 106.323 40.5289 115.903 45.8444C125.483 51.1599 132.628 58.6805 136.449 66.5203C140.271 74.3618 140.75 82.4762 137.1 89.0554Z" stroke="black"/>
  </g>
  <path opacity="0.6" d="M74.9385 51.7788C72.6234 56.7593 71.3749 67.9006 88.4153 80.8362M99.2169 86.8296C100.931 87.7809 105.302 89.9273 109.066 90.9023" stroke="white" stroke-width="4" stroke-linecap="round"/>
  <path fill-rule="evenodd" clip-rule="evenodd" d="M90.5674 46.6264C92.2648 45.7167 94.5449 45.8854 96.7156 46.4897C98.9238 47.1044 100.93 48.1468 101.928 48.8579C102.385 49.1835 102.817 49.5867 103.317 50.1104C103.547 50.3519 103.779 50.6052 104.033 50.8823L104.095 50.9497C104.369 51.2489 104.665 51.5713 104.986 51.9053C106.292 53.2637 108.008 54.8182 110.805 56.3705C114.147 58.2248 116.729 58.8488 118.817 59.2967L119.177 59.3735C121.121 59.7886 122.33 60.0468 123.585 60.8813C125.125 61.906 126.872 63.4814 128.033 65.1224C129.185 66.7493 129.713 68.3654 129.025 69.6047C128.144 71.194 126.435 71.7936 125.167 71.9617C124.255 72.0827 123.521 72.5268 123.4 73.3123C123.042 75.6183 121.375 78.3294 117.802 79.3225C114.305 80.2945 108.825 79.6654 100.456 75.022C91.8248 70.2327 88.0425 65.9184 86.8054 62.4089C85.5463 58.8372 86.846 55.8873 88.9437 53.9771C89.4304 53.5339 89.464 52.8496 89.1908 52.1462C88.5323 50.4508 88.2482 47.8694 90.5674 46.6264ZM102.963 47.9425C101.551 46.9364 99.1045 45.698 96.5055 44.9745C93.8688 44.2405 90.9868 44.0135 88.8541 45.1566C85.9476 46.7143 86.3638 49.8903 87.1266 51.8541C87.2598 52.1973 87.2218 52.4756 87.0434 52.6382C84.7937 54.6867 83.2716 57.9506 84.7237 62.07C86.1978 66.2515 90.6594 71.1053 99.8117 76.1836C108.809 81.1758 115.123 82.0422 119.266 80.8906C123.333 79.7601 125.152 76.7284 125.545 74.1935C125.594 73.8768 125.91 73.6404 126.414 73.5736C127.998 73.3634 130.037 72.6312 131.083 70.7463C132.007 69.0817 131.252 66.9476 129.858 64.9784C128.474 63.0232 126.413 61.1564 124.514 59.8928C122.586 58.6106 120.671 58.2082 118.905 57.8374C118.738 57.8024 118.573 57.7677 118.409 57.7326C116.439 57.31 114.28 56.7794 111.45 55.2089C109.104 53.9073 107.684 52.6256 106.537 51.4321C106.245 51.1281 105.971 50.8302 105.697 50.5312L105.632 50.4596C105.383 50.1878 105.129 49.9114 104.876 49.6455C104.325 49.0685 103.712 48.4756 102.963 47.9425ZM97.4593 64.3973L97.4593 64.3973C98.3396 64.9622 99.0911 65.4443 99.5172 65.6808C100.667 66.3189 101.674 64.2188 98.7335 62.2435C96.8917 61.0061 95.5359 60.8952 94.6559 61.1515C93.7905 61.4036 94.4251 62.4823 95.5247 63.168C96.1875 63.5812 96.8531 64.0083 97.4579 64.3964L97.4585 64.3968L97.4589 64.397L97.459 64.3971L97.4593 64.3973ZM110.594 71.6863L110.594 71.6863L110.594 71.6865L110.595 71.6867L110.596 71.6872C111.245 71.9949 111.959 72.3337 112.661 72.6772C113.824 73.2474 115.075 73.215 114.831 72.3473C114.583 71.465 113.771 70.3733 111.747 69.4653C108.515 68.0158 107.266 69.9813 108.416 70.6194C108.842 70.8559 109.649 71.2383 110.594 71.6863ZM96.3895 53.0995L96.3895 53.0995C95.2784 53.033 94.33 52.9762 93.7933 52.8981C92.3447 52.6871 91.1584 49.1991 94.8721 49.3112C97.4817 49.3899 99.2882 50.6962 100.342 51.9106C101.103 52.7883 100.451 53.3976 99.3394 53.3021C98.3387 53.2162 97.3085 53.1545 96.3896 53.0995L96.3895 53.0995L96.3895 53.0995ZM121.331 68.181C120.98 67.767 120.43 66.9923 119.786 66.0847C119.253 65.3341 118.655 64.4926 118.053 63.689C117.384 62.7964 117.555 61.9204 118.703 62.102C120.291 62.3534 122.356 63.1949 123.803 65.3675C125.864 68.4593 122.276 69.2985 121.331 68.181ZM103.794 67.6719C104.921 68.2973 105.624 68.839 106.039 69.2485C106.485 69.6878 106.347 70.0857 105.873 70.1879C105.078 70.3598 103.875 70.3754 102.666 69.7047C101.458 69.034 100.834 68.0054 100.559 67.2392C100.396 66.7837 100.66 66.4559 101.268 66.6014C101.836 66.7371 102.667 67.0465 103.794 67.6719Z" fill="white"/>
  <defs>
    <filter id="filter0_di_45_6108" x="2.22168" y="34.6462" width="145.873" height="83.2395" filterUnits="userSpaceOnUse" color-interpolation-filters="sRGB">
      <feFlood flood-opacity="0" result="BackgroundImageFix"/>
      <feColorMatrix in="SourceAlpha" type="matrix" values="0 0 0 0 0 0 0 0 0 0 0 0 0 0 0 0 0 0 127 0" result="hardAlpha"/>
      <feOffset dy="4"/>
      <feGaussianBlur stdDeviation="2"/>
      <feComposite in2="hardAlpha" operator="out"/>
      <feColorMatrix type="matrix" values="0 0 0 0 0 0 0 0 0 0 0 0 0 0 0 0 0 0 0.25 0"/>
      <feBlend mode="normal" in2="BackgroundImageFix" result="effect1_dropShadow_45_6108"/>
      <feBlend mode="normal" in="SourceGraphic" in2="effect1_dropShadow_45_6108" result="shape"/>
      <feColorMatrix in="SourceAlpha" type="matrix" values="0 0 0 0 0 0 0 0 0 0 0 0 0 0 0 0 0 0 127 0" result="hardAlpha"/>
      <feOffset dy="-6"/>
      <feComposite in2="hardAlpha" operator="arithmetic" k2="-1" k3="1"/>
      <feColorMatrix type="matrix" values="0 0 0 0 0 0 0 0 0 0 0 0 0 0 0 0 0 0 0.25 0"/>
      <feBlend mode="normal" in2="shape" result="effect2_innerShadow_45_6108"/>
    </filter>
    <filter id="filter1_i_45_6108" x="10.2217" y="49.7903" width="79.9346" height="56.0967" filterUnits="userSpaceOnUse" color-interpolation-filters="sRGB">
      <feFlood flood-opacity="0" result="BackgroundImageFix"/>
      <feBlend mode="normal" in="SourceGraphic" in2="BackgroundImageFix" result="shape"/>
      <feColorMatrix in="SourceAlpha" type="matrix" values="0 0 0 0 0 0 0 0 0 0 0 0 0 0 0 0 0 0 127 0" result="hardAlpha"/>
      <feOffset dy="-6"/>
      <feComposite in2="hardAlpha" operator="arithmetic" k2="-1" k3="1"/>
      <feColorMatrix type="matrix" values="0 0 0 0 0 0 0 0 0 0 0 0 0 0 0 0 0 0 0.25 0"/>
      <feBlend mode="normal" in2="shape" result="effect1_innerShadow_45_6108"/>
    </filter>
    <filter id="filter2_di_45_6108" x="61.0283" y="38.6472" width="83.0645" height="70.4871" filterUnits="userSpaceOnUse" color-interpolation-filters="sRGB">
      <feFlood flood-opacity="0" result="BackgroundImageFix"/>
      <feColorMatrix in="SourceAlpha" type="matrix" values="0 0 0 0 0 0 0 0 0 0 0 0 0 0 0 0 0 0 127 0" result="hardAlpha"/>
      <feOffset dy="4"/>
      <feGaussianBlur stdDeviation="2"/>
      <feComposite in2="hardAlpha" operator="out"/>
      <feColorMatrix type="matrix" values="0 0 0 0 0 0 0 0 0 0 0 0 0 0 0 0 0 0 0.25 0"/>
      <feBlend mode="normal" in2="BackgroundImageFix" result="effect1_dropShadow_45_6108"/>
      <feBlend mode="normal" in="SourceGraphic" in2="effect1_dropShadow_45_6108" result="shape"/>
      <feColorMatrix in="SourceAlpha" type="matrix" values="0 0 0 0 0 0 0 0 0 0 0 0 0 0 0 0 0 0 127 0" result="hardAlpha"/>
      <feOffset dy="-6"/>
      <feComposite in2="hardAlpha" operator="arithmetic" k2="-1" k3="1"/>
      <feColorMatrix type="matrix" values="0 0 0 0 0 0 0 0 0 0 0 0 0 0 0 0 0 0 0.25 0"/>
      <feBlend mode="normal" in2="shape" result="effect2_innerShadow_45_6108"/>
    </filter>
    <radialGradient id="paint0_radial_45_6108" cx="0" cy="0" r="1" gradientUnits="userSpaceOnUse" gradientTransform="translate(74.5 74.5) rotate(90) scale(74.5)">
      <stop stop-color="white" stop-opacity="0.6"/>
      <stop offset="1" stop-color="white" stop-opacity="0"/>
    </radialGradient>
  </defs>
</svg>
