<svg width="114" height="135" viewBox="0 0 114 135" fill="none" xmlns="http://www.w3.org/2000/svg">
<path d="M4.70989 74.5926C3.94866 75.1587 3.5 76.0514 3.5 77V92.5438C3.5 96.0509 5.33726 99.3017 8.34178 101.111L9.88925 98.5407L8.34179 101.111L55.7993 129.685C59.2311 131.751 63.5649 131.57 66.8124 129.225L106.051 100.886C108.496 99.1203 110.013 96.3453 110.181 93.334L110.995 78.6664C111.054 77.6197 110.561 76.6186 109.697 76.0258L95.2379 66.1113C94.1501 65.3654 93.5 64.1313 93.5 62.8124V49.7676C93.5 47.0154 92.089 44.4553 89.762 42.9857L86.8173 41.1258C87.6661 40.4654 88.3071 39.5654 88.6511 38.5334L88.9586 37.611C90.5258 36.687 91.5 34.9981 91.5 33.1612V30.3059C91.5 26.8967 89.7258 23.7333 86.8168 21.9556L81.5 18.7064V16.7902C81.5 14.3446 80.2602 12.0657 78.2069 10.7371L72.8107 7.24546L71.181 9.76417L72.8107 7.24546C71.0896 6.13175 68.8713 6.14695 67.1655 7.28412L66.9821 7.40637C66.8921 7.33833 66.7987 7.27395 66.702 7.21351L62.9225 4.85131C59.5896 2.76828 55.3457 2.83068 52.0755 5.01079L49.4001 6.79437C47.9027 7.79264 47.0025 9.4723 47 11.2716C46.3331 11.3607 45.6843 11.6102 45.114 12.0176L39.1768 16.2584C38.8161 16.5161 38.5057 16.828 38.2534 17.1787C37.3258 17.1654 36.4035 17.4505 35.6329 18.0156L31.5864 20.9831C29.0176 22.8669 27.5 25.8617 27.5 29.0472V35.3221C27.5 37.727 28.7618 39.9557 30.8241 41.193C31.379 41.526 31.3704 42.3331 30.8085 42.6542L28.6749 43.8734C26.0932 45.3486 24.5 48.0941 24.5 51.0675V57.9658C23.6542 58.7496 23.1239 59.8223 23.0191 60.9781L4.70989 74.5926Z" fill="#664422" stroke="white" stroke-width="6" stroke-linecap="round" stroke-linejoin="round"/>
<path d="M57.3467 127.115L9.88925 98.5407C7.78608 97.2744 6.5 94.9988 6.5 92.5438V77L25.2228 63.078C25.7118 62.7143 26 62.1408 26 61.5314V61.4014C26 60.8382 26.2814 60.3124 26.75 60C27.2186 59.6876 27.5 59.1618 27.5 58.5986V51.0675C27.5 49.1706 28.5164 47.4192 30.1633 46.4781L32.297 45.2589C34.8496 43.8002 34.8887 40.1332 32.3676 38.6205C31.2089 37.9254 30.5 36.6732 30.5 35.3221V29.0472C30.5 26.8174 31.5623 24.721 33.3605 23.4023L37.407 20.4349C37.7758 20.1644 38.2581 20.1032 38.6828 20.2731L39.1229 20.4491C39.7825 20.713 40.5 20.2272 40.5 19.5168C40.5 19.1925 40.6566 18.8881 40.9205 18.6996L46.8577 14.4588C47.2477 14.1802 47.7658 14.1595 48.1768 14.4061C48.9792 14.8875 50 14.3095 50 13.3738V11.279C50 10.48 50.3993 9.73377 51.0642 9.29053L53.7396 7.50694C56.0287 5.98086 58.9995 5.93718 61.3325 7.3953L65.112 9.75751C65.3534 9.90836 65.5 10.1729 65.5 10.4575C65.5 11.1169 66.2348 11.5101 66.7834 11.1444L68.8296 9.78027C69.5401 9.30661 70.4641 9.30028 71.181 9.76417L76.5772 13.2558C77.7761 14.0316 78.5 15.3622 78.5 16.7902V20.2196C78.5 20.6506 78.8494 21 79.2804 21C79.424 21 79.5648 21.0396 79.6874 21.1145L85.2525 24.5154C87.2697 25.7481 88.5 27.9418 88.5 30.3059V33.1612C88.5 33.9817 88.0364 34.7318 87.3025 35.0987C86.7887 35.3557 86.3979 35.8062 86.2163 36.3512L85.8051 37.5847C85.6089 38.1734 85.1991 38.6672 84.6566 38.9685C83.0099 39.8834 82.944 42.2278 84.5367 43.2337L88.16 45.5221C89.6167 46.4421 90.5 48.0447 90.5 49.7676V62.8124C90.5 65.1204 91.6378 67.2802 93.5413 68.5855L108 78.5L107.185 93.1676C107.068 95.2755 106.006 97.218 104.294 98.4541L65.0559 126.793C62.7826 128.435 59.749 128.562 57.3467 127.115Z" fill="#664422"/>
<path d="M108 78.5L107.185 93.1676C107.068 95.2755 106.006 97.218 104.294 98.4541L65.0559 126.793C62.7826 128.435 59.749 128.562 57.3467 127.115L9.88925 98.5407C7.78608 97.2744 6.5 94.9988 6.5 92.5438V77M108 78.5L55.6478 55.7825C53.772 54.9685 51.6342 55.0154 49.7959 55.9108L6.5 77M108 78.5L93.5413 68.5855C91.6378 67.2802 90.5 65.1204 90.5 62.8124V49.7676C90.5 48.0447 89.6167 46.4421 88.16 45.5221L84.5367 43.2337C82.944 42.2278 83.0099 39.8834 84.6566 38.9685V38.9685C85.1991 38.6672 85.6089 38.1734 85.8051 37.5847L86.2163 36.3512C86.3979 35.8062 86.7887 35.3557 87.3025 35.0987V35.0987C88.0364 34.7318 88.5 33.9817 88.5 33.1612V30.3059C88.5 27.9418 87.2697 25.7481 85.2525 24.5154L79.6874 21.1145C79.5648 21.0396 79.424 21 79.2804 21V21C78.8494 21 78.5 20.6506 78.5 20.2196V16.7902C78.5 15.3622 77.7761 14.0316 76.5772 13.2558L71.181 9.76417C70.4641 9.30028 69.5401 9.30661 68.8296 9.78027L66.7834 11.1444C66.2348 11.5101 65.5 11.1169 65.5 10.4575V10.4575C65.5 10.1729 65.3534 9.90836 65.112 9.75751L61.3325 7.3953C58.9995 5.93718 56.0287 5.98086 53.7396 7.50694L51.0642 9.29053C50.3994 9.73377 50 10.48 50 11.279V13.3738C50 14.3095 48.9792 14.8875 48.1768 14.4061V14.4061C47.7658 14.1595 47.2477 14.1802 46.8577 14.4588L40.9205 18.6996C40.6566 18.8881 40.5 19.1925 40.5 19.5168V19.5168C40.5 20.2272 39.7825 20.713 39.1229 20.4491L38.6828 20.2731C38.2581 20.1032 37.7758 20.1644 37.407 20.4349L33.3605 23.4023C31.5623 24.721 30.5 26.8174 30.5 29.0472V35.3221C30.5 36.6732 31.2089 37.9254 32.3676 38.6205V38.6205C34.8887 40.1332 34.8496 43.8002 32.297 45.2589L30.1633 46.4781C28.5164 47.4192 27.5 49.1706 27.5 51.0675V58.5986C27.5 59.1617 27.2186 59.6876 26.75 60V60C26.2814 60.3124 26 60.8383 26 61.4014V61.5314C26 62.1408 25.7118 62.7143 25.2228 63.078L6.5 77" stroke="black" stroke-width="3" stroke-linecap="round" stroke-linejoin="round"/>
<path d="M56.8178 45.1823L104.255 76.0244C108.427 78.7372 108.516 84.8152 104.424 87.6482L65.0013 114.943C62.7507 116.501 59.7983 116.604 57.4442 115.207L9.94681 87.02C5.6732 84.4839 5.32952 78.4264 9.28883 75.4232L48.7718 45.4739C51.1239 43.6897 54.3427 43.573 56.8178 45.1823Z" fill="#AEFB43" stroke="black" stroke-linecap="round" stroke-linejoin="round"/>
<ellipse cx="60.5" cy="107.5" rx="5.5" ry="3" fill="#AABB33"/>
<ellipse cx="75.5" cy="97" rx="4.5" ry="2.5" fill="#AABB33"/>
<ellipse cx="17.5" cy="80" rx="4.5" ry="2.5" fill="#AABB33"/>
<path d="M42 32.5L41.423 26.1527C41.3254 25.079 42.8078 24.6054 43.3705 25.5251C45.008 28.2013 46.9911 31.2397 48.5 33C49.5391 34.2122 50.6156 33.6563 51.5836 32.3384C52.2742 31.3982 54.7117 31.7971 54.8163 32.9591C55.0429 35.4766 55.4142 37.719 56 38.5C57.5 40.5 69.5 39.5 69.5 32.5C69.5 29.8161 69.8063 27.025 70.1986 24.589C70.3793 23.4671 71.8891 23.5791 72.0443 24.7049C72.5114 28.0933 73.2934 31.2587 74.5 31.5C76.1104 31.8221 76.9644 30.4369 77.323 29.276C77.4606 28.8304 77.8355 28.4796 78.2807 28.6184C80.7934 29.4023 85.8571 33.7857 85.5 37C85.1261 40.3653 78.3149 40.7886 75.1138 41.7825C74.7352 41.9 74.4938 42.2557 74.4841 42.652L74.0238 61.5244C74.0106 62.067 73.5669 62.5 73.0241 62.5H43.0465C42.4764 62.5 42.0216 62.0241 42.0475 61.4546L42.9638 41.2957C42.985 40.8301 42.6831 40.4137 42.2384 40.274C39.0598 39.2748 33.7372 36.9488 33 34C32.7768 33.1071 32.6003 32.2453 32.4618 31.4451C32.2796 30.3926 33.5186 30.0481 34.0363 30.9825C35.3294 33.3164 36.7551 35.5 37.5 35.5C38.0536 35.5 38.3447 34.2942 38.4813 32.7168C38.578 31.6006 40.7181 31.0302 41.44 31.8871C41.6231 32.1043 41.8101 32.3101 42 32.5Z" fill="#DA9E66"/>
<path d="M42 32.5L41.423 26.1527C41.3254 25.079 42.8078 24.6054 43.3705 25.5251C45.008 28.2013 46.9911 31.2397 48.5 33C49.5391 34.2122 50.6156 33.6563 51.5836 32.3384C52.2742 31.3982 54.7117 31.7971 54.8163 32.9591C55.0429 35.4766 55.4142 37.719 56 38.5C57.5 40.5 69.5 39.5 69.5 32.5C69.5 29.8161 69.8063 27.025 70.1986 24.589C70.3793 23.4671 71.8891 23.5791 72.0443 24.7049C72.5114 28.0933 73.2934 31.2587 74.5 31.5C76.1104 31.8221 76.9644 30.4369 77.323 29.276C77.4606 28.8304 77.8355 28.4796 78.2807 28.6184C80.7934 29.4023 85.8571 33.7857 85.5 37C85.1261 40.3653 78.3149 40.7886 75.1138 41.7825C74.7352 41.9 74.4938 42.2557 74.4841 42.652L74.0238 61.5244C74.0106 62.067 73.5669 62.5 73.0241 62.5H43.0465C42.4764 62.5 42.0216 62.0241 42.0475 61.4546L42.9638 41.2957C42.985 40.8301 42.6831 40.4137 42.2384 40.274C39.0598 39.2748 33.7372 36.9488 33 34C32.7768 33.1071 32.6003 32.2453 32.4618 31.4451C32.2796 30.3926 33.5186 30.0481 34.0363 30.9825C35.3294 33.3164 36.7551 35.5 37.5 35.5C38.0536 35.5 38.3447 34.2942 38.4813 32.7168C38.578 31.6006 40.7181 31.0302 41.44 31.8871C41.6231 32.1043 41.8101 32.3101 42 32.5ZM42 32.5L47.2643 37.7643C47.4173 37.9173 47.5165 38.1158 47.5471 38.33L48.5 45" stroke="black" stroke-linecap="round" stroke-linejoin="round"/>
<path d="M73 33.6139V27.5001C73 26.9478 73.4477 26.5001 74 26.5001L87 26.5C87.5523 26.5 88 26.9477 88 27.5V34.0273C88 34.4018 87.7908 34.7449 87.4579 34.9164L80.9839 38.2508C80.6822 38.4062 80.3223 38.3979 80.028 38.2289L73.502 34.4811C73.1915 34.3027 73 33.972 73 33.6139Z" fill="#4DB231" stroke="black" stroke-linecap="round" stroke-linejoin="round"/>
<path d="M63 21.6139V15.5001C63 14.9478 63.4477 14.5001 64 14.5001L77 14.5C77.5523 14.5 78 14.9477 78 15.5V22.0273C78 22.4018 77.7908 22.7449 77.4579 22.9164L70.9839 26.2508C70.6822 26.4062 70.3223 26.3979 70.028 26.2289L63.502 22.4811C63.1915 22.3027 63 21.972 63 21.6139Z" fill="#4DB231" stroke="black" stroke-linecap="round" stroke-linejoin="round"/>
<path d="M51 16.9677V11.5001C51 10.9478 51.4477 10.5001 52 10.5001L64 10.5C64.5523 10.5 65 10.9477 65 11.5V17.3442C65 17.7213 64.7879 18.0663 64.4514 18.2366L58.477 21.2587C58.179 21.4095 57.8253 21.4015 57.5344 21.2374L51.5087 17.8387C51.1944 17.6614 51 17.3285 51 16.9677Z" fill="#4DB231" stroke="black" stroke-linecap="round" stroke-linejoin="round"/>
<path d="M41 25.9677V20.5001C41 19.9478 41.4477 19.5001 42 19.5001L54 19.5C54.5523 19.5 55 19.9477 55 20.5V26.3442C55 26.7213 54.7879 27.0663 54.4514 27.2366L48.477 30.2587C48.179 30.4095 47.8253 30.4015 47.5344 30.2374L41.5087 26.8387C41.1944 26.6614 41 26.3285 41 25.9677Z" fill="#4DB231" stroke="black" stroke-linecap="round" stroke-linejoin="round"/>
<path d="M31 36.6139V27.0001C31 26.4478 31.4477 26.0001 32 26.0001L45 26C45.5523 26 46 26.4477 46 27L46 37.0273C46 37.4018 45.7908 37.7449 45.4579 37.9164L38.9839 41.2508C38.6822 41.4062 38.3223 41.3979 38.028 41.2289L31.502 37.4811C31.1915 37.3027 31 36.972 31 36.6139Z" fill="#4DB231" stroke="black" stroke-linecap="round" stroke-linejoin="round"/>
<path d="M80.4214 21.8614L87.6941 26.4305C88.3077 26.8159 88.3204 27.7055 87.7182 28.1084L81.6693 32.1551C81.3536 32.3664 80.9454 32.3805 80.6158 32.1915L73.334 28.0158C72.7065 27.656 72.6568 26.7695 73.2403 26.3418L79.2982 21.9016C79.629 21.6592 80.0742 21.6432 80.4214 21.8614Z" fill="#E2FB43" stroke="black" stroke-linecap="round" stroke-linejoin="round"/>
<path d="M70.4214 9.86138L77.6941 14.4305C78.3077 14.8159 78.3204 15.7055 77.7182 16.1084L71.6693 20.1551C71.3536 20.3664 70.9454 20.3805 70.6158 20.1915L63.334 16.0158C62.7065 15.656 62.6568 14.7695 63.2403 14.3418L69.2982 9.90159C69.629 9.65919 70.0742 9.64325 70.4214 9.86138Z" fill="#E2FB43" stroke="black" stroke-linecap="round" stroke-linejoin="round"/>
<path d="M57.9456 5.84044L64.6351 9.89977C65.2661 10.2827 65.279 11.1939 64.659 11.5946L59.1186 15.1748C58.8088 15.375 58.414 15.3884 58.0913 15.2097L51.3924 11.4993C50.7477 11.1422 50.6976 10.2342 51.2991 9.80835L56.849 5.87918C57.1742 5.64896 57.605 5.63374 57.9456 5.84044Z" fill="#E2FB43" stroke="black" stroke-linecap="round" stroke-linejoin="round"/>
<path d="M47.9456 14.8404L54.6351 18.8998C55.2661 19.2827 55.279 20.1939 54.659 20.5946L49.1186 24.1748C48.8088 24.375 48.414 24.3884 48.0913 24.2097L41.3924 20.4993C40.7477 20.1422 40.6976 19.2342 41.2991 18.8084L46.849 14.8792C47.1742 14.649 47.605 14.6337 47.9456 14.8404Z" fill="#E2FB43" stroke="black" stroke-linecap="round" stroke-linejoin="round"/>
<path d="M38.4214 20.8614L45.6941 25.4305C46.3077 25.8159 46.3204 26.7055 45.7182 27.1084L39.6693 31.1551C39.3536 31.3664 38.9454 31.3805 38.6158 31.1915L31.334 27.0158C30.7065 26.656 30.6568 25.7695 31.2403 25.3418L37.2982 20.9016C37.629 20.6592 38.0742 20.6432 38.4214 20.8614Z" fill="#E2FB43" stroke="black" stroke-linecap="round" stroke-linejoin="round"/>
<path d="M48 31.9663V18.5C48 17.9477 48.4477 17.5 49 17.5H72.5C73.0523 17.5 73.5 17.9477 73.5 18.5V32.5491C73.5 32.9092 73.3064 33.2415 72.9931 33.4191L61.0239 40.203C60.7016 40.3857 60.3047 40.3752 59.9925 40.1758L48.4616 32.809C48.174 32.6253 48 32.3076 48 31.9663Z" fill="#4DB231" stroke="black" stroke-linecap="round" stroke-linejoin="round"/>
<path d="M60.0491 8.88029L72.7434 17.0971C73.3418 17.4844 73.3544 18.3555 72.7676 18.76L62.0645 26.1374C61.7438 26.3585 61.3238 26.3732 60.9883 26.175L48.2853 18.6699C47.6725 18.3079 47.6234 17.4398 48.1913 17.0109L58.903 8.92176C59.2384 8.66852 59.6963 8.65195 60.0491 8.88029Z" fill="#E2FB43" stroke="black" stroke-linecap="round" stroke-linejoin="round"/>
<path d="M43 36.2249V28.5001C43 27.9478 43.4477 27.5001 44 27.5001L54.5 27.5C55.0523 27.5 55.5 27.9477 55.5 28.5V36.576C55.5 36.9457 55.296 37.2853 54.9695 37.4589L49.7461 40.2362C49.438 40.4 49.0668 40.3914 48.7667 40.2134L43.49 37.0851C43.1863 36.905 43 36.578 43 36.2249Z" fill="#4DB231" stroke="black" stroke-linecap="round" stroke-linejoin="round"/>
<path d="M49.0341 23.8574L54.6832 27.3833C55.3 27.7683 55.3128 28.662 54.7073 29.0645L50.0516 32.1589C49.737 32.368 49.3313 32.382 49.0031 32.195L43.3448 28.9714C42.7141 28.6121 42.6643 27.7215 43.2512 27.2942L47.9159 23.8973C48.2456 23.6572 48.6881 23.6414 49.0341 23.8574Z" fill="#E2FB43" stroke="black" stroke-linecap="round" stroke-linejoin="round"/>
<path d="M33 34C33.7887 37.1549 39.8262 39.5969 42.8712 40.4638C42.9582 40.4885 43.0459 40.5 43.1363 40.5H44.5659C45.5664 40.5 45.9469 39.1935 45.1028 38.6563L42.9631 37.2947C42.6747 37.1112 42.5 36.793 42.5 36.4511V32.9142C42.5 32.649 42.3937 32.3958 42.2116 32.203C42.0579 32.0403 41.9025 31.8689 41.7467 31.6912C41.0081 30.8486 38.578 31.6006 38.4813 32.7168C38.3447 34.2942 38.0536 35.5 37.5 35.5C36.7551 35.5 35.3294 33.3164 34.0363 30.9825C33.5186 30.0481 32.2796 30.3926 32.4618 31.4451C32.6003 32.2453 32.7768 33.1071 33 34Z" fill="#DA9E66"/>
<path d="M43 33C42.6282 32.6282 42.2131 32.1681 41.7887 31.6663C41.0652 30.8107 38.578 31.6006 38.4813 32.7168C38.3447 34.2942 38.0536 35.5 37.5 35.5C36.7551 35.5 35.3294 33.3164 34.0363 30.9825C33.5186 30.0481 32.2796 30.3926 32.4618 31.4451C32.6003 32.2453 32.7768 33.1071 33 34C33.8 37.2 40 39.6667 43 40.5" stroke="black" stroke-linecap="round" stroke-linejoin="round"/>
<path d="M70.5 30C70.1746 32.2777 69.4963 34.1584 68.6265 35.8574C68.3269 36.4427 68.623 37.1699 69.2573 37.3429L72.4324 38.2088C73.0037 38.3647 73.5846 37.9926 73.6819 37.4085L73.9864 35.5816C73.9954 35.5273 74 35.4723 74 35.4172V21.5C74 20.9477 73.5523 20.5 73 20.5H72.8198C72.3431 20.5 71.9365 20.8348 71.8564 21.3047C71.5516 23.0925 70.9124 27.1132 70.5 30Z" fill="#DA9E66"/>
<path d="M68 37C69.1667 35 70.1 32.8 70.5 30C70.9124 27.1132 71.5516 23.0925 71.8564 21.3047C71.9365 20.8348 72.3431 20.5 72.8198 20.5H73C73.5523 20.5 74 20.9477 74 21.5V35.4172C74 35.4723 73.9954 35.5273 73.9864 35.5816L73.5 38.5" stroke="black" stroke-linecap="round" stroke-linejoin="round"/>
<path d="M55.5 36.7778C55.7272 37.6614 56.1265 38.4374 56.6429 39.1467C57.1323 39.8188 56.8046 40.8478 55.9826 40.9723L53.3582 41.37C52.8659 41.4446 52.3937 41.1456 52.2506 40.6686L52.0422 39.9739C52.0142 39.8807 52 39.7839 52 39.6866V32.5C52 31.9477 52.4477 31.5 53 31.5H53.2972C53.7189 31.5 54.0894 31.7653 54.2111 32.1691C54.5353 33.2446 55.116 35.2843 55.5 36.7778Z" fill="#DA9E66"/>
<path d="M58 40.6667C56.8333 39.5556 55.9 38.3333 55.5 36.7778C55.116 35.2843 54.5353 33.2446 54.2111 32.1691C54.0894 31.7653 53.7189 31.5 53.2972 31.5H53C52.4477 31.5 52 31.9477 52 32.5V39.6866C52 39.7839 52.0142 39.8807 52.0422 39.9739L52.4578 41.3594C52.4858 41.4526 52.5 41.5494 52.5 41.6468V53.5" stroke="black" stroke-linecap="round" stroke-linejoin="round"/>
<path d="M55 42.5484V37.5001C55 36.9478 55.4477 36.5001 56 36.5001L66.5 36.5C67.0523 36.5 67.5 36.9477 67.5 37.5V42.8994C67.5 43.2692 67.296 43.6088 66.9695 43.7824L61.7461 46.5597C61.438 46.7235 61.0668 46.7149 60.7667 46.5369L55.49 43.4086C55.1863 43.2285 55 42.9015 55 42.5484Z" fill="#4DB231" stroke="black" stroke-linecap="round" stroke-linejoin="round"/>
<path d="M61.0341 32.8574L66.6832 36.3833C67.3 36.7683 67.3128 37.662 66.7073 38.0645L62.0516 41.1589C61.737 41.368 61.3313 41.382 61.0031 41.195L55.3448 37.9714C54.7141 37.6121 54.6643 36.7215 55.2512 36.2942L59.9159 32.8973C60.2456 32.6572 60.6881 32.6414 61.0341 32.8574Z" fill="#E2FB43" stroke="black" stroke-linecap="round" stroke-linejoin="round"/>
<path d="M90.0981 83.6497L92.7955 74.016C93.0429 73.1327 92.0696 72.4103 91.2957 72.9028L82.8762 78.2606C82.6368 78.413 82.4733 78.6599 82.4267 78.9399L80.8858 88.185C80.741 89.0543 81.7096 89.6723 82.4369 89.1747L89.6998 84.2054C89.8937 84.0727 90.0347 83.876 90.0981 83.6497Z" fill="#3BACC8" stroke="black" stroke-linecap="round" stroke-linejoin="round"/>
<path d="M71.9598 83.0374L71.1645 73.8914C71.0948 73.0897 71.9522 72.5382 72.6528 72.9342L81.881 78.1501C82.2516 78.3596 82.449 78.7807 82.3728 79.1996L80.7803 87.9582C80.6496 88.6773 79.8168 89.0178 79.2198 88.5963L72.3793 83.7678C72.1388 83.598 71.9853 83.3308 71.9598 83.0374Z" fill="#30A4CF" stroke="black" stroke-linecap="round" stroke-linejoin="round"/>
<path d="M80.5211 65.2509L91.8806 70.7203C92.587 71.0604 92.6451 72.0441 91.9837 72.4649L83.0142 78.1728C82.6984 78.3737 82.2968 78.3815 81.9735 78.1929L71.8654 72.2965C71.2312 71.9265 71.1986 71.022 71.8046 70.6074L79.5226 65.3266C79.818 65.1246 80.1987 65.0957 80.5211 65.2509Z" fill="#54CBF0" stroke="black" stroke-linecap="round" stroke-linejoin="round"/>
<path d="M62.9994 68.792L52.96 74.6483C52.3032 75.0315 52.2974 75.9784 52.9494 76.3696L66.0376 84.2225C66.3262 84.3957 66.6826 84.4121 66.9859 84.2661L78.2926 78.8221C79.017 78.4733 79.0545 77.4556 78.3577 77.0545L64.0022 68.7892C63.6916 68.6103 63.309 68.6114 62.9994 68.792Z" fill="#406A80" stroke="black" stroke-linecap="round" stroke-linejoin="round"/>
<path d="M24.9606 83.4878L24.1485 72.9302C24.0862 72.1206 24.9638 71.5783 25.66 71.996L41.0145 81.2087C41.3157 81.3894 41.5 81.7149 41.5 82.0662V92.2246C41.5 93.0039 40.6481 93.4837 39.9817 93.0798L25.4394 84.2663C25.1636 84.0991 24.9853 83.8093 24.9606 83.4878Z" fill="#61AB6D" stroke="black" stroke-linecap="round" stroke-linejoin="round"/>
<path d="M89.5 67.9234V60.1952C89.5 59.4337 88.6828 58.9516 88.0163 59.3199L71.0163 68.7147C70.6978 68.8907 70.5 69.2259 70.5 69.5899V77.7656C70.5 78.5359 71.3344 79.0169 72.001 78.631L89.001 68.7889C89.3099 68.6101 89.5 68.2803 89.5 67.9234Z" fill="#EE482C" stroke="black" stroke-linecap="round" stroke-linejoin="round"/>
<path d="M59.5 73.382V65.553C59.5 64.8257 60.2517 64.3417 60.9138 64.6426L69.9138 68.7335C70.2708 68.8958 70.5 69.2518 70.5 69.6439V77.882C70.5 78.6253 69.7177 79.1088 69.0528 78.7764L60.0528 74.2764C59.714 74.107 59.5 73.7607 59.5 73.382Z" fill="#A02B10" stroke="black" stroke-linecap="round" stroke-linejoin="round"/>
<path d="M79.5 89.4027V79.618C79.5 78.8747 78.7177 78.3912 78.0528 78.7236L67.0528 84.2236C66.714 84.393 66.5 84.7393 66.5 85.118V95.3258C66.5 96.0825 67.3079 96.565 67.9741 96.2063L78.9741 90.2832C79.298 90.1088 79.5 89.7706 79.5 89.4027Z" fill="#278081" stroke="black" stroke-linecap="round" stroke-linejoin="round"/>
<path d="M34.013 66.2319L25.6829 70.1986C24.9626 70.5416 24.9142 71.5485 25.5983 71.959L40.9946 81.1967C41.3065 81.3839 41.6953 81.3869 42.0101 81.2047L49.5392 76.8457C50.1968 76.465 50.2063 75.5189 49.5564 75.1251L34.9613 66.2796C34.6734 66.1051 34.317 66.0872 34.013 66.2319Z" fill="#AED18A" stroke="black" stroke-linecap="round" stroke-linejoin="round"/>
<path d="M50.4899 75.8222L42.8733 80.6327C42.2435 81.0304 42.254 81.9524 42.8928 82.3357L56.0293 90.2176C56.3225 90.3935 56.6852 90.4074 56.991 90.2545L65.8353 85.8324C66.5483 85.4758 66.5779 84.4691 65.887 84.0713L51.5229 75.801C51.2013 75.6159 50.8036 75.624 50.4899 75.8222Z" fill="#D9D9D9" stroke="black" stroke-linecap="round" stroke-linejoin="round"/>
<path d="M44 77.438V69.5867C44 68.851 44.7677 68.3672 45.4315 68.6846L54.9315 73.2281C55.2789 73.3942 55.5 73.7451 55.5 74.1302V83.2206C55.5 84.0008 54.6465 84.4804 53.9801 84.0748L44.4801 78.2922C44.1819 78.1107 44 77.787 44 77.438Z" fill="#99D4E9" stroke="black" stroke-linecap="round" stroke-linejoin="round"/>
<path d="M27.5 68.4219V60.7297C27.5 59.9604 28.3323 59.4792 28.999 59.863L43.499 68.2115C43.8089 68.39 44 68.7205 44 69.0781V76.7703C44 77.5396 43.1677 78.0208 42.501 77.637L28.001 69.2885C27.6911 69.11 27.5 68.7795 27.5 68.4219Z" fill="#FDC468" stroke="black" stroke-linecap="round" stroke-linejoin="round"/>
<path d="M41.5 93.4338V83.2662C41.5 82.4889 42.348 82.0088 43.0145 82.4087L56.0145 90.2087C56.3157 90.3894 56.5 90.7149 56.5 91.0662V101.234C56.5 102.011 55.652 102.491 54.9855 102.091L41.9855 94.2913C41.6843 94.1106 41.5 93.7851 41.5 93.4338Z" fill="#AFCA94" stroke="black" stroke-linecap="round" stroke-linejoin="round"/>
<path d="M67.5 77.4256V68.1789C67.5 67.4212 66.69 66.9387 66.0237 67.2997L56.0237 72.7163C55.701 72.8911 55.5 73.2286 55.5 73.5956V83.259C55.5 84.0308 56.3372 84.5116 57.0039 84.1227L67.0039 78.2894C67.3111 78.1102 67.5 77.7813 67.5 77.4256Z" fill="#2C8A8D" stroke="black" stroke-linecap="round" stroke-linejoin="round"/>
<path d="M56.9838 61.2419L65.7821 65.6411C66.5057 66.0029 66.5226 67.0295 65.8112 67.4148L55.9373 72.7631C55.6619 72.9123 55.3324 72.9238 55.0472 72.7942L46.26 68.8C45.5213 68.4642 45.469 67.4347 46.1699 67.0259L56.0327 61.2726C56.3243 61.1025 56.6819 61.091 56.9838 61.2419Z" fill="#74D8DB" stroke="black" stroke-linecap="round" stroke-linejoin="round"/>
<path d="M28.5 58.9234V49.2344C28.5 48.4641 29.3344 47.9831 30.001 48.369L37.501 52.7111C37.8099 52.8899 38 53.2197 38 53.5766V63.2656C38 64.0359 37.1656 64.5169 36.499 64.131L28.999 59.7889C28.6901 59.6101 28.5 59.2803 28.5 58.9234Z" stroke="black" stroke-linecap="round" stroke-linejoin="round"/>
<path d="M28.5 58.9234V49.2344C28.5 48.4641 29.3344 47.9831 30.001 48.369L37.501 52.7111C37.8099 52.8899 38 53.2197 38 53.5766V63.2656C38 64.0359 37.1656 64.5169 36.499 64.131L28.999 59.7889C28.6901 59.6101 28.5 59.2803 28.5 58.9234Z" fill="#FEE445" stroke="black" stroke-linecap="round" stroke-linejoin="round"/>
<path d="M38.0055 42.772L30.1284 47.1044C29.4303 47.4883 29.4396 48.4945 30.1445 48.8655L37.546 52.761C37.831 52.911 38.1708 52.9146 38.4589 52.7705L46.34 48.83C47.0521 48.4739 47.0829 47.469 46.3939 47.0701L38.9884 42.7828C38.6853 42.6073 38.3124 42.6032 38.0055 42.772Z" fill="#FEF169" stroke="black" stroke-linecap="round" stroke-linejoin="round"/>
<path d="M67 96.4197V86.6527C67 85.901 66.2018 85.4181 65.536 85.7669L57.036 90.2192C56.7065 90.3918 56.5 90.7331 56.5 91.1051V101.277C56.5 102.045 57.3295 102.526 57.9961 102.145L66.4961 97.2879C66.8077 97.1099 67 96.7785 67 96.4197Z" fill="#75AE84" stroke="black" stroke-linecap="round" stroke-linejoin="round"/>
<path d="M37.5 63.9234V54.6564C37.5 53.9039 38.2998 53.421 38.9657 53.7714L46.4657 57.7188C46.7943 57.8917 47 58.2325 47 58.6037V68.2656C47 69.0359 46.1656 69.5169 45.499 69.131L37.999 64.7889C37.6901 64.6101 37.5 64.2803 37.5 63.9234Z" fill="#FD6A7D" stroke="black" stroke-linecap="round" stroke-linejoin="round"/>
<path d="M56 63.9234V54.6564C56 53.9039 55.2002 53.421 54.5343 53.7714L47.0343 57.7188C46.7057 57.8917 46.5 58.2325 46.5 58.6037V68.2656C46.5 69.0359 47.3344 69.5169 48.001 69.131L55.501 64.7889C55.8099 64.6101 56 64.2803 56 63.9234Z" fill="#DF4D76" stroke="black" stroke-linecap="round" stroke-linejoin="round"/>
<path d="M89.5 57.9234V48.6564C89.5 47.9039 88.7002 47.421 88.0343 47.7714L80.5343 51.7188C80.2057 51.8917 80 52.2325 80 52.6037V62.2656C80 63.0359 80.8344 63.5169 81.501 63.131L89.001 58.7889C89.3099 58.6101 89.5 58.2803 89.5 57.9234Z" fill="#9BD3E9" stroke="black" stroke-linecap="round" stroke-linejoin="round"/>
<path d="M79.5 62.9234V53.6564C79.5 52.9039 78.7002 52.421 78.0343 52.7714L70.5343 56.7188C70.2057 56.8917 70 57.2325 70 57.6037V67.2656C70 68.0359 70.8344 68.5169 71.501 68.131L79.001 63.7889C79.3099 63.6101 79.5 63.2803 79.5 62.9234Z" fill="#DF4D76" stroke="black" stroke-linecap="round" stroke-linejoin="round"/>
<path d="M47.0055 47.772L39.1284 52.1044C38.4303 52.4883 38.4396 53.4945 39.1445 53.8655L46.546 57.761C46.831 57.911 47.1708 57.9146 47.4589 57.7705L55.34 53.83C56.0521 53.4739 56.0829 52.469 55.3939 52.0701L47.9884 47.7828C47.6853 47.6073 47.3124 47.6032 47.0055 47.772Z" fill="#FD728D" stroke="black" stroke-linecap="round" stroke-linejoin="round"/>
<path d="M80.5055 41.772L72.6284 46.1044C71.9303 46.4883 71.9396 47.4945 72.6445 47.8655L80.046 51.761C80.331 51.911 80.6708 51.9146 80.9589 51.7705L88.84 47.83C89.5521 47.4739 89.5829 46.469 88.8939 46.0701L81.4884 41.7828C81.1853 41.6073 80.8124 41.6032 80.5055 41.772Z" fill="#71DAFB" stroke="black" stroke-linecap="round" stroke-linejoin="round"/>
<path d="M70.5055 46.772L62.6284 51.1044C61.9303 51.4883 61.9396 52.4945 62.6445 52.8655L70.046 56.761C70.331 56.911 70.6708 56.9146 70.9589 56.7705L78.84 52.83C79.5521 52.4739 79.5829 51.469 78.8939 51.0701L71.4884 46.7828C71.1853 46.6073 70.8124 46.6032 70.5055 46.772Z" fill="#FD728D" stroke="black" stroke-linecap="round" stroke-linejoin="round"/>
<path d="M51 67.9234V58.6564C51 57.9039 51.7998 57.421 52.4657 57.7714L59.9657 61.7188C60.2943 61.8917 60.5 62.2325 60.5 62.6037V72.2656C60.5 73.0359 59.6656 73.5169 58.999 73.131L51.499 68.7889C51.1901 68.6101 51 68.2803 51 67.9234Z" fill="#FD6E42" stroke="black" stroke-linecap="round" stroke-linejoin="round"/>
<path d="M69.5 67.9234V58.6564C69.5 57.9039 68.7002 57.421 68.0343 57.7714L60.5343 61.7188C60.2057 61.8917 60 62.2325 60 62.6037V72.2656C60 73.0359 60.8344 73.5169 61.501 73.131L69.001 68.7889C69.3099 68.6101 69.5 68.2803 69.5 67.9234Z" fill="#D93A26" stroke="black" stroke-linecap="round" stroke-linejoin="round"/>
<path d="M60.5055 51.772L52.6284 56.1044C51.9303 56.4883 51.9396 57.4945 52.6445 57.8655L60.046 61.761C60.331 61.911 60.6708 61.9146 60.9589 61.7705L68.84 57.83C69.5521 57.4739 69.5829 56.469 68.8939 56.0701L61.4884 51.7828C61.1853 51.6073 60.8124 51.6032 60.5055 51.772Z" fill="#FC9F34" stroke="black" stroke-linecap="round" stroke-linejoin="round"/>
<path d="M107 79.5V92.9208C107 95.1685 105.921 97.2795 104.098 98.5956L65.0559 126.793C62.7826 128.435 59.749 128.562 57.3467 127.115L9.88925 98.5407C7.78608 97.2744 6.5 94.9988 6.5 92.5438V79.5" stroke="black" stroke-linecap="round" stroke-linejoin="round"/>
</svg>
