<svg width="116" height="125" viewBox="0 0 116 125" fill="none" xmlns="http://www.w3.org/2000/svg">
<mask id="path-1-outside-1_22057_2318" maskUnits="userSpaceOnUse" x="0" y="0.221191" width="116" height="125" fill="black">
<rect fill="white" y="0.221191" width="116" height="125"/>
<path d="M20.6698 94.8173L13.0493 81.9576C12.9793 81.8395 12.9342 81.7078 12.9176 81.5715C12.1405 75.1697 12.5786 69.3928 12.9189 67.1245C12.9347 67.019 12.9342 66.9136 12.9179 66.8081C12.2358 62.3914 13.0325 57.9273 13.7021 55.5681C13.8459 55.0615 13.6066 54.5168 13.1405 54.2717C10.6805 52.9785 6.81579 50.0246 6.11594 45.8255C5.44446 41.7966 7.82983 40.3469 9.66395 40.0088C10.1599 39.9173 10.5856 39.5491 10.6654 39.0511C11.8684 31.5485 15.7749 29.84 18.3392 29.9386C18.9159 29.9607 19.477 29.608 19.6709 29.0644C20.4064 27.0016 21.8409 26.4271 23.0347 26.427C23.6911 26.427 24.3723 26.0114 24.4628 25.3613C25.1342 20.5369 26.9732 14.2757 29.2245 13.3752L33.3032 11.7438C33.7793 11.5534 34.0334 11.033 33.8797 10.5439C33.0403 7.87387 32.7532 7.38616 38.5663 6.49178C39.4707 6.35263 48.0694 6.74837 48.9238 7.07594C49.2258 7.19172 49.5425 7.32428 49.8745 7.47518C54.2952 9.48457 54.774 15.4358 54.8015 17.5425C54.8073 17.9878 55.0799 18.3944 55.4983 18.5469C57.318 19.2101 62.2071 21.0386 64.882 22.4858C65.6245 22.8876 66.9339 22.4777 67.1615 21.6648L69.816 12.1846C69.9428 11.7316 70.3682 11.4283 70.8378 11.456L103.149 13.3598C103.321 13.3699 103.486 13.4221 103.628 13.5192C106.47 15.466 111.284 21.0572 109.367 29.1087C107.591 36.5701 103.541 40.0464 101.204 41.1321C100.805 41.3171 100.517 41.7001 100.517 42.1391V49.1232C100.517 49.2188 100.531 49.3138 100.558 49.4055L103.37 58.9625C103.397 59.0542 103.411 59.1493 103.411 59.2448V77.1551C103.411 77.2463 103.398 77.3371 103.374 77.425L100.596 87.3338C100.545 87.5191 100.44 87.6854 100.296 87.8129L87.7332 98.9261L64.5993 118.218C64.2841 118.481 63.8403 118.525 63.48 118.328L21.0512 95.1854C20.8933 95.0992 20.7615 94.972 20.6698 94.8173Z"/>
</mask>
<path d="M20.6698 94.8173L13.0493 81.9576C12.9793 81.8395 12.9342 81.7078 12.9176 81.5715C12.1405 75.1697 12.5786 69.3928 12.9189 67.1245C12.9347 67.019 12.9342 66.9136 12.9179 66.8081C12.2358 62.3914 13.0325 57.9273 13.7021 55.5681C13.8459 55.0615 13.6066 54.5168 13.1405 54.2717C10.6805 52.9785 6.81579 50.0246 6.11594 45.8255C5.44446 41.7966 7.82983 40.3469 9.66395 40.0088C10.1599 39.9173 10.5856 39.5491 10.6654 39.0511C11.8684 31.5485 15.7749 29.84 18.3392 29.9386C18.9159 29.9607 19.477 29.608 19.6709 29.0644C20.4064 27.0016 21.8409 26.4271 23.0347 26.427C23.6911 26.427 24.3723 26.0114 24.4628 25.3613C25.1342 20.5369 26.9732 14.2757 29.2245 13.3752L33.3032 11.7438C33.7793 11.5534 34.0334 11.033 33.8797 10.5439C33.0403 7.87387 32.7532 7.38616 38.5663 6.49178C39.4707 6.35263 48.0694 6.74837 48.9238 7.07594C49.2258 7.19172 49.5425 7.32428 49.8745 7.47518C54.2952 9.48457 54.774 15.4358 54.8015 17.5425C54.8073 17.9878 55.0799 18.3944 55.4983 18.5469C57.318 19.2101 62.2071 21.0386 64.882 22.4858C65.6245 22.8876 66.9339 22.4777 67.1615 21.6648L69.816 12.1846C69.9428 11.7316 70.3682 11.4283 70.8378 11.456L103.149 13.3598C103.321 13.3699 103.486 13.4221 103.628 13.5192C106.47 15.466 111.284 21.0572 109.367 29.1087C107.591 36.5701 103.541 40.0464 101.204 41.1321C100.805 41.3171 100.517 41.7001 100.517 42.1391V49.1232C100.517 49.2188 100.531 49.3138 100.558 49.4055L103.37 58.9625C103.397 59.0542 103.411 59.1493 103.411 59.2448V77.1551C103.411 77.2463 103.398 77.3371 103.374 77.425L100.596 87.3338C100.545 87.5191 100.44 87.6854 100.296 87.8129L87.7332 98.9261L64.5993 118.218C64.2841 118.481 63.8403 118.525 63.48 118.328L21.0512 95.1854C20.8933 95.0992 20.7615 94.972 20.6698 94.8173Z" fill="#AA7755"/>
<path d="M13.0493 81.9576L7.88751 85.0164L7.88751 85.0164L13.0493 81.9576ZM20.6698 94.8173L25.8315 91.7585L25.8315 91.7585L20.6698 94.8173ZM21.0512 95.1854L18.1781 100.453L18.1781 100.453L21.0512 95.1854ZM63.48 118.328L66.3532 113.061L66.3531 113.061L63.48 118.328ZM64.5993 118.218L68.4421 122.826H68.4421L64.5993 118.218ZM87.7332 98.9261L91.576 103.534C91.6208 103.497 91.665 103.459 91.7086 103.42L87.7332 98.9261ZM100.296 87.8129L96.3208 83.3189L96.3208 83.3189L100.296 87.8129ZM100.596 87.3338L106.374 88.9532L106.374 88.953L100.596 87.3338ZM103.374 77.425L109.151 79.0442L109.151 79.0442L103.374 77.425ZM103.37 58.9625L97.6142 60.6564L97.6143 60.6567L103.37 58.9625ZM100.558 49.4055L106.314 47.7116L106.313 47.7113L100.558 49.4055ZM101.204 41.1321L103.732 46.5736L103.732 46.5736L101.204 41.1321ZM109.367 29.1087L103.53 27.719V27.719L109.367 29.1087ZM103.628 13.5192L107.018 8.5692L107.018 8.56919L103.628 13.5192ZM103.149 13.3598L102.796 19.3494L102.796 19.3494L103.149 13.3598ZM70.8378 11.456L71.1907 5.46634V5.46634L70.8378 11.456ZM69.816 12.1846L75.5938 13.8024V13.8024L69.816 12.1846ZM67.1615 21.6648L61.3838 20.047L61.3838 20.047L67.1615 21.6648ZM64.882 22.4858L67.7372 17.2087L67.7371 17.2087L64.882 22.4858ZM55.4983 18.5469L53.4436 24.1841L53.4436 24.1841L55.4983 18.5469ZM54.8015 17.5425L48.802 17.6207V17.6207L54.8015 17.5425ZM49.8745 7.47518L52.3573 2.01298L52.3573 2.01297L49.8745 7.47518ZM48.9238 7.07594L51.0717 1.47357L51.0717 1.47356L48.9238 7.07594ZM38.5663 6.49178L37.6539 0.561556H37.6539L38.5663 6.49178ZM33.8797 10.5439L28.1558 12.3433L28.1558 12.3433L33.8797 10.5439ZM33.3032 11.7438L35.5315 17.3147L35.5316 17.3146L33.3032 11.7438ZM29.2245 13.3752L31.4527 18.9462L31.4528 18.9461L29.2245 13.3752ZM24.4628 25.3613L30.4055 26.1883L30.4055 26.1883L24.4628 25.3613ZM23.0347 26.427L23.035 32.427H23.035L23.0347 26.427ZM19.6709 29.0644L14.0194 27.0493L19.6709 29.0644ZM18.3392 29.9386L18.1088 35.9341H18.1088L18.3392 29.9386ZM10.6654 39.0511L16.5897 40.0011V40.0011L10.6654 39.0511ZM9.66395 40.0088L8.57606 34.1082L8.57605 34.1082L9.66395 40.0088ZM6.11594 45.8255L12.0343 44.8391L6.11594 45.8255ZM13.1405 54.2717L10.3485 59.5826L10.3485 59.5826L13.1405 54.2717ZM13.7021 55.5681L7.93013 53.9297L7.93013 53.9297L13.7021 55.5681ZM12.9179 66.8081L6.98823 67.724L6.98824 67.724L12.9179 66.8081ZM12.9189 67.1245L18.8525 68.0146L18.8525 68.0145L12.9189 67.1245ZM12.9176 81.5715L6.96137 82.2946L6.96137 82.2946L12.9176 81.5715ZM7.88751 85.0164L15.508 97.8761L25.8315 91.7585L18.211 78.8988L7.88751 85.0164ZM18.1781 100.453L60.6069 123.596L66.3531 113.061L23.9243 89.918L18.1781 100.453ZM68.4421 122.826L91.576 103.534L83.8905 94.3181L60.7566 113.61L68.4421 122.826ZM91.7086 103.42L104.272 92.3069L96.3208 83.3189L83.7578 94.4321L91.7086 103.42ZM106.374 88.953L109.151 79.0442L97.5963 75.8057L94.8191 85.7145L106.374 88.953ZM109.411 77.1551V59.2448H97.4108V77.1551H109.411ZM109.126 57.2686L106.314 47.7116L94.8017 51.0994L97.6142 60.6564L109.126 57.2686ZM106.517 49.1232V42.1391H94.5169V49.1232H106.517ZM103.732 46.5736C107.871 44.6503 113.039 39.5919 115.204 30.4985L103.53 27.719C102.142 33.5484 99.2098 35.4425 98.6757 35.6907L103.732 46.5736ZM115.204 30.4985C117.893 19.2052 111.106 11.3691 107.018 8.5692L100.237 18.4692C101.834 19.563 104.675 22.9092 103.53 27.719L115.204 30.4985ZM103.502 7.37022L71.1907 5.46634L70.4849 17.4456L102.796 19.3494L103.502 7.37022ZM64.0382 10.5668L61.3838 20.047L72.9393 23.2825L75.5938 13.8024L64.0382 10.5668ZM67.7371 17.2087C64.6036 15.5133 59.2793 13.5389 57.553 12.9097L53.4436 24.1841C55.3567 24.8814 59.8106 26.5639 62.0268 27.7629L67.7371 17.2087ZM60.801 17.4643C60.7835 16.1194 60.6309 13.3998 59.6705 10.5538C58.7158 7.72511 56.6724 3.97436 52.3573 2.01298L47.3917 12.9374C47.4973 12.9854 47.9036 13.2149 48.3005 14.3909C48.6915 15.5495 48.7921 16.8589 48.802 17.6207L60.801 17.4643ZM52.3573 2.01297C51.922 1.81509 51.4935 1.63528 51.0717 1.47357L46.7759 12.6783C46.9581 12.7482 47.1631 12.8335 47.3917 12.9374L52.3573 2.01297ZM37.6539 0.561556C36.1804 0.788263 34.8133 1.02868 33.6766 1.34043C32.7337 1.59904 30.8862 2.16305 29.4196 3.67644C27.4578 5.70076 27.2953 8.11524 27.4862 9.65066C27.6256 10.7711 28.0396 11.9736 28.1558 12.3433L39.6035 8.74449C39.479 8.34838 39.4205 8.16681 39.3735 8.00119C39.3274 7.83865 39.3657 7.93814 39.3945 8.16954C39.4248 8.41292 39.4745 9.02098 39.2762 9.8016C39.0571 10.6639 38.6131 11.433 38.037 12.0275C37.521 12.5599 37.0396 12.8081 36.8705 12.8879C36.6989 12.969 36.6552 12.9667 36.8505 12.9131C37.2686 12.7984 38.0456 12.6425 39.4787 12.422L37.6539 0.561556ZM31.0748 6.17293L26.9962 7.80437L31.4528 18.9461L35.5315 17.3147L31.0748 6.17293ZM26.9963 7.80432C24.6493 8.74307 23.2613 10.6255 22.5556 11.7401C21.7379 13.0318 21.1028 14.4906 20.609 15.8558C19.6134 18.6079 18.9007 21.7994 18.5201 24.5343L30.4055 26.1883C30.6963 24.0988 31.2387 21.7474 31.8934 19.9378C32.2246 19.022 32.5134 18.4452 32.6946 18.1589C32.988 17.6956 32.6741 18.4576 31.4527 18.9462L26.9963 7.80432ZM23.0343 20.427C21.4868 20.4271 19.6111 20.8028 17.8433 21.9862C16.0324 23.1984 14.759 24.9751 14.0194 27.0493L25.3224 31.0795C25.3279 31.064 25.287 31.1835 25.1482 31.3697C25.0054 31.5611 24.7964 31.7722 24.5186 31.9582C23.9503 32.3386 23.3888 32.427 23.035 32.427L23.0343 20.427ZM18.5696 23.943C15.8365 23.838 12.6168 24.7175 9.89534 27.2605C7.20699 29.7726 5.48731 33.4473 4.74109 38.1012L16.5897 40.0011C17.0465 37.1523 17.8816 36.2215 18.0883 36.0283C18.262 35.8661 18.2777 35.9406 18.1088 35.9341L18.5696 23.943ZM8.57605 34.1082C6.72904 34.4487 4.20539 35.4083 2.30288 37.7382C0.255599 40.2455 -0.36106 43.4601 0.197579 46.8119L12.0343 44.8391C11.9703 44.4549 12.0233 44.3998 11.9852 44.5707C11.9419 44.765 11.8249 45.0499 11.5978 45.328C11.3851 45.5885 11.1639 45.7363 11.0225 45.8102C10.891 45.879 10.8001 45.9004 10.7519 45.9093L8.57605 34.1082ZM0.197579 46.8119C0.806799 50.4672 2.73904 53.3036 4.62939 55.2826C6.52541 57.2676 8.66457 58.6973 10.3485 59.5826L15.9324 48.9609C15.1564 48.5529 14.1332 47.8591 13.3069 46.994C12.475 46.123 12.1249 45.3829 12.0343 44.8391L0.197579 46.8119ZM7.93013 53.9297C7.1189 56.7877 6.13036 62.1694 6.98823 67.724L18.8476 65.8923C18.3412 62.6135 18.946 59.0669 19.4741 57.2065L7.93013 53.9297ZM6.98526 66.2345C6.57434 68.9739 6.11182 75.2967 6.96137 82.2946L18.8739 80.8484C18.1691 75.0427 18.5829 69.8117 18.8525 68.0146L6.98526 66.2345ZM4.74109 38.1012C5.13577 35.6397 7.05688 34.3883 8.57606 34.1082L10.7519 45.9093C13.263 45.4463 16.0354 43.4585 16.5897 40.0011L4.74109 38.1012ZM14.0194 27.0493C14.7713 24.9405 16.7261 23.8722 18.5696 23.943L18.1088 35.9341C21.1057 36.0493 24.1828 34.2755 25.3224 31.0795L14.0194 27.0493ZM18.5201 24.5342C18.7492 22.8881 19.7069 21.7936 20.5128 21.2277C21.2861 20.6846 22.1621 20.427 23.0343 20.427L23.035 32.427C25.5178 32.4269 29.7596 30.8298 30.4055 26.1883L18.5201 24.5342ZM28.1558 12.3433C27.3459 9.76689 28.7095 7.11913 31.0747 6.17298L35.5316 17.3146C38.849 15.9876 40.721 12.2992 39.6035 8.74448L28.1558 12.3433ZM51.0717 1.47356C50.1837 1.13313 49.2231 1.02469 49.0527 1.00228C48.6071 0.943689 48.0976 0.893006 47.587 0.84903C46.5537 0.760035 45.2965 0.680058 44.0735 0.61684C42.8464 0.553405 41.6033 0.504259 40.5896 0.480004C40.0862 0.467961 39.6076 0.461261 39.2015 0.463593C38.9663 0.464943 38.2805 0.46515 37.6539 0.561556L39.4787 12.422C39.0782 12.4836 38.8589 12.4658 39.2704 12.4634C39.511 12.462 39.8592 12.466 40.3025 12.4766C41.1821 12.4976 42.3117 12.5418 43.4541 12.6008C44.6006 12.6601 45.7099 12.7318 46.5574 12.8048C46.9871 12.8418 47.2967 12.8747 47.4884 12.8999C47.5867 12.9128 47.602 12.917 47.5601 12.9091C47.5379 12.9049 47.4673 12.8912 47.3646 12.8655C47.2811 12.8446 47.0603 12.7873 46.7759 12.6783L51.0717 1.47356ZM57.553 12.9097C59.6139 13.6609 60.7762 15.5665 60.801 17.4643L48.802 17.6207C48.8384 20.4091 50.5458 23.1279 53.4436 24.1841L57.553 12.9097ZM107.018 8.56919C105.896 7.80067 104.66 7.43842 103.502 7.37022L102.796 19.3494C101.982 19.3014 101.075 19.0436 100.237 18.4692L107.018 8.56919ZM106.517 42.1391C106.517 44.4367 105.061 45.9561 103.732 46.5736L98.6757 35.6906C96.5502 36.6781 94.5169 38.9635 94.5169 42.1391H106.517ZM106.313 47.7113C106.448 48.1701 106.517 48.6455 106.517 49.1232H94.5169C94.5169 49.792 94.6128 50.4576 94.8018 51.0997L106.313 47.7113ZM109.411 59.2448C109.411 58.576 109.315 57.9104 109.126 57.2683L97.6143 60.6567C97.4792 60.1979 97.4108 59.7225 97.4108 59.2448H109.411ZM104.272 92.3069C105.28 91.4145 106.01 90.25 106.374 88.9532L94.8192 85.7144C95.0788 84.7882 95.6001 83.9564 96.3208 83.3189L104.272 92.3069ZM60.6069 123.596C63.1291 124.971 66.2357 124.666 68.4421 122.826L60.7566 113.61C62.3326 112.296 64.5516 112.078 66.3532 113.061L60.6069 123.596ZM61.3838 20.047C62.0067 17.8221 63.7066 17.048 64.2684 16.8553C64.8809 16.6452 66.208 16.3813 67.7372 17.2087L62.0267 27.7629C64.2985 28.9921 66.6515 28.7241 68.1613 28.2063C69.6203 27.7059 72.0887 26.3204 72.9393 23.2825L61.3838 20.047ZM6.98824 67.724C6.91366 67.2411 6.90979 66.7376 6.98526 66.2345L18.8525 68.0145C18.9596 67.3004 18.9548 66.5861 18.8476 65.8923L6.98824 67.724ZM15.508 97.8761C16.1501 98.9595 17.0725 99.8497 18.1781 100.453L23.9244 89.918C24.7141 90.3488 25.373 90.9846 25.8315 91.7585L15.508 97.8761ZM109.151 79.0442C109.323 78.4292 109.411 77.7936 109.411 77.1551H97.4108C97.4108 76.6991 97.4732 76.2451 97.5963 75.8058L109.151 79.0442ZM71.1907 5.46634C67.9037 5.27267 64.926 7.39601 64.0382 10.5668L75.5938 13.8024C74.9596 16.0672 72.8327 17.5839 70.4849 17.4456L71.1907 5.46634ZM10.3485 59.5826C8.35098 58.5325 7.28444 56.2045 7.93013 53.9297L19.4741 57.2065C20.4074 53.9185 18.8622 50.5011 15.9324 48.9609L10.3485 59.5826ZM18.211 78.8988C18.5606 79.4887 18.7893 80.1513 18.8739 80.8484L6.96137 82.2946C7.07908 83.2643 7.39797 84.1903 7.88751 85.0164L18.211 78.8988Z" fill="white" mask="url(#path-1-outside-1_22057_2318)"/>
<path d="M20.6698 94.8173L13.0493 81.9576C12.9793 81.8395 12.9342 81.7078 12.9176 81.5715C12.1405 75.1697 12.5786 69.3928 12.9189 67.1245C12.9347 67.019 12.9342 66.9136 12.9179 66.8081C12.2358 62.3914 13.0325 57.9273 13.7021 55.5681C13.8459 55.0615 13.6066 54.5168 13.1405 54.2717C10.6805 52.9785 6.81579 50.0246 6.11594 45.8255C5.44446 41.7966 7.82983 40.3469 9.66395 40.0088C10.1599 39.9173 10.5856 39.5491 10.6654 39.0511C11.8684 31.5485 15.7749 29.84 18.3392 29.9386C18.9159 29.9607 19.477 29.608 19.6709 29.0644C20.4064 27.0016 21.8409 26.4271 23.0347 26.427C23.6911 26.427 24.3723 26.0114 24.4628 25.3613C25.1342 20.5369 26.9732 14.2757 29.2245 13.3752L33.3032 11.7438C33.7793 11.5534 34.0334 11.033 33.8797 10.5439C33.0403 7.87387 32.7532 7.38616 38.5663 6.49178C39.4707 6.35263 48.0694 6.74837 48.9238 7.07594C49.2258 7.19172 49.5425 7.32428 49.8745 7.47518C54.2952 9.48457 54.774 15.4358 54.8015 17.5425C54.8073 17.9878 55.0799 18.3944 55.4983 18.5469C57.318 19.2101 62.2071 21.0386 64.882 22.4858C65.6245 22.8876 66.9339 22.4777 67.1615 21.6648L69.816 12.1846C69.9428 11.7316 70.3682 11.4283 70.8378 11.456L103.149 13.3598C103.321 13.3699 103.486 13.4221 103.628 13.5192C106.47 15.466 111.284 21.0572 109.367 29.1087C107.591 36.5701 103.541 40.0464 101.204 41.1321C100.805 41.3171 100.517 41.7001 100.517 42.1391V49.1232C100.517 49.2188 100.531 49.3138 100.558 49.4055L103.37 58.9625C103.397 59.0542 103.411 59.1493 103.411 59.2448V77.1551C103.411 77.2463 103.398 77.3371 103.374 77.425L100.596 87.3338C100.545 87.5191 100.44 87.6854 100.296 87.8129L87.7332 98.9261L64.5993 118.218C64.2841 118.481 63.8403 118.525 63.48 118.328L21.0512 95.1854C20.8933 95.0992 20.7615 94.972 20.6698 94.8173Z" fill="#AA7755" stroke="black" stroke-width="3" stroke-linecap="round" stroke-linejoin="round"/>
<ellipse cx="58.233" cy="73.359" rx="46.2172" ry="32.942" fill="#664422" stroke="black"/>
<path d="M103.95 63.5255C103.95 72.4183 98.8939 80.5169 90.6232 86.4119C82.3536 92.3062 70.9035 95.9675 58.233 95.9675C45.5624 95.9675 34.1123 92.3062 25.8427 86.4119C17.5721 80.5169 12.5158 72.4183 12.5158 63.5255C12.5158 54.6327 17.5721 46.5342 25.8427 40.6391C34.1123 34.7449 45.5624 31.0835 58.233 31.0835C70.9035 31.0835 82.3536 34.7449 90.6232 40.6391C98.8939 46.5342 103.95 54.6327 103.95 63.5255Z" fill="#CCDD44" stroke="black"/>
<path d="M59.3974 20.1877C62.521 18.6217 60.8675 27.0136 59.5368 31.8488C59.4506 32.1621 59.215 32.4108 58.9084 32.5183L28.1842 43.2863C28.0327 43.3394 27.8704 43.353 27.7104 43.34C25.4979 43.1604 24.116 44.7751 20.9948 35.3868C17.977 26.3093 21.7651 25.9382 24.4748 27.0271C24.8259 27.1681 25.0204 27.4343 25.0186 27.0559C25.0081 24.8342 25.3672 14.4479 30.0902 13.0949C35.7496 11.4737 39.0517 19.2479 39.1856 20.1879C39.3196 21.1278 39.9941 6.20467 47.2704 7.01528C54.5468 7.8259 55.0184 20.8633 54.3447 27.2807C54.6814 25.5919 56.1634 21.8089 59.3974 20.1877Z" fill="#AAEE22" stroke="black" stroke-linejoin="round"/>
<path d="M42.0079 6C38.7644 6 38.0747 9.20694 38.0747 11.5014L39.6858 11.9C39.6858 11.9 41.1608 11.5014 42.008 10.9166C44.5672 9.15028 43.9745 6 42.0079 6Z" fill="white" stroke="black" stroke-linecap="round"/>
<path d="M33.1578 15.3419C33.1578 13.7685 34.1411 12.7196 34.6328 12.3918C37.5828 12.3918 40.5328 11.4085 41.5162 10.4251C42.4995 9.44179 46.4329 10.4251 45.9412 13.8668C45.4496 17.3085 41.0245 18.7836 37.0911 18.7836C33.9444 18.7836 33.6494 17.3084 33.1578 16.3251L31.6827 15.8335L33.1578 15.3419Z" fill="#FEEF48" stroke="black" stroke-linecap="round"/>
<path d="M33.1578 15.3419C33.1578 13.7685 34.1411 12.3916 35.6161 12.3916C35.6161 12.3916 34.6328 13.0464 34.6328 15.3418C34.6328 18.8185 37.0911 18.7836 37.0911 18.7836C37.0911 18.7836 33.6494 19.275 33.1578 16.3251L31.6827 15.8335L33.1578 15.3419Z" fill="black"/>
<path d="M37.0908 12.3916C36.9269 13.8666 36.5011 16.7183 38.0744 18.2917" stroke="black" stroke-linecap="round"/>
<path d="M40.065 11.4084C39.9011 12.8835 40.5563 16.8168 42.8369 17.3085" stroke="black" stroke-linecap="round"/>
<path d="M35.7521 6.58479C38.8988 5.79812 39.6855 10.1904 39.6855 12.4849L38.0744 12.8834C38.0744 12.8834 36.5994 12.4849 35.7522 11.9001C33.193 10.1337 31.8187 7.56814 35.7521 6.58479Z" fill="white" stroke="black" stroke-linecap="round"/>
<path d="M41.8368 11.9C41.5091 11.2444 41.1485 9.73663 42.3285 8.94995" stroke="black" stroke-linecap="round"/>
<path d="M44.4662 10.9166C44.4662 10.3922 44.6629 9.26462 45.4495 8.94995" stroke="black" stroke-linecap="round"/>
<path d="M18.9087 30.5835C25.1611 30.5835 21.9609 37.7116 21.852 42.9565C21.8484 43.1317 21.8032 43.3025 21.7157 43.4543L16.1424 53.1255C15.7018 53.8902 14.0089 54.071 13.2618 53.6011C10.8318 52.0726 6.65532 50.0712 6.19134 46.3823C5.55547 41.3267 9.10575 40.5894 10.9604 40.8527C10.9604 37.4296 12.55 30.5835 18.9087 30.5835Z" fill="#AAEE22"/>
<path d="M10.9604 40.8527C10.9604 37.4296 12.55 30.5835 18.9087 30.5835C25.1611 30.5835 21.9609 37.7116 21.852 42.9565C21.8484 43.1317 21.8032 43.3025 21.7157 43.4543L16.1424 53.1255C15.7018 53.8902 14.0089 54.071 13.2618 53.6011C10.8318 52.0726 6.65532 50.0712 6.19134 46.3823C5.55547 41.3267 9.10575 40.5894 10.9604 40.8527ZM10.9604 40.8527L11.7552 43.2225" stroke="black" stroke-linecap="round" stroke-linejoin="round"/>
<path d="M52.7792 62.2936C51.4528 61.2324 50.458 47.2605 50.1263 40.4072L80.9662 46.7078V70.5838C72.1232 68.2626 54.1057 63.3547 52.7792 62.2936Z" stroke="black"/>
<path d="M49.6926 41.7178C49.8852 45.3093 50.2206 50.22 50.6646 54.3614C50.8865 56.4305 51.1365 58.318 51.4114 59.7559C51.5485 60.4735 51.6943 61.0923 51.85 61.5706C51.9278 61.8095 52.0117 62.0248 52.1037 62.2044C52.1913 62.3753 52.3071 62.5562 52.4669 62.684C52.5966 62.7877 52.7827 62.8857 52.9792 62.9769C53.1864 63.073 53.4448 63.1794 53.7454 63.2942C54.3472 63.524 55.1405 63.7963 56.0775 64.0995C57.9528 64.7064 60.4258 65.4442 63.1418 66.2249C68.575 67.7867 74.9969 69.5247 79.5906 70.7386C80.5462 70.9911 81.4662 70.2659 81.4662 69.2875V47.5242C81.4662 46.8115 80.9647 46.1972 80.2664 46.0545L51.4876 40.175C50.5306 39.9795 49.64 40.7361 49.6926 41.7178Z" fill="#885F0F" stroke="black" stroke-linejoin="round"/>
<path opacity="0.3" d="M54.4371 42.7285C54.5477 47.7027 55.034 58.7785 56.0952 63.2884" stroke="#553322" stroke-linecap="round"/>
<path opacity="0.3" d="M63.0591 44.0549C63.0591 47.0394 63.0595 63.9516 63.723 65.6097" stroke="#553322" stroke-width="2" stroke-linecap="round"/>
<path opacity="0.3" d="M66.3751 55.6611C66.3751 57.1305 66.3754 65.457 67.0383 66.2733" stroke="#553322" stroke-linecap="round"/>
<path opacity="0.3" d="M70.3543 48.0342C70.3543 49.5036 70.0227 60.6361 70.0227 60.6361" stroke="#553322" stroke-linecap="round"/>
<path opacity="0.3" d="M52.1161 43.3916C52.1161 44.861 53.4426 57.9833 53.4426 57.9833" stroke="#553322" stroke-linecap="round"/>
<path opacity="0.3" d="M56.0951 48.366C56.0951 49.8353 57.09 60.9679 57.09 60.9679" stroke="#553322" stroke-linecap="round"/>
<path opacity="0.3" d="M72.3446 45.7129C72.3446 46.0445 72.3442 67.5992 72.3442 67.5992" stroke="#553322" stroke-width="2" stroke-linecap="round"/>
<path d="M70.0137 15.5801C69.1153 19.9533 66.6781 29.8675 65.5882 34.2618C65.3007 35.421 66.0865 36.5658 67.2705 36.7228L95.5769 40.4776C96.6669 40.6222 97.6692 39.8598 97.8208 38.7708L100.888 16.7445C101.052 15.5675 100.159 14.5081 98.9713 14.4697L72.4192 13.6132C71.2899 13.5767 70.241 14.4734 70.0137 15.5801Z" fill="#553322" stroke="black"/>
<path d="M77.3186 20.1787L97.8785 21.1735" stroke="#1D130E" stroke-linecap="round"/>
<path d="M74.3337 31.7852L95.8885 34.7697" stroke="#1D130E" stroke-linecap="round"/>
<path d="M77.3184 26.4795L97.8782 28.8008" stroke="#1D130E" stroke-linecap="round"/>
<path d="M49.7946 40.0756L65.0486 36.4282L97.8782 40.739L81.2976 46.3763L49.7946 40.0756Z" fill="#595959" stroke="black"/>
<path d="M49.7946 40.4069L65.0486 36.7595L97.8782 41.0703L81.2976 46.7076L49.7946 40.4069Z" fill="#241403" stroke="black"/>
<path d="M95.3465 63.5013C97.8831 58.1112 98.9128 49.4258 98.7563 42.6921C98.7331 41.692 97.7524 41.0236 96.8171 41.3229L82.1722 46.0092C81.5509 46.208 81.1293 46.7855 81.1293 47.4378V69.0244C81.1293 70.1122 82.2527 70.8495 83.2507 70.3787C84.9013 69.6002 87.7305 68.2412 90.2212 66.9227C91.4655 66.2641 92.6339 65.6111 93.531 65.0429C93.9788 64.7593 94.3684 64.4909 94.669 64.2488C94.948 64.0241 95.221 63.7681 95.3465 63.5013Z" fill="#DDAA44" stroke="black" stroke-linejoin="round"/>
<path d="M100.233 16.0002L97.5063 40.2342C97.4101 41.0892 98.1034 41.9749 99.0966 41.7418C102.047 41.0492 107.346 37.9329 108.652 29.2064C109.306 24.8431 108.415 21.6024 106.98 19.2724C105.552 16.952 103.605 15.5668 102.184 14.8672C101.262 14.413 100.334 15.1009 100.233 16.0002Z" fill="#DDAA44" stroke="black" stroke-linejoin="round"/>
<path d="M70.2145 15.9534L66.2673 33.3213C65.9828 34.5728 66.944 35.7442 68.1899 35.4363C71.3173 34.6635 75.8821 32.1989 76.9868 24.8213C78.1011 17.3789 75.1651 15.2965 72.7345 14.4509C71.6451 14.0719 70.4701 14.8287 70.2145 15.9534Z" fill="#472A1C"/>
<path opacity="0.3" d="M89.2562 45.3813L88.593 66.6045" stroke="#553322" stroke-width="2" stroke-linecap="round"/>
<path opacity="0.3" d="M93.8987 44.0549L92.2407 63.62" stroke="#553322" stroke-width="2" stroke-linecap="round"/>
<path opacity="0.3" d="M82.9555 68.9257C83.6187 66.7149 85.0115 61.166 85.2768 56.6561C85.6084 51.0187 86.2716 49.029 86.6032 50.6871C86.9348 52.3451 87.2665 59.9722 86.6032 64.6148" stroke="#553322" stroke-linecap="round"/>
<path opacity="0.3" d="M74.6653 46.0447C75.1075 48.145 75.8592 53.2079 75.3285 56.6568C74.6653 60.968 76.9867 60.6364 76.9867 55.3303C76.9867 51.0854 76.9867 48.2555 76.9867 47.3712" stroke="#553322" stroke-linecap="round"/>
<path d="M49.559 40.2481C49.4123 40.2194 49.2605 40.2577 49.1451 40.3527C49.0297 40.4477 48.9629 40.5893 48.9629 40.7388C48.9629 41.5267 48.9893 42.455 49.0366 43.4794C49.3112 49.4355 50.2954 58.7707 50.9585 63.0336C50.988 63.2235 51.1238 63.3796 51.3077 63.4353L76.5102 71.0623C76.5359 71.0701 76.5623 71.0758 76.5889 71.0794L81.5631 71.7426C81.706 71.7617 81.8501 71.7181 81.9585 71.6232C82.067 71.5282 82.1292 71.3911 82.1292 71.247V47.0394C82.1292 46.8003 81.9599 46.5947 81.7253 46.5487L49.559 40.2481ZM54.2894 60.5211C53.7201 56.2457 53.0385 49.5259 52.7525 44.5959L78.4763 49.6346V67.6458L77.3243 67.4922L54.2894 60.5211Z" fill="#797979" stroke="black" stroke-linecap="round" stroke-linejoin="round"/>
<path d="M98.4539 41.5626C98.5891 41.5865 98.7281 41.5537 98.8384 41.4721C98.9486 41.3904 99.0205 41.267 99.0371 41.1308L102.354 13.9387C102.371 13.7993 102.328 13.6591 102.237 13.5526C102.146 13.446 102.013 13.3828 101.873 13.3784L70.0384 12.3835C69.7994 12.3761 69.5886 12.5388 69.5354 12.7719L64.2293 35.9847C64.1981 36.1211 64.2255 36.2643 64.3049 36.3796C64.3842 36.4949 64.5083 36.5716 64.6468 36.5912L92.825 40.5693L98.4539 41.5626ZM93.3442 36.9535L68.5549 33.4538L72.5181 16.1157L98.31 16.9217L95.8138 37.3874L93.4514 36.9705C93.4514 36.9705 93.4514 36.9705 93.4513 36.9705C93.4157 36.9642 93.38 36.9585 93.3442 36.9535Z" fill="#919191" stroke="black" stroke-linecap="round" stroke-linejoin="round"/>
<path d="M81.4607 46.5687C81.262 46.6399 81.1295 46.8283 81.1295 47.0394V71.247C81.1295 71.4194 81.2183 71.5797 81.3645 71.671C81.5107 71.7624 81.6937 71.772 81.8487 71.6964L95.4447 65.0642C95.5368 65.0192 95.6128 64.9471 95.6626 64.8576C97.1163 62.2409 98.0567 58.4343 98.6624 54.5592C99.2702 50.6704 99.5488 46.6575 99.6529 43.5925C99.6898 42.5085 99.7048 41.5416 99.7048 40.7388C99.7048 40.5761 99.6257 40.4235 99.4926 40.3299C99.3596 40.2362 99.1893 40.2132 99.0361 40.2681L81.4607 46.5687ZM95.9247 45.264C95.8172 47.3251 95.6315 49.6694 95.3311 52.03C94.8191 56.0524 94.0139 59.7691 92.8885 62.2467L84.7823 66.201V49.2585L95.9247 45.264Z" fill="#D4D4D4" stroke="black" stroke-linecap="round" stroke-linejoin="round"/>
<path d="M98.3764 40.6808C98.3584 40.8351 98.4132 40.989 98.5247 41.0973C98.6361 41.2055 98.7916 41.2558 98.9453 41.2334C99.4949 41.1531 100.212 40.9548 101.013 40.5965C103.699 39.3945 107.375 36.371 108.932 29.8002C108.935 29.7887 108.937 29.777 108.939 29.7653C109.708 25.049 109.246 21.6873 108.186 19.276C107.124 16.8592 105.482 15.444 103.98 14.5879C103.313 14.2077 102.676 13.9385 102.133 13.7401C101.989 13.6876 101.829 13.7038 101.699 13.7841C101.568 13.8644 101.482 13.9999 101.464 14.1519L98.3764 40.6808ZM105.012 19.3922C106.086 21.0596 106.974 23.9863 106.139 29.2066C105.174 33.2046 103.349 35.5193 101.698 36.8236L103.883 18.0531C104.286 18.4217 104.67 18.8622 105.012 19.3922Z" fill="#D4D4D4" stroke="black" stroke-linecap="round" stroke-linejoin="round"/>
<path d="M67.8705 45.0498C67.8705 44.8115 67.7023 44.6063 67.4685 44.5595L62.4941 43.5646C62.3546 43.5367 62.2098 43.5696 62.096 43.6549L60.7695 44.6498C60.6436 44.7442 60.5695 44.8924 60.5695 45.0498V48.0345C60.5695 48.2577 60.7175 48.4539 60.9322 48.5153L65.575 49.8418C65.7307 49.8863 65.8982 49.8526 66.0247 49.7514L67.6828 48.4249C67.8014 48.33 67.8705 48.1864 67.8705 48.0345V45.0498Z" fill="#797979" stroke="black" stroke-linecap="round" stroke-linejoin="round"/>
<path d="M67.3701 45.0498L65.7119 46.0447V49.361L67.3701 48.0345V45.0498Z" fill="#BDBDBD"/>
<path d="M16.9651 68.9255C16.4345 67.3338 22.4919 66.2726 25.587 65.941C44.1572 64.6146 62.0642 71.91 59.7429 76.221C57.4216 80.5319 34.5405 84.1796 25.587 80.8635C16.6335 77.5474 22.2709 76.5526 24.2605 73.5681C26.2502 70.5836 17.6283 70.9152 16.9651 68.9255Z" fill="#FFFF52" stroke="black" stroke-linecap="round"/>
<path d="M89.9192 44.7184C87.1719 44.7184 84.9448 43.6917 84.9448 42.4251C84.9448 41.8002 84.9448 40.4073 84.9448 40.4073C85.8476 39.9827 88.5276 40.1319 89.9192 40.1319C91.3109 40.1319 93.9908 39.9827 94.8936 40.4073C94.8936 40.4073 94.8937 41.8002 94.8937 42.4251C94.8937 43.6917 92.6665 44.7184 89.9192 44.7184Z" fill="#D99530" stroke="black" stroke-linecap="round"/>
<ellipse cx="89.9191" cy="40.3792" rx="2.2933" ry="4.97445" transform="rotate(90 89.9191 40.3792)" fill="#FFFF52" stroke="black" stroke-linecap="round"/>
<path d="M87.2665 40.0759C84.5192 40.0759 82.2921 39.0491 82.2921 37.7826C82.2921 37.1576 82.2921 35.7647 82.2921 35.7647C83.1949 35.3401 85.8748 35.4893 87.2665 35.4893C88.6582 35.4893 91.338 35.3401 92.2409 35.7647C92.2409 35.7647 92.241 37.1576 92.241 37.7826C92.241 39.0491 90.0138 40.0759 87.2665 40.0759Z" fill="#D99530" stroke="black" stroke-linecap="round"/>
<ellipse cx="87.2663" cy="35.7367" rx="2.2933" ry="4.97445" transform="rotate(90 87.2663 35.7367)" fill="#FFFF52" stroke="black" stroke-linecap="round"/>
<path d="M80.6342 46.0449C77.8869 46.0449 75.6598 45.0181 75.6598 43.7516C75.6598 43.1266 75.6598 41.7337 75.6598 41.7337C76.5626 41.3091 79.2425 41.4583 80.6342 41.4583C82.0259 41.4583 84.7057 41.3091 85.6086 41.7337C85.6086 41.7337 85.6086 43.1266 85.6086 43.7516C85.6086 45.0181 83.3815 46.0449 80.6342 46.0449Z" fill="#D99530" stroke="black" stroke-linecap="round"/>
<ellipse cx="80.634" cy="41.7057" rx="2.2933" ry="4.97445" transform="rotate(90 80.634 41.7057)" fill="#FFFF52" stroke="black" stroke-linecap="round"/>
<path d="M77.4275 79.908C73.8227 79.908 70.9004 78.5608 70.9004 76.8989C70.9004 76.0789 70.9004 74.2512 70.9004 74.2512C72.085 73.694 75.6015 73.8898 77.4275 73.8898C79.2536 73.8898 82.7699 73.694 83.9546 74.2512C83.9546 74.2512 83.9547 76.0789 83.9547 76.8989C83.9547 78.5608 81.0324 79.908 77.4275 79.908Z" fill="#D99530" stroke="black" stroke-linecap="round"/>
<ellipse cx="77.4277" cy="74.2144" rx="3.00913" ry="6.52717" transform="rotate(90 77.4277 74.2144)" fill="#FFFF52" stroke="black" stroke-linecap="round"/>
<path d="M64.0534 42.7289C61.3061 42.7289 59.0789 41.7022 59.0789 40.4356C59.0789 39.8107 59.0789 38.4178 59.0789 38.4178C59.9818 37.9932 62.6617 38.1423 64.0534 38.1423C65.4451 38.1423 68.1249 37.9932 69.0277 38.4178C69.0277 38.4178 69.0278 39.8107 69.0278 40.4356C69.0278 41.7022 66.8007 42.7289 64.0534 42.7289Z" fill="#D99530" stroke="black" stroke-linecap="round"/>
<ellipse cx="64.0536" cy="38.3895" rx="2.2933" ry="4.97445" transform="rotate(90 64.0536 38.3895)" fill="#FFFF52" stroke="black" stroke-linecap="round"/>
<path d="M80.6342 42.0654C77.8869 42.0654 75.6598 41.0386 75.6598 39.7721C75.6598 39.1471 75.6598 37.7542 75.6598 37.7542C76.5626 37.3296 79.2425 37.4788 80.6342 37.4788C82.0259 37.4788 84.7057 37.3296 85.6086 37.7542C85.6086 37.7542 85.6086 39.1471 85.6086 39.7721C85.6086 41.0386 83.3815 42.0654 80.6342 42.0654Z" fill="#D99530" stroke="black" stroke-linecap="round"/>
<ellipse cx="80.634" cy="37.7262" rx="2.2933" ry="4.97445" transform="rotate(90 80.634 37.7262)" fill="#FFFF52" stroke="black" stroke-linecap="round"/>
<path d="M80.9083 75.5567C77.3034 75.5567 74.3811 74.2095 74.3811 72.5476C74.3811 71.7275 74.3811 69.8999 74.3811 69.8999C75.5657 69.3427 79.0822 69.5385 80.9083 69.5385C82.7343 69.5385 86.2507 69.3427 87.4353 69.8999C87.4353 69.8999 87.4354 71.7275 87.4354 72.5476C87.4354 74.2095 84.5131 75.5567 80.9083 75.5567Z" fill="#D99530" stroke="black" stroke-linecap="round"/>
<ellipse cx="80.9083" cy="69.8631" rx="3.00913" ry="6.52717" transform="rotate(90 80.9083 69.8631)" fill="#FFFF52" stroke="black" stroke-linecap="round"/>
<path d="M66.043 39.4125C63.2957 39.4125 61.0686 38.3858 61.0686 37.1192C61.0686 36.4943 61.0686 35.1014 61.0686 35.1014C61.9714 34.6768 64.6513 34.8259 66.043 34.8259C67.4347 34.8259 70.1145 34.6768 71.0174 35.1014C71.0174 35.1014 71.0175 36.4943 71.0175 37.1192C71.0175 38.3858 68.7903 39.4125 66.043 39.4125Z" fill="#D99530" stroke="black" stroke-linecap="round"/>
<ellipse cx="66.0433" cy="35.0733" rx="2.2933" ry="4.97445" transform="rotate(90 66.0433 35.0733)" fill="#FFFF52" stroke="black" stroke-linecap="round"/>
<path d="M72.0127 35.4333C69.2654 35.4333 67.0383 34.4065 67.0383 33.14C67.0383 32.515 67.0383 31.1222 67.0383 31.1222C67.9411 30.6975 70.6211 30.8467 72.0127 30.8467C73.4044 30.8467 76.0843 30.6975 76.9871 31.1222C76.9871 31.1222 76.9872 32.515 76.9872 33.14C76.9872 34.4065 74.76 35.4333 72.0127 35.4333Z" fill="#D99530" stroke="black" stroke-linecap="round"/>
<ellipse cx="72.0125" cy="31.0941" rx="2.2933" ry="4.97445" transform="rotate(90 72.0125 31.0941)" fill="#FFFF52" stroke="black" stroke-linecap="round"/>
<ellipse cx="71.8359" cy="40.3743" rx="3.97956" ry="4.97445" transform="rotate(23.3149 71.8359 40.3743)" fill="#D99530" stroke="black" stroke-linecap="round"/>
<ellipse cx="70.0089" cy="39.5867" rx="3.97956" ry="4.97445" transform="rotate(23.3149 70.0089 39.5867)" fill="#FFFF52" stroke="black" stroke-linecap="round"/>
<path d="M25.5872 38.0339H25.3673L25.2187 38.1961L25.5872 38.5339C25.2187 38.1961 25.2185 38.1963 25.2182 38.1965L25.2177 38.1971L25.2165 38.1985L25.2129 38.2024L25.2021 38.2146C25.1931 38.2247 25.1808 38.2388 25.1654 38.257C25.1346 38.2932 25.0913 38.3455 25.0373 38.4141C24.9294 38.5515 24.7788 38.7544 24.6 39.0254C24.2422 39.5675 23.7715 40.3819 23.3029 41.4894C22.3651 43.706 21.4395 47.0883 21.4395 51.7984C21.4395 56.4943 22.1942 60.3538 22.9504 63.0427C23.3286 64.3874 23.7074 65.4401 23.993 66.1593C24.1358 66.5189 24.2553 66.7952 24.3398 66.9831C24.3821 67.077 24.4156 67.1488 24.4389 67.1978C24.4506 67.2224 24.4597 67.2412 24.4661 67.2543L24.4713 67.2649L24.4718 67.2659L24.4819 67.2879C24.4908 67.307 24.5036 67.3338 24.5205 67.3678C24.5541 67.4356 24.604 67.5321 24.6717 67.653C24.8071 67.8948 25.0141 68.2348 25.3058 68.64C25.8893 69.4504 26.8125 70.5225 28.181 71.5916C30.925 73.7354 35.4281 75.8428 42.4994 75.8428C49.5706 75.8428 53.835 73.7349 56.339 71.5763C57.5867 70.5007 58.3867 69.4216 58.8766 68.6051C59.1215 68.1969 59.289 67.8542 59.3964 67.6101C59.4464 67.4966 59.4833 67.4044 59.5091 67.3366C59.5216 67.3238 59.5347 67.31 59.5484 67.295C59.6341 67.2015 59.7428 67.0642 59.8663 66.8673C60.1128 66.474 60.4197 65.84 60.7198 64.8325C61.319 62.8208 61.9012 59.286 61.9012 53.1248C61.9012 46.9385 60.8984 43.2134 59.864 41.0154C59.3465 39.9156 58.8217 39.1998 58.4132 38.7515C58.2092 38.5276 58.0349 38.3714 57.9061 38.2679C57.8417 38.2162 57.7889 38.1777 57.7495 38.1507C57.7298 38.1372 57.7135 38.1265 57.7008 38.1185L57.6845 38.1084L57.6785 38.1048L57.676 38.1033L57.6749 38.1026C57.6743 38.1023 57.6738 38.102 57.4219 38.5339L57.6738 38.102L57.5571 38.0339H57.4219H25.5872Z" fill="#D99530" stroke="black"/>
<path d="M22.3712 45.8291C22.1107 47.5783 21.9395 49.574 21.9395 51.7981C21.9395 55.4647 22.4049 58.6142 22.9681 61.0832C27.9709 63.7361 49.7949 68.3787 60.9636 61.0832C61.2222 59.1209 61.4012 56.5319 61.4012 53.1245C61.4012 50.2367 61.2175 47.8265 60.9366 45.8291C48.1368 50.8033 26.5601 48.0398 22.3712 45.8291Z" fill="#FFDC50"/>
<path d="M26.7583 32.1789C26.2201 32.2677 25.4999 32.5657 24.8979 33.1827C24.2479 33.849 23.761 34.8614 23.761 36.3091C23.761 37.2574 24.0731 38.1554 24.7639 38.953C25.4462 39.7408 26.4795 40.4103 27.8948 40.9553C30.7181 42.0425 35.1865 42.6812 41.8364 42.6812C48.4992 42.6812 52.8181 41.7916 55.4483 40.4802C58.0949 39.1606 59.1104 37.3593 58.9139 35.5907C58.849 35.0066 58.5532 34.1482 57.7325 33.3509C56.9109 32.553 55.592 31.8434 53.5236 31.5045C49.2267 30.8003 43.1786 30.6283 37.9055 30.7993C35.2659 30.885 32.8092 31.057 30.8513 31.2938C29.8728 31.4121 29.0125 31.5474 28.3131 31.6979C27.6757 31.835 27.1347 31.9922 26.7583 32.1789Z" fill="#D99530" stroke="black"/>
<ellipse cx="41.836" cy="33.2278" rx="13.5961" ry="1.32644" fill="black"/>
<path d="M56.4298 24.6744C55.766 24.179 54.8263 24.3154 54.3307 24.9791L48.4489 32.8563C48.1079 33.313 48.0674 33.8771 48.2864 34.3288C48.5096 34.789 48.9892 35.1013 49.5833 35.0595C50.7083 34.9802 52.2266 34.7269 53.6661 34.0071C54.1154 33.7824 54.5799 33.3635 55.0207 32.8852C55.47 32.3976 55.9299 31.8089 56.3666 31.202C57.2405 29.9876 58.0446 28.6685 58.516 27.866C58.9021 27.2087 58.7174 26.3817 58.1182 25.9345L56.4298 24.6744Z" fill="#885F0F" stroke="black" stroke-linejoin="round"/>
<circle cx="57.7174" cy="24.6045" r="6.03185" transform="rotate(36.7342 57.7174 24.6045)" fill="#885F0F" stroke="black" stroke-linejoin="round"/>
<path d="M43.4939 33.5596H35.2037C35.2037 33.5596 34.3064 33.7286 31.8878 34.0919C26.0682 34.9661 29.2347 40.1918 29.5663 41.5183C27.5765 46.824 27.2451 53.7878 27.2451 56.7723C27.2451 59.7568 29.8979 62.0781 29.5663 56.7723C29.2347 51.4666 30.8927 42.1815 32.5508 43.8395C34.2088 45.4976 32.5508 51.4666 35.2037 53.7878C37.8565 56.1091 38.8514 48.1505 40.1778 49.8085C41.5043 51.4666 42.4991 51.4666 43.4939 49.8085C44.4888 48.1505 47.1417 47.8189 47.8049 51.4666C48.4681 55.1143 46.1468 60.7517 48.7997 59.7568C51.4526 58.762 51.7842 46.1608 51.121 40.855C50.4578 35.5493 50.7894 33.5596 43.4939 33.5596Z" fill="#FFFF52"/>
<path d="M31.8876 41.5183C34.8721 41.9604 42.5655 42.5794 49.463 41.5183M35.2037 33.5596C36.1985 33.5596 37.6576 33.5596 43.4939 33.5596C50.7894 33.5596 50.4578 35.5493 51.121 40.855C51.7842 46.1608 51.4526 58.762 48.7997 59.7568C46.1468 60.7517 48.4681 55.1143 47.8049 51.4666C47.1417 47.8189 44.4888 48.1505 43.4939 49.8085C42.4991 51.4666 41.5043 51.4666 40.1778 49.8085C38.8514 48.1505 37.8565 56.1091 35.2037 53.7878C32.5508 51.4666 34.2088 45.4976 32.5508 43.8395C30.8927 42.1815 29.2347 51.4666 29.5663 56.7723C29.8979 62.0781 27.2451 59.7568 27.2451 56.7723C27.2451 53.7878 27.5765 46.824 29.5663 41.5183C29.2347 40.1918 26.0682 34.9661 31.8878 34.0919C34.3064 33.7286 35.2037 33.5596 35.2037 33.5596Z" stroke="black" stroke-linecap="round"/>
<path d="M78.6445 38.0864C75.8971 38.0864 73.67 37.0596 73.67 35.7931C73.67 35.1681 73.67 33.7752 73.67 33.7752C74.5728 33.3506 77.2528 33.4998 78.6445 33.4998C80.0361 33.4998 82.716 33.3506 83.6188 33.7752C83.6188 33.7752 83.6189 35.1681 83.6189 35.7931C83.6189 37.0596 81.3918 38.0864 78.6445 38.0864Z" fill="#D99530" stroke="black" stroke-linecap="round"/>
<ellipse cx="78.6443" cy="33.7469" rx="2.2933" ry="4.97445" transform="rotate(90 78.6443 33.7469)" fill="#FFFF52" stroke="black" stroke-linecap="round"/>
<path d="M83.0586 35.2927C80.4376 34.4692 78.6206 32.8221 79.0002 31.6138C79.1876 31.0176 79.6051 29.6887 79.6051 29.6887C80.5937 29.5542 83.1057 30.4998 84.4334 30.917C85.7611 31.3341 88.3624 31.9951 89.0964 32.6708C89.0964 32.6708 88.679 33.9996 88.4917 34.5959C88.1121 35.8042 85.6796 36.1162 83.0586 35.2927Z" fill="#D99530" stroke="black" stroke-linecap="round"/>
<ellipse cx="84.3591" cy="31.1529" rx="2.2933" ry="4.97445" transform="rotate(107.442 84.3591 31.1529)" fill="#FFFF52" stroke="black" stroke-linecap="round"/>
<path d="M88.741 82.5189C85.1362 82.5189 82.2138 81.1716 82.2138 79.5097C82.2138 78.6897 82.2138 76.8621 82.2138 76.8621C83.3985 76.3049 86.9149 76.5006 88.741 76.5006C90.5671 76.5006 94.0834 76.3049 95.2681 76.8621C95.2681 76.8621 95.2682 78.6897 95.2682 79.5097C95.2682 81.1716 92.3459 82.5189 88.741 82.5189Z" fill="#D99530" stroke="black" stroke-linecap="round"/>
<ellipse cx="88.7409" cy="76.8253" rx="3.00913" ry="6.52717" transform="rotate(90 88.7409 76.8253)" fill="#FFFF52" stroke="black" stroke-linecap="round"/>
<path d="M92.2213 78.1676C88.6164 78.1676 85.6941 76.8203 85.6941 75.1584C85.6941 74.3384 85.6941 72.5107 85.6941 72.5107C86.8788 71.9536 90.3952 72.1493 92.2213 72.1493C94.0474 72.1493 97.5637 71.9536 98.7484 72.5107C98.7484 72.5107 98.7485 74.3384 98.7485 75.1584C98.7485 76.8203 95.8262 78.1676 92.2213 78.1676Z" fill="#D99530" stroke="black" stroke-linecap="round"/>
<ellipse cx="92.2215" cy="72.474" rx="3.00913" ry="6.52717" transform="rotate(90 92.2215 72.474)" fill="#FFFF52" stroke="black" stroke-linecap="round"/>
<path d="M88.741 74.6864C85.1362 74.6864 82.2138 73.3391 82.2138 71.6772C82.2138 70.8572 82.2138 69.0295 82.2138 69.0295C83.3985 68.4724 86.9149 68.6681 88.741 68.6681C90.5671 68.6681 94.0834 68.4724 95.2681 69.0295C95.2681 69.0295 95.2682 70.8572 95.2682 71.6772C95.2682 73.3391 92.3459 74.6864 88.741 74.6864Z" fill="#D99530" stroke="black" stroke-linecap="round"/>
<ellipse cx="88.7409" cy="68.993" rx="3.00913" ry="6.52717" transform="rotate(90 88.7409 68.993)" fill="#FFFF52" stroke="black" stroke-linecap="round"/>
<ellipse cx="66.8257" cy="68.3643" rx="3.97956" ry="4.97445" transform="rotate(44.2888 66.8257 68.3643)" fill="#D99530" stroke="black" stroke-linecap="round"/>
<ellipse cx="65.4018" cy="66.9749" rx="3.97956" ry="4.97445" transform="rotate(44.2888 65.4018 66.9749)" fill="#FFFF52" stroke="black" stroke-linecap="round"/>
</svg>
