<svg width="505" height="427" viewBox="0 0 505 427" fill="none" xmlns="http://www.w3.org/2000/svg">
<path d="M661.708 125.205L577.131 3.62648C576.505 2.72574 575.29 2.48625 574.374 3.09111C505.081 48.8734 360.088 54.0614 290.76 50.7735C288.917 50.6862 287.965 52.928 289.279 54.2223L351.948 115.956C352.303 116.306 352.776 116.511 353.274 116.53L659.989 128.345C661.638 128.409 662.65 126.56 661.708 125.205Z" fill="#A38D73" stroke="black" stroke-width="2" stroke-linecap="round" stroke-linejoin="round"/>
<path d="M435.5 33.5C343.938 40.9986 271.132 30.6173 245.033 24.2558C244.368 24.0938 243.699 24.2848 243.202 24.7549L113.5 147.5H469L575.692 4.7566C576.747 3.3454 575.601 1.4106 573.875 1.76397C549.642 6.72513 522.729 26.3562 435.5 33.5Z" fill="#DEC4A5"/>
<path d="M435.5 33.5C343.938 40.9986 271.132 30.6173 245.033 24.2558C244.368 24.0938 243.699 24.2848 243.202 24.7549L113.5 147.5M435.5 33.5C522.729 26.3562 549.642 6.72513 573.875 1.76397C575.601 1.4106 576.747 3.3454 575.692 4.7566L469 147.5M435.5 33.5C404 39 336.3 49.8 317.5 49M469 147.5H113.5M469 147.5L356.5 308.5M113.5 147.5L8.87313 246.314C7.59766 247.519 5.49988 246.615 5.49988 244.86V235M5.49988 235L0.999878 236M5.49988 235L9.49988 234" stroke="black" stroke-width="2" stroke-linecap="round" stroke-linejoin="round"/>
<path d="M256.122 91.3772C253.37 91.3772 251.581 91.1276 250.757 90.6285C249.932 90.1294 249.814 89.3324 250.403 88.2376C250.992 87.1427 252.294 85.4361 254.31 83.1176C256.353 80.7669 258.042 79.02 259.377 77.8769C260.748 76.7177 262.289 75.8644 264.003 75.3169C265.751 74.7534 267.991 74.4717 270.721 74.4717C272.364 74.4717 273.787 74.7615 274.99 75.3411C276.206 75.9046 276.835 76.8384 276.874 78.1426C276.914 79.4467 276.052 81.1131 274.289 83.1418C272.595 85.0899 270.612 86.6839 268.34 87.9236C266.081 89.1472 263.872 90.0328 261.711 90.5802C259.563 91.1115 257.7 91.3772 256.122 91.3772ZM257.833 87.1266C258.459 87.191 258.922 87.2232 259.221 87.2232C260.735 87.2232 262.175 86.9173 263.538 86.3055C264.902 85.6937 266.053 84.8484 266.991 83.7697C267.831 82.8037 268.076 82.055 267.727 81.5237C267.392 80.9763 266.489 80.7025 265.017 80.7025C264.462 80.7025 263.901 80.7347 263.333 80.7991L257.833 87.1266ZM274.483 91.3772C272.819 91.3772 271.699 91.0954 271.122 90.5319C270.559 89.9523 270.747 89.1231 271.685 88.0444C272.496 87.1105 273.684 86.3699 275.248 85.8225C276.812 85.2751 278.405 85.0014 280.026 85.0014C280.623 85.0014 281.143 85.0416 281.585 85.1221C282.062 85.1865 282.355 85.267 282.463 85.3636C282.813 84.9611 282.876 84.6311 282.652 84.3735C282.442 84.0997 281.878 83.9629 280.961 83.9629C280.555 83.9629 280.204 83.987 279.906 84.0353C279.608 84.0836 279.267 84.1561 278.885 84.2527C278.502 84.3493 278.162 84.4218 277.864 84.4701C277.587 84.5184 277.246 84.5425 276.841 84.5425C276.158 84.5425 275.737 84.4137 275.577 84.1561C275.431 83.8824 275.595 83.4718 276.071 82.9244C276.617 82.2965 277.378 81.7652 278.353 81.3305C279.349 80.8958 280.397 80.5737 281.497 80.3644C282.61 80.139 283.625 80.0263 284.543 80.0263C286.356 80.0263 287.647 80.2839 288.415 80.7991C289.218 81.2983 289.544 81.9664 289.392 82.8037C289.262 83.6409 288.756 84.5667 287.874 85.581C287.398 86.1284 286.893 86.6356 286.359 87.1025C285.847 87.5694 285.383 87.9317 284.967 88.1893C285.097 88.3825 285.125 88.6079 285.051 88.8655C284.998 89.1231 284.852 89.3888 284.614 89.6625C284.208 90.1294 283.645 90.5319 282.924 90.87C282.225 91.2081 281.534 91.3772 280.851 91.3772C280.339 91.3772 279.972 91.3208 279.75 91.2081C279.528 91.0954 279.341 90.9183 279.188 90.6768C278.445 90.9183 277.704 91.0954 276.966 91.2081C276.25 91.3208 275.422 91.3772 274.483 91.3772ZM277.244 88.9379C277.692 88.9379 278.107 88.8655 278.489 88.7206C278.892 88.5757 279.185 88.3986 279.367 88.1893C279.549 87.98 279.564 87.8029 279.413 87.6579C279.282 87.513 278.993 87.4406 278.545 87.4406C278.097 87.4406 277.672 87.513 277.269 87.6579C276.887 87.8029 276.605 87.98 276.423 88.1893C276.241 88.3986 276.215 88.5757 276.345 88.7206C276.496 88.8655 276.796 88.9379 277.244 88.9379ZM290.242 91.3772C288.365 91.3772 287.075 91.1437 286.371 90.6768C285.668 90.2099 285.638 89.6061 286.282 88.8655C286.702 88.3825 287.237 88.0122 287.888 87.7546C288.573 87.4808 289.258 87.344 289.94 87.344C290.324 87.344 290.599 87.3842 290.763 87.4647C290.928 87.5452 291.065 87.658 291.174 87.8029C291.246 87.9156 291.315 87.9961 291.38 88.0444C291.466 88.0927 291.594 88.1168 291.765 88.1168C292.213 88.1168 292.542 87.9961 292.752 87.7546C292.947 87.5291 292.977 87.3601 292.84 87.2474C292.718 87.1186 292.445 86.9656 292.023 86.7885C291.63 86.6275 291.376 86.5148 291.261 86.4504C290.588 86.0962 290.226 85.6776 290.177 85.1946C290.127 84.7116 290.341 84.1963 290.817 83.6489C291.348 83.0371 292.14 82.4575 293.192 81.9101C294.279 81.3466 295.503 80.8958 296.864 80.5576C298.26 80.2034 299.662 80.0263 301.07 80.0263C302.286 80.0263 303.272 80.1551 304.03 80.4127C304.808 80.6703 305.29 81.0246 305.474 81.4754C305.672 81.9101 305.54 82.3931 305.078 82.9244C304.644 83.4235 304.102 83.8019 303.452 84.0595C302.822 84.3171 302.156 84.4459 301.452 84.4459C301.174 84.4459 300.964 84.4298 300.822 84.3976C300.714 84.3493 300.575 84.2769 300.403 84.1802C300.309 84.1158 300.198 84.0595 300.07 84.0112C299.962 83.9629 299.813 83.9387 299.621 83.9387C299.45 83.9387 299.259 83.987 299.047 84.0836C298.849 84.1641 298.694 84.2688 298.582 84.3976C298.372 84.6391 298.452 84.8162 298.824 84.9289C299.795 85.2348 300.451 85.6212 300.792 86.0882C301.154 86.5551 300.978 87.1991 300.265 88.0202C299.355 89.0667 297.99 89.8879 296.171 90.4836C294.373 91.0793 292.397 91.3772 290.242 91.3772ZM302.845 91.3772C301.799 91.3772 301.265 91.0713 301.242 90.4594C301.22 89.8476 301.654 88.9057 302.547 87.6338C303.46 86.3619 304.897 84.5989 306.856 82.3448C308.494 80.461 309.839 78.9878 310.89 77.9252C311.963 76.8626 313.022 76.0254 314.066 75.4135C315.124 74.7856 316.196 74.4717 317.284 74.4717C318.223 74.4717 318.731 74.6971 318.809 75.1479C318.886 75.5987 318.695 76.1622 318.235 76.8384C317.775 77.5147 317.104 78.3599 316.223 79.3743L315.278 80.461C315.845 80.3 316.316 80.1873 316.692 80.1229C317.089 80.0585 317.619 80.0263 318.28 80.0263C319.731 80.0263 320.734 80.3081 321.289 80.8716C321.859 81.419 322.004 82.1596 321.726 83.0935C321.469 84.0273 320.843 85.0658 319.849 86.2089C318.562 87.6902 317.285 88.9138 316.018 89.8798C314.787 90.8297 313.564 91.3047 312.348 91.3047C311.494 91.3047 310.98 91.1598 310.806 90.87C310.652 90.5802 310.728 90.1857 311.034 89.6866C311.361 89.1875 311.903 88.5032 312.659 87.6338C313.485 86.6839 313.983 85.9513 314.153 85.4361C314.345 84.9209 314.11 84.6633 313.449 84.6633C312.788 84.6633 312.077 84.9289 311.316 85.4602C310.591 85.9755 309.812 86.7 308.979 87.6338C308.202 88.5032 307.525 89.1955 306.949 89.7108C306.395 90.226 305.771 90.6365 305.079 90.9424C304.421 91.2323 303.677 91.3772 302.845 91.3772ZM325.501 91.3772C321.619 91.3772 319.889 90.4836 320.312 88.6964C320.77 86.8932 321.804 85.0658 323.413 83.2142C324.603 81.8457 325.938 80.4932 327.42 79.1569C328.923 77.8206 330.44 76.7016 331.97 75.8C333.501 74.8983 334.863 74.4475 336.058 74.4475C336.805 74.4475 337.291 74.6246 337.516 74.9788C337.741 75.333 337.56 75.8483 336.972 76.5245C336.679 76.8626 336.342 77.2007 335.963 77.5388C335.583 77.8769 335.092 78.2955 334.487 78.7946C334.36 78.8912 334.065 79.1327 333.601 79.5192C333.159 79.9056 332.769 80.2678 332.432 80.6059C333.707 80.2195 334.942 80.0263 336.136 80.0263C337.331 80.0263 338.265 80.2276 338.939 80.6301C339.635 81.0326 339.939 81.6525 339.851 82.4897C339.799 83.3108 339.254 84.3171 338.219 85.5085C337.337 86.5229 336.195 87.4808 334.792 88.3825C333.404 89.268 331.878 89.9925 330.215 90.556C328.587 91.1035 327.016 91.3772 325.501 91.3772ZM328.626 87.5613C329.202 87.5613 329.844 87.4003 330.55 87.0783C331.292 86.7402 331.859 86.3458 332.251 85.8949C332.643 85.4441 332.762 85.0497 332.608 84.7116C332.475 84.3735 332.12 84.2044 331.544 84.2044C330.968 84.2044 330.32 84.3735 329.6 84.7116C328.879 85.0497 328.323 85.4441 327.931 85.8949C327.539 86.3458 327.409 86.7402 327.542 87.0783C327.689 87.4003 328.05 87.5613 328.626 87.5613ZM342.077 91.4013C340.527 91.4174 339.361 91.1759 338.579 90.6768C337.818 90.1777 337.475 89.4934 337.548 88.624C337.656 87.7385 338.158 86.7563 339.053 85.6776C339.969 84.5989 341.14 83.6328 342.564 82.7795C343.989 81.9262 345.526 81.25 347.176 80.7508C348.847 80.2517 350.451 80.0022 351.987 80.0022C353.48 80.0022 354.614 80.2437 355.389 80.7267C356.185 81.2097 356.557 81.8859 356.505 82.7554C356.454 83.6248 355.98 84.5989 355.085 85.6776C354.197 86.7241 353.033 87.6821 351.595 88.5515C350.17 89.4049 348.615 90.0891 346.93 90.6043C345.266 91.1196 343.649 91.3852 342.077 91.4013ZM345.239 87.8753C345.815 87.8753 346.463 87.7063 347.183 87.3681C347.904 87.03 348.46 86.6356 348.852 86.1848C349.244 85.7339 349.367 85.3475 349.22 85.0255C349.087 84.6874 348.733 84.5184 348.157 84.5184C347.581 84.5184 346.932 84.6874 346.212 85.0255C345.505 85.3475 344.956 85.7339 344.564 86.1848C344.172 86.6356 344.043 87.03 344.175 87.3681C344.308 87.7063 344.663 87.8753 345.239 87.8753ZM356.858 91.3772C355.194 91.3772 354.074 91.0954 353.497 90.5319C352.934 89.9523 353.122 89.1231 354.06 88.0444C354.871 87.1105 356.059 86.3699 357.623 85.8225C359.187 85.2751 360.78 85.0014 362.401 85.0014C362.998 85.0014 363.518 85.0416 363.96 85.1221C364.437 85.1865 364.73 85.267 364.838 85.3636C365.188 84.9611 365.251 84.6311 365.027 84.3735C364.817 84.0997 364.253 83.9629 363.336 83.9629C362.93 83.9629 362.579 83.987 362.281 84.0353C361.983 84.0836 361.642 84.1561 361.26 84.2527C360.877 84.3493 360.537 84.4218 360.239 84.4701C359.962 84.5184 359.621 84.5425 359.216 84.5425C358.533 84.5425 358.112 84.4137 357.952 84.1561C357.806 83.8824 357.97 83.4718 358.446 82.9244C358.992 82.2965 359.753 81.7652 360.728 81.3305C361.724 80.8958 362.772 80.5737 363.872 80.3644C364.985 80.139 366 80.0263 366.918 80.0263C368.731 80.0263 370.022 80.2839 370.79 80.7991C371.593 81.2983 371.919 81.9664 371.767 82.8037C371.637 83.6409 371.131 84.5667 370.249 85.581C369.773 86.1284 369.268 86.6356 368.734 87.1025C368.222 87.5694 367.758 87.9317 367.342 88.1893C367.472 88.3825 367.5 88.6079 367.426 88.8655C367.373 89.1231 367.227 89.3888 366.989 89.6625C366.583 90.1294 366.02 90.5319 365.299 90.87C364.6 91.2081 363.909 91.3772 363.226 91.3772C362.714 91.3772 362.347 91.3208 362.125 91.2081C361.903 91.0954 361.716 90.9183 361.563 90.6768C360.82 90.9183 360.079 91.0954 359.341 91.2081C358.625 91.3208 357.797 91.3772 356.858 91.3772ZM359.619 88.9379C360.067 88.9379 360.482 88.8655 360.864 88.7206C361.267 88.5757 361.56 88.3986 361.742 88.1893C361.924 87.98 361.939 87.8029 361.788 87.6579C361.657 87.513 361.368 87.4406 360.92 87.4406C360.472 87.4406 360.047 87.513 359.644 87.6579C359.262 87.8029 358.98 87.98 358.798 88.1893C358.616 88.3986 358.59 88.5757 358.72 88.7206C358.871 88.8655 359.171 88.9379 359.619 88.9379ZM370.21 91.3772C368.845 91.3772 368.452 90.7734 369.033 89.5659C369.634 88.3583 370.859 86.6919 372.706 84.5667C373.546 83.6006 374.299 82.7956 374.966 82.1516C375.667 81.4915 376.438 80.936 377.278 80.4852C378.153 80.0183 379.071 79.7848 380.031 79.7848C380.628 79.7848 381.06 79.8895 381.326 80.0988C381.613 80.3081 381.653 80.6059 381.445 80.9924C382.195 80.6703 383.013 80.4288 383.899 80.2678C384.786 80.1068 385.656 80.0263 386.509 80.0263C387.192 80.0263 387.773 80.1551 388.253 80.4127C388.755 80.6703 389.044 81.0246 389.121 81.4754C389.234 81.9101 389.067 82.385 388.619 82.9003C388.171 83.4155 387.527 83.8743 386.686 84.2769C385.881 84.6633 385.084 84.8565 384.294 84.8565C384.038 84.8565 383.814 84.8323 383.621 84.784C383.45 84.7357 383.3 84.6874 383.171 84.6391C382.857 84.5103 382.571 84.4459 382.315 84.4459C381.483 84.4459 380.53 84.6955 379.456 85.1946C378.418 85.6776 377.563 86.3055 376.891 87.0783C376.149 87.9317 375.491 88.6401 374.915 89.2036C374.34 89.7671 373.643 90.2743 372.825 90.7251C372.02 91.1598 371.149 91.3772 370.21 91.3772ZM388.871 91.3772C387.356 91.3772 386.25 91.1035 385.553 90.556C384.89 89.9925 384.635 89.268 384.786 88.3825C384.951 87.4808 385.474 86.5229 386.356 85.5085C387.392 84.3171 388.587 83.3108 389.94 82.4897C391.33 81.6525 392.711 81.0326 394.085 80.6301C395.48 80.2276 396.775 80.0263 397.97 80.0263C399.165 80.0263 400.063 80.2195 400.666 80.6059C400.917 80.2678 401.147 79.9056 401.355 79.5192C401.584 79.1327 401.719 78.8912 401.761 78.7946C402.024 78.2955 402.26 77.8769 402.468 77.5388C402.677 77.2007 402.928 76.8626 403.222 76.5245C403.81 75.8483 404.524 75.333 405.366 74.9788C406.207 74.6246 407.001 74.4475 407.747 74.4475C408.942 74.4475 409.521 74.8983 409.484 75.8C409.447 76.7016 409.007 77.8206 408.166 79.1569C407.345 80.4932 406.34 81.8457 405.151 83.2142C403.541 85.0658 401.387 86.8932 398.689 88.6964C396.026 90.4836 392.753 91.3772 388.871 91.3772ZM392.38 87.5613C392.956 87.5613 393.597 87.4003 394.304 87.0783C395.024 86.7402 395.58 86.3458 395.972 85.8949C396.364 85.4441 396.494 85.0497 396.361 84.7116C396.228 84.3735 395.874 84.2044 395.298 84.2044C394.722 84.2044 394.063 84.3735 393.321 84.7116C392.6 85.0497 392.044 85.4441 391.652 85.8949C391.26 86.3458 391.131 86.7402 391.264 87.0783C391.432 87.4003 391.804 87.5613 392.38 87.5613Z" fill="#94795A"/>
<path d="M65.7112 205.076C65.5174 202.534 65.5364 196.592 67.1632 193.164M67.1632 193.164C68.79 189.735 78.1306 189.967 82.5975 190.512M67.1632 193.164C64.9167 192.386 60.8217 189.915 62.4141 186.248C64.0066 182.581 69.2966 182.697 71.7426 183.214" stroke="black" stroke-width="3" stroke-linecap="round" stroke-linejoin="round"/>
<path d="M30.4014 238.549L74.0781 243.873M30.4014 238.549C31.1088 232.746 34.0153 227.747 38.1844 224.286M30.4014 238.549C29.6999 244.303 31.2875 249.809 34.4493 254.153M49.5777 263.049L54.9018 219.373M49.5777 263.049C55.8843 263.818 61.8924 261.838 66.4 258.048M49.5777 263.049C43.271 262.281 37.9147 258.915 34.4493 254.153M74.0781 243.873C73.3766 249.627 70.5129 254.591 66.4 258.048M74.0781 243.873C74.7855 238.07 73.1649 232.52 69.9493 228.158M54.9018 219.373C48.644 218.61 42.6801 220.554 38.1844 224.286M54.9018 219.373C61.1596 220.136 66.4818 223.455 69.9493 228.158M38.1844 224.286L66.4 258.048M69.9493 228.158L34.4493 254.153" stroke="black"/>
<path d="M53.9943 226.818C49.869 226.315 45.9487 227.588 42.975 230.057C40.2202 232.344 38.313 235.628 37.8463 239.457C37.3835 243.253 38.4244 246.87 40.5133 249.74C42.8057 252.89 46.3281 255.098 50.4852 255.605C54.6423 256.111 58.592 254.814 61.5739 252.307C64.2911 250.023 66.1704 246.762 66.6332 242.966C67.0999 239.137 66.0374 235.491 63.9127 232.609C61.6191 229.498 58.1195 227.32 53.9943 226.818ZM34.0451 254.448C30.8117 250.005 29.1877 244.373 29.9051 238.488C30.6285 232.554 33.6016 227.441 37.865 223.901C42.4622 220.085 48.5623 218.096 54.9623 218.876C61.3623 219.657 66.806 223.053 70.3517 227.862C73.64 232.321 75.2978 237.999 74.5744 243.934C73.857 249.819 70.9277 254.895 66.7218 258.431C62.1124 262.306 55.9671 264.332 49.5172 263.546C43.0672 262.759 37.5886 259.316 34.0451 254.448Z" fill="#858585" stroke="black"/>
<path d="M131.652 250.891L175.329 256.215M131.652 250.891C132.359 245.088 135.266 240.09 139.435 236.629M131.652 250.891C130.95 256.646 132.538 262.152 135.7 266.496M150.828 275.392L156.152 231.715M150.828 275.392C157.135 276.161 163.143 274.18 167.651 270.391M150.828 275.392C144.522 274.623 139.165 271.257 135.7 266.496M175.329 256.215C174.627 261.97 171.763 266.933 167.651 270.391M175.329 256.215C176.036 250.412 174.415 244.862 171.2 240.501M156.152 231.715C149.894 230.952 143.931 232.896 139.435 236.629M156.152 231.715C162.41 232.478 167.732 235.798 171.2 240.501M139.435 236.629L167.651 270.391M171.2 240.501L135.7 266.496" stroke="black"/>
<path d="M139.097 251.799C138.128 259.748 143.786 266.978 151.736 267.947C159.685 268.916 166.915 263.257 167.884 255.308C168.853 247.359 163.194 240.129 155.245 239.16C147.295 238.191 140.066 243.85 139.097 251.799ZM150.768 275.888C138.433 274.384 129.652 263.166 131.156 250.831C132.659 238.496 143.878 229.715 156.213 231.219C168.548 232.722 177.329 243.941 175.825 256.276C174.321 268.611 163.103 277.392 150.768 275.888Z" fill="#858585" stroke="black"/>
<path d="M71.1326 243.244C72.3872 232.951 65.1314 223.642 54.9844 222.405C51.7445 222.01 48.6048 222.482 45.7845 223.639C44.2516 224.268 42.4992 223.535 41.8705 222.002C41.2417 220.469 41.9747 218.717 43.5076 218.088C47.2513 216.552 51.4235 215.927 55.7105 216.449C69.1935 218.093 78.7384 230.435 77.0885 243.97C76.8391 246.016 76.3473 247.977 75.6442 249.826C75.0553 251.374 73.3224 252.152 71.7738 251.563C70.2251 250.974 69.4471 249.242 70.036 247.693C70.5681 246.294 70.9423 244.805 71.1326 243.244Z" fill="#EBF479" stroke="black" stroke-linecap="round"/>
<circle cx="7" cy="7" r="7" transform="matrix(-0.992652 -0.121003 -0.121003 0.992652 114.873 239.779)" fill="#3D405A" stroke="#1E1E1E" stroke-width="4"/>
<path d="M172.906 251.863C172.088 243.163 165.222 235.842 156.038 234.723C145.452 233.432 135.895 240.869 134.629 251.254C134.429 252.898 132.933 254.069 131.288 253.869C129.644 253.668 128.473 252.172 128.673 250.528C130.348 236.79 142.953 227.083 156.764 228.767C168.761 230.229 177.799 239.807 178.88 251.302C179.035 252.951 177.823 254.414 176.174 254.569C174.524 254.724 173.061 253.513 172.906 251.863Z" fill="#EBF479" stroke="black" stroke-linecap="round"/>
<path d="M62.5057 205.25C62.785 202.959 64.9728 201.257 67.3745 201.876C72.8303 203.282 87.9653 207.519 104.66 215.156C120.671 222.48 138.322 233.022 150.175 247.36C151.134 246.992 152.195 246.847 153.284 246.98C156.848 247.414 159.384 250.655 158.95 254.219C158.515 257.782 155.275 260.319 151.711 259.884C149.036 259.558 146.941 257.652 146.245 255.215C133.867 254.159 123.287 253.178 113.738 250.195C103.616 247.033 94.6899 241.643 85.8171 231.707C76.0406 220.759 69.5921 215.367 65.5667 212.957C64.6638 219.276 63.3876 224.936 61.7727 229.63C60.4268 233.541 58.8055 236.901 56.8799 239.409C57.1253 240.089 57.2193 240.835 57.126 241.6C56.8077 244.211 54.4329 246.07 51.8218 245.752C49.2107 245.434 47.352 243.059 47.6703 240.448C47.9886 237.837 50.3633 235.978 52.9744 236.296C53.3401 236.341 53.6914 236.426 54.0243 236.546C55.4451 234.567 56.7906 231.815 57.9904 228.328C59.7239 223.29 61.0819 216.93 61.9685 209.656L62.5057 205.25ZM114.931 246.377C123.953 249.196 134.025 250.156 146.387 251.213C146.56 250.734 146.787 250.285 147.059 249.869C135.778 236.241 118.789 226.017 102.996 218.793C86.6917 211.335 71.8827 207.172 66.4714 205.774L66.1159 208.69C70.7622 211.053 77.9374 216.878 88.8006 229.043C97.2017 238.45 105.513 243.435 114.931 246.377Z" fill="#EBF479" stroke="black"/>
<path d="M46.2291 216.278C43.9552 216.168 41.736 215.963 39.7477 215.731M46.2291 216.278L47.3073 190.905M46.2291 216.278C48.6044 216.394 50.9463 216.339 53.0373 216.211M63.6023 199.086L64.2824 195.024C64.5799 193.247 63.2558 191.611 61.4562 191.531L56.0747 191.293M63.6023 199.086L30.1583 197.527M63.6023 199.086L62.2433 207.2M30.1583 197.527L29.7667 193.559C29.5873 191.741 31.0601 190.187 32.8848 190.267L38.2893 190.506M30.1583 197.527L30.997 206.026M62.2433 207.2L61.2314 213.243C61.0231 214.487 60.06 215.465 58.8107 215.637C57.4037 215.831 55.3777 216.067 53.0373 216.211M62.2433 207.2L30.997 206.026M30.997 206.026L31.6178 212.316C31.7472 213.628 32.7174 214.699 34.0176 214.917C35.4287 215.154 37.4316 215.461 39.7477 215.731M38.2893 190.506L39.7477 215.731M38.2893 190.506L47.3073 190.905M47.3073 190.905L56.0747 191.293M56.0747 191.293L53.0373 216.211" stroke="black"/>
<path d="M143.233 206.067C149.558 207.16 150.637 212.097 147.058 218.476C145.019 222.113 140.419 223.116 136.593 221.458C128.628 218.005 116.02 211.833 115.58 207.202C115.01 201.215 127.132 203.286 143.233 206.067Z" fill="#858585"/>
<path d="M119.67 210.255C125.214 210.234 137.318 211.121 141.38 214.841M143.233 206.067C149.558 207.16 150.637 212.097 147.058 218.476C145.019 222.113 140.419 223.116 136.593 221.458C128.628 218.005 116.02 211.833 115.58 207.202C115.01 201.215 127.132 203.286 143.233 206.067Z" stroke="black" stroke-linecap="round"/>
<path fill-rule="evenodd" clip-rule="evenodd" d="M134.021 215.641C134.781 216.443 134.747 217.709 133.946 218.469C129.755 222.443 119.012 233.622 109.861 246.267C109.213 247.162 107.963 247.362 107.068 246.715C106.173 246.067 105.973 244.817 106.62 243.922C115.946 231.035 126.864 219.672 131.194 215.566C131.995 214.806 133.261 214.84 134.021 215.641Z" fill="#EBF479" stroke="black" stroke-linecap="round" stroke-linejoin="round"/>
<mask id="path-18-outside-1_22129_2368" maskUnits="userSpaceOnUse" x="268.854" y="211.495" width="174" height="129" fill="black">
<rect fill="white" x="268.854" y="211.495" width="174" height="129"/>
<path fill-rule="evenodd" clip-rule="evenodd" d="M384.904 214.907C382.309 212.749 378.456 213.104 376.298 215.699L319.949 283.482L304.194 271.871C301.477 269.869 297.651 270.449 295.649 273.166C293.647 275.883 294.226 279.708 296.943 281.711L312.123 292.896L311.455 293.7L276.953 293.766C273.578 293.772 270.847 296.514 270.854 299.889C270.86 303.264 273.601 305.995 276.976 305.988L301.278 305.942L289.016 320.691C286.859 323.287 287.213 327.14 289.809 329.297C292.404 331.455 296.257 331.1 298.415 328.505L317.17 305.944L329.796 305.92L346.744 318.409L338.584 328.224C336.426 330.82 336.781 334.673 339.376 336.83C341.972 338.988 345.825 338.633 347.982 336.038L356.6 325.672L362.123 329.742C364.84 331.744 368.666 331.164 370.668 328.447C372.67 325.73 372.091 321.905 369.374 319.902L364.427 316.257L373.143 305.771L412.07 332.336C414.857 334.238 418.66 333.521 420.562 330.733C422.464 327.945 421.747 324.143 418.959 322.24L408.392 315.029L400.416 274.739C400.327 274.292 400.18 273.872 399.983 273.486L439.431 226.033C441.589 223.438 441.234 219.585 438.639 217.427C436.043 215.269 432.19 215.624 430.033 218.22L429.322 219.075C428.977 218.754 428.511 218.55 427.967 218.55H387.017C386.776 217.173 386.064 215.87 384.904 214.907ZM397.005 307.258L392.177 282.875L380.992 296.33L397.005 307.258ZM357.169 305.867L350.345 305.88L354.57 308.994L357.169 305.867Z"/>
</mask>
<path fill-rule="evenodd" clip-rule="evenodd" d="M384.904 214.907C382.309 212.749 378.456 213.104 376.298 215.699L319.949 283.482L304.194 271.871C301.477 269.869 297.651 270.449 295.649 273.166C293.647 275.883 294.226 279.708 296.943 281.711L312.123 292.896L311.455 293.7L276.953 293.766C273.578 293.772 270.847 296.514 270.854 299.889C270.86 303.264 273.601 305.995 276.976 305.988L301.278 305.942L289.016 320.691C286.859 323.287 287.213 327.14 289.809 329.297C292.404 331.455 296.257 331.1 298.415 328.505L317.17 305.944L329.796 305.92L346.744 318.409L338.584 328.224C336.426 330.82 336.781 334.673 339.376 336.83C341.972 338.988 345.825 338.633 347.982 336.038L356.6 325.672L362.123 329.742C364.84 331.744 368.666 331.164 370.668 328.447C372.67 325.73 372.091 321.905 369.374 319.902L364.427 316.257L373.143 305.771L412.07 332.336C414.857 334.238 418.66 333.521 420.562 330.733C422.464 327.945 421.747 324.143 418.959 322.24L408.392 315.029L400.416 274.739C400.327 274.292 400.18 273.872 399.983 273.486L439.431 226.033C441.589 223.438 441.234 219.585 438.639 217.427C436.043 215.269 432.19 215.624 430.033 218.22L429.322 219.075C428.977 218.754 428.511 218.55 427.967 218.55H387.017C386.776 217.173 386.064 215.87 384.904 214.907ZM397.005 307.258L392.177 282.875L380.992 296.33L397.005 307.258ZM357.169 305.867L350.345 305.88L354.57 308.994L357.169 305.867Z" fill="#CED2A0"/>
<path d="M376.298 215.699L377.836 216.978V216.978L376.298 215.699ZM384.904 214.907L386.183 213.369V213.369L384.904 214.907ZM319.949 283.482L318.763 285.092L320.282 286.211L321.487 284.76L319.949 283.482ZM304.194 271.871L303.007 273.481L304.194 271.871ZM296.943 281.711L295.757 283.321H295.757L296.943 281.711ZM312.123 292.896L313.661 294.175L315.016 292.544L313.309 291.286L312.123 292.896ZM311.455 293.7L311.459 295.7L312.395 295.698L312.993 294.978L311.455 293.7ZM276.953 293.766L276.957 295.766H276.957L276.953 293.766ZM270.854 299.889L268.854 299.893L270.854 299.889ZM276.976 305.988L276.98 307.988L276.976 305.988ZM301.278 305.942L302.816 307.22L305.548 303.933L301.274 303.942L301.278 305.942ZM289.016 320.691L287.478 319.413L289.016 320.691ZM289.809 329.297L288.53 330.835H288.53L289.809 329.297ZM298.415 328.505L299.953 329.783H299.953L298.415 328.505ZM317.17 305.944L317.166 303.944L316.23 303.946L315.632 304.666L317.17 305.944ZM329.796 305.92L330.982 304.31L330.452 303.919L329.792 303.92L329.796 305.92ZM346.744 318.409L348.282 319.687L349.637 318.057L347.93 316.799L346.744 318.409ZM338.584 328.224L337.046 326.946L338.584 328.224ZM339.376 336.83L340.655 335.292L339.376 336.83ZM347.982 336.038L346.444 334.759L347.982 336.038ZM356.6 325.672L357.786 324.062L356.268 322.943L355.062 324.393L356.6 325.672ZM362.123 329.742L363.309 328.132H363.309L362.123 329.742ZM370.668 328.447L372.278 329.634V329.634L370.668 328.447ZM369.374 319.902L370.56 318.292H370.56L369.374 319.902ZM364.427 316.257L362.889 314.978L361.533 316.609L363.24 317.867L364.427 316.257ZM373.143 305.771L374.271 304.119L372.768 303.094L371.605 304.493L373.143 305.771ZM412.07 332.336L413.197 330.684L412.07 332.336ZM420.562 330.733L418.91 329.605H418.91L420.562 330.733ZM418.959 322.24L420.086 320.588L418.959 322.24ZM408.392 315.029L406.43 315.418L406.589 316.22L407.265 316.681L408.392 315.029ZM400.416 274.739L398.454 275.127V275.127L400.416 274.739ZM399.983 273.486L398.445 272.207L397.604 273.219L398.2 274.392L399.983 273.486ZM439.431 226.033L437.894 224.755V224.755L439.431 226.033ZM438.639 217.427L437.36 218.965V218.965L438.639 217.427ZM430.033 218.22L428.495 216.941V216.941L430.033 218.22ZM429.322 219.075L427.961 220.541L429.51 221.978L430.86 220.353L429.322 219.075ZM387.017 218.55L385.047 218.895L385.337 220.55H387.017V218.55ZM397.005 307.258L395.877 308.91L399.916 311.666L398.967 306.87L397.005 307.258ZM392.177 282.875L394.139 282.487L393.324 278.368L390.64 281.597L392.177 282.875ZM380.992 296.33L379.454 295.052L378.048 296.743L379.864 297.982L380.992 296.33ZM350.345 305.88L350.342 303.88L344.276 303.892L349.159 307.491L350.345 305.88ZM357.169 305.867L358.707 307.146L361.44 303.859L357.166 303.867L357.169 305.867ZM354.57 308.994L353.384 310.604L354.902 311.723L356.108 310.272L354.57 308.994ZM377.836 216.978C379.288 215.232 381.88 214.993 383.626 216.445L386.183 213.369C382.738 210.505 377.624 210.976 374.76 214.421L377.836 216.978ZM321.487 284.76L377.836 216.978L374.76 214.421L318.411 282.203L321.487 284.76ZM303.007 273.481L318.763 285.092L321.136 281.872L305.38 270.261L303.007 273.481ZM297.259 274.352C298.606 272.524 301.179 272.134 303.007 273.481L305.38 270.261C301.774 267.604 296.696 268.373 294.039 271.979L297.259 274.352ZM298.13 280.101C296.302 278.754 295.912 276.18 297.259 274.352L294.039 271.979C291.381 275.586 292.15 280.663 295.757 283.321L298.13 280.101ZM313.309 291.286L298.13 280.101L295.757 283.321L310.936 294.507L313.309 291.286ZM312.993 294.978L313.661 294.175L310.585 291.618L309.917 292.421L312.993 294.978ZM276.957 295.766L311.459 295.7L311.451 291.7L276.949 291.766L276.957 295.766ZM272.854 299.885C272.849 297.614 274.686 295.77 276.957 295.766L276.949 291.766C272.469 291.775 268.845 295.413 268.854 299.893L272.854 299.885ZM276.973 303.988C274.702 303.993 272.858 302.155 272.854 299.885L268.854 299.893C268.862 304.372 272.501 307.997 276.98 307.988L276.973 303.988ZM301.274 303.942L276.973 303.988L276.98 307.988L301.282 307.942L301.274 303.942ZM290.554 321.97L302.816 307.22L299.74 304.663L287.478 319.413L290.554 321.97ZM291.087 327.759C289.341 326.308 289.103 323.716 290.554 321.97L287.478 319.413C284.615 322.858 285.086 327.972 288.53 330.835L291.087 327.759ZM296.877 327.226C295.425 328.972 292.833 329.211 291.087 327.759L288.53 330.835C291.975 333.699 297.089 333.228 299.953 329.783L296.877 327.226ZM315.632 304.666L296.877 327.226L299.953 329.783L318.708 307.223L315.632 304.666ZM329.792 303.92L317.166 303.944L317.174 307.944L329.8 307.92L329.792 303.92ZM347.93 316.799L330.982 304.31L328.609 307.53L345.557 320.019L347.93 316.799ZM340.122 329.503L348.282 319.687L345.206 317.13L337.046 326.946L340.122 329.503ZM340.655 335.292C338.909 333.841 338.67 331.249 340.122 329.503L337.046 326.946C334.182 330.391 334.653 335.505 338.098 338.368L340.655 335.292ZM346.444 334.759C344.993 336.505 342.401 336.744 340.655 335.292L338.098 338.368C341.543 341.232 346.657 340.761 349.52 337.316L346.444 334.759ZM355.062 324.393L346.444 334.759L349.52 337.316L358.138 326.95L355.062 324.393ZM363.309 328.132L357.786 324.062L355.413 327.282L360.937 331.352L363.309 328.132ZM369.058 327.261C367.711 329.089 365.137 329.479 363.309 328.132L360.937 331.352C364.543 334.009 369.621 333.24 372.278 329.634L369.058 327.261ZM368.187 321.512C370.015 322.859 370.405 325.433 369.058 327.261L372.278 329.634C374.935 326.027 374.166 320.95 370.56 318.292L368.187 321.512ZM363.24 317.867L368.187 321.512L370.56 318.292L365.613 314.647L363.24 317.867ZM371.605 304.493L362.889 314.978L365.964 317.535L374.681 307.05L371.605 304.493ZM413.197 330.684L374.271 304.119L372.016 307.423L410.942 333.988L413.197 330.684ZM418.91 329.605C417.63 331.481 415.072 331.964 413.197 330.684L410.942 333.988C414.642 336.513 419.689 335.56 422.214 331.86L418.91 329.605ZM417.832 323.892C419.707 325.172 420.19 327.73 418.91 329.605L422.214 331.86C424.739 328.16 423.786 323.114 420.086 320.588L417.832 323.892ZM407.265 316.681L417.832 323.892L420.086 320.588L409.519 313.377L407.265 316.681ZM398.454 275.127L406.43 315.418L410.354 314.641L402.377 274.35L398.454 275.127ZM398.2 274.392C398.315 274.616 398.401 274.862 398.454 275.127L402.378 274.35C402.253 273.722 402.045 273.128 401.766 272.579L398.2 274.392ZM437.894 224.755L398.445 272.207L401.521 274.764L440.969 227.312L437.894 224.755ZM437.36 218.965C439.106 220.417 439.345 223.009 437.894 224.755L440.969 227.312C443.833 223.867 443.362 218.753 439.917 215.889L437.36 218.965ZM431.571 219.498C433.022 217.752 435.614 217.514 437.36 218.965L439.917 215.889C436.473 213.025 431.359 213.496 428.495 216.941L431.571 219.498ZM430.86 220.353L431.571 219.498L428.495 216.941L427.784 217.796L430.86 220.353ZM427.967 220.55C427.973 220.55 427.976 220.55 427.979 220.551C427.981 220.551 427.982 220.551 427.982 220.551C427.982 220.551 427.981 220.551 427.98 220.551C427.979 220.55 427.977 220.55 427.976 220.549C427.972 220.548 427.969 220.546 427.966 220.544C427.963 220.542 427.962 220.541 427.961 220.541L430.683 217.609C429.981 216.958 429.034 216.55 427.967 216.55V220.55ZM387.017 220.55H427.967V216.55H387.017V220.55ZM383.626 216.445C384.407 217.094 384.885 217.967 385.047 218.895L388.987 218.206C388.668 216.379 387.721 214.647 386.183 213.369L383.626 216.445ZM398.967 306.87L394.139 282.487L390.216 283.264L395.043 307.647L398.967 306.87ZM390.64 281.597L379.454 295.052L382.53 297.609L393.715 284.154L390.64 281.597ZM379.864 297.982L395.877 308.91L398.132 305.606L382.119 294.678L379.864 297.982ZM350.349 307.88L357.173 307.867L357.166 303.867L350.342 303.88L350.349 307.88ZM355.757 307.384L351.532 304.27L349.159 307.491L353.384 310.604L355.757 307.384ZM355.632 304.589L353.032 307.715L356.108 310.272L358.707 307.146L355.632 304.589Z" fill="black" mask="url(#path-18-outside-1_22129_2368)"/>
<rect x="380.27" y="211.704" width="11.2222" height="147.756" rx="5.61112" transform="rotate(39.7375 380.27 211.704)" fill="#CED2A0" stroke="black"/>
<rect x="292.723" y="277.98" width="11.2222" height="92.1876" rx="5.61112" transform="rotate(-53.6135 292.723 277.98)" fill="#CED2A0" stroke="black"/>
<path d="M380.648 219.575C380.933 219.242 381.35 219.05 381.788 219.05H427.967C429.214 219.05 429.916 220.482 429.154 221.468L369.398 298.753C369.084 299.158 368.585 299.376 368.074 299.329L319.395 294.856C318.183 294.744 317.601 293.312 318.392 292.387L380.648 219.575Z" fill="#DF8365" stroke="black" stroke-linejoin="round"/>
<rect x="390.588" y="272.27" width="8.66136" height="50.9391" rx="4.33068" transform="rotate(-11.1984 390.588 272.27)" fill="#CED2A0" stroke="black"/>
<rect x="434.004" y="214.225" width="11.2222" height="154.275" rx="5.61112" transform="rotate(39.7375 434.004 214.225)" fill="#CED2A0" stroke="black"/>
<rect x="271.364" y="305.499" width="11.2222" height="69.6506" rx="5.61112" transform="rotate(-90.1098 271.364 305.499)" fill="#CED2A0" stroke="black"/>
<rect x="274.5" y="302.5" width="6" height="51" rx="3" transform="rotate(-90 274.5 302.5)" fill="#FFD891" stroke="black" stroke-linejoin="round"/>
<rect x="300.507" y="305.476" width="11.2222" height="72.5082" rx="5.61112" transform="rotate(-90.1098 300.507 305.476)" fill="#CED2A0" stroke="black"/>
<rect x="339.851" y="282.446" width="11.2222" height="93.3847" rx="5.61112" transform="rotate(-55.6891 339.851 282.446)" fill="#CED2A0" stroke="black"/>
<path d="M352.343 138.902C347.99 138.031 342.334 143.395 341.925 145.029C340.904 149.318 343.275 155.935 351.117 155.445C360.921 154.832 361.532 140.74 352.343 138.902Z" fill="#725D41" stroke="black" stroke-linecap="round" stroke-linejoin="round"/>
<path d="M300.659 134.095C305.012 133.224 310.668 138.589 311.076 140.222C312.097 144.512 309.727 151.129 301.885 150.638C292.081 150.026 291.47 135.933 300.659 134.095Z" fill="#725D41" stroke="black" stroke-linecap="round" stroke-linejoin="round"/>
<path d="M229.971 257.156C239.942 249.928 258.297 246.928 266.228 246.74C288.321 255.022 282.089 291.913 276.991 291.913C232.845 291.913 238.14 318.457 229.971 315.065C223.173 312.241 196.546 297.56 201.645 293.607C205.723 290.445 213.352 288.337 216.373 289.655C222.602 287.396 220.001 264.384 229.971 257.156Z" fill="#725D41" stroke="black" stroke-linecap="round" stroke-linejoin="round"/>
<path d="M218.743 221.005C230.632 210.575 256.603 217.49 294.492 188.911C295.543 188.118 297.087 188.502 297.51 189.749C303.177 206.467 296.675 226.949 275.751 235.098C253.795 243.649 243.89 243.676 225.03 238.936C223.774 241.838 224.266 243.251 221.833 244.901C218.474 247.178 203.611 234.282 218.743 221.005Z" fill="#725D41"/>
<path d="M226.734 233.873C225.565 236.742 225.03 238.936 225.03 238.936M225.03 238.936C223.774 241.838 224.266 243.251 221.833 244.901C218.474 247.178 203.611 234.282 218.743 221.005C230.632 210.575 256.603 217.49 294.492 188.911C295.543 188.118 297.087 188.502 297.51 189.749C303.177 206.467 296.675 226.949 275.751 235.098C253.795 243.649 243.89 243.676 225.03 238.936Z" stroke="black"/>
<path d="M373.174 209.364C370.233 194.169 357.856 179.341 352.953 159.121L295.971 179.341C295.971 210.59 254.363 226.103 251.501 249C250.001 261 254.001 264.5 254.001 264.5C239.501 279 247.5 306 242.5 306C240.215 306 231.042 306.459 228.001 309.5C221.501 316 258.5 337.5 263.001 331.5C266.601 326.7 282.611 303.442 295.971 297C306.388 291.977 319.165 298.522 352.953 293.5C373.686 290.418 376.85 228.358 373.174 209.364Z" fill="#725D41"/>
<path d="M279.001 253.5C270.001 253.5 259.501 259 254.001 264.5M254.001 264.5C239.501 279 247.5 306 242.5 306C240.215 306 231.042 306.459 228.001 309.5C221.501 316 258.5 337.5 263.001 331.5C266.601 326.7 282.611 303.442 295.971 297C306.388 291.977 319.165 298.522 352.953 293.5C373.686 290.418 376.85 228.358 373.174 209.364C370.233 194.169 357.856 179.341 352.953 159.121L295.971 179.341C295.971 210.59 254.363 226.103 251.501 249C250.001 261 254.001 264.5 254.001 264.5Z" stroke="black" stroke-linecap="round" stroke-linejoin="round"/>
<path d="M351.728 170.763C347.403 176.529 314.854 180.608 297.027 184.037C296.361 184.165 295.819 184.621 295.568 185.25C292.244 193.581 286.317 208.69 284.36 216.107C283.952 217.654 285.439 218.507 286.744 217.582C312.03 199.645 351.728 181.359 351.728 170.763Z" fill="#B5966E" stroke="black"/>
<path d="M302.711 139.514C293.888 143.436 288.619 156.671 287.393 167.087C292.908 186.081 297.197 192.821 329.671 184.243C362.145 175.665 354.179 159.122 346.827 147.48C339.474 135.838 313.74 134.613 302.711 139.514Z" fill="#725D41" stroke="black" stroke-linecap="round" stroke-linejoin="round"/>
<path d="M317.53 153.688C317.467 155.937 319.24 157.811 321.489 157.874C323.739 157.936 325.613 156.164 325.675 153.914C325.738 151.665 324.092 152.959 321.843 152.896C319.593 152.834 317.592 151.438 317.53 153.688Z" fill="black"/>
<path d="M295.472 152.462C295.409 154.712 297.182 156.586 299.431 156.648C301.681 156.711 303.555 154.938 303.618 152.689C303.68 150.44 302.034 151.733 299.785 151.671C297.535 151.608 295.535 150.213 295.472 152.462Z" fill="black"/>
<circle cx="296.584" cy="152.382" r="8.07804" fill="white" fill-opacity="0.21" stroke="black"/>
<path d="M308.913 151.286C306.003 151.771 295.057 156.094 284.737 162.119C284.517 162.248 284.314 162.428 284.163 162.634C274.375 175.92 298.579 183.745 308.913 181.922C319.329 180.084 316.878 172.731 316.265 162.315C315.652 151.898 312.589 150.673 308.913 151.286Z" fill="#B5966E" stroke="black"/>
<path d="M284.443 163.491C284.38 165.74 286.153 167.615 288.403 167.677C290.652 167.74 292.526 165.967 292.589 163.718C292.651 161.468 291.005 162.762 288.756 162.7C286.507 162.637 284.506 161.242 284.443 163.491Z" fill="black"/>
<circle cx="319.867" cy="153.607" r="9.30347" fill="white" fill-opacity="0.21" stroke="black"/>
<path d="M210.803 202.624L206.514 205.075L221.22 227.746L259.208 217.329L259.821 204.462L258.595 201.399L257.37 198.335C239.724 198.335 223.058 210.59 221.22 214.879C219.749 209.487 216.931 207.526 210.803 202.624Z" fill="white"/>
<path d="M234.699 208.139C238.58 205.484 248.792 200.419 258.595 201.399M258.595 201.399L257.37 198.335C239.724 198.335 223.058 210.59 221.22 214.879C219.749 209.487 216.931 207.526 210.803 202.624L206.514 205.075L221.22 227.746L259.208 217.329L259.821 204.462L258.595 201.399Z" stroke="black"/>
<path d="M260.045 203.582L224.163 215.934C223.855 216.041 223.617 216.291 223.527 216.605L222.652 219.668C222.53 220.097 222.137 220.393 221.691 220.393H217.931C217.378 220.393 216.931 219.945 216.931 219.393V216.451C216.931 216.226 216.855 216.008 216.716 215.832L206.691 203.107C205.951 202.168 204.484 203.085 205.005 204.162L219.339 233.786C219.367 233.844 219.401 233.899 219.44 233.95L234.087 253.48H240.214L272.246 246.955C272.815 246.839 273.166 246.263 273.009 245.704L261.333 204.256C261.177 203.703 260.589 203.395 260.045 203.582Z" fill="#F5C142"/>
<path d="M240.214 253.48L272.246 246.955C272.815 246.839 273.166 246.263 273.009 245.704L261.333 204.256C261.177 203.703 260.589 203.395 260.045 203.582L224.163 215.934C223.855 216.041 223.617 216.291 223.527 216.605L222.652 219.668C222.53 220.097 222.137 220.393 221.691 220.393H217.931C217.378 220.393 216.931 219.945 216.931 219.393V216.451C216.931 216.226 216.855 216.008 216.716 215.832L206.691 203.107C205.951 202.168 204.484 203.085 205.005 204.162L219.339 233.786C219.367 233.844 219.401 233.899 219.44 233.95L234.087 253.48M240.214 253.48H234.087M240.214 253.48L225.509 223.457M234.087 253.48L218.156 223.457" stroke="black" stroke-linejoin="round"/>
<path d="M290.307 223.803C296.934 222.476 317.097 199.784 336.254 188.061C337.399 187.36 338.87 188.015 339.163 189.325L347.935 228.457C348.012 228.8 347.996 229.154 347.834 229.467C346.99 231.092 343.198 236.731 328.229 245.378C305.821 258.323 303.36 250.556 276.518 250.556C259.283 250.556 254.112 247.104 259.283 238.474C264.454 229.844 281.689 225.529 290.307 223.803Z" fill="#725D41"/>
<path d="M338.574 186.694C318.751 197.913 297.202 222.422 290.307 223.803C281.689 225.529 264.454 229.844 259.283 238.474C254.112 247.104 259.283 250.556 276.518 250.556C303.36 250.556 305.821 258.323 328.229 245.378C346.156 235.022 348.052 228.981 348.052 228.981" stroke="black"/>
<path d="M253.694 241.838C254.306 240.613 258.595 238.775 261.046 238.775L260.434 240.613C258.963 240.122 256.145 241.021 253.694 241.838Z" fill="black" stroke="black" stroke-linejoin="round"/>
<path d="M253.694 246.127C254.306 244.902 258.595 243.064 261.046 243.064L260.434 244.902C258.963 244.411 256.145 245.31 253.694 246.127Z" fill="black" stroke="black" stroke-linejoin="round"/>
<path d="M226.596 241.961C225.612 242.808 222.093 242.898 220.607 242.04L221.897 240.663C222.544 241.602 224.702 241.811 226.596 241.961Z" fill="black" stroke="black" stroke-linejoin="round"/>
<path d="M225.371 244.412C224.387 245.259 220.867 245.349 219.381 244.491L220.672 243.114C221.318 244.053 223.477 244.261 225.371 244.412Z" fill="black" stroke="black" stroke-linejoin="round"/>
<path d="M255.532 248.578C257.983 248.497 259.208 248.578 261.658 247.353L262.884 248.578C261.047 249.191 257.983 249.191 255.532 248.578Z" fill="black" stroke="black" stroke-linejoin="round"/>
<rect x="339.695" y="281.964" width="11.2222" height="93.3847" rx="5.61112" transform="rotate(-55.6891 339.695 281.964)" fill="#CED2A0" stroke="black"/>
<path d="M467 375.859C465.99 379.151 464.172 386.757 464.98 390.843C465.653 394.249 465.906 399.626 465.971 403.032C465.991 404.044 465.233 404.896 464.227 405.016L388.895 414L354.111 395.923C353.079 395.387 352.591 394.015 352.782 392.868C353.152 390.644 353.364 387.093 353.474 383.351L333.889 381.298C332.83 381.187 332.042 380.266 332.119 379.204C332.842 369.245 335.442 353.24 341.223 351.681C345.218 350.546 355.701 348.752 365.666 350.659C369.002 351.298 371.855 351.936 374.419 352.502C381.264 352.229 396.167 351.068 401.015 348.616C407.075 345.551 415.828 344.729 420.204 348.616C423.706 351.725 426.152 358.766 426.938 361.897L467 375.859Z" fill="#DEC4A5"/>
<path d="M353.546 371.432L388.895 386.076M353.546 371.432C374.419 369.049 418.319 363.804 426.938 361.897M353.546 371.432C353.209 365.643 350.651 353.588 343.11 351.681C342.446 351.513 341.818 351.521 341.223 351.681M353.546 371.432C353.596 374.507 353.602 379.054 353.474 383.351M388.895 386.076C390.242 390.979 389.456 406.735 388.895 414M388.895 386.076L426.938 381.1M467 375.859C465.99 379.151 464.172 386.757 464.98 390.843C465.653 394.249 465.906 399.626 465.971 403.032C465.991 404.044 465.233 404.896 464.227 405.016L388.895 414M467 375.859L426.938 361.897M467 375.859L426.938 381.1M388.895 414L354.111 395.923C353.079 395.387 352.591 394.015 352.782 392.868C353.152 390.644 353.364 387.093 353.474 383.351M462.623 387.438C461.052 389.14 457.708 393.431 456.9 396.973M426.938 361.897C427.387 367.207 428.015 378.481 426.938 381.1M426.938 361.897C426.152 358.766 423.706 351.725 420.204 348.616C415.828 344.729 407.075 345.551 401.015 348.616C396.167 351.068 381.264 352.229 374.419 352.502M353.474 383.351L333.889 381.298C332.83 381.187 332.042 380.266 332.119 379.204C332.842 369.245 335.442 353.24 341.223 351.681M341.223 351.681C345.218 350.546 355.701 348.752 365.666 350.659C369.002 351.298 371.855 351.936 374.419 352.502M392.935 354.065C386.28 355.062 381.429 354.051 374.419 352.502" stroke="black"/>
<path d="M388.895 386.076L353.546 371.433C374.419 369.049 418.319 363.804 426.937 361.897L467 375.86L426.937 381.1L388.895 386.076Z" fill="#A38D73"/>
<path d="M426.937 361.897C418.319 363.804 374.419 369.049 353.546 371.433L388.895 386.076L426.937 381.1M426.937 361.897L467 375.86L426.937 381.1M426.937 361.897C427.386 367.207 428.015 378.481 426.937 381.1" stroke="black" stroke-linejoin="round"/>
<mask id="mask0_22129_2368" style="mask-type:alpha" maskUnits="userSpaceOnUse" x="359" y="336" width="106" height="50">
<path d="M388.518 385.309L360.958 374.373C359.025 373.606 359.31 370.31 361.303 369.712C383.885 362.929 422.372 339.786 432.345 336.339C433.056 336.093 433.801 336.366 434.279 336.947L463.705 372.711C464.704 373.925 463.977 375.763 462.418 375.965L389.514 385.433C389.177 385.477 388.834 385.434 388.518 385.309Z" fill="#DEC4A5"/>
</mask>
<g mask="url(#mask0_22129_2368)">
<circle cx="383" cy="377" r="10.5" fill="#C9615F" stroke="black"/>
<path d="M382 370C382.5 370.167 383.8 370.4 385 370" stroke="black" stroke-linecap="round" stroke-linejoin="round"/>
<circle cx="399" cy="382" r="10.5" fill="#C9615F" stroke="black"/>
<path d="M398 375C398.5 375.167 399.8 375.4 401 375" stroke="black" stroke-linecap="round" stroke-linejoin="round"/>
<rect x="413.5" y="358.5" width="31" height="34" rx="8.5" fill="#8ED4D0" stroke="black"/>
<path d="M440.5 359.5C440.5 359.927 440.271 360.394 439.725 360.877C439.18 361.361 438.363 361.819 437.31 362.214C435.207 363.002 432.27 363.5 429 363.5C425.73 363.5 422.793 363.002 420.69 362.214C419.637 361.819 418.82 361.361 418.275 360.877C417.729 360.394 417.5 359.927 417.5 359.5V351.5H440.5V359.5Z" fill="#DD6F37" stroke="black"/>
<path d="M440.5 351.5C440.5 351.927 440.271 352.394 439.725 352.877C439.18 353.361 438.363 353.819 437.31 354.214C435.207 355.002 432.27 355.5 429 355.5C425.73 355.5 422.793 355.002 420.69 354.214C419.637 353.819 418.82 353.361 418.275 352.877C417.729 352.394 417.5 351.927 417.5 351.5C417.5 351.073 417.729 350.606 418.275 350.123C418.82 349.639 419.637 349.181 420.69 348.786C422.793 347.998 425.73 347.5 429 347.5C432.27 347.5 435.207 347.998 437.31 348.786C438.363 349.181 439.18 349.639 439.725 350.123C440.271 350.606 440.5 351.073 440.5 351.5Z" fill="#CF8864" stroke="black"/>
</g>
<path d="M359.231 355.641C356.029 355.126 354.838 358.182 354.473 360.448L356 361.097C356 361.097 357.52 360.938 358.45 360.496C361.257 359.158 361.173 355.954 359.231 355.641Z" fill="white" stroke="black" stroke-linecap="round"/>
<path d="M349.008 363.458C349.258 361.904 350.396 361.025 350.934 360.779C353.846 361.248 356.915 360.747 358.042 359.932C359.169 359.118 362.896 360.714 361.864 364.033C360.831 367.353 356.228 368.106 352.345 367.481C349.238 366.981 349.181 365.477 348.852 364.428L347.474 363.708L349.008 363.458Z" fill="#FEEF48" stroke="black" stroke-linecap="round"/>
<path d="M349.008 363.458C349.258 361.904 350.448 360.701 351.904 360.936C351.904 360.936 350.829 361.426 350.465 363.692C349.912 367.125 352.345 367.481 352.345 367.481C352.345 367.481 348.868 367.419 348.852 364.428L347.474 363.709L349.008 363.458Z" fill="black"/>
<path d="M353.36 361.17C352.964 362.6 352.09 365.348 353.394 367.152" stroke="black" stroke-linecap="round"/>
<path d="M356.453 360.672C356.057 362.102 356.078 366.09 358.252 366.938" stroke="black" stroke-linecap="round"/>
<path d="M352.962 355.224C356.194 354.948 356.272 359.409 355.907 361.675L354.253 361.812C354.253 361.812 352.86 361.184 352.117 360.472C349.871 358.321 348.922 355.57 352.962 355.224Z" fill="white" stroke="black" stroke-linecap="round"/>
<path d="M358.124 361.439C357.905 360.74 357.789 359.194 359.079 358.605" stroke="black" stroke-linecap="round"/>
<path d="M360.876 360.886C360.96 360.369 361.333 359.287 362.16 359.101" stroke="black" stroke-linecap="round"/>
<path d="M409.445 385.766L417.567 384.667L418.926 392.667C418.926 394.444 418.654 399.533 417.567 405.667C417.04 408.635 418.669 412.505 420.965 416.187C434.827 418.202 444.28 414.902 447.273 413C444.729 408.469 441.49 403.393 441.691 398.667C441.811 395.845 441.583 392.791 441.222 390C440.92 387.656 440.524 385.498 440.162 383.82C439.912 382.662 440.669 381.506 441.839 381.321L450.185 380C450.558 381.831 451.096 385.11 451.414 388.667C451.675 391.585 451.789 394.689 451.544 397.333C451.062 402.534 454.639 408.991 457.114 412.48C457.623 413.199 457.658 414.162 457.146 414.879C454.982 417.903 451.401 422.606 449.506 424C447.331 425.6 434.782 426 428.779 426C425.495 424.889 418.654 422.533 417.567 422C416.207 421.333 406.354 408 407.034 405C407.577 402.6 407.713 396.222 407.713 393.333V387.748C407.713 386.747 408.453 385.9 409.445 385.766Z" fill="#CED2A0"/>
<path d="M417.567 384.667L409.445 385.766C408.453 385.9 407.713 386.747 407.713 387.748V393.333M417.567 384.667L418.926 392.667M417.567 384.667L407.713 393.333M418.926 392.667L407.713 393.333M418.926 392.667L409.412 387.333M418.926 392.667C418.926 394.444 418.654 399.533 417.567 405.667C417.04 408.635 418.669 412.505 420.965 416.187M407.713 393.333C407.713 396.222 407.577 402.6 407.034 405C406.354 408 416.207 421.333 417.567 422C418.654 422.533 425.495 424.889 428.779 426M428.779 426C434.782 426 447.331 425.6 449.506 424C451.401 422.606 454.982 417.903 457.146 414.879C457.658 414.162 457.623 413.199 457.114 412.48C454.639 408.991 451.062 402.534 451.544 397.333C451.789 394.689 451.675 391.585 451.414 388.667M428.779 426C426.617 423.822 423.412 420.111 420.965 416.187M450.185 380L441.839 381.321C440.669 381.506 439.912 382.662 440.162 383.82C440.524 385.498 440.92 387.656 441.222 390M450.185 380C450.558 381.831 451.096 385.11 451.414 388.667M450.185 380L442.71 388.667M450.185 421.333C450.463 419.015 449.035 416.138 447.273 413M447.273 413C444.729 408.469 441.49 403.393 441.691 398.667C441.811 395.845 441.583 392.791 441.222 390M447.273 413C444.28 414.902 434.827 418.202 420.965 416.187M441.222 390L451.414 388.667M441.222 382.667L450.185 387.333" stroke="black" stroke-linejoin="round"/>
<path d="M340 383H345C346.105 383 347 383.895 347 385L347 387C347 388.105 346.105 389 345 389H342.692" stroke="black" stroke-width="2" stroke-linecap="round" stroke-linejoin="round"/>
<path d="M326.589 375C317.883 375 311 377.15 311 379.803C311 380.637 311.523 381.422 312.752 382.105L315.379 394.3C315.904 395.501 319.302 397.559 326.589 397.559C333.875 397.559 336.573 396.701 338.149 394.986L341.09 381.689C341.903 381.11 342.353 380.472 342.353 379.803C342.353 377.15 335.295 375 326.589 375Z" fill="#D9D9D9"/>
<path d="M312.752 382.105C311.523 381.422 311 380.637 311 379.803C311 377.15 317.883 375 326.589 375C335.295 375 342.353 377.15 342.353 379.803C342.353 381.772 338.462 383.465 332.895 384.206M312.752 382.105L315.379 394.3C315.904 395.501 319.302 397.559 326.589 397.559C333.875 397.559 336.573 396.701 338.149 394.986L341.09 381.689M312.752 382.105C313.906 382.748 315.529 383.301 317.481 383.723" stroke="black" stroke-linecap="round" stroke-linejoin="round"/>
<path d="M338.735 380.059C338.735 380.188 338.613 380.462 337.995 380.816C337.415 381.148 336.543 381.464 335.422 381.736C333.187 382.278 330.074 382.618 326.618 382.618C323.161 382.618 320.048 382.278 317.813 381.736C316.692 381.464 315.82 381.148 315.24 380.816C314.622 380.462 314.5 380.188 314.5 380.059C314.5 379.93 314.622 379.656 315.24 379.302C315.82 378.97 316.692 378.654 317.813 378.382C320.048 377.84 323.161 377.5 326.618 377.5C330.074 377.5 333.187 377.84 335.422 378.382C336.543 378.654 337.415 378.97 337.995 379.302C338.613 379.656 338.735 379.93 338.735 380.059Z" fill="#725D41" stroke="black"/>
<path d="M321.647 380.059C323.049 379.804 326.542 379.371 329.295 379.676" stroke="white" stroke-linecap="round" stroke-linejoin="round"/>
<path d="M285.734 326.181C284.506 324.231 282.558 322.598 279.742 323.088C276.871 323.586 278.045 325.99 280.025 328.224C278.858 327.483 276.425 326.7 276.025 329.5C275.625 332.3 280.191 333 282.525 333H285.593H288.379H290.887C291.444 331.475 290.329 323.596 287.264 323.85C285.204 324.021 285.294 325.28 285.734 326.181Z" fill="#71A20F"/>
<path d="M287.264 329.95C287.069 329.028 286.66 327.807 286.01 326.646M286.01 326.646C284.807 324.501 282.779 322.56 279.742 323.088C276.871 323.586 278.045 325.99 280.025 328.224C278.858 327.483 276.425 326.7 276.025 329.5C275.625 332.3 280.191 333 282.525 333M286.01 326.646C285.406 325.799 284.813 324.053 287.264 323.85C290.329 323.596 291.444 331.475 290.887 333" stroke="black" stroke-linecap="round" stroke-linejoin="round"/>
<path d="M36.7336 259.181C35.5064 257.231 33.5576 255.598 30.7416 256.088C27.8714 256.586 29.0449 258.99 31.0247 261.224C29.858 260.483 27.4247 259.7 27.0247 262.5C26.6247 265.3 31.1913 266 33.5247 266H36.5928H39.3791H41.8866C42.4439 264.475 41.3294 256.596 38.2645 256.85C36.2042 257.021 36.2943 258.28 36.7336 259.181Z" fill="#71A20F"/>
<path d="M38.2645 262.95C38.0688 262.028 37.6602 260.807 37.0096 259.646M37.0096 259.646C35.8073 257.501 33.7789 255.56 30.7416 256.088C27.8714 256.586 29.0449 258.99 31.0247 261.224C29.858 260.483 27.4247 259.7 27.0247 262.5C26.6247 265.3 31.1913 266 33.5247 266M37.0096 259.646C36.4062 258.799 35.8126 257.053 38.2645 256.85C41.3294 256.596 42.4439 264.475 41.8866 266" stroke="black" stroke-linecap="round" stroke-linejoin="round"/>
<path d="M439.515 318.158C447.196 319.621 437.229 330.198 432.657 333.703L429.913 335.989H425.341H421.227C420.312 333.246 422.141 319.072 427.17 319.529C430.551 319.837 430.403 322.102 429.683 323.723C431.696 320.214 434.894 317.277 439.515 318.158Z" fill="#71A20F"/>
<path d="M427.17 330.502C427.491 328.843 428.162 326.647 429.23 324.559M432.657 333.703C437.229 330.198 447.196 319.621 439.515 318.158C434.531 317.208 431.202 320.699 429.23 324.559M429.23 324.559C430.22 323.035 431.194 319.895 427.17 319.529C422.141 319.072 420.312 333.246 421.227 335.989" stroke="black" stroke-linecap="round"/>
</svg>
