<svg width="117" height="124" viewBox="0 0 117 124" fill="none" xmlns="http://www.w3.org/2000/svg">
<path d="M7.93664 58.9729L7.93666 58.9729L13.6017 55.4867C14.0189 55.23 14.4796 55.0521 14.961 54.9619L17.8676 54.4169L14.0797 48.5131C13.1418 47.0513 13.2544 45.1512 14.3584 43.8104L22.0111 34.5167L24.327 36.4237L22.0111 34.5167C22.8312 33.5207 24.1469 32.9133 25.5721 33.0989C29.4533 33.6044 38.5204 35.9086 40.0916 36.3113L43.8524 36.6132L38.2713 15.5234C37.8443 13.9098 38.4641 12.2007 39.8261 11.236L50.0098 4.02253C51.1265 3.23154 52.57 3.06631 53.8366 3.5845L52.7006 6.36109L53.8366 3.5845L65.2513 8.25477C66.7545 8.86981 67.7366 10.3327 67.7366 11.9569V12.1052L75.991 11.1192L76.3464 14.0944L75.9911 11.1192C76.2781 11.0849 76.568 11.0818 76.8558 11.11L99.7423 13.3538C101.614 13.5373 103.105 14.9995 103.325 16.867L105.043 31.4647C105.057 31.5812 105.064 31.6983 105.064 31.8155V53.0333L113.484 69.7721L113.484 69.7722C113.943 70.6854 114.035 71.7398 113.742 72.719L112.605 76.5065C112.231 77.7533 111.274 78.7402 110.039 79.1518L106.651 80.281L105.074 89.9103C104.944 90.7055 104.577 91.4429 104.02 92.0258L94.5175 101.981L92.3475 99.9097L94.5175 101.981C94.2996 102.209 94.0554 102.411 93.7902 102.582L93.79 102.582L66.8602 119.927L65.2358 117.405L66.8602 119.927C65.6294 120.719 64.064 120.776 62.7789 120.075L22.4814 98.095C21.8496 97.7504 21.3225 97.2417 20.9557 96.6227L13.7701 84.497C13.4042 83.8796 13.2112 83.1753 13.2112 82.4577V81.7041C12.7017 81.4401 12.2548 81.0696 11.9011 80.6176M7.93664 58.9729L11.9011 80.6176M7.93664 58.9729C7.3018 59.3636 6.78873 59.9239 6.45534 60.5907L3.5995 66.3024C2.90867 67.6841 3.07516 69.34 4.02719 70.5565L11.9011 80.6176M7.93664 58.9729L11.9011 80.6176M44.0831 37.4847C44.0828 37.4838 44.0826 37.4829 44.0824 37.482L44.0831 37.4847ZM20.7854 53.8698L20.7827 53.8703C20.7836 53.8701 20.7845 53.8699 20.7855 53.8698L21.154 55.8355L20.7854 53.8698Z" fill="#AA7755" stroke="white" stroke-width="6" stroke-linecap="round" stroke-linejoin="round"/>
<path d="M23.5365 95.0932L16.3509 82.9675C16.2595 82.8132 16.2112 82.6371 16.2112 82.4577V80.4843C16.2112 80.1097 16.0019 79.7666 15.669 79.5952L14.5934 79.0415C14.4651 78.9754 14.3526 78.8823 14.2636 78.7687L6.3897 68.7076C6.1517 68.4034 6.11008 67.9894 6.28278 67.644L9.13862 61.9324C9.22197 61.7657 9.35024 61.6256 9.50895 61.5279L15.1741 58.0417C15.2783 57.9775 15.3935 57.933 15.5139 57.9105L21.3383 56.8184C22.0356 56.6877 22.3788 55.8926 21.9957 55.2955L16.6047 46.8931C16.3702 46.5276 16.3983 46.0526 16.6744 45.7174L24.327 36.4237C24.5376 36.168 24.8563 36.0311 25.1847 36.0738C29.0242 36.5738 38.5692 39.0172 39.5182 39.2613C39.574 39.2757 39.6234 39.2833 39.6809 39.2879L45.3455 39.7427C45.8041 39.7796 46.2287 39.4987 46.3742 39.0622L46.9652 37.2892C47.0268 37.1044 47.0331 36.9056 46.9832 36.7172L41.1715 14.7559C41.0647 14.3525 41.2197 13.9252 41.5602 13.684L51.7439 6.4706C52.023 6.27285 52.3839 6.23155 52.7006 6.36109L64.1153 11.0314C64.4911 11.1851 64.7366 11.5508 64.7366 11.9569V14.3583C64.7366 14.9576 65.2602 15.4223 65.8552 15.3513L76.3469 14.098C76.4186 14.0894 76.4911 14.0887 76.563 14.0957L99.4495 16.3395C99.9174 16.3854 100.29 16.7509 100.345 17.2178L102.064 31.8155V53.508C102.064 53.664 102.1 53.8179 102.171 53.9573L110.804 71.1202C110.919 71.3485 110.942 71.6121 110.868 71.8569L109.732 75.6444C109.638 75.9562 109.399 76.2029 109.09 76.3058L104.557 77.817C104.204 77.9344 103.946 78.2375 103.886 78.6041L102.114 89.4255C102.081 89.6243 101.989 89.8086 101.85 89.9543L92.3475 99.9097C92.293 99.9668 92.2319 100.017 92.1656 100.06L65.2358 117.405C64.9281 117.603 64.5367 117.617 64.2154 117.442L23.918 95.4613C23.76 95.3752 23.6283 95.248 23.5365 95.0932Z" fill="#AA7755" stroke="black" stroke-width="3" stroke-linecap="round" stroke-linejoin="round"/>
<ellipse cx="59.8966" cy="78.784" rx="43.3929" ry="28.1875" transform="rotate(2.58157 59.8966 78.784)" fill="#664422" stroke="black"/>
<path d="M102.746 73.1891C102.406 80.7399 97.3823 87.4302 89.398 92.1194C81.4185 96.8057 70.5377 99.4526 58.6496 98.9166C46.7614 98.3805 36.1629 94.7653 28.6376 89.3799C21.1076 83.9912 16.7068 76.876 17.0473 69.3252C17.3877 61.7744 22.411 55.0842 30.3953 50.3949C38.3748 45.7086 49.2556 43.0618 61.1437 43.5978C73.0319 44.1338 83.6303 47.7491 91.1557 53.1345C98.6857 58.5232 103.086 65.6384 102.746 73.1891Z" fill="#B8C5CB" stroke="black"/>
<path d="M75.9115 15.4928L68.8844 16.2198C67.7477 16.3374 67.6656 17.9622 68.7847 18.1937L75.8883 19.6634C75.955 19.6772 76.0229 19.6842 76.0909 19.6842H94.9475C95.0609 19.6842 95.1734 19.6649 95.2803 19.6272L98.2886 18.5654C99.3214 18.2009 99.1012 16.6803 98.0074 16.6238L76.066 15.4889C76.0145 15.4862 75.9628 15.4875 75.9115 15.4928Z" fill="#838E97"/>
<path d="M24.27 57.3195C24.3125 57.3739 24.3659 57.4189 24.4267 57.4516L30.4923 60.7178C30.602 60.7768 30.7298 60.7928 30.8506 60.7626L38.3161 58.8962C38.4998 58.8503 38.6418 58.7045 38.6829 58.5196L39.6161 54.3203C39.6306 54.2553 39.6319 54.188 39.6199 54.1224L36.8204 38.7249C36.7824 38.5162 36.6169 38.3542 36.4075 38.3206L24.7427 36.4543C24.5752 36.4275 24.4055 36.4874 24.2921 36.6135L15.8934 45.9453C15.731 46.1258 15.7217 46.3968 15.8713 46.588L24.27 57.3195Z" fill="#921D64" stroke="black" stroke-linejoin="round"/>
<path d="M24.8773 48.1234L30.5497 59.9047C30.6539 60.121 30.8971 60.2328 31.1291 60.1709L37.2848 58.5294C37.5356 58.4625 37.6935 58.215 37.6484 57.9594L35.045 43.2072C34.9869 42.8779 34.6282 42.6973 34.329 42.8469L25.1042 47.4593C24.8598 47.5815 24.7587 47.8773 24.8773 48.1234Z" fill="#D55AAA"/>
<path d="M36.2833 41.0631L38.6434 53.6501C38.6552 53.713 38.6548 53.7776 38.6423 53.8403L38.249 55.8063C38.1406 56.3485 37.3624 56.3396 37.2663 55.7952L34.947 42.652C34.9348 42.5829 34.9373 42.512 34.9544 42.4439L35.3068 41.034C35.437 40.5133 36.1844 40.5356 36.2833 41.0631Z" fill="#AE2A5D"/>
<path d="M24.6637 47.0893V38.251C24.6637 37.7927 24.0986 37.5759 23.7921 37.9165L16.8751 45.602C16.611 45.8955 16.7751 46.3648 17.1645 46.4297L24.0815 47.5825C24.3863 47.6333 24.6637 47.3983 24.6637 47.0893Z" fill="#BD3789"/>
<path d="M24.6636 46.8705V38.2236C24.6636 37.8519 25.0547 37.6101 25.3872 37.7764L34.0341 42.0998C34.4027 42.2841 34.4027 42.81 34.0341 42.9943L25.3872 47.3177C25.0547 47.484 24.6636 47.2422 24.6636 46.8705Z" fill="#F37EC6"/>
<path d="M35.3089 38.7389L28.2638 37.7782C27.7147 37.7034 27.4697 38.4447 27.9553 38.7118L34.3599 42.2343C34.6473 42.3923 35.0064 42.2356 35.0859 41.9175L35.7264 39.3556C35.7986 39.0667 35.6039 38.7792 35.3089 38.7389Z" fill="#C73F93"/>
<path d="M25.1301 47.213L33.2797 43.1382C33.8729 42.8416 34.5852 43.1941 34.7093 43.8456L36.3283 52.3455" stroke="url(#paint0_linear_22057_2234)" stroke-width="1.2" stroke-linecap="round" stroke-linejoin="round"/>
<path d="M48.4426 41.2736C48.4853 41.4372 48.6077 41.5681 48.7681 41.6216C48.9284 41.6752 49.1049 41.6441 49.2373 41.539L61.5708 31.7464C61.6342 31.6961 61.6844 31.6311 61.7172 31.5571L63.4576 27.6232C63.4845 27.5622 63.499 27.4965 63.5002 27.4299L63.7817 11.7825C63.7855 11.5704 63.6551 11.379 63.4563 11.3049L52.3859 7.18222C52.227 7.12302 52.0488 7.14845 51.9128 7.24977L41.8438 14.7488C41.6804 14.8704 41.6072 15.079 41.6586 15.276L48.4426 41.2736Z" fill="#921D64" stroke="black" stroke-linejoin="round"/>
<path d="M50.2243 18.6502L53.4704 31.3166C53.53 31.5492 53.7465 31.7065 53.9861 31.6915L60.3444 31.2919C60.6034 31.2756 60.8069 31.0639 60.813 30.8045L61.16 15.8283C61.1677 15.494 60.8515 15.2465 60.5288 15.3343L50.5773 18.0436C50.3136 18.1154 50.1564 18.3855 50.2243 18.6502Z" fill="#D55AAA"/>
<path d="M62.7958 13.9694L62.6358 26.7747C62.635 26.8387 62.6219 26.902 62.5973 26.961L61.8253 28.8114C61.6124 29.3216 60.8511 29.16 60.864 28.6073L61.1732 15.2647C61.1748 15.1945 61.1912 15.1254 61.2213 15.062L61.844 13.7489C62.074 13.2639 62.8025 13.4327 62.7958 13.9694Z" fill="#AE2A5D"/>
<path d="M50.2181 17.5943L51.9553 8.92834C52.0454 8.47904 51.5339 8.15535 51.1664 8.42906L42.8737 14.6051C42.5571 14.8409 42.6258 15.3334 42.9949 15.4735L49.5503 17.9634C49.8392 18.0732 50.1574 17.8972 50.2181 17.5943Z" fill="#BD3789"/>
<path d="M50.261 17.3799L51.9606 8.90163C52.0337 8.53719 52.4647 8.37705 52.758 8.60537L60.3865 14.5441C60.7116 14.7972 60.6082 15.3128 60.2107 15.4211L50.8826 17.9606C50.524 18.0583 50.188 17.7444 50.261 17.3799Z" fill="#F37EC6"/>
<path d="M62.2969 11.4993L55.5781 9.17257C55.0544 8.99121 54.6685 9.66991 55.0921 10.0272L60.6794 14.7399C60.9301 14.9513 61.3131 14.8683 61.4536 14.572L62.5851 12.186C62.7127 11.9169 62.5783 11.5967 62.2969 11.4993Z" fill="#C73F93"/>
<path d="M50.6511 17.8073L59.4427 15.4138C60.0825 15.2396 60.7117 15.7252 60.7053 16.3883L60.6221 25.0407" stroke="url(#paint1_linear_22057_2234)" stroke-width="1.2" stroke-linecap="round" stroke-linejoin="round"/>
<path d="M67.8609 45.8285L67.7505 46.3157L67.8609 45.8285C67.7016 45.7924 67.5374 45.7826 67.375 45.7994L54.112 47.1714C54.0077 47.1822 53.9049 47.2039 53.8052 47.2361L24.0581 56.8467C23.6042 56.9933 23.2471 57.3471 23.0962 57.7997L18.0566 72.9186C17.7506 73.8365 18.381 74.7998 19.3447 74.8868L90.2364 81.29C90.4067 81.3053 90.5783 81.2915 90.7439 81.249L108.197 76.7739C108.73 76.6371 109.146 76.219 109.28 75.6847L109.992 72.8367C110.066 72.5374 110.047 72.2223 109.936 71.9344L103.243 54.5306L102.776 54.7101L103.243 54.5306C103.063 54.0635 102.662 53.7168 102.174 53.6062L67.8609 45.8285Z" fill="#9AABBB" stroke="black" stroke-linejoin="round"/>
<path d="M67.4264 46.2967L57.1885 47.3558C56.2184 47.4562 55.9511 48.7439 56.8011 49.2221L61.3683 51.7911C61.4715 51.8492 61.5842 51.8884 61.7011 51.9071L93.4858 56.9742C93.6392 56.9986 93.7962 56.987 93.9444 56.9402L99.062 55.3241C100.035 55.0169 99.977 53.6208 98.9819 53.3953L67.7504 46.3161C67.6442 46.2921 67.5348 46.2855 67.4264 46.2967Z" fill="#838E97"/>
<path d="M107.485 76.4106L92.0162 79.9802C91.2951 80.1467 90.6493 79.4993 90.8175 78.7786L93.5942 66.8784C93.672 66.5451 93.9147 66.2748 94.2377 66.1618L102.169 63.3857C102.666 63.212 103.212 63.4523 103.419 63.9356L108.179 75.0423C108.424 75.6151 108.092 76.2705 107.485 76.4106Z" fill="#B8C5CB"/>
<path d="M102.963 62.2859L102.204 55.4559C102.153 54.9992 101.798 54.6359 101.342 54.5751L53.3654 48.1782C53.2079 48.1572 53.0476 48.174 52.8979 48.2273L29.579 56.5273C28.5854 56.8809 28.7452 58.3328 29.792 58.4618L93.487 66.3147C93.6397 66.3335 93.7946 66.3168 93.9397 66.266L102.299 63.3401C102.739 63.1862 103.014 62.749 102.963 62.2859Z" fill="#838D95"/>
<path d="M75.8559 14.9959L63.077 16.3179C62.4687 16.3808 61.9596 16.8066 61.7901 17.3942L55.2393 40.1035C55.0193 40.8662 55.4316 41.6682 56.1798 41.9332L98.7998 57.0278C99.7548 57.366 100.763 56.6798 100.8 55.6674L101.681 30.9845L101.181 30.9666L101.681 30.9845C101.684 30.9003 101.68 30.8161 101.669 30.7327L99.9226 17.6352C99.8278 16.9237 99.2421 16.3792 98.5256 16.3362L76.1001 14.9907C76.0187 14.9858 75.937 14.9875 75.8559 14.9959Z" fill="#9AABBB" stroke="black" stroke-linejoin="round"/>
<path d="M101.185 30.956V42.7312C101.185 43.9614 99.3944 44.1056 99.1974 42.8912L95.6918 21.2733C95.6274 20.8759 95.8075 20.4786 96.1489 20.2652L98.0228 19.094C98.634 18.712 99.4364 19.0825 99.542 19.7955L101.174 30.8095C101.181 30.858 101.185 30.907 101.185 30.956Z" fill="#78818E"/>
<path d="M61.7759 31.3352L49.1415 32.6423C48.4876 32.7099 47.9539 33.1955 47.825 33.8401L43.5165 55.3823C43.3445 56.2422 43.9437 57.0657 44.8149 57.1665L87.8006 62.1438C88.0581 62.1736 88.3189 62.1362 88.5576 62.0352L99.6994 57.3214C100.352 57.0451 100.723 56.3495 100.587 55.6536L97.6005 40.2925C97.487 39.7089 97.0395 39.2473 96.4596 39.1159L62.2618 31.3644C62.1025 31.3283 61.9384 31.3184 61.7759 31.3352Z" fill="#9AABBB" stroke="black" stroke-linejoin="round"/>
<path d="M61.8273 32.2991L51.5894 33.3582C50.6193 33.4586 50.352 34.7464 51.202 35.2245L55.7692 37.7935C55.8724 37.8516 55.9851 37.8909 56.102 37.9095L87.8867 42.9766C88.0401 43.0011 88.1971 42.9894 88.3452 42.9427L93.4629 41.3266C94.4359 41.0193 94.3779 39.6233 93.3828 39.3977L62.1513 32.3186C62.0451 32.2945 61.9356 32.2879 61.8273 32.2991Z" fill="#838E97"/>
<path d="M99.4994 55.9589L89.7178 60.4734C89.0133 60.7986 88.223 60.2324 88.3042 59.4608L89.9249 44.0638C89.9629 43.7036 90.1926 43.3921 90.5255 43.2494L95.4393 41.1435C96.0054 40.9009 96.6541 41.2226 96.8034 41.8201L100.05 54.8084C100.167 55.2744 99.9356 55.7575 99.4994 55.9589Z" fill="#B8C5CB"/>
<path d="M44.2605 55.6116L67.1234 58.4111L63.8573 80.3409L40.9943 77.5413L44.2605 55.6116Z" fill="black"/>
<path d="M81.5022 45.8556L79.5157 45.5071C79.0002 45.4166 78.5021 45.739 78.3736 46.2465L76.1292 55.1057C76.0421 55.4495 76.1437 55.8138 76.3962 56.063L78.4174 58.0576C78.9806 58.6134 79.9355 58.326 80.0984 57.5517L82.308 47.0464C82.4244 46.493 82.0592 45.9533 81.5022 45.8556Z" fill="#553322" stroke="black" stroke-linejoin="round"/>
<path d="M75.1709 55.0748L44.0876 48.8582C43.4588 48.7324 42.8758 49.2226 42.8918 49.8636L43.0271 55.3058C43.0389 55.7832 43.3867 56.1856 43.8574 56.2665L69.8152 60.7256C69.8868 60.7379 69.9595 60.7424 70.0321 60.7389L77.7369 60.3721C78.5575 60.333 78.9835 59.3758 78.4633 58.7399L75.7487 55.4222C75.6021 55.243 75.3979 55.1202 75.1709 55.0748Z" fill="#553322" stroke="black" stroke-linejoin="round"/>
<path d="M63.4573 69.4642L65.9494 55.644C66.0461 55.1078 66.5543 54.7477 67.0922 54.8342L73.173 55.8116C73.7032 55.8968 74.0714 56.3855 74.0071 56.9186L70.9091 82.6143C70.843 83.1626 70.3449 83.5535 69.7966 83.4874L61.2598 82.4582C60.6589 82.3858 60.2596 81.8004 60.4114 81.2145L63.4573 69.4642Z" fill="#DDAA44" stroke="black" stroke-linejoin="round"/>
<path d="M32.6623 63.8651L35.1544 50.0449C35.2511 49.5087 35.7593 49.1486 36.2973 49.2351L42.3781 50.2125C42.9082 50.2977 43.2764 50.7864 43.2122 51.3195L40.1142 77.0151C40.048 77.5635 39.55 77.9544 39.0017 77.8883L30.4648 76.8591C29.8639 76.7867 29.4646 76.2012 29.6164 75.6154L32.6623 63.8651Z" fill="#DDAA44" stroke="black" stroke-linejoin="round"/>
<path d="M75.1224 81.1712L77.775 58.6242C77.8231 58.2145 77.6149 57.8173 77.2505 57.6239L75.4089 56.6469C74.7888 56.3179 74.0315 56.7136 73.9475 57.4106L70.9985 81.8699C70.9059 82.638 71.6832 83.2158 72.3921 82.9058L74.53 81.9705C74.8554 81.8282 75.0809 81.5239 75.1224 81.1712Z" fill="#AA6622" stroke="black" stroke-linejoin="round"/>
<path d="M44.3274 75.5721L46.98 53.025C47.0282 52.6154 46.8199 52.2181 46.4555 52.0248L44.614 51.0478C43.9938 50.7188 43.2366 51.1145 43.1525 51.8115L40.2036 76.2708C40.111 77.0389 40.8883 77.6167 41.5972 77.3066L43.7351 76.3714C44.0605 76.2291 44.2859 75.9248 44.3274 75.5721Z" fill="#AA6622" stroke="black" stroke-linejoin="round"/>
<path d="M77.9432 45.4007L36.9496 38.9634C36.4196 38.8802 35.9184 39.23 35.8137 39.7561L34.7306 45.1985C34.6874 45.4156 34.7175 45.6409 34.8161 45.8391L34.9208 46.0497C35.1485 46.5072 34.9587 47.065 34.502 47.2945C34.1932 47.4496 33.9954 47.7672 33.9954 48.1128C33.9954 48.5622 34.3219 48.9449 34.7657 49.0157L75.1467 55.4574C75.6841 55.5431 76.1914 55.1834 76.2883 54.6479L77.4001 48.5022C77.4288 48.3439 77.3298 48.1905 77.1738 48.1513C76.8243 48.0635 76.888 47.549 77.2483 47.549H78.3465C78.5904 47.549 78.7881 47.3513 78.7881 47.1074V46.3886C78.7881 45.8962 78.4297 45.4771 77.9432 45.4007Z" fill="#DDAA44" stroke="black" stroke-linecap="round" stroke-linejoin="round"/>
<path d="M75.522 47.6797L56.3918 44.8801" stroke="black" stroke-linecap="round" stroke-linejoin="round"/>
<path d="M36.795 46.7466L46.1268 48.1464" stroke="black" stroke-linecap="round" stroke-linejoin="round"/>
<path d="M6.50134 67.4911C6.39815 67.668 6.41326 67.8899 6.53948 68.0512L14.9381 78.7828C14.9807 78.8371 15.034 78.8821 15.0948 78.9148L21.1605 82.181C21.2702 82.24 21.3979 82.256 21.5188 82.2258L28.9842 80.3594C29.168 80.3135 29.31 80.1677 29.3511 79.9828L30.2843 75.7835C30.2987 75.7185 30.3 75.6512 30.2881 75.5856L27.4886 60.1881C27.4604 60.0333 27.361 59.9007 27.2202 59.8304L21.6211 57.0308C21.5285 56.9845 21.4238 56.9681 21.3215 56.9838L15.2558 57.917C15.177 57.9291 15.1023 57.9599 15.0378 58.0068L9.90527 61.7396C9.84928 61.7803 9.80236 61.8322 9.76747 61.892L6.50134 67.4911Z" fill="#A91C57" stroke="black" stroke-linejoin="round"/>
<path d="M15.5456 69.5866L21.2181 81.3679C21.3222 81.5842 21.5654 81.6959 21.7974 81.6341L27.9532 79.9925C28.2039 79.9257 28.3618 79.6781 28.3167 79.4225L25.7134 64.6703C25.6553 64.341 25.2965 64.1605 24.9974 64.31L15.7725 68.9225C15.5281 69.0446 15.4271 69.3404 15.5456 69.5866Z" fill="#E02D72"/>
<path d="M26.9517 62.5262L29.3118 75.1133C29.3236 75.1762 29.3232 75.2407 29.3106 75.3035L28.9174 77.2695C28.809 77.8116 28.0308 77.8028 27.9347 77.2583L25.6154 64.1152C25.6032 64.046 25.6057 63.9751 25.6227 63.907L25.9752 62.4971C26.1054 61.9764 26.8528 61.9987 26.9517 62.5262Z" fill="#AE2A5D"/>
<path d="M15.2487 68.4772L14.4669 62.2225C14.4303 61.9301 14.15 61.7325 13.8623 61.7965L10.4016 62.5655C10.2721 62.5943 10.1594 62.6733 10.0882 62.7852L7.33892 67.1055C7.14659 67.4077 7.32518 67.8082 7.67855 67.8671L14.6704 69.0324C15.0004 69.0874 15.2902 68.8092 15.2487 68.4772Z" fill="#D71243"/>
<path d="M15.2443 68.4417L14.4454 62.0508C14.4178 61.8297 14.5398 61.617 14.7446 61.5293L20.6037 59.0182C20.7996 58.9343 21.0272 58.9837 21.1706 59.1415L25.1529 63.522C25.3758 63.7672 25.3029 64.1574 25.0066 64.3056L15.964 68.8269C15.6555 68.9812 15.2871 68.784 15.2443 68.4417Z" fill="#FC8AA7"/>
<path d="M12.5462 62.089L14.3532 61.6874C14.3835 61.6807 14.4131 61.6711 14.4417 61.6589L20.628 59.0076C20.8118 58.9288 20.931 58.7481 20.931 58.5481V58.5348C20.931 58.2258 20.6536 57.9908 20.3488 58.0416L15.4484 58.8584C15.3718 58.8711 15.2993 58.9015 15.2365 58.9472L12.1437 61.1965C11.7051 61.5155 12.0168 62.2066 12.5462 62.089Z" fill="#BF1131"/>
<path d="M26.133 60.1121L21.6159 58.2299C21.2901 58.0942 20.931 58.3336 20.931 58.6865C20.931 58.8096 20.9769 58.9282 21.0597 59.0193L24.9685 63.319C25.2371 63.6145 25.7267 63.4913 25.8235 63.1039L26.4258 60.6949C26.4858 60.4549 26.3613 60.2072 26.133 60.1121Z" fill="#AF1043"/>
<path d="M15.7985 68.6762L23.9481 64.6014C24.5413 64.3048 25.2536 64.6572 25.3777 65.3087L26.9967 73.8087" stroke="url(#paint2_linear_22057_2234)" stroke-width="1.2" stroke-linecap="round" stroke-linejoin="round"/>
<path d="M61.9015 42.5724C62.0977 42.6081 62.2963 42.5238 62.4069 42.3578L65.058 38.3812H68.5232C68.7526 38.3812 68.9526 38.225 69.0082 38.0024L71.3412 28.6706C71.3771 28.5271 71.3475 28.375 71.2605 28.2553L67.5278 23.1228C67.4451 23.0091 67.3183 22.9354 67.1786 22.9199L54.5807 21.5201C54.4214 21.5025 54.2633 21.5622 54.1555 21.6808L49.4896 26.8132C49.3893 26.9235 49.3435 27.0728 49.3646 27.2203L51.2309 40.2848C51.2614 40.4979 51.4247 40.6676 51.6365 40.7061L61.9015 42.5724Z" fill="#921D64" stroke="black" stroke-linejoin="round"/>
<path d="M70.018 29.1241L60.2457 29.9739C60.1425 29.9829 60.0385 29.9757 59.9375 29.9528L50.5843 27.827C49.8376 27.6574 49.5509 26.7458 50.066 26.1792L53.9839 21.8695M70.018 29.1241L53.9839 21.8695M70.018 29.1241C70.7931 29.0567 71.1977 28.1689 70.7401 27.5397L67.6576 23.3013C67.4922 23.0739 67.2387 22.9266 66.9593 22.8955L54.8342 21.5483C54.5157 21.5129 54.1995 21.6324 53.9839 21.8695M70.018 29.1241L53.9839 21.8695" fill="#F896CB" stroke="black" stroke-linejoin="round"/>
<path d="M60.1245 23.3738V28.8561C60.1245 29.177 59.8266 29.4148 59.5137 29.3437L50.6951 27.3395C50.3218 27.2546 50.1784 26.7989 50.4359 26.5156L54.3421 22.2188C54.4564 22.093 54.6267 22.034 54.7943 22.0619L59.7067 22.8806C59.9478 22.9208 60.1245 23.1294 60.1245 23.3738Z" fill="#C53382"/>
<path d="M61.6565 42.0061L58.2659 41.2527C58.0018 41.194 57.8323 40.9358 57.8834 40.6701L60.05 29.4039C60.0937 29.1764 60.2879 29.0088 60.5193 28.9987L70.1869 28.5784C70.5209 28.5639 70.7748 28.8749 70.6937 29.1992L68.6179 37.5024C68.5622 37.725 68.3623 37.8811 68.1328 37.8811H65.0581C64.8909 37.8811 64.7348 37.9647 64.642 38.1038L62.181 41.7954C62.0664 41.9672 61.8581 42.0509 61.6565 42.0061Z" fill="#D5429C"/>
<path d="M52.0924 40.2706L57.3155 41.0741C57.5813 41.115 57.8318 40.9384 57.8826 40.6744L60.0292 29.512C60.0817 29.2389 59.9012 28.9754 59.6276 28.9257L50.5421 27.2738C50.2063 27.2127 49.9094 27.4986 49.9577 27.8364L51.6735 39.8471C51.7046 40.0651 51.8748 40.2371 52.0924 40.2706Z" fill="#921D64"/>
<path d="M69.923 28.5175L60.0024 28.5176M60.0024 28.5176L57.792 40.6809M60.0024 28.5176L60.0024 23.417" stroke="url(#paint3_linear_22057_2234)" stroke-width="1.2" stroke-linecap="round" stroke-linejoin="round"/>
<path d="M55.2515 81.3025C55.2941 81.3568 55.3475 81.4018 55.4082 81.4345L60.2608 84.0475C60.3705 84.1065 60.4982 84.1225 60.6191 84.0923L66.5915 82.5992C66.7752 82.5533 66.9172 82.4075 66.9583 82.2226L67.7048 78.8631C67.7193 78.7981 67.7206 78.7308 67.7087 78.6652L65.469 66.3473C65.4311 66.1385 65.2656 65.9765 65.0561 65.943L55.7243 64.4499C55.5568 64.4231 55.3871 64.483 55.2736 64.6091L48.5547 72.0746C48.3923 72.255 48.383 72.526 48.5326 72.7172L55.2515 81.3025Z" fill="#921D64" stroke="black" stroke-linejoin="round"/>
<path d="M55.8592 73.9727L60.3185 83.2344C60.4227 83.4507 60.6659 83.5624 60.8979 83.5006L65.6538 82.2323C65.9046 82.1655 66.0625 81.9179 66.0174 81.6623L63.974 70.0829C63.9159 69.7536 63.5571 69.5731 63.258 69.7226L56.0861 73.3086C55.8417 73.4307 55.7407 73.7265 55.8592 73.9727Z" fill="#D55AAA"/>
<path d="M65.0255 68.6854L66.8257 78.2863C66.8375 78.3492 66.8371 78.4137 66.8245 78.4765L66.618 79.5093C66.5095 80.0514 65.7314 80.0426 65.6353 79.4981L63.8759 69.5278C63.8637 69.4587 63.8662 69.3877 63.8832 69.3196L64.049 68.6563C64.1792 68.1356 64.9266 68.1579 65.0255 68.6854Z" fill="#AE2A5D"/>
<path d="M55.6453 72.9386V66.2466C55.6453 65.7883 55.0802 65.5715 54.7736 65.9121L49.5364 71.7313C49.2723 72.0247 49.4364 72.4941 49.8258 72.559L55.0631 73.4318C55.3679 73.4826 55.6453 73.2476 55.6453 72.9386Z" fill="#BD3789"/>
<path d="M55.6455 72.7196V66.1257C55.6455 65.754 56.0367 65.5122 56.3691 65.6785L62.9631 68.9754C63.3316 69.1597 63.3316 69.6856 62.9631 69.8699L56.3691 73.1668C56.0367 73.3331 55.6455 73.0913 55.6455 72.7196Z" fill="#F37EC6"/>
<path d="M64.0511 66.3611L59.059 65.6803C58.5098 65.6055 58.2649 66.3468 58.7505 66.6139L63.2887 69.1099C63.5761 69.2679 63.9352 69.1112 64.0148 68.7931L64.4686 66.9778C64.5408 66.6889 64.3461 66.4013 64.0511 66.3611Z" fill="#C73F93"/>
<path d="M56.0187 73.1556L62.3019 70.014C62.8951 69.7174 63.6074 70.0698 63.7314 70.7213L64.9772 77.2616" stroke="url(#paint4_linear_22057_2234)" stroke-width="1.2" stroke-linecap="round" stroke-linejoin="round"/>
<path d="M61.8097 78.0086C61.6175 78.0834 61.4909 78.2684 61.4909 78.4746V84.5403C61.4909 84.7297 61.5979 84.9028 61.7673 84.9875L66.4332 87.3205C66.5026 87.3552 66.5792 87.3733 66.6568 87.3733H75.9886C76.1314 87.3733 76.2674 87.3122 76.3623 87.2054L80.095 83.0061C80.2264 82.8583 80.2583 82.647 80.1765 82.467L77.8436 77.3345C77.786 77.208 77.6784 77.1111 77.5465 77.0671L70.5476 74.7342C70.437 74.6973 70.317 74.7002 70.2083 74.7425L61.8097 78.0086Z" fill="#F57EC3" stroke="black" stroke-linejoin="round"/>
<path d="M62.7338 84.9116L66.1181 86.6037C66.3981 86.7438 66.7364 86.5949 66.8224 86.2939L67.4847 83.9758C67.5469 83.7583 67.4552 83.5261 67.2612 83.4097L65.5383 82.3759C65.3676 82.2735 65.1524 82.2821 64.9904 82.3978L62.6668 84.0575C62.3602 84.2765 62.3968 84.7431 62.7338 84.9116Z" fill="#EA2978"/>
<path d="M75.2305 86.8733H67.3198C66.9876 86.8733 66.7478 86.5554 66.839 86.2359L67.4865 83.9698C67.5478 83.7552 67.744 83.6072 67.9673 83.6072H74.2593C74.4593 83.6072 74.64 83.7264 74.7188 83.9102L75.69 86.1764C75.8314 86.5063 75.5894 86.8733 75.2305 86.8733Z" fill="#FAC7EA"/>
<path d="M76.5119 86.2848L79.4083 83.0263C79.5842 82.8285 79.5753 82.5278 79.3881 82.3406L78.1825 81.135C77.9978 80.9503 77.7019 80.9389 77.5036 81.1089L74.8678 83.3681C74.7019 83.5104 74.6476 83.7439 74.7337 83.9447L75.6786 86.1496C75.8229 86.4863 76.2685 86.5586 76.5119 86.2848Z" fill="#F178C2"/>
<path d="M77.5036 77.7947L79.2651 81.6699C79.3572 81.8726 79.099 82.0516 78.9416 81.8941L77.9232 80.8757C77.8782 80.8307 77.8422 80.7776 77.8172 80.7191L76.7134 78.1436C76.5912 77.8586 76.8003 77.5415 77.1104 77.5415C77.2798 77.5415 77.4335 77.6405 77.5036 77.7947Z" fill="#DF399A"/>
<path d="M61.991 83.5687V78.8845C61.991 78.6462 62.1593 78.441 62.393 78.3943L63.844 78.1041C64.1107 78.0507 64.3712 78.2204 64.4302 78.4859L65.1854 81.8844C65.2289 82.0802 65.1512 82.2831 64.9879 82.3997L62.7816 83.9756C62.4507 84.212 61.991 83.9754 61.991 83.5687Z" fill="#D52C6B"/>
<path d="M65.2571 82.2074L67.5901 83.6072M67.5901 83.6072H74.5889M67.5901 83.6072L66.6569 86.8733M74.5889 83.6072L77.8551 80.8076M74.5889 83.6072L75.9887 86.8733" stroke="url(#paint5_linear_22057_2234)" stroke-width="1.2" stroke-linecap="round" stroke-linejoin="round"/>
<path d="M36.6138 77.7631C36.4216 77.8379 36.295 78.0229 36.295 78.2291V85.5718C36.295 85.7612 36.402 85.9343 36.5714 86.019L42.2196 88.8431C42.2891 88.8778 42.3656 88.8959 42.4432 88.8959H53.7396C53.8825 88.8959 54.0185 88.8348 54.1133 88.7281L58.6319 83.6447C58.7633 83.4969 58.7952 83.2856 58.7134 83.1056L55.8893 76.8926C55.8318 76.766 55.7241 76.6691 55.5922 76.6251L47.1199 73.801C47.0093 73.7642 46.8893 73.7671 46.7806 73.8094L36.6138 77.7631Z" fill="#F57EC3" stroke="black" stroke-linejoin="round"/>
<path d="M37.5379 85.943L41.9044 88.1263C42.1845 88.2663 42.5228 88.1175 42.6088 87.8165L43.4676 84.8108C43.5297 84.5933 43.4381 84.3611 43.2441 84.2447L41.03 82.9162C40.8593 82.8138 40.6441 82.8224 40.4821 82.9381L37.4709 85.089C37.1643 85.308 37.2009 85.7745 37.5379 85.943Z" fill="#EA2978"/>
<path d="M52.9815 88.3959H43.1062C42.774 88.3959 42.5342 88.0779 42.6255 87.7585L43.4694 84.8048C43.5307 84.5901 43.7269 84.4421 43.9501 84.4421H51.7156C51.9156 84.4421 52.0964 84.5613 52.1752 84.7452L53.4411 87.6989C53.5825 88.0289 53.3404 88.3959 52.9815 88.3959Z" fill="#FAC7EA"/>
<path d="M54.263 87.8074L57.9452 83.6649C58.1211 83.467 58.1123 83.1663 57.9251 82.9791L56.3266 81.3806C56.1418 81.1959 55.846 81.1845 55.6476 81.3545L52.3243 84.2031C52.1583 84.3453 52.104 84.5788 52.1901 84.7797L53.4297 87.6722C53.574 88.0089 54.0196 88.0812 54.263 87.8074Z" fill="#F178C2"/>
<path d="M55.5674 77.3925L57.8018 82.3083C57.894 82.511 57.6358 82.6899 57.4784 82.5325L56.0671 81.1212C56.0221 81.0762 55.9861 81.0231 55.961 80.9646L54.6032 77.7963C54.4618 77.4664 54.7038 77.0994 55.0628 77.0994H55.1122C55.3083 77.0994 55.4862 77.214 55.5674 77.3925Z" fill="#DF399A"/>
<path d="M36.7951 84.6002V78.639C36.7951 78.4007 36.9633 78.1955 37.197 78.1487L39.1392 77.7603C39.406 77.707 39.6664 77.8766 39.7254 78.1421L40.6771 82.4247C40.7206 82.6205 40.6428 82.8234 40.4796 82.94L37.5857 85.0071C37.2548 85.2434 36.7951 85.0069 36.7951 84.6002Z" fill="#D52C6B"/>
<path d="M40.7488 82.7477L43.5729 84.4421M43.5729 84.4421H52.0452M43.5729 84.4421L42.4432 88.3959M52.0452 84.4421L55.9989 81.0532M52.0452 84.4421L53.7396 88.3959" stroke="url(#paint6_linear_22057_2234)" stroke-width="1.2" stroke-linecap="round" stroke-linejoin="round"/>
<path d="M77.2291 89.3655L82.3973 84.1973C82.739 83.8556 83.2762 83.8071 83.6736 84.0822L87.7113 86.8776C88.3252 87.3026 88.2737 88.2262 87.6162 88.5802L83.2094 90.9531C83.0637 91.0316 82.9008 91.0726 82.7353 91.0726H77.9362C77.0453 91.0726 76.5991 89.9955 77.2291 89.3655Z" fill="#838D95"/>
<path d="M68.4581 91.0431L70.4368 89.9124C70.7017 89.7611 71.0211 89.7389 71.3043 89.8522L73.5354 90.7446C74.3233 91.0598 74.3853 92.1512 73.6382 92.5536L70.3148 94.343C69.8372 94.6002 69.2416 94.4297 68.9725 93.9587L68.086 92.4075C67.812 91.9279 67.9786 91.3171 68.4581 91.0431Z" fill="#838D95"/>
<defs>
<linearGradient id="paint0_linear_22057_2234" x1="30.7292" y1="42.5471" x2="30.7292" y2="52.3455" gradientUnits="userSpaceOnUse">
<stop stop-color="white"/>
<stop offset="1" stop-color="white" stop-opacity="0"/>
</linearGradient>
<linearGradient id="paint1_linear_22057_2234" x1="57.0581" y1="14.3329" x2="55.1322" y2="23.9402" gradientUnits="userSpaceOnUse">
<stop stop-color="white"/>
<stop offset="1" stop-color="white" stop-opacity="0"/>
</linearGradient>
<linearGradient id="paint2_linear_22057_2234" x1="21.3976" y1="64.0103" x2="21.3976" y2="73.8087" gradientUnits="userSpaceOnUse">
<stop stop-color="white"/>
<stop offset="1" stop-color="white" stop-opacity="0"/>
</linearGradient>
<linearGradient id="paint3_linear_22057_2234" x1="56.3423" y1="27.7836" x2="54.4164" y2="37.3909" gradientUnits="userSpaceOnUse">
<stop stop-color="white"/>
<stop offset="1" stop-color="white" stop-opacity="0"/>
</linearGradient>
<linearGradient id="paint4_linear_22057_2234" x1="60.4979" y1="69.4229" x2="60.4979" y2="77.2616" gradientUnits="userSpaceOnUse">
<stop stop-color="white"/>
<stop offset="1" stop-color="white" stop-opacity="0"/>
</linearGradient>
<linearGradient id="paint5_linear_22057_2234" x1="71.5561" y1="80.8076" x2="71.5561" y2="86.8733" gradientUnits="userSpaceOnUse">
<stop stop-color="white"/>
<stop offset="1" stop-color="white" stop-opacity="0"/>
</linearGradient>
<linearGradient id="paint6_linear_22057_2234" x1="48.3738" y1="81.0532" x2="48.3738" y2="88.3959" gradientUnits="userSpaceOnUse">
<stop stop-color="white"/>
<stop offset="1" stop-color="white" stop-opacity="0"/>
</linearGradient>
</defs>
</svg>
