<svg width="109" height="119" viewBox="0 0 109 119" fill="none" xmlns="http://www.w3.org/2000/svg">
<ellipse cx="56" cy="111" rx="48" ry="8" fill="black" fill-opacity="0.3"/>
<path d="M55.9871 55.4424L48.8217 59.3996L55.9871 63.1116L64.2463 58.982L55.9871 55.4424Z" fill="#BC9549" stroke="black" stroke-linejoin="round"/>
<path d="M61.0017 107.677L55.9872 110.626V48.0554L64.2464 43.9258L61.0017 107.677Z" fill="#76500D" stroke="black" stroke-linejoin="round"/>
<path d="M49.7232 109.066L55.9871 110.627V48.0558L48.8217 44.3438L49.7232 109.066Z" fill="#7A4A12" stroke="black" stroke-linejoin="round"/>
<path d="M103.299 11.2728C103.214 10.395 99.1835 8.30223 96.7604 7.20934C96.149 6.93359 95.4725 7.35743 95.4225 8.02625L92.3226 49.4833C92.3133 49.6077 92.3273 49.7328 92.364 49.8521L98.7312 70.5364C98.9162 71.1373 99.6033 71.4205 100.158 71.1244L106.113 67.9453C106.469 67.7551 106.676 67.3695 106.637 66.9677L105.893 59.2024C105.883 59.0954 105.855 58.9907 105.812 58.8925L105.183 57.4744C105.106 57.3009 105.222 57.103 105.411 57.0849C105.563 57.0703 105.675 56.9345 105.661 56.7816L104.903 48.8803C104.878 48.6162 104.749 48.3731 104.544 48.2043L103.632 47.4518C103.145 47.0502 103.148 46.3037 103.637 45.9052L104.192 45.453C104.418 45.2694 104.552 44.9969 104.56 44.7064L104.997 29.5366C105.005 29.2667 104.903 29.0052 104.715 28.8115L102.672 26.7063C102.317 26.3406 102.294 25.7665 102.619 25.3735L104.175 23.4868C104.344 23.2822 104.425 23.0205 104.399 22.7565L103.299 11.2728Z" fill="#7A4A12" stroke="black" stroke-linecap="round" stroke-linejoin="round"/>
<path d="M9.33819 9.66976L96.5406 7.18262C97.1036 7.16656 97.5687 7.61838 97.5691 8.18159L97.5772 21.1569L94.5886 25.4053C94.288 25.8326 94.3671 26.4194 94.7701 26.752L96.619 28.2773C96.8318 28.4529 96.9626 28.7086 96.9805 28.9839L98.2115 47.9496C98.2314 48.2561 98.1093 48.5548 97.8804 48.7596L96.5909 49.9135C96.14 50.317 96.1479 51.0255 96.6079 51.4187L98.5441 53.0744L99.6778 70.5394C99.7158 71.126 99.2422 71.6187 98.6546 71.6039L7.17339 69.2926C6.61554 69.2785 6.17716 68.8106 6.19945 68.253L6.78257 53.6645C6.79433 53.3702 6.93528 53.096 7.16782 52.9151L9.73488 50.9184L7.24317 47.455C7.11279 47.2738 7.0468 47.0541 7.05572 46.8311L7.91155 25.4203C7.92028 25.2019 8.00031 24.9924 8.13939 24.8238L9.71737 22.9112L7.77786 20.7831C7.58905 20.576 7.49585 20.2991 7.52098 20.0199L8.37072 10.5797C8.41614 10.0751 8.83175 9.6842 9.33819 9.66976Z" fill="#BC9549"/>
<path d="M9.71737 22.9112L7.77787 20.7831C7.58905 20.576 7.49585 20.2991 7.52098 20.0199L8.37072 10.5797C8.41614 10.0751 8.83175 9.6842 9.33819 9.66976L96.5406 7.18262C97.1036 7.16656 97.5687 7.61838 97.5691 8.18159L97.5772 21.1569M9.71737 22.9112L8.13939 24.8238C8.0003 24.9924 7.92028 25.2019 7.91155 25.4203L7.05572 46.8311C7.0468 47.0541 7.11279 47.2738 7.24317 47.455L9.73488 50.9184M9.71737 22.9112C10.4415 23.5086 12.9471 24.6022 17.1763 24.1967M97.5772 21.1569L94.5886 25.4053C94.288 25.8326 94.3671 26.4194 94.7701 26.752L96.619 28.2773C96.8318 28.4529 96.9626 28.7086 96.9805 28.9839L98.2115 47.9496C98.2314 48.2561 98.1093 48.5548 97.8804 48.7596L96.5909 49.9135C96.14 50.317 96.1479 51.0255 96.6079 51.4187L98.5441 53.0744M97.5772 21.1569C92.8671 20.7193 80.8163 20.2296 75.5806 21.2651M9.73488 50.9184L7.16782 52.9151C6.93529 53.096 6.79433 53.3702 6.78257 53.6645L6.19944 68.253C6.17716 68.8106 6.61554 69.2785 7.17339 69.2926L98.6546 71.6039C99.2422 71.6187 99.7158 71.126 99.6778 70.5394L98.5441 53.0744M9.73488 50.9184L21.0953 51.1631M98.5441 53.0744C94.474 54.3538 85.9119 56.6862 84.2246 55.781M46.279 14.7379C38.0024 14.1976 20.3918 13.2184 16.1627 13.6239" stroke="black" stroke-linecap="round" stroke-linejoin="round"/>
<circle cx="52.5" cy="29.5" r="10.5" fill="#FFFDEB" stroke="black" stroke-width="2"/>
<path d="M52.77 31.788C52.374 31.788 52.062 31.656 51.834 31.392C51.618 31.116 51.51 30.774 51.51 30.366C51.51 29.67 51.672 29.154 51.996 28.818C52.092 28.71 52.248 28.56 52.464 28.368C52.692 28.152 52.854 27.984 52.95 27.864C53.046 27.744 53.094 27.612 53.094 27.468C53.094 27.156 52.932 27 52.608 27C52.464 27 52.338 27.048 52.23 27.144C52.134 27.24 52.086 27.36 52.086 27.504C52.086 27.9 51.918 28.23 51.582 28.494C51.258 28.746 50.85 28.872 50.358 28.872C49.866 28.872 49.47 28.698 49.17 28.35C48.87 27.99 48.72 27.492 48.72 26.856C48.72 26.328 48.894 25.794 49.242 25.254C49.59 24.714 50.076 24.27 50.7 23.922C51.324 23.574 52.026 23.4 52.806 23.4C53.598 23.4 54.3 23.568 54.912 23.904C55.524 24.228 55.998 24.66 56.334 25.2C56.682 25.74 56.856 26.31 56.856 26.91C56.856 27.522 56.742 28.038 56.514 28.458C56.298 28.866 56.04 29.184 55.74 29.412C55.452 29.628 55.11 29.832 54.714 30.024C54.486 30.144 54.324 30.24 54.228 30.312C54.132 30.384 54.084 30.462 54.084 30.546C54.084 30.858 53.964 31.146 53.724 31.41C53.496 31.662 53.178 31.788 52.77 31.788ZM52.788 32.256C52.284 32.256 51.846 32.442 51.474 32.814C51.102 33.186 50.916 33.624 50.916 34.128C50.916 34.632 51.102 35.07 51.474 35.442C51.846 35.814 52.284 36 52.788 36C53.292 36 53.73 35.814 54.102 35.442C54.474 35.07 54.66 34.632 54.66 34.128C54.66 33.624 54.474 33.186 54.102 32.814C53.73 32.442 53.292 32.256 52.788 32.256Z" fill="black"/>
<path d="M40.912 53.808C41.62 53.808 42.202 53.844 42.658 53.916C43.126 53.976 43.504 54.12 43.792 54.348C44.092 54.564 44.242 54.894 44.242 55.338C44.242 55.974 43.996 56.394 43.504 56.598C43.024 56.802 42.322 56.904 41.398 56.904L39.904 56.886L38.77 56.904C38.818 57.36 38.842 57.72 38.842 57.984C38.842 59.316 38.314 59.982 37.258 59.982C36.382 59.982 35.692 59.496 35.188 58.524C34.696 57.552 34.45 56.034 34.45 53.97C34.45 52.698 34.714 51.564 35.242 50.568C35.782 49.572 36.514 48.798 37.438 48.246C38.362 47.682 39.376 47.4 40.48 47.4C41.848 47.4 42.886 47.634 43.594 48.102C44.314 48.57 44.674 49.224 44.674 50.064C44.674 50.652 44.53 51.102 44.242 51.414C43.966 51.714 43.576 51.918 43.072 52.026C42.58 52.122 41.926 52.17 41.11 52.17C40.45 52.17 39.88 52.302 39.4 52.566C38.932 52.83 38.674 53.196 38.626 53.664L38.608 53.826C38.752 53.814 38.968 53.808 39.256 53.808H39.904H40.912ZM47.84 60.036C47.036 60.036 46.388 59.646 45.896 58.866C45.416 58.074 45.134 57.006 45.05 55.662C45.038 55.47 45.032 55.188 45.032 54.816C45.032 53.364 45.272 52.08 45.752 50.964C46.232 49.836 46.91 48.966 47.786 48.354C48.674 47.73 49.706 47.418 50.882 47.418C52.058 47.418 53.084 47.73 53.96 48.354C54.848 48.966 55.526 49.83 55.994 50.946C56.474 52.062 56.714 53.352 56.714 54.816C56.714 55.188 56.708 55.47 56.696 55.662C56.612 57.03 56.33 58.098 55.85 58.866C55.37 59.634 54.722 60.018 53.906 60.018C53.246 60.018 52.784 59.838 52.52 59.478C52.268 59.118 52.142 58.68 52.142 58.164C52.142 57.924 52.16 57.714 52.196 57.534C51.572 57.558 51.02 57.57 50.54 57.57C50.24 57.57 49.91 57.558 49.55 57.534C49.586 57.714 49.604 57.924 49.604 58.164C49.604 58.692 49.472 59.136 49.208 59.496C48.956 59.856 48.5 60.036 47.84 60.036ZM49.424 54.33C50.072 54.306 50.546 54.294 50.846 54.294C51.17 54.294 51.644 54.306 52.268 54.33C52.292 54.198 52.304 54 52.304 53.736C52.304 53.172 52.184 52.716 51.944 52.368C51.704 52.008 51.332 51.828 50.828 51.828C50.336 51.828 49.97 52.002 49.73 52.35C49.49 52.698 49.37 53.148 49.37 53.7C49.37 53.904 49.388 54.114 49.424 54.33ZM68.4264 56.796C68.8104 57.264 69.0504 57.624 69.1464 57.876C69.2544 58.14 69.3084 58.392 69.3084 58.632C69.3084 59.04 69.1644 59.382 68.8764 59.658C68.6004 59.922 68.2644 60.054 67.8684 60.054C67.6164 60.054 67.3584 59.988 67.0944 59.856C66.7824 59.7 66.3984 59.466 65.9424 59.154C65.1024 59.622 64.2324 59.856 63.3324 59.856C62.2164 59.844 61.1964 59.568 60.2724 59.028C59.3604 58.476 58.6344 57.726 58.0944 56.778C57.5664 55.83 57.2904 54.78 57.2664 53.628C57.2904 52.464 57.5724 51.414 58.1124 50.478C58.6524 49.53 59.3784 48.786 60.2904 48.246C61.2024 47.694 62.2164 47.412 63.3324 47.4C64.4604 47.412 65.4804 47.694 66.3924 48.246C67.3164 48.786 68.0484 49.53 68.5884 50.478C69.1284 51.426 69.4164 52.476 69.4524 53.628C69.4164 54.708 69.0744 55.764 68.4264 56.796ZM60.9924 54.51C60.9924 54.942 61.1064 55.35 61.3344 55.734C61.5624 56.118 61.8684 56.424 62.2524 56.652C62.6364 56.88 63.0444 56.994 63.4764 56.994H63.6564C63.3924 56.61 63.2064 56.322 63.0984 56.13C62.9184 55.818 62.8284 55.488 62.8284 55.14C62.8284 54.708 62.9724 54.348 63.2604 54.06C63.5484 53.772 63.8964 53.628 64.3044 53.628C64.6284 53.628 64.9404 53.724 65.2404 53.916C65.3004 53.952 65.4024 54.024 65.5464 54.132C65.6904 54.228 65.8224 54.33 65.9424 54.438C65.9304 54.018 65.8104 53.622 65.5824 53.25C65.3544 52.878 65.0544 52.584 64.6824 52.368C64.3104 52.152 63.9084 52.044 63.4764 52.044C63.0444 52.044 62.6364 52.158 62.2524 52.386C61.8684 52.614 61.5624 52.92 61.3344 53.304C61.1064 53.676 60.9924 54.078 60.9924 54.51Z" fill="black"/>
</svg>
