<svg width="34" height="31" viewBox="0 0 34 31" fill="none" xmlns="http://www.w3.org/2000/svg">
<g id="Group 48100667">
<path id="Ellipse 5236" d="M32.6485 15.4312C32.6485 23.7122 26.4143 30.3623 18.7991 30.3623H14.2166V0.5H18.7991C26.4143 0.5 32.6485 7.15006 32.6485 15.4312Z" fill="black" stroke="#F39C36"/>
<path id="Ellipse 5237" d="M28.0762 15.4312C28.0762 23.7143 21.8675 30.3623 14.2881 30.3623C6.70868 30.3623 0.5 23.7143 0.5 15.4312C0.5 7.14797 6.70868 0.5 14.2881 0.5C21.8675 0.5 28.0762 7.14797 28.0762 15.4312Z" fill="url(#paint0_linear_22240_929)" stroke="black"/>
<path id="Ellipse 5238" d="M24.5 15.3623C24.5 22.0517 19.7408 27.3623 14 27.3623C8.25915 27.3623 3.5 22.0517 3.5 15.3623C3.5 8.67292 8.25915 3.3623 14 3.3623C19.7408 3.3623 24.5 8.67292 24.5 15.3623Z" fill="black" stroke="#F39C36"/>
<path id="Vector" d="M14.2614 21.6092C14.0824 21.4244 13.9258 21.2203 13.7945 21.0008C13.4609 20.4908 12.902 19.2933 12.9006 17.9767C11.7209 18.6461 10.36 18.7764 9.73415 18.7501C9.49793 18.7497 9.26238 18.7255 9.03128 18.678C9.29361 19.9198 9.95109 20.8262 11.0037 21.3972C12.0255 21.9515 13.1114 22.0222 14.2614 21.6092ZM18.4958 16.1556C18.833 15.7396 19.0718 15.2565 19.1951 14.7406C19.3414 14.146 19.3443 13.5489 19.2036 12.9493L20.4511 12.6056C20.5473 12.5821 20.6375 12.5397 20.7162 12.4811C20.7949 12.4225 20.8604 12.3488 20.9087 12.2646C20.9568 12.1804 20.9866 12.0876 20.9964 11.9918C21.0062 11.896 20.9958 11.7992 20.9658 11.7075C20.9419 11.614 20.8985 11.5263 20.8385 11.4496C20.7784 11.373 20.7029 11.3091 20.6165 11.2619C20.5298 11.2151 20.4341 11.1861 20.3355 11.1765C20.2368 11.167 20.1371 11.1772 20.0426 11.2065L18.6512 11.5904C18.1888 11.0125 17.7123 10.5937 17.2219 10.334C16.7315 10.0749 16.1655 9.94137 15.5239 9.93351L15.1154 8.53373C15.0913 8.44031 15.0479 8.35265 14.9877 8.27615C14.9275 8.19965 14.8519 8.13591 14.7654 8.08885C14.6787 8.04206 14.5831 8.013 14.4844 8.00346C14.3857 7.99393 14.2861 8.00412 14.1916 8.03341C14.0955 8.05674 14.0054 8.09889 13.9267 8.15728C13.848 8.21567 13.7824 8.28906 13.7339 8.37296C13.6857 8.4572 13.6557 8.55014 13.6457 8.64608C13.6358 8.74201 13.6462 8.8389 13.6762 8.9308L14.0298 10.1435C13.4375 10.3396 12.9034 10.673 12.4736 11.115C12.1251 11.4679 11.8484 11.8818 11.6581 12.3346L15.8212 12.8336L18.4958 16.1556ZM9.72203 12.7726C8.99736 12.7752 8.30347 13.0576 7.793 13.5576C7.28252 14.0576 6.99728 14.7343 7.00002 15.4387C7.00276 16.1432 7.29326 16.8177 7.80761 17.314C8.32197 17.8102 9.01804 18.0875 9.7427 18.0848H9.75838C10.3942 18.1139 11.9404 17.9435 13.041 17.0779L15.2266 13.4323L9.72203 12.7726ZM13.6256 17.4244L15.7734 13.8418L19.1288 18.0252C19.4884 18.6369 19.5835 19.3623 19.3929 20.0421C19.2023 20.7218 18.7418 21.3001 18.1126 21.6498C17.4834 21.9994 16.7371 22.0918 16.0379 21.9065C15.3386 21.7213 14.7437 21.2736 14.3841 20.6619L14.3762 20.6481C14.0362 20.1332 13.4253 18.7702 13.6256 17.4244Z" fill="url(#paint1_linear_22240_929)"/>
</g>
<defs>
<linearGradient id="paint0_linear_22240_929" x1="45.7369" y1="15.6506" x2="-15.5895" y2="16.4475" gradientUnits="userSpaceOnUse">
<stop stop-color="#F8F29C"/>
<stop offset="0.165" stop-color="#F6DB2A"/>
<stop offset="0.333" stop-color="#F4A435"/>
<stop offset="0.55" stop-color="#E85A46"/>
<stop offset="0.699" stop-color="#B93483"/>
<stop offset="0.867" stop-color="#502B6E"/>
<stop offset="1" stop-color="#2A2136"/>
</linearGradient>
<linearGradient id="paint1_linear_22240_929" x1="29.4073" y1="15.0995" x2="-0.636748" y2="15.5212" gradientUnits="userSpaceOnUse">
<stop stop-color="#F8F29C"/>
<stop offset="0.165" stop-color="#F6DB2A"/>
<stop offset="0.333" stop-color="#F4A435"/>
<stop offset="0.55" stop-color="#E85A46"/>
<stop offset="0.699" stop-color="#B93483"/>
<stop offset="0.867" stop-color="#502B6E"/>
<stop offset="1" stop-color="#2A2136"/>
</linearGradient>
</defs>
</svg>
