<svg width="16" height="16" viewBox="0 0 16 16" fill="none" xmlns="http://www.w3.org/2000/svg">
<g clip-path="url(#clip0_2416_6551)">
<mask id="mask0_2416_6551" style="mask-type:luminance" maskUnits="userSpaceOnUse" x="0" y="0" width="16" height="16">
<path d="M0 0.917969H16V15.611H0V0.917969Z" fill="white"/>
</mask>
<g mask="url(#mask0_2416_6551)">
<path d="M16 7.88087C15.973 7.70308 15.8819 7.54128 15.744 7.42587H15.716C15.687 7.39787 15.659 7.39787 15.659 7.39787C15.631 7.39787 15.602 7.36887 15.602 7.36887C15.517 7.31287 15.403 7.31287 15.289 7.31287H15.233C15.1633 7.31809 15.0953 7.33712 15.033 7.36887C15.005 7.36887 14.977 7.39787 14.977 7.39787L8.952 10.8369C8.838 10.8929 8.725 10.9789 8.611 11.0359C8.412 11.1209 8.298 11.1209 8.099 11.0359C7.986 10.9789 7.872 10.9219 7.73 10.8359L3.666 8.50587C3.58171 8.4503 3.48296 8.42068 3.382 8.42068C3.28104 8.42068 3.18229 8.4503 3.098 8.50587C3.01067 8.55963 2.93867 8.63499 2.88892 8.72467C2.83918 8.81434 2.81338 8.91532 2.814 9.01787V9.27387C2.814 9.30187 2.814 9.35887 2.842 9.38687C2.88258 9.53582 2.97292 9.66639 3.098 9.75687C3.155 9.78487 3.211 9.84187 3.353 9.92687L7.73 12.4569C7.929 12.5699 8.014 12.6269 8.156 12.6839C8.23379 12.7144 8.31729 12.7276 8.40069 12.7225C8.4841 12.7175 8.56541 12.6944 8.639 12.6549C8.725 12.6269 8.81 12.5699 9.009 12.4569L14.409 9.32987C14.437 9.32987 14.465 9.30187 14.522 9.27387C14.579 9.24487 14.579 9.27387 14.607 9.27387C14.664 9.27387 14.636 9.44387 14.636 9.47187V10.6669C14.636 10.7229 14.608 10.7509 14.608 10.8079C14.5793 10.8362 14.5506 10.8645 14.522 10.8929C14.465 10.9219 14.408 10.9499 14.437 10.9499C14.409 10.9499 14.38 10.9789 14.352 11.0069L9.634 13.7349C9.35 13.9049 9.123 14.0199 8.924 14.1329C8.497 14.3329 8.27 14.3329 7.872 14.1329C7.673 14.0479 7.446 13.9059 7.133 13.7349L2.7 11.1499C2.472 11.0079 2.302 10.9229 2.16 10.8099C1.7333 10.4704 1.44929 9.98341 1.364 9.44487C1.336 9.27487 1.336 9.07487 1.336 8.76287V7.88187C1.421 7.42687 1.706 7.00087 2.131 6.74487C2.529 6.51787 3.041 6.51787 3.439 6.74487L7.076 8.84787C7.417 9.04787 7.645 9.16087 7.816 9.24587C8.242 9.44587 8.441 9.44587 8.866 9.24587C9.037 9.16087 9.265 9.04687 9.606 8.84787L15.034 5.72187C15.1091 5.67127 15.1713 5.60374 15.2156 5.52471C15.2599 5.44569 15.2851 5.35737 15.289 5.26687V5.03987C15.2622 4.86222 15.1715 4.70044 15.034 4.58487L14.948 4.52887L9.606 1.45887C9.265 1.25987 9.037 1.14687 8.866 1.06087C8.441 0.861871 8.213 0.861871 7.816 1.06087C7.645 1.14687 7.417 1.26087 7.076 1.45887L2.444 4.12987C1.876 4.46987 1.648 4.58387 1.478 4.72587C1.42 4.75487 0.028 5.66387 0 7.56787V8.36387C0 9.01787 0 9.30187 0.057 9.58587C0.199 10.5239 0.682 11.3759 1.421 11.9729C1.648 12.1429 1.876 12.2859 2.444 12.6269L5.798 14.5589C6.451 14.9569 6.878 15.1849 7.275 15.3549C7.702 15.5549 8.015 15.6109 8.327 15.6109C8.667 15.6109 8.98 15.5259 9.378 15.3549C9.776 15.1849 10.259 14.8999 10.856 14.5589L14.721 12.3429C15.062 12.1429 15.29 12.0299 15.431 11.9159C15.631 11.7739 15.744 11.6609 15.801 11.5189C15.886 11.3769 15.915 11.2349 15.943 11.0069C15.972 10.8079 15.972 10.5519 15.972 10.1829V8.02287C16 7.96587 16 7.90987 16 7.88087ZM3.012 5.12387L7.645 2.45287C7.929 2.28287 8.128 2.16887 8.298 2.08287C8.327 2.08287 8.355 2.11187 8.384 2.11187C8.526 2.16887 8.724 2.28187 9.009 2.45187L13.698 5.15187L9.008 7.85187C8.80828 7.98037 8.59976 8.09465 8.384 8.19387C8.355 8.22187 8.327 8.22187 8.27 8.19387C8.05404 8.09478 7.84521 7.98084 7.645 7.85287L4.007 5.74987C3.63897 5.52555 3.21601 5.40753 2.785 5.40887C2.671 5.40887 2.558 5.40887 2.472 5.43687C2.586 5.37987 2.757 5.26687 3.012 5.12387Z" fill="black"/>
</g>
</g>
<defs>
<clipPath id="clip0_2416_6551">
<rect width="16" height="16" fill="white"/>
</clipPath>
</defs>
</svg>
