<svg width="114" height="33" viewBox="0 0 114 33" fill="none" xmlns="http://www.w3.org/2000/svg">
  <mask id="path-1-outside-1_31324_1988" maskUnits="userSpaceOnUse" x="38" y="4" width="74"
    height="28" fill="black">
    <rect fill="white" x="38" y="4" width="74" height="28" />
    <path
      d="M44.696 16.984C42.9253 16.9733 41.5973 16.536 40.712 15.672C39.8373 14.808 39.4 13.4053 39.4 11.464C39.4 9.704 39.8267 8.32267 40.68 7.32C41.5333 6.30667 42.7387 5.8 44.296 5.8C45.256 5.8 46.0933 5.944 46.808 6.232C47.5227 6.52 48.072 6.93067 48.456 7.464C48.84 7.99733 49.032 8.62667 49.032 9.352C49.032 9.928 48.904 10.44 48.648 10.888C48.4027 11.336 48.0347 11.736 47.544 12.088C47.9387 12.152 48.28 12.3653 48.568 12.728C48.8667 13.0907 49.016 13.512 49.016 13.992C49.016 14.504 48.8773 14.9893 48.6 15.448C48.3333 15.896 47.8747 16.264 47.224 16.552C46.584 16.84 45.7413 16.984 44.696 16.984ZM43.592 11.016C43.784 11.112 44.024 11.16 44.312 11.16C44.6533 11.16 44.9467 11.08 45.192 10.92C45.448 10.7493 45.576 10.4987 45.576 10.168C45.576 9.848 45.448 9.608 45.192 9.448C44.9467 9.27733 44.648 9.192 44.296 9.192C44.0187 9.192 43.784 9.24 43.592 9.336C43.4427 9.4 43.3307 9.512 43.256 9.672C43.1813 9.832 43.144 10.0027 43.144 10.184C43.144 10.3653 43.1813 10.536 43.256 10.696C43.3307 10.8453 43.4427 10.952 43.592 11.016ZM43.592 14.76C43.7947 14.8453 44.0347 14.888 44.312 14.888C44.6533 14.888 44.9467 14.8187 45.192 14.68C45.448 14.5307 45.576 14.312 45.576 14.024C45.576 13.7467 45.448 13.5333 45.192 13.384C44.936 13.2347 44.6373 13.16 44.296 13.16C44.0293 13.16 43.7947 13.2027 43.592 13.288C43.4427 13.352 43.3307 13.4533 43.256 13.592C43.1813 13.72 43.144 13.864 43.144 14.024C43.144 14.184 43.1813 14.3333 43.256 14.472C43.3307 14.6 43.4427 14.696 43.592 14.76ZM55.6135 16.984C54.3975 16.984 53.3575 16.7707 52.4935 16.344C51.6295 15.9173 50.9682 15.3093 50.5095 14.52C50.0615 13.72 49.8375 12.776 49.8375 11.688C49.8375 10.3867 50.1095 9.29333 50.6535 8.408C51.2082 7.52267 51.9228 6.86667 52.7975 6.44C53.6722 6.01333 54.5895 5.8 55.5495 5.8C56.4028 5.8 57.1548 5.928 57.8055 6.184C58.4562 6.44 58.9575 6.776 59.3095 7.192C59.6615 7.608 59.8375 8.04533 59.8375 8.504C59.8375 9.16533 59.6668 9.64 59.3255 9.928C58.9842 10.2053 58.5628 10.344 58.0615 10.344C57.8268 10.344 57.6188 10.3227 57.4375 10.28C57.2668 10.2373 57.0855 10.1787 56.8935 10.104C56.6802 10.0293 56.4882 9.976 56.3175 9.944C56.1575 9.90133 55.9548 9.88 55.7095 9.88C55.0055 9.88 54.4508 10.0933 54.0455 10.52C53.6402 10.936 53.4375 11.528 53.4375 12.296C53.4375 12.9467 53.6348 13.448 54.0295 13.8C54.4242 14.152 54.9148 14.328 55.5015 14.328C55.8322 14.328 56.1202 14.2853 56.3655 14.2C56.6108 14.1147 56.7975 14.0187 56.9255 13.912C57.0535 13.8053 57.1175 13.72 57.1175 13.656C56.3388 13.656 55.7468 13.5653 55.3415 13.384C54.9362 13.2027 54.7335 12.888 54.7335 12.44C54.7335 11.992 54.8882 11.6453 55.1975 11.4C55.5068 11.144 56.0295 11.016 56.7655 11.016C57.5228 11.016 58.1148 11.1067 58.5415 11.288C58.9682 11.4587 59.2722 11.7307 59.4535 12.104C59.6348 12.4667 59.7255 12.952 59.7255 13.56C59.7255 14.1787 59.5388 14.7493 59.1655 15.272C58.8028 15.7947 58.3015 16.2107 57.6615 16.52C57.0322 16.8293 56.3495 16.984 55.6135 16.984ZM71.6339 8.184C71.6339 8.888 71.3405 9.4 70.7539 9.72C70.1779 10.0293 69.2339 10.216 67.9219 10.28C67.9645 10.792 67.9859 11.4533 67.9859 12.264C67.9859 13.3947 67.9219 14.3013 67.7939 14.984C67.6765 15.656 67.4685 16.1573 67.1699 16.488C66.8712 16.808 66.4552 16.968 65.9219 16.968C65.3992 16.968 64.9992 16.7973 64.7219 16.456C64.4445 16.1147 64.2525 15.608 64.1459 14.936C64.0392 14.264 63.9859 13.3733 63.9859 12.264C63.9859 11.5173 64.0019 10.856 64.0339 10.28C63.1485 10.2373 62.4339 10.1467 61.8899 10.008C61.3565 9.85867 60.9619 9.64 60.7059 9.352C60.4499 9.064 60.3219 8.67467 60.3219 8.184C60.3219 7.58667 60.5245 7.11733 60.9299 6.776C61.3352 6.43467 61.9432 6.19467 62.7539 6.056C63.5645 5.91733 64.6259 5.848 65.9379 5.848C67.2605 5.848 68.3325 5.91733 69.1539 6.056C69.9752 6.19467 70.5939 6.43467 71.0099 6.776C71.4259 7.11733 71.6339 7.58667 71.6339 8.184ZM50.712 21.184C50.712 21.888 50.4187 22.4 49.832 22.72C49.256 23.0293 48.312 23.216 47 23.28C47.0427 23.792 47.064 24.4533 47.064 25.264C47.064 26.3947 47 27.3013 46.872 27.984C46.7547 28.656 46.5467 29.1573 46.248 29.488C45.9493 29.808 45.5333 29.968 45 29.968C44.4773 29.968 44.0773 29.7973 43.8 29.456C43.5227 29.1147 43.3307 28.608 43.224 27.936C43.1173 27.264 43.064 26.3733 43.064 25.264C43.064 24.5173 43.08 23.856 43.112 23.28C42.2267 23.2373 41.512 23.1467 40.968 23.008C40.4347 22.8587 40.04 22.64 39.784 22.352C39.528 22.064 39.4 21.6747 39.4 21.184C39.4 20.5867 39.6027 20.1173 40.008 19.776C40.4133 19.4347 41.0213 19.1947 41.832 19.056C42.6427 18.9173 43.704 18.848 45.016 18.848C46.3387 18.848 47.4107 18.9173 48.232 19.056C49.0533 19.1947 49.672 19.4347 50.088 19.776C50.504 20.1173 50.712 20.5867 50.712 21.184ZM53.1031 30.016C52.3351 30.0267 51.6471 29.8667 51.0391 29.536C50.4418 29.2053 49.9725 28.752 49.6311 28.176C49.3005 27.5893 49.1245 26.9387 49.1031 26.224C49.0925 25.5093 49.2578 24.8693 49.5991 24.304C49.9405 23.7387 50.4151 23.2907 51.0231 22.96C51.6418 22.6293 52.3351 22.464 53.1031 22.464C53.8498 22.464 54.5218 22.624 55.1191 22.944C55.7271 23.264 56.2071 23.712 56.5591 24.288C56.9111 24.864 57.0978 25.5093 57.1191 26.224C57.1298 26.9173 56.9645 27.552 56.6231 28.128C56.2818 28.6933 55.8018 29.1467 55.1831 29.488C54.5751 29.8293 53.8818 30.0053 53.1031 30.016ZM53.1511 27.68C53.4391 27.68 53.6898 27.568 53.9031 27.344C54.1165 27.12 54.2231 26.8587 54.2231 26.56C54.2231 26.2613 54.1165 26.0053 53.9031 25.792C53.6898 25.568 53.4391 25.456 53.1511 25.456C52.8631 25.456 52.6125 25.568 52.3991 25.792C52.1858 26.0053 52.0791 26.2613 52.0791 26.56C52.0791 26.8587 52.1858 27.12 52.3991 27.344C52.6125 27.568 52.8631 27.68 53.1511 27.68ZM60.6751 30.016C60.0565 30.016 59.5125 29.856 59.0431 29.536C58.5845 29.2053 58.2271 28.7413 57.9711 28.144C57.7258 27.5467 57.6031 26.8587 57.6031 26.08C57.6031 25.5147 57.6671 24.9547 57.7951 24.4C57.9231 23.8453 58.1258 23.3867 58.4031 23.024C58.6911 22.6507 59.0485 22.464 59.4751 22.464C59.8698 22.464 60.1738 22.592 60.3871 22.848C60.6005 23.104 60.7071 23.4507 60.7071 23.888C60.7071 24.1227 60.6485 24.464 60.5311 24.912C60.5205 24.976 60.4885 25.136 60.4351 25.392C60.3818 25.6373 60.3551 25.856 60.3551 26.048C60.3551 26.4213 60.3925 26.688 60.4671 26.848C60.5418 26.9973 60.6965 27.072 60.9311 27.072C61.1765 27.072 61.3418 26.9387 61.4271 26.672C61.5125 26.3947 61.5551 25.9947 61.5551 25.472L61.5391 24.272C61.5391 23.8987 61.6351 23.584 61.8271 23.328C62.0298 23.072 62.3338 22.944 62.7391 22.944C63.1445 22.944 63.4538 23.0773 63.6671 23.344C63.8805 23.6 63.9871 23.9093 63.9871 24.272L63.9711 25.024C63.9605 25.184 63.9551 25.4133 63.9551 25.712C63.9551 26.16 63.9978 26.5013 64.0831 26.736C64.1791 26.96 64.3551 27.072 64.6111 27.072C65.1125 27.072 65.3631 26.7307 65.3631 26.048C65.3631 25.8347 65.2778 25.4613 65.1071 24.928C65.0965 24.8747 65.0538 24.7253 64.9791 24.48C64.9045 24.2347 64.8671 24.0267 64.8671 23.856C64.8671 23.3973 64.9578 23.056 65.1391 22.832C65.3311 22.5973 65.6245 22.48 66.0191 22.48C66.4458 22.48 66.7978 22.6667 67.0751 23.04C67.3631 23.4027 67.5711 23.8613 67.6991 24.416C67.8271 24.96 67.8911 25.5093 67.8911 26.064C67.8911 27.248 67.6138 28.1973 67.0591 28.912C66.5045 29.616 65.7578 29.968 64.8191 29.968C64.3925 29.968 63.9978 29.888 63.6351 29.728C63.2725 29.568 62.9738 29.3493 62.7391 29.072C62.4938 29.36 62.1898 29.5893 61.8271 29.76C61.4751 29.9307 61.0911 30.016 60.6751 30.016ZM74.8606 30C74.4766 30 74.1886 29.8933 73.9966 29.68C73.8153 29.4667 73.7033 29.2053 73.6606 28.896C73.618 28.5867 73.5966 28.1867 73.5966 27.696C73.5966 27.0667 73.5113 26.5813 73.3406 26.24C73.17 25.8987 72.8926 25.728 72.5086 25.728C72.1566 25.728 71.89 25.8987 71.7086 26.24C71.538 26.5707 71.4526 27.0293 71.4526 27.616C71.4526 28.1813 71.4366 28.608 71.4046 28.896C71.3726 29.184 71.266 29.44 71.0846 29.664C70.9033 29.8773 70.6046 29.984 70.1886 29.984C69.5806 29.984 69.154 29.5947 68.9086 28.816C68.6633 28.0267 68.5406 27.104 68.5406 26.048C68.5406 23.488 69.0793 22.208 70.1566 22.208C70.4553 22.208 70.7006 22.2827 70.8926 22.432C71.0846 22.5707 71.218 22.7733 71.2926 23.04C71.4313 22.8907 71.6446 22.7573 71.9326 22.64C72.2313 22.5227 72.546 22.464 72.8766 22.464C74.05 22.464 74.9246 22.8907 75.5006 23.744C76.0873 24.5973 76.3806 25.7547 76.3806 27.216C76.3806 28.08 76.2686 28.7627 76.0446 29.264C75.8206 29.7547 75.426 30 74.8606 30ZM90.7941 18.832C91.3915 18.832 91.8501 19.04 92.1701 19.456C92.5008 19.872 92.7248 20.48 92.8421 21.28C92.9595 22.0693 93.0181 23.12 93.0181 24.432C93.0181 25.744 92.9595 26.7947 92.8421 27.584C92.7248 28.3627 92.5061 28.9547 92.1861 29.36C91.8661 29.7653 91.4021 29.968 90.7941 29.968C90.0688 29.968 89.5568 29.6587 89.2581 29.04C88.9595 28.4213 88.7835 27.4613 88.7301 26.16C88.3995 26.1707 87.8555 26.176 87.0981 26.176H86.2661C86.2021 27.4773 86.0208 28.4373 85.7221 29.056C85.4235 29.6747 84.9115 29.984 84.1861 29.984C83.5781 29.984 83.1141 29.7813 82.7941 29.376C82.4741 28.9707 82.2555 28.3787 82.1381 27.6C82.0315 26.8107 81.9781 25.7547 81.9781 24.432C81.9781 23.1093 82.0315 22.0533 82.1381 21.264C82.2555 20.4747 82.4741 19.8773 82.7941 19.472C83.1141 19.056 83.5781 18.848 84.1861 18.848C84.7088 18.848 85.1195 19.0133 85.4181 19.344C85.7168 19.664 85.9248 20.1333 86.0421 20.752C86.1701 21.36 86.2501 22.1493 86.2821 23.12H87.4181C88.0048 23.12 88.4368 23.1253 88.7141 23.136C88.7461 21.664 88.9061 20.5813 89.1941 19.888C89.4928 19.184 90.0261 18.832 90.7941 18.832ZM96.7019 30C95.8699 30 95.1872 29.8133 94.6539 29.44C94.1205 29.056 93.8539 28.5067 93.8539 27.792C93.8539 27.1733 94.1259 26.6827 94.6699 26.32C95.2139 25.9573 95.8912 25.776 96.7019 25.776C97.0005 25.776 97.2779 25.8027 97.5339 25.856C97.8005 25.8987 97.9819 25.952 98.0779 26.016C98.0779 25.7493 97.9659 25.5307 97.7419 25.36C97.5179 25.1787 97.1765 25.088 96.7179 25.088C96.5152 25.088 96.3499 25.104 96.2219 25.136C96.0939 25.168 95.9552 25.216 95.8059 25.28C95.6565 25.344 95.5179 25.392 95.3899 25.424C95.2725 25.456 95.1125 25.472 94.9099 25.472C94.5685 25.472 94.3019 25.3867 94.1099 25.216C93.9179 25.0347 93.8219 24.7627 93.8219 24.4C93.8219 23.984 93.9712 23.632 94.2699 23.344C94.5792 23.056 94.9632 22.8427 95.4219 22.704C95.8805 22.5547 96.3392 22.48 96.7979 22.48C97.7045 22.48 98.4619 22.6507 99.0699 22.992C99.6885 23.3227 100.142 23.7653 100.43 24.32C100.729 24.8747 100.878 25.488 100.878 26.16C100.878 26.5227 100.846 26.8587 100.782 27.168C100.729 27.4773 100.654 27.7173 100.558 27.888C100.707 28.016 100.819 28.1653 100.894 28.336C100.979 28.5067 101.022 28.6827 101.022 28.864C101.022 29.1733 100.915 29.44 100.702 29.664C100.499 29.888 100.227 30 99.8859 30C99.6299 30 99.4219 29.9627 99.2619 29.888C99.1019 29.8133 98.9312 29.696 98.7499 29.536C98.4832 29.696 98.1899 29.8133 97.8699 29.888C97.5605 29.9627 97.1712 30 96.7019 30ZM97.0219 28.384C97.2459 28.384 97.4219 28.336 97.5499 28.24C97.6885 28.144 97.7579 28.0267 97.7579 27.888C97.7579 27.7493 97.6885 27.632 97.5499 27.536C97.4219 27.44 97.2459 27.392 97.0219 27.392C96.7979 27.392 96.6165 27.44 96.4779 27.536C96.3499 27.632 96.2859 27.7493 96.2859 27.888C96.2859 28.0267 96.3499 28.144 96.4779 28.24C96.6165 28.336 96.7979 28.384 97.0219 28.384ZM103.694 29.968C103.161 29.968 102.761 29.7707 102.494 29.376C102.227 28.9813 102.046 28.4 101.95 27.632C101.865 26.8533 101.822 25.7707 101.822 24.384C101.822 23.0507 101.854 22.0107 101.918 21.264C101.993 20.5173 102.163 19.92 102.43 19.472C102.707 19.024 103.134 18.8 103.71 18.8C104.286 18.8 104.707 19.024 104.974 19.472C105.251 19.92 105.422 20.5173 105.486 21.264C105.561 22.0107 105.598 23.0507 105.598 24.384C105.598 25.696 105.539 26.7573 105.422 27.568C105.315 28.368 105.123 28.9707 104.846 29.376C104.569 29.7707 104.185 29.968 103.694 29.968ZM108.272 29.968C107.739 29.968 107.339 29.7707 107.072 29.376C106.805 28.9813 106.624 28.4 106.528 27.632C106.443 26.8533 106.4 25.7707 106.4 24.384C106.4 23.0507 106.432 22.0107 106.496 21.264C106.571 20.5173 106.741 19.92 107.008 19.472C107.285 19.024 107.712 18.8 108.288 18.8C108.864 18.8 109.285 19.024 109.552 19.472C109.829 19.92 110 20.5173 110.064 21.264C110.139 22.0107 110.176 23.0507 110.176 24.384C110.176 25.696 110.117 26.7573 110 27.568C109.893 28.368 109.701 28.9707 109.424 29.376C109.147 29.7707 108.763 29.968 108.272 29.968Z" />
  </mask>
  <path
    d="M44.696 16.984C42.9253 16.9733 41.5973 16.536 40.712 15.672C39.8373 14.808 39.4 13.4053 39.4 11.464C39.4 9.704 39.8267 8.32267 40.68 7.32C41.5333 6.30667 42.7387 5.8 44.296 5.8C45.256 5.8 46.0933 5.944 46.808 6.232C47.5227 6.52 48.072 6.93067 48.456 7.464C48.84 7.99733 49.032 8.62667 49.032 9.352C49.032 9.928 48.904 10.44 48.648 10.888C48.4027 11.336 48.0347 11.736 47.544 12.088C47.9387 12.152 48.28 12.3653 48.568 12.728C48.8667 13.0907 49.016 13.512 49.016 13.992C49.016 14.504 48.8773 14.9893 48.6 15.448C48.3333 15.896 47.8747 16.264 47.224 16.552C46.584 16.84 45.7413 16.984 44.696 16.984ZM43.592 11.016C43.784 11.112 44.024 11.16 44.312 11.16C44.6533 11.16 44.9467 11.08 45.192 10.92C45.448 10.7493 45.576 10.4987 45.576 10.168C45.576 9.848 45.448 9.608 45.192 9.448C44.9467 9.27733 44.648 9.192 44.296 9.192C44.0187 9.192 43.784 9.24 43.592 9.336C43.4427 9.4 43.3307 9.512 43.256 9.672C43.1813 9.832 43.144 10.0027 43.144 10.184C43.144 10.3653 43.1813 10.536 43.256 10.696C43.3307 10.8453 43.4427 10.952 43.592 11.016ZM43.592 14.76C43.7947 14.8453 44.0347 14.888 44.312 14.888C44.6533 14.888 44.9467 14.8187 45.192 14.68C45.448 14.5307 45.576 14.312 45.576 14.024C45.576 13.7467 45.448 13.5333 45.192 13.384C44.936 13.2347 44.6373 13.16 44.296 13.16C44.0293 13.16 43.7947 13.2027 43.592 13.288C43.4427 13.352 43.3307 13.4533 43.256 13.592C43.1813 13.72 43.144 13.864 43.144 14.024C43.144 14.184 43.1813 14.3333 43.256 14.472C43.3307 14.6 43.4427 14.696 43.592 14.76ZM55.6135 16.984C54.3975 16.984 53.3575 16.7707 52.4935 16.344C51.6295 15.9173 50.9682 15.3093 50.5095 14.52C50.0615 13.72 49.8375 12.776 49.8375 11.688C49.8375 10.3867 50.1095 9.29333 50.6535 8.408C51.2082 7.52267 51.9228 6.86667 52.7975 6.44C53.6722 6.01333 54.5895 5.8 55.5495 5.8C56.4028 5.8 57.1548 5.928 57.8055 6.184C58.4562 6.44 58.9575 6.776 59.3095 7.192C59.6615 7.608 59.8375 8.04533 59.8375 8.504C59.8375 9.16533 59.6668 9.64 59.3255 9.928C58.9842 10.2053 58.5628 10.344 58.0615 10.344C57.8268 10.344 57.6188 10.3227 57.4375 10.28C57.2668 10.2373 57.0855 10.1787 56.8935 10.104C56.6802 10.0293 56.4882 9.976 56.3175 9.944C56.1575 9.90133 55.9548 9.88 55.7095 9.88C55.0055 9.88 54.4508 10.0933 54.0455 10.52C53.6402 10.936 53.4375 11.528 53.4375 12.296C53.4375 12.9467 53.6348 13.448 54.0295 13.8C54.4242 14.152 54.9148 14.328 55.5015 14.328C55.8322 14.328 56.1202 14.2853 56.3655 14.2C56.6108 14.1147 56.7975 14.0187 56.9255 13.912C57.0535 13.8053 57.1175 13.72 57.1175 13.656C56.3388 13.656 55.7468 13.5653 55.3415 13.384C54.9362 13.2027 54.7335 12.888 54.7335 12.44C54.7335 11.992 54.8882 11.6453 55.1975 11.4C55.5068 11.144 56.0295 11.016 56.7655 11.016C57.5228 11.016 58.1148 11.1067 58.5415 11.288C58.9682 11.4587 59.2722 11.7307 59.4535 12.104C59.6348 12.4667 59.7255 12.952 59.7255 13.56C59.7255 14.1787 59.5388 14.7493 59.1655 15.272C58.8028 15.7947 58.3015 16.2107 57.6615 16.52C57.0322 16.8293 56.3495 16.984 55.6135 16.984ZM71.6339 8.184C71.6339 8.888 71.3405 9.4 70.7539 9.72C70.1779 10.0293 69.2339 10.216 67.9219 10.28C67.9645 10.792 67.9859 11.4533 67.9859 12.264C67.9859 13.3947 67.9219 14.3013 67.7939 14.984C67.6765 15.656 67.4685 16.1573 67.1699 16.488C66.8712 16.808 66.4552 16.968 65.9219 16.968C65.3992 16.968 64.9992 16.7973 64.7219 16.456C64.4445 16.1147 64.2525 15.608 64.1459 14.936C64.0392 14.264 63.9859 13.3733 63.9859 12.264C63.9859 11.5173 64.0019 10.856 64.0339 10.28C63.1485 10.2373 62.4339 10.1467 61.8899 10.008C61.3565 9.85867 60.9619 9.64 60.7059 9.352C60.4499 9.064 60.3219 8.67467 60.3219 8.184C60.3219 7.58667 60.5245 7.11733 60.9299 6.776C61.3352 6.43467 61.9432 6.19467 62.7539 6.056C63.5645 5.91733 64.6259 5.848 65.9379 5.848C67.2605 5.848 68.3325 5.91733 69.1539 6.056C69.9752 6.19467 70.5939 6.43467 71.0099 6.776C71.4259 7.11733 71.6339 7.58667 71.6339 8.184ZM50.712 21.184C50.712 21.888 50.4187 22.4 49.832 22.72C49.256 23.0293 48.312 23.216 47 23.28C47.0427 23.792 47.064 24.4533 47.064 25.264C47.064 26.3947 47 27.3013 46.872 27.984C46.7547 28.656 46.5467 29.1573 46.248 29.488C45.9493 29.808 45.5333 29.968 45 29.968C44.4773 29.968 44.0773 29.7973 43.8 29.456C43.5227 29.1147 43.3307 28.608 43.224 27.936C43.1173 27.264 43.064 26.3733 43.064 25.264C43.064 24.5173 43.08 23.856 43.112 23.28C42.2267 23.2373 41.512 23.1467 40.968 23.008C40.4347 22.8587 40.04 22.64 39.784 22.352C39.528 22.064 39.4 21.6747 39.4 21.184C39.4 20.5867 39.6027 20.1173 40.008 19.776C40.4133 19.4347 41.0213 19.1947 41.832 19.056C42.6427 18.9173 43.704 18.848 45.016 18.848C46.3387 18.848 47.4107 18.9173 48.232 19.056C49.0533 19.1947 49.672 19.4347 50.088 19.776C50.504 20.1173 50.712 20.5867 50.712 21.184ZM53.1031 30.016C52.3351 30.0267 51.6471 29.8667 51.0391 29.536C50.4418 29.2053 49.9725 28.752 49.6311 28.176C49.3005 27.5893 49.1245 26.9387 49.1031 26.224C49.0925 25.5093 49.2578 24.8693 49.5991 24.304C49.9405 23.7387 50.4151 23.2907 51.0231 22.96C51.6418 22.6293 52.3351 22.464 53.1031 22.464C53.8498 22.464 54.5218 22.624 55.1191 22.944C55.7271 23.264 56.2071 23.712 56.5591 24.288C56.9111 24.864 57.0978 25.5093 57.1191 26.224C57.1298 26.9173 56.9645 27.552 56.6231 28.128C56.2818 28.6933 55.8018 29.1467 55.1831 29.488C54.5751 29.8293 53.8818 30.0053 53.1031 30.016ZM53.1511 27.68C53.4391 27.68 53.6898 27.568 53.9031 27.344C54.1165 27.12 54.2231 26.8587 54.2231 26.56C54.2231 26.2613 54.1165 26.0053 53.9031 25.792C53.6898 25.568 53.4391 25.456 53.1511 25.456C52.8631 25.456 52.6125 25.568 52.3991 25.792C52.1858 26.0053 52.0791 26.2613 52.0791 26.56C52.0791 26.8587 52.1858 27.12 52.3991 27.344C52.6125 27.568 52.8631 27.68 53.1511 27.68ZM60.6751 30.016C60.0565 30.016 59.5125 29.856 59.0431 29.536C58.5845 29.2053 58.2271 28.7413 57.9711 28.144C57.7258 27.5467 57.6031 26.8587 57.6031 26.08C57.6031 25.5147 57.6671 24.9547 57.7951 24.4C57.9231 23.8453 58.1258 23.3867 58.4031 23.024C58.6911 22.6507 59.0485 22.464 59.4751 22.464C59.8698 22.464 60.1738 22.592 60.3871 22.848C60.6005 23.104 60.7071 23.4507 60.7071 23.888C60.7071 24.1227 60.6485 24.464 60.5311 24.912C60.5205 24.976 60.4885 25.136 60.4351 25.392C60.3818 25.6373 60.3551 25.856 60.3551 26.048C60.3551 26.4213 60.3925 26.688 60.4671 26.848C60.5418 26.9973 60.6965 27.072 60.9311 27.072C61.1765 27.072 61.3418 26.9387 61.4271 26.672C61.5125 26.3947 61.5551 25.9947 61.5551 25.472L61.5391 24.272C61.5391 23.8987 61.6351 23.584 61.8271 23.328C62.0298 23.072 62.3338 22.944 62.7391 22.944C63.1445 22.944 63.4538 23.0773 63.6671 23.344C63.8805 23.6 63.9871 23.9093 63.9871 24.272L63.9711 25.024C63.9605 25.184 63.9551 25.4133 63.9551 25.712C63.9551 26.16 63.9978 26.5013 64.0831 26.736C64.1791 26.96 64.3551 27.072 64.6111 27.072C65.1125 27.072 65.3631 26.7307 65.3631 26.048C65.3631 25.8347 65.2778 25.4613 65.1071 24.928C65.0965 24.8747 65.0538 24.7253 64.9791 24.48C64.9045 24.2347 64.8671 24.0267 64.8671 23.856C64.8671 23.3973 64.9578 23.056 65.1391 22.832C65.3311 22.5973 65.6245 22.48 66.0191 22.48C66.4458 22.48 66.7978 22.6667 67.0751 23.04C67.3631 23.4027 67.5711 23.8613 67.6991 24.416C67.8271 24.96 67.8911 25.5093 67.8911 26.064C67.8911 27.248 67.6138 28.1973 67.0591 28.912C66.5045 29.616 65.7578 29.968 64.8191 29.968C64.3925 29.968 63.9978 29.888 63.6351 29.728C63.2725 29.568 62.9738 29.3493 62.7391 29.072C62.4938 29.36 62.1898 29.5893 61.8271 29.76C61.4751 29.9307 61.0911 30.016 60.6751 30.016ZM74.8606 30C74.4766 30 74.1886 29.8933 73.9966 29.68C73.8153 29.4667 73.7033 29.2053 73.6606 28.896C73.618 28.5867 73.5966 28.1867 73.5966 27.696C73.5966 27.0667 73.5113 26.5813 73.3406 26.24C73.17 25.8987 72.8926 25.728 72.5086 25.728C72.1566 25.728 71.89 25.8987 71.7086 26.24C71.538 26.5707 71.4526 27.0293 71.4526 27.616C71.4526 28.1813 71.4366 28.608 71.4046 28.896C71.3726 29.184 71.266 29.44 71.0846 29.664C70.9033 29.8773 70.6046 29.984 70.1886 29.984C69.5806 29.984 69.154 29.5947 68.9086 28.816C68.6633 28.0267 68.5406 27.104 68.5406 26.048C68.5406 23.488 69.0793 22.208 70.1566 22.208C70.4553 22.208 70.7006 22.2827 70.8926 22.432C71.0846 22.5707 71.218 22.7733 71.2926 23.04C71.4313 22.8907 71.6446 22.7573 71.9326 22.64C72.2313 22.5227 72.546 22.464 72.8766 22.464C74.05 22.464 74.9246 22.8907 75.5006 23.744C76.0873 24.5973 76.3806 25.7547 76.3806 27.216C76.3806 28.08 76.2686 28.7627 76.0446 29.264C75.8206 29.7547 75.426 30 74.8606 30ZM90.7941 18.832C91.3915 18.832 91.8501 19.04 92.1701 19.456C92.5008 19.872 92.7248 20.48 92.8421 21.28C92.9595 22.0693 93.0181 23.12 93.0181 24.432C93.0181 25.744 92.9595 26.7947 92.8421 27.584C92.7248 28.3627 92.5061 28.9547 92.1861 29.36C91.8661 29.7653 91.4021 29.968 90.7941 29.968C90.0688 29.968 89.5568 29.6587 89.2581 29.04C88.9595 28.4213 88.7835 27.4613 88.7301 26.16C88.3995 26.1707 87.8555 26.176 87.0981 26.176H86.2661C86.2021 27.4773 86.0208 28.4373 85.7221 29.056C85.4235 29.6747 84.9115 29.984 84.1861 29.984C83.5781 29.984 83.1141 29.7813 82.7941 29.376C82.4741 28.9707 82.2555 28.3787 82.1381 27.6C82.0315 26.8107 81.9781 25.7547 81.9781 24.432C81.9781 23.1093 82.0315 22.0533 82.1381 21.264C82.2555 20.4747 82.4741 19.8773 82.7941 19.472C83.1141 19.056 83.5781 18.848 84.1861 18.848C84.7088 18.848 85.1195 19.0133 85.4181 19.344C85.7168 19.664 85.9248 20.1333 86.0421 20.752C86.1701 21.36 86.2501 22.1493 86.2821 23.12H87.4181C88.0048 23.12 88.4368 23.1253 88.7141 23.136C88.7461 21.664 88.9061 20.5813 89.1941 19.888C89.4928 19.184 90.0261 18.832 90.7941 18.832ZM96.7019 30C95.8699 30 95.1872 29.8133 94.6539 29.44C94.1205 29.056 93.8539 28.5067 93.8539 27.792C93.8539 27.1733 94.1259 26.6827 94.6699 26.32C95.2139 25.9573 95.8912 25.776 96.7019 25.776C97.0005 25.776 97.2779 25.8027 97.5339 25.856C97.8005 25.8987 97.9819 25.952 98.0779 26.016C98.0779 25.7493 97.9659 25.5307 97.7419 25.36C97.5179 25.1787 97.1765 25.088 96.7179 25.088C96.5152 25.088 96.3499 25.104 96.2219 25.136C96.0939 25.168 95.9552 25.216 95.8059 25.28C95.6565 25.344 95.5179 25.392 95.3899 25.424C95.2725 25.456 95.1125 25.472 94.9099 25.472C94.5685 25.472 94.3019 25.3867 94.1099 25.216C93.9179 25.0347 93.8219 24.7627 93.8219 24.4C93.8219 23.984 93.9712 23.632 94.2699 23.344C94.5792 23.056 94.9632 22.8427 95.4219 22.704C95.8805 22.5547 96.3392 22.48 96.7979 22.48C97.7045 22.48 98.4619 22.6507 99.0699 22.992C99.6885 23.3227 100.142 23.7653 100.43 24.32C100.729 24.8747 100.878 25.488 100.878 26.16C100.878 26.5227 100.846 26.8587 100.782 27.168C100.729 27.4773 100.654 27.7173 100.558 27.888C100.707 28.016 100.819 28.1653 100.894 28.336C100.979 28.5067 101.022 28.6827 101.022 28.864C101.022 29.1733 100.915 29.44 100.702 29.664C100.499 29.888 100.227 30 99.8859 30C99.6299 30 99.4219 29.9627 99.2619 29.888C99.1019 29.8133 98.9312 29.696 98.7499 29.536C98.4832 29.696 98.1899 29.8133 97.8699 29.888C97.5605 29.9627 97.1712 30 96.7019 30ZM97.0219 28.384C97.2459 28.384 97.4219 28.336 97.5499 28.24C97.6885 28.144 97.7579 28.0267 97.7579 27.888C97.7579 27.7493 97.6885 27.632 97.5499 27.536C97.4219 27.44 97.2459 27.392 97.0219 27.392C96.7979 27.392 96.6165 27.44 96.4779 27.536C96.3499 27.632 96.2859 27.7493 96.2859 27.888C96.2859 28.0267 96.3499 28.144 96.4779 28.24C96.6165 28.336 96.7979 28.384 97.0219 28.384ZM103.694 29.968C103.161 29.968 102.761 29.7707 102.494 29.376C102.227 28.9813 102.046 28.4 101.95 27.632C101.865 26.8533 101.822 25.7707 101.822 24.384C101.822 23.0507 101.854 22.0107 101.918 21.264C101.993 20.5173 102.163 19.92 102.43 19.472C102.707 19.024 103.134 18.8 103.71 18.8C104.286 18.8 104.707 19.024 104.974 19.472C105.251 19.92 105.422 20.5173 105.486 21.264C105.561 22.0107 105.598 23.0507 105.598 24.384C105.598 25.696 105.539 26.7573 105.422 27.568C105.315 28.368 105.123 28.9707 104.846 29.376C104.569 29.7707 104.185 29.968 103.694 29.968ZM108.272 29.968C107.739 29.968 107.339 29.7707 107.072 29.376C106.805 28.9813 106.624 28.4 106.528 27.632C106.443 26.8533 106.4 25.7707 106.4 24.384C106.4 23.0507 106.432 22.0107 106.496 21.264C106.571 20.5173 106.741 19.92 107.008 19.472C107.285 19.024 107.712 18.8 108.288 18.8C108.864 18.8 109.285 19.024 109.552 19.472C109.829 19.92 110 20.5173 110.064 21.264C110.139 22.0107 110.176 23.0507 110.176 24.384C110.176 25.696 110.117 26.7573 110 27.568C109.893 28.368 109.701 28.9707 109.424 29.376C109.147 29.7707 108.763 29.968 108.272 29.968Z"
    fill="#FFF5A9" />
  <path
    d="M44.696 16.984L44.69 17.984H44.696V16.984ZM40.712 15.672L40.0092 16.3834L40.0136 16.3877L40.712 15.672ZM40.68 7.32L41.4415 7.96813L41.4449 7.96414L40.68 7.32ZM46.808 6.232L47.1818 5.30448L46.808 6.232ZM48.648 10.888L47.7798 10.3919L47.7753 10.3997L47.7709 10.4077L48.648 10.888ZM47.544 12.088L46.9611 11.2755L44.993 12.6874L47.3839 13.0751L47.544 12.088ZM48.568 12.728L47.7849 13.3499L47.7904 13.3568L47.7961 13.3637L48.568 12.728ZM48.6 15.448L47.7442 14.9306L47.7407 14.9365L48.6 15.448ZM47.224 16.552L46.8192 15.6376L46.8136 15.6401L47.224 16.552ZM43.592 11.016L44.0392 10.1216L44.0129 10.1084L43.9859 10.0969L43.592 11.016ZM45.192 10.92L45.7383 11.7577L45.7467 11.752L45.192 10.92ZM45.192 9.448L44.6209 10.2689L44.6411 10.283L44.662 10.296L45.192 9.448ZM43.592 9.336L43.9859 10.2551L44.0129 10.2436L44.0392 10.2304L43.592 9.336ZM43.256 9.672L42.3498 9.24911H42.3498L43.256 9.672ZM43.256 10.696L42.3498 11.1189L42.3555 11.1311L42.3616 11.1432L43.256 10.696ZM43.592 14.76L43.1981 15.6792L43.2039 15.6816L43.592 14.76ZM45.192 14.68L45.6841 15.5506L45.6959 15.5438L45.192 14.68ZM45.192 13.384L45.6959 12.5202H45.6959L45.192 13.384ZM43.592 13.288L43.2039 12.3663L43.1981 12.3689L43.592 13.288ZM43.256 13.592L44.1198 14.0959L44.1284 14.0811L44.1365 14.0661L43.256 13.592ZM43.256 14.472L42.3755 14.9461L42.3836 14.9611L42.3922 14.9759L43.256 14.472ZM44.702 15.984C43.0785 15.9742 42.0435 15.5741 41.4104 14.9563L40.0136 16.3877C41.1512 17.4979 42.7722 17.9724 44.69 17.984L44.702 15.984ZM41.4148 14.9606C40.8155 14.3687 40.4 13.2881 40.4 11.464H38.4C38.4 13.5226 38.8591 15.2473 40.0092 16.3834L41.4148 14.9606ZM40.4 11.464C40.4 9.86086 40.7874 8.73676 41.4415 7.96812L39.9185 6.67188C38.866 7.90858 38.4 9.54714 38.4 11.464H40.4ZM41.4449 7.96414C42.0741 7.21693 42.9763 6.8 44.296 6.8V4.8C42.5011 4.8 40.9925 5.3964 39.9151 6.67586L41.4449 7.96414ZM44.296 6.8C45.1583 6.8 45.8636 6.92958 46.4342 7.15952L47.1818 5.30448C46.323 4.95842 45.3537 4.8 44.296 4.8V6.8ZM46.4342 7.15952C47.0042 7.38921 47.3889 7.69333 47.6445 8.0483L49.2675 6.87969C48.7551 6.168 48.0411 5.65079 47.1818 5.30448L46.4342 7.15952ZM47.6445 8.0483C47.8932 8.39382 48.032 8.81356 48.032 9.352H50.032C50.032 8.43977 49.7868 7.60084 49.2675 6.87969L47.6445 8.0483ZM48.032 9.352C48.032 9.77466 47.9397 10.112 47.7798 10.3919L49.5162 11.3841C49.8683 10.768 50.032 10.0813 50.032 9.352H48.032ZM47.7709 10.4077C47.6095 10.7025 47.352 10.995 46.9611 11.2755L48.1269 12.9005C48.7173 12.477 49.1959 11.9695 49.5251 11.3683L47.7709 10.4077ZM47.3839 13.0751C47.4941 13.093 47.6257 13.1494 47.7849 13.3499L49.3511 12.1061C48.9343 11.5813 48.3833 11.211 47.7041 11.1009L47.3839 13.0751ZM47.7961 13.3637C47.9438 13.5431 48.016 13.7385 48.016 13.992H50.016C50.016 13.2855 49.7895 12.6382 49.3399 12.0923L47.7961 13.3637ZM48.016 13.992C48.016 14.3129 47.9318 14.6204 47.7443 14.9306L49.4557 15.9654C49.8228 15.3583 50.016 14.6951 50.016 13.992H48.016ZM47.7407 14.9365C47.6126 15.1518 47.348 15.4035 46.8193 15.6376L47.6287 17.4664C48.4013 17.1245 49.0541 16.6402 49.4593 15.9595L47.7407 14.9365ZM46.8136 15.6401C46.3499 15.8487 45.663 15.984 44.696 15.984V17.984C45.8197 17.984 46.8181 17.8313 47.6344 17.4639L46.8136 15.6401ZM43.1448 11.9104C43.5147 12.0954 43.9194 12.16 44.312 12.16V10.16C44.1286 10.16 44.0533 10.1286 44.0392 10.1216L43.1448 11.9104ZM44.312 12.16C44.8145 12.16 45.305 12.0402 45.7383 11.7576L44.6457 10.0824C44.5883 10.1198 44.4921 10.16 44.312 10.16V12.16ZM45.7467 11.752C46.3047 11.38 46.576 10.8033 46.576 10.168H44.576C44.576 10.2028 44.5699 10.1874 44.5894 10.1492C44.5984 10.1315 44.6096 10.1157 44.6209 10.1034C44.6319 10.0914 44.6389 10.0869 44.6373 10.0879L45.7467 11.752ZM46.576 10.168C46.576 9.52817 46.2909 8.95559 45.722 8.6L44.662 10.296C44.6622 10.2961 44.6526 10.2901 44.6386 10.2755C44.6243 10.2606 44.6097 10.2412 44.5976 10.2186C44.5718 10.1702 44.576 10.1432 44.576 10.168H46.576ZM45.7631 8.62709C45.322 8.32024 44.8149 8.192 44.296 8.192V10.192C44.4811 10.192 44.5714 10.2344 44.6209 10.2689L45.7631 8.62709ZM44.296 8.192C43.9072 8.192 43.5101 8.2589 43.1448 8.44157L44.0392 10.2304C44.0579 10.2211 44.1301 10.192 44.296 10.192V8.192ZM43.1981 8.41685C42.8024 8.58642 42.5187 8.8873 42.3498 9.24911L44.1622 10.0949C44.1558 10.1085 44.1384 10.1398 44.1031 10.1751C44.0668 10.2114 44.0251 10.2383 43.9859 10.2551L43.1981 8.41685ZM42.3498 9.24911C42.2117 9.54516 42.144 9.86061 42.144 10.184H44.144C44.144 10.1447 44.151 10.1188 44.1622 10.0949L42.3498 9.24911ZM42.144 10.184C42.144 10.5074 42.2117 10.8228 42.3498 11.1189L44.1622 10.2731C44.151 10.2492 44.144 10.2233 44.144 10.184H42.144ZM42.3616 11.1432C42.5388 11.4977 42.8249 11.7752 43.1981 11.9351L43.9859 10.0969C44.0151 10.1093 44.0512 10.131 44.0857 10.1639C44.1198 10.1964 44.1402 10.2282 44.1504 10.2488L42.3616 11.1432ZM43.2039 15.6816C43.557 15.8303 43.9349 15.888 44.312 15.888V13.888C44.1344 13.888 44.0323 13.8604 43.9801 13.8384L43.2039 15.6816ZM44.312 15.888C44.7895 15.888 45.2599 15.7903 45.6841 15.5506L44.6999 13.8094C44.6334 13.847 44.5172 13.888 44.312 13.888V15.888ZM45.6959 15.5438C46.2481 15.2217 46.576 14.6802 46.576 14.024H44.576C44.576 14.0152 44.5796 13.9627 44.617 13.8988C44.6536 13.8363 44.693 13.8134 44.6881 13.8162L45.6959 15.5438ZM46.576 14.024C46.576 13.3622 46.2334 12.8338 45.6959 12.5202L44.6881 14.2478C44.6985 14.2538 44.6603 14.2334 44.6225 14.1705C44.5829 14.1044 44.576 14.0452 44.576 14.024H46.576ZM45.6959 12.5202C45.265 12.2689 44.7871 12.16 44.296 12.16V14.16C44.4875 14.16 44.607 14.2005 44.6881 14.2478L45.6959 12.5202ZM44.296 12.16C43.9237 12.16 43.5526 12.2196 43.2039 12.3664L43.9801 14.2096C44.0367 14.1858 44.1349 14.16 44.296 14.16V12.16ZM43.1981 12.3689C42.848 12.5189 42.561 12.7734 42.3755 13.1179L44.1365 14.0661C44.1221 14.0929 44.0991 14.1244 44.0669 14.1535C44.035 14.1824 44.0051 14.1989 43.9859 14.2071L43.1981 12.3689ZM42.3922 13.0881C42.2213 13.3812 42.144 13.7015 42.144 14.024H44.144C44.144 14.0223 44.1441 14.0311 44.14 14.047C44.1358 14.0633 44.1288 14.0804 44.1198 14.0959L42.3922 13.0881ZM42.144 14.024C42.144 14.3467 42.2211 14.6593 42.3755 14.9461L44.1365 13.9979C44.1376 14 44.1402 14.0057 44.1421 14.0135C44.1441 14.0212 44.144 14.0255 44.144 14.024H42.144ZM42.3922 14.9759C42.5854 15.3071 42.8717 15.5393 43.1981 15.6791L43.9859 13.8409C43.9951 13.8448 44.0184 13.8564 44.0468 13.8807C44.0759 13.9057 44.1011 13.9362 44.1198 13.9681L42.3922 14.9759ZM52.4935 16.344L52.9363 15.4474L52.4935 16.344ZM50.5095 14.52L49.637 15.0086L49.6409 15.0155L49.6449 15.0224L50.5095 14.52ZM50.6535 8.408L49.806 7.87706L49.8015 7.88448L50.6535 8.408ZM52.7975 6.44L52.3591 5.54123L52.7975 6.44ZM57.8055 6.184L58.1716 5.25343L57.8055 6.184ZM59.3095 7.192L60.0729 6.54606V6.54606L59.3095 7.192ZM59.3255 9.928L59.9561 10.7041L59.9633 10.6983L59.9704 10.6923L59.3255 9.928ZM57.4375 10.28L57.1949 11.2502L57.2085 11.2534L57.4375 10.28ZM56.8935 10.104L57.2559 9.172L57.24 9.16579L57.2239 9.16014L56.8935 10.104ZM56.3175 9.944L56.0598 10.9102L56.0962 10.9199L56.1332 10.9269L56.3175 9.944ZM54.0455 10.52L54.7618 11.2179L54.7705 11.2087L54.0455 10.52ZM54.0295 13.8L53.3639 14.5463L54.0295 13.8ZM56.9255 13.912L57.5657 14.6802V14.6802L56.9255 13.912ZM57.1175 13.656H58.1175V12.656H57.1175V13.656ZM55.1975 11.4L55.8189 12.1835L55.827 12.177L55.8351 12.1704L55.1975 11.4ZM58.5415 11.288L58.1504 12.2083L58.1602 12.2125L58.1701 12.2165L58.5415 11.288ZM59.4535 12.104L58.5539 12.5409L58.5591 12.5512L59.4535 12.104ZM59.1655 15.272L58.3517 14.6907L58.3439 14.7019L59.1655 15.272ZM57.6615 16.52L57.2263 15.6196L57.2204 15.6226L57.6615 16.52ZM55.6135 15.984C54.5119 15.984 53.6313 15.7906 52.9363 15.4474L52.0507 17.2406C53.0837 17.7507 54.2831 17.984 55.6135 17.984V15.984ZM52.9363 15.4474C52.2383 15.1027 51.7284 14.6272 51.3741 14.0176L49.6449 15.0224C50.208 15.9914 51.0207 16.732 52.0507 17.2406L52.9363 15.4474ZM51.382 14.0314C51.032 13.4063 50.8375 12.6369 50.8375 11.688H48.8375C48.8375 12.9151 49.091 14.0337 49.637 15.0086L51.382 14.0314ZM50.8375 11.688C50.8375 10.5252 51.08 9.6241 51.5055 8.93152L49.8015 7.88448C49.139 8.96256 48.8375 10.2482 48.8375 11.688H50.8375ZM51.5009 8.93892C51.9639 8.19989 52.5417 7.67741 53.2359 7.33877L52.3591 5.54123C51.304 6.05593 50.4524 6.84544 49.8061 7.87708L51.5009 8.93892ZM53.2359 7.33877C53.976 6.97776 54.7436 6.8 55.5495 6.8V4.8C54.4354 4.8 53.3684 5.0489 52.3591 5.54123L53.2359 7.33877ZM55.5495 6.8C56.3043 6.8 56.9279 6.91333 57.4394 7.11456L58.1716 5.25343C57.3818 4.94266 56.5013 4.8 55.5495 4.8V6.8ZM57.4394 7.11456C57.9786 7.3267 58.327 7.57896 58.5461 7.83794L60.0729 6.54606C59.588 5.97304 58.9338 5.5533 58.1716 5.25343L57.4394 7.11456ZM58.5461 7.83794C58.7754 8.10897 58.8375 8.32463 58.8375 8.504H60.8375C60.8375 7.76604 60.5476 7.10703 60.0729 6.54606L58.5461 7.83794ZM58.8375 8.504C58.8375 9.01532 58.7057 9.14253 58.6806 9.16371L59.9704 10.6923C60.6279 10.1375 60.8375 9.31535 60.8375 8.504H58.8375ZM58.6949 9.15189C58.5565 9.26436 58.3671 9.344 58.0615 9.344V11.344C58.7586 11.344 59.4119 11.1463 59.9561 10.7041L58.6949 9.15189ZM58.0615 9.344C57.885 9.344 57.7564 9.32772 57.6665 9.30658L57.2085 11.2534C57.4813 11.3176 57.7687 11.344 58.0615 11.344V9.344ZM57.68 9.30986C57.5563 9.27892 57.4152 9.23394 57.2559 9.172L56.5311 11.036C56.7558 11.1234 56.9774 11.1957 57.195 11.2501L57.68 9.30986ZM57.2239 9.16014C56.9762 9.07348 56.7343 9.00472 56.5018 8.96113L56.1332 10.9269C56.2421 10.9473 56.3841 10.9852 56.5632 11.0479L57.2239 9.16014ZM56.5752 8.97777C56.3013 8.90473 56.0043 8.88 55.7095 8.88V10.88C55.9053 10.88 56.0137 10.8979 56.0598 10.9102L56.5752 8.97777ZM55.7095 8.88C54.7895 8.88 53.9512 9.16733 53.3205 9.83125L54.7705 11.2087C54.9504 11.0193 55.2215 10.88 55.7095 10.88V8.88ZM53.3293 9.82213C52.6893 10.4789 52.4375 11.354 52.4375 12.296H54.4375C54.4375 11.702 54.591 11.3931 54.7617 11.2179L53.3293 9.82213ZM52.4375 12.296C52.4375 13.1607 52.7087 13.9619 53.3639 14.5463L54.6951 13.0537C54.561 12.9341 54.4375 12.7326 54.4375 12.296H52.4375ZM53.3639 14.5463C53.9623 15.08 54.6983 15.328 55.5015 15.328V13.328C55.1314 13.328 54.8861 13.224 54.6951 13.0537L53.3639 14.5463ZM55.5015 15.328C55.9149 15.328 56.3187 15.275 56.694 15.1445L56.037 13.2555C55.9216 13.2956 55.7494 13.328 55.5015 13.328V15.328ZM56.694 15.1445C56.9966 15.0392 57.3084 14.8946 57.5657 14.6802L56.2853 13.1438C56.29 13.1399 56.2763 13.152 56.2322 13.1747C56.1888 13.197 56.1254 13.2248 56.037 13.2555L56.694 15.1445ZM57.5657 14.6802C57.66 14.6016 57.7726 14.4972 57.8695 14.368C57.9526 14.2573 58.1175 14.0065 58.1175 13.656H56.1175C56.1175 13.5054 56.1548 13.3876 56.1864 13.3141C56.2177 13.2409 56.2517 13.1918 56.2695 13.168C56.3024 13.1241 56.319 13.1157 56.2853 13.1438L57.5657 14.6802ZM57.1175 12.656C56.3892 12.656 55.9641 12.567 55.7499 12.4712L54.9331 14.2968C55.5296 14.5637 56.2885 14.656 57.1175 14.656V12.656ZM55.7499 12.4712C55.7185 12.4571 55.7072 12.4478 55.7076 12.4481C55.7078 12.4483 55.7103 12.4504 55.7141 12.4546C55.7179 12.4588 55.7222 12.4642 55.7262 12.4705C55.7303 12.4768 55.7333 12.4827 55.7354 12.4875C55.7375 12.4922 55.7381 12.4947 55.738 12.4942C55.7377 12.4931 55.7335 12.4768 55.7335 12.44H53.7335C53.7335 12.8178 53.8205 13.2053 54.0448 13.5535C54.2694 13.9023 54.5869 14.1419 54.9331 14.2968L55.7499 12.4712ZM55.7335 12.44C55.7335 12.2507 55.783 12.212 55.8189 12.1835L54.5761 10.6165C53.9933 11.0787 53.7335 11.7333 53.7335 12.44H55.7335ZM55.8351 12.1704C55.867 12.144 56.0912 12.016 56.7655 12.016V10.016C55.9678 10.016 55.1467 10.144 54.5599 10.6296L55.8351 12.1704ZM56.7655 12.016C57.463 12.016 57.9013 12.1025 58.1504 12.2083L58.9326 10.3677C58.3284 10.1108 57.5826 10.016 56.7655 10.016V12.016ZM58.1701 12.2165C58.3925 12.3054 58.4934 12.4161 58.554 12.5409L60.353 11.6671C60.051 11.0452 59.5439 10.6119 58.9129 10.3595L58.1701 12.2165ZM58.5591 12.5512C58.645 12.723 58.7255 13.0362 58.7255 13.56H60.7255C60.7255 12.8678 60.6247 12.2103 60.3479 11.6568L58.5591 12.5512ZM58.7255 13.56C58.7255 13.9619 58.6089 14.3308 58.3518 14.6908L59.9792 15.8532C60.4688 15.1679 60.7255 14.3954 60.7255 13.56H58.7255ZM58.3439 14.7019C58.0906 15.067 57.7298 15.3763 57.2263 15.6197L58.0967 17.4203C58.8732 17.045 59.5151 16.5223 59.9871 15.8421L58.3439 14.7019ZM57.2204 15.6226C56.7351 15.8611 56.2043 15.984 55.6135 15.984V17.984C56.4947 17.984 57.3292 17.7976 58.1026 17.4174L57.2204 15.6226ZM70.7539 9.72L71.227 10.601L71.2327 10.5979L70.7539 9.72ZM67.9219 10.28L67.8732 9.28119L66.8394 9.33162L66.9253 10.363L67.9219 10.28ZM67.7939 14.984L66.8109 14.7997L66.8088 14.812L67.7939 14.984ZM67.1699 16.488L67.9009 17.1703L67.9065 17.1643L67.912 17.1583L67.1699 16.488ZM64.7219 16.456L65.498 15.8254L64.7219 16.456ZM64.1459 14.936L63.1582 15.0928L64.1459 14.936ZM64.0339 10.28L65.0323 10.3355L65.0882 9.32965L64.082 9.28116L64.0339 10.28ZM61.8899 10.008L61.6202 10.971L61.6315 10.9741L61.6429 10.977L61.8899 10.008ZM60.7059 9.352L59.9585 10.0164L60.7059 9.352ZM60.9299 6.776L60.2857 6.01109V6.01109L60.9299 6.776ZM62.7539 6.056L62.5853 5.07032L62.7539 6.056ZM71.0099 6.776L71.6442 6.00293L71.0099 6.776ZM70.6339 8.184C70.6339 8.39534 70.5908 8.52103 70.5462 8.59889C70.5032 8.67399 70.4281 8.75862 70.275 8.8421L71.2327 10.5979C71.6663 10.3614 72.0313 10.03 72.2816 9.59311C72.5303 9.15897 72.6339 8.67666 72.6339 8.184H70.6339ZM70.2808 8.839C69.9114 9.03736 69.157 9.21856 67.8732 9.28119L67.9706 11.2788C69.3107 11.2134 70.4444 11.0213 71.227 10.601L70.2808 8.839ZM66.9253 10.363C66.9648 10.8364 66.9859 11.4672 66.9859 12.264H68.9859C68.9859 11.4395 68.9643 10.7476 68.9184 10.197L66.9253 10.363ZM66.9859 12.264C66.9859 13.3661 66.9228 14.2035 66.811 14.7997L68.7767 15.1683C68.921 14.3991 68.9859 13.4232 68.9859 12.264H66.9859ZM66.8088 14.812C66.7079 15.3896 66.5498 15.6826 66.4278 15.8177L67.912 17.1583C68.3873 16.6321 68.6451 15.9224 68.779 15.156L66.8088 14.812ZM66.4388 15.8057C66.3696 15.8799 66.2432 15.968 65.9219 15.968V17.968C66.6672 17.968 67.3728 17.7361 67.9009 17.1703L66.4388 15.8057ZM65.9219 15.968C65.6373 15.968 65.5489 15.8881 65.498 15.8254L63.9458 17.0866C64.4495 17.7065 65.1611 17.968 65.9219 17.968V15.968ZM65.498 15.8254C65.3764 15.6758 65.2264 15.3644 65.1335 14.7792L63.1582 15.0928C63.2787 15.8516 63.5127 16.5536 63.9458 17.0866L65.498 15.8254ZM65.1335 14.7792C65.0386 14.1811 64.9859 13.3491 64.9859 12.264H62.9859C62.9859 13.3975 63.0399 14.3469 63.1582 15.0928L65.1335 14.7792ZM64.9859 12.264C64.9859 11.5308 65.0016 10.8886 65.0323 10.3355L63.0354 10.2245C63.0021 10.8234 62.9859 11.5039 62.9859 12.264H64.9859ZM64.082 9.28116C63.23 9.2401 62.5896 9.15439 62.1369 9.03899L61.6429 10.977C62.2781 11.1389 63.067 11.2346 63.9857 11.2788L64.082 9.28116ZM62.1595 9.04504C61.7341 8.92591 61.5377 8.78263 61.4533 8.68764L59.9585 10.0164C60.386 10.4974 60.979 10.7914 61.6202 10.971L62.1595 9.04504ZM61.4533 8.68764C61.4007 8.62845 61.3219 8.49881 61.3219 8.184H59.3219C59.3219 8.85052 59.4991 9.49955 59.9585 10.0164L61.4533 8.68764ZM61.3219 8.184C61.3219 7.83951 61.4247 7.66668 61.574 7.54091L60.2857 6.01109C59.6244 6.56799 59.3219 7.33382 59.3219 8.184H61.3219ZM61.574 7.54091C61.788 7.36071 62.1986 7.1655 62.9225 7.04168L62.5853 5.07032C61.6878 5.22383 60.8824 5.50862 60.2857 6.01109L61.574 7.54091ZM62.9225 7.04168C63.6547 6.91643 64.6533 6.848 65.9379 6.848V4.848C64.5984 4.848 63.4744 4.91823 62.5853 5.07032L62.9225 7.04168ZM65.9379 6.848C67.2331 6.848 68.2433 6.91642 68.9874 7.04205L69.3204 5.06995C68.4217 4.91824 67.288 4.848 65.9379 4.848V6.848ZM68.9874 7.04205C69.7229 7.16622 70.1486 7.36289 70.3756 7.54907L71.6442 6.00293C71.0391 5.50645 70.2275 5.22311 69.3204 5.06995L68.9874 7.04205ZM70.3756 7.54907C70.5327 7.67799 70.6339 7.84878 70.6339 8.184H72.6339C72.6339 7.32455 72.3191 6.55668 71.6442 6.00293L70.3756 7.54907ZM49.832 22.72L50.3051 23.601L50.3109 23.5979L49.832 22.72ZM47 23.28L46.9513 22.2812L45.9175 22.3316L46.0035 23.363L47 23.28ZM46.872 27.984L45.8891 27.7997L45.8869 27.812L46.872 27.984ZM46.248 29.488L46.9791 30.1703L46.9846 30.1643L46.9901 30.1583L46.248 29.488ZM43.8 29.456L44.5761 28.8254L43.8 29.456ZM43.224 27.936L42.2364 28.0928H42.2364L43.224 27.936ZM43.112 23.28L44.1105 23.3355L44.1663 22.3297L43.1601 22.2812L43.112 23.28ZM40.968 23.008L40.6984 23.971L40.7096 23.9741L40.721 23.977L40.968 23.008ZM39.784 22.352L39.0366 23.0164H39.0366L39.784 22.352ZM40.008 19.776L39.3639 19.0111H39.3639L40.008 19.776ZM41.832 19.056L41.6634 18.0703L41.832 19.056ZM50.088 19.776L50.7223 19.0029L50.088 19.776ZM49.712 21.184C49.712 21.3953 49.6689 21.521 49.6243 21.5989C49.5813 21.674 49.5062 21.7586 49.3531 21.8421L50.3109 23.5979C50.7445 23.3614 51.1094 23.03 51.3597 22.5931C51.6084 22.159 51.712 21.6767 51.712 21.184H49.712ZM49.3589 21.839C48.9895 22.0374 48.2351 22.2186 46.9513 22.2812L47.0487 24.2788C48.3889 24.2134 49.5225 24.0213 50.3051 23.601L49.3589 21.839ZM46.0035 23.363C46.0429 23.8364 46.064 24.4672 46.064 25.264H48.064C48.064 24.4395 48.0424 23.7476 47.9965 23.197L46.0035 23.363ZM46.064 25.264C46.064 26.3661 46.0009 27.2035 45.8891 27.7997L47.8549 28.1683C47.9991 27.3991 48.064 26.4232 48.064 25.264H46.064ZM45.8869 27.812C45.7861 28.3896 45.6279 28.6826 45.5059 28.8177L46.9901 30.1583C47.4654 29.6321 47.7233 28.9224 47.8571 28.156L45.8869 27.812ZM45.5169 28.8057C45.4477 28.8799 45.3214 28.968 45 28.968V30.968C45.7453 30.968 46.4509 30.7361 46.9791 30.1703L45.5169 28.8057ZM45 28.968C44.7154 28.968 44.6271 28.8881 44.5761 28.8254L43.0239 30.0866C43.5276 30.7065 44.2393 30.968 45 30.968V28.968ZM44.5761 28.8254C44.4545 28.6758 44.3045 28.3644 44.2116 27.7792L42.2364 28.0928C42.3568 28.8516 42.5908 29.5536 43.0239 30.0866L44.5761 28.8254ZM44.2116 27.7792C44.1167 27.1811 44.064 26.3491 44.064 25.264H42.064C42.064 26.3975 42.118 27.3469 42.2364 28.0928L44.2116 27.7792ZM44.064 25.264C44.064 24.5308 44.0797 23.8886 44.1105 23.3355L42.1135 23.2245C42.0803 23.8234 42.064 24.5039 42.064 25.264H44.064ZM43.1601 22.2812C42.3082 22.2401 41.6677 22.1544 41.215 22.039L40.721 23.977C41.3563 24.1389 42.1452 24.2346 43.0639 24.2788L43.1601 22.2812ZM41.2376 22.045C40.8122 21.9259 40.6158 21.7826 40.5314 21.6876L39.0366 23.0164C39.4642 23.4974 40.0572 23.7914 40.6984 23.971L41.2376 22.045ZM40.5314 21.6876C40.4788 21.6285 40.4 21.4988 40.4 21.184H38.4C38.4 21.8505 38.5772 22.4995 39.0366 23.0164L40.5314 21.6876ZM40.4 21.184C40.4 20.8395 40.5028 20.6667 40.6521 20.5409L39.3639 19.0111C38.7025 19.568 38.4 20.3338 38.4 21.184H40.4ZM40.6521 20.5409C40.8661 20.3607 41.2767 20.1655 42.0006 20.0417L41.6634 18.0703C40.7659 18.2238 39.9605 18.5086 39.3639 19.0111L40.6521 20.5409ZM42.0006 20.0417C42.7328 19.9164 43.7315 19.848 45.016 19.848V17.848C43.6765 17.848 42.5525 17.9182 41.6634 18.0703L42.0006 20.0417ZM45.016 19.848C46.3113 19.848 47.3215 19.9164 48.0655 20.042L48.3985 18.07C47.4999 17.9182 46.3661 17.848 45.016 17.848V19.848ZM48.0655 20.042C48.801 20.1662 49.2268 20.3629 49.4537 20.5491L50.7223 19.0029C50.1172 18.5064 49.3056 18.2231 48.3985 18.07L48.0655 20.042ZM49.4537 20.5491C49.6108 20.678 49.712 20.8488 49.712 21.184H51.712C51.712 20.3245 51.3972 19.5567 50.7223 19.0029L49.4537 20.5491ZM53.1031 30.016L53.0894 29.0161L53.0892 29.0161L53.1031 30.016ZM51.0391 29.536L50.5548 30.4109L50.5614 30.4145L51.0391 29.536ZM49.6311 28.176L48.76 28.667L48.7653 28.6765L48.7708 28.6858L49.6311 28.176ZM49.1031 26.224L48.1032 26.2389L48.1033 26.2464L48.1036 26.2538L49.1031 26.224ZM49.5991 24.304L48.7431 23.7871H48.7431L49.5991 24.304ZM51.0231 22.96L50.5517 22.078L50.5454 22.0815L51.0231 22.96ZM55.1191 22.944L54.6469 23.8255L54.6534 23.8289L55.1191 22.944ZM56.5591 24.288L55.7058 24.8095L56.5591 24.288ZM57.1191 26.224L58.119 26.2086L58.1189 26.2014L58.1187 26.1942L57.1191 26.224ZM56.6231 28.128L57.4792 28.6449L57.4834 28.6378L56.6231 28.128ZM55.1831 29.488L54.7 28.6124L54.6936 28.616L55.1831 29.488ZM53.9031 25.792L53.179 26.4817L53.1874 26.4905L53.196 26.4991L53.9031 25.792ZM52.3991 25.792L53.1062 26.4991L53.1149 26.4905L53.1233 26.4817L52.3991 25.792ZM52.3991 27.344L51.675 28.0337H51.675L52.3991 27.344ZM53.0892 29.0161C52.4736 29.0246 51.9581 28.8975 51.5169 28.6575L50.5614 30.4145C51.3362 30.8359 52.1967 31.0287 53.117 31.0159L53.0892 29.0161ZM51.5234 28.6611C51.0784 28.4148 50.7402 28.0861 50.4914 27.6662L48.7708 28.6858C49.2047 29.4179 49.8051 29.9959 50.5548 30.4109L51.5234 28.6611ZM50.5023 27.685C50.256 27.2481 50.1195 26.7573 50.1027 26.1942L48.1036 26.2538C48.1294 27.1201 48.3449 27.9306 48.76 28.667L50.5023 27.685ZM50.103 26.2091C50.0949 25.6656 50.2186 25.2127 50.4552 24.8209L48.7431 23.7871C48.297 24.5259 48.09 25.353 48.1032 26.2389L50.103 26.2091ZM50.4552 24.8209C50.7003 24.4149 51.0411 24.0886 51.5009 23.8385L50.5454 22.0815C49.7892 22.4928 49.1806 23.0624 48.7431 23.7871L50.4552 24.8209ZM51.4945 23.8419C51.9547 23.596 52.4836 23.464 53.1031 23.464V21.464C52.1866 21.464 51.3289 21.6627 50.5517 22.0781L51.4945 23.8419ZM53.1031 23.464C53.7021 23.464 54.2092 23.591 54.6469 23.8255L55.5913 22.0625C54.8344 21.657 53.9974 21.464 53.1031 21.464V23.464ZM54.6534 23.8289C55.1048 24.0665 55.4496 24.3902 55.7058 24.8095L57.4124 23.7666C56.9646 23.0338 56.3495 22.4615 55.5849 22.0591L54.6534 23.8289ZM55.7058 24.8095C55.9618 25.2282 56.1031 25.7023 56.1196 26.2538L58.1187 26.1942C58.0925 25.3164 57.8605 24.4998 57.4124 23.7666L55.7058 24.8095ZM56.1192 26.2394C56.1272 26.755 56.0066 27.2069 55.7628 27.6182L57.4834 28.6378C57.9223 27.8971 58.1324 27.0796 58.119 26.2086L56.1192 26.2394ZM55.7671 27.6111C55.5228 28.0157 55.1762 28.3497 54.7 28.6124L55.6662 30.3636C56.4274 29.9436 57.0408 29.3709 57.4792 28.6449L55.7671 27.6111ZM54.6936 28.616C54.2474 28.8665 53.7211 29.0074 53.0894 29.0161L53.1168 31.0159C54.0425 31.0032 54.9028 30.7922 55.6727 30.36L54.6936 28.616ZM53.1511 28.68C53.7346 28.68 54.2408 28.4395 54.6273 28.0337L53.179 26.6543C53.1644 26.6696 53.1544 26.6776 53.1496 26.6811C53.145 26.6844 53.1443 26.6843 53.1472 26.683C53.1502 26.6816 53.1537 26.6805 53.1566 26.6799C53.1592 26.6794 53.1579 26.68 53.1511 26.68V28.68ZM54.6273 28.0337C55.0107 27.6311 55.2231 27.1254 55.2231 26.56H53.2231C53.2231 26.5874 53.2188 26.5983 53.2173 26.6021C53.2155 26.6066 53.2078 26.6241 53.179 26.6543L54.6273 28.0337ZM55.2231 26.56C55.2231 25.9931 55.009 25.4836 54.6102 25.0849L53.196 26.4991C53.208 26.5111 53.2141 26.5193 53.2169 26.5233C53.2183 26.5254 53.2191 26.5268 53.2195 26.5275C53.2199 26.5282 53.22 26.5285 53.22 26.5286C53.2201 26.5287 53.2202 26.5289 53.2203 26.5293C53.2204 26.5298 53.2207 26.5309 53.2211 26.5328C53.2218 26.5365 53.2231 26.5451 53.2231 26.56H55.2231ZM54.6273 25.1023C54.2408 24.6965 53.7346 24.456 53.1511 24.456V26.456C53.1579 26.456 53.1592 26.4566 53.1566 26.4561C53.1537 26.4555 53.1502 26.4544 53.1472 26.453C53.1443 26.4517 53.145 26.4516 53.1496 26.4549C53.1544 26.4584 53.1644 26.4664 53.179 26.4817L54.6273 25.1023ZM53.1511 24.456C52.5676 24.456 52.0615 24.6965 51.675 25.1023L53.1233 26.4817C53.1378 26.4664 53.1478 26.4584 53.1526 26.4549C53.1572 26.4516 53.158 26.4517 53.1551 26.453C53.152 26.4544 53.1485 26.4555 53.1457 26.4561C53.143 26.4566 53.1443 26.456 53.1511 26.456V24.456ZM51.692 25.0849C51.2933 25.4836 51.0791 25.9931 51.0791 26.56H53.0791C53.0791 26.5451 53.0804 26.5365 53.0811 26.5328C53.0815 26.5309 53.0818 26.5298 53.082 26.5293C53.0821 26.5289 53.0822 26.5287 53.0822 26.5286C53.0822 26.5285 53.0824 26.5282 53.0827 26.5275C53.0831 26.5268 53.0839 26.5254 53.0854 26.5233C53.0881 26.5193 53.0943 26.5111 53.1062 26.4991L51.692 25.0849ZM51.0791 26.56C51.0791 27.1254 51.2916 27.6311 51.675 28.0337L53.1233 26.6543C53.0944 26.6241 53.0868 26.6066 53.085 26.6021C53.0834 26.5983 53.0791 26.5874 53.0791 26.56H51.0791ZM51.675 28.0337C52.0615 28.4395 52.5676 28.68 53.1511 28.68V26.68C53.1443 26.68 53.143 26.6794 53.1457 26.6799C53.1485 26.6805 53.152 26.6816 53.1551 26.683C53.158 26.6843 53.1572 26.6844 53.1526 26.6811C53.1478 26.6776 53.1378 26.6696 53.1233 26.6543L51.675 28.0337ZM59.0431 29.536L58.4583 30.3472L58.469 30.3548L58.4798 30.3622L59.0431 29.536ZM57.9711 28.144L57.0461 28.5239L57.049 28.5309L57.052 28.5379L57.9711 28.144ZM57.7951 24.4L56.8207 24.1751L57.7951 24.4ZM58.4031 23.024L57.6113 22.4132L57.6088 22.4165L58.4031 23.024ZM60.3871 22.848L61.1553 22.2078L60.3871 22.848ZM60.5311 24.912L59.5638 24.6586L59.5522 24.7027L59.5447 24.7476L60.5311 24.912ZM60.4351 25.392L61.4123 25.6044L61.4141 25.596L60.4351 25.392ZM60.4671 26.848L59.5609 27.2709L59.5667 27.2831L59.5727 27.2952L60.4671 26.848ZM61.4271 26.672L62.3796 26.9768L62.3829 26.9661L61.4271 26.672ZM61.5551 25.472H62.5552L62.555 25.4587L61.5551 25.472ZM61.5391 24.272H60.539L60.5392 24.2853L61.5391 24.272ZM61.8271 23.328L61.0431 22.7073L61.035 22.7175L61.0271 22.728L61.8271 23.328ZM63.6671 23.344L62.8863 23.9687L62.8925 23.9765L62.8989 23.9842L63.6671 23.344ZM63.9871 24.272L64.9869 24.2933L64.9871 24.2826V24.272H63.9871ZM63.9711 25.024L64.9689 25.0905L64.9704 25.0679L64.9709 25.0453L63.9711 25.024ZM64.0831 26.736L63.1433 27.0777L63.1529 27.1041L63.164 27.1299L64.0831 26.736ZM65.1071 24.928L64.1265 25.1241L64.1376 25.1792L64.1547 25.2328L65.1071 24.928ZM65.1391 22.832L64.3652 22.1988L64.3619 22.2028L65.1391 22.832ZM67.0751 23.04L66.2724 23.6363L66.282 23.6493L66.292 23.6619L67.0751 23.04ZM67.6991 24.416L66.7247 24.6409L66.7257 24.645L67.6991 24.416ZM67.0591 28.912L67.8446 29.5309L67.8491 29.5251L67.0591 28.912ZM63.6351 29.728L63.2315 30.6429L63.6351 29.728ZM62.7391 29.072L63.5025 28.4261L62.7417 27.5269L61.9779 28.4235L62.7391 29.072ZM61.8271 29.76L61.4013 28.8551L61.3909 28.8602L61.8271 29.76ZM60.6751 29.016C60.2387 29.016 59.8949 28.9064 59.6065 28.7098L58.4798 30.3622C59.13 30.8056 59.8742 31.016 60.6751 31.016V29.016ZM59.6279 28.7248C59.3374 28.5154 59.0856 28.2059 58.8903 27.7501L57.052 28.5379C57.3686 29.2767 57.8315 29.8953 58.4583 30.3472L59.6279 28.7248ZM58.8961 27.7641C58.7094 27.3094 58.6031 26.7545 58.6031 26.08H56.6031C56.6031 26.9628 56.7422 27.784 57.0461 28.5239L58.8961 27.7641ZM58.6031 26.08C58.6031 25.5909 58.6584 25.1063 58.7695 24.6249L56.8207 24.1751C56.6758 24.803 56.6031 25.4385 56.6031 26.08H58.6031ZM58.7695 24.6249C58.8731 24.1758 59.0253 23.8565 59.1975 23.6315L57.6088 22.4165C57.2262 22.9168 56.9731 23.5149 56.8207 24.1751L58.7695 24.6249ZM59.1949 23.6348C59.3164 23.4773 59.394 23.464 59.4751 23.464V21.464C58.7029 21.464 58.0659 21.824 57.6113 22.4132L59.1949 23.6348ZM59.4751 23.464C59.5648 23.464 59.6035 23.4785 59.6111 23.4816C59.615 23.4833 59.6153 23.4838 59.6141 23.483C59.613 23.4821 59.6146 23.483 59.6189 23.4882L61.1553 22.2078C60.7164 21.681 60.106 21.464 59.4751 21.464V23.464ZM59.6189 23.4882C59.6411 23.5148 59.7071 23.6107 59.7071 23.888H61.7071C61.7071 23.2907 61.5598 22.6932 61.1553 22.2078L59.6189 23.4882ZM59.7071 23.888C59.7071 23.9898 59.6761 24.2296 59.5638 24.6586L61.4985 25.1654C61.6208 24.6984 61.7071 24.2555 61.7071 23.888H59.7071ZM59.5447 24.7476C59.5381 24.7872 59.511 24.9246 59.4561 25.188L61.4141 25.596C61.4659 25.3474 61.5028 25.1648 61.5175 25.0764L59.5447 24.7476ZM59.4579 25.1796C59.3938 25.4747 59.3551 25.7667 59.3551 26.048H61.3551C61.3551 25.9453 61.3698 25.8 61.4123 25.6044L59.4579 25.1796ZM59.3551 26.048C59.3551 26.4401 59.3869 26.898 59.5609 27.2709L61.3733 26.4251C61.3939 26.4693 61.3848 26.4702 61.3735 26.3894C61.3632 26.3157 61.3551 26.2046 61.3551 26.048H59.3551ZM59.5727 27.2952C59.8833 27.9164 60.4938 28.072 60.9311 28.072V26.072C60.9122 26.072 60.9754 26.0679 61.0739 26.1154C61.1895 26.1713 61.297 26.2716 61.3616 26.4008L59.5727 27.2952ZM60.9311 28.072C61.245 28.072 61.5795 27.9822 61.8669 27.7504C62.1432 27.5275 62.2959 27.2381 62.3795 26.9768L60.4747 26.3672C60.473 26.3726 60.5004 26.2831 60.6114 26.1936C60.7334 26.0951 60.8626 26.072 60.9311 26.072V28.072ZM62.3829 26.9661C62.5122 26.546 62.5551 26.0281 62.5551 25.472H60.5551C60.5551 25.9612 60.5128 26.2433 60.4713 26.3779L62.3829 26.9661ZM62.555 25.4587L62.539 24.2587L60.5392 24.2853L60.5552 25.4853L62.555 25.4587ZM62.5391 24.272C62.5391 24.0776 62.5857 23.9832 62.6271 23.928L61.0271 22.728C60.6845 23.1848 60.5391 23.7197 60.5391 24.272H62.5391ZM62.6112 23.9487C62.6113 23.9486 62.6105 23.9496 62.6087 23.9513C62.6069 23.9531 62.6047 23.955 62.6021 23.957C62.5965 23.9612 62.5932 23.9625 62.5952 23.9616C62.5997 23.9597 62.6401 23.944 62.7391 23.944V21.944C62.1094 21.944 61.4807 22.1545 61.0431 22.7073L62.6112 23.9487ZM62.7391 23.944C62.8328 23.944 62.8723 23.9593 62.8793 23.9623C62.8829 23.9639 62.8828 23.9642 62.8814 23.9631C62.88 23.962 62.8816 23.9629 62.8863 23.9687L64.448 22.7193C64.0086 22.17 63.3849 21.944 62.7391 21.944V23.944ZM62.8989 23.9842C62.9489 24.0441 62.9871 24.1211 62.9871 24.272H64.9871C64.9871 23.6976 64.812 23.1559 64.4353 22.7038L62.8989 23.9842ZM62.9874 24.2507L62.9714 25.0027L64.9709 25.0453L64.9869 24.2933L62.9874 24.2507ZM62.9733 24.9575C62.9604 25.151 62.9551 25.4065 62.9551 25.712H64.9551C64.9551 25.4201 64.9605 25.217 64.9689 25.0905L62.9733 24.9575ZM62.9551 25.712C62.9551 26.1992 62.9983 26.6789 63.1433 27.0777L65.0229 26.3943C64.9973 26.3237 64.9551 26.1208 64.9551 25.712H62.9551ZM63.164 27.1299C63.2776 27.395 63.4654 27.6504 63.7502 27.8317C64.0317 28.0108 64.3363 28.072 64.6111 28.072V26.072C64.63 26.072 64.7185 26.0772 64.824 26.1443C64.9329 26.2136 64.9847 26.301 65.0023 26.3421L63.164 27.1299ZM64.6111 28.072C65.1138 28.072 65.6313 27.8843 65.9811 27.4079C66.2886 26.9892 66.3631 26.4823 66.3631 26.048H64.3631C64.3631 26.1607 64.3525 26.227 64.3448 26.2582C64.3373 26.2887 64.3374 26.2673 64.3691 26.2241C64.4052 26.175 64.4607 26.1274 64.5268 26.0974C64.5874 26.0699 64.6238 26.072 64.6111 26.072V28.072ZM66.3631 26.048C66.3631 25.6581 66.2266 25.1453 66.0595 24.6232L64.1547 25.2328C64.235 25.4836 64.2901 25.6812 64.3243 25.8308C64.3612 25.9923 64.3631 26.0532 64.3631 26.048H66.3631ZM66.0877 24.7319C66.065 24.6183 66.0036 24.4115 65.9358 24.1888L64.0225 24.7712C64.059 24.8914 64.0865 24.9839 64.1056 25.0507C64.1152 25.0842 64.1218 25.1083 64.1261 25.1245C64.1314 25.1447 64.1299 25.1408 64.1265 25.1241L66.0877 24.7319ZM65.9358 24.1888C65.877 23.9955 65.8671 23.8918 65.8671 23.856H63.8671C63.8671 24.1616 63.932 24.4738 64.0225 24.7712L65.9358 24.1888ZM65.8671 23.856C65.8671 23.689 65.884 23.579 65.9016 23.5127C65.9187 23.4482 65.9319 23.442 65.9164 23.4612L64.3619 22.2028C63.9729 22.6833 63.8671 23.2952 63.8671 23.856H65.8671ZM65.9131 23.4652C65.9073 23.4723 65.899 23.4804 65.8892 23.4875C65.8797 23.4944 65.8736 23.4968 65.8745 23.4965C65.8777 23.4952 65.9184 23.48 66.0191 23.48V21.48C65.422 21.48 64.8012 21.6658 64.3652 22.1988L65.9131 23.4652ZM66.0191 23.48C66.0978 23.48 66.164 23.4905 66.2724 23.6363L67.8779 22.4437C67.4316 21.8429 66.7938 21.48 66.0191 21.48V23.48ZM66.292 23.6619C66.4688 23.8845 66.6227 24.1986 66.7247 24.6409L68.6735 24.1911C68.5196 23.5241 68.2575 22.9208 67.8582 22.4181L66.292 23.6619ZM66.7257 24.645C66.8362 25.1145 66.8911 25.587 66.8911 26.064H68.8911C68.8911 25.4316 68.8181 24.8055 68.6725 24.187L66.7257 24.645ZM66.8911 26.064C66.8911 27.0948 66.6508 27.8071 66.2691 28.2989L67.8491 29.5251C68.5768 28.5875 68.8911 27.4012 68.8911 26.064H66.8911ZM66.2736 28.2931C65.9188 28.7436 65.4682 28.968 64.8191 28.968V30.968C66.0474 30.968 67.0902 30.4884 67.8446 29.5309L66.2736 28.2931ZM64.8191 28.968C64.5207 28.968 64.2648 28.9128 64.0388 28.8131L63.2315 30.6429C63.7308 30.8632 64.2642 30.968 64.8191 30.968V28.968ZM64.0388 28.8131C63.802 28.7086 63.6305 28.5774 63.5025 28.4261L61.9757 29.7179C62.3171 30.1213 62.7429 30.4274 63.2315 30.6429L64.0388 28.8131ZM61.9779 28.4235C61.8303 28.5968 61.643 28.7414 61.4013 28.8552L62.2529 30.6648C62.7366 30.4372 63.1573 30.1232 63.5004 29.7205L61.9779 28.4235ZM61.3909 28.8602C61.1834 28.9608 60.9498 29.016 60.6751 29.016V31.016C61.2324 31.016 61.7669 30.9006 62.2634 30.6598L61.3909 28.8602ZM73.9966 29.68L73.2347 30.3276L73.2439 30.3384L73.2533 30.349L73.9966 29.68ZM73.6606 28.896L74.6512 28.7594L73.6606 28.896ZM71.7086 26.24L70.8254 25.7708L70.82 25.7814L71.7086 26.24ZM71.4046 28.896L70.4107 28.7856L71.4046 28.896ZM71.0846 29.664L71.8466 30.3116L71.8543 30.3025L71.8619 30.2932L71.0846 29.664ZM68.9086 28.816L67.9537 29.1128L67.9548 29.1165L68.9086 28.816ZM70.8926 22.432L70.2787 23.2214L70.2927 23.2323L70.3071 23.2427L70.8926 22.432ZM71.2926 23.04L70.3297 23.3096L70.8109 25.0284L72.0254 23.7205L71.2926 23.04ZM71.9326 22.64L71.5669 21.7092L71.5553 21.7139L71.9326 22.64ZM75.5006 23.744L74.6717 24.3035L74.6766 24.3105L75.5006 23.744ZM76.0446 29.264L76.9543 29.6793L76.9576 29.6719L76.0446 29.264ZM74.8606 29C74.7587 29 74.7129 28.9856 74.7039 28.9823C74.7002 28.9809 74.7045 28.9821 74.7133 28.9879C74.7224 28.994 74.7318 29.002 74.7399 29.011L73.2533 30.349C73.6932 30.8377 74.2937 31 74.8606 31V29ZM74.7586 29.0324C74.7145 28.9805 74.671 28.9025 74.6512 28.7594L72.67 29.0326C72.7356 29.5082 72.9161 29.9529 73.2347 30.3276L74.7586 29.0324ZM74.6512 28.7594C74.6173 28.5133 74.5966 28.1636 74.5966 27.696H72.5966C72.5966 28.2097 72.6186 28.6601 72.67 29.0326L74.6512 28.7594ZM74.5966 27.696C74.5966 27.0002 74.5062 26.3351 74.2351 25.7928L72.4462 26.6872C72.5164 26.8276 72.5966 27.1331 72.5966 27.696H74.5966ZM74.2351 25.7928C74.0809 25.4845 73.8517 25.2031 73.5287 25.0043C73.2061 24.8058 72.8521 24.728 72.5086 24.728V26.728C72.5306 26.728 72.5351 26.7304 72.5267 26.7283C72.5174 26.7259 72.5003 26.7198 72.4805 26.7077C72.4607 26.6955 72.4471 26.6826 72.44 26.6745C72.4336 26.6672 72.4371 26.669 72.4462 26.6872L74.2351 25.7928ZM72.5086 24.728C72.1637 24.728 71.8175 24.8141 71.5056 25.0137C71.1986 25.2102 70.9792 25.4816 70.8255 25.7708L72.5917 26.7092C72.6058 26.6827 72.6142 26.6734 72.6132 26.6745C72.6117 26.6763 72.6022 26.6864 72.5837 26.6983C72.5648 26.7104 72.5445 26.719 72.5266 26.724C72.5093 26.7287 72.5019 26.728 72.5086 26.728V24.728ZM70.82 25.7814C70.5458 26.3126 70.4526 26.9525 70.4526 27.616H72.4526C72.4526 27.1061 72.5301 26.8287 72.5972 26.6986L70.82 25.7814ZM70.4526 27.616C70.4526 28.1721 70.4365 28.5541 70.4107 28.7856L72.3985 29.0064C72.4368 28.6619 72.4526 28.1906 72.4526 27.616H70.4526ZM70.4107 28.7856C70.3997 28.8846 70.3677 28.9603 70.3074 29.0348L71.8619 30.2932C72.1642 29.9197 72.3455 29.4834 72.3985 29.0064L70.4107 28.7856ZM70.3227 29.0164C70.3393 28.9968 70.357 28.9819 70.3719 28.972C70.3863 28.9624 70.3935 28.9604 70.3883 28.9623C70.3747 28.9671 70.3157 28.984 70.1886 28.984V30.984C70.7529 30.984 71.3979 30.8394 71.8466 30.3116L70.3227 29.0164ZM70.1886 28.984C70.1449 28.984 70.1248 28.9773 70.1188 28.9751C70.1136 28.9731 70.1038 28.969 70.0867 28.9533C70.0465 28.9167 69.9528 28.8025 69.8624 28.5155L67.9548 29.1165C68.1097 29.6081 68.352 30.078 68.7386 30.4307C69.1465 30.8029 69.6496 30.984 70.1886 30.984V28.984ZM69.8636 28.5192C69.6551 27.8483 69.5406 27.0298 69.5406 26.048H67.5406C67.5406 27.1782 67.6715 28.205 67.9537 29.1128L69.8636 28.5192ZM69.5406 26.048C69.5406 24.8079 69.6755 24.0093 69.8663 23.5559C69.9574 23.3394 70.0385 23.2573 70.0705 23.2319C70.0874 23.2185 70.1017 23.208 70.1566 23.208V21.208C69.6729 21.208 69.2158 21.3575 68.8287 21.6641C68.4568 21.9587 68.2011 22.3566 68.0229 22.7801C67.6751 23.6067 67.5406 24.7281 67.5406 26.048H69.5406ZM70.1566 23.208C70.2231 23.208 70.2592 23.2163 70.2735 23.2207C70.2856 23.2244 70.2843 23.2257 70.2787 23.2214L71.5066 21.6426C71.102 21.328 70.6257 21.208 70.1566 21.208V23.208ZM70.3071 23.2427C70.3056 23.2416 70.3036 23.2399 70.3018 23.2379C70.2999 23.236 70.2998 23.2355 70.3012 23.2376C70.3038 23.2415 70.3163 23.2618 70.3297 23.3096L72.2556 22.7704C72.1307 22.3244 71.8835 21.9141 71.4781 21.6213L70.3071 23.2427ZM72.0254 23.7205C72.0228 23.7233 72.0379 23.7064 72.0866 23.676C72.1349 23.6458 72.2071 23.608 72.3099 23.5661L71.5553 21.7139C71.1966 21.86 70.836 22.0621 70.5598 22.3595L72.0254 23.7205ZM72.2983 23.5708C72.4769 23.5006 72.6672 23.464 72.8766 23.464V21.464C72.4247 21.464 71.9857 21.5448 71.567 21.7092L72.2983 23.5708ZM72.8766 23.464C73.7717 23.464 74.31 23.7676 74.6718 24.3035L76.3295 23.1845C75.5392 22.0138 74.3282 21.464 72.8766 21.464V23.464ZM74.6766 24.3105C75.1104 24.9415 75.3806 25.8768 75.3806 27.216H77.3806C77.3806 25.6325 77.0642 24.2532 76.3247 23.1775L74.6766 24.3105ZM75.3806 27.216C75.3806 28.0113 75.2748 28.5356 75.1316 28.8561L76.9576 29.6719C77.2624 28.9897 77.3806 28.1487 77.3806 27.216H75.3806ZM75.1349 28.8487C75.0912 28.9444 75.0573 28.9639 75.0527 28.9667C75.0451 28.9715 74.9972 29 74.8606 29V31C75.2893 31 75.7215 30.9059 76.1086 30.6653C76.4987 30.4228 76.774 30.0742 76.9543 29.6793L75.1349 28.8487ZM92.1701 19.456L91.3775 20.0657L91.3824 20.072L91.3873 20.0782L92.1701 19.456ZM92.8421 21.28L91.8527 21.4251L91.853 21.427L92.8421 21.28ZM92.8421 27.584L93.831 27.733L93.8313 27.731L92.8421 27.584ZM92.1861 29.36L92.971 29.9796L92.1861 29.36ZM89.2581 29.04L88.3576 29.4747L89.2581 29.04ZM88.7301 26.16L89.7293 26.1191L89.6887 25.1286L88.6979 25.1605L88.7301 26.16ZM86.2661 26.176V25.176H85.3141L85.2673 26.1269L86.2661 26.176ZM85.7221 29.056L84.8216 28.6213L85.7221 29.056ZM82.7941 29.376L82.0092 29.9956L82.7941 29.376ZM82.1381 27.6L81.1471 27.7339L81.1482 27.7415L81.1493 27.749L82.1381 27.6ZM82.1381 21.264L81.1489 21.117L81.1471 21.1301L82.1381 21.264ZM82.7941 19.472L83.5791 20.0917L83.5868 20.0817L82.7941 19.472ZM85.4181 19.344L84.676 20.0143L84.6815 20.0203L84.6871 20.0263L85.4181 19.344ZM86.0421 20.752L85.0596 20.9383L85.0615 20.9482L85.0636 20.958L86.0421 20.752ZM86.2821 23.12L85.2827 23.1529L85.3145 24.12H86.2821V23.12ZM88.7141 23.136L88.6757 24.1353L89.6918 24.1743L89.7139 23.1577L88.7141 23.136ZM89.1941 19.888L88.2735 19.4974L88.2706 19.5044L89.1941 19.888ZM90.7941 19.832C91.1298 19.832 91.2747 19.932 91.3775 20.0657L92.9627 18.8463C92.4256 18.148 91.6531 17.832 90.7941 17.832V19.832ZM91.3873 20.0782C91.5654 20.3023 91.7487 20.7158 91.8527 21.4251L93.8315 21.1349C93.7009 20.2442 93.4362 19.4417 92.9529 18.8338L91.3873 20.0782ZM91.853 21.427C91.96 22.1468 92.0181 23.1422 92.0181 24.432H94.0181C94.0181 23.0978 93.9589 21.9919 93.8313 21.133L91.853 21.427ZM92.0181 24.432C92.0181 25.7218 91.96 26.7172 91.853 27.437L93.8313 27.731C93.9589 26.8721 94.0181 25.7662 94.0181 24.432H92.0181ZM91.8533 27.435C91.7494 28.1246 91.5713 28.5249 91.4012 28.7404L92.971 29.9796C93.4409 29.3844 93.7002 28.6007 93.831 27.733L91.8533 27.435ZM91.4012 28.7404C91.3056 28.8615 91.1569 28.968 90.7941 28.968V30.968C91.6474 30.968 92.4266 30.6692 92.971 29.9796L91.4012 28.7404ZM90.7941 28.968C90.5749 28.968 90.453 28.9223 90.3832 28.8801C90.3168 28.8399 90.2366 28.7666 90.1587 28.6053L88.3576 29.4747C88.5784 29.9321 88.9035 30.3227 89.349 30.5919C89.7912 30.8591 90.288 30.968 90.7941 30.968V28.968ZM90.1587 28.6053C89.9515 28.1761 89.7811 27.3843 89.7293 26.1191L87.731 26.2009C87.7858 27.5384 87.9674 28.6666 88.3576 29.4747L90.1587 28.6053ZM88.6979 25.1605C88.3847 25.1706 87.8548 25.176 87.0981 25.176V27.176C87.8561 27.176 88.4142 27.1707 88.7624 27.1595L88.6979 25.1605ZM87.0981 25.176H86.2661V27.176H87.0981V25.176ZM85.2673 26.1269C85.2051 27.3928 85.0306 28.1882 84.8216 28.6213L86.6227 29.4907C87.011 28.6865 87.1992 27.5619 87.2649 26.2251L85.2673 26.1269ZM84.8216 28.6213C84.7437 28.7826 84.6635 28.8559 84.597 28.8961C84.5272 28.9383 84.4053 28.984 84.1861 28.984V30.984C84.6923 30.984 85.189 30.8751 85.6312 30.6079C86.0768 30.3387 86.4019 29.9481 86.6227 29.4907L84.8216 28.6213ZM84.1861 28.984C83.8234 28.984 83.6746 28.8775 83.579 28.7564L82.0092 29.9956C82.5536 30.6852 83.3329 30.984 84.1861 30.984V28.984ZM83.579 28.7564C83.4089 28.5409 83.2309 28.1406 83.127 27.451L81.1493 27.749C81.28 28.6167 81.5393 29.4004 82.0092 29.9956L83.579 28.7564ZM83.1291 27.4661C83.0311 26.7405 82.9781 25.735 82.9781 24.432H80.9781C80.9781 25.7744 81.0318 26.8808 81.1471 27.7339L83.1291 27.4661ZM82.9781 24.432C82.9781 23.129 83.0311 22.1235 83.1291 21.3979L81.1471 21.1301C81.0318 21.9832 80.9781 23.0896 80.9781 24.432H82.9781ZM83.1273 21.411C83.2317 20.7083 83.4107 20.3049 83.579 20.0916L82.0092 18.8524C81.5376 19.4498 81.2792 20.2411 81.149 21.117L83.1273 21.411ZM83.5868 20.0817C83.6859 19.9528 83.8329 19.848 84.1861 19.848V17.848C83.3233 17.848 82.5423 18.1592 82.0015 18.8623L83.5868 20.0817ZM84.1861 19.848C84.4796 19.848 84.6002 19.9303 84.676 20.0143L86.1602 18.6737C85.6388 18.0964 84.938 17.848 84.1861 17.848V19.848ZM84.6871 20.0263C84.8119 20.1601 84.9629 20.4282 85.0596 20.9383L87.0246 20.5657C86.8867 19.8385 86.6217 19.1679 86.1492 18.6617L84.6871 20.0263ZM85.0636 20.958C85.1749 21.4866 85.2516 22.2119 85.2827 23.1529L87.2816 23.0871C87.2486 22.0867 87.1654 21.2334 87.0207 20.546L85.0636 20.958ZM86.2821 24.12H87.4181V22.12H86.2821V24.12ZM87.4181 24.12C88.0028 24.12 88.4187 24.1254 88.6757 24.1353L88.7526 22.1367C88.4549 22.1253 88.0068 22.12 87.4181 22.12V24.12ZM89.7139 23.1577C89.7453 21.714 89.9039 20.7861 90.1176 20.2716L88.2706 19.5044C87.9083 20.3766 87.747 21.614 87.7144 23.1143L89.7139 23.1577ZM90.1147 20.2785C90.2025 20.0715 90.2966 19.9784 90.369 19.9306C90.4417 19.8826 90.5659 19.832 90.7941 19.832V17.832C90.2543 17.832 89.7279 17.9574 89.2673 18.2614C88.8064 18.5656 88.4844 19.0005 88.2735 19.4974L90.1147 20.2785ZM94.6539 29.44L94.0695 30.2516L94.0804 30.2592L94.6539 29.44ZM94.6699 26.32L94.1152 25.4879L94.6699 26.32ZM97.5339 25.856L97.3299 26.835L97.3528 26.8397L97.3759 26.8434L97.5339 25.856ZM98.0779 26.016L97.5232 26.848L99.0779 27.8845V26.016H98.0779ZM97.7419 25.36L97.1127 26.1372L97.1241 26.1465L97.1358 26.1554L97.7419 25.36ZM96.2219 25.136L96.4644 26.1061L96.2219 25.136ZM95.3899 25.424L95.1473 24.4539L95.137 24.4564L95.1268 24.4592L95.3899 25.424ZM94.1099 25.216L93.4233 25.943L93.4342 25.9534L93.4455 25.9634L94.1099 25.216ZM94.2699 23.344L93.5885 22.6121L93.582 22.6181L93.5757 22.6242L94.2699 23.344ZM95.4219 22.704L95.7113 23.6612L95.7214 23.6581L95.7315 23.6549L95.4219 22.704ZM99.0699 22.992L98.5803 23.864L98.5894 23.8691L98.5985 23.8739L99.0699 22.992ZM100.43 24.32L99.5424 24.7808L99.5458 24.7875L99.5494 24.7941L100.43 24.32ZM100.782 27.168L99.8026 26.9654L99.7992 26.9817L99.7964 26.9981L100.782 27.168ZM100.558 27.888L99.6863 27.3977L99.2839 28.1131L99.9071 28.6473L100.558 27.888ZM100.894 28.336L99.9777 28.7368L99.988 28.7603L99.9994 28.7832L100.894 28.336ZM100.702 29.664L99.9777 28.9743L99.9689 28.9836L99.9603 28.9931L100.702 29.664ZM99.2619 29.888L98.839 30.7942L99.2619 29.888ZM98.7499 29.536L99.4115 28.7862L98.8628 28.302L98.2354 28.6785L98.7499 29.536ZM97.8699 29.888L97.6426 28.9141L97.6352 28.9159L97.8699 29.888ZM97.5499 28.24L96.9807 27.4178L96.9651 27.4286L96.9499 27.44L97.5499 28.24ZM97.5499 27.536L96.9499 28.336L96.9651 28.3474L96.9807 28.3582L97.5499 27.536ZM96.4779 27.536L95.9087 26.7138L95.8931 26.7246L95.8779 26.736L96.4779 27.536ZM96.4779 28.24L95.8779 29.04L95.8931 29.0514L95.9087 29.0622L96.4779 28.24ZM96.7019 29C96.018 29 95.5512 28.8475 95.2273 28.6208L94.0804 30.2592C94.8232 30.7792 95.7217 31 96.7019 31V29ZM95.2382 28.6285C94.9914 28.4508 94.8539 28.2179 94.8539 27.792H92.8539C92.8539 28.7955 93.2497 29.6612 94.0696 30.2515L95.2382 28.6285ZM94.8539 27.792C94.8539 27.5297 94.9399 27.3418 95.2246 27.1521L94.1152 25.4879C93.3118 26.0235 92.8539 26.8169 92.8539 27.792H94.8539ZM95.2246 27.1521C95.5687 26.9226 96.0411 26.776 96.7019 26.776V24.776C95.7414 24.776 94.859 24.9921 94.1152 25.4879L95.2246 27.1521ZM96.7019 26.776C96.9415 26.776 97.1497 26.7974 97.3299 26.835L97.7378 24.877C97.4061 24.8079 97.0596 24.776 96.7019 24.776V26.776ZM97.3759 26.8434C97.4834 26.8606 97.551 26.8766 97.5877 26.8874C97.6053 26.8925 97.6081 26.8943 97.6002 26.891C97.5936 26.8882 97.5643 26.8754 97.5232 26.848L98.6326 25.184C98.3379 24.9875 97.9594 24.9114 97.6919 24.8686L97.3759 26.8434ZM99.0779 26.016C99.0779 25.4174 98.804 24.912 98.3479 24.5646L97.1358 26.1554C97.1464 26.1635 97.1253 26.1497 97.1038 26.1079C97.0815 26.0643 97.0779 26.0274 97.0779 26.016H99.0779ZM98.3711 24.5828C97.8906 24.1938 97.2787 24.088 96.7179 24.088V26.088C96.8848 26.088 96.9949 26.1049 97.0612 26.1225C97.1257 26.1396 97.1319 26.1528 97.1127 26.1372L98.3711 24.5828ZM96.7179 24.088C96.4721 24.088 96.217 24.1064 95.9793 24.1659L96.4644 26.1061C96.4828 26.1016 96.5583 26.088 96.7179 26.088V24.088ZM95.9793 24.1659C95.7894 24.2133 95.5996 24.2805 95.412 24.3609L96.1998 26.1991C96.3109 26.1515 96.3984 26.1227 96.4644 26.1061L95.9793 24.1659ZM95.412 24.3609C95.3009 24.4085 95.2134 24.4373 95.1473 24.4539L95.6324 26.3941C95.8224 26.3467 96.0122 26.2795 96.1998 26.1991L95.412 24.3609ZM95.1268 24.4592C95.1356 24.4568 95.1236 24.4608 95.0824 24.465C95.0426 24.4689 94.9861 24.472 94.9099 24.472V26.472C95.1508 26.472 95.4119 26.4545 95.653 26.3888L95.1268 24.4592ZM94.9099 24.472C94.8208 24.472 94.7746 24.4607 94.7587 24.4556C94.7461 24.4516 94.7569 24.4532 94.7742 24.4686L93.4455 25.9634C93.8737 26.344 94.4055 26.472 94.9099 26.472V24.472ZM94.7965 24.489C94.8097 24.5014 94.8203 24.5148 94.8279 24.5268C94.8354 24.5385 94.8375 24.5451 94.8369 24.5432C94.8349 24.5376 94.8219 24.4959 94.8219 24.4H92.8219C92.8219 24.9319 92.9654 25.5106 93.4233 25.943L94.7965 24.489ZM94.8219 24.4C94.8219 24.2547 94.8614 24.1628 94.964 24.0638L93.5757 22.6242C93.081 23.1012 92.8219 23.7133 92.8219 24.4H94.8219ZM94.9513 24.0759C95.1348 23.9051 95.3791 23.7616 95.7113 23.6612L95.1325 21.7468C94.5473 21.9237 94.0237 22.2069 93.5885 22.6121L94.9513 24.0759ZM95.7315 23.6549C96.0954 23.5364 96.4497 23.48 96.7979 23.48V21.48C96.2287 21.48 95.6657 21.5729 95.1123 21.7531L95.7315 23.6549ZM96.7979 23.48C97.5832 23.48 98.1602 23.6281 98.5803 23.864L99.5594 22.12C98.7636 21.6732 97.8259 21.48 96.7979 21.48V23.48ZM98.5985 23.8739C99.0618 24.1215 99.3586 24.4268 99.5424 24.7808L101.317 23.8592C100.925 23.1039 100.315 22.5238 99.5413 22.1101L98.5985 23.8739ZM99.5494 24.7941C99.7644 25.1934 99.8779 25.6421 99.8779 26.16H101.878C101.878 25.3339 101.693 24.556 101.31 23.8459L99.5494 24.7941ZM99.8779 26.16C99.8779 26.4644 99.851 26.7317 99.8026 26.9654L101.761 27.3706C101.841 26.9857 101.878 26.5809 101.878 26.16H99.8779ZM99.7964 26.9981C99.7522 27.2543 99.7029 27.3682 99.6863 27.3977L101.429 28.3783C101.605 28.0665 101.705 27.7003 101.767 27.3379L99.7964 26.9981ZM99.9071 28.6473C99.9486 28.6829 99.9668 28.7118 99.9777 28.7368L101.81 27.9352C101.672 27.6189 101.466 27.3491 101.209 27.1287L99.9071 28.6473ZM99.9994 28.7832C100.019 28.8225 100.022 28.846 100.022 28.864H102.022C102.022 28.5193 101.939 28.1908 101.788 27.8888L99.9994 28.7832ZM100.022 28.864C100.022 28.9013 100.016 28.9182 100.013 28.9246C100.011 28.931 100.003 28.9473 99.9777 28.9743L101.426 30.3537C101.816 29.9437 102.022 29.4301 102.022 28.864H100.022ZM99.9603 28.9931C99.9569 28.9969 99.9564 28.9967 99.9591 28.9948C99.9619 28.9928 99.9644 28.9916 99.9651 28.9913C99.9677 28.9903 99.9466 29 99.8859 29V31C100.469 31 101.025 30.7968 101.443 30.3349L99.9603 28.9931ZM99.8859 29C99.8052 29 99.7496 28.994 99.7145 28.9877C99.6795 28.9814 99.6728 28.9762 99.6848 28.9818L98.839 30.7942C99.1772 30.952 99.5444 31 99.8859 31V29ZM99.6848 28.9818C99.6367 28.9594 99.5456 28.9045 99.4115 28.7862L98.0883 30.2858C98.3168 30.4875 98.567 30.6673 98.839 30.7942L99.6848 28.9818ZM98.2354 28.6785C98.0628 28.7821 97.8672 28.8618 97.6426 28.9142L98.0971 30.8618C98.5126 30.7649 98.9036 30.6099 99.2644 30.3935L98.2354 28.6785ZM97.6352 28.9159C97.4297 28.9655 97.1258 29 96.7019 29V31C97.2167 31 97.6914 30.9598 98.1045 30.8601L97.6352 28.9159ZM97.0219 29.384C97.3778 29.384 97.7916 29.3087 98.1499 29.04L96.9499 27.44C96.9999 27.4025 97.042 27.3878 97.0588 27.3832C97.0734 27.3792 97.0644 27.384 97.0219 27.384V29.384ZM98.1191 29.0622C98.4613 28.8253 98.7579 28.4279 98.7579 27.888H96.7579C96.7579 27.7817 96.7869 27.6695 96.8449 27.5713C96.899 27.4797 96.9588 27.433 96.9807 27.4178L98.1191 29.0622ZM98.7579 27.888C98.7579 27.3481 98.4613 26.9507 98.1191 26.7138L96.9807 28.3582C96.9588 28.343 96.899 28.2963 96.8449 28.2047C96.7869 28.1065 96.7579 27.9943 96.7579 27.888H98.7579ZM98.1499 26.736C97.7916 26.4673 97.3778 26.392 97.0219 26.392V28.392C97.0644 28.392 97.0734 28.3967 97.0588 28.3928C97.042 28.3882 96.9999 28.3735 96.9499 28.336L98.1499 26.736ZM97.0219 26.392C96.6602 26.392 96.2615 26.4695 95.9087 26.7138L97.0471 28.3582C97.0111 28.3831 96.9826 28.3924 96.9738 28.3947C96.9666 28.3966 96.9801 28.392 97.0219 28.392V26.392ZM95.8779 26.736C95.5422 26.9878 95.2859 27.3833 95.2859 27.888H97.2859C97.2859 27.9795 97.263 28.081 97.2118 28.1749C97.163 28.2642 97.1062 28.3148 97.0779 28.336L95.8779 26.736ZM95.2859 27.888C95.2859 28.3927 95.5422 28.7882 95.8779 29.04L97.0779 27.44C97.1062 27.4612 97.163 27.5118 97.2118 27.6011C97.263 27.695 97.2859 27.7965 97.2859 27.888H95.2859ZM95.9087 29.0622C96.2615 29.3065 96.6602 29.384 97.0219 29.384V27.384C96.9801 27.384 96.9666 27.3794 96.9738 27.3813C96.9826 27.3836 97.0111 27.3929 97.0471 27.4178L95.9087 29.0622ZM102.494 29.376L101.665 29.9359L102.494 29.376ZM101.95 27.632L100.956 27.7409L100.957 27.7485L100.958 27.756L101.95 27.632ZM101.918 21.264L100.923 21.1645L100.922 21.1715L100.922 21.1786L101.918 21.264ZM102.43 19.472L101.58 18.9456L101.575 18.953L101.571 18.9605L102.43 19.472ZM104.974 19.472L104.115 19.9835L104.119 19.991L104.124 19.9984L104.974 19.472ZM105.486 21.264L104.49 21.3494L104.49 21.3565L104.491 21.3635L105.486 21.264ZM105.422 27.568L104.432 27.4247L104.431 27.4358L105.422 27.568ZM104.846 29.376L105.664 29.951L105.671 29.9407L104.846 29.376ZM103.694 28.968C103.446 28.968 103.379 28.8991 103.322 28.8161L101.665 29.9359C102.143 30.6422 102.875 30.968 103.694 30.968V28.968ZM103.322 28.8161C103.182 28.6088 103.029 28.2064 102.942 27.508L100.958 27.756C101.062 28.5936 101.272 29.3539 101.665 29.9359L103.322 28.8161ZM102.944 27.5231C102.864 26.7979 102.822 25.7574 102.822 24.384H100.822C100.822 25.784 100.865 26.9087 100.956 27.7409L102.944 27.5231ZM102.822 24.384C102.822 23.0609 102.854 22.054 102.914 21.3494L100.922 21.1786C100.854 21.9674 100.822 23.0404 100.822 24.384H102.822ZM102.913 21.3635C102.979 20.7032 103.123 20.263 103.289 19.9835L101.571 18.9605C101.204 19.577 101.006 20.3314 100.923 21.1645L102.913 21.3635ZM103.28 19.9984C103.356 19.8763 103.442 19.8 103.71 19.8V17.8C102.826 17.8 102.059 18.1717 101.58 18.9456L103.28 19.9984ZM103.71 19.8C103.978 19.8 104.05 19.8748 104.115 19.9835L105.833 18.9605C105.365 18.1732 104.594 17.8 103.71 17.8V19.8ZM104.124 19.9984C104.291 20.2686 104.434 20.6974 104.49 21.3494L106.482 21.1786C106.41 20.3373 106.212 19.5714 105.824 18.9456L104.124 19.9984ZM104.491 21.3635C104.561 22.0612 104.598 23.0627 104.598 24.384H106.598C106.598 23.0387 106.56 21.9602 106.481 21.1645L104.491 21.3635ZM104.598 24.384C104.598 25.6729 104.54 26.681 104.432 27.4248L106.412 27.7112C106.539 26.8337 106.598 25.7191 106.598 24.384H104.598ZM104.431 27.4358C104.333 28.1688 104.17 28.5927 104.021 28.8113L105.671 29.9407C106.076 29.3487 106.298 28.5672 106.413 27.7002L104.431 27.4358ZM104.028 28.8011C103.941 28.9238 103.866 28.968 103.694 28.968V30.968C104.504 30.968 105.196 30.6175 105.664 29.9509L104.028 28.8011ZM107.072 29.376L106.243 29.9359L107.072 29.376ZM106.528 27.632L105.534 27.7409L105.535 27.7485L105.536 27.756L106.528 27.632ZM106.496 21.264L105.501 21.1645L105.5 21.1715L105.5 21.1786L106.496 21.264ZM107.008 19.472L106.158 18.9456L106.153 18.953L106.149 18.9605L107.008 19.472ZM109.552 19.472L108.693 19.9835L108.697 19.991L108.702 19.9984L109.552 19.472ZM110.064 21.264L109.068 21.3494L109.068 21.3565L109.069 21.3635L110.064 21.264ZM110 27.568L109.01 27.4247L109.009 27.4358L110 27.568ZM109.424 29.376L110.242 29.951L110.249 29.9407L109.424 29.376ZM108.272 28.968C108.024 28.968 107.957 28.8991 107.901 28.8161L106.243 29.9359C106.721 30.6422 107.453 30.968 108.272 30.968V28.968ZM107.901 28.8161C107.76 28.6088 107.608 28.2064 107.52 27.508L105.536 27.756C105.64 28.5936 105.85 29.3539 106.243 29.9359L107.901 28.8161ZM107.522 27.5231C107.443 26.7979 107.4 25.7574 107.4 24.384H105.4C105.4 25.784 105.443 26.9087 105.534 27.7409L107.522 27.5231ZM107.4 24.384C107.4 23.0609 107.432 22.054 107.492 21.3494L105.5 21.1786C105.432 21.9674 105.4 23.0404 105.4 24.384H107.4ZM107.491 21.3635C107.557 20.7032 107.701 20.263 107.867 19.9835L106.149 18.9605C105.782 19.577 105.584 20.3314 105.501 21.1645L107.491 21.3635ZM107.858 19.9984C107.934 19.8763 108.02 19.8 108.288 19.8V17.8C107.404 17.8 106.637 18.1717 106.158 18.9456L107.858 19.9984ZM108.288 19.8C108.556 19.8 108.628 19.8748 108.693 19.9835L110.411 18.9605C109.943 18.1732 109.172 17.8 108.288 17.8V19.8ZM108.702 19.9984C108.869 20.2686 109.012 20.6974 109.068 21.3494L111.06 21.1786C110.988 20.3373 110.79 19.5714 110.402 18.9456L108.702 19.9984ZM109.069 21.3635C109.139 22.0612 109.176 23.0627 109.176 24.384H111.176C111.176 23.0387 111.139 21.9602 111.059 21.1645L109.069 21.3635ZM109.176 24.384C109.176 25.6729 109.118 26.681 109.01 27.4248L110.99 27.7112C111.117 26.8337 111.176 25.7191 111.176 24.384H109.176ZM109.009 27.4358C108.911 28.1688 108.748 28.5927 108.599 28.8113L110.249 29.9407C110.654 29.3487 110.876 28.5672 110.991 27.7002L109.009 27.4358ZM108.606 28.8011C108.52 28.9238 108.444 28.968 108.272 28.968V30.968C109.082 30.968 109.774 30.6175 110.242 29.9509L108.606 28.8011Z"
    fill="black" mask="url(#path-1-outside-1_31324_1988)" />
  <path
    d="M31.724 28.5055H29.5818V26.7312H5.69401V28.5055H3.63107V30.2108H2.06784V32H33.2872V30.2145H31.724V28.5055ZM10.8155 25.239V16.2031H11.8809V14.9909C11.8817 14.8142 11.8471 14.6391 11.7793 14.4756C11.7115 14.3121 11.6117 14.1635 11.4857 14.0384C11.3597 13.9133 11.21 13.814 11.0451 13.7464C10.8803 13.6788 10.7036 13.6441 10.5251 13.6443H5.90897C5.73475 13.6466 5.56278 13.6836 5.40329 13.7531C5.2438 13.8226 5.10005 13.9232 4.98059 14.0488C4.86113 14.1744 4.76841 14.3226 4.70794 14.4844C4.64747 14.6463 4.62049 14.8185 4.6286 14.9909V16.2031H5.76001V25.239H10.8155ZM29.514 25.239V16.2031H30.6454V14.9909C30.6454 14.2849 30.0797 13.6443 29.365 13.6443H24.7432C24.569 13.6466 24.397 13.6836 24.2375 13.7531C24.078 13.8226 23.9342 13.9232 23.8148 14.0488C23.6953 14.1744 23.6026 14.3226 23.5421 14.4844C23.4817 14.6463 23.4547 14.8185 23.4628 14.9909V16.2031H24.5942V25.239H29.514ZM20.1308 25.239V16.2031H21.2622V14.9909C21.2622 14.2849 20.6965 13.6443 19.9818 13.6443H15.36C15.1858 13.6466 15.0138 13.6836 14.8543 13.7531C14.6948 13.8226 14.5511 13.9232 14.4316 14.0488C14.3122 14.1744 14.2195 14.3226 14.159 14.4844C14.0985 14.6463 14.0715 14.8185 14.0796 14.9909V16.2031H15.1451V25.239H20.1308ZM32.5744 9.00871L18.7033 1.31942C18.3362 1.11015 17.9201 1 17.4965 1C17.0729 1 16.6568 1.11015 16.2897 1.31942L2.41669 9.00871C1.97955 9.24704 1.61653 9.59924 1.36692 10.0272C1.11731 10.4552 0.990617 10.9426 1.00054 11.4367V12.2902H34V11.433C33.9904 10.9421 33.8544 10.4618 33.6049 10.0376C33.3554 9.61332 33.0007 9.25918 32.5744 9.00871Z"
    fill="#FFF5A9" stroke="black" />
  <circle cx="17" cy="14" r="7.5" fill="#FBBF24" stroke="black" />
  <path
    d="M20.286 15.4074C20.7018 15.9628 20.7889 16.5665 20.5475 17.2186C20.3061 17.8707 19.8271 18.2984 19.1104 18.5018C18.7677 18.599 18.4181 18.6028 18.0616 18.5132C17.7051 18.4236 17.4129 18.254 17.185 18.0045C16.3583 18.3737 15.5816 18.3557 14.855 17.9503C14.1283 17.5448 13.6916 16.886 13.545 15.9737C13.1833 15.8855 12.8759 15.7119 12.6228 15.4526C12.3697 15.1934 12.1871 14.8664 12.0751 14.4718C11.8953 13.8382 12.0384 13.2449 12.5043 12.6919C12.9702 12.1388 13.5108 11.8984 14.1261 11.9707L15.2069 12.1017C15.3233 11.7208 15.5241 11.3804 15.8093 11.0806C16.0946 10.7808 16.4316 10.5646 16.8204 10.4318L16.5905 9.62169C16.5522 9.48667 16.5647 9.36249 16.6279 9.24916C16.6911 9.13583 16.7902 9.06 16.9253 9.02169C17.0603 8.98337 17.1845 8.99583 17.2978 9.05906C17.4111 9.12229 17.487 9.22141 17.5253 9.35643L17.7905 10.2912C18.2072 10.2964 18.5748 10.3856 18.8934 10.559C19.2119 10.7323 19.5213 11.012 19.8217 11.3981L20.7252 11.1417C20.8603 11.1034 20.9844 11.1159 21.0978 11.1791C21.2111 11.2423 21.2869 11.3414 21.3252 11.4765C21.3636 11.6115 21.3511 11.7357 21.2879 11.849C21.2246 11.9623 21.1255 12.0382 20.9905 12.0765L20.1804 12.3064C20.2716 12.7069 20.2698 13.1058 20.1749 13.5031C20.08 13.9004 19.9011 14.2485 19.638 14.5476L20.286 15.4074ZM16.5286 16.8777C16.449 16.5973 16.395 16.3181 16.3666 16.0399C16.3382 15.7618 16.3353 15.4849 16.3581 15.2091C16.1516 15.3911 15.9174 15.5445 15.6554 15.6694C15.3934 15.7942 15.1245 15.8846 14.8486 15.9404C14.9635 16.3455 15.171 16.6317 15.471 16.7991C15.771 16.9665 16.1235 16.9927 16.5286 16.8777ZM14.6507 14.6499C14.983 14.5556 15.2647 14.4308 15.4955 14.2755C15.7264 14.1202 16.009 13.8604 16.3433 13.4962L14.2528 13.2478C13.9162 13.2086 13.6599 13.2842 13.4838 13.4744C13.3078 13.6647 13.2595 13.9 13.3391 14.1804C13.4157 14.4504 13.56 14.6227 13.7719 14.6973C13.9839 14.7718 14.2768 14.756 14.6507 14.6499ZM18.7568 17.2554C19.0164 17.1818 19.2009 17.0312 19.3103 16.8038C19.4197 16.5763 19.4049 16.3757 19.2658 16.202L17.8233 14.3219C17.7203 14.7103 17.6614 15.0861 17.6467 15.4494C17.6319 15.8127 17.6629 16.1294 17.7395 16.3994C17.8368 16.7422 17.9709 16.9875 18.1419 17.1353C18.313 17.2832 18.5179 17.3232 18.7568 17.2554ZM18.8036 13.5051C18.8779 13.3718 18.922 13.2106 18.9357 13.0215C18.9493 12.8325 18.9297 12.6445 18.8766 12.4575C18.7823 12.1251 18.5937 11.8757 18.3107 11.7091C18.0278 11.5425 17.7253 11.5049 17.4034 11.5962C17.2164 11.6493 17.0487 11.7305 16.9002 11.84C16.7517 11.9495 16.6365 12.0776 16.5547 12.2242L17.929 12.4402L18.8036 13.5051Z"
    fill="#78350F" />
</svg>