<svg width="94" height="103" viewBox="0 0 94 103" fill="none" xmlns="http://www.w3.org/2000/svg">
<g style="mix-blend-mode:multiply" opacity="0.54">
<path d="M49.3619 102.242C73.7821 102.242 93.5787 82.4947 93.5787 58.1348C93.5787 33.7749 73.7821 14.0273 49.3619 14.0273C24.9416 14.0273 5.14502 33.7749 5.14502 58.1348C5.14502 82.4947 24.9416 102.242 49.3619 102.242Z" fill="black"/>
</g>
<path d="M44.4222 95.2804C68.8424 95.2804 88.639 75.5328 88.639 51.1729C88.639 26.813 68.8424 7.06543 44.4222 7.06543C20.0019 7.06543 0.205322 26.813 0.205322 51.1729C0.205322 75.5328 20.0019 95.2804 44.4222 95.2804Z" fill="#653F22"/>
<path d="M44.4222 95.2101C68.8424 95.2101 88.639 75.4625 88.639 51.1026C88.639 26.7427 68.8424 6.99512 44.4222 6.99512C20.0019 6.99512 0.205322 26.7427 0.205322 51.1026C0.205322 75.4625 20.0019 95.2101 44.4222 95.2101Z" fill="#663F22"/>
<path d="M44.4222 94.0275C68.8424 94.0275 88.639 74.2799 88.639 49.92C88.639 25.5601 68.8424 5.8125 44.4222 5.8125C20.0019 5.8125 0.205322 25.5601 0.205322 49.92C0.205322 74.2799 20.0019 94.0275 44.4222 94.0275Z" fill="#6A3F1F"/>
<path d="M44.4222 92.6339C68.8424 92.6339 88.639 72.8863 88.639 48.5264C88.639 24.1665 68.8424 4.41895 44.4222 4.41895C20.0019 4.41895 0.205322 24.1665 0.205322 48.5264C0.205322 72.8863 20.0019 92.6339 44.4222 92.6339Z" fill="#703F1C"/>
<path d="M44.4222 90.9591C68.8424 90.9591 88.639 71.2115 88.639 46.8516C88.639 22.4917 68.8424 2.74414 44.4222 2.74414C20.0019 2.74414 0.205322 22.4917 0.205322 46.8516C0.205322 71.2115 20.0019 90.9591 44.4222 90.9591Z" fill="#773F18"/>
<path d="M44.4222 88.8683C68.8424 88.8683 88.639 69.1207 88.639 44.7608C88.639 20.4009 68.8424 0.65332 44.4222 0.65332C20.0019 0.65332 0.205322 20.4009 0.205322 44.7608C0.205322 69.1207 20.0019 88.8683 44.4222 88.8683Z" fill="#EB8939"/>
<path d="M59.2481 53.1368L59.0153 49.7509C60.0584 49.1952 60.9182 48.3505 61.4912 47.3186C62.0641 46.2866 62.3257 45.1114 62.2444 43.9345C62.1631 42.7577 61.7424 41.6294 61.033 40.6855C60.3236 39.7417 59.3558 39.0226 58.2461 38.6149L58.0132 35.2361C59.0232 34.7597 59.8687 33.995 60.4428 33.0389C61.0169 32.0828 61.2937 30.9783 61.2381 29.8652L58.8671 30.0271L58.9376 31.0549C58.9642 31.4433 58.8761 31.831 58.6843 32.17C58.4924 32.509 58.2051 32.7845 57.858 32.9625V32.5612C57.8205 32.2092 57.6454 31.8861 57.3706 31.662C57.0958 31.438 56.7435 31.3311 56.3902 31.3646H56.2561C56.0781 31.3718 55.9033 31.414 55.7417 31.4887C55.5801 31.5634 55.4348 31.6692 55.3142 31.7999C55.1936 31.9307 55.1001 32.0839 55.0389 32.2508C54.9777 32.4176 54.9501 32.5949 54.9577 32.7724V33.2652C54.5932 33.1289 54.2747 32.8928 54.0387 32.584C53.8028 32.2751 53.659 31.9061 53.624 31.5194L53.5534 30.4917L51.1895 30.6536C51.5352 33.0469 53.1018 35.0038 55.1129 35.5318L55.374 38.9106C54.3309 39.4662 53.471 40.3109 52.8981 41.3429C52.3252 42.3749 52.0636 43.5501 52.1449 44.7269C52.2262 45.9038 52.6469 47.0321 53.3563 47.9759C54.0657 48.9198 55.0335 49.6388 56.1432 50.0466L56.3761 53.4324C55.3672 53.9084 54.5225 54.672 53.9485 55.6267C53.3745 56.5814 53.097 57.6843 53.1512 58.7962L55.5222 58.6344L55.4517 57.6137C55.4269 57.2255 55.5157 56.8386 55.7074 56.4999C55.8991 56.1612 56.1854 55.8854 56.5313 55.7061V56.1918C56.5687 56.5452 56.7448 56.8694 57.0212 57.0937C57.2976 57.3179 57.6517 57.4239 58.0061 57.3884H58.1402C58.3185 57.3821 58.4937 57.3405 58.6558 57.2662C58.8179 57.1918 58.9635 57.086 59.0843 56.9551C59.2051 56.8241 59.2986 56.6705 59.3594 56.5033C59.4202 56.336 59.4472 56.1583 59.4386 55.9806L59.4034 55.4878C59.7679 55.6241 60.0864 55.8602 60.3223 56.169C60.5583 56.4779 60.702 56.8468 60.7371 57.2336L60.8076 58.2613L63.1716 58.0994C63.0904 56.9756 62.673 55.9019 61.9736 55.0172C61.2742 54.1325 60.3247 53.4775 59.2481 53.1368ZM54.626 45.9498L54.4214 43.0074C54.4001 42.6198 54.4905 42.2342 54.6818 41.8962C54.8731 41.5582 55.1574 41.2818 55.501 41.0998V41.5925C55.5402 41.9451 55.7168 42.2683 55.9927 42.4922C56.2687 42.7161 56.6218 42.8227 56.9759 42.7892H57.11C57.4682 42.7727 57.8052 42.6153 58.0473 42.3514C58.2893 42.0875 58.4166 41.7387 58.4013 41.3813V40.8886C58.764 41.0266 59.0807 41.2634 59.3152 41.572C59.5497 41.8806 59.6927 42.2486 59.728 42.6343L59.9326 45.5696C59.957 45.9587 59.868 46.3464 59.6765 46.6861C59.4849 47.0259 59.1989 47.3031 58.8529 47.4843L58.8177 46.9916C58.7803 46.6382 58.6041 46.3139 58.3278 46.0897C58.0514 45.8654 57.6973 45.7594 57.3428 45.7949H57.2088C56.8506 45.8113 56.5135 45.9687 56.2714 46.2326C56.0294 46.4965 55.9021 46.8454 55.9174 47.2027L55.9527 47.6955C55.5862 47.5633 55.2659 47.3281 55.0305 47.0184C54.7951 46.7086 54.6546 46.3374 54.626 45.9498Z" fill="black"/>
<path d="M73.3968 44.9647L73.1498 41.3536C74.1936 40.7998 75.0545 39.9564 75.6285 38.9253C76.2024 37.8942 76.465 36.7194 76.3844 35.5428C76.3038 34.3661 75.8836 33.2379 75.1744 32.2942C74.4652 31.3505 73.4973 30.6318 72.3877 30.2247L72.31 29.1055L69.4521 29.3026L69.5297 30.4148C68.4864 30.9698 67.6261 31.814 67.0527 32.8455C66.4792 33.8771 66.2169 35.052 66.2974 36.2288C66.378 37.4056 66.7979 38.5341 67.5066 39.4783C68.2153 40.4226 69.1825 41.1423 70.2918 41.5507L70.5459 45.1618C69.4999 45.7148 68.637 46.5583 68.0616 47.5903C67.4861 48.6223 67.2228 49.7985 67.3034 50.9766C67.384 52.1547 67.8052 53.2843 68.5159 54.2287C69.2266 55.173 70.1964 55.8917 71.308 56.2978L71.3856 57.41L74.2436 57.2129L74.1659 56.1007C75.2091 55.545 76.0689 54.7003 76.6419 53.6684C77.2148 52.6364 77.4764 51.4612 77.3951 50.2843C77.3138 49.1075 76.8931 47.9792 76.1837 47.0354C75.4743 46.0915 74.5065 45.3724 73.3968 44.9647ZM68.7817 37.5806L68.5771 34.6453C68.5545 34.2566 68.6442 33.8695 68.8356 33.5301C69.0269 33.1907 69.312 32.9132 69.6568 32.7306L69.692 33.2234C69.7312 33.576 69.9078 33.8992 70.1837 34.1231C70.4597 34.3469 70.8128 34.4536 71.1669 34.42H71.3009C71.6591 34.4036 71.9962 34.2462 72.2383 33.9823C72.4803 33.7184 72.6076 33.3696 72.5923 33.0122V32.5195C72.955 32.6575 73.2716 32.8943 73.5062 33.2029C73.7407 33.5115 73.8837 33.8795 73.919 34.2652L74.1236 37.2076C74.1466 37.5954 74.057 37.9817 73.8655 38.32C73.674 38.6584 73.3887 38.9344 73.0439 39.1152V38.6647C73.0048 38.312 72.8282 37.9889 72.5522 37.765C72.2763 37.5411 71.9232 37.4344 71.5691 37.468H71.435C71.2567 37.4743 71.0815 37.5159 70.9194 37.5903C70.7574 37.6647 70.6118 37.7704 70.491 37.9014C70.3702 38.0323 70.2767 38.1859 70.2158 38.3532C70.155 38.5204 70.1281 38.6981 70.1366 38.8758L70.1719 39.3615C69.795 39.2263 69.4643 38.9871 69.2183 38.6719C68.9722 38.3567 68.8208 37.9783 68.7817 37.5806ZM75.0621 51.9194C75.0869 52.3076 74.998 52.6945 74.8064 53.0332C74.6147 53.3719 74.3284 53.6477 73.9825 53.8271L73.9331 53.1231C73.8957 52.7697 73.7196 52.4455 73.4432 52.2212C73.1668 51.997 72.8127 51.891 72.4582 51.9265H72.3242C72.1465 51.9337 71.972 51.9759 71.8108 52.0507C71.6495 52.1255 71.5047 52.2314 71.3847 52.3622C71.2647 52.4931 71.1718 52.6464 71.1114 52.8132C71.051 52.98 71.0243 53.1571 71.0328 53.3343L71.0822 54.0382C70.7182 53.9032 70.3999 53.6684 70.164 53.3608C69.928 53.0531 69.784 52.6853 69.7485 52.2996L69.5438 49.3572C69.5191 48.969 69.6079 48.5821 69.7996 48.2434C69.9913 47.9047 70.2775 47.6289 70.6235 47.4496V47.7171C70.6627 48.0697 70.8393 48.3928 71.1152 48.6167C71.3911 48.8406 71.7443 48.9473 72.0983 48.9137H72.31C72.6682 48.8973 73.0053 48.7399 73.2473 48.476C73.4894 48.2121 73.6167 47.8632 73.6014 47.5059V47.2384C73.9645 47.3738 74.2818 47.6089 74.5165 47.9165C74.7513 48.2242 74.894 48.5919 74.9281 48.9771L75.0621 51.9194Z" fill="black"/>
<path d="M41.9171 42.4661C41.8827 42.3275 41.828 42.1946 41.7548 42.0719C41.7548 42.0297 45.8618 35.9337 41.4655 32.6535C37.0692 29.3732 32.5671 34.3358 32.5248 34.3851C31.7491 34.2202 30.9604 34.1236 30.1678 34.0965C28.8969 34.0619 27.6256 34.1491 26.3714 34.357C25.6047 34.4572 24.8519 34.6438 24.1274 34.9131C24.078 34.8708 18.9337 30.5699 15.0314 34.4203C11.1291 38.2707 15.984 43.7472 16.0334 43.7895L15.9276 44.1977C15.6524 46.7248 12.6674 47.7173 12.9638 52.0112C13.2602 56.3051 16.6756 59.6769 23.1959 59.2334L25.8774 59.0504C26.3029 59.4764 26.8141 59.8077 27.3772 60.0225C27.9404 60.2372 28.5427 60.3305 29.1446 60.2963C29.6826 60.2929 30.2198 60.2577 30.7535 60.1907C31.3909 60.1821 32.0172 60.0233 32.5813 59.7273C33.1455 59.4312 33.6314 59.0063 33.9996 58.4873L36.6811 58.3042C43.2014 57.8608 46.1299 54.1722 45.8547 49.7587C45.6642 45.4789 42.531 44.8876 41.9171 42.4661Z" fill="black"/>
</svg>
