<svg width="17" height="17" viewBox="0 0 17 17" fill="none" xmlns="http://www.w3.org/2000/svg">
<path d="M16.07 4.65C15.95 4.28 14.46 4.02 14.46 4.02H12.05C12.01 1.97 10.24 0 8.22 0C6.2 0 4.86 1.97 4.82 4.02H1.61C1.07 4.02 0 4.1 0 4.65C0 5.19 0.41 5.61 0.95 5.61L1.61 5.63V12.06C1.61 14.07 1.71 16.08 4.35 16.08H11.73C14.37 16.08 14.47 14.11 14.47 12.06V5.63L15.13 5.61C15.66 5.61 16.23 5.17 16.07 4.65ZM8.18 1.8C9.21 1.8 10.41 2.97 10.45 4.02H6.43C6.51 3.02 7.15 1.8 8.18 1.8ZM12.67 12.39C12.67 13.52 12.36 14.47 11.25 14.47H4.82C3.83 14.47 3.4 13.52 3.4 12.39V5.61H12.67V12.39ZM9.66 12.78C10.11 12.78 10.44 12.32 10.44 11.78V7.7C10.48 7.16 10.11 6.7 9.66 6.7C9.21 6.7 8.88 7.16 8.88 7.7V11.78C8.88 12.32 9.25 12.78 9.66 12.78ZM6.41 12.78C6.86 12.78 7.19 12.32 7.19 11.78V7.7C7.19 7.16 6.82 6.7 6.41 6.7C5.96 6.7 5.63 7.16 5.63 7.7V11.78C5.63 12.32 5.96 12.78 6.41 12.78Z" fill="#FF888A"/>
</svg>
