<svg width="16" height="16" viewBox="0 0 16 16" fill="none" xmlns="http://www.w3.org/2000/svg">
<path d="M2.84625 12.5C2.88519 12.4996 2.92405 12.4962 2.9625 12.49L6.2475 11.915C6.287 11.908 6.32329 11.8888 6.35125 11.86L14.6313 3.58001C14.7063 3.50501 14.7063 3.38001 14.6313 3.30501L11.385 0.0562628C11.3668 0.0381519 11.3451 0.0238515 11.3213 0.0141943C11.2975 0.00453717 11.272 -0.000283611 11.2463 1.28917e-05C11.2205 -0.000283611 11.195 0.00453717 11.1712 0.0141943C11.1474 0.0238515 11.1257 0.0381519 11.1075 0.0562628L2.82875 8.33751C2.80039 8.36577 2.78122 8.40193 2.77375 8.44126L2.1975 11.7263C2.18117 11.821 2.18566 11.9182 2.21068 12.0111C2.2357 12.104 2.28064 12.1903 2.34237 12.264C2.40411 12.3378 2.48116 12.3972 2.56817 12.4382C2.65518 12.4791 2.75008 12.5007 2.84625 12.5013V12.5ZM4.1625 9.09376L11.2463 2.01126L12.6775 3.44376L5.59375 10.525L3.85625 10.8325L4.1625 9.09376ZM15 14.14H0.625C0.45924 14.14 0.300268 14.2059 0.183058 14.3231C0.065848 14.4403 0 14.5993 0 14.765V15.4688C0 15.555 0.07 15.625 0.15625 15.625H15.4688C15.5102 15.625 15.5499 15.6086 15.5792 15.5792C15.6085 15.5499 15.625 15.5102 15.625 15.4688V14.765C15.625 14.5993 15.5592 14.4403 15.4419 14.3231C15.3247 14.2059 15.1658 14.14 15 14.14Z" fill="#471C1C"/>
</svg>
