<svg width="18" height="18" viewBox="0 0 18 18" fill="none" xmlns="http://www.w3.org/2000/svg">
<rect width="18" height="18" rx="6" fill="black" fill-opacity="0.1"/>
<path opacity="0.5" d="M12.6077 10.2969C12.3352 10.2969 12.1016 10.2044 11.907 10.0195C11.7123 9.82486 11.615 9.58155 11.615 9.28958C11.615 8.9976 11.7123 8.75916 11.907 8.57425C12.1016 8.38933 12.3352 8.29688 12.6077 8.29688C12.8705 8.29688 13.0943 8.38933 13.2792 8.57425C13.4739 8.75916 13.5712 8.9976 13.5712 9.28958C13.5712 9.58155 13.4739 9.82486 13.2792 10.0195C13.0943 10.2044 12.8705 10.2969 12.6077 10.2969Z" fill="black"/>
<path opacity="0.5" d="M9.3002 10.2969C9.02769 10.2969 8.79411 10.2044 8.59947 10.0195C8.40482 9.82486 8.3075 9.58155 8.3075 9.28958C8.3075 8.9976 8.40482 8.75916 8.59947 8.57425C8.79411 8.38933 9.02769 8.29688 9.3002 8.29688C9.56297 8.29688 9.78681 8.38933 9.97173 8.57425C10.1664 8.75916 10.2637 8.9976 10.2637 9.28958C10.2637 9.58155 10.1664 9.82486 9.97173 10.0195C9.78681 10.2044 9.56297 10.2969 9.3002 10.2969Z" fill="black"/>
<path opacity="0.5" d="M5.9927 10.2969C5.72019 10.2969 5.48662 10.2044 5.29197 10.0195C5.09732 9.82486 5 9.58155 5 9.28958C5 8.9976 5.09732 8.75916 5.29197 8.57425C5.48662 8.38933 5.72019 8.29688 5.9927 8.29688C6.25547 8.29688 6.47932 8.38933 6.66423 8.57425C6.85888 8.75916 6.9562 8.9976 6.9562 9.28958C6.9562 9.58155 6.85888 9.82486 6.66423 10.0195C6.47932 10.2044 6.25547 10.2969 5.9927 10.2969Z" fill="black"/>
</svg>
