<svg width="64" height="26" viewBox="0 0 64 26" fill="none" xmlns="http://www.w3.org/2000/svg">
<g filter="url(#filter0_d_35117_22)">
<rect x="1" y="1" width="60" height="22" rx="6" fill="#FFF5A9"/>
<rect x="1" y="1" width="60" height="22" rx="6" stroke="black"/>
</g>
<path d="M14.326 17.112C13.5793 17.112 12.8653 17 12.184 16.776C11.5027 16.5427 10.966 16.244 10.574 15.88L11.092 14.788C11.4653 15.1147 11.9413 15.3853 12.52 15.6C13.0987 15.8147 13.7007 15.922 14.326 15.922C14.8953 15.922 15.3573 15.8567 15.712 15.726C16.0667 15.5953 16.328 15.418 16.496 15.194C16.664 14.9607 16.748 14.6993 16.748 14.41C16.748 14.074 16.636 13.8033 16.412 13.598C16.1973 13.3927 15.9127 13.2293 15.558 13.108C15.2127 12.9773 14.83 12.8653 14.41 12.772C13.99 12.6787 13.5653 12.5713 13.136 12.45C12.716 12.3193 12.3287 12.156 11.974 11.96C11.6287 11.764 11.3487 11.5027 11.134 11.176C10.9193 10.84 10.812 10.4107 10.812 9.888C10.812 9.384 10.9427 8.922 11.204 8.502C11.4747 8.07267 11.8853 7.732 12.436 7.48C12.996 7.21867 13.7053 7.088 14.564 7.088C15.1333 7.088 15.698 7.16267 16.258 7.312C16.818 7.46133 17.3033 7.676 17.714 7.956L17.252 9.076C16.832 8.796 16.3887 8.59533 15.922 8.474C15.4553 8.34333 15.0027 8.278 14.564 8.278C14.0133 8.278 13.5607 8.348 13.206 8.488C12.8513 8.628 12.59 8.81467 12.422 9.048C12.2633 9.28133 12.184 9.54267 12.184 9.832C12.184 10.1773 12.2913 10.4527 12.506 10.658C12.73 10.8633 13.0147 11.0267 13.36 11.148C13.7147 11.2693 14.102 11.3813 14.522 11.484C14.942 11.5773 15.362 11.6847 15.782 11.806C16.2113 11.9273 16.5987 12.086 16.944 12.282C17.2987 12.478 17.5833 12.7393 17.798 13.066C18.0127 13.3927 18.12 13.8127 18.12 14.326C18.12 14.8207 17.9847 15.2827 17.714 15.712C17.4433 16.132 17.0233 16.4727 16.454 16.734C15.894 16.986 15.1847 17.112 14.326 17.112ZM21.4006 17L18.6426 9.58H19.9166L22.3666 16.3H21.7646L24.3126 9.58H25.4466L27.9386 16.3H27.3506L29.8566 9.58H31.0606L28.2886 17H27.0006L24.6626 10.868H25.0546L22.6886 17H21.4006ZM36.798 17V15.432L36.728 15.138V12.464C36.728 11.8947 36.56 11.456 36.224 11.148C35.8973 10.8307 35.4026 10.672 34.74 10.672C34.3013 10.672 33.872 10.7467 33.452 10.896C33.032 11.036 32.6773 11.2273 32.388 11.47L31.828 10.462C32.2106 10.154 32.668 9.92067 33.2 9.762C33.7413 9.594 34.306 9.51 34.894 9.51C35.9113 9.51 36.6953 9.75733 37.246 10.252C37.7966 10.7467 38.072 11.5027 38.072 12.52V17H36.798ZM34.362 17.084C33.8113 17.084 33.326 16.9907 32.906 16.804C32.4953 16.6173 32.178 16.3607 31.954 16.034C31.73 15.698 31.618 15.32 31.618 14.9C31.618 14.4987 31.7113 14.1347 31.898 13.808C32.094 13.4813 32.4066 13.22 32.836 13.024C33.2746 12.828 33.8626 12.73 34.6 12.73H36.952V13.696H34.656C33.984 13.696 33.5313 13.808 33.298 14.032C33.0646 14.256 32.948 14.5267 32.948 14.844C32.948 15.208 33.0926 15.502 33.382 15.726C33.6713 15.9407 34.0726 16.048 34.586 16.048C35.09 16.048 35.5286 15.936 35.902 15.712C36.2846 15.488 36.56 15.1613 36.728 14.732L36.994 15.656C36.8166 16.0947 36.504 16.4447 36.056 16.706C35.608 16.958 35.0433 17.084 34.362 17.084ZM44.4932 17.084C43.8772 17.084 43.3125 16.944 42.7992 16.664C42.2952 16.3747 41.8892 15.95 41.5812 15.39C41.2825 14.83 41.1332 14.13 41.1332 13.29C41.1332 12.45 41.2778 11.75 41.5672 11.19C41.8658 10.63 42.2672 10.21 42.7712 9.93C43.2845 9.65 43.8585 9.51 44.4932 9.51C45.2212 9.51 45.8652 9.66867 46.4252 9.986C46.9852 10.3033 47.4285 10.7467 47.7552 11.316C48.0818 11.876 48.2452 12.534 48.2452 13.29C48.2452 14.046 48.0818 14.7087 47.7552 15.278C47.4285 15.8473 46.9852 16.2907 46.4252 16.608C45.8652 16.9253 45.2212 17.084 44.4932 17.084ZM40.5592 19.716V9.58H41.8472V11.582L41.7632 13.304L41.9032 15.026V19.716H40.5592ZM44.3812 15.908C44.8572 15.908 45.2818 15.8007 45.6552 15.586C46.0378 15.3713 46.3365 15.068 46.5512 14.676C46.7752 14.2747 46.8872 13.8127 46.8872 13.29C46.8872 12.758 46.7752 12.3007 46.5512 11.918C46.3365 11.526 46.0378 11.2227 45.6552 11.008C45.2818 10.7933 44.8572 10.686 44.3812 10.686C43.9145 10.686 43.4898 10.7933 43.1072 11.008C42.7338 11.2227 42.4352 11.526 42.2112 11.918C41.9965 12.3007 41.8892 12.758 41.8892 13.29C41.8892 13.8127 41.9965 14.2747 42.2112 14.676C42.4352 15.068 42.7338 15.3713 43.1072 15.586C43.4898 15.8007 43.9145 15.908 44.3812 15.908Z" fill="#392C1D"/>
<defs>
<filter id="filter0_d_35117_22" x="0.5" y="0.5" width="63" height="25" filterUnits="userSpaceOnUse" color-interpolation-filters="sRGB">
<feFlood flood-opacity="0" result="BackgroundImageFix"/>
<feColorMatrix in="SourceAlpha" type="matrix" values="0 0 0 0 0 0 0 0 0 0 0 0 0 0 0 0 0 0 127 0" result="hardAlpha"/>
<feOffset dx="2" dy="2"/>
<feComposite in2="hardAlpha" operator="out"/>
<feColorMatrix type="matrix" values="0 0 0 0 0 0 0 0 0 0 0 0 0 0 0 0 0 0 1 0"/>
<feBlend mode="normal" in2="BackgroundImageFix" result="effect1_dropShadow_35117_22"/>
<feBlend mode="normal" in="SourceGraphic" in2="effect1_dropShadow_35117_22" result="shape"/>
</filter>
</defs>
</svg>
