<svg width="169" height="82" viewBox="0 0 169 82" fill="none" xmlns="http://www.w3.org/2000/svg">
  <path opacity="0.1" fill-rule="evenodd" clip-rule="evenodd" d="M158.564 49.8007L159.058 40.3688C164.225 38.7644 168.22 33.1511 168.58 26.2781C168.94 19.4051 165.554 13.3885 160.583 11.2693L160.739 8.30027L153.734 7.9332L153.579 10.9022C148.412 12.5065 144.417 18.1199 144.057 24.9929C143.697 31.8659 147.082 37.8825 152.054 40.0017L151.559 49.4336C146.393 51.0379 142.398 56.6514 142.038 63.5244C141.678 70.3974 145.063 76.4139 150.034 78.5333L149.879 81.5021L156.883 81.8691L157.039 78.9004C162.205 77.2959 166.201 71.6826 166.561 64.8096C166.921 57.9366 163.534 51.9363 158.564 49.8007ZM149.677 29.1692L150.084 21.4105C150.193 19.3272 151.47 17.552 153.257 16.7245L153.191 17.9876C153.094 19.8412 154.524 21.4294 156.378 21.5265L156.657 21.5411C158.51 21.6383 160.098 20.2082 160.195 18.3546L160.261 17.0916C161.952 18.1013 163.038 19.984 162.928 22.0836L162.521 29.8424C162.412 31.9256 161.135 33.7009 159.347 34.5283L159.414 33.2653C159.511 31.4117 158.081 29.8235 156.228 29.7264L155.932 29.7109C154.079 29.6137 152.49 31.0438 152.393 32.8973L152.327 34.1604C150.669 33.1525 149.567 31.2689 149.677 29.1692ZM160.517 68.3911C160.408 70.4743 159.131 72.2497 157.344 73.077L157.441 71.2235C157.538 69.3699 156.108 67.7817 154.255 67.6846L153.976 67.67C152.122 67.5728 150.534 69.0028 150.437 70.8564L150.34 72.7099C148.649 71.7004 147.563 69.8176 147.673 67.7179L148.08 59.9592C148.189 57.8759 149.467 56.1007 151.253 55.2732L151.218 55.9457C151.121 57.7993 152.551 59.3875 154.405 59.4847L154.7 59.5001C156.554 59.5973 158.142 58.1673 158.239 56.3137L158.274 55.6411C159.965 56.6509 161.05 58.5335 160.94 60.6331L160.534 68.3919L160.517 68.3911ZM119.19 66.4765L119.654 57.6207C125.207 56.037 129.484 50.4397 129.844 43.5683C130.204 36.6968 126.537 30.6667 121.179 28.5277L121.643 19.6719C126.872 18.1863 130.979 13.1228 131.736 6.78192L125.487 6.45439L125.345 9.16034C125.236 11.2431 123.869 13.0132 121.949 13.8336L122.015 12.5708C122.112 10.7176 120.567 9.12375 118.573 9.01921L118.255 9.00255C116.26 8.89802 114.557 10.3217 114.46 12.1748L114.393 13.4376C112.57 12.4211 111.395 10.5342 111.505 8.435L111.646 5.72905L105.397 5.40156C105.488 11.7868 109.042 17.2519 114.087 19.2759L113.623 28.1317C108.089 29.6999 103.795 35.2964 103.434 42.1842C103.073 49.0721 106.741 55.0857 112.099 57.2248L111.634 66.0806C106.405 67.5661 102.299 72.6298 101.542 78.9704L107.791 79.2979L107.933 76.592C108.042 74.5093 109.409 72.739 111.328 71.9189L111.262 73.1817C111.165 75.035 112.711 76.6288 114.705 76.7333L115.023 76.75C117.018 76.8545 118.721 75.431 118.818 73.5777L118.884 72.3148C120.708 73.3311 121.883 75.2182 121.773 77.3173L121.631 80.0232L127.881 80.3508C127.79 73.9658 124.235 68.5005 119.19 66.4765ZM109.516 46.3838L109.922 38.6268C110.031 36.544 111.399 34.7739 113.318 33.9536L113.252 35.2164C113.155 37.0696 114.7 38.6634 116.695 38.768L117.013 38.7846C119.007 38.8892 120.71 37.4655 120.808 35.6123L120.874 34.3495C122.697 35.366 123.873 37.253 123.763 39.3521L123.356 47.1092C123.247 49.1919 121.88 50.9622 119.96 51.7824L120.026 50.5197C120.123 48.6665 118.579 47.0726 116.584 46.9681L116.266 46.9514C114.271 46.8469 112.568 48.2705 112.471 50.1237L112.405 51.3864C110.599 50.371 109.406 48.483 109.516 46.3838ZM77.6369 32.2095C77.7581 32.5612 77.8261 32.9266 77.8759 33.3074C78.1996 35.9357 79.6433 37.9009 81.2152 40.0405C83.5632 43.2365 86.1972 46.8219 85.8113 53.5887C85.2071 65.1178 76.5047 73.7719 59.705 72.8915L52.818 72.5305C52.7981 72.5788 49.7647 76.2188 43.9386 75.9135C41.0118 75.8587 39.7491 75.661 39.7491 75.661C34.4748 75.1792 31.9851 71.7251 31.7726 71.4302C31.7641 71.4184 31.7592 71.4117 31.758 71.4104L24.871 71.0495C8.07097 70.169 0.321034 60.6526 0.925247 49.1236C1.28013 42.3521 4.28134 39.0641 6.95353 36.1365C8.74684 34.1719 10.392 32.3695 10.9896 29.7856C11.0781 29.4284 11.2014 29.0731 11.342 28.7187C11.2932 28.6504 0.558666 12.8599 11.7286 4.03879C22.7969 -4.70208 34.5118 7.8729 34.7883 8.16967C34.7908 8.1724 34.7924 8.17409 34.793 8.17472C36.7883 7.70374 38.7898 7.44684 40.7636 7.38583C40.7636 7.38583 46.5015 7.04519 50.5376 7.89806L50.555 7.89897C52.529 8.16688 54.51 8.63249 56.4618 9.32682C56.4624 9.32626 56.4641 9.32478 56.4668 9.3224C56.7695 9.05901 69.737 -2.22683 79.8324 7.62441C89.8207 17.3558 78.2042 31.5178 77.6566 32.1854C77.6448 32.1998 77.6381 32.2079 77.6369 32.2095Z" fill="#171717"/>
</svg>
