<svg width="15" height="13" viewBox="0 0 15 13" fill="none" xmlns="http://www.w3.org/2000/svg">
  <path fill-rule="evenodd" clip-rule="evenodd" d="M3.91468 11.3952V6.28773C3.91468 6.13099 3.86291 5.97864 3.76741 5.85435L0.148583 1.14468C-0.210877 0.676866 0.122637 0 0.712605 0H11.3401C11.93 0 12.2636 0.676866 11.9041 1.14468L8.28528 5.85435C8.18978 5.97864 8.138 6.13099 8.138 6.28773V12.2877C8.138 12.8341 7.54744 13.1764 7.07325 12.9049L4.27252 12.0124C4.05121 11.8857 3.91468 11.6502 3.91468 11.3952ZM10.1984 5.68991C9.7566 5.68991 9.39843 6.04808 9.39843 6.48991C9.39843 6.93174 9.7566 7.28991 10.1984 7.28991H13.9069C14.3488 7.28991 14.7069 6.93174 14.7069 6.48991C14.7069 6.04808 14.3488 5.68991 13.9069 5.68991H10.1984ZM9.39843 9.2713C9.39843 8.82947 9.7566 8.4713 10.1984 8.4713H13.9069C14.3488 8.4713 14.7069 8.82947 14.7069 9.2713C14.7069 9.71312 14.3488 10.0713 13.9069 10.0713H10.1984C9.7566 10.0713 9.39843 9.71312 9.39843 9.2713ZM10.1984 11.2527C9.7566 11.2527 9.39843 11.6109 9.39843 12.0527C9.39843 12.4945 9.7566 12.8527 10.1984 12.8527H13.9069C14.3488 12.8527 14.7069 12.4945 14.7069 12.0527C14.7069 11.6109 14.3488 11.2527 13.9069 11.2527H10.1984Z" fill="black"/>
</svg>
