<svg width="114" height="107" viewBox="0 0 114 107" fill="none" xmlns="http://www.w3.org/2000/svg">
  <g filter="url(#filter0_d_33582_755)">
    <path d="M106.167 50C106.167 77.3763 85.6808 99.5 60.4924 99.5H44.6377V0.5H60.4924C85.6808 0.5 106.167 22.6237 106.167 50Z" fill="black" stroke="#F39C36"/>
    <path d="M91.4543 50C91.4543 77.3784 71.0548 99.5 45.9771 99.5C20.8995 99.5 0.5 77.3784 0.5 50C0.5 22.6216 20.8995 0.5 45.9771 0.5C71.0548 0.5 91.4543 22.6216 91.4543 50Z" fill="url(#paint0_linear_33582_755)" stroke="black"/>
    <path d="M79.9463 49.7769C79.9463 71.9351 64.2614 89.7794 45.0498 89.7794C25.8382 89.7794 10.1533 71.9351 10.1533 49.7769C10.1533 27.6187 25.8382 9.77441 45.0498 9.77441C64.2614 9.77441 79.9463 27.6187 79.9463 49.7769Z" fill="black" stroke="#F39C36"/>
    <path d="M45.8907 70.0175C45.3147 69.4186 44.8106 68.7572 44.3883 68.0461C43.3147 66.3935 41.5164 62.5136 41.5118 58.2474C37.7155 60.4164 33.3365 60.8386 31.3225 60.7532C30.5624 60.752 29.8044 60.6738 29.0608 60.5197C29.9049 64.5434 32.0206 67.4803 35.4079 69.3304C38.6957 71.1267 42.19 71.3557 45.8907 70.0175ZM59.5162 52.3467C60.6014 50.9988 61.3697 49.4334 61.7664 47.7617C62.2374 45.8352 62.2466 43.9005 61.7939 41.9576L65.8082 40.8439C66.1176 40.7677 66.4079 40.6305 66.6611 40.4405C66.9144 40.2505 67.1253 40.0119 67.2808 39.7392C67.4354 39.4664 67.5314 39.1655 67.563 38.8551C67.5945 38.5447 67.561 38.2312 67.4643 37.9339C67.3874 37.631 67.248 37.3467 67.0547 37.0984C66.8614 36.8501 66.6183 36.6431 66.3403 36.4902C66.0613 36.3385 65.7536 36.2444 65.436 36.2135C65.1185 36.1826 64.7978 36.2156 64.4938 36.3105L60.0162 37.5545C58.5283 35.6818 56.9952 34.3249 55.4171 33.4837C53.8389 32.6439 52.0176 32.2113 49.9531 32.1859L48.6387 27.6503C48.5612 27.3476 48.4214 27.0636 48.2277 26.8157C48.034 26.5678 47.7906 26.3613 47.5125 26.2088C47.2335 26.0572 46.9257 25.963 46.6082 25.9321C46.2906 25.9012 45.97 25.9343 45.6659 26.0292C45.3569 26.1048 45.0668 26.2413 44.8136 26.4305C44.5604 26.6197 44.3493 26.8575 44.1933 27.1294C44.038 27.4023 43.9414 27.7035 43.9095 28.0143C43.8775 28.3252 43.9109 28.6391 44.0075 28.9369L45.1452 32.8662C43.2395 33.5016 41.5208 34.5821 40.1378 36.0142C39.0164 37.1577 38.126 38.4985 37.5136 39.9659L50.9096 41.5826L59.5162 52.3467ZM31.2835 41.385C28.9517 41.3936 26.7188 42.3086 25.0762 43.9288C23.4335 45.5489 22.5157 47.7414 22.5245 50.0239C22.5333 52.3065 23.4681 54.4921 25.1232 56.1C26.7783 57.7079 29.0182 58.6063 31.35 58.5977H31.4005C33.4466 58.692 38.422 58.1397 41.9637 55.3352L48.9966 43.5225L31.2835 41.385ZM43.8446 56.4579L50.756 44.8495L61.5531 58.4046C62.7105 60.3864 63.0162 62.7371 62.403 64.9396C61.7898 67.1421 60.3078 69.0159 58.2832 70.1488C56.2586 71.2818 53.8571 71.581 51.607 70.9808C49.357 70.3805 47.4427 68.9299 46.2853 66.9481L46.26 66.9032C45.1659 65.2349 43.2 60.8184 43.8446 56.4579Z" fill="url(#paint1_linear_33582_755)"/>
  </g>
  <defs>
    <filter id="filter0_d_33582_755" x="0" y="0" width="113.667" height="107" filterUnits="userSpaceOnUse" color-interpolation-filters="sRGB">
      <feFlood flood-opacity="0" result="BackgroundImageFix"/>
      <feColorMatrix in="SourceAlpha" type="matrix" values="0 0 0 0 0 0 0 0 0 0 0 0 0 0 0 0 0 0 127 0" result="hardAlpha"/>
      <feOffset dx="7" dy="7"/>
      <feComposite in2="hardAlpha" operator="out"/>
      <feColorMatrix type="matrix" values="0 0 0 0 0 0 0 0 0 0 0 0 0 0 0 0 0 0 0.25 0"/>
      <feBlend mode="normal" in2="BackgroundImageFix" result="effect1_dropShadow_33582_755"/>
      <feBlend mode="normal" in="SourceGraphic" in2="effect1_dropShadow_33582_755" result="shape"/>
    </filter>
    <linearGradient id="paint0_linear_33582_755" x1="147.175" y1="50.711" x2="-50.1654" y2="53.2577" gradientUnits="userSpaceOnUse">
      <stop stop-color="#F8F29C"/>
      <stop offset="0.165" stop-color="#F6DB2A"/>
      <stop offset="0.333" stop-color="#F4A435"/>
      <stop offset="0.55" stop-color="#E85A46"/>
      <stop offset="0.699" stop-color="#B93483"/>
      <stop offset="0.867" stop-color="#502B6E"/>
      <stop offset="1" stop-color="#2A2136"/>
    </linearGradient>
    <linearGradient id="paint1_linear_33582_755" x1="94.628" y1="48.9248" x2="-2.04984" y2="50.2723" gradientUnits="userSpaceOnUse">
      <stop stop-color="#F8F29C"/>
      <stop offset="0.165" stop-color="#F6DB2A"/>
      <stop offset="0.333" stop-color="#F4A435"/>
      <stop offset="0.55" stop-color="#E85A46"/>
      <stop offset="0.699" stop-color="#B93483"/>
      <stop offset="0.867" stop-color="#502B6E"/>
      <stop offset="1" stop-color="#2A2136"/>
    </linearGradient>
  </defs>
</svg>
