<svg width="20" height="16" viewBox="0 0 20 16" fill="none" xmlns="http://www.w3.org/2000/svg">
  <path d="M19.2079 7.0877H15.3503C14.9126 7.0877 14.5582 7.43893 14.5582 7.8715V8.11615C14.5582 8.54934 14.9127 8.89996 15.3503 8.89996H19.2079C19.6455 8.89996 20 8.54934 20 8.11615V7.8715C20 7.43893 19.6455 7.0877 19.2079 7.0877ZM10.2573 0.36065C9.05751 1.30097 6.54664 2.61901 4.73978 3.88593L4.73727 3.88716C4.71663 3.8995 4.696 3.96974 4.67537 3.98144C4.46154 4.09974 4.36588 4.42695 3.20549 4.42695H0.941577C0.360765 4.42695 0 4.69498 0 5.29948V10.6727C0 11.2772 0.330728 11.5755 0.941577 11.5755H3.21485C4.36962 11.5773 4.4634 11.902 4.67597 12.0204C4.69661 12.0321 4.71661 12.1023 4.73787 12.1146L4.74038 12.1159C6.49036 13.3828 9.0181 14.8037 10.2579 15.7052C10.6311 15.977 11.8728 16.4545 11.8728 14.7754C11.8728 12.7992 11.8728 3.17913 11.8728 1.21899C11.8728 -0.460755 10.6211 0.0759541 10.2573 0.360633L10.2573 0.36065ZM13.8198 4.06525C14.0249 4.4214 14.4306 4.51076 14.727 4.26489L17.898 1.63063C18.1944 1.38478 18.2682 0.896737 18.0637 0.539963L17.9474 0.33847C17.743 -0.0176808 17.3366 -0.107043 17.0409 0.138828L13.8698 2.77246C13.5734 3.01894 13.499 3.50696 13.7041 3.86313L13.8198 4.06525ZM14.7263 11.7363C14.43 11.4905 14.0242 11.5798 13.8191 11.9353L13.7035 12.1368C13.4984 12.493 13.5734 12.981 13.8692 13.2275L17.0402 15.8611C17.3366 16.107 17.7424 16.0177 17.9468 15.6621L18.0631 15.4606C18.2676 15.1045 18.1932 14.6164 17.8974 14.3699L14.7263 11.7363Z" fill="#131313"/>
</svg>
