<svg width="107" height="100" viewBox="0 0 107 100" fill="none" xmlns="http://www.w3.org/2000/svg">
  <path d="M106.168 50C106.168 77.3763 85.6821 99.5 60.4938 99.5H44.6392V0.5H60.4938C85.6821 0.5 106.168 22.6237 106.168 50Z" fill="#DD7D00" stroke="#924E00"/>
  <path d="M91.4539 50C91.4539 77.3784 71.0545 99.5 45.9769 99.5C20.8994 99.5 0.5 77.3784 0.5 50C0.5 22.6216 20.8994 0.5 45.9769 0.5C71.0545 0.5 91.4539 22.6216 91.4539 50Z" fill="#FCD824" stroke="#924E00"/>
  <path d="M79.946 49.7769C79.946 71.9351 64.2612 89.7794 45.0496 89.7794C25.8381 89.7794 10.1533 71.9351 10.1533 49.7769C10.1533 27.6187 25.8381 9.77441 45.0496 9.77441C64.2612 9.77441 79.946 27.6187 79.946 49.7769Z" fill="#FCBE24" stroke="#924E00"/>
  <path d="M62.7893 56.9307C64.936 59.554 65.3861 62.4054 64.1395 65.4854C62.8929 68.5652 60.4191 70.5855 56.7185 71.546C54.9486 72.0053 53.1432 72.0233 51.3023 71.6001C49.4613 71.1769 47.9524 70.3758 46.7752 69.1971C42.5064 70.9412 38.4955 70.8559 34.7431 68.9411C30.9907 67.0261 28.7356 63.9142 27.9783 59.6054C26.1105 59.1891 24.5231 58.3687 23.216 57.1442C21.9088 55.9199 20.9661 54.3756 20.3878 52.5114C19.4594 49.519 20.1981 46.7167 22.604 44.1045C25.0099 41.4923 27.8016 40.3571 30.979 40.6983L36.5606 41.3171C37.1614 39.5178 38.1983 37.9102 39.6714 36.4944C41.1447 35.0783 42.8849 34.0568 44.8927 33.4297L43.7055 29.6034C43.5077 28.9656 43.572 28.3791 43.8984 27.8438C44.225 27.3085 44.7367 26.9504 45.4341 26.7694C46.1313 26.5885 46.7726 26.6473 47.3577 26.9459C47.9431 27.2446 48.3348 27.7128 48.5325 28.3505L49.9023 32.7655C52.0541 32.79 53.9524 33.2117 55.5974 34.0304C57.2422 34.8491 58.8402 36.1703 60.3912 37.994L65.0574 36.7828C65.7545 36.6019 66.3959 36.6607 66.981 36.9594C67.5663 37.2579 67.9577 37.7262 68.1558 38.3639C68.3536 39.0017 68.2893 39.5881 67.9626 40.1235C67.6363 40.6587 67.1243 41.0169 66.4271 41.1978L62.2438 42.2837C62.7147 44.1756 62.7054 46.0599 62.2154 47.9362C61.7253 49.8125 60.8012 51.4572 59.4431 52.8696L62.7893 56.9307ZM43.3856 63.8752C42.9745 62.5508 42.6957 61.2316 42.549 59.9181C42.4023 58.6046 42.3876 57.2965 42.5051 55.9938C41.4387 56.8537 40.2293 57.5785 38.8766 58.1682C37.5236 58.7576 36.1348 59.1844 34.71 59.4484C35.3036 61.3615 36.3749 62.7133 37.9241 63.5038C39.4733 64.2944 41.2939 64.4182 43.3856 63.8752ZM33.6881 53.3528C35.4043 52.9074 36.8588 52.318 38.0509 51.5844C39.2433 50.8509 40.7026 49.6241 42.4289 47.9036L31.6333 46.7304C29.8954 46.5452 28.5718 46.9021 27.6626 47.8007C26.7533 48.6993 26.5042 49.8109 26.9151 51.1353C27.3108 52.4108 28.0559 53.2246 29.1503 53.5765C30.2447 53.9286 31.7573 53.854 33.6881 53.3528ZM54.892 65.6592C56.2329 65.3113 57.1859 64.6 57.7508 63.526C58.3158 62.4517 58.2391 61.5042 57.5208 60.6835L50.0717 51.8036C49.5398 53.6379 49.2356 55.4131 49.1595 57.129C49.0833 58.845 49.2431 60.3406 49.6389 61.6161C50.1411 63.235 50.8339 64.3936 51.7169 65.0919C52.6002 65.7903 53.6586 65.9794 54.892 65.6592ZM55.1337 47.9457C55.5176 47.3158 55.7451 46.5544 55.8159 45.6615C55.8864 44.7686 55.7849 43.8806 55.5109 42.9976C55.024 41.4278 54.0498 40.2494 52.5886 39.4625C51.1275 38.6756 49.5656 38.498 47.9031 38.9295C46.9376 39.18 46.0714 39.564 45.3045 40.081C44.5377 40.5982 43.943 41.203 43.5206 41.8957L50.6175 42.9161L55.1337 47.9457Z" fill="#451D07"/>
</svg>
