<svg width="15" height="15" viewBox="0 0 15 15" fill="none" xmlns="http://www.w3.org/2000/svg">
  <circle cx="7.5" cy="7.5" r="7" stroke="#FFF5A9"/>
  <path d="M7.154 5.695C7.57867 5.695 7.93833 5.54333 8.233 5.24C8.52767 4.928 8.675 4.551 8.675 4.109C8.675 3.67567 8.52767 3.30733 8.233 3.004C7.93833 2.692 7.57867 2.536 7.154 2.536C6.738 2.536 6.38267 2.692 6.088 3.004C5.78467 3.30733 5.633 3.67567 5.633 4.109C5.633 4.551 5.78467 4.928 6.088 5.24C6.38267 5.54333 6.738 5.695 7.154 5.695ZM7.154 12C7.50933 12 7.77367 11.9003 7.947 11.701C8.11167 11.493 8.22433 11.1853 8.285 10.778C8.337 10.362 8.363 9.77267 8.363 9.01C8.363 8.36867 8.33267 7.86167 8.272 7.489C8.20267 7.11633 8.08133 6.839 7.908 6.657C7.73467 6.475 7.48333 6.384 7.154 6.384C6.79867 6.384 6.53867 6.488 6.374 6.696C6.20067 6.89533 6.088 7.203 6.036 7.619C5.97533 8.02633 5.945 8.61133 5.945 9.374C5.945 10.0153 5.97967 10.5223 6.049 10.895C6.10967 11.2677 6.22667 11.545 6.4 11.727C6.57333 11.909 6.82467 12 7.154 12Z" fill="#FFF5A9"/>
</svg>
