<?xml version="1.0" standalone="no"?><!DOCTYPE svg PUBLIC "-//W3C//DTD SVG 1.1//EN" "http://www.w3.org/Graphics/SVG/1.1/DTD/svg11.dtd"><svg t="1743134835772" class="icon" viewBox="0 0 1066 1024" version="1.1" xmlns="http://www.w3.org/2000/svg" p-id="5950" xmlns:xlink="http://www.w3.org/1999/xlink" width="208.203125" height="200"><path d="M792.021 413.867a12.8 12.8 0 0 1-12.8 12.8H736.3a12.8 12.8 0 0 1-12.8-12.8v-75.478L501.376 566.7a12.8 12.8 0 0 1-18.219 0.17l-30.293-30.208a12.8 12.8 0 0 1-0.17-18.005l222.378-228.523h-75.776a12.8 12.8 0 0 1-12.8-12.8v-42.666a12.8 12.8 0 0 1 12.8-12.8h192.725v192zM714.965 588.8a12.8 12.8 0 0 0-12.8-12.8H659.2a12.8 12.8 0 0 0-12.8 12.8v128.299a17.067 17.067 0 0 1-17.11 17.066h-329.6A17.067 17.067 0 0 1 282.54 717.1V384c0-9.387 7.68-17.067 17.152-17.067h124.16a12.8 12.8 0 0 0 12.8-12.8v-42.666a12.8 12.8 0 0 0-12.8-12.8H299.69A85.461 85.461 0 0 0 214.059 384v333.099c0 47.104 38.314 85.333 85.632 85.333h329.642a85.461 85.461 0 0 0 85.632-85.333V588.8z" p-id="5951"></path></svg>