<svg width="165" height="146" viewBox="0 0 165 146" fill="none" xmlns="http://www.w3.org/2000/svg">
<path d="M83.0481 83L72.1836 89L83.0481 94.6283L95.5709 88.3669L83.0481 83Z" fill="#BC9549" stroke="black" stroke-linejoin="round"/>
<path d="M90.65 140.661L83.0469 145.133V50.2614L95.5697 44L90.65 140.661Z" fill="#76500D" stroke="black" stroke-linejoin="round"/>
<path d="M73.5505 142.766L83.0481 145.133V50.2614L72.1836 44.6331L73.5505 142.766Z" fill="#7A4A12" stroke="black" stroke-linejoin="round"/>
<path d="M8.64563 16.0306C8.78089 14.6197 15.6417 11.1383 19.1935 9.58772C19.8082 9.31939 20.4857 9.74598 20.5357 10.4148L25.295 74.0636C25.3043 74.188 25.2902 74.3131 25.2535 74.4324L15.3865 106.486C15.2015 107.087 14.5145 107.37 13.9598 107.074L4.0749 101.797C3.71878 101.607 3.51189 101.221 3.55042 100.819L4.72002 88.6193C4.73028 88.5123 4.75772 88.4077 4.80128 88.3094L5.78852 86.0828C5.90515 85.8197 5.72979 85.5197 5.44334 85.4922C5.21156 85.47 5.04168 85.2641 5.0639 85.0323L6.23285 72.8392C6.25816 72.5752 6.38731 72.3321 6.59188 72.1633L8.62542 70.4855C9.11219 70.0839 9.10986 69.3374 8.6206 68.9389L7.10749 67.7063C6.88217 67.5227 6.74784 67.2502 6.73948 66.9597L6.06431 43.5048C6.05654 43.235 6.15821 42.9734 6.34621 42.7797L9.91688 39.0996C10.2717 38.7339 10.2948 38.1599 9.97055 37.7669L7.18025 34.3848C7.01147 34.1803 6.93062 33.9196 6.95593 33.6556L8.64563 16.0306Z" fill="#7A4A12" stroke="black" stroke-linecap="round" stroke-linejoin="round"/>
<path d="M151.57 13.6145L18.3626 9.81525C17.7996 9.79919 17.3344 10.251 17.3341 10.8142L17.3214 31.0186L22.1279 37.851C22.4285 38.2784 22.3494 38.8652 21.9464 39.1978L18.6022 41.9568C18.3894 42.1324 18.2586 42.3881 18.2407 42.6634L16.3435 71.893C16.3236 72.1995 16.4456 72.4982 16.6745 72.703L19.2567 75.0136C19.7076 75.4171 19.6996 76.1256 19.2397 76.5189L15.8554 79.4127L14.0999 106.457C14.0619 107.044 14.5355 107.537 15.1231 107.522L154.918 103.99C155.476 103.976 155.914 103.508 155.892 102.95L154.977 80.0678C154.965 79.7735 154.824 79.4993 154.592 79.3184L150.51 76.1438L154.392 70.7481C154.523 70.5668 154.589 70.3472 154.58 70.1241L153.268 37.309C153.259 37.0906 153.179 36.8811 153.04 36.7126L150.537 33.6785L153.631 30.284C153.819 30.0769 153.913 29.7999 153.887 29.5208L152.538 14.5245C152.492 14.0199 152.077 13.629 151.57 13.6145Z" fill="#BC9549"/>
<path d="M150.537 33.6785L153.631 30.284C153.819 30.0769 153.913 29.7999 153.887 29.5208L152.538 14.5245C152.492 14.0199 152.077 13.629 151.57 13.6145L18.3626 9.81525C17.7996 9.79919 17.3344 10.251 17.3341 10.8142L17.3214 31.0186M150.537 33.6785L153.04 36.7126C153.179 36.8811 153.259 37.0906 153.268 37.309L154.58 70.1241C154.589 70.3472 154.523 70.5668 154.392 70.7481L150.51 76.1438M150.537 33.6785C149.439 34.5843 145.64 36.2424 139.227 35.6277M17.3214 31.0186L22.1278 37.851C22.4285 38.2784 22.3494 38.8652 21.9464 39.1978L18.6022 41.9568C18.3894 42.1324 18.2586 42.3881 18.2407 42.6634L16.3435 71.893C16.3236 72.1995 16.4456 72.4982 16.6745 72.703L19.2567 75.0136C19.7076 75.4171 19.6996 76.1256 19.2397 76.5189L15.8554 79.4127M17.3214 31.0186C24.463 30.3551 42.7347 29.6126 50.6733 31.1826M150.51 76.1438L154.592 79.3184C154.824 79.4993 154.965 79.7735 154.977 80.0678L155.892 102.95C155.914 103.508 155.476 103.976 154.918 103.99L15.1231 107.522C14.5355 107.537 14.0619 107.044 14.0999 106.457L15.8554 79.4127M150.51 76.1438L133.285 76.5147M15.8554 79.4127C22.0266 81.3526 35.0087 84.8891 37.567 83.5165M95.1011 21.2859C107.65 20.4667 134.352 18.982 140.764 19.5968" stroke="black" stroke-linecap="round" stroke-linejoin="round"/>
</svg>
