<svg width="87" height="91" viewBox="0 0 87 91" fill="none" xmlns="http://www.w3.org/2000/svg">
<g filter="url(#filter0_i_22057_76)">
<path d="M60 89.5V82.8042C60 82.0188 60.864 81.54 61.53 81.9562L66.858 85.2862C67.4267 85.6417 67.4907 86.4459 66.9686 86.8669C64.6873 88.7065 62.5187 89.9427 60.9851 90.3516C60.4514 90.4939 60 90.0523 60 89.5Z" fill="#E588FF"/>
</g>
<path d="M60.5 89.5V82.8042C60.5 82.4115 60.932 82.1721 61.265 82.3802L66.593 85.7102C66.883 85.8915 66.8976 86.2819 66.6548 86.4777C64.3947 88.3002 62.2907 89.4861 60.8563 89.8685C60.7631 89.8933 60.689 89.8705 60.627 89.8147C60.558 89.7526 60.5 89.6417 60.5 89.5Z" stroke="black"/>
<g filter="url(#filter1_i_22057_76)">
<circle cx="43.5" cy="43.5" r="43.5" fill="#E588FF"/>
</g>
<circle cx="43.5" cy="43.5" r="43" stroke="black"/>
<path d="M34.0007 12.2652C48.5007 8.49931 58.5006 13 65.5007 19.4992M71.5006 26.5C72.185 27.2444 73.5006 29 73.5006 30" stroke="white" stroke-width="5" stroke-linecap="round"/>
<path d="M30.2922 47.5391C30.6063 48.4603 30.7449 49.3217 30.7082 50.123C30.6841 50.9201 30.5077 51.6423 30.1789 52.2897C30.8148 52.7914 31.236 53.3451 31.4425 53.9508C31.6189 54.4683 31.5632 54.9662 31.2755 55.4446C31.0004 55.9187 30.6105 56.2418 30.1057 56.4139C29.8154 56.5128 29.5353 56.559 29.2654 56.5524C28.9955 56.5458 28.6852 56.4825 28.3344 56.3626C28.0301 56.2551 27.7148 56.0738 27.3884 55.8188C27.062 55.5638 26.7754 55.2811 26.5288 54.9708C26.0951 55.0623 25.6421 55.097 25.1697 55.0749C25.3831 55.4529 25.5263 55.7492 25.5995 55.9637C26.0081 57.1627 25.5878 57.9751 24.3384 58.401C23.2909 58.758 22.344 58.3976 21.4976 57.3197C20.6512 56.2418 19.9269 54.8194 19.3246 53.0526C18.9159 51.8537 18.7476 50.6573 18.8196 49.4636C18.9 48.2529 19.2784 47.173 19.9551 46.224C20.6274 45.2623 21.6072 44.562 22.8945 44.1232C23.9294 43.7705 24.9448 43.6708 25.941 43.8243C26.9328 43.9652 27.8125 44.3556 28.58 44.9955C29.3601 45.6311 29.9309 46.479 30.2922 47.5391ZM23.5156 50.8422C23.6618 51.2713 23.9613 51.5918 24.4139 51.8038C24.8621 52.0031 25.3071 52.0275 25.7489 51.877C26.2032 51.7221 26.5406 51.431 26.7612 51.0036C26.9901 50.5593 27.0314 50.1227 26.8852 49.6936C26.7346 49.2519 26.4352 48.9313 25.9869 48.732C25.5469 48.5157 25.0997 48.485 24.6454 48.6399C24.2037 48.7904 23.8684 49.0879 23.6395 49.5321C23.4106 49.9764 23.3693 50.4131 23.5156 50.8422ZM36.7679 54.1429C35.7835 54.4785 34.9005 54.5329 34.1189 54.3063C33.333 54.0671 32.796 53.5247 32.5077 52.6791C32.2582 51.9472 32.3822 51.2569 32.8795 50.6084C33.3769 49.9599 34.1051 49.4722 35.0643 49.1453C35.4176 49.0248 35.7565 48.9445 36.0809 48.9044C36.4136 48.8473 36.6497 48.8373 36.7891 48.8743C36.6815 48.5588 36.4608 48.3452 36.127 48.2337C35.7888 48.1094 35.3484 48.1398 34.8057 48.3248C34.5659 48.4066 34.3768 48.4922 34.2382 48.5817C34.0997 48.6711 33.955 48.7839 33.8041 48.9198C33.6533 49.0558 33.5086 49.1685 33.37 49.258C33.2441 49.3431 33.0613 49.4266 32.8215 49.5083C32.4176 49.646 32.0677 49.6526 31.7717 49.5281C31.4714 49.391 31.2481 49.1079 31.1019 48.6788C30.9341 48.1866 30.9688 47.7099 31.206 47.2487C31.4558 46.7832 31.8241 46.3759 32.3109 46.0269C32.7933 45.6652 33.3059 45.3919 33.8486 45.2069C34.9213 44.8412 35.8861 44.7377 36.7432 44.8964C37.6085 45.0381 38.3234 45.379 38.8878 45.9191C39.4649 46.4549 39.889 47.1203 40.16 47.9154C40.3062 48.3445 40.4039 48.7549 40.4529 49.1467C40.5146 49.5342 40.523 49.8483 40.4783 50.0889C40.7066 50.1802 40.8993 50.3117 41.0565 50.4835C41.2263 50.651 41.3478 50.842 41.4209 51.0566C41.5457 51.4225 41.527 51.7811 41.3649 52.1321C41.2155 52.4789 40.9388 52.7211 40.535 52.8588C40.2321 52.962 39.971 53.0017 39.7515 52.9779C39.5321 52.9541 39.2829 52.8841 39.0038 52.7679C38.7528 53.0648 38.4531 53.3219 38.1046 53.5393C37.7687 53.7524 37.3231 53.9536 36.7679 54.1429ZM36.4947 52.1019C36.7597 52.0115 36.9486 51.8838 37.0613 51.7186C37.1867 51.549 37.2214 51.3823 37.1655 51.2182C37.1095 51.0541 36.9802 50.9433 36.7774 50.8856C36.5873 50.8237 36.3597 50.8379 36.0946 50.9282C35.8296 51.0185 35.6344 51.1485 35.5091 51.318C35.3963 51.4832 35.3679 51.6478 35.4239 51.8119C35.4798 51.9759 35.6028 52.0889 35.793 52.1509C35.9958 52.2086 36.2297 52.1922 36.4947 52.1019ZM50.1182 49.5921C49.6639 49.7469 49.2801 49.7369 48.9669 49.5619C48.6663 49.3827 48.4284 49.1186 48.2532 48.7698C48.0779 48.4211 47.8914 47.9564 47.6935 47.3759C47.4397 46.6313 47.143 46.0915 46.8034 45.7565C46.4638 45.4214 46.0668 45.3314 45.6125 45.4862C45.196 45.6282 44.9494 45.9377 44.8725 46.4147C44.8039 46.8747 44.8879 47.4518 45.1246 48.1459C45.3526 48.8148 45.5057 49.3261 45.584 49.6797C45.6623 50.0334 45.6393 50.3793 45.5151 50.7174C45.3866 51.043 45.0763 51.2896 44.5841 51.4574C43.8647 51.7026 43.2029 51.4141 42.5986 50.5917C41.99 49.7568 41.4727 48.7146 41.0468 47.4652C40.0144 44.4363 40.1355 42.7046 41.4101 42.2701C41.7635 42.1497 42.0838 42.1391 42.3712 42.2383C42.6543 42.325 42.8938 42.511 43.0897 42.7964C43.1935 42.5637 43.3922 42.32 43.6856 42.065C43.9916 41.8057 44.3403 41.6094 44.7315 41.476C46.1197 41.0028 47.3267 41.1549 48.3523 41.9322C49.3906 42.7052 50.2044 43.9562 50.7938 45.6852C51.1423 46.7074 51.2851 47.5603 51.2222 48.2438C51.1551 48.9146 50.7871 49.3641 50.1182 49.5921ZM58.741 41.4125C59.0121 41.5878 59.4677 41.9325 60.1079 42.4468C60.8668 43.0615 61.3387 43.6402 61.5237 44.1828C61.6743 44.6246 61.6431 45.0085 61.4303 45.3346C61.2132 45.6481 60.909 45.8715 60.5178 46.0048C60.1518 46.1296 59.7279 46.1051 59.246 45.9312C58.7768 45.7531 58.252 45.4742 57.6718 45.0944C57.0491 44.6728 56.6275 44.3657 56.4069 44.1732C56.2644 44.2923 56.1029 44.4177 55.9225 44.5497C56.1568 45.5263 56.2146 46.2743 56.0958 46.7938C55.9771 47.3132 55.6463 47.6654 55.1037 47.8504C54.5484 48.0397 54.0292 47.9631 53.5462 47.6206C53.0632 47.2781 52.5825 46.6531 52.1042 45.7456C51.6384 44.8338 51.1366 43.5891 50.5989 42.0116C50.0869 40.5098 49.7203 39.2895 49.4989 38.3507C49.2858 37.395 49.253 36.5962 49.4004 35.9543C49.5436 35.2998 49.9433 34.8607 50.5995 34.637C51.1422 34.452 51.6106 34.5036 52.0047 34.7919C52.4114 35.0759 52.7666 35.5394 53.0703 36.1824C53.3823 36.8086 53.7277 37.6769 54.1062 38.7875L54.5128 39.9801L54.5566 39.9229C55.1208 39.1812 55.6333 38.5769 56.0939 38.11C56.5672 37.6387 57.031 37.3257 57.4853 37.1708C58.0027 36.9944 58.4668 37.0334 58.8775 37.2879C59.2966 37.5254 59.5792 37.8587 59.7255 38.2878C59.8804 38.7421 59.8709 39.2102 59.6971 39.692C59.5232 40.1739 59.2046 40.7474 58.741 41.4125ZM66.1855 44.1151C65.0749 44.4937 64.1292 44.6118 63.3481 44.4695C62.5671 44.3272 62.0777 43.9658 61.8798 43.3853C61.7507 43.0067 61.778 42.6734 61.9616 42.3854C62.1535 42.0806 62.4513 41.8593 62.8552 41.7216C63.0823 41.6442 63.2761 41.6134 63.4364 41.6291C63.5968 41.6449 63.7657 41.6859 63.9432 41.7522C64.0743 41.8061 64.1778 41.8413 64.2539 41.8576C64.3425 41.8697 64.4373 41.8585 64.5382 41.8241C64.8033 41.7337 64.9035 41.5939 64.839 41.4046C64.7788 41.2279 64.6642 41.1191 64.4952 41.078C64.322 41.0244 64.0413 40.9862 63.6533 40.9636C63.2948 40.9449 63.0564 40.9276 62.9382 40.9115C62.2631 40.8317 61.7221 40.6499 61.3154 40.3659C60.9087 40.082 60.6322 39.7254 60.486 39.2963C60.3225 38.8168 60.338 38.3044 60.5325 37.7591C60.7353 37.197 61.107 36.6758 61.6477 36.1957C62.1967 35.6986 62.8876 35.3082 63.7206 35.0242C64.4399 34.779 65.1243 34.6584 65.7736 34.6625C66.4356 34.6622 66.9972 34.7807 67.4584 35.0179C67.9153 35.2425 68.2148 35.563 68.3567 35.9795C68.4901 36.3707 68.465 36.7103 68.2814 36.9983C68.1104 37.2819 67.8167 37.4947 67.4003 37.6367C67.2362 37.6926 67.0994 37.7252 66.9898 37.7344C66.8886 37.7266 66.7493 37.7107 66.5721 37.6866C66.4665 37.6662 66.3568 37.6543 66.2429 37.6509C66.1417 37.6431 66.0343 37.6586 65.9207 37.6973C65.8197 37.7317 65.7443 37.7997 65.6944 37.9012C65.6402 37.9902 65.6303 38.0851 65.6647 38.1861C65.7292 38.3754 65.9154 38.4669 66.2231 38.4606C67.0368 38.4508 67.7269 38.5537 68.2934 38.7691C68.8725 38.9802 69.2717 39.4076 69.4911 40.0512C69.7707 40.8715 69.6052 41.6464 68.9946 42.3758C68.3965 43.1008 67.4602 43.6806 66.1855 44.1151Z" fill="black"/>
<defs>
<filter id="filter0_i_22057_76" x="60" y="81.8027" width="7.32422" height="8.57617" filterUnits="userSpaceOnUse" color-interpolation-filters="sRGB">
<feFlood flood-opacity="0" result="BackgroundImageFix"/>
<feBlend mode="normal" in="SourceGraphic" in2="BackgroundImageFix" result="shape"/>
<feColorMatrix in="SourceAlpha" type="matrix" values="0 0 0 0 0 0 0 0 0 0 0 0 0 0 0 0 0 0 127 0" result="hardAlpha"/>
<feOffset dy="-10"/>
<feComposite in2="hardAlpha" operator="arithmetic" k2="-1" k3="1"/>
<feColorMatrix type="matrix" values="0 0 0 0 0 0 0 0 0 0 0 0 0 0 0 0 0 0 0.25 0"/>
<feBlend mode="normal" in2="shape" result="effect1_innerShadow_22057_76"/>
</filter>
<filter id="filter1_i_22057_76" x="0" y="0" width="87" height="87" filterUnits="userSpaceOnUse" color-interpolation-filters="sRGB">
<feFlood flood-opacity="0" result="BackgroundImageFix"/>
<feBlend mode="normal" in="SourceGraphic" in2="BackgroundImageFix" result="shape"/>
<feColorMatrix in="SourceAlpha" type="matrix" values="0 0 0 0 0 0 0 0 0 0 0 0 0 0 0 0 0 0 127 0" result="hardAlpha"/>
<feOffset dy="-10"/>
<feComposite in2="hardAlpha" operator="arithmetic" k2="-1" k3="1"/>
<feColorMatrix type="matrix" values="0 0 0 0 0 0 0 0 0 0 0 0 0 0 0 0 0 0 0.25 0"/>
<feBlend mode="normal" in2="shape" result="effect1_innerShadow_22057_76"/>
</filter>
</defs>
</svg>
