<svg width="55" height="61" viewBox="0 0 55 61" fill="none" xmlns="http://www.w3.org/2000/svg">
<path d="M28.7707 58.7841L30.0098 55.5037C30.4232 54.4094 31.8745 54.1884 32.5949 55.1101L34.5822 57.6529C35.251 58.5086 34.8103 59.6956 33.8227 59.8782C32.1127 60.1943 30.6163 60.3038 29.4782 60.2236C29.1428 60.2 28.9172 60.026 28.7914 59.7773C28.6594 59.5162 28.6314 59.1528 28.7707 58.7841Z" fill="#3FBBBB" stroke="black"/>
<g filter="url(#filter0_i_22057_76)">
<circle cx="27.5" cy="27.5" r="27.5" fill="#56FFFF"/>
</g>
<circle cx="27.5" cy="27.5" r="27" stroke="black"/>
<path d="M26.5 7.5C34 7.5 39.5 10.5 43 15M47 21.5C47.3125 22.002 47.7 22.7471 48 23.5" stroke="white" stroke-width="3" stroke-linecap="round"/>
<path d="M20.0769 26.1592C20.1443 26.8861 20.0944 27.5385 19.927 28.1164C19.7696 28.6934 19.5143 29.1891 19.1611 29.6035C19.5368 30.0809 19.7468 30.5585 19.7911 31.0364C19.829 31.4447 19.7011 31.798 19.4074 32.0964C19.1236 32.3939 18.7826 32.5611 18.3843 32.598C18.1553 32.6193 17.943 32.6038 17.7473 32.5517C17.5517 32.4995 17.3365 32.399 17.1017 32.25C16.8987 32.1182 16.7005 31.9307 16.5072 31.6875C16.3139 31.4443 16.1546 31.188 16.0291 30.9184C15.6969 30.909 15.3604 30.8549 15.0198 30.7559C15.1091 31.069 15.1616 31.3102 15.1773 31.4795C15.2651 32.4254 14.8161 32.9441 13.8303 33.0355C13.0038 33.1122 12.3765 32.6833 11.9484 31.7488C11.5203 30.8144 11.2416 29.6501 11.1123 28.2561C11.0245 27.3102 11.1116 26.4083 11.3735 25.5504C11.6444 24.6817 12.1098 23.9606 12.7697 23.3872C13.4286 22.8039 14.2659 22.4651 15.2815 22.3709C16.098 22.2952 16.856 22.4006 17.5555 22.6872C18.254 22.9639 18.827 23.4029 19.2744 24.0041C19.7318 24.6044 19.9993 25.3228 20.0769 26.1592ZM14.556 27.3793C14.5874 27.7179 14.7495 28.0041 15.0424 28.2381C15.3343 28.4621 15.6545 28.5579 16.003 28.5256C16.3615 28.4923 16.6586 28.3392 16.8944 28.0663C17.1393 27.7825 17.246 27.4713 17.2146 27.1327C17.1823 26.7842 17.0201 26.498 16.7282 26.274C16.4453 26.0391 16.1246 25.9383 15.7661 25.9715C15.4176 26.0039 15.121 26.1619 14.8761 26.4458C14.6313 26.7296 14.5246 27.0408 14.556 27.3793ZM24.5668 32.0246C23.8399 32.092 23.186 31.9719 22.6051 31.6642C22.0233 31.3466 21.553 30.878 21.1942 30.2585C20.8445 29.6281 20.6299 28.8848 20.5505 28.0285C20.4729 27.192 20.5464 26.5224 20.7709 26.0195C20.9954 25.5166 21.3467 25.243 21.8246 25.1987C22.671 25.1202 23.1343 25.5141 23.2147 26.3804C23.2313 26.5596 23.2411 26.7194 23.2441 26.8597C23.2461 26.9901 23.2468 27.1055 23.2461 27.206C23.2432 27.608 23.2528 27.9284 23.275 28.1674C23.3156 28.6055 23.4362 28.9308 23.6367 29.1432C23.8371 29.3556 24.0668 29.4498 24.3257 29.4258C24.5945 29.4008 24.8034 29.271 24.9524 29.0362C25.1104 28.7906 25.1686 28.4437 25.127 27.9956C25.0975 27.677 25.0553 27.3847 25.0005 27.1186C24.9822 27.0299 24.9603 26.9014 24.9346 26.733C24.908 26.5547 24.8878 26.3909 24.874 26.2415C24.7927 25.3653 25.1752 24.8879 26.0216 24.8094C26.4995 24.7651 26.8901 24.9699 27.1933 25.4238C27.5056 25.8669 27.701 26.5116 27.7795 27.3579C27.9023 28.6823 27.6915 29.7664 27.1472 30.6102C26.6018 31.4442 25.7417 31.9156 24.5668 32.0246ZM30.5733 31.4373C30.0755 31.4835 29.685 31.3339 29.4019 30.9886C29.1188 30.6433 28.8992 30.1163 28.7431 29.4077C28.596 28.6882 28.4624 27.6812 28.3424 26.3868C28.2269 25.1421 28.1667 24.1685 28.1618 23.466C28.1669 22.7625 28.2745 22.1901 28.4846 21.7488C28.7047 21.3066 29.0836 21.0606 29.6213 21.0107C30.159 20.9608 30.5717 21.1335 30.8594 21.5286C31.1571 21.9228 31.3681 22.4656 31.4925 23.1571C31.6269 23.8476 31.7518 24.8152 31.8672 26.0599C31.9808 27.2846 32.018 28.2804 31.9786 29.0473C31.9483 29.8034 31.8213 30.3826 31.5975 30.785C31.3728 31.1774 31.0314 31.3949 30.5733 31.4373ZM36.5595 30.9122C35.8226 30.9806 35.157 30.8967 34.5627 30.6606C33.9683 30.4245 33.4878 30.0623 33.1212 29.5741C32.7635 29.075 32.5543 28.4968 32.4933 27.8396C32.4333 27.1924 32.5322 26.5807 32.7901 26.0044C33.0579 25.4272 33.4554 24.9484 33.9825 24.5681C34.5096 24.1878 35.1267 23.9649 35.8337 23.8993C36.4709 23.8402 37.0455 23.9174 37.5574 24.1311C38.0693 24.3447 38.4746 24.6536 38.7732 25.0578C39.0709 25.4519 39.241 25.8781 39.2835 26.3361C39.3527 27.0829 39.1197 27.6569 38.5845 28.058C38.0583 28.4483 37.4069 28.6794 36.6302 28.7515C36.1124 28.7995 35.6683 28.7754 35.2978 28.6792C35.6418 29.1394 36.1573 29.3376 36.8444 29.2739C37.1232 29.2481 37.4186 29.1855 37.7308 29.0862C37.8475 29.0453 37.9607 29.0197 38.0702 29.0096C38.2892 28.9893 38.4686 29.0279 38.6082 29.1254C38.7577 29.222 38.8413 29.3649 38.8588 29.5541C38.8875 29.8627 38.7232 30.1491 38.3661 30.4132C38.008 30.6674 37.4058 30.8337 36.5595 30.9122ZM35.1736 26.8529C35.2762 26.984 35.4053 27.0774 35.5612 27.1333C35.726 27.1782 35.9031 27.192 36.0922 27.1744C36.3113 27.1541 36.4959 27.0868 36.646 26.9724C36.806 26.8571 36.8786 26.7198 36.8638 26.5605C36.8472 26.3813 36.7582 26.2339 36.5969 26.1183C36.4454 26.0018 36.2353 25.956 35.9665 25.9809C35.6976 26.0059 35.4914 26.1104 35.3478 26.2944C35.2132 26.4676 35.1551 26.6537 35.1736 26.8529ZM43.0003 30.3148C42.1241 30.3961 41.4137 30.3164 40.8691 30.0756C40.3246 29.8349 40.031 29.4855 39.9886 29.0275C39.9608 28.7288 40.0392 28.4905 40.2235 28.3127C40.4169 28.124 40.673 28.0149 40.9916 27.9854C41.1708 27.9688 41.3175 27.9803 41.4317 28.0199C41.5458 28.0595 41.6618 28.1191 41.7796 28.1985C41.8658 28.2608 41.9351 28.3046 41.9877 28.3299C42.0502 28.3542 42.1213 28.3627 42.2009 28.3553C42.41 28.3359 42.5077 28.2515 42.4938 28.1021C42.4809 27.9627 42.4164 27.8633 42.3004 27.8037C42.1835 27.7342 41.9855 27.6572 41.7065 27.5726C41.4484 27.4961 41.2776 27.4416 41.1942 27.4092C40.7159 27.2326 40.3533 27.0051 40.1066 26.7267C39.8598 26.4483 39.7207 26.1399 39.6893 25.8013C39.6542 25.4229 39.7554 25.052 39.9928 24.6885C40.2393 24.3142 40.6018 23.9993 41.0803 23.7441C41.5678 23.4779 42.1401 23.3143 42.7973 23.2534C43.3648 23.2007 43.885 23.2328 44.3578 23.3497C44.8406 23.4656 45.2293 23.6505 45.5241 23.9043C45.8178 24.1482 45.98 24.4345 46.0104 24.7631C46.0391 25.0718 45.9612 25.315 45.7768 25.4928C45.6024 25.6696 45.3509 25.7733 45.0223 25.8038C44.8929 25.8158 44.7874 25.8155 44.7059 25.803C44.6334 25.7796 44.5347 25.7436 44.4097 25.6949C44.3363 25.6615 44.2584 25.6336 44.1759 25.6111C44.1035 25.5877 44.0224 25.5802 43.9328 25.5885C43.8531 25.5959 43.7862 25.6322 43.732 25.6975C43.6769 25.7528 43.653 25.8203 43.6604 25.9C43.6743 26.0493 43.7939 26.1487 44.0195 26.1981C44.6145 26.3337 45.0997 26.5297 45.475 26.7862C45.8602 27.0417 46.0764 27.4234 46.1235 27.9312C46.1836 28.5784 45.927 29.1144 45.3537 29.5391C44.7905 29.963 44.006 30.2215 43.0003 30.3148Z" fill="black"/>
<defs>
<filter id="filter0_i_22057_76" x="0" y="0" width="55" height="55" filterUnits="userSpaceOnUse" color-interpolation-filters="sRGB">
<feFlood flood-opacity="0" result="BackgroundImageFix"/>
<feBlend mode="normal" in="SourceGraphic" in2="BackgroundImageFix" result="shape"/>
<feColorMatrix in="SourceAlpha" type="matrix" values="0 0 0 0 0 0 0 0 0 0 0 0 0 0 0 0 0 0 127 0" result="hardAlpha"/>
<feOffset dy="-10"/>
<feComposite in2="hardAlpha" operator="arithmetic" k2="-1" k3="1"/>
<feColorMatrix type="matrix" values="0 0 0 0 0 0 0 0 0 0 0 0 0 0 0 0 0 0 0.25 0"/>
<feBlend mode="normal" in2="shape" result="effect1_innerShadow_22057_76"/>
</filter>
</defs>
</svg>
