<svg xmlns="http://www.w3.org/2000/svg" width="122" height="235" viewBox="0 0 122 235" fill="none">
  <path d="M120.618 234.323C120.797 234.534 121.112 234.56 121.323 234.382C121.534 234.203 121.56 233.888 121.382 233.677L120.618 234.323ZM0.543809 0.70467C21.2989 46.9661 48.5535 102.1 71.9937 147.293C83.7139 169.889 94.482 190.003 103.009 205.283C107.272 212.922 110.976 219.355 113.96 224.287C116.937 229.207 119.214 232.663 120.618 234.323L121.382 233.677C120.036 232.087 117.798 228.699 114.815 223.77C111.84 218.852 108.142 212.43 103.882 204.795C95.3617 189.528 84.5986 169.423 72.8813 146.832C49.4465 101.65 22.2011 46.5339 1.45619 0.29533L0.543809 0.70467Z" fill="black"/>
</svg>