<svg width="193" height="192" viewBox="0 0 193 192" fill="none" xmlns="http://www.w3.org/2000/svg">
<g filter="url(#filter0_i_22057_76)">
<circle cx="96" cy="96" r="95" fill="#FDD54C"/>
</g>
<circle cx="96" cy="96" r="95.5" stroke="black"/>
<path d="M98.5 17C120.5 19 139 26 154 42.5M161.5 54C163.5 55.5 165 59 165 59" stroke="white" stroke-width="8" stroke-linecap="round"/>
<path d="M54.974 65.3373C52.3758 65.8886 50.2896 65.6729 48.7156 64.6903C47.1572 63.7042 46.0672 61.7887 45.4456 58.9438C44.8821 56.3647 45.0651 54.2038 45.9946 52.4612C46.9206 50.703 48.5247 49.5746 50.8069 49.076C52.2137 48.7686 53.4869 48.7116 54.6264 48.9048C55.7659 49.098 56.7024 49.5239 57.4359 50.1825C58.1693 50.8411 58.6522 51.7019 58.8844 52.7648C59.0689 53.6089 59.0452 54.4002 58.8135 55.1387C58.5974 55.8737 58.1862 56.5777 57.5799 57.2507C58.1787 57.2181 58.7473 57.4214 59.2854 57.8607C59.8392 58.2965 60.193 58.8661 60.3466 59.5696C60.5106 60.3199 60.4628 61.0755 60.2032 61.8364C59.9559 62.5783 59.4015 63.2644 58.5403 63.8948C57.6946 64.5218 56.5058 65.0026 54.974 65.3373ZM51.4453 56.9451C51.7574 57.0243 52.1245 57.0178 52.5465 56.9256C53.0467 56.8163 53.4509 56.6051 53.7592 56.2921C54.0797 55.9601 54.1871 55.5517 54.0812 55.0672C53.9787 54.5982 53.7143 54.2875 53.2879 54.135C52.8738 53.9635 52.4088 53.934 51.8929 54.0467C51.4865 54.1355 51.158 54.281 50.9074 54.4832C50.709 54.6248 50.5808 54.8248 50.5226 55.0831C50.4644 55.3415 50.4643 55.6036 50.5224 55.8693C50.5804 56.135 50.6898 56.3732 50.8504 56.5837C51.0077 56.7787 51.206 56.8991 51.4453 56.9451ZM52.644 62.4317C52.9684 62.4918 53.3337 62.4775 53.7401 62.3887C54.2403 62.2794 54.648 62.0839 54.9631 61.8021C55.2905 61.5013 55.408 61.1399 55.3158 60.7179C55.227 60.3115 54.9711 60.0398 54.5482 59.9029C54.1252 59.7661 53.6636 59.7523 53.1634 59.8616C52.7726 59.947 52.4424 60.0846 52.1727 60.2746C51.9744 60.4162 51.8427 60.6005 51.7777 60.8276C51.7093 61.0391 51.7007 61.2621 51.7519 61.4966C51.8031 61.731 51.9056 61.9379 52.0595 62.1172C52.2099 62.2809 52.4047 62.3857 52.644 62.4317ZM62.3143 51.8435C61.5484 52.0108 60.8399 51.879 60.1889 51.448C59.5345 51.0014 59.1202 50.3795 58.946 49.5823C58.7753 48.8008 58.8959 48.0784 59.3078 47.4152C59.7163 46.7363 60.3035 46.3132 61.0695 46.1459C61.8198 45.982 62.5221 46.1233 63.1765 46.5699C63.8432 46.9975 64.2619 47.602 64.4326 48.3836C64.6068 49.1808 64.4818 49.9205 64.0577 50.6028C63.6457 51.266 63.0646 51.6795 62.3143 51.8435ZM64.7989 63.2152C64.1581 63.3552 63.642 63.2796 63.2508 62.9884C62.8719 62.6782 62.5474 62.1677 62.2775 61.4569C62.0198 60.7271 61.7406 59.6744 61.4401 58.2989C61.1874 57.1421 61.0423 56.2158 61.0049 55.5197C60.983 54.8203 61.0926 54.2722 61.3335 53.8757C61.5744 53.4791 61.9919 53.2159 62.5858 53.0862C63.2267 52.9461 63.7366 53.0313 64.1156 53.3415C64.5068 53.6327 64.8312 54.1432 65.0889 54.873C65.3589 55.5838 65.6441 56.627 65.9447 58.0025C66.1974 59.1592 66.3347 60.0873 66.3565 60.7868C66.3939 61.4828 66.2922 62.0291 66.0513 62.4257C65.8104 62.8223 65.3929 63.0854 64.7989 63.2152ZM77.7513 60.3852C77.1886 60.5082 76.7324 60.4441 76.3827 60.1929C76.0487 59.9384 75.8009 59.5913 75.6393 59.1516C75.4778 58.712 75.3184 58.1326 75.1613 57.4136C74.9598 56.4914 74.6794 55.8075 74.32 55.3619C73.9606 54.9164 73.4995 54.755 72.9368 54.878C72.421 54.9907 72.0848 55.3262 71.9284 55.8844C71.7842 56.4237 71.806 57.1231 71.9938 57.9828C72.1748 58.8113 72.288 59.4417 72.3333 59.874C72.3786 60.3063 72.3043 60.7156 72.1103 61.1019C71.9128 61.4726 71.5093 61.7245 70.8997 61.8577C70.0087 62.0524 69.2588 61.6184 68.65 60.5559C68.0377 59.4777 67.5626 58.1649 67.2244 56.6174C66.4048 52.8659 66.7843 50.8177 68.3631 50.4728C68.8008 50.3771 69.1842 50.408 69.5134 50.5654C69.8391 50.7071 70.0994 50.9614 70.2942 51.3283C70.4496 51.065 70.7195 50.8013 71.104 50.5372C71.5041 50.2696 71.9464 50.0829 72.431 49.977C74.1505 49.6013 75.5688 49.9465 76.6861 51.0126C77.8191 52.0753 78.6195 53.6773 79.0874 55.8188C79.364 57.0849 79.4185 58.1212 79.2507 58.9276C79.0796 59.7184 78.5798 60.2042 77.7513 60.3852ZM89.4371 47.1949C89.6147 48.0077 89.353 48.6463 88.6519 49.1106C87.9475 49.5593 86.9326 49.9367 85.6074 50.2426C85.6771 50.6368 85.8076 51.2715 85.9989 52.1469C86.1936 53.0379 86.3944 53.6573 86.6014 54.0051C86.7376 54.2538 86.8924 54.4001 87.0658 54.4441C87.2548 54.4847 87.5169 54.4848 87.852 54.4443C87.9648 54.436 88.0872 54.4339 88.2191 54.4378C88.3632 54.4227 88.5246 54.412 88.7034 54.4057C89.08 54.4053 89.404 54.5392 89.6755 54.8074C89.9436 55.06 90.1289 55.4208 90.2314 55.8897C90.3475 56.4212 90.1644 56.8952 89.6822 57.3117C89.2 57.7282 88.4822 58.0407 87.5287 58.249C86.6533 58.4403 85.7624 58.3729 84.8559 58.0468C83.946 57.7052 83.2486 57.137 82.7638 56.3421C82.2497 55.4882 81.7126 53.7795 81.1525 51.2159C80.0515 51.4237 79.1375 51.476 78.4108 51.3728C77.6962 51.2505 77.2655 50.8533 77.1186 50.1811C76.9342 49.337 77.1239 48.706 77.6876 48.288C78.248 47.8544 79.1126 47.5017 80.2816 47.23C80.0552 45.9692 80.0235 44.887 80.1864 43.9835C80.3459 43.0642 80.8711 42.5073 81.7621 42.3126C82.6687 42.1145 83.3402 42.3772 83.7767 43.1007C84.2289 43.8208 84.5879 44.8642 84.8537 46.231C86.2727 45.9046 87.3439 45.7852 88.0673 45.8728C88.8063 45.957 89.2629 46.3977 89.4371 47.1949ZM97.5471 56.0601C96.3904 56.3128 95.317 56.3099 94.327 56.0512C93.3369 55.7926 92.503 55.3115 91.8252 54.608C91.1597 53.8854 90.7142 53.0083 90.4888 51.9766C90.2668 50.9606 90.3041 49.9697 90.6009 49.0042C90.9132 48.0351 91.4507 47.1971 92.2134 46.49C92.976 45.7829 93.9123 45.3081 95.0221 45.0657C96.0225 44.8471 96.95 44.8573 97.8048 45.0964C98.6595 45.3355 99.3635 45.7467 99.9168 46.33C100.467 46.8977 100.82 47.5411 100.977 48.2601C101.233 49.4325 100.976 50.3895 100.204 51.1313C99.445 51.854 98.4558 52.3486 97.2365 52.615C96.4237 52.7926 95.7137 52.8412 95.1066 52.761C95.7429 53.4244 96.6003 53.6384 97.6789 53.4027C98.1166 53.3071 98.5735 53.1499 99.0498 52.9312C99.2272 52.8433 99.4018 52.7806 99.5737 52.743C99.9176 52.6679 100.21 52.6941 100.451 52.8216C100.707 52.9458 100.868 53.1563 100.933 53.4533C101.039 53.9379 100.834 54.4248 100.318 54.9141C99.7995 55.3878 98.8757 55.7698 97.5471 56.0601ZM94.552 49.8851C94.7405 50.0732 94.9639 50.1963 95.2223 50.2545C95.4929 50.2937 95.7767 50.2808 96.0736 50.2159C96.4175 50.1408 96.6975 49.9977 96.9134 49.7868C97.145 49.5724 97.2334 49.3401 97.1788 49.09C97.1173 48.8087 96.9472 48.592 96.6683 48.44C96.405 48.2846 96.0624 48.2531 95.6404 48.3453C95.2183 48.4375 94.9113 48.6438 94.7192 48.9642C94.5394 49.2655 94.4837 49.5725 94.552 49.8851ZM112.418 52.811C111.855 52.9339 111.399 52.8698 111.049 52.6187C110.715 52.3641 110.467 52.017 110.306 51.5773C110.144 51.1377 109.985 50.5584 109.828 49.8393C109.626 48.9171 109.346 48.2332 108.987 47.7876C108.627 47.3421 108.166 47.1808 107.603 47.3037C107.088 47.4164 106.751 47.7519 106.595 48.3102C106.451 48.8494 106.473 49.5488 106.66 50.4086C106.841 51.237 106.955 51.8674 107 52.2997C107.045 52.732 106.971 53.1413 106.777 53.5276C106.579 53.8983 106.176 54.1502 105.566 54.2834C104.675 54.4781 103.925 54.0441 103.317 52.9816C102.704 51.9034 102.229 50.5906 101.891 49.0431C101.071 45.2916 101.451 43.2434 103.03 42.8985C103.467 42.8028 103.851 42.8337 104.18 42.9911C104.506 43.1328 104.766 43.3871 104.961 43.754C105.116 43.4907 105.386 43.227 105.771 42.9629C106.171 42.6953 106.613 42.5086 107.098 42.4027C108.817 42.027 110.235 42.3722 111.353 43.4383C112.486 44.501 113.286 46.103 113.754 48.2445C114.031 49.5107 114.085 50.5469 113.917 51.3533C113.746 52.1441 113.246 52.6299 112.418 52.811ZM124.104 39.6206C124.281 40.4334 124.02 41.072 123.318 41.5363C122.614 41.985 121.599 42.3624 120.274 42.6683C120.344 43.0625 120.474 43.6973 120.665 44.5726C120.86 45.4636 121.061 46.083 121.268 46.4308C121.404 46.6795 121.559 46.8258 121.732 46.8698C121.921 46.9104 122.183 46.9105 122.519 46.87C122.631 46.8617 122.754 46.8596 122.886 46.8635C123.03 46.8484 123.191 46.8377 123.37 46.8314C123.747 46.831 124.071 46.9649 124.342 47.2331C124.61 47.4857 124.795 47.8465 124.898 48.3154C125.014 48.8469 124.831 49.3209 124.349 49.7374C123.867 50.1539 123.149 50.4664 122.195 50.6747C121.32 50.866 120.429 50.7986 119.522 50.4726C118.613 50.1309 117.915 49.5627 117.43 48.7678C116.916 47.9139 116.379 46.2052 115.819 43.6416C114.718 43.8494 113.804 43.9017 113.077 43.7985C112.363 43.6762 111.932 43.279 111.785 42.6068C111.601 41.7627 111.79 41.1317 112.354 40.7137C112.915 40.2801 113.779 39.9274 114.948 39.6557C114.722 38.3949 114.69 37.3128 114.853 36.4092C115.012 35.4899 115.538 34.933 116.429 34.7383C117.335 34.5402 118.007 34.8029 118.443 35.5264C118.895 36.2465 119.254 37.29 119.52 38.6567C120.939 38.3303 122.011 38.2109 122.734 38.2985C123.473 38.3827 123.929 38.8234 124.104 39.6206ZM64.0885 72.3535C64.3139 73.3851 64.048 74.2294 63.2907 74.8861C62.5456 75.5239 61.222 76.0997 59.3199 76.6135C59.5464 77.3502 59.7894 78.3125 60.0489 79.5004C60.4109 81.1574 60.6075 82.5065 60.6385 83.5479C60.6817 84.5702 60.5374 85.3715 60.2056 85.9517C59.8704 86.5163 59.312 86.8839 58.5304 87.0547C57.7645 87.222 57.1237 87.1 56.608 86.6886C56.0923 86.2772 55.6487 85.5962 55.2772 84.6456C54.9057 83.695 54.5424 82.4068 54.1872 80.7812C53.9481 79.687 53.7598 78.7127 53.6223 77.8584C52.3113 78.0793 51.2349 78.1753 50.3933 78.1463C49.564 78.0982 48.9156 77.9041 48.4482 77.564C47.9809 77.224 47.6686 76.6944 47.5115 75.9754C47.3203 75.1 47.467 74.3473 47.9517 73.7174C48.4364 73.0874 49.2505 72.541 50.3941 72.0782C51.5377 71.6155 53.0708 71.1741 54.9934 70.754C56.9317 70.3305 58.5249 70.0889 59.7729 70.0291C61.0209 69.9693 62.0043 70.1229 62.7232 70.4899C63.4421 70.8569 63.8972 71.4781 64.0885 72.3535ZM68.4819 84.9295C67.4815 85.1481 66.6813 84.7088 66.0813 83.6116C65.4969 82.5109 64.9793 80.929 64.5285 78.8656C64.3236 77.9278 64.1919 77.1377 64.1334 76.4953C64.0872 75.834 64.1804 75.2486 64.413 74.7392C64.6578 74.2107 65.132 73.8697 65.8354 73.716C66.2731 73.6204 66.6782 73.6383 67.0509 73.7698C67.4392 73.8978 67.7212 74.1392 67.8969 74.4939C68.1725 74.1061 68.5668 73.7743 69.0797 73.4985C69.5927 73.2226 70.1618 73.0164 70.787 72.8798C71.2872 72.7705 71.8225 72.7845 72.393 72.9219C72.9791 73.0559 73.4919 73.3042 73.9315 73.6667C74.3832 74.0102 74.6637 74.432 74.773 74.9322C74.8823 75.4324 74.7998 75.9172 74.5257 76.3865C74.2638 76.8368 73.8436 77.1252 73.2653 77.2515C73.0777 77.2925 72.8928 77.3083 72.7106 77.299C72.5441 77.2863 72.3932 77.2701 72.2579 77.2505C71.9179 77.1938 71.6542 77.1859 71.4666 77.2269C70.857 77.3601 70.3706 77.7202 70.0076 78.3072C69.6567 78.8752 69.5633 79.5344 69.7272 80.2847C69.9082 81.1131 70.0272 81.8077 70.0842 82.3685C70.1412 82.9292 70.0612 83.4626 69.8442 83.9686C69.6238 84.4589 69.1697 84.7792 68.4819 84.9295ZM81.253 82.1392C80.0337 82.4056 78.9736 82.3506 78.0725 81.9743C77.168 81.5823 76.6013 80.8627 76.3725 79.8154C76.1744 78.9088 76.4159 78.1026 77.097 77.397C77.778 76.6913 78.7126 76.2087 79.9005 75.9492C80.3382 75.8536 80.7532 75.8038 81.1454 75.8C81.5498 75.7772 81.8326 75.7973 81.9938 75.8603C81.9084 75.4695 81.6743 75.185 81.2914 75.0066C80.9051 74.8126 80.3758 74.789 79.7037 74.9358C79.4067 75.0007 79.1695 75.0771 78.9922 75.165C78.8149 75.2529 78.627 75.3676 78.4287 75.5092C78.2304 75.6508 78.0425 75.7656 77.8652 75.8534C77.7035 75.9379 77.4741 76.0126 77.1772 76.0775C76.677 76.1868 76.2588 76.1471 75.9228 75.9585C75.5834 75.7542 75.3556 75.3863 75.2395 74.8549C75.1063 74.2453 75.2125 73.6816 75.5579 73.1639C75.919 72.6429 76.4134 72.2073 77.0412 71.8572C77.6655 71.4915 78.3138 71.2353 78.9859 71.0884C80.3146 70.7981 81.479 70.8057 82.4793 71.1112C83.4918 71.3977 84.2978 71.9013 84.8975 72.6219C85.5127 73.3391 85.928 74.1901 86.1431 75.1748C86.2592 75.7063 86.3199 76.2089 86.3252 76.6827C86.3461 77.1531 86.3135 77.5287 86.2275 77.8096C86.4873 77.9493 86.6992 78.1323 86.8633 78.3585C87.043 78.5813 87.1619 78.8255 87.2199 79.0913C87.319 79.5446 87.248 79.9695 87.0071 80.3661C86.7818 80.7592 86.4191 81.0104 85.9189 81.1197C85.5438 81.2017 85.227 81.2136 84.9686 81.1554C84.7102 81.0972 84.4226 80.9799 84.1056 80.8035C83.7661 81.1233 83.3738 81.3892 82.9287 81.6011C82.4993 81.8095 81.9408 81.9889 81.253 82.1392ZM81.2045 79.6686C81.5328 79.5968 81.7753 79.4702 81.9321 79.2885C82.1046 79.1034 82.1687 78.9093 82.1243 78.7061C82.0799 78.5029 81.9407 78.3531 81.7067 78.2568C81.4884 78.1571 81.2151 78.1431 80.8869 78.2149C80.5586 78.2866 80.3083 78.415 80.1358 78.6001C79.979 78.7817 79.9227 78.9742 79.9671 79.1774C80.0115 79.3806 80.1429 79.532 80.3612 79.6317C80.5952 79.728 80.8763 79.7403 81.2045 79.6686ZM93.8784 79.3806C92.7686 79.6231 91.7257 79.5726 90.7499 79.2289C89.7863 78.8663 88.9839 78.3046 88.3428 77.5439C87.6982 76.7676 87.2683 75.8871 87.0532 74.9023C86.8004 73.7456 86.8215 72.7174 87.1162 71.8178C87.4232 70.8991 87.9091 70.1623 88.5741 69.6076C89.2546 69.0495 90.0326 68.6748 90.9079 68.4836C91.7833 68.2923 92.6058 68.3091 93.3755 68.534C93.2726 68.2126 93.1332 67.8745 92.9574 67.5199C92.7973 67.1618 92.6914 66.9393 92.6396 66.8523C92.4087 66.3951 92.2261 66.0092 92.0919 65.6946C91.9576 65.38 91.8546 65.0585 91.7829 64.7303C91.6395 64.0738 91.7256 63.5309 92.0412 63.1016C92.3569 62.6723 92.7882 62.3979 93.3353 62.2784C94.2107 62.0871 95.0175 62.3694 95.7559 63.1252C96.4942 63.8811 97.1224 64.882 97.6403 66.1282C98.1739 67.371 98.5858 68.6567 98.8761 69.9853C99.2689 71.7829 99.2423 73.6476 98.7963 75.5793C98.3626 77.4919 96.7233 78.7591 93.8784 79.3806ZM93.2097 75.6453C93.6317 75.5531 93.9649 75.3165 94.2092 74.9356C94.4501 74.539 94.5227 74.1219 94.4271 73.6842C94.3315 73.2466 94.0915 72.8977 93.7072 72.6378C93.3228 72.3778 92.9196 72.294 92.4976 72.3862C92.0755 72.4784 91.7362 72.7245 91.4797 73.1245C91.2388 73.521 91.1662 73.9381 91.2618 74.3758C91.3574 74.8135 91.5974 75.1623 91.9817 75.4223C92.3783 75.6632 92.7876 75.7375 93.2097 75.6453ZM101.585 65.7822C100.819 65.9495 100.111 65.8177 99.4599 65.3867C98.8055 64.9401 98.3912 64.3182 98.217 63.521C98.0463 62.7395 98.1668 62.0171 98.5788 61.3539C98.9873 60.675 99.5745 60.2519 100.34 60.0846C101.091 59.9206 101.793 60.062 102.447 60.5086C103.114 60.9361 103.533 61.5407 103.704 62.3223C103.878 63.1195 103.753 63.8592 103.329 64.5414C102.917 65.2047 102.336 65.6182 101.585 65.7822ZM104.07 77.1539C103.429 77.2939 102.913 77.2183 102.522 76.9271C102.143 76.6169 101.818 76.1063 101.548 75.3956C101.291 74.6658 101.012 73.6131 100.711 72.2375C100.458 71.0808 100.313 70.1545 100.276 69.4584C100.254 68.7589 100.364 68.2109 100.604 67.8144C100.845 67.4178 101.263 67.1546 101.857 67.0248C102.498 66.8848 103.008 66.9699 103.387 67.2802C103.778 67.5714 104.102 68.0819 104.36 68.8117C104.63 69.5225 104.915 70.5656 105.216 71.9412C105.468 73.0979 105.606 74.026 105.627 74.7255C105.665 75.4215 105.563 75.9678 105.322 76.3644C105.081 76.7609 104.664 77.0241 104.07 77.1539ZM117.022 74.3239C116.46 74.4469 116.003 74.3828 115.654 74.1316C115.32 73.8771 115.072 73.53 114.91 73.0903C114.749 72.6507 114.589 72.0713 114.432 71.3523C114.231 70.43 113.95 69.7462 113.591 69.3006C113.232 68.855 112.771 68.6937 112.208 68.8167C111.692 68.9294 111.356 69.2649 111.199 69.8231C111.055 70.3623 111.077 71.0618 111.265 71.9215C111.446 72.75 111.559 73.3804 111.604 73.8126C111.65 74.2449 111.575 74.6542 111.381 75.0406C111.184 75.4112 110.78 75.6632 110.171 75.7964C109.28 75.991 108.53 75.5571 107.921 74.4946C107.309 73.4164 106.834 72.1036 106.495 70.5561C105.676 66.8046 106.055 64.7564 107.634 64.4114C108.072 64.3158 108.455 64.3467 108.784 64.504C109.11 64.6458 109.37 64.9001 109.565 65.267C109.721 65.0037 109.99 64.74 110.375 64.4759C110.775 64.2083 111.217 64.0216 111.702 63.9157C113.421 63.54 114.84 63.8852 115.957 64.9513C117.09 66.014 117.89 67.616 118.358 69.7575C118.635 71.0236 118.689 72.0599 118.522 72.8663C118.351 73.657 117.851 74.1429 117.022 74.3239ZM125.952 76.5736C125.046 76.7717 124.266 76.762 123.612 76.5444C122.962 76.3425 122.574 75.9524 122.448 75.3741C122.335 74.8582 122.438 74.3935 122.757 73.9799C123.095 73.5784 123.569 73.3111 124.179 73.1779C124.288 73.154 124.471 73.1304 124.728 73.107C125.051 73.0856 125.345 73.0459 125.611 72.9878C126.283 72.8409 126.836 72.5973 127.269 72.257C127.722 71.9289 127.962 71.5653 127.989 71.1662C127.77 71.3615 127.444 71.5556 127.011 71.7485C126.578 71.9413 126.104 72.0941 125.588 72.2068C124.259 72.4971 123.109 72.4782 122.136 72.1502C121.18 71.8188 120.432 71.3189 119.893 70.6506C119.35 69.9666 118.999 69.2573 118.838 68.5227C118.572 67.3034 118.607 66.1903 118.944 65.1832C119.296 64.1726 119.851 63.339 120.608 62.6822C121.365 62.0254 122.213 61.5946 123.151 61.3897C123.463 61.3214 123.828 61.2663 124.245 61.2244C124.677 61.179 125.041 61.1569 125.336 61.158C125.369 60.7086 125.508 60.3342 125.754 60.0349C126.015 59.7321 126.451 59.5141 127.06 59.3809C128.076 59.1589 128.949 59.6315 129.679 60.7986C130.425 61.9622 131.001 63.4741 131.407 65.3342C131.598 66.2096 131.732 67.0483 131.809 67.8504C132.057 70.1056 131.662 72.0097 130.626 73.5627C129.589 75.1157 128.031 76.1194 125.952 76.5736ZM125.124 68.6231C125.609 68.5173 125.993 68.2531 126.278 67.8307C126.559 67.3926 126.646 66.9313 126.54 66.4467C126.435 65.9621 126.163 65.5794 125.724 65.2984C125.286 65.0174 124.825 64.9299 124.341 65.0358C123.856 65.1416 123.473 65.4136 123.192 65.8517C122.927 66.2863 122.847 66.7459 122.953 67.2305C123.059 67.7151 123.323 68.0996 123.746 68.3839C124.18 68.6493 124.64 68.729 125.124 68.6231ZM53.8347 110.6C52.3028 110.934 50.8606 110.93 49.5082 110.587C48.168 110.225 47.013 109.511 46.0432 108.445C45.07 107.364 44.3887 105.932 43.9994 104.15C43.6852 102.712 43.7197 101.296 44.103 99.9024C44.4863 98.5084 45.1743 97.3099 46.1671 96.3069C47.1599 95.3039 48.3753 94.6453 49.8134 94.3311C51.1733 94.0339 52.4411 94.0272 53.6167 94.3108C54.7889 94.5787 55.7598 95.0872 56.5294 95.8362C57.3147 96.5818 57.8251 97.4938 58.0608 98.5724C58.211 99.2601 58.1376 99.8985 57.8405 100.488C57.559 101.073 57.0509 101.446 56.3163 101.607C55.7692 101.726 55.3266 101.725 54.9887 101.602C54.6507 101.479 54.2749 101.258 53.8612 100.939C53.4476 100.62 53.064 100.401 52.7104 100.282C52.369 100.144 51.9091 100.138 51.3307 100.264C50.5961 100.424 50.0245 100.844 49.616 101.523C49.2197 102.183 49.1086 102.911 49.2828 103.708C49.4706 104.568 49.8483 105.247 50.4157 105.746C50.9954 106.225 51.6682 106.381 52.4341 106.214C53.0281 106.084 53.4783 105.895 53.7846 105.648C54.1065 105.398 54.4271 105.066 54.7461 104.652C55.0129 104.299 55.2638 104.023 55.4988 103.824C55.7494 103.622 56.0779 103.477 56.4843 103.388C57.1096 103.251 57.6447 103.339 58.0896 103.651C58.531 103.948 58.8184 104.401 58.9516 105.011C59.1087 105.73 58.9932 106.475 58.6052 107.248C58.2328 108.017 57.6299 108.706 56.7964 109.314C55.963 109.922 54.9757 110.35 53.8347 110.6ZM63.9117 108.447C63.1457 108.614 62.4947 108.445 61.9585 107.94C61.4223 107.435 60.9411 106.582 60.515 105.381C60.1045 104.177 59.6602 102.481 59.1821 100.293C58.7825 98.4638 58.5169 97.0233 58.3853 95.9712C58.2693 94.9156 58.334 94.0498 58.5793 93.3739C58.8213 92.6823 59.3409 92.2494 60.1381 92.0752C60.8258 91.925 61.3895 92.0311 61.829 92.3936C62.2685 92.7562 62.6069 93.2554 62.8441 93.8915C63.0813 94.5275 63.3075 95.3379 63.5227 96.3227L63.7532 97.3778C64.0317 97.1531 64.2813 96.984 64.5021 96.8702C64.7386 96.753 65.0991 96.6415 65.5837 96.5356C66.6466 96.3034 67.6208 96.3772 68.5062 96.7569C69.3883 97.121 70.1238 97.7137 70.7126 98.5349C71.3171 99.3527 71.7406 100.317 71.9831 101.426C72.2973 102.864 72.4005 104.087 72.2928 105.093C72.1973 106.08 71.7041 106.671 70.8131 106.865C70.1879 107.002 69.6882 106.964 69.3141 106.751C68.9556 106.534 68.6766 106.194 68.4769 105.73C68.2929 105.262 68.1086 104.607 67.9242 103.763C67.7227 102.84 67.4657 102.151 67.1532 101.696C66.8564 101.236 66.4657 101.06 65.9811 101.166C65.4965 101.271 65.2012 101.606 65.095 102.17C65.0011 102.714 65.0454 103.442 65.2278 104.352C65.3966 105.199 65.4888 105.883 65.5043 106.404C65.5354 106.921 65.4271 107.363 65.1794 107.728C64.9439 108.074 64.5213 108.314 63.9117 108.447ZM78.0036 105.368C76.7844 105.635 75.7242 105.58 74.8231 105.203C73.9186 104.811 73.3519 104.092 73.1231 103.044C72.925 102.138 73.1665 101.332 73.8476 100.626C74.5287 99.9203 75.4632 99.4377 76.6512 99.1781C77.0888 99.0825 77.5038 99.0328 77.896 99.029C78.3004 99.0061 78.5833 99.0262 78.7444 99.0893C78.659 98.6985 78.4249 98.4139 78.042 98.2355C77.6557 98.0415 77.1265 98.0179 76.4543 98.1648C76.1573 98.2297 75.9202 98.3061 75.7428 98.394C75.5655 98.4818 75.3777 98.5966 75.1793 98.7382C74.981 98.8798 74.7931 98.9945 74.6158 99.0824C74.4541 99.1668 74.2248 99.2415 73.9278 99.3064C73.4276 99.4157 73.0095 99.376 72.6735 99.1874C72.334 98.9832 72.1063 98.6153 71.9901 98.0838C71.857 97.4742 71.9631 96.9106 72.3085 96.3929C72.6696 95.8718 73.1641 95.4362 73.7918 95.0862C74.4161 94.7205 75.0644 94.4642 75.7365 94.3173C77.0652 94.027 78.2296 94.0347 79.2299 94.3402C80.2424 94.6267 81.0485 95.1302 81.6481 95.8508C82.2634 96.568 82.6786 97.419 82.8937 98.4038C83.0099 98.9352 83.0705 99.4379 83.0758 99.9117C83.0967 100.382 83.0641 100.758 82.9781 101.039C83.2379 101.178 83.4498 101.361 83.6139 101.587C83.7936 101.81 83.9125 102.054 83.9705 102.32C84.0696 102.774 83.9986 103.198 83.7577 103.595C83.5325 103.988 83.1697 104.239 82.6695 104.349C82.2944 104.431 81.9776 104.443 81.7192 104.384C81.4609 104.326 81.1732 104.209 80.8562 104.032C80.5167 104.352 80.1244 104.618 79.6794 104.83C79.25 105.038 78.6914 105.218 78.0036 105.368ZM77.9551 102.898C78.2834 102.826 78.5259 102.699 78.6828 102.517C78.8552 102.332 78.9193 102.138 78.8749 101.935C78.8305 101.732 78.6913 101.582 78.4574 101.486C78.239 101.386 77.9658 101.372 77.6375 101.444C77.3093 101.516 77.0589 101.644 76.8864 101.829C76.7296 102.011 76.6734 102.203 76.7178 102.406C76.7622 102.61 76.8935 102.761 77.1118 102.861C77.3458 102.957 77.6269 102.969 77.9551 102.898ZM88.2396 103.083C87.4581 103.253 86.8087 103.092 86.2916 102.599C85.7744 102.106 85.3226 101.312 84.936 100.218C84.5616 99.1039 84.1524 97.531 83.7085 95.4989C83.2816 93.545 82.9955 92.0107 82.8502 90.8961C82.7205 89.778 82.7794 88.848 83.0267 88.1061C83.2897 87.3608 83.8432 86.8959 84.6873 86.7115C85.5314 86.527 86.2205 86.7204 86.7548 87.2915C87.3046 87.8592 87.746 88.68 88.0788 89.7536C88.4273 90.8239 88.815 92.336 89.2419 94.2899C89.662 96.2126 89.9158 97.7867 90.0035 99.0122C90.1033 100.219 90.0149 101.163 89.7383 101.846C89.4582 102.513 88.9587 102.925 88.2396 103.083ZM94.9486 101.617C94.167 101.787 93.5176 101.626 93.0005 101.133C92.4834 100.64 92.0315 99.8465 91.6449 98.7518C91.2705 97.6381 90.8614 96.0652 90.4174 94.0331C89.9905 92.0792 89.7044 90.5449 89.5591 89.4302C89.4294 88.3121 89.4883 87.3821 89.7356 86.6402C89.9986 85.8949 90.5521 85.4301 91.3962 85.2456C92.2403 85.0612 92.9295 85.2546 93.4637 85.8257C94.0135 86.3934 94.4549 87.2141 94.7877 88.2878C95.1362 89.3581 95.5239 90.8702 95.9508 92.8241C96.3709 94.7467 96.6248 96.3208 96.7124 97.5464C96.8122 98.7529 96.7238 99.6975 96.4472 100.38C96.1671 101.047 95.6676 101.46 94.9486 101.617ZM104.352 99.6113C103.195 99.8641 102.122 99.8611 101.132 99.6025C100.142 99.3438 99.3076 98.8627 98.6298 98.1592C97.9642 97.4366 97.5188 96.5595 97.2933 95.5278C97.0714 94.5118 97.1087 93.521 97.4055 92.5554C97.7178 91.5864 98.2553 90.7484 99.018 90.0413C99.7806 89.3342 100.717 88.8594 101.827 88.6169C102.827 88.3983 103.755 88.4086 104.609 88.6476C105.464 88.8867 106.168 89.2979 106.721 89.8813C107.271 90.449 107.625 91.0924 107.782 91.8114C108.038 92.9837 107.78 93.9408 107.009 94.6826C106.25 95.4053 105.26 95.8998 104.041 96.1662C103.228 96.3438 102.518 96.3925 101.911 96.3122C102.547 96.9757 103.405 97.1896 104.483 96.954C104.921 96.8583 105.378 96.7012 105.854 96.4824C106.032 96.3946 106.206 96.3318 106.378 96.2943C106.722 96.2191 107.015 96.2454 107.255 96.3729C107.512 96.497 107.672 96.7076 107.737 97.0046C107.843 97.4892 107.638 97.9761 107.123 98.4654C106.604 98.9391 105.68 99.321 104.352 99.6113ZM101.357 93.4363C101.545 93.6244 101.768 93.7476 102.027 93.8058C102.297 93.8449 102.581 93.832 102.878 93.7671C103.222 93.692 103.502 93.549 103.718 93.338C103.95 93.1236 104.038 92.8914 103.983 92.6413C103.922 92.3599 103.752 92.1433 103.473 91.9913C103.21 91.8359 102.867 91.8043 102.445 91.8965C102.023 91.9887 101.716 92.195 101.524 92.5154C101.344 92.8167 101.288 93.1237 101.357 93.4363ZM119.222 96.3622C118.66 96.4852 118.204 96.4211 117.854 96.1699C117.52 95.9153 117.272 95.5682 117.11 95.1286C116.949 94.6889 116.79 94.1096 116.632 93.3906C116.431 92.4683 116.151 91.7844 115.791 91.3389C115.432 90.8933 114.971 90.732 114.408 90.855C113.892 90.9677 113.556 91.3031 113.4 91.8614C113.255 92.4006 113.277 93.1001 113.465 93.9598C113.646 94.7883 113.759 95.4186 113.804 95.8509C113.85 96.2832 113.775 96.6925 113.581 97.0788C113.384 97.4495 112.98 97.7015 112.371 97.8347C111.48 98.0293 110.73 97.5954 110.121 96.5329C109.509 95.4547 109.034 94.1419 108.696 92.5944C107.876 88.8429 108.255 86.7947 109.834 86.4497C110.272 86.3541 110.655 86.385 110.985 86.5423C111.31 86.6841 111.571 86.9384 111.765 87.3052C111.921 87.042 112.191 86.7783 112.575 86.5141C112.975 86.2466 113.418 86.0598 113.902 85.954C115.622 85.5783 117.04 85.9235 118.157 86.9896C119.29 88.0522 120.091 89.6543 120.559 91.7958C120.835 93.0619 120.89 94.0982 120.722 94.9046C120.551 95.6953 120.051 96.1812 119.222 96.3622ZM128.153 98.6119C127.246 98.81 126.466 98.8002 125.813 98.5827C125.162 98.3808 124.774 97.9907 124.648 97.4123C124.535 96.8965 124.638 96.4318 124.957 96.0181C125.295 95.6167 125.769 95.3494 126.379 95.2162C126.488 95.1923 126.672 95.1687 126.929 95.1453C127.251 95.1239 127.546 95.0841 127.811 95.0261C128.484 94.8792 129.036 94.6356 129.47 94.2953C129.922 93.9671 130.162 93.6036 130.189 93.2045C129.97 93.3998 129.644 93.5939 129.211 93.7867C128.778 93.9796 128.304 94.1323 127.788 94.245C126.459 94.5353 125.309 94.5165 124.337 94.1885C123.38 93.8571 122.632 93.3572 122.093 92.6889C121.55 92.0049 121.199 91.2956 121.038 90.5609C120.772 89.3417 120.807 88.2285 121.144 87.2214C121.496 86.2109 122.051 85.3773 122.808 84.7205C123.566 84.0637 124.413 83.6329 125.351 83.4279C125.664 83.3596 126.028 83.3045 126.445 83.2626C126.877 83.2173 127.241 83.1952 127.536 83.1962C127.569 82.7469 127.708 82.3725 127.954 82.0731C128.215 81.7704 128.651 81.5524 129.26 81.4192C130.276 81.1972 131.149 81.6697 131.879 82.8368C132.625 84.0005 133.201 85.5124 133.607 87.3725C133.799 88.2479 133.933 89.0866 134.01 89.8886C134.257 92.1439 133.862 94.048 132.826 95.601C131.789 97.154 130.232 98.1576 128.153 98.6119ZM127.325 90.6614C127.809 90.5555 128.194 90.2914 128.478 89.8689C128.759 89.4309 128.846 88.9695 128.741 88.485C128.635 88.0004 128.363 87.6176 127.925 87.3367C127.487 87.0557 127.025 86.9682 126.541 87.074C126.056 87.1799 125.673 87.4519 125.392 87.8899C125.127 88.3246 125.047 88.7842 125.153 89.2688C125.259 89.7534 125.523 90.1378 125.946 90.4222C126.38 90.6875 126.84 90.7673 127.325 90.6614ZM141.629 91.4667C140.472 91.7194 139.398 91.7165 138.408 91.4579C137.418 91.1992 136.584 90.7181 135.907 90.0146C135.241 89.292 134.796 88.4149 134.57 87.3832C134.348 86.3672 134.386 85.3764 134.682 84.4108C134.995 83.4418 135.532 82.6037 136.295 81.8967C137.057 81.1896 137.994 80.7148 139.104 80.4723C140.104 80.2537 141.031 80.264 141.886 80.503C142.741 80.7421 143.445 81.1533 143.998 81.7366C144.548 82.3044 144.902 82.9477 145.059 83.6668C145.315 84.8391 145.057 85.7962 144.286 86.5379C143.526 87.2607 142.537 87.7552 141.318 88.0216C140.505 88.1992 139.795 88.2479 139.188 88.1676C139.824 88.8311 140.682 89.045 141.76 88.8093C142.198 88.7137 142.655 88.5565 143.131 88.3378C143.309 88.25 143.483 88.1872 143.655 88.1497C143.999 88.0745 144.291 88.1007 144.532 88.2283C144.789 88.3524 144.949 88.563 145.014 88.86C145.12 89.3445 144.915 89.8315 144.4 90.3208C143.881 90.7944 142.957 91.1764 141.629 91.4667ZM138.633 85.2917C138.822 85.4798 139.045 85.603 139.304 85.6612C139.574 85.7003 139.858 85.6874 140.155 85.6225C140.499 85.5474 140.779 85.4044 140.995 85.1934C141.226 84.979 141.315 84.7468 141.26 84.4967C141.199 84.2153 141.029 83.9987 140.75 83.8467C140.487 83.6913 140.144 83.6597 139.722 83.7519C139.3 83.8441 138.993 84.0504 138.801 84.3708C138.621 84.6721 138.565 84.9791 138.633 85.2917Z" fill="black"/>
<path d="M182.002 57.5858C149.874 100.857 63.0718 139.981 22.273 154.927C21.6212 155.165 21.4387 155.971 21.8901 156.498C34.8642 171.654 46.1407 177.735 51.506 180.532C51.7351 180.652 51.9934 180.677 52.2413 180.604C100.044 166.473 162.467 134.116 191.325 97.7C191.464 97.5241 191.538 97.3054 191.537 97.081C191.481 77.4471 186.744 65.0324 183.739 57.8027C183.438 57.0789 182.469 56.9565 182.002 57.5858Z" fill="#FF888A" stroke="black" stroke-linecap="round"/>
<path d="M90.5261 144.845C92.1767 144.539 93.5216 144.572 94.5611 144.942C95.5927 145.296 96.3848 146.024 96.9373 147.123C97.5286 148.3 97.5773 149.459 97.0834 150.6C96.605 151.732 95.6302 152.765 94.1592 153.698C94.4472 154.349 94.6303 154.848 94.7085 155.197C94.7945 155.561 94.8027 155.829 94.7333 155.999C94.6793 156.162 94.5517 156.294 94.3503 156.395C94.056 156.543 93.7653 156.505 93.478 156.281C93.2141 156.064 92.8255 155.522 92.3122 154.655C91.3363 155.068 90.3562 155.337 89.3719 155.463C88.3877 155.589 87.5155 155.533 86.7554 155.294C85.9953 155.055 85.4596 154.626 85.1484 154.006C84.8293 153.371 84.7701 152.77 84.9705 152.204C85.171 151.638 85.5655 151.207 86.1541 150.911C86.4793 150.748 86.8319 150.677 87.2118 150.7C87.5917 150.722 88.0763 150.799 88.6657 150.93C89.4567 151.114 90.0537 151.202 90.4568 151.194C90.2157 150.752 89.8344 150.013 89.3131 148.975L87.8135 149.176C86.2403 149.403 84.9263 149.317 83.8713 148.916C82.8163 148.515 81.9581 147.656 81.2967 146.339C80.8843 145.518 80.7275 144.627 80.8265 143.666C80.9331 142.681 81.2724 141.735 81.8443 140.827C82.4317 139.911 83.2054 139.134 84.1654 138.497C83.8151 137.722 83.5853 137.13 83.476 136.719C83.3667 136.308 83.3351 136.014 83.3813 135.836C83.4429 135.649 83.5822 135.502 83.799 135.393C84.0159 135.284 84.2096 135.264 84.3803 135.334C84.5664 135.395 84.7916 135.593 85.0558 135.925C85.32 136.258 85.6543 136.789 86.0588 137.516C87.1123 137.104 88.1428 136.896 89.1506 136.894C90.1738 136.885 91.0694 137.065 91.8376 137.436C92.6057 137.806 93.1609 138.332 93.5033 139.014C93.9313 139.866 93.9986 140.637 93.7054 141.327C93.4198 141.995 92.9673 142.484 92.3478 142.795C91.8521 143.044 91.3795 143.184 90.93 143.216C90.4727 143.233 90.0579 143.218 89.6858 143.172C89.3291 143.119 89.0887 143.084 88.9646 143.069L89.9101 144.951C90.0418 144.943 90.2472 144.907 90.5261 144.845ZM86.1313 145.074C86.2247 145.26 86.38 145.376 86.5971 145.422C86.8142 145.468 87.1243 145.468 87.5273 145.42L86.6402 143.655C86.3461 143.88 86.1567 144.121 86.0719 144.377C86.0026 144.625 86.0224 144.857 86.1313 145.074ZM92.6064 150.376C92.8617 150.15 93.028 149.921 93.105 149.689C93.1821 149.456 93.1662 149.231 93.0572 149.014C92.9794 148.86 92.8397 148.755 92.6381 148.701C92.4286 148.632 92.1379 148.613 91.7659 148.645L92.6064 150.376Z" fill="black"/>
<path d="M106.999 141.643C107.951 141.256 108.762 141.101 109.43 141.178C110.091 141.24 110.608 141.623 110.981 142.328C111.29 142.91 111.357 143.443 111.182 143.928C110.999 144.398 110.657 144.824 110.154 145.208C109.658 145.569 108.974 145.981 108.101 146.443L106.47 147.308L104.839 148.172C103.966 148.635 103.233 148.974 102.641 149.189C102.057 149.382 101.519 149.421 101.028 149.309C100.528 149.181 100.125 148.826 99.8161 148.244C99.3778 147.417 99.3992 146.68 99.8801 146.033C100.353 145.371 101.174 144.7 102.345 144.021C101.744 142.887 101.063 141.64 100.302 140.277L98.9158 137.717C98.6644 137.909 98.378 138.09 98.0563 138.26C97.214 138.707 96.4048 138.92 95.629 138.899C94.8684 138.871 94.2934 138.489 93.9038 137.754C93.5954 137.172 93.5482 136.49 93.7624 135.71C93.9919 134.921 94.439 134.155 95.1037 133.41C95.7756 132.642 96.5787 132.011 97.513 131.516C98.4779 131.004 99.4096 130.893 100.308 131.182C101.214 131.447 101.955 132.124 102.531 133.211L106.999 141.643Z" fill="black"/>
<path d="M120.344 139.806C119.028 140.543 117.669 140.848 116.266 140.72C114.87 140.569 113.553 140.045 112.316 139.149C111.093 138.245 110.071 137.059 109.249 135.592C108.478 134.217 108.025 132.771 107.892 131.257C107.749 129.727 107.977 128.307 108.575 126.999C109.173 125.69 110.129 124.667 111.445 123.93C112.76 123.192 114.119 122.887 115.522 123.015C116.925 123.143 118.238 123.659 119.46 124.563C120.698 125.459 121.732 126.648 122.562 128.13C123.316 129.476 123.757 130.918 123.884 132.456C124.026 133.986 123.803 135.413 123.214 136.737C122.616 138.045 121.659 139.068 120.344 139.806ZM117.966 135.564C118.783 135.107 119.209 134.431 119.244 133.537C119.28 132.643 119.022 131.704 118.471 130.721C117.928 129.754 117.271 129.059 116.498 128.638C115.732 128.193 114.933 128.204 114.102 128.67C113.27 129.136 112.837 129.816 112.801 130.71C112.773 131.581 113.03 132.5 113.572 133.467C113.869 133.997 114.248 134.479 114.711 134.915C115.174 135.351 115.689 135.649 116.255 135.808C116.837 135.959 117.407 135.878 117.966 135.564Z" fill="black"/>
<path d="M131.998 131.211C132.437 131.958 132.66 132.732 132.667 133.531C132.697 134.337 132.575 135.053 132.298 135.677C132.036 136.293 131.718 136.71 131.345 136.93C131.031 137.114 130.724 137.173 130.424 137.108C130.14 137.034 129.918 136.862 129.76 136.593C129.646 136.399 129.587 136.212 129.583 136.034C129.594 135.847 129.635 135.591 129.707 135.268C129.756 135.078 129.789 134.878 129.806 134.667C129.823 134.456 129.81 134.263 129.767 134.087C129.195 134.242 128.685 134.23 128.238 134.05C127.782 133.855 127.427 133.541 127.173 133.107C126.848 132.554 126.753 131.947 126.888 131.285C127.037 130.615 127.41 130.104 128.008 129.753C128.711 129.341 129.412 129.251 130.111 129.484C130.817 129.693 131.446 130.269 131.998 131.211Z" fill="black"/>
<path d="M141.099 127.614C139.816 128.406 138.471 128.768 137.064 128.699C135.663 128.607 134.325 128.139 133.051 127.296C131.791 126.444 130.72 125.303 129.837 123.872C129.008 122.53 128.495 121.105 128.298 119.597C128.091 118.075 128.259 116.647 128.801 115.314C129.343 113.982 130.256 112.919 131.539 112.127C132.822 111.335 134.167 110.973 135.574 111.041C136.981 111.11 138.314 111.57 139.574 112.422C140.848 113.265 141.931 114.409 142.823 115.855C143.634 117.168 144.135 118.59 144.327 120.121C144.533 121.644 144.37 123.079 143.837 124.426C143.295 125.759 142.382 126.821 141.099 127.614ZM138.545 123.476C139.342 122.985 139.739 122.292 139.736 121.397C139.734 120.502 139.437 119.575 138.845 118.616C138.262 117.673 137.576 117.006 136.786 116.618C136.002 116.206 135.204 116.25 134.393 116.751C133.582 117.252 133.178 117.949 133.18 118.844C133.188 119.715 133.483 120.623 134.066 121.567C134.385 122.083 134.785 122.549 135.266 122.965C135.747 123.381 136.273 123.657 136.846 123.792C137.433 123.919 138 123.813 138.545 123.476Z" fill="black"/>
<path d="M155.175 118.582C153.922 119.421 152.591 119.832 151.183 119.816C149.779 119.776 148.425 119.358 147.12 118.562C145.83 117.757 144.718 116.656 143.782 115.259C142.905 113.948 142.339 112.543 142.086 111.044C141.824 109.53 141.939 108.097 142.431 106.745C142.923 105.394 143.796 104.298 145.049 103.459C146.302 102.62 147.633 102.209 149.042 102.225C150.45 102.242 151.8 102.652 153.09 103.457C154.394 104.253 155.519 105.356 156.464 106.768C157.322 108.049 157.875 109.452 158.124 110.976C158.386 112.489 158.276 113.929 157.794 115.296C157.301 116.648 156.428 117.743 155.175 118.582ZM152.47 114.542C153.248 114.021 153.619 113.314 153.584 112.42C153.548 111.526 153.217 110.61 152.59 109.674C151.973 108.753 151.263 108.112 150.459 107.753C149.66 107.37 148.865 107.444 148.073 107.974C147.28 108.505 146.902 109.217 146.938 110.111C146.978 110.981 147.306 111.877 147.924 112.799C148.261 113.303 148.678 113.754 149.174 114.152C149.67 114.55 150.206 114.806 150.784 114.92C151.375 115.025 151.937 114.899 152.47 114.542Z" fill="black"/>
<path d="M168.857 108.963C167.646 109.861 166.337 110.337 164.929 110.389C163.525 110.416 162.152 110.065 160.811 109.333C159.483 108.592 158.318 107.546 157.316 106.196C156.376 104.93 155.743 103.554 155.418 102.068C155.082 100.569 155.127 99.1323 155.553 97.7581C155.98 96.3839 156.798 95.2474 158.009 94.3486C159.22 93.4498 160.529 92.9744 161.937 92.9225C163.345 92.8705 164.712 93.2153 166.04 93.9568C167.381 94.688 168.558 95.7356 169.571 97.0996C170.49 98.3383 171.111 99.7124 171.433 101.222C171.769 102.721 171.729 104.165 171.313 105.553C170.886 106.927 170.068 108.064 168.857 108.963ZM165.959 105.059C166.711 104.501 167.047 103.776 166.968 102.885C166.889 101.993 166.514 101.095 165.843 100.191C165.181 99.3 164.441 98.6948 163.621 98.3753C162.804 98.0315 162.013 98.1437 161.248 98.7119C160.482 99.2801 160.139 100.01 160.218 100.901C160.3 101.768 160.672 102.647 161.333 103.538C161.695 104.025 162.133 104.455 162.648 104.829C163.162 105.202 163.711 105.432 164.293 105.518C164.889 105.594 165.444 105.441 165.959 105.059Z" fill="black"/>
<defs>
<filter id="filter0_i_22057_76" x="0" y="0" width="192" height="192" filterUnits="userSpaceOnUse" color-interpolation-filters="sRGB">
<feFlood flood-opacity="0" result="BackgroundImageFix"/>
<feBlend mode="normal" in="SourceGraphic" in2="BackgroundImageFix" result="shape"/>
<feColorMatrix in="SourceAlpha" type="matrix" values="0 0 0 0 0 0 0 0 0 0 0 0 0 0 0 0 0 0 127 0" result="hardAlpha"/>
<feOffset dy="-30"/>
<feComposite in2="hardAlpha" operator="arithmetic" k2="-1" k3="1"/>
<feColorMatrix type="matrix" values="0 0 0 0 0 0 0 0 0 0 0 0 0 0 0 0 0 0 0.25 0"/>
<feBlend mode="normal" in2="shape" result="effect1_innerShadow_22057_76"/>
</filter>
</defs>
</svg>
