<svg width="193" height="192" viewBox="0 0 193 192" fill="none" xmlns="http://www.w3.org/2000/svg">
<g filter="url(#filter0_i_22057_76)">
<circle cx="96" cy="96" r="95" fill="#FDD54C"/>
</g>
<circle cx="96" cy="96" r="95.5" stroke="black"/>
<path d="M98.5 17C120.5 19 139 26 154 42.5M161.5 54C163.5 55.5 165 59 165 59" stroke="white" stroke-width="8" stroke-linecap="round"/>
<path d="M48.6631 86.4631C46.0649 87.0144 43.9788 86.7987 42.4048 85.8161C40.8464 84.83 39.7564 82.9145 39.1348 80.0696C38.5713 77.4904 38.7543 75.3296 39.6837 73.587C40.6098 71.8288 42.2139 70.7004 44.496 70.2018C45.9029 69.8944 47.176 69.8374 48.3155 70.0306C49.455 70.2238 50.3915 70.6497 51.125 71.3083C51.8585 71.9669 52.3414 72.8277 52.5736 73.8906C52.758 74.7347 52.7344 75.526 52.5027 76.2645C52.2866 76.9995 51.8754 77.7035 51.2691 78.3765C51.8679 78.3439 52.4364 78.5472 52.9746 78.9865C53.5284 79.4223 53.8821 79.9919 54.0358 80.6953C54.1997 81.4456 54.1519 82.2013 53.8924 82.9622C53.645 83.7041 53.0907 84.3902 52.2294 85.0206C51.3838 85.6476 50.195 86.1284 48.6631 86.4631ZM45.1345 78.0709C45.4466 78.1501 45.8136 78.1436 46.2357 78.0514C46.7359 77.9421 47.1401 77.7309 47.4484 77.4179C47.7689 77.0859 47.8762 76.6775 47.7704 76.193C47.6679 75.724 47.4035 75.4133 46.9771 75.2608C46.5629 75.0893 46.0979 75.0598 45.5821 75.1725C45.1757 75.2613 44.8472 75.4068 44.5965 75.609C44.3982 75.7506 44.2699 75.9506 44.2117 76.2089C44.1536 76.4673 44.1535 76.7294 44.2115 76.9951C44.2696 77.2608 44.379 77.499 44.5396 77.7095C44.6968 77.9045 44.8951 78.0249 45.1345 78.0709ZM46.3332 83.5575C46.6575 83.6176 47.0229 83.6033 47.4293 83.5145C47.9295 83.4052 48.3372 83.2097 48.6523 82.9279C48.9796 82.6271 49.0972 82.2657 49.005 81.8437C48.9162 81.4373 48.6603 81.1656 48.2373 81.0287C47.8144 80.8919 47.3528 80.8781 46.8526 80.9874C46.4618 81.0727 46.1316 81.2104 45.8619 81.4003C45.6636 81.5419 45.5319 81.7263 45.4669 81.9534C45.3984 82.1649 45.3898 82.3879 45.441 82.6223C45.4923 82.8568 45.5948 83.0637 45.7486 83.243C45.899 83.4067 46.0939 83.5115 46.3332 83.5575ZM61.6117 83.6831C60.4896 83.9446 59.4302 83.9305 58.4333 83.6406C57.4521 83.3472 56.6192 82.8332 55.9345 82.0984C55.2621 81.3445 54.7959 80.4474 54.5358 79.4069C54.2914 78.363 54.3287 77.3722 54.6479 76.4345C54.9671 75.4967 55.5193 74.6883 56.3044 74.009C57.1051 73.3264 58.0682 72.8621 59.1936 72.6162C60.2878 72.3771 61.3238 72.3964 62.3016 72.6741C63.2951 72.9484 64.1419 73.4512 64.8422 74.1826C65.5424 74.914 66.0226 75.7999 66.2827 76.8404C66.5203 77.853 66.4812 78.836 66.1655 79.7893C65.8463 80.7271 65.288 81.5451 64.4907 82.2434C63.709 82.9383 62.7493 83.4182 61.6117 83.6831ZM60.9341 80.2445C61.3561 80.1523 61.6876 79.9079 61.9285 79.5113C62.1694 79.1148 62.242 78.6977 62.1464 78.26C62.0508 77.8223 61.8125 77.4813 61.4316 77.237C61.0472 76.977 60.644 76.8932 60.222 76.9854C59.7999 77.0776 59.4684 77.322 59.2275 77.7185C58.9832 78.0995 58.9089 78.5088 59.0045 78.9464C59.1001 79.3841 59.3401 79.7329 59.7245 79.9929C60.1088 80.2528 60.512 80.3367 60.9341 80.2445ZM73.8751 80.9791C72.734 81.2284 71.6722 81.1656 70.6895 80.7907C69.7034 80.4002 68.8649 79.7482 68.174 78.8346C67.4952 77.902 67.009 76.7635 66.7153 75.4193C66.4284 74.1062 66.4141 73.0285 66.6722 72.1859C66.9303 71.3434 67.4345 70.8402 68.1848 70.6763C69.5134 70.386 70.3263 70.9208 70.6235 72.2807C70.6849 72.5621 70.7318 72.8139 70.7639 73.0361C70.7927 73.2428 70.8164 73.4259 70.8349 73.5857C70.909 74.2246 70.987 74.7316 71.069 75.1067C71.2192 75.7945 71.4743 76.2874 71.8342 76.5855C72.1941 76.8835 72.5773 76.9881 72.9837 76.8993C73.4058 76.8071 73.7121 76.5601 73.9027 76.1581C74.1055 75.7371 74.1301 75.1749 73.9764 74.4715C73.8671 73.9713 73.7429 73.5153 73.6038 73.1035C73.5574 72.9662 73.4974 72.7665 73.4237 72.5041C73.3466 72.2262 73.2824 71.97 73.2312 71.7355C72.9306 70.36 73.4447 69.527 74.7734 69.2367C75.5237 69.0728 76.184 69.3216 76.7543 69.9831C77.3369 70.6256 77.7733 71.6111 78.0636 72.9398C78.5178 75.0187 78.3953 76.7815 77.696 78.2281C76.9932 79.6591 75.7196 80.5761 73.8751 80.9791ZM89.827 77.4938C89.2643 77.6167 88.8081 77.5526 88.4585 77.3015C88.1244 77.0469 87.8766 76.6998 87.715 76.2602C87.5535 75.8205 87.3941 75.2412 87.237 74.5221C87.0355 73.5999 86.7551 72.916 86.3957 72.4704C86.0363 72.0249 85.5753 71.8636 85.0125 71.9865C84.4967 72.0992 84.1606 72.4347 84.0041 72.993C83.8599 73.5322 83.8817 74.2316 84.0695 75.0914C84.2506 75.9198 84.3637 76.5502 84.409 76.9825C84.4544 77.4148 84.38 77.8241 84.186 78.2104C83.9886 78.5811 83.585 78.833 82.9754 78.9662C82.0844 79.1609 81.3345 78.7269 80.7257 77.6644C80.1135 76.5863 79.6383 75.2734 79.3002 73.7259C78.4805 69.9744 78.86 67.9262 80.4388 67.5813C80.8765 67.4856 81.2599 67.5165 81.5891 67.6739C81.9148 67.8156 82.1751 68.0699 82.3699 68.4368C82.5253 68.1735 82.7953 67.9099 83.1797 67.6457C83.5798 67.3781 84.0222 67.1914 84.5067 67.0855C86.2262 66.7099 87.6446 67.055 88.7619 68.1211C89.8948 69.1838 90.6952 70.7859 91.1631 72.9273C91.4397 74.1935 91.4942 75.2297 91.3265 76.0361C91.1553 76.8269 90.6555 77.3128 89.827 77.4938ZM98.3502 75.6316C97.2403 75.874 96.1975 75.8235 95.2217 75.4798C94.2581 75.1172 93.4557 74.5555 92.8145 73.7948C92.17 73.0185 91.7401 72.138 91.5249 71.1532C91.2722 69.9965 91.2932 68.9683 91.588 68.0687C91.895 67.15 92.3809 66.4133 93.0458 65.8585C93.7264 65.3004 94.5043 64.9257 95.3797 64.7345C96.255 64.5432 97.0776 64.56 97.8473 64.7849C97.7443 64.4635 97.605 64.1254 97.4292 63.7708C97.2691 63.4127 97.1631 63.1902 97.1114 63.1032C96.8805 62.646 96.6979 62.2601 96.5636 61.9455C96.4294 61.6309 96.3264 61.3094 96.2547 60.9812C96.1112 60.3247 96.1973 59.7818 96.513 59.3525C96.8286 58.9233 97.26 58.6489 97.8071 58.5293C98.6824 58.3381 99.4893 58.6203 100.228 59.3762C100.966 60.132 101.594 61.133 102.112 62.3791C102.646 63.6219 103.058 64.9076 103.348 66.2362C103.741 68.0338 103.714 69.8985 103.268 71.8302C102.834 73.7429 101.195 75.01 98.3502 75.6316ZM97.6814 71.8962C98.1035 71.804 98.4366 71.5674 98.681 71.1865C98.9219 70.7899 98.9945 70.3728 98.8989 69.9351C98.8033 69.4975 98.5633 69.1487 98.1789 68.8887C97.7946 68.6287 97.3914 68.5449 96.9693 68.6371C96.5473 68.7293 96.208 68.9754 95.9515 69.3754C95.7106 69.7719 95.6379 70.1891 95.7336 70.6267C95.8292 71.0644 96.0692 71.4132 96.4535 71.6732C96.8501 71.9141 97.2594 71.9884 97.6814 71.8962ZM118.633 61.4227C120.171 61.1193 121.309 61.0426 122.046 61.1927C122.799 61.3395 123.267 61.8349 123.452 62.679C123.633 63.5074 123.404 64.147 122.766 64.5977C122.139 65.0293 121.095 65.4213 119.632 65.7736L120.061 67.6207C120.141 67.9143 120.239 68.3268 120.356 68.8583C120.502 69.5305 120.419 70.0482 120.105 70.4115C119.788 70.7592 119.38 70.9877 118.879 71.097C118.02 71.2848 117.3 70.9916 116.722 70.2172C116.143 69.4429 115.633 68.2688 115.191 66.6949C114.158 66.8387 113.357 66.809 112.788 66.6057C112.235 66.3989 111.882 65.9438 111.728 65.2404C111.575 64.537 111.706 63.9761 112.122 63.5576C112.551 63.12 113.263 62.7433 114.258 62.4276C114.021 60.8908 113.969 59.5674 114.103 58.4572C114.237 57.347 114.648 56.4139 115.334 55.6579C116.017 54.8863 117.046 54.3503 118.422 54.0497C119.282 53.8619 120.037 53.9097 120.689 54.1932C121.353 54.4576 121.766 54.9649 121.93 55.7152C122.101 56.4968 121.989 57.1437 121.593 57.656C121.209 58.1493 120.62 58.5645 119.826 58.9019C119.303 59.1308 118.957 59.4602 118.789 59.89C118.618 60.3041 118.565 60.815 118.633 61.4227ZM131.22 68.4745C130.098 68.736 129.038 68.7218 128.041 68.4319C127.06 68.1386 126.227 67.6246 125.542 66.8898C124.87 66.1359 124.404 65.2388 124.144 64.1983C123.899 63.1544 123.937 62.1636 124.256 61.2259C124.575 60.2881 125.127 59.4796 125.912 58.8004C126.713 58.1177 127.676 57.6535 128.802 57.4076C129.896 57.1685 130.932 57.1878 131.91 57.4655C132.903 57.7398 133.75 58.2426 134.45 58.974C135.15 59.7053 135.631 60.5913 135.891 61.6317C136.128 62.6443 136.089 63.6273 135.773 64.5807C135.454 65.5185 134.896 66.3365 134.099 67.0348C133.317 67.7296 132.357 68.2095 131.22 68.4745ZM130.542 65.0359C130.964 64.9437 131.295 64.6993 131.536 64.3027C131.777 63.9062 131.85 63.489 131.754 63.0514C131.659 62.6137 131.42 62.2727 131.039 62.0284C130.655 61.7684 130.252 61.6845 129.83 61.7768C129.408 61.869 129.076 62.1134 128.835 62.5099C128.591 62.8909 128.517 63.3002 128.612 63.7378C128.708 64.1755 128.948 64.5243 129.332 64.7843C129.717 65.0442 130.12 65.1281 130.542 65.0359ZM140.547 66.412C139.546 66.6306 138.746 66.1913 138.146 65.0941C137.562 63.9935 137.044 62.4115 136.593 60.3482C136.388 59.4103 136.257 58.6202 136.198 57.9779C136.152 57.3165 136.245 56.7311 136.478 56.2217C136.723 55.6933 137.197 55.3522 137.9 55.1985C138.338 55.1029 138.743 55.1208 139.116 55.2523C139.504 55.3804 139.786 55.6218 139.962 55.9764C140.237 55.5887 140.631 55.2568 141.144 54.981C141.657 54.7052 142.226 54.4989 142.852 54.3623C143.352 54.253 143.887 54.2671 144.458 54.4045C145.044 54.5385 145.557 54.7867 145.996 55.1493C146.448 55.4927 146.728 55.9146 146.838 56.4148C146.947 56.915 146.865 57.3998 146.59 57.8691C146.328 58.3194 145.908 58.6077 145.33 58.7341C145.142 58.7751 144.958 58.7909 144.775 58.7816C144.609 58.7688 144.458 58.7527 144.323 58.7331C143.983 58.6763 143.719 58.6685 143.531 58.7094C142.922 58.8426 142.435 59.2027 142.072 59.7898C141.721 60.3578 141.628 61.0169 141.792 61.7672C141.973 62.5957 142.092 63.2903 142.149 63.851C142.206 64.4118 142.126 64.9451 141.909 65.4511C141.689 65.9415 141.234 66.2618 140.547 66.412ZM52.0654 108.239C49.4672 108.79 47.3811 108.574 45.8071 107.592C44.2487 106.606 43.1587 104.69 42.5371 101.845C41.9736 99.2661 42.1566 97.1052 43.086 95.3627C44.0121 93.6045 45.6162 92.4761 47.8983 91.9774C49.3052 91.6701 50.5783 91.613 51.7178 91.8062C52.8573 91.9994 53.7938 92.4253 54.5273 93.084C55.2608 93.7426 55.7437 94.6033 55.9759 95.6663C56.1603 96.5103 56.1367 97.3016 55.905 98.0401C55.6889 98.7752 55.2777 99.4792 54.6714 100.152C55.2702 100.12 55.8387 100.323 56.3769 100.762C56.9307 101.198 57.2844 101.768 57.4381 102.471C57.602 103.221 57.5542 103.977 57.2947 104.738C57.0473 105.48 56.493 106.166 55.6317 106.796C54.7861 107.423 53.5973 107.904 52.0654 108.239ZM48.5367 99.8465C48.8488 99.9257 49.2159 99.9192 49.638 99.827C50.1382 99.7177 50.5424 99.5066 50.8507 99.1935C51.1712 98.8615 51.2785 98.4532 51.1726 97.9686C51.0702 97.4997 50.8058 97.1889 50.3794 97.0364C49.9652 96.8649 49.5002 96.8355 48.9844 96.9482C48.578 97.037 48.2495 97.1824 47.9988 97.3846C47.8005 97.5262 47.6722 97.7262 47.614 97.9846C47.5558 98.2429 47.5558 98.505 47.6138 98.7707C47.6719 99.0365 47.7813 99.2746 47.9419 99.4852C48.0991 99.6801 48.2974 99.8005 48.5367 99.8465ZM49.7355 105.333C50.0598 105.393 50.4252 105.379 50.8316 105.29C51.3318 105.181 51.7395 104.985 52.0546 104.704C52.3819 104.403 52.4995 104.041 52.4073 103.619C52.3185 103.213 52.0626 102.941 51.6396 102.804C51.2167 102.667 50.7551 102.654 50.2549 102.763C49.8641 102.848 49.5339 102.986 49.2642 103.176C49.0659 103.318 48.9342 103.502 48.8692 103.729C48.8007 103.941 48.7921 104.164 48.8433 104.398C48.8946 104.632 48.9971 104.839 49.1509 105.019C49.3013 105.182 49.4962 105.287 49.7355 105.333ZM65.0323 105.43C63.8756 105.683 62.8022 105.68 61.8122 105.421C60.8221 105.163 59.9882 104.682 59.3104 103.978C58.6449 103.255 58.1994 102.378 57.974 101.347C57.752 100.331 57.7893 99.3398 58.0861 98.3742C58.3984 97.4052 58.9359 96.5672 59.6986 95.8601C60.4612 95.153 61.3975 94.6782 62.5073 94.4357C63.5077 94.2172 64.4352 94.2274 65.29 94.4665C66.1447 94.7055 66.8487 95.1167 67.402 95.7001C67.9518 96.2678 68.3053 96.9112 68.4624 97.6302C68.7185 98.8026 68.4609 99.7596 67.6894 100.501C66.9302 101.224 65.941 101.719 64.7217 101.985C63.9089 102.163 63.1989 102.211 62.5918 102.131C63.2281 102.795 64.0855 103.008 65.1641 102.773C65.6018 102.677 66.0587 102.52 66.535 102.301C66.7124 102.213 66.887 102.151 67.0589 102.113C67.4028 102.038 67.6952 102.064 67.9359 102.192C68.1923 102.316 68.353 102.526 68.4179 102.823C68.5238 103.308 68.319 103.795 67.8035 104.284C67.2847 104.758 66.3609 105.14 65.0323 105.43ZM62.0372 99.2552C62.2257 99.4433 62.4491 99.5664 62.7075 99.6246C62.9781 99.6637 63.2619 99.6509 63.5588 99.586C63.9027 99.5108 64.1827 99.3678 64.3986 99.1568C64.6302 98.9425 64.7186 98.7102 64.664 98.4601C64.6025 98.1788 64.4324 97.9621 64.1535 97.8101C63.8903 97.6547 63.5476 97.6231 63.1256 97.7154C62.7035 97.8076 62.3965 98.0139 62.2044 98.3342C62.0246 98.6356 61.9689 98.9425 62.0372 99.2552ZM73.3794 103.606C72.379 103.825 71.5787 103.386 70.9787 102.288C70.3943 101.188 69.8767 99.6059 69.4259 97.5425C69.221 96.6047 69.0893 95.8146 69.0308 95.1722C68.9846 94.5109 69.0778 93.9255 69.3104 93.4161C69.5553 92.8876 70.0294 92.5466 70.7328 92.3929C71.1705 92.2973 71.5756 92.3152 71.9483 92.4467C72.3366 92.5748 72.6186 92.8161 72.7943 93.1708C73.0699 92.783 73.4642 92.4512 73.9771 92.1754C74.4901 91.8995 75.0592 91.6933 75.6844 91.5567C76.1846 91.4474 76.72 91.4614 77.2904 91.5988C77.8765 91.7328 78.3893 91.9811 78.8289 92.3436C79.2806 92.6871 79.5611 93.109 79.6704 93.6092C79.7797 94.1094 79.6973 94.5941 79.4231 95.0635C79.1612 95.5137 78.7411 95.8021 78.1627 95.9284C77.9751 95.9694 77.7902 95.9852 77.6081 95.9759C77.4415 95.9632 77.2906 95.947 77.1553 95.9274C76.8153 95.8707 76.5516 95.8628 76.364 95.9038C75.7544 96.037 75.268 96.3971 74.905 96.9841C74.5541 97.5521 74.4607 98.2113 74.6246 98.9616C74.8056 99.79 74.9246 100.485 74.9816 101.045C75.0386 101.606 74.9586 102.139 74.7416 102.645C74.5212 103.136 74.0671 103.456 73.3794 103.606ZM86.1504 100.816C84.9312 101.082 83.871 101.027 82.9699 100.651C82.0654 100.259 81.4987 99.5396 81.2699 98.4923C81.0718 97.5857 81.3133 96.7795 81.9944 96.0739C82.6754 95.3683 83.61 94.8857 84.7979 94.6261C85.2356 94.5305 85.6506 94.4807 86.0428 94.4769C86.4472 94.4541 86.73 94.4742 86.8912 94.5372C86.8058 94.1464 86.5717 93.8619 86.1888 93.6835C85.8025 93.4895 85.2733 93.4659 84.6011 93.6128C84.3041 93.6776 84.067 93.754 83.8896 93.8419C83.7123 93.9298 83.5245 94.0445 83.3261 94.1861C83.1278 94.3277 82.9399 94.4425 82.7626 94.5303C82.6009 94.6148 82.3716 94.6895 82.0746 94.7544C81.5744 94.8637 81.1563 94.824 80.8203 94.6354C80.4808 94.4311 80.2531 94.0632 80.1369 93.5318C80.0037 92.9222 80.1099 92.3585 80.4553 91.8409C80.8164 91.3198 81.3109 90.8842 81.9386 90.5341C82.5629 90.1684 83.2112 89.9122 83.8833 89.7653C85.212 89.475 86.3764 89.4826 87.3767 89.7881C88.3892 90.0746 89.1952 90.5782 89.7949 91.2988C90.4102 92.016 90.8254 92.867 91.0405 93.8517C91.1567 94.3832 91.2173 94.8858 91.2226 95.3596C91.2435 95.83 91.2109 96.2056 91.1249 96.4865C91.3847 96.6262 91.5966 96.8092 91.7607 97.0354C91.9404 97.2582 92.0593 97.5024 92.1173 97.7682C92.2164 98.2215 92.1454 98.6464 91.9045 99.043C91.6793 99.4361 91.3165 99.6873 90.8163 99.7966C90.4412 99.8786 90.1244 99.8905 89.866 99.8323C89.6077 99.7741 89.32 99.6568 89.003 99.4804C88.6635 99.8002 88.2712 100.066 87.8262 100.278C87.3968 100.486 86.8382 100.666 86.1504 100.816ZM86.1019 98.3455C86.4302 98.2738 86.6727 98.1471 86.8296 97.9654C87.002 97.7803 87.0661 97.5862 87.0217 97.383C86.9773 97.1798 86.8381 97.03 86.6042 96.9337C86.3858 96.834 86.1126 96.8201 85.7843 96.8918C85.456 96.9635 85.2057 97.0919 85.0332 97.277C84.8764 97.4586 84.8202 97.6511 84.8646 97.8543C84.909 98.0575 85.0403 98.2089 85.2586 98.3086C85.4926 98.4049 85.7737 98.4172 86.1019 98.3455ZM98.9348 97.9982C97.9344 98.2168 96.9358 98.1812 95.9389 97.8913C94.9543 97.5823 94.104 97.0639 93.3881 96.3359C92.6723 95.6079 92.1999 94.7203 91.9711 93.673C91.732 92.5788 91.7816 91.5689 92.1198 90.6434C92.4703 89.6988 93.0276 88.9138 93.7916 88.2883C94.5714 87.6594 95.4614 87.2356 96.4618 87.017C97.4153 86.8087 98.316 86.8084 99.1639 87.0162C100.012 87.224 100.713 87.5866 101.269 88.104C101.82 88.6058 102.168 89.185 102.312 89.8415C102.431 90.3886 102.351 90.8482 102.072 91.2203C101.809 91.589 101.349 91.8451 100.693 91.9885C100.349 92.0637 100.069 92.0592 99.8543 91.9751C99.6394 91.8911 99.4031 91.7462 99.1452 91.5405C98.9064 91.347 98.6891 91.2143 98.4932 91.1425C98.3096 91.0516 98.0693 91.0386 97.7723 91.1035C97.3503 91.1957 97.0232 91.4227 96.7911 91.7846C96.5556 92.1309 96.4873 92.5307 96.5864 92.984C96.6888 93.4529 96.9115 93.7973 97.2543 94.0172C97.6128 94.2337 98.0108 94.2941 98.4485 94.1985C98.7299 94.137 98.9402 94.0501 99.0794 93.9378C99.2187 93.8255 99.3633 93.6629 99.5133 93.4499C99.6911 93.2145 99.8653 93.0373 100.036 92.9181C100.203 92.7834 100.466 92.6767 100.826 92.5982C101.467 92.4581 101.997 92.5225 102.416 92.7912C102.835 93.06 103.094 93.421 103.193 93.8743C103.309 94.4058 103.207 94.9521 102.887 95.5133C102.584 96.071 102.087 96.5725 101.398 97.0178C100.709 97.4631 99.8883 97.7899 98.9348 97.9982ZM107.389 96.1756C106.623 96.343 105.972 96.1741 105.436 95.6689C104.9 95.1637 104.419 94.3107 103.992 93.11C103.582 91.9059 103.138 90.2096 102.659 88.0213C102.26 86.1924 101.994 84.7519 101.863 83.6997C101.747 82.6442 101.811 81.7784 102.057 81.1025C102.299 80.4109 102.818 79.978 103.615 79.8038C104.303 79.6535 104.867 79.7597 105.306 80.1222C105.746 80.4848 106.084 80.984 106.321 81.6201C106.559 82.2561 106.785 83.0665 107 84.0512L107.231 85.1063C107.509 84.8817 107.759 84.7125 107.98 84.5988C108.216 84.4816 108.576 84.3701 109.061 84.2642C110.124 84.032 111.098 84.1057 111.984 84.4855C112.866 84.8496 113.601 85.4423 114.19 86.2635C114.794 87.0813 115.218 88.0451 115.46 89.155C115.775 90.593 115.878 91.8152 115.77 92.8213C115.675 93.8085 115.181 94.3994 114.291 94.594C113.665 94.7307 113.166 94.6924 112.791 94.4794C112.433 94.2629 112.154 93.9226 111.954 93.4586C111.77 92.9911 111.586 92.3353 111.402 91.4912C111.2 90.5689 110.943 89.8799 110.631 89.4241C110.334 88.9649 109.943 88.7882 109.458 88.8941C108.974 89 108.679 89.3347 108.572 89.8984C108.478 90.443 108.523 91.1703 108.705 92.0803C108.874 92.9278 108.966 93.6119 108.982 94.1326C109.013 94.6499 108.904 95.0912 108.657 95.4565C108.421 95.8027 107.999 96.0424 107.389 96.1756ZM121.481 93.0967C120.262 93.3631 119.202 93.3081 118.3 92.9318C117.396 92.5398 116.829 91.8202 116.6 90.7729C116.402 89.8663 116.644 89.0602 117.325 88.3545C118.006 87.6489 118.941 87.1663 120.129 86.9067C120.566 86.8111 120.981 86.7614 121.373 86.7576C121.778 86.7347 122.061 86.7548 122.222 86.8179C122.136 86.4271 121.902 86.1425 121.519 85.9641C121.133 85.7701 120.604 85.7465 119.932 85.8934C119.635 85.9583 119.398 86.0347 119.22 86.1225C119.043 86.2104 118.855 86.3251 118.657 86.4668C118.458 86.6084 118.271 86.7231 118.093 86.811C117.931 86.8954 117.702 86.9701 117.405 87.035C116.905 87.1443 116.487 87.1046 116.151 86.916C115.811 86.7117 115.584 86.3439 115.468 85.8124C115.334 85.2028 115.44 84.6391 115.786 84.1215C116.147 83.6004 116.641 83.1648 117.269 82.8148C117.894 82.4491 118.542 82.1928 119.214 82.0459C120.543 81.7556 121.707 81.7632 122.707 82.0688C123.72 82.3553 124.526 82.8588 125.125 83.5794C125.741 84.2966 126.156 85.1476 126.371 86.1324C126.487 86.6638 126.548 87.1665 126.553 87.6403C126.574 88.1106 126.541 88.4863 126.455 88.7671C126.715 88.9069 126.927 89.0898 127.091 89.316C127.271 89.5388 127.39 89.7831 127.448 90.0488C127.547 90.5021 127.476 90.927 127.235 91.3236C127.01 91.7167 126.647 91.9679 126.147 92.0772C125.772 92.1592 125.455 92.1711 125.197 92.1129C124.938 92.0547 124.651 91.9374 124.334 91.761C123.994 92.0809 123.602 92.3467 123.157 92.5586C122.727 92.7671 122.169 92.9464 121.481 93.0967ZM121.433 90.6261C121.761 90.5544 122.003 90.4277 122.16 90.246C122.333 90.0609 122.397 89.8668 122.352 89.6636C122.308 89.4604 122.169 89.3106 121.935 89.2144C121.716 89.1147 121.443 89.1007 121.115 89.1724C120.787 89.2441 120.536 89.3725 120.364 89.5576C120.207 89.7393 120.151 89.9317 120.195 90.1349C120.24 90.3381 120.371 90.4896 120.589 90.5893C120.823 90.6855 121.104 90.6978 121.433 90.6261ZM129.243 79.4863C128.477 79.6536 127.768 79.5218 127.117 79.0908C126.463 78.6442 126.049 78.0223 125.874 77.2251C125.704 76.4436 125.824 75.7212 126.236 75.058C126.645 74.3791 127.232 73.956 127.998 73.7887C128.748 73.6247 129.45 73.7661 130.105 74.2127C130.771 74.6402 131.19 75.2448 131.361 76.0264C131.535 76.8235 131.41 77.5633 130.986 78.2455C130.574 78.9087 129.993 79.3223 129.243 79.4863ZM131.727 90.858C131.086 90.998 130.57 90.9224 130.179 90.6312C129.8 90.3209 129.476 89.8104 129.206 89.0997C128.948 88.3699 128.669 87.3172 128.368 85.9416C128.116 84.7849 127.971 83.8585 127.933 83.1625C127.911 82.463 128.021 81.915 128.262 81.5185C128.503 81.1219 128.92 80.8587 129.514 80.7289C130.155 80.5889 130.665 80.674 131.044 80.9843C131.435 81.2755 131.76 81.786 132.017 82.5158C132.287 83.2266 132.572 84.2697 132.873 85.6453C133.126 86.802 133.263 87.7301 133.285 88.4296C133.322 89.1256 133.221 89.6719 132.98 90.0685C132.739 90.465 132.321 90.7282 131.727 90.858ZM144.68 88.028C144.117 88.151 143.661 88.0869 143.311 87.8357C142.977 87.5812 142.729 87.2341 142.568 86.7944C142.406 86.3548 142.247 85.7754 142.09 85.0564C141.888 84.1341 141.608 83.4502 141.248 83.0047C140.889 82.5591 140.428 82.3978 139.865 82.5208C139.349 82.6335 139.013 82.969 138.857 83.5272C138.713 84.0664 138.734 84.7659 138.922 85.6256C139.103 86.4541 139.216 87.0844 139.262 87.5167C139.307 87.949 139.233 88.3583 139.039 88.7446C138.841 89.1153 138.438 89.3673 137.828 89.5005C136.937 89.6951 136.187 89.2612 135.578 88.1987C134.966 87.1205 134.491 85.8077 134.153 84.2602C133.333 80.5087 133.713 78.4605 135.291 78.1155C135.729 78.0199 136.113 78.0508 136.442 78.2081C136.767 78.3499 137.028 78.6042 137.223 78.971C137.378 78.7078 137.648 78.4441 138.032 78.18C138.432 77.9124 138.875 77.7257 139.359 77.6198C141.079 77.2441 142.497 77.5893 143.614 78.6554C144.747 79.718 145.548 81.3201 146.016 83.4616C146.292 84.7277 146.347 85.764 146.179 86.5704C146.008 87.3611 145.508 87.847 144.68 88.028ZM145.743 71.7539C146.036 70.9202 146.714 70.3872 147.777 70.155C148.793 69.933 149.604 70.1242 150.211 70.7285C150.834 71.3295 151.255 72.1302 151.473 73.1306C151.654 73.959 151.778 74.8983 151.843 75.9485C151.906 76.9831 151.883 77.9297 151.776 78.7884C151.721 79.2099 151.553 79.6067 151.274 79.9788C151.008 80.3319 150.609 80.5665 150.077 80.6826C149.546 80.7988 149.077 80.7537 148.672 80.5475C148.263 80.3256 147.946 80.0347 147.72 79.6746C147.267 78.9545 146.857 78.127 146.489 77.192C146.118 76.2414 145.845 75.3675 145.671 74.5703C145.439 73.5074 145.463 72.5686 145.743 71.7539ZM152.867 85.3549C152.488 85.9453 151.97 86.3122 151.314 86.4557C150.657 86.5991 150.034 86.4815 149.443 86.1028C148.853 85.7241 148.486 85.2065 148.343 84.55C148.199 83.8935 148.317 83.27 148.695 82.6796C149.074 82.0891 149.592 81.7222 150.248 81.5787C150.905 81.4353 151.528 81.5529 152.119 81.9316C152.709 82.3103 153.076 82.8279 153.22 83.4844C153.363 84.1409 153.245 84.7644 152.867 85.3549Z" fill="black"/>
<path d="M182.002 57.5858C149.874 100.857 63.0718 139.981 22.273 154.927C21.6212 155.165 21.4387 155.971 21.8901 156.498C34.8642 171.654 46.1407 177.735 51.506 180.532C51.7351 180.652 51.9934 180.677 52.2413 180.604C100.044 166.473 162.467 134.116 191.325 97.7C191.464 97.5241 191.538 97.3054 191.537 97.081C191.481 77.4471 186.744 65.0324 183.739 57.8027C183.438 57.0789 182.469 56.9565 182.002 57.5858Z" fill="#FF888A" stroke="black" stroke-linecap="round"/>
<path d="M90.5261 144.845C92.1767 144.539 93.5216 144.572 94.5611 144.942C95.5927 145.296 96.3848 146.024 96.9373 147.123C97.5286 148.3 97.5773 149.459 97.0834 150.6C96.605 151.732 95.6302 152.765 94.1592 153.698C94.4472 154.349 94.6303 154.848 94.7085 155.197C94.7945 155.561 94.8027 155.829 94.7333 155.999C94.6793 156.162 94.5517 156.294 94.3503 156.395C94.056 156.543 93.7653 156.505 93.478 156.281C93.2141 156.064 92.8255 155.522 92.3122 154.655C91.3363 155.068 90.3562 155.337 89.3719 155.463C88.3877 155.589 87.5155 155.533 86.7554 155.294C85.9953 155.055 85.4596 154.626 85.1484 154.006C84.8293 153.371 84.7701 152.77 84.9705 152.204C85.171 151.638 85.5655 151.207 86.1541 150.911C86.4793 150.748 86.8319 150.677 87.2118 150.7C87.5917 150.722 88.0763 150.799 88.6657 150.93C89.4567 151.114 90.0537 151.202 90.4568 151.194C90.2157 150.752 89.8344 150.013 89.3131 148.975L87.8135 149.176C86.2403 149.403 84.9263 149.317 83.8713 148.916C82.8163 148.515 81.9581 147.656 81.2967 146.339C80.8843 145.518 80.7275 144.627 80.8265 143.666C80.9331 142.681 81.2724 141.735 81.8443 140.827C82.4317 139.911 83.2054 139.134 84.1654 138.497C83.8151 137.722 83.5853 137.13 83.476 136.719C83.3667 136.308 83.3351 136.014 83.3813 135.836C83.4429 135.649 83.5822 135.502 83.799 135.393C84.0159 135.284 84.2096 135.264 84.3803 135.334C84.5664 135.395 84.7916 135.593 85.0558 135.925C85.32 136.258 85.6543 136.789 86.0588 137.516C87.1123 137.104 88.1428 136.896 89.1506 136.894C90.1738 136.885 91.0694 137.065 91.8376 137.436C92.6057 137.806 93.1609 138.332 93.5033 139.014C93.9313 139.866 93.9986 140.637 93.7054 141.327C93.4198 141.995 92.9673 142.484 92.3478 142.795C91.8521 143.044 91.3795 143.184 90.93 143.216C90.4727 143.233 90.0579 143.218 89.6858 143.172C89.3291 143.119 89.0887 143.084 88.9646 143.069L89.9101 144.951C90.0418 144.943 90.2472 144.907 90.5261 144.845ZM86.1313 145.074C86.2247 145.26 86.38 145.376 86.5971 145.422C86.8142 145.468 87.1243 145.468 87.5273 145.42L86.6402 143.655C86.3461 143.88 86.1567 144.121 86.0719 144.377C86.0026 144.625 86.0224 144.857 86.1313 145.074ZM92.6064 150.376C92.8617 150.15 93.028 149.921 93.105 149.689C93.1821 149.456 93.1662 149.231 93.0572 149.014C92.9794 148.86 92.8397 148.755 92.6381 148.701C92.4286 148.632 92.1379 148.613 91.7659 148.645L92.6064 150.376Z" fill="black"/>
<path d="M106.999 141.643C107.951 141.256 108.762 141.101 109.43 141.178C110.091 141.24 110.608 141.623 110.981 142.328C111.29 142.91 111.357 143.443 111.182 143.928C110.999 144.398 110.657 144.824 110.154 145.208C109.658 145.569 108.974 145.981 108.101 146.443L106.47 147.308L104.839 148.172C103.966 148.635 103.233 148.974 102.641 149.189C102.057 149.382 101.519 149.421 101.028 149.309C100.528 149.181 100.125 148.826 99.8161 148.244C99.3778 147.417 99.3992 146.68 99.8801 146.033C100.353 145.371 101.174 144.7 102.345 144.021C101.744 142.887 101.063 141.64 100.302 140.277L98.9158 137.717C98.6644 137.909 98.378 138.09 98.0563 138.26C97.214 138.707 96.4048 138.92 95.629 138.899C94.8684 138.871 94.2934 138.489 93.9038 137.754C93.5954 137.172 93.5482 136.49 93.7624 135.71C93.9919 134.921 94.439 134.155 95.1037 133.41C95.7756 132.642 96.5787 132.011 97.513 131.516C98.4779 131.004 99.4096 130.893 100.308 131.182C101.214 131.447 101.955 132.124 102.531 133.211L106.999 141.643Z" fill="black"/>
<path d="M120.344 139.806C119.028 140.543 117.669 140.848 116.266 140.72C114.87 140.569 113.553 140.045 112.316 139.149C111.093 138.245 110.071 137.059 109.249 135.592C108.478 134.217 108.025 132.771 107.892 131.257C107.749 129.727 107.977 128.307 108.575 126.999C109.173 125.69 110.129 124.667 111.445 123.93C112.76 123.192 114.119 122.887 115.522 123.015C116.925 123.143 118.238 123.659 119.46 124.563C120.698 125.459 121.732 126.648 122.562 128.13C123.316 129.476 123.757 130.918 123.884 132.456C124.026 133.986 123.803 135.413 123.214 136.737C122.616 138.045 121.659 139.068 120.344 139.806ZM117.966 135.564C118.783 135.107 119.209 134.431 119.244 133.537C119.28 132.643 119.022 131.704 118.471 130.721C117.928 129.754 117.271 129.059 116.498 128.638C115.732 128.193 114.933 128.204 114.102 128.67C113.27 129.136 112.837 129.816 112.801 130.71C112.773 131.581 113.03 132.5 113.572 133.467C113.869 133.997 114.248 134.479 114.711 134.915C115.174 135.351 115.689 135.649 116.255 135.808C116.837 135.959 117.407 135.878 117.966 135.564Z" fill="black"/>
<path d="M131.998 131.211C132.437 131.958 132.66 132.732 132.667 133.531C132.697 134.337 132.575 135.053 132.298 135.677C132.036 136.293 131.718 136.71 131.345 136.93C131.031 137.114 130.724 137.173 130.424 137.108C130.14 137.034 129.918 136.862 129.76 136.593C129.646 136.399 129.587 136.212 129.583 136.034C129.594 135.847 129.635 135.591 129.707 135.268C129.756 135.078 129.789 134.878 129.806 134.667C129.823 134.456 129.81 134.263 129.767 134.087C129.195 134.242 128.685 134.23 128.238 134.05C127.782 133.855 127.427 133.541 127.173 133.107C126.848 132.554 126.753 131.947 126.888 131.285C127.037 130.615 127.41 130.104 128.008 129.753C128.711 129.341 129.412 129.251 130.111 129.484C130.817 129.693 131.446 130.269 131.998 131.211Z" fill="black"/>
<path d="M141.099 127.614C139.816 128.406 138.471 128.768 137.064 128.699C135.663 128.607 134.325 128.139 133.051 127.296C131.791 126.444 130.72 125.303 129.837 123.872C129.008 122.53 128.495 121.105 128.298 119.597C128.091 118.075 128.259 116.647 128.801 115.314C129.343 113.982 130.256 112.919 131.539 112.127C132.822 111.335 134.167 110.973 135.574 111.041C136.981 111.11 138.314 111.57 139.574 112.422C140.848 113.265 141.931 114.409 142.823 115.855C143.634 117.168 144.135 118.59 144.327 120.121C144.533 121.644 144.37 123.079 143.837 124.426C143.295 125.759 142.382 126.821 141.099 127.614ZM138.545 123.476C139.342 122.985 139.739 122.292 139.736 121.397C139.734 120.502 139.437 119.575 138.845 118.616C138.262 117.673 137.576 117.006 136.786 116.618C136.002 116.206 135.204 116.25 134.393 116.751C133.582 117.252 133.178 117.949 133.18 118.844C133.188 119.715 133.483 120.623 134.066 121.567C134.385 122.083 134.785 122.549 135.266 122.965C135.747 123.381 136.273 123.657 136.846 123.792C137.433 123.919 138 123.813 138.545 123.476Z" fill="black"/>
<path d="M155.175 118.582C153.922 119.421 152.591 119.832 151.183 119.816C149.779 119.776 148.425 119.358 147.12 118.562C145.83 117.757 144.718 116.656 143.782 115.259C142.905 113.948 142.339 112.543 142.086 111.044C141.824 109.53 141.939 108.097 142.431 106.745C142.923 105.394 143.796 104.298 145.049 103.459C146.302 102.62 147.633 102.209 149.042 102.225C150.45 102.242 151.8 102.652 153.09 103.457C154.394 104.253 155.519 105.356 156.464 106.768C157.322 108.049 157.875 109.452 158.124 110.976C158.386 112.489 158.276 113.929 157.794 115.296C157.301 116.648 156.428 117.743 155.175 118.582ZM152.47 114.542C153.248 114.021 153.619 113.314 153.584 112.42C153.548 111.526 153.217 110.61 152.59 109.674C151.973 108.753 151.263 108.112 150.459 107.753C149.66 107.37 148.865 107.444 148.073 107.974C147.28 108.505 146.902 109.217 146.938 110.111C146.978 110.981 147.306 111.877 147.924 112.799C148.261 113.303 148.678 113.754 149.174 114.152C149.67 114.55 150.206 114.806 150.784 114.92C151.375 115.025 151.937 114.899 152.47 114.542Z" fill="black"/>
<path d="M168.857 108.963C167.646 109.861 166.337 110.337 164.929 110.389C163.525 110.416 162.152 110.065 160.811 109.333C159.483 108.592 158.318 107.546 157.316 106.196C156.376 104.93 155.743 103.554 155.418 102.068C155.082 100.569 155.127 99.1323 155.553 97.7581C155.98 96.3839 156.798 95.2474 158.009 94.3486C159.22 93.4498 160.529 92.9744 161.937 92.9225C163.345 92.8705 164.712 93.2153 166.04 93.9568C167.381 94.688 168.558 95.7356 169.571 97.0996C170.49 98.3383 171.111 99.7124 171.433 101.222C171.769 102.721 171.729 104.165 171.313 105.553C170.886 106.927 170.068 108.064 168.857 108.963ZM165.959 105.059C166.711 104.501 167.047 103.776 166.968 102.885C166.889 101.993 166.514 101.095 165.843 100.191C165.181 99.3 164.441 98.6948 163.621 98.3753C162.804 98.0315 162.013 98.1437 161.248 98.7119C160.482 99.2801 160.139 100.01 160.218 100.901C160.3 101.768 160.672 102.647 161.333 103.538C161.695 104.025 162.133 104.455 162.648 104.829C163.162 105.202 163.711 105.432 164.293 105.518C164.889 105.594 165.444 105.441 165.959 105.059Z" fill="black"/>
<defs>
<filter id="filter0_i_22057_76" x="0" y="0" width="192" height="192" filterUnits="userSpaceOnUse" color-interpolation-filters="sRGB">
<feFlood flood-opacity="0" result="BackgroundImageFix"/>
<feBlend mode="normal" in="SourceGraphic" in2="BackgroundImageFix" result="shape"/>
<feColorMatrix in="SourceAlpha" type="matrix" values="0 0 0 0 0 0 0 0 0 0 0 0 0 0 0 0 0 0 127 0" result="hardAlpha"/>
<feOffset dy="-30"/>
<feComposite in2="hardAlpha" operator="arithmetic" k2="-1" k3="1"/>
<feColorMatrix type="matrix" values="0 0 0 0 0 0 0 0 0 0 0 0 0 0 0 0 0 0 0.25 0"/>
<feBlend mode="normal" in2="shape" result="effect1_innerShadow_22057_76"/>
</filter>
</defs>
</svg>