<svg width="208" height="192" viewBox="0 0 208 192" fill="none" xmlns="http://www.w3.org/2000/svg">
<g filter="url(#filter0_i_1_356)">
<circle cx="96" cy="96" r="95" fill="#FDD54C"/>
</g>
<circle cx="96" cy="96" r="95.5" stroke="black"/>
<path d="M98.5 17C120.5 19 139 26 154 42.5M161.5 54C163.5 55.5 165 59 165 59" stroke="white" stroke-width="8" stroke-linecap="round"/>
<path d="M48.6631 86.4641C46.0649 87.0154 43.9788 86.7997 42.4048 85.817C40.8464 84.831 39.7564 82.9155 39.1348 80.0706C38.5713 77.4914 38.7543 75.3306 39.6837 73.588C40.6098 71.8298 42.2139 70.7014 44.496 70.2028C45.9029 69.8954 47.176 69.8383 48.3155 70.0316C49.455 70.2248 50.3915 70.6507 51.125 71.3093C51.8585 71.9679 52.3414 72.8287 52.5736 73.8916C52.758 74.7357 52.7344 75.527 52.5027 76.2655C52.2866 77.0005 51.8754 77.7045 51.2691 78.3775C51.8679 78.3449 52.4364 78.5482 52.9746 78.9875C53.5284 79.4233 53.8821 79.9929 54.0358 80.6963C54.1997 81.4466 54.1519 82.2022 53.8924 82.9632C53.645 83.7051 53.0907 84.3912 52.2294 85.0216C51.3838 85.6485 50.195 86.1294 48.6631 86.4641ZM45.1345 78.0719C45.4466 78.1511 45.8136 78.1446 46.2357 78.0524C46.7359 77.9431 47.1401 77.7319 47.4484 77.4189C47.7689 77.0868 47.8762 76.6785 47.7704 76.1939C47.6679 75.725 47.4035 75.4143 46.9771 75.2618C46.5629 75.0902 46.0979 75.0608 45.5821 75.1735C45.1757 75.2623 44.8472 75.4078 44.5965 75.6099C44.3982 75.7515 44.2699 75.9515 44.2117 76.2099C44.1536 76.4683 44.1535 76.7303 44.2115 76.9961C44.2696 77.2618 44.379 77.5 44.5396 77.7105C44.6968 77.9054 44.8951 78.0259 45.1345 78.0719ZM46.3332 83.5584C46.6575 83.6186 47.0229 83.6043 47.4293 83.5155C47.9295 83.4062 48.3372 83.2107 48.6523 82.9289C48.9796 82.6281 49.0972 82.2667 49.005 81.8446C48.9162 81.4382 48.6603 81.1666 48.2373 81.0297C47.8144 80.8928 47.3528 80.8791 46.8526 80.9883C46.4618 81.0737 46.1316 81.2114 45.8619 81.4013C45.6636 81.5429 45.5319 81.7273 45.4669 81.9544C45.3984 82.1659 45.3898 82.3889 45.441 82.6233C45.4923 82.8578 45.5948 83.0647 45.7486 83.244C45.899 83.4076 46.0939 83.5125 46.3332 83.5584ZM61.6117 83.6841C60.4896 83.9456 59.4302 83.9314 58.4333 83.6415C57.4521 83.3482 56.6192 82.8342 55.9345 82.0994C55.2621 81.3455 54.7959 80.4484 54.5358 79.4079C54.2914 78.364 54.3287 77.3732 54.6479 76.4355C54.9671 75.4977 55.5193 74.6892 56.3044 74.01C57.1051 73.3273 58.0682 72.8631 59.1936 72.6172C60.2878 72.3781 61.3238 72.3974 62.3016 72.6751C63.2951 72.9493 64.1419 73.4522 64.8422 74.1836C65.5424 74.9149 66.0226 75.8009 66.2827 76.8413C66.5203 77.8539 66.4812 78.8369 66.1655 79.7903C65.8463 80.7281 65.288 81.5461 64.4907 82.2444C63.709 82.9392 62.7493 83.4191 61.6117 83.6841ZM60.9341 80.2455C61.3561 80.1533 61.6876 79.9089 61.9285 79.5123C62.1694 79.1157 62.242 78.6986 62.1464 78.261C62.0508 77.8233 61.8125 77.4823 61.4316 77.238C61.0472 76.978 60.644 76.8941 60.222 76.9864C59.7999 77.0786 59.4684 77.323 59.2275 77.7195C58.9832 78.1004 58.9089 78.5098 59.0045 78.9474C59.1001 79.3851 59.3401 79.7339 59.7245 79.9939C60.1088 80.2538 60.512 80.3377 60.9341 80.2455ZM73.8751 80.9801C72.734 81.2294 71.6722 81.1666 70.6895 80.7917C69.7034 80.4012 68.8649 79.7492 68.174 78.8356C67.4952 77.903 67.009 76.7645 66.7153 75.4202C66.4284 74.1072 66.4141 73.0294 66.6722 72.1869C66.9303 71.3444 67.4345 70.8412 68.1848 70.6773C69.5134 70.387 70.3263 70.9218 70.6235 72.2817C70.6849 72.563 70.7318 72.8149 70.7639 73.0371C70.7927 73.2437 70.8164 73.4269 70.8349 73.5866C70.909 74.2255 70.987 74.7326 71.069 75.1077C71.2192 75.7955 71.4743 76.2884 71.8342 76.5865C72.1941 76.8845 72.5773 76.9891 72.9837 76.9003C73.4058 76.8081 73.7121 76.561 73.9027 76.1591C74.1055 75.7381 74.1301 75.1759 73.9764 74.4725C73.8671 73.9723 73.7429 73.5163 73.6038 73.1045C73.5574 72.9672 73.4974 72.7674 73.4237 72.5051C73.3466 72.2272 73.2824 71.971 73.2312 71.7365C72.9306 70.3609 73.4447 69.528 74.7734 69.2377C75.5237 69.0738 76.184 69.3226 76.7543 69.9841C77.3369 70.6265 77.7733 71.6121 78.0636 72.9407C78.5178 75.0197 78.3953 76.7825 77.696 78.2291C76.9932 79.6601 75.7196 80.5771 73.8751 80.9801ZM89.827 77.4947C89.2643 77.6177 88.8081 77.5536 88.4585 77.3024C88.1244 77.0479 87.8766 76.7008 87.715 76.2611C87.5535 75.8215 87.3941 75.2421 87.237 74.5231C87.0355 73.6009 86.7551 72.917 86.3957 72.4714C86.0363 72.0258 85.5753 71.8645 85.0125 71.9875C84.4967 72.1002 84.1606 72.4357 84.0041 72.9939C83.8599 73.5332 83.8817 74.2326 84.0695 75.0923C84.2506 75.9208 84.3637 76.5512 84.409 76.9835C84.4544 77.4157 84.38 77.825 84.186 78.2114C83.9886 78.582 83.585 78.834 82.9754 78.9672C82.0844 79.1619 81.3345 78.7279 80.7257 77.6654C80.1135 76.5872 79.6383 75.2744 79.3002 73.7269C78.4805 69.9754 78.86 67.9272 80.4388 67.5822C80.8765 67.4866 81.2599 67.5175 81.5891 67.6749C81.9148 67.8166 82.1751 68.0709 82.3699 68.4378C82.5253 68.1745 82.7953 67.9108 83.1797 67.6467C83.5798 67.3791 84.0222 67.1924 84.5067 67.0865C86.2262 66.7108 87.6446 67.056 88.7619 68.1221C89.8948 69.1848 90.6952 70.7868 91.1631 72.9283C91.4397 74.1944 91.4942 75.2307 91.3265 76.0371C91.1553 76.8279 90.6555 77.3137 89.827 77.4947ZM98.3502 75.6325C97.2403 75.875 96.1975 75.8244 95.2217 75.4808C94.2581 75.1182 93.4557 74.5565 92.8145 73.7958C92.17 73.0195 91.7401 72.139 91.5249 71.1542C91.2722 69.9975 91.2932 68.9693 91.588 68.0696C91.895 67.1509 92.3809 66.4142 93.0458 65.8595C93.7264 65.3014 94.5043 64.9267 95.3797 64.7354C96.255 64.5442 97.0776 64.561 97.8473 64.7859C97.7443 64.4645 97.605 64.1264 97.4292 63.7718C97.2691 63.4137 97.1631 63.1912 97.1114 63.1042C96.8805 62.647 96.6979 62.261 96.5636 61.9464C96.4294 61.6319 96.3264 61.3104 96.2547 60.9822C96.1112 60.3257 96.1973 59.7828 96.513 59.3535C96.8286 58.9242 97.26 58.6498 97.8071 58.5303C98.6824 58.339 99.4893 58.6213 100.228 59.3771C100.966 60.1329 101.594 61.1339 102.112 62.3801C102.646 63.6229 103.058 64.9086 103.348 66.2372C103.741 68.0348 103.714 69.8995 103.268 71.8312C102.834 73.7438 101.195 75.0109 98.3502 75.6325ZM97.6814 71.8972C98.1035 71.805 98.4366 71.5684 98.681 71.1875C98.9219 70.7909 98.9945 70.3738 98.8989 69.9361C98.8033 69.4984 98.5633 69.1496 98.1789 68.8897C97.7946 68.6297 97.3914 68.5459 96.9693 68.6381C96.5473 68.7303 96.208 68.9764 95.9515 69.3764C95.7106 69.7729 95.6379 70.19 95.7336 70.6277C95.8292 71.0654 96.0692 71.4142 96.4535 71.6741C96.8501 71.9151 97.2594 71.9894 97.6814 71.8972ZM118.633 61.4237C120.171 61.1202 121.309 61.0436 122.046 61.1937C122.799 61.3404 123.267 61.8359 123.452 62.6799C123.633 63.5084 123.404 64.148 122.766 64.5986C122.139 65.0303 121.095 65.4222 119.632 65.7745L120.061 67.6217C120.141 67.9153 120.239 68.3278 120.356 68.8593C120.502 69.5314 120.419 70.0492 120.105 70.4125C119.788 70.7602 119.38 70.9887 118.879 71.098C118.02 71.2858 117.3 70.9926 116.722 70.2182C116.143 69.4439 115.633 68.2698 115.191 66.6959C114.158 66.8397 113.357 66.81 112.788 66.6066C112.235 66.3999 111.882 65.9448 111.728 65.2414C111.575 64.538 111.706 63.977 112.122 63.5585C112.551 63.121 113.263 62.7443 114.258 62.4285C114.021 60.8918 113.969 59.5684 114.103 58.4581C114.237 57.3479 114.648 56.4148 115.334 55.6589C116.017 54.8873 117.046 54.3513 118.422 54.0507C119.282 53.8629 120.037 53.9107 120.689 54.1941C121.353 54.4586 121.766 54.9659 121.93 55.7162C122.101 56.4978 121.989 57.1447 121.593 57.657C121.209 58.1502 120.62 58.5655 119.826 58.9028C119.303 59.1318 118.957 59.4612 118.789 59.891C118.618 60.3051 118.565 60.816 118.633 61.4237ZM131.22 68.4755C130.098 68.737 129.038 68.7228 128.041 68.4329C127.06 68.1396 126.227 67.6255 125.542 66.8907C124.87 66.1369 124.404 65.2397 124.144 64.1993C123.899 63.1554 123.937 62.1646 124.256 61.2268C124.575 60.2891 125.127 59.4806 125.912 58.8014C126.713 58.1187 127.676 57.6544 128.802 57.4085C129.896 57.1695 130.932 57.1888 131.91 57.4665C132.903 57.7407 133.75 58.2436 134.45 58.9749C135.15 59.7063 135.631 60.5922 135.891 61.6327C136.128 62.6453 136.089 63.6283 135.773 64.5817C135.454 65.5194 134.896 66.3375 134.099 67.0357C133.317 67.7306 132.357 68.2105 131.22 68.4755ZM130.542 65.0369C130.964 64.9446 131.295 64.7003 131.536 64.3037C131.777 63.9071 131.85 63.49 131.754 63.0523C131.659 62.6147 131.42 62.2737 131.039 62.0293C130.655 61.7694 130.252 61.6855 129.83 61.7777C129.408 61.87 129.076 62.1143 128.835 62.5109C128.591 62.8918 128.517 63.3011 128.612 63.7388C128.708 64.1765 128.948 64.5253 129.332 64.7852C129.717 65.0452 130.12 65.1291 130.542 65.0369ZM140.547 66.413C139.546 66.6316 138.746 66.1923 138.146 65.0951C137.562 63.9945 137.044 62.4125 136.593 60.3492C136.388 59.4113 136.257 58.6212 136.198 57.9789C136.152 57.3175 136.245 56.7321 136.478 56.2227C136.723 55.6943 137.197 55.3532 137.9 55.1995C138.338 55.1039 138.743 55.1218 139.116 55.2533C139.504 55.3814 139.786 55.6227 139.962 55.9774C140.237 55.5896 140.631 55.2578 141.144 54.982C141.657 54.7061 142.226 54.4999 142.852 54.3633C143.352 54.254 143.887 54.2681 144.458 54.4055C145.044 54.5394 145.557 54.7877 145.996 55.1502C146.448 55.4937 146.728 55.9156 146.838 56.4158C146.947 56.916 146.865 57.4007 146.59 57.8701C146.328 58.3204 145.908 58.6087 145.33 58.735C145.142 58.776 144.958 58.7919 144.775 58.7825C144.609 58.7698 144.458 58.7536 144.323 58.7341C143.983 58.6773 143.719 58.6694 143.531 58.7104C142.922 58.8436 142.435 59.2037 142.072 59.7908C141.721 60.3587 141.628 61.0179 141.792 61.7682C141.973 62.5966 142.092 63.2912 142.149 63.852C142.206 64.4127 142.126 64.9461 141.909 65.4521C141.689 65.9424 141.234 66.2628 140.547 66.413ZM52.0654 108.24C49.4672 108.791 47.3811 108.575 45.8071 107.593C44.2487 106.607 43.1587 104.691 42.5371 101.846C41.9736 99.2671 42.1566 97.1062 43.086 95.3636C44.0121 93.6054 45.6162 92.477 47.8983 91.9784C49.3052 91.671 50.5783 91.614 51.7178 91.8072C52.8573 92.0004 53.7938 92.4263 54.5273 93.0849C55.2608 93.7435 55.7437 94.6043 55.9759 95.6672C56.1603 96.5113 56.1367 97.3026 55.905 98.0411C55.6889 98.7761 55.2777 99.4801 54.6714 100.153C55.2702 100.121 55.8387 100.324 56.3769 100.763C56.9307 101.199 57.2844 101.769 57.4381 102.472C57.602 103.222 57.5542 103.978 57.2947 104.739C57.0473 105.481 56.493 106.167 55.6317 106.797C54.7861 107.424 53.5973 107.905 52.0654 108.24ZM48.5367 99.8475C48.8488 99.9267 49.2159 99.9202 49.638 99.828C50.1382 99.7187 50.5424 99.5075 50.8507 99.1945C51.1712 98.8625 51.2785 98.4541 51.1726 97.9696C51.0702 97.5006 50.8058 97.1899 50.3794 97.0374C49.9652 96.8659 49.5002 96.8364 48.9844 96.9491C48.578 97.0379 48.2495 97.1834 47.9988 97.3856C47.8005 97.5272 47.6722 97.7272 47.614 97.9855C47.5558 98.2439 47.5558 98.506 47.6138 98.7717C47.6719 99.0374 47.7813 99.2756 47.9419 99.4861C48.0991 99.6811 48.2974 99.8015 48.5367 99.8475ZM49.7355 105.334C50.0598 105.394 50.4252 105.38 50.8316 105.291C51.3318 105.182 51.7395 104.986 52.0546 104.705C52.3819 104.404 52.4995 104.042 52.4073 103.62C52.3185 103.214 52.0626 102.942 51.6396 102.805C51.2167 102.668 50.7551 102.655 50.2549 102.764C49.8641 102.849 49.5339 102.987 49.2642 103.177C49.0659 103.319 48.9342 103.503 48.8692 103.73C48.8007 103.942 48.7921 104.164 48.8433 104.399C48.8946 104.633 48.9971 104.84 49.1509 105.02C49.3013 105.183 49.4962 105.288 49.7355 105.334ZM65.0323 105.431C63.8756 105.684 62.8022 105.681 61.8122 105.422C60.8221 105.164 59.9882 104.683 59.3104 103.979C58.6449 103.256 58.1994 102.379 57.974 101.348C57.752 100.332 57.7893 99.3408 58.0861 98.3752C58.3984 97.4062 58.9359 96.5682 59.6986 95.8611C60.4612 95.154 61.3975 94.6792 62.5073 94.4367C63.5077 94.2181 64.4352 94.2284 65.29 94.4675C66.1447 94.7065 66.8487 95.1177 67.402 95.7011C67.9518 96.2688 68.3053 96.9122 68.4624 97.6312C68.7185 98.8035 68.4609 99.7606 67.6894 100.502C66.9302 101.225 65.941 101.72 64.7217 101.986C63.9089 102.164 63.1989 102.212 62.5918 102.132C63.2281 102.796 64.0855 103.009 65.1641 102.774C65.6018 102.678 66.0587 102.521 66.535 102.302C66.7124 102.214 66.887 102.152 67.0589 102.114C67.4028 102.039 67.6952 102.065 67.9359 102.193C68.1923 102.317 68.353 102.527 68.4179 102.824C68.5238 103.309 68.319 103.796 67.8035 104.285C67.2847 104.759 66.3609 105.141 65.0323 105.431ZM62.0372 99.2561C62.2257 99.4442 62.4491 99.5674 62.7075 99.6256C62.9781 99.6647 63.2619 99.6518 63.5588 99.587C63.9027 99.5118 64.1827 99.3688 64.3986 99.1578C64.6302 98.9434 64.7186 98.7112 64.664 98.4611C64.6025 98.1798 64.4324 97.9631 64.1535 97.8111C63.8903 97.6557 63.5476 97.6241 63.1256 97.7163C62.7035 97.8085 62.3965 98.0148 62.2044 98.3352C62.0246 98.6365 61.9689 98.9435 62.0372 99.2561ZM73.3794 103.607C72.379 103.826 71.5787 103.387 70.9787 102.289C70.3943 101.189 69.8767 99.6068 69.4259 97.5435C69.221 96.6056 69.0893 95.8155 69.0308 95.1732C68.9846 94.5118 69.0778 93.9265 69.3104 93.4171C69.5553 92.8886 70.0294 92.5476 70.7328 92.3939C71.1705 92.2982 71.5756 92.3162 71.9483 92.4477C72.3366 92.5757 72.6186 92.8171 72.7943 93.1718C73.0699 92.784 73.4642 92.4522 73.9771 92.1763C74.4901 91.9005 75.0592 91.6943 75.6844 91.5577C76.1846 91.4484 76.72 91.4624 77.2904 91.5998C77.8765 91.7338 78.3893 91.9821 78.8289 92.3446C79.2806 92.6881 79.5611 93.1099 79.6704 93.6101C79.7797 94.1103 79.6973 94.5951 79.4231 95.0644C79.1612 95.5147 78.7411 95.803 78.1627 95.9294C77.9751 95.9704 77.7902 95.9862 77.6081 95.9769C77.4415 95.9642 77.2906 95.948 77.1553 95.9284C76.8153 95.8717 76.5516 95.8638 76.364 95.9048C75.7544 96.038 75.268 96.3981 74.905 96.9851C74.5541 97.5531 74.4607 98.2122 74.6246 98.9625C74.8056 99.791 74.9246 100.486 74.9816 101.046C75.0386 101.607 74.9586 102.14 74.7416 102.646C74.5212 103.137 74.0671 103.457 73.3794 103.607ZM86.1504 100.817C84.9312 101.083 83.871 101.028 82.9699 100.652C82.0654 100.26 81.4987 99.5405 81.2699 98.4933C81.0718 97.5866 81.3133 96.7805 81.9944 96.0749C82.6754 95.3692 83.61 94.8866 84.7979 94.6271C85.2356 94.5314 85.6506 94.4817 86.0428 94.4779C86.4472 94.4551 86.73 94.4752 86.8912 94.5382C86.8058 94.1474 86.5717 93.8628 86.1888 93.6845C85.8025 93.4905 85.2733 93.4669 84.6011 93.6137C84.3041 93.6786 84.067 93.755 83.8896 93.8429C83.7123 93.9308 83.5245 94.0455 83.3261 94.1871C83.1278 94.3287 82.9399 94.4434 82.7626 94.5313C82.6009 94.6158 82.3716 94.6905 82.0746 94.7553C81.5744 94.8646 81.1563 94.825 80.8203 94.6363C80.4808 94.4321 80.2531 94.0642 80.1369 93.5328C80.0037 92.9231 80.1099 92.3595 80.4553 91.8418C80.8164 91.3207 81.3109 90.8852 81.9386 90.5351C82.5629 90.1694 83.2112 89.9131 83.8833 89.7663C85.212 89.476 86.3764 89.4836 87.3767 89.7891C88.3892 90.0756 89.1952 90.5792 89.7949 91.2998C90.4102 92.017 90.8254 92.868 91.0405 93.8527C91.1567 94.3842 91.2173 94.8868 91.2226 95.3606C91.2435 95.831 91.2109 96.2066 91.1249 96.4874C91.3847 96.6272 91.5966 96.8102 91.7607 97.0364C91.9404 97.2591 92.0593 97.5034 92.1173 97.7691C92.2164 98.2224 92.1454 98.6474 91.9045 99.0439C91.6793 99.4371 91.3165 99.6883 90.8163 99.7976C90.4412 99.8796 90.1244 99.8914 89.866 99.8333C89.6077 99.7751 89.32 99.6578 89.003 99.4814C88.6635 99.8012 88.2712 100.067 87.8262 100.279C87.3968 100.487 86.8382 100.667 86.1504 100.817ZM86.1019 98.3465C86.4302 98.2747 86.6727 98.148 86.8296 97.9664C87.002 97.7813 87.0661 97.5872 87.0217 97.3839C86.9773 97.1807 86.8381 97.031 86.6042 96.9347C86.3858 96.835 86.1126 96.821 85.7843 96.8927C85.456 96.9645 85.2057 97.0929 85.0332 97.2779C84.8764 97.4596 84.8202 97.652 84.8646 97.8553C84.909 98.0585 85.0403 98.2099 85.2586 98.3096C85.4926 98.4059 85.7737 98.4182 86.1019 98.3465ZM98.9348 97.9992C97.9344 98.2178 96.9358 98.1821 95.9389 97.8922C94.9543 97.5833 94.104 97.0648 93.3881 96.3369C92.6723 95.6089 92.1999 94.7213 91.9711 93.674C91.732 92.5798 91.7816 91.5699 92.1198 90.6444C92.4703 89.6998 93.0276 88.9148 93.7916 88.2893C94.5714 87.6603 95.4614 87.2366 96.4618 87.018C97.4153 86.8097 98.316 86.8094 99.1639 87.0172C100.012 87.225 100.713 87.5876 101.269 88.105C101.82 88.6068 102.168 89.1859 102.312 89.8425C102.431 90.3895 102.351 90.8492 102.072 91.2213C101.809 91.59 101.349 91.8461 100.693 91.9895C100.349 92.0647 100.069 92.0602 99.8543 91.9761C99.6394 91.8921 99.4031 91.7472 99.1452 91.5415C98.9064 91.348 98.6891 91.2153 98.4932 91.1435C98.3096 91.0526 98.0693 91.0396 97.7723 91.1045C97.3503 91.1967 97.0232 91.4237 96.7911 91.7856C96.5556 92.1319 96.4873 92.5316 96.5864 92.9849C96.6888 93.4539 96.9115 93.7983 97.2543 94.0182C97.6128 94.2346 98.0108 94.2951 98.4485 94.1994C98.7299 94.138 98.9402 94.0511 99.0794 93.9388C99.2187 93.8265 99.3633 93.6638 99.5133 93.4509C99.6911 93.2155 99.8653 93.0383 100.036 92.9191C100.203 92.7844 100.466 92.6777 100.826 92.5991C101.467 92.4591 101.997 92.5235 102.416 92.7922C102.835 93.061 103.094 93.422 103.193 93.8753C103.309 94.4068 103.207 94.9531 102.887 95.5142C102.584 96.072 102.087 96.5735 101.398 97.0188C100.709 97.4641 99.8883 97.7909 98.9348 97.9992ZM107.389 96.1766C106.623 96.344 105.972 96.175 105.436 95.6699C104.9 95.1647 104.419 94.3117 103.992 93.111C103.582 91.9069 103.138 90.2106 102.659 88.0222C102.26 86.1934 101.994 84.7529 101.863 83.7007C101.747 82.6452 101.811 81.7794 102.057 81.1034C102.299 80.4118 102.818 79.979 103.615 79.8048C104.303 79.6545 104.867 79.7607 105.306 80.1232C105.746 80.4857 106.084 80.985 106.321 81.621C106.559 82.2571 106.785 83.0674 107 84.0522L107.231 85.1073C107.509 84.8827 107.759 84.7135 107.98 84.5998C108.216 84.4826 108.576 84.3711 109.061 84.2652C110.124 84.033 111.098 84.1067 111.984 84.4865C112.866 84.8506 113.601 85.4432 114.19 86.2645C114.794 87.0823 115.218 88.0461 115.46 89.1559C115.775 90.594 115.878 91.8161 115.77 92.8223C115.675 93.8094 115.181 94.4004 114.291 94.595C113.665 94.7316 113.166 94.6934 112.791 94.4804C112.433 94.2639 112.154 93.9236 111.954 93.4595C111.77 92.992 111.586 92.3362 111.402 91.4922C111.2 90.5699 110.943 89.8809 110.631 89.4251C110.334 88.9659 109.943 88.7892 109.458 88.8951C108.974 89.0009 108.679 89.3357 108.572 89.8994C108.478 90.4439 108.523 91.1713 108.705 92.0813C108.874 92.9288 108.966 93.6129 108.982 94.1336C109.013 94.6509 108.904 95.0921 108.657 95.4574C108.421 95.8037 107.999 96.0434 107.389 96.1766ZM121.481 93.0977C120.262 93.3641 119.202 93.3091 118.3 92.9328C117.396 92.5408 116.829 91.8212 116.6 90.7739C116.402 89.8673 116.644 89.0611 117.325 88.3555C118.006 87.6499 118.941 87.1673 120.129 86.9077C120.566 86.8121 120.981 86.7624 121.373 86.7585C121.778 86.7357 122.061 86.7558 122.222 86.8188C122.136 86.4281 121.902 86.1435 121.519 85.9651C121.133 85.7711 120.604 85.7475 119.932 85.8944C119.635 85.9592 119.398 86.0356 119.22 86.1235C119.043 86.2114 118.855 86.3261 118.657 86.4677C118.458 86.6093 118.271 86.7241 118.093 86.8119C117.931 86.8964 117.702 86.9711 117.405 87.036C116.905 87.1453 116.487 87.1056 116.151 86.917C115.811 86.7127 115.584 86.3449 115.468 85.8134C115.334 85.2038 115.44 84.6401 115.786 84.1225C116.147 83.6014 116.641 83.1658 117.269 82.8157C117.894 82.45 118.542 82.1938 119.214 82.0469C120.543 81.7566 121.707 81.7642 122.707 82.0698C123.72 82.3562 124.526 82.8598 125.125 83.5804C125.741 84.2976 126.156 85.1486 126.371 86.1333C126.487 86.6648 126.548 87.1674 126.553 87.6412C126.574 88.1116 126.541 88.4872 126.455 88.7681C126.715 88.9078 126.927 89.0908 127.091 89.317C127.271 89.5398 127.39 89.784 127.448 90.0498C127.547 90.5031 127.476 90.928 127.235 91.3246C127.01 91.7177 126.647 91.9689 126.147 92.0782C125.772 92.1602 125.455 92.1721 125.197 92.1139C124.938 92.0557 124.651 91.9384 124.334 91.762C123.994 92.0818 123.602 92.3477 123.157 92.5596C122.727 92.768 122.169 92.9474 121.481 93.0977ZM121.433 90.6271C121.761 90.5554 122.003 90.4287 122.16 90.247C122.333 90.0619 122.397 89.8678 122.352 89.6646C122.308 89.4614 122.169 89.3116 121.935 89.2153C121.716 89.1156 121.443 89.1017 121.115 89.1734C120.787 89.2451 120.536 89.3735 120.364 89.5586C120.207 89.7402 120.151 89.9327 120.195 90.1359C120.24 90.3391 120.371 90.4905 120.589 90.5902C120.823 90.6865 121.104 90.6988 121.433 90.6271ZM129.243 79.4872C128.477 79.6546 127.768 79.5228 127.117 79.0918C126.463 78.6452 126.049 78.0233 125.874 77.2261C125.704 76.4445 125.824 75.7221 126.236 75.0589C126.645 74.3801 127.232 73.957 127.998 73.7896C128.748 73.6257 129.45 73.767 130.105 74.2136C130.771 74.6412 131.19 75.2458 131.361 76.0273C131.535 76.8245 131.41 77.5643 130.986 78.2465C130.574 78.9097 129.993 79.3233 129.243 79.4872ZM131.727 90.859C131.086 90.999 130.57 90.9234 130.179 90.6322C129.8 90.3219 129.476 89.8114 129.206 89.1007C128.948 88.3708 128.669 87.3182 128.368 85.9426C128.116 84.7859 127.971 83.8595 127.933 83.1635C127.911 82.464 128.021 81.916 128.262 81.5194C128.503 81.1229 128.92 80.8597 129.514 80.7299C130.155 80.5899 130.665 80.675 131.044 80.9853C131.435 81.2765 131.76 81.787 132.017 82.5168C132.287 83.2276 132.572 84.2707 132.873 85.6463C133.126 86.803 133.263 87.7311 133.285 88.4305C133.322 89.1266 133.221 89.6729 132.98 90.0695C132.739 90.466 132.321 90.7292 131.727 90.859ZM144.68 88.029C144.117 88.152 143.661 88.0878 143.311 87.8367C142.977 87.5821 142.729 87.235 142.568 86.7954C142.406 86.3557 142.247 85.7764 142.09 85.0574C141.888 84.1351 141.608 83.4512 141.248 83.0057C140.889 82.5601 140.428 82.3988 139.865 82.5218C139.349 82.6345 139.013 82.9699 138.857 83.5282C138.713 84.0674 138.734 84.7669 138.922 85.6266C139.103 86.4551 139.216 87.0854 139.262 87.5177C139.307 87.95 139.233 88.3593 139.039 88.7456C138.841 89.1163 138.438 89.3682 137.828 89.5014C136.937 89.6961 136.187 89.2622 135.578 88.1997C134.966 87.1215 134.491 85.8087 134.153 84.2612C133.333 80.5097 133.713 78.4614 135.291 78.1165C135.729 78.0209 136.113 78.0517 136.442 78.2091C136.767 78.3508 137.028 78.6051 137.223 78.972C137.378 78.7088 137.648 78.4451 138.032 78.1809C138.432 77.9134 138.875 77.7266 139.359 77.6208C141.079 77.2451 142.497 77.5903 143.614 78.6564C144.747 79.719 145.548 81.3211 146.016 83.4626C146.292 84.7287 146.347 85.765 146.179 86.5713C146.008 87.3621 145.508 87.848 144.68 88.029ZM145.743 71.7549C146.036 70.9212 146.714 70.3882 147.777 70.156C148.793 69.934 149.604 70.1252 150.211 70.7295C150.834 71.3305 151.255 72.1311 151.473 73.1315C151.654 73.96 151.778 74.8993 151.843 75.9495C151.906 76.9841 151.883 77.9307 151.776 78.7893C151.721 79.2109 151.553 79.6077 151.274 79.9798C151.008 80.3329 150.609 80.5675 150.077 80.6836C149.546 80.7997 149.077 80.7547 148.672 80.5484C148.263 80.3266 147.946 80.0356 147.72 79.6756C147.267 78.9555 146.857 78.128 146.489 77.193C146.118 76.2424 145.845 75.3685 145.671 74.5713C145.439 73.5083 145.463 72.5696 145.743 71.7549ZM152.867 85.3558C152.488 85.9463 151.97 86.3132 151.314 86.4567C150.657 86.6001 150.034 86.4825 149.443 86.1038C148.853 85.7251 148.486 85.2075 148.343 84.551C148.199 83.8945 148.317 83.271 148.695 82.6805C149.074 82.0901 149.592 81.7232 150.248 81.5797C150.905 81.4363 151.528 81.5539 152.119 81.9326C152.709 82.3113 153.076 82.8289 153.22 83.4854C153.363 84.1419 153.245 84.7654 152.867 85.3558Z" fill="black"/>
<path d="M182.002 57.5858C149.874 100.857 63.0718 139.981 22.273 154.927C21.6212 155.165 21.4387 155.971 21.8901 156.498C34.8642 171.654 46.1407 177.735 51.506 180.532C51.7351 180.652 51.9934 180.677 52.2413 180.604C100.044 166.473 162.467 134.116 191.325 97.7C191.464 97.5241 191.538 97.3054 191.537 97.081C191.481 77.4471 186.744 65.0324 183.739 57.8027C183.438 57.0789 182.469 56.9565 182.002 57.5858Z" fill="#F1D6D6" stroke="black" stroke-linecap="round"/>
<path d="M55.7096 172.252C54.587 172.921 53.4458 173.298 52.2862 173.383C51.1312 173.45 50.0299 173.19 48.9822 172.604C47.9278 172.006 47.0117 171.054 46.2339 169.748C45.6063 168.694 45.2602 167.566 45.1955 166.363C45.1309 165.16 45.3587 164.031 45.879 162.976C46.3992 161.921 47.1863 161.08 48.2402 160.452C49.2369 159.859 50.2373 159.519 51.2414 159.433C52.2387 159.336 53.1403 159.482 53.9462 159.871C54.7636 160.253 55.4077 160.84 55.8784 161.63C56.1786 162.134 56.2889 162.658 56.2093 163.202C56.1413 163.739 55.838 164.168 55.2996 164.489C54.8986 164.728 54.5484 164.843 54.2489 164.835C53.9493 164.827 53.594 164.752 53.1829 164.609C52.7718 164.466 52.4107 164.394 52.0997 164.393C51.7934 164.373 51.4283 164.49 51.0044 164.742C50.466 165.063 50.1248 165.545 49.9809 166.19C49.8417 166.816 49.946 167.421 50.2939 168.005C50.6692 168.635 51.1468 169.072 51.7268 169.317C52.3114 169.543 52.8844 169.489 53.4457 169.154C53.8811 168.895 54.1872 168.627 54.3642 168.351C54.5526 168.068 54.7184 167.721 54.8615 167.31C54.9793 166.961 55.1049 166.677 55.2382 166.457C55.383 166.232 55.6044 166.03 55.9022 165.853C56.3604 165.58 56.8066 165.508 57.2406 165.637C57.6678 165.755 58.0145 166.038 58.2805 166.485C58.5944 167.012 58.6998 167.632 58.5968 168.345C58.5053 169.051 58.2103 169.754 57.7118 170.455C57.2133 171.155 56.5459 171.754 55.7096 172.252ZM63.9542 167.389C63.0607 167.921 62.2081 168.157 61.3965 168.097C60.5781 168.026 59.9404 167.607 59.4833 166.839C59.0876 166.175 59.0659 165.474 59.4182 164.736C59.7705 163.999 60.382 163.371 61.2526 162.852C61.5734 162.661 61.8883 162.513 62.1973 162.406C62.511 162.281 62.7399 162.223 62.8839 162.23C62.7134 161.944 62.4532 161.78 62.1035 161.74C61.7469 161.689 61.3224 161.81 60.8298 162.103C60.6121 162.233 60.4448 162.356 60.3278 162.472C60.2108 162.588 60.0925 162.729 59.9731 162.893C59.8536 163.057 59.7354 163.197 59.6184 163.314C59.5129 163.423 59.3513 163.542 59.1336 163.672C58.767 163.89 58.426 163.969 58.1107 163.909C57.7885 163.837 57.5114 163.606 57.2795 163.217C57.0134 162.77 56.9487 162.296 57.0852 161.796C57.2332 161.289 57.5092 160.814 57.9131 160.372C58.3102 159.918 58.755 159.545 59.2476 159.251C60.2214 158.671 61.1439 158.37 62.0152 158.348C62.8911 158.307 63.6611 158.493 64.3252 158.904C65.0007 159.309 65.5533 159.872 65.9832 160.594C66.2151 160.983 66.3956 161.365 66.5247 161.738C66.6653 162.104 66.7386 162.41 66.7447 162.654C66.9869 162.696 67.2027 162.785 67.3921 162.921C67.5929 163.049 67.7513 163.211 67.8672 163.406C68.0651 163.738 68.1211 164.093 68.0352 164.47C67.9608 164.84 67.7404 165.134 67.3738 165.352C67.0988 165.516 66.8516 165.609 66.632 165.631C66.4124 165.653 66.154 165.637 65.857 165.581C65.6729 165.923 65.4329 166.237 65.137 166.522C64.8525 166.8 64.4583 167.089 63.9542 167.389ZM63.2643 165.449C63.5049 165.305 63.6632 165.141 63.7393 164.956C63.8268 164.765 63.8262 164.594 63.7375 164.445C63.6488 164.296 63.4993 164.215 63.289 164.2C63.0901 164.179 62.8704 164.24 62.6299 164.383C62.3893 164.527 62.2252 164.694 62.1377 164.886C62.0616 165.071 62.0679 165.238 62.1566 165.387C62.2453 165.536 62.3891 165.621 62.588 165.642C62.7983 165.656 63.0238 165.592 63.2643 165.449ZM75.0761 160.766C74.5491 161.079 74.0825 161.117 73.6763 160.878C73.27 160.638 72.8486 160.152 72.412 159.419C72.0913 158.881 71.8571 158.5 71.7092 158.278C71.5544 158.044 71.3892 157.871 71.2135 157.758C71.0493 157.639 70.8755 157.634 70.6922 157.743C70.4746 157.873 70.3585 158.043 70.3441 158.253C70.3229 158.452 70.369 158.673 70.4826 158.915C70.6007 159.14 70.7928 159.475 71.0589 159.922C71.3864 160.472 71.6227 160.921 71.7679 161.269C71.9063 161.606 71.9395 161.935 71.8676 162.257C71.7888 162.568 71.5432 162.846 71.1308 163.092C69.8936 163.829 68.3403 162.628 66.471 159.489C65.8365 158.423 65.437 157.544 65.2723 156.85C65.1123 156.139 65.2515 155.552 65.6897 155.089C65.8504 154.916 66.0109 154.781 66.1713 154.686C66.4118 154.542 66.6602 154.464 66.9164 154.451C67.1725 154.439 67.3953 154.5 67.5846 154.635C67.6904 154.448 67.8098 154.284 67.9429 154.143C68.076 154.001 68.2915 153.842 68.5894 153.665C68.9559 153.446 69.3542 153.333 69.7841 153.326C70.2187 153.3 70.6002 153.406 70.9287 153.645C71.0219 153.124 71.1696 152.694 71.372 152.357C71.5789 152.001 71.923 151.679 72.4041 151.393C73.1144 150.97 73.8592 150.813 74.6386 150.923C75.4226 151.015 76.1761 151.342 76.8992 151.905C77.6268 152.449 78.2533 153.163 78.7786 154.045C79.3653 155.03 79.7111 155.91 79.816 156.686C79.921 157.461 79.6469 158.043 78.994 158.432C78.5586 158.692 78.1788 158.77 77.8544 158.669C77.5415 158.56 77.2666 158.359 77.0298 158.066C76.7976 157.754 76.4939 157.283 76.1186 156.653C75.7912 156.103 75.5123 155.726 75.282 155.522C75.0517 155.317 74.7877 155.304 74.4898 155.481C74.2722 155.611 74.2063 155.813 74.2923 156.088C74.3715 156.351 74.5714 156.752 74.892 157.29C74.942 157.4 75.0317 157.564 75.1614 157.782C75.5751 158.529 75.7903 159.137 75.807 159.609C75.8238 160.08 75.5801 160.465 75.0761 160.766ZM84.4996 158.482C83.9383 158.817 83.3611 158.772 82.7679 158.35C82.1816 157.938 81.6449 157.389 81.1578 156.701C80.6822 156.007 80.0931 155.07 79.3904 153.89C78.8514 152.985 78.4116 152.168 78.071 151.44C77.7419 150.705 77.5647 150.003 77.5395 149.336C77.5142 148.668 77.7823 148.167 78.3436 147.832C78.9279 147.485 79.4882 147.461 80.0245 147.763C80.172 147.411 80.4064 147.062 80.7277 146.715C81.0536 146.35 81.4342 146.038 81.8695 145.779C82.6027 145.343 83.3878 145.123 84.2247 145.122C85.0616 145.12 85.8476 145.319 86.5825 145.719C87.3175 146.12 87.9033 146.686 88.34 147.419C88.7766 148.153 88.9992 148.943 89.0079 149.792C89.0097 150.629 88.8104 151.415 88.4101 152.15C88.0098 152.885 87.4431 153.47 86.7099 153.907C86.2631 154.173 85.8109 154.365 85.3532 154.482C84.8886 154.588 84.4575 154.62 84.0598 154.577C84.4964 155.311 84.8112 155.891 85.0041 156.32C85.1971 156.748 85.2655 157.149 85.2094 157.524C85.1715 157.904 84.935 158.223 84.4996 158.482ZM84.9253 151.106C85.2231 150.928 85.4161 150.666 85.5041 150.319C85.5968 149.953 85.5544 149.622 85.377 149.324C85.1997 149.026 84.9316 148.836 84.5729 148.755C84.2188 148.656 83.8928 148.695 83.5949 148.872C83.2971 149.049 83.1018 149.321 83.0091 149.686C82.9211 150.034 82.9658 150.356 83.1432 150.654C83.3205 150.952 83.5863 151.151 83.9404 151.25C84.2991 151.331 84.6274 151.283 84.9253 151.106ZM94.3445 149.291C93.4509 149.823 92.5984 150.059 91.7868 149.999C90.9684 149.928 90.3307 149.508 89.8736 148.741C89.4779 148.076 89.4562 147.375 89.8085 146.638C90.1608 145.901 90.7722 145.273 91.6429 144.754C91.9636 144.563 92.2785 144.414 92.5876 144.308C92.9013 144.183 93.1301 144.125 93.2742 144.132C93.1036 143.845 92.8435 143.682 92.4937 143.642C92.1372 143.591 91.7126 143.712 91.22 144.005C91.0024 144.135 90.835 144.258 90.718 144.374C90.601 144.49 90.4828 144.63 90.3634 144.795C90.2439 144.959 90.1257 145.099 90.0087 145.215C89.9031 145.325 89.7415 145.444 89.5239 145.574C89.1573 145.792 88.8163 145.871 88.501 145.811C88.1788 145.739 87.9017 145.508 87.6697 145.118C87.4037 144.672 87.3389 144.198 87.4755 143.698C87.6235 143.191 87.8995 142.716 88.3034 142.274C88.7005 141.82 89.1453 141.446 89.6379 141.153C90.6116 140.573 91.5342 140.272 92.4055 140.25C93.2814 140.209 94.0514 140.395 94.7154 140.806C95.391 141.211 95.9436 141.774 96.3734 142.496C96.6054 142.885 96.7859 143.266 96.915 143.64C97.0556 144.006 97.1289 144.311 97.1349 144.556C97.3772 144.598 97.593 144.687 97.7823 144.822C97.9831 144.951 98.1415 145.113 98.2575 145.308C98.4553 145.64 98.5113 145.994 98.4255 146.371C98.3511 146.742 98.1306 147.036 97.764 147.254C97.4891 147.418 97.2418 147.511 97.0222 147.533C96.8026 147.555 96.5443 147.538 96.2472 147.482C96.0632 147.825 95.8232 148.138 95.5273 148.423C95.2428 148.701 94.8485 148.99 94.3445 149.291ZM93.6546 147.35C93.8952 147.207 94.0535 147.043 94.1295 146.858C94.2171 146.666 94.2165 146.496 94.1278 146.347C94.0391 146.198 93.8896 146.116 93.6793 146.102C93.4804 146.081 93.2607 146.142 93.0201 146.285C92.7795 146.428 92.6155 146.596 92.528 146.788C92.4519 146.973 92.4582 147.14 92.5469 147.288C92.6356 147.437 92.7794 147.522 92.9782 147.544C93.1886 147.558 93.414 147.494 93.6546 147.35ZM96.8906 136.485C96.3292 136.819 95.7344 136.902 95.1062 136.733C94.4711 136.552 93.9795 136.17 93.6316 135.585C93.2905 135.013 93.1953 134.41 93.346 133.777C93.4899 133.133 93.8425 132.643 94.4039 132.309C94.9537 131.982 95.5462 131.908 96.1813 132.088C96.8211 132.251 97.3115 132.618 97.6526 133.191C98.0005 133.775 98.0968 134.393 97.9415 135.044C97.7907 135.677 97.4404 136.157 96.8906 136.485ZM101.854 144.819C101.384 145.098 100.956 145.175 100.57 145.048C100.189 144.902 99.7977 144.584 99.3968 144.094C99.0006 143.585 98.5023 142.826 97.902 141.818C97.3971 140.97 97.0381 140.276 96.825 139.736C96.6233 139.189 96.5653 138.727 96.6512 138.35C96.737 137.973 96.9976 137.655 97.4329 137.395C97.9026 137.116 98.3282 137.048 98.7096 137.194C99.0956 137.321 99.4867 137.639 99.8829 138.148C100.284 138.638 100.784 139.388 101.385 140.396C101.89 141.244 102.243 141.941 102.445 142.488C102.658 143.029 102.721 143.487 102.635 143.864C102.55 144.241 102.289 144.559 101.854 144.819ZM109.887 144.015C109.222 144.411 108.603 144.609 108.029 144.609C107.462 144.621 107.052 144.415 106.8 143.991C106.575 143.613 106.534 143.219 106.677 142.808C106.838 142.401 107.142 142.065 107.589 141.799C107.669 141.751 107.808 141.684 108.005 141.598C108.254 141.496 108.477 141.387 108.671 141.271C109.164 140.977 109.537 140.639 109.789 140.256C110.061 139.877 110.154 139.526 110.071 139.204C109.949 139.416 109.742 139.655 109.451 139.922C109.16 140.188 108.825 140.434 108.447 140.659C107.473 141.239 106.559 141.528 105.704 141.525C104.86 141.515 104.137 141.318 103.534 140.931C102.925 140.534 102.46 140.066 102.14 139.527C101.607 138.634 101.342 137.745 101.342 136.86C101.354 135.968 101.573 135.163 101.999 134.444C102.424 133.725 102.98 133.161 103.668 132.751C103.897 132.615 104.17 132.475 104.489 132.332C104.819 132.182 105.1 132.069 105.334 131.992C105.241 131.628 105.253 131.295 105.368 130.994C105.495 130.686 105.781 130.398 106.228 130.132C106.973 129.689 107.788 129.832 108.672 130.562C109.569 131.286 110.423 132.329 111.235 133.692C111.617 134.334 111.944 134.961 112.216 135.575C113.006 137.292 113.196 138.902 112.787 140.403C112.377 141.904 111.41 143.108 109.887 144.015ZM107.135 137.949C107.491 137.737 107.725 137.427 107.838 137.018C107.945 136.598 107.892 136.21 107.681 135.855C107.469 135.5 107.153 135.269 106.733 135.162C106.313 135.056 105.925 135.108 105.57 135.32C105.215 135.531 104.984 135.847 104.877 136.268C104.782 136.681 104.84 137.066 105.052 137.421C105.263 137.776 105.573 138.01 105.982 138.123C106.396 138.219 106.78 138.16 107.135 137.949ZM121.297 133.239C120.885 133.485 120.507 133.555 120.165 133.448C119.834 133.335 119.546 133.126 119.302 132.821C119.059 132.516 118.78 132.1 118.466 131.573C118.064 130.898 117.662 130.431 117.26 130.173C116.858 129.916 116.451 129.91 116.039 130.156C115.661 130.381 115.484 130.735 115.507 131.217C115.536 131.682 115.737 132.229 116.112 132.859C116.474 133.466 116.73 133.934 116.88 134.264C117.029 134.594 117.079 134.937 117.027 135.294C116.969 135.639 116.716 135.944 116.269 136.21C115.616 136.599 114.909 136.454 114.148 135.775C113.379 135.084 112.658 134.171 111.982 133.037C110.345 130.288 110.105 128.569 111.262 127.88C111.582 127.689 111.894 127.612 112.195 127.649C112.49 127.676 112.763 127.808 113.014 128.047C113.067 127.798 113.211 127.518 113.445 127.208C113.691 126.891 113.992 126.626 114.347 126.415C115.607 125.664 116.819 125.563 117.983 126.111C119.159 126.653 120.215 127.708 121.149 129.277C121.702 130.205 122.018 131.01 122.098 131.692C122.171 132.362 121.904 132.878 121.297 133.239ZM133.254 126.119C132.407 126.624 131.557 126.904 130.707 126.961C129.856 127.018 129.07 126.857 128.348 126.48C127.632 126.084 127.048 125.508 126.598 124.752C126.155 124.008 125.923 123.214 125.903 122.373C125.894 121.525 126.098 120.72 126.514 119.96C126.931 119.2 127.546 118.578 128.359 118.094C129.092 117.657 129.828 117.42 130.567 117.384C131.305 117.347 131.97 117.487 132.562 117.802C133.146 118.106 133.595 118.521 133.909 119.048C134.421 119.907 134.469 120.732 134.055 121.522C133.646 122.293 132.994 122.945 132.1 123.477C131.505 123.832 130.956 124.058 130.455 124.154C131.133 124.511 131.867 124.454 132.658 123.983C132.979 123.792 133.298 123.547 133.617 123.249C133.734 123.133 133.856 123.037 133.982 122.962C134.234 122.812 134.472 122.756 134.696 122.793C134.931 122.823 135.114 122.947 135.243 123.165C135.455 123.52 135.421 123.959 135.143 124.482C134.858 124.993 134.228 125.539 133.254 126.119ZM129.258 122.027C129.457 122.126 129.666 122.165 129.886 122.143C130.11 122.102 130.331 122.017 130.548 121.887C130.8 121.737 130.984 121.55 131.099 121.327C131.226 121.096 131.234 120.889 131.125 120.706C131.002 120.5 130.811 120.373 130.55 120.327C130.301 120.273 130.022 120.339 129.713 120.523C129.403 120.707 129.215 120.951 129.148 121.255C129.085 121.541 129.122 121.798 129.258 122.027ZM144.153 119.628C143.741 119.874 143.363 119.944 143.02 119.837C142.689 119.724 142.402 119.515 142.158 119.21C141.914 118.905 141.636 118.489 141.322 117.962C140.919 117.286 140.517 116.82 140.116 116.562C139.714 116.305 139.307 116.299 138.895 116.545C138.517 116.77 138.339 117.124 138.363 117.606C138.391 118.07 138.593 118.618 138.968 119.248C139.33 119.855 139.585 120.323 139.735 120.653C139.885 120.983 139.934 121.326 139.883 121.683C139.824 122.028 139.572 122.333 139.125 122.599C138.472 122.988 137.765 122.843 137.003 122.164C136.235 121.473 135.513 120.56 134.838 119.426C133.2 116.677 132.96 114.958 134.117 114.268C134.438 114.077 134.749 114.001 135.051 114.038C135.346 114.064 135.619 114.197 135.869 114.435C135.923 114.186 136.067 113.907 136.301 113.597C136.547 113.28 136.847 113.015 137.202 112.804C138.462 112.053 139.675 111.952 140.839 112.5C142.015 113.041 143.07 114.097 144.005 115.666C144.557 116.594 144.874 117.399 144.954 118.081C145.027 118.751 144.76 119.267 144.153 119.628ZM150.399 115.908C149.586 116.393 148.748 116.628 147.886 116.614C147.029 116.581 146.246 116.349 145.539 115.916C144.825 115.473 144.253 114.89 143.823 114.168C143.318 113.321 143.064 112.502 143.059 111.713C143.06 110.906 143.25 110.196 143.629 109.582C144.02 108.961 144.536 108.46 145.177 108.078C145.819 107.696 146.473 107.492 147.141 107.467C146.975 107.24 146.776 107.009 146.543 106.775C146.322 106.535 146.18 106.387 146.116 106.331C145.813 106.031 145.567 105.774 145.378 105.561C145.189 105.347 145.022 105.121 144.879 104.88C144.593 104.399 144.517 103.947 144.654 103.524C144.79 103.102 145.059 102.771 145.46 102.532C146.101 102.15 146.813 102.161 147.596 102.563C148.379 102.966 149.14 103.592 149.878 104.44C150.628 105.282 151.292 106.19 151.872 107.163C152.657 108.481 153.128 109.962 153.284 111.606C153.446 113.233 152.484 114.667 150.399 115.908ZM148.886 113.132C149.195 112.948 149.396 112.673 149.489 112.307C149.574 111.93 149.522 111.581 149.331 111.261C149.14 110.94 148.858 110.727 148.486 110.623C148.113 110.519 147.772 110.559 147.463 110.743C147.154 110.928 146.951 111.212 146.853 111.596C146.767 111.973 146.82 112.321 147.011 112.642C147.202 112.963 147.484 113.175 147.856 113.28C148.233 113.365 148.576 113.316 148.886 113.132ZM160.171 110.089C159.323 110.594 158.474 110.875 157.623 110.931C156.772 110.988 155.986 110.828 155.265 110.45C154.548 110.055 153.965 109.479 153.515 108.723C153.071 107.978 152.839 107.185 152.819 106.343C152.811 105.495 153.014 104.691 153.431 103.931C153.847 103.171 154.462 102.548 155.276 102.064C156.009 101.627 156.745 101.391 157.483 101.354C158.222 101.318 158.887 101.457 159.478 101.773C160.063 102.076 160.512 102.492 160.826 103.019C161.337 103.878 161.386 104.702 160.972 105.492C160.562 106.264 159.911 106.915 159.017 107.448C158.421 107.802 157.873 108.028 157.372 108.125C158.05 108.481 158.784 108.424 159.574 107.954C159.895 107.763 160.215 107.518 160.534 107.219C160.651 107.103 160.772 107.008 160.898 106.932C161.15 106.782 161.388 106.726 161.612 106.763C161.848 106.794 162.03 106.918 162.16 107.136C162.371 107.491 162.338 107.93 162.06 108.452C161.774 108.964 161.145 109.509 160.171 110.089ZM156.175 105.998C156.374 106.097 156.583 106.135 156.802 106.113C157.026 106.072 157.247 105.987 157.465 105.858C157.717 105.708 157.901 105.521 158.016 105.297C158.142 105.067 158.151 104.86 158.042 104.676C157.919 104.47 157.727 104.344 157.467 104.297C157.218 104.244 156.939 104.309 156.629 104.493C156.32 104.678 156.132 104.922 156.064 105.226C156.002 105.511 156.038 105.769 156.175 105.998ZM168.372 105.205C167.558 105.69 166.721 105.925 165.859 105.911C165.001 105.878 164.219 105.646 163.511 105.213C162.797 104.77 162.225 104.187 161.795 103.465C161.29 102.618 161.036 101.799 161.032 101.01C161.032 100.203 161.222 99.4926 161.601 98.8787C161.992 98.2581 162.508 97.7567 163.15 97.3747C163.791 96.9926 164.446 96.789 165.114 96.7637C164.947 96.5368 164.748 96.3063 164.516 96.0723C164.295 95.8315 164.152 95.6835 164.088 95.6285C163.785 95.3279 163.539 95.071 163.35 94.8577C163.161 94.6444 162.995 94.4175 162.851 94.1769C162.565 93.6958 162.49 93.2439 162.626 92.8213C162.762 92.3988 163.031 92.0681 163.432 91.8293C164.074 91.4472 164.786 91.4576 165.569 91.8603C166.352 92.2631 167.112 92.8887 167.85 93.7372C168.6 94.5789 169.265 95.4866 169.845 96.4603C170.629 97.7777 171.1 99.2588 171.257 100.903C171.418 102.53 170.457 103.964 168.372 105.205ZM166.858 102.429C167.167 102.245 167.368 101.97 167.461 101.604C167.547 101.227 167.494 100.878 167.303 100.558C167.112 100.237 166.83 100.024 166.458 99.9203C166.086 99.8162 165.745 99.8562 165.436 100.04C165.126 100.225 164.923 100.509 164.826 100.892C164.74 101.27 164.792 101.618 164.983 101.939C165.174 102.26 165.456 102.472 165.828 102.576C166.206 102.662 166.549 102.613 166.858 102.429Z" fill="black"/>
<defs>
<filter id="filter0_i_1_356" x="0" y="0" width="192" height="192" filterUnits="userSpaceOnUse" color-interpolation-filters="sRGB">
<feFlood flood-opacity="0" result="BackgroundImageFix"/>
<feBlend mode="normal" in="SourceGraphic" in2="BackgroundImageFix" result="shape"/>
<feColorMatrix in="SourceAlpha" type="matrix" values="0 0 0 0 0 0 0 0 0 0 0 0 0 0 0 0 0 0 127 0" result="hardAlpha"/>
<feOffset dy="-30"/>
<feComposite in2="hardAlpha" operator="arithmetic" k2="-1" k3="1"/>
<feColorMatrix type="matrix" values="0 0 0 0 0 0 0 0 0 0 0 0 0 0 0 0 0 0 0.25 0"/>
<feBlend mode="normal" in2="shape" result="effect1_innerShadow_1_356"/>
</filter>
</defs>
</svg>
