<svg width="1544" height="254" viewBox="0 0 1544 254" fill="none" xmlns="http://www.w3.org/2000/svg">
<path d="M522.5 93.2751C531.167 74.7751 550.707 44.9699 569.5 39.2751C586 34.2751 595 49.2751 595 49.2751C603.5 35.275 620.925 30.8299 635 39.2751C644.29 44.8493 638.908 56.4655 633.286 60.0906C640.859 56.2411 654.725 52.2062 658.5 62.7751C661.951 72.4366 656.223 80.0641 651.589 83.7961C658.089 79.5067 670.072 74.1325 679 78.7751C689 83.9751 687.5 90.6084 685.5 93.2751C699.167 84.9417 728 76.2751 734 108.275H522.5V93.2751Z" fill="#719243"/>
<path d="M522.5 93.2751C531.167 74.7751 550.707 44.9699 569.5 39.2751C586 34.2751 595 49.2751 595 49.2751C603.5 35.275 620.925 30.8299 635 39.2751C645 45.275 638 58.2751 632 60.7751C639.167 56.7751 654.5 51.5751 658.5 62.7751C662.5 73.9751 654.167 82.4417 649.5 85.2751C655.167 80.9417 669 73.5751 679 78.7751C689 83.9751 687.5 90.6084 685.5 93.2751C699.167 84.9417 728 76.2751 734 108.275H522.5V93.2751Z" stroke="black"/>
<rect x="511.5" y="107.5" width="521" height="298" fill="url(#paint0_linear_173_2391)" stroke="black"/>
<rect x="507" y="133" width="543" height="43" fill="#95BDFF"/>
<path d="M584.853 133.975C548.44 133.975 531.646 127.554 523 116.755V108H734C728.014 126.678 699.249 121.62 685.615 116.755C687.61 118.312 689.106 122.184 679.13 125.219C669.154 128.254 655.353 123.954 649.7 121.425C635.733 132.165 600.649 134.266 584.853 133.975Z" fill="#95BDFF"/>
<path d="M0 97.5H-0.5V98V395V395.5H0H551.5H551.979L552 395.021C556.001 301.482 548.123 227.196 539.243 176.289C534.802 150.836 530.111 131.227 526.53 117.979C524.739 111.355 523.225 106.321 522.158 102.941C521.625 101.252 521.204 99.9755 520.915 99.1211C520.771 98.6939 520.66 98.3721 520.585 98.1568C520.548 98.0491 520.519 97.968 520.5 97.9137L520.478 97.8523L520.473 97.8366L520.471 97.8326C520.471 97.8316 520.471 97.831 520 98L520.471 97.831L520.352 97.5H520H0Z" fill="#7C9744" stroke="black"/>
<path d="M1551.12 97.5H1551.62V98V395V395.5H1551.12H1008H1007.52L1007.5 395.021C1003.5 301.49 1009.28 227.21 1016.06 176.309C1019.45 150.858 1023.1 131.252 1025.89 118.006C1027.29 111.383 1028.47 106.35 1029.31 102.972C1029.73 101.282 1030.06 100.007 1030.29 99.1527C1030.4 98.7258 1030.49 98.4042 1030.55 98.189C1030.58 98.0815 1030.6 98.0005 1030.61 97.9463L1030.63 97.885L1030.63 97.8694L1030.64 97.8654C1030.64 97.8644 1030.64 97.8639 1031.12 98L1030.64 97.8639L1030.74 97.5H1031.12H1551.12Z" fill="#7C9744" stroke="black"/>
<rect x="-21.5" y="20.5" width="560" height="79" rx="8.5" fill="#90AF4E" stroke="black"/>
<rect x="0.5" y="-0.5" width="560" height="79" rx="8.5" transform="matrix(-1 0 0 1 1573.12 21)" fill="#90AF4E" stroke="black"/>
<path d="M1055.69 10.9341L1042.97 21.7996C1042.18 22.472 1042.81 23.7507 1043.83 23.5388L1048.57 22.546C1048.91 22.4755 1049.16 22.855 1048.96 23.1359C1048.76 23.4111 1049 23.7849 1049.33 23.7283L1054.3 22.8833C1054.48 22.8518 1054.59 23.0864 1054.44 23.205C1054.29 23.3305 1054.42 23.5768 1054.61 23.5223L1057.31 22.7519C1057.58 22.6739 1057.87 22.8159 1057.97 23.0803C1058.06 23.2974 1058.27 23.4374 1058.5 23.4294C1060.69 23.3548 1071.51 22.9693 1071.93 22.6273C1072.78 21.9307 1076.38 19.3275 1079.18 16.9666C1079.97 16.2947 1079.33 15.3462 1078.37 15.7466L1070.61 18.9791C1069.8 19.3155 1068.98 18.5252 1069.29 17.7055L1070.85 13.5487C1071.12 12.8265 1070.5 12.0988 1069.76 12.2868C1066.17 13.1888 1061.23 15.0906 1057.97 16.4496C1057.22 16.7635 1056.42 16.1025 1056.59 15.305L1057.32 11.9049C1057.52 10.9695 1056.42 10.3127 1055.69 10.9341Z" fill="#16643C"/>
<path d="M1040 24.3395L1055.69 10.9341C1056.42 10.3127 1057.52 10.9695 1057.32 11.9049L1056.59 15.305C1056.42 16.1025 1057.22 16.7635 1057.97 16.4496C1061.23 15.0906 1066.17 13.1888 1069.76 12.2868C1070.5 12.0988 1071.12 12.8265 1070.85 13.5487L1069.29 17.7055C1068.98 18.5252 1069.8 19.3155 1070.61 18.9791L1078.37 15.7466C1079.33 15.3462 1079.97 16.2947 1079.18 16.9666C1076.38 19.3275 1072.78 21.9307 1071.93 22.6273" stroke="black" stroke-linecap="round" stroke-linejoin="round"/>
<path d="M610.356 2L597.828 6.84961L610.356 12.5075L621.672 6.84961L610.356 2Z" fill="#BC9549" stroke="black" stroke-linejoin="round"/>
<path d="M621 22L610.355 26.0413V12.5075L621.671 6.84961L621 22Z" fill="#76500D" stroke="black" stroke-linejoin="round"/>
<path d="M598.5 22.5L610.356 25.5424V12.5075L597.828 6.84961L598.5 22.5Z" fill="#7A4A12" stroke="black" stroke-linejoin="round"/>
<path d="M950.356 1L937.828 5.84961L950.356 11.5075L961.672 5.84961L950.356 1Z" fill="#BC9549" stroke="black" stroke-linejoin="round"/>
<path d="M961 21L950.355 25.0413V11.5075L961.671 5.84961L961 21Z" fill="#76500D" stroke="black" stroke-linejoin="round"/>
<path d="M938.5 21.5L950.356 24.5424V11.5075L937.828 5.84961L938.5 21.5Z" fill="#7A4A12" stroke="black" stroke-linejoin="round"/>
<path d="M612.5 22.4126H610L618 84.8804L621 85.1818L628.5 84.8804H655L644.5 20.2727L628.5 22.4126H625L620.5 20.2727H612.5V22.4126Z" fill="#BC9549"/>
<path d="M620.5 20.2727H612.5V22.4126H610L618 84.8804L621 85.1818L628.5 84.8804M620.5 20.2727L625 22.4126H628.5L644.5 20.2727L655 84.8804H628.5M620.5 20.2727C622 24.0769 622.5 25.1825 622.5 30.3182C622.5 35.4538 628.333 65.6853 629.5 69.7272M628.5 84.8804C628.5 84.8804 625.4 70.7972 625 65.0909M641 25.6818C642.667 38.4071 648 73.2106 648 78.0489" stroke="black"/>
<path d="M511 17.1816H522L522.5 16.4088H528L528.5 15.6361H537H538.5L541.5 17.9543L544 79.7725H538H532L530.5 76.6816V79.7725H515L516.5 71.2725L512 81.3179H502C504.5 68.9543 509.5 42.6816 509.5 36.4997C509.5 30.3179 510.5 21.0452 511 17.1816Z" fill="#BC9549"/>
<path d="M538 79.7725H544L541.5 17.9543L538.5 15.6361H537M538 79.7725H532L530.5 76.6816V79.7725H515L516.5 71.2725L512 81.3179H502C504.5 68.9543 509.5 42.6816 509.5 36.4997C509.5 30.3179 510.5 21.0452 511 17.1816H522L522.5 16.4088H528L528.5 15.6361H537M538 79.7725C537.167 68.4391 535.6 42.9907 536 31.8634C536.4 20.7361 536.833 16.4088 537 15.6361" stroke="black"/>
<path d="M522 90.5908H504L502 81.318H509H512L516.5 71.2726L515 79.7726H518.5H530.5V76.6817L532 79.7726H544L544.5 89.0453H529L528 89.818H522.5L522 90.5908Z" fill="#76500D"/>
<path d="M518.5 79.7726H530.5V76.6817L532 79.7726H544L544.5 89.0453H529L528 89.818H522.5L522 90.5908H504L502 81.318H509M518.5 79.7726H515L516.5 71.2726L512 81.318H509M518.5 79.7726C519.667 70.4998 522.3 49.7908 523.5 41.1362M509 81.318L522.5 24.9089V16.4089" stroke="black"/>
<path d="M544.5 92.909V80.5454L582.5 84.409V92.909H579H558.5L556 94.4545L544.5 92.909Z" fill="#76500D" stroke="black"/>
<path d="M582.5 92.1362V79.7726L619 84.4089V93.6817H610.5L598 95.2271L594 93.6817L582.5 92.1362Z" fill="#76500D" stroke="black"/>
<path d="M619 93.8362V85.1816H655V93.8362H646.616H633.795L632.315 95.9998L619 93.8362Z" fill="#76500D" stroke="black"/>
<path d="M544.5 20.2725H542L544.5 80.5453L547 85.9543L554.5 85.6278L582.5 84.4089L574 20.2725H571H560.5H557L552.5 17.9543H544.5V20.2725Z" fill="#BC9549"/>
<path d="M552.5 17.9543H544.5V20.2725H542L544.5 80.5453L547 85.9543L554.5 85.6278M552.5 17.9543L557 20.2725H560.5H571H574L582.5 84.4089L554.5 85.6278M552.5 17.9543C554 22.0756 557 31.7089 557 37.2725C557 42.8362 559.333 52.9846 560.5 57.3634M554.5 85.6278C553.167 69.767 550.4 36.4998 550 30.318M569 30.318C570.667 44.1037 574 72.9856 574 78.2271" stroke="black"/>
<path d="M576.5 17.1818H574L582.5 79.7727L585 85.1818L592.5 84.8553H619L608.5 14.8636L592.5 17.1818H589L584.5 14.8636H576.5V17.1818Z" fill="#BC9549"/>
<path d="M584.5 14.8636H576.5V17.1818H574L582.5 79.7727L585 85.1818L592.5 84.8553M584.5 14.8636L589 17.1818H592.5L608.5 14.8636L619 84.8553H592.5M584.5 14.8636C586 18.9849 589 28.6182 589 34.1818C589 39.7455 597.333 52.2121 598.5 56.5909M592.5 84.8553C591.167 68.9945 582.4 33.4091 582 27.2273M601 27.2273C602.667 41.013 612 72.2131 612 77.4545" stroke="black"/>
<path d="M743.5 22.4126H741L749 84.8804L752 85.1818L759.5 84.8804H786L775.5 20.2727L759.5 22.4126H756L751.5 20.2727H743.5V22.4126Z" fill="#BC9549"/>
<path d="M751.5 20.2727H743.5V22.4126H741L749 84.8804L752 85.1818L759.5 84.8804M751.5 20.2727L756 22.4126H759.5L775.5 20.2727L786 84.8804H759.5M751.5 20.2727C753 24.0769 753.5 25.1825 753.5 30.3182C753.5 35.4538 759.333 65.6853 760.5 69.7272M759.5 84.8804C759.5 84.8804 756.4 70.7972 756 65.0909M772 25.6818C773.667 38.4071 779 73.2106 779 78.0489" stroke="black"/>
<path d="M642 17.1816H653L653.5 16.4088H659L659.5 15.6361H668H669.5L672.5 17.9543L675 79.7725H669H663L661.5 76.6816V79.7725H646L647.5 71.2725L643 81.3179H633C635.5 68.9543 640.5 42.6816 640.5 36.4997C640.5 30.3179 641.5 21.0452 642 17.1816Z" fill="#BC9549"/>
<path d="M669 79.7725H675L672.5 17.9543L669.5 15.6361H668M669 79.7725H663L661.5 76.6816V79.7725H646L647.5 71.2725L643 81.3179H633C635.5 68.9543 640.5 42.6816 640.5 36.4997C640.5 30.3179 641.5 21.0452 642 17.1816H653L653.5 16.4088H659L659.5 15.6361H668M669 79.7725C668.167 68.4391 666.6 42.9907 667 31.8634C667.4 20.7361 667.833 16.4088 668 15.6361" stroke="black"/>
<path d="M653 90.5908H635L633 81.318H640H643L647.5 71.2726L646 79.7726H649.5H661.5V76.6817L663 79.7726H675L675.5 89.0453H660L659 89.818H653.5L653 90.5908Z" fill="#76500D"/>
<path d="M649.5 79.7726H661.5V76.6817L663 79.7726H675L675.5 89.0453H660L659 89.818H653.5L653 90.5908H635L633 81.318H640M649.5 79.7726H646L647.5 71.2726L643 81.318H640M649.5 79.7726C650.667 70.4998 653.3 49.7908 654.5 41.1362M640 81.318L653.5 24.9089V16.4089" stroke="black"/>
<path d="M675.5 92.909V80.5454L713.5 84.409V92.909H710H689.5L687 94.4545L675.5 92.909Z" fill="#76500D" stroke="black"/>
<path d="M713.5 92.1362V79.7726L750 84.4089V93.6817H741.5L729 95.2271L725 93.6817L713.5 92.1362Z" fill="#76500D" stroke="black"/>
<path d="M750 93.8362V85.1816H786V93.8362H777.616H764.795L763.315 95.9998L750 93.8362Z" fill="#76500D" stroke="black"/>
<path d="M675.5 20.2725H673L675.5 80.5453L678 85.9543L685.5 85.6278L713.5 84.4089L705 20.2725H702H691.5H688L683.5 17.9543H675.5V20.2725Z" fill="#BC9549"/>
<path d="M683.5 17.9543H675.5V20.2725H673L675.5 80.5453L678 85.9543L685.5 85.6278M683.5 17.9543L688 20.2725H691.5H702H705L713.5 84.4089L685.5 85.6278M683.5 17.9543C685 22.0756 688 31.7089 688 37.2725C688 42.8362 690.333 52.9846 691.5 57.3634M685.5 85.6278C684.167 69.767 681.4 36.4998 681 30.318M700 30.318C701.667 44.1037 705 72.9856 705 78.2271" stroke="black"/>
<path d="M707.5 17.1818H705L713.5 79.7727L716 85.1818L723.5 84.8553H750L739.5 14.8636L723.5 17.1818H720L715.5 14.8636H707.5V17.1818Z" fill="#BC9549"/>
<path d="M715.5 14.8636H707.5V17.1818H705L713.5 79.7727L716 85.1818L723.5 84.8553M715.5 14.8636L720 17.1818H723.5L739.5 14.8636L750 84.8553H723.5M715.5 14.8636C717 18.9849 720 28.6182 720 34.1818C720 39.7455 728.333 52.2121 729.5 56.5909M723.5 84.8553C722.167 68.9945 713.4 33.4091 713 27.2273M732 27.2273C733.667 41.013 743 72.2131 743 77.4545" stroke="black"/>
<path d="M872.5 22.4126H870L878 84.8804L881 85.1818L888.5 84.8804H915L904.5 20.2727L888.5 22.4126H885L880.5 20.2727H872.5V22.4126Z" fill="#BC9549"/>
<path d="M880.5 20.2727H872.5V22.4126H870L878 84.8804L881 85.1818L888.5 84.8804M880.5 20.2727L885 22.4126H888.5L904.5 20.2727L915 84.8804H888.5M880.5 20.2727C882 24.0769 882.5 25.1825 882.5 30.3182C882.5 35.4538 888.333 65.6853 889.5 69.7272M888.5 84.8804C888.5 84.8804 885.4 70.7972 885 65.0909M901 25.6818C902.667 38.4071 908 73.2106 908 78.0489" stroke="black"/>
<path d="M771 17.1816H782L782.5 16.4088H788L788.5 15.6361H797H798.5L801.5 17.9543L804 79.7725H798H792L790.5 76.6816V79.7725H775L776.5 71.2725L772 81.3179H762C764.5 68.9543 769.5 42.6816 769.5 36.4997C769.5 30.3179 770.5 21.0452 771 17.1816Z" fill="#BC9549"/>
<path d="M798 79.7725H804L801.5 17.9543L798.5 15.6361H797M798 79.7725H792L790.5 76.6816V79.7725H775L776.5 71.2725L772 81.3179H762C764.5 68.9543 769.5 42.6816 769.5 36.4997C769.5 30.3179 770.5 21.0452 771 17.1816H782L782.5 16.4088H788L788.5 15.6361H797M798 79.7725C797.167 68.4391 795.6 42.9907 796 31.8634C796.4 20.7361 796.833 16.4088 797 15.6361" stroke="black"/>
<path d="M782 90.5908H764L762 81.318H769H772L776.5 71.2726L775 79.7726H778.5H790.5V76.6817L792 79.7726H804L804.5 89.0453H789L788 89.818H782.5L782 90.5908Z" fill="#76500D"/>
<path d="M778.5 79.7726H790.5V76.6817L792 79.7726H804L804.5 89.0453H789L788 89.818H782.5L782 90.5908H764L762 81.318H769M778.5 79.7726H775L776.5 71.2726L772 81.318H769M778.5 79.7726C779.667 70.4998 782.3 49.7908 783.5 41.1362M769 81.318L782.5 24.9089V16.4089" stroke="black"/>
<path d="M804.5 92.909V80.5454L842.5 84.409V92.909H839H818.5L816 94.4545L804.5 92.909Z" fill="#76500D" stroke="black"/>
<path d="M842.5 92.1362V79.7726L879 84.4089V93.6817H870.5L858 95.2271L854 93.6817L842.5 92.1362Z" fill="#76500D" stroke="black"/>
<path d="M879 93.8362V85.1816H915V93.8362H906.616H893.795L892.315 95.9998L879 93.8362Z" fill="#76500D" stroke="black"/>
<path d="M804.5 20.2725H802L804.5 80.5453L807 85.9543L814.5 85.6278L842.5 84.4089L834 20.2725H831H820.5H817L812.5 17.9543H804.5V20.2725Z" fill="#BC9549"/>
<path d="M812.5 17.9543H804.5V20.2725H802L804.5 80.5453L807 85.9543L814.5 85.6278M812.5 17.9543L817 20.2725H820.5H831H834L842.5 84.4089L814.5 85.6278M812.5 17.9543C814 22.0756 817 31.7089 817 37.2725C817 42.8362 819.333 52.9846 820.5 57.3634M814.5 85.6278C813.167 69.767 810.4 36.4998 810 30.318M829 30.318C830.667 44.1037 834 72.9856 834 78.2271" stroke="black"/>
<path d="M836.5 17.1818H834L842.5 79.7727L845 85.1818L852.5 84.8553H879L868.5 14.8636L852.5 17.1818H849L844.5 14.8636H836.5V17.1818Z" fill="#BC9549"/>
<path d="M844.5 14.8636H836.5V17.1818H834L842.5 79.7727L845 85.1818L852.5 84.8553M844.5 14.8636L849 17.1818H852.5L868.5 14.8636L879 84.8553H852.5M844.5 14.8636C846 18.9849 849 28.6182 849 34.1818C849 39.7455 857.333 52.2121 858.5 56.5909M852.5 84.8553C851.167 68.9945 842.4 33.4091 842 27.2273M861 27.2273C862.667 41.013 872 72.2131 872 77.4545" stroke="black"/>
<path d="M1002.5 18.5489H1000L1008 81.0168L1011 81.3181L1018.5 81.0168H1045L1034.5 16.4091L1018.5 18.5489H1015L1010.5 16.4091H1002.5V18.5489Z" fill="#BC9549"/>
<path d="M1010.5 16.4091H1002.5V18.5489H1000L1008 81.0168L1011 81.3181L1018.5 81.0168M1010.5 16.4091L1015 18.5489H1018.5L1034.5 16.4091L1045 81.0168H1018.5M1010.5 16.4091C1012 20.2133 1012.5 21.3188 1012.5 26.4545C1012.5 31.5902 1018.33 61.8216 1019.5 65.8636M1018.5 81.0168C1018.5 81.0168 1015.4 66.9335 1015 61.2272M1031 21.8181C1032.67 34.5435 1038 69.347 1038 74.1853" stroke="black"/>
<path d="M901 13.3183H912L912.5 12.5456H918L918.5 11.7728H927H928.5L931.5 14.091L934 75.9092H928H922L920.5 72.8183V75.9092H905L906.5 67.4092L902 77.4546H892C894.5 65.091 899.5 38.8183 899.5 32.6365C899.5 26.4546 900.5 17.1819 901 13.3183Z" fill="#BC9549"/>
<path d="M928 75.9092H934L931.5 14.091L928.5 11.7728H927M928 75.9092H922L920.5 72.8183V75.9092H905L906.5 67.4092L902 77.4546H892C894.5 65.091 899.5 38.8183 899.5 32.6365C899.5 26.4546 900.5 17.1819 901 13.3183H912L912.5 12.5456H918L918.5 11.7728H927M928 75.9092C927.167 64.5759 925.6 39.1274 926 28.0001C926.4 16.8728 926.833 12.5456 927 11.7728" stroke="black"/>
<path d="M912 86.7272H894L892 77.4545H899H902L906.5 67.409L905 75.909H908.5H920.5V72.8181L922 75.909H934L934.5 85.1818H919L918 85.9545H912.5L912 86.7272Z" fill="#76500D"/>
<path d="M908.5 75.909H920.5V72.8181L922 75.909H934L934.5 85.1818H919L918 85.9545H912.5L912 86.7272H894L892 77.4545H899M908.5 75.909H905L906.5 67.409L902 77.4545H899M908.5 75.909C909.667 66.6363 912.3 45.9272 913.5 37.2727M899 77.4545L912.5 21.0454V12.5454" stroke="black"/>
<path d="M934.5 89.0455V76.6819L972.5 80.5455V89.0455H969H948.5L946 90.591L934.5 89.0455Z" fill="#76500D" stroke="black"/>
<path d="M972.5 88.2727V75.9091L1009 80.5454V89.8181H1000.5L988 91.3636L984 89.8181L972.5 88.2727Z" fill="#76500D" stroke="black"/>
<path d="M1009 89.9727V81.3181H1045V89.9727H1036.62H1023.79L1022.32 92.1363L1009 89.9727Z" fill="#76500D" stroke="black"/>
<path d="M934.5 16.409H932L934.5 76.6817L937 82.0908L944.5 81.7643L972.5 80.5454L964 16.409H961H950.5H947L942.5 14.0908H934.5V16.409Z" fill="#BC9549"/>
<path d="M942.5 14.0908H934.5V16.409H932L934.5 76.6817L937 82.0908L944.5 81.7643M942.5 14.0908L947 16.409H950.5H961H964L972.5 80.5454L944.5 81.7643M942.5 14.0908C944 18.212 947 27.8454 947 33.409C947 38.9726 949.333 49.1211 950.5 53.4999M944.5 81.7643C943.167 65.9035 940.4 32.6363 940 26.4545M959 26.4545C960.667 40.2402 964 69.1221 964 74.3635" stroke="black"/>
<path d="M966.5 13.3182H964L972.5 75.9091L975 81.3182L982.5 80.9917H1009L998.5 11L982.5 13.3182H979L974.5 11H966.5V13.3182Z" fill="#BC9549"/>
<path d="M974.5 11H966.5V13.3182H964L972.5 75.9091L975 81.3182L982.5 80.9917M974.5 11L979 13.3182H982.5L998.5 11L1009 80.9917H982.5M974.5 11C976 15.1212 979 24.7545 979 30.3182C979 35.8818 987.333 48.3485 988.5 52.7273M982.5 80.9917C981.167 65.1308 972.4 29.5455 972 23.3636M991 23.3636C992.667 37.1494 1002 68.3494 1002 73.5909" stroke="black"/>
<path d="M484.491 16.5319C486.51 17.5838 491.622 21.553 494.275 23.6845C494.523 23.8835 494.848 23.9527 495.155 23.8725L497.313 23.3096C497.706 23.2072 498.007 23.6567 497.764 23.9812C497.518 24.3096 497.83 24.7629 498.225 24.6501L502.829 23.3346C503.142 23.2451 503.369 23.6309 503.139 23.8612C502.894 24.1061 503.165 24.5096 503.484 24.3752L506.043 23.2982C506.462 23.122 506.82 23.6476 506.503 23.9725C506.211 24.2709 506.491 24.7645 506.897 24.6682L508.94 24.1827C509.391 24.0756 509.704 23.6628 509.879 23.234C510.587 21.5013 513.379 19.2007 515.952 17.402C516.785 16.82 516.396 15.6898 515.412 15.9424C513.092 16.5381 510.778 17.54 509.168 18.3577C508.557 18.6681 507.913 18.3002 508.153 17.6581C508.695 16.2061 510.071 14.2764 511.33 12.7214C511.877 12.0457 511.406 11.1096 510.574 11.3612C507.036 12.4308 503.224 15.6514 500.958 17.9681C500.47 18.4669 499.648 18.3346 499.615 17.6375C499.596 17.2196 499.64 16.7899 499.729 16.3648C499.94 15.3589 498.822 14.1736 497.955 14.7258C495.982 15.9826 494.682 17.234 493.946 18.1418C493.581 18.5919 492.92 18.7653 492.395 18.5202C489.058 16.9617 482.097 15.2847 484.491 16.5319Z" fill="#16643C"/>
<path d="M494.667 24C492.16 21.9716 486.615 17.6383 484.491 16.5319C482.097 15.2847 489.058 16.9617 492.395 18.5202C492.92 18.7653 493.581 18.5919 493.946 18.1418C494.682 17.234 495.982 15.9826 497.955 14.7258C498.822 14.1736 499.94 15.3589 499.729 16.3648C499.64 16.7899 499.596 17.2196 499.615 17.6375C499.648 18.3346 500.47 18.4669 500.958 17.9681C503.224 15.6514 507.036 12.4308 510.574 11.3612C511.406 11.1096 511.877 12.0457 511.33 12.7214C510.071 14.2764 508.695 16.2061 508.153 17.6581C507.913 18.3002 508.557 18.6681 509.168 18.3577C510.778 17.54 513.092 16.5381 515.412 15.9424C516.396 15.6898 516.785 16.82 515.952 17.402C512.977 19.4816 509.709 22.2321 509.709 24" stroke="black" stroke-linecap="round" stroke-linejoin="round"/>
<path d="M959.865 66L946 71.3669L959.865 77.6283L972.387 71.3669L959.865 66Z" fill="#BC9549" stroke="black" stroke-linejoin="round"/>
<path d="M967.466 168.028L959.863 172.5V77.6283L972.386 71.3669L967.466 168.028Z" fill="#76500D" stroke="black" stroke-linejoin="round"/>
<path d="M950.367 170.133L959.865 172.5V77.6283L946 71.3669L950.367 170.133Z" fill="#7A4A12" stroke="black" stroke-linejoin="round"/>
<path d="M988.598 91L960 113.475V124.5L1001 91H988.598Z" fill="#76500D" stroke="black"/>
<path d="M917.538 89L948 113.049V123L904 89H917.538Z" fill="#76500D" stroke="black" stroke-linejoin="round"/>
<path d="M917 89L948 113V109.69L921.306 89H917Z" fill="#87662A" stroke="black" stroke-linejoin="round"/>
<path d="M600.865 67L590 73L600.865 78.6283L613.387 72.3669L600.865 67Z" fill="#BC9549" stroke="black" stroke-linejoin="round"/>
<path d="M608.466 169.028L600.863 173.5V78.6283L613.386 72.3669L608.466 169.028Z" fill="#76500D" stroke="black" stroke-linejoin="round"/>
<path d="M591.367 171.133L600.865 173.5V78.6283L590 73L591.367 171.133Z" fill="#7A4A12" stroke="black" stroke-linejoin="round"/>
<path d="M572 93L590.5 111V123L559.5 93H572Z" fill="#76500D" stroke="black"/>
<path d="M572.5 93.5L590.5 111V107L577.5 93.5H572.5Z" fill="#87662A" stroke="black"/>
<path d="M1064.69 85.4622C1063.32 88.6423 1060.47 90.7991 1059.22 91.48C1059.99 89.1743 1062.1 83.7331 1064.41 80.4141C1067.3 76.2654 1072.2 75.4514 1072.41 77.2713C1072.62 79.0912 1066.41 81.4872 1064.69 85.4622Z" fill="#14653C" stroke="black"/>
<path d="M1050.65 82.9887C1054.94 84.1144 1057.79 86.6449 1058.68 87.7694C1058.5 84.5764 1054.89 81.683 1051.95 81.1009C1049.01 80.5188 1045.29 81.5814 1050.65 82.9887Z" fill="#14653C" stroke="black"/>
<path d="M1058.56 89.6245C1058.13 81.8943 1056.09 77.4855 1055.12 76.2474C1055.17 74.6646 1055.79 72.5475 1057.84 76.7408C1060.4 81.9824 1059.11 99.2873 1058.56 89.6245Z" fill="#14653C" stroke="black"/>
<path d="M1053.48 59.1605C1061.93 55.3933 1063.39 57.324 1066.07 59.1605C1071.32 64.4687 1068.75 68.8221 1063.39 70.8519C1058.03 72.8816 1059.82 78.8085 1054.94 80.3511C1051.05 81.5852 1048.18 79.1874 1047.23 77.8342C1043.85 78.4838 1037.07 77.9966 1037 70.8519C1036.92 61.921 1042.93 63.8695 1053.48 59.1605Z" fill="#F08A95" stroke="black"/>
<path d="M1058.29 59.7871C1061.28 57.4488 1064.03 60.1118 1065.03 61.7356C1066.01 64.5773 1066.17 67.1753 1060.49 69.8546C1054.8 72.5339 1055.94 75.2943 1048.71 76.5934C1041.49 77.8924 1038.4 67.1753 1042.46 64.8208C1046.52 62.4663 1048.39 67.9872 1052.04 67.1753C1055.7 66.3634 1054.56 62.7099 1058.29 59.7871Z" fill="#E36974"/>
<path d="M1049.15 65.6622C1046.56 68.0167 1048.75 69.3157 1051.75 68.4227C1053.14 68.0085 1054.31 67.1197 1055.16 66.2559C1053.86 64.0892 1051.75 63.3077 1049.15 65.6622Z" fill="#EBF479"/>
<path d="M1056.46 64.6067C1056.22 65.0163 1055.78 65.6295 1055.16 66.2559M1055.16 66.2559C1054.31 67.1197 1053.14 68.0085 1051.75 68.4227C1048.75 69.3157 1046.56 68.0167 1049.15 65.6622C1051.75 63.3077 1053.86 64.0892 1055.16 66.2559Z" stroke="black"/>
<path d="M586 155.165C574.838 157.434 567 162.774 567 169C567 177.284 580.879 184 598 184C615.121 184 629 177.284 629 169C629 163.448 622.766 158.6 613.5 156.007" stroke="white"/>
<path d="M598 188C620.091 188 638 179.383 638 168.752C638 161.628 629.956 155.408 618 152.08M558 168.752C558 160.764 568.114 153.912 582.516 151" stroke="white"/>
<path d="M944 155.165C932.838 157.434 925 162.774 925 169C925 177.284 938.879 184 956 184C973.121 184 987 177.284 987 169C987 163.448 980.766 158.6 971.5 156.007" stroke="white"/>
<path d="M996 168.753C996 161.628 987.956 155.408 976 152.08M956 188C933.909 188 916 179.383 916 168.753" stroke="white"/>
<defs>
<linearGradient id="paint0_linear_173_2391" x1="772" y1="108" x2="772" y2="405" gradientUnits="userSpaceOnUse">
<stop stop-color="#DEEBFF"/>
<stop offset="1" stop-color="#609BFF"/>
</linearGradient>
</defs>
</svg>
