<svg width="164" height="193" viewBox="0 0 164 193" fill="none" xmlns="http://www.w3.org/2000/svg">
<path d="M89.1582 192.033L83.7269 192.033L82.5513 50.4333L91.5107 50.4333L89.1582 192.033Z" fill="#76500D" stroke="black" stroke-linejoin="round"/>
<path d="M76.8445 189.502L83.7276 192.035L82.5521 51.3225L74.6421 51.3225L76.8445 189.502Z" fill="#AE7D44" stroke="black" stroke-linejoin="round"/>
<path d="M144.33 83.2491C144.308 82.3833 142.862 78.6667 135.584 79.3047C135.108 79.3464 134.74 79.7357 134.706 80.2122L132.201 115.868C132.187 116.058 132.229 116.249 132.32 116.417L137.364 125.658C137.595 126.083 138.098 126.281 138.558 126.128L143.123 124.606C143.511 124.477 143.781 124.125 143.805 123.718L144.241 116.535C144.256 116.293 144.183 116.054 144.034 115.863L143.444 115.098C143.077 114.624 143.207 113.936 143.722 113.628L144.22 113.33C144.527 113.147 144.713 112.813 144.707 112.456L144.398 93.2404C144.395 93.0445 144.334 92.8539 144.223 92.6921L143.189 91.1792C142.984 90.8789 142.958 90.4908 143.121 90.1658L144.152 88.1163C144.225 87.9693 144.262 87.8058 144.258 87.6412C144.197 84.8578 144.353 84.1208 144.33 83.2491Z" fill="#7A4A12" stroke="black" stroke-linecap="round" stroke-linejoin="round"/>
<path d="M23.0494 74.5878L139.728 79.5742C140.29 79.5982 140.721 80.0807 140.683 80.6417L140.339 85.6531L137.061 89.6815C136.731 90.0868 136.769 90.6777 137.147 91.0377L138.885 92.6886C139.085 92.8786 139.197 93.1429 139.196 93.4187L139.096 112.423C139.094 112.73 138.952 113.02 138.709 113.208L137.342 114.269C136.864 114.64 136.822 115.347 137.254 115.771L139.069 117.558L138.534 125.183C138.495 125.734 138.017 126.15 137.466 126.111L21.2661 117.932C20.9124 117.907 20.5982 117.696 20.4406 117.379L17.9699 112.4C17.817 112.092 17.8332 111.727 18.013 111.433L19.2641 109.392L17.2972 105.392L11.5117 92.925C11.3588 92.5958 11.3965 92.2095 11.61 91.9159L19.2134 81.4612C19.2471 81.4149 19.2848 81.3715 19.3259 81.3316L21.7124 79.017L21.2989 77.6383C21.2318 77.4147 21.2451 77.1747 21.3364 76.9598L22.0864 75.1956C22.2494 74.8122 22.6331 74.57 23.0494 74.5878Z" fill="#BC9549"/>
<path d="M21.7124 79.017L21.2989 77.6383C21.2318 77.4147 21.2451 77.1747 21.3364 76.9598L22.0864 75.1956C22.2494 74.8122 22.6331 74.57 23.0494 74.5878L139.728 79.5742C140.29 79.5982 140.721 80.0807 140.683 80.6417L140.339 85.6531M21.7124 79.017L19.3259 81.3316C19.2848 81.3715 19.2471 81.4149 19.2134 81.4612L11.61 91.9159C11.3965 92.2095 11.3588 92.5958 11.5117 92.925L17.2972 105.392L19.2641 109.392M21.7124 79.017C22.3929 79.6637 26.2641 80.3916 26.2641 80.3916M140.339 85.6531L137.061 89.6815C136.731 90.0868 136.769 90.6777 137.147 91.0377L138.885 92.6886C139.085 92.8786 139.197 93.1429 139.196 93.4187L139.096 112.423C139.094 112.73 138.952 113.02 138.709 113.208L137.342 114.269C136.864 114.64 136.822 115.347 137.254 115.771L139.069 117.558M140.339 85.6531C135.671 84.8868 123.685 83.5547 118.39 84.221M19.2641 109.392L18.013 111.433C17.8332 111.727 17.817 112.092 17.9699 112.4L20.4406 117.379C20.5983 117.696 20.9124 117.907 21.2661 117.932L137.466 126.111C138.017 126.15 138.495 125.734 138.534 125.183L139.069 117.558M19.2641 109.392L24.2641 109.892M139.069 117.558C134.92 118.55 126.216 120.277 124.596 119.256M59.7383 82.2367C51.5202 81.1183 34.0222 78.9087 29.7753 79.017" stroke="black" stroke-linecap="round" stroke-linejoin="round"/>
<path d="M2.00591 13.2655C2.03675 12.4599 5.5365 10.7972 7.55173 9.97411C7.92691 9.82088 8.35434 9.92183 8.63119 10.2178L10.7756 12.5102C10.921 12.6656 11.013 12.8634 11.0382 13.0748L16.0811 55.3111C16.1009 55.477 16.0789 55.6451 16.017 55.8003L12.2426 65.2612C12.0909 65.6413 11.723 65.8906 11.3138 65.8906L6.92841 65.8906C6.40137 65.8906 5.9648 65.4816 5.93053 64.9556L5.3931 56.7082C5.3716 56.3782 5.51462 56.0589 5.77516 55.8553L6.27954 55.4611C6.82871 55.0318 6.78131 54.1865 6.18759 53.8214L5.89579 53.6419C5.62552 53.4757 5.45018 53.1911 5.42326 52.8749L3.3524 28.547C3.33364 28.3267 3.38847 28.1063 3.50831 27.9204L4.56797 26.2767C4.83239 25.8665 4.76213 25.3254 4.40174 24.9963L2.75931 23.4967C2.56648 23.3207 2.45019 23.0776 2.43563 22.8169C2.3007 20.4006 1.97359 14.1097 2.00591 13.2655Z" fill="#7A4A12" stroke="black" stroke-linecap="round" stroke-linejoin="round"/>
<path d="M144.789 6.1601L8.03164 9.86132C7.46833 9.87657 7.02886 10.354 7.06025 10.9167L7.3399 15.929L10.5667 19.999C10.8913 20.4084 10.846 20.9988 10.4627 21.3539L8.74558 22.9443C8.51942 23.1538 8.40251 23.4559 8.42874 23.763L10.8817 52.4953C10.905 52.7691 11.0401 53.0212 11.255 53.1924L12.6522 54.3054C13.1256 54.6825 13.1582 55.3902 12.7215 55.8092L10.8834 57.5729L11.3209 65.1988C11.3527 65.7523 11.8286 66.1743 12.382 66.1395L148.178 57.6093C148.536 57.5868 148.855 57.3739 149.013 57.0516L151.437 52.1085C151.656 51.6637 151.515 51.1262 151.107 50.8449L148.758 49.2244L151.232 45.3334L162.495 30.5429C162.784 30.1636 162.765 29.6331 162.45 29.2756L148.52 13.4833L146.606 11.4172L146.607 9.08729C146.607 8.9571 146.581 8.82816 146.532 8.70771L145.741 6.78029C145.584 6.39576 145.205 6.14886 144.789 6.1601Z" fill="#BC9549"/>
<path d="M146.606 11.4172L146.607 9.08729C146.607 8.9571 146.581 8.82816 146.532 8.70771L145.742 6.78029C145.584 6.39576 145.205 6.14886 144.789 6.1601L8.03164 9.86132C7.46833 9.87656 7.02886 10.354 7.06025 10.9167L7.3399 15.929M146.606 11.4172L148.52 13.4833L162.45 29.2756C162.765 29.6331 162.784 30.1636 162.495 30.5429L151.232 45.3334L148.758 49.2244M146.606 11.4172C145.918 12.0551 143.479 13.2903 139.234 13.1278M7.3399 15.929L10.5667 19.999C10.8913 20.4084 10.846 20.9988 10.4627 21.3539L8.74558 22.9443C8.51942 23.1538 8.40251 23.4559 8.42874 23.763L10.8817 52.4953C10.905 52.7691 11.0401 53.0212 11.255 53.1924L12.6522 54.3054C13.1256 54.6825 13.1582 55.3902 12.7215 55.8092L10.8834 57.5729M7.3399 15.929C12.017 15.2224 26.1355 13.9219 31.4217 14.6557M148.758 49.2244L151.107 50.8449C151.515 51.1262 151.656 51.6637 151.437 52.1085L149.013 57.0516C148.855 57.3739 148.536 57.5868 148.178 57.6093L12.382 66.1396C11.8286 66.1743 11.3527 65.7523 11.3209 65.1988L10.8834 57.5729M148.758 49.2244L137.43 50.1193M10.8834 57.5729C15.0199 58.617 24.1064 57.8471 25.739 56.8467M80.0948 13.2923C88.3265 12.2789 135.851 10.2927 140.096 10.4552" stroke="black" stroke-linecap="round" stroke-linejoin="round"/>
<path d="M59.209 41.0567C58.4181 41.0981 57.6514 41.0302 56.9091 40.8528C56.1782 40.6628 55.5747 40.382 55.0986 40.0104C54.6218 39.6268 54.37 39.1774 54.343 38.6621C54.3172 38.1707 54.4466 37.7734 54.7311 37.4701C55.0156 37.1668 55.3856 37.0032 55.841 36.9794C56.1406 36.9637 56.4004 36.9921 56.6205 37.0647C56.852 37.1246 57.1033 37.2196 57.3744 37.3496C57.5712 37.4354 57.7371 37.5048 57.872 37.5579C58.0183 37.5982 58.1694 37.6144 58.3252 37.6062C58.7206 37.5855 58.9102 37.4193 58.8939 37.1078C58.8876 36.9879 58.7984 36.8905 58.6262 36.8154C58.4534 36.7283 58.1652 36.6172 57.7616 36.4822C57.0401 36.2436 56.4508 36.0041 55.9936 35.7637C55.2891 35.3921 54.7925 34.9735 54.5038 34.508C54.227 34.0418 54.0698 33.4492 54.0321 32.7302C53.9957 32.0352 54.1831 31.3704 54.5945 30.736C55.0052 30.0897 55.5843 29.5606 56.3318 29.1489C57.0793 28.7372 57.9084 28.5075 58.8192 28.4598C59.706 28.4133 60.5221 28.5088 61.2675 28.7461C62.0243 28.9708 62.625 29.3118 63.0695 29.7692C63.5254 30.2139 63.7684 30.7239 63.7986 31.2991C63.8331 31.9582 63.6615 32.4659 63.2836 32.8221C62.9171 33.1658 62.4941 33.3502 62.0148 33.3753C61.6193 33.396 61.3185 33.3878 61.1123 33.3505C60.918 33.3126 60.7228 33.2568 60.5267 33.1829C60.3678 33.1312 60.2338 33.0961 60.1246 33.0778C60.0149 33.0475 59.8642 33.0374 59.6724 33.0474C59.5166 33.0556 59.3697 33.1174 59.2315 33.2328C59.1047 33.3355 59.046 33.4768 59.0555 33.6566C59.0624 33.7884 59.1462 33.8981 59.307 33.9859C59.4672 34.0616 59.6511 34.13 59.8586 34.1913C60.066 34.2525 60.2127 34.2989 60.2984 34.3304C61.4343 34.6795 62.2796 35.1038 62.8345 35.6035C63.3888 36.0911 63.6876 36.7484 63.731 37.5752C63.7843 38.5938 63.4127 39.4124 62.616 40.031C61.8306 40.6369 60.6949 40.9788 59.209 41.0567ZM73.377 32.4914C73.4096 33.1146 73.1383 33.5554 72.5631 33.8138C71.9872 34.0603 71.1903 34.2162 70.1723 34.2816C70.176 34.5818 70.1955 35.0675 70.2306 35.7386C70.2664 36.4216 70.3398 36.9044 70.4507 37.187C70.5213 37.3876 70.6181 37.5147 70.7411 37.5683C70.876 37.6214 71.07 37.6533 71.3229 37.664C71.4074 37.6716 71.4982 37.6849 71.5953 37.7038C71.7038 37.7102 71.8246 37.7219 71.9577 37.7389C72.2364 37.7844 72.46 37.9229 72.6283 38.1544C72.7961 38.3739 72.8893 38.6634 72.9082 39.0229C72.9295 39.4304 72.7365 39.7589 72.329 40.0086C71.9215 40.2583 71.3522 40.4022 70.6212 40.4406C69.9502 40.4757 69.299 40.3176 68.6677 39.9661C68.0358 39.6027 67.5888 39.0974 67.3266 38.4503C67.0498 37.7558 66.86 36.4259 66.757 34.4606C65.9169 34.4806 65.2341 34.4082 64.7088 34.2435C64.1948 34.0662 63.9243 33.7198 63.8973 33.2045C63.8634 32.5574 64.0805 32.1135 64.5485 31.8726C65.0159 31.6198 65.6987 31.4639 66.5968 31.4048C66.5825 30.4442 66.6906 29.6395 66.9209 28.9905C67.1506 28.3296 67.607 27.9812 68.2901 27.9454C68.9851 27.909 69.4502 28.185 69.6854 28.7735C69.9325 29.3614 70.0713 30.1773 70.102 31.2211C71.1919 31.152 71.9992 31.1938 72.5239 31.3465C73.0606 31.4986 73.345 31.8803 73.377 32.4914ZM77.2011 40.0957C76.2663 40.1447 75.4884 39.9752 74.8672 39.5872C74.2455 39.1872 73.9135 38.5857 73.8714 37.7828C73.835 37.0878 74.1117 36.5205 74.7015 36.081C75.2913 35.6416 76.0416 35.398 76.9524 35.3502C77.2879 35.3327 77.601 35.3463 77.8918 35.3911C78.1939 35.4234 78.4007 35.4726 78.5124 35.5389C78.4967 35.2393 78.358 35.0002 78.0963 34.8216C77.8339 34.6311 77.4451 34.5494 76.9298 34.5764C76.7021 34.5883 76.5173 34.616 76.3754 34.6595C76.2335 34.703 76.0805 34.7651 75.9165 34.8458C75.7525 34.9265 75.5996 34.9885 75.4577 35.032C75.3277 35.0749 75.1489 35.1023 74.9212 35.1142C74.5377 35.1343 74.2331 35.0541 74.0074 34.8737C73.781 34.6813 73.6571 34.3814 73.6358 33.9739C73.6113 33.5066 73.7583 33.1023 74.0769 32.7612C74.4075 32.4194 74.8263 32.1571 75.3335 31.9743C75.84 31.7796 76.3509 31.6687 76.8661 31.6417C77.8847 31.5883 78.7456 31.7354 79.4488 32.0831C80.1633 32.4182 80.6987 32.8888 81.0549 33.495C81.4231 34.1005 81.627 34.7808 81.6665 35.5358C81.6879 35.9432 81.6717 36.3226 81.618 36.6739C81.5763 37.0245 81.5066 37.2986 81.4088 37.4959C81.5841 37.631 81.7187 37.7921 81.8126 37.9795C81.9185 38.1662 81.9768 38.3614 81.9875 38.5651C82.0057 38.9126 81.9016 39.2185 81.6751 39.4827C81.4606 39.7463 81.1616 39.8882 80.7781 39.9083C80.4905 39.9233 80.2547 39.8936 80.0705 39.8192C79.8864 39.7447 79.6877 39.6229 79.4746 39.4539C79.1844 39.6493 78.8618 39.7984 78.5067 39.9011C78.1635 40.0032 77.7283 40.0681 77.2011 40.0957ZM77.4654 38.2614C77.7171 38.2482 77.912 38.1839 78.0501 38.0685C78.2003 37.9525 78.2712 37.8166 78.2631 37.6608C78.2549 37.505 78.1701 37.3773 78.0087 37.2776C77.8592 37.1773 77.6587 37.1337 77.407 37.1469C77.1554 37.1601 76.9545 37.2247 76.8043 37.3407C76.6662 37.4561 76.6012 37.5917 76.6093 37.7475C76.6175 37.9033 76.6963 38.0313 76.8458 38.1316C77.0072 38.2313 77.2138 38.2746 77.4654 38.2614ZM84.701 39.7027C83.934 39.7429 83.3952 39.3205 83.0844 38.4355C82.7857 37.55 82.5949 36.3163 82.512 34.7344C82.4743 34.0154 82.4728 33.4147 82.5076 32.9322C82.5538 32.4371 82.6939 32.0152 82.928 31.6664C83.1734 31.3051 83.5657 31.1103 84.105 31.082C84.4405 31.0645 84.7382 31.127 84.998 31.2696C85.2698 31.4115 85.4492 31.6244 85.5362 31.9083C85.7873 31.6548 86.1194 31.4571 86.5325 31.3153C86.9457 31.1735 87.3919 31.09 87.8713 31.0649C88.2547 31.0448 88.6492 31.1203 89.0547 31.2913C89.4722 31.4617 89.8216 31.7077 90.1028 32.0294C90.3954 32.3386 90.5517 32.6848 90.5718 33.0683C90.5919 33.4518 90.472 33.8006 90.2121 34.1146C89.9635 34.416 89.6175 34.5783 89.1741 34.6016C89.0303 34.6091 88.8916 34.5984 88.7579 34.5693C88.6362 34.5396 88.5264 34.5093 88.4287 34.4784C88.184 34.3951 87.9897 34.3572 87.8459 34.3648C87.3786 34.3893 86.9749 34.5967 86.6348 34.987C86.3061 35.3647 86.1569 35.8412 86.187 36.4164C86.2203 37.0515 86.224 37.5801 86.198 38.002C86.1721 38.4239 86.0481 38.8089 85.826 39.157C85.6033 39.4932 85.2283 39.675 84.701 39.7027ZM94.9849 42.2459C94.2898 42.2824 93.7137 42.1804 93.2565 41.94C92.7999 41.7116 92.56 41.3757 92.5367 40.9323C92.516 40.5368 92.6489 40.2054 92.9353 39.938C93.2343 39.682 93.6175 39.5418 94.0848 39.5173C94.1687 39.5129 94.3071 39.5177 94.5001 39.5316C94.7417 39.555 94.9643 39.5613 95.168 39.5507C95.6833 39.5237 96.122 39.4105 96.4841 39.2113C96.8588 39.0235 97.0805 38.7835 97.1493 38.4915C96.9632 38.6094 96.6983 38.7134 96.3546 38.8035C96.0108 38.8937 95.6412 38.9491 95.2457 38.9698C94.2271 39.0232 93.3779 38.8694 92.6981 38.5085C92.0303 38.147 91.5375 37.6861 91.2197 37.126C90.9014 36.5539 90.7274 35.9862 90.6979 35.423C90.6489 34.4882 90.8102 33.6687 91.1819 32.9643C91.5655 32.2592 92.0774 31.7097 92.7177 31.3156C93.3579 30.9216 94.0376 30.7057 94.7566 30.668C94.9963 30.6555 95.2728 30.659 95.5863 30.6786C95.9117 30.6976 96.1836 30.7254 96.4018 30.762C96.4807 30.4335 96.6293 30.1733 96.8475 29.9816C97.0778 29.7893 97.4266 29.6809 97.894 29.6564C98.6729 29.6156 99.2615 30.0714 99.6599 31.0239C100.07 31.9757 100.313 33.1646 100.388 34.5907C100.423 35.2618 100.42 35.8988 100.38 36.5017C100.288 38.2008 99.7649 39.5621 98.8092 40.5855C97.8534 41.6089 96.5787 42.1624 94.9849 42.2459ZM95.3381 36.2612C95.7096 36.2418 96.0263 36.093 96.2881 35.8149C96.5492 35.5249 96.6701 35.1941 96.6506 34.8226C96.6312 34.4511 96.4764 34.1348 96.1863 33.8736C95.8963 33.6124 95.5655 33.4916 95.194 33.511C94.8225 33.5305 94.5062 33.6853 94.245 33.9753C93.9958 34.2648 93.8809 34.5952 93.9004 34.9667C93.9199 35.3382 94.0686 35.6549 94.3467 35.9167C94.6362 36.1659 94.9666 36.2807 95.3381 36.2612ZM104.55 38.6624C103.616 38.7114 102.838 38.5419 102.216 38.1539C101.595 37.7539 101.263 37.1524 101.221 36.3495C101.184 35.6545 101.461 35.0872 102.051 34.6477C102.641 34.2083 103.391 33.9647 104.302 33.9169C104.637 33.8993 104.95 33.913 105.241 33.9578C105.543 33.9901 105.75 34.0393 105.862 34.1055C105.846 33.806 105.707 33.5669 105.445 33.3883C105.183 33.1978 104.794 33.116 104.279 33.143C104.051 33.155 103.867 33.1827 103.725 33.2262C103.583 33.2697 103.43 33.3318 103.266 33.4124C103.102 33.4931 102.949 33.5552 102.807 33.5987C102.677 33.6416 102.498 33.669 102.27 33.6809C101.887 33.701 101.582 33.6208 101.357 33.4404C101.13 33.248 101.006 32.9481 100.985 32.5406C100.96 32.0733 101.108 31.669 101.426 31.3279C101.757 30.9861 102.176 30.7238 102.683 30.541C103.189 30.3463 103.7 30.2354 104.215 30.2084C105.234 30.155 106.095 30.3021 106.798 30.6498C107.512 30.9849 108.048 31.4555 108.404 32.0617C108.772 32.6672 108.976 33.3475 109.016 34.1025C109.037 34.5099 109.021 34.8893 108.967 35.2406C108.926 35.5912 108.856 35.8652 108.758 36.0626C108.933 36.1976 109.068 36.3588 109.162 36.5462C109.268 36.7329 109.326 36.9281 109.337 37.1318C109.355 37.4793 109.251 37.7852 109.024 38.0494C108.81 38.313 108.511 38.4549 108.127 38.4749C107.84 38.49 107.604 38.4603 107.42 38.3859C107.236 38.3114 107.037 38.1896 106.824 38.0205C106.534 38.216 106.211 38.3651 105.856 38.4678C105.513 38.5699 105.078 38.6348 104.55 38.6624ZM104.815 36.8281C105.066 36.8149 105.261 36.7506 105.399 36.6352C105.549 36.5192 105.62 36.3833 105.612 36.2275C105.604 36.0717 105.519 35.944 105.358 35.8443C105.208 35.744 105.008 35.7004 104.756 35.7136C104.505 35.7268 104.304 35.7914 104.154 35.9074C104.015 36.0228 103.95 36.1584 103.959 36.3142C103.967 36.47 104.046 36.598 104.195 36.6983C104.356 36.798 104.563 36.8413 104.815 36.8281ZM117.947 30.1556C117.979 30.7788 117.708 31.2196 117.133 31.478C116.557 31.7245 115.76 31.8804 114.742 31.9458C114.746 32.246 114.765 32.7317 114.8 33.4028C114.836 34.0858 114.909 34.5686 115.02 34.8512C115.091 35.0518 115.188 35.1789 115.311 35.2326C115.446 35.2856 115.64 35.3175 115.893 35.3282C115.977 35.3358 116.068 35.3491 116.165 35.368C116.274 35.3744 116.394 35.3861 116.527 35.4031C116.806 35.4486 117.03 35.5871 117.198 35.8186C117.366 36.0381 117.459 36.3276 117.478 36.6871C117.499 37.0946 117.306 37.4231 116.899 37.6728C116.491 37.9225 115.922 38.0664 115.191 38.1048C114.52 38.1399 113.869 37.9818 113.237 37.6303C112.606 37.2669 112.158 36.7616 111.896 36.1145C111.62 35.42 111.43 34.0901 111.327 32.1248C110.487 32.1448 109.804 32.0724 109.279 31.9077C108.765 31.7304 108.494 31.384 108.467 30.8687C108.433 30.2216 108.65 29.7777 109.118 29.5368C109.586 29.284 110.268 29.1281 111.167 29.069C111.152 28.1084 111.26 27.3037 111.491 26.6547C111.72 25.9938 112.177 25.6454 112.86 25.6096C113.555 25.5732 114.02 25.8492 114.255 26.4378C114.502 27.0256 114.641 27.8415 114.672 28.8853C115.762 28.8162 116.569 28.858 117.094 29.0107C117.63 29.1628 117.915 29.5445 117.947 30.1556ZM122.871 37.7022C121.985 37.7487 121.191 37.6161 120.489 37.3044C119.788 36.9926 119.229 36.5353 118.813 35.9322C118.408 35.3165 118.185 34.6133 118.144 33.8223C118.103 33.0434 118.251 32.3147 118.588 31.6361C118.937 30.9569 119.437 30.402 120.087 29.9714C120.737 29.5407 121.488 29.3031 122.339 29.2585C123.106 29.2184 123.791 29.3387 124.395 29.6195C124.998 29.9003 125.469 30.2901 125.808 30.7891C126.146 31.2761 126.329 31.7952 126.358 32.3464C126.405 33.2452 126.098 33.9222 125.437 34.3774C124.787 34.82 123.995 35.0658 123.06 35.1148C122.437 35.1475 121.906 35.0972 121.466 34.964C121.857 35.5324 122.465 35.7949 123.292 35.7516C123.627 35.734 123.985 35.6732 124.364 35.5692C124.506 35.5257 124.643 35.5005 124.774 35.4936C125.038 35.4798 125.251 35.5347 125.414 35.6584C125.589 35.7814 125.682 35.9568 125.694 36.1844C125.713 36.5559 125.503 36.8914 125.062 37.1909C124.62 37.4784 123.89 37.6489 122.871 37.7022ZM121.405 32.7682C121.522 32.9303 121.672 33.0486 121.856 33.1231C122.052 33.1849 122.264 33.2099 122.491 33.198C122.755 33.1842 122.979 33.1123 123.165 32.9824C123.362 32.8519 123.456 32.6908 123.446 32.499C123.435 32.2833 123.335 32.1023 123.147 31.9559C122.971 31.8089 122.721 31.7439 122.398 31.7609C122.074 31.7778 121.822 31.8932 121.641 32.107C121.471 32.3081 121.393 32.5285 121.405 32.7682Z" fill="black"/>
<path d="M22.0027 31.6872C21.7714 27.2749 25.1608 23.5107 29.573 23.2794L39.5593 22.7561C43.9715 22.5248 47.7358 25.9142 47.967 30.3264L48.4904 40.3127C48.7216 44.7249 45.3323 48.4892 40.9201 48.7204L30.9338 49.2438C26.5215 49.475 22.7573 46.0857 22.526 41.6735L22.0027 31.6872Z" fill="#131419"/>
<mask id="mask0_32568_7265" style="mask-type:luminance" maskUnits="userSpaceOnUse" x="27" y="27" width="17" height="18">
<path d="M27.0493 28.6188L42.6284 27.8023L43.4448 43.3809L27.8658 44.1974L27.0493 28.6188Z" fill="white"/>
</mask>
<g mask="url(#mask0_32568_7265)">
<mask id="mask1_32568_7265" style="mask-type:luminance" maskUnits="userSpaceOnUse" x="27" y="27" width="17" height="18">
<path d="M27.0491 28.6189L42.6282 27.8024L43.4446 43.3811L27.8655 44.1975L27.0491 28.6189Z" fill="white"/>
</mask>
<g mask="url(#mask1_32568_7265)">
<path d="M36.417 28.7496L36.8825 29.6989C37.7962 31.5628 39.3945 33.0018 41.3437 33.7157L42.3364 34.0795C42.5964 34.1746 42.8108 34.319 42.9799 34.4958C42.3147 31.0536 39.4286 28.4549 35.9356 28.1532C36.1286 28.3024 36.2952 28.5009 36.417 28.7496ZM27.9963 34.831L28.9456 34.3655C30.8096 33.4517 32.2488 31.8535 32.9629 29.9043L33.3262 28.9116C33.4137 28.6679 33.5562 28.4478 33.7425 28.2681C30.3003 28.9332 27.7015 31.8194 27.3999 35.3123C27.5491 35.1189 27.7476 34.9528 27.9963 34.831ZM42.4988 37.1693L41.5491 37.6349C39.6851 38.5487 38.246 40.1471 37.5323 42.0965L37.1684 43.0888C37.081 43.3326 36.9385 43.5529 36.7521 43.7327C40.1944 43.0671 42.7931 40.1809 43.0948 36.688C42.9357 36.8922 42.732 37.0569 42.4988 37.1693ZM34.0777 43.2508L33.6126 42.3019C32.6987 40.4379 31.1003 38.9987 29.151 38.2847L28.1582 37.9209C27.9145 37.8335 27.6943 37.691 27.5147 37.5045C28.1799 40.9468 31.0661 43.5455 34.559 43.8477C34.355 43.6882 34.1903 43.484 34.0777 43.2508Z" fill="#999999"/>
</g>
<path d="M31.673 35.4241L32.1405 35.1947C33.0591 34.7444 33.7684 33.9569 34.1204 32.9963L34.2991 32.5069C34.5501 31.8219 35.5006 31.7721 35.8218 32.4271L36.0508 32.8951C36.5012 33.8137 37.2889 34.5228 38.2496 34.8745L38.739 35.0537C39.424 35.3047 39.4737 36.2547 38.8188 36.576L38.3508 36.8054C37.432 37.2557 36.7227 38.0434 36.3709 39.0042L36.1921 39.4932C35.9411 40.1781 34.9907 40.2279 34.6694 39.573L34.4405 39.1054C33.9903 38.1866 33.2025 37.4773 32.2417 37.1255L31.7527 36.9463C31.0673 36.6953 31.0175 35.7453 31.673 35.4241Z" fill="white"/>
</g>
<path d="M31.0398 92.7626C31.1076 88.3448 34.7439 84.8185 39.1617 84.8863L49.1605 85.0398C53.5782 85.1076 57.1046 88.7439 57.0368 93.1616L56.8833 103.16C56.8155 107.578 53.1792 111.105 48.7615 111.037L38.7626 110.883C34.3449 110.815 30.8186 107.179 30.8864 102.761L31.0398 92.7626Z" fill="#131419"/>
<path fill-rule="evenodd" clip-rule="evenodd" d="M41.3226 95.0217L40.0683 92.2667C39.9517 92.0007 40.0766 91.7228 40.364 91.6651L49.5786 89.5371C49.8662 89.4638 50.0892 89.6693 50.0847 89.9646L50.0308 93.4766C50.0279 93.6631 49.8894 93.8475 49.7078 93.8913L42.3694 95.5818C41.9761 95.669 41.638 96.0835 41.6316 96.5031L41.5702 99.5176C41.5654 99.8284 41.3193 100.151 41.0168 100.209L38.7778 100.703C38.3089 100.804 37.9217 100.487 37.9294 99.9902L37.9745 97.0531C37.9792 96.7423 38.2252 96.4353 38.5278 96.3622L40.9334 95.824C41.3114 95.7521 41.4829 95.3816 41.3226 95.0217ZM38.2138 102.062L43.1848 100.964C43.6231 100.863 43.8252 100.449 43.6359 100.029L42.5289 97.5859C42.3542 97.1969 42.541 96.7981 42.9489 96.7116L49.492 95.2206C49.7792 95.1477 50.002 95.352 49.9975 95.6455L49.9479 98.8741C49.9427 99.2139 49.6665 99.5496 49.3492 99.622L44.8157 100.665C44.3777 100.751 44.1753 101.18 44.3646 101.601L45.5736 104.261C45.69 104.526 45.5653 104.802 45.2783 104.859L38.3431 106.391C38.0561 106.448 37.8332 106.259 37.8377 105.966L37.8912 102.475C37.8941 102.289 38.0324 102.106 38.2138 102.062Z" fill="white"/>
<path d="M68.4857 104.776C67.2754 104.713 66.2636 104.413 65.4505 103.878C64.6381 103.331 64.1261 102.553 63.9146 101.544C63.8281 101.131 63.7822 100.63 63.7771 100.041C63.7719 99.452 63.7932 98.7021 63.8409 97.7913C63.9345 96.0058 64.2006 94.5958 64.6394 93.5613C65.0907 92.5155 65.8976 92.0231 67.06 92.084C67.779 92.1217 68.3291 92.4028 68.7101 92.9275C69.1032 93.4528 69.2802 94.0869 69.2413 94.8299C69.1998 95.6208 69.0896 96.4622 68.9107 97.3541C68.7318 98.2459 68.4889 99.3267 68.182 100.596C68.9376 100.396 69.7587 100.319 70.6455 100.365C71.5683 100.413 72.3264 100.621 72.92 100.989C73.5255 101.357 73.8085 101.919 73.769 102.674C73.7307 103.405 73.4627 103.931 72.9652 104.254C72.4676 104.576 71.8751 104.761 71.1877 104.809C70.5008 104.846 69.6002 104.834 68.4857 104.776ZM76.2124 96.4389C75.6252 96.4082 75.1388 96.1724 74.7534 95.7316C74.3685 95.2789 74.1921 94.7469 74.2242 94.1357C74.2556 93.5366 74.486 93.0379 74.9154 92.6399C75.3455 92.2298 75.8541 92.0402 76.4413 92.0709C77.0165 92.1011 77.4965 92.3425 77.8813 92.7953C78.2788 93.2367 78.4618 93.757 78.4304 94.3562C78.3984 94.9673 78.1613 95.4776 77.7193 95.8871C77.2899 96.2851 76.7876 96.4691 76.2124 96.4389ZM75.7555 105.157C75.2641 105.131 74.9059 104.974 74.6806 104.686C74.468 104.387 74.3345 103.953 74.2802 103.385C74.2384 102.806 74.2452 101.99 74.3004 100.935C74.3469 100.048 74.4256 99.3494 74.5365 98.8385C74.6593 98.3283 74.8472 97.9536 75.1001 97.7145C75.3529 97.4754 75.7071 97.3678 76.1624 97.3916C76.6538 97.4174 77.0057 97.58 77.2183 97.8796C77.4436 98.1678 77.5771 98.6013 77.6188 99.1803C77.6732 99.7479 77.6727 100.559 77.6175 101.614C77.571 102.5 77.4863 103.199 77.3634 103.709C77.2526 104.22 77.0707 104.595 76.8178 104.834C76.565 105.073 76.2108 105.181 75.7555 105.157ZM82.2458 104.848C81.8548 105.2 81.4077 105.363 80.9043 105.337C80.401 105.31 79.9734 105.102 79.6214 104.711C79.2693 104.32 79.1065 103.873 79.1329 103.369C79.1593 102.866 79.3679 102.438 79.7589 102.086C80.1499 101.734 80.597 101.571 81.1003 101.598C81.6036 101.624 82.0313 101.833 82.3833 102.224C82.7353 102.615 82.8981 103.062 82.8718 103.565C82.8454 104.069 82.6367 104.496 82.2458 104.848ZM90.7162 99.7405C91.4233 99.7776 92.0026 99.844 92.4542 99.9398C92.9184 100.024 93.2883 100.188 93.564 100.431C93.8523 100.662 93.9848 100.999 93.9616 101.443C93.9283 102.078 93.6607 102.484 93.1587 102.662C92.6686 102.841 91.9623 102.906 91.0395 102.858L89.5485 102.762L88.4151 102.72C88.4392 103.178 88.4443 103.539 88.4305 103.802C88.3608 105.133 87.7987 105.77 86.7441 105.715C85.8693 105.669 85.2057 105.148 84.7533 104.151C84.3128 103.154 84.1466 101.625 84.2546 99.5641C84.3212 98.2939 84.6442 97.1752 85.2236 96.2082C85.8149 95.2419 86.5865 94.5072 87.5381 94.0044C88.4903 93.4895 89.5177 93.2609 90.6202 93.3187C91.9863 93.3903 93.0106 93.6783 93.6932 94.1827C94.3877 94.6878 94.713 95.3597 94.669 96.1986C94.6382 96.7858 94.4709 97.2276 94.167 97.5241C93.8756 97.8092 93.4755 97.9926 92.9665 98.074C92.4702 98.1442 91.8146 98.1579 90.9997 98.1152C90.3406 98.0806 89.7645 98.1826 89.2713 98.4211C88.7901 98.6603 88.5133 99.0123 88.4409 99.4771L88.4144 99.6379C88.5589 99.6335 88.7749 99.6388 89.0625 99.6539L89.7096 99.6878L90.7162 99.7405ZM97.6107 97.5604C97.0235 97.5296 96.5372 97.2938 96.1517 96.8531C95.7669 96.4003 95.5905 95.8683 95.6225 95.2572C95.6539 94.658 95.8844 94.1594 96.3138 93.7613C96.7438 93.3512 97.2524 93.1616 97.8396 93.1924C98.4149 93.2225 98.8949 93.464 99.2797 93.9167C99.6771 94.3581 99.8602 94.8784 99.8288 95.4776C99.7967 96.0888 99.5597 96.5991 99.1177 97.0085C98.6883 97.4066 98.1859 97.5905 97.6107 97.5604ZM97.1538 106.278C96.6625 106.253 96.3042 106.096 96.079 105.808C95.8664 105.508 95.7329 105.074 95.6785 104.507C95.6368 103.928 95.6435 103.111 95.6988 102.056C95.7453 101.17 95.824 100.471 95.9348 99.96C96.0577 99.4497 96.2456 99.075 96.4984 98.8359C96.7513 98.5968 97.1054 98.4892 97.5608 98.5131C98.0521 98.5388 98.4041 98.7015 98.6167 99.001C98.8419 99.2892 98.9754 99.7228 99.0172 100.302C99.0715 100.869 99.0711 101.68 99.0158 102.735C98.9694 103.622 98.8847 104.32 98.7618 104.831C98.6509 105.341 98.469 105.716 98.2162 105.956C97.9633 106.195 97.6092 106.302 97.1538 106.278Z" fill="black"/>
</svg>
