<svg width="116" height="125" viewBox="0 0 116 125" fill="none" xmlns="http://www.w3.org/2000/svg"><mask id="a" maskUnits="userSpaceOnUse" x="0" y=".221" width="116" height="125" fill="#000"><path fill="#fff" d="M0 .221h116v125H0z"/><path d="m20.67 94.817-7.62-12.86a.994.994 0 0 1-.132-.385c-.777-6.402-.34-12.18 0-14.448.017-.105.016-.21 0-.316-.682-4.417.115-8.88.784-11.24a1.127 1.127 0 0 0-.562-1.296c-2.46-1.294-6.324-4.247-7.024-8.447-.672-4.028 1.714-5.478 3.548-5.816.496-.092.922-.46 1.001-.958 1.203-7.503 5.11-9.211 7.674-9.112.577.022 1.138-.331 1.332-.875.735-2.062 2.17-2.637 3.364-2.637.656 0 1.337-.416 1.428-1.066.671-4.824 2.51-11.085 4.761-11.986l4.08-1.631a.979.979 0 0 0 .576-1.2c-.84-2.67-1.127-3.158 4.686-4.052.905-.14 9.503.256 10.358.584.302.116.618.248.95.4 4.421 2.009 4.9 7.96 4.927 10.067.006.445.279.851.697 1.004 1.82.663 6.71 2.492 9.384 3.939.742.402 2.052-.008 2.28-.821l2.654-9.48a1 1 0 0 1 1.022-.729l32.311 1.904a.94.94 0 0 1 .479.16c2.842 1.946 7.656 7.537 5.739 15.589-1.776 7.461-5.826 10.937-8.163 12.023-.399.185-.687.568-.687 1.007v6.984a1 1 0 0 0 .041.283l2.812 9.556a1 1 0 0 1 .041.283v17.91c0 .091-.013.182-.037.27l-2.778 9.909a.993.993 0 0 1-.3.479L87.733 98.926 64.6 118.218a.999.999 0 0 1-1.119.11l-42.43-23.143a1.001 1.001 0 0 1-.381-.368z"/></mask><path d="m20.67 94.817-7.62-12.86a.994.994 0 0 1-.132-.385c-.777-6.402-.34-12.18 0-14.448.017-.105.016-.21 0-.316-.682-4.417.115-8.88.784-11.24a1.127 1.127 0 0 0-.562-1.296c-2.46-1.294-6.324-4.247-7.024-8.447-.672-4.028 1.714-5.478 3.548-5.816.496-.092.922-.46 1.001-.958 1.203-7.503 5.11-9.211 7.674-9.112.577.022 1.138-.331 1.332-.875.735-2.062 2.17-2.637 3.364-2.637.656 0 1.337-.416 1.428-1.066.671-4.824 2.51-11.085 4.761-11.986l4.08-1.631a.979.979 0 0 0 .576-1.2c-.84-2.67-1.127-3.158 4.686-4.052.905-.14 9.503.256 10.358.584.302.116.618.248.95.4 4.421 2.009 4.9 7.96 4.927 10.067.006.445.279.851.697 1.004 1.82.663 6.71 2.492 9.384 3.939.742.402 2.052-.008 2.28-.821l2.654-9.48a1 1 0 0 1 1.022-.729l32.311 1.904a.94.94 0 0 1 .479.16c2.842 1.946 7.656 7.537 5.739 15.589-1.776 7.461-5.826 10.937-8.163 12.023-.399.185-.687.568-.687 1.007v6.984a1 1 0 0 0 .041.283l2.812 9.556a1 1 0 0 1 .041.283v17.91c0 .091-.013.182-.037.27l-2.778 9.909a.993.993 0 0 1-.3.479L87.733 98.926 64.6 118.218a.999.999 0 0 1-1.119.11l-42.43-23.143a1.001 1.001 0 0 1-.381-.368z" fill="#A75"/><path d="m13.05 81.958-5.162 3.058 5.161-3.058zm7.62 12.86 5.161-3.06-5.161 3.06zm.381.367-2.873 5.268 2.873-5.268zm42.429 23.143 2.873-5.267-2.873 5.267zm1.12-.11 3.842 4.608-3.843-4.608zm23.133-19.292 3.843 4.608c.045-.037.089-.075.133-.114l-3.976-4.494zm12.563-11.113-3.975-4.494 3.975 4.494zm.3-.48 5.778 1.62-5.778-1.62zm2.778-9.908 5.777 1.62-5.777-1.62zm-.004-18.462-5.756 1.693 5.756-1.694zm-2.812-9.557 5.756-1.694h-.001l-5.755 1.694zm.646-8.274 2.528 5.442-2.528-5.442zm8.163-12.023-5.837-1.39 5.837 1.39zm-5.739-15.59 3.39-4.95-3.39 4.95zm-.479-.16-.353 5.99.353-5.99zm-32.311-1.903.353-5.99-.353 5.99zm-1.022.729 5.778 1.617-5.778-1.617zm-2.654 9.48-5.778-1.618 5.778 1.618zm-2.28.82 2.855-5.276-2.855 5.277zm-9.384-3.938-2.054 5.637 2.054-5.637zm-.697-1.005-5.999.079 6-.078zM49.874 7.476l2.483-5.462-2.483 5.462zm-.95-.4 2.148-5.601-2.148 5.602zm-10.358-.583-.912-5.93.912 5.93zm-4.686 4.052-5.724 1.8 5.724-1.8zm-.577 1.2 2.229 5.57-2.229-5.57zm-4.078 1.631 2.228 5.571-2.229-5.57zm-4.762 11.986 5.942.827-5.942-.827zm-1.428 1.066v6-6zm-3.364 2.637-5.652-2.015 5.652 2.015zm-1.332.875-.23 5.995.23-5.995zm-7.674 9.112 5.925.95-5.925-.95zm-1.001.958-1.088-5.9 1.088 5.9zm-3.548 5.816 5.918-.986-5.918.986zm7.024 8.447-2.792 5.31 2.792-5.31zm.562 1.296L7.93 53.93l5.772 1.638zm-.784 11.24-5.93.916 5.93-.916zm0 .316 5.934.89-5.933-.89zm0 14.448-5.957.723 5.957-.724zm-5.03 3.444 7.62 12.86 10.323-6.118-7.62-12.86-10.323 6.118zm10.29 15.437 42.429 23.143 5.746-10.535-42.429-23.143-5.746 10.535zm50.264 22.373 23.134-19.292-7.685-9.216-23.134 19.292 7.685 9.216zM91.71 103.42l12.563-11.113-7.951-8.988-12.563 11.113 7.95 8.988zm14.665-14.467 2.777-9.909-11.555-3.238-2.777 9.909 11.555 3.238zm3.037-11.798v-17.91h-12v17.91h12zm-.285-19.886-2.812-9.557-11.512 3.387 2.812 9.557 11.512-3.387zm-2.609-8.146V42.14h-12v6.984h12zm-2.785-2.55c4.139-1.923 9.307-6.981 11.472-16.075L103.53 27.72c-1.388 5.83-4.32 7.724-4.854 7.972l5.056 10.883zm11.472-16.075c2.689-11.293-4.098-19.129-8.186-21.929l-6.781 9.9c1.597 1.094 4.438 4.44 3.293 9.25l11.674 2.78zM103.502 7.37 71.191 5.466l-.706 11.98 32.311 1.903.706-11.979zm-39.464 3.197-2.654 9.48 11.555 3.235 2.655-9.48-11.556-3.235zm3.7 6.642c-3.134-1.696-8.459-3.67-10.185-4.3l-4.11 11.275c1.914.697 6.368 2.38 8.584 3.579l5.71-10.554zm-6.937.255c-.018-1.345-.17-4.064-1.13-6.91-.955-2.829-2.999-6.58-7.314-8.541l-4.965 10.924c.105.048.512.278.908 1.454.392 1.159.492 2.468.502 3.23l11.999-.157zM52.357 2.013a23.033 23.033 0 0 0-1.285-.54l-4.296 11.205c.182.07.387.155.616.26l4.965-10.925zM37.654.562c-1.474.226-2.84.467-3.977.778-.943.259-2.79.823-4.257 2.336-1.962 2.025-2.125 4.44-1.934 5.975.14 1.12.554 2.323.67 2.692l11.447-3.599c-.124-.396-.183-.577-.23-.743-.046-.162-.007-.063.022.169.03.243.08.851-.119 1.632a4.974 4.974 0 0 1-1.239 2.226c-.516.532-.997.78-1.166.86-.172.081-.216.079-.02.025.418-.115 1.195-.27 2.628-.491L37.654.562zm-6.58 5.61-4.078 1.632 4.457 11.142 4.079-1.631-4.457-11.142zm-4.078 1.632c-2.347.94-3.735 2.822-4.44 3.936-.818 1.292-1.453 2.75-1.947 4.116-.996 2.752-1.708 5.943-2.089 8.678l11.886 1.654c.29-2.09.833-4.44 1.487-6.25.332-.916.62-1.493.802-1.78.293-.462-.02.3-1.242.788L26.996 7.804zm-3.962 12.623a9.302 9.302 0 0 0-5.19 1.56c-1.812 1.211-3.085 2.988-3.825 5.062l11.303 4.03c.006-.015-.035.104-.174.29a2.576 2.576 0 0 1-.63.59c-.568.38-1.13.468-1.483.468v-12zm-4.464 3.516c-2.734-.105-5.953.774-8.675 3.317-2.688 2.513-4.408 6.187-5.154 10.841l11.849 1.9c.457-2.849 1.292-3.78 1.498-3.973.174-.162.19-.087.02-.094l.462-11.991zM8.576 34.108c-1.847.34-4.37 1.3-6.273 3.63C.256 40.246-.361 43.46.198 46.812l11.836-1.973c-.064-.384-.01-.44-.049-.268a1.91 1.91 0 0 1-.387.757c-.213.26-.434.408-.575.482a.942.942 0 0 1-.271.1L8.576 34.107zM.198 46.812c.609 3.655 2.541 6.492 4.431 8.47 1.896 1.986 4.036 3.415 5.72 4.3l5.583-10.621a10.691 10.691 0 0 1-2.625-1.967c-.832-.871-1.182-1.611-1.273-2.155L.198 46.812zM7.93 53.93c-.811 2.858-1.8 8.24-.942 13.794l11.86-1.832c-.507-3.278.098-6.825.626-8.685L7.93 53.93zm-.945 12.304c-.41 2.74-.873 9.063-.024 16.06l11.913-1.446c-.705-5.805-.291-11.036-.021-12.833l-11.868-1.78zM4.741 38.102a4.794 4.794 0 0 1 3.835-3.993l2.176 11.801c2.511-.463 5.283-2.45 5.838-5.908l-11.849-1.9zM14.02 27.05a4.635 4.635 0 0 1 4.55-3.106l-.46 11.991c2.997.115 6.074-1.658 7.213-4.854L14.02 27.05zm4.501-2.515a4.857 4.857 0 0 1 1.993-3.306 4.363 4.363 0 0 1 2.521-.801l.001 12c2.483 0 6.725-1.597 7.37-6.239L18.52 24.534zm9.636-12.19a5.022 5.022 0 0 1 2.919-6.171l4.457 11.142c3.317-1.327 5.189-5.016 4.072-8.57l-11.448 3.598zm22.916-10.87c-.888-.34-1.849-.45-2.02-.472A34.77 34.77 0 0 0 47.588.85a107.94 107.94 0 0 0-3.514-.232C42.847.553 41.604.504 40.59.48A48.444 48.444 0 0 0 39.2.464c-.235 0-.92.001-1.547.098l1.825 11.86c-.4.062-.62.044-.209.041.241-.001.59.003 1.032.014a119.581 119.581 0 0 1 6.255.328c.43.037.74.07.931.095.099.013.114.017.072.01a5.13 5.13 0 0 1-.784-.23l4.296-11.206zm6.481 11.436a4.921 4.921 0 0 1 3.248 4.554l-11.999.157c.036 2.788 1.744 5.507 4.642 6.563l4.109-11.274zm49.465-4.34a6.937 6.937 0 0 0-3.516-1.2l-.706 11.98a5.06 5.06 0 0 1-2.559-.88l6.781-9.9zm-.501 33.57a4.866 4.866 0 0 1-2.785 4.434L98.676 35.69c-2.126.987-4.16 3.273-4.16 6.448h12.001zm-.204 5.571c.135.46.204.934.204 1.412h-12a7 7 0 0 0 .285 1.977l11.511-3.389zm3.098 11.534a7 7 0 0 0-.285-1.977l-11.512 3.389a4.998 4.998 0 0 1-.203-1.412h12zm-5.139 33.062a7.01 7.01 0 0 0 2.102-3.354L94.82 85.715a5 5 0 0 1 1.502-2.395l7.951 8.988zm-43.665 31.289a7.001 7.001 0 0 0 7.835-.77l-7.685-9.216a5 5 0 0 1 5.596-.549l-5.746 10.535zm.777-103.549c.623-2.225 2.323-2.999 2.884-3.192.613-.21 1.94-.474 3.47.354l-5.711 10.554c2.272 1.23 4.624.961 6.134.443 1.46-.5 3.928-1.886 4.778-4.924l-11.555-3.235zM6.988 67.724a4.955 4.955 0 0 1-.003-1.49l11.867 1.78a7.044 7.044 0 0 0-.004-2.122l-11.86 1.832zm8.52 30.152a7.003 7.003 0 0 0 2.67 2.577l5.746-10.535a5 5 0 0 1 1.907 1.84l-10.323 6.118zm93.643-18.832c.172-.615.26-1.25.26-1.889h-12a5 5 0 0 1 .185-1.35l11.555 3.24zM71.191 5.466a7 7 0 0 0-7.153 5.1l11.556 3.236a5 5 0 0 1-5.11 3.644l.707-11.98zM10.348 59.583A4.873 4.873 0 0 1 7.93 53.93l11.544 3.276c.933-3.288-.612-6.705-3.542-8.245l-5.584 10.622zm7.863 19.316c.35.59.578 1.252.663 1.95L6.96 82.294c.118.97.437 1.895.927 2.721L18.21 78.9z" fill="#fff" mask="url(#a)"/><path d="m20.67 94.817-7.62-12.86a.994.994 0 0 1-.132-.385c-.777-6.402-.34-12.18 0-14.448.017-.105.016-.21 0-.316-.682-4.417.115-8.88.784-11.24a1.127 1.127 0 0 0-.562-1.296c-2.46-1.294-6.324-4.247-7.024-8.447-.672-4.028 1.714-5.478 3.548-5.816.496-.092.922-.46 1.001-.958 1.203-7.503 5.11-9.211 7.674-9.112.577.022 1.138-.331 1.332-.875.735-2.062 2.17-2.637 3.364-2.637.656 0 1.337-.416 1.428-1.066.671-4.824 2.51-11.085 4.761-11.986l4.08-1.631a.979.979 0 0 0 .576-1.2c-.84-2.67-1.127-3.158 4.686-4.052.905-.14 9.503.256 10.358.584.302.116.618.248.95.4 4.421 2.009 4.9 7.96 4.927 10.067.006.445.279.851.697 1.004 1.82.663 6.71 2.492 9.384 3.939.742.402 2.052-.008 2.28-.821l2.654-9.48a1 1 0 0 1 1.022-.729l32.311 1.904a.94.94 0 0 1 .479.16c2.842 1.946 7.656 7.537 5.739 15.589-1.776 7.461-5.826 10.937-8.163 12.023-.399.185-.687.568-.687 1.007v6.984a1 1 0 0 0 .041.283l2.812 9.556a1 1 0 0 1 .041.283v17.91c0 .091-.013.182-.037.27l-2.778 9.909a.993.993 0 0 1-.3.479L87.733 98.926 64.6 118.218a.999.999 0 0 1-1.119.11l-42.43-23.143a1.001 1.001 0 0 1-.381-.368z" fill="#A75" stroke="#000" stroke-width="3" stroke-linecap="round" stroke-linejoin="round"/><ellipse cx="58.233" cy="73.359" rx="46.217" ry="32.942" fill="#642" stroke="#000"/><path d="M103.95 63.526c0 8.892-5.056 16.99-13.327 22.886-8.27 5.894-19.72 9.555-32.39 9.555-12.67 0-24.12-3.66-32.39-9.555S12.516 72.418 12.516 63.525c0-8.892 5.056-16.99 13.327-22.886 8.27-5.894 19.72-9.556 32.39-9.556 12.67 0 24.12 3.662 32.39 9.556 8.27 5.895 13.327 13.994 13.327 22.886z" fill="#CD4" stroke="#000"/><path d="M59.397 20.188c3.124-1.566 1.47 6.826.14 11.66a.989.989 0 0 1-.629.67L28.184 43.286a1.15 1.15 0 0 1-.474.054c-2.212-.18-3.594 1.435-6.715-7.953-3.018-9.078.77-9.449 3.48-8.36.35.141.545.407.544.029-.01-2.222.348-12.608 5.071-13.961 5.66-1.621 8.962 6.153 9.096 7.093.134.94.808-13.983 8.084-13.173 7.277.81 7.748 13.848 7.075 20.266.336-1.69 1.818-5.472 5.052-7.093z" fill="#AE2" stroke="#000" stroke-linejoin="round"/><path d="M42.008 6c-3.244 0-3.933 3.207-3.933 5.501l1.61.399s1.476-.399 2.323-.983C44.568 9.15 43.974 6 42.008 6z" fill="#fff" stroke="#000" stroke-linecap="round"/><path d="M33.158 15.342c0-1.574.983-2.622 1.475-2.95 2.95 0 5.9-.983 6.883-1.967.983-.983 4.917 0 4.425 3.442-.491 3.441-4.916 4.917-8.85 4.917-3.147 0-3.442-1.476-3.933-2.459l-1.475-.491 1.475-.492z" fill="#FEEF48" stroke="#000" stroke-linecap="round"/><path d="M33.158 15.342c0-1.574.983-2.95 2.458-2.95 0 0-.983.654-.983 2.95 0 3.476 2.458 3.442 2.458 3.442s-3.442.491-3.933-2.459l-1.475-.491 1.475-.492z" fill="#000"/><path d="M37.09 12.392c-.163 1.475-.589 4.326.984 5.9m1.991-6.884c-.164 1.476.491 5.409 2.772 5.9" stroke="#000" stroke-linecap="round"/><path d="M35.752 6.585c3.147-.787 3.933 3.605 3.933 5.9l-1.61.398s-1.476-.398-2.323-.983c-2.559-1.766-3.933-4.332 0-5.315z" fill="#fff" stroke="#000" stroke-linecap="round"/><path d="M41.837 11.9c-.328-.656-.689-2.163.491-2.95m2.138 1.967c0-.525.197-1.652.983-1.967" stroke="#000" stroke-linecap="round"/><path d="M18.909 30.584c6.252 0 3.052 7.128 2.943 12.372a1.036 1.036 0 0 1-.136.498l-5.574 9.672c-.44.764-2.133.945-2.88.475-2.43-1.528-6.607-3.53-7.07-7.219-.637-5.055 2.914-5.793 4.768-5.53 0-3.422 1.59-10.268 7.949-10.268z" fill="#AE2"/><path d="M10.96 40.853c0-3.423 1.59-10.27 7.949-10.27 6.252 0 3.052 7.129 2.943 12.373a1.036 1.036 0 0 1-.136.498l-5.574 9.672c-.44.764-2.133.945-2.88.475-2.43-1.528-6.607-3.53-7.07-7.219-.637-5.055 2.914-5.793 4.768-5.53zm0 0 .795 2.37" stroke="#000" stroke-linecap="round" stroke-linejoin="round"/><path d="M52.78 62.294c-1.327-1.062-2.322-15.033-2.654-21.887l30.84 6.3v23.877c-8.843-2.321-26.86-7.23-28.187-8.29z" stroke="#000"/><path d="M49.693 41.718c.192 3.591.528 8.502.972 12.643.221 2.07.471 3.957.746 5.395.137.718.283 1.336.439 1.815.078.239.162.454.254.633.087.171.203.352.363.48.13.104.316.202.512.293.207.096.466.202.766.317.602.23 1.396.502 2.333.806 1.875.606 4.348 1.344 7.064 2.125 5.433 1.562 11.855 3.3 16.449 4.514a1.495 1.495 0 0 0 1.875-1.452V47.524a1.5 1.5 0 0 0-1.2-1.47l-28.778-5.879a1.495 1.495 0 0 0-1.795 1.543z" fill="#885F0F" stroke="#000" stroke-linejoin="round"/><path opacity=".3" d="M54.437 42.728c.11 4.975.597 16.05 1.658 20.56" stroke="#532" stroke-linecap="round"/><path opacity=".3" d="M63.06 44.055c0 2.984 0 19.897.663 21.555" stroke="#532" stroke-width="2" stroke-linecap="round"/><path opacity=".3" d="M66.375 55.661c0 1.47 0 9.796.663 10.612m3.316-18.239c0 1.47-.331 12.602-.331 12.602M52.116 43.392c0 1.469 1.327 14.591 1.327 14.591m2.652-9.617c0 1.47.995 12.602.995 12.602" stroke="#532" stroke-linecap="round"/><path opacity=".3" d="M72.345 45.713v21.886" stroke="#532" stroke-width="2" stroke-linecap="round"/><path d="M70.014 15.58c-.899 4.373-3.336 14.287-4.426 18.682a1.998 1.998 0 0 0 1.683 2.46l28.306 3.756a2 2 0 0 0 2.244-1.707l3.067-22.027a2 2 0 0 0-1.917-2.274l-26.552-.857c-1.13-.036-2.178.86-2.405 1.967z" fill="#532" stroke="#000"/><path d="m77.319 20.179 20.56.995M74.334 31.785l21.554 2.985m-18.57-8.29 20.56 2.32" stroke="#1D130E" stroke-linecap="round"/><path d="m49.795 40.076 15.254-3.648 32.83 4.311-16.581 5.637-31.503-6.3z" fill="#595959" stroke="#000"/><path d="m49.795 40.407 15.254-3.647 32.83 4.31-16.581 5.638-31.503-6.301z" fill="#241403" stroke="#000"/><path d="M95.347 63.501c2.536-5.39 3.566-14.075 3.41-20.809-.024-1-1.005-1.668-1.94-1.37L82.172 46.01a1.5 1.5 0 0 0-1.043 1.429v21.586c0 1.088 1.124 1.826 2.122 1.355 1.65-.779 4.48-2.138 6.97-3.456 1.245-.659 2.413-1.312 3.31-1.88.448-.284.837-.552 1.138-.794.279-.225.552-.48.678-.748z" fill="#DA4" stroke="#000" stroke-linejoin="round"/><path d="m100.233 16-2.727 24.234c-.096.855.597 1.74 1.59 1.508 2.951-.693 8.25-3.81 9.556-12.536.654-4.363-.237-7.604-1.672-9.934-1.428-2.32-3.375-3.705-4.796-4.405-.922-.454-1.85.234-1.951 1.133z" fill="#DA4" stroke="#000" stroke-linejoin="round"/><path d="m70.215 15.953-3.948 17.368c-.284 1.252.677 2.423 1.923 2.115 3.127-.773 7.692-3.237 8.797-10.615 1.114-7.442-1.822-9.525-4.252-10.37-1.09-.38-2.265.378-2.52 1.502z" fill="#472A1C"/><path opacity=".3" d="m89.256 45.381-.663 21.224m5.306-22.55L92.24 63.62" stroke="#532" stroke-width="2" stroke-linecap="round"/><path opacity=".3" d="M82.956 68.926c.663-2.211 2.055-7.76 2.32-12.27.332-5.637.996-7.627 1.327-5.969.332 1.658.663 9.285 0 13.928m-11.938-18.57c.442 2.1 1.194 7.163.663 10.612-.663 4.311 1.659 3.98 1.659-1.327v-7.959" stroke="#532" stroke-linecap="round"/><path d="M49.559 40.248a.5.5 0 0 0-.596.49c0 .789.026 1.717.074 2.741.274 5.956 1.258 15.292 1.922 19.555a.5.5 0 0 0 .349.401l25.202 7.627a.504.504 0 0 0 .079.017l4.974.664a.5.5 0 0 0 .566-.496V47.039a.5.5 0 0 0-.404-.49l-32.166-6.3zm4.73 20.273c-.569-4.275-1.25-10.995-1.537-15.925l25.724 5.039v18.01l-1.152-.153-23.035-6.97z" fill="#797979" stroke="#000" stroke-linecap="round" stroke-linejoin="round"/><path d="M98.454 41.563a.5.5 0 0 0 .583-.432l3.317-27.192a.502.502 0 0 0-.481-.56l-31.835-.995a.5.5 0 0 0-.503.388L64.23 35.985a.5.5 0 0 0 .418.606l28.178 3.978 5.629.994zm-5.11-4.61-24.79-3.5 3.964-17.337 25.792.806-2.496 20.465-2.363-.416s0 0 0 0a2.98 2.98 0 0 0-.107-.017z" fill="#919191" stroke="#000" stroke-linecap="round" stroke-linejoin="round"/><path d="M81.46 46.569a.5.5 0 0 0-.33.47v24.208a.5.5 0 0 0 .719.45l13.596-6.633a.501.501 0 0 0 .218-.206c1.453-2.617 2.394-6.424 3-10.299.607-3.889.886-7.901.99-10.966a84.98 84.98 0 0 0 .052-2.854.5.5 0 0 0-.669-.47l-17.575 6.3zm14.465-1.305a92.56 92.56 0 0 1-.594 6.766c-.512 4.022-1.317 7.74-2.443 10.217L84.782 66.2V49.259l11.143-3.995z" fill="#D4D4D4" stroke="#000" stroke-linecap="round" stroke-linejoin="round"/><path d="M98.376 40.68a.5.5 0 0 0 .57.553c.549-.08 1.266-.278 2.067-.636 2.686-1.203 6.362-4.226 7.919-10.797a.414.414 0 0 0 .007-.035c.769-4.716.307-8.078-.753-10.489-1.062-2.417-2.704-3.832-4.206-4.688-.667-.38-1.304-.65-1.847-.848a.5.5 0 0 0-.669.412L98.376 40.68zm6.636-21.288c1.074 1.668 1.962 4.594 1.127 9.815-.965 3.998-2.79 6.312-4.441 7.617l2.185-18.77c.403.368.787.808 1.129 1.338z" fill="#D4D4D4" stroke="#000" stroke-linecap="round" stroke-linejoin="round"/><path d="M67.87 45.05a.5.5 0 0 0-.401-.49l-4.975-.995a.5.5 0 0 0-.398.09l-1.326.995a.5.5 0 0 0-.2.4v2.985a.5.5 0 0 0 .362.48l4.643 1.327a.5.5 0 0 0 .45-.09l1.658-1.327a.5.5 0 0 0 .188-.39V45.05z" fill="#797979" stroke="#000" stroke-linecap="round" stroke-linejoin="round"/><path d="m67.37 45.05-1.658.995v3.316l1.658-1.326V45.05z" fill="#BDBDBD"/><path d="M16.965 68.925c-.53-1.591 5.527-2.652 8.622-2.984 18.57-1.326 36.477 5.969 34.156 10.28-2.321 4.31-25.203 7.959-34.156 4.642-8.953-3.316-3.316-4.31-1.326-7.295 1.99-2.984-6.633-2.653-7.296-4.642z" fill="#FFFF52" stroke="#000" stroke-linecap="round"/><path d="M89.92 44.718c-2.748 0-4.975-1.026-4.975-2.293v-2.018c.903-.424 3.583-.275 4.974-.275 1.392 0 4.072-.15 4.975.275v2.018c0 1.267-2.228 2.293-4.975 2.293z" fill="#D99530" stroke="#000" stroke-linecap="round"/><ellipse cx="89.919" cy="40.379" rx="2.293" ry="4.974" transform="rotate(90 89.92 40.38)" fill="#FFFF52" stroke="#000" stroke-linecap="round"/><path d="M87.266 40.076c-2.747 0-4.974-1.027-4.974-2.293v-2.018c.903-.425 3.583-.276 4.974-.276 1.392 0 4.072-.149 4.975.276v2.018c0 1.266-2.227 2.293-4.975 2.293z" fill="#D99530" stroke="#000" stroke-linecap="round"/><ellipse cx="87.266" cy="35.737" rx="2.293" ry="4.974" transform="rotate(90 87.266 35.737)" fill="#FFFF52" stroke="#000" stroke-linecap="round"/><path d="M80.634 46.045c-2.747 0-4.974-1.027-4.974-2.293v-2.018c.903-.425 3.583-.276 4.974-.276 1.392 0 4.072-.149 4.975.276v2.018c0 1.266-2.227 2.293-4.975 2.293z" fill="#D99530" stroke="#000" stroke-linecap="round"/><ellipse cx="80.634" cy="41.706" rx="2.293" ry="4.974" transform="rotate(90 80.634 41.706)" fill="#FFFF52" stroke="#000" stroke-linecap="round"/><path d="M77.427 79.908c-3.604 0-6.527-1.347-6.527-3.01v-2.647c1.185-.557 4.701-.361 6.527-.361 1.827 0 5.343-.196 6.528.361V76.9c0 1.662-2.923 3.009-6.528 3.009z" fill="#D99530" stroke="#000" stroke-linecap="round"/><ellipse cx="77.428" cy="74.214" rx="3.009" ry="6.527" transform="rotate(90 77.428 74.214)" fill="#FFFF52" stroke="#000" stroke-linecap="round"/><path d="M64.053 42.729c-2.747 0-4.974-1.027-4.974-2.293v-2.018c.903-.425 3.583-.276 4.974-.276 1.392 0 4.072-.149 4.975.276v2.018c0 1.266-2.227 2.293-4.975 2.293z" fill="#D99530" stroke="#000" stroke-linecap="round"/><ellipse cx="64.054" cy="38.389" rx="2.293" ry="4.974" transform="rotate(90 64.054 38.39)" fill="#FFFF52" stroke="#000" stroke-linecap="round"/><path d="M80.634 42.065c-2.747 0-4.974-1.026-4.974-2.293v-2.018c.903-.424 3.583-.275 4.974-.275 1.392 0 4.072-.15 4.975.275v2.018c0 1.267-2.227 2.293-4.975 2.293z" fill="#D99530" stroke="#000" stroke-linecap="round"/><ellipse cx="80.634" cy="37.726" rx="2.293" ry="4.974" transform="rotate(90 80.634 37.726)" fill="#FFFF52" stroke="#000" stroke-linecap="round"/><path d="M80.908 75.557c-3.605 0-6.527-1.347-6.527-3.01V69.9c1.185-.557 4.701-.362 6.527-.362 1.826 0 5.343-.195 6.527.362v2.648c0 1.662-2.922 3.009-6.527 3.009z" fill="#D99530" stroke="#000" stroke-linecap="round"/><ellipse cx="80.908" cy="69.863" rx="3.009" ry="6.527" transform="rotate(90 80.908 69.863)" fill="#FFFF52" stroke="#000" stroke-linecap="round"/><path d="M66.043 39.413c-2.747 0-4.974-1.027-4.974-2.294v-2.018c.902-.424 3.582-.275 4.974-.275 1.392 0 4.072-.15 4.974.275v2.018c0 1.267-2.227 2.294-4.974 2.294z" fill="#D99530" stroke="#000" stroke-linecap="round"/><ellipse cx="66.043" cy="35.073" rx="2.293" ry="4.974" transform="rotate(90 66.043 35.073)" fill="#FFFF52" stroke="#000" stroke-linecap="round"/><path d="M72.013 35.433c-2.748 0-4.975-1.026-4.975-2.293v-2.018c.903-.424 3.583-.275 4.975-.275 1.391 0 4.071-.15 4.974.275v2.018c0 1.267-2.227 2.293-4.974 2.293z" fill="#D99530" stroke="#000" stroke-linecap="round"/><ellipse cx="72.013" cy="31.094" rx="2.293" ry="4.974" transform="rotate(90 72.013 31.094)" fill="#FFFF52" stroke="#000" stroke-linecap="round"/><ellipse cx="71.836" cy="40.374" rx="3.98" ry="4.974" transform="rotate(23.315 71.836 40.374)" fill="#D99530" stroke="#000" stroke-linecap="round"/><ellipse cx="70.009" cy="39.587" rx="3.98" ry="4.974" transform="rotate(23.315 70.009 39.587)" fill="#FFFF52" stroke="#000" stroke-linecap="round"/><path d="M25.587 38.034h-.22l-.148.162.368.338a16.878 16.878 0 0 0-.369-.337l-.002.002-.003.003-.01.013-.038.042a9.178 9.178 0 0 0-.565.768 15.32 15.32 0 0 0-1.297 2.464c-.938 2.217-1.864 5.6-1.864 10.31 0 4.695.755 8.555 1.511 11.244a31.908 31.908 0 0 0 1.043 3.116 20.192 20.192 0 0 0 .473 1.095l.005.01v.002l.01.022.04.08c.033.068.083.164.15.285.136.242.343.582.635.987.583.81 1.506 1.882 2.875 2.952 2.744 2.143 7.247 4.25 14.318 4.25 7.072 0 11.336-2.107 13.84-4.266 1.248-1.075 2.048-2.154 2.538-2.97.244-.41.412-.752.52-.996.05-.113.086-.206.112-.273l.04-.042a2.96 2.96 0 0 0 .317-.428c.247-.393.554-1.027.854-2.035.599-2.011 1.181-5.546 1.181-11.707 0-6.187-1.003-9.912-2.037-12.11-.517-1.1-1.042-1.815-1.45-2.264a4.552 4.552 0 0 0-.508-.483 2.613 2.613 0 0 0-.205-.15l-.017-.01-.005-.003-.003-.002h-.001s-.001-.001-.253.43l.252-.431-.117-.068h-31.97z" fill="#D99530" stroke="#000"/><path d="M22.371 45.83a40.52 40.52 0 0 0-.431 5.968c0 3.667.465 6.816 1.028 9.285 5.003 2.653 26.827 7.296 37.996 0 .258-1.962.437-4.551.437-7.959 0-2.887-.184-5.297-.464-7.295-12.8 4.974-34.377 2.21-38.566 0z" fill="#FFDC50"/><path d="M26.758 32.179c-.538.089-1.258.387-1.86 1.004-.65.666-1.137 1.678-1.137 3.126 0 .948.312 1.846 1.003 2.644.682.788 1.716 1.457 3.13 2.002 2.824 1.087 7.293 1.726 13.942 1.726 6.663 0 10.982-.89 13.612-2.2 2.647-1.32 3.662-3.122 3.466-4.89-.065-.584-.36-1.443-1.181-2.24-.822-.798-2.141-1.508-4.21-1.846-4.296-.705-10.344-.877-15.617-.706-2.64.086-5.097.258-7.055.495-.978.118-1.838.253-2.538.404-.637.137-1.178.294-1.555.48z" fill="#D99530" stroke="#000"/><ellipse cx="41.836" cy="33.228" rx="13.596" ry="1.326" fill="#000"/><path d="M56.43 24.674a1.5 1.5 0 0 0-2.1.305l-5.881 7.877a1.419 1.419 0 0 0-.163 1.473c.224.46.703.772 1.297.73 1.125-.079 2.644-.332 4.083-1.052.45-.225.914-.643 1.355-1.122.449-.487.909-1.076 1.346-1.683a45.05 45.05 0 0 0 2.149-3.336 1.476 1.476 0 0 0-.398-1.931l-1.688-1.26z" fill="#885F0F" stroke="#000" stroke-linejoin="round"/><circle cx="57.717" cy="24.605" r="6.032" transform="rotate(36.734 57.717 24.605)" fill="#885F0F" stroke="#000" stroke-linejoin="round"/><path d="M43.494 33.56h-8.29s-.898.169-3.316.532c-5.82.874-2.653 6.1-2.322 7.426-1.99 5.306-2.32 12.27-2.32 15.254 0 2.985 2.652 5.306 2.32 0-.331-5.305 1.327-14.59 2.985-12.932 1.658 1.658 0 7.627 2.653 9.948 2.652 2.321 3.647-5.637 4.974-3.98 1.326 1.659 2.321 1.659 3.316 0 .995-1.657 3.648-1.99 4.31 1.659.664 3.647-1.657 9.285.996 8.29 2.653-.995 2.984-13.596 2.321-18.902-.663-5.306-.332-7.295-7.627-7.295z" fill="#FFFF52"/><path d="M31.888 41.518c2.984.442 10.677 1.061 17.575 0m-14.26-7.958h8.29c7.296 0 6.965 1.99 7.628 7.295.663 5.306.332 17.907-2.321 18.902-2.653.995-.332-4.643-.995-8.29-.663-3.648-3.316-3.316-4.311-1.658-.995 1.658-1.99 1.658-3.316 0-1.327-1.658-2.322 6.3-4.974 3.979-2.653-2.321-.995-8.29-2.653-9.948-1.658-1.659-3.316 7.627-2.985 12.932.332 5.306-2.32 2.985-2.32 0 0-2.984.33-9.948 2.32-15.254-.331-1.326-3.498-6.552 2.322-7.426 2.418-.363 3.316-.532 3.316-.532z" stroke="#000" stroke-linecap="round"/><path d="M78.644 38.086c-2.747 0-4.974-1.026-4.974-2.293v-2.018c.903-.424 3.583-.275 4.974-.275 1.392 0 4.072-.15 4.975.275v2.018c0 1.267-2.227 2.293-4.975 2.293z" fill="#D99530" stroke="#000" stroke-linecap="round"/><ellipse cx="78.644" cy="33.747" rx="2.293" ry="4.974" transform="rotate(90 78.644 33.747)" fill="#FFFF52" stroke="#000" stroke-linecap="round"/><path d="M83.059 35.293c-2.621-.824-4.438-2.47-4.059-3.68l.605-1.924c.989-.135 3.5.81 4.828 1.228 1.328.417 3.93 1.078 4.663 1.754l-.604 1.925c-.38 1.208-2.812 1.52-5.433.697z" fill="#D99530" stroke="#000" stroke-linecap="round"/><ellipse cx="84.359" cy="31.153" rx="2.293" ry="4.974" transform="rotate(107.442 84.36 31.153)" fill="#FFFF52" stroke="#000" stroke-linecap="round"/><path d="M88.741 82.519c-3.605 0-6.527-1.347-6.527-3.01v-2.647c1.184-.557 4.7-.361 6.527-.361 1.826 0 5.342-.196 6.527.361v2.648c0 1.662-2.922 3.009-6.527 3.009z" fill="#D99530" stroke="#000" stroke-linecap="round"/><ellipse cx="88.741" cy="76.825" rx="3.009" ry="6.527" transform="rotate(90 88.74 76.825)" fill="#FFFF52" stroke="#000" stroke-linecap="round"/><path d="M92.221 78.168c-3.605 0-6.527-1.348-6.527-3.01v-2.647c1.185-.557 4.701-.362 6.527-.362 1.826 0 5.343-.195 6.527.362v2.647c0 1.662-2.922 3.01-6.527 3.01z" fill="#D99530" stroke="#000" stroke-linecap="round"/><ellipse cx="92.222" cy="72.474" rx="3.009" ry="6.527" transform="rotate(90 92.222 72.474)" fill="#FFFF52" stroke="#000" stroke-linecap="round"/><path d="M88.741 74.686c-3.605 0-6.527-1.347-6.527-3.009V69.03c1.184-.557 4.7-.36 6.527-.36 1.826 0 5.342-.197 6.527.36v2.648c0 1.662-2.922 3.01-6.527 3.01z" fill="#D99530" stroke="#000" stroke-linecap="round"/><ellipse cx="88.741" cy="68.993" rx="3.009" ry="6.527" transform="rotate(90 88.74 68.993)" fill="#FFFF52" stroke="#000" stroke-linecap="round"/><ellipse cx="66.826" cy="68.364" rx="3.98" ry="4.974" transform="rotate(44.289 66.826 68.364)" fill="#D99530" stroke="#000" stroke-linecap="round"/><ellipse cx="65.402" cy="66.975" rx="3.98" ry="4.974" transform="rotate(44.289 65.402 66.975)" fill="#FFFF52" stroke="#000" stroke-linecap="round"/></svg>