<svg width="124" height="138" viewBox="0 0 124 138" fill="none" xmlns="http://www.w3.org/2000/svg">
<g id="Group 48100758">
<path id="Vector 5038" d="M62.4094 8.65802L61.3344 18.4151L61.107 18.1192C59.5882 16.1437 56.6523 16.0227 54.9761 17.8665L53.2457 19.7699C51.5217 18.2362 48.9665 17 45.5 17C41.1067 17 38.8118 20.6853 37.7287 23.3819C37.58 23.752 37.4427 24.1294 37.3162 24.5107C36.2384 23.6502 34.8962 22.889 33.3218 22.5736C31.5009 22.2087 29.5741 22.4852 27.7216 23.5575C24.6564 25.3318 23.139 27.919 22.3791 30.586C21.8353 32.4944 21.6551 34.5741 21.5308 36.3796C20.8644 36.5371 20.1753 36.8139 19.5121 37.2578C18.6029 37.8664 17.8629 38.709 17.3166 39.7527C15.5735 39.9204 13.647 40.6394 11.9436 42.2311C10.0787 43.9738 8.67684 46.5755 7.92533 50.152C6.80339 50.5399 5.59077 51.2335 4.62661 52.4143C3.23213 54.1221 2.70957 56.4142 3.15676 59.0974C3.63633 61.9748 5.17302 64.2871 6.79877 65.9891C7.92301 67.1661 9.15761 68.1243 10.2937 68.8568C9.62976 70.9436 9 73.91 9 79V92.8745C9 93.1989 9.03912 93.5843 9.16647 93.9992L12.0344 93.1189L9.16647 93.9992C9.56209 95.2881 11.5088 100.489 18.8418 108.084C20.9067 110.222 24.4628 112.752 28.4477 115.291C32.5042 117.876 37.2482 120.619 41.8721 123.18C51.1239 128.304 60.0159 132.763 62.2238 133.862L63.5603 131.176L62.2238 133.862C63.5441 134.519 65.0874 134.4 66.2921 133.537L64.5454 131.098L66.2922 133.537C68.1435 132.211 75.1656 127.154 82.3603 121.611C85.9559 118.841 89.6177 115.931 92.7076 113.295C95.7332 110.713 98.4113 108.226 99.8736 106.335C105.204 99.4381 107.497 92.1332 107.839 90.98C107.957 90.5839 108 90.2076 108 89.8633V72.5711C108 72.3823 107.987 72.1897 107.958 71.9956L107.958 71.9954C106.674 63.2085 100.979 56.4881 97.5 53.5347V44.4836L113.014 46.8107C115.278 47.1503 117.365 45.5245 117.589 43.2465L120.391 14.7578C120.602 12.6084 119.069 10.6792 116.927 10.3999L97.4999 7.86588C97.4854 5.84055 95.9578 4.14352 93.9417 3.91951L86.8117 3.12728C84.6373 2.88568 82.6722 4.4358 82.4008 6.60667L82.3871 6.71628L66.7934 5.11692C64.6075 4.89272 62.65 6.47383 62.4094 8.65802ZM82.1445 8.65737C82.1447 8.65598 82.1448 8.65458 82.145 8.65318L82.1445 8.65735L84.129 8.90542L82.1445 8.65737Z" fill="#AA7755" stroke="white" stroke-width="6" stroke-linecap="round" stroke-linejoin="round"/>
<path id="Vector 5038_2" d="M21 106C13.9674 98.7166 12.2802 93.9198 12.0344 93.1189C12.01 93.0392 12 92.9578 12 92.8745V79C12 72.8876 12.9503 70.2106 13.6576 68.3311C13.8431 67.8382 13.6066 67.2955 13.1405 67.0504C10.6805 65.7572 6.81579 62.8033 6.11594 58.6042C5.44446 54.5753 7.82983 53.1256 9.66395 52.7874C10.1599 52.696 10.5856 52.3277 10.6654 51.8298C11.8684 44.3272 15.7749 42.6187 18.3392 42.7172C18.9159 42.7394 19.477 42.3867 19.6709 41.8431C20.4064 39.7803 21.8409 39.2057 23.0347 39.2057C23.6911 39.2056 24.3697 38.7889 24.418 38.1342C24.7549 33.5732 24.7356 28.7524 29.2245 26.1539C34.1412 23.3078 38.3333 29.5001 39 32.0001C39.1667 28.0001 40.7 20 45.5 20C48.9763 20 51.0889 21.5735 52.1796 23.0112C52.6416 23.6201 53.6345 23.802 54.1486 23.2365L57.1959 19.8845C57.6149 19.4236 58.3489 19.4538 58.7286 19.9477L61.9854 24.1838C62.5343 24.8978 63.6735 24.5791 63.7721 23.6838L65.3913 8.98654C65.4515 8.44049 65.9408 8.04521 66.4873 8.10126L84.027 9.90021C84.5678 9.95567 85.0539 9.56892 85.1213 9.02946L85.3777 6.97878C85.4455 6.43606 85.9368 6.04853 86.4804 6.10893L93.6104 6.90116C94.1169 6.95743 94.5 7.38549 94.5 7.89504V9.62196C94.5 10.1243 94.8726 10.5486 95.3707 10.6136L116.539 13.3747C117.075 13.4445 117.458 13.9268 117.405 14.4642L114.603 42.9529C114.547 43.5224 114.025 43.9288 113.459 43.8439L95.6483 41.1723C95.0437 41.0816 94.5 41.5498 94.5 42.1612V54.4759C94.5 54.8041 94.6593 55.1073 94.9203 55.3063C97.8686 57.5548 103.756 63.9912 104.99 72.4293C104.997 72.4762 105 72.5238 105 72.5711V89.8633C105 89.954 104.989 90.0393 104.963 90.1263C104.664 91.1363 102.5 98.0316 97.5 104.5C92.5028 110.965 68.227 128.461 64.5454 131.098C64.2464 131.312 63.8896 131.34 63.5603 131.176C59.1745 128.994 28.1736 113.429 21 106Z" fill="#AA7755" stroke="black" stroke-width="3" stroke-linecap="round" stroke-linejoin="round"/>
<g id="Group 48100757">
<ellipse id="Ellipse 5190" cx="58.2331" cy="86.359" rx="46.2172" ry="32.942" fill="#664422" stroke="black"/>
<path id="Ellipse 5189" d="M103.95 76.5255C103.95 85.4183 98.894 93.5169 90.6234 99.4119C82.3537 105.306 70.9036 108.968 58.2331 108.968C45.5625 108.968 34.1124 105.306 25.8428 99.4119C17.5722 93.5169 12.5159 85.4183 12.5159 76.5255C12.5159 67.6327 17.5722 59.5342 25.8428 53.6391C34.1124 47.7449 45.5625 44.0835 58.2331 44.0835C70.9036 44.0835 82.3537 47.7449 90.6234 53.6391C98.894 59.5342 103.95 67.6327 103.95 76.5255Z" fill="#CCDD44" stroke="black"/>
<path id="Vector 5035" d="M59.3973 33.1877C62.521 31.6217 60.8674 40.0136 59.5368 44.8488C59.4506 45.1621 59.215 45.4108 58.9083 45.5183L28.1841 56.2863C28.0326 56.3394 27.8704 56.353 27.7103 56.34C25.4979 56.1604 24.1159 57.7751 20.9948 48.3868C17.9769 39.3093 21.765 38.9382 24.4747 40.0271C24.8258 40.1681 25.0203 40.4343 25.0185 40.0559C25.008 37.8342 25.3671 27.4479 30.0902 26.0949C35.7495 24.4737 39.0516 32.2479 39.1856 33.1879C39.3195 34.1278 39.9941 19.2047 47.2704 20.0153C54.5467 20.8259 55.0183 33.8633 54.3446 40.2807C54.6814 38.5919 56.1634 34.8089 59.3973 33.1877Z" fill="#AAEE22" stroke="black" stroke-linejoin="round"/>
<g id="Vector 5036">
<path d="M18.9089 43.5835C25.1612 43.5835 21.961 50.7116 21.8522 55.9565C21.8485 56.1317 21.8033 56.3025 21.7158 56.4543L16.1426 66.1255C15.7019 66.8902 14.009 67.071 13.2619 66.6011C10.8319 65.0726 6.65544 63.0712 6.19147 59.3823C5.5556 54.3267 9.10587 53.5894 10.9605 53.8527C10.9605 50.4296 12.5502 43.5835 18.9089 43.5835Z" fill="#AAEE22"/>
<path d="M10.9605 53.8527C10.9605 50.4296 12.5502 43.5835 18.9089 43.5835C25.1612 43.5835 21.961 50.7116 21.8522 55.9565C21.8485 56.1317 21.8033 56.3025 21.7158 56.4543L16.1426 66.1255C15.7019 66.8902 14.009 67.071 13.2619 66.6011C10.8319 65.0726 6.65544 63.0712 6.19147 59.3823C5.55559 54.3267 9.10587 53.5894 10.9605 53.8527ZM10.9605 53.8527L11.7553 56.2225" stroke="black" stroke-linecap="round" stroke-linejoin="round"/>
</g>
<ellipse id="Ellipse 5268" cx="54.0001" cy="93" rx="29" ry="8" fill="#7EA82B"/>
<ellipse id="Ellipse 5268_2" cx="88.5001" cy="63.5" rx="9.5" ry="3.5" fill="#7EA82B"/>
<g id="Group 48100756">
<g id="Group 48100694">
<rect id="Rectangle 24589" x="86.2759" y="7.5" width="6.88681" height="57.241" rx="1.5" fill="#A05A5A" stroke="black"/>
<path id="Vector 5360" d="M91.2361 8.81958V61.9039" stroke="black"/>
</g>
<g id="Group 48100755">
<rect id="Rectangle 24588" x="65.7949" y="8.73077" width="51" height="28" rx="1.5" transform="rotate(6.64538 65.7949 8.73077)" fill="#E0CEAC" stroke="black"/>
<path id="Vector 5360_2" d="M112.686 16.7109L109.793 41.543" stroke="black"/>
</g>
<rect id="Rectangle 24607" x="70.699" y="14" width="35.3367" height="6" rx="3" transform="rotate(6.68952 70.699 14)" fill="#A05A5A"/>
<rect id="Rectangle 24607_2" x="80.699" y="25" width="23.8876" height="6" rx="3" transform="rotate(6.68952 80.699 25)" fill="#A05A5A"/>
<rect id="Rectangle 24607_3" x="69.699" y="24" width="7.96125" height="6" rx="3" transform="rotate(6.68952 69.699 24)" fill="#A05A5A"/>
</g>
<path id="Vector 5423" d="M22.0001 57L50.5001 44L81.0001 82.5L16.0001 67L22.0001 57Z" fill="#7EA82B"/>
<g id="Group 48100754">
<g id="Vector 5422">
<path d="M57.594 20.47L20.0001 61.3534L38.3271 66.5226L53.3647 47.2557L57.594 74.0414L81.0903 82.5L57.594 20.47Z" fill="#F1DAC5"/>
<path d="M57.594 20.47L20.0001 61.3534L38.3271 66.5226L53.3647 47.2557L57.594 74.0414L81.0903 82.5L57.594 20.47Z" fill="#F1DAC5"/>
<path d="M57.594 20.47L20.0001 61.3534L38.3271 66.5226L53.3647 47.2557L57.594 74.0414L81.0903 82.5L57.594 20.47Z" stroke="black" stroke-linejoin="round"/>
</g>
<path id="Vector 5422_2" d="M57.5941 20L85.3196 53.3647L81.0903 82.5L57.5941 20Z" fill="#B29071" stroke="black" stroke-linejoin="round"/>
</g>
<g id="Group 48100703">
<g id="Group 48100700">
<path id="Vector 5311" d="M64.3981 75.5936C67.7315 76.2109 67.3303 79.6575 66.713 81.3036C66.713 82.281 65.3858 84.2666 60.077 84.3901C54.7682 84.5135 55.3957 80.2233 56.3731 78.0628C57.6592 76.9825 61.0646 74.9763 64.3981 75.5936Z" fill="#999999" stroke="black" stroke-linecap="round" stroke-linejoin="round"/>
<path id="Vector 5312" d="M64.3981 75.5936C67.7315 76.2109 67.3303 79.6575 66.713 81.3036C65.5622 78.0628 62.6479 78.0628 56.3731 78.0628C57.6592 76.9825 61.0646 74.9763 64.3981 75.5936Z" fill="#D9D9D9" stroke="black" stroke-linecap="round" stroke-linejoin="round"/>
</g>
<g id="Group 48100701">
<path id="Vector 5311_2" d="M70.8946 77.6666C67.5382 78.2882 63.7232 82.107 64.3447 83.7645C64.3447 84.7486 69.9001 86.3994 75.2454 86.5237C80.5908 86.648 79.9589 82.3283 78.9748 80.1529C77.6799 79.0651 74.251 77.0451 70.8946 77.6666Z" fill="#999999" stroke="black" stroke-linecap="round" stroke-linejoin="round"/>
<path id="Vector 5312_2" d="M70.8943 77.6669C67.5379 78.2884 67.8065 80.3124 71.2491 82.0386C76.092 85.4909 74.2367 81.8394 78.9745 80.1531C77.6796 79.0654 74.2507 77.0453 70.8943 77.6669Z" fill="#D9D9D9" stroke="black" stroke-linecap="round" stroke-linejoin="round"/>
</g>
<g id="Group 48100698">
<path id="Vector 5311_3" d="M45.4235 75.656C40.2902 76.6066 40.9081 81.9142 41.8587 84.4492C41.8587 85.9543 43.9025 89.012 52.0778 89.2021C60.2532 89.3923 59.2867 82.7856 57.7816 79.4584C55.8011 77.7949 50.5569 74.7053 45.4235 75.656Z" fill="#999999" stroke="black" stroke-linecap="round" stroke-linejoin="round"/>
<path id="Vector 5312_3" d="M45.4235 75.656C40.2902 76.6066 40.9081 81.9142 41.8587 84.4492C43.6308 79.4584 48.1188 79.4584 57.7816 79.4584C55.8011 77.7949 50.5569 74.7053 45.4235 75.656Z" fill="#D9D9D9" stroke="black" stroke-linecap="round" stroke-linejoin="round"/>
</g>
<g id="Group 48100695">
<path id="Vector 5311_4" d="M39.2094 82.5622C34.0761 83.5128 34.694 88.8205 35.6446 91.3554C35.6446 92.8605 37.6884 95.9183 45.8637 96.1084C54.039 96.2985 53.0726 89.6918 51.5675 86.3647C49.587 84.7011 44.3428 81.6116 39.2094 82.5622Z" fill="#999999" stroke="black" stroke-linecap="round" stroke-linejoin="round"/>
<path id="Vector 5312_4" d="M39.2094 82.5622C34.0761 83.5128 34.694 88.8205 35.6446 91.3554C38.6549 92.1477 46.0539 92.2587 51.5675 86.3647C49.587 84.7011 44.3428 81.6116 39.2094 82.5622Z" fill="#D9D9D9" stroke="black" stroke-linecap="round" stroke-linejoin="round"/>
</g>
<rect id="Rectangle 24538" x="52.9567" y="79.8989" width="5.34572" height="25.7266" rx="2.67286" transform="rotate(-55.6891 52.9567 79.8989)" fill="#B27D7D" stroke="black"/>
<rect id="Rectangle 24589_2" x="-0.694837" y="-0.131154" width="5.34572" height="25.7266" rx="2.67286" transform="matrix(-0.563683 -0.825991 -0.825991 0.563683 73.9579 78.7082)" fill="#A05A5A" stroke="black"/>
<g id="Group 48100699">
<path id="Vector 5361" d="M80.5707 83.0742C78.6374 83.6266 75.1621 86.9868 73.666 88.5979C72.6637 89.6339 73.666 96.1927 79.1898 96.1927C83.6087 96.1927 87.015 95.5022 88.1658 95.157C88.8563 93.8912 90.03 90.8074 89.2015 88.5979C88.1658 85.8361 82.9873 82.3837 80.5707 83.0742Z" fill="#999999" stroke="black" stroke-linecap="round" stroke-linejoin="round"/>
<path id="Vector 5362" d="M80.5705 83.074C78.6372 83.6263 75.1618 86.9866 73.6658 88.5977L80.5705 91.014L89.2013 88.5977C88.1656 85.8358 82.9871 82.3835 80.5705 83.074Z" fill="#D9D9D9" stroke="black" stroke-linecap="round" stroke-linejoin="round"/>
</g>
<g id="Group 48100697">
<path id="Vector 5311_5" d="M66.1376 87.3952C61.0043 88.3458 61.6222 93.6535 62.5728 96.1885C62.5728 97.6936 64.6166 100.751 72.792 100.941C80.9673 101.132 80.0008 94.5248 78.4957 91.1977C76.5152 89.5341 71.271 86.4446 66.1376 87.3952Z" fill="#999999" stroke="black" stroke-linecap="round" stroke-linejoin="round"/>
<path id="Vector 5312_5" d="M66.1376 87.3952C61.0043 88.3458 61.6222 93.6535 62.5728 96.1885C64.3449 91.1977 68.8329 91.1977 78.4957 91.1977C76.5152 89.5341 71.271 86.4446 66.1376 87.3952Z" fill="#D9D9D9" stroke="black" stroke-linecap="round" stroke-linejoin="round"/>
</g>
<g id="Group 48100696">
<path id="Vector 5311_6" d="M50.9475 87.3952C45.8142 88.3458 46.4321 93.6535 47.3827 96.1885C47.3827 97.6936 49.4265 100.751 57.6018 100.941C65.7771 101.132 64.8107 94.5248 63.3056 91.1977C61.3251 89.5341 56.0809 86.4446 50.9475 87.3952Z" fill="#999999" stroke="black" stroke-linecap="round" stroke-linejoin="round"/>
<path id="Vector 5312_6" d="M50.9475 87.3952C45.8142 88.3458 46.4321 93.6535 47.3827 96.1885C50.393 96.9807 56.0594 93.7767 63.3055 91.1977C61.3251 89.5341 56.0809 86.4446 50.9475 87.3952Z" fill="#D9D9D9" stroke="black" stroke-linecap="round" stroke-linejoin="round"/>
</g>
<g id="Group 48100702">
<g id="Union">
<mask id="path-36-inside-1_22321_3229" fill="white">
<path fill-rule="evenodd" clip-rule="evenodd" d="M72.3683 58.988C73.5437 58.3218 74.1507 57.1284 74.1044 54.7286C80.0383 59.4175 74.3436 82.5819 58.7876 77.8415C55.6556 77.0674 52.9569 75.0861 51.2801 72.3299C49.6033 69.5738 49.0844 66.2663 49.8366 63.1291C50.6397 60.5558 52.389 58.3828 54.7314 57.0486C53.8844 58.9981 54.1207 61.1408 55.1479 62.4834C55.6353 60.9113 56.5364 59.4647 59.1865 59.2686C58.4255 60.8323 58.7273 62.226 59.2381 63.5699C61.2752 62.7647 61.1151 60.1907 60.9257 57.1481C60.6577 52.8403 60.3312 47.5935 66.1 45.0986C65.1811 50.44 67.9802 53.7513 70.7796 57.0629C71.318 57.6998 71.8563 58.3367 72.3683 58.988Z"/>
</mask>
<path fill-rule="evenodd" clip-rule="evenodd" d="M72.3683 58.988C73.5437 58.3218 74.1507 57.1284 74.1044 54.7286C80.0383 59.4175 74.3436 82.5819 58.7876 77.8415C55.6556 77.0674 52.9569 75.0861 51.2801 72.3299C49.6033 69.5738 49.0844 66.2663 49.8366 63.1291C50.6397 60.5558 52.389 58.3828 54.7314 57.0486C53.8844 58.9981 54.1207 61.1408 55.1479 62.4834C55.6353 60.9113 56.5364 59.4647 59.1865 59.2686C58.4255 60.8323 58.7273 62.226 59.2381 63.5699C61.2752 62.7647 61.1151 60.1907 60.9257 57.1481C60.6577 52.8403 60.3312 47.5935 66.1 45.0986C65.1811 50.44 67.9802 53.7513 70.7796 57.0629C71.318 57.6998 71.8563 58.3367 72.3683 58.988Z" fill="#FF6242"/>
<path d="M74.1044 54.7286L74.7244 53.944L73.0638 52.6317L73.1046 54.7479L74.1044 54.7286ZM72.3683 58.988L71.5821 59.6059L72.1133 60.2819L72.8613 59.858L72.3683 58.988ZM58.7876 77.8415L59.0791 76.8849L59.0535 76.8771L59.0275 76.8707L58.7876 77.8415ZM51.2801 72.3299L52.1344 71.8102L51.2801 72.3299ZM49.8366 63.1291L48.882 62.8312L48.872 62.8632L48.8642 62.8959L49.8366 63.1291ZM54.7314 57.0486L55.6485 57.4471L56.8447 54.6941L54.2364 56.1797L54.7314 57.0486ZM55.1479 62.4834L54.3537 63.0911L55.5299 64.6284L56.1031 62.7796L55.1479 62.4834ZM59.1865 59.2686L60.0856 59.7062L60.8464 58.1431L59.1127 58.2714L59.1865 59.2686ZM59.2381 63.5699L58.3034 63.9252L58.6634 64.8724L59.6057 64.4999L59.2381 63.5699ZM60.9257 57.1481L59.9277 57.2102L60.9257 57.1481ZM66.1 45.0986L67.0856 45.2682L67.3988 43.4474L65.7031 44.1808L66.1 45.0986ZM70.7796 57.0629L70.0159 57.7085L70.7796 57.0629ZM73.1046 54.7479C73.1263 55.873 72.9909 56.613 72.7757 57.1136C72.5737 57.5838 72.2834 57.8866 71.8752 58.118L72.8613 59.858C73.6286 59.4232 74.2295 58.7962 74.6133 57.9032C74.984 57.0406 75.1288 55.984 75.1042 54.7093L73.1046 54.7479ZM58.4961 78.7981C62.6455 80.0625 66.2124 79.4761 69.0927 77.7467C71.9425 76.0357 74.0442 73.2542 75.4153 70.2345C76.7872 67.2127 77.4627 63.8778 77.4019 60.9639C77.3423 58.1065 76.5626 55.3965 74.7244 53.944L73.4844 55.5132C74.6132 56.4051 75.3469 58.349 75.4023 61.0056C75.4565 63.6056 74.8486 66.6447 73.5942 69.4076C72.3388 72.1726 70.471 74.5864 68.0632 76.032C65.6862 77.4592 62.7077 77.9907 59.0791 76.8849L58.4961 78.7981ZM50.4258 72.8497C52.2398 75.8314 55.1594 77.9748 58.5476 78.8123L59.0275 76.8707C56.1519 76.1599 53.674 74.3408 52.1344 71.8102L50.4258 72.8497ZM48.8642 62.8959C48.0504 66.2899 48.6117 69.868 50.4258 72.8497L52.1344 71.8102C50.5948 69.2796 50.1184 66.2428 50.8091 63.3622L48.8642 62.8959ZM54.2364 56.1797C51.674 57.6392 49.7606 60.0162 48.882 62.8312L50.7912 63.427C51.5189 61.0953 53.1039 59.1265 55.2263 57.9176L54.2364 56.1797ZM55.9421 61.8758C55.1679 60.8638 54.9235 59.1158 55.6485 57.4471L53.8142 56.6501C52.8452 58.8803 53.0734 61.4177 54.3537 63.0911L55.9421 61.8758ZM56.1031 62.7796C56.3241 62.0667 56.6051 61.5001 57.0425 61.0873C57.4622 60.6913 58.1184 60.3504 59.2602 60.2659L59.1127 58.2714C57.6045 58.383 56.4851 58.8634 55.6699 59.6327C54.8724 60.3853 54.4592 61.3281 54.1928 62.1873L56.1031 62.7796ZM58.2873 58.831C57.3462 60.7648 57.7563 62.4861 58.3034 63.9252L60.1729 63.2146C59.6982 61.9659 59.5048 60.8997 60.0856 59.7062L58.2873 58.831ZM59.9277 57.2102C60.0248 58.7713 60.0983 60.0451 59.931 61.0306C59.773 61.9612 59.4431 62.4136 58.8706 62.6399L59.6057 64.4999C61.0703 63.921 61.6789 62.6839 61.9027 61.3654C62.1173 60.102 62.016 58.5675 61.9238 57.086L59.9277 57.2102ZM65.7031 44.1808C62.5265 45.5546 60.9688 47.738 60.2862 50.1736C59.6265 52.5272 59.7958 55.0906 59.9277 57.2102L61.9238 57.086C61.7877 54.8979 61.6597 52.6839 62.212 50.7134C62.7413 48.8249 63.9048 47.1375 66.497 46.0165L65.7031 44.1808ZM71.5433 56.4174C68.7191 53.0764 66.2541 50.1009 67.0856 45.2682L65.1145 44.9291C64.108 50.779 67.2413 54.4261 70.0159 57.7085L71.5433 56.4174ZM73.1545 58.37C72.6297 57.7023 72.0797 57.0519 71.5433 56.4174L70.0159 57.7085C70.5562 58.3477 71.083 58.971 71.5821 59.6059L73.1545 58.37Z" fill="black" mask="url(#path-36-inside-1_22321_3229)"/>
</g>
<path id="Vector" d="M64.1602 71.5972C65.5842 71.0306 66.8298 70.0647 67.7734 68.8119C68.669 70.5831 68.2695 72.2493 67.2397 73.4011C66.0641 74.716 64.0484 75.3799 62.0656 74.7212C61.3967 74.4878 60.8018 74.0427 60.3608 73.4367C60.0536 73.0146 59.8316 72.5286 59.7077 72.0105C61.1951 72.3049 62.7341 72.1646 64.1602 71.5972Z" fill="#FFE500" stroke="black"/>
</g>
</g>
</g>
</g>
</svg>
