<svg xmlns="http://www.w3.org/2000/svg" width="390" height="162" viewBox="0 0 390 162" fill="none">
  <path
    d="M-555 98.5L-555.169 98.0295L-555.5 98.1485V98.5V331.5V332H-555H989H989.5V331.5V98.5V98.1485L989.169 98.0295L989 98.5C989.169 98.0295 989.168 98.0291 989.166 98.0283L989.156 98.0249L989.119 98.0114L988.969 97.9581C988.836 97.911 988.637 97.8408 988.372 97.7483C987.843 97.5633 987.05 97.289 985.995 96.9315C983.885 96.2164 980.726 95.168 976.528 93.834C968.134 91.1661 955.584 87.3556 938.961 82.7835C905.713 73.6394 856.169 61.4487 790.967 49.2585C660.563 24.8782 467.533 0.5 217 0.5C-33.5326 0.5 -226.563 24.8782 -356.967 49.2585C-422.169 61.4487 -471.713 73.6394 -504.961 82.7835C-521.584 87.3556 -534.134 91.1661 -542.528 93.834C-546.726 95.168 -549.885 96.2164 -551.995 96.9315C-553.05 97.289 -553.843 97.5633 -554.372 97.7483C-554.637 97.8408 -554.836 97.911 -554.969 97.9581L-555.119 98.0114L-555.156 98.0249L-555.166 98.0283C-555.168 98.0291 -555.169 98.0295 -555 98.5Z"
    fill="#B6DF5D" stroke="black" />
</svg>