<svg xmlns="http://www.w3.org/2000/svg" width="1544" height="166" viewBox="0 0 1544 166" fill="none">
  <path d="M0 98.5L-0.169268 98.0295L-0.5 98.1485V98.5V331.5V332H0H1544H1544.5V331.5V98.5V98.1485L1544.17 98.0295L1544 98.5C1544.17 98.0295 1544.17 98.0291 1544.17 98.0283L1544.16 98.0249L1544.12 98.0114L1543.97 97.9581C1543.84 97.911 1543.64 97.8408 1543.37 97.7483C1542.84 97.5633 1542.05 97.289 1540.99 96.9315C1538.88 96.2164 1535.73 95.168 1531.53 93.834C1523.13 91.1661 1510.58 87.3556 1493.96 82.7835C1460.71 73.6394 1411.17 61.4487 1345.97 49.2585C1215.56 24.8782 1022.53 0.5 772 0.5C521.467 0.5 328.437 24.8782 198.033 49.2585C132.831 61.4487 83.2866 73.6394 50.0393 82.7835C33.4156 87.3556 20.8664 91.1661 12.4716 93.834C8.27421 95.168 5.11544 96.2164 3.00529 96.9315C1.95022 97.289 1.1573 97.5633 0.627787 97.7483C0.363033 97.8408 0.16413 97.911 0.0312349 97.9581L-0.118581 98.0114L-0.156323 98.0249L-0.165896 98.0283C-0.168098 98.0291 -0.169268 98.0295 0 98.5Z" fill="#B6DF5D" stroke="black"/>
</svg>