<svg width="102" height="133" viewBox="0 0 102 133" fill="none" xmlns="http://www.w3.org/2000/svg">
<g id="Group 48100752">
<path id="Vector 5135" d="M35.9565 22.2514C35.9145 22.1957 35.8713 22.1404 35.8267 22.0854C34.7572 20.7681 33.1582 20 31.2219 20C29.1164 20 27.4901 20.9619 26.4809 22.3883C25.9986 23.07 25.6919 23.8039 25.4991 24.5H23.2929C23.1252 24.5 22.8998 24.51 22.6394 24.5552C20.4065 24.943 17.2637 26.9176 15.6554 31.2238C13.4688 33.0662 10.5561 36.0066 8.10782 39.5411C5.5254 43.2693 3.22186 48.0013 3.22186 53C3.22186 59.8579 5.61757 64.5867 8.03771 67.317C6.4384 69.4916 4.58366 72.7324 4.23675 76.2015C3.82582 80.3108 3.86197 88.2521 3.92855 91.8729C3.94145 92.5743 4.13846 93.2475 4.48641 93.8347L7.06431 92.3071L4.48642 93.8347L11.6775 105.97C12.0444 106.589 12.5715 107.097 13.2032 107.442L53.5007 129.422C54.7859 130.123 56.3513 130.066 57.582 129.274L55.9576 126.752L57.582 129.274L84.5118 111.929C84.7772 111.758 85.0214 111.556 85.2393 111.328L83.0693 109.257L85.2394 111.328L94.7088 101.408L94.7088 101.408C95.3475 100.739 95.7346 99.8687 95.8041 98.9461L97.1963 80.4526C97.2413 79.8543 97.1512 79.2535 96.9325 78.6947C96.9325 78.6947 96.9325 78.6947 96.9325 78.6947L92.7219 67.9341V65.7625C95.8045 62.4566 99.9065 55.2903 98.6987 45.6281C97.8835 39.1064 94.844 33.1425 91.4789 28.305C88.3388 23.7911 84.8047 20.1002 82.1878 17.6508C82.0268 16.0332 81.4352 14.0735 80.0456 12.3465C78.3362 10.222 75.6497 8.73979 71.909 8.506C70.359 8.40912 69.1221 8.34741 68.1412 8.31324C67.9751 7.50638 67.6797 6.6573 67.1789 5.86402C66.0765 4.11778 64.1957 3 61.7219 3C59.2371 3 57.3673 4.1177 56.2061 5.75127C55.579 6.63334 55.2022 7.59805 54.9819 8.50016H51.3278C51.0595 8.50016 50.7639 8.52659 50.4502 8.59849L51.1202 11.5227L50.4501 8.59849C48.9571 8.94059 46.8886 9.75939 45.1275 11.2457C43.4962 12.6225 42.0377 14.6685 41.7489 17.4174C40.1536 18.5728 37.928 20.3219 35.9565 22.2514ZM68.3303 10.4321C68.3303 10.4323 68.3302 10.4301 68.3301 10.4252C68.3303 10.4295 68.3303 10.4319 68.3303 10.4321Z" fill="#AA7755" stroke="white" stroke-width="6" stroke-linecap="round" stroke-linejoin="round"/>
<path id="Vector 5135_2" d="M14.2584 104.44L7.0673 92.3053C6.9793 92.1568 6.93122 91.9904 6.92804 91.8178C6.86095 88.1692 6.83144 80.4042 7.22186 76.5C7.55457 73.173 9.75519 69.8459 11.3494 67.9575C11.7723 67.4565 11.6727 66.6638 11.1815 66.2296C9.0884 64.3793 6.22186 60.111 6.22186 53C6.22186 44.7663 13.9082 36.5006 17.9797 33.1942C18.1387 33.0651 18.2525 32.8935 18.3165 32.6989C19.5308 29.0072 21.9854 27.7137 23.1528 27.511C23.1994 27.5029 23.2456 27.5 23.2929 27.5H27.1046C27.7006 27.5 28.1613 26.979 28.206 26.3847C28.3206 24.8612 29.0164 23 31.2219 23C33.4018 23 34.1068 24.6164 34.2335 25.9615C34.2853 26.5116 34.7099 27 35.2625 27C35.5517 27 35.8224 26.8634 36.0024 26.6371C38.2752 23.7803 42.1406 20.7845 44.2359 19.331C44.535 19.1236 44.6969 18.7731 44.6972 18.4092C44.7014 14.0842 48.8592 12.0408 51.1202 11.5227C51.1888 11.507 51.2574 11.5002 51.3278 11.5002H56.6268C57.2149 11.5002 57.6733 10.9936 57.7135 10.4069C57.8438 8.50294 58.7476 6 61.7219 6C64.6686 6 65.3597 8.45681 65.3306 10.3539C65.3213 10.9624 65.435 11.2963 66.0434 11.2834C66.9746 11.2637 68.703 11.3115 71.7219 11.5002C77.7026 11.874 79.2005 16.061 79.2351 18.5122C79.2395 18.8206 79.3532 19.1177 79.5808 19.3258C84.6851 23.9923 94.257 34.2809 95.7219 46.0002C96.8701 55.1861 92.6163 61.7474 90.0569 64.1945C89.8473 64.3949 89.7219 64.6668 89.7219 64.9568V68.3115C89.7219 68.4362 89.7452 68.5598 89.7906 68.6759L94.1388 79.7879C94.1935 79.9276 94.216 80.0778 94.2048 80.2274L92.8125 98.7209C92.7952 98.9516 92.6984 99.1691 92.5387 99.3364L83.0693 109.257C83.0148 109.314 82.9538 109.364 82.8874 109.407L55.9576 126.752C55.6499 126.95 55.2585 126.964 54.9372 126.789L14.6398 104.808C14.4819 104.722 14.3501 104.595 14.2584 104.44Z" fill="#AA7755" stroke="black" stroke-width="3" stroke-linecap="round" stroke-linejoin="round"/>
<ellipse id="Ellipse 5182" cx="50.6185" cy="88.2843" rx="43.3929" ry="28.1875" transform="rotate(2.58157 50.6185 88.2843)" fill="#664422" stroke="black"/>
<path id="Ellipse 5183" d="M93.4679 82.6889C93.1274 90.2397 88.1042 96.9299 80.1198 101.619C72.1404 106.305 61.2596 108.952 49.3714 108.416C37.4833 107.88 26.8848 104.265 19.3595 98.8796C11.8295 93.4909 7.42869 86.3757 7.76913 78.825C8.10957 71.2742 13.1328 64.5839 21.1172 59.8947C29.0966 55.2084 39.9774 52.5615 51.8656 53.0975C63.7538 53.6335 74.3522 57.2488 81.8776 62.6342C89.4075 68.0229 93.8083 75.1381 93.4679 82.6889Z" fill="#ADDA54" stroke="black"/>
<ellipse id="Ellipse 5258" cx="83.7218" cy="79" rx="6" ry="2.5" fill="#7EA82B"/>
<ellipse id="Ellipse 5262" cx="15.7219" cy="78.5" rx="6" ry="2" fill="#7EA82B"/>
<ellipse id="Ellipse 5283" cx="32.7219" cy="97" rx="14" ry="2.5" fill="#7EA82B"/>
<ellipse id="Ellipse 5288" cx="61.7219" cy="88.5" rx="10" ry="3" fill="#7EA82B"/>
<ellipse id="Ellipse 5260" cx="48.7219" cy="78.5" rx="32" ry="5" fill="#7EA82B"/>
<g id="Group 48100713">
<g id="Group 48100711">
<path id="Ellipse 5250" d="M20.883 31.5422C12.4818 36.326 6.63892 46.4378 6.63892 54.9782C6.63892 61.9538 10.5368 66.2987 16.543 68.6613H45.2536C51.2598 66.2987 55.1577 61.9538 55.1577 54.9782C55.1577 46.4378 49.3148 36.326 40.9137 31.5422H20.883Z" fill="#DCA450" stroke="black" stroke-linecap="round"/>
<path id="Ellipse 5251" d="M8.84955 45.1184C7.43038 48.3284 6.63892 51.6688 6.63892 54.7974C6.63892 57.3228 7.15465 59.5019 8.09998 61.3655H53.6966C54.642 59.5019 55.1577 57.3228 55.1577 54.7974C55.1577 51.6688 54.3662 48.3284 52.9471 45.1184H8.84955Z" fill="#EBD783" stroke="black" stroke-linecap="round"/>
<path id="Ellipse 5254" d="M30.8983 23.9751C29.3003 23.9751 28.0049 25.2 28.0049 26.7109C28.0049 27.7331 28.5978 28.6244 29.4761 29.094H32.3204C33.1987 28.6244 33.7916 27.7331 33.7916 26.7109C33.7916 25.2 32.4962 23.9751 30.8983 23.9751Z" fill="#A77148" stroke="black" stroke-linecap="round"/>
<path id="Rectangle 24590" d="M18.4348 33.1C18.4348 30.15 20.8263 27.7585 23.7763 27.7585H38.2429C41.1929 27.7585 43.5844 30.15 43.5844 33.1H18.4348Z" fill="#A77148" stroke="black" stroke-linecap="round"/>
</g>
<rect id="Rectangle 24594" x="18.9691" y="65.0676" width="14.6419" height="3.85314" rx="1.92657" transform="rotate(90 18.9691 65.0676)" fill="#76500D" stroke="black" stroke-linecap="round"/>
<rect id="Rectangle 24596" x="51.7207" y="65.0676" width="14.6419" height="3.85314" rx="1.92657" transform="rotate(90 51.7207 65.0676)" fill="#76500D" stroke="black" stroke-linecap="round"/>
<rect id="Rectangle 24595" x="88.7109" y="65.0676" width="14.6419" height="3.85314" rx="1.92657" transform="rotate(90 88.7109 65.0676)" fill="#76500D" stroke="black" stroke-linecap="round"/>
<g id="Group 48100710">
<path id="Ellipse 5250_2" d="M47.677 17.0427C35.9719 23.7078 27.8312 37.7963 27.8312 49.6953C27.8312 59.4142 33.2621 65.4677 41.6303 68.7595H81.6319C90.0001 65.4677 95.4309 59.4142 95.4309 49.6953C95.4309 37.7963 87.2902 23.7078 75.5851 17.0427H47.677Z" fill="#DCA450" stroke="black" stroke-linecap="round"/>
<path id="Ellipse 5251_2" d="M30.9112 35.9587C28.934 40.4311 27.8312 45.0852 27.8312 49.4441C27.8312 52.9628 28.5498 55.9988 29.8669 58.5953H93.3953C94.7124 55.9988 95.4309 52.9628 95.4309 49.4441C95.4309 45.0852 94.3282 40.4311 92.3509 35.9587H30.9112Z" fill="#EBD783" stroke="black" stroke-linecap="round"/>
<g id="Ellipse 5252">
<path d="M61.631 30.9973C50.4992 30.9973 41.4751 39.9755 41.4751 51.0506C41.4751 58.543 45.6052 65.0758 51.7238 68.5182H71.5381C77.6568 65.0758 81.7868 58.543 81.7868 51.0506C81.7868 39.9755 72.7627 30.9973 61.631 30.9973Z" fill="#A77148"/>
<path d="M61.631 30.9973C50.4992 30.9973 41.4751 39.9755 41.4751 51.0506C41.4751 58.543 45.6052 65.0758 51.7238 68.5182H71.5381C77.6568 65.0758 81.7868 58.543 81.7868 51.0506C81.7868 39.9755 72.7627 30.9973 61.631 30.9973Z" fill="#A77148"/>
<path d="M61.631 30.9973C50.4992 30.9973 41.4751 39.9755 41.4751 51.0506C41.4751 58.543 45.6052 65.0758 51.7238 68.5182H71.5381C77.6568 65.0758 81.7868 58.543 81.7868 51.0506C81.7868 39.9755 72.7627 30.9973 61.631 30.9973Z" stroke="black" stroke-linecap="round"/>
</g>
<path id="Ellipse 5253" d="M61.6309 34.4077C52.383 34.4077 44.886 41.7535 44.886 50.8149C44.886 56.9451 48.3172 62.2901 53.4004 65.1067H69.8615C74.9447 62.2901 78.3758 56.9451 78.3758 50.8149C78.3758 41.7535 70.8789 34.4077 61.6309 34.4077Z" fill="#C09344" stroke="black" stroke-linecap="round"/>
<path id="Ellipse 5254_2" d="M61.631 6.5C59.4046 6.5 57.5998 8.20659 57.5998 10.3118C57.5998 11.736 58.4258 12.9777 59.6495 13.6321H63.6124C64.8361 12.9777 65.6621 11.736 65.6621 10.3118C65.6621 8.20659 63.8573 6.5 61.631 6.5Z" fill="#A77148" stroke="black" stroke-linecap="round"/>
<path id="Rectangle 24590_2" d="M44.2661 19.2139C44.2661 15.1037 47.598 11.7717 51.7082 11.7717H71.8641C75.9743 11.7717 79.3063 15.1037 79.3063 19.2139H44.2661Z" fill="#A77148" stroke="black" stroke-linecap="round"/>
</g>
<path id="Rectangle 24593" d="M55.6943 73.9921C56.3076 72.4853 57.7724 71.5 59.3992 71.5H72.2753C75.1154 71.5 77.0508 74.3773 75.9802 77.0079L71.2494 88.6316C70.6361 90.1385 69.1714 91.1238 67.5445 91.1238H54.6684C51.8283 91.1238 49.8929 88.2465 50.9635 85.6159L55.6943 73.9921Z" fill="#76500D" stroke="black" stroke-linecap="round"/>
<rect id="Rectangle 24591" x="16.2717" y="68.5356" width="67.0447" height="4.62377" rx="2.31189" fill="#C09344" stroke="black" stroke-linecap="round"/>
<rect id="Rectangle 24592" x="48.7219" y="74.5" width="31" height="5" rx="2.5" fill="#C09344" stroke="black" stroke-linecap="round"/>
<rect id="Rectangle 24593_2" x="43.7219" y="88.5" width="31" height="5" rx="2.5" fill="#C09344" stroke="black" stroke-linecap="round"/>
<rect id="Rectangle 24593_3" x="45.7219" y="81.5" width="32" height="5" rx="2.5" fill="#C09344" stroke="black" stroke-linecap="round"/>
<rect id="Rectangle 24589" x="44.7851" y="23.0745" width="29.6692" height="11.1741" rx="4" transform="rotate(-3.73462 44.7851 23.0745)" fill="#C09344" stroke="black" stroke-linecap="round"/>
<g id="Super Market">
<path id="Vector" d="M68.3186 28.5179C68.3304 28.6982 68.2535 28.8268 68.0878 28.9038C67.922 28.9773 67.6918 29.0254 67.3973 29.0481C67.3995 29.1351 67.4069 29.2756 67.4196 29.4698C67.4325 29.6675 67.4555 29.807 67.4887 29.8884C67.5099 29.9462 67.5384 29.9827 67.5742 29.9978C67.6135 30.0126 67.6697 30.0211 67.743 30.0233C67.7675 30.0252 67.7939 30.0287 67.8221 30.0338C67.8535 30.0352 67.8885 30.0382 67.9271 30.0426C68.008 30.0548 68.0732 30.094 68.1229 30.1604C68.1722 30.2234 68.2003 30.3069 68.2071 30.4109C68.2148 30.5288 68.1601 30.6247 68.0431 30.6985C67.926 30.7723 67.7617 30.8161 67.5502 30.8299C67.356 30.8426 67.1668 30.7992 66.9827 30.6998C66.7984 30.5969 66.6671 30.4522 66.5888 30.2658C66.506 30.0657 66.4461 29.6814 66.409 29.1127C66.1658 29.1216 65.9679 29.1031 65.8151 29.0574C65.6656 29.008 65.586 28.9087 65.5763 28.7596C65.5641 28.5723 65.6253 28.4429 65.7599 28.3715C65.8943 28.2965 66.0914 28.2488 66.3513 28.2284C66.3436 27.9503 66.3719 27.7169 66.4362 27.5281C66.5002 27.3359 66.6311 27.2333 66.8288 27.2204C67.0299 27.2073 67.1656 27.2855 67.2358 27.455C67.3096 27.6243 67.3528 27.8601 67.3656 28.1622C67.6809 28.1381 67.9148 28.1472 68.0673 28.1895C68.2233 28.2316 68.3071 28.341 68.3186 28.5179Z" fill="#0C0C0C"/>
<path id="Vector_2" d="M64.683 31.017C64.4264 31.0337 64.196 30.9982 63.9917 30.9106C63.7875 30.8229 63.624 30.6926 63.5013 30.5195C63.3818 30.3427 63.3146 30.1399 63.2997 29.911C63.2849 29.6856 63.3251 29.4741 63.4202 29.2763C63.5187 29.0784 63.6613 28.9158 63.848 28.7887C64.0347 28.6616 64.2512 28.59 64.4974 28.5739C64.7193 28.5595 64.9182 28.5918 65.094 28.6708C65.2698 28.7499 65.4076 28.861 65.5075 29.0043C65.6072 29.144 65.6622 29.2937 65.6727 29.4532C65.6896 29.7132 65.6032 29.9104 65.4135 30.0447C65.227 30.1753 64.9985 30.2494 64.7281 30.267C64.5477 30.2788 64.3937 30.2662 64.2659 30.2293C64.381 30.3924 64.5582 30.4662 64.7975 30.4505C64.8946 30.4442 64.9978 30.4253 65.1072 30.3938C65.1481 30.3806 65.1877 30.3728 65.2258 30.3704C65.3021 30.3654 65.364 30.3805 65.4116 30.4157C65.4627 30.4507 65.4903 30.5011 65.4946 30.567C65.5016 30.6745 65.4419 30.7724 65.3153 30.8608C65.1885 30.9456 64.9777 30.9977 64.683 31.017ZM64.2401 29.5937C64.2745 29.6402 64.3185 29.6739 64.3721 29.6948C64.4289 29.712 64.4903 29.7184 64.5562 29.7141C64.6324 29.7091 64.6972 29.6875 64.7504 29.6492C64.8071 29.6107 64.8336 29.5636 64.83 29.5082C64.8259 29.4457 64.7964 29.3937 64.7415 29.352C64.69 29.3101 64.6174 29.2922 64.5238 29.2983C64.4302 29.3044 64.3575 29.3388 64.3059 29.4013C64.2575 29.4602 64.2356 29.5243 64.2401 29.5937Z" fill="#0C0C0C"/>
<path id="Vector_3" d="M62.6861 29.8517C62.7424 29.9142 62.8337 30.0319 62.9599 30.2047C63.1091 30.4109 63.1886 30.5885 63.1984 30.7377C63.2063 30.859 63.1724 30.9535 63.0967 31.0211C63.0208 31.0853 62.9291 31.1209 62.8216 31.1279C62.7211 31.1345 62.616 31.0995 62.5066 31.0231C62.4006 30.9464 62.2875 30.8406 62.1672 30.7057C62.0391 30.5574 61.9539 30.4515 61.9114 30.3881C61.8675 30.4084 61.8183 30.429 61.764 30.45C61.7567 30.7116 61.7205 30.9038 61.6553 31.0264C61.5902 31.1491 61.4831 31.2153 61.334 31.225C61.1814 31.235 61.056 31.1805 60.9577 31.0615C60.8594 30.9426 60.7808 30.7527 60.722 30.4919C60.6666 30.2308 60.6248 29.8835 60.5965 29.4501C60.5696 29.0374 60.5601 28.7055 60.5681 28.4542C60.5793 28.1993 60.6252 27.996 60.7059 27.8445C60.7863 27.6895 60.9167 27.6061 61.097 27.5944C61.2461 27.5846 61.3605 27.6294 61.4401 27.7287C61.5232 27.8277 61.5811 27.9685 61.6139 28.1509C61.65 28.3296 61.6779 28.5716 61.6979 28.8767L61.7192 29.2044L61.7342 29.193C61.9265 29.0446 62.0964 28.9273 62.244 28.8411C62.3951 28.7546 62.533 28.7073 62.6579 28.6991C62.8 28.6899 62.9142 28.7312 63.0003 28.8231C63.0896 28.9113 63.1381 29.0143 63.1458 29.1322C63.154 29.257 63.1198 29.3742 63.0434 29.4836C62.9669 29.5931 62.8478 29.7158 62.6861 29.8517Z" fill="#0C0C0C"/>
<path id="Vector_4" d="M58.7629 31.4035C58.5409 31.418 58.3833 31.2977 58.2901 31.0426C58.2003 30.7873 58.1404 30.4307 58.1106 29.973C58.097 29.765 58.0943 29.591 58.1026 29.4512C58.1141 29.3076 58.1531 29.1849 58.2196 29.0831C58.2894 28.9776 58.4022 28.9197 58.5583 28.9095C58.6554 28.9032 58.7418 28.9202 58.8176 28.9605C58.8968 29.0006 58.9495 29.0616 58.9758 29.1434C59.0475 29.0691 59.143 29.0106 59.2621 28.968C59.3812 28.9254 59.5101 28.8996 59.6488 28.8906C59.7598 28.8833 59.8743 28.9037 59.9923 28.9517C60.1138 28.9995 60.2159 29.0694 60.2985 29.1616C60.3844 29.25 60.431 29.3497 60.4382 29.4606C60.4454 29.5716 60.412 29.673 60.3379 29.7649C60.2671 29.8531 60.1675 29.9014 60.0392 29.9098C59.9976 29.9125 59.9574 29.9099 59.9185 29.902C59.8832 29.8939 59.8513 29.8855 59.8229 29.8769C59.7517 29.8537 59.6953 29.8434 59.6537 29.8462C59.5185 29.855 59.4023 29.9165 59.3053 30.0308C59.2116 30.1414 59.1701 30.28 59.181 30.4464C59.193 30.6302 59.196 30.7832 59.19 30.9055C59.1841 31.0278 59.1496 31.1397 59.0866 31.2413C59.0234 31.3395 58.9154 31.3935 58.7629 31.4035Z" fill="#0C0C0C"/>
<path id="Vector_5" d="M56.5926 31.545C56.3221 31.5626 56.0962 31.5164 55.9149 31.4064C55.7334 31.2929 55.6351 31.1199 55.6199 30.8876C55.6068 30.6865 55.6848 30.5212 55.8539 30.3917C56.0231 30.2623 56.2394 30.189 56.503 30.1718C56.6001 30.1654 56.6908 30.1682 56.7752 30.1801C56.8627 30.1883 56.9228 30.2018 56.9554 30.2206C56.9497 30.1339 56.9087 30.0652 56.8322 30.0145C56.7556 29.9603 56.6427 29.938 56.4936 29.9478C56.4277 29.9521 56.3743 29.9608 56.3333 29.9739C56.2924 29.987 56.2484 30.0056 56.2012 30.0295C56.154 30.0535 56.1099 30.0721 56.069 30.0852C56.0315 30.0981 55.9798 30.1067 55.914 30.111C55.803 30.1182 55.7145 30.0961 55.6485 30.0447C55.5822 29.9898 55.5452 29.9035 55.5375 29.7856C55.5287 29.6503 55.5698 29.5327 55.6607 29.4328C55.7552 29.3326 55.8755 29.2551 56.0217 29.2002C56.1676 29.142 56.3151 29.108 56.4642 29.0982C56.759 29.079 57.0088 29.1184 57.2137 29.2165C57.4219 29.3108 57.5786 29.4451 57.684 29.6193C57.7929 29.7933 57.8545 29.9895 57.8687 30.208C57.8764 30.3259 57.8731 30.4358 57.8589 30.5377C57.8481 30.6394 57.8289 30.719 57.8014 30.7765C57.8526 30.815 57.8922 30.8612 57.9201 30.9151C57.9515 30.9687 57.9691 31.025 57.9729 31.084C57.9795 31.1845 57.9505 31.2735 57.8859 31.3509C57.8247 31.428 57.7387 31.4702 57.6277 31.4774C57.5445 31.4828 57.4761 31.4751 57.4225 31.4542C57.3689 31.4334 57.3109 31.3988 57.2486 31.3507C57.1653 31.4083 57.0724 31.4527 56.9699 31.4838C56.871 31.5146 56.7452 31.535 56.5926 31.545ZM56.6623 31.0128C56.7352 31.0081 56.7914 30.9887 56.8309 30.9548C56.874 30.9207 56.894 30.881 56.8911 30.836C56.8881 30.7909 56.8631 30.7542 56.816 30.7259C56.7724 30.6974 56.7141 30.6856 56.6413 30.6903C56.5685 30.6951 56.5105 30.7145 56.4675 30.7487C56.4279 30.7826 56.4096 30.8221 56.4126 30.8672C56.4155 30.9123 56.4388 30.9491 56.4824 30.9776C56.5296 31.0058 56.5895 31.0176 56.6623 31.0128Z" fill="#0C0C0C"/>
<path id="Vector_6" d="M53.4584 31.7496C53.3405 31.7573 53.2398 31.7343 53.1562 31.6806C53.0758 31.6231 53.0166 31.5434 52.9786 31.4414C52.9445 31.3461 52.9203 31.2415 52.9059 31.1275C52.895 31.0133 52.8827 30.8522 52.8691 30.6441C52.8565 30.4499 52.8384 30.3066 52.8149 30.2141C52.795 30.1214 52.7555 30.0769 52.6965 30.0808C52.6272 30.0853 52.5807 30.1197 52.557 30.1839C52.5331 30.2447 52.5248 30.3305 52.532 30.4415C52.5386 30.5421 52.5628 30.6989 52.6045 30.9121C52.6107 30.9535 52.622 31.0189 52.6383 31.1084C52.6545 31.1979 52.6646 31.2721 52.6685 31.3311C52.6793 31.4975 52.6489 31.6179 52.5771 31.6922C52.5088 31.7663 52.4036 31.808 52.2614 31.8173C52.0915 31.8284 51.9381 31.7461 51.8013 31.5705C51.6645 31.3949 51.5559 31.1721 51.4756 30.9022C51.3951 30.6289 51.3461 30.3587 51.3287 30.0917C51.3078 29.7727 51.3336 29.4733 51.4058 29.1934C51.4816 28.9134 51.6059 28.6841 51.7788 28.5057C51.9552 28.327 52.1752 28.2291 52.4387 28.2119C52.6607 28.1974 52.842 28.2552 52.9829 28.3853C53.1235 28.5119 53.2226 28.6709 53.2804 28.8621C53.3061 28.6689 53.3803 28.4986 53.503 28.3513C53.6292 28.2038 53.8015 28.1229 54.02 28.1087C54.2801 28.0917 54.5073 28.1587 54.7017 28.3097C54.8994 28.457 55.0562 28.6713 55.1721 28.9528C55.2914 29.2341 55.3634 29.5637 55.3881 29.9417C55.4042 30.1879 55.3861 30.445 55.334 30.7131C55.2816 30.9777 55.1986 31.2007 55.0851 31.3823C54.9716 31.5638 54.8351 31.6598 54.6756 31.6702C54.5299 31.6797 54.4166 31.6505 54.3356 31.5827C54.2545 31.5148 54.2086 31.3977 54.1977 31.2312C54.1927 31.155 54.1973 31.0119 54.2115 30.802C54.2247 30.5783 54.2282 30.4178 54.2218 30.3208C54.2071 30.0954 54.1391 29.9866 54.0177 29.9945C53.9553 29.9986 53.9187 30.0515 53.9079 30.1532C53.9006 30.2547 53.9026 30.4182 53.9138 30.6438C53.9249 30.8137 53.9307 30.9561 53.9313 31.071C53.9316 31.1824 53.9227 31.2858 53.9045 31.381C53.8833 31.4833 53.8332 31.5685 53.754 31.6363C53.6783 31.7039 53.5798 31.7417 53.4584 31.7496Z" fill="#0C0C0C"/>
<path id="Vector_7" d="M64.5983 26.2006C64.3764 26.2151 64.2188 26.0948 64.1255 25.8397C64.0357 25.5844 63.9759 25.2279 63.946 24.7701C63.9324 24.5621 63.9298 24.3881 63.9381 24.2483C63.9496 24.1048 63.9886 23.9821 64.0551 23.8802C64.1248 23.7747 64.2377 23.7168 64.3937 23.7066C64.4908 23.7003 64.5773 23.7173 64.653 23.7576C64.7322 23.7977 64.785 23.8587 64.8112 23.9406C64.883 23.8662 64.9784 23.8078 65.0975 23.7652C65.2166 23.7226 65.3455 23.6967 65.4842 23.6877C65.5952 23.6804 65.7097 23.7008 65.8278 23.7488C65.9493 23.7966 66.0514 23.8666 66.134 23.9587C66.2199 24.0471 66.2664 24.1468 66.2737 24.2578C66.2809 24.3687 66.2475 24.4702 66.1734 24.5621C66.1025 24.6503 66.0029 24.6985 65.8746 24.7069C65.833 24.7096 65.7928 24.707 65.754 24.6991C65.7186 24.691 65.6867 24.6826 65.6583 24.674C65.5872 24.6508 65.5308 24.6406 65.4892 24.6433C65.3539 24.6521 65.2378 24.7137 65.1408 24.828C65.047 24.9386 65.0056 25.0771 65.0164 25.2435C65.0284 25.4273 65.0314 25.5803 65.0255 25.7026C65.0195 25.8249 64.9851 25.9368 64.922 26.0385C64.8588 26.1366 64.7509 26.1907 64.5983 26.2006Z" fill="#0C0C0C"/>
<path id="Vector_8" d="M62.7466 26.3216C62.49 26.3384 62.2596 26.3029 62.0553 26.2153C61.8511 26.1276 61.6876 25.9972 61.5649 25.8242C61.4454 25.6474 61.3782 25.4446 61.3633 25.2157C61.3485 24.9903 61.3887 24.7788 61.4838 24.581C61.5823 24.383 61.7249 24.2205 61.9116 24.0934C62.0983 23.9663 62.3148 23.8947 62.561 23.8786C62.7829 23.8641 62.9818 23.8964 63.1576 23.9755C63.3334 24.0546 63.4712 24.1657 63.5711 24.3089C63.6708 24.4487 63.7258 24.5983 63.7363 24.7579C63.7532 25.0179 63.6668 25.2151 63.4771 25.3494C63.2906 25.4799 63.0621 25.5541 62.7917 25.5717C62.6113 25.5835 62.4573 25.5709 62.3295 25.534C62.4446 25.6971 62.6218 25.7709 62.8611 25.7552C62.9582 25.7489 63.0614 25.73 63.1708 25.6985C63.2117 25.6853 63.2513 25.6775 63.2894 25.675C63.3657 25.6701 63.4276 25.6852 63.4752 25.7204C63.5262 25.7553 63.5539 25.8058 63.5582 25.8717C63.5652 25.9792 63.5055 26.0771 63.3789 26.1654C63.2521 26.2503 63.0413 26.3024 62.7466 26.3216ZM62.3037 24.8984C62.3381 24.9449 62.3821 24.9786 62.4357 24.9995C62.4925 25.0166 62.5539 25.0231 62.6198 25.0188C62.696 25.0138 62.7608 24.9922 62.814 24.9539C62.8707 24.9153 62.8972 24.8683 62.8936 24.8129C62.8895 24.7504 62.86 24.6984 62.8051 24.6567C62.7536 24.6148 62.681 24.5969 62.5874 24.603C62.4938 24.6091 62.4211 24.6435 62.3695 24.706C62.3211 24.7649 62.2992 24.829 62.3037 24.8984Z" fill="#0C0C0C"/>
<path id="Vector_9" d="M59.0028 27.3127C58.8329 27.3238 58.7042 27.2452 58.6166 27.0768C58.5292 26.9118 58.4697 26.7207 58.4381 26.5034C58.41 26.2858 58.3842 25.9984 58.3609 25.6413C58.3431 25.3673 58.3377 25.1256 58.3449 24.9162C58.3556 24.7066 58.3976 24.5228 58.4709 24.3647C58.5441 24.2067 58.6657 24.1222 58.8357 24.1111C59.0125 24.0995 59.1453 24.1605 59.2341 24.294C59.3101 24.2299 59.4058 24.1766 59.5215 24.1342C59.6403 24.0882 59.7657 24.0608 59.8974 24.0522C60.1194 24.0377 60.3276 24.0799 60.5221 24.1786C60.7166 24.2774 60.8754 24.4167 60.9986 24.5967C61.1218 24.7768 61.1906 24.9777 61.2051 25.1997C61.2196 25.4216 61.1776 25.6315 61.0791 25.8295C60.9803 26.024 60.841 26.1828 60.6609 26.306C60.4809 26.4292 60.28 26.498 60.058 26.5125C59.9228 26.5214 59.7951 26.5123 59.6749 26.4853C59.5545 26.4549 59.4507 26.4111 59.3634 26.3542C59.3779 26.5761 59.3821 26.7482 59.3762 26.8705C59.3703 26.9927 59.3386 27.0941 59.2811 27.1744C59.2274 27.258 59.1346 27.3041 59.0028 27.3127ZM59.9757 25.6508C60.0658 25.6449 60.1417 25.6069 60.2033 25.5367C60.2681 25.4628 60.2976 25.3808 60.2917 25.2906C60.2858 25.2005 60.246 25.1247 60.1724 25.0633C60.102 24.9983 60.0217 24.9687 59.9315 24.9746C59.8414 24.9805 59.7639 25.0204 59.699 25.0942C59.6375 25.1644 59.6096 25.2446 59.6155 25.3348C59.6214 25.4249 59.6595 25.5025 59.7299 25.5676C59.8036 25.6289 59.8855 25.6567 59.9757 25.6508Z" fill="#0C0C0C"/>
<path id="Vector_10" d="M56.9903 26.6973C56.7372 26.7138 56.5112 26.6658 56.3123 26.5535C56.1132 26.4376 55.9543 26.2704 55.8355 26.0518C55.72 25.8295 55.6525 25.5692 55.6331 25.271C55.6141 24.9797 55.6459 24.7478 55.7287 24.5752C55.8115 24.4027 55.9361 24.311 56.1025 24.3001C56.3973 24.2808 56.5545 24.4221 56.5742 24.7238C56.5783 24.7862 56.5801 24.8418 56.5798 24.8905C56.5793 24.9358 56.5785 24.976 56.5772 25.0109C56.5724 25.1505 56.5727 25.2619 56.5782 25.3451C56.5881 25.4977 56.6269 25.6118 56.6945 25.6875C56.7622 25.7632 56.8411 25.7981 56.9312 25.7922C57.0248 25.7861 57.0986 25.743 57.1526 25.6628C57.2098 25.579 57.2333 25.4591 57.2232 25.303C57.2159 25.192 57.204 25.0901 57.1875 24.9971C57.182 24.9662 57.1756 24.9213 57.1683 24.8626C57.1607 24.8004 57.1553 24.7433 57.1519 24.6913C57.132 24.3861 57.2694 24.2239 57.5641 24.2047C57.7306 24.1938 57.8643 24.2687 57.9653 24.4292C58.0696 24.5861 58.1314 24.8119 58.1506 25.1067C58.1807 25.5679 58.0972 25.9424 57.9001 26.2304C57.7027 26.5149 57.3995 26.6705 56.9903 26.6973Z" fill="#0C0C0C"/>
<path id="Vector_11" d="M54.2604 26.8809C54.0316 26.8958 53.8093 26.879 53.5937 26.8303C53.3814 26.778 53.2056 26.699 53.0663 26.5931C52.9269 26.4838 52.8523 26.3546 52.8425 26.2055C52.8333 26.0634 52.8692 25.9478 52.9505 25.8589C53.0318 25.7701 53.1383 25.7213 53.2701 25.7127C53.3567 25.7071 53.4321 25.7143 53.4961 25.7345C53.5633 25.751 53.6365 25.7776 53.7155 25.8142C53.7728 25.8384 53.821 25.8578 53.8603 25.8727C53.9028 25.8838 53.9466 25.8879 53.9917 25.885C54.1062 25.8775 54.1604 25.8287 54.1545 25.7386C54.1523 25.7039 54.1261 25.676 54.0759 25.6549C54.0256 25.6303 53.9417 25.5992 53.8243 25.5616C53.6145 25.4952 53.443 25.4281 53.3097 25.3601C53.1044 25.2551 52.959 25.1358 52.8737 25.0021C52.7918 24.8681 52.7441 24.6971 52.7305 24.489C52.7174 24.2879 52.7692 24.0947 52.8859 23.9095C53.0025 23.7208 53.1682 23.5655 53.3831 23.4435C53.598 23.3215 53.8373 23.2519 54.1008 23.2347C54.3574 23.218 54.5941 23.2426 54.8108 23.3085C55.0308 23.3708 55.206 23.4673 55.3364 23.5981C55.4701 23.7252 55.5423 23.8719 55.5532 24.0384C55.5656 24.2291 55.5178 24.3767 55.4097 24.4813C55.3049 24.5822 55.1831 24.6371 55.0444 24.6462C54.93 24.6537 54.8428 24.6524 54.783 24.6424C54.7266 24.6321 54.6698 24.6167 54.6128 24.596C54.5666 24.5816 54.5276 24.572 54.496 24.5671C54.4641 24.5587 54.4204 24.5563 54.3649 24.56C54.3198 24.5629 54.2775 24.5813 54.2379 24.6153C54.2016 24.6455 54.1851 24.6866 54.1885 24.7386C54.191 24.7768 54.2157 24.8082 54.2626 24.833C54.3093 24.8544 54.3627 24.8735 54.423 24.8905C54.4834 24.9074 54.526 24.9203 54.5509 24.9291C54.8811 25.026 55.1275 25.1457 55.29 25.2883C55.4523 25.4275 55.5413 25.6167 55.5569 25.856C55.5762 26.1507 55.4716 26.3891 55.2432 26.5712C55.018 26.7496 54.6904 26.8528 54.2604 26.8809Z" fill="#0C0C0C"/>
</g>
</g>
<g id="Group 48100737">
<g id="Vector 5308">
<path d="M25.8446 94.6217C25.4672 92.7526 25.7417 88.441 29.8593 86.1482C33.9769 83.8553 38.3003 84.4451 39.9473 85.0267C40.8052 85.6497 42.5003 87.7432 42.4179 91.1326C42.3396 94.3538 40.4762 96.0624 38.0944 96.313C30.271 98.8623 26.6681 96.2477 25.8446 94.6217Z" fill="#B6B6B6"/>
<path d="M39.9473 85.0267C38.3003 84.4451 33.9769 83.8553 29.8593 86.1482C25.7417 88.441 25.4672 92.7526 25.8446 94.6217C26.6681 96.2477 30.271 98.8623 38.0944 96.313M39.9473 85.0267C40.8052 85.6497 42.5003 87.7432 42.4179 91.1326C42.3396 94.3538 40.4762 96.0624 38.0944 96.313M39.9473 85.0267C37.065 86.2728 33.668 89.1388 32.6386 91.1326C31.6092 93.1264 32.3298 95.2448 35.7268 96.1171C36.5411 96.3262 37.3435 96.3921 38.0944 96.313" stroke="black" stroke-linecap="round" stroke-linejoin="round"/>
</g>
<g id="Vector 5310">
<path d="M39.9473 85.0266C40.8051 85.6497 42.5002 87.7431 42.4179 91.1326C42.3396 94.3538 40.4762 96.0623 38.0944 96.313C30.271 98.8623 26.6681 96.2477 25.8446 94.6217C27.2865 94.5386 30.5819 94.1232 32.228 93.1264C32.1454 92.4821 32.2938 91.8004 32.6386 91.1326C33.668 89.1388 37.065 86.2727 39.9473 85.0266Z" fill="#7C7C7C"/>
<path d="M38.0944 96.313C40.4762 96.0623 42.3396 94.3538 42.4179 91.1326C42.5002 87.7431 40.8051 85.6497 39.9473 85.0266C37.065 86.2727 33.668 89.1388 32.6386 91.1326C32.2938 91.8004 32.1454 92.4821 32.228 93.1264M38.0944 96.313C37.3435 96.392 36.5411 96.3261 35.7268 96.117C33.4675 95.5369 32.3921 94.4056 32.228 93.1264M38.0944 96.313C30.271 98.8623 26.6681 96.2477 25.8446 94.6217C27.2865 94.5386 30.5819 94.1232 32.228 93.1264" stroke="black" stroke-linecap="round" stroke-linejoin="round"/>
</g>
<path id="Vector 5309" d="M42.4179 91.1326C42.5002 87.7431 40.8051 85.6497 39.9473 85.0266C37.065 86.2727 33.668 89.1388 32.6386 91.1326C31.6092 93.1264 32.3298 95.2447 35.7268 96.117C36.541 96.3261 37.3435 96.392 38.0944 96.313C40.4762 96.0623 42.3396 94.3538 42.4179 91.1326Z" fill="#818181" stroke="black" stroke-linecap="round" stroke-linejoin="round"/>
</g>
<g id="Group 48100738">
<path id="Vector 5311" d="M40.7768 90.2066C38.5533 90.705 38.821 93.488 39.2327 94.8172C39.2327 95.6064 40.118 97.2096 43.6591 97.3093C47.2002 97.409 46.7816 93.9449 46.1297 92.2004C45.2719 91.3281 43.0003 89.7081 40.7768 90.2066Z" fill="#999999" stroke="black" stroke-linecap="round" stroke-linejoin="round"/>
<path id="Vector 5312" d="M40.7768 90.2066C38.5533 90.705 38.821 93.488 39.2327 94.8172C40.5366 95.2326 43.7415 95.2908 46.1297 92.2004C45.2719 91.3281 43.0003 89.7081 40.7768 90.2066Z" fill="#B6B6B6" stroke="black" stroke-linecap="round" stroke-linejoin="round"/>
</g>
<g id="Ellipse 5294">
<circle cx="72.2219" cy="52" r="2.5" fill="#A77148"/>
<circle cx="72.2219" cy="52" r="2.5" fill="#A77148"/>
<circle cx="72.2219" cy="52" r="2.5" stroke="black" stroke-linecap="round"/>
</g>
</g>
</svg>
