<svg width="260" height="891" viewBox="0 0 260 891" fill="none" xmlns="http://www.w3.org/2000/svg"><path fill-rule="evenodd" clip-rule="evenodd" d="M152.5 804a7 7 0 0 1 7 7v36a3 3 0 0 0 3 3h90a7 7 0 1 1 0 14h-90c-9.389 0-17-7.611-17-17v-6H119a7 7 0 1 1 0-14h26.5v-16a7 7 0 0 1 7-7zM91 179a7 7 0 0 1 7-7h128a7 7 0 1 1 0 14H98a7 7 0 0 1-7-7z" fill="#906925" stroke="#000" stroke-linecap="round"/><path d="M213 924s8.634-615.342 7.727-807.709h65.546L293 924h-80z" fill="#906925"/><path d="M231.619 696.67h38.094M252.5 481.5h26m-15.5-14h15.5M231.619 334H257.5m-25.881-12H244m8.5-121h33.773m-65.546-84.709C221.634 308.658 213 924 213 924h80l-6.727-807.709h-65.546z" stroke="#000" stroke-width="2" stroke-linecap="round"/><rect x="208" y="1" width="60" height="60" rx="17" fill="#B2E946" stroke="#000" stroke-width="2" stroke-linejoin="round"/><rect x="209" y="6.834" width="57.477" height="53.167" rx="16" fill="#9ACA3B"/><path d="M244.51 20.347h10.653m-34.326 20.714h10.653" stroke="#7EA82B" stroke-width="6" stroke-linecap="round"/><rect width="174" height="112" rx="30" transform="matrix(1 0 0 -1 181 157)" fill="#527213" stroke="#000" stroke-width="2" stroke-linejoin="round"/><path d="M215 81h18m-33 12h18" stroke="#7EA82B" stroke-width="6" stroke-linecap="round"/><rect x="236" y="481" width="119" height="130" rx="20" fill="#527213" stroke="#000" stroke-width="2" stroke-linejoin="round"/><path d="M259.203 559.868h12.285m-22.522-8.19h12.285" stroke="#7EA82B" stroke-width="6" stroke-linecap="round"/><rect x="46" y="142" width="60" height="60" rx="17" fill="#B2E946" stroke="#000" stroke-width="2" stroke-linejoin="round"/><rect x="47" y="147.834" width="57.477" height="53.167" rx="16" fill="#9ACA3B"/><path d="M82.51 161.347h10.653m-34.326 20.714H69.49" stroke="#7EA82B" stroke-width="6" stroke-linecap="round"/><rect x="118" y="186" width="6" height="13" rx="3" fill="#BC9549"/><mask id="a" maskUnits="userSpaceOnUse" x="64" y="198" width="112" height="99" fill="#000"><path fill="#fff" d="M64 198h112v99H64z"/><path fill-rule="evenodd" clip-rule="evenodd" d="M144.002 199.186h-2.278a3.996 3.996 0 0 0-1.209-.186h-40.503c-.421 0-.827.065-1.209.186h-2.965c-5.444 0-9.857 4.413-9.857 9.857l.001.171c-4.567.86-8.023 4.87-8.023 9.687a9.9 9.9 0 0 0 .237 2.161c-4.983.492-8.876 4.696-8.876 9.809 0 2.109.662 4.063 1.79 5.666a9.86 9.86 0 0 0-6.11 9.12c0 4.618 3.176 8.494 7.462 9.564a9.831 9.831 0 0 0-3.142 7.217c0 5.27 4.135 9.574 9.337 9.844a9.828 9.828 0 0 0-.698 3.651c0 4.818 3.456 8.828 8.023 9.687a9.748 9.748 0 0 0-.001.171c0 5.444 4.413 9.858 9.857 9.858h48.164c5.444 0 9.857-4.414 9.857-9.858l-.001-.139v-.032c4.568-.859 8.024-4.869 8.024-9.687a9.82 9.82 0 0 0-.699-3.651c5.203-.271 9.337-4.574 9.337-9.844a9.832 9.832 0 0 0-3.142-7.217c4.286-1.07 7.462-4.946 7.462-9.564a9.86 9.86 0 0 0-6.11-9.12 9.811 9.811 0 0 0 1.79-5.666c0-5.113-3.892-9.317-8.876-9.809a9.87 9.87 0 0 0 .238-2.161c0-4.817-3.456-8.828-8.024-9.687l.001-.171c0-5.444-4.413-9.857-9.857-9.857z"/></mask><path fill-rule="evenodd" clip-rule="evenodd" d="M144.002 199.186h-2.278a3.996 3.996 0 0 0-1.209-.186h-40.503c-.421 0-.827.065-1.209.186h-2.965c-5.444 0-9.857 4.413-9.857 9.857l.001.171c-4.567.86-8.023 4.87-8.023 9.687a9.9 9.9 0 0 0 .237 2.161c-4.983.492-8.876 4.696-8.876 9.809 0 2.109.662 4.063 1.79 5.666a9.86 9.86 0 0 0-6.11 9.12c0 4.618 3.176 8.494 7.462 9.564a9.831 9.831 0 0 0-3.142 7.217c0 5.27 4.135 9.574 9.337 9.844a9.828 9.828 0 0 0-.698 3.651c0 4.818 3.456 8.828 8.023 9.687a9.748 9.748 0 0 0-.001.171c0 5.444 4.413 9.858 9.857 9.858h48.164c5.444 0 9.857-4.414 9.857-9.858l-.001-.139v-.032c4.568-.859 8.024-4.869 8.024-9.687a9.82 9.82 0 0 0-.699-3.651c5.203-.271 9.337-4.574 9.337-9.844a9.832 9.832 0 0 0-3.142-7.217c4.286-1.07 7.462-4.946 7.462-9.564a9.86 9.86 0 0 0-6.11-9.12 9.811 9.811 0 0 0 1.79-5.666c0-5.113-3.892-9.317-8.876-9.809a9.87 9.87 0 0 0 .238-2.161c0-4.817-3.456-8.828-8.024-9.687l.001-.171c0-5.444-4.413-9.857-9.857-9.857z" fill="#000"/><path d="m141.724 199.186-.302.953.147.047h.155v-1zm-42.92 0v1h.154l.147-.047-.302-.953zm-12.822 10.028.185.983.83-.156-.015-.844-1 .017zm-7.785 11.848.098.995 1.124-.111-.247-1.103-.975.219zm-7.087 15.475.38.925 1.158-.477-.72-1.024-.818.576zm1.352 18.684.682.732 1.349-1.256-1.789-.446-.242.97zm6.195 17.061.93.37.517-1.296-1.395-.073-.052.999zm7.325 13.338 1 .017.014-.843-.829-.156-.185.982zm67.876.032 1-.014v-.002l-1 .016zm0-.032-.185-.982-.828.155.013.843 1-.016zm7.325-13.338-.052-.999-1.394.073.517 1.296.929-.37zm6.195-17.061-.242-.97-1.789.446 1.349 1.256.682-.732zm1.352-18.684-.817-.576-.721 1.024 1.158.477.38-.925zm-7.086-15.475-.976-.218-.246 1.102 1.124.111.098-.995zm-7.786-11.848-1-.017-.014.844.829.156.185-.983zm-12.134-9.028h2.278v-2h-2.278v2zm-1.209-.186c.318 0 .622.049.907.139l.603-1.907a4.999 4.999 0 0 0-1.51-.232v2zm-40.503 0h40.503v-2h-40.503v2zm-.907.139c.285-.09.59-.139.907-.139v-2c-.525 0-1.033.081-1.51.232l.603 1.907zm-3.267.047h2.965v-2h-2.965v2zm-8.857 8.857a8.857 8.857 0 0 1 8.857-8.857v-2c-5.996 0-10.857 4.861-10.857 10.857h2zm.001.154a9.78 9.78 0 0 1-.001-.154h-2l.001.188 2-.034zm-8.023 9.704a8.86 8.86 0 0 1 7.208-8.704l-.37-1.966c-5.031.947-8.838 5.363-8.838 10.67h2zm.213 1.942a8.888 8.888 0 0 1-.213-1.942h-2c0 .816.09 1.612.262 2.379l1.951-.437zm-8.852 10.028a8.858 8.858 0 0 1 7.975-8.814l-.197-1.99c-5.49.542-9.778 5.171-9.778 10.804h2zm1.608 5.09a8.812 8.812 0 0 1-1.608-5.09h-2c0 2.321.73 4.475 1.972 6.241l1.635-1.151zM66 245.657a8.86 8.86 0 0 1 5.49-8.195l-.76-1.85c-3.948 1.624-6.73 5.508-6.73 10.045h2zm6.704 8.594A8.861 8.861 0 0 1 66 245.657h-2c0 5.088 3.499 9.356 8.22 10.534l.484-1.94zm-2.384 8.187a8.832 8.832 0 0 1 2.824-6.485l-1.363-1.464a10.83 10.83 0 0 0-3.461 7.949h2zm8.39 8.845a8.858 8.858 0 0 1-8.39-8.845h-2c0 5.805 4.554 10.545 10.286 10.843l.103-1.998zm.249 4.65c0-1.161.223-2.267.627-3.281l-1.857-.741a10.831 10.831 0 0 0-.77 4.022h2zm7.208 8.705a8.862 8.862 0 0 1-7.208-8.705h-2c0 5.307 3.807 9.723 8.838 10.67l.37-1.965zm.814 1.153.001-.154-2-.034-.001.188h2zm8.857 8.858a8.858 8.858 0 0 1-8.857-8.858h-2c0 5.997 4.86 10.858 10.857 10.858v-2zm48.164 0H95.838v2h48.164v-2zm8.857-8.858a8.857 8.857 0 0 1-8.857 8.858v2c5.996 0 10.857-4.861 10.857-10.858h-2zm0-.125v.125h2l-.001-.153-1.999.028zm-.001-.03.001.031 1.999-.031v-.031l-2 .031zm8.024-9.703a8.861 8.861 0 0 1-7.209 8.705l.37 1.965c5.032-.946 8.839-5.362 8.839-10.67h-2zm-.628-3.281a8.822 8.822 0 0 1 .628 3.281h2c0-1.419-.273-2.777-.77-4.022l-1.858.741zm9.266-10.214a8.857 8.857 0 0 1-8.389 8.845l.104 1.998c5.731-.298 10.285-5.039 10.285-10.843h-2zm-2.824-6.485a8.83 8.83 0 0 1 2.824 6.485h2c0-3.139-1.333-5.968-3.461-7.949l-1.363 1.464zm7.144-10.296a8.862 8.862 0 0 1-6.704 8.594l.484 1.94c4.721-1.178 8.22-5.446 8.22-10.534h-2zm-5.49-8.195a8.86 8.86 0 0 1 5.49 8.195h2c0-4.537-2.782-8.421-6.729-10.045l-.761 1.85zm1.17-6.591a8.81 8.81 0 0 1-1.607 5.09l1.635 1.151a10.809 10.809 0 0 0 1.972-6.241h-2zm-7.974-8.814a8.857 8.857 0 0 1 7.974 8.814h2c0-5.632-4.287-10.262-9.778-10.804l-.196 1.99zm-.664-3.156c0 .669-.074 1.318-.214 1.943l1.952.436c.171-.766.262-1.563.262-2.379h-2zm-7.209-8.704a8.86 8.86 0 0 1 7.209 8.704h2c0-5.307-3.807-9.723-8.839-10.67l-.37 1.966zm-.814-1.154-.001.154 2 .034.001-.188h-2zm-8.857-8.857a8.856 8.856 0 0 1 8.857 8.857h2c0-5.996-4.861-10.857-10.857-10.857v2z" fill="#000" mask="url(#a)"/><rect x="86.481" y="276.434" width="66.879" height="18.715" rx="9.357" fill="#EA9A2C" stroke="#000"/><rect x="78.459" y="266.576" width="82.923" height="18.715" rx="9.357" fill="#EA9A2C" stroke="#000"/><rect x="69.82" y="253.081" width="100.201" height="18.715" rx="9.357" fill="#EA9A2C" stroke="#000"/><rect x=".5" y="-.5" width="66.879" height="18.715" rx="9.357" transform="matrix(1 0 0 -1 85.98 217.901)" fill="#EA9A2C" stroke="#000"/><rect x=".5" y="-.5" width="82.923" height="18.715" rx="9.357" transform="matrix(1 0 0 -1 77.959 227.759)" fill="#EA9A2C" stroke="#000"/><rect x=".5" y="-.5" width="100.201" height="18.715" rx="9.357" transform="matrix(1 0 0 -1 69.32 239.728)" fill="#EA9A2C" stroke="#000"/><rect x="65.5" y="236.299" width="108.84" height="18.715" rx="9.357" fill="#EA9A2C" stroke="#000"/><path d="M78.043 242.664h76.888M82.85 260.971h67.276M82.85 228.172h67.276" stroke="#EBF479" stroke-width="6" stroke-linecap="round"/><path d="M100.012 203h40.503" stroke="#EBF479" stroke-width="4" stroke-linecap="round"/><path d="M95.206 214.442h49.428m-49.428 61.785h49.428" stroke="#EBF479" stroke-width="6" stroke-linecap="round"/><ellipse cx="165.229" cy="242.665" rx="3.433" ry="3.814" fill="#EBF479"/><ellipse cx="159.737" cy="260.972" rx="3.433" ry="3.814" fill="#EBF479"/><ellipse cx="159.737" cy="228.172" rx="3.433" ry="3.814" fill="#EBF479"/><ellipse cx="152.529" cy="214.824" rx="3.089" ry="3.433" fill="#EBF479"/><ellipse cx="152.529" cy="276.609" rx="3.089" ry="3.433" fill="#EBF479"/><rect x="86" y="676" width="131" height="131" rx="31" fill="#B2E946" stroke="#000" stroke-width="2" stroke-linejoin="round"/><rect x="87" y="687.75" width="127.838" height="118.25" rx="30" fill="#9ACA3B"/><path d="M133 731h18m-33-12h18" stroke="#7EA82B" stroke-width="6" stroke-linecap="round"/><rect x="30" y="780" width="100" height="100" rx="31" fill="#B2E946" stroke="#000" stroke-width="2" stroke-linejoin="round"/><rect x="31" y="789.167" width="97.117" height="89.833" rx="30" fill="#9ACA3B"/><path d="M91 812h18m-58 35h18" stroke="#7EA82B" stroke-width="6" stroke-linecap="round"/><rect x="149" y="718" width="174" height="112" rx="30" fill="#527213" stroke="#000" stroke-width="2" stroke-linejoin="round"/><path d="M183 794h18m-33-12h18" stroke="#7EA82B" stroke-width="6" stroke-linecap="round"/><path d="M108.938 521.5c6.399-39.6 31.666-37.833 41.999-44.5 14.667 4.333 40.6 16.6 27.001 31-17 18-27.001 61-40.5 61-13.5 0-25.501-1-38.5 0-13 1-8.5-7 2.499-13.5 8.8-5.2 7.667-33.167 7.501-34z" fill="#725D41" stroke="#000" stroke-linecap="round" stroke-linejoin="round"/><path d="M111.018 432.5c16.8 0 45.666-28.333 58-42.5l4 50c-13.5 7.5-46.383 27.007-62 20.5-18-7.5-59.5-19.5-45-28 8.5-4.983 24 0 45 0z" fill="#725D41"/><path d="M169.018 390c-12.334 14.167-41.2 42.5-58 42.5-21 0-36.5-4.983-45 0-14.5 8.5 27 20.5 45 28 15.617 6.507 48.5-13 62-20.5" stroke="#000" stroke-linecap="round" stroke-linejoin="round"/><rect x="45" y="439" width="86" height="86" rx="31" fill="#B2E946" stroke="#000" stroke-width="2" stroke-linejoin="round"/><rect x="46" y="447" width="83.243" height="77" rx="30" fill="#9ACA3B"/><path d="M72.571 476H88m-6.857 15.429H96.57" stroke="#7EA82B" stroke-width="6" stroke-linecap="round"/><path fill-rule="evenodd" clip-rule="evenodd" d="M94.5 514.366a7 7 0 0 1 7 7V537a3 3 0 0 0 3 3H226a7 7 0 1 1 0 14H104.5c-9.389 0-17-7.612-17-17v-15.634a7 7 0 0 1 7-7z" fill="#906925" stroke="#000" stroke-linecap="round"/><path d="M139 246c-18.667 14.167-61.4 42.9-83 44.5-21.6 1.6-9-15.667 0-24.5" stroke="#000" stroke-linecap="round" stroke-linejoin="round" stroke-dasharray="2 2"/><path d="M55.909 243.55c-3.178.648-3.213 3.928-2.755 6.177l1.658.068s1.366-.685 2.08-1.427c2.154-2.242.944-5.211-.983-4.818z" fill="#fff" stroke="#000" stroke-linecap="round"/><path d="M49.104 254.472c-.315-1.542.44-2.766.856-3.185 2.89-.59 5.584-2.142 6.351-3.302.767-1.16 4.818-.983 5.024 2.488.206 3.47-3.836 5.8-7.69 6.586-3.083.628-3.667-.758-4.345-1.624l-1.543-.186 1.347-.777z" fill="#FEEF48" stroke="#000" stroke-linecap="round"/><path d="M49.104 254.472c-.315-1.541.374-3.087 1.819-3.382 0 0-.833.838-.374 3.087.694 3.407 3.096 2.882 3.096 2.882s-3.274 1.169-4.345-1.623l-1.543-.187 1.347-.777z" fill="#000"/><path d="M52.368 250.796c.134 1.478.287 4.357 2.143 5.584m.575-7.142c.134 1.478 1.562 5.201 3.895 5.227" stroke="#000" stroke-linecap="round"/><path d="M49.896 245.373c2.926-1.399 4.575 2.747 5.033 4.995l-1.499.713s-1.525-.096-2.472-.5c-2.86-1.219-4.72-3.458-1.062-5.208z" fill="#fff" stroke="#000" stroke-linecap="round"/><path d="M56.92 249.366c-.452-.577-1.107-1.983-.107-2.989m2.487 1.5c-.105-.514-.137-1.658.57-2.124" stroke="#000" stroke-linecap="round"/><path d="M198.565 333.19c-3.677-.911-7.455 1.533-9.482 3.958-.674.806-.352 1.975.57 2.48 13.893 7.612 14.3-5.103 8.912-6.438z" fill="#725D41" stroke="#000"/><path d="M208.899 339.117c-3.242-3.644-9.352-2.104-13.197-.35-1.004.458-1.331 1.698-.723 2.619 9.207 13.956 18.504 2.883 13.92-2.269z" fill="#725D41" stroke="#000"/><path d="M162.892 326.788c-5.426-.408-14.66-7.197-18.598-10.541-13.733 8.711-1.219 27.026 7.855 37.54 4.074 4.72 0 29.408 0 29.408C118.956 467.5 122 478 131 504c-34.5 32-1.044 63.195-12.044 63.695s-18.5 6-2.5 12 29 29 41.5 2.5 45.5-31 65.5-39c51.5-20.602-16.194-155.992-16-169.5.401-27.931-4.965-27.063-17.186-37.438-19.44-16.503-20.597-8.959-27.378-9.469z" fill="#725D41"/><path d="M131 504c-9-26-12.044-36.5 21.149-120.805 0 0 4.074-24.688 0-29.408-9.074-10.514-21.588-28.829-7.855-37.54 3.938 3.344 13.172 10.133 18.598 10.541 6.781.51 7.938-7.034 27.378 9.469 12.221 10.375 17.587 9.507 17.186 37.438-.194 13.508 67.5 148.898 16 169.5-20 8-53 12.5-65.5 39s-25.5 3.5-41.5-2.5-8.5-11.5 2.5-12S96.5 536 131 504zm0 0c2.602-1.833 17-9.5 21.149-14.5" stroke="#000" stroke-linecap="round" stroke-linejoin="round"/><path d="M161.807 366.12c2.51 1.477 9.832 2.839 10.224 1.316.391-1.523-1.126-3.211-3.809-3.278-2.827-.07-7.051-.883-8.774-2.694-.259.936-.15 3.179 2.359 4.656z" fill="#4B565C" stroke="#000"/><path d="M169.447 366.171c-1.726-1.363 1.249-2.44 2.626-2.498l4.287 4.507c-1.367-.309-5.187-.646-6.913-2.009z" fill="#4B565C" stroke="#000"/><path d="M170.937 356.168c4.667-1.864 12.406-8.583 15.692-11.709-15.436-16.225-12.268-22.673-8.755-23.869 7.017-2.025 24.234-1.376 36.966 17.422 15.914 23.496-18.122 42.998-26.285 39.495-8.162-3.504-23.451-19.01-17.618-21.339z" fill="#FFD152" stroke="#000"/><path d="M196.132 349.37c1.154-2.171-.509-1.662-12.259-15.705-5.112-6.728-6.12-11.886-5.986-13.624-3.479-3.845-10.315-9.827-9.825-2.995.612 8.54 11.854 20.92 17.227 26.004 5.373 5.084 9.688 8.492 10.843 6.32z" fill="#fff" stroke="#000"/><path d="M184.995 324.074c1.809-.76 5.824-1.053 11.048 1.715m1.63 1.159 1.631 1.158" stroke="#000" stroke-linecap="round"/><path d="M208.565 339.213c-2.334-4.07-8.249-3.989-12.365-3.15-1.252.256-1.791 1.68-1.038 2.713 7.391 10.148 16.754 6.279 13.403.437zm41.987 183.504c1.825 6.196-7.134 7.512-12.859 7.305-1.339-.049-2.092-1.454-1.514-2.662l2.929-6.119c.122-.255.294-.481.515-.656 2.983-2.36 8.859-4.899 10.929 2.132z" fill="#725D41" stroke="#000"/><ellipse cx="168" cy="332" rx="3" ry="2" fill="#000"/><path d="M160.611 326.331c-4.908-1.487-11.432-6.115-15.184-9.146-.682-.55-1.649-.624-2.35-.098-7.972 5.982-5.34 14.74-.106 24.101.286.511.783.874 1.365.939 5.081.559 14.247-1.431 17.941-13.083.37-1.169-.492-2.357-1.666-2.713z" fill="#B5966E" stroke="#000"/><path d="M144 340.951c2.166 1 7.7 2.4 12.5 0" stroke="#000" stroke-linecap="round"/><path d="M153 335.918c-1.2 2.8-3.5 5.354-5 6.021.539.135 2.302.636 5.5.012.753-.146 1.085-.271 2-.5 6-1.5-1-9.033-2.5-5.533z" fill="#FF7B91"/><path d="M153.5 341.951c.753-.146 1.085-.271 2-.5 6-1.5-1-9.033-2.5-5.533-1.2 2.8-3.5 5.354-5 6.021.539.135 2.302.636 5.5.012zm0 0c.666-.693 2-2.833 2-4.033" stroke="#000" stroke-linecap="round" stroke-linejoin="round"/><path d="M140.941 316.287c-1.072 1.263-.576 3.446 1.108 4.876 1.684 1.429 2.013-.053 3.085-1.316 1.073-1.264 2.482-1.829.798-3.258-1.684-1.43-3.918-1.565-4.991-.302z" fill="#000"/><path d="M122.5 313.551c9.6 17.2 44 51.782 56.5 65.449 17.5 27.449-2.5 54.5-18.5 50.5-20-5-52-96.949-55.5-108.949s-17-7-17-15.5 22.5-13 34.5 8.5z" fill="#725D41"/><path d="M179 379c-12.5-13.667-46.9-48.249-56.5-65.449-12-21.5-34.5-17-34.5-8.5s13.5 3.5 17 15.5S140.5 424.5 160.5 429.5" stroke="#000" stroke-linecap="round" stroke-linejoin="round"/></svg>