<svg width="129" height="115" viewBox="0 0 129 115" fill="none" xmlns="http://www.w3.org/2000/svg">
<path d="M58.2356 105.689C57.6833 107.611 57.6835 107.611 57.6837 107.611L57.6844 107.611L57.6867 107.612L57.6949 107.614L57.7255 107.623L57.8421 107.656C57.8968 107.671 57.9653 107.691 58.0466 107.713C58.1162 107.733 58.1953 107.755 58.2833 107.779C58.665 107.885 59.2157 108.036 59.8963 108.217C61.2564 108.578 63.1395 109.06 65.2305 109.543C69.3446 110.493 74.4929 111.5 78 111.5C78.358 111.5 78.7094 111.404 79.0176 111.222C83.2934 108.695 88.3614 106.081 92.7277 103.83C93.1495 103.612 93.5648 103.398 93.9721 103.188C96.2665 102.003 98.3263 100.93 99.8585 100.063C100.621 99.6316 101.293 99.2291 101.812 98.8737C102.07 98.6971 102.326 98.5083 102.548 98.3132C102.725 98.1573 103.065 97.8426 103.289 97.3944C106.408 91.1563 107.595 86.3949 108.64 79.9497C109.999 71.5715 110.389 63.2196 110.248 58.1074C112.925 56.9218 116.247 55.3481 119.167 52.2774C122.6 48.6657 125.326 43.177 126.402 34.2658C127.495 25.2109 125.341 18.6614 122.017 14.1713C118.733 9.73433 114.394 7.42949 111.259 6.67415C111.129 6.64279 110.996 6.62458 110.863 6.61978L56.3609 4.66535C55.4105 4.63127 54.5676 5.27107 54.3448 6.19557L44.8884 45.4414L20.0711 52.294C19.3982 52.4798 18.8709 53.0031 18.6798 53.6745C18.4851 54.3587 18.394 55.2383 18.3473 56.145C18.2988 57.0891 18.2928 58.2065 18.318 59.436C18.3684 61.8971 18.5459 64.8994 18.7878 68.0402C19.1749 73.0663 19.7316 78.508 20.2169 82.7731C16.9217 82.3491 12.3586 83.1194 8.15632 87.3388C2.43078 93.0877 2.26359 99.5016 3.1153 102.352C3.22008 102.703 3.41909 103.018 3.69066 103.264L10.179 109.127C10.3699 109.299 10.5923 109.433 10.834 109.522C14.2364 110.764 17.4916 110.357 20.1021 109.409C21.9567 108.735 23.5428 107.77 24.7209 106.847C25.513 107.235 26.5043 107.614 27.6724 107.94C29.7994 108.535 32.6308 108.992 36.1754 108.992C42.1546 108.992 45.7814 106.499 47.4944 104.166C50.8779 105.227 53.2921 106.038 54.8998 106.6C55.8197 106.921 56.4753 107.16 56.897 107.318C57.1078 107.397 57.2601 107.455 57.3577 107.493C57.4065 107.511 57.4417 107.525 57.4636 107.534L57.4866 107.543L57.4902 107.544C57.4903 107.545 57.4905 107.545 57.4906 107.545M58.2356 105.689C57.4902 107.544 57.4904 107.545 57.4906 107.545M58.2356 105.689L57.6833 107.611C57.6181 107.592 57.5539 107.57 57.491 107.545C57.491 107.545 57.4909 107.545 57.4908 107.545C57.4908 107.545 57.4907 107.545 57.4906 107.545M58.2356 105.689L57.4906 107.545" fill="white" stroke="white" stroke-width="4" stroke-linejoin="round"/>
<path fill-rule="evenodd" clip-rule="evenodd" d="M21.7288 54.8369L75.8896 65.902V108.16L75.0959 107.952C67.5153 105.962 56.0016 102.863 46.0971 100.034C41.1456 98.6197 36.5912 97.2713 33.1301 96.1617C31.4003 95.6072 29.9368 95.1101 28.8306 94.6928C28.278 94.4843 27.8075 94.293 27.4343 94.1221C27.0761 93.958 26.7597 93.7916 26.5518 93.6253C26.3011 93.4247 26.1114 93.1253 25.9603 92.8196C25.8027 92.5008 25.6562 92.1103 25.5181 91.6671C25.2417 90.7796 24.981 89.6203 24.7349 88.2678C24.242 85.5591 23.796 82.009 23.4047 78.1623C22.6217 70.4654 22.0527 61.5304 21.7682 55.6508L21.7288 54.8369ZM23.0729 56.4036C23.3683 62.2591 23.9195 70.7136 24.6642 78.0342C25.0543 81.8697 25.4964 85.3813 25.9804 88.0411C26.2227 89.3728 26.4726 90.4745 26.7268 91.2906C26.854 91.6991 26.9778 92.0211 27.0952 92.2586C27.2191 92.5092 27.3092 92.61 27.3426 92.6367C27.4189 92.6977 27.6102 92.8102 27.9615 92.9711C28.2978 93.1252 28.7386 93.305 29.2775 93.5083C30.3545 93.9146 31.7948 94.4042 33.5166 94.9562C36.9585 96.0596 41.4977 97.4037 46.4448 98.8168C55.9982 101.546 67.0542 104.527 74.6237 106.519V66.9355L23.0729 56.4036Z" fill="black"/>
<path d="M26.9471 93.1309C24.7738 91.3923 23.1199 69.4323 22.4819 57.2401C22.4388 56.4151 23.1875 55.7809 23.9969 55.9463L74.2439 66.2118C74.8332 66.3322 75.2565 66.8507 75.2565 67.4521V105.698C75.2565 106.528 74.4746 107.134 73.6723 106.923C58.0517 102.802 29.1438 94.8884 26.9471 93.1309Z" fill="#885F0F"/>
<path fill-rule="evenodd" clip-rule="evenodd" d="M22.8799 79.2391C22.1118 71.977 21.5374 63.4145 21.2178 57.3066C21.1306 55.6399 22.6439 54.378 24.2504 54.7062L74.4974 64.9718C75.6761 65.2126 76.5225 66.2495 76.5225 67.4524V105.699C76.5225 107.353 74.96 108.572 73.3495 108.147C65.5344 106.085 54.3927 103.074 44.9266 100.358C40.1951 98.9998 35.872 97.7126 32.5892 96.6528C30.9493 96.1235 29.5553 95.6464 28.4944 95.2425C27.9648 95.0409 27.5041 94.8521 27.1309 94.6795C26.7857 94.5198 26.4225 94.3327 26.1563 94.1198C25.8108 93.8434 25.5781 93.4659 25.417 93.1487C25.2442 92.8082 25.0911 92.4088 24.9524 91.9778C24.6745 91.1144 24.4177 90.0077 24.1783 88.7391C23.6982 86.1951 23.2636 82.8664 22.8799 79.2391ZM22.482 57.2404C23.12 69.4326 24.7739 91.3926 26.9471 93.1312C29.1439 94.8887 58.0518 102.802 73.6724 106.923C74.4747 107.135 75.2566 106.528 75.2566 105.699V67.4524C75.2566 66.8509 74.8333 66.3325 74.244 66.2121L23.997 55.9466C23.1876 55.7812 22.4389 56.4154 22.482 57.2404Z" fill="black"/>
<path opacity="0.3" fill-rule="evenodd" clip-rule="evenodd" d="M29.7744 58.9655C30.1239 58.9577 30.4135 59.2348 30.4213 59.5843C30.5159 63.839 30.7713 70.7063 31.2299 77.4726C31.6896 84.2547 32.3505 90.8835 33.2464 94.6908C33.3264 95.0311 33.1155 95.3719 32.7752 95.4519C32.4349 95.532 32.0941 95.321 32.0141 94.9808C31.0912 91.0586 30.426 84.3312 29.9668 77.5582C29.5067 70.7695 29.2506 63.8828 29.1557 59.6124C29.1479 59.2629 29.4249 58.9733 29.7744 58.9655Z" fill="#553322"/>
<path opacity="0.3" fill-rule="evenodd" clip-rule="evenodd" d="M44.5655 60.6069C45.2647 60.6069 45.8315 61.1737 45.8315 61.8729C45.8315 64.4303 45.8316 72.9458 45.9737 81.1748C46.0448 85.2908 46.1512 89.3241 46.3101 92.5003C46.3897 94.0899 46.4817 95.4509 46.5874 96.4944C46.6403 97.0167 46.6953 97.4459 46.7513 97.7775C46.8112 98.132 46.8604 98.2998 46.8786 98.3451C47.1383 98.9942 46.8226 99.731 46.1735 99.9908C45.5244 100.25 44.7876 99.9348 44.5278 99.2857C44.4038 98.9758 44.3198 98.5841 44.2548 98.1993C44.1859 97.7916 44.1243 97.3017 44.0684 96.7495C43.9564 95.6439 43.8618 94.2342 43.7814 92.6268C43.6204 89.4092 43.5134 85.3435 43.4422 81.2185C43.2997 72.9655 43.2995 64.4306 43.2995 61.8729C43.2995 61.1737 43.8663 60.6069 44.5655 60.6069Z" fill="#553322"/>
<path opacity="0.3" fill-rule="evenodd" clip-rule="evenodd" d="M50.249 81.1316C50.5986 81.1316 50.882 81.415 50.882 81.7646C50.882 83.0236 50.8822 87.211 51.024 91.2562C51.0949 93.2802 51.2009 95.2576 51.3586 96.8107C51.4376 97.5886 51.5283 98.2466 51.6308 98.7453C51.6821 98.995 51.734 99.1928 51.7845 99.3402C51.8096 99.4134 51.8323 99.4678 51.8511 99.5064C51.8681 99.5411 51.878 99.5546 51.8779 99.5546C51.8779 99.5546 51.8777 99.5543 51.8772 99.5537C52.0975 99.825 52.0562 100.224 51.7848 100.444C51.5134 100.664 51.1148 100.623 50.8944 100.352C50.7528 100.177 50.6573 99.9557 50.587 99.7509C50.5128 99.5343 50.4482 99.2796 50.3907 99.0002C50.2758 98.4409 50.18 97.7347 50.0991 96.9386C49.9372 95.3438 49.83 93.3338 49.7588 91.3005C49.6162 87.231 49.616 83.0239 49.616 81.7646C49.616 81.415 49.8994 81.1316 50.249 81.1316Z" fill="#553322"/>
<path opacity="0.3" fill-rule="evenodd" clip-rule="evenodd" d="M57.069 68.0591C57.4186 68.0591 57.702 68.3425 57.702 68.6921C57.702 69.9627 57.5595 75.3754 57.4176 80.4533C57.3465 82.996 57.2754 85.46 57.2221 87.2883C57.1955 88.2024 57.1733 88.9576 57.1578 89.4843L57.1334 90.3084C57.1333 90.3085 57.1333 90.3093 56.6196 90.294L57.1334 90.3084C57.1229 90.6578 56.8312 90.9335 56.4818 90.9231C56.1324 90.9127 55.8575 90.621 55.8679 90.2716L56.38 90.2868C55.8679 90.2716 55.8679 90.2717 55.8679 90.2716L55.8923 89.447C55.9079 88.9204 55.9301 88.1653 55.9567 87.2514C56.01 85.4234 56.081 82.96 56.1521 80.4179C56.2944 75.3263 56.436 69.9397 56.436 68.6921C56.436 68.3425 56.7194 68.0591 57.069 68.0591Z" fill="#553322"/>
<path opacity="0.3" fill-rule="evenodd" clip-rule="evenodd" d="M25.8101 60.1018C26.1597 60.1018 26.4431 60.3852 26.4431 60.7348C26.4431 61.9544 27.0061 68.1602 27.577 74.1232C27.8611 77.0909 28.1452 79.9801 28.3583 82.1275C28.4648 83.2011 28.5536 84.0893 28.6158 84.709L28.7133 85.6787C28.7133 85.6789 28.7134 85.6797 28.1956 85.7321L28.7133 85.6787C28.7485 86.0266 28.4951 86.338 28.1473 86.3732C27.7995 86.4083 27.489 86.1549 27.4539 85.8071L27.9756 85.7543C27.4539 85.8071 27.4539 85.8072 27.4539 85.8071L27.3561 84.8353C27.2939 84.2152 27.2051 83.3266 27.0985 82.2525C26.8853 80.1042 26.6011 77.2135 26.3168 74.2438C25.7508 68.332 25.1771 62.0335 25.1771 60.7348C25.1771 60.3852 25.4605 60.1018 25.8101 60.1018Z" fill="#553322"/>
<path opacity="0.3" fill-rule="evenodd" clip-rule="evenodd" d="M32.6298 68.6279C32.9794 68.6279 33.2628 68.9113 33.2628 69.2609C33.2628 70.4856 33.6851 75.8462 34.1131 80.9516C34.3262 83.493 34.5392 85.9559 34.6991 87.7835C34.779 88.6973 34.8455 89.4522 34.8922 89.9787L34.9653 90.8021C34.9653 90.8022 34.9654 90.8029 34.335 90.8593L34.9653 90.8021C34.9964 91.1503 34.7394 91.4586 34.3913 91.4897C34.0431 91.5209 33.7356 91.2638 33.7044 90.9156L34.335 90.8593C33.7045 90.9156 33.7045 90.9158 33.7044 90.9156L33.6311 90.0903C33.5845 89.5635 33.5179 88.8081 33.4379 87.8938C33.278 86.0653 33.0648 83.6008 32.8516 81.0574C32.427 75.9932 31.9968 70.5545 31.9968 69.2609C31.9968 68.9113 32.2802 68.6279 32.6298 68.6279Z" fill="#553322"/>
<path opacity="0.3" fill-rule="evenodd" clip-rule="evenodd" d="M60.4798 63.4473C61.179 63.4472 61.7458 64.014 61.7458 64.7132L61.7452 102.222C61.7452 102.223 61.7452 102.224 60.4793 102.224C59.2133 102.224 59.2133 102.224 59.2133 102.224L59.2139 64.7133C59.2139 64.0141 59.7806 63.4473 60.4798 63.4473ZM60.4793 103.49C59.7801 103.49 59.2133 102.923 59.2133 102.224L60.4793 102.224L61.7452 102.224C61.7452 102.923 61.1784 103.49 60.4793 103.49Z" fill="#553322"/>
<path d="M56.6674 12.1616C55.2465 19.4002 50.4488 38.8553 48.6577 46.0641C48.2931 47.5315 49.2893 48.9746 50.7882 49.1734L101.18 55.8578C102.56 56.0408 103.829 55.0757 104.021 53.697L109.537 14.0779C109.745 12.5879 108.615 11.2467 107.111 11.1981L59.6829 9.6681C58.2533 9.62199 56.943 10.758 56.6674 12.1616Z" fill="#553322"/>
<path fill-rule="evenodd" clip-rule="evenodd" d="M59.6625 10.3007C58.5711 10.2655 57.5099 11.1559 57.2886 12.2834C55.8638 19.5416 51.0611 39.0163 49.272 46.2167C48.9997 47.3126 49.7416 48.396 50.8714 48.5458L101.263 55.2302C102.298 55.3675 103.25 54.6436 103.394 53.6097L108.91 13.9906C109.066 12.873 108.218 11.8671 107.091 11.8307L59.6625 10.3007ZM56.0463 12.0396C56.376 10.36 57.9355 8.97837 59.7033 9.0354L107.131 10.5654C109.011 10.6261 110.423 12.3026 110.164 14.1651L104.648 53.7843C104.408 55.5076 102.822 56.714 101.097 56.4852L50.705 49.8008C48.8371 49.553 47.5865 47.7502 48.0434 45.9114C49.8366 38.6943 54.6292 19.2587 56.0463 12.0396Z" fill="black"/>
<path fill-rule="evenodd" clip-rule="evenodd" d="M68.3725 20.9212C68.3894 20.5721 68.6862 20.3027 69.0353 20.3196L104.273 22.0246C104.622 22.0415 104.891 22.3383 104.874 22.6875C104.858 23.0366 104.561 23.306 104.212 23.2891L68.9741 21.5841C68.625 21.5672 68.3556 21.2704 68.3725 20.9212Z" fill="#1D130E"/>
<path fill-rule="evenodd" clip-rule="evenodd" d="M63.2621 40.7574C63.31 40.4111 63.6296 40.1693 63.9759 40.2172L100.918 45.3324C101.265 45.3803 101.507 45.6999 101.459 46.0462C101.411 46.3924 101.091 46.6343 100.745 46.5863L63.8023 41.4712C63.456 41.4233 63.2142 41.1037 63.2621 40.7574Z" fill="#1D130E"/>
<path fill-rule="evenodd" clip-rule="evenodd" d="M68.3755 31.6792C68.4148 31.3318 68.7282 31.082 69.0755 31.1212L104.313 35.0997C104.66 35.1389 104.91 35.4523 104.871 35.7997C104.832 36.147 104.518 36.3968 104.171 36.3576L68.9335 32.3792C68.5861 32.34 68.3363 32.0266 68.3755 31.6792Z" fill="#1D130E"/>
<path d="M21.8321 55.0515L47.976 48.8003L104.242 56.1885L75.825 65.8502L21.8321 55.0515Z" fill="#595959"/>
<path fill-rule="evenodd" clip-rule="evenodd" d="M47.9425 48.1575L104.325 55.5609L104.446 56.7878L75.8677 66.5043L21.708 55.6722L21.6849 54.4359L47.9425 48.1575ZM48.0095 49.4431L24.7843 54.9965L75.7823 65.1962L101.469 56.4628L48.0095 49.4431Z" fill="black"/>
<path d="M21.8321 55.6197L47.976 49.3684L104.242 56.7566L75.825 66.4183L21.8321 55.6197Z" fill="#241403"/>
<path fill-rule="evenodd" clip-rule="evenodd" d="M47.9425 48.7253L104.325 56.1288L104.446 57.3557L75.8677 67.0721L21.708 56.2401L21.6849 55.0038L47.9425 48.7253ZM48.0095 50.011L24.7843 55.5643L75.7823 65.764L101.469 57.0307L48.0095 50.011Z" fill="black"/>
<path d="M99.1278 94.8366C103.466 85.6185 105.217 70.5372 104.875 58.9708C104.85 58.139 104.033 57.5747 103.241 57.8283L77.2735 66.1376C76.7492 66.3054 76.3934 66.7928 76.3934 67.3434V105.366C76.3934 106.289 77.3383 106.904 78.1737 106.511C83.3519 104.081 98.107 97.0057 99.1278 94.8366Z" fill="#DDAA44"/>
<path fill-rule="evenodd" clip-rule="evenodd" d="M106.14 58.9332C106.485 70.5836 104.734 85.8961 100.273 95.3755C100.124 95.6927 99.8982 95.9636 99.6925 96.177C99.4752 96.4023 99.2157 96.629 98.9338 96.8528C98.3698 97.3004 97.6449 97.7925 96.8229 98.307C95.1748 99.3386 93.04 100.52 90.7983 101.697C86.3093 104.054 81.3056 106.44 78.7116 107.657C77.0152 108.454 75.1274 107.192 75.1274 105.366V67.3432C75.1274 66.2422 75.839 65.2673 76.8877 64.9318L102.855 56.6224C104.429 56.1188 106.09 57.2383 106.14 58.9332ZM104.875 58.9706C105.217 70.5371 103.466 85.6183 99.1278 94.8364C98.107 97.0056 83.3519 104.081 78.1737 106.511C77.3383 106.903 76.3934 106.289 76.3934 105.366V67.3432C76.3934 66.7927 76.7492 66.3053 77.2735 66.1375L103.241 57.8282C104.033 57.5745 104.85 58.1388 104.875 58.9706Z" fill="black"/>
<path d="M109.189 13.3561L104.4 55.9186C104.316 56.6691 104.902 57.3183 105.644 57.1783C110.233 56.3127 119.598 51.4069 121.861 36.2973C124.121 21.1981 115.292 14.4281 110.761 12.3896C110.044 12.0669 109.277 12.5744 109.189 13.3561Z" fill="#DDAA44"/>
<path fill-rule="evenodd" clip-rule="evenodd" d="M103.142 55.7772L107.931 13.2148C108.1 11.7081 109.667 10.5094 111.28 11.2353C113.72 12.3329 117.27 14.6781 119.919 18.7562C122.587 22.863 124.287 28.6449 123.113 36.4849C120.766 52.1576 110.966 57.4628 105.879 58.4225C104.141 58.7504 102.982 57.206 103.142 55.7772ZM104.4 55.9188L109.189 13.3563C109.277 12.5746 110.044 12.0671 110.761 12.3898C115.292 14.4283 124.121 21.1982 121.861 36.2974C119.598 51.4071 110.233 56.3128 105.644 57.1785C104.902 57.3185 104.316 56.6693 104.4 55.9188Z" fill="black"/>
<path d="M57.0402 12.7803L49.815 44.571C49.455 46.1553 50.6628 47.6439 52.2592 47.3415C57.58 46.3337 66.4084 42.4493 68.4359 28.9086C70.487 15.2092 64.5311 12.1062 60.2406 10.8449C58.8397 10.4331 57.3638 11.3565 57.0402 12.7803Z" fill="#472A1C"/>
<path opacity="0.3" fill-rule="evenodd" clip-rule="evenodd" d="M89.5044 62.8798C90.2033 62.9016 90.7521 63.4858 90.7302 64.1847L89.5936 100.559C89.5717 101.258 88.9875 101.806 88.2887 101.785C87.5898 101.763 87.041 101.179 87.0629 100.48L88.1996 64.1056C88.2214 63.4068 88.8056 62.8579 89.5044 62.8798Z" fill="#553322"/>
<path opacity="0.3" fill-rule="evenodd" clip-rule="evenodd" d="M97.5285 60.6115C98.2252 60.6706 98.7421 61.2832 98.683 61.9799L95.8413 95.5123C95.7823 96.209 95.1696 96.7259 94.473 96.6668C93.7763 96.6078 93.2594 95.9952 93.3184 95.2985L96.1602 61.7661C96.2192 61.0694 96.8318 60.5525 97.5285 60.6115Z" fill="#553322"/>
<path opacity="0.3" fill-rule="evenodd" clip-rule="evenodd" d="M84.3822 73.8709C83.9751 75.5308 83.557 78.7324 83.2762 83.5067C82.8173 91.3077 80.4146 100.872 79.2721 104.68C79.1717 105.015 78.8188 105.205 78.484 105.105C78.1491 105.004 77.9591 104.651 78.0596 104.316C79.1905 100.547 81.5619 91.0904 82.0124 83.4324C82.297 78.5949 82.7255 75.2775 83.1669 73.5121C83.2774 73.07 83.3948 72.6999 83.5216 72.4192C83.5848 72.2793 83.6593 72.1415 83.7497 72.023C83.8336 71.9129 83.974 71.7626 84.1863 71.6854C84.4405 71.5929 84.6983 71.6405 84.8981 71.7745C85.0666 71.8875 85.1715 72.0448 85.2367 72.1652C85.3698 72.4109 85.4642 72.7445 85.5384 73.1152C85.8353 74.5999 86.119 78.6324 86.19 83.2467C86.2612 87.8761 86.1196 93.172 85.5443 97.1994C85.4948 97.5455 85.1742 97.7859 84.8282 97.7365C84.4821 97.6871 84.2416 97.3664 84.2911 97.0204C84.8524 93.0909 84.995 87.8724 84.9242 83.2662C84.8605 79.1278 84.6255 75.5483 84.3822 73.8709ZM84.7603 72.7858C84.7604 72.7859 84.7592 72.7874 84.7568 72.79C84.7591 72.787 84.7603 72.7857 84.7603 72.7858ZM84.1176 72.7577C84.1156 72.755 84.1146 72.7535 84.1147 72.7534C84.1147 72.7533 84.1157 72.7547 84.1176 72.7577Z" fill="#553322"/>
<path opacity="0.3" fill-rule="evenodd" clip-rule="evenodd" d="M64.3271 64.6639C64.6692 64.5918 65.0049 64.8108 65.0769 65.1529C65.8375 68.7656 67.1476 77.5372 66.2199 83.5676C65.9416 85.3762 65.9888 86.6305 66.1724 87.3571C66.2496 87.6628 66.3386 87.8251 66.396 87.8998C66.4579 87.8528 66.5647 87.7476 66.6976 87.5309C66.8728 87.2453 67.0574 86.8241 67.2246 86.2513C67.5585 85.1077 67.8031 83.4299 67.8031 81.1978V67.5568C67.8031 67.2072 68.0865 66.9238 68.4361 66.9238C68.7857 66.9238 69.0691 67.2072 69.0691 67.5568V81.1978C69.0691 83.5128 68.8164 85.3163 68.4398 86.6061C68.2518 87.25 68.0279 87.7834 67.7768 88.1928C67.5347 88.5874 67.2247 88.9365 66.8323 89.1C66.625 89.1864 66.393 89.2207 66.1548 89.1733C65.9184 89.1264 65.719 89.0078 65.5594 88.8573C65.255 88.5699 65.0642 88.1391 64.945 87.6672C64.7023 86.7065 64.6785 85.261 64.9686 83.3751C65.8597 77.5832 64.5932 69.0004 63.8381 65.4137C63.7661 65.0716 63.985 64.7359 64.3271 64.6639Z" fill="#553322"/>
<path fill-rule="evenodd" clip-rule="evenodd" d="M21.2632 56.188C21.2632 57.5208 21.308 59.0979 21.3886 60.8457C21.8578 71.0229 23.5415 86.9915 24.6733 94.2672L67.8676 107.339L76.3928 108.476V66.9866L21.2632 56.188ZM25.9847 61.746C26.4446 70.5035 27.7246 83.1298 28.7594 90.7534L68.8328 102.881L71.846 103.283V70.7291L25.9847 61.746Z" fill="#797979"/>
<path fill-rule="evenodd" clip-rule="evenodd" d="M20.4587 55.2107C20.7508 54.9702 21.1352 54.873 21.5066 54.9457L76.6362 65.7443C77.2302 65.8607 77.6588 66.3813 77.6588 66.9867V108.476C77.6588 108.841 77.5013 109.188 77.2267 109.428C76.9522 109.669 76.5872 109.779 76.2255 109.731L67.7003 108.594C67.6328 108.585 67.5661 108.571 67.5009 108.551L24.3066 95.479C23.8409 95.338 23.4972 94.9426 23.4224 94.4619C22.2836 87.1412 20.5953 71.1271 20.124 60.9041C20.0428 59.1447 19.9973 57.5469 19.9973 56.1881C19.9973 55.8097 20.1665 55.4511 20.4587 55.2107ZM24.6733 94.2673C23.5415 86.9916 21.8578 71.023 21.3886 60.8458C21.3327 59.6337 21.294 58.5038 21.2756 57.4805C21.2674 57.0282 21.2632 56.5967 21.2632 56.1881L76.3928 66.9867V108.476L67.8676 107.339L24.6733 94.2673ZM29.9061 89.7778L69.1016 101.64L70.5801 101.837V71.7713L27.3407 63.3017C27.8411 71.5851 28.959 82.6017 29.9061 89.7778ZM26.0575 63.0504C26.5686 71.72 27.775 83.5007 28.7594 90.7534L68.8328 102.881L71.846 103.283V70.7292L25.9847 61.7461C26.0071 62.172 26.0314 62.6071 26.0575 63.0504Z" fill="black"/>
<path fill-rule="evenodd" clip-rule="evenodd" d="M80.94 70.1867V101.199L96.3401 93.6868C98.3938 89.3173 99.8274 82.7117 100.726 75.6481C101.308 71.0776 101.64 66.5465 101.812 62.7044L80.94 70.1867ZM76.3933 66.9866V108.476L99.6955 97.1089C104.525 88.415 106.072 71.5117 106.427 61.0498C106.49 59.2011 106.516 57.5536 106.516 56.188L76.3933 66.9866Z" fill="#D4D4D4"/>
<path fill-rule="evenodd" clip-rule="evenodd" d="M75.1273 66.9867C75.1273 66.4522 75.463 65.9753 75.9661 65.795L106.088 54.9964C106.476 54.8574 106.907 54.9157 107.244 55.1528C107.581 55.3899 107.782 55.7761 107.782 56.1881C107.782 57.5689 107.756 59.2308 107.692 61.0929C107.514 66.3567 107.035 73.2518 105.99 79.9379C104.95 86.5896 103.33 93.1732 100.802 97.7238C100.676 97.9505 100.484 98.1331 100.25 98.2468L76.9483 109.614C76.5559 109.805 76.0927 109.781 75.7225 109.55C75.3522 109.318 75.1273 108.912 75.1273 108.476V66.9867ZM80.94 101.199L96.3401 93.6869C98.3938 89.3174 99.8275 82.7118 100.726 75.6482C101.24 71.6097 101.559 67.602 101.745 64.0732C101.77 63.6083 101.792 63.1517 101.812 62.7045L80.94 70.1868V101.199ZM82.206 99.173L95.378 92.7477C97.249 88.5595 98.6036 82.3005 99.4706 75.4884C99.9544 71.687 100.264 67.9091 100.452 64.5367L82.206 71.0778V99.173ZM106.508 57.5357C106.496 58.5935 106.471 59.7738 106.427 61.0499C106.072 71.5118 104.525 88.4151 99.6955 97.109L76.3933 108.476V66.9867L106.516 56.1881C106.516 56.611 106.513 57.061 106.508 57.5357Z" fill="black"/>
<path fill-rule="evenodd" clip-rule="evenodd" d="M105.947 56.1874C106.801 56.0626 107.954 55.7477 109.264 55.1617C113.633 53.2071 119.747 48.2364 122.353 37.2425C124.95 21.3057 119.169 14.903 114.275 12.1123C113.185 11.4907 112.139 11.0484 111.239 10.7197L105.947 56.1874ZM109.717 51.2724C113.067 49.2112 117.232 44.9429 119.24 36.5913C120.705 27.4797 119.178 22.2249 117.188 19.1377C116.213 17.6251 115.048 16.5081 113.861 15.6685L109.717 51.2724Z" fill="#D4D4D4"/>
<path fill-rule="evenodd" clip-rule="evenodd" d="M105.065 57.0956C104.783 56.8216 104.644 56.4319 104.689 56.0411L109.982 10.5734C110.027 10.1886 110.245 9.84542 110.575 9.64212C110.905 9.43882 111.31 9.39777 111.674 9.5307C112.62 9.87638 113.734 10.3468 114.902 11.0126C117.536 12.5143 120.42 15.0004 122.282 19.2383C124.139 23.4622 124.929 29.3081 123.603 37.4463C123.598 37.4759 123.592 37.5054 123.585 37.5346C120.886 48.924 114.498 54.207 109.781 56.3174C108.378 56.9448 107.113 57.2965 106.13 57.4402C105.74 57.497 105.347 57.3697 105.065 57.0956ZM122.353 37.2426C119.748 48.2365 113.633 53.2072 109.264 55.1618C108.538 55.4866 107.86 55.7281 107.255 55.9001C106.768 56.0385 106.328 56.1319 105.947 56.1875L111.239 10.7198C111.621 10.8594 112.03 11.0196 112.457 11.2052C113.036 11.4566 113.648 11.7549 114.275 12.1124C119.169 14.9031 124.951 21.3058 122.353 37.2426ZM119.24 36.5914C120.705 27.4798 119.178 22.225 117.188 19.1378C116.536 18.1262 115.799 17.2915 115.027 16.5984C114.645 16.2552 114.254 15.9466 113.861 15.6685L109.717 51.2725C110.166 50.9959 110.631 50.6796 111.102 50.319C114.146 47.9923 117.502 43.8223 119.24 36.5914ZM111.314 48.5012C113.853 46.2291 116.517 42.465 117.998 36.3425C119.415 27.4741 117.895 22.572 116.124 19.8235C115.727 19.2076 115.295 18.6649 114.843 18.1852L111.314 48.5012Z" fill="black"/>
<path d="M35.44 106.064C29.2616 106.064 24.2531 103.755 24.2531 100.907C24.2531 99.5014 24.2531 96.369 24.2531 96.369C26.2835 95.414 32.3103 95.7495 35.44 95.7495C38.5697 95.7495 44.5963 95.414 46.6267 96.369C46.6267 96.369 46.6269 99.5014 46.6269 100.907C46.6269 103.755 41.6183 106.064 35.44 106.064Z" fill="#D99530"/>
<path fill-rule="evenodd" clip-rule="evenodd" d="M47.2597 96.3685L47.2596 95.9668L46.8961 95.7958C46.2906 95.511 45.4472 95.3444 44.5342 95.24C43.6055 95.1338 42.541 95.0857 41.456 95.0678C40.1154 95.0457 38.6941 95.0701 37.446 95.0915C36.6965 95.1043 36.0095 95.1161 35.44 95.1161C34.8705 95.1161 34.1835 95.1043 33.434 95.0915C32.1859 95.0701 30.7645 95.0457 29.4239 95.0678C28.3389 95.0857 27.2743 95.1338 26.3456 95.24C25.4326 95.3444 24.5892 95.511 23.9837 95.7958L23.6202 95.9668L23.6202 100.906C23.6202 102.727 25.1938 104.173 27.2647 105.128C29.3896 106.108 32.2806 106.697 35.44 106.697C38.5994 106.697 41.4904 106.108 43.6153 105.128C45.6862 104.173 47.2599 102.727 47.2599 100.906L47.2597 96.3685ZM45.9937 96.8025C45.5914 96.6755 45.0504 96.5732 44.3904 96.4978C43.5203 96.3983 42.5019 96.3512 41.4352 96.3336C40.1027 96.3116 38.7442 96.3353 37.5205 96.3566C36.7626 96.3698 36.0564 96.3821 35.44 96.3821C34.8236 96.3821 34.1174 96.3698 33.3595 96.3566C32.1358 96.3353 30.7773 96.3116 29.4448 96.3336C28.378 96.3512 27.3596 96.3983 26.4894 96.4978C25.8294 96.5732 25.2885 96.6755 24.8861 96.8025L24.8861 100.906C24.8861 101.934 25.8167 103.066 27.7947 103.978C29.7186 104.865 32.421 105.431 35.44 105.431C38.459 105.431 41.1614 104.865 43.0853 103.978C45.0633 103.066 45.9939 101.934 45.9939 100.906L45.9937 96.8025Z" fill="black"/>
<path d="M35.4391 101.463C29.2607 101.463 24.2522 99.1543 24.2522 96.306C24.2522 93.4577 29.2607 91.1487 35.4391 91.1487C41.6174 91.1487 46.6259 93.4577 46.6259 96.306C46.6259 99.1543 41.6174 101.463 35.4391 101.463Z" fill="#FFFF52"/>
<path fill-rule="evenodd" clip-rule="evenodd" d="M43.0843 93.2342C41.1604 92.3473 38.458 91.7818 35.439 91.7818C32.42 91.7818 29.7176 92.3473 27.7937 93.2342C25.8157 94.1461 24.8851 95.2781 24.8851 96.3062C24.8851 97.3342 25.8157 98.4662 27.7937 99.3781C29.7176 100.265 32.42 100.831 35.439 100.831C38.458 100.831 41.1604 100.265 43.0843 99.3781C45.0623 98.4662 45.9929 97.3342 45.9929 96.3062C45.9929 95.2781 45.0623 94.1461 43.0843 93.2342ZM43.6143 92.0846C45.6852 93.0393 47.2589 94.4859 47.2589 96.3062C47.2589 98.1264 45.6852 99.5731 43.6143 100.528C41.4894 101.507 38.5984 102.096 35.439 102.096C32.2796 102.096 29.3886 101.507 27.2637 100.528C25.1928 99.5731 23.6192 98.1264 23.6192 96.3062C23.6192 94.4859 25.1928 93.0393 27.2637 92.0846C29.3886 91.1049 32.2796 90.5159 35.439 90.5159C38.5984 90.5159 41.4894 91.1049 43.6143 92.0846Z" fill="black"/>
<path d="M25.2711 103.366C20.9606 107.785 14.6004 108.572 11.0653 105.123C7.53022 101.675 8.15881 95.2972 12.4693 90.8783C16.7798 86.4594 23.14 85.6727 26.6751 89.1211C30.2102 92.5695 29.5816 98.9472 25.2711 103.366Z" fill="#D99530"/>
<path fill-rule="evenodd" clip-rule="evenodd" d="M26.2331 89.5735C23.0373 86.4562 17.086 87.0514 12.9224 91.3196C8.75888 95.5878 8.31157 101.552 11.5073 104.67C14.703 107.787 20.6544 107.192 24.818 102.923C28.9815 98.6552 29.4288 92.6909 26.2331 89.5735ZM12.0162 90.4356C16.4737 85.8661 23.2426 84.8879 27.1171 88.6673C30.9915 92.4468 30.1816 99.2379 25.7242 103.807C21.2667 108.377 14.4978 109.355 10.6233 105.576C6.74884 101.796 7.55872 95.0052 12.0162 90.4356Z" fill="black"/>
<path d="M22.0719 100.244C17.7614 104.663 11.761 105.801 8.66973 102.785C5.57842 99.7697 6.56679 93.743 10.8773 89.3241C15.1878 84.9052 21.1882 83.7675 24.2795 86.783C27.3708 89.7985 26.3824 95.8253 22.0719 100.244Z" fill="#FFFF52"/>
<path fill-rule="evenodd" clip-rule="evenodd" d="M18.1535 85.8877C15.8705 86.3205 13.4061 87.6382 11.3304 89.7662C9.25464 91.8941 7.9985 94.3904 7.62246 96.6834C7.24601 98.9789 7.75462 101.008 9.11172 102.332C10.4688 103.656 12.5103 104.114 14.7957 103.681C17.0787 103.248 19.5431 101.93 21.6188 99.8023C23.6946 97.6743 24.9507 95.178 25.3267 92.885C25.7032 90.5895 25.1946 88.56 23.8375 87.2362C22.4804 85.9124 20.4389 85.4543 18.1535 85.8877ZM17.9177 84.6439C20.4829 84.1575 22.9873 84.6383 24.7215 86.33C26.4557 88.0217 26.9985 90.5133 26.576 93.0899C26.1531 95.6688 24.7598 98.3953 22.525 100.686C20.2903 102.977 17.5992 104.438 15.0315 104.925C12.4663 105.411 9.96195 104.93 8.22773 103.238C6.49351 101.547 5.95065 99.0551 6.37319 96.4786C6.79612 93.8996 8.18942 91.1731 10.4242 88.8822C12.6589 86.5912 15.35 85.1307 17.9177 84.6439Z" fill="black"/>
<path fill-rule="evenodd" clip-rule="evenodd" d="M64.1653 57.0985L64.1128 57.0075L112.432 27.4486L105.415 18.2194L64.1037 56.7983L69.8658 0H58.2717L64.0399 56.8579L64.0311 56.8661L63.9579 56.7394L46.0802 3.31253L35.5128 8.0826L63.6574 56.6603L63.1066 56.7392L9.78768 38.6425L7.18851 49.9416L62.2561 56.861L6.92601 64.784L9.71948 76.0366L62.9351 56.9463L63.7413 57.0476L63.7877 57.0935L63.7185 57.1581L63.7161 57.1088L63.7067 57.169L63.4369 57.421L63.6917 57.2651L63.5216 58.3555L31.7706 104.862L41.9569 110.399L63.3763 59.2867L54.8601 113.858L66.4376 114.48L63.7744 58.3366L64.111 57.5335L81.8515 110.773L92.425 106.017L64.6616 57.9575L104.41 97.257L111.688 88.2316L64.3302 57.3725L120.854 49.3512L118.075 38.0951L64.2894 57.3133L64.1668 57.1011L64.1764 57.1023L64.1653 57.0985ZM63.6703 56.6826L63.3151 56.8099L63.598 56.906L63.5668 56.8751L63.6318 56.9174L63.8491 56.9912L63.6703 56.6826ZM64.1017 57.5058L64.0696 57.4095L63.9878 57.4211L64.0644 57.3937L64.0511 57.3539L63.8583 57.1633L63.7227 57.2462L63.7588 58.0081L64.1017 57.5058ZM85.4439 2.94302L95.7468 8.26047L64.3879 56.3802L85.4439 2.94302ZM121.731 65.1808L119.038 76.4579L64.8044 57.5484L121.731 65.1808ZM22.0173 97.9681L14.659 89.0082L62.4977 57.2223L22.0173 97.9681ZM16.1486 24.1208L23.6404 15.2722L63.5054 56.6204L16.1486 24.1208Z" fill="url(#paint0_radial_24894_4477)"/>
<path fill-rule="evenodd" clip-rule="evenodd" d="M95.7154 55.0509L105.377 56.756L111.062 10.1516L56.5004 8.44653L47.4064 48.2308L95.7154 55.0509ZM52.9414 44.4203L96.351 50.5488C96.4026 50.5561 96.4541 50.5643 96.5055 50.5733L101.445 51.4449L105.946 14.5407L60.0989 13.108L52.9414 44.4203Z" fill="#919191"/>
<path fill-rule="evenodd" clip-rule="evenodd" d="M95.7154 55.0508L47.4064 48.2306L56.5004 8.44638L111.062 10.1514L105.377 56.7558L95.7154 55.0508ZM95.5168 56.3012L105.157 58.0025C105.499 58.0629 105.851 57.98 106.131 57.7732C106.41 57.5664 106.592 57.254 106.634 56.9091L112.318 10.3047C112.361 9.95175 112.254 9.59696 112.022 9.3271C111.791 9.05724 111.457 8.89719 111.101 8.88608L56.5399 7.18104C55.9349 7.16214 55.4012 7.57418 55.2663 8.16428L46.1722 47.9485C46.0933 48.2939 46.1627 48.6566 46.3636 48.9485C46.5645 49.2403 46.8786 49.4346 47.2294 49.4841L95.5168 56.3012ZM96.5055 50.5732C96.4541 50.5641 96.4026 50.5559 96.351 50.5486L52.9414 44.4202L60.0989 13.1078L105.946 14.5405L101.445 51.4448L96.5055 50.5732ZM100.35 49.966L96.7255 49.3265C96.6599 49.3149 96.594 49.3044 96.5279 49.2951L54.4825 43.3592L61.1008 14.4057L104.521 15.7626L100.35 49.966Z" fill="black"/>
<path d="M51.9546 63.5757L43.4289 61.8706L41.1554 63.5757V68.6911L49.1127 70.9647L51.9546 68.6911V63.5757Z" fill="#797979"/>
<path fill-rule="evenodd" clip-rule="evenodd" d="M42.6693 60.8579C42.9575 60.6418 43.324 60.5587 43.6772 60.6293L52.2029 62.3345C52.7946 62.4528 53.2205 62.9724 53.2205 63.5758V68.6912C53.2205 69.0758 53.0457 69.4395 52.7454 69.6798L49.9035 71.9533C49.5834 72.2094 49.1591 72.2946 48.7649 72.182L40.8076 69.9085C40.2641 69.7532 39.8894 69.2565 39.8894 68.6912V63.5758C39.8894 63.1774 40.077 62.8022 40.3958 62.5631L42.6693 60.8579ZM43.4289 61.8707L51.9546 63.5758V68.6912L49.1127 70.9648L41.1554 68.6912V63.5758L43.4289 61.8707Z" fill="black"/>
<path d="M51.9537 63.5747L49.1118 65.2798V70.9636L51.9537 68.6901V63.5747Z" fill="#BDBDBD"/>
<path d="M85.1169 63.2717C80.4083 63.2717 76.5912 61.5119 76.5912 59.3412C76.5912 58.2701 76.5912 55.8828 76.5912 55.8828C78.1386 55.155 82.7317 55.4107 85.1169 55.4107C87.5021 55.4107 92.0951 55.155 93.6424 55.8828C93.6424 55.8828 93.6426 58.2701 93.6426 59.3412C93.6426 61.5119 89.8255 63.2717 85.1169 63.2717Z" fill="#D99530"/>
<path fill-rule="evenodd" clip-rule="evenodd" d="M93.0095 56.3254C92.7296 56.2473 92.3647 56.1812 91.921 56.1305C91.2648 56.0554 90.4942 56.0197 89.6834 56.0063C88.6688 55.9896 87.6408 56.0075 86.7111 56.0237C86.1327 56.0338 85.5923 56.0433 85.1169 56.0433C84.6415 56.0433 84.1011 56.0338 83.5227 56.0237C82.593 56.0075 81.5649 55.9896 80.5503 56.0063C79.7395 56.0197 78.9688 56.0555 78.3126 56.1305C77.869 56.1812 77.5041 56.2473 77.2242 56.3254L77.2242 59.3408C77.2242 60.03 77.857 60.8553 79.3533 61.5452C80.7957 62.2101 82.8328 62.6383 85.1169 62.6383C87.401 62.6383 89.4381 62.2101 90.8804 61.5452C92.3768 60.8553 93.0096 60.03 93.0096 59.3408L93.0095 56.3254ZM75.9582 55.8824L75.9582 55.4806L76.3218 55.3096C76.8066 55.0816 77.4698 54.9526 78.1688 54.8727C78.8836 54.791 79.7004 54.7542 80.5294 54.7405C81.5522 54.7237 82.6431 54.7423 83.5972 54.7586C84.1672 54.7684 84.6884 54.7773 85.1169 54.7773C85.5454 54.7773 86.0666 54.7684 86.6366 54.7586C87.5907 54.7423 88.6816 54.7237 89.7043 54.7405C90.5333 54.7542 91.3501 54.791 92.0648 54.8727C92.7639 54.9526 93.4271 55.0816 93.9118 55.3096L94.2754 55.4806L94.2754 55.8824L94.2755 59.3408C94.2755 60.8222 92.9998 61.9622 91.4105 62.6949C89.7671 63.4525 87.5414 63.9042 85.1169 63.9042C82.6924 63.9042 80.4667 63.4525 78.8233 62.6949C77.234 61.9622 75.9582 60.8222 75.9582 59.3408L75.9582 55.8824Z" fill="black"/>
<path d="M85.116 59.7652C80.4074 59.7652 76.5903 58.0055 76.5903 55.8348C76.5903 53.664 80.4074 51.9043 85.116 51.9043C89.8246 51.9043 93.6416 53.664 93.6416 55.8348C93.6416 58.0055 89.8246 59.7652 85.116 59.7652Z" fill="#FFFF52"/>
<path fill-rule="evenodd" clip-rule="evenodd" d="M90.8794 53.6303C89.4371 52.9653 87.4 52.5372 85.1159 52.5372C82.8318 52.5372 80.7947 52.9653 79.3523 53.6303C77.8559 54.3201 77.2232 55.1454 77.2232 55.8347C77.2232 56.524 77.8559 57.3493 79.3523 58.0391C80.7947 58.7041 82.8318 59.1322 85.1159 59.1322C87.4 59.1322 89.4371 58.7041 90.8794 58.0391C92.3758 57.3493 93.0086 56.524 93.0086 55.8347C93.0086 55.1454 92.3758 54.3201 90.8794 53.6303ZM91.4094 52.4806C92.9987 53.2133 94.2745 54.3532 94.2745 55.8347C94.2745 57.3162 92.9987 58.4561 91.4094 59.1888C89.7661 59.9464 87.5404 60.3981 85.1159 60.3981C82.6914 60.3981 80.4656 59.9464 78.8223 59.1888C77.233 58.4561 75.9572 57.3162 75.9572 55.8347C75.9572 54.3532 77.233 53.2133 78.8223 52.4806C80.4656 51.723 82.6914 51.2712 85.1159 51.2712C87.5404 51.2712 89.7661 51.723 91.4094 52.4806Z" fill="black"/>
<path d="M81.4247 55.0517C76.7161 55.0517 72.899 53.292 72.899 51.1212C72.899 50.0501 72.899 47.6629 72.899 47.6629C74.4464 46.9351 79.0395 47.1908 81.4247 47.1908C83.8099 47.1908 88.4029 46.9351 89.9502 47.6629C89.9502 47.6629 89.9504 50.0501 89.9504 51.1212C89.9504 53.292 86.1333 55.0517 81.4247 55.0517Z" fill="#D99530"/>
<path fill-rule="evenodd" clip-rule="evenodd" d="M89.3173 48.1057C89.0374 48.0275 88.6725 47.9615 88.2288 47.9107C87.5726 47.8357 86.802 47.8 85.9912 47.7866C84.9766 47.7699 83.9486 47.7878 83.0189 47.804C82.4405 47.8141 81.9001 47.8235 81.4247 47.8235C80.9493 47.8235 80.4089 47.8141 79.8305 47.804C78.9008 47.7878 77.8727 47.7699 76.8581 47.7866C76.0473 47.8 75.2766 47.8357 74.6204 47.9108C74.1768 47.9615 73.8119 48.0275 73.532 48.1057L73.532 51.121C73.532 51.8103 74.1648 52.6356 75.6611 53.3255C77.1035 53.9904 79.1406 54.4185 81.4247 54.4185C83.7088 54.4185 85.7459 53.9904 87.1882 53.3255C88.6846 52.6356 89.3174 51.8103 89.3174 51.121L89.3173 48.1057ZM72.266 47.6627L72.266 47.2609L72.6296 47.0899C73.1144 46.8619 73.7776 46.7329 74.4766 46.653C75.1914 46.5713 76.0082 46.5345 76.8372 46.5208C77.86 46.5039 78.9509 46.5226 79.905 46.5389C80.475 46.5487 80.9962 46.5576 81.4247 46.5576C81.8532 46.5576 82.3744 46.5487 82.9444 46.5389C83.8985 46.5226 84.9894 46.5039 86.0121 46.5208C86.8411 46.5345 87.6579 46.5713 88.3726 46.653C89.0717 46.7329 89.7349 46.8619 90.2196 47.0899L90.5832 47.2609L90.5832 47.6626L90.5833 51.121C90.5833 52.6025 89.3076 53.7424 87.7183 54.4751C86.0749 55.2327 83.8492 55.6845 81.4247 55.6845C79.0002 55.6845 76.7745 55.2327 75.1311 54.4751C73.5418 53.7424 72.266 52.6025 72.266 51.121L72.266 47.6627Z" fill="black"/>
<path d="M81.4238 51.545C76.7152 51.545 72.8981 49.7853 72.8981 47.6145C72.8981 45.4438 76.7152 43.6841 81.4238 43.6841C86.1324 43.6841 89.9494 45.4438 89.9494 47.6145C89.9494 49.7853 86.1324 51.545 81.4238 51.545Z" fill="#FFFF52"/>
<path fill-rule="evenodd" clip-rule="evenodd" d="M87.1872 45.4103C85.7448 44.7453 83.7078 44.3172 81.4237 44.3172C79.1396 44.3172 77.1025 44.7453 75.6601 45.4103C74.1637 46.1001 73.531 46.9254 73.531 47.6147C73.531 48.304 74.1637 49.1293 75.6601 49.8191C77.1025 50.4841 79.1396 50.9122 81.4237 50.9122C83.7078 50.9122 85.7448 50.4841 87.1872 49.8191C88.6836 49.1293 89.3163 48.304 89.3163 47.6147C89.3163 46.9254 88.6836 46.1001 87.1872 45.4103ZM87.7172 44.2606C89.3065 44.9933 90.5823 46.1332 90.5823 47.6147C90.5823 49.0962 89.3065 50.2361 87.7172 50.9688C86.0739 51.7264 83.8481 52.1782 81.4237 52.1782C78.9992 52.1782 76.7734 51.7264 75.1301 50.9688C73.5408 50.2361 72.265 49.0962 72.265 47.6147C72.265 46.1332 73.5408 44.9933 75.1301 44.2606C76.7734 43.503 78.9992 43.0513 81.4237 43.0513C83.8481 43.0513 86.0739 43.503 87.7172 44.2606Z" fill="black"/>
<path d="M70.0577 65.2807C65.3491 65.2807 61.532 63.521 61.532 61.3502C61.532 60.2791 61.532 57.8919 61.532 57.8919C63.0794 57.1641 67.6725 57.4198 70.0577 57.4198C72.4429 57.4198 77.0358 57.1641 78.5832 57.8919C78.5832 57.8919 78.5833 60.2791 78.5833 61.3502C78.5833 63.521 74.7663 65.2807 70.0577 65.2807Z" fill="#D99530"/>
<path fill-rule="evenodd" clip-rule="evenodd" d="M77.9503 58.3345C77.6704 58.2563 77.3055 58.1902 76.8618 58.1395C76.2056 58.0645 75.435 58.0287 74.6242 58.0154C73.6096 57.9986 72.5816 58.0166 71.6519 58.0328C71.0735 58.0429 70.5331 58.0523 70.0577 58.0523C69.5823 58.0523 69.0419 58.0429 68.4635 58.0328C67.5338 58.0166 66.5057 57.9986 65.4911 58.0154C64.6803 58.0287 63.9096 58.0645 63.2534 58.1395C62.8098 58.1902 62.4449 58.2563 62.165 58.3345L62.165 61.3498C62.165 62.0391 62.7978 62.8644 64.2941 63.5542C65.7365 64.2192 67.7736 64.6473 70.0577 64.6473C72.3418 64.6473 74.3789 64.2192 75.8212 63.5542C77.3176 62.8644 77.9504 62.0391 77.9504 61.3498L77.9503 58.3345ZM60.899 57.8914L60.899 57.4896L61.2626 57.3186C61.7474 57.0906 62.4106 56.9617 63.1096 56.8817C63.8244 56.8 64.6412 56.7632 65.4702 56.7496C66.493 56.7327 67.5839 56.7514 68.538 56.7677C69.108 56.7774 69.6292 56.7863 70.0577 56.7863C70.4862 56.7863 71.0074 56.7774 71.5774 56.7677C72.5314 56.7514 73.6224 56.7327 74.6451 56.7496C75.4741 56.7632 76.2909 56.8 77.0056 56.8817C77.7046 56.9617 78.3678 57.0906 78.8526 57.3186L79.2162 57.4896L79.2162 57.8914L79.2163 61.3498C79.2163 62.8313 77.9406 63.9712 76.3513 64.7039C74.7079 65.4615 72.4822 65.9132 70.0577 65.9132C67.6332 65.9132 65.4074 65.4615 63.7641 64.7039C62.1748 63.9712 60.899 62.8313 60.899 61.3498L60.899 57.8914Z" fill="black"/>
<path d="M70.0574 61.7743C65.3488 61.7743 61.5317 60.0145 61.5317 57.8438C61.5317 55.6731 65.3488 53.9133 70.0574 53.9133C74.766 53.9133 78.583 55.6731 78.583 57.8438C78.583 60.0145 74.766 61.7743 70.0574 61.7743Z" fill="#FFFF52"/>
<path fill-rule="evenodd" clip-rule="evenodd" d="M75.821 55.6393C74.3786 54.9743 72.3416 54.5462 70.0574 54.5462C67.7733 54.5462 65.7363 54.9743 64.2939 55.6393C62.7975 56.3291 62.1648 57.1545 62.1648 57.8437C62.1648 58.533 62.7975 59.3583 64.2939 60.0481C65.7363 60.7131 67.7733 61.1412 70.0574 61.1412C72.3416 61.1412 74.3786 60.7131 75.821 60.0481C77.3174 59.3583 77.9501 58.533 77.9501 57.8437C77.9501 57.1545 77.3174 56.3291 75.821 55.6393ZM76.351 54.4896C77.9403 55.2223 79.2161 56.3623 79.2161 57.8437C79.2161 59.3252 77.9403 60.4651 76.351 61.1978C74.7077 61.9554 72.4819 62.4072 70.0574 62.4072C67.633 62.4072 65.4072 61.9554 63.7639 61.1978C62.1746 60.4651 60.8988 59.3252 60.8988 57.8437C60.8988 56.3623 62.1746 55.2223 63.7639 54.4896C65.4072 53.732 67.633 53.2803 70.0574 53.2803C72.4819 53.2803 74.7077 53.732 76.351 54.4896Z" fill="black"/>
<path d="M41.6395 59.5978C36.9309 59.5978 33.1138 57.8381 33.1138 55.6674C33.1138 54.5962 33.1138 52.209 33.1138 52.209C34.6612 51.4812 39.2543 51.7369 41.6395 51.7369C44.0247 51.7369 48.6176 51.4812 50.165 52.209C50.165 52.209 50.1652 54.5962 50.1652 55.6674C50.1652 57.8381 46.3481 59.5978 41.6395 59.5978Z" fill="#D99530"/>
<path fill-rule="evenodd" clip-rule="evenodd" d="M49.5321 52.6521C49.2522 52.5739 48.8873 52.5079 48.4436 52.4571C47.7874 52.3821 47.0168 52.3464 46.206 52.333C45.1914 52.3162 44.1634 52.3342 43.2337 52.3504C42.6553 52.3605 42.1149 52.3699 41.6395 52.3699C41.1641 52.3699 40.6237 52.3605 40.0453 52.3504C39.1156 52.3342 38.0875 52.3162 37.0729 52.333C36.2621 52.3464 35.4914 52.3821 34.8352 52.4571C34.3916 52.5079 34.0267 52.5739 33.7468 52.6521L33.7468 55.6674C33.7468 56.3567 34.3796 57.182 35.8759 57.8718C37.3183 58.5368 39.3554 58.9649 41.6395 58.9649C43.9236 58.9649 45.9607 58.5368 47.403 57.8719C48.8994 57.182 49.5322 56.3567 49.5322 55.6674L49.5321 52.6521ZM32.4808 52.2091L32.4808 51.8073L32.8444 51.6363C33.3292 51.4083 33.9924 51.2793 34.6914 51.1994C35.4062 51.1177 36.223 51.0809 37.052 51.0672C38.0748 51.0503 39.1657 51.069 40.1198 51.0853C40.6898 51.0951 41.211 51.104 41.6395 51.104C42.068 51.104 42.5892 51.0951 43.1592 51.0853C44.1132 51.069 45.2042 51.0503 46.2269 51.0672C47.0559 51.0809 47.8727 51.1177 48.5874 51.1994C49.2865 51.2793 49.9497 51.4083 50.4344 51.6363L50.798 51.8073L50.798 52.209L50.7981 55.6674C50.7981 57.1489 49.5224 58.2888 47.9331 59.0215C46.2897 59.7791 44.064 60.2309 41.6395 60.2309C39.215 60.2309 36.9893 59.7791 35.3459 59.0215C33.7566 58.2888 32.4808 57.1489 32.4808 55.6674L32.4808 52.2091Z" fill="black"/>
<path d="M41.6401 56.0914C36.9315 56.0914 33.1144 54.3317 33.1144 52.1609C33.1144 49.9902 36.9315 48.2305 41.6401 48.2305C46.3487 48.2305 50.1658 49.9902 50.1658 52.1609C50.1658 54.3317 46.3487 56.0914 41.6401 56.0914Z" fill="#FFFF52"/>
<path fill-rule="evenodd" clip-rule="evenodd" d="M47.4036 49.9567C45.9613 49.2917 43.9242 48.8636 41.6401 48.8636C39.356 48.8636 37.3189 49.2917 35.8765 49.9567C34.3802 50.6465 33.7474 51.4718 33.7474 52.1611C33.7474 52.8504 34.3802 53.6757 35.8765 54.3655C37.3189 55.0305 39.356 55.4586 41.6401 55.4586C43.9242 55.4586 45.9613 55.0305 47.4036 54.3655C48.9 53.6757 49.5328 52.8504 49.5328 52.1611C49.5328 51.4718 48.9 50.6465 47.4036 49.9567ZM47.9337 48.807C49.523 49.5397 50.7987 50.6796 50.7987 52.1611C50.7987 53.6426 49.523 54.7825 47.9337 55.5152C46.2903 56.2728 44.0646 56.7245 41.6401 56.7245C39.2156 56.7245 36.9898 56.2728 35.3465 55.5152C33.7572 54.7825 32.4814 53.6426 32.4814 52.1611C32.4814 50.6796 33.7572 49.5397 35.3465 48.807C36.9898 48.0494 39.2156 47.5977 41.6401 47.5977C44.0646 47.5977 46.2903 48.0494 47.9337 48.807Z" fill="black"/>
<path d="M70.0577 58.4606C65.3491 58.4606 61.532 56.7009 61.532 54.5302C61.532 53.459 61.532 51.0718 61.532 51.0718C63.0794 50.344 67.6725 50.5997 70.0577 50.5997C72.4429 50.5997 77.0358 50.344 78.5832 51.0718C78.5832 51.0718 78.5833 53.459 78.5833 54.5302C78.5833 56.7009 74.7663 58.4606 70.0577 58.4606Z" fill="#D99530"/>
<path fill-rule="evenodd" clip-rule="evenodd" d="M77.9503 51.5144C77.6704 51.4362 77.3055 51.3702 76.8618 51.3194C76.2056 51.2444 75.435 51.2087 74.6242 51.1953C73.6096 51.1785 72.5816 51.1965 71.6519 51.2127C71.0735 51.2228 70.5331 51.2322 70.0577 51.2322C69.5823 51.2322 69.0419 51.2228 68.4635 51.2127C67.5338 51.1965 66.5057 51.1785 65.4911 51.1953C64.6803 51.2087 63.9096 51.2444 63.2534 51.3194C62.8098 51.3702 62.4449 51.4362 62.165 51.5144L62.165 54.5297C62.165 55.219 62.7978 56.0443 64.2941 56.7342C65.7365 57.3991 67.7736 57.8272 70.0577 57.8272C72.3418 57.8272 74.3789 57.3991 75.8212 56.7342C77.3176 56.0443 77.9504 55.219 77.9504 54.5297L77.9503 51.5144ZM60.899 51.0714L60.899 50.6696L61.2626 50.4986C61.7474 50.2706 62.4106 50.1416 63.1096 50.0617C63.8244 49.98 64.6412 49.9432 65.4702 49.9295C66.493 49.9126 67.5839 49.9313 68.538 49.9476C69.108 49.9574 69.6292 49.9663 70.0577 49.9663C70.4862 49.9663 71.0074 49.9574 71.5774 49.9476C72.5314 49.9313 73.6224 49.9126 74.6451 49.9295C75.4741 49.9432 76.2909 49.98 77.0056 50.0617C77.7046 50.1416 78.3678 50.2706 78.8526 50.4986L79.2162 50.6696L79.2162 51.0713L79.2163 54.5297C79.2163 56.0112 77.9406 57.1511 76.3513 57.8838C74.7079 58.6414 72.4822 59.0932 70.0577 59.0932C67.6332 59.0932 65.4074 58.6414 63.7641 57.8838C62.1748 57.1511 60.899 56.0112 60.899 54.5297L60.899 51.0714Z" fill="black"/>
<path d="M70.0574 54.954C65.3488 54.954 61.5317 53.1942 61.5317 51.0235C61.5317 48.8527 65.3488 47.093 70.0574 47.093C74.766 47.093 78.583 48.8527 78.583 51.0235C78.583 53.1942 74.766 54.954 70.0574 54.954Z" fill="#FFFF52"/>
<path fill-rule="evenodd" clip-rule="evenodd" d="M75.821 48.8192C74.3786 48.1543 72.3416 47.7262 70.0574 47.7262C67.7733 47.7262 65.7363 48.1543 64.2939 48.8192C62.7975 49.5091 62.1648 50.3344 62.1648 51.0237C62.1648 51.7129 62.7975 52.5382 64.2939 53.2281C65.7363 53.893 67.7733 54.3211 70.0574 54.3211C72.3416 54.3211 74.3786 53.893 75.821 53.2281C77.3174 52.5382 77.9501 51.7129 77.9501 51.0237C77.9501 50.3344 77.3174 49.5091 75.821 48.8192ZM76.351 47.6696C77.9403 48.4023 79.2161 49.5422 79.2161 51.0237C79.2161 52.5051 77.9403 53.645 76.351 54.3777C74.7077 55.1353 72.4819 55.5871 70.0574 55.5871C67.633 55.5871 65.4072 55.1353 63.7639 54.3777C62.1746 53.645 60.8988 52.5051 60.8988 51.0237C60.8988 49.5422 62.1746 48.4023 63.7639 47.6696C65.4072 46.912 67.633 46.4602 70.0574 46.4602C72.4819 46.4602 74.7077 46.912 76.351 47.6696Z" fill="black"/>
<path d="M45.0498 53.914C40.3412 53.914 36.5241 52.1543 36.5241 49.9835C36.5241 48.9124 36.5241 46.5252 36.5241 46.5252C38.0715 45.7974 42.6646 46.0531 45.0498 46.0531C47.435 46.0531 52.0279 45.7974 53.5753 46.5252C53.5753 46.5252 53.5754 48.9124 53.5754 49.9835C53.5754 52.1543 49.7584 53.914 45.0498 53.914Z" fill="#D99530"/>
<path fill-rule="evenodd" clip-rule="evenodd" d="M52.9423 46.969C52.6624 46.8908 52.2976 46.8248 51.8539 46.774C51.1977 46.699 50.4271 46.6632 49.6163 46.6499C48.6017 46.6331 47.5737 46.6511 46.644 46.6673C46.0655 46.6774 45.5252 46.6868 45.0498 46.6868C44.5744 46.6868 44.034 46.6774 43.4555 46.6673C42.5258 46.6511 41.4978 46.6331 40.4832 46.6499C39.6724 46.6632 38.9017 46.699 38.2455 46.774C37.8018 46.8248 37.4369 46.8908 37.1571 46.969L37.1571 49.9843C37.1571 50.6736 37.7898 51.4989 39.2862 52.1887C40.7286 52.8537 42.7657 53.2818 45.0498 53.2818C47.3339 53.2818 49.3709 52.8537 50.8133 52.1887C52.3097 51.4989 52.9424 50.6736 52.9424 49.9843L52.9423 46.969ZM35.8911 46.526L35.8911 46.1242L36.2547 45.9532C36.7395 45.7252 37.4027 45.5962 38.1017 45.5163C38.8164 45.4345 39.6333 45.3978 40.4623 45.3841C41.485 45.3672 42.576 45.3859 43.53 45.4022C44.1001 45.412 44.6212 45.4209 45.0498 45.4209C45.4783 45.4209 45.9994 45.412 46.5695 45.4022C47.5235 45.3859 48.6144 45.3672 49.6371 45.3841C50.4661 45.3978 51.283 45.4345 51.9977 45.5163C52.6967 45.5962 53.3599 45.7252 53.8447 45.9532L54.2082 46.1242L54.2083 46.5259L54.2084 49.9843C54.2084 51.4658 52.9326 52.6057 51.3433 53.3384C49.7 54.096 47.4742 54.5478 45.0498 54.5478C42.6253 54.5478 40.3995 54.096 38.7562 53.3384C37.1669 52.6057 35.8911 51.4658 35.8911 49.9843L35.8911 46.526Z" fill="black"/>
<path d="M45.0504 50.4076C40.3418 50.4076 36.5247 48.6478 36.5247 46.4771C36.5247 44.3064 40.3418 42.5466 45.0504 42.5466C49.759 42.5466 53.576 44.3064 53.576 46.4771C53.576 48.6478 49.759 50.4076 45.0504 50.4076Z" fill="#FFFF52"/>
<path fill-rule="evenodd" clip-rule="evenodd" d="M50.8139 44.2728C49.3716 43.6079 47.3345 43.1798 45.0504 43.1798C42.7663 43.1798 40.7292 43.6079 39.2868 44.2728C37.7905 44.9627 37.1577 45.788 37.1577 46.4773C37.1577 47.1665 37.7905 47.9918 39.2868 48.6817C40.7292 49.3466 42.7663 49.7748 45.0504 49.7748C47.3345 49.7748 49.3716 49.3466 50.8139 48.6817C52.3103 47.9918 52.9431 47.1665 52.9431 46.4773C52.9431 45.788 52.3103 44.9627 50.8139 44.2728ZM51.3439 43.1232C52.9333 43.8559 54.209 44.9958 54.209 46.4773C54.209 47.9587 52.9333 49.0987 51.3439 49.8314C49.7006 50.589 47.4749 51.0407 45.0504 51.0407C42.6259 51.0407 40.4001 50.589 38.7568 49.8314C37.1675 49.0987 35.8917 47.9587 35.8917 46.4773C35.8917 44.9958 37.1675 43.8559 38.7568 43.1232C40.4001 42.3656 42.6259 41.9138 45.0504 41.9138C47.4749 41.9138 49.7006 42.3656 51.3439 43.1232Z" fill="black"/>
<path d="M55.2809 47.0947C50.5723 47.0947 46.7553 45.3349 46.7553 43.1642C46.7553 42.0931 46.7553 39.7058 46.7553 39.7058C48.3026 38.978 52.8958 39.2337 55.2809 39.2337C57.6661 39.2337 62.2591 38.978 63.8065 39.7058C63.8065 39.7058 63.8066 42.0931 63.8066 43.1642C63.8066 45.3349 59.9895 47.0947 55.2809 47.0947Z" fill="#D99530"/>
<path fill-rule="evenodd" clip-rule="evenodd" d="M63.1735 40.1489C62.8936 40.0708 62.5287 40.0047 62.085 39.954C61.4289 39.8789 60.6582 39.8432 59.8474 39.8298C58.8328 39.8131 57.8048 39.831 56.8752 39.8472C56.2967 39.8573 55.7563 39.8668 55.2809 39.8668C54.8055 39.8668 54.2651 39.8573 53.6867 39.8472C52.757 39.831 51.729 39.8131 50.7144 39.8298C49.9035 39.8432 49.1329 39.8789 48.4767 39.954C48.033 40.0047 47.6681 40.0708 47.3882 40.1489L47.3882 43.1642C47.3882 43.8535 48.021 44.6788 49.5174 45.3687C50.9597 46.0336 52.9968 46.4617 55.2809 46.4617C57.565 46.4617 59.6021 46.0336 61.0445 45.3687C62.5409 44.6788 63.1736 43.8535 63.1736 43.1642L63.1735 40.1489ZM46.1223 39.7059L46.1223 39.3041L46.4859 39.1331C46.9706 38.9051 47.6338 38.7761 48.3329 38.6962C49.0476 38.6145 49.8644 38.5777 50.6935 38.564C51.7162 38.5471 52.8072 38.5658 53.7612 38.5821C54.3312 38.5919 54.8524 38.6008 55.2809 38.6008C55.7095 38.6008 56.2306 38.5919 56.8007 38.5821C57.7547 38.5658 58.8456 38.5471 59.8683 38.564C60.6973 38.5777 61.5141 38.6145 62.2289 38.6962C62.9279 38.7761 63.5911 38.9051 64.0759 39.1331L64.4394 39.3041L64.4394 39.7058L64.4396 43.1642C64.4396 44.6457 63.1638 45.7856 61.5745 46.5183C59.9312 47.2759 57.7054 47.7277 55.2809 47.7277C52.8564 47.7277 50.6307 47.2759 48.9874 46.5183C47.398 45.7856 46.1223 44.6457 46.1223 43.1642L46.1223 39.7059Z" fill="black"/>
<path d="M55.2806 43.5885C50.572 43.5885 46.755 41.8287 46.755 39.658C46.755 37.4873 50.572 35.7275 55.2806 35.7275C59.9892 35.7275 63.8063 37.4873 63.8063 39.658C63.8063 41.8287 59.9892 43.5885 55.2806 43.5885Z" fill="#FFFF52"/>
<path fill-rule="evenodd" clip-rule="evenodd" d="M61.0443 37.4533C59.6019 36.7883 57.5648 36.3602 55.2807 36.3602C52.9966 36.3602 50.9595 36.7883 49.5172 37.4533C48.0208 38.1431 47.388 38.9684 47.388 39.6577C47.388 40.347 48.0208 41.1723 49.5172 41.8621C50.9595 42.5271 52.9966 42.9552 55.2807 42.9552C57.5648 42.9552 59.6019 42.5271 61.0443 41.8621C62.5406 41.1723 63.1734 40.347 63.1734 39.6577C63.1734 38.9684 62.5406 38.1431 61.0443 37.4533ZM61.5743 36.3036C63.1636 37.0363 64.4394 38.1762 64.4394 39.6577C64.4394 41.1392 63.1636 42.2791 61.5743 43.0118C59.931 43.7694 57.7052 44.2211 55.2807 44.2211C52.8562 44.2211 50.6305 43.7694 48.9871 43.0118C47.3978 42.2791 46.1221 41.1392 46.1221 39.6577C46.1221 38.1762 47.3978 37.0363 48.9871 36.3036C50.6305 35.546 52.8562 35.0942 55.2807 35.0942C57.7052 35.0942 59.931 35.546 61.5743 36.3036Z" fill="black"/>
<path d="M61.2416 58.2619C59.378 62.586 55.0629 64.8828 51.6037 63.3919C48.1444 61.901 46.8508 57.187 48.7144 52.8629C50.578 48.5388 54.893 46.242 58.3523 47.7329C61.8116 49.2238 63.1052 53.9378 61.2416 58.2619Z" fill="#D99530"/>
<path fill-rule="evenodd" clip-rule="evenodd" d="M58.1018 48.3145C55.0779 47.0112 51.076 48.9829 49.2957 53.1137C47.5154 57.2446 48.8303 61.5076 51.8542 62.8109C54.8781 64.1141 58.88 62.1424 60.6603 58.0116C62.4406 53.8808 61.1257 49.6177 58.1018 48.3145ZM48.1331 52.6127C50.08 48.0953 54.7082 45.4734 58.6029 47.1519C62.4975 48.8304 63.7698 53.9953 61.8229 58.5127C59.876 63.0301 55.2478 65.652 51.3532 63.9735C47.4585 62.295 46.1862 57.1301 48.1331 52.6127Z" fill="black"/>
<path d="M58.1101 56.9123C56.2465 61.2364 51.9314 63.5332 48.4721 62.0423C45.0128 60.5514 43.7193 55.8374 45.5829 51.5133C47.4465 47.1892 51.7615 44.8924 55.2208 46.3833C58.6801 47.8742 59.9737 52.5881 58.1101 56.9123Z" fill="#FFFF52"/>
<path fill-rule="evenodd" clip-rule="evenodd" d="M54.9704 46.9644C51.9464 45.6611 47.9445 47.6328 46.1642 51.7636C44.384 55.8945 45.6988 60.1575 48.7227 61.4608C51.7466 62.764 55.7486 60.7923 57.5288 56.6615C59.3091 52.5307 57.9943 48.2676 54.9704 46.9644ZM45.0017 51.2626C46.9486 46.7452 51.5767 44.1233 55.4714 45.8018C59.3661 47.4803 60.6383 52.6452 58.6914 57.1626C56.7445 61.68 52.1164 64.3019 48.2217 62.6234C44.327 60.9449 43.0548 55.78 45.0017 51.2626Z" fill="black"/>
<path d="M66.6477 51.6413C61.9391 51.6413 58.122 49.8816 58.122 47.7108C58.122 46.6397 58.122 44.2525 58.122 44.2525C59.6694 43.5247 64.2625 43.7804 66.6477 43.7804C69.0329 43.7804 73.6258 43.5247 75.1732 44.2525C75.1732 44.2525 75.1734 46.6397 75.1734 47.7108C75.1734 49.8816 71.3563 51.6413 66.6477 51.6413Z" fill="#D99530"/>
<path fill-rule="evenodd" clip-rule="evenodd" d="M74.5402 44.6955C74.2604 44.6174 73.8955 44.5513 73.4518 44.5006C72.7956 44.4256 72.025 44.3898 71.2142 44.3764C70.1996 44.3597 69.1716 44.3776 68.2419 44.3939C67.6635 44.404 67.1231 44.4134 66.6477 44.4134C66.1723 44.4134 65.6319 44.404 65.0534 44.3939C64.1237 44.3776 63.0957 44.3597 62.0811 44.3764C61.2703 44.3898 60.4996 44.4256 59.8434 44.5006C59.3997 44.5513 59.0349 44.6174 58.755 44.6955L58.755 47.7109C58.755 48.4001 59.3877 49.2255 60.8841 49.9153C62.3265 50.5803 64.3636 51.0084 66.6477 51.0084C68.9318 51.0084 70.9689 50.5803 72.4112 49.9153C73.9076 49.2255 74.5404 48.4001 74.5404 47.7109L74.5402 44.6955ZM57.489 44.2525L57.489 43.8507L57.8526 43.6797C58.3374 43.4517 59.0006 43.3228 59.6996 43.2428C60.4144 43.1611 61.2312 43.1243 62.0602 43.1107C63.0829 43.0938 64.1739 43.1124 65.1279 43.1288C65.698 43.1385 66.2191 43.1474 66.6477 43.1474C67.0762 43.1474 67.5974 43.1385 68.1674 43.1288C69.1214 43.1124 70.2124 43.0938 71.2351 43.1106C72.0641 43.1243 72.8809 43.1611 73.5956 43.2428C74.2946 43.3228 74.9578 43.4517 75.4426 43.6797L75.8061 43.8507L75.8062 44.2525L75.8063 47.7109C75.8063 49.1923 74.5305 50.3323 72.9412 51.065C71.2979 51.8226 69.0722 52.2743 66.6477 52.2743C64.2232 52.2743 61.9974 51.8226 60.3541 51.065C58.7648 50.3323 57.489 49.1923 57.489 47.7109L57.489 44.2525Z" fill="black"/>
<path d="M66.6468 48.1349C61.9382 48.1349 58.1211 46.3751 58.1211 44.2044C58.1211 42.0337 61.9382 40.2739 66.6468 40.2739C71.3554 40.2739 75.1724 42.0337 75.1724 44.2044C75.1724 46.3751 71.3554 48.1349 66.6468 48.1349Z" fill="#FFFF52"/>
<path fill-rule="evenodd" clip-rule="evenodd" d="M72.4102 41.9999C70.9679 41.3349 68.9308 40.9068 66.6467 40.9068C64.3626 40.9068 62.3255 41.3349 60.8831 41.9999C59.3868 42.6897 58.754 43.515 58.754 44.2043C58.754 44.8936 59.3868 45.7189 60.8831 46.4087C62.3255 47.0737 64.3626 47.5018 66.6467 47.5018C68.9308 47.5018 70.9679 47.0737 72.4102 46.4087C73.9066 45.7189 74.5394 44.8936 74.5394 44.2043C74.5394 43.515 73.9066 42.6897 72.4102 41.9999ZM72.9403 40.8502C74.5296 41.5829 75.8053 42.7228 75.8053 44.2043C75.8053 45.6858 74.5296 46.8257 72.9403 47.5584C71.2969 48.316 69.0712 48.7678 66.6467 48.7678C64.2222 48.7678 61.9965 48.316 60.3531 47.5584C58.7638 46.8257 57.488 45.6858 57.488 44.2043C57.488 42.7228 58.7638 41.5829 60.3531 40.8502C61.9965 40.0926 64.2222 39.6409 66.6467 39.6409C69.0712 39.6409 71.2969 40.0926 72.9403 40.8502Z" fill="black"/>
<path d="M74.2127 46.8542C69.7206 45.4428 66.6065 42.6199 67.2571 40.5489C67.5782 39.5271 68.2938 37.2496 68.2938 37.2496C69.9881 37.0191 74.2934 38.6398 76.5689 39.3547C78.8444 40.0696 83.3029 41.2024 84.561 42.3605C84.561 42.3605 83.8455 44.6381 83.5245 45.6599C82.8738 47.7309 78.7048 48.2656 74.2127 46.8542Z" fill="#D99530"/>
<path fill-rule="evenodd" clip-rule="evenodd" d="M83.8241 42.5935C83.5805 42.435 83.2522 42.2626 82.8441 42.0812C82.2406 41.813 81.5161 41.5479 80.7466 41.2921C79.7837 40.972 78.7976 40.681 77.9058 40.4178C77.3509 40.254 76.8325 40.101 76.379 39.9585C75.9255 39.816 75.4128 39.6451 74.8639 39.4621C73.9818 39.1679 73.0064 38.8427 72.0335 38.5545C71.2559 38.3242 70.51 38.1273 69.8615 38.0022C69.423 37.9176 69.0551 37.8713 68.7646 37.862L67.8608 40.7387C67.6542 41.3962 68.0105 42.3733 69.2313 43.4799C70.408 44.5466 72.2231 45.5656 74.4022 46.2503C76.5813 46.9349 78.653 47.1371 80.2284 46.9351C81.8627 46.7255 82.7138 46.1278 82.9204 45.4702L83.8241 42.5935ZM67.6897 37.0598L67.8101 36.6765L68.2082 36.6224C68.7391 36.5502 69.4104 36.6259 70.1013 36.7592C70.8077 36.8955 71.598 37.1052 72.393 37.3407C73.3737 37.6311 74.4089 37.9759 75.3142 38.2775C75.8551 38.4576 76.3496 38.6223 76.7585 38.7508C77.1673 38.8792 77.6672 39.027 78.2139 39.1885C79.129 39.4589 80.1753 39.7681 81.1459 40.0907C81.9327 40.3523 82.701 40.6322 83.3583 40.9244C84.0013 41.2102 84.5953 41.532 84.9895 41.8948L85.285 42.1669L85.1646 42.5502L84.1281 45.8496C83.6841 47.263 82.1253 47.9681 80.3894 48.1907C78.5946 48.4209 76.3358 48.1848 74.0228 47.458C71.7097 46.7313 69.7217 45.6332 68.3811 44.4178C67.0844 43.2425 66.209 41.7725 66.6531 40.3592L67.6897 37.0598Z" fill="black"/>
<path d="M75.2633 43.5087C70.7712 42.0973 67.6571 39.2744 68.3078 37.2035C68.9584 35.1325 73.1274 34.5978 77.6195 36.0092C82.1116 37.4206 85.2257 40.2435 84.5751 42.3144C83.9244 44.3854 79.7554 44.9201 75.2633 43.5087Z" fill="#FFFF52"/>
<path fill-rule="evenodd" clip-rule="evenodd" d="M82.6008 39.3835C81.4241 38.3168 79.609 37.2978 77.4299 36.6132C75.2508 35.9285 73.1791 35.7263 71.6037 35.9284C69.9694 36.138 69.1183 36.7357 68.9117 37.3933C68.7051 38.0508 69.0614 39.0279 70.2822 40.1345C71.4589 41.2012 73.274 42.2203 75.4531 42.9049C77.6322 43.5895 79.7039 43.7917 81.2793 43.5897C82.9137 43.3801 83.7647 42.7824 83.9713 42.1248C84.1779 41.4672 83.8216 40.4902 82.6008 39.3835ZM83.4511 38.4456C84.7477 39.621 85.6231 41.0909 85.1791 42.5043C84.735 43.9176 83.1762 44.6227 81.4403 44.8453C79.6455 45.0755 77.3867 44.8394 75.0737 44.1127C72.7606 43.3859 70.7726 42.2878 69.432 41.0725C68.1353 39.8971 67.2599 38.4272 67.704 37.0138C68.148 35.6005 69.7068 34.8953 71.4427 34.6727C73.2375 34.4425 75.4964 34.6787 77.8094 35.4054C80.1224 36.1321 82.1104 37.2303 83.4511 38.4456Z" fill="black"/>
<defs>
<radialGradient id="paint0_radial_24894_4477" cx="0" cy="0" r="1" gradientUnits="userSpaceOnUse" gradientTransform="translate(64.3285 57.2401) rotate(90) scale(57.2401 57.4025)">
<stop stop-color="#EBF479"/>
<stop offset="1" stop-color="#EBF479" stop-opacity="0"/>
</radialGradient>
</defs>
</svg>
