<svg width="93" height="32" viewBox="0 0 93 32" fill="none" xmlns="http://www.w3.org/2000/svg">
<rect x="3.5" y="0.5" width="89" height="31" rx="15.5" fill="#DAA56B" stroke="black"/>
<rect x="6.5" y="3.5" width="83" height="25" rx="12.5" fill="#A6703D" stroke="#924E00"/>
<path d="M31.5002 16C31.5002 24.0464 25.4854 30.5 18.148 30.5H13.7416V1.5H18.148C25.4854 1.5 31.5002 7.95365 31.5002 16Z" fill="#DD7D00" stroke="#924E00"/>
<path d="M27.0862 16C27.0862 24.0484 21.096 30.5 13.7931 30.5C6.49017 30.5 0.5 24.0484 0.5 16C0.5 7.95156 6.49017 1.5 13.7931 1.5C21.096 1.5 27.0862 7.95156 27.0862 16Z" fill="#FCD824" stroke="#924E00"/>
<path d="M23.6339 15.933C23.6339 22.4329 19.0423 27.5837 13.515 27.5837C7.98761 27.5837 3.39606 22.4329 3.39606 15.933C3.39606 9.43303 7.98761 4.28223 13.515 4.28223C19.0423 4.28223 23.6339 9.43303 23.6339 15.933Z" fill="#FCBE24" stroke="#924E00"/>
<path d="M18.6289 18.3971C19.2729 19.2426 19.4079 20.1617 19.034 21.1545C18.66 22.1471 17.9178 22.7983 16.8077 23.1079C16.2767 23.256 15.7351 23.2617 15.1828 23.1253C14.6305 22.9889 14.1778 22.7307 13.8247 22.3508C12.544 22.913 11.3408 22.8855 10.215 22.2683C9.08932 21.6511 8.41281 20.648 8.1856 19.2592C7.62528 19.125 7.14905 18.8606 6.75691 18.4659C6.36478 18.0713 6.08195 17.5736 5.90845 16.9727C5.62993 16.0082 5.85155 15.105 6.57333 14.263C7.2951 13.421 8.1326 13.0551 9.08583 13.1651L10.7603 13.3646C10.9405 12.7846 11.2516 12.2665 11.6935 11.8101C12.1355 11.3537 12.6576 11.0245 13.2599 10.8223L12.9038 9.58902C12.8444 9.38347 12.8637 9.19443 12.9616 9.02189C13.0596 8.84936 13.2131 8.73392 13.4224 8.67559C13.6315 8.61726 13.8239 8.63622 13.9994 8.73248C14.175 8.82874 14.2925 8.97965 14.3519 9.1852L14.7628 10.6082C15.4084 10.6161 15.9779 10.752 16.4713 11.0159C16.9648 11.2798 17.4442 11.7057 17.9095 12.2935L19.3093 11.9031C19.5185 11.8448 19.7109 11.8637 19.8864 11.96C20.062 12.0562 20.1794 12.2072 20.2389 12.4127C20.2982 12.6183 20.2789 12.8073 20.1809 12.9799C20.083 13.1523 19.9294 13.2678 19.7203 13.3261L18.4653 13.6761C18.6065 14.2859 18.6037 14.8933 18.4567 15.498C18.3097 16.1028 18.0325 16.6329 17.625 17.0882L18.6289 18.3971ZM12.8078 20.6355C12.6845 20.2086 12.6008 19.7834 12.5568 19.36C12.5128 18.9367 12.5084 18.515 12.5437 18.0952C12.2237 18.3723 11.8609 18.6059 11.4551 18.796C11.0492 18.986 10.6326 19.1235 10.2051 19.2086C10.3832 19.8253 10.7046 20.261 11.1694 20.5157C11.6341 20.7706 12.1803 20.8105 12.8078 20.6355ZM9.89855 17.2439C10.4134 17.1003 10.8498 16.9104 11.2074 16.6739C11.5651 16.4375 12.0029 16.0421 12.5208 15.4875L9.28212 15.1094C8.76075 15.0497 8.36366 15.1647 8.09089 15.4543C7.81811 15.744 7.74337 16.1023 7.86665 16.5291C7.98537 16.9403 8.20889 17.2026 8.53721 17.316C8.86553 17.4295 9.3193 17.4054 9.89855 17.2439ZM16.2597 21.2105C16.662 21.0984 16.9479 20.8691 17.1174 20.5229C17.2868 20.1766 17.2638 19.8712 17.0483 19.6067L14.8136 16.7446C14.6541 17.3358 14.5628 17.908 14.54 18.4611C14.5171 19.0141 14.5651 19.4962 14.6838 19.9073C14.8345 20.4291 15.0423 20.8026 15.3072 21.0276C15.5722 21.2527 15.8897 21.3137 16.2597 21.2105ZM16.3322 15.5011C16.4474 15.2981 16.5157 15.0527 16.5369 14.7649C16.558 14.4771 16.5276 14.1908 16.4454 13.9062C16.2993 13.4003 16.0071 13.0204 15.5687 12.7668C15.1304 12.5132 14.6618 12.4559 14.163 12.595C13.8734 12.6758 13.6135 12.7995 13.3835 12.9662C13.1534 13.1329 12.975 13.3278 12.8483 13.5511L14.9774 13.88L16.3322 15.5011Z" fill="#451D07"/>
</svg>
