<svg width="93" height="32" viewBox="0 0 93 32" fill="none" xmlns="http://www.w3.org/2000/svg">
<rect x="3.12305" y="0.5" width="89" height="31" rx="15.5" fill="#F4A634" stroke="black"/>
<path d="M5.62305 16C5.62305 8.8203 11.4433 3 18.623 3H76.623C83.8027 3 89.623 8.8203 89.623 16V16C89.623 23.1797 83.8027 29 76.623 29H18.623C11.4433 29 5.62305 23.1797 5.62305 16V16Z" fill="black"/>
<path d="M31.5 16C31.5 24.0464 25.4853 30.5 18.1478 30.5H13.7415V1.5H18.1478C25.4853 1.5 31.5 7.95365 31.5 16Z" fill="black" stroke="#F39C36"/>
<path d="M27.086 16C27.086 24.0484 21.0959 30.5 13.793 30.5C6.49014 30.5 0.5 24.0484 0.5 16C0.5 7.95156 6.49014 1.5 13.793 1.5C21.0959 1.5 27.086 7.95156 27.086 16Z" fill="url(#paint0_linear_1_12)" stroke="black"/>
<path d="M23.6336 15.933C23.6336 22.4329 19.042 27.5837 13.5147 27.5837C7.98741 27.5837 3.39589 22.4329 3.39589 15.933C3.39589 9.43303 7.98741 4.28223 13.5147 4.28223C19.042 4.28223 23.6336 9.43303 23.6336 15.933Z" fill="black" stroke="#F39C36"/>
<path d="M13.7671 22.0053C13.5942 21.8257 13.443 21.6273 13.3163 21.4139C12.9943 20.9182 12.4548 19.7542 12.4534 18.4743C11.3145 19.125 10.0008 19.2517 9.39664 19.2261C9.1686 19.2257 8.94122 19.2022 8.71812 19.156C8.97136 20.3631 9.60606 21.2442 10.6222 21.7992C11.6086 22.3381 12.6568 22.4068 13.7671 22.0053ZM17.8546 16.7041C18.1802 16.2997 18.4107 15.8301 18.5297 15.3286C18.671 14.7507 18.6738 14.1703 18.538 13.5874L19.7422 13.2533C19.8351 13.2304 19.9221 13.1892 19.9981 13.1323C20.0741 13.0753 20.1374 13.0037 20.184 12.9218C20.2304 12.84 20.2592 12.7498 20.2687 12.6566C20.2781 12.5635 20.2681 12.4695 20.2391 12.3803C20.216 12.2894 20.1742 12.2041 20.1162 12.1296C20.0582 12.0551 19.9853 11.993 19.9019 11.9471C19.8182 11.9017 19.7259 11.8734 19.6306 11.8641C19.5353 11.8549 19.4391 11.8648 19.3479 11.8933L18.0047 12.2664C17.5583 11.7047 17.0984 11.2976 16.6249 11.0452C16.1515 10.7933 15.6051 10.6635 14.9858 10.6559L14.5915 9.29519C14.5682 9.20437 14.5262 9.11917 14.4681 9.0448C14.41 8.97044 14.337 8.90848 14.2536 8.86273C14.1699 8.81725 14.0776 8.789 13.9823 8.77974C13.887 8.77047 13.7908 8.78037 13.6996 8.80885C13.6069 8.83153 13.5199 8.8725 13.4439 8.92925C13.368 8.98601 13.3046 9.05735 13.2578 9.13891C13.2112 9.22079 13.1823 9.31114 13.1727 9.40439C13.1631 9.49765 13.1731 9.59183 13.2021 9.68116L13.5434 10.86C12.9717 11.0506 12.4561 11.3747 12.0412 11.8043C11.7048 12.1474 11.4377 12.5497 11.2539 12.9899L15.2727 13.4749L17.8546 16.7041ZM9.38494 13.4156C8.68538 13.4182 8.01553 13.6927 7.52275 14.1787C7.02996 14.6648 6.7546 15.3225 6.75725 16.0073C6.75989 16.692 7.04033 17.3477 7.53686 17.8301C8.03339 18.3125 8.70534 18.582 9.40489 18.5794H9.42003C10.0339 18.6077 11.5265 18.442 12.5889 17.6007L14.6988 14.0569L9.38494 13.4156ZM13.1532 17.9375L15.2266 14.455L18.4657 18.5215C18.8129 19.116 18.9047 19.8212 18.7207 20.482C18.5367 21.1427 18.0922 21.7049 17.4848 22.0447C16.8774 22.3846 16.1569 22.4744 15.4819 22.2943C14.8069 22.1143 14.2326 21.6791 13.8854 21.0845L13.8778 21.0711C13.5496 20.5706 12.9599 19.2456 13.1532 17.9375Z" fill="url(#paint1_linear_1_12)"/>
<defs>
<linearGradient id="paint0_linear_1_12" x1="44.1521" y1="16.2133" x2="-15.0495" y2="16.9773" gradientUnits="userSpaceOnUse">
<stop stop-color="#F8F29C"/>
<stop offset="0.165" stop-color="#F6DB2A"/>
<stop offset="0.333" stop-color="#F4A435"/>
<stop offset="0.55" stop-color="#E85A46"/>
<stop offset="0.699" stop-color="#B93483"/>
<stop offset="0.867" stop-color="#502B6E"/>
<stop offset="1" stop-color="#2A2136"/>
</linearGradient>
<linearGradient id="paint1_linear_1_12" x1="28.3881" y1="15.6775" x2="-0.614979" y2="16.0818" gradientUnits="userSpaceOnUse">
<stop stop-color="#F8F29C"/>
<stop offset="0.165" stop-color="#F6DB2A"/>
<stop offset="0.333" stop-color="#F4A435"/>
<stop offset="0.55" stop-color="#E85A46"/>
<stop offset="0.699" stop-color="#B93483"/>
<stop offset="0.867" stop-color="#502B6E"/>
<stop offset="1" stop-color="#2A2136"/>
</linearGradient>
</defs>
</svg>
