<svg width="53" height="40" viewBox="0 0 53 40" fill="none" xmlns="http://www.w3.org/2000/svg">
<path d="M30.1451 27.6935C29.9822 28.2244 29.4209 28.0689 29.0267 27.9755C28.3182 27.8082 27.6078 27.5457 27.0783 27.0597C26.3879 26.4238 25.8564 26.3577 25.1339 27.0461C24.5726 27.5827 23.7964 27.8783 22.9985 27.9969C22.6601 28.0475 22.1984 28.1641 22.055 27.7111C21.9 27.223 22.3019 27.0129 22.6979 26.902C23.3746 26.7135 23.9757 26.3946 24.5688 26.0348C25.4384 25.506 25.5299 24.7262 25.4622 23.8456C25.4244 23.373 25.1021 23.3807 24.7698 23.3419C23.8561 23.2348 23.0204 22.9432 22.4173 22.2334C21.6095 21.2767 21.9197 20.4505 23.1458 20.1762C24.1249 19.9584 25.116 19.9681 26.1827 19.974C27.0704 19.9429 28.0276 19.9681 28.971 20.1801C30.1949 20.4542 30.4856 21.2942 29.6915 22.2472C29.1799 22.8615 28.4596 23.1103 27.7172 23.2894C26.6585 23.546 26.3061 24.6154 27.0365 25.4866C27.5322 26.0776 28.1928 26.4432 28.9093 26.7212C29.0627 26.7817 29.2297 26.805 29.385 26.8593C29.7969 27.0033 30.3065 27.1725 30.1451 27.6935Z" fill="#FF7807"/>
<path d="M30.1451 27.6935C29.9822 28.2244 29.4209 28.0689 29.0267 27.9755C28.3182 27.8082 27.6078 27.5457 27.0783 27.0597C26.3879 26.4238 25.8564 26.3577 25.1339 27.0461C24.5726 27.5827 23.7964 27.8783 22.9985 27.9969C22.6601 28.0475 22.1984 28.1641 22.055 27.7111C21.9 27.223 22.3019 27.0129 22.6979 26.902C23.3746 26.7135 23.9757 26.3946 24.5688 26.0348C25.4384 25.506 25.5299 24.7262 25.4622 23.8456C25.4244 23.373 25.1021 23.3807 24.7698 23.3419C23.8561 23.2348 23.0204 22.9432 22.4173 22.2334C21.6095 21.2767 21.9197 20.4505 23.1458 20.1762C24.1249 19.9584 25.116 19.9681 26.1827 19.974C27.0704 19.9429 28.0276 19.9681 28.971 20.1801C30.1949 20.4542 30.4856 21.2942 29.6915 22.2472C29.1799 22.8615 28.4596 23.1103 27.7172 23.2894C26.6585 23.546 26.3061 24.6154 27.0365 25.4866C27.5322 26.0776 28.1928 26.4432 28.9093 26.7212C29.0627 26.7817 29.2297 26.805 29.385 26.8593C29.7969 27.0033 30.3065 27.1725 30.1451 27.6935Z" fill="#FF7807"/>
<path d="M45.7269 13.2225C44.9241 11.2618 43.8879 9.42903 42.4283 7.85165C42.0625 7.45665 42.2751 7.23891 42.5785 6.98317C43.5326 6.17425 44.9687 6.05654 46.0865 6.77268C47.5092 7.68623 48.2137 9.02218 48.34 10.5762C48.3223 11.9373 47.8004 12.909 46.6337 13.5247C46.2084 13.7485 45.9378 13.7382 45.7269 13.2225ZM38.1484 13.2414C38.1484 14.6298 37.1481 15.7641 35.9276 15.7641L31.6063 15.8295C29.6932 15.8295 28.0553 14.2697 27.7237 12.1303L27.8306 10.6315H24.3195L24.4266 12.1303C24.0936 14.2697 22.4556 15.8295 20.5423 15.8295L16.2227 15.7641C15.0007 15.7641 14.0001 14.6298 14.0001 13.2414V10.3772C14.0001 9.34331 14.7464 8.49656 15.6576 8.49656H36.4909C37.4037 8.49656 38.1484 9.34331 38.1484 10.3772V13.2414ZM34.3966 28.1283C33.4259 30.6699 31.5767 32.24 28.8801 32.8077C26.7084 33.2637 24.5172 33.2637 22.393 32.59C19.3769 31.6285 17.8415 29.402 17.223 26.4783C16.8646 24.7819 16.8646 23.0681 16.9701 21.3499C17.0283 20.3711 17.5084 19.5679 18.1283 18.8288C18.7421 18.4527 19.3532 18.0792 19.964 17.7045C23.7309 16.6938 27.5229 16.5499 31.318 17.494C33.9758 18.1577 35.125 19.6393 35.1949 22.297C35.2484 24.2853 35.1176 26.243 34.3966 28.1283ZM9.1037 8.52714C7.9829 9.90533 7.10142 11.4217 6.46215 13.0599C6.1796 13.7833 5.82904 13.763 5.28329 13.407C4.30069 12.7708 3.75965 11.9067 3.78787 10.7273C3.86673 9.07308 4.56371 7.73554 5.98659 6.81191C6.6955 6.35134 7.48328 6.13943 8.34686 6.38775C9.92875 6.84514 10.0966 7.30554 9.1037 8.52714ZM47.4482 17.9283C47.2832 17.4447 47.3471 17.2296 47.9178 17.0262C50.656 16.0446 52.1396 14.091 52.1128 11.3912C52.0832 8.32814 50.8077 5.7849 48.2926 3.94189C45.4964 1.89405 42.1977 2.36028 40.0438 5.04561C39.705 5.46836 39.4879 5.42771 39.0791 5.18947C38.0802 4.60713 37.0114 4.16847 35.8965 3.83868C34.0518 3.29415 34.0518 3.29415 34.8855 1.61958C32.8418 1.53386 30.8377 1.6254 28.84 1.82141C28.3821 1.86648 28.067 1.90571 28.137 1.27529C28.296 -0.169704 28.2722 -0.171117 26.8064 0.225302C26.6132 0.277618 26.42 0.31685 26.2266 0.368987C21.7212 1.59183 17.3004 3.04884 13.135 5.15324C12.5374 5.45228 12.3176 5.38406 11.9547 4.90352C10.498 2.97479 8.00805 2.23391 5.67275 2.98928C2.48726 4.01312 -0.0352625 7.74579 0.000372947 11.3707C0.0256977 13.9865 1.47337 16.1026 3.993 16.9523C4.78837 17.2224 4.82998 17.481 4.59211 18.1738C3.47728 21.4068 2.50517 24.6773 1.63689 27.9772C0.97248 30.5073 2.09039 33.1709 4.39439 34.494C10.394 37.9375 18.0361 40 26.3605 40C26.4377 40 26.5152 40 26.591 39.9984C34.7043 39.9622 42.1637 37.9636 48.0667 34.6421C50.2057 33.4365 51.261 30.9953 50.6531 28.6569C49.7151 25.0462 48.6613 21.4676 47.4482 17.9283Z" fill="#FF7807"/>
</svg>
