<svg width="43" height="43" viewBox="0 0 43 43" fill="none" xmlns="http://www.w3.org/2000/svg">
  <rect width="43" height="43" rx="10" fill="url(#paint0_linear_22142_369)"/>
  <path fill-rule="evenodd" clip-rule="evenodd" d="M35.6508 26.1365C35.831 26.6122 35.9698 28.7826 35.9949 30.52V30.5207C36.0215 32.3143 35.9555 34.6115 35.4971 35.371C34.8917 36.3733 31.9845 37.5225 29.652 38.3099C29.4493 38.3783 29.2391 38.4115 29.0296 38.4101C28.7772 38.4088 28.5269 38.3573 28.2908 38.2564L26.5284 37.5021C25.87 37.2202 25.4496 36.5962 25.4584 35.9118L25.4639 35.4856L17.8537 35.4402V35.8664C17.8543 36.5454 17.4517 37.1626 16.8285 37.4392L15.1729 38.1737C14.9444 38.2746 14.7022 38.3248 14.4601 38.3234C14.258 38.3221 14.056 38.2855 13.8615 38.2123C11.6868 37.3964 8.97754 36.2113 8.4218 35.1989C8.00415 34.438 7.97014 32.1443 8.01504 30.3547C8.05857 28.6193 8.21298 26.455 8.38575 25.9834C8.45922 25.7835 8.57689 25.5931 8.7347 25.4182C9.00339 25.1207 9.38771 24.9758 9.78836 25.0191C9.79191 25.0195 9.79547 25.02 9.79902 25.0205C9.80227 25.021 9.80552 25.0215 9.80876 25.0219C9.04692 22.6028 9.75707 20.1647 10.3271 18.7891C11.3046 16.4297 11.5712 15.4485 11.6433 15.069C10.6434 14.5642 9.85638 14.0539 9.30064 13.5512C8.63879 12.9514 8.415 12.0374 8.70206 11.1063C10.0169 6.84007 12.2664 5.14941 13.4901 4.52126C14.3682 4.06997 15.2362 3.8965 15.7545 4.06862C16.9279 4.45689 17.1701 6.78178 17.3245 9.11142L17.4428 9.20901C18.7658 9.03757 21.1799 9.01859 21.7547 9.01656C22.3703 9.01859 24.9687 9.03757 26.3427 9.21375C26.3659 9.19454 26.3829 9.18056 26.4003 9.16632C26.416 9.15343 26.4319 9.14034 26.4529 9.12296C26.6162 6.78654 26.8692 4.45214 28.097 4.0659C28.9718 3.79147 30.4866 4.4142 31.5307 5.17177C32.7408 6.05064 34.4101 7.79211 35.4841 11.0989C35.7896 12.038 35.5535 12.9576 34.8535 13.5593C34.2693 14.0614 33.4408 14.5709 32.3878 15.0751C32.466 15.4587 32.7504 16.4412 33.7713 18.7804C34.3788 20.1715 35.1515 22.6848 34.2734 25.1594C34.6597 25.1438 35.0237 25.2895 35.2842 25.5653C35.4508 25.7429 35.5746 25.9346 35.6508 26.1365ZM12.5493 14.4314C12.733 14.6448 13.0098 14.968 11.2671 19.1747H11.2678C10.6522 20.6607 9.84685 23.5223 11.363 25.999C12.3847 27.6686 14.2798 28.8917 17.0197 29.6567C19.9589 30.478 23.0621 30.5112 26.0387 29.8343C29.418 29.0652 31.696 27.7283 32.834 25.8397C34.3026 23.4017 33.4679 20.6234 32.8401 19.1842C30.9988 14.9654 31.294 14.6381 31.4893 14.4219L31.5593 14.3447L31.6545 14.3013C32.7687 13.7897 33.6217 13.2822 34.1903 12.7936C34.7386 12.3226 34.6026 11.6701 34.5182 11.4112C33.5285 8.36267 32.0225 6.78112 30.9335 5.99102C29.6622 5.06811 28.6208 4.96442 28.4044 5.03218C28.3902 5.03625 28.0474 5.15891 27.7746 6.5121C27.5954 7.39969 27.5226 8.42956 27.4743 9.11263L27.474 9.11753C27.4154 9.94286 27.4032 10.115 27.1433 10.2695C27.0005 10.3542 26.825 10.365 26.6726 10.2986L26.6679 10.2966C26.3597 10.176 24.3919 10.0384 21.756 10.0296C19.2767 10.0377 17.4149 10.1739 17.1129 10.2946C16.9612 10.3664 16.783 10.3582 16.6388 10.2715H16.6375C16.3749 10.1184 16.3646 9.9653 16.3076 9.11684L16.3075 9.11617L16.3069 9.10651C16.2606 8.42208 16.1911 7.39423 16.0218 6.50735C15.7638 5.1588 15.4411 5.03193 15.4349 5.0295L15.4348 5.02947C15.4144 5.02269 15.3702 5.0166 15.3028 5.0166C15.0818 5.0166 14.6145 5.08368 13.9567 5.42113C12.8752 5.9761 10.8808 7.49193 9.67476 11.4031C9.59381 11.6653 9.46185 12.3274 9.98562 12.8011C10.523 13.2883 11.3304 13.7937 12.3854 14.3047L12.4806 14.3508L12.5493 14.4314ZM14.8185 37.3809L16.4742 36.6463L16.4728 36.6477C16.7823 36.5108 16.9816 36.2045 16.9809 35.8678V31.0241C16.9809 30.8689 16.915 30.6657 16.8109 30.4996C14.0696 29.6378 11.3556 27.9356 10.4937 26.5282C10.4108 26.3927 10.3339 26.2565 10.2625 26.1195C9.5666 25.6235 9.20405 26.2829 9.20405 26.2829C9.11154 26.537 8.93809 28.3015 8.88571 30.3817C8.81769 33.0997 8.99658 34.438 9.18636 34.7836C9.47954 35.3175 11.2018 36.2479 13.6343 37.1965L13.6663 31.8827C13.6676 31.6428 13.8635 31.4497 14.1043 31.4511C14.3451 31.4524 14.539 31.6476 14.5376 31.8874L14.5043 37.454C14.6111 37.4499 14.7179 37.4256 14.8185 37.3809ZM17.8537 34.7015L25.4768 34.747L25.4762 34.7463L25.519 31.0668C25.5204 30.9869 25.5292 30.8067 25.5435 30.7334C23.1695 31.1847 20.448 31.2904 17.8319 30.6731C17.8455 30.7531 17.8537 30.9388 17.8537 31.0215V34.7015ZM29.8969 37.3063C32.545 36.3794 34.4271 35.4585 34.7508 34.9225C34.957 34.5816 35.1631 33.2515 35.1243 30.5417C35.0944 28.4668 34.9311 26.7003 34.8359 26.4421C34.8005 26.348 34.7373 26.2531 34.6495 26.1595C34.5685 26.0742 34.4543 26.0268 34.3292 26.0261C34.3114 26.0261 34.2938 26.0268 34.2754 26.0288C34.1339 26.043 33.7727 26.2524 33.7054 26.3608C32.7857 27.8882 30.1111 29.677 27.0883 30.4861C26.9529 30.522 26.8155 30.5573 26.6767 30.5912C26.5053 30.7016 26.3938 30.8805 26.391 31.0784L26.3305 35.9219C26.3264 36.254 26.5393 36.5609 26.8733 36.704L28.6357 37.4581C28.7575 37.5103 28.8908 37.5374 29.0241 37.5394L29.0575 31.9728C29.0589 31.7329 29.2547 31.5398 29.4955 31.5412C29.7363 31.5425 29.9302 31.7377 29.9288 31.9775L29.8969 37.3063ZM30.8367 13.0183L30.7435 12.8889C30.1259 12.031 29.3961 11.2586 28.5736 10.5924C28.5736 10.5924 28.7383 7.74307 29.5015 7.16439C30.4429 6.45018 33.2733 10.7795 32.957 11.5187C32.957 11.5187 32.978 11.928 30.8367 13.0183ZM28.0549 31.8057L27.4012 31.6031C27.238 31.5522 27.0741 31.679 27.0741 31.8558V35.7833C27.0741 35.9927 27.1965 36.1811 27.3835 36.2597L27.9447 36.4955C28.1502 36.5815 28.3753 36.425 28.3753 36.1946V32.2522C28.3753 32.0462 28.2454 31.8646 28.0549 31.8057ZM15.2508 10.7735C14.3652 11.4993 13.5768 12.3354 12.9054 13.2617L12.9047 13.2624C10.7389 12.1552 11.0192 11.8313 11.0192 11.8313C10.6995 11.0799 13.5625 6.68416 14.5148 7.40921C15.2869 7.9967 15.3338 10.7058 15.3338 10.7058L15.2508 10.7735ZM30.3656 19.1888H13.3827C13.1399 19.1888 12.961 19.4144 13.0174 19.6496C13.2548 20.6375 14.0724 22.8757 16.6253 22.9706C19.0081 23.0593 20.1195 21.7604 20.6324 20.6606H23.1132C23.5771 21.6932 24.5158 22.9014 26.3768 22.9706C29.5956 23.0905 30.4949 20.6768 30.7323 19.6455C30.786 19.4117 30.6071 19.1888 30.3656 19.1888ZM20.7651 20.3475C20.8392 20.1551 20.8957 19.9741 20.9379 19.8156H22.8112C22.854 19.9741 22.9105 20.1551 22.9833 20.3475H20.7651ZM16.059 31.602L15.4482 31.8046C15.2707 31.8636 15.1489 32.0452 15.1489 32.2511V36.1935C15.1489 36.4239 15.3584 36.5805 15.5509 36.4944L16.0754 36.2586C16.2502 36.18 16.3645 35.9916 16.3645 35.7822V31.8548C16.3645 31.6779 16.2114 31.5512 16.059 31.602ZM17.9588 17.1241L17.7724 17.4635C17.618 17.7441 17.788 18.0822 18.1227 18.1615L20.1423 18.6399C20.4463 18.7117 20.7626 18.5715 20.8871 18.3099L21.0136 18.0429C21.1306 17.7955 21 17.509 20.7232 17.41C20.1362 17.1999 19.1682 16.8801 18.5689 16.8218C18.3159 16.7974 18.0731 16.9181 17.9595 17.1247L17.9588 17.1241ZM25.98 17.3133L25.814 16.9739C25.7133 16.7672 25.4964 16.6473 25.2712 16.6716C24.7372 16.7299 23.8747 17.0498 23.3516 17.2598C23.1054 17.3587 22.9891 17.6454 23.0931 17.8927L23.2054 18.1597C23.3156 18.4212 23.5979 18.5615 23.8686 18.4897L25.6684 18.0113C25.9664 17.932 26.1174 17.5939 25.98 17.3133ZM23.6828 27.2588L22.1904 26.4477V24.6425L23.4427 23.7406C23.5522 23.6613 23.5964 23.5271 23.5549 23.399C23.5135 23.271 23.3985 23.1877 23.2631 23.1877H20.4818C20.3464 23.1877 20.2321 23.2703 20.1899 23.399C20.1484 23.5278 20.1919 23.6613 20.3021 23.7406L21.5544 24.6425V26.4381L20.0654 27.1666C19.9892 27.2039 19.9321 27.2683 19.9049 27.3482C19.8777 27.4282 19.8831 27.5142 19.9205 27.5901C19.9579 27.666 20.0226 27.7229 20.1035 27.7501C20.1838 27.7771 20.2702 27.7717 20.3464 27.7345L21.8653 26.9911L23.3869 27.8184C23.4332 27.8436 23.4862 27.8571 23.5393 27.8571C23.6841 27.8571 23.8107 27.7595 23.8474 27.6192C23.8834 27.479 23.8161 27.3306 23.6835 27.2581L23.6828 27.2588Z" fill="#F5C142"/>
  <defs>
    <linearGradient id="paint0_linear_22142_369" x1="21.5" y1="0" x2="21.5" y2="43" gradientUnits="userSpaceOnUse">
      <stop stop-color="#292C47"/>
      <stop offset="1" stop-color="#121425"/>
    </linearGradient>
  </defs>
</svg>
