<svg width="74" height="74" viewBox="0 0 74 74" fill="none" xmlns="http://www.w3.org/2000/svg">
<g id="Red Logomark for white and dark backgrounds 1" clip-path="url(#clip0_136_4664)">
<path id="Vector" d="M37 10.4354C51.6712 10.4354 63.5646 22.3288 63.5646 37C63.5646 51.6712 51.6712 63.5646 37 63.5646C22.3288 63.5646 10.4354 51.6712 10.4354 37C10.4354 22.3288 22.3288 10.4354 37 10.4354ZM37 6.6463C20.263 6.6463 6.6463 20.263 6.6463 37C6.6463 53.737 20.263 67.3537 37 67.3537C53.737 67.3537 67.3537 53.737 67.3537 37C67.3537 20.263 53.737 6.6463 37 6.6463Z" fill="#D8382B"/>
<path id="Vector_2" d="M38.789 29.0176C38.789 29.0176 38.8007 28.1954 38.848 27.7842C39.122 25.4073 40.0813 23.5409 41.7367 22.2342C42.3346 21.762 42.9944 21.374 43.6977 21.0811C42.2951 17.7531 39.0624 14.9247 37.6599 13.8181V39.3228H38.789V29.0176Z" fill="#D8382B"/>
<path id="Vector_3" d="M22.422 31.5254C24.4776 31.0622 26.5468 31.4658 28.5674 32.7381C29.4244 33.2762 30.1806 33.96 30.8018 34.7588C31.0797 35.1045 31.3262 35.4744 31.5384 35.864C31.9443 36.5761 32.2409 37.3453 32.4182 38.1456C32.5123 38.532 32.5719 38.9259 32.5963 39.3228H33.9036V28.7558C33.9054 28.481 33.8897 28.2064 33.8564 27.9336C33.607 25.7465 32.7032 24.2487 31.4582 23.2504C30.9717 22.8729 30.4395 22.5584 29.8741 22.3144C29.4781 22.1359 29.0687 21.9889 28.6496 21.8745C24.1459 20.6028 18.3931 22.2685 18.3931 22.2685C18.3931 22.2685 18.0601 28.2351 20.2945 32.3359C20.9636 31.9704 21.6793 31.6977 22.422 31.5254Z" fill="#D8382B"/>
<path id="Vector_4" d="M35.15 27.7815C35.1968 28.1909 35.2087 28.6035 35.1857 29.0148L35.209 39.32H36.3505V13.8044C34.9712 14.8856 31.7029 17.7264 30.2886 21.0674C31.0028 21.3596 31.6718 21.7518 32.2757 22.2322C33.9167 23.5382 34.8903 25.4046 35.15 27.7815Z" fill="#D8382B"/>
<path id="Vector_5" d="M40.1437 27.924C40.1105 28.2042 40.0947 28.4861 40.0964 28.7682V39.32H41.4037C41.4281 38.9232 41.4878 38.5292 41.5819 38.1429C41.7664 37.3355 42.0664 36.559 42.4726 35.8372C42.6809 35.4556 42.9236 35.0937 43.1975 34.756C43.8168 33.951 44.5783 33.2662 45.4442 32.7354C47.4649 31.463 49.5327 31.0594 51.5773 31.5226C52.3182 31.6965 53.0325 31.9684 53.7014 32.3311C55.9399 28.2331 55.6069 22.2685 55.6069 22.2685C55.6069 22.2685 49.8548 20.6049 45.3497 21.8766C44.9268 21.9878 44.5142 22.135 44.1164 22.3165C43.5566 22.5518 43.0318 22.8631 42.5569 23.2415C41.2968 24.2398 40.3937 25.7376 40.1437 27.924Z" fill="#D8382B"/>
<path id="Vector_6" d="M60.1949 42.389C60.1949 42.389 57.9132 36.863 54.1214 34.1167C53.7697 33.8681 53.4003 33.6455 53.0162 33.4507C52.4748 33.1535 51.8946 32.9335 51.2922 32.7971C49.7239 32.4408 47.9999 32.6662 46.1342 33.8434C45.4562 34.267 44.854 34.8013 44.3527 35.4241C44.0671 35.7582 43.8162 36.1205 43.6038 36.5053C43.2715 37.1107 43.0236 37.7587 42.8672 38.4314C42.7946 38.7237 42.7469 39.0217 42.7247 39.3221H47.1099C46.8512 40.881 46.2348 42.3588 45.3089 43.6395C44.3831 44.9201 43.173 45.9687 41.7737 46.7029C40.9055 47.1544 40.3231 48.0226 40.3231 48.9969V49.4368H33.7255V49.0325C33.7255 48.0459 33.1431 47.1784 32.2756 46.7269C30.8631 45.9964 29.64 44.947 28.7034 43.6619C27.7667 42.3767 27.1421 40.8911 26.8791 39.3228H31.2773C31.2635 39.0259 31.2197 38.7311 31.1464 38.443C30.9892 37.7716 30.7412 37.1248 30.4092 36.5204C30.1929 36.1361 29.9466 35.7695 29.6726 35.4241C29.1637 34.8038 28.5577 34.27 27.8781 33.8434C26.0117 32.6785 24.2761 32.4524 22.7077 32.8094C22.1086 32.9451 21.5319 33.1652 20.9947 33.4631C20.6048 33.6587 20.2311 33.885 19.8772 34.14C16.0861 36.8739 13.8037 42.4013 13.8037 42.4013C13.8037 42.4013 18.2574 46.3829 22.8605 47.2024C23.2928 47.2758 23.7296 47.3195 24.1678 47.3333C24.0868 47.7611 24.0352 48.194 24.0137 48.629C23.7759 53.2999 26.6763 58.5299 26.6763 58.5299C26.6763 58.5299 32.5689 57.5432 36.0777 54.453C36.4103 54.1599 36.7202 53.842 37.0048 53.502C37.2832 53.8439 37.5936 54.1585 37.9318 54.4414C41.4263 57.5432 47.3189 58.5299 47.3189 58.5299C47.3189 58.5299 50.2186 53.2999 49.9911 48.629C49.9696 48.1901 49.9179 47.7533 49.8362 47.3216C50.2667 47.3076 50.6958 47.2638 51.1203 47.1908C55.7261 46.3829 60.1949 42.389 60.1949 42.389Z" fill="#D8382B"/>
</g>
<defs>
<clipPath id="clip0_136_4664">
<rect width="74" height="74" fill="white"/>
</clipPath>
</defs>
</svg>
