<svg width="70" height="43" viewBox="0 0 70 43" fill="none" xmlns="http://www.w3.org/2000/svg">
<g filter="url(#filter0_d_33137_7025)">
<path d="M1.82951 12.6043C1.512 9.58339 3.70355 6.87706 6.72447 6.55954L58.4396 1.12406C61.4605 0.806551 64.1669 2.9981 64.4844 6.01903L66.1568 21.9314C66.4744 24.9523 64.2828 27.6586 61.2619 27.9762L40.61 30.1467C39.7103 30.2413 38.9319 30.8146 38.5746 31.6457L36.9019 35.5365C36.4533 36.5801 35.0526 36.7657 34.3477 35.875L31.4968 32.2729C30.9653 31.6013 30.1269 31.2486 29.2751 31.3381L9.54674 33.4116C6.52582 33.7291 3.81948 31.5376 3.50197 28.5167L1.82951 12.6043Z" fill="#BDF849" stroke="#7F6C41"/>
<path d="M22.4638 16.0256C22.8934 15.9804 23.2533 16.0753 23.5434 16.3103C23.8323 16.5333 23.9994 16.8596 24.0445 17.2893C24.0884 17.707 24.0095 18.1617 23.8078 18.6535C23.6181 19.144 23.3206 19.7001 22.9153 20.3219C23.9786 21.3685 24.5428 22.2021 24.608 22.8227C24.6557 23.2762 24.5507 23.6552 24.2931 23.9598C24.0463 24.2512 23.6782 24.4226 23.1888 24.4741C22.5802 24.538 21.727 24.1692 20.6292 23.3676C19.8087 24.2864 19.1105 24.8183 18.5345 24.9633C18.4641 24.9827 18.3693 24.9987 18.2499 25.0113C17.8084 25.0577 17.4372 24.97 17.1363 24.7482C16.8475 24.5252 16.6804 24.1989 16.6353 23.7692C16.5976 23.4112 16.6743 22.9929 16.8654 22.5143C17.0564 22.0357 17.3426 21.4868 17.7239 20.8675C17.2272 20.3889 16.8381 19.9592 16.5568 19.5785C16.2861 19.1846 16.1301 18.7908 16.0887 18.3969C16.0335 17.8718 16.1222 17.4523 16.3546 17.1383C16.599 16.823 16.9658 16.6396 17.4551 16.5882C17.7893 16.5531 18.1665 16.6401 18.5866 16.8494C19.0056 17.0467 19.4775 17.347 20.0026 17.7503C20.443 17.2334 20.8588 16.8277 21.2502 16.5332C21.6535 16.2374 22.058 16.0682 22.4638 16.0256ZM32.0415 20.1772C32.7531 20.1748 33.3137 20.2848 33.7232 20.5072C34.1314 20.7177 34.3644 21.0974 34.4221 21.6464C34.4697 22.0999 34.3748 22.4598 34.1374 22.7261C33.8987 22.9804 33.5682 23.166 33.1461 23.2827C32.7347 23.3863 32.1889 23.4738 31.5086 23.5453L30.2376 23.6789L28.9666 23.8125C28.2864 23.884 27.7283 23.9125 27.2924 23.898C26.8671 23.8703 26.5113 23.7568 26.225 23.5577C25.9373 23.3466 25.7697 23.0143 25.722 22.5608C25.6543 21.9163 25.8585 21.4484 26.3346 21.1571C26.8095 20.8538 27.5105 20.6353 28.4376 20.5017C28.3448 19.6185 28.23 18.6412 28.0933 17.5696L27.8646 15.5665C27.6536 15.6249 27.4227 15.6673 27.1721 15.6936C26.5157 15.7626 25.941 15.6903 25.448 15.4766C24.9669 15.2617 24.6962 14.8679 24.636 14.295C24.5884 13.8415 24.7342 13.3918 25.0734 12.9459C25.4246 12.4988 25.9099 12.122 26.5292 11.8156C27.1593 11.4959 27.8383 11.2979 28.5663 11.2214C29.3181 11.1423 29.9453 11.3117 30.4477 11.7295C30.9608 12.1341 31.2619 12.76 31.3509 13.6074L32.0415 20.1772ZM38.8532 22.158C38.5221 22.5669 38.1059 22.7976 37.6047 22.8503C37.1034 22.903 36.6484 22.7638 36.2396 22.4327C35.8307 22.1016 35.5999 21.6855 35.5473 21.1842C35.4946 20.683 35.6338 20.228 35.9649 19.8191C36.2959 19.4103 36.7121 19.1795 37.2133 19.1268C37.7146 19.0741 38.1696 19.2133 38.5785 19.5444C38.9873 19.8755 39.2181 20.2916 39.2707 20.7929C39.3234 21.2941 39.1842 21.7492 38.8532 22.158ZM43.8849 22.3169C43.2643 22.3822 42.7659 22.4044 42.3897 22.3836C42.0122 22.3509 41.7113 22.2437 41.4871 22.0622C41.2617 21.8687 41.127 21.5631 41.0831 21.1454C41.0367 20.7038 41.1011 20.3411 41.2764 20.0572C41.4517 19.7733 41.7645 19.4207 42.2149 18.9993L42.9047 18.3295C43.6862 17.4993 44.2774 16.8097 44.6782 16.2608C45.0778 15.7 45.2512 15.1689 45.1985 14.6677C45.1659 14.3574 45.0428 14.1049 44.8293 13.9102C44.6277 13.7142 44.3837 13.6312 44.0973 13.6613C43.787 13.6939 43.5678 13.7894 43.4396 13.9476C43.3234 14.1046 43.2335 14.283 43.1701 14.4827C43.1173 14.6693 43.0774 14.8062 43.0503 14.8935C42.9504 15.2056 42.7701 15.4418 42.5094 15.6019C42.2487 15.762 41.9633 15.8584 41.653 15.891C41.1756 15.9412 40.7516 15.8108 40.3811 15.4998C40.0225 15.1876 39.8081 14.6973 39.7378 14.029C39.6601 13.2891 39.8106 12.5976 40.1895 11.9544C40.5671 11.2994 41.0963 10.7671 41.7773 10.3577C42.4689 9.93511 43.2204 9.68116 44.032 9.59586C44.8196 9.51308 45.5837 9.60773 46.3242 9.87981C47.0754 10.1387 47.7069 10.5791 48.2187 11.201C48.7292 11.811 49.0322 12.5695 49.1275 13.4765C49.2166 14.3238 49.0443 15.2107 48.6108 16.1371C48.1879 17.0503 47.6078 17.787 46.8703 18.3471C47.837 18.2455 48.5787 18.3003 49.0956 18.5114C49.6125 18.7225 49.9036 19.1384 49.9688 19.759C50.024 20.2841 49.9103 20.6942 49.6276 20.9894C49.3449 21.2845 48.8923 21.5131 48.2698 21.6751C47.6473 21.837 46.7639 21.9842 45.6194 22.1165L43.8849 22.3169Z" fill="black"/>
</g>
<defs>
<filter id="filter0_d_33137_7025" x="1.29883" y="0.59375" width="68.3887" height="39.3506" filterUnits="userSpaceOnUse" color-interpolation-filters="sRGB">
<feFlood flood-opacity="0" result="BackgroundImageFix"/>
<feColorMatrix in="SourceAlpha" type="matrix" values="0 0 0 0 0 0 0 0 0 0 0 0 0 0 0 0 0 0 127 0" result="hardAlpha"/>
<feOffset dx="3" dy="3"/>
<feComposite in2="hardAlpha" operator="out"/>
<feColorMatrix type="matrix" values="0 0 0 0 0 0 0 0 0 0 0 0 0 0 0 0 0 0 0.25 0"/>
<feBlend mode="normal" in2="BackgroundImageFix" result="effect1_dropShadow_33137_7025"/>
<feBlend mode="normal" in="SourceGraphic" in2="effect1_dropShadow_33137_7025" result="shape"/>
</filter>
</defs>
</svg>
