<svg width="76" height="56" viewBox="0 0 76 56" fill="none" xmlns="http://www.w3.org/2000/svg">
<g filter="url(#filter0_d_33137_7046)">
<path d="M7.59665 42.6613C7.91416 45.6822 10.6205 47.8737 13.6414 47.5562L65.3566 42.1208C68.3775 41.8032 70.569 39.0969 70.2515 36.076L68.5791 20.1636C68.2616 17.1427 65.5552 14.9512 62.5343 15.2687L41.8825 17.4393C40.9828 17.5338 40.1022 17.1349 39.5799 16.3963L37.1348 12.9382C36.479 12.0107 35.0703 12.1204 34.566 13.1382L32.5263 17.2543C32.146 18.0217 31.3994 18.5411 30.5476 18.6306L10.8192 20.7041C7.79823 21.0217 5.60669 23.728 5.9242 26.7489L7.59665 42.6613Z" fill="#BDF849" stroke="#7F6C41"/>
<path d="M27.9723 29.7233C28.4021 29.6802 28.7615 29.7769 29.0505 30.0132C29.3384 30.2376 29.5038 30.5648 29.5469 30.9946C29.5888 31.4125 29.5077 31.8669 29.3036 32.3577C29.1115 32.8473 28.8113 33.402 28.4031 34.0218C29.4613 35.0735 30.0215 35.9098 30.0837 36.5307C30.1292 36.9844 30.0224 37.3629 29.7633 37.6663C29.5151 37.9565 29.1461 38.1261 28.6566 38.1752C28.0476 38.2362 27.1962 37.8633 26.1023 37.0564C25.2774 37.9712 24.5766 38.4997 23.9999 38.6419C23.9295 38.6611 23.8345 38.6766 23.7151 38.6886C23.2734 38.7328 22.9026 38.6434 22.6028 38.4202C22.315 38.1957 22.1496 37.8686 22.1065 37.4388C22.0706 37.0806 22.1493 36.6626 22.3426 36.185C22.5359 35.7073 22.8248 35.1598 23.2091 34.5424C22.7147 34.0613 22.3277 33.6297 22.0482 33.2477C21.7795 32.8525 21.6253 32.4579 21.5858 32.0639C21.5332 31.5385 21.6238 31.1194 21.8578 30.8065C22.1037 30.4924 22.4714 30.3108 22.961 30.2618C23.2953 30.2283 23.672 30.3171 24.0912 30.5284C24.5092 30.7277 24.9797 31.0303 25.5028 31.4361C25.9456 30.9214 26.3635 30.5177 26.7562 30.2251C27.1609 29.9313 27.5663 29.764 27.9723 29.7233ZM37.5298 33.921C38.2415 33.9221 38.8015 34.0348 39.2099 34.2592C39.6171 34.4716 39.8483 34.8525 39.9033 35.4017C39.9488 35.8554 39.8522 36.2149 39.6134 36.48C39.3735 36.7332 39.0422 36.9172 38.6195 37.0319C38.2076 37.1335 37.6613 37.2184 36.9807 37.2866L35.7091 37.414L34.4375 37.5415C33.7569 37.6097 33.1987 37.6355 32.7628 37.6189C32.3378 37.5891 31.9825 37.474 31.6971 37.2735C31.4105 37.061 31.2444 36.7279 31.1989 36.2742C31.1343 35.6294 31.3408 35.1625 31.8183 34.8734C32.2947 34.5724 32.9967 34.3573 33.9245 34.2281C33.8359 33.3446 33.7258 32.3667 33.5942 31.2945L33.3753 29.2903C33.1639 29.3477 32.9329 29.3889 32.6822 29.414C32.0254 29.4799 31.4511 29.4048 30.9591 29.1888C30.479 28.9716 30.2103 28.5764 30.1529 28.0033C30.1074 27.5495 30.2553 27.1005 30.5967 26.6563C30.9501 26.2108 31.4371 25.8364 32.058 25.5329C32.6896 25.2164 33.3695 25.0216 34.0979 24.9486C34.8501 24.8732 35.4764 25.0456 35.9768 25.4658C36.488 25.8728 36.786 26.5002 36.871 27.348L37.5298 33.921ZM44.3319 35.9347C43.9988 36.342 43.5816 36.5707 43.0801 36.621C42.5786 36.6712 42.1242 36.5298 41.717 36.1968C41.3097 35.8638 41.081 35.4465 41.0307 34.945C40.9805 34.4435 41.1218 33.9892 41.4549 33.5819C41.7879 33.1747 42.2052 32.9459 42.7067 32.8956C43.2082 32.8454 43.6625 32.9868 44.0698 33.3198C44.477 33.6529 44.7058 34.0701 44.7561 34.5716C44.8063 35.0731 44.6649 35.5275 44.3319 35.9347ZM49.8947 36.0103C49.4052 36.0594 48.9132 36.0243 48.4188 35.905C47.9245 35.7857 47.5077 35.5983 47.1685 35.3429C46.8401 35.0743 46.6574 34.7549 46.6203 34.3848C46.5879 34.0624 46.6733 33.7704 46.8762 33.5089C47.0791 33.2473 47.3955 33.095 47.8253 33.0519C48.0164 33.0328 48.174 33.0411 48.2982 33.0769C48.4212 33.1008 48.5531 33.1539 48.6941 33.2362C48.8588 33.3162 49.0033 33.3741 49.1275 33.4098C49.2637 33.4444 49.4392 33.451 49.6541 33.4294C50.1198 33.3828 50.4714 33.2209 50.7089 32.9438C50.9584 32.6655 51.0676 32.3712 51.0365 32.0607C50.9898 31.5951 50.8041 31.2459 50.4792 31.0131C50.1663 30.7791 49.7353 30.6897 49.186 30.7447C48.983 30.7651 48.8016 30.8194 48.6416 30.9078C48.4804 30.9843 48.3049 31.0984 48.1151 31.2501C47.9253 31.4017 47.7504 31.5218 47.5904 31.6102C47.4304 31.6986 47.2429 31.7535 47.028 31.7751C46.4668 31.8313 46.0847 31.6887 45.8816 31.3473C45.6786 31.0058 45.5393 30.459 45.464 29.7068L45.3778 28.8471C45.2114 27.1874 45.1049 26.185 45.0583 25.8399C45.0032 25.2907 45.1619 24.8286 45.5344 24.4535C45.9068 24.0785 46.4184 23.8283 47.0692 23.7027C47.6506 23.6083 48.5862 23.4964 49.8757 23.3672C50.6876 23.2858 51.3593 23.2486 51.8906 23.2557C52.422 23.2627 52.8781 23.3617 53.2591 23.5527C53.6519 23.7424 53.8723 24.0761 53.9202 24.5537C53.9728 25.0791 53.7897 25.4773 53.3706 25.7485C52.9635 26.0184 52.4041 26.2132 51.6925 26.3328C50.9928 26.4511 49.9027 26.5845 48.4221 26.7329L48.5729 28.2374C49.1209 28.0498 49.6457 27.9309 50.1472 27.8806C50.9591 27.7992 51.6982 27.894 52.3646 28.1649C53.0297 28.4238 53.5719 28.8398 53.9912 29.4129C54.4092 29.974 54.6571 30.6426 54.7349 31.4187C54.8378 32.4455 54.6213 33.2934 54.0853 33.9622C53.5494 34.6309 52.8933 35.1248 52.1173 35.4438C51.34 35.7509 50.5992 35.9397 49.8947 36.0103Z" fill="black"/>
</g>
<defs>
<filter id="filter0_d_33137_7046" x="5.39453" y="11.8037" width="68.3867" height="39.2832" filterUnits="userSpaceOnUse" color-interpolation-filters="sRGB">
<feFlood flood-opacity="0" result="BackgroundImageFix"/>
<feColorMatrix in="SourceAlpha" type="matrix" values="0 0 0 0 0 0 0 0 0 0 0 0 0 0 0 0 0 0 127 0" result="hardAlpha"/>
<feOffset dx="3" dy="3"/>
<feComposite in2="hardAlpha" operator="out"/>
<feColorMatrix type="matrix" values="0 0 0 0 0 0 0 0 0 0 0 0 0 0 0 0 0 0 0.25 0"/>
<feBlend mode="normal" in2="BackgroundImageFix" result="effect1_dropShadow_33137_7046"/>
<feBlend mode="normal" in="SourceGraphic" in2="effect1_dropShadow_33137_7046" result="shape"/>
</filter>
</defs>
</svg>
