<svg xmlns="http://www.w3.org/2000/svg" width="235" height="59" viewBox="0 0 235 59" fill="none">
  <g filter="url(#filter0_d_33137_6997)">
    <path d="M1 7C1 3.68629 3.68629 1 7 1H224C227.314 1 230 3.68629 230 7V8.18644V13.633C230 14.6306 229.265 15.4756 228.277 15.6138L220.361 16.7203L228.186 17.4496C229.214 17.5454 230 18.4083 230 19.4409V21.661V37.8305V48C230 51.3137 227.314 54 224 54H7C3.6863 54 1 51.3137 1 48V45.9394C1 44.8841 1.81997 44.0104 2.87317 43.9435L14.2538 43.2203L2.93226 42.8367C1.85468 42.8001 1 41.916 1 40.8378V26.4936C1 25.7343 1.42992 25.0405 2.10983 24.7026L4.61468 23.4576L2.75338 23.2263C1.75188 23.1019 1 22.2508 1 21.2416V14.25V7Z" fill="#BC9549"/>
    <path d="M1 14.25V7C1 3.68629 3.68629 1 7 1H224C227.314 1 230 3.68629 230 7V8.18644M1 14.25V21.2416C1 22.2508 1.75188 23.1019 2.75338 23.2263L4.61468 23.4576M1 14.25H8.83181M4.61468 23.4576L2.10983 24.7026C1.42992 25.0405 1 25.7343 1 26.4936V40.8378C1 41.916 1.85468 42.8001 2.93226 42.8367L14.2538 43.2203L2.87317 43.9435C1.81997 44.0104 1 44.8841 1 45.9394V48C1 51.3137 3.6863 54 7 54H224C227.314 54 230 51.3137 230 48V37.8305M4.61468 23.4576H14.8563M117.164 47.2627H139.071M188.431 47.7119H225.18M225.18 21.661H208.914M230 8.18644V13.633C230 14.6306 229.265 15.4756 228.277 15.6138L220.361 16.7203L228.186 17.4496C229.214 17.5454 230 18.4083 230 19.4409V21.661M230 8.18644H216.746M227.59 21.661H230M230 21.661V37.8305M230 37.8305H224.578M163.731 8.18644H188.431" stroke="black" stroke-linecap="round" stroke-linejoin="round"/>
  </g>
  <defs>
    <filter id="filter0_d_33137_6997" x="0.5" y="0.5" width="234" height="58" filterUnits="userSpaceOnUse" color-interpolation-filters="sRGB">
      <feFlood flood-opacity="0" result="BackgroundImageFix"/>
      <feColorMatrix in="SourceAlpha" type="matrix" values="0 0 0 0 0 0 0 0 0 0 0 0 0 0 0 0 0 0 127 0" result="hardAlpha"/>
      <feOffset dx="4" dy="4"/>
      <feComposite in2="hardAlpha" operator="out"/>
      <feColorMatrix type="matrix" values="0 0 0 0 0.294118 0 0 0 0 0.215686 0 0 0 0 0.121569 0 0 0 1 0"/>
      <feBlend mode="normal" in2="BackgroundImageFix" result="effect1_dropShadow_33137_6997"/>
      <feBlend mode="normal" in="SourceGraphic" in2="effect1_dropShadow_33137_6997" result="shape"/>
    </filter>
  </defs>
</svg>