<svg xmlns="http://www.w3.org/2000/svg" width="205" height="149" viewBox="0 0 205 149" fill="none">
  <path d="M22.1916 40.7539H173.865L181.694 48.6536H14.3633L22.1916 40.7539Z" fill="#D8CABD" stroke="black" stroke-linejoin="round"/>
  <ellipse cx="97.3101" cy="132.924" rx="97.3101" ry="15.7994" fill="black" fill-opacity="0.2"/>
  <path d="M17.1776 133.395H181.12L182.096 128.367H16.2018L17.1776 133.395Z" fill="#A38B76" stroke="black" stroke-linejoin="round"/>
  <path d="M46.0203 141.008H151.788L152.418 137.47H45.3907L46.0203 141.008Z" fill="#A38B76" stroke="black" stroke-linejoin="round"/>
  <path d="M45.3907 137.471H152.418L146.122 131.279H51.6864L45.3907 137.471Z" fill="#CCC1B0" stroke="black" stroke-linejoin="round"/>
  <path d="M15.7997 128.367H181.694L171.935 119.031H25.5582L15.7997 128.367Z" fill="#CCC1B0" stroke="black" stroke-linejoin="round"/>
  <rect x="23.699" y="41.4707" width="150.095" height="1.43631" fill="#AA6852" stroke="black"/>
  <path d="M21.5447 45.0625H175.948V42.908H21.5447V45.0625Z" fill="#D8CABD" stroke="black"/>
  <rect x="22.9811" y="45.0625" width="151.531" height="3.59078" fill="#AA6852" stroke="black"/>
  <path d="M15.3419 51.5254H180.715L181.694 48.6528H14.3633L15.3419 51.5254Z" fill="#A38B76" stroke="black" stroke-linejoin="round"/>
  <path d="M17.2356 51.5254H178.821L178.331 53.6799H17.7922L17.2356 51.5254Z" fill="#AA6852" stroke="black"/>
  <path d="M16.7756 57.2715H180.718L181.694 53.6807H15.7997L16.7756 57.2715Z" fill="#A38B76" stroke="black" stroke-linejoin="round"/>
  <path d="M16.5176 57.2715H180.975L177.052 124.06H20.4406L16.5176 57.2715Z" fill="#AA6852" stroke="black"/>
  <path d="M92.2827 62.3613H102.337C109.215 62.3615 114.795 67.9148 114.839 74.7822L113.322 87.3691H81.2974L79.7798 74.7822C79.8245 67.9147 85.4047 62.3614 92.2827 62.3613Z" fill="#D3F8FF" stroke="#602B00" stroke-width="3"/>
  <path d="M40.8717 93.959V118.967H25.9371L25.2477 106.381L24.566 93.959H40.8717Z" fill="#D3F8FF" stroke="#602B00" stroke-width="3"/>
  <path d="M40.8708 63.0801V88.0879H24.6091L23.8669 75.4961L23.1355 63.0801H40.8708Z" fill="#D3F8FF" stroke="#602B00" stroke-width="3"/>
  <path d="M112.593 93.959L111.829 106.732L111.052 119.686H83.568L82.7916 106.732L82.026 93.959H112.593Z" fill="#D3F8FF" stroke="#602B00" stroke-width="3"/>
  <path d="M28.428 32.8535H168.081L175.948 41.4714H21.5447L28.428 32.8535Z" fill="#C55542" stroke="black"/>
  <path d="M98.7462 14.1816L175.23 48.6531H22.2626L98.7462 14.1816Z" fill="#D8CABD" stroke="black"/>
  <path d="M98.7462 13.9176L175.23 48.6522L161.502 32.7321L98.7462 1.25391L34.5196 32.7321L22.2626 48.6522L98.7462 13.9176Z" fill="#C55542"/>
  <path d="M98.7462 13.9176L175.23 48.6522L161.502 32.7321L98.7462 1.25391M98.7462 13.9176L22.2626 48.6522L34.5196 32.7321L98.7462 1.25391M98.7462 13.9176V1.25391" stroke="black"/>
  <g filter="url(#filter0_i_31723_112)">
    <path d="M98.7464 17.7715L159.431 45.0614H38.0623L98.7464 17.7715Z" fill="#AA6852"/>
  </g>
  <path d="M98.7464 17.7715L159.431 45.0614H38.0623L98.7464 17.7715Z" stroke="black"/>
  <g filter="url(#filter1_i_31723_112)">
    <path d="M98.7462 22.0801L143.631 42.1884H53.8615L98.7462 22.0801Z" fill="#D8CABD"/>
  </g>
  <path d="M98.7462 22.0801L143.631 42.1884H53.8615L98.7462 22.0801Z" stroke="black"/>
  <path d="M22.9811 47.9355H175.23L173.266 54.3989H24.9456L22.9811 47.9355Z" fill="#A38B76" stroke="black" stroke-linejoin="round"/>
  <path d="M45.2437 57.2715H55.4424L57.4523 124.06H48.2584L45.2437 57.2715Z" fill="#D8CABD" stroke="black"/>
  <path d="M63.9156 57.2715H73.7218L74.688 124.06H65.8481L63.9156 57.2715Z" fill="#D8CABD" stroke="black"/>
  <rect x="45.962" y="123.34" width="12.2086" height="2.15447" rx="1.07723" fill="#D9CEC6" stroke="black"/>
  <rect x="64.634" y="123.34" width="12.2086" height="2.15447" rx="1.07723" fill="#D9CEC6" stroke="black"/>
  <path d="M155.904 93.959V118.967H170.173L170.837 106.384L171.494 93.959H155.904Z" fill="#D3F8FF" stroke="#602B00" stroke-width="3"/>
  <path d="M155.904 63.0801V88.0879H172.166L172.908 75.4961L173.639 63.0801H155.904Z" fill="#D3F8FF" stroke="#602B00" stroke-width="3"/>
  <path d="M150.813 57.2715H140.614L138.604 124.06H147.798L150.813 57.2715Z" fill="#D8CABD" stroke="black"/>
  <path d="M132.141 57.2715H122.335L121.368 124.06H130.208L132.141 57.2715Z" fill="#D8CABD" stroke="black"/>
  <rect width="12.9268" height="2.15447" rx="1.07723" transform="matrix(-1 0 0 1 150.813 123.34)" fill="#D9CEC6" stroke="black"/>
  <rect width="12.9268" height="2.15447" rx="1.07723" transform="matrix(-1 0 0 1 132.141 123.34)" fill="#D9CEC6" stroke="black"/>
  <path fill-rule="evenodd" clip-rule="evenodd" d="M48.5272 61.5848C48.5272 63.8677 46.6765 65.7184 44.3936 65.7184C42.1107 65.7184 40.26 63.8677 40.26 61.5848C40.26 59.3018 42.1107 57.4512 44.3936 57.4512H44.3945H54.8366C54.8368 57.4512 54.8371 57.4512 54.8373 57.4512C57.1199 57.4516 58.9702 59.3021 58.9702 61.5848C58.9702 63.8677 57.1195 65.7184 54.8366 65.7184C52.5537 65.7184 50.703 63.8677 50.703 61.5848C50.703 61.3627 50.7205 61.1447 50.7542 60.9321H48.476C48.5097 61.1447 48.5272 61.3627 48.5272 61.5848Z" fill="#D8CABD"/>
  <path d="M54.8373 57.4512L54.8374 56.9512L54.8373 57.4512ZM50.7542 60.9321L51.2481 61.0104L51.3398 60.4321H50.7542V60.9321ZM48.476 60.9321V60.4321H47.8904L47.9822 61.0104L48.476 60.9321ZM44.3936 66.2184C46.9527 66.2184 49.0272 64.1438 49.0272 61.5848H48.0272C48.0272 63.5916 46.4004 65.2184 44.3936 65.2184V66.2184ZM39.76 61.5848C39.76 64.1438 41.8345 66.2184 44.3936 66.2184V65.2184C42.3868 65.2184 40.76 63.5916 40.76 61.5848H39.76ZM44.3936 56.9512C41.8345 56.9512 39.76 59.0257 39.76 61.5848H40.76C40.76 59.578 42.3868 57.9512 44.3936 57.9512V56.9512ZM44.3945 56.9512H44.3936V57.9512H44.3945V56.9512ZM54.8366 56.9512H44.3945V57.9512H54.8366V56.9512ZM54.8366 57.9512C54.837 57.9512 54.837 57.9512 54.8372 57.9512L54.8374 56.9512C54.8371 56.9512 54.8367 56.9512 54.8366 56.9512V57.9512ZM54.8372 57.9512C56.8437 57.9515 58.4702 59.5782 58.4702 61.5848H59.4702C59.4702 59.026 57.3961 56.9516 54.8374 56.9512L54.8372 57.9512ZM58.4702 61.5848C58.4702 63.5916 56.8434 65.2184 54.8366 65.2184V66.2184C57.3957 66.2184 59.4702 64.1438 59.4702 61.5848H58.4702ZM54.8366 65.2184C52.8298 65.2184 51.203 63.5916 51.203 61.5848H50.203C50.203 64.1438 52.2775 66.2184 54.8366 66.2184V65.2184ZM51.203 61.5848C51.203 61.389 51.2184 61.1972 51.2481 61.0104L50.2604 60.8538C50.2226 61.0922 50.203 61.3364 50.203 61.5848H51.203ZM48.476 61.4321H50.7542V60.4321H48.476V61.4321ZM49.0272 61.5848C49.0272 61.3364 49.0076 61.0922 48.9698 60.8538L47.9822 61.0104C48.0118 61.1972 48.0272 61.389 48.0272 61.5848H49.0272Z" fill="black"/>
  <circle cx="54.8349" cy="61.5826" r="2.39314" fill="#D9CEC6" stroke="black"/>
  <circle cx="44.3914" cy="61.5826" r="2.39314" fill="#D9CEC6" stroke="black"/>
  <path fill-rule="evenodd" clip-rule="evenodd" d="M126.088 61.5848C126.088 63.8677 124.237 65.7184 121.955 65.7184C119.672 65.7184 117.821 63.8677 117.821 61.5848C117.821 59.3018 119.672 57.4512 121.955 57.4512H121.955H132.397C132.397 57.4512 132.398 57.4512 132.398 57.4512C134.681 57.4516 136.531 59.3021 136.531 61.5848C136.531 63.8677 134.68 65.7184 132.397 65.7184C130.114 65.7184 128.264 63.8677 128.264 61.5848C128.264 61.3627 128.281 61.1447 128.315 60.9321H126.037C126.071 61.1447 126.088 61.3627 126.088 61.5848Z" fill="#D8CABD"/>
  <path d="M132.398 57.4512L132.398 56.9512L132.398 57.4512ZM128.315 60.9321L128.809 61.0104L128.9 60.4321H128.315V60.9321ZM126.037 60.9321V60.4321H125.451L125.543 61.0104L126.037 60.9321ZM121.955 66.2184C124.514 66.2184 126.588 64.1438 126.588 61.5848H125.588C125.588 63.5916 123.961 65.2184 121.955 65.2184V66.2184ZM117.321 61.5848C117.321 64.1438 119.395 66.2184 121.955 66.2184V65.2184C119.948 65.2184 118.321 63.5916 118.321 61.5848H117.321ZM121.955 56.9512C119.395 56.9512 117.321 59.0257 117.321 61.5848H118.321C118.321 59.578 119.948 57.9512 121.955 57.9512V56.9512ZM121.955 56.9512H121.955V57.9512H121.955V56.9512ZM132.397 56.9512H121.955V57.9512H132.397V56.9512ZM132.397 57.9512C132.398 57.9512 132.398 57.9512 132.398 57.9512L132.398 56.9512C132.398 56.9512 132.397 56.9512 132.397 56.9512V57.9512ZM132.398 57.9512C134.404 57.9515 136.031 59.5782 136.031 61.5848H137.031C137.031 59.026 134.957 56.9516 132.398 56.9512L132.398 57.9512ZM136.031 61.5848C136.031 63.5916 134.404 65.2184 132.397 65.2184V66.2184C134.956 66.2184 137.031 64.1438 137.031 61.5848H136.031ZM132.397 65.2184C130.39 65.2184 128.764 63.5916 128.764 61.5848H127.764C127.764 64.1438 129.838 66.2184 132.397 66.2184V65.2184ZM128.764 61.5848C128.764 61.389 128.779 61.1972 128.809 61.0104L127.821 60.8538C127.783 61.0922 127.764 61.3364 127.764 61.5848H128.764ZM126.037 61.4321H128.315V60.4321H126.037V61.4321ZM126.588 61.5848C126.588 61.3364 126.569 61.0922 126.531 60.8538L125.543 61.0104C125.573 61.1972 125.588 61.389 125.588 61.5848H126.588Z" fill="black"/>
  <circle cx="132.398" cy="61.5826" r="2.39314" fill="#D9CEC6" stroke="black"/>
  <circle cx="121.955" cy="61.5826" r="2.39314" fill="#D9CEC6" stroke="black"/>
  <path fill-rule="evenodd" clip-rule="evenodd" d="M68.2866 61.5848C68.2866 63.8677 66.4359 65.7184 64.153 65.7184C61.8701 65.7184 60.0194 63.8677 60.0194 61.5848C60.0194 59.3019 61.87 57.4513 64.1529 57.4512H64.153H74.5956C74.5956 57.4512 74.5957 57.4512 74.5957 57.4512C76.8786 57.4512 78.7293 59.3018 78.7293 61.5848C78.7293 63.8677 76.8786 65.7184 74.5957 65.7184C72.3127 65.7184 70.4621 63.8677 70.4621 61.5848C70.4621 61.3627 70.4796 61.1447 70.5133 60.9321H68.2354C68.2691 61.1447 68.2866 61.3627 68.2866 61.5848Z" fill="#D8CABD"/>
  <path d="M64.1529 57.4512V56.9512H64.1528L64.1529 57.4512ZM70.5133 60.9321L71.0071 61.0104L71.0989 60.4321H70.5133V60.9321ZM68.2354 60.9321V60.4321H67.6498L67.7416 61.0104L68.2354 60.9321ZM64.153 66.2184C66.7121 66.2184 68.7866 64.1438 68.7866 61.5848H67.7866C67.7866 63.5916 66.1598 65.2184 64.153 65.2184V66.2184ZM59.5194 61.5848C59.5194 64.1438 61.5939 66.2184 64.153 66.2184V65.2184C62.1462 65.2184 60.5194 63.5916 60.5194 61.5848H59.5194ZM64.1528 56.9512C61.5938 56.9513 59.5194 59.0258 59.5194 61.5848H60.5194C60.5194 59.578 62.1462 57.9512 64.1529 57.9512L64.1528 56.9512ZM64.153 56.9512H64.1529V57.9512H64.153V56.9512ZM74.5956 56.9512H64.153V57.9512H74.5956V56.9512ZM74.5956 57.9512C74.5956 57.9512 74.5956 57.9512 74.5956 57.9512H74.5956C74.5956 57.9512 74.5956 57.9512 74.5956 57.9512C74.5956 57.9512 74.5956 57.9512 74.5956 57.9512H74.5956H74.5956H74.5956H74.5956H74.5956H74.5956H74.5956H74.5956C74.5957 57.9512 74.5957 57.9512 74.5957 57.9512C74.5957 57.9512 74.5957 57.9512 74.5957 57.9512C74.5957 57.9512 74.5957 57.9512 74.5957 57.9512C74.5957 57.9512 74.5957 57.9512 74.5957 57.9512C74.5957 57.9512 74.5957 57.9512 74.5957 57.9512H74.5957H74.5957C74.5957 57.9512 74.5957 57.9512 74.5957 57.9512C74.5957 57.9512 74.5957 57.9512 74.5957 57.9512C74.5957 57.9512 74.5957 57.9512 74.5957 57.9512C74.5957 57.9512 74.5957 57.9512 74.5957 57.9512C74.5957 57.9512 74.5957 57.9512 74.5957 57.9512C74.5957 57.9512 74.5957 57.9512 74.5957 57.9512C74.5957 57.9512 74.5957 57.9512 74.5957 57.9512C74.5957 57.9512 74.5957 57.9512 74.5957 57.9512C74.5957 57.9512 74.5957 57.9512 74.5957 57.9512C74.5957 57.9512 74.5957 57.9512 74.5957 57.9512C74.5957 57.9512 74.5957 57.9512 74.5957 57.9512H74.5957C74.5957 57.9512 74.5957 57.9512 74.5957 57.9512C74.5957 57.9512 74.5957 57.9512 74.5957 57.9512C74.5957 57.9512 74.5957 57.9512 74.5957 57.9512V56.9512C74.5957 56.9512 74.5957 56.9512 74.5957 56.9512C74.5957 56.9512 74.5957 56.9512 74.5957 56.9512C74.5957 56.9512 74.5957 56.9512 74.5957 56.9512H74.5957C74.5957 56.9512 74.5957 56.9512 74.5957 56.9512C74.5957 56.9512 74.5957 56.9512 74.5957 56.9512C74.5957 56.9512 74.5957 56.9512 74.5957 56.9512C74.5957 56.9512 74.5957 56.9512 74.5957 56.9512C74.5957 56.9512 74.5957 56.9512 74.5957 56.9512C74.5957 56.9512 74.5957 56.9512 74.5957 56.9512C74.5957 56.9512 74.5957 56.9512 74.5957 56.9512C74.5957 56.9512 74.5957 56.9512 74.5957 56.9512C74.5957 56.9512 74.5957 56.9512 74.5957 56.9512C74.5957 56.9512 74.5957 56.9512 74.5957 56.9512C74.5957 56.9512 74.5957 56.9512 74.5957 56.9512H74.5957H74.5957C74.5957 56.9512 74.5957 56.9512 74.5957 56.9512C74.5957 56.9512 74.5957 56.9512 74.5957 56.9512C74.5957 56.9512 74.5957 56.9512 74.5957 56.9512C74.5957 56.9512 74.5957 56.9512 74.5957 56.9512C74.5957 56.9512 74.5957 56.9512 74.5956 56.9512H74.5956H74.5956H74.5956H74.5956H74.5956H74.5956H74.5956H74.5956C74.5956 56.9512 74.5956 56.9512 74.5956 56.9512C74.5956 56.9512 74.5956 56.9512 74.5956 56.9512H74.5956C74.5956 56.9512 74.5956 56.9512 74.5956 56.9512V57.9512ZM74.5957 57.9512C76.6025 57.9512 78.2293 59.578 78.2293 61.5848H79.2293C79.2293 59.0257 77.1547 56.9512 74.5957 56.9512V57.9512ZM78.2293 61.5848C78.2293 63.5916 76.6025 65.2184 74.5957 65.2184V66.2184C77.1547 66.2184 79.2293 64.1438 79.2293 61.5848H78.2293ZM74.5957 65.2184C72.5889 65.2184 70.9621 63.5916 70.9621 61.5848H69.9621C69.9621 64.1438 72.0366 66.2184 74.5957 66.2184V65.2184ZM70.9621 61.5848C70.9621 61.389 70.9775 61.1972 71.0071 61.0104L70.0195 60.8538C69.9817 61.0922 69.9621 61.3364 69.9621 61.5848H70.9621ZM68.2354 61.4321H70.5133V60.4321H68.2354V61.4321ZM68.7866 61.5848C68.7866 61.3364 68.767 61.0922 68.7292 60.8538L67.7416 61.0104C67.7712 61.1972 67.7866 61.389 67.7866 61.5848H68.7866Z" fill="black"/>
  <circle cx="74.5959" cy="61.5826" r="2.39314" fill="#D9CEC6" stroke="black"/>
  <circle cx="64.1525" cy="61.5826" r="2.39314" fill="#D9CEC6" stroke="black"/>
  <path fill-rule="evenodd" clip-rule="evenodd" d="M145.852 61.5848C145.852 63.8677 144.001 65.7184 141.718 65.7184C139.435 65.7184 137.584 63.8677 137.584 61.5848C137.584 59.3018 139.435 57.4512 141.718 57.4512H141.718H152.16C152.161 57.4512 152.161 57.4512 152.161 57.4512C154.444 57.4516 156.294 59.3021 156.294 61.5848C156.294 63.8677 154.443 65.7184 152.16 65.7184C149.877 65.7184 148.027 63.8677 148.027 61.5848C148.027 61.3627 148.044 61.1447 148.078 60.9321H145.8C145.834 61.1447 145.852 61.3627 145.852 61.5848Z" fill="#D8CABD"/>
  <path d="M152.161 57.4512L152.161 57.9512L152.161 57.4512ZM148.078 60.9321L148.572 61.0104L148.664 60.4321H148.078V60.9321ZM145.8 60.9321V60.4321H145.215L145.306 61.0104L145.8 60.9321ZM141.718 66.2184C144.277 66.2184 146.352 64.1438 146.352 61.5848H145.352C145.352 63.5916 143.725 65.2184 141.718 65.2184V66.2184ZM137.084 61.5848C137.084 64.1438 139.159 66.2184 141.718 66.2184V65.2184C139.711 65.2184 138.084 63.5916 138.084 61.5848H137.084ZM141.718 56.9512C139.159 56.9512 137.084 59.0257 137.084 61.5848H138.084C138.084 59.578 139.711 57.9512 141.718 57.9512V56.9512ZM141.718 56.9512H141.718V57.9512H141.718V56.9512ZM152.16 56.9512H141.718V57.9512H152.16V56.9512ZM152.16 57.9512C152.161 57.9512 152.161 57.9512 152.161 57.9512L152.161 56.9512C152.161 56.9512 152.161 56.9512 152.16 56.9512V57.9512ZM152.161 57.9512C154.168 57.9515 155.794 59.5782 155.794 61.5848H156.794C156.794 59.026 154.72 56.9516 152.161 56.9512L152.161 57.9512ZM155.794 61.5848C155.794 63.5916 154.167 65.2184 152.16 65.2184V66.2184C154.719 66.2184 156.794 64.1438 156.794 61.5848H155.794ZM152.16 65.2184C150.154 65.2184 148.527 63.5916 148.527 61.5848H147.527C147.527 64.1438 149.601 66.2184 152.16 66.2184V65.2184ZM148.527 61.5848C148.527 61.389 148.542 61.1972 148.572 61.0104L147.584 60.8538C147.546 61.0922 147.527 61.3364 147.527 61.5848H148.527ZM145.8 61.4321H148.078V60.4321H145.8V61.4321ZM146.352 61.5848C146.352 61.3364 146.332 61.0922 146.294 60.8538L145.306 61.0104C145.336 61.1972 145.352 61.389 145.352 61.5848H146.352Z" fill="black"/>
  <circle cx="152.162" cy="61.5826" r="2.39314" fill="#D9CEC6" stroke="black"/>
  <circle cx="141.719" cy="61.5826" r="2.39314" fill="#D9CEC6" stroke="black"/>
  <path d="M103.402 35.9293C103.881 36.554 103.982 37.233 103.704 37.9664C103.425 38.6998 102.873 39.1809 102.047 39.4096C101.652 39.519 101.25 39.5233 100.839 39.4225C100.428 39.3217 100.091 39.131 99.8283 38.8503C98.8756 39.2656 97.9805 39.2453 97.143 38.7893C96.3055 38.3333 95.8023 37.5923 95.6332 36.5662C95.2164 36.4671 94.8621 36.2717 94.5704 35.9801C94.2787 35.6886 94.0683 35.3209 93.9392 34.8769C93.732 34.1644 93.8969 33.4971 94.4338 32.875C94.9708 32.253 95.5938 31.9827 96.303 32.0639L97.5486 32.2113C97.6827 31.7828 97.9141 31.4 98.2429 31.0628C98.5717 30.7256 98.9601 30.4824 99.4082 30.333L99.1432 29.4219C99.0991 29.27 99.1134 29.1304 99.1863 29.0029C99.2592 28.8754 99.3734 28.7901 99.529 28.747C99.6846 28.704 99.8278 28.718 99.9583 28.7891C100.089 28.8602 100.176 28.9717 100.221 29.1235L100.526 30.1749C101.006 30.1807 101.43 30.2811 101.797 30.4761C102.164 30.671 102.521 30.9857 102.867 31.4199L103.909 31.1315C104.064 31.0884 104.207 31.1024 104.338 31.1736C104.468 31.2447 104.556 31.3562 104.6 31.508C104.644 31.6599 104.63 31.7995 104.557 31.927C104.484 32.0545 104.37 32.1398 104.214 32.1829L103.281 32.4414C103.386 32.8919 103.384 33.3407 103.274 33.7875C103.165 34.2343 102.959 34.6259 102.656 34.9622L103.402 35.9293ZM99.0718 37.583C98.9801 37.2676 98.9179 36.9535 98.8851 36.6407C98.8524 36.3279 98.8491 36.0164 98.8753 35.7062C98.6373 35.911 98.3674 36.0835 98.0655 36.224C97.7636 36.3643 97.4536 36.466 97.1356 36.5288C97.2681 36.9844 97.5072 37.3063 97.8529 37.4945C98.1987 37.6828 98.605 37.7123 99.0718 37.583ZM96.9076 35.0773C97.2906 34.9712 97.6152 34.8309 97.8812 34.6562C98.1474 34.4815 98.473 34.1894 98.8583 33.7797L96.449 33.5003C96.0611 33.4562 95.7657 33.5412 95.5628 33.7552C95.3599 33.9692 95.3043 34.2339 95.396 34.5492C95.4843 34.853 95.6506 35.0468 95.8948 35.1306C96.1391 35.2144 96.4766 35.1966 96.9076 35.0773ZM101.64 38.0078C101.939 37.925 102.152 37.7556 102.278 37.4998C102.404 37.244 102.387 37.0184 102.227 36.8229L100.564 34.7084C100.445 35.1452 100.377 35.5679 100.36 35.9765C100.343 36.3851 100.379 36.7413 100.467 37.045C100.58 37.4305 100.734 37.7064 100.931 37.8727C101.128 38.039 101.365 38.0841 101.64 38.0078ZM101.694 33.7897C101.779 33.6397 101.83 33.4584 101.846 33.2458C101.862 33.0332 101.839 32.8217 101.778 32.6114C101.669 32.2376 101.452 31.957 101.126 31.7696C100.8 31.5822 100.451 31.54 100.08 31.6427C99.8646 31.7024 99.6712 31.7938 99.5001 31.9169C99.329 32.0401 99.1962 32.1841 99.102 32.349L100.686 32.592L101.694 33.7897Z" fill="#451D07" fill-opacity="0.5"/>
  <path d="M91.3255 31.5022C91.2718 31.5216 91.2002 31.5022 91.2002 31.425C91.1464 31.2124 91.039 30.7294 91.236 30.3236C91.4329 29.9179 91.8627 29.7053 92.0597 29.6281C92.1134 29.6087 92.185 29.6281 92.185 29.7053C92.2566 29.9179 92.3462 30.4009 92.1492 30.8067C91.9522 31.2124 91.5225 31.425 91.3255 31.5022ZM91.1823 32.6229C91.4508 32.391 91.809 32.3137 92.0059 32.2944C92.0776 32.2944 92.1313 32.3524 92.1134 32.4297C92.0597 32.6422 91.9522 32.99 91.6836 33.2218C91.415 33.4537 91.0569 33.531 90.8599 33.5503C90.8062 33.5503 90.7704 33.5117 90.7525 33.473C90.7167 33.5117 90.663 33.531 90.6093 33.4923C90.4302 33.3764 90.09 33.0866 89.9467 32.6615C89.8035 32.2365 89.9109 31.7921 89.9826 31.5988C90.0005 31.5409 90.0721 31.5022 90.1437 31.5409C90.3228 31.6568 90.663 31.9466 90.8062 32.3717C90.8958 32.6422 90.8958 32.9127 90.8599 33.1252C90.9137 32.9513 91.0211 32.7775 91.1823 32.6229ZM90.3407 34.4777C90.4839 34.7096 90.5376 34.9994 90.5376 35.2313C90.5735 35.0574 90.6272 34.8448 90.7704 34.6516C90.9853 34.3618 91.3076 34.2072 91.5046 34.1493C91.5762 34.13 91.6299 34.1879 91.6299 34.2459C91.6299 34.4391 91.5941 34.8255 91.3792 35.1153C91.1644 35.4245 90.842 35.5597 90.6451 35.6177C90.5914 35.637 90.5376 35.5984 90.5197 35.5597C90.5018 35.6177 90.4481 35.637 90.3944 35.6177C90.1974 35.5404 89.8035 35.3472 89.5707 34.9608C89.3379 34.5937 89.3558 34.13 89.3737 33.9174C89.3737 33.8401 89.4454 33.8015 89.517 33.8208C89.714 33.9174 90.1079 34.1106 90.3407 34.4777ZM89.6065 36.1007C89.8035 36.1201 90.2332 36.1973 90.5555 36.5065C90.7525 36.6804 90.8599 36.9122 90.9316 37.1054C90.9316 36.9316 90.9316 36.7577 91.0032 36.5644C91.1285 36.2167 91.3971 35.9848 91.5583 35.8689C91.612 35.8302 91.7015 35.8496 91.7194 35.9268C91.7732 36.1201 91.8269 36.4872 91.7015 36.8349C91.5762 37.1827 91.3076 37.4146 91.1464 37.5305C91.1106 37.5498 91.0569 37.5498 91.0211 37.5305C91.0032 37.5692 90.9674 37.5885 90.9137 37.5692C90.6988 37.5498 90.2691 37.4726 89.9646 37.1634C89.6423 36.8543 89.5349 36.4292 89.4991 36.2167C89.4812 36.1394 89.5349 36.0814 89.6065 36.1007ZM90.6272 38.1874C90.842 38.1488 91.3434 38.1295 91.7373 38.4C91.9164 38.5159 92.0597 38.6705 92.1671 38.8251C92.0955 38.6512 92.0417 38.4386 92.0417 38.2261C92.0417 37.7431 92.2924 37.318 92.4178 37.1248C92.4536 37.0668 92.5431 37.0668 92.5789 37.1248C92.7043 37.318 92.955 37.7237 92.955 38.2261C92.955 38.7091 92.7043 39.1342 92.5789 39.3274C92.5431 39.3854 92.4536 39.3854 92.4178 39.3274L92.3999 39.3081C92.3999 39.3274 92.4178 39.3467 92.4178 39.3467C92.4357 39.4047 92.3999 39.482 92.3282 39.482C92.1134 39.5013 91.612 39.5399 91.2181 39.2694C90.8241 39.0183 90.6093 38.5546 90.5376 38.3227C90.5197 38.2647 90.5555 38.1874 90.6272 38.1874Z" fill="#451D07" fill-opacity="0.5"/>
  <path d="M106.254 31.5022C106.308 31.5216 106.379 31.5022 106.379 31.425C106.433 31.2124 106.541 30.7294 106.344 30.3236C106.147 29.9179 105.717 29.7053 105.52 29.6281C105.466 29.6087 105.395 29.6281 105.395 29.7053C105.323 29.9179 105.233 30.4009 105.43 30.8067C105.627 31.2124 106.057 31.425 106.254 31.5022ZM106.397 32.6229C106.129 32.391 105.771 32.3137 105.574 32.2944C105.502 32.2944 105.448 32.3524 105.466 32.4297C105.52 32.6422 105.627 32.99 105.896 33.2218C106.165 33.4537 106.523 33.531 106.72 33.5503C106.773 33.5503 106.809 33.5117 106.827 33.473C106.863 33.5117 106.917 33.531 106.97 33.4923C107.149 33.3764 107.49 33.0866 107.633 32.6615C107.776 32.2365 107.669 31.7921 107.597 31.5988C107.579 31.5409 107.508 31.5022 107.436 31.5409C107.257 31.6568 106.917 31.9466 106.773 32.3717C106.684 32.6422 106.684 32.9127 106.72 33.1252C106.666 32.9513 106.558 32.7775 106.397 32.6229ZM107.239 34.4777C107.096 34.7096 107.042 34.9994 107.042 35.2313C107.006 35.0574 106.952 34.8448 106.809 34.6516C106.594 34.3618 106.272 34.2072 106.075 34.1493C106.003 34.13 105.95 34.1879 105.95 34.2459C105.95 34.4391 105.985 34.8255 106.2 35.1153C106.415 35.4245 106.738 35.5597 106.935 35.6177C106.988 35.637 107.042 35.5984 107.06 35.5597C107.078 35.6177 107.131 35.637 107.185 35.6177C107.382 35.5404 107.776 35.3472 108.009 34.9608C108.242 34.5937 108.224 34.13 108.206 33.9174C108.206 33.8401 108.134 33.8015 108.063 33.8208C107.866 33.9174 107.472 34.1106 107.239 34.4777ZM107.973 36.1007C107.776 36.1201 107.346 36.1973 107.024 36.5065C106.827 36.6804 106.72 36.9122 106.648 37.1054C106.648 36.9316 106.648 36.7577 106.576 36.5644C106.451 36.2167 106.182 35.9848 106.021 35.8689C105.968 35.8302 105.878 35.8496 105.86 35.9268C105.806 36.1201 105.753 36.4872 105.878 36.8349C106.003 37.1827 106.272 37.4146 106.433 37.5305C106.469 37.5498 106.523 37.5498 106.558 37.5305C106.576 37.5692 106.612 37.5885 106.666 37.5692C106.881 37.5498 107.311 37.4726 107.615 37.1634C107.937 36.8543 108.045 36.4292 108.08 36.2167C108.098 36.1394 108.045 36.0814 107.973 36.1007ZM106.952 38.1874C106.738 38.1488 106.236 38.1295 105.842 38.4C105.663 38.5159 105.52 38.6705 105.412 38.8251C105.484 38.6512 105.538 38.4386 105.538 38.2261C105.538 37.7431 105.287 37.318 105.162 37.1248C105.126 37.0668 105.036 37.0668 105.001 37.1248C104.875 37.318 104.625 37.7237 104.625 38.2261C104.625 38.7091 104.875 39.1342 105.001 39.3274C105.036 39.3854 105.126 39.3854 105.162 39.3274L105.18 39.3081C105.18 39.3274 105.162 39.3467 105.162 39.3467C105.144 39.4047 105.18 39.482 105.251 39.482C105.466 39.5013 105.968 39.5399 106.362 39.2694C106.755 39.0183 106.97 38.5546 107.042 38.3227C107.06 38.2647 107.024 38.1874 106.952 38.1874Z" fill="#451D07" fill-opacity="0.5"/>
  <rect x="15.5874" y="23.1562" width="1.95935" height="25.1354" fill="#C1C1C1" stroke="black"/>
  <path d="M30.1879 25.6257C28.6991 23.7553 20.0612 24.6768 15.8428 24.417V40.0691C17.9768 39.5928 23.766 38.1132 28.0514 41.0777C30.1879 42.5556 38.3245 40.7135 40.2601 40.5403V26.164C37.5801 26.3588 31.6768 27.4962 30.1879 25.6257Z" fill="#FCBE24" stroke="black"/>
  <rect x="179.193" y="23.1562" width="1.95935" height="25.1354" fill="#C1C1C1" stroke="black"/>
  <circle cx="179.942" cy="22.6177" r="1.79539" fill="#C1C1C1" stroke="black"/>
  <path d="M193.631 25.6763C192.099 23.7279 183.207 24.6878 178.864 24.4172V40.7215C181.061 40.2254 187.021 38.6841 191.432 41.7721C193.631 43.3116 202.007 41.3927 204 41.2123V26.237C201.241 26.44 195.164 27.6247 193.631 25.6763Z" fill="#262626" stroke="black"/>
  <path d="M31.0564 34.4937C31.5675 35.1184 31.6746 35.7974 31.3778 36.5309C31.0811 37.2642 30.4922 37.7453 29.6112 37.9741C29.1899 38.0834 28.7601 38.0877 28.3219 37.9869C27.8836 37.8862 27.5244 37.6954 27.2442 37.4147C26.2279 37.83 25.2731 37.8097 24.3798 37.3538C23.4865 36.8978 22.9497 36.1567 22.7694 35.1307C22.3248 35.0315 21.9469 34.8362 21.6357 34.5446C21.3245 34.253 21.1001 33.8853 20.9624 33.4414C20.7414 32.7288 20.9173 32.0615 21.49 31.4395C22.0628 30.8174 22.7273 30.5471 23.4838 30.6284L24.8125 30.7757C24.9555 30.3472 25.2024 29.9644 25.553 29.6273C25.9038 29.2901 26.318 29.0468 26.796 28.8975L26.5134 27.9863C26.4663 27.8345 26.4816 27.6948 26.5593 27.5673C26.6371 27.4399 26.7589 27.3546 26.9249 27.3115C27.0909 27.2684 27.2435 27.2824 27.3828 27.3535C27.5222 27.4246 27.6154 27.5361 27.6625 27.688L27.9886 28.7393C28.5008 28.7452 28.9527 28.8456 29.3444 29.0405C29.7359 29.2355 30.1163 29.5501 30.4855 29.9844L31.5964 29.696C31.7623 29.6529 31.915 29.6669 32.0543 29.738C32.1936 29.8091 32.2868 29.9206 32.334 30.0725C32.381 30.2244 32.3657 30.364 32.288 30.4915C32.2103 30.6189 32.0884 30.7042 31.9224 30.7473L30.9266 31.0059C31.0387 31.4564 31.0365 31.9051 30.9198 32.3519C30.8031 32.7987 30.5831 33.1903 30.2598 33.5267L31.0564 34.4937ZM26.4372 36.1474C26.3394 35.8321 26.273 35.5179 26.2381 35.2051C26.2032 34.8923 26.1997 34.5809 26.2276 34.2707C25.9738 34.4754 25.6859 34.648 25.3638 34.7884C25.0418 34.9288 24.7111 35.0304 24.372 35.0933C24.5133 35.5489 24.7683 35.8708 25.1371 36.059C25.5059 36.2473 25.9393 36.2767 26.4372 36.1474ZM24.1287 33.6418C24.5372 33.5357 24.8835 33.3953 25.1673 33.2207C25.4511 33.046 25.7985 32.7538 26.2095 32.3441L23.6395 32.0648C23.2258 32.0207 22.9107 32.1056 22.6942 32.3196C22.4778 32.5336 22.4185 32.7983 22.5163 33.1137C22.6105 33.4174 22.7879 33.6112 23.0484 33.695C23.3089 33.7789 23.669 33.7611 24.1287 33.6418ZM29.1764 36.5723C29.4956 36.4894 29.7225 36.32 29.857 36.0643C29.9915 35.8084 29.9732 35.5828 29.8022 35.3874L28.0289 33.2728C27.9023 33.7096 27.8299 34.1324 27.8117 34.541C27.7936 34.9496 27.8317 35.3057 27.9259 35.6095C28.0454 35.995 28.2104 36.2709 28.4206 36.4372C28.6308 36.6035 28.8828 36.6485 29.1764 36.5723ZM29.234 32.3542C29.3254 32.2042 29.3795 32.0229 29.3964 31.8102C29.4131 31.5976 29.389 31.3862 29.3238 31.1759C29.2078 30.8021 28.9759 30.5215 28.6281 30.3341C28.2802 30.1467 27.9084 30.1044 27.5126 30.2072C27.2828 30.2668 27.0766 30.3583 26.894 30.4814C26.7115 30.6045 26.5699 30.7485 26.4694 30.9135L28.1588 31.1565L29.234 32.3542Z" fill="#451D07"/>
  <path d="M190.888 37.0813C190.769 36.958 190.664 36.8219 190.577 36.6756C190.354 36.3354 189.981 35.5369 189.981 34.6589C189.194 35.1053 188.286 35.1922 187.869 35.1746C187.711 35.1744 187.554 35.1583 187.4 35.1266C187.575 35.9547 188.014 36.5591 188.716 36.9399C189.397 37.3096 190.121 37.3567 190.888 37.0813ZM193.712 33.4445C193.937 33.1671 194.096 32.8449 194.178 32.5009C194.276 32.1044 194.278 31.7062 194.184 31.3063L195.016 31.0771C195.08 31.0615 195.14 31.0332 195.192 30.9941C195.245 30.955 195.289 30.9059 195.321 30.8498C195.353 30.7936 195.373 30.7317 195.379 30.6678C195.386 30.6039 195.379 30.5394 195.359 30.4782C195.343 30.4159 195.314 30.3574 195.274 30.3063C195.234 30.2552 195.184 30.2126 195.126 30.1811C195.068 30.1499 195.004 30.1305 194.939 30.1242C194.873 30.1178 194.806 30.1246 194.743 30.1441L193.815 30.4001C193.507 30.0147 193.189 29.7355 192.862 29.5623C192.535 29.3895 192.158 29.3005 191.73 29.2952L191.458 28.3618C191.441 28.2995 191.412 28.241 191.372 28.19C191.332 28.139 191.282 28.0965 191.224 28.0651C191.166 28.0339 191.102 28.0145 191.037 28.0082C190.971 28.0018 190.904 28.0086 190.841 28.0281C190.777 28.0437 190.717 28.0718 190.665 28.1107C190.612 28.1497 190.569 28.1986 190.536 28.2546C190.504 28.3107 190.484 28.3727 190.477 28.4367C190.471 28.5007 190.478 28.5653 190.498 28.6266L190.734 29.4353C190.339 29.566 189.982 29.7884 189.696 30.0831C189.463 30.3185 189.279 30.5944 189.152 30.8964L191.928 31.2292L193.712 33.4445ZM187.861 31.1885C187.378 31.1903 186.915 31.3786 186.574 31.712C186.234 32.0455 186.044 32.4967 186.046 32.9665C186.047 33.4362 186.241 33.886 186.584 34.217C186.927 34.5479 187.391 34.7328 187.875 34.731H187.885C188.309 34.7504 189.34 34.6367 190.074 34.0596L191.532 31.6284L187.861 31.1885ZM190.464 34.2906L191.896 31.9015L194.134 34.6913C194.374 35.0991 194.437 35.5829 194.31 36.0362C194.183 36.4895 193.876 36.8752 193.456 37.1083C193.037 37.3415 192.539 37.4031 192.073 37.2795C191.606 37.156 191.21 36.8575 190.97 36.4496L190.965 36.4403C190.738 36.097 190.33 35.188 190.464 34.2906Z" fill="url(#paint0_linear_31723_112)"/>
  <circle cx="16.2021" cy="22.6196" r="1.79539" fill="#C1C1C1" stroke="black"/>
  <defs>
    <filter id="filter0_i_31723_112" x="37.8572" y="17.2227" width="121.778" height="28.3379" filterUnits="userSpaceOnUse" color-interpolation-filters="sRGB">
      <feFlood flood-opacity="0" result="BackgroundImageFix"/>
      <feBlend mode="normal" in="SourceGraphic" in2="BackgroundImageFix" result="shape"/>
      <feColorMatrix in="SourceAlpha" type="matrix" values="0 0 0 0 0 0 0 0 0 0 0 0 0 0 0 0 0 0 127 0" result="hardAlpha"/>
      <feOffset dy="4"/>
      <feComposite in2="hardAlpha" operator="arithmetic" k2="-1" k3="1"/>
      <feColorMatrix type="matrix" values="0 0 0 0 0 0 0 0 0 0 0 0 0 0 0 0 0 0 0.25 0"/>
      <feBlend mode="normal" in2="shape" result="effect1_innerShadow_31723_112"/>
    </filter>
    <filter id="filter1_i_31723_112" x="53.657" y="21.5312" width="90.1783" height="21.1562" filterUnits="userSpaceOnUse" color-interpolation-filters="sRGB">
      <feFlood flood-opacity="0" result="BackgroundImageFix"/>
      <feBlend mode="normal" in="SourceGraphic" in2="BackgroundImageFix" result="shape"/>
      <feColorMatrix in="SourceAlpha" type="matrix" values="0 0 0 0 0 0 0 0 0 0 0 0 0 0 0 0 0 0 127 0" result="hardAlpha"/>
      <feOffset dy="4"/>
      <feComposite in2="hardAlpha" operator="arithmetic" k2="-1" k3="1"/>
      <feColorMatrix type="matrix" values="0 0 0 0 0 0 0 0 0 0 0 0 0 0 0 0 0 0 0.25 0"/>
      <feBlend mode="normal" in2="shape" result="effect1_innerShadow_31723_112"/>
    </filter>
    <linearGradient id="paint0_linear_31723_112" x1="200.988" y1="32.7403" x2="180.953" y2="33.0214" gradientUnits="userSpaceOnUse">
      <stop stop-color="#F8F29C"/>
      <stop offset="0.165" stop-color="#F6DB2A"/>
      <stop offset="0.333" stop-color="#F4A435"/>
      <stop offset="0.55" stop-color="#E85A46"/>
      <stop offset="0.699" stop-color="#B93483"/>
      <stop offset="0.867" stop-color="#502B6E"/>
      <stop offset="1" stop-color="#2A2136"/>
    </linearGradient>
  </defs>
</svg>