<svg width="138" height="45" viewBox="0 0 138 45" fill="none" xmlns="http://www.w3.org/2000/svg">
  <rect x="5.88208" y="3.875" width="131.781" height="29.814" rx="4" transform="rotate(4.66694 5.88208 3.875)" fill="#866224" stroke="black" stroke-linecap="round"/>
  <rect x="2.63733" y="1" width="131.847" height="29.814" rx="4" transform="rotate(4.66694 2.63733 1)" fill="#E9B965" stroke="black" stroke-linecap="round"/>
  <path d="M15.4298 22.6595C13.5556 22.4952 12.1871 21.9172 11.3242 20.9257C10.4726 19.9352 10.1308 18.412 10.2986 16.3561C10.4508 14.4923 11.022 13.0664 12.0123 12.0784C13.0036 11.0791 14.3238 10.6467 15.973 10.7813C16.9896 10.8643 17.8639 11.0892 18.5958 11.456C19.3277 11.8227 19.874 12.3051 20.2345 12.9031C20.595 13.5011 20.744 14.1841 20.6813 14.9522C20.6315 15.5622 20.4516 16.0933 20.1418 16.5456C19.8433 16.9989 19.419 17.3906 18.869 17.721C19.2814 17.8229 19.6244 18.0783 19.898 18.4872C20.183 18.8971 20.3047 19.3562 20.2632 19.8645C20.2189 20.4067 20.0301 20.9087 19.6968 21.3704C19.3757 21.8218 18.8581 22.1718 18.1442 22.4206C17.4416 22.6702 16.5367 22.7499 15.4298 22.6595ZM14.7766 16.2441C14.9716 16.3624 15.2216 16.4339 15.5266 16.4588C15.888 16.4883 16.2056 16.429 16.4792 16.2808C16.7651 16.1222 16.9223 15.8678 16.9509 15.5176C16.9786 15.1787 16.8637 14.9135 16.6065 14.7219C16.3614 14.52 16.0525 14.4038 15.6798 14.3734C15.3861 14.3494 15.1334 14.38 14.9218 14.465C14.7581 14.5199 14.6298 14.6288 14.5369 14.7918C14.444 14.9548 14.3897 15.1323 14.3741 15.3243C14.3584 15.5163 14.3832 15.7003 14.4484 15.8762C14.5146 16.0408 14.624 16.1634 14.7766 16.2441ZM14.4529 20.2089C14.6601 20.3168 14.9106 20.3827 15.2043 20.4067C15.5658 20.4362 15.8824 20.3882 16.1542 20.2625C16.4382 20.1265 16.5926 19.906 16.6175 19.601C16.6415 19.3073 16.5244 19.0704 16.2662 18.8901C16.008 18.7098 15.6982 18.6049 15.3367 18.5754C15.0543 18.5524 14.8022 18.5773 14.5802 18.6501C14.4165 18.705 14.2891 18.8026 14.1981 18.943C14.1079 19.0721 14.0559 19.2213 14.0421 19.3908C14.0283 19.5602 14.0549 19.7216 14.122 19.8749C14.19 20.0169 14.3003 20.1282 14.4529 20.2089ZM26.9911 23.6033C25.7034 23.4982 24.6205 23.1824 23.7425 22.6559C22.8644 22.1293 22.2166 21.4283 21.7991 20.5528C21.3939 19.6669 21.2383 18.6478 21.3323 17.4957C21.4448 16.1176 21.8274 14.9833 22.48 14.0927C23.1439 13.2032 23.9574 12.5702 24.9206 12.194C25.8837 11.8178 26.8736 11.6712 27.8902 11.7542C28.7939 11.828 29.5792 12.0285 30.2461 12.3559C30.913 12.6832 31.4148 13.0824 31.7516 13.5533C32.0884 14.0243 32.237 14.5026 32.1973 14.9884C32.1402 15.6887 31.9184 16.1766 31.532 16.4521C31.1466 16.7163 30.6884 16.8267 30.1575 16.7833C29.909 16.7631 29.6906 16.7225 29.5023 16.6616C29.3252 16.6017 29.1383 16.5239 28.9414 16.4282C28.7219 16.3307 28.5232 16.2576 28.3453 16.209C28.1795 16.15 27.9667 16.1099 27.7069 16.0886C26.9614 16.0278 26.3556 16.2058 25.8895 16.6225C25.4243 17.028 25.1585 17.6374 25.0921 18.4507C25.0358 19.1398 25.2015 19.6877 25.589 20.0946C25.9765 20.5015 26.4809 20.7303 27.1021 20.781C27.4523 20.8096 27.761 20.7893 28.0282 20.7201C28.2953 20.651 28.5013 20.5655 28.6461 20.4636C28.7909 20.3617 28.866 20.2768 28.8715 20.2091C28.047 20.1418 27.4279 19.9946 27.0143 19.7675C26.6007 19.5404 26.4133 19.1897 26.4521 18.7153C26.4908 18.2408 26.6845 17.8871 27.0333 17.654C27.383 17.4097 27.9476 17.3193 28.727 17.3829C29.529 17.4484 30.1481 17.5956 30.5842 17.8245C31.0213 18.0421 31.3197 18.3564 31.4795 18.7675C31.6402 19.1672 31.6942 19.689 31.6417 20.3329C31.5882 20.988 31.3412 21.5762 30.9006 22.0974C30.4714 22.6196 29.9045 23.0168 29.2 23.289C28.5068 23.5622 27.7705 23.6669 26.9911 23.6033ZM44.7171 15.6693C44.6562 16.4148 44.3013 16.9316 43.6524 17.2198C43.0157 17.4976 41.9999 17.6136 40.605 17.568C40.6059 18.1139 40.5713 18.816 40.5012 19.6745C40.4035 20.8719 40.2573 21.8265 40.0628 22.5383C39.8804 23.2398 39.6168 23.7528 39.272 24.0771C38.928 24.3902 38.4736 24.5236 37.9089 24.4775C37.3554 24.4323 36.9465 24.217 36.6823 23.8316C36.4182 23.4462 36.2586 22.893 36.2038 22.1722C36.1489 21.4513 36.1694 20.5035 36.2653 19.3287C36.3299 18.538 36.404 17.8391 36.4877 17.2319C35.5538 17.1102 34.8048 16.9524 34.2407 16.7585C33.6889 16.5542 33.2898 16.2886 33.0436 15.9614C32.7974 15.6343 32.6955 15.211 32.7379 14.6914C32.7896 14.0588 33.0448 13.5793 33.5035 13.2529C33.9623 12.9265 34.6269 12.7249 35.4973 12.6481C36.3678 12.5713 37.4977 12.5897 38.8871 12.7031C40.2878 12.8174 41.417 12.9835 42.2748 13.2014C43.1326 13.4192 43.767 13.7269 44.178 14.1243C44.589 14.5217 44.7687 15.0367 44.7171 15.6693ZM62.6204 17.1308C62.5596 17.8763 62.2047 18.3931 61.5558 18.6813C60.919 18.9591 59.9032 19.0752 58.5083 19.0295C58.5092 19.5754 58.4747 20.2776 58.4046 21.136C58.3068 22.3334 58.1607 23.288 57.9661 23.9999C57.7838 24.7014 57.5202 25.2143 57.1753 25.5386C56.8313 25.8517 56.377 25.9852 55.8122 25.939C55.2587 25.8939 54.8499 25.6786 54.5857 25.2931C54.3215 24.9077 54.162 24.3545 54.1071 23.6337C54.0522 22.9128 54.0728 21.965 54.1687 20.7903C54.2332 19.9996 54.3073 19.3006 54.391 18.6934C53.4572 18.5717 52.7082 18.4139 52.1441 18.22C51.5922 18.0158 51.1932 17.7501 50.947 17.423C50.7008 17.0958 50.5989 16.6725 50.6413 16.1529C50.6929 15.5203 50.9481 15.0408 51.4069 14.7144C51.8656 14.388 52.5302 14.1864 53.4007 14.1096C54.2711 14.0329 55.4011 14.0512 56.7904 14.1646C58.1911 14.2789 59.3203 14.445 60.1781 14.6629C61.0359 14.8807 61.6703 15.1884 62.0814 15.5858C62.4924 15.9832 62.6721 16.4982 62.6204 17.1308ZM64.3891 26.6904C63.5749 26.6353 62.8601 26.4064 62.2448 26.0036C61.6409 25.6018 61.183 25.0812 60.8714 24.4417C60.5719 23.7919 60.4418 23.0876 60.481 22.3289C60.5315 21.5712 60.7619 20.9078 61.1722 20.3386C61.5825 19.7694 62.1239 19.336 62.7964 19.0384C63.4801 18.7417 64.2286 18.6266 65.0419 18.693C65.8326 18.7575 66.5304 18.9851 67.1353 19.3756C67.7515 19.767 68.2211 20.2829 68.5441 20.9233C68.867 21.5637 69.0089 22.2633 68.9697 23.0219C68.9211 23.7571 68.6911 24.4149 68.2799 24.9953C67.8695 25.5645 67.322 26.0031 66.6374 26.3111C65.964 26.62 65.2146 26.7464 64.3891 26.6904ZM64.6418 24.2208C64.9468 24.2457 65.222 24.1487 65.4672 23.93C65.7125 23.7112 65.8481 23.4437 65.8739 23.1274C65.8997 22.8111 65.8089 22.5308 65.6014 22.2864C65.3949 22.0308 65.1391 21.8905 64.8341 21.8656C64.5291 21.8407 64.254 21.9376 64.0087 22.1564C63.7643 22.3639 63.6293 22.6258 63.6034 22.942C63.5776 23.2583 63.668 23.5443 63.8745 23.7999C64.0811 24.0556 64.3369 24.1959 64.6418 24.2208ZM72.4076 27.345C71.7525 27.2915 71.1902 27.075 70.7209 26.6956C70.2638 26.3058 69.9255 25.7835 69.706 25.1288C69.4978 24.475 69.4274 23.7359 69.4947 22.9113C69.5436 22.3126 69.6598 21.7251 69.8433 21.1488C70.0268 20.5725 70.2811 20.1043 70.6061 19.7442C70.9434 19.3737 71.3379 19.207 71.7897 19.2438C72.2077 19.278 72.5185 19.4398 72.7223 19.7293C72.9261 20.0189 73.0091 20.3952 72.9713 20.8583C72.951 21.1068 72.8594 21.4632 72.6964 21.9275C72.6796 21.9944 72.6318 22.161 72.5532 22.4275C72.4755 22.6827 72.4284 22.912 72.4118 23.1153C72.3795 23.5106 72.396 23.7963 72.4612 23.9722C72.5274 24.1367 72.6847 24.2292 72.9332 24.2495C73.193 24.2707 73.3797 24.1438 73.4931 23.8688C73.6074 23.5824 73.6872 23.1625 73.7324 22.6091L73.8192 21.3369C73.8514 20.9415 73.9803 20.6166 74.2058 20.3621C74.4425 20.1085 74.7755 19.9993 75.2047 20.0343C75.634 20.0694 75.95 20.2373 76.1529 20.5381C76.3567 20.8277 76.4429 21.1645 76.4115 21.5485L76.3296 22.3435C76.3045 22.512 76.279 22.7544 76.2532 23.0707C76.2144 23.5451 76.2301 23.9103 76.3002 24.1661C76.3825 24.4117 76.5592 24.5455 76.8303 24.5676C77.3612 24.6109 77.6561 24.2711 77.7152 23.5482C77.7336 23.3223 77.6755 22.9196 77.5409 22.34C77.5342 22.2826 77.5019 22.1208 77.4441 21.8545C77.3862 21.5883 77.3646 21.3648 77.3794 21.1841C77.4191 20.6983 77.5446 20.3447 77.756 20.1232C77.9796 19.8913 78.3004 19.7924 78.7183 19.8265C79.1701 19.8634 79.5268 20.0915 79.7882 20.5108C80.0618 20.9198 80.2424 21.4235 80.33 22.0219C80.4185 22.6091 80.4388 23.1963 80.3909 23.7837C80.2885 25.0375 79.9128 26.0189 79.2636 26.7277C78.6154 27.4253 77.7942 27.7335 76.8002 27.6524C76.3484 27.6155 75.9373 27.4967 75.5671 27.2959C75.1969 27.0951 74.8995 26.8377 74.675 26.5237C74.3903 26.8075 74.0485 27.0241 73.6497 27.1735C73.2622 27.3238 72.8482 27.3809 72.4076 27.345ZM87.4312 28.5543C87.0245 28.5211 86.7287 28.3833 86.5439 28.1408C86.3703 27.8992 86.2743 27.6128 86.2558 27.2815C86.2374 26.9502 86.2494 26.5248 86.2918 26.0052C86.3462 25.3387 86.2978 24.8174 86.1466 24.4412C85.9953 24.065 85.7164 23.8603 85.3097 23.8271C84.937 23.7966 84.6398 23.9543 84.4183 24.3001C84.209 24.6355 84.079 25.1139 84.0282 25.7351C83.9794 26.3338 83.9255 26.7842 83.8668 27.0865C83.808 27.3887 83.6729 27.6506 83.4615 27.8721C83.251 28.0823 82.9255 28.1695 82.485 28.1335C81.8411 28.081 81.423 27.6318 81.2305 26.786C81.0389 25.9289 80.9888 24.9412 81.0801 23.8229C81.3014 21.1119 81.9825 19.803 83.1233 19.8961C83.4396 19.922 83.693 20.0222 83.8834 20.197C84.0747 20.3604 84.1984 20.5866 84.2544 20.8754C84.4142 20.7293 84.6516 20.6065 84.9667 20.5072C85.2932 20.4087 85.6314 20.3738 85.9816 20.4024C87.2242 20.5038 88.1135 21.0313 88.6497 21.9847C89.1972 22.9391 89.4078 24.19 89.2815 25.7376C89.2068 26.6525 89.0292 27.3658 88.7486 27.8773C88.469 28.3775 88.0298 28.6032 87.4312 28.5543ZM105.27 18.1051C105.902 18.1568 106.37 18.4167 106.673 18.8849C106.987 19.354 107.172 20.0172 107.227 20.8745C107.283 21.7206 107.254 22.8383 107.141 24.2277C107.027 25.617 106.875 26.7246 106.682 27.5503C106.49 28.3648 106.208 28.9728 105.834 29.3744C105.46 29.7759 104.951 29.9504 104.307 29.8979C103.539 29.8352 103.024 29.4633 102.761 28.7824C102.498 28.1014 102.395 27.0696 102.451 25.6869C102.1 25.6696 101.523 25.6282 100.721 25.5627L99.8399 25.4908C99.6596 26.8634 99.3846 27.8643 99.0148 28.4936C98.6451 29.123 98.0761 29.4063 97.308 29.3436C96.6642 29.291 96.1903 29.0363 95.8865 28.5794C95.5827 28.1225 95.4023 27.4767 95.3453 26.6419C95.3006 25.7968 95.3354 24.6739 95.4498 23.2733C95.5641 21.8726 95.7119 20.7589 95.8931 19.9322C96.0856 19.1065 96.3688 18.4928 96.7427 18.0913C97.1175 17.6784 97.6269 17.4982 98.2707 17.5508C98.8242 17.596 99.2448 17.8066 99.5325 18.1826C99.8211 18.5473 100.001 19.0623 100.072 19.7275C100.155 20.3825 100.171 21.2253 100.121 22.256L101.324 22.3542C101.945 22.4049 102.402 22.4479 102.695 22.4831C102.856 20.9271 103.119 19.7944 103.484 19.0851C103.861 18.3654 104.457 18.0387 105.27 18.1051ZM110.561 30.4425C109.679 30.3706 108.973 30.1139 108.44 29.6724C107.909 29.2197 107.674 28.6149 107.735 27.8581C107.789 27.2029 108.119 26.7068 108.727 26.3698C109.334 26.0328 110.067 25.8993 110.926 25.9694C111.242 25.9952 111.533 26.0474 111.8 26.126C112.079 26.1943 112.266 26.2664 112.362 26.3425C112.385 26.0601 112.285 25.8188 112.063 25.6187C111.841 25.4074 111.488 25.2818 111.002 25.2422C110.787 25.2247 110.611 25.2273 110.473 25.2501C110.334 25.273 110.183 25.3118 110.02 25.3667C109.856 25.4215 109.705 25.4604 109.567 25.4832C109.44 25.5069 109.269 25.51 109.054 25.4925C108.693 25.463 108.418 25.3496 108.229 25.1523C108.042 24.9436 107.963 24.6473 107.995 24.2632C108.031 23.8227 108.219 23.4629 108.561 23.1837C108.913 22.9055 109.338 22.7127 109.836 22.6055C110.334 22.487 110.827 22.4476 111.312 22.4873C112.272 22.5657 113.06 22.8119 113.674 23.2259C114.301 23.6295 114.742 24.1375 114.999 24.7498C115.268 25.363 115.373 26.0254 115.315 26.737C115.283 27.1211 115.221 27.4741 115.126 27.7962C115.043 28.1191 114.943 28.3668 114.827 28.5393C114.974 28.6877 115.079 28.8556 115.144 29.0427C115.219 29.2309 115.249 29.4209 115.234 29.613C115.207 29.9405 115.071 30.2137 114.825 30.4325C114.592 30.6522 114.294 30.7473 113.932 30.7177C113.661 30.6956 113.444 30.6381 113.281 30.5452C113.118 30.4523 112.948 30.3133 112.769 30.1282C112.473 30.2746 112.152 30.3735 111.807 30.4249C111.473 30.4772 111.058 30.4831 110.561 30.4425ZM111.039 28.7588C111.276 28.7782 111.467 28.7426 111.611 28.652C111.766 28.5623 111.849 28.4441 111.861 28.2972C111.873 28.1504 111.81 28.0201 111.672 27.9065C111.544 27.7938 111.362 27.7277 111.125 27.7083C110.888 27.689 110.691 27.7241 110.536 27.8138C110.392 27.9044 110.315 28.0231 110.303 28.17C110.291 28.3168 110.348 28.4466 110.475 28.5593C110.614 28.673 110.802 28.7395 111.039 28.7588ZM117.968 31.0131C117.403 30.9669 116.996 30.7234 116.748 30.2824C116.5 29.8414 116.358 29.2101 116.323 28.3885C116.3 27.5565 116.348 26.4063 116.468 24.9379C116.583 23.5259 116.707 22.4274 116.839 21.6422C116.983 20.8579 117.215 20.2401 117.536 19.7888C117.869 19.3383 118.34 19.138 118.95 19.1878C119.56 19.2376 119.987 19.5112 120.231 20.0087C120.485 20.5071 120.615 21.1544 120.618 21.9506C120.632 22.7478 120.582 23.8524 120.467 25.2643C120.353 26.6537 120.199 27.7726 120.005 28.6209C119.823 29.4589 119.568 30.0805 119.239 30.4857C118.911 30.8797 118.487 31.0555 117.968 31.0131ZM122.816 31.4088C122.251 31.3627 121.844 31.1192 121.596 30.6782C121.348 30.2372 121.206 29.6059 121.171 28.7843C121.148 27.9523 121.196 26.8021 121.316 25.3337C121.431 23.9217 121.555 22.8231 121.688 22.038C121.831 21.2537 122.064 20.6359 122.385 20.1845C122.717 19.7341 123.188 19.5338 123.798 19.5836C124.408 19.6333 124.835 19.907 125.079 20.4045C125.334 20.9029 125.463 21.5502 125.466 22.3464C125.48 23.1436 125.43 24.2481 125.315 25.6601C125.201 27.0495 125.048 28.1683 124.853 29.0167C124.671 29.8546 124.416 30.4762 124.087 30.8815C123.759 31.2755 123.335 31.4512 122.816 31.4088Z" fill="black"/>
  </svg>
  