<svg width="362" height="222" viewBox="0 0 362 222" fill="none" xmlns="http://www.w3.org/2000/svg">
<path d="M170.668 143.5C222.275 143.5 248.696 148.046 272.322 156.296C284.147 160.425 295.279 165.484 308.539 171.384C321.795 177.282 337.16 184.014 357.426 191.47C359.059 192.071 360.089 192.69 360.63 193.29C360.894 193.583 361.029 193.857 361.075 194.109C361.121 194.359 361.088 194.627 360.954 194.927C360.675 195.55 359.972 196.271 358.764 197.063C357.57 197.846 355.942 198.66 353.904 199.494C345.743 202.836 331.276 206.399 312.713 209.664C275.606 216.19 222.277 221.5 170.668 221.5C119.062 221.5 71.704 215.896 40.0703 209.225C24.2418 205.887 12.3908 202.289 5.91309 199.013C4.2966 198.195 3.03316 197.406 2.13086 196.658C1.21934 195.903 0.725741 195.229 0.5625 194.655C0.412295 194.127 0.523512 193.622 1.00195 193.097C1.50343 192.547 2.39964 191.991 3.77637 191.467C72.8422 165.163 114.287 143.5 170.668 143.5Z" fill="#FFF5A9" stroke="black"/>
<ellipse cx="117.5" cy="20" rx="117.5" ry="20" transform="matrix(-1 0 0 1 293.099 164)" fill="black" fill-opacity="0.2"/>
<path d="M280.157 163.326C272.241 169.545 265.804 163.326 263.575 159.439C265.614 148.455 266.634 137.731 266.937 127.596C266.978 126.246 267.005 124.907 267.021 123.579C267.095 117.32 266.902 111.31 266.517 105.631C266.383 103.646 266.225 101.702 266.047 99.8016C264.393 82.1737 260.995 68.3182 258.391 61.0021C271.26 74.3739 277.571 94.1997 280.23 113.555C281.568 123.289 281.982 132.903 281.842 141.518C281.811 143.466 281.751 145.362 281.667 147.196C281.384 153.406 280.825 158.914 280.157 163.326Z" fill="#825A11"/>
<path d="M281.667 147.196C281.384 153.406 280.825 158.914 280.157 163.326C272.241 169.545 265.804 163.326 263.575 159.439C265.614 148.455 266.634 137.731 266.937 127.596M281.667 147.196C279.634 147.617 274.676 148.249 271.104 147.412M281.667 147.196C281.751 145.362 281.811 143.466 281.842 141.518M281.842 141.518C280.887 141.855 278.324 142.443 275.713 142.1M281.842 141.518C281.982 132.903 281.568 123.289 280.23 113.555M266.937 127.596C269.321 128.043 274.419 128.677 275.739 127.641M266.937 127.596C266.978 126.246 267.005 124.907 267.021 123.579M267.021 123.579C268.057 123.821 270.556 124.205 272.266 123.799M267.021 123.579C267.095 117.32 266.902 111.31 266.517 105.631M280.23 113.555C277.571 94.1996 271.26 74.3739 258.391 61.0021C260.995 68.3182 264.393 82.1737 266.047 99.8016M280.23 113.555C278.721 113.874 275.066 114.43 272.52 114.103M266.517 105.631C267.784 105.704 270.526 105.696 271.356 105.083M266.517 105.631C266.383 103.646 266.225 101.702 266.047 99.8016M266.047 99.8016C268.019 99.4789 272.186 98.6167 273.076 97.7488" stroke="black"/>
<path d="M207.967 24.96C248.083 3.07724 261.324 40.8313 259.441 62.2567C252.41 50.9201 243.308 42.103 239.636 39.1115C239.62 38.0312 241.241 36.572 242.053 35.9775C241.032 35.7383 237.552 36.0438 235.939 36.2264C232.846 33.3484 227.22 30.3699 224.793 29.2404L225.954 27.1577C224.874 27.1736 222.866 27.8918 221.998 28.249C218.35 26.5868 211.124 25.3637 207.967 24.96Z" fill="#4DA058" stroke="black"/>
<path d="M195.918 64.8487C213.891 22.8353 247.654 44.3003 259.433 62.2961C246.895 57.7412 234.289 56.4469 229.553 56.3692C228.872 55.5304 229.242 53.3815 229.512 52.4118C228.562 52.8553 226.017 55.249 224.863 56.3904C220.653 56.0435 214.39 57.1852 211.785 57.7994L211.408 55.4449C210.569 56.1258 209.437 57.9321 208.975 58.7502C205.082 59.7013 198.648 63.2121 195.918 64.8487Z" fill="#4DA058"/>
<path d="M259.433 62.2961C247.654 44.3003 213.891 22.8353 195.918 64.8487C198.648 63.2121 205.082 59.7013 208.975 58.7502C209.437 57.9321 210.569 56.1258 211.408 55.4449L211.785 57.7994C214.39 57.1852 220.653 56.0435 224.863 56.3904C226.017 55.249 228.562 52.8553 229.512 52.4118C229.242 53.3815 228.872 55.5304 229.553 56.3692C234.289 56.4469 246.895 57.7412 259.433 62.2961ZM259.433 62.2961C250.828 54.0054 229.501 39.6486 213.025 48.5471" stroke="black"/>
<path d="M318.926 39.3315C285.691 7.96916 263.287 41.1166 259.661 62.3166C269.343 53.14 280.388 46.9265 284.7 44.9669C284.99 43.9262 283.794 42.103 283.159 41.3214C284.207 41.3495 287.496 42.5298 289.009 43.1165C292.732 41.1193 298.931 39.6691 301.565 39.1936L300.971 36.8841C302.012 37.1742 303.771 38.3791 304.52 38.9453C308.47 38.265 315.77 38.9193 318.926 39.3315Z" fill="#4DA058"/>
<path d="M259.661 62.3166C263.287 41.1166 285.691 7.96916 318.926 39.3315C315.77 38.9193 308.47 38.265 304.52 38.9453C303.771 38.3791 302.012 37.1742 300.971 36.8841L301.565 39.1936C298.931 39.6691 292.732 41.1193 289.009 43.1165C287.496 42.5298 284.207 41.3495 283.159 41.3214C283.794 42.103 284.99 43.9262 284.7 44.9669C280.388 46.9265 269.343 53.14 259.661 62.3166ZM259.661 62.3166C264.246 51.2825 278.081 29.6122 296.738 31.2032" stroke="black"/>
<path d="M299.904 77.7964C297.44 46.6447 270.871 53.1745 259.306 62.261C268.426 62.0499 276.877 63.9663 279.963 64.9509C280.587 64.5562 280.817 63.0829 280.854 62.3955C281.373 62.8905 282.499 64.9978 282.997 65.9896C285.801 66.685 289.61 68.7936 291.164 69.7609L291.922 68.3176C292.317 68.9421 292.656 70.3601 292.776 70.991C295.091 72.4583 298.493 76.1393 299.904 77.7964Z" fill="#348A62"/>
<path d="M259.306 62.261C270.871 53.1745 297.44 46.6447 299.904 77.7964C298.493 76.1393 295.091 72.4583 292.776 70.991C292.656 70.3601 292.317 68.9421 291.922 68.3176L291.164 69.7609C289.61 68.7936 285.801 66.685 282.997 65.9896C282.499 64.9978 281.373 62.8905 280.854 62.3955C280.817 63.0829 280.587 64.5562 279.963 64.9509C276.877 63.9663 268.426 62.0499 259.306 62.261ZM259.306 62.261C266.693 58.7694 283.651 54.1278 292.382 63.4946" stroke="black"/>
<circle cx="8.18828" cy="8.18828" r="8.18828" transform="matrix(-0.97361 -0.22822 -0.22822 0.97361 264.056 62.665)" fill="#9D7939" stroke="black"/>
<circle cx="8.18828" cy="8.18828" r="8.18828" transform="matrix(-0.97361 -0.22822 -0.22822 0.97361 277.479 57.0664)" fill="#9D7939" stroke="black"/>
<path d="M224.908 88.7192C218.433 58.1484 245.763 56.8721 259.431 62.3042C250.626 64.6891 243.065 68.9244 240.386 70.744C239.675 70.5427 239.036 69.1951 238.806 68.5465C238.449 69.1682 237.967 71.5084 237.771 72.6008C235.279 74.0632 232.225 77.1657 231.01 78.5341L229.873 77.3653C229.671 78.0761 229.749 79.5321 229.812 80.1712C228.009 82.235 225.791 86.7298 224.908 88.7192Z" fill="#348A62"/>
<path d="M259.431 62.3042C245.763 56.8721 218.433 58.1484 224.908 88.7192C225.791 86.7298 228.009 82.235 229.812 80.1712C229.749 79.5321 229.671 78.0761 229.873 77.3653L231.01 78.5341C232.225 77.1657 235.279 74.0632 237.771 72.6008C237.967 71.5084 238.449 69.1682 238.806 68.5465C239.036 69.1951 239.675 70.5427 240.386 70.744C243.065 68.9244 250.626 64.6891 259.431 62.3042ZM259.431 62.3042C251.356 61.0518 233.778 61.4119 228.064 72.8709" stroke="black"/>
<circle cx="8.18828" cy="8.18828" r="8.18828" transform="matrix(-0.97361 -0.22822 -0.22822 0.97361 262.921 50.291)" fill="#9D7939" stroke="black"/>
<path d="M169.5 40.0015V45.0015C171.9 45.4015 174.833 45.1681 176 45.0015L175.5 38.5577C170.851 38.3001 169.5 39.2806 169.5 40.0015Z" fill="#999999" stroke="black"/>
<rect x="63.1067" y="72.1089" width="5" height="92.9522" transform="rotate(-6.82457 63.1067 72.1089)" fill="#92836B" stroke="black"/>
<circle cx="58.5" cy="50.5" r="0.5" fill="#FCFFA9"/>
<circle cx="65" cy="69" r="5.5" fill="#92836B" stroke="black"/>
<rect x="-0.555872" y="0.437042" width="5" height="92.9522" transform="matrix(-0.992915 -0.11883 -0.11883 0.992915 281.065 71.6089)" fill="#92836B" stroke="black"/>
<circle cx="0.5" cy="0.5" r="0.5" transform="matrix(-1 0 0 1 286.672 50)" fill="#FCFFA9"/>
<path d="M66.5 74C89.3333 67.8333 142.6 47.2 173 14" stroke="black"/>
<path d="M83.5 82.5C81.1 84.1 74.1667 76.1667 71 72C75.8 68.4 85.3333 66.5 89.5 66C88.5 70.8333 85.9 80.9 83.5 82.5Z" fill="#78BEFF" stroke="black"/>
<path d="M102.5 76.5C100.1 78.1 93.1667 70.1667 90 66C94.8 62.4 103.333 59 107.5 58.5C106.5 63.3333 104.9 74.9 102.5 76.5Z" fill="#FF8284" stroke="black"/>
<path d="M119.5 69C117.1 70.6 110.167 62.6667 107 58.5C111.8 54.9 120.333 51.5 124.5 51C123.5 55.8333 121.9 67.4 119.5 69Z" fill="#FFFF52" stroke="black"/>
<path d="M135.5 62C133.1 63.6 126.667 55.1667 123.5 51C128.5 48 134 44.5 139 42C138 46.8333 137.9 60.4 135.5 62Z" fill="#FF8284" stroke="black"/>
<path d="M150 50C147.6 51.6 142.167 45.6667 139 41.5C144.5 37.5 146.5 36 154 31C153 35.8333 152.4 48.4 150 50Z" fill="#78BEFF" stroke="black"/>
<path d="M163 38.5325C160.6 40.1325 158.167 34.6984 155 30.5318C158.5 27.0003 169 17.5339 169 19.5318L169 19.5328C168 24.3669 165.4 36.9326 163 38.5325Z" fill="#FFFF52" stroke="black"/>
<path d="M278.5 74C255.667 67.8333 202.4 47.2 172 14" stroke="black"/>
<path d="M261.5 82.5C263.9 84.1 270.833 76.1667 274 72C269.2 68.4 259.667 66.5 255.5 66C256.5 70.8333 259.1 80.9 261.5 82.5Z" fill="#78BEFF" stroke="black"/>
<path d="M242.5 76.5C244.9 78.1 251.833 70.1667 255 66C250.2 62.4 241.667 59 237.5 58.5C238.5 63.3333 240.1 74.9 242.5 76.5Z" fill="#FF8284" stroke="black"/>
<path d="M225.5 69C227.9 70.6 234.833 62.6667 238 58.5C233.2 54.9 224.667 51.5 220.5 51C221.5 55.8333 223.1 67.4 225.5 69Z" fill="#FFFF52" stroke="black"/>
<path d="M209.5 62C211.9 63.6 218.333 55.1667 221.5 51C216.5 48 211 44.5 206 42C207 46.8333 207.1 60.4 209.5 62Z" fill="#FF8284" stroke="black"/>
<path d="M195 50C197.4 51.6 202.833 45.6667 206 41.5C200.5 37.5 198.5 36 191 31C192 35.8333 192.6 48.4 195 50Z" fill="#78BEFF" stroke="black"/>
<path d="M182 38.5325C184.4 40.1325 186.833 34.6984 190 30.5318C186.5 27.0003 176 17.5339 176 19.5318L176 19.5328C177 24.3669 179.6 36.9326 182 38.5325Z" fill="#FFFF52" stroke="black"/>
<circle cx="172" cy="14" r="5.5" fill="#92836B" stroke="black"/>
<path d="M187 22.5C182.2 19.3 173.333 18.5 169.5 18.5V40C169.5 39 172.1 37.5 182.5 39.5C192.9 41.5 201.833 33.3333 205 29C197.5 29 193 26.5 187 22.5Z" fill="#FFFF52"/>
<path d="M169.5 45V40M169.5 40V18.5C173.333 18.5 182.2 19.3 187 22.5C193 26.5 197.5 29 205 29C201.833 33.3333 192.9 41.5 182.5 39.5C172.1 37.5 169.5 39 169.5 40Z" stroke="black"/>
<circle cx="6" cy="6" r="5.5" transform="matrix(-1 0 0 1 285.672 63)" fill="#92836B" stroke="black"/>
<path d="M74.4999 164.5C84.4999 144.5 87.6665 124.167 87.9999 116.5H255.5C259.5 140.5 270.5 153.5 272.5 164.5C271.833 175.667 250.6 198 171 198C91.3999 198 73.4999 175.667 74.4999 164.5Z" fill="#E9EC8D" stroke="black"/>
<path d="M74.4999 164.5C84.4999 144.5 87.6665 124.167 87.9999 116.5H91C89 137.3 80.0596 161.5 75.8395 171C74.7062 168.62 74.3298 166.399 74.4999 164.5Z" fill="#F0575A"/>
<path d="M81.5 178.252C91.5 152.454 96 126.335 97 116.5H105.5C102.3 145.7 94.5 174.112 91 184.668C87.0343 182.601 83.9121 180.427 81.5 178.252Z" fill="#F0575A"/>
<path d="M103 189.639C112.6 157.349 114.667 127.426 114.5 116.5H125.5C126.333 123.695 126 149.175 118 193.542C112.349 192.399 107.372 191.081 103 189.639Z" fill="#F0575A"/>
<path d="M133.557 196C137.613 157 139.5 130.5 139.5 116.5H149.5C149.9 147.3 146.667 183.065 145 197.098C140.975 196.799 137.164 196.43 133.557 196Z" fill="#F0575A"/>
<path d="M200 196.873C196.8 166.771 194 130.749 193 116.5H183C184.2 144.1 186.833 182.09 188 197.635C192.191 197.447 196.188 197.191 200 196.873Z" fill="#F0575A"/>
<path d="M212.5 195.529C208.9 171.553 206 132.853 205 116.5H216C217.6 146.1 224.333 179.807 227.5 192.961C222.933 193.937 217.944 194.803 212.5 195.529Z" fill="#F0575A"/>
<path d="M243.5 188.562C235.5 161.812 230.5 129.375 229 116.5H240C241.667 129.928 247.1 162.106 255.5 183.392C252.117 185.2 248.142 186.945 243.5 188.562Z" fill="#F0575A"/>
<path d="M264.5 177.386C254.5 154.895 249.167 127.424 247.75 116.5H251.625C255.71 130.536 265.142 161.086 270.19 171C268.91 173.047 267.053 175.21 264.5 177.386Z" fill="#F0575A"/>
<path d="M74.4999 164.5C84.4999 144.5 87.6665 124.167 87.9999 116.5H91C89 137.3 80.0596 161.5 75.8395 171C74.7062 168.62 74.3298 166.399 74.4999 164.5Z" stroke="black"/>
<path d="M81.5 178.252C91.5 152.454 96 126.335 97 116.5H105.5C102.3 145.7 94.5 174.112 91 184.668C87.0343 182.601 83.9121 180.427 81.5 178.252Z" stroke="black"/>
<path d="M103 189.639C112.6 157.349 114.667 127.426 114.5 116.5H125.5C126.333 123.695 126 149.175 118 193.542C112.349 192.399 107.372 191.081 103 189.639Z" stroke="black"/>
<path d="M133.557 196C137.613 157 139.5 130.5 139.5 116.5H149.5C149.9 147.3 146.667 183.065 145 197.098C140.975 196.799 137.164 196.43 133.557 196Z" stroke="black"/>
<path d="M200 196.873C196.8 166.771 194 130.749 193 116.5H183C184.2 144.1 186.833 182.09 188 197.635C192.191 197.447 196.188 197.191 200 196.873Z" stroke="black"/>
<path d="M212.5 195.529C208.9 171.553 206 132.853 205 116.5H216C217.6 146.1 224.333 179.807 227.5 192.961C222.933 193.937 217.944 194.803 212.5 195.529Z" stroke="black"/>
<path d="M243.5 188.562C235.5 161.812 230.5 129.375 229 116.5H240C241.667 129.928 247.1 162.106 255.5 183.392C252.117 185.2 248.142 186.945 243.5 188.562Z" stroke="black"/>
<path d="M264.5 177.386C254.5 154.895 249.167 127.424 247.75 116.5H251.625C255.71 130.536 265.142 161.086 270.19 171C268.91 173.047 267.053 175.21 264.5 177.386Z" stroke="black"/>
<path d="M149 165.5V198.5H155V165.5C155.5 162.667 159.1 157 169.5 157C179.9 157 183.167 162.667 183.5 165.5V198.5H189.5V165.5C188.833 160.833 183.9 151.5 169.5 151.5C155.1 151.5 149.833 160.833 149 165.5Z" fill="#F0575A" stroke="black"/>
<path d="M183.5 165.5V198.5H155V165.5C155.5 162.667 159.1 157 169.5 157C179.9 157 183.167 162.667 183.5 165.5Z" fill="#333333" stroke="black"/>
<path d="M100.999 93C129.499 80 158.999 58 166.999 46H168.999H170.999H173.749H175.124H176.499C188.499 62.5 234.499 88.5 248.499 95.5C257.205 99.853 260.304 103.819 259.719 108C259.364 110.542 257.646 113.164 254.999 116C253.342 117.775 251.152 119.542 248.499 121.263C249.499 126.342 249.5 135 241.999 139.5C235.165 143.6 229.5 139 228.999 132.5V130.288C220.229 133.294 210 135.787 198.999 137.417C198.999 145 192 151 182 151C166.999 151 165.499 142.482 165.499 139.439C154.011 139.183 142.994 138.129 132.999 136.396C133.499 139.597 131.899 145.8 121.499 145C111.099 144.2 106.833 134.015 105.999 129.022C98.4127 125.903 92.5403 122.185 88.9994 118C89.4994 121.193 89.6991 126.963 86.498 124.5C83.2969 122.037 85.1642 111.807 86.498 107C88.4707 100.65 95.5235 95.235 100.999 93Z" fill="#FF8284"/>
<path d="M88.9994 118C92.5403 122.185 98.4127 125.903 105.999 129.022M88.9994 118C89.4994 121.193 89.6991 126.963 86.498 124.5C83.2969 122.037 85.1642 111.807 86.498 107M88.9994 118C87.475 116.4 86.6966 110 86.498 107M105.999 129.022C106.833 134.015 111.099 144.2 121.499 145C131.899 145.8 133.499 139.597 132.999 136.396M105.999 129.022C111.999 131.48 125.799 136.396 132.999 136.396M132.999 136.396C142.994 138.129 154.011 139.183 165.499 139.439M165.499 139.439C165.499 142.482 166.999 151 182 151C192 151 198.999 145 198.999 137.417M165.499 139.439C171.572 139.737 186.773 139.751 198.999 137.417M198.999 137.417C210 135.787 220.229 133.294 228.999 130.288M228.999 130.288V132.5C229.5 139 235.165 143.6 241.999 139.5C249.5 135 249.499 126.342 248.499 121.263M228.999 130.288C234.333 128.367 245.699 123.873 248.499 121.263M248.499 121.263C251.152 119.542 253.342 117.775 254.999 116C257.646 113.164 259.364 110.542 259.719 108C260.304 103.819 257.205 99.853 248.499 95.5C234.499 88.5 188.499 62.5 176.499 46H175.124H173.749H170.999H168.999H166.999C158.999 58 129.499 80 100.999 93C95.5235 95.235 88.4707 100.65 86.498 107" stroke="black"/>
<path d="M89.0006 118C109.928 103.219 150.541 72.1446 164.738 53.142C166.353 50.5004 167.784 48.0983 169.001 46H171.001H173.751H175.126C194.826 70 239.731 97.3333 259.721 108C259.721 115.007 261 126 255.001 129.022C249.96 131.561 249.094 123.849 248.501 121.263C231.701 114.042 192.584 68.079 175.126 46H173.751C184.001 65.5256 209.401 109.719 229.001 130.288C228.501 135.859 225.5 145.5 213.5 147.5C203.242 149.21 199.834 140.612 199.001 137.417C189.001 112.151 178.001 65.9449 173.751 46H171.001C171.001 46.223 170.991 46.4614 170.973 46.7149C169.955 72.7913 167.482 126.707 165.501 139.439C163.667 143.293 163.5 151.5 149 150C134.5 148.5 133.667 139.931 133.001 136.396C145.424 111.584 170.031 59.6463 170.973 46.7149C170.982 46.4742 170.991 46.2359 171.001 46H169.001C168.171 48.0972 166.709 50.5033 164.738 53.142C151.972 74.0193 127.66 109.863 106.001 129.022C106.001 132.515 104.201 138.6 97.0006 135C89.8006 131.4 88.6673 122.167 89.0006 118Z" fill="#FCFFA9"/>
<path d="M89.0006 118C109.928 103.219 150.541 72.1446 164.738 53.142C166.353 50.5004 167.784 48.0983 169.001 46H171.001H173.751H175.126C194.826 70 239.731 97.3333 259.721 108C259.721 115.007 261 126 255.001 129.022C249.96 131.561 249.094 123.849 248.501 121.263C231.701 114.042 192.584 68.079 175.126 46H173.751C184.001 65.5256 209.401 109.719 229.001 130.288C228.501 135.859 225.5 145.5 213.5 147.5C203.242 149.21 199.834 140.612 199.001 137.417C189.001 112.151 178.001 65.9449 173.751 46H171.001C171.001 46.223 170.991 46.4614 170.973 46.7149C169.955 72.7913 167.482 126.707 165.501 139.439C163.667 143.293 163.5 151.5 149 150C134.5 148.5 133.667 139.931 133.001 136.396C145.424 111.584 170.031 59.6463 170.973 46.7149C170.982 46.4742 170.991 46.2359 171.001 46H169.001C168.171 48.0972 166.709 50.5033 164.738 53.142C151.972 74.0193 127.66 109.863 106.001 129.022C106.001 132.515 104.201 138.6 97.0006 135C89.8006 131.4 88.6673 122.167 89.0006 118Z" fill="#FCFFA9"/>
<path d="M167.001 46H169.001M89.0006 118C112.834 101.167 162.201 63.2 169.001 46M89.0006 118C92.5415 122.185 98.4139 125.903 106.001 129.022M89.0006 118C88.6673 122.167 89.8006 131.4 97.0006 135C104.201 138.6 106.001 132.515 106.001 129.022M176.501 46H175.126M169.001 46C158.167 64.6812 130.401 107.439 106.001 129.022M169.001 46H171.001M133.001 136.396C145.667 111.097 171.001 57.6 171.001 46M133.001 136.396C142.995 138.129 154.012 139.183 165.501 139.439M133.001 136.396C133.667 139.931 134.5 148.5 149 150C163.5 151.5 163.667 143.293 165.501 139.439M171.001 46C170.001 71.7926 167.501 126.59 165.501 139.439M171.001 46H173.751M173.751 46C178.001 65.9449 189.001 112.151 199.001 137.417M173.751 46C184.001 65.5256 209.401 109.719 229.001 130.288M173.751 46H175.126M199.001 137.417C210.002 135.787 220.231 133.294 229.001 130.288M199.001 137.417C199.834 140.612 203.242 149.21 213.5 147.5C225.5 145.5 228.501 135.859 229.001 130.288M175.126 46C192.584 68.079 231.701 114.042 248.501 121.263M175.126 46C194.826 70 239.731 97.3333 259.721 108M248.501 121.263C251.153 119.542 253.344 117.775 255.001 116C257.648 113.164 259.365 110.542 259.721 108M248.501 121.263C249.094 123.849 249.96 131.561 255.001 129.022C261 126 259.721 115.007 259.721 108" stroke="black"/>
<path d="M174.66 44.6177C173.211 44.9243 171.81 44.8601 170.603 44.6261C168.715 44.2602 166.578 44.5449 165.184 45.8704C160.797 50.0411 154.256 54.9136 150.5 57C146 59.5 149 72 171.5 72C194 72 201.5 62 196.5 59.5C193.051 57.7753 184.892 50.4734 179.718 45.61C178.4 44.3714 176.43 44.2434 174.66 44.6177Z" fill="#FF8284" stroke="black"/>
<ellipse cx="19.2223" cy="5.28674" rx="19.2223" ry="5.28674" transform="matrix(-0.977824 0.209426 0.209426 0.977824 294.305 175.766)" fill="black" fill-opacity="0.2"/>
<path d="M299.158 173.954C299.112 170.075 296.729 161.614 287.56 158.807C278.391 156 270.04 159.015 267.011 160.874C265.57 162.479 263.09 167.366 264.698 174.075C266.226 180.45 270.662 183.055 275.507 182.539C292.158 184.277 298.212 177.54 299.158 173.954Z" fill="#B6B6B6"/>
<path d="M267.011 160.874C270.04 159.015 278.391 156 287.56 158.807C296.729 161.614 299.112 170.075 299.158 173.954C298.212 177.54 292.158 184.277 275.507 182.539M267.011 160.874C265.57 162.479 263.09 167.366 264.698 174.075C266.226 180.45 270.662 183.055 275.507 182.539M267.011 160.874C273.277 162.125 281.256 166.38 284.154 169.908C287.052 173.436 286.521 177.957 280.134 181.14C278.603 181.903 277.035 182.376 275.507 182.539" stroke="black" stroke-width="0.6" stroke-linecap="round" stroke-linejoin="round"/>
<path d="M267.013 160.874C265.572 162.479 263.091 167.366 264.699 174.074C266.228 180.449 270.663 183.055 275.508 182.538C292.159 184.277 298.213 177.54 299.159 173.954C296.255 174.403 289.522 174.981 285.822 173.699C285.712 172.382 285.126 171.089 284.155 169.907C281.258 166.379 273.278 162.124 267.013 160.874Z" fill="#7C7C7C"/>
<path d="M275.508 182.538C270.663 183.055 266.228 180.449 264.699 174.074C263.091 167.366 265.572 162.479 267.013 160.874C273.278 162.124 281.258 166.379 284.155 169.907C285.126 171.089 285.712 172.382 285.822 173.699M275.508 182.538C277.036 182.376 278.604 181.903 280.135 181.14C284.383 179.023 286.04 176.314 285.822 173.699M275.508 182.538C292.159 184.277 298.213 177.54 299.159 173.954C296.255 174.403 289.522 174.981 285.822 173.699" stroke="black" stroke-width="0.6" stroke-linecap="round" stroke-linejoin="round"/>
<path d="M264.698 174.074C263.09 167.365 265.571 162.478 267.012 160.873C273.277 162.124 281.257 166.379 284.154 169.907C287.052 173.435 286.521 177.956 280.134 181.139C278.603 181.902 277.035 182.375 275.507 182.538C270.662 183.054 266.227 180.449 264.698 174.074Z" fill="#818181" stroke="black" stroke-width="0.6" stroke-linecap="round" stroke-linejoin="round"/>
<path d="M267.568 171.536C272.204 171.58 272.857 177.231 272.604 180.051C272.94 181.621 271.862 185.188 264.86 186.895C257.857 188.602 257.214 181.532 257.768 177.783C259.103 175.682 262.932 171.492 267.568 171.536Z" fill="#999999" stroke="black" stroke-width="0.6" stroke-linecap="round" stroke-linejoin="round"/>
<path d="M267.568 171.536C272.204 171.58 272.857 177.231 272.604 180.051C270.187 181.433 263.836 182.914 257.768 177.783C259.103 175.682 262.932 171.492 267.568 171.536Z" fill="#B6B6B6" stroke="black" stroke-width="0.6" stroke-linecap="round" stroke-linejoin="round"/>
</svg>
