<svg width="24" height="24" viewBox="0 0 24 24" fill="none" xmlns="http://www.w3.org/2000/svg">
  <mask id="mask0_30295_1586" style="mask-type:luminance" maskUnits="userSpaceOnUse" x="0" y="0" width="24" height="24">
    <path d="M24 0H0V24H24V0Z" fill="white"/>
  </mask>
  <g mask="url(#mask0_30295_1586)">
    <path d="M13.5374 11.8151C13.5374 15.5789 10.5069 18.6302 6.76868 18.6302C3.03048 18.6302 0 15.5789 0 11.8151C0 8.05121 3.03042 5 6.76868 5C10.5069 5 13.5374 8.05121 13.5374 11.8151Z" fill="black"/>
    <path d="M20.9621 11.8156C20.9621 15.3587 19.4469 18.2308 17.5778 18.2308C15.7087 18.2308 14.1934 15.3587 14.1934 11.8156C14.1934 8.27256 15.7087 5.40039 17.5778 5.40039C19.4469 5.40039 20.9621 8.27262 20.9621 11.8156Z" fill="black"/>
    <path d="M23.9997 11.8142C23.9997 14.9886 23.4667 17.562 22.8093 17.562C22.152 17.562 21.6191 14.9886 21.6191 11.8142C21.6191 8.63977 22.152 6.06641 22.8093 6.06641C23.4668 6.06641 23.9997 8.63977 23.9997 11.8142Z" fill="black"/>
  </g>
</svg>
