<svg xmlns="http://www.w3.org/2000/svg" width="24" height="20" viewBox="0 0 24 20" fill="none">
  <path
    d="M12 19.3757C8.94623 19.3757 6.26625 19.1761 4.55572 19.0086C2.3903 18.7967 0.665098 17.1453 0.360259 14.9928C-0.120086 11.5835 -0.120086 8.4172 0.360259 5.00783C0.665098 2.85539 2.3903 1.20397 4.55572 0.99204C6.2662 0.8246 8.94623 0.625 12 0.625C15.0538 0.625 17.7338 0.8246 19.4443 0.99204C21.6097 1.20397 23.3349 2.85539 23.6398 5.00787C24.1201 8.4172 24.1201 11.5835 23.6398 14.9928C23.3349 17.1453 21.6097 18.7967 19.4443 19.0086C17.7338 19.1761 15.0538 19.3757 12 19.3757ZM12 2.50007C9.02194 2.50007 6.40735 2.69479 4.7384 2.85825C3.43682 2.98566 2.39996 3.97771 2.21686 5.27076C1.98979 6.87413 1.87466 8.4654 1.87466 10.0004C1.87466 11.5354 1.98979 13.1266 2.21686 14.7299C2.39996 16.023 3.43682 17.0151 4.7384 17.1425C6.40739 17.3059 9.02194 17.5007 12 17.5007C14.9781 17.5007 17.5927 17.306 19.2616 17.1425C20.5632 17.0151 21.6001 16.023 21.7832 14.73C22.0102 13.1266 22.1254 11.5354 22.1254 10.0004C22.1254 8.4654 22.0102 6.87417 21.7832 5.2708C21.6001 3.97771 20.5632 2.98566 19.2616 2.85825C17.5927 2.69479 14.9781 2.50007 12 2.50007ZM10.7839 14.444C9.53041 14.4611 8.40804 13.3741 8.43739 12.1058V7.87143C8.43739 7.02343 8.87911 6.26595 9.61901 5.84518C10.3647 5.42104 11.2501 5.42976 11.9872 5.86825L15.5458 7.98543C17.06 8.8542 17.0596 11.1233 15.5458 11.9917L11.9872 14.1089C11.6119 14.3322 11.198 14.444 10.7839 14.444ZM10.7861 7.41054C10.6767 7.41054 10.5897 7.45029 10.5459 7.47518C10.4588 7.52477 10.3125 7.64215 10.3125 7.87143V12.1058C10.3125 12.3351 10.4588 12.4525 10.5459 12.502C10.6189 12.5436 10.812 12.6263 11.0285 12.4974L14.5871 10.3803C14.8901 10.1994 14.8905 9.7781 14.5871 9.5969L11.0285 7.47973C10.9419 7.42821 10.859 7.41054 10.7861 7.41054Z"
    fill="black"
  />
</svg>