<svg width="24" height="24" viewBox="0 0 24 24" fill="none" xmlns="http://www.w3.org/2000/svg">
  <path d="M23 12C23 18.0751 18.0751 23 12 23C5.92487 23 1 18.0751 1 12C1 5.92487 5.92487 1 12 1C18.0751 1 23 5.92487 23 12Z" fill="#D4EEFF"/>
  <path d="M22.5 12C22.5 17.799 17.799 22.5 12 22.5V23.5C18.3513 23.5 23.5 18.3513 23.5 12H22.5ZM12 22.5C6.20101 22.5 1.5 17.799 1.5 12H0.5C0.5 18.3513 5.64873 23.5 12 23.5V22.5ZM1.5 12C1.5 6.20101 6.20101 1.5 12 1.5V0.5C5.64873 0.5 0.5 5.64873 0.5 12H1.5ZM12 1.5C17.799 1.5 22.5 6.20101 22.5 12H23.5C23.5 5.64873 18.3513 0.5 12 0.5V1.5Z" fill="black"/>
  <path d="M18.2309 9.45369C19.3616 11.3613 17.8521 14.3458 14.8593 16.1197C11.8665 17.8937 8.52377 17.7854 7.39305 15.8778C6.26233 13.9702 7.77184 10.9857 10.7646 9.21177C13.7574 7.43779 17.1002 7.54611 18.2309 9.45369Z" fill="#D4EEFF"/>
  <path d="M17.8008 9.70864C18.2489 10.4647 18.2093 11.4958 17.6452 12.6111C17.0842 13.7203 16.0315 14.8437 14.6044 15.6896L15.1143 16.5498C16.68 15.6218 17.8783 14.366 18.5376 13.0625C19.1937 11.7652 19.3436 10.3503 18.661 9.19874L17.8008 9.70864ZM14.6044 15.6896C13.1773 16.5355 11.6864 16.9199 10.4441 16.8796C9.19488 16.8391 8.27132 16.3789 7.82316 15.6229L6.96293 16.1328C7.64549 17.2843 8.95867 17.832 10.4117 17.8791C11.8717 17.9264 13.5486 17.4779 15.1143 16.5498L14.6044 15.6896ZM7.82316 15.6229C7.37501 14.8668 7.41458 13.8357 7.9787 12.7204C8.53969 11.6112 9.59248 10.4878 11.0196 9.64188L10.5097 8.78165C8.94398 9.70971 7.74562 10.9655 7.08634 12.269C6.43019 13.5663 6.28037 14.9812 6.96293 16.1328L7.82316 15.6229ZM11.0196 9.64188C12.4467 8.79597 13.9375 8.41163 15.1798 8.45188C16.4291 8.49236 17.3526 8.95258 17.8008 9.70864L18.661 9.19874C17.9784 8.04722 16.6653 7.49949 15.2122 7.45241C13.7523 7.4051 12.0754 7.85359 10.5097 8.78165L11.0196 9.64188Z" fill="black"/>
  <path d="M17.2179 7.20683C18.3597 9.13316 16.782 12.1786 13.6939 14.0091C10.6058 15.8396 7.17673 15.7619 6.0349 13.8356C4.89307 11.9092 6.47084 8.86375 9.55895 7.03327C12.6471 5.2028 16.0761 5.28051 17.2179 7.20683Z" fill="#D4EEFF"/>
  <path d="M16.7878 7.46178C17.2389 8.22273 17.1903 9.27092 16.5982 10.4139C16.0099 11.5494 14.9154 12.7038 13.4389 13.579L13.9488 14.4392C15.5604 13.484 16.7989 12.2004 17.4861 10.8739C18.1694 9.55498 18.3388 8.11726 17.648 6.95188L16.7878 7.46178ZM13.4389 13.579C11.9624 14.4542 10.4244 14.8602 9.14586 14.8313C7.85891 14.8021 6.91607 14.3416 6.46502 13.5806L5.60478 14.0905C6.29556 15.2559 7.63816 15.7974 9.12321 15.831C10.6167 15.8649 12.3372 15.3945 13.9488 14.4392L13.4389 13.579ZM6.46502 13.5806C6.01397 12.8197 6.0625 11.7715 6.65466 10.6285C7.24292 9.49298 8.33741 8.33858 9.8139 7.46339L9.30399 6.60316C7.69238 7.55844 6.45393 8.84203 5.76674 10.1685C5.08344 11.4874 4.914 12.9251 5.60478 14.0905L6.46502 13.5806ZM9.8139 7.46339C11.2904 6.5882 12.8285 6.18215 14.107 6.21112C15.3939 6.24029 16.3368 6.70084 16.7878 7.46178L17.648 6.95188C16.9573 5.7865 15.6147 5.24503 14.1296 5.21138C12.6361 5.17754 10.9156 5.64787 9.30399 6.60316L9.8139 7.46339Z" fill="black"/>
</svg>
