<svg xmlns="http://www.w3.org/2000/svg" width="24" height="24" viewBox="0 0 24 24" fill="none">
  <g>
    <path
      fill-rule="evenodd"
      clip-rule="evenodd"
      d="M12 23C18.0751 23 23 18.0751 23 12C23 5.92487 18.0751 1 12 1C5.92487 1 1 5.92487 1 12C1 18.0751 5.92487 23 12 23ZM12 7C14.7614 7 17 9.23858 17 12C17 14.7614 14.7614 17 12 17C9.23858 17 7 14.7614 7 12C7 9.23858 9.23858 7 12 7Z"
      fill="#DBECF8"
    />
    <path
      d="M22.5 12C22.5 17.799 17.799 22.5 12 22.5V23.5C18.3513 23.5 23.5 18.3513 23.5 12H22.5ZM12 1.5C17.799 1.5 22.5 6.20101 22.5 12H23.5C23.5 5.64873 18.3513 0.5 12 0.5V1.5ZM1.5 12C1.5 6.20101 6.20101 1.5 12 1.5V0.5C5.64873 0.5 0.5 5.64873 0.5 12H1.5ZM12 22.5C6.20101 22.5 1.5 17.799 1.5 12H0.5C0.5 18.3513 5.64873 23.5 12 23.5V22.5ZM17.5 12C17.5 8.96243 15.0376 6.5 12 6.5V7.5C14.4853 7.5 16.5 9.51472 16.5 12H17.5ZM12 17.5C15.0376 17.5 17.5 15.0376 17.5 12H16.5C16.5 14.4853 14.4853 16.5 12 16.5V17.5ZM6.5 12C6.5 15.0376 8.96243 17.5 12 17.5V16.5C9.51472 16.5 7.5 14.4853 7.5 12H6.5ZM12 6.5C8.96243 6.5 6.5 8.96243 6.5 12H7.5C7.5 9.51472 9.51472 7.5 12 7.5V6.5Z"
      fill="black"
    />
  </g>
</svg>