<svg width="22" height="20" viewBox="0 0 22 20" fill="none" xmlns="http://www.w3.org/2000/svg">
  <path d="M11.4702 0C10.879 0 10.34 0.311855 9.2638 0.932814L3.36874 4.33203C2.35365 4.90586 1.50772 5.73738 0.916278 6.74272C0.324834 7.74806 0.0087833 8.89168 0 10.0582L0 10.2747C0.00884856 11.4398 0.324172 12.5819 0.91425 13.5864C1.50433 14.5908 2.34835 15.422 3.3614 15.9963L7.04914 18.127C9.20696 19.3745 10.2859 20 11.4711 20C12.6555 20.0009 13.7353 19.3781 15.894 18.1307L19.7908 15.8808C20.8697 15.2571 21.4078 14.9452 21.7038 14.4325C21.9999 13.9188 22.0008 13.2951 21.9999 12.0477V9.63541C22.0001 9.46805 21.9563 9.30358 21.8729 9.15853C21.7894 9.01347 21.6693 8.89293 21.5246 8.80901C21.3799 8.72509 21.2157 8.68074 21.0484 8.68041C20.8812 8.68009 20.7168 8.7238 20.5718 8.80715L12.5711 13.4153C12.033 13.7244 11.7645 13.8803 11.4702 13.8803C11.1741 13.8803 10.9055 13.7262 10.3665 13.4162L4.95456 10.3041C4.68231 10.1472 4.54573 10.0693 4.43665 10.0555C4.31617 10.04 4.19397 10.0647 4.08892 10.1257C3.98387 10.1868 3.90184 10.2807 3.85548 10.393C3.81423 10.4948 3.81424 10.6517 3.81607 10.9663C3.8179 11.1974 3.81607 11.313 3.83899 11.4194C3.88757 11.657 4.01223 11.8716 4.19373 12.0312C4.27532 12.1018 4.37523 12.1596 4.57507 12.2752L10.3638 15.623C10.9037 15.9349 11.1741 16.0908 11.4702 16.0908C11.7672 16.0908 12.0358 15.9349 12.5757 15.6239L19.6707 11.5249C19.8558 11.4185 19.9475 11.3671 20.0163 11.4056C20.085 11.446 20.085 11.5524 20.085 11.7652V12.8594C20.085 13.1713 20.0859 13.3272 20.0117 13.4547C19.9383 13.5831 19.8036 13.6602 19.5332 13.8161L13.683 17.1961C12.6032 17.8198 12.0633 18.1316 11.4711 18.1316C10.879 18.1316 10.3381 17.8198 9.26013 17.1942L3.78765 14.028L3.74824 14.005C3.18462 13.6748 2.7166 13.2034 2.39018 12.6374C2.06376 12.0713 1.89017 11.43 1.88649 10.7764V9.72529C1.88676 9.36419 1.98171 9.00947 2.16187 8.69658C2.34203 8.38369 2.60108 8.12357 2.91316 7.94222C3.18918 7.78225 3.50247 7.69793 3.82145 7.69777C4.14042 7.69761 4.4538 7.78161 4.72998 7.9413L9.2638 10.5627C10.34 11.1855 10.879 11.4974 11.4702 11.4983C12.0615 11.4983 12.6005 11.1864 13.6794 10.5655L20.5378 6.61591C20.6902 6.52817 20.8167 6.4018 20.9046 6.24956C20.9926 6.09731 21.0389 5.92455 21.0389 5.74868C21.0389 5.57282 20.9926 5.40006 20.9046 5.24781C20.8167 5.09556 20.6902 4.9692 20.5378 4.88145L13.6766 0.929145C12.5995 0.310021 12.0615 2.14974e-08 11.4711 0H11.4702Z" fill="black"/>
</svg>
