<svg width="24" height="24" viewBox="0 0 24 24" fill="none" xmlns="http://www.w3.org/2000/svg">
  <path fill-rule="evenodd" clip-rule="evenodd" d="M12 23C18.0751 23 23 18.0751 23 12C23 5.92487 18.0751 1 12 1C5.92487 1 1 5.92487 1 12C1 18.0751 5.92487 23 12 23ZM17.6032 10.0604C18.0942 9.56942 18.0942 8.77344 17.6032 8.28249C17.1123 7.79155 16.3163 7.79155 15.8254 8.28249L10.4286 13.6793L8.17465 11.4254C7.6837 10.9344 6.88772 10.9344 6.39678 11.4254C5.90584 11.9163 5.90584 12.7123 6.39678 13.2032L9.53964 16.3461C10.0306 16.837 10.8266 16.837 11.3175 16.3461L17.6032 10.0604Z" fill="#D4EEFF"/>
  <path d="M17.6032 8.28249L17.9568 7.92894V7.92894L17.6032 8.28249ZM17.6032 10.0604L17.9568 10.4139V10.4139L17.6032 10.0604ZM15.8254 8.28249L16.1789 8.63605V8.63605L15.8254 8.28249ZM10.4286 13.6793L10.075 14.0328L10.4286 14.3864L10.7821 14.0328L10.4286 13.6793ZM8.17465 11.4254L8.5282 11.0718L8.17465 11.4254ZM6.39678 13.2032L6.04323 13.5568L6.39678 13.2032ZM9.53964 16.3461L9.89319 15.9925L9.53964 16.3461ZM22.5 12C22.5 17.799 17.799 22.5 12 22.5V23.5C18.3513 23.5 23.5 18.3513 23.5 12H22.5ZM12 1.5C17.799 1.5 22.5 6.20101 22.5 12H23.5C23.5 5.64873 18.3513 0.5 12 0.5V1.5ZM1.5 12C1.5 6.20101 6.20101 1.5 12 1.5V0.5C5.64873 0.5 0.5 5.64873 0.5 12H1.5ZM12 22.5C6.20101 22.5 1.5 17.799 1.5 12H0.5C0.5 18.3513 5.64873 23.5 12 23.5V22.5ZM17.2497 8.63605C17.5453 8.93173 17.5453 9.41113 17.2497 9.70681L17.9568 10.4139C18.643 9.72771 18.643 8.61515 17.9568 7.92894L17.2497 8.63605ZM16.1789 8.63605C16.4746 8.34037 16.954 8.34036 17.2497 8.63605L17.9568 7.92894C17.2706 7.24273 16.158 7.24273 15.4718 7.92894L16.1789 8.63605ZM10.7821 14.0328L16.1789 8.63605L15.4718 7.92894L10.075 13.3257L10.7821 14.0328ZM7.8211 11.7789L10.075 14.0328L10.7821 13.3257L8.5282 11.0718L7.8211 11.7789ZM6.75033 11.7789C7.04602 11.4832 7.52541 11.4832 7.8211 11.7789L8.5282 11.0718C7.842 10.3856 6.72943 10.3856 6.04323 11.0718L6.75033 11.7789ZM6.75033 12.8497C6.45465 12.554 6.45465 12.0746 6.75033 11.7789L6.04323 11.0718C5.35702 11.758 5.35702 12.8706 6.04323 13.5568L6.75033 12.8497ZM9.89319 15.9925L6.75033 12.8497L6.04323 13.5568L9.18608 16.6996L9.89319 15.9925ZM10.964 15.9925C10.6683 16.2882 10.1889 16.2882 9.89319 15.9925L9.18608 16.6996C9.87229 17.3858 10.9849 17.3858 11.6711 16.6996L10.964 15.9925ZM17.2497 9.70681L10.964 15.9925L11.6711 16.6996L17.9568 10.4139L17.2497 9.70681Z" fill="black"/>
</svg>
