<svg width="1544" height="235" viewBox="0 0 1544 235" fill="none" xmlns="http://www.w3.org/2000/svg">
  <g filter="url(#filter0_d_22057_76)">
    <path d="M1231.66 204.489L1250.2 134.366C1250.73 132.377 1253.55 132.382 1254.07 134.373L1272.35 204.496C1272.68 205.763 1271.72 207 1270.41 207H1233.6C1232.29 207 1231.33 205.757 1231.66 204.489Z" fill="#003958"/>
    <path d="M1231.66 204.489L1250.2 134.366C1250.73 132.377 1253.55 132.382 1254.07 134.373L1272.35 204.496C1272.68 205.763 1271.72 207 1270.41 207H1233.6C1232.29 207 1231.33 205.757 1231.66 204.489Z" stroke="black"/>
  </g>
  <g filter="url(#filter1_d_22057_76)">
    <path d="M1494.66 204.489L1513.2 134.366C1513.73 132.377 1516.55 132.382 1517.07 134.373L1535.35 204.496C1535.68 205.763 1534.72 207 1533.41 207H1496.6C1495.29 207 1494.33 205.757 1494.66 204.489Z" fill="#003958"/>
    <path d="M1494.66 204.489L1513.2 134.366C1513.73 132.377 1516.55 132.382 1517.07 134.373L1535.35 204.496C1535.68 205.763 1534.72 207 1533.41 207H1496.6C1495.29 207 1494.33 205.757 1494.66 204.489Z" stroke="black"/>
  </g>
  <g filter="url(#filter2_d_22057_76)">
    <path d="M557.675 204.482L590.054 83.7544C590.585 81.7749 593.396 81.7799 593.92 83.7614L625.836 204.489C626.172 205.758 625.215 207 623.903 207H559.607C558.292 207 557.335 205.752 557.675 204.482Z" fill="#003958"/>
    <path d="M557.675 204.482L590.054 83.7544C590.585 81.7749 593.396 81.7799 593.92 83.7614L625.836 204.489C626.172 205.758 625.215 207 623.903 207H559.607C558.292 207 557.335 205.752 557.675 204.482Z" stroke="black"/>
  </g>
  <g filter="url(#filter3_d_22057_76)">
    <path d="M849.675 204.482L882.054 83.7544C882.585 81.7749 885.396 81.7799 885.92 83.7614L917.836 204.489C918.172 205.758 917.215 207 915.903 207H851.607C850.292 207 849.335 205.752 849.675 204.482Z" fill="#003958"/>
    <path d="M849.675 204.482L882.054 83.7544C882.585 81.7749 885.396 81.7799 885.92 83.7614L917.836 204.489C918.172 205.758 917.215 207 915.903 207H851.607C850.292 207 849.335 205.752 849.675 204.482Z" stroke="black"/>
  </g>
  <g filter="url(#filter4_d_22057_76)">
    <path d="M464.667 204.487L491.262 104.332C491.789 102.346 494.609 102.351 495.13 104.339L521.344 204.494C521.676 205.761 520.719 207 519.409 207H466.6C465.287 207 464.33 205.756 464.667 204.487Z" fill="#003958"/>
    <path d="M464.667 204.487L491.262 104.332C491.789 102.346 494.609 102.351 495.13 104.339L521.344 204.494C521.676 205.761 520.719 207 519.409 207H466.6C465.287 207 464.33 205.756 464.667 204.487Z" stroke="black"/>
  </g>
  <g filter="url(#filter5_d_22057_76)">
    <path d="M158.667 204.487L185.262 104.332C185.789 102.346 188.609 102.351 189.13 104.339L215.344 204.494C215.676 205.761 214.719 207 213.409 207H160.6C159.287 207 158.33 205.756 158.667 204.487Z" fill="#003958"/>
    <path d="M158.667 204.487L185.262 104.332C185.789 102.346 188.609 102.351 189.13 104.339L215.344 204.494C215.676 205.761 214.719 207 213.409 207H160.6C159.287 207 158.33 205.756 158.667 204.487Z" stroke="black"/>
  </g>
  <g filter="url(#filter6_d_22057_76)">
    <path d="M247.661 204.491L262.174 149.395C262.699 147.404 265.527 147.409 266.044 149.402L280.35 204.497C280.679 205.764 279.723 207 278.414 207H249.595C248.284 207 247.327 205.759 247.661 204.491Z" fill="#003958"/>
    <path d="M247.661 204.491L262.174 149.395C262.699 147.404 265.527 147.409 266.044 149.402L280.35 204.497C280.679 205.764 279.723 207 278.414 207H249.595C248.284 207 247.327 205.759 247.661 204.491Z" stroke="black"/>
  </g>
  <g filter="url(#filter7_d_22057_76)">
    <path d="M776.661 204.491L791.174 149.395C791.699 147.404 794.527 147.409 795.044 149.402L809.35 204.497C809.679 205.764 808.723 207 807.414 207H778.595C777.284 207 776.327 205.759 776.661 204.491Z" fill="#003958"/>
    <path d="M776.661 204.491L791.174 149.395C791.699 147.404 794.527 147.409 795.044 149.402L809.35 204.497C809.679 205.764 808.723 207 807.414 207H778.595C777.284 207 776.327 205.759 776.661 204.491Z" stroke="black"/>
  </g>
  <g filter="url(#filter8_d_22057_76)">
    <path d="M0.661044 204.491L15.1744 149.395C15.6988 147.404 18.5267 147.409 19.0442 149.402L33.3502 204.497C33.6791 205.764 32.723 207 31.4144 207H2.59507C1.28352 207 0.326952 205.759 0.661044 204.491Z" fill="#003958"/>
    <path d="M0.661044 204.491L15.1744 149.395C15.6988 147.404 18.5267 147.409 19.0442 149.402L33.3502 204.497C33.6791 205.764 32.723 207 31.4144 207H2.59507C1.28352 207 0.326952 205.759 0.661044 204.491Z" stroke="black"/>
  </g>
  <g filter="url(#filter9_d_22057_76)">
    <path d="M1057.67 204.487L1084.26 104.332C1084.79 102.346 1087.61 102.351 1088.13 104.339L1114.34 204.494C1114.68 205.761 1113.72 207 1112.41 207H1059.6C1058.29 207 1057.33 205.756 1057.67 204.487Z" fill="#003958"/>
    <path d="M1057.67 204.487L1084.26 104.332C1084.79 102.346 1087.61 102.351 1088.13 104.339L1114.34 204.494C1114.68 205.761 1113.72 207 1112.41 207H1059.6C1058.29 207 1057.33 205.756 1057.67 204.487Z" stroke="black"/>
  </g>
  <g filter="url(#filter10_d_22057_76)">
    <path d="M1411.67 204.486L1442.29 89.3214C1442.82 87.3363 1445.64 87.3413 1446.16 89.3283L1476.34 204.493C1476.68 205.761 1475.72 207 1474.41 207H1413.6C1412.29 207 1411.33 205.755 1411.67 204.486Z" fill="#003958"/>
    <path d="M1411.67 204.486L1442.29 89.3214C1442.82 87.3363 1445.64 87.3413 1446.16 89.3283L1476.34 204.493C1476.68 205.761 1475.72 207 1474.41 207H1413.6C1412.29 207 1411.33 205.755 1411.67 204.486Z" stroke="black"/>
  </g>
  <g filter="url(#filter11_d_22057_76)">
    <path d="M1262.66 204.489L1286.24 115.362C1286.77 113.374 1289.59 113.379 1290.11 115.369L1313.35 204.495C1313.68 205.763 1312.72 207 1311.41 207H1264.6C1263.29 207 1262.33 205.757 1262.66 204.489Z" fill="#003958"/>
    <path d="M1262.66 204.489L1286.24 115.362C1286.77 113.374 1289.59 113.379 1290.11 115.369L1313.35 204.495C1313.68 205.763 1312.72 207 1311.41 207H1264.6C1263.29 207 1262.33 205.757 1262.66 204.489Z" stroke="black"/>
  </g>
  <g filter="url(#filter12_d_22057_76)">
    <path d="M921.951 169.557C936.777 136.758 940.907 103.897 947.652 103.897C957.01 108.888 1011.17 202.898 1004.42 206.98C997.676 211.063 984.621 203.862 980.967 198.475C986.026 206.697 992.433 223.481 977.595 224.842C962.757 226.202 953.989 209.532 951.459 201.027C949.773 208.398 944.04 223.141 934.597 223.141C925.155 223.141 926.729 212.367 928.696 206.98C921.67 212.367 915.145 220.949 907.726 216.186C898.452 210.233 907.726 201.027 921.951 169.557Z" fill="#025B8C"/>
    <path d="M921.951 169.557C936.777 136.758 940.907 103.897 947.652 103.897C957.01 108.888 1011.17 202.898 1004.42 206.98C997.676 211.063 984.621 203.862 980.967 198.475C986.026 206.697 992.433 223.481 977.595 224.842C962.757 226.202 953.989 209.532 951.459 201.027C949.773 208.398 944.04 223.141 934.597 223.141C925.155 223.141 926.729 212.367 928.696 206.98C921.67 212.367 915.145 220.949 907.726 216.186C898.452 210.233 907.726 201.027 921.951 169.557Z" stroke="black"/>
  </g>
  <g filter="url(#filter13_d_22057_76)">
    <path d="M949.386 90.7969C963.111 92.0445 984.321 145.694 990.559 155.675C996.797 165.657 993.678 168.152 990.559 168.776C988.064 169.275 979.122 165.657 974.963 163.785C976.211 166.488 977.958 172.269 974.963 173.766C971.969 175.264 966.23 168.568 963.734 165.033C964.982 169.815 966.105 179.63 960.615 180.628C955.126 181.627 952.921 170.647 952.505 165.033C952.298 172.103 950.135 186.243 943.148 186.243C936.899 186.243 936.505 175.929 937.236 169.139C936.41 173.938 934.118 180.628 929.424 180.628C924.174 180.628 924.972 174.923 926.143 171.696C924.663 175.323 919.68 181.588 910.085 180.628C897.608 179.381 938.157 90.7969 949.386 90.7969Z" fill="#025B8C"/>
    <path d="M949.386 90.7969C963.111 92.0445 984.321 145.694 990.559 155.675C996.797 165.657 993.678 168.152 990.559 168.776C988.064 169.275 979.122 165.657 974.963 163.785C976.211 166.488 977.958 172.269 974.963 173.766C971.969 175.264 966.23 168.568 963.734 165.033C964.982 169.815 966.105 179.63 960.615 180.628C955.126 181.627 952.921 170.647 952.505 165.033C952.298 172.103 950.135 186.243 943.148 186.243C936.899 186.243 936.505 175.929 937.236 169.139C936.41 173.938 934.118 180.628 929.424 180.628C924.174 180.628 924.972 174.923 926.143 171.696C924.663 175.323 919.68 181.588 910.085 180.628C897.608 179.381 938.157 90.7969 949.386 90.7969Z" stroke="black"/>
  </g>
  <g filter="url(#filter14_d_22057_76)">
    <path d="M974.338 102.649C959.367 80.8154 961.238 49 956.247 49C947.514 49 910.084 128.226 916.322 131.969C921.313 134.964 927.967 127.811 930.67 123.86C926.927 129.89 922.186 142.2 933.166 143.198C944.145 144.197 950.633 131.969 952.504 125.731C953.752 131.138 957.994 141.951 964.981 141.951C971.968 141.951 970.803 134.049 969.348 130.098C974.546 134.049 986.316 141.077 991.806 137.584C998.668 133.217 989.31 124.483 974.338 102.649Z" fill="#156D9D"/>
    <path d="M974.338 102.649C959.367 80.8154 961.238 49 956.247 49C947.514 49 910.084 128.226 916.322 131.969C921.313 134.964 927.967 127.811 930.67 123.86C926.927 129.89 922.186 142.2 933.166 143.198C944.145 144.197 950.633 131.969 952.504 125.731C953.752 131.138 957.994 141.951 964.981 141.951C971.968 141.951 970.803 134.049 969.348 130.098C974.546 134.049 986.316 141.077 991.806 137.584C998.668 133.217 989.31 124.483 974.338 102.649Z" stroke="black"/>
  </g>
  <g filter="url(#filter15_d_22057_76)">
    <path d="M96.951 169.557C111.777 136.758 115.907 103.897 122.652 103.897C132.01 108.888 186.165 202.898 179.42 206.98C172.676 211.063 159.621 203.862 155.967 198.475C161.026 206.697 167.433 223.481 152.595 224.842C137.757 226.202 128.989 209.532 126.459 201.027C124.773 208.398 119.04 223.141 109.597 223.141C100.155 223.141 101.729 212.367 103.696 206.98C96.67 212.367 90.1455 220.949 82.7263 216.186C73.4523 210.233 82.7263 201.027 96.951 169.557Z" fill="#025B8C"/>
    <path d="M96.951 169.557C111.777 136.758 115.907 103.897 122.652 103.897C132.01 108.888 186.165 202.898 179.42 206.98C172.676 211.063 159.621 203.862 155.967 198.475C161.026 206.697 167.433 223.481 152.595 224.842C137.757 226.202 128.989 209.532 126.459 201.027C124.773 208.398 119.04 223.141 109.597 223.141C100.155 223.141 101.729 212.367 103.696 206.98C96.67 212.367 90.1455 220.949 82.7263 216.186C73.4523 210.233 82.7263 201.027 96.951 169.557Z" stroke="black"/>
  </g>
  <g filter="url(#filter16_d_22057_76)">
    <path d="M124.386 90.7964C138.111 92.044 165.761 150.519 172 160.5C178.238 170.481 174.603 178.801 172 180.628C164 186.242 155 166 154 164C154 164 152.958 182.003 149.963 183.5C146.969 184.997 141.23 168.567 138.734 165.032C139.982 169.815 141.105 179.63 135.615 180.628C130.126 181.626 127.921 170.647 127.505 165.032C127.298 172.102 125.135 186.242 118.148 186.242C111.899 186.242 111.505 175.929 112.236 169.138C111.41 173.938 109.118 180.628 104.424 180.628C99.1736 180.628 99.9717 174.922 101.143 171.696C99.6627 175.323 94.6795 181.587 85.0851 180.628C72.6085 179.38 113.157 90.7964 124.386 90.7964Z" fill="#025B8C"/>
    <path d="M124.386 90.7964C138.111 92.044 165.761 150.519 172 160.5C178.238 170.481 174.603 178.801 172 180.628C164 186.242 155 166 154 164C154 164 152.958 182.003 149.963 183.5C146.969 184.997 141.23 168.567 138.734 165.032C139.982 169.815 141.105 179.63 135.615 180.628C130.126 181.626 127.921 170.647 127.505 165.032C127.298 172.102 125.135 186.242 118.148 186.242C111.899 186.242 111.505 175.929 112.236 169.138C111.41 173.938 109.118 180.628 104.424 180.628C99.1736 180.628 99.9717 174.922 101.143 171.696C99.6627 175.323 94.6795 181.587 85.0851 180.628C72.6085 179.38 113.157 90.7964 124.386 90.7964Z" stroke="black"/>
  </g>
  <g filter="url(#filter17_d_22057_76)">
    <path d="M393.8 119C404.605 120.242 426.375 178.443 431.287 188.378C436.199 198.312 433.337 206.593 431.287 208.412C424.988 214 417.902 193.852 417.115 191.861C417.115 191.861 416.295 209.78 413.937 211.27C411.58 212.761 407.061 196.407 405.097 192.889C406.079 197.649 406.963 207.418 402.641 208.412C398.319 209.405 396.583 198.477 396.256 192.889C396.092 199.926 394.389 214 388.888 214C383.968 214 383.658 203.735 384.233 196.976C383.583 201.753 381.779 208.412 378.083 208.412C373.949 208.412 374.578 202.732 375.5 199.521C374.334 203.131 370.411 209.367 362.857 208.412C353.034 207.17 384.959 119 393.8 119Z" fill="#025B8C"/>
    <path d="M393.8 119C404.605 120.242 426.375 178.443 431.287 188.378C436.199 198.312 433.337 206.593 431.287 208.412C424.988 214 417.902 193.852 417.115 191.861C417.115 191.861 416.295 209.78 413.937 211.27C411.58 212.761 407.061 196.407 405.097 192.889C406.079 197.649 406.963 207.418 402.641 208.412C398.319 209.405 396.583 198.477 396.256 192.889C396.092 199.926 394.389 214 388.888 214C383.968 214 383.658 203.735 384.233 196.976C383.583 201.753 381.779 208.412 378.083 208.412C373.949 208.412 374.578 202.732 375.5 199.521C374.334 203.131 370.411 209.367 362.857 208.412C353.034 207.17 384.959 119 393.8 119Z" stroke="black"/>
  </g>
  <g filter="url(#filter18_d_22057_76)">
    <path d="M147.442 104C141.791 95.7586 129.938 81 124.947 81C116.214 81 82.5271 132.726 88.7654 136.469C93.756 139.464 100.41 132.31 103.113 128.36C99.3703 134.39 94.6292 146.7 105.609 147.698C116.588 148.696 123.076 136.469 124.947 130.231C126.195 135.638 130.437 146.451 137.424 146.451C144.411 146.451 143.246 138.549 141.791 134.598C146.989 138.549 158.759 145.577 164.249 142.084C171.111 137.717 162.414 125.834 147.442 104Z" fill="#156D9D"/>
    <path d="M147.442 104C141.791 95.7586 129.938 81 124.947 81C116.214 81 82.5271 132.726 88.7654 136.469C93.756 139.464 100.41 132.31 103.113 128.36C99.3703 134.39 94.6292 146.7 105.609 147.698C116.588 148.696 123.076 136.469 124.947 130.231C126.195 135.638 130.437 146.451 137.424 146.451C144.411 146.451 143.246 138.549 141.791 134.598C146.989 138.549 158.759 145.577 164.249 142.084C171.111 137.717 162.414 125.834 147.442 104Z" stroke="black"/>
  </g>
  <g filter="url(#filter19_d_22057_76)">
    <path d="M412.382 132.084C407.783 123.813 398.135 109 394.073 109C386.964 109 359.545 160.916 364.623 164.672C368.685 167.678 374.101 160.498 376.301 156.533C373.255 162.585 369.396 174.94 378.332 175.942C387.269 176.944 392.55 164.672 394.073 158.411C395.089 163.837 398.541 174.69 404.228 174.69C409.915 174.69 408.967 166.759 407.783 162.794C412.014 166.759 421.594 173.813 426.062 170.307C431.648 165.924 424.569 153.998 412.382 132.084Z" fill="#156D9D"/>
    <path d="M412.382 132.084C407.783 123.813 398.135 109 394.073 109C386.964 109 359.545 160.916 364.623 164.672C368.685 167.678 374.101 160.498 376.301 156.533C373.255 162.585 369.396 174.94 378.332 175.942C387.269 176.944 392.55 164.672 394.073 158.411C395.089 163.837 398.541 174.69 404.228 174.69C409.915 174.69 408.967 166.759 407.783 162.794C412.014 166.759 421.594 173.813 426.062 170.307C431.648 165.924 424.569 153.998 412.382 132.084Z" stroke="black"/>
  </g>
  <path d="M657.492 217.364C651.475 212.409 702.614 65.626 706.154 65.626C709.694 65.626 708.808 68.7204 724.735 118.71C741.471 171.239 754.818 215.594 746.412 215.594C739.688 215.594 732.698 204.682 730.044 199.226C730.633 204.682 730.398 215.594 724.735 215.594C719.072 215.594 715.887 203.207 715.002 197.014C714.707 206.304 712.613 224.707 706.597 224C700.58 223.292 695.242 208.663 693.325 201.438C690.966 206.746 685.097 217.01 680.496 215.594C675.895 214.178 678.579 199.963 680.496 193.032C675.335 203.207 663.508 222.318 657.492 217.364Z" fill="#025B8C" stroke="black"/>
  <g filter="url(#filter20_d_22057_76)">
    <path d="M657.492 177.549C651.475 172.594 702.614 25.811 706.154 25.811C709.694 25.811 708.808 28.9055 724.735 78.8955C741.471 131.424 754.818 175.779 746.412 175.779C739.688 175.779 732.698 164.867 730.044 159.411C730.633 164.867 730.398 175.779 724.735 175.779C719.072 175.779 715.887 163.392 715.002 157.199C714.707 166.489 712.613 184.892 706.597 184.185C700.58 183.477 695.242 168.848 693.325 161.623C690.966 166.931 685.097 177.195 680.496 175.779C675.895 174.364 678.579 160.148 680.496 153.217C675.335 163.392 663.508 182.503 657.492 177.549Z" fill="#025B8C"/>
    <path d="M657.492 177.549C651.475 172.594 702.614 25.811 706.154 25.811C709.694 25.811 708.808 28.9055 724.735 78.8955C741.471 131.424 754.818 175.779 746.412 175.779C739.688 175.779 732.698 164.867 730.044 159.411C730.633 164.867 730.398 175.779 724.735 175.779C719.072 175.779 715.887 163.392 715.002 157.199C714.707 166.489 712.613 184.892 706.597 184.185C700.58 183.477 695.242 168.848 693.325 161.623C690.966 166.931 685.097 177.195 680.496 175.779C675.895 174.364 678.579 160.148 680.496 153.217C675.335 163.392 663.508 182.503 657.492 177.549Z" stroke="black"/>
  </g>
  <g filter="url(#filter21_d_22057_76)">
    <path d="M665.371 125.635C660.395 121.566 702.691 1.03711 705.619 1.03711C708.547 1.03711 707.814 3.5781 720.987 44.6268C734.829 87.7604 745.868 124.182 738.916 124.182C733.354 124.182 727.573 115.221 725.378 110.741C725.866 115.221 725.67 124.182 720.987 124.182C716.304 124.182 713.669 114.01 712.937 108.925C712.693 116.553 710.962 131.665 705.985 131.084C701.009 130.503 696.594 118.491 695.009 112.557C693.057 116.916 688.203 125.344 684.398 124.182C680.593 123.019 682.812 111.346 684.398 105.655C680.129 114.01 670.347 129.703 665.371 125.635Z" fill="#156D9D"/>
    <path d="M665.371 125.635C660.395 121.566 702.691 1.03711 705.619 1.03711C708.547 1.03711 707.814 3.5781 720.987 44.6268C734.829 87.7604 745.868 124.182 738.916 124.182C733.354 124.182 727.573 115.221 725.378 110.741C725.866 115.221 725.67 124.182 720.987 124.182C716.304 124.182 713.669 114.01 712.937 108.925C712.693 116.553 710.962 131.665 705.985 131.084C701.009 130.503 696.594 118.491 695.009 112.557C693.057 116.916 688.203 125.344 684.398 124.182C680.593 123.019 682.812 111.346 684.398 105.655C680.129 114.01 670.347 129.703 665.371 125.635Z" stroke="black"/>
  </g>
  <path d="M1304.42 218.348C1299.29 214.126 1342.87 89.041 1345.89 89.041C1348.9 89.041 1348.15 91.678 1361.72 134.278C1375.98 179.042 1387.36 216.84 1380.19 216.84C1374.46 216.84 1368.51 207.541 1366.25 202.891C1366.75 207.541 1366.55 216.84 1361.72 216.84C1356.9 216.84 1354.18 206.284 1353.43 201.006C1353.18 208.923 1351.39 224.606 1346.27 224.003C1341.14 223.4 1336.59 210.934 1334.96 204.776C1332.94 209.3 1327.94 218.046 1324.02 216.84C1320.1 215.633 1322.39 203.519 1324.02 197.613C1319.62 206.284 1309.55 222.57 1304.42 218.348Z" fill="#025B8C" stroke="black"/>
  <g filter="url(#filter22_d_22057_76)">
    <path d="M1304.42 184.419C1299.29 180.196 1342.87 55.1118 1345.89 55.1118C1348.9 55.1118 1348.15 57.7488 1361.72 100.349C1375.98 145.113 1387.36 182.911 1380.19 182.911C1374.46 182.911 1368.51 173.611 1366.25 168.962C1366.75 173.611 1366.55 182.911 1361.72 182.911C1356.9 182.911 1354.18 172.355 1353.43 167.077C1353.18 174.994 1351.39 190.677 1346.27 190.074C1341.14 189.47 1336.59 177.004 1334.96 170.847C1332.94 175.371 1327.94 184.117 1324.02 182.911C1320.1 181.704 1322.39 169.59 1324.02 163.684C1319.62 172.355 1309.55 188.641 1304.42 184.419Z" fill="#025B8C"/>
    <path d="M1304.42 184.419C1299.29 180.196 1342.87 55.1118 1345.89 55.1118C1348.9 55.1118 1348.15 57.7488 1361.72 100.349C1375.98 145.113 1387.36 182.911 1380.19 182.911C1374.46 182.911 1368.51 173.611 1366.25 168.962C1366.75 173.611 1366.55 182.911 1361.72 182.911C1356.9 182.911 1354.18 172.355 1353.43 167.077C1353.18 174.994 1351.39 190.677 1346.27 190.074C1341.14 189.47 1336.59 177.004 1334.96 170.847C1332.94 175.371 1327.94 184.117 1324.02 182.911C1320.1 181.704 1322.39 169.59 1324.02 163.684C1319.62 172.355 1309.55 188.641 1304.42 184.419Z" stroke="black"/>
  </g>
  <g filter="url(#filter23_d_22057_76)">
    <path d="M1311.13 140.179C1306.89 136.712 1342.93 34 1345.43 34C1347.92 34 1347.3 36.1654 1358.53 71.146C1370.32 107.903 1379.73 138.941 1373.8 138.941C1369.06 138.941 1364.14 131.305 1362.27 127.487C1362.68 131.305 1362.52 138.941 1358.53 138.941C1354.53 138.941 1352.29 130.273 1351.67 125.939C1351.46 132.44 1349.98 145.318 1345.74 144.822C1341.5 144.327 1337.74 134.091 1336.39 129.035C1334.72 132.749 1330.59 139.931 1327.35 138.941C1324.1 137.95 1325.99 128.003 1327.35 123.153C1323.71 130.273 1315.37 143.646 1311.13 140.179Z" fill="#156D9D"/>
    <path d="M1311.13 140.179C1306.89 136.712 1342.93 34 1345.43 34C1347.92 34 1347.3 36.1654 1358.53 71.146C1370.32 107.903 1379.73 138.941 1373.8 138.941C1369.06 138.941 1364.14 131.305 1362.27 127.487C1362.68 131.305 1362.52 138.941 1358.53 138.941C1354.53 138.941 1352.29 130.273 1351.67 125.939C1351.46 132.44 1349.98 145.318 1345.74 144.822C1341.5 144.327 1337.74 134.091 1336.39 129.035C1334.72 132.749 1330.59 139.931 1327.35 138.941C1324.1 137.95 1325.99 128.003 1327.35 123.153C1323.71 130.273 1315.37 143.646 1311.13 140.179Z" stroke="black"/>
  </g>
  <defs>
    <filter id="filter0_d_22057_76" x="1231.1" y="132.377" width="41.8164" height="81.123" filterUnits="userSpaceOnUse" color-interpolation-filters="sRGB">
      <feFlood flood-opacity="0" result="BackgroundImageFix"/>
      <feColorMatrix in="SourceAlpha" type="matrix" values="0 0 0 0 0 0 0 0 0 0 0 0 0 0 0 0 0 0 127 0" result="hardAlpha"/>
      <feOffset dy="6"/>
      <feComposite in2="hardAlpha" operator="out"/>
      <feColorMatrix type="matrix" values="0 0 0 0 0 0 0 0 0 0 0 0 0 0 0 0 0 0 0.25 0"/>
      <feBlend mode="normal" in2="BackgroundImageFix" result="effect1_dropShadow_22057_76"/>
      <feBlend mode="normal" in="SourceGraphic" in2="effect1_dropShadow_22057_76" result="shape"/>
    </filter>
    <filter id="filter1_d_22057_76" x="1494.1" y="132.377" width="41.8164" height="81.123" filterUnits="userSpaceOnUse" color-interpolation-filters="sRGB">
      <feFlood flood-opacity="0" result="BackgroundImageFix"/>
      <feColorMatrix in="SourceAlpha" type="matrix" values="0 0 0 0 0 0 0 0 0 0 0 0 0 0 0 0 0 0 127 0" result="hardAlpha"/>
      <feOffset dy="6"/>
      <feComposite in2="hardAlpha" operator="out"/>
      <feColorMatrix type="matrix" values="0 0 0 0 0 0 0 0 0 0 0 0 0 0 0 0 0 0 0.25 0"/>
      <feBlend mode="normal" in2="BackgroundImageFix" result="effect1_dropShadow_22057_76"/>
      <feBlend mode="normal" in="SourceGraphic" in2="effect1_dropShadow_22057_76" result="shape"/>
    </filter>
    <filter id="filter2_d_22057_76" x="557.105" y="81.7725" width="69.2969" height="131.728" filterUnits="userSpaceOnUse" color-interpolation-filters="sRGB">
      <feFlood flood-opacity="0" result="BackgroundImageFix"/>
      <feColorMatrix in="SourceAlpha" type="matrix" values="0 0 0 0 0 0 0 0 0 0 0 0 0 0 0 0 0 0 127 0" result="hardAlpha"/>
      <feOffset dy="6"/>
      <feComposite in2="hardAlpha" operator="out"/>
      <feColorMatrix type="matrix" values="0 0 0 0 0 0 0 0 0 0 0 0 0 0 0 0 0 0 0.25 0"/>
      <feBlend mode="normal" in2="BackgroundImageFix" result="effect1_dropShadow_22057_76"/>
      <feBlend mode="normal" in="SourceGraphic" in2="effect1_dropShadow_22057_76" result="shape"/>
    </filter>
    <filter id="filter3_d_22057_76" x="849.105" y="81.7725" width="69.2969" height="131.728" filterUnits="userSpaceOnUse" color-interpolation-filters="sRGB">
      <feFlood flood-opacity="0" result="BackgroundImageFix"/>
      <feColorMatrix in="SourceAlpha" type="matrix" values="0 0 0 0 0 0 0 0 0 0 0 0 0 0 0 0 0 0 127 0" result="hardAlpha"/>
      <feOffset dy="6"/>
      <feComposite in2="hardAlpha" operator="out"/>
      <feColorMatrix type="matrix" values="0 0 0 0 0 0 0 0 0 0 0 0 0 0 0 0 0 0 0.25 0"/>
      <feBlend mode="normal" in2="BackgroundImageFix" result="effect1_dropShadow_22057_76"/>
      <feBlend mode="normal" in="SourceGraphic" in2="effect1_dropShadow_22057_76" result="shape"/>
    </filter>
    <filter id="filter4_d_22057_76" x="464.098" y="102.345" width="57.8125" height="111.155" filterUnits="userSpaceOnUse" color-interpolation-filters="sRGB">
      <feFlood flood-opacity="0" result="BackgroundImageFix"/>
      <feColorMatrix in="SourceAlpha" type="matrix" values="0 0 0 0 0 0 0 0 0 0 0 0 0 0 0 0 0 0 127 0" result="hardAlpha"/>
      <feOffset dy="6"/>
      <feComposite in2="hardAlpha" operator="out"/>
      <feColorMatrix type="matrix" values="0 0 0 0 0 0 0 0 0 0 0 0 0 0 0 0 0 0 0.25 0"/>
      <feBlend mode="normal" in2="BackgroundImageFix" result="effect1_dropShadow_22057_76"/>
      <feBlend mode="normal" in="SourceGraphic" in2="effect1_dropShadow_22057_76" result="shape"/>
    </filter>
    <filter id="filter5_d_22057_76" x="158.098" y="102.345" width="57.8125" height="111.155" filterUnits="userSpaceOnUse" color-interpolation-filters="sRGB">
      <feFlood flood-opacity="0" result="BackgroundImageFix"/>
      <feColorMatrix in="SourceAlpha" type="matrix" values="0 0 0 0 0 0 0 0 0 0 0 0 0 0 0 0 0 0 127 0" result="hardAlpha"/>
      <feOffset dy="6"/>
      <feComposite in2="hardAlpha" operator="out"/>
      <feColorMatrix type="matrix" values="0 0 0 0 0 0 0 0 0 0 0 0 0 0 0 0 0 0 0.25 0"/>
      <feBlend mode="normal" in2="BackgroundImageFix" result="effect1_dropShadow_22057_76"/>
      <feBlend mode="normal" in="SourceGraphic" in2="effect1_dropShadow_22057_76" result="shape"/>
    </filter>
    <filter id="filter6_d_22057_76" x="247.094" y="147.404" width="33.8203" height="66.0957" filterUnits="userSpaceOnUse" color-interpolation-filters="sRGB">
      <feFlood flood-opacity="0" result="BackgroundImageFix"/>
      <feColorMatrix in="SourceAlpha" type="matrix" values="0 0 0 0 0 0 0 0 0 0 0 0 0 0 0 0 0 0 127 0" result="hardAlpha"/>
      <feOffset dy="6"/>
      <feComposite in2="hardAlpha" operator="out"/>
      <feColorMatrix type="matrix" values="0 0 0 0 0 0 0 0 0 0 0 0 0 0 0 0 0 0 0.25 0"/>
      <feBlend mode="normal" in2="BackgroundImageFix" result="effect1_dropShadow_22057_76"/>
      <feBlend mode="normal" in="SourceGraphic" in2="effect1_dropShadow_22057_76" result="shape"/>
    </filter>
    <filter id="filter7_d_22057_76" x="776.094" y="147.404" width="33.8203" height="66.0957" filterUnits="userSpaceOnUse" color-interpolation-filters="sRGB">
      <feFlood flood-opacity="0" result="BackgroundImageFix"/>
      <feColorMatrix in="SourceAlpha" type="matrix" values="0 0 0 0 0 0 0 0 0 0 0 0 0 0 0 0 0 0 127 0" result="hardAlpha"/>
      <feOffset dy="6"/>
      <feComposite in2="hardAlpha" operator="out"/>
      <feColorMatrix type="matrix" values="0 0 0 0 0 0 0 0 0 0 0 0 0 0 0 0 0 0 0.25 0"/>
      <feBlend mode="normal" in2="BackgroundImageFix" result="effect1_dropShadow_22057_76"/>
      <feBlend mode="normal" in="SourceGraphic" in2="effect1_dropShadow_22057_76" result="shape"/>
    </filter>
    <filter id="filter8_d_22057_76" x="0.09375" y="147.404" width="33.8223" height="66.0957" filterUnits="userSpaceOnUse" color-interpolation-filters="sRGB">
      <feFlood flood-opacity="0" result="BackgroundImageFix"/>
      <feColorMatrix in="SourceAlpha" type="matrix" values="0 0 0 0 0 0 0 0 0 0 0 0 0 0 0 0 0 0 127 0" result="hardAlpha"/>
      <feOffset dy="6"/>
      <feComposite in2="hardAlpha" operator="out"/>
      <feColorMatrix type="matrix" values="0 0 0 0 0 0 0 0 0 0 0 0 0 0 0 0 0 0 0.25 0"/>
      <feBlend mode="normal" in2="BackgroundImageFix" result="effect1_dropShadow_22057_76"/>
      <feBlend mode="normal" in="SourceGraphic" in2="effect1_dropShadow_22057_76" result="shape"/>
    </filter>
    <filter id="filter9_d_22057_76" x="1057.1" y="102.345" width="57.8125" height="111.155" filterUnits="userSpaceOnUse" color-interpolation-filters="sRGB">
      <feFlood flood-opacity="0" result="BackgroundImageFix"/>
      <feColorMatrix in="SourceAlpha" type="matrix" values="0 0 0 0 0 0 0 0 0 0 0 0 0 0 0 0 0 0 127 0" result="hardAlpha"/>
      <feOffset dy="6"/>
      <feComposite in2="hardAlpha" operator="out"/>
      <feColorMatrix type="matrix" values="0 0 0 0 0 0 0 0 0 0 0 0 0 0 0 0 0 0 0.25 0"/>
      <feBlend mode="normal" in2="BackgroundImageFix" result="effect1_dropShadow_22057_76"/>
      <feBlend mode="normal" in="SourceGraphic" in2="effect1_dropShadow_22057_76" result="shape"/>
    </filter>
    <filter id="filter10_d_22057_76" x="1411.1" y="87.3354" width="65.8086" height="126.165" filterUnits="userSpaceOnUse" color-interpolation-filters="sRGB">
      <feFlood flood-opacity="0" result="BackgroundImageFix"/>
      <feColorMatrix in="SourceAlpha" type="matrix" values="0 0 0 0 0 0 0 0 0 0 0 0 0 0 0 0 0 0 127 0" result="hardAlpha"/>
      <feOffset dy="6"/>
      <feComposite in2="hardAlpha" operator="out"/>
      <feColorMatrix type="matrix" values="0 0 0 0 0 0 0 0 0 0 0 0 0 0 0 0 0 0 0.25 0"/>
      <feBlend mode="normal" in2="BackgroundImageFix" result="effect1_dropShadow_22057_76"/>
      <feBlend mode="normal" in="SourceGraphic" in2="effect1_dropShadow_22057_76" result="shape"/>
    </filter>
    <filter id="filter11_d_22057_76" x="1262.1" y="113.374" width="51.8164" height="100.126" filterUnits="userSpaceOnUse" color-interpolation-filters="sRGB">
      <feFlood flood-opacity="0" result="BackgroundImageFix"/>
      <feColorMatrix in="SourceAlpha" type="matrix" values="0 0 0 0 0 0 0 0 0 0 0 0 0 0 0 0 0 0 127 0" result="hardAlpha"/>
      <feOffset dy="6"/>
      <feComposite in2="hardAlpha" operator="out"/>
      <feColorMatrix type="matrix" values="0 0 0 0 0 0 0 0 0 0 0 0 0 0 0 0 0 0 0.25 0"/>
      <feBlend mode="normal" in2="BackgroundImageFix" result="effect1_dropShadow_22057_76"/>
      <feBlend mode="normal" in="SourceGraphic" in2="effect1_dropShadow_22057_76" result="shape"/>
    </filter>
    <filter id="filter12_d_22057_76" x="903.5" y="103.397" width="102" height="131.023" filterUnits="userSpaceOnUse" color-interpolation-filters="sRGB">
      <feFlood flood-opacity="0" result="BackgroundImageFix"/>
      <feColorMatrix in="SourceAlpha" type="matrix" values="0 0 0 0 0 0 0 0 0 0 0 0 0 0 0 0 0 0 127 0" result="hardAlpha"/>
      <feOffset dy="9"/>
      <feComposite in2="hardAlpha" operator="out"/>
      <feColorMatrix type="matrix" values="0 0 0 0 0 0 0 0 0 0 0 0 0 0 0 0 0 0 0.25 0"/>
      <feBlend mode="normal" in2="BackgroundImageFix" result="effect1_dropShadow_22057_76"/>
      <feBlend mode="normal" in="SourceGraphic" in2="effect1_dropShadow_22057_76" result="shape"/>
    </filter>
    <filter id="filter13_d_22057_76" x="907.227" y="90.2969" width="87.4336" height="105.446" filterUnits="userSpaceOnUse" color-interpolation-filters="sRGB">
      <feFlood flood-opacity="0" result="BackgroundImageFix"/>
      <feColorMatrix in="SourceAlpha" type="matrix" values="0 0 0 0 0 0 0 0 0 0 0 0 0 0 0 0 0 0 127 0" result="hardAlpha"/>
      <feOffset dy="9"/>
      <feComposite in2="hardAlpha" operator="out"/>
      <feColorMatrix type="matrix" values="0 0 0 0 0 0 0 0 0 0 0 0 0 0 0 0 0 0 0.25 0"/>
      <feBlend mode="normal" in2="BackgroundImageFix" result="effect1_dropShadow_22057_76"/>
      <feBlend mode="normal" in="SourceGraphic" in2="effect1_dropShadow_22057_76" result="shape"/>
    </filter>
    <filter id="filter14_d_22057_76" x="915.125" y="48.5" width="79.4688" height="104.256" filterUnits="userSpaceOnUse" color-interpolation-filters="sRGB">
      <feFlood flood-opacity="0" result="BackgroundImageFix"/>
      <feColorMatrix in="SourceAlpha" type="matrix" values="0 0 0 0 0 0 0 0 0 0 0 0 0 0 0 0 0 0 127 0" result="hardAlpha"/>
      <feOffset dy="9"/>
      <feComposite in2="hardAlpha" operator="out"/>
      <feColorMatrix type="matrix" values="0 0 0 0 0 0 0 0 0 0 0 0 0 0 0 0 0 0 0.25 0"/>
      <feBlend mode="normal" in2="BackgroundImageFix" result="effect1_dropShadow_22057_76"/>
      <feBlend mode="normal" in="SourceGraphic" in2="effect1_dropShadow_22057_76" result="shape"/>
    </filter>
    <filter id="filter15_d_22057_76" x="78.5" y="103.397" width="102" height="131.023" filterUnits="userSpaceOnUse" color-interpolation-filters="sRGB">
      <feFlood flood-opacity="0" result="BackgroundImageFix"/>
      <feColorMatrix in="SourceAlpha" type="matrix" values="0 0 0 0 0 0 0 0 0 0 0 0 0 0 0 0 0 0 127 0" result="hardAlpha"/>
      <feOffset dy="9"/>
      <feComposite in2="hardAlpha" operator="out"/>
      <feColorMatrix type="matrix" values="0 0 0 0 0 0 0 0 0 0 0 0 0 0 0 0 0 0 0.25 0"/>
      <feBlend mode="normal" in2="BackgroundImageFix" result="effect1_dropShadow_22057_76"/>
      <feBlend mode="normal" in="SourceGraphic" in2="effect1_dropShadow_22057_76" result="shape"/>
    </filter>
    <filter id="filter16_d_22057_76" x="82.2266" y="90.2964" width="93.7188" height="105.446" filterUnits="userSpaceOnUse" color-interpolation-filters="sRGB">
      <feFlood flood-opacity="0" result="BackgroundImageFix"/>
      <feColorMatrix in="SourceAlpha" type="matrix" values="0 0 0 0 0 0 0 0 0 0 0 0 0 0 0 0 0 0 127 0" result="hardAlpha"/>
      <feOffset dy="9"/>
      <feComposite in2="hardAlpha" operator="out"/>
      <feColorMatrix type="matrix" values="0 0 0 0 0 0 0 0 0 0 0 0 0 0 0 0 0 0 0.25 0"/>
      <feBlend mode="normal" in2="BackgroundImageFix" result="effect1_dropShadow_22057_76"/>
      <feBlend mode="normal" in="SourceGraphic" in2="effect1_dropShadow_22057_76" result="shape"/>
    </filter>
    <filter id="filter17_d_22057_76" x="360.5" y="118.5" width="74" height="105" filterUnits="userSpaceOnUse" color-interpolation-filters="sRGB">
      <feFlood flood-opacity="0" result="BackgroundImageFix"/>
      <feColorMatrix in="SourceAlpha" type="matrix" values="0 0 0 0 0 0 0 0 0 0 0 0 0 0 0 0 0 0 127 0" result="hardAlpha"/>
      <feOffset dy="9"/>
      <feComposite in2="hardAlpha" operator="out"/>
      <feColorMatrix type="matrix" values="0 0 0 0 0 0 0 0 0 0 0 0 0 0 0 0 0 0 0.25 0"/>
      <feBlend mode="normal" in2="BackgroundImageFix" result="effect1_dropShadow_22057_76"/>
      <feBlend mode="normal" in="SourceGraphic" in2="effect1_dropShadow_22057_76" result="shape"/>
    </filter>
    <filter id="filter18_d_22057_76" x="87.5" y="80.5" width="79.6289" height="76.7559" filterUnits="userSpaceOnUse" color-interpolation-filters="sRGB">
      <feFlood flood-opacity="0" result="BackgroundImageFix"/>
      <feColorMatrix in="SourceAlpha" type="matrix" values="0 0 0 0 0 0 0 0 0 0 0 0 0 0 0 0 0 0 127 0" result="hardAlpha"/>
      <feOffset dy="9"/>
      <feComposite in2="hardAlpha" operator="out"/>
      <feColorMatrix type="matrix" values="0 0 0 0 0 0 0 0 0 0 0 0 0 0 0 0 0 0 0.25 0"/>
      <feBlend mode="normal" in2="BackgroundImageFix" result="effect1_dropShadow_22057_76"/>
      <feBlend mode="normal" in="SourceGraphic" in2="effect1_dropShadow_22057_76" result="shape"/>
    </filter>
    <filter id="filter19_d_22057_76" x="363.5" y="108.5" width="65" height="77.0005" filterUnits="userSpaceOnUse" color-interpolation-filters="sRGB">
      <feFlood flood-opacity="0" result="BackgroundImageFix"/>
      <feColorMatrix in="SourceAlpha" type="matrix" values="0 0 0 0 0 0 0 0 0 0 0 0 0 0 0 0 0 0 127 0" result="hardAlpha"/>
      <feOffset dy="9"/>
      <feComposite in2="hardAlpha"
                   operator="out"/>
      <feColorMatrix type="matrix" values="0 0 0 0 0 0 0 0 0 0 0 0 0 0 0 0 0 0 0.25 0"/>
      <feBlend mode="normal" in2="BackgroundImageFix" result="effect1_dropShadow_22057_76"/>
      <feBlend mode="normal" in="SourceGraphic" in2="effect1_dropShadow_22057_76" result="shape"/>
    </filter>
    <filter id="filter20_d_22057_76" x="656.5" y="25.311" width="93" height="168.394" filterUnits="userSpaceOnUse" color-interpolation-filters="sRGB">
      <feFlood flood-opacity="0" result="BackgroundImageFix"/>
      <feColorMatrix in="SourceAlpha" type="matrix" values="0 0 0 0 0 0 0 0 0 0 0 0 0 0 0 0 0 0 127 0" result="hardAlpha"/>
      <feOffset dy="9"/>
      <feComposite in2="hardAlpha" operator="out"/>
      <feColorMatrix type="matrix" values="0 0 0 0 0 0 0 0 0 0 0 0 0 0 0 0 0 0 0.25 0"/>
      <feBlend mode="normal" in2="BackgroundImageFix" result="effect1_dropShadow_22057_76"/>
      <feBlend mode="normal" in="SourceGraphic" in2="effect1_dropShadow_22057_76" result="shape"/>
    </filter>
    <filter id="filter21_d_22057_76" x="664.465" y="0.537109" width="77.0898" height="140.063" filterUnits="userSpaceOnUse" color-interpolation-filters="sRGB">
      <feFlood flood-opacity="0" result="BackgroundImageFix"/>
      <feColorMatrix in="SourceAlpha" type="matrix" values="0 0 0 0 0 0 0 0 0 0 0 0 0 0 0 0 0 0 127 0" result="hardAlpha"/>
      <feOffset dy="9"/>
      <feComposite in2="hardAlpha" operator="out"/>
      <feColorMatrix type="matrix" values="0 0 0 0 0 0 0 0 0 0 0 0 0 0 0 0 0 0 0.25 0"/>
      <feBlend mode="normal" in2="BackgroundImageFix" result="effect1_dropShadow_22057_76"/>
      <feBlend mode="normal" in="SourceGraphic" in2="effect1_dropShadow_22057_76" result="shape"/>
    </filter>
    <filter id="filter22_d_22057_76" x="1303.5" y="54.6118" width="79.3984" height="144.979" filterUnits="userSpaceOnUse" color-interpolation-filters="sRGB">
      <feFlood flood-opacity="0" result="BackgroundImageFix"/>
      <feColorMatrix in="SourceAlpha" type="matrix" values="0 0 0 0 0 0 0 0 0 0 0 0 0 0 0 0 0 0 127 0" result="hardAlpha"/>
      <feOffset dy="9"/>
      <feComposite in2="hardAlpha" operator="out"/>
      <feColorMatrix type="matrix" values="0 0 0 0 0 0 0 0 0 0 0 0 0 0 0 0 0 0 0.25 0"/>
      <feBlend mode="normal" in2="BackgroundImageFix" result="effect1_dropShadow_22057_76"/>
      <feBlend mode="normal" in="SourceGraphic" in2="effect1_dropShadow_22057_76" result="shape"/>
    </filter>
    <filter id="filter23_d_22057_76" x="1310.29" y="33.5" width="65.8438" height="120.836" filterUnits="userSpaceOnUse" color-interpolation-filters="sRGB">
      <feFlood flood-opacity="0" result="BackgroundImageFix"/>
      <feColorMatrix in="SourceAlpha" type="matrix" values="0 0 0 0 0 0 0 0 0 0 0 0 0 0 0 0 0 0 127 0" result="hardAlpha"/>
      <feOffset dy="9"/>
      <feComposite in2="hardAlpha" operator="out"/>
      <feColorMatrix type="matrix" values="0 0 0 0 0 0 0 0 0 0 0 0 0 0 0 0 0 0 0.25 0"/>
      <feBlend mode="normal" in2="BackgroundImageFix" result="effect1_dropShadow_22057_76"/>
      <feBlend mode="normal" in="SourceGraphic" in2="effect1_dropShadow_22057_76" result="shape"/>
    </filter>
  </defs>
</svg>
