<svg width="70" height="43" viewBox="0 0 70 43" fill="none" xmlns="http://www.w3.org/2000/svg">
<g filter="url(#filter0_d_32299_10260)">
<path d="M1.82951 13.3367C1.512 10.3158 3.70355 7.60948 6.72447 7.29197L58.4396 1.85648C61.4605 1.53897 64.1669 3.73052 64.4844 6.75145L66.1568 22.6638C66.4744 25.6847 64.2828 28.3911 61.2619 28.7086L40.61 30.8792C39.7103 30.9737 38.9319 31.547 38.5746 32.3781L36.9019 36.269C36.4533 37.3125 35.0526 37.4981 34.3477 36.6074L31.4968 33.0053C30.9653 32.3337 30.1269 31.981 29.2751 32.0705L9.54674 34.1441C6.52582 34.4616 3.81948 32.27 3.50197 29.2491L1.82951 13.3367Z" fill="#BDF849" stroke="#7F6C41"/>
<path d="M22.4638 16.758C22.8934 16.7128 23.2533 16.8077 23.5434 17.0427C23.8323 17.2657 23.9994 17.5921 24.0445 18.0217C24.0884 18.4394 24.0095 18.8941 23.8078 19.3859C23.6181 19.8764 23.3206 20.4326 22.9153 21.0543C23.9786 22.1009 24.5428 22.9345 24.608 23.5551C24.6557 24.0086 24.5507 24.3876 24.2931 24.6922C24.0463 24.9836 23.6782 25.1551 23.1888 25.2065C22.5802 25.2705 21.727 24.9016 20.6292 24.1C19.8087 25.0188 19.1105 25.5507 18.5345 25.6957C18.4641 25.7151 18.3693 25.7311 18.2499 25.7437C17.8084 25.7901 17.4372 25.7024 17.1363 25.4806C16.8475 25.2576 16.6804 24.9313 16.6353 24.5017C16.5976 24.1436 16.6743 23.7253 16.8654 23.2467C17.0564 22.7681 17.3426 22.2192 17.7239 21.6C17.2272 21.1213 16.8381 20.6916 16.5568 20.3109C16.2861 19.917 16.1301 19.5232 16.0887 19.1294C16.0335 18.6043 16.1222 18.1847 16.3546 17.8707C16.599 17.5554 16.9658 17.3721 17.4551 17.3206C17.7893 17.2855 18.1665 17.3726 18.5866 17.5818C19.0056 17.7791 19.4775 18.0794 20.0026 18.4827C20.443 17.9658 20.8588 17.5602 21.2502 17.2656C21.6535 16.9699 22.058 16.8006 22.4638 16.758ZM32.0415 20.9096C32.7531 20.9072 33.3137 21.0172 33.7232 21.2396C34.1314 21.4501 34.3644 21.8298 34.4221 22.3788C34.4697 22.8323 34.3748 23.1922 34.1374 23.4585C33.8987 23.7128 33.5682 23.8984 33.1461 24.0151C32.7347 24.1187 32.1889 24.2063 31.5086 24.2777L30.2376 24.4113L28.9666 24.5449C28.2864 24.6164 27.7283 24.6449 27.2924 24.6304C26.8671 24.6027 26.5113 24.4893 26.225 24.2901C25.9373 24.079 25.7697 23.7467 25.722 23.2932C25.6543 22.6488 25.8585 22.1809 26.3346 21.8895C26.8095 21.5862 27.5105 21.3677 28.4376 21.2341C28.3448 20.3509 28.23 19.3736 28.0933 18.302L27.8646 16.2989C27.6536 16.3573 27.4227 16.3997 27.1721 16.426C26.5157 16.495 25.941 16.4227 25.448 16.2091C24.9669 15.9942 24.6962 15.6003 24.636 15.0275C24.5884 14.574 24.7342 14.1242 25.0734 13.6783C25.4246 13.2312 25.9099 12.8544 26.5292 12.548C27.1593 12.2284 27.8383 12.0303 28.5663 11.9538C29.3181 11.8748 29.9453 12.0441 30.4477 12.4619C30.9608 12.8665 31.2619 13.4925 31.3509 14.3398L32.0415 20.9096ZM38.8532 22.8904C38.5221 23.2993 38.1059 23.53 37.6047 23.5827C37.1034 23.6354 36.6484 23.4962 36.2396 23.1651C35.8307 22.8341 35.5999 22.4179 35.5473 21.9167C35.4946 21.4154 35.6338 20.9604 35.9649 20.5515C36.2959 20.1427 36.7121 19.9119 37.2133 19.8592C37.7146 19.8066 38.1696 19.9458 38.5785 20.2768C38.9873 20.6079 39.2181 21.0241 39.2707 21.5253C39.3234 22.0265 39.1842 22.4816 38.8532 22.8904ZM43.8849 23.0493C43.2643 23.1146 42.7659 23.1368 42.3897 23.116C42.0122 23.0833 41.7113 22.9761 41.4871 22.7946C41.2617 22.6011 41.127 22.2955 41.0831 21.8778C41.0367 21.4362 41.1011 21.0735 41.2764 20.7896C41.4517 20.5058 41.7645 20.1531 42.2149 19.7317L42.9047 19.062C43.6862 18.2317 44.2774 17.5422 44.6782 16.9932C45.0778 16.4324 45.2512 15.9014 45.1985 15.4001C45.1659 15.0898 45.0428 14.8373 44.8293 14.6426C44.6277 14.4466 44.3837 14.3636 44.0973 14.3937C43.787 14.4263 43.5678 14.5218 43.4396 14.68C43.3234 14.8371 43.2335 15.0154 43.1701 15.2151C43.1173 15.4017 43.0774 15.5386 43.0503 15.6259C42.9504 15.9381 42.7701 16.1742 42.5094 16.3343C42.2487 16.4945 41.9633 16.5908 41.653 16.6234C41.1756 16.6736 40.7516 16.5432 40.3811 16.2322C40.0225 15.92 39.8081 15.4297 39.7378 14.7614C39.6601 14.0215 39.8106 13.33 40.1895 12.6869C40.5671 12.0318 41.0963 11.4996 41.7773 11.0901C42.4689 10.6675 43.2204 10.4136 44.032 10.3283C44.8196 10.2455 45.5837 10.3401 46.3242 10.6122C47.0754 10.8711 47.7069 11.3115 48.2187 11.9334C48.7292 12.5434 49.0322 13.3019 49.1275 14.2089C49.2166 15.0562 49.0443 15.9431 48.6108 16.8695C48.1879 17.7827 47.6078 18.5194 46.8703 19.0795C47.837 18.9779 48.5787 19.0327 49.0956 19.2438C49.6125 19.455 49.9036 19.8708 49.9688 20.4914C50.024 21.0165 49.9103 21.4266 49.6276 21.7218C49.3449 22.017 48.8923 22.2455 48.2698 22.4075C47.6473 22.5694 46.7639 22.7166 45.6194 22.8489L43.8849 23.0493Z" fill="black"/>
</g>
<defs>
<filter id="filter0_d_32299_10260" x="1.29883" y="1.32617" width="68.3887" height="39.3506" filterUnits="userSpaceOnUse" color-interpolation-filters="sRGB">
<feFlood flood-opacity="0" result="BackgroundImageFix"/>
<feColorMatrix in="SourceAlpha" type="matrix" values="0 0 0 0 0 0 0 0 0 0 0 0 0 0 0 0 0 0 127 0" result="hardAlpha"/>
<feOffset dx="3" dy="3"/>
<feComposite in2="hardAlpha" operator="out"/>
<feColorMatrix type="matrix" values="0 0 0 0 0 0 0 0 0 0 0 0 0 0 0 0 0 0 0.25 0"/>
<feBlend mode="normal" in2="BackgroundImageFix" result="effect1_dropShadow_32299_10260"/>
<feBlend mode="normal" in="SourceGraphic" in2="effect1_dropShadow_32299_10260" result="shape"/>
</filter>
</defs>
</svg>
