<svg width="70" height="43" viewBox="0 0 70 43" fill="none" xmlns="http://www.w3.org/2000/svg">
<g filter="url(#filter0_d_32299_10263)">
<path d="M3.59665 6.74986C3.91416 3.72894 6.6205 1.53739 9.64143 1.8549L61.3566 7.29038C64.3775 7.60789 66.569 10.3142 66.2515 13.3352L64.5791 29.2475C64.2616 32.2684 61.5552 34.46 58.5343 34.1425L37.8825 31.9719C36.9828 31.8773 36.1022 32.2762 35.5799 33.0148L33.1348 36.4729C32.479 37.4004 31.0703 37.2907 30.566 36.2729L28.5263 32.1568C28.146 31.3894 27.3994 30.8701 26.5476 30.7805L6.81916 28.707C3.79823 28.3895 1.60669 25.6831 1.9242 22.6622L3.59665 6.74986Z" fill="#BDF849" stroke="#7F6C41"/>
<path d="M23.069 14.3864C23.4986 14.4316 23.8309 14.5992 24.0659 14.8894C24.3021 15.1676 24.3976 15.5215 24.3524 15.9512C24.3085 16.3689 24.1368 16.7973 23.8373 17.2363C23.5497 17.6767 23.1431 18.1588 22.6174 18.6828C23.4398 19.9275 23.8184 20.8602 23.7532 21.4808C23.7055 21.9343 23.524 22.2832 23.2088 22.5276C22.9067 22.7613 22.511 22.8525 22.0217 22.801C21.413 22.7371 20.6551 22.1989 19.748 21.1865C18.7544 21.9147 17.9609 22.2898 17.3673 22.3119C17.2944 22.3163 17.1983 22.3122 17.079 22.2997C16.6374 22.2532 16.2926 22.0903 16.0444 21.8108C15.8082 21.5326 15.7127 21.1787 15.7578 20.7491C15.7955 20.391 15.9575 19.9978 16.2438 19.5694C16.5302 19.141 16.9242 18.6636 17.426 18.1371C17.0396 17.5656 16.7484 17.0644 16.5524 16.6336C16.3695 16.192 16.2988 15.7744 16.3402 15.3805C16.3954 14.8554 16.5693 14.4634 16.862 14.2046C17.1666 13.947 17.5635 13.844 18.0528 13.8954C18.387 13.9305 18.7378 14.0941 19.1053 14.3861C19.474 14.6662 19.8733 15.0581 20.303 15.5617C20.8412 15.1477 21.3323 14.8374 21.7764 14.6306C22.2323 14.4252 22.6632 14.3438 23.069 14.3864ZM31.5742 20.4386C32.2708 20.5842 32.7962 20.8084 33.1505 21.1111C33.5061 21.4018 33.655 21.8217 33.5973 22.3707C33.5497 22.8242 33.382 23.1565 33.0944 23.3676C32.808 23.5667 32.4462 23.6795 32.0091 23.706C31.5851 23.7217 31.033 23.6939 30.3527 23.6224L29.0817 23.4888L27.8107 23.3552C27.1305 23.2837 26.5787 23.1955 26.1553 23.0907C25.7451 22.9752 25.4207 22.7903 25.182 22.5359C24.9445 22.2697 24.8496 21.9098 24.8973 21.4563C24.965 20.8118 25.262 20.3966 25.7883 20.2106C26.3159 20.0126 27.047 19.9447 27.9817 20.0067C28.0745 19.1236 28.1654 18.1437 28.2544 17.0671L28.4473 15.0603C28.2287 15.0735 27.9941 15.067 27.7435 15.0406C27.0871 14.9716 26.54 14.7814 26.1021 14.4699C25.6762 14.1597 25.4934 13.7182 25.5536 13.1453C25.6012 12.6918 25.8373 12.2823 26.2619 11.9166C26.6984 11.5523 27.2514 11.2846 27.9209 11.1137C28.6036 10.932 29.309 10.8795 30.037 10.956C30.7888 11.035 31.3671 11.3311 31.7717 11.8442C32.1894 12.3466 32.3538 13.0215 32.2647 13.8688L31.5742 20.4386ZM37.8252 23.7924C37.4164 24.1235 36.9613 24.2627 36.4601 24.21C35.9588 24.1573 35.5427 23.9265 35.2116 23.5177C34.8805 23.1088 34.7413 22.6538 34.794 22.1526C34.8467 21.6513 35.0775 21.2352 35.4863 20.9041C35.8952 20.573 36.3502 20.4338 36.8514 20.4865C37.3527 20.5392 37.7688 20.7699 38.0999 21.1788C38.431 21.5876 38.5702 22.0427 38.5175 22.5439C38.4648 23.0452 38.2341 23.4613 37.8252 23.7924ZM43.2566 24.9967C42.7673 24.9453 42.2928 24.811 41.833 24.5937C41.3731 24.3765 41.0031 24.1083 40.723 23.7893C40.456 23.4596 40.3419 23.1097 40.3808 22.7398C40.4147 22.4175 40.5575 22.149 40.8093 21.9341C41.0612 21.7193 41.4019 21.6344 41.8316 21.6796C42.0225 21.6997 42.1751 21.7398 42.2895 21.8001C42.405 21.8485 42.5235 21.9273 42.6447 22.0366C42.7898 22.1483 42.9195 22.2344 43.0338 22.2946C43.1601 22.3562 43.3306 22.3982 43.5455 22.4208C44.0109 22.4697 44.3881 22.3827 44.677 22.1597C44.9778 21.9379 45.1445 21.6719 45.1771 21.3616C45.226 20.8961 45.1151 20.5165 44.8444 20.2225C44.5855 19.9299 44.1816 19.7547 43.6327 19.697C43.4298 19.6757 43.241 19.692 43.0664 19.7461C42.8931 19.7882 42.6981 19.8642 42.4814 19.9742C42.2647 20.0841 42.0691 20.1661 41.8944 20.2202C41.7198 20.2742 41.5251 20.29 41.3103 20.2674C40.7494 20.2084 40.4042 19.9912 40.2748 19.6156C40.1453 19.24 40.1201 18.6763 40.1991 17.9244L40.2894 17.0651C40.4638 15.4063 40.5632 14.4032 40.5876 14.0558C40.6453 13.5068 40.8946 13.0866 41.3355 12.7951C41.7764 12.5036 42.3282 12.3625 42.9908 12.3718C43.5794 12.3974 44.5181 12.478 45.807 12.6135C46.6185 12.6988 47.2837 12.7989 47.8025 12.9137C48.3214 13.0286 48.7479 13.2182 49.0821 13.4826C49.4282 13.7482 49.5762 14.1197 49.526 14.5971C49.4708 15.1222 49.2105 15.4749 48.7451 15.6553C48.2917 15.8369 47.7044 15.9139 46.9833 15.8864C46.2742 15.8601 45.1797 15.7692 43.6998 15.6137L43.5418 17.1174C44.1165 17.0451 44.6545 17.0352 45.1557 17.0879C45.9673 17.1732 46.6717 17.4162 47.2691 17.8168C47.8678 18.2055 48.3141 18.723 48.6082 19.3693C48.9035 20.0036 49.0104 20.7087 48.9288 21.4844C48.821 22.5107 48.4367 23.2969 47.776 23.8428C47.1153 24.3887 46.3726 24.739 45.5479 24.8937C44.7245 25.0364 43.9607 25.0707 43.2566 24.9967Z" fill="black"/>
</g>
<defs>
<filter id="filter0_d_32299_10263" x="1.39453" y="1.32422" width="68.3867" height="39.2832" filterUnits="userSpaceOnUse" color-interpolation-filters="sRGB">
<feFlood flood-opacity="0" result="BackgroundImageFix"/>
<feColorMatrix in="SourceAlpha" type="matrix" values="0 0 0 0 0 0 0 0 0 0 0 0 0 0 0 0 0 0 127 0" result="hardAlpha"/>
<feOffset dx="3" dy="3"/>
<feComposite in2="hardAlpha" operator="out"/>
<feColorMatrix type="matrix" values="0 0 0 0 0 0 0 0 0 0 0 0 0 0 0 0 0 0 0.25 0"/>
<feBlend mode="normal" in2="BackgroundImageFix" result="effect1_dropShadow_32299_10263"/>
<feBlend mode="normal" in="SourceGraphic" in2="effect1_dropShadow_32299_10263" result="shape"/>
</filter>
</defs>
</svg>
