<svg width="304" height="128" viewBox="0 0 304 128" fill="none" xmlns="http://www.w3.org/2000/svg">
<path d="M144.521 105.119C191.696 103.162 227.623 98.1311 251.77 90.4993C263.842 86.684 273.006 82.2079 279.161 77.1132C285.324 72.0114 288.5 66.2601 288.5 59.9248C288.5 53.602 285.294 47.1625 279.1 40.987C272.905 34.8106 263.688 28.8621 251.569 23.5051C227.329 12.7901 191.392 4.40299 144.533 1.32863C97.6593 -1.74666 61.7019 4.00842 37.4406 14.1156C13.216 24.2075 0.5 38.7175 0.5 53.2236C0.5 67.7346 13.0544 81.6854 37.192 91.4968C61.3652 101.323 97.3177 107.078 144.521 105.119Z" fill="#FDD54C" stroke="black"/>
<path d="M144.5 104.625C238.819 100.771 288 84.8128 288 60.6007C196.915 112.547 58.7144 77.8444 1 54C1 81.9596 50.1808 108.48 144.5 104.625Z" fill="black" fill-opacity="0.27"/>
<path d="M254.941 10.7341L237.987 20.8006C237.236 21.2465 237.381 22.3762 238.217 22.6282C251.669 26.6805 260.956 30.3825 264.815 32.6188C265.399 32.9571 266.179 32.7017 266.397 32.0633L273.289 11.9177C273.511 11.2687 273.029 10.594 272.343 10.594H255.452C255.272 10.594 255.096 10.6424 254.941 10.7341Z" fill="#FFF5A9" stroke="black"/>
<path d="M254.941 101.48L237.987 91.4132C237.236 90.9673 237.381 89.8376 238.217 89.5857C251.669 85.5333 260.956 81.8314 264.815 79.595C265.399 79.2567 266.179 79.5122 266.397 80.1506L273.289 100.296C273.511 100.945 273.029 101.62 272.343 101.62H255.452C255.272 101.62 255.096 101.571 254.941 101.48Z" fill="#FFF5A9" stroke="black"/>
<path d="M271.422 51.0427L261.484 54.0427C260.382 54.3753 260.622 56 261.773 56H293.419C293.57 56 293.718 55.966 293.854 55.9005L300.065 52.9005C301.022 52.4383 300.693 51 299.63 51H271.711C271.613 51 271.516 51.0144 271.422 51.0427Z" fill="#FFF5A9" stroke="black"/>
<path d="M134.299 108.752C135.696 109.551 138.491 111.986 138.491 115.34C138.491 116.533 138.297 118.018 137.922 119.532C136.981 123.334 134.902 127.317 131.904 127.317H86.3903C81.0007 127.317 74.7725 122.885 76.2097 119.532C78.7215 113.671 84.1586 109.706 94.7744 108.903L92.379 102.764C92.379 102.364 93.0976 101.686 95.9721 102.165C99.5653 102.764 121.723 103.959 132.502 103.361L131.904 108.752H134.299Z" fill="#FDD54C"/>
<path d="M76.2097 119.532C74.7725 122.885 81.0007 127.317 86.3903 127.317C100.164 127.317 128.55 127.317 131.904 127.317C134.902 127.317 136.981 123.334 137.922 119.532M76.2097 119.532C78.7215 113.671 84.1586 109.706 94.7744 108.903M76.2097 119.532H137.922M94.7744 108.903C96.0907 108.803 97.4866 108.752 98.9664 108.752C110.893 108.752 124.649 108.752 131.904 108.752M94.7744 108.903L92.379 102.764C92.379 102.364 93.0976 101.686 95.9721 102.165C99.5653 102.764 121.723 103.959 132.502 103.361L131.904 108.752M131.904 108.752C132.809 108.752 133.613 108.752 134.299 108.752C135.696 109.551 138.491 111.986 138.491 115.34C138.491 116.533 138.297 118.018 137.922 119.532" stroke="black"/>
<path d="M86.3903 127.317H131.904C134.902 127.317 136.981 123.334 137.922 119.532H76.2097C74.7725 122.886 81.0007 127.317 86.3903 127.317Z" fill="black" fill-opacity="0.5" stroke="black"/>
<path d="M93.8556 111.703C89.7474 111.682 86.0883 113.773 83.8376 115.602C83.1656 116.148 83.5788 117.134 84.4446 117.134H93.7752C94.3275 117.134 94.7752 116.686 94.7752 116.134V112.664C94.7752 112.144 94.3757 111.706 93.8556 111.703Z" fill="#0F0F0F"/>
<rect x="97.7695" y="111.146" width="8.38401" height="5.98858" rx="1" fill="#0F0F0F"/>
<rect x="109.746" y="111.146" width="8.38401" height="5.98858" rx="1" fill="#0F0F0F"/>
<path d="M30.6534 67.976C27.9974 67.96 26.0054 67.304 24.6774 66.008C23.3654 64.712 22.7094 62.608 22.7094 59.696C22.7094 57.056 23.3494 54.984 24.6294 53.48C25.9094 51.96 27.7174 51.2 30.0534 51.2C31.4934 51.2 32.7494 51.416 33.8214 51.848C34.8934 52.28 35.7174 52.896 36.2934 53.696C36.8694 54.496 37.1574 55.44 37.1574 56.528C37.1574 57.392 36.9654 58.16 36.5814 58.832C36.2134 59.504 35.6614 60.104 34.9254 60.632C35.5174 60.728 36.0294 61.048 36.4614 61.592C36.9094 62.136 37.1334 62.768 37.1334 63.488C37.1334 64.256 36.9254 64.984 36.5094 65.672C36.1094 66.344 35.4214 66.896 34.4454 67.328C33.4854 67.76 32.2214 67.976 30.6534 67.976ZM28.9974 59.024C29.2854 59.168 29.6454 59.24 30.0774 59.24C30.5894 59.24 31.0294 59.12 31.3974 58.88C31.7814 58.624 31.9734 58.248 31.9734 57.752C31.9734 57.272 31.7814 56.912 31.3974 56.672C31.0294 56.416 30.5814 56.288 30.0534 56.288C29.6374 56.288 29.2854 56.36 28.9974 56.504C28.7734 56.6 28.6054 56.768 28.4934 57.008C28.3814 57.248 28.3254 57.504 28.3254 57.776C28.3254 58.048 28.3814 58.304 28.4934 58.544C28.6054 58.768 28.7734 58.928 28.9974 59.024ZM28.9974 64.64C29.3014 64.768 29.6614 64.832 30.0774 64.832C30.5894 64.832 31.0294 64.728 31.3974 64.52C31.7814 64.296 31.9734 63.968 31.9734 63.536C31.9734 63.12 31.7814 62.8 31.3974 62.576C31.0134 62.352 30.5654 62.24 30.0534 62.24C29.6534 62.24 29.3014 62.304 28.9974 62.432C28.7734 62.528 28.6054 62.68 28.4934 62.888C28.3814 63.08 28.3254 63.296 28.3254 63.536C28.3254 63.776 28.3814 64 28.4934 64.208C28.6054 64.4 28.7734 64.544 28.9974 64.64ZM43.8969 68.024C42.7449 68.04 41.7129 67.8 40.8009 67.304C39.9049 66.808 39.2009 66.128 38.6889 65.264C38.1929 64.384 37.9289 63.408 37.8969 62.336C37.8809 61.264 38.1289 60.304 38.6409 59.456C39.1529 58.608 39.8649 57.936 40.7769 57.44C41.7049 56.944 42.7449 56.696 43.8969 56.696C45.0169 56.696 46.0249 56.936 46.9209 57.416C47.8329 57.896 48.5529 58.568 49.0809 59.432C49.6089 60.296 49.8889 61.264 49.9209 62.336C49.9369 63.376 49.6889 64.328 49.1769 65.192C48.6649 66.04 47.9449 66.72 47.0169 67.232C46.1049 67.744 45.0649 68.008 43.8969 68.024ZM43.9689 64.52C44.4009 64.52 44.7769 64.352 45.0969 64.016C45.4169 63.68 45.5769 63.288 45.5769 62.84C45.5769 62.392 45.4169 62.008 45.0969 61.688C44.7769 61.352 44.4009 61.184 43.9689 61.184C43.5369 61.184 43.1609 61.352 42.8409 61.688C42.5209 62.008 42.3609 62.392 42.3609 62.84C42.3609 63.288 42.5209 63.68 42.8409 64.016C43.1609 64.352 43.5369 64.52 43.9689 64.52ZM56.4549 68C55.2869 68 54.2629 67.712 53.3829 67.136C52.5029 66.544 51.8229 65.728 51.3429 64.688C50.8789 63.632 50.6469 62.416 50.6469 61.04C50.6469 59.696 50.8629 58.64 51.2949 57.872C51.7269 57.104 52.3269 56.72 53.0949 56.72C54.4549 56.72 55.1349 57.416 55.1349 58.808C55.1349 59.096 55.1269 59.352 55.1109 59.576C55.0949 59.784 55.0789 59.968 55.0629 60.128C54.9989 60.768 54.9669 61.28 54.9669 61.664C54.9669 62.368 55.1109 62.904 55.3989 63.272C55.6869 63.64 56.0389 63.824 56.4549 63.824C56.8869 63.824 57.2389 63.648 57.5109 63.296C57.7989 62.928 57.9429 62.384 57.9429 61.664C57.9429 61.152 57.9189 60.68 57.8709 60.248C57.8549 60.104 57.8389 59.896 57.8229 59.624C57.8069 59.336 57.7989 59.072 57.7989 58.832C57.7989 57.424 58.4789 56.72 59.8389 56.72C60.6069 56.72 61.1989 57.104 61.6149 57.872C62.0469 58.624 62.2629 59.68 62.2629 61.04C62.2629 63.168 61.7669 64.864 60.7749 66.128C59.7829 67.376 58.3429 68 56.4549 68ZM72.7831 68C72.2071 68 71.7751 67.84 71.4871 67.52C71.2151 67.2 71.0471 66.808 70.9831 66.344C70.9191 65.88 70.8871 65.28 70.8871 64.544C70.8871 63.6 70.7591 62.872 70.5031 62.36C70.2471 61.848 69.8311 61.592 69.2551 61.592C68.7271 61.592 68.3271 61.848 68.0551 62.36C67.7991 62.856 67.6711 63.544 67.6711 64.424C67.6711 65.272 67.6471 65.912 67.5991 66.344C67.5511 66.776 67.3911 67.16 67.1191 67.496C66.8471 67.816 66.3991 67.976 65.7751 67.976C64.8631 67.976 64.2231 67.392 63.8551 66.224C63.4871 65.04 63.3031 63.656 63.3031 62.072C63.3031 58.232 64.1111 56.312 65.7271 56.312C66.1751 56.312 66.5431 56.424 66.8311 56.648C67.1191 56.856 67.3191 57.16 67.4311 57.56C67.6391 57.336 67.9591 57.136 68.3911 56.96C68.8391 56.784 69.3111 56.696 69.8071 56.696C71.5671 56.696 72.8791 57.336 73.7431 58.616C74.6231 59.896 75.0631 61.632 75.0631 63.824C75.0631 65.12 74.8951 66.144 74.5591 66.896C74.2231 67.632 73.6311 68 72.7831 68ZM81.5073 68C80.3713 68 79.3633 67.728 78.4833 67.184C77.6193 66.624 76.9553 65.904 76.4913 65.024C76.0273 64.128 75.7953 63.176 75.7953 62.168C75.7953 60.984 76.0353 59.984 76.5153 59.168C77.0113 58.336 77.6433 57.72 78.4113 57.32C79.1953 56.92 80.0353 56.72 80.9313 56.72C81.8273 56.72 82.6273 56.912 83.3313 57.296C83.2993 56.96 83.2353 56.6 83.1393 56.216C83.0593 55.832 83.0033 55.592 82.9713 55.496C82.8433 55 82.7473 54.584 82.6833 54.248C82.6193 53.912 82.5873 53.576 82.5873 53.24C82.5873 52.568 82.7873 52.056 83.1873 51.704C83.5873 51.352 84.0673 51.176 84.6273 51.176C85.5233 51.176 86.2513 51.624 86.8113 52.52C87.3713 53.416 87.7713 54.528 88.0113 55.856C88.2673 57.184 88.3953 58.528 88.3953 59.888C88.3953 61.728 87.9713 63.544 87.1233 65.336C86.2913 67.112 84.4193 68 81.5073 68ZM81.6513 64.208C82.0833 64.208 82.4593 64.048 82.7793 63.728C83.0993 63.392 83.2593 63 83.2593 62.552C83.2593 62.104 83.0993 61.712 82.7793 61.376C82.4593 61.04 82.0833 60.872 81.6513 60.872C81.2193 60.872 80.8353 61.04 80.4993 61.376C80.1793 61.712 80.0193 62.104 80.0193 62.552C80.0193 63 80.1793 63.392 80.4993 63.728C80.8353 64.048 81.2193 64.208 81.6513 64.208ZM104.355 58.448C105.923 58.48 107.051 58.648 107.739 58.952C108.443 59.256 108.795 59.84 108.795 60.704C108.795 61.552 108.435 62.128 107.715 62.432C107.011 62.72 105.907 62.88 104.403 62.912L104.427 64.808C104.443 65.112 104.451 65.536 104.451 66.08C104.451 66.768 104.259 67.256 103.875 67.544C103.491 67.816 103.043 67.952 102.531 67.952C101.651 67.952 101.011 67.512 100.611 66.632C100.211 65.752 99.9633 64.496 99.8673 62.864C98.8273 62.784 98.0513 62.584 97.5393 62.264C97.0433 61.944 96.7953 61.424 96.7953 60.704C96.7953 59.984 97.0433 59.464 97.5393 59.144C98.0513 58.808 98.8273 58.592 99.8673 58.496C99.9633 56.944 100.195 55.64 100.563 54.584C100.931 53.528 101.531 52.704 102.363 52.112C103.195 51.504 104.315 51.2 105.723 51.2C106.603 51.2 107.331 51.408 107.907 51.824C108.499 52.224 108.795 52.808 108.795 53.576C108.795 54.376 108.547 54.984 108.051 55.4C107.571 55.8 106.907 56.08 106.059 56.24C105.499 56.352 105.091 56.6 104.835 56.984C104.579 57.352 104.419 57.84 104.355 58.448ZM115.147 68.024C113.995 68.04 112.963 67.8 112.051 67.304C111.155 66.808 110.451 66.128 109.939 65.264C109.443 64.384 109.179 63.408 109.147 62.336C109.131 61.264 109.379 60.304 109.891 59.456C110.403 58.608 111.115 57.936 112.027 57.44C112.955 56.944 113.995 56.696 115.147 56.696C116.267 56.696 117.275 56.936 118.171 57.416C119.083 57.896 119.803 58.568 120.331 59.432C120.859 60.296 121.139 61.264 121.171 62.336C121.187 63.376 120.939 64.328 120.427 65.192C119.915 66.04 119.195 66.72 118.267 67.232C117.355 67.744 116.315 68.008 115.147 68.024ZM115.219 64.52C115.651 64.52 116.027 64.352 116.347 64.016C116.667 63.68 116.827 63.288 116.827 62.84C116.827 62.392 116.667 62.008 116.347 61.688C116.027 61.352 115.651 61.184 115.219 61.184C114.787 61.184 114.411 61.352 114.091 61.688C113.771 62.008 113.611 62.392 113.611 62.84C113.611 63.288 113.771 63.68 114.091 64.016C114.411 64.352 114.787 64.52 115.219 64.52ZM124.699 68C123.675 68 122.987 67.4 122.635 66.2C122.299 65 122.131 63.344 122.131 61.232C122.131 60.272 122.171 59.472 122.251 58.832C122.347 58.176 122.563 57.624 122.899 57.176C123.251 56.712 123.787 56.48 124.507 56.48C124.955 56.48 125.347 56.584 125.683 56.792C126.035 57 126.259 57.296 126.355 57.68C126.707 57.36 127.163 57.12 127.723 56.96C128.283 56.8 128.883 56.72 129.523 56.72C130.035 56.72 130.555 56.848 131.083 57.104C131.627 57.36 132.075 57.712 132.427 58.16C132.795 58.592 132.979 59.064 132.979 59.576C132.979 60.088 132.795 60.544 132.427 60.944C132.075 61.328 131.603 61.52 131.011 61.52C130.819 61.52 130.635 61.496 130.459 61.448C130.299 61.4 130.155 61.352 130.027 61.304C129.707 61.176 129.451 61.112 129.259 61.112C128.635 61.112 128.083 61.36 127.603 61.856C127.139 62.336 126.907 62.96 126.907 63.728C126.907 64.576 126.875 65.28 126.811 65.84C126.747 66.4 126.555 66.904 126.235 67.352C125.915 67.784 125.403 68 124.699 68ZM149.317 67.976C146.661 67.96 144.669 67.304 143.341 66.008C142.029 64.712 141.373 62.608 141.373 59.696C141.373 57.056 142.013 54.984 143.293 53.48C144.573 51.96 146.381 51.2 148.717 51.2C150.157 51.2 151.413 51.416 152.485 51.848C153.557 52.28 154.381 52.896 154.957 53.696C155.533 54.496 155.821 55.44 155.821 56.528C155.821 57.392 155.629 58.16 155.245 58.832C154.877 59.504 154.325 60.104 153.589 60.632C154.181 60.728 154.693 61.048 155.125 61.592C155.573 62.136 155.797 62.768 155.797 63.488C155.797 64.256 155.589 64.984 155.173 65.672C154.773 66.344 154.085 66.896 153.109 67.328C152.149 67.76 150.885 67.976 149.317 67.976ZM147.661 59.024C147.949 59.168 148.309 59.24 148.741 59.24C149.253 59.24 149.693 59.12 150.061 58.88C150.445 58.624 150.637 58.248 150.637 57.752C150.637 57.272 150.445 56.912 150.061 56.672C149.693 56.416 149.245 56.288 148.717 56.288C148.301 56.288 147.949 56.36 147.661 56.504C147.437 56.6 147.269 56.768 147.157 57.008C147.045 57.248 146.989 57.504 146.989 57.776C146.989 58.048 147.045 58.304 147.157 58.544C147.269 58.768 147.437 58.928 147.661 59.024ZM147.661 64.64C147.965 64.768 148.325 64.832 148.741 64.832C149.253 64.832 149.693 64.728 150.061 64.52C150.445 64.296 150.637 63.968 150.637 63.536C150.637 63.12 150.445 62.8 150.061 62.576C149.677 62.352 149.229 62.24 148.717 62.24C148.317 62.24 147.965 62.304 147.661 62.432C147.437 62.528 147.269 62.68 147.157 62.888C147.045 63.08 146.989 63.296 146.989 63.536C146.989 63.776 147.045 64 147.157 64.208C147.269 64.4 147.437 64.544 147.661 64.64ZM162.585 68C161.401 68 160.353 67.768 159.441 67.304C158.529 66.84 157.817 66.192 157.305 65.36C156.809 64.512 156.561 63.56 156.561 62.504C156.561 61.464 156.809 60.504 157.305 59.624C157.817 58.744 158.521 58.04 159.417 57.512C160.313 56.984 161.329 56.72 162.465 56.72C163.489 56.72 164.393 56.928 165.177 57.344C165.961 57.76 166.561 58.312 166.977 59C167.393 59.672 167.601 60.376 167.601 61.112C167.601 62.312 167.145 63.192 166.233 63.752C165.337 64.296 164.265 64.568 163.017 64.568C162.185 64.568 161.481 64.464 160.905 64.256C161.385 65.04 162.177 65.432 163.281 65.432C163.729 65.432 164.209 65.376 164.721 65.264C164.913 65.216 165.097 65.192 165.273 65.192C165.625 65.192 165.905 65.28 166.113 65.456C166.337 65.632 166.449 65.872 166.449 66.176C166.449 66.672 166.145 67.104 165.537 67.472C164.929 67.824 163.945 68 162.585 68ZM160.977 61.328C161.121 61.552 161.313 61.72 161.553 61.832C161.809 61.928 162.089 61.976 162.393 61.976C162.745 61.976 163.049 61.896 163.305 61.736C163.577 61.576 163.713 61.368 163.713 61.112C163.713 60.824 163.593 60.576 163.353 60.368C163.129 60.16 162.801 60.056 162.369 60.056C161.937 60.056 161.593 60.192 161.337 60.464C161.097 60.72 160.977 61.008 160.977 61.328ZM171.129 68C170.105 68 169.417 67.4 169.065 66.2C168.729 65 168.561 63.344 168.561 61.232C168.561 60.272 168.601 59.472 168.681 58.832C168.777 58.176 168.993 57.624 169.329 57.176C169.681 56.712 170.217 56.48 170.937 56.48C171.385 56.48 171.777 56.584 172.113 56.792C172.465 57 172.689 57.296 172.785 57.68C173.137 57.36 173.593 57.12 174.153 56.96C174.713 56.8 175.313 56.72 175.953 56.72C176.465 56.72 176.985 56.848 177.513 57.104C178.057 57.36 178.505 57.712 178.857 58.16C179.225 58.592 179.409 59.064 179.409 59.576C179.409 60.088 179.225 60.544 178.857 60.944C178.505 61.328 178.033 61.52 177.441 61.52C177.249 61.52 177.065 61.496 176.889 61.448C176.729 61.4 176.585 61.352 176.457 61.304C176.137 61.176 175.881 61.112 175.689 61.112C175.065 61.112 174.513 61.36 174.033 61.856C173.569 62.336 173.337 62.96 173.337 63.728C173.337 64.576 173.305 65.28 173.241 65.84C173.177 66.4 172.985 66.904 172.665 67.352C172.345 67.784 171.833 68 171.129 68ZM184.201 68C182.953 68 181.929 67.72 181.129 67.16C180.329 66.584 179.929 65.76 179.929 64.688C179.929 63.76 180.337 63.024 181.153 62.48C181.969 61.936 182.985 61.664 184.201 61.664C184.649 61.664 185.065 61.704 185.449 61.784C185.849 61.848 186.121 61.928 186.265 62.024C186.265 61.624 186.097 61.296 185.761 61.04C185.425 60.768 184.913 60.632 184.225 60.632C183.921 60.632 183.673 60.656 183.481 60.704C183.289 60.752 183.081 60.824 182.857 60.92C182.633 61.016 182.425 61.088 182.233 61.136C182.057 61.184 181.817 61.208 181.513 61.208C181.001 61.208 180.601 61.08 180.313 60.824C180.025 60.552 179.881 60.144 179.881 59.6C179.881 58.976 180.105 58.448 180.553 58.016C181.017 57.584 181.593 57.264 182.281 57.056C182.969 56.832 183.657 56.72 184.345 56.72C185.705 56.72 186.841 56.976 187.753 57.488C188.681 57.984 189.361 58.648 189.793 59.48C190.241 60.312 190.465 61.232 190.465 62.24C190.465 62.784 190.417 63.288 190.321 63.752C190.241 64.216 190.129 64.576 189.985 64.832C190.209 65.024 190.377 65.248 190.489 65.504C190.617 65.76 190.681 66.024 190.681 66.296C190.681 66.76 190.521 67.16 190.201 67.496C189.897 67.832 189.489 68 188.977 68C188.593 68 188.281 67.944 188.041 67.832C187.801 67.72 187.545 67.544 187.273 67.304C186.873 67.544 186.433 67.72 185.953 67.832C185.489 67.944 184.905 68 184.201 68ZM184.681 65.576C185.017 65.576 185.281 65.504 185.473 65.36C185.681 65.216 185.785 65.04 185.785 64.832C185.785 64.624 185.681 64.448 185.473 64.304C185.281 64.16 185.017 64.088 184.681 64.088C184.345 64.088 184.073 64.16 183.865 64.304C183.673 64.448 183.577 64.624 183.577 64.832C183.577 65.04 183.673 65.216 183.865 65.36C184.073 65.504 184.345 65.576 184.681 65.576ZM197.293 67.976C196.269 67.976 195.301 67.728 194.389 67.232C193.493 66.72 192.773 66.032 192.229 65.168C191.685 64.304 191.413 63.336 191.413 62.264C191.413 61.144 191.677 60.168 192.205 59.336C192.749 58.488 193.461 57.84 194.34 57.392C195.237 56.944 196.197 56.72 197.221 56.72C198.197 56.72 199.077 56.912 199.861 57.296C200.645 57.68 201.253 58.184 201.685 58.808C202.117 59.416 202.333 60.056 202.333 60.728C202.333 61.288 202.157 61.72 201.805 62.024C201.469 62.328 200.965 62.48 200.293 62.48C199.941 62.48 199.669 62.416 199.477 62.288C199.285 62.16 199.085 61.968 198.877 61.712C198.685 61.472 198.501 61.296 198.325 61.184C198.165 61.056 197.933 60.992 197.629 60.992C197.197 60.992 196.829 61.144 196.525 61.448C196.221 61.736 196.069 62.112 196.069 62.576C196.069 63.056 196.213 63.44 196.501 63.728C196.805 64.016 197.181 64.16 197.629 64.16C197.917 64.16 198.141 64.12 198.301 64.04C198.461 63.96 198.637 63.832 198.829 63.656C199.053 63.464 199.261 63.328 199.453 63.248C199.645 63.152 199.925 63.104 200.293 63.104C200.949 63.104 201.453 63.28 201.805 63.632C202.157 63.984 202.333 64.392 202.333 64.856C202.333 65.4 202.117 65.912 201.685 66.392C201.269 66.872 200.677 67.256 199.909 67.544C199.141 67.832 198.269 67.976 197.293 67.976ZM205.941 68C205.157 68 204.557 67.696 204.141 67.088C203.725 66.48 203.437 65.544 203.277 64.28C203.133 63.016 203.061 61.264 203.061 59.024C203.061 57.152 203.109 55.688 203.205 54.632C203.317 53.576 203.565 52.744 203.949 52.136C204.333 51.512 204.933 51.2 205.749 51.2C206.453 51.2 206.981 51.424 207.333 51.872C207.685 52.32 207.909 52.88 208.005 53.552C208.101 54.224 208.149 55.064 208.149 56.072V57.152C208.469 56.992 208.749 56.88 208.989 56.816C209.245 56.752 209.621 56.72 210.117 56.72C211.205 56.72 212.141 57 212.925 57.56C213.709 58.104 214.301 58.84 214.701 59.768C215.117 60.696 215.325 61.728 215.325 62.864C215.325 64.336 215.165 65.552 214.845 66.512C214.541 67.456 213.933 67.928 213.021 67.928C212.381 67.928 211.901 67.784 211.581 67.496C211.277 67.208 211.077 66.816 210.981 66.32C210.901 65.824 210.861 65.144 210.861 64.28C210.861 63.336 210.757 62.608 210.549 62.096C210.357 61.584 210.013 61.328 209.517 61.328C209.021 61.328 208.661 61.592 208.437 62.12C208.229 62.632 208.117 63.352 208.101 64.28C208.085 65.144 208.029 65.832 207.933 66.344C207.853 66.856 207.653 67.264 207.333 67.568C207.029 67.856 206.565 68 205.941 68ZM220.365 68C219.117 68 218.093 67.72 217.293 67.16C216.493 66.584 216.093 65.76 216.093 64.688C216.093 63.76 216.501 63.024 217.317 62.48C218.133 61.936 219.149 61.664 220.365 61.664C220.813 61.664 221.229 61.704 221.613 61.784C222.013 61.848 222.285 61.928 222.429 62.024C222.429 61.624 222.261 61.296 221.925 61.04C221.589 60.768 221.077 60.632 220.389 60.632C220.085 60.632 219.837 60.656 219.645 60.704C219.453 60.752 219.245 60.824 219.021 60.92C218.797 61.016 218.589 61.088 218.397 61.136C218.221 61.184 217.981 61.208 217.677 61.208C217.165 61.208 216.765 61.08 216.477 60.824C216.189 60.552 216.045 60.144 216.045 59.6C216.045 58.976 216.269 58.448 216.717 58.016C217.181 57.584 217.757 57.264 218.445 57.056C219.133 56.832 219.821 56.72 220.509 56.72C221.869 56.72 223.005 56.976 223.917 57.488C224.845 57.984 225.525 58.648 225.957 59.48C226.405 60.312 226.629 61.232 226.629 62.24C226.629 62.784 226.581 63.288 226.485 63.752C226.405 64.216 226.293 64.576 226.149 64.832C226.373 65.024 226.541 65.248 226.653 65.504C226.781 65.76 226.845 66.024 226.845 66.296C226.845 66.76 226.685 67.16 226.365 67.496C226.061 67.832 225.653 68 225.141 68C224.757 68 224.445 67.944 224.205 67.832C223.965 67.72 223.709 67.544 223.437 67.304C223.037 67.544 222.597 67.72 222.117 67.832C221.653 67.944 221.069 68 220.365 68ZM220.845 65.576C221.181 65.576 221.445 65.504 221.637 65.36C221.845 65.216 221.949 65.04 221.949 64.832C221.949 64.624 221.845 64.448 221.637 64.304C221.445 64.16 221.181 64.088 220.845 64.088C220.509 64.088 220.237 64.16 220.029 64.304C219.837 64.448 219.741 64.624 219.741 64.832C219.741 65.04 219.837 65.216 220.029 65.36C220.237 65.504 220.509 65.576 220.845 65.576ZM230.853 56.36C230.069 56.36 229.405 56.08 228.861 55.52C228.317 54.944 228.045 54.248 228.045 53.432C228.045 52.632 228.317 51.952 228.861 51.392C229.405 50.816 230.069 50.528 230.853 50.528C231.621 50.528 232.277 50.816 232.821 51.392C233.381 51.952 233.661 52.632 233.661 53.432C233.661 54.248 233.381 54.944 232.821 55.52C232.277 56.08 231.621 56.36 230.853 56.36ZM230.853 68C230.197 68 229.709 67.816 229.389 67.448C229.085 67.064 228.877 66.496 228.765 65.744C228.669 64.976 228.621 63.888 228.621 62.48C228.621 61.296 228.677 60.36 228.789 59.672C228.917 58.984 229.141 58.472 229.461 58.136C229.781 57.8 230.245 57.632 230.853 57.632C231.509 57.632 231.989 57.824 232.293 58.208C232.613 58.576 232.821 59.144 232.917 59.912C233.029 60.664 233.085 61.744 233.085 63.152C233.085 64.336 233.021 65.272 232.893 65.96C232.781 66.648 232.565 67.16 232.245 67.496C231.925 67.832 231.461 68 230.853 68ZM244.111 68C243.535 68 243.103 67.84 242.815 67.52C242.543 67.2 242.375 66.808 242.311 66.344C242.247 65.88 242.215 65.28 242.215 64.544C242.215 63.6 242.087 62.872 241.831 62.36C241.575 61.848 241.159 61.592 240.583 61.592C240.055 61.592 239.655 61.848 239.383 62.36C239.127 62.856 238.999 63.544 238.999 64.424C238.999 65.272 238.975 65.912 238.927 66.344C238.879 66.776 238.719 67.16 238.447 67.496C238.175 67.816 237.727 67.976 237.103 67.976C236.191 67.976 235.551 67.392 235.183 66.224C234.815 65.04 234.631 63.656 234.631 62.072C234.631 58.232 235.439 56.312 237.055 56.312C237.503 56.312 237.871 56.424 238.159 56.648C238.447 56.856 238.647 57.16 238.759 57.56C238.967 57.336 239.287 57.136 239.719 56.96C240.167 56.784 240.639 56.696 241.135 56.696C242.895 56.696 244.207 57.336 245.071 58.616C245.951 59.896 246.391 61.632 246.391 63.824C246.391 65.12 246.223 66.144 245.887 66.896C245.551 67.632 244.959 68 244.111 68ZM248.624 52.328C249.088 51.576 249.864 51.2 250.952 51.2C251.992 51.2 252.744 51.56 253.208 52.28C253.688 53 253.928 53.872 253.928 54.896C253.928 55.744 253.848 56.688 253.688 57.728C253.528 58.752 253.304 59.672 253.016 60.488C252.872 60.888 252.624 61.24 252.272 61.544C251.936 61.832 251.496 61.976 250.952 61.976C250.408 61.976 249.96 61.832 249.608 61.544C249.256 61.24 249.008 60.888 248.864 60.488C248.576 59.688 248.352 58.792 248.192 57.8C248.032 56.792 247.952 55.88 247.952 55.064C247.952 53.976 248.176 53.064 248.624 52.328ZM252.68 67.136C252.184 67.632 251.6 67.88 250.928 67.88C250.256 67.88 249.672 67.632 249.176 67.136C248.68 66.64 248.432 66.056 248.432 65.384C248.432 64.712 248.68 64.128 249.176 63.632C249.672 63.136 250.256 62.888 250.928 62.888C251.6 62.888 252.184 63.136 252.68 63.632C253.176 64.128 253.424 64.712 253.424 65.384C253.424 66.056 253.176 66.64 252.68 67.136Z" fill="black"/>
<path d="M35.493 39.982C33.501 39.97 32.007 39.478 31.011 38.506C30.027 37.534 29.535 35.956 29.535 33.772C29.535 31.792 30.015 30.238 30.975 29.11C31.935 27.97 33.291 27.4 35.043 27.4C36.123 27.4 37.065 27.562 37.869 27.886C38.673 28.21 39.291 28.672 39.723 29.272C40.155 29.872 40.371 30.58 40.371 31.396C40.371 32.044 40.227 32.62 39.939 33.124C39.663 33.628 39.249 34.078 38.697 34.474C39.141 34.546 39.525 34.786 39.849 35.194C40.185 35.602 40.353 36.076 40.353 36.616C40.353 37.192 40.197 37.738 39.885 38.254C39.585 38.758 39.069 39.172 38.337 39.496C37.617 39.82 36.669 39.982 35.493 39.982ZM34.251 33.268C34.467 33.376 34.737 33.43 35.061 33.43C35.445 33.43 35.775 33.34 36.051 33.16C36.339 32.968 36.483 32.686 36.483 32.314C36.483 31.954 36.339 31.684 36.051 31.504C35.775 31.312 35.439 31.216 35.043 31.216C34.731 31.216 34.467 31.27 34.251 31.378C34.083 31.45 33.957 31.576 33.873 31.756C33.789 31.936 33.747 32.128 33.747 32.332C33.747 32.536 33.789 32.728 33.873 32.908C33.957 33.076 34.083 33.196 34.251 33.268ZM34.251 37.48C34.479 37.576 34.749 37.624 35.061 37.624C35.445 37.624 35.775 37.546 36.051 37.39C36.339 37.222 36.483 36.976 36.483 36.652C36.483 36.34 36.339 36.1 36.051 35.932C35.763 35.764 35.427 35.68 35.043 35.68C34.743 35.68 34.479 35.728 34.251 35.824C34.083 35.896 33.957 36.01 33.873 36.166C33.789 36.31 33.747 36.472 33.747 36.652C33.747 36.832 33.789 37 33.873 37.156C33.957 37.3 34.083 37.408 34.251 37.48ZM43.0316 31.27C42.4436 31.27 41.9456 31.06 41.5376 30.64C41.1296 30.208 40.9256 29.686 40.9256 29.074C40.9256 28.474 41.1296 27.964 41.5376 27.544C41.9456 27.112 42.4436 26.896 43.0316 26.896C43.6076 26.896 44.0996 27.112 44.5076 27.544C44.9276 27.964 45.1376 28.474 45.1376 29.074C45.1376 29.686 44.9276 30.208 44.5076 30.64C44.0996 31.06 43.6076 31.27 43.0316 31.27ZM43.0316 40C42.5396 40 42.1736 39.862 41.9336 39.586C41.7056 39.298 41.5496 38.872 41.4656 38.308C41.3936 37.732 41.3576 36.916 41.3576 35.86C41.3576 34.972 41.3996 34.27 41.4836 33.754C41.5796 33.238 41.7476 32.854 41.9876 32.602C42.2276 32.35 42.5756 32.224 43.0316 32.224C43.5236 32.224 43.8836 32.368 44.1116 32.656C44.3516 32.932 44.5076 33.358 44.5796 33.934C44.6636 34.498 44.7056 35.308 44.7056 36.364C44.7056 37.252 44.6576 37.954 44.5616 38.47C44.4776 38.986 44.3156 39.37 44.0756 39.622C43.8356 39.874 43.4876 40 43.0316 40ZM52.975 40C52.543 40 52.219 39.88 52.003 39.64C51.799 39.4 51.673 39.106 51.625 38.758C51.577 38.41 51.553 37.96 51.553 37.408C51.553 36.7 51.457 36.154 51.265 35.77C51.073 35.386 50.761 35.194 50.329 35.194C49.933 35.194 49.633 35.386 49.429 35.77C49.237 36.142 49.141 36.658 49.141 37.318C49.141 37.954 49.123 38.434 49.087 38.758C49.051 39.082 48.931 39.37 48.727 39.622C48.523 39.862 48.187 39.982 47.719 39.982C47.035 39.982 46.555 39.544 46.279 38.668C46.003 37.78 45.865 36.742 45.865 35.554C45.865 32.674 46.471 31.234 47.683 31.234C48.019 31.234 48.295 31.318 48.511 31.486C48.727 31.642 48.877 31.87 48.961 32.17C49.117 32.002 49.357 31.852 49.681 31.72C50.017 31.588 50.371 31.522 50.743 31.522C52.063 31.522 53.047 32.002 53.695 32.962C54.355 33.922 54.685 35.224 54.685 36.868C54.685 37.84 54.559 38.608 54.307 39.172C54.055 39.724 53.611 40 52.975 40ZM63.649 32.206C63.649 32.83 63.355 33.256 62.767 33.484C62.179 33.7 61.375 33.814 60.355 33.826C60.343 34.126 60.337 34.612 60.337 35.284C60.337 35.968 60.385 36.454 60.481 36.742C60.541 36.946 60.631 37.078 60.751 37.138C60.883 37.198 61.075 37.24 61.327 37.264C61.411 37.276 61.501 37.294 61.597 37.318C61.705 37.33 61.825 37.348 61.957 37.372C62.233 37.432 62.449 37.582 62.605 37.822C62.761 38.05 62.839 38.344 62.839 38.704C62.839 39.112 62.629 39.43 62.209 39.658C61.789 39.886 61.213 40 60.481 40C59.809 40 59.167 39.808 58.555 39.424C57.943 39.028 57.523 38.5 57.295 37.84C57.055 37.132 56.935 35.794 56.935 33.826C56.095 33.802 55.417 33.694 54.901 33.502C54.397 33.298 54.145 32.938 54.145 32.422C54.145 31.774 54.385 31.342 54.865 31.126C55.345 30.898 56.035 30.778 56.935 30.766C56.971 29.806 57.121 29.008 57.385 28.372C57.649 27.724 58.123 27.4 58.807 27.4C59.503 27.4 59.953 27.7 60.157 28.3C60.373 28.9 60.469 29.722 60.445 30.766C61.537 30.754 62.341 30.838 62.857 31.018C63.385 31.198 63.649 31.594 63.649 32.206ZM68.1721 40C67.2841 40 66.4981 39.826 65.8141 39.478C65.1301 39.13 64.5961 38.644 64.2121 38.02C63.8401 37.384 63.6541 36.67 63.6541 35.878C63.6541 35.098 63.8401 34.378 64.2121 33.718C64.5961 33.058 65.1241 32.53 65.7961 32.134C66.4681 31.738 67.2301 31.54 68.0821 31.54C68.8501 31.54 69.5281 31.696 70.1161 32.008C70.7041 32.32 71.1541 32.734 71.4661 33.25C71.7781 33.754 71.9341 34.282 71.9341 34.834C71.9341 35.734 71.5921 36.394 70.9081 36.814C70.2361 37.222 69.4321 37.426 68.4961 37.426C67.8721 37.426 67.3441 37.348 66.9121 37.192C67.2721 37.78 67.8661 38.074 68.6941 38.074C69.0301 38.074 69.3901 38.032 69.7741 37.948C69.9181 37.912 70.0561 37.894 70.1881 37.894C70.4521 37.894 70.6621 37.96 70.8181 38.092C70.9861 38.224 71.0701 38.404 71.0701 38.632C71.0701 39.004 70.8421 39.328 70.3861 39.604C69.9301 39.868 69.1921 40 68.1721 40ZM66.9661 34.996C67.0741 35.164 67.2181 35.29 67.3981 35.374C67.5901 35.446 67.8001 35.482 68.0281 35.482C68.2921 35.482 68.5201 35.422 68.7121 35.302C68.9161 35.182 69.0181 35.026 69.0181 34.834C69.0181 34.618 68.9281 34.432 68.7481 34.276C68.5801 34.12 68.3341 34.042 68.0101 34.042C67.6861 34.042 67.4281 34.144 67.2361 34.348C67.0561 34.54 66.9661 34.756 66.9661 34.996ZM79.5883 40C79.1563 40 78.8323 39.88 78.6163 39.64C78.4123 39.4 78.2863 39.106 78.2383 38.758C78.1903 38.41 78.1663 37.96 78.1663 37.408C78.1663 36.7 78.0703 36.154 77.8783 35.77C77.6863 35.386 77.3743 35.194 76.9423 35.194C76.5463 35.194 76.2463 35.386 76.0423 35.77C75.8503 36.142 75.7543 36.658 75.7543 37.318C75.7543 37.954 75.7363 38.434 75.7003 38.758C75.6643 39.082 75.5443 39.37 75.3403 39.622C75.1363 39.862 74.8003 39.982 74.3323 39.982C73.6483 39.982 73.1683 39.544 72.8923 38.668C72.6163 37.78 72.4783 36.742 72.4783 35.554C72.4783 32.674 73.0843 31.234 74.2963 31.234C74.6323 31.234 74.9083 31.318 75.1243 31.486C75.3403 31.642 75.4903 31.87 75.5743 32.17C75.7303 32.002 75.9703 31.852 76.2943 31.72C76.6303 31.588 76.9843 31.522 77.3563 31.522C78.6763 31.522 79.6603 32.002 80.3083 32.962C80.9683 33.922 81.2983 35.224 81.2983 36.868C81.2983 37.84 81.1723 38.608 80.9203 39.172C80.6683 39.724 80.2243 40 79.5883 40ZM90.2623 32.206C90.2623 32.83 89.9683 33.256 89.3803 33.484C88.7923 33.7 87.9883 33.814 86.9683 33.826C86.9563 34.126 86.9503 34.612 86.9503 35.284C86.9503 35.968 86.9983 36.454 87.0943 36.742C87.1543 36.946 87.2443 37.078 87.3643 37.138C87.4963 37.198 87.6883 37.24 87.9403 37.264C88.0243 37.276 88.1143 37.294 88.2103 37.318C88.3183 37.33 88.4383 37.348 88.5703 37.372C88.8463 37.432 89.0623 37.582 89.2183 37.822C89.3743 38.05 89.4523 38.344 89.4523 38.704C89.4523 39.112 89.2423 39.43 88.8223 39.658C88.4023 39.886 87.8263 40 87.0943 40C86.4223 40 85.7803 39.808 85.1683 39.424C84.5563 39.028 84.1363 38.5 83.9083 37.84C83.6683 37.132 83.5483 35.794 83.5483 33.826C82.7083 33.802 82.0303 33.694 81.5143 33.502C81.0103 33.298 80.7583 32.938 80.7583 32.422C80.7583 31.774 80.9983 31.342 81.4783 31.126C81.9583 30.898 82.6483 30.778 83.5483 30.766C83.5843 29.806 83.7343 29.008 83.9983 28.372C84.2623 27.724 84.7363 27.4 85.4203 27.4C86.1163 27.4 86.5663 27.7 86.7703 28.3C86.9863 28.9 87.0823 29.722 87.0583 30.766C88.1503 30.754 88.9543 30.838 89.4703 31.018C89.9983 31.198 90.2623 31.594 90.2623 32.206ZM105.542 37.12C106.118 37.3 106.406 37.678 106.406 38.254C106.406 38.794 106.13 39.22 105.578 39.532C105.026 39.844 104.072 40 102.716 40C101.024 40 99.5724 39.592 98.3604 38.776C97.1604 37.96 96.5604 36.34 96.5604 33.916C96.5604 32.692 96.7704 31.588 97.1904 30.604C97.6104 29.62 98.2344 28.84 99.0624 28.264C99.9024 27.688 100.928 27.4 102.14 27.4C103.76 27.4 104.9 27.652 105.56 28.156C106.22 28.648 106.55 29.254 106.55 29.974C106.55 30.31 106.466 30.622 106.298 30.91C106.13 31.186 105.878 31.402 105.542 31.558C105.254 31.702 104.882 31.774 104.426 31.774L103.94 31.756C103.844 31.744 103.706 31.738 103.526 31.738C102.902 31.738 102.41 31.852 102.05 32.08C101.69 32.296 101.444 32.632 101.312 33.088C101.816 33.064 102.272 33.052 102.68 33.052C103.892 33.052 104.678 33.088 105.038 33.16C105.446 33.244 105.758 33.406 105.974 33.646C106.202 33.886 106.316 34.168 106.316 34.492C106.316 34.816 106.208 35.098 105.992 35.338C105.776 35.566 105.452 35.722 105.02 35.806C104.684 35.878 103.868 35.914 102.572 35.914C102.044 35.914 101.672 35.908 101.456 35.896C101.828 36.688 102.524 37.084 103.544 37.084C103.604 37.084 103.742 37.072 103.958 37.048C104.246 37.024 104.492 37.012 104.696 37.012C105.044 37.012 105.326 37.048 105.542 37.12ZM114.065 31.54C114.497 31.54 114.845 31.672 115.109 31.936C115.373 32.188 115.505 32.53 115.505 32.962C115.505 33.382 115.379 33.826 115.127 34.294C114.887 34.762 114.533 35.284 114.065 35.86C115.013 37.012 115.487 37.9 115.487 38.524C115.487 38.98 115.343 39.346 115.055 39.622C114.779 39.886 114.395 40.018 113.903 40.018C113.291 40.018 112.481 39.562 111.473 38.65C110.561 39.478 109.811 39.934 109.223 40.018C109.151 40.03 109.055 40.036 108.935 40.036C108.491 40.036 108.131 39.91 107.855 39.658C107.591 39.406 107.459 39.064 107.459 38.632C107.459 38.272 107.579 37.864 107.819 37.408C108.059 36.952 108.401 36.436 108.845 35.86C108.401 35.332 108.059 34.864 107.819 34.456C107.591 34.036 107.477 33.628 107.477 33.232C107.477 32.704 107.609 32.296 107.873 32.008C108.149 31.72 108.533 31.576 109.025 31.576C109.361 31.576 109.727 31.702 110.123 31.954C110.519 32.194 110.957 32.542 111.437 32.998C111.929 32.53 112.385 32.17 112.805 31.918C113.237 31.666 113.657 31.54 114.065 31.54ZM117.89 42.574C117.302 42.574 116.876 42.274 116.612 41.674C116.348 41.086 116.186 40.414 116.126 39.658C116.078 38.902 116.054 37.906 116.054 36.67C116.054 35.722 116.09 34.888 116.162 34.168C116.246 33.448 116.432 32.824 116.72 32.296C117.008 31.768 117.446 31.504 118.034 31.504C118.646 31.504 119.09 31.744 119.366 32.224C119.642 32.02 119.984 31.858 120.392 31.738C120.812 31.606 121.25 31.54 121.706 31.54C122.474 31.54 123.182 31.732 123.83 32.116C124.478 32.5 124.994 33.016 125.378 33.664C125.762 34.312 125.954 35.02 125.954 35.788C125.954 36.556 125.762 37.27 125.378 37.93C124.994 38.578 124.478 39.094 123.83 39.478C123.182 39.862 122.474 40.054 121.706 40.054C121.238 40.054 120.8 39.994 120.392 39.874C119.984 39.742 119.636 39.568 119.348 39.352C119.348 40.12 119.324 40.714 119.276 41.134C119.228 41.554 119.096 41.896 118.88 42.16C118.676 42.436 118.346 42.574 117.89 42.574ZM121.616 37.066C121.928 37.066 122.198 36.952 122.426 36.724C122.666 36.484 122.786 36.208 122.786 35.896C122.786 35.584 122.666 35.314 122.426 35.086C122.198 34.846 121.928 34.726 121.616 34.726C121.304 34.726 121.028 34.846 120.788 35.086C120.56 35.314 120.446 35.584 120.446 35.896C120.446 36.208 120.56 36.484 120.788 36.724C121.028 36.952 121.304 37.066 121.616 37.066ZM128.422 40C127.654 40 127.138 39.55 126.874 38.65C126.622 37.75 126.496 36.508 126.496 34.924C126.496 34.204 126.526 33.604 126.586 33.124C126.658 32.632 126.82 32.218 127.072 31.882C127.336 31.534 127.738 31.36 128.278 31.36C128.614 31.36 128.908 31.438 129.16 31.594C129.424 31.75 129.592 31.972 129.664 32.26C129.928 32.02 130.27 31.84 130.69 31.72C131.11 31.6 131.56 31.54 132.04 31.54C132.424 31.54 132.814 31.636 133.21 31.828C133.618 32.02 133.954 32.284 134.218 32.62C134.494 32.944 134.632 33.298 134.632 33.682C134.632 34.066 134.494 34.408 134.218 34.708C133.954 34.996 133.6 35.14 133.156 35.14C133.012 35.14 132.874 35.122 132.742 35.086C132.622 35.05 132.514 35.014 132.418 34.978C132.178 34.882 131.986 34.834 131.842 34.834C131.374 34.834 130.96 35.02 130.6 35.392C130.252 35.752 130.078 36.22 130.078 36.796C130.078 37.432 130.054 37.96 130.006 38.38C129.958 38.8 129.814 39.178 129.574 39.514C129.334 39.838 128.95 40 128.422 40ZM139.153 40C138.265 40 137.479 39.826 136.795 39.478C136.111 39.13 135.577 38.644 135.193 38.02C134.821 37.384 134.635 36.67 134.635 35.878C134.635 35.098 134.821 34.378 135.193 33.718C135.577 33.058 136.105 32.53 136.777 32.134C137.449 31.738 138.211 31.54 139.063 31.54C139.831 31.54 140.509 31.696 141.097 32.008C141.685 32.32 142.135 32.734 142.447 33.25C142.759 33.754 142.915 34.282 142.915 34.834C142.915 35.734 142.573 36.394 141.889 36.814C141.217 37.222 140.413 37.426 139.477 37.426C138.853 37.426 138.325 37.348 137.893 37.192C138.253 37.78 138.847 38.074 139.675 38.074C140.011 38.074 140.371 38.032 140.755 37.948C140.899 37.912 141.037 37.894 141.169 37.894C141.433 37.894 141.643 37.96 141.799 38.092C141.967 38.224 142.051 38.404 142.051 38.632C142.051 39.004 141.823 39.328 141.367 39.604C140.911 39.868 140.173 40 139.153 40ZM137.947 34.996C138.055 35.164 138.199 35.29 138.379 35.374C138.571 35.446 138.781 35.482 139.009 35.482C139.273 35.482 139.501 35.422 139.693 35.302C139.897 35.182 139.999 35.026 139.999 34.834C139.999 34.618 139.909 34.432 139.729 34.276C139.561 34.12 139.315 34.042 138.991 34.042C138.667 34.042 138.409 34.144 138.217 34.348C138.037 34.54 137.947 34.756 137.947 34.996ZM146.915 40C145.859 40 145.019 39.826 144.395 39.478C143.771 39.13 143.459 38.68 143.459 38.128C143.459 37.768 143.579 37.492 143.819 37.3C144.071 37.096 144.389 36.994 144.773 36.994C144.989 36.994 145.163 37.024 145.295 37.084C145.427 37.144 145.559 37.228 145.691 37.336C145.787 37.42 145.865 37.48 145.925 37.516C145.997 37.552 146.081 37.57 146.177 37.57C146.429 37.57 146.555 37.48 146.555 37.3C146.555 37.132 146.489 37.006 146.357 36.922C146.225 36.826 145.997 36.712 145.673 36.58C145.373 36.46 145.175 36.376 145.079 36.328C144.527 36.064 144.119 35.752 143.855 35.392C143.591 35.032 143.459 34.648 143.459 34.24C143.459 33.784 143.621 33.352 143.945 32.944C144.281 32.524 144.749 32.188 145.349 31.936C145.961 31.672 146.663 31.54 147.455 31.54C148.139 31.54 148.757 31.636 149.309 31.828C149.873 32.02 150.317 32.284 150.641 32.62C150.965 32.944 151.127 33.304 151.127 33.7C151.127 34.072 151.007 34.354 150.767 34.546C150.539 34.738 150.227 34.834 149.831 34.834C149.675 34.834 149.549 34.822 149.453 34.798C149.369 34.762 149.255 34.708 149.111 34.636C149.027 34.588 148.937 34.546 148.841 34.51C148.757 34.474 148.661 34.456 148.553 34.456C148.457 34.456 148.373 34.492 148.301 34.564C148.229 34.624 148.193 34.702 148.193 34.798C148.193 34.978 148.325 35.11 148.589 35.194C149.285 35.422 149.843 35.71 150.263 36.058C150.695 36.406 150.911 36.886 150.911 37.498C150.911 38.278 150.545 38.89 149.813 39.334C149.093 39.778 148.127 40 146.915 40ZM155.124 40C154.068 40 153.228 39.826 152.604 39.478C151.98 39.13 151.668 38.68 151.668 38.128C151.668 37.768 151.788 37.492 152.028 37.3C152.28 37.096 152.598 36.994 152.982 36.994C153.198 36.994 153.372 37.024 153.504 37.084C153.636 37.144 153.768 37.228 153.9 37.336C153.996 37.42 154.074 37.48 154.134 37.516C154.206 37.552 154.29 37.57 154.386 37.57C154.638 37.57 154.764 37.48 154.764 37.3C154.764 37.132 154.698 37.006 154.566 36.922C154.434 36.826 154.206 36.712 153.882 36.58C153.582 36.46 153.384 36.376 153.288 36.328C152.736 36.064 152.328 35.752 152.064 35.392C151.8 35.032 151.668 34.648 151.668 34.24C151.668 33.784 151.83 33.352 152.154 32.944C152.49 32.524 152.958 32.188 153.558 31.936C154.17 31.672 154.872 31.54 155.664 31.54C156.348 31.54 156.966 31.636 157.518 31.828C158.082 32.02 158.526 32.284 158.85 32.62C159.174 32.944 159.336 33.304 159.336 33.7C159.336 34.072 159.216 34.354 158.976 34.546C158.748 34.738 158.436 34.834 158.04 34.834C157.884 34.834 157.758 34.822 157.662 34.798C157.578 34.762 157.464 34.708 157.32 34.636C157.236 34.588 157.146 34.546 157.05 34.51C156.966 34.474 156.87 34.456 156.762 34.456C156.666 34.456 156.582 34.492 156.51 34.564C156.438 34.624 156.402 34.702 156.402 34.798C156.402 34.978 156.534 35.11 156.798 35.194C157.494 35.422 158.052 35.71 158.472 36.058C158.904 36.406 159.12 36.886 159.12 37.498C159.12 38.278 158.754 38.89 158.022 39.334C157.302 39.778 156.336 40 155.124 40ZM164.566 33.142C164.218 33.49 163.81 33.664 163.342 33.664C162.874 33.664 162.46 33.49 162.1 33.142C161.752 32.782 161.578 32.368 161.578 31.9C161.578 31.432 161.752 31.024 162.1 30.676C162.46 30.316 162.874 30.136 163.342 30.136C163.81 30.136 164.218 30.316 164.566 30.676C164.926 31.024 165.106 31.432 165.106 31.9C165.106 32.368 164.926 32.782 164.566 33.142ZM164.566 38.938C164.218 39.286 163.81 39.46 163.342 39.46C162.874 39.46 162.46 39.286 162.1 38.938C161.752 38.578 161.578 38.164 161.578 37.696C161.578 37.228 161.752 36.82 162.1 36.472C162.46 36.112 162.874 35.932 163.342 35.932C163.81 35.932 164.218 36.112 164.566 36.472C164.926 36.82 165.106 37.228 165.106 37.696C165.106 38.164 164.926 38.578 164.566 38.938Z" fill="black"/>
<path d="M68 19.1664C80.7756 13.5771 121.777 5.27291 183.58 16.771M196.754 19.1664L208.732 21.5596" stroke="white" stroke-width="5" stroke-linecap="round"/>
</svg>
