<svg width="446" height="188" viewBox="0 0 446 188" fill="none" xmlns="http://www.w3.org/2000/svg">
<path d="M89.6547 62.8164L79.4043 66.7843L89.6547 71.4135L98.9132 66.7843L89.6547 62.8164Z" fill="#BC9549" stroke="black" stroke-linejoin="round"/>
<path d="M98.3631 79.183L89.6543 82.4896V71.4163L98.9127 66.7871L98.3631 79.183Z" fill="#76500D" stroke="black" stroke-linejoin="round"/>
<path d="M79.9544 79.5921L89.6547 82.0813V71.4163L79.4043 66.7871L79.9544 79.5921Z" fill="#7A4A12" stroke="black" stroke-linejoin="round"/>
<path d="M367.84 62L357.59 65.9679L367.84 70.5971L377.099 65.9679L367.84 62Z" fill="#BC9549" stroke="black" stroke-linejoin="round"/>
<path d="M376.549 78.3666L367.84 81.6732V70.5999L377.098 65.9707L376.549 78.3666Z" fill="#76500D" stroke="black" stroke-linejoin="round"/>
<path d="M358.14 78.7757L367.84 81.2649V70.5999L357.59 65.9707L358.14 78.7757Z" fill="#7A4A12" stroke="black" stroke-linejoin="round"/>
<path d="M91.4107 79.7379H89.3652L95.9107 111.142L98.3653 111.293L104.502 111.142H126.184L117.593 78.6621L104.502 79.7379H101.638L97.9562 78.6621H91.4107V79.7379Z" fill="#BC9549"/>
<path d="M97.9562 78.6621H91.4107V79.7379H89.3652L95.9107 111.142L98.3653 111.293L104.502 111.142M97.9562 78.6621L101.638 79.7379H104.502L117.593 78.6621L126.184 111.142H104.502M97.9562 78.6621C99.1835 80.5746 99.5926 81.1304 99.5926 83.7122C99.5926 86.294 104.365 101.492 105.32 103.524M104.502 111.142C104.502 111.142 101.965 104.062 101.638 101.193M114.729 81.3814C116.093 87.7787 120.456 105.275 120.456 107.708" stroke="black"/>
<path d="M8.3637 77.108H17.3638L17.7729 76.7195H22.2729L22.682 76.3311H29.6366H30.8639L33.3185 77.4965L35.364 108.574H30.4548H25.5457L24.3184 107.02V108.574H11.6365L12.8637 104.301L9.18189 109.351H1C3.04547 103.135 7.13642 89.9274 7.13642 86.8197C7.13642 83.7119 7.95461 79.0503 8.3637 77.108Z" fill="#BC9549"/>
<path d="M30.4548 108.574H35.364L33.3185 77.4965L30.8639 76.3311H29.6366M30.4548 108.574H25.5457L24.3184 107.02V108.574H11.6365L12.8637 104.301L9.18189 109.351H1C3.04547 103.135 7.13642 89.9274 7.13642 86.8197C7.13642 83.7119 7.95461 79.0503 8.3637 77.108H17.3638L17.7729 76.7195H22.2729L22.682 76.3311H29.6366M30.4548 108.574C29.773 102.876 28.4912 90.0828 28.8184 84.4889C29.1457 78.8949 29.5003 76.7195 29.6366 76.3311" stroke="black"/>
<path d="M17.3638 114.013H2.63638L1 109.351H6.72733H9.18189L12.8637 104.301L11.6365 108.574H14.5001H24.3184V107.02L25.5457 108.574H35.364L35.7731 113.236H23.0911L22.2729 113.624H17.7729L17.3638 114.013Z" fill="#76500D"/>
<path d="M14.5001 108.574H24.3184V107.02L25.5457 108.574H35.364L35.7731 113.236H23.0911L22.2729 113.624H17.7729L17.3638 114.013H2.63638L1 109.351H6.72733M14.5001 108.574H11.6365L12.8637 104.301L9.18189 109.351H6.72733M14.5001 108.574C15.4547 103.912 17.6092 93.5015 18.5911 89.1507M6.72733 109.351L17.7729 80.9929V76.7197" stroke="black"/>
<path d="M35.7734 115.179V108.964L66.8646 110.906V115.179H64.001H47.2281L45.1826 115.956L35.7734 115.179Z" fill="#76500D" stroke="black"/>
<path d="M66.8633 114.788V108.572L96.7272 110.903V115.565H89.7726L79.5452 116.342L76.2725 115.565L66.8633 114.788Z" fill="#76500D" stroke="black"/>
<path d="M96.7285 115.643V111.292H126.183V115.643H119.324H108.833L107.623 116.731L96.7285 115.643Z" fill="#76500D" stroke="black"/>
<path d="M35.772 78.6605H33.7266L35.772 108.961L37.8175 111.68L43.9539 111.516L66.8632 110.903L59.9086 78.6605H57.4541H48.8631H45.9994L42.3176 77.4951H35.772V78.6605Z" fill="#BC9549"/>
<path d="M42.3176 77.4951H35.772V78.6605H33.7266L35.772 108.961L37.8175 111.68L43.9539 111.516M42.3176 77.4951L45.9994 78.6605H48.8631H57.4541H59.9086L66.8632 110.903L43.9539 111.516M42.3176 77.4951C43.5448 79.5669 45.9994 84.4098 45.9994 87.2068C45.9994 90.0038 47.9085 95.1057 48.8631 97.307M43.9539 111.516C42.863 103.543 40.5994 86.8184 40.2721 83.7106M55.8177 83.7106C57.1813 90.641 59.9086 105.161 59.9086 107.796" stroke="black"/>
<path d="M61.9556 77.1078H59.9102L66.8648 108.574L68.9102 111.293L75.0467 111.129H96.7287L88.1377 75.9424L75.0467 77.1078H72.183L68.5011 75.9424H61.9556V77.1078Z" fill="#BC9549"/>
<path d="M68.5011 75.9424H61.9556V77.1078H59.9102L66.8648 108.574L68.9102 111.293L75.0467 111.129M68.5011 75.9424L72.183 77.1078H75.0467L88.1377 75.9424L96.7287 111.129H75.0467M68.5011 75.9424C69.7284 78.0142 72.183 82.8571 72.183 85.6541C72.183 88.4511 79.0012 94.7183 79.9558 96.9197M75.0467 111.129C73.9557 103.155 66.7829 85.2656 66.4557 82.1579M82.0013 82.1579C83.3649 89.0883 91.0014 104.773 91.0014 107.408" stroke="black"/>
<path d="M198.594 79.7379H196.549L203.094 111.142L205.549 111.293L211.685 111.142H233.367L224.776 78.6621L211.685 79.7379H208.822L205.14 78.6621H198.594V79.7379Z" fill="#BC9549"/>
<path d="M205.14 78.6621H198.594V79.7379H196.549L203.094 111.142L205.549 111.293L211.685 111.142M205.14 78.6621L208.822 79.7379H211.685L224.776 78.6621L233.367 111.142H211.685M205.14 78.6621C206.367 80.5746 206.776 81.1304 206.776 83.7122C206.776 86.294 211.549 101.492 212.504 103.524M211.685 111.142C211.685 111.142 209.149 104.062 208.822 101.193M221.913 81.3814C223.276 87.7787 227.64 105.275 227.64 107.708" stroke="black"/>
<path d="M115.547 77.108H124.547L124.956 76.7195H129.457L129.866 76.3311H136.82H138.048L140.502 77.4965L142.548 108.574H137.638H132.729L131.502 107.02V108.574H118.82L120.047 104.301L116.365 109.351H108.184C110.229 103.135 114.32 89.9274 114.32 86.8197C114.32 83.7119 115.138 79.0503 115.547 77.108Z" fill="#BC9549"/>
<path d="M137.638 108.574H142.548L140.502 77.4965L138.048 76.3311H136.82M137.638 108.574H132.729L131.502 107.02V108.574H118.82L120.047 104.301L116.365 109.351H108.184C110.229 103.135 114.32 89.9274 114.32 86.8197C114.32 83.7119 115.138 79.0503 115.547 77.108H124.547L124.956 76.7195H129.457L129.866 76.3311H136.82M137.638 108.574C136.957 102.876 135.675 90.0828 136.002 84.4889C136.329 78.8949 136.684 76.7195 136.82 76.3311" stroke="black"/>
<path d="M124.547 114.013H109.82L108.184 109.351H113.911H116.365L120.047 104.301L118.82 108.574H121.684H131.502V107.02L132.729 108.574H142.548L142.957 113.236H130.275L129.457 113.624H124.956L124.547 114.013Z" fill="#76500D"/>
<path d="M121.684 108.574H131.502V107.02L132.729 108.574H142.548L142.957 113.236H130.275L129.457 113.624H124.956L124.547 114.013H109.82L108.184 109.351H113.911M121.684 108.574H118.82L120.047 104.301L116.365 109.351H113.911M121.684 108.574C122.638 103.912 124.793 93.5015 125.775 89.1507M113.911 109.351L124.956 80.9929V76.7197" stroke="black"/>
<path d="M142.957 115.179V108.964L174.048 110.906V115.179H171.185H154.412L152.366 115.956L142.957 115.179Z" fill="#76500D" stroke="black"/>
<path d="M174.047 114.788V108.572L203.911 110.903V115.565H196.956L186.729 116.342L183.456 115.565L174.047 114.788Z" fill="#76500D" stroke="black"/>
<path d="M203.912 115.643V111.292H233.367V115.643H226.508H216.017L214.806 116.731L203.912 115.643Z" fill="#76500D" stroke="black"/>
<path d="M142.956 78.6605H140.91L142.956 108.961L145.001 111.68L151.138 111.516L174.047 110.903L167.092 78.6605H164.638H156.047H153.183L149.501 77.4951H142.956V78.6605Z" fill="#BC9549"/>
<path d="M149.501 77.4951H142.956V78.6605H140.91L142.956 108.961L145.001 111.68L151.138 111.516M149.501 77.4951L153.183 78.6605H156.047H164.638H167.092L174.047 110.903L151.138 111.516M149.501 77.4951C150.728 79.5669 153.183 84.4098 153.183 87.2068C153.183 90.0038 155.092 95.1057 156.047 97.307M151.138 111.516C150.047 103.543 147.783 86.8184 147.456 83.7106M163.001 83.7106C164.365 90.641 167.092 105.161 167.092 107.796" stroke="black"/>
<path d="M169.139 77.1078H167.094L174.048 108.574L176.094 111.293L182.23 111.129H203.912L195.321 75.9424L182.23 77.1078H179.367L175.685 75.9424H169.139V77.1078Z" fill="#BC9549"/>
<path d="M175.685 75.9424H169.139V77.1078H167.094L174.048 108.574L176.094 111.293L182.23 111.129M175.685 75.9424L179.367 77.1078H182.23L195.321 75.9424L203.912 111.129H182.23M175.685 75.9424C176.912 78.0142 179.367 82.8571 179.367 85.6541C179.367 88.4511 186.185 94.7183 187.139 96.9197M182.23 111.129C181.139 103.155 173.967 85.2656 173.639 82.1579M189.185 82.1579C190.549 89.0883 198.185 104.773 198.185 107.408" stroke="black"/>
<path d="M304.139 79.7379H302.094L308.639 111.142L311.094 111.293L317.23 111.142H338.912L330.321 78.6621L317.23 79.7379H314.367L310.685 78.6621H304.139V79.7379Z" fill="#BC9549"/>
<path d="M310.685 78.6621H304.139V79.7379H302.094L308.639 111.142L311.094 111.293L317.23 111.142M310.685 78.6621L314.367 79.7379H317.23L330.321 78.6621L338.912 111.142H317.23M310.685 78.6621C311.912 80.5746 312.321 81.1304 312.321 83.7122C312.321 86.294 317.094 101.492 318.048 103.524M317.23 111.142C317.23 111.142 314.694 104.062 314.367 101.193M327.458 81.3814C328.821 87.7787 333.185 105.275 333.185 107.708" stroke="black"/>
<path d="M221.092 77.108H230.092L230.501 76.7195H235.001L235.411 76.3311H242.365H243.592L246.047 77.4965L248.092 108.574H243.183H238.274L237.047 107.02V108.574H224.365L225.592 104.301L221.91 109.351H213.729C215.774 103.135 219.865 89.9274 219.865 86.8197C219.865 83.7119 220.683 79.0503 221.092 77.108Z" fill="#BC9549"/>
<path d="M243.183 108.574H248.092L246.047 77.4965L243.592 76.3311H242.365M243.183 108.574H238.274L237.047 107.02V108.574H224.365L225.592 104.301L221.91 109.351H213.729C215.774 103.135 219.865 89.9274 219.865 86.8197C219.865 83.7119 220.683 79.0503 221.092 77.108H230.092L230.501 76.7195H235.001L235.411 76.3311H242.365M243.183 108.574C242.502 102.876 241.22 90.0828 241.547 84.4889C241.874 78.8949 242.229 76.7195 242.365 76.3311" stroke="black"/>
<path d="M230.092 114.013H215.365L213.729 109.351H219.456H221.91L225.592 104.301L224.365 108.574H227.229H237.047V107.02L238.274 108.574H248.092L248.502 113.236H235.82L235.001 113.624H230.501L230.092 114.013Z" fill="#76500D"/>
<path d="M227.229 108.574H237.047V107.02L238.274 108.574H248.092L248.502 113.236H235.82L235.001 113.624H230.501L230.092 114.013H215.365L213.729 109.351H219.456M227.229 108.574H224.365L225.592 104.301L221.91 109.351H219.456M227.229 108.574C228.183 103.912 230.338 93.5015 231.32 89.1507M219.456 109.351L230.501 80.9929V76.7197" stroke="black"/>
<path d="M248.502 115.179V108.964L279.593 110.906V115.179H276.729H259.957L257.911 115.956L248.502 115.179Z" fill="#76500D" stroke="black"/>
<path d="M279.594 114.788V108.572L309.458 110.903V115.565H302.503L292.276 116.342L289.003 115.565L279.594 114.788Z" fill="#76500D" stroke="black"/>
<path d="M309.457 115.643V111.292H338.912V115.643H332.053H321.562L320.351 116.731L309.457 115.643Z" fill="#76500D" stroke="black"/>
<path d="M248.503 78.6605H246.457L248.503 108.961L250.548 111.68L256.684 111.516L279.594 110.903L272.639 78.6605H270.185H261.594H258.73L255.048 77.4951H248.503V78.6605Z" fill="#BC9549"/>
<path d="M255.048 77.4951H248.503V78.6605H246.457L248.503 108.961L250.548 111.68L256.684 111.516M255.048 77.4951L258.73 78.6605H261.594H270.185H272.639L279.594 110.903L256.684 111.516M255.048 77.4951C256.275 79.5669 258.73 84.4098 258.73 87.2068C258.73 90.0038 260.639 95.1057 261.594 97.307M256.684 111.516C255.593 103.543 253.33 86.8184 253.003 83.7106M268.548 83.7106C269.912 90.641 272.639 105.161 272.639 107.796" stroke="black"/>
<path d="M274.684 77.1078H272.639L279.593 108.574L281.639 111.293L287.775 111.129H309.457L300.866 75.9424L287.775 77.1078H284.912L281.23 75.9424H274.684V77.1078Z" fill="#BC9549"/>
<path d="M281.23 75.9424H274.684V77.1078H272.639L279.593 108.574L281.639 111.293L287.775 111.129M281.23 75.9424L284.912 77.1078H287.775L300.866 75.9424L309.457 111.129H287.775M281.23 75.9424C282.457 78.0142 284.912 82.8571 284.912 85.6541C284.912 88.4511 291.73 94.7183 292.684 96.9197M287.775 111.129C286.684 103.155 279.511 85.2656 279.184 82.1579M294.73 82.1579C296.093 89.0883 303.73 104.773 303.73 107.408" stroke="black"/>
<path d="M410.504 77.7955H408.459L415.004 109.2L417.459 109.351L423.595 109.2H445.278L436.687 76.7197L423.595 77.7955H420.732L417.05 76.7197H410.504V77.7955Z" fill="#BC9549"/>
<path d="M417.05 76.7197H410.504V77.7955H408.459L415.004 109.2L417.459 109.351L423.595 109.2M417.05 76.7197L420.732 77.7955H423.595L436.687 76.7197L445.278 109.2H423.595M417.05 76.7197C418.277 78.6322 418.686 79.188 418.686 81.7698C418.686 84.3516 423.459 99.5497 424.414 101.582M423.595 109.2C423.595 109.2 421.059 102.12 420.732 99.2509M433.823 79.439C435.187 85.8363 439.55 103.333 439.55 105.765" stroke="black"/>
<path d="M327.457 75.1656H336.458L336.867 74.7771H341.367L341.776 74.3887H348.73H349.958L352.412 75.5541L354.458 106.632H349.549H344.639L343.412 105.078V106.632H330.73L331.957 102.358L328.276 107.408H320.094C322.139 101.193 326.23 87.9851 326.23 84.8773C326.23 81.7696 327.048 77.1079 327.457 75.1656Z" fill="#BC9549"/>
<path d="M349.549 106.632H354.458L352.412 75.5541L349.958 74.3887H348.73M349.549 106.632H344.639L343.412 105.078V106.632H330.73L331.957 102.358L328.276 107.408H320.094C322.139 101.193 326.23 87.9851 326.23 84.8773C326.23 81.7696 327.048 77.1079 327.457 75.1656H336.458L336.867 74.7771H341.367L341.776 74.3887H348.73M349.549 106.632C348.867 100.934 347.585 88.1404 347.912 82.5465C348.239 76.9526 348.594 74.7771 348.73 74.3887" stroke="black"/>
<path d="M336.458 112.07H321.73L320.094 107.409H325.821H328.276L331.957 102.359L330.73 106.632H333.594H343.412V105.078L344.639 106.632H354.458L354.867 111.293H342.185L341.367 111.682H336.867L336.458 112.07Z" fill="#76500D"/>
<path d="M333.594 106.632H343.412V105.078L344.639 106.632H354.458L354.867 111.293H342.185L341.367 111.682H336.867L336.458 112.07H321.73L320.094 107.409H325.821M333.594 106.632H330.73L331.957 102.359L328.276 107.409H325.821M333.594 106.632C334.548 101.97 336.703 91.5592 337.685 87.2083M325.821 107.409L336.867 79.0505V74.7773" stroke="black"/>
<path d="M354.867 113.237V107.021L385.958 108.964V113.237H383.095H366.322L364.276 114.014L354.867 113.237Z" fill="#76500D" stroke="black"/>
<path d="M385.957 112.845V106.63L415.821 108.961V113.622H408.866L398.639 114.399L395.366 113.622L385.957 112.845Z" fill="#76500D" stroke="black"/>
<path d="M415.822 113.7V109.35H445.277V113.7H438.418H427.927L426.717 114.788L415.822 113.7Z" fill="#76500D" stroke="black"/>
<path d="M354.866 76.7181H352.82L354.866 107.019L356.911 109.738L363.048 109.574L385.957 108.961L379.002 76.7181H376.548H367.957H365.093L361.411 75.5527H354.866V76.7181Z" fill="#BC9549"/>
<path d="M361.411 75.5527H354.866V76.7181H352.82L354.866 107.019L356.911 109.738L363.048 109.574M361.411 75.5527L365.093 76.7181H367.957H376.548H379.002L385.957 108.961L363.048 109.574M361.411 75.5527C362.639 77.6246 365.093 82.4675 365.093 85.2644C365.093 88.0614 367.002 93.1633 367.957 95.3646M363.048 109.574C361.957 101.6 359.693 84.876 359.366 81.7682M374.911 81.7682C376.275 88.6986 379.002 103.218 379.002 105.853" stroke="black"/>
<path d="M381.049 75.1654H379.004L385.959 106.631L388.004 109.351L394.14 109.186H415.822L407.231 74L394.14 75.1654H391.277L387.595 74H381.049V75.1654Z" fill="#BC9549"/>
<path d="M387.595 74H381.049V75.1654H379.004L385.959 106.631L388.004 109.351L394.14 109.186M387.595 74L391.277 75.1654H394.14L407.231 74L415.822 109.186H394.14M387.595 74C388.822 76.0718 391.277 80.9147 391.277 83.7117C391.277 86.5087 398.095 92.776 399.05 94.9773M394.14 109.186C393.049 101.213 385.877 83.3232 385.549 80.2155M401.095 80.2155C402.459 87.1459 410.095 102.831 410.095 105.466" stroke="black"/>
<path d="M375.619 92.1797L364.275 96.5708L375.619 101.694L385.865 96.5708L375.619 92.1797Z" fill="#BC9549" stroke="black" stroke-linejoin="round"/>
<path d="M381.84 175.657L375.619 179.316V101.693L385.865 96.5703L381.84 175.657Z" fill="#76500D" stroke="black" stroke-linejoin="round"/>
<path d="M367.848 177.38L375.619 179.316V101.693L364.275 96.5703L367.848 177.38Z" fill="#7A4A12" stroke="black" stroke-linejoin="round"/>
<path d="M399.129 112.636L375.73 131.025V140.045L409.276 112.636H399.129Z" fill="#76500D" stroke="black"/>
<path d="M340.989 110.998L365.912 130.675V138.816L329.912 110.998H340.989Z" fill="#76500D" stroke="black" stroke-linejoin="round"/>
<path d="M340.548 110.998L365.912 130.635V127.926L344.071 110.998H340.548Z" fill="#87662A" stroke="black" stroke-linejoin="round"/>
<path d="M81.8912 92.9951L73.002 96.939L81.8912 100.639L92.1372 96.5228L81.8912 92.9951Z" fill="#BC9549" stroke="black" stroke-linejoin="round"/>
<path d="M88.1114 160.059L81.8906 162.998V100.638L92.1366 96.5225L88.1114 160.059Z" fill="#76500D" stroke="black" stroke-linejoin="round"/>
<path d="M74.1203 161.444L81.8912 162.999V100.639L73.002 96.9395L74.1203 161.444Z" fill="#7A4A12" stroke="black" stroke-linejoin="round"/>
<path d="M58.2737 114.271L73.4102 128.999V138.817L48.0463 114.271H58.2737Z" fill="#76500D" stroke="black"/>
<path d="M58.6827 114.681L73.4102 128.999V125.726L62.7737 114.681H58.6827Z" fill="#87662A" stroke="black"/>
<path opacity="0.3" d="M362.586 169.808C353.405 170.909 346.957 173.502 346.957 176.525C346.957 180.547 358.374 183.808 372.457 183.808C386.54 183.808 397.957 180.547 397.957 176.525C397.957 173.829 392.829 171.475 385.207 170.216" stroke="white"/>
<path opacity="0.3" d="M405 176.819C405 173.051 398.464 169.76 388.75 168M372.5 187C354.551 187 340 182.442 340 176.819" stroke="white"/>
<ellipse cx="316" cy="89.5" rx="50" ry="9.5" fill="black" fill-opacity="0.36"/>
<g filter="url(#filter0_i_32299_10098)">
<path d="M364.069 49.5536C376.65 91.9033 349.954 89.5472 317.912 89.5472C281.461 89.5472 263.399 91.4935 265.111 64.6725C267.22 31.6269 289.188 18.7696 303.383 14.278C305.271 13.8059 307.219 13.4473 309.209 13.2116C306.353 10.9396 300.984 6.12166 302.355 5.02501C304.068 3.6542 308.523 6.73853 310.922 5.02501C313.321 3.3115 316.063 -0.458246 320.518 1.59797C324.973 3.65419 323.602 6.05313 328.057 5.02501C332.513 3.99689 335.94 3.99689 330.799 9.82285C326.966 14.1666 325.217 14.0202 324.997 13.9802C340.183 17.3204 357.631 27.8833 364.069 49.5536Z" fill="#CF8D47"/>
<path d="M309.209 13.2116C307.219 13.4473 305.271 13.8059 303.383 14.278C289.188 18.7696 267.22 31.6269 265.111 64.6725C263.399 91.4935 281.461 89.5472 317.912 89.5472C349.954 89.5472 376.65 91.9033 364.069 49.5536C357.627 27.8719 340.164 17.3093 324.973 13.975M309.209 13.2116C306.353 10.9396 300.984 6.12166 302.355 5.02501C304.068 3.6542 308.523 6.73853 310.922 5.02501C313.321 3.3115 316.063 -0.458246 320.518 1.59797C324.973 3.65419 323.602 6.05313 328.057 5.02501C332.513 3.99689 335.94 3.99689 330.799 9.82285C326.687 14.4836 324.973 13.975 324.973 13.975M309.209 13.2116C310.785 13.0247 312.388 12.915 314.007 12.8872M324.973 13.975C323.465 13.644 321.953 13.3907 320.443 13.2116M320.443 13.2116L323.945 6.39582M320.443 13.2116C318.284 12.9553 316.131 12.8507 314.007 12.8872M314.007 12.8872C312.978 11.6373 310.922 8.86328 310.922 7.76663" stroke="black" stroke-linecap="round" stroke-linejoin="round"/>
<path d="M312.978 9.47903C307.169 10.2053 307.486 12.3186 307.837 13.2488C307.837 13.2488 311.95 12.9061 316.748 12.9061C322.194 12.9061 327.029 14.2769 327.029 14.2769C327.714 11.1925 321.203 8.45093 312.978 9.47903Z" fill="#D73F3F" stroke="black"/>
</g>
<path d="M23.2113 149.594C24.3313 147.97 26.1779 147 28.1506 147H243.587C245.385 147 246.554 148.892 245.75 150.5C244.946 152.108 246.115 154 247.913 154H410.349C412.322 154 414.169 154.97 415.289 156.594L427.013 173.594C429.758 177.574 426.909 183 422.074 183H208.776C206.958 183 206.013 180.833 207.25 179.5C208.487 178.167 207.542 176 205.724 176H16.4264C11.5914 176 8.74214 170.574 11.4872 166.594L23.2113 149.594Z" fill="black" fill-opacity="0.2"/>
<defs>
<filter id="filter0_i_32299_10098" x="264.5" y="0.5" width="103.248" height="89.5781" filterUnits="userSpaceOnUse" color-interpolation-filters="sRGB">
<feFlood flood-opacity="0" result="BackgroundImageFix"/>
<feBlend mode="normal" in="SourceGraphic" in2="BackgroundImageFix" result="shape"/>
<feColorMatrix in="SourceAlpha" type="matrix" values="0 0 0 0 0 0 0 0 0 0 0 0 0 0 0 0 0 0 127 0" result="hardAlpha"/>
<feOffset dx="8" dy="-10"/>
<feComposite in2="hardAlpha" operator="arithmetic" k2="-1" k3="1"/>
<feColorMatrix type="matrix" values="0 0 0 0 0 0 0 0 0 0 0 0 0 0 0 0 0 0 0.25 0"/>
<feBlend mode="normal" in2="shape" result="effect1_innerShadow_32299_10098"/>
</filter>
</defs>
</svg>
