<svg xmlns="http://www.w3.org/2000/svg" width="20" height="20" viewBox="0 0 20 20" fill="none">
  <path fill-rule="evenodd" clip-rule="evenodd" d="M10.0001 0C4.4772 0 0 4.47715 0 10.0001C0 15.5229 4.4772 20 10.0001 20C15.5229 20 20 15.5229 20 10.0001C20 4.47715 15.5229 0 10.0001 0ZM15.1481 4.8507V7.65949H14.2119V5.78691H10.4668V6.72326H13.2757V7.65949H10.4668V8.59571H14.2119V13.277H10.4668V14.2132H15.1481V15.1494H4.84929V14.2132H9.53058V13.277H5.78552V8.59571H9.53058V7.65949H6.72174V6.72326H9.53058V5.78691H5.78552V7.65949H4.84929V4.85043L15.1481 4.8507ZM13.2936 9.53125H10.4811V10.4675H13.2936V9.53125ZM10.4811 11.4052H13.2936V12.3416H10.4811V11.4052ZM9.54343 9.53125H6.73109V10.4675H9.54343V9.53125ZM6.73109 11.4052H9.54343V12.3416H6.73109V11.4052Z" fill="#F1C730"/>
</svg>