<svg width="451" height="651" viewBox="0 0 451 651" fill="none" xmlns="http://www.w3.org/2000/svg">
<path d="M39.8656 539.686C40.3839 542.094 34.2808 545.45 26.234 547.182C18.1872 548.914 11.2438 548.366 10.7255 545.958C10.2073 543.55 16.3103 540.194 24.3572 538.462C32.404 536.73 39.3473 537.278 39.8656 539.686Z" fill="#E4B860" stroke="black"/>
<path d="M39.8647 539.685C39.8747 539.732 39.8823 539.779 39.8874 539.826L54.5 630.499C50.5 637.499 32 636.499 29.9991 633.499L10.7274 545.97C11.2671 548.367 18.2003 548.91 26.2331 547.181C34.1245 545.483 40.1465 542.222 39.8874 539.826L39.8647 539.685Z" fill="#AD8A44"/>
<path d="M23.5 565.999L32 607.999M39.8647 586.999L46.5 625.499M39.8647 539.685C40.383 542.093 34.2799 545.449 26.2331 547.181C18.1863 548.913 11.2429 548.365 10.7246 545.957L29.9991 633.499C32 636.499 50.5 637.499 54.5 630.499L39.8647 539.685Z" stroke="black"/>
<path d="M245.112 179.965L46.5 583.5C48.5413 590.72 21 599.229 21 592.009M245.112 179.965L272.523 99M245.112 179.965L388 99" stroke="black" stroke-linecap="square" stroke-linejoin="round"/>
<path d="M5.68047 631.984C2.88143 631.527 4.47414 638.419 6.55272 641.964C6.72314 642.255 7.0389 642.422 7.37588 642.422L35.707 642.422C35.856 642.422 36.0028 642.386 36.1414 642.331C37.8172 641.668 39.2789 642.545 39.4237 634.481C39.5622 626.766 36.6056 627.263 34.7461 628.725C34.4486 628.959 34.321 629.203 34.2073 628.842C33.5964 626.902 30.8084 619.179 26.8625 619.273C22.041 619.389 21.3594 626.275 21.4845 627.043C21.6095 627.811 17.434 616.307 11.9427 618.719C6.45134 621.132 9.26964 631.442 11.3652 636.295C10.689 635.057 8.60546 632.461 5.68047 631.984Z" fill="#71A20F" stroke="black" stroke-linejoin="round"/>
<path d="M274.929 115.523C326.84 113.37 366.368 107.834 392.935 99.4378C406.216 95.2404 416.293 90.3173 423.058 84.7169C429.832 79.1093 433.317 72.7936 433.317 65.8413C433.317 58.9015 429.798 51.8274 422.988 45.0376C416.177 38.2468 406.04 31.7041 392.708 25.8107C366.041 14.023 326.502 4.79453 274.941 1.41173C223.366 -1.97202 183.807 4.36068 157.119 15.4788C130.467 26.5817 116.5 42.5361 116.5 58.4673C116.5 74.4033 130.289 89.7425 156.845 100.537C183.436 111.346 222.991 117.678 274.929 115.523Z" fill="#FDD54C" stroke="black"/>
<path d="M274.909 115.03C378.698 110.788 432.817 93.228 432.817 66.5847C332.586 123.747 180.509 85.5599 117 59.3213C117 90.0883 171.119 119.271 274.909 115.03Z" fill="black" fill-opacity="0.27"/>
<path d="M396.463 11.6982L377.585 22.9072C376.834 23.3531 376.978 24.4826 377.815 24.734C392.872 29.2599 403.223 33.3955 407.419 35.8612C408.001 36.203 408.783 35.9507 409.001 35.3123L416.675 12.8817C416.897 12.2328 416.414 11.5581 415.729 11.5581H396.973C396.794 11.5581 396.617 11.6065 396.463 11.6982Z" fill="#FFF5A9" stroke="black"/>
<path d="M396.463 111.583L377.585 100.374C376.834 99.9282 376.978 98.7986 377.815 98.5472C392.872 94.0213 403.223 89.8857 407.419 87.4201C408.001 87.0782 408.783 87.3305 409.001 87.9689L416.675 110.4C416.897 111.048 416.414 111.723 415.729 111.723H396.973C396.794 111.723 396.617 111.675 396.463 111.583Z" fill="#FFF5A9" stroke="black"/>
<path d="M415.674 56.0685L404.225 59.75C403.139 60.0991 403.39 61.702 404.531 61.702H439.139C439.298 61.702 439.455 61.664 439.596 61.5912L446.752 57.9097C447.684 57.4298 447.343 56.0205 446.294 56.0205H415.98C415.876 56.0205 415.772 56.0367 415.674 56.0685Z" fill="#FFF5A9" stroke="black"/>
<path d="M263.682 119.571C265.22 120.449 268.295 123.129 268.295 126.82C268.295 128.133 268.081 129.767 267.669 131.433C266.634 135.617 264.345 139.999 261.046 139.999H210.963C205.032 139.999 198.179 135.123 199.76 131.433C202.524 124.983 208.507 120.621 220.189 119.737L217.553 112.981C217.553 112.542 218.344 111.795 221.507 112.322C225.461 112.981 249.843 114.297 261.705 113.639L261.046 119.571H263.682Z" fill="#FDD54C"/>
<path d="M199.76 131.433C198.179 135.123 205.032 139.999 210.963 139.999C226.12 139.999 257.356 139.999 261.046 139.999C264.345 139.999 266.634 135.617 267.669 131.433M199.76 131.433C202.524 124.983 208.507 120.621 220.189 119.737M199.76 131.433H267.669M220.189 119.737C221.637 119.627 223.173 119.571 224.802 119.571C237.926 119.571 253.063 119.571 261.046 119.571M220.189 119.737L217.553 112.981C217.553 112.542 218.344 111.795 221.507 112.322C225.461 112.981 249.843 114.297 261.705 113.639L261.046 119.571M261.046 119.571C262.042 119.571 262.927 119.571 263.682 119.571C265.22 120.449 268.295 123.129 268.295 126.82C268.295 128.133 268.081 129.767 267.669 131.433" stroke="black"/>
<path d="M210.963 140H261.046C264.345 140 266.634 135.618 267.669 131.434H199.76C198.179 135.124 205.032 140 210.963 140Z" fill="black" fill-opacity="0.5" stroke="black"/>
<path d="M219.271 122.819C214.604 122.762 210.455 125.194 207.979 127.253C207.313 127.806 207.731 128.794 208.597 128.794H219.19C219.743 128.794 220.19 128.346 220.19 127.794V123.783C220.19 123.263 219.791 122.826 219.271 122.819Z" fill="#0F0F0F"/>
<rect x="223.484" y="122.205" width="9.22583" height="6.58988" rx="1" fill="#0F0F0F"/>
<rect x="236.664" y="122.205" width="9.22583" height="6.58988" rx="1" fill="#0F0F0F"/>
<path d="M160.46 72.6947C157.804 72.6787 155.812 72.0227 154.484 70.7267C153.172 69.4307 152.516 67.3267 152.516 64.4147C152.516 61.7747 153.156 59.7027 154.436 58.1987C155.716 56.6787 157.524 55.9187 159.86 55.9187C161.3 55.9187 162.556 56.1347 163.628 56.5667C164.7 56.9987 165.524 57.6147 166.1 58.4147C166.676 59.2147 166.964 60.1587 166.964 61.2467C166.964 62.1107 166.772 62.8787 166.388 63.5507C166.02 64.2227 165.468 64.8227 164.732 65.3507C165.324 65.4467 165.836 65.7667 166.268 66.3107C166.716 66.8547 166.94 67.4867 166.94 68.2067C166.94 68.9747 166.732 69.7027 166.316 70.3907C165.916 71.0627 165.228 71.6147 164.252 72.0467C163.292 72.4787 162.028 72.6947 160.46 72.6947ZM158.804 63.7427C159.092 63.8867 159.452 63.9587 159.884 63.9587C160.396 63.9587 160.836 63.8387 161.204 63.5987C161.588 63.3427 161.78 62.9667 161.78 62.4707C161.78 61.9907 161.588 61.6307 161.204 61.3907C160.836 61.1347 160.388 61.0067 159.86 61.0067C159.444 61.0067 159.092 61.0787 158.804 61.2227C158.58 61.3187 158.412 61.4867 158.3 61.7267C158.188 61.9667 158.132 62.2227 158.132 62.4947C158.132 62.7667 158.188 63.0227 158.3 63.2627C158.412 63.4867 158.58 63.6467 158.804 63.7427ZM158.804 69.3587C159.108 69.4868 159.468 69.5508 159.884 69.5508C160.396 69.5508 160.836 69.4467 161.204 69.2387C161.588 69.0147 161.78 68.6867 161.78 68.2547C161.78 67.8387 161.588 67.5187 161.204 67.2947C160.82 67.0707 160.372 66.9587 159.86 66.9587C159.46 66.9587 159.108 67.0227 158.804 67.1507C158.58 67.2467 158.412 67.3987 158.3 67.6067C158.188 67.7987 158.132 68.0147 158.132 68.2547C158.132 68.4947 158.188 68.7187 158.3 68.9267C158.412 69.1187 158.58 69.2627 158.804 69.3587ZM173.704 72.7428C172.552 72.7588 171.52 72.5187 170.608 72.0227C169.712 71.5267 169.008 70.8467 168.496 69.9827C168 69.1027 167.736 68.1267 167.704 67.0547C167.688 65.9827 167.936 65.0227 168.448 64.1747C168.96 63.3267 169.672 62.6547 170.584 62.1587C171.512 61.6627 172.552 61.4147 173.704 61.4147C174.824 61.4147 175.832 61.6547 176.728 62.1347C177.64 62.6147 178.36 63.2867 178.888 64.1507C179.416 65.0147 179.696 65.9827 179.728 67.0547C179.744 68.0947 179.496 69.0467 178.984 69.9107C178.472 70.7587 177.752 71.4387 176.824 71.9507C175.912 72.4627 174.872 72.7268 173.704 72.7428ZM173.776 69.2387C174.208 69.2387 174.584 69.0707 174.904 68.7347C175.224 68.3987 175.384 68.0067 175.384 67.5587C175.384 67.1107 175.224 66.7267 174.904 66.4067C174.584 66.0707 174.208 65.9027 173.776 65.9027C173.344 65.9027 172.968 66.0707 172.648 66.4067C172.328 66.7267 172.168 67.1107 172.168 67.5587C172.168 68.0067 172.328 68.3987 172.648 68.7347C172.968 69.0707 173.344 69.2387 173.776 69.2387ZM186.262 72.7188C185.094 72.7188 184.07 72.4307 183.19 71.8547C182.31 71.2627 181.63 70.4467 181.15 69.4067C180.686 68.3507 180.454 67.1347 180.454 65.7587C180.454 64.4147 180.67 63.3587 181.102 62.5907C181.534 61.8227 182.134 61.4387 182.902 61.4387C184.262 61.4387 184.942 62.1347 184.942 63.5267C184.942 63.8147 184.934 64.0707 184.918 64.2947C184.902 64.5027 184.886 64.6867 184.87 64.8467C184.806 65.4867 184.774 65.9987 184.774 66.3828C184.774 67.0867 184.918 67.6227 185.206 67.9907C185.494 68.3587 185.846 68.5427 186.262 68.5427C186.694 68.5427 187.046 68.3667 187.318 68.0147C187.606 67.6467 187.75 67.1027 187.75 66.3828C187.75 65.8707 187.726 65.3987 187.678 64.9667C187.662 64.8227 187.646 64.6147 187.63 64.3427C187.614 64.0547 187.606 63.7907 187.606 63.5507C187.606 62.1427 188.286 61.4387 189.646 61.4387C190.414 61.4387 191.006 61.8227 191.422 62.5907C191.854 63.3427 192.07 64.3987 192.07 65.7587C192.07 67.8867 191.574 69.5827 190.582 70.8467C189.59 72.0947 188.15 72.7188 186.262 72.7188ZM202.59 72.7188C202.014 72.7188 201.582 72.5587 201.294 72.2387C201.022 71.9187 200.854 71.5267 200.79 71.0627C200.726 70.5987 200.694 69.9987 200.694 69.2627C200.694 68.3187 200.566 67.5907 200.31 67.0787C200.054 66.5667 199.638 66.3107 199.062 66.3107C198.534 66.3107 198.134 66.5667 197.862 67.0787C197.606 67.5747 197.478 68.2627 197.478 69.1427C197.478 69.9907 197.454 70.6307 197.406 71.0627C197.358 71.4947 197.198 71.8787 196.926 72.2147C196.654 72.5347 196.206 72.6947 195.582 72.6947C194.67 72.6947 194.03 72.1107 193.662 70.9427C193.294 69.7587 193.11 68.3747 193.11 66.7907C193.11 62.9507 193.918 61.0307 195.534 61.0307C195.982 61.0307 196.35 61.1427 196.638 61.3667C196.926 61.5747 197.126 61.8787 197.238 62.2787C197.446 62.0547 197.766 61.8547 198.198 61.6787C198.646 61.5027 199.118 61.4147 199.614 61.4147C201.374 61.4147 202.686 62.0547 203.55 63.3347C204.43 64.6147 204.87 66.3507 204.87 68.5427C204.87 69.8387 204.702 70.8627 204.366 71.6147C204.03 72.3507 203.438 72.7188 202.59 72.7188ZM211.314 72.7188C210.178 72.7188 209.17 72.4467 208.29 71.9027C207.426 71.3427 206.762 70.6227 206.298 69.7427C205.834 68.8467 205.602 67.8947 205.602 66.8867C205.602 65.7027 205.842 64.7027 206.322 63.8867C206.818 63.0547 207.45 62.4387 208.218 62.0387C209.002 61.6387 209.842 61.4387 210.738 61.4387C211.634 61.4387 212.434 61.6307 213.138 62.0147C213.106 61.6787 213.042 61.3187 212.946 60.9347C212.866 60.5507 212.81 60.3107 212.778 60.2147C212.65 59.7187 212.554 59.3027 212.49 58.9667C212.426 58.6307 212.394 58.2947 212.394 57.9587C212.394 57.2867 212.594 56.7747 212.994 56.4227C213.394 56.0707 213.874 55.8947 214.434 55.8947C215.33 55.8947 216.058 56.3427 216.618 57.2387C217.178 58.1347 217.578 59.2467 217.818 60.5747C218.074 61.9027 218.202 63.2467 218.202 64.6067C218.202 66.4467 217.778 68.2627 216.93 70.0547C216.098 71.8307 214.226 72.7188 211.314 72.7188ZM211.458 68.9267C211.89 68.9267 212.266 68.7667 212.586 68.4467C212.906 68.1107 213.066 67.7187 213.066 67.2707C213.066 66.8227 212.906 66.4307 212.586 66.0947C212.266 65.7587 211.89 65.5907 211.458 65.5907C211.026 65.5907 210.642 65.7587 210.306 66.0947C209.986 66.4307 209.826 66.8227 209.826 67.2707C209.826 67.7187 209.986 68.1107 210.306 68.4467C210.642 68.7667 211.026 68.9267 211.458 68.9267ZM234.162 63.1667C235.73 63.1987 236.858 63.3667 237.546 63.6707C238.25 63.9747 238.602 64.5587 238.602 65.4227C238.602 66.2707 238.242 66.8467 237.522 67.1507C236.818 67.4387 235.714 67.5987 234.21 67.6307L234.234 69.5267C234.25 69.8307 234.258 70.2547 234.258 70.7987C234.258 71.4867 234.066 71.9747 233.682 72.2627C233.298 72.5347 232.85 72.6707 232.338 72.6707C231.458 72.6707 230.818 72.2307 230.418 71.3507C230.018 70.4707 229.77 69.2147 229.674 67.5827C228.634 67.5027 227.858 67.3027 227.346 66.9827C226.85 66.6627 226.602 66.1427 226.602 65.4227C226.602 64.7027 226.85 64.1827 227.346 63.8627C227.858 63.5267 228.634 63.3107 229.674 63.2147C229.77 61.6627 230.002 60.3587 230.37 59.3027C230.738 58.2467 231.338 57.4227 232.17 56.8307C233.002 56.2227 234.122 55.9187 235.53 55.9187C236.41 55.9187 237.138 56.1267 237.714 56.5427C238.306 56.9427 238.602 57.5267 238.602 58.2947C238.602 59.0947 238.354 59.7027 237.858 60.1187C237.378 60.5187 236.714 60.7987 235.866 60.9587C235.306 61.0707 234.898 61.3187 234.642 61.7027C234.386 62.0707 234.226 62.5587 234.162 63.1667ZM244.954 72.7428C243.802 72.7588 242.77 72.5187 241.858 72.0227C240.962 71.5267 240.258 70.8467 239.746 69.9827C239.25 69.1027 238.986 68.1267 238.954 67.0547C238.938 65.9827 239.186 65.0227 239.698 64.1747C240.21 63.3267 240.922 62.6547 241.834 62.1587C242.762 61.6627 243.802 61.4147 244.954 61.4147C246.074 61.4147 247.082 61.6547 247.978 62.1347C248.89 62.6147 249.61 63.2867 250.138 64.1507C250.666 65.0147 250.946 65.9827 250.978 67.0547C250.994 68.0947 250.746 69.0467 250.234 69.9107C249.722 70.7587 249.002 71.4387 248.074 71.9507C247.162 72.4627 246.122 72.7268 244.954 72.7428ZM245.026 69.2387C245.458 69.2387 245.834 69.0707 246.154 68.7347C246.474 68.3987 246.634 68.0067 246.634 67.5587C246.634 67.1107 246.474 66.7267 246.154 66.4067C245.834 66.0707 245.458 65.9027 245.026 65.9027C244.594 65.9027 244.218 66.0707 243.898 66.4067C243.578 66.7267 243.418 67.1107 243.418 67.5587C243.418 68.0067 243.578 68.3987 243.898 68.7347C244.218 69.0707 244.594 69.2387 245.026 69.2387ZM254.506 72.7188C253.482 72.7188 252.794 72.1187 252.442 70.9187C252.106 69.7187 251.938 68.0627 251.938 65.9507C251.938 64.9907 251.978 64.1907 252.058 63.5507C252.154 62.8947 252.37 62.3427 252.706 61.8947C253.058 61.4307 253.594 61.1987 254.314 61.1987C254.762 61.1987 255.154 61.3027 255.49 61.5107C255.842 61.7187 256.066 62.0147 256.162 62.3987C256.514 62.0787 256.97 61.8387 257.53 61.6787C258.09 61.5187 258.69 61.4387 259.33 61.4387C259.842 61.4387 260.362 61.5667 260.89 61.8227C261.434 62.0787 261.882 62.4307 262.234 62.8787C262.602 63.3107 262.786 63.7827 262.786 64.2947C262.786 64.8067 262.602 65.2627 262.234 65.6628C261.882 66.0467 261.41 66.2387 260.818 66.2387C260.626 66.2387 260.442 66.2147 260.266 66.1667C260.106 66.1187 259.962 66.0707 259.834 66.0227C259.514 65.8947 259.258 65.8307 259.066 65.8307C258.442 65.8307 257.89 66.0787 257.41 66.5747C256.946 67.0547 256.714 67.6787 256.714 68.4467C256.714 69.2947 256.682 69.9987 256.618 70.5587C256.554 71.1187 256.362 71.6227 256.042 72.0707C255.722 72.5027 255.21 72.7188 254.506 72.7188ZM279.124 72.6947C276.468 72.6787 274.476 72.0227 273.148 70.7267C271.836 69.4307 271.18 67.3267 271.18 64.4147C271.18 61.7747 271.82 59.7027 273.1 58.1987C274.38 56.6787 276.188 55.9187 278.524 55.9187C279.964 55.9187 281.22 56.1347 282.292 56.5667C283.364 56.9987 284.188 57.6147 284.764 58.4147C285.34 59.2147 285.628 60.1587 285.628 61.2467C285.628 62.1107 285.436 62.8787 285.052 63.5507C284.684 64.2227 284.132 64.8227 283.396 65.3507C283.988 65.4467 284.5 65.7667 284.932 66.3107C285.38 66.8547 285.604 67.4867 285.604 68.2067C285.604 68.9747 285.396 69.7027 284.98 70.3907C284.58 71.0627 283.892 71.6147 282.916 72.0467C281.956 72.4787 280.692 72.6947 279.124 72.6947ZM277.468 63.7427C277.756 63.8867 278.116 63.9587 278.548 63.9587C279.06 63.9587 279.5 63.8387 279.868 63.5987C280.252 63.3427 280.444 62.9667 280.444 62.4707C280.444 61.9907 280.252 61.6307 279.868 61.3907C279.5 61.1347 279.052 61.0067 278.524 61.0067C278.108 61.0067 277.756 61.0787 277.468 61.2227C277.244 61.3187 277.076 61.4867 276.964 61.7267C276.852 61.9667 276.796 62.2227 276.796 62.4947C276.796 62.7667 276.852 63.0227 276.964 63.2627C277.076 63.4867 277.244 63.6467 277.468 63.7427ZM277.468 69.3587C277.772 69.4868 278.132 69.5508 278.548 69.5508C279.06 69.5508 279.5 69.4467 279.868 69.2387C280.252 69.0147 280.444 68.6867 280.444 68.2547C280.444 67.8387 280.252 67.5187 279.868 67.2947C279.484 67.0707 279.036 66.9587 278.524 66.9587C278.124 66.9587 277.772 67.0227 277.468 67.1507C277.244 67.2467 277.076 67.3987 276.964 67.6067C276.852 67.7987 276.796 68.0147 276.796 68.2547C276.796 68.4947 276.852 68.7187 276.964 68.9267C277.076 69.1187 277.244 69.2627 277.468 69.3587ZM292.392 72.7188C291.208 72.7188 290.16 72.4867 289.248 72.0227C288.336 71.5587 287.624 70.9107 287.112 70.0787C286.616 69.2307 286.368 68.2787 286.368 67.2227C286.368 66.1827 286.616 65.2227 287.112 64.3427C287.624 63.4627 288.328 62.7587 289.224 62.2307C290.12 61.7027 291.136 61.4387 292.272 61.4387C293.296 61.4387 294.2 61.6467 294.984 62.0627C295.768 62.4787 296.368 63.0307 296.784 63.7187C297.2 64.3907 297.408 65.0947 297.408 65.8307C297.408 67.0307 296.952 67.9107 296.04 68.4707C295.144 69.0147 294.072 69.2867 292.824 69.2867C291.992 69.2867 291.288 69.1827 290.712 68.9747C291.192 69.7587 291.984 70.1507 293.088 70.1507C293.536 70.1507 294.016 70.0947 294.528 69.9827C294.72 69.9347 294.904 69.9107 295.08 69.9107C295.432 69.9107 295.712 69.9987 295.92 70.1747C296.144 70.3507 296.256 70.5907 296.256 70.8947C296.256 71.3907 295.952 71.8227 295.344 72.1907C294.736 72.5427 293.752 72.7188 292.392 72.7188ZM290.784 66.0467C290.928 66.2707 291.12 66.4388 291.36 66.5508C291.616 66.6467 291.896 66.6947 292.2 66.6947C292.552 66.6947 292.856 66.6147 293.112 66.4547C293.384 66.2947 293.52 66.0867 293.52 65.8307C293.52 65.5427 293.4 65.2947 293.16 65.0867C292.936 64.8787 292.608 64.7747 292.176 64.7747C291.744 64.7747 291.4 64.9107 291.144 65.1827C290.904 65.4387 290.784 65.7267 290.784 66.0467ZM300.936 72.7188C299.912 72.7188 299.224 72.1187 298.872 70.9187C298.536 69.7187 298.368 68.0627 298.368 65.9507C298.368 64.9907 298.408 64.1907 298.488 63.5507C298.584 62.8947 298.8 62.3427 299.136 61.8947C299.488 61.4307 300.024 61.1987 300.744 61.1987C301.192 61.1987 301.584 61.3027 301.92 61.5107C302.272 61.7187 302.496 62.0147 302.592 62.3987C302.944 62.0787 303.4 61.8387 303.96 61.6787C304.52 61.5187 305.12 61.4387 305.76 61.4387C306.272 61.4387 306.792 61.5667 307.32 61.8227C307.864 62.0787 308.312 62.4307 308.664 62.8787C309.032 63.3107 309.216 63.7827 309.216 64.2947C309.216 64.8067 309.032 65.2627 308.664 65.6628C308.312 66.0467 307.84 66.2387 307.248 66.2387C307.056 66.2387 306.872 66.2147 306.696 66.1667C306.536 66.1187 306.392 66.0707 306.264 66.0227C305.944 65.8947 305.688 65.8307 305.496 65.8307C304.872 65.8307 304.32 66.0787 303.84 66.5747C303.376 67.0547 303.144 67.6787 303.144 68.4467C303.144 69.2947 303.112 69.9987 303.048 70.5587C302.984 71.1187 302.792 71.6227 302.472 72.0707C302.152 72.5027 301.64 72.7188 300.936 72.7188ZM314.008 72.7188C312.76 72.7188 311.736 72.4387 310.936 71.8787C310.136 71.3027 309.736 70.4787 309.736 69.4067C309.736 68.4787 310.144 67.7427 310.96 67.1987C311.776 66.6547 312.792 66.3828 314.008 66.3828C314.456 66.3828 314.872 66.4227 315.256 66.5027C315.656 66.5667 315.928 66.6467 316.072 66.7427C316.072 66.3427 315.904 66.0147 315.568 65.7587C315.232 65.4867 314.72 65.3507 314.032 65.3507C313.728 65.3507 313.48 65.3747 313.288 65.4227C313.096 65.4707 312.888 65.5427 312.664 65.6387C312.44 65.7347 312.232 65.8067 312.04 65.8547C311.864 65.9027 311.624 65.9267 311.32 65.9267C310.808 65.9267 310.408 65.7987 310.12 65.5427C309.832 65.2707 309.688 64.8627 309.688 64.3187C309.688 63.6947 309.912 63.1667 310.36 62.7347C310.824 62.3027 311.4 61.9827 312.088 61.7747C312.776 61.5507 313.464 61.4387 314.152 61.4387C315.512 61.4387 316.648 61.6947 317.56 62.2067C318.488 62.7027 319.168 63.3667 319.6 64.1987C320.048 65.0307 320.272 65.9507 320.272 66.9587C320.272 67.5027 320.224 68.0067 320.128 68.4707C320.048 68.9347 319.936 69.2947 319.792 69.5508C320.016 69.7427 320.184 69.9667 320.296 70.2227C320.424 70.4787 320.488 70.7427 320.488 71.0147C320.488 71.4787 320.328 71.8787 320.008 72.2147C319.704 72.5507 319.296 72.7188 318.784 72.7188C318.4 72.7188 318.088 72.6627 317.848 72.5507C317.608 72.4387 317.352 72.2627 317.08 72.0227C316.68 72.2627 316.24 72.4387 315.76 72.5507C315.296 72.6627 314.712 72.7188 314.008 72.7188ZM314.488 70.2947C314.824 70.2947 315.088 70.2227 315.28 70.0787C315.488 69.9347 315.592 69.7587 315.592 69.5508C315.592 69.3427 315.488 69.1667 315.28 69.0227C315.088 68.8787 314.824 68.8067 314.488 68.8067C314.152 68.8067 313.88 68.8787 313.672 69.0227C313.48 69.1667 313.384 69.3427 313.384 69.5508C313.384 69.7587 313.48 69.9347 313.672 70.0787C313.88 70.2227 314.152 70.2947 314.488 70.2947ZM327.099 72.6947C326.075 72.6947 325.107 72.4467 324.195 71.9507C323.299 71.4387 322.579 70.7507 322.035 69.8867C321.491 69.0227 321.219 68.0547 321.219 66.9827C321.219 65.8627 321.483 64.8867 322.011 64.0547C322.555 63.2067 323.267 62.5587 324.147 62.1107C325.043 61.6627 326.003 61.4387 327.027 61.4387C328.003 61.4387 328.883 61.6307 329.667 62.0147C330.451 62.3987 331.059 62.9027 331.491 63.5267C331.923 64.1347 332.139 64.7747 332.139 65.4467C332.139 66.0067 331.963 66.4387 331.611 66.7427C331.275 67.0467 330.771 67.1987 330.099 67.1987C329.747 67.1987 329.475 67.1347 329.283 67.0067C329.091 66.8787 328.891 66.6867 328.683 66.4307C328.491 66.1907 328.307 66.0147 328.131 65.9027C327.971 65.7747 327.739 65.7107 327.435 65.7107C327.003 65.7107 326.635 65.8627 326.331 66.1667C326.027 66.4547 325.875 66.8307 325.875 67.2947C325.875 67.7747 326.019 68.1587 326.307 68.4467C326.611 68.7347 326.987 68.8787 327.435 68.8787C327.723 68.8787 327.947 68.8387 328.107 68.7587C328.267 68.6787 328.443 68.5507 328.635 68.3747C328.859 68.1827 329.067 68.0467 329.259 67.9667C329.451 67.8707 329.731 67.8227 330.099 67.8227C330.755 67.8227 331.259 67.9987 331.611 68.3507C331.963 68.7027 332.139 69.1107 332.139 69.5747C332.139 70.1187 331.923 70.6307 331.491 71.1107C331.075 71.5907 330.483 71.9747 329.715 72.2627C328.947 72.5507 328.075 72.6947 327.099 72.6947ZM335.748 72.7188C334.964 72.7188 334.364 72.4147 333.948 71.8067C333.532 71.1987 333.244 70.2627 333.084 68.9987C332.94 67.7347 332.868 65.9827 332.868 63.7427C332.868 61.8707 332.916 60.4067 333.012 59.3507C333.124 58.2947 333.372 57.4627 333.756 56.8547C334.14 56.2307 334.74 55.9187 335.556 55.9187C336.26 55.9187 336.788 56.1427 337.14 56.5907C337.492 57.0387 337.716 57.5987 337.812 58.2707C337.908 58.9427 337.956 59.7827 337.956 60.7907V61.8707C338.276 61.7107 338.556 61.5987 338.796 61.5347C339.052 61.4707 339.428 61.4387 339.924 61.4387C341.012 61.4387 341.948 61.7187 342.732 62.2787C343.516 62.8227 344.108 63.5587 344.508 64.4867C344.924 65.4147 345.132 66.4467 345.132 67.5827C345.132 69.0547 344.972 70.2707 344.652 71.2307C344.348 72.1747 343.74 72.6467 342.828 72.6467C342.188 72.6467 341.708 72.5027 341.388 72.2147C341.084 71.9267 340.884 71.5347 340.788 71.0387C340.708 70.5427 340.668 69.8627 340.668 68.9987C340.668 68.0547 340.564 67.3267 340.356 66.8147C340.164 66.3027 339.82 66.0467 339.324 66.0467C338.828 66.0467 338.468 66.3107 338.244 66.8387C338.036 67.3507 337.924 68.0707 337.908 68.9987C337.892 69.8627 337.836 70.5507 337.74 71.0627C337.66 71.5747 337.46 71.9827 337.14 72.2867C336.836 72.5747 336.372 72.7188 335.748 72.7188ZM350.172 72.7188C348.924 72.7188 347.9 72.4387 347.1 71.8787C346.3 71.3027 345.9 70.4787 345.9 69.4067C345.9 68.4787 346.308 67.7427 347.124 67.1987C347.94 66.6547 348.956 66.3828 350.172 66.3828C350.62 66.3828 351.036 66.4227 351.42 66.5027C351.82 66.5667 352.092 66.6467 352.236 66.7427C352.236 66.3427 352.068 66.0147 351.732 65.7587C351.396 65.4867 350.884 65.3507 350.196 65.3507C349.892 65.3507 349.644 65.3747 349.452 65.4227C349.26 65.4707 349.052 65.5427 348.828 65.6387C348.604 65.7347 348.396 65.8067 348.204 65.8547C348.028 65.9027 347.788 65.9267 347.484 65.9267C346.972 65.9267 346.572 65.7987 346.284 65.5427C345.996 65.2707 345.852 64.8627 345.852 64.3187C345.852 63.6947 346.076 63.1667 346.524 62.7347C346.988 62.3027 347.564 61.9827 348.252 61.7747C348.94 61.5507 349.628 61.4387 350.316 61.4387C351.676 61.4387 352.812 61.6947 353.724 62.2067C354.652 62.7027 355.332 63.3667 355.764 64.1987C356.212 65.0307 356.436 65.9507 356.436 66.9587C356.436 67.5027 356.388 68.0067 356.292 68.4707C356.212 68.9347 356.1 69.2947 355.956 69.5508C356.18 69.7427 356.348 69.9667 356.46 70.2227C356.588 70.4787 356.652 70.7427 356.652 71.0147C356.652 71.4787 356.492 71.8787 356.172 72.2147C355.868 72.5507 355.46 72.7188 354.948 72.7188C354.564 72.7188 354.252 72.6627 354.012 72.5507C353.772 72.4387 353.516 72.2627 353.244 72.0227C352.844 72.2627 352.404 72.4387 351.924 72.5507C351.46 72.6627 350.876 72.7188 350.172 72.7188ZM350.652 70.2947C350.988 70.2947 351.252 70.2227 351.444 70.0787C351.652 69.9347 351.756 69.7587 351.756 69.5508C351.756 69.3427 351.652 69.1667 351.444 69.0227C351.252 68.8787 350.988 68.8067 350.652 68.8067C350.316 68.8067 350.044 68.8787 349.836 69.0227C349.644 69.1667 349.548 69.3427 349.548 69.5508C349.548 69.7587 349.644 69.9347 349.836 70.0787C350.044 70.2227 350.316 70.2947 350.652 70.2947ZM360.66 61.0787C359.876 61.0787 359.212 60.7987 358.668 60.2387C358.124 59.6627 357.852 58.9667 357.852 58.1507C357.852 57.3507 358.124 56.6707 358.668 56.1107C359.212 55.5347 359.876 55.2467 360.66 55.2467C361.428 55.2467 362.084 55.5347 362.628 56.1107C363.188 56.6707 363.468 57.3507 363.468 58.1507C363.468 58.9667 363.188 59.6627 362.628 60.2387C362.084 60.7987 361.428 61.0787 360.66 61.0787ZM360.66 72.7188C360.004 72.7188 359.516 72.5347 359.196 72.1667C358.892 71.7827 358.684 71.2147 358.572 70.4627C358.476 69.6947 358.428 68.6067 358.428 67.1987C358.428 66.0147 358.484 65.0787 358.596 64.3907C358.724 63.7027 358.948 63.1907 359.268 62.8547C359.588 62.5187 360.052 62.3507 360.66 62.3507C361.316 62.3507 361.796 62.5427 362.1 62.9267C362.42 63.2947 362.628 63.8627 362.724 64.6307C362.836 65.3827 362.892 66.4627 362.892 67.8707C362.892 69.0547 362.828 69.9907 362.7 70.6787C362.588 71.3667 362.372 71.8787 362.052 72.2147C361.732 72.5507 361.268 72.7188 360.66 72.7188ZM373.918 72.7188C373.342 72.7188 372.91 72.5587 372.622 72.2387C372.35 71.9187 372.182 71.5267 372.118 71.0627C372.054 70.5987 372.022 69.9987 372.022 69.2627C372.022 68.3187 371.894 67.5907 371.638 67.0787C371.382 66.5667 370.966 66.3107 370.39 66.3107C369.862 66.3107 369.462 66.5667 369.19 67.0787C368.934 67.5747 368.806 68.2627 368.806 69.1427C368.806 69.9907 368.782 70.6307 368.734 71.0627C368.686 71.4947 368.526 71.8787 368.254 72.2147C367.982 72.5347 367.534 72.6947 366.91 72.6947C365.998 72.6947 365.358 72.1107 364.99 70.9427C364.622 69.7587 364.438 68.3747 364.438 66.7907C364.438 62.9507 365.246 61.0307 366.862 61.0307C367.31 61.0307 367.678 61.1427 367.966 61.3667C368.254 61.5747 368.454 61.8787 368.566 62.2787C368.774 62.0547 369.094 61.8547 369.526 61.6787C369.974 61.5027 370.446 61.4147 370.942 61.4147C372.702 61.4147 374.014 62.0547 374.878 63.3347C375.758 64.6147 376.198 66.3507 376.198 68.5427C376.198 69.8387 376.03 70.8627 375.694 71.6147C375.358 72.3507 374.766 72.7188 373.918 72.7188ZM378.431 57.0467C378.895 56.2947 379.671 55.9187 380.759 55.9187C381.799 55.9187 382.551 56.2787 383.015 56.9987C383.495 57.7187 383.735 58.5907 383.735 59.6147C383.735 60.4627 383.655 61.4067 383.495 62.4467C383.335 63.4707 383.111 64.3907 382.823 65.2067C382.679 65.6067 382.431 65.9587 382.079 66.2627C381.743 66.5507 381.303 66.6947 380.759 66.6947C380.215 66.6947 379.767 66.5507 379.415 66.2627C379.063 65.9587 378.815 65.6067 378.671 65.2067C378.383 64.4067 378.159 63.5107 377.999 62.5187C377.839 61.5107 377.759 60.5987 377.759 59.7827C377.759 58.6947 377.983 57.7827 378.431 57.0467ZM382.487 71.8547C381.991 72.3507 381.407 72.5987 380.735 72.5987C380.063 72.5987 379.479 72.3507 378.983 71.8547C378.487 71.3587 378.239 70.7747 378.239 70.1027C378.239 69.4307 378.487 68.8467 378.983 68.3507C379.479 67.8547 380.063 67.6067 380.735 67.6067C381.407 67.6067 381.991 67.8547 382.487 68.3507C382.983 68.8467 383.231 69.4307 383.231 70.1027C383.231 70.7747 382.983 71.3587 382.487 71.8547Z" fill="black"/>
<path d="M161.232 42.3922C159.24 42.3802 157.746 41.8882 156.75 40.9162C155.766 39.9442 155.274 38.3662 155.274 36.1822C155.274 34.2022 155.754 32.6482 156.714 31.5202C157.674 30.3802 159.03 29.8102 160.782 29.8102C161.862 29.8102 162.804 29.9722 163.608 30.2962C164.412 30.6202 165.03 31.0822 165.462 31.6822C165.894 32.2822 166.11 32.9902 166.11 33.8062C166.11 34.4542 165.966 35.0302 165.678 35.5342C165.402 36.0382 164.988 36.4882 164.436 36.8842C164.88 36.9562 165.264 37.1962 165.588 37.6042C165.924 38.0122 166.092 38.4862 166.092 39.0262C166.092 39.6022 165.936 40.1482 165.624 40.6642C165.324 41.1682 164.808 41.5822 164.076 41.9062C163.356 42.2302 162.408 42.3922 161.232 42.3922ZM159.99 35.6782C160.206 35.7862 160.476 35.8402 160.8 35.8402C161.184 35.8402 161.514 35.7502 161.79 35.5702C162.078 35.3782 162.222 35.0962 162.222 34.7242C162.222 34.3642 162.078 34.0942 161.79 33.9142C161.514 33.7222 161.178 33.6262 160.782 33.6262C160.47 33.6262 160.206 33.6802 159.99 33.7882C159.822 33.8602 159.696 33.9862 159.612 34.1662C159.528 34.3462 159.486 34.5382 159.486 34.7422C159.486 34.9462 159.528 35.1382 159.612 35.3182C159.696 35.4862 159.822 35.6062 159.99 35.6782ZM159.99 39.8902C160.218 39.9862 160.488 40.0342 160.8 40.0342C161.184 40.0342 161.514 39.9562 161.79 39.8002C162.078 39.6322 162.222 39.3862 162.222 39.0622C162.222 38.7502 162.078 38.5102 161.79 38.3422C161.502 38.1742 161.166 38.0902 160.782 38.0902C160.482 38.0902 160.218 38.1382 159.99 38.2342C159.822 38.3062 159.696 38.4202 159.612 38.5762C159.528 38.7202 159.486 38.8822 159.486 39.0622C159.486 39.2422 159.528 39.4102 159.612 39.5662C159.696 39.7102 159.822 39.8182 159.99 39.8902ZM168.77 33.6802C168.182 33.6802 167.684 33.4702 167.276 33.0502C166.868 32.6182 166.664 32.0962 166.664 31.4842C166.664 30.8842 166.868 30.3742 167.276 29.9542C167.684 29.5222 168.182 29.3062 168.77 29.3062C169.346 29.3062 169.838 29.5222 170.246 29.9542C170.666 30.3742 170.876 30.8842 170.876 31.4842C170.876 32.0962 170.666 32.6182 170.246 33.0502C169.838 33.4702 169.346 33.6802 168.77 33.6802ZM168.77 42.4102C168.278 42.4102 167.912 42.2722 167.672 41.9962C167.444 41.7082 167.288 41.2822 167.204 40.7182C167.132 40.1422 167.096 39.3262 167.096 38.2702C167.096 37.3822 167.138 36.6802 167.222 36.1642C167.318 35.6482 167.486 35.2642 167.726 35.0122C167.966 34.7602 168.314 34.6342 168.77 34.6342C169.262 34.6342 169.622 34.7782 169.85 35.0662C170.09 35.3422 170.246 35.7682 170.318 36.3442C170.402 36.9082 170.444 37.7182 170.444 38.7742C170.444 39.6622 170.396 40.3642 170.3 40.8802C170.216 41.3962 170.054 41.7802 169.814 42.0322C169.574 42.2842 169.226 42.4102 168.77 42.4102ZM178.714 42.4102C178.282 42.4102 177.958 42.2902 177.742 42.0502C177.538 41.8102 177.412 41.5162 177.364 41.1682C177.316 40.8202 177.292 40.3702 177.292 39.8182C177.292 39.1102 177.196 38.5642 177.004 38.1802C176.812 37.7962 176.5 37.6042 176.068 37.6042C175.672 37.6042 175.372 37.7962 175.168 38.1802C174.976 38.5522 174.88 39.0682 174.88 39.7282C174.88 40.3642 174.862 40.8442 174.826 41.1682C174.79 41.4922 174.67 41.7802 174.466 42.0322C174.262 42.2722 173.926 42.3922 173.458 42.3922C172.774 42.3922 172.294 41.9542 172.018 41.0782C171.742 40.1902 171.604 39.1522 171.604 37.9642C171.604 35.0842 172.21 33.6442 173.422 33.6442C173.758 33.6442 174.034 33.7282 174.25 33.8962C174.466 34.0522 174.616 34.2802 174.7 34.5802C174.856 34.4122 175.096 34.2622 175.42 34.1302C175.756 33.9982 176.11 33.9322 176.482 33.9322C177.802 33.9322 178.786 34.4122 179.434 35.3722C180.094 36.3322 180.424 37.6342 180.424 39.2782C180.424 40.2502 180.298 41.0182 180.046 41.5822C179.794 42.1342 179.35 42.4102 178.714 42.4102ZM189.388 34.6162C189.388 35.2402 189.094 35.6662 188.506 35.8942C187.918 36.1102 187.114 36.2242 186.094 36.2362C186.082 36.5362 186.076 37.0222 186.076 37.6942C186.076 38.3782 186.124 38.8642 186.22 39.1522C186.28 39.3562 186.37 39.4882 186.49 39.5482C186.622 39.6082 186.814 39.6502 187.066 39.6742C187.15 39.6862 187.24 39.7042 187.336 39.7282C187.444 39.7402 187.564 39.7582 187.696 39.7822C187.972 39.8422 188.188 39.9922 188.344 40.2322C188.5 40.4602 188.578 40.7542 188.578 41.1142C188.578 41.5222 188.368 41.8402 187.948 42.0682C187.528 42.2962 186.952 42.4102 186.22 42.4102C185.548 42.4102 184.906 42.2182 184.294 41.8342C183.682 41.4382 183.262 40.9102 183.034 40.2502C182.794 39.5422 182.674 38.2042 182.674 36.2362C181.834 36.2122 181.156 36.1042 180.64 35.9122C180.136 35.7082 179.884 35.3482 179.884 34.8322C179.884 34.1842 180.124 33.7522 180.604 33.5362C181.084 33.3082 181.774 33.1882 182.674 33.1762C182.71 32.2162 182.86 31.4182 183.124 30.7822C183.388 30.1342 183.862 29.8102 184.546 29.8102C185.242 29.8102 185.692 30.1102 185.896 30.7102C186.112 31.3102 186.208 32.1322 186.184 33.1762C187.276 33.1642 188.08 33.2482 188.596 33.4282C189.124 33.6082 189.388 34.0042 189.388 34.6162ZM193.911 42.4102C193.023 42.4102 192.237 42.2362 191.553 41.8882C190.869 41.5402 190.335 41.0542 189.951 40.4302C189.579 39.7942 189.393 39.0802 189.393 38.2882C189.393 37.5082 189.579 36.7882 189.951 36.1282C190.335 35.4682 190.863 34.9402 191.535 34.5442C192.207 34.1482 192.969 33.9502 193.821 33.9502C194.589 33.9502 195.267 34.1062 195.855 34.4182C196.443 34.7302 196.893 35.1442 197.205 35.6602C197.517 36.1642 197.673 36.6922 197.673 37.2442C197.673 38.1442 197.331 38.8042 196.647 39.2242C195.975 39.6322 195.171 39.8362 194.235 39.8362C193.611 39.8362 193.083 39.7582 192.651 39.6022C193.011 40.1902 193.605 40.4842 194.433 40.4842C194.769 40.4842 195.129 40.4422 195.513 40.3582C195.657 40.3222 195.795 40.3042 195.927 40.3042C196.191 40.3042 196.401 40.3702 196.557 40.5022C196.725 40.6342 196.809 40.8142 196.809 41.0422C196.809 41.4142 196.581 41.7382 196.125 42.0142C195.669 42.2782 194.931 42.4102 193.911 42.4102ZM192.705 37.4062C192.813 37.5742 192.957 37.7002 193.137 37.7842C193.329 37.8562 193.539 37.8922 193.767 37.8922C194.031 37.8922 194.259 37.8322 194.451 37.7122C194.655 37.5922 194.757 37.4362 194.757 37.2442C194.757 37.0282 194.667 36.8422 194.487 36.6862C194.319 36.5302 194.073 36.4522 193.749 36.4522C193.425 36.4522 193.167 36.5542 192.975 36.7582C192.795 36.9502 192.705 37.1662 192.705 37.4062ZM205.327 42.4102C204.895 42.4102 204.571 42.2902 204.355 42.0502C204.151 41.8102 204.025 41.5162 203.977 41.1682C203.929 40.8202 203.905 40.3702 203.905 39.8182C203.905 39.1102 203.809 38.5642 203.617 38.1802C203.425 37.7962 203.113 37.6042 202.681 37.6042C202.285 37.6042 201.985 37.7962 201.781 38.1802C201.589 38.5522 201.493 39.0682 201.493 39.7282C201.493 40.3642 201.475 40.8442 201.439 41.1682C201.403 41.4922 201.283 41.7802 201.079 42.0322C200.875 42.2722 200.539 42.3922 200.071 42.3922C199.387 42.3922 198.907 41.9542 198.631 41.0782C198.355 40.1902 198.217 39.1522 198.217 37.9642C198.217 35.0842 198.823 33.6442 200.035 33.6442C200.371 33.6442 200.647 33.7282 200.863 33.8962C201.079 34.0522 201.229 34.2802 201.313 34.5802C201.469 34.4122 201.709 34.2622 202.033 34.1302C202.369 33.9982 202.723 33.9322 203.095 33.9322C204.415 33.9322 205.399 34.4122 206.047 35.3722C206.707 36.3322 207.037 37.6342 207.037 39.2782C207.037 40.2502 206.911 41.0182 206.659 41.5822C206.407 42.1342 205.963 42.4102 205.327 42.4102ZM216.001 34.6162C216.001 35.2402 215.707 35.6662 215.119 35.8942C214.531 36.1102 213.727 36.2242 212.707 36.2362C212.695 36.5362 212.689 37.0222 212.689 37.6942C212.689 38.3782 212.737 38.8642 212.833 39.1522C212.893 39.3562 212.983 39.4882 213.103 39.5482C213.235 39.6082 213.427 39.6502 213.679 39.6742C213.763 39.6862 213.853 39.7042 213.949 39.7282C214.057 39.7402 214.177 39.7582 214.309 39.7822C214.585 39.8422 214.801 39.9922 214.957 40.2322C215.113 40.4602 215.191 40.7542 215.191 41.1142C215.191 41.5222 214.981 41.8402 214.561 42.0682C214.141 42.2962 213.565 42.4102 212.833 42.4102C212.161 42.4102 211.519 42.2182 210.907 41.8342C210.295 41.4382 209.875 40.9102 209.647 40.2502C209.407 39.5422 209.287 38.2042 209.287 36.2362C208.447 36.2122 207.769 36.1042 207.253 35.9122C206.749 35.7082 206.497 35.3482 206.497 34.8322C206.497 34.1842 206.737 33.7522 207.217 33.5362C207.697 33.3082 208.387 33.1882 209.287 33.1762C209.323 32.2162 209.473 31.4182 209.737 30.7822C210.001 30.1342 210.475 29.8102 211.159 29.8102C211.855 29.8102 212.305 30.1102 212.509 30.7102C212.725 31.3102 212.821 32.1322 212.797 33.1762C213.889 33.1642 214.693 33.2482 215.209 33.4282C215.737 33.6082 216.001 34.0042 216.001 34.6162ZM231.281 39.5302C231.857 39.7102 232.145 40.0882 232.145 40.6642C232.145 41.2042 231.869 41.6302 231.317 41.9422C230.765 42.2542 229.811 42.4102 228.455 42.4102C226.763 42.4102 225.311 42.0022 224.099 41.1862C222.899 40.3702 222.299 38.7502 222.299 36.3262C222.299 35.1022 222.509 33.9982 222.929 33.0142C223.349 32.0302 223.973 31.2502 224.801 30.6742C225.641 30.0982 226.667 29.8102 227.879 29.8102C229.499 29.8102 230.639 30.0622 231.299 30.5662C231.959 31.0582 232.289 31.6642 232.289 32.3842C232.289 32.7202 232.205 33.0322 232.037 33.3202C231.869 33.5962 231.617 33.8122 231.281 33.9682C230.993 34.1122 230.621 34.1842 230.165 34.1842L229.679 34.1662C229.583 34.1542 229.445 34.1482 229.265 34.1482C228.641 34.1482 228.149 34.2622 227.789 34.4902C227.429 34.7062 227.183 35.0422 227.051 35.4982C227.555 35.4742 228.011 35.4622 228.419 35.4622C229.631 35.4622 230.417 35.4982 230.777 35.5702C231.185 35.6542 231.497 35.8162 231.713 36.0562C231.941 36.2962 232.055 36.5782 232.055 36.9022C232.055 37.2262 231.947 37.5082 231.731 37.7482C231.515 37.9762 231.191 38.1322 230.759 38.2162C230.423 38.2882 229.607 38.3242 228.311 38.3242C227.783 38.3242 227.411 38.3182 227.195 38.3062C227.567 39.0982 228.263 39.4942 229.283 39.4942C229.343 39.4942 229.481 39.4822 229.697 39.4582C229.985 39.4342 230.231 39.4222 230.435 39.4222C230.783 39.4222 231.065 39.4582 231.281 39.5302ZM239.803 33.9502C240.235 33.9502 240.583 34.0822 240.847 34.3462C241.111 34.5982 241.243 34.9402 241.243 35.3722C241.243 35.7922 241.117 36.2362 240.865 36.7042C240.625 37.1722 240.271 37.6942 239.803 38.2702C240.751 39.4222 241.225 40.3102 241.225 40.9342C241.225 41.3902 241.081 41.7562 240.793 42.0322C240.517 42.2962 240.133 42.4282 239.641 42.4282C239.029 42.4282 238.219 41.9722 237.211 41.0602C236.299 41.8882 235.549 42.3442 234.961 42.4282C234.889 42.4402 234.793 42.4462 234.673 42.4462C234.229 42.4462 233.869 42.3202 233.593 42.0682C233.329 41.8162 233.197 41.4742 233.197 41.0422C233.197 40.6822 233.317 40.2742 233.557 39.8182C233.797 39.3622 234.139 38.8462 234.583 38.2702C234.139 37.7422 233.797 37.2742 233.557 36.8662C233.329 36.4462 233.215 36.0382 233.215 35.6422C233.215 35.1142 233.347 34.7062 233.611 34.4182C233.887 34.1302 234.271 33.9862 234.763 33.9862C235.099 33.9862 235.465 34.1122 235.861 34.3642C236.257 34.6042 236.695 34.9522 237.175 35.4082C237.667 34.9402 238.123 34.5802 238.543 34.3282C238.975 34.0762 239.395 33.9502 239.803 33.9502ZM243.629 44.9842C243.041 44.9842 242.615 44.6842 242.351 44.0842C242.087 43.4962 241.925 42.8242 241.865 42.0682C241.817 41.3122 241.793 40.3162 241.793 39.0802C241.793 38.1322 241.829 37.2982 241.901 36.5782C241.985 35.8582 242.171 35.2342 242.459 34.7062C242.747 34.1782 243.185 33.9142 243.773 33.9142C244.385 33.9142 244.829 34.1542 245.105 34.6342C245.381 34.4302 245.723 34.2682 246.131 34.1482C246.551 34.0162 246.989 33.9502 247.445 33.9502C248.213 33.9502 248.921 34.1422 249.569 34.5262C250.217 34.9102 250.733 35.4262 251.117 36.0742C251.501 36.7222 251.693 37.4302 251.693 38.1982C251.693 38.9662 251.501 39.6802 251.117 40.3402C250.733 40.9882 250.217 41.5042 249.569 41.8882C248.921 42.2722 248.213 42.4642 247.445 42.4642C246.977 42.4642 246.539 42.4042 246.131 42.2842C245.723 42.1522 245.375 41.9782 245.087 41.7622C245.087 42.5302 245.063 43.1242 245.015 43.5442C244.967 43.9642 244.835 44.3062 244.619 44.5702C244.415 44.8462 244.085 44.9842 243.629 44.9842ZM247.355 39.4762C247.667 39.4762 247.937 39.3622 248.165 39.1342C248.405 38.8942 248.525 38.6182 248.525 38.3062C248.525 37.9942 248.405 37.7242 248.165 37.4962C247.937 37.2562 247.667 37.1362 247.355 37.1362C247.043 37.1362 246.767 37.2562 246.527 37.4962C246.299 37.7242 246.185 37.9942 246.185 38.3062C246.185 38.6182 246.299 38.8942 246.527 39.1342C246.767 39.3622 247.043 39.4762 247.355 39.4762ZM254.161 42.4102C253.393 42.4102 252.877 41.9602 252.613 41.0602C252.361 40.1602 252.235 38.9182 252.235 37.3342C252.235 36.6142 252.265 36.0142 252.325 35.5342C252.397 35.0422 252.559 34.6282 252.811 34.2922C253.075 33.9442 253.477 33.7702 254.017 33.7702C254.353 33.7702 254.647 33.8482 254.899 34.0042C255.163 34.1602 255.331 34.3822 255.403 34.6702C255.667 34.4302 256.009 34.2502 256.429 34.1302C256.849 34.0102 257.299 33.9502 257.779 33.9502C258.163 33.9502 258.553 34.0462 258.949 34.2382C259.357 34.4302 259.693 34.6942 259.957 35.0302C260.233 35.3542 260.371 35.7082 260.371 36.0922C260.371 36.4762 260.233 36.8182 259.957 37.1182C259.693 37.4062 259.339 37.5502 258.895 37.5502C258.751 37.5502 258.613 37.5322 258.481 37.4962C258.361 37.4602 258.253 37.4242 258.157 37.3882C257.917 37.2922 257.725 37.2442 257.581 37.2442C257.113 37.2442 256.699 37.4302 256.339 37.8022C255.991 38.1622 255.817 38.6302 255.817 39.2062C255.817 39.8422 255.793 40.3702 255.745 40.7902C255.697 41.2102 255.553 41.5882 255.313 41.9242C255.073 42.2482 254.689 42.4102 254.161 42.4102ZM264.891 42.4102C264.003 42.4102 263.217 42.2362 262.533 41.8882C261.849 41.5402 261.315 41.0542 260.931 40.4302C260.559 39.7942 260.373 39.0802 260.373 38.2882C260.373 37.5082 260.559 36.7882 260.931 36.1282C261.315 35.4682 261.843 34.9402 262.515 34.5442C263.187 34.1482 263.949 33.9502 264.801 33.9502C265.569 33.9502 266.247 34.1062 266.835 34.4182C267.423 34.7302 267.873 35.1442 268.185 35.6602C268.497 36.1642 268.653 36.6922 268.653 37.2442C268.653 38.1442 268.311 38.8042 267.627 39.2242C266.955 39.6322 266.151 39.8362 265.215 39.8362C264.591 39.8362 264.063 39.7582 263.631 39.6022C263.991 40.1902 264.585 40.4842 265.413 40.4842C265.749 40.4842 266.109 40.4422 266.493 40.3582C266.637 40.3222 266.775 40.3042 266.907 40.3042C267.171 40.3042 267.381 40.3702 267.537 40.5022C267.705 40.6342 267.789 40.8142 267.789 41.0422C267.789 41.4142 267.561 41.7382 267.105 42.0142C266.649 42.2782 265.911 42.4102 264.891 42.4102ZM263.685 37.4062C263.793 37.5742 263.937 37.7002 264.117 37.7842C264.309 37.8562 264.519 37.8922 264.747 37.8922C265.011 37.8922 265.239 37.8322 265.431 37.7122C265.635 37.5922 265.737 37.4362 265.737 37.2442C265.737 37.0282 265.647 36.8422 265.467 36.6862C265.299 36.5302 265.053 36.4522 264.729 36.4522C264.405 36.4522 264.147 36.5542 263.955 36.7582C263.775 36.9502 263.685 37.1662 263.685 37.4062ZM272.653 42.4102C271.597 42.4102 270.757 42.2362 270.133 41.8882C269.509 41.5402 269.197 41.0902 269.197 40.5382C269.197 40.1782 269.317 39.9022 269.557 39.7102C269.809 39.5062 270.127 39.4042 270.511 39.4042C270.727 39.4042 270.901 39.4342 271.033 39.4942C271.165 39.5542 271.297 39.6382 271.429 39.7462C271.525 39.8302 271.603 39.8902 271.663 39.9262C271.735 39.9622 271.819 39.9802 271.915 39.9802C272.167 39.9802 272.293 39.8902 272.293 39.7102C272.293 39.5422 272.227 39.4162 272.095 39.3322C271.963 39.2362 271.735 39.1222 271.411 38.9902C271.111 38.8702 270.913 38.7862 270.817 38.7382C270.265 38.4742 269.857 38.1622 269.593 37.8022C269.329 37.4422 269.197 37.0582 269.197 36.6502C269.197 36.1942 269.359 35.7622 269.683 35.3542C270.019 34.9342 270.487 34.5982 271.087 34.3462C271.699 34.0822 272.401 33.9502 273.193 33.9502C273.877 33.9502 274.495 34.0462 275.047 34.2382C275.611 34.4302 276.055 34.6942 276.379 35.0302C276.703 35.3542 276.865 35.7142 276.865 36.1102C276.865 36.4822 276.745 36.7642 276.505 36.9562C276.277 37.1482 275.965 37.2442 275.569 37.2442C275.413 37.2442 275.287 37.2322 275.191 37.2082C275.107 37.1722 274.993 37.1182 274.849 37.0462C274.765 36.9982 274.675 36.9562 274.579 36.9202C274.495 36.8842 274.399 36.8662 274.291 36.8662C274.195 36.8662 274.111 36.9022 274.039 36.9742C273.967 37.0342 273.931 37.1122 273.931 37.2082C273.931 37.3882 274.063 37.5202 274.327 37.6042C275.023 37.8322 275.581 38.1202 276.001 38.4682C276.433 38.8162 276.649 39.2962 276.649 39.9082C276.649 40.6882 276.283 41.3002 275.551 41.7442C274.831 42.1882 273.865 42.4102 272.653 42.4102ZM280.862 42.4102C279.806 42.4102 278.966 42.2362 278.342 41.8882C277.718 41.5402 277.406 41.0902 277.406 40.5382C277.406 40.1782 277.526 39.9022 277.766 39.7102C278.018 39.5062 278.336 39.4042 278.72 39.4042C278.936 39.4042 279.11 39.4342 279.242 39.4942C279.374 39.5542 279.506 39.6382 279.638 39.7462C279.734 39.8302 279.812 39.8902 279.872 39.9262C279.944 39.9622 280.028 39.9802 280.124 39.9802C280.376 39.9802 280.502 39.8902 280.502 39.7102C280.502 39.5422 280.436 39.4162 280.304 39.3322C280.172 39.2362 279.944 39.1222 279.62 38.9902C279.32 38.8702 279.122 38.7862 279.026 38.7382C278.474 38.4742 278.066 38.1622 277.802 37.8022C277.538 37.4422 277.406 37.0582 277.406 36.6502C277.406 36.1942 277.568 35.7622 277.892 35.3542C278.228 34.9342 278.696 34.5982 279.296 34.3462C279.908 34.0822 280.61 33.9502 281.402 33.9502C282.086 33.9502 282.704 34.0462 283.256 34.2382C283.82 34.4302 284.264 34.6942 284.588 35.0302C284.912 35.3542 285.074 35.7142 285.074 36.1102C285.074 36.4822 284.954 36.7642 284.714 36.9562C284.486 37.1482 284.174 37.2442 283.778 37.2442C283.622 37.2442 283.496 37.2322 283.4 37.2082C283.316 37.1722 283.202 37.1182 283.058 37.0462C282.974 36.9982 282.884 36.9562 282.788 36.9202C282.704 36.8842 282.608 36.8662 282.5 36.8662C282.404 36.8662 282.32 36.9022 282.248 36.9742C282.176 37.0342 282.14 37.1122 282.14 37.2082C282.14 37.3882 282.272 37.5202 282.536 37.6042C283.232 37.8322 283.79 38.1202 284.21 38.4682C284.642 38.8162 284.858 39.2962 284.858 39.9082C284.858 40.6882 284.492 41.3002 283.76 41.7442C283.04 42.1882 282.074 42.4102 280.862 42.4102ZM290.305 35.5522C289.957 35.9002 289.549 36.0742 289.081 36.0742C288.613 36.0742 288.199 35.9002 287.839 35.5522C287.491 35.1922 287.317 34.7782 287.317 34.3102C287.317 33.8422 287.491 33.4342 287.839 33.0862C288.199 32.7262 288.613 32.5462 289.081 32.5462C289.549 32.5462 289.957 32.7262 290.305 33.0862C290.665 33.4342 290.845 33.8422 290.845 34.3102C290.845 34.7782 290.665 35.1922 290.305 35.5522ZM290.305 41.3482C289.957 41.6962 289.549 41.8702 289.081 41.8702C288.613 41.8702 288.199 41.6962 287.839 41.3482C287.491 40.9882 287.317 40.5742 287.317 40.1062C287.317 39.6382 287.491 39.2302 287.839 38.8822C288.199 38.5222 288.613 38.3422 289.081 38.3422C289.549 38.3422 289.957 38.5222 290.305 38.8822C290.665 39.2302 290.845 39.6382 290.845 40.1062C290.845 40.5742 290.665 40.9882 290.305 41.3482Z" fill="black"/>
<path d="M190.727 20.9903C204.785 14.8397 249.904 5.70177 317.911 18.3543M332.409 20.9903L345.589 23.6237" stroke="white" stroke-width="5" stroke-linecap="round"/>
<path d="M78.5151 607.159C86.1963 608.622 76.2289 619.199 71.6567 622.704L68.9135 624.99H64.3413H60.2265C59.3121 622.247 61.141 608.073 66.1703 608.53C69.5511 608.838 69.4033 611.103 68.6825 612.724C70.6962 609.215 73.8942 606.278 78.5151 607.159Z" fill="#71A20F"/>
<path d="M66.1703 619.503C66.4914 617.844 67.162 615.648 68.2296 613.56M71.6567 622.704C76.2289 619.199 86.1963 608.622 78.5151 607.159C73.531 606.209 70.2025 609.7 68.2296 613.56M68.2296 613.56C69.2196 612.036 70.1938 608.896 66.1703 608.53C61.141 608.073 59.3121 622.247 60.2265 624.99" stroke="black" stroke-linecap="round"/>
</svg>
