<svg width="301" height="489" viewBox="0 0 301 489" fill="none" xmlns="http://www.w3.org/2000/svg">
<path d="M163.765 379.837C85.7556 411.268 39.8526 391.131 26.5703 377.05C26.534 377.012 26.5039 376.974 26.4744 376.93C21.4239 369.406 17.9058 353.522 43.9667 349.652C70.1025 345.771 137.27 357.149 167.587 363.324C166.469 369.662 165.255 375.377 164.369 379.141C164.295 379.456 164.065 379.716 163.765 379.837Z" fill="#E0BE8F"/>
<path d="M170.562 336.422C170.562 344.133 169.17 354.353 167.587 363.324M167.587 363.324C166.469 369.662 165.255 375.377 164.369 379.141C164.295 379.456 164.065 379.716 163.765 379.837C85.7556 411.268 39.8526 391.131 26.5703 377.05C26.534 377.012 26.5039 376.974 26.4744 376.93C21.4239 369.406 17.9058 353.522 43.9667 349.652C70.1025 345.771 137.27 357.149 167.587 363.324Z" stroke="black"/>
<path d="M165.413 384.076C107.846 407.527 73.9584 392.487 64.1293 381.952C64.0933 381.914 64.0634 381.876 64.0343 381.832C60.3065 376.192 57.7294 364.318 76.9764 361.424C96.2975 358.518 145.952 367.037 168.364 371.66C167.549 376.336 166.666 380.558 166.014 383.378C165.941 383.692 165.712 383.954 165.413 384.076Z" fill="#9E896B"/>
<path d="M170.563 351.518C170.563 357.291 169.534 364.944 168.364 371.66M168.364 371.66C167.549 376.336 166.666 380.558 166.014 383.378C165.941 383.692 165.712 383.954 165.413 384.076C107.846 407.527 73.9584 392.487 64.1293 381.952C64.0933 381.914 64.0634 381.876 64.0343 381.832C60.3065 376.192 57.7294 364.318 76.9764 361.424C96.2975 358.518 145.952 367.037 168.364 371.66Z" stroke="black"/>
<g filter="url(#filter0_i_32299_9910)">
<path d="M216.427 353.298C226.61 387.573 205.003 382.501 179.07 382.501C149.569 382.501 134.951 387.242 136.336 365.534C138.043 338.789 155.823 328.383 167.311 324.747C168.839 324.365 170.416 324.075 172.026 323.884C169.715 322.046 165.37 318.146 166.479 317.259C167.866 316.149 171.472 318.645 173.413 317.259C175.355 315.872 177.574 312.821 181.179 314.485C184.785 316.149 183.676 318.091 187.281 317.259C190.887 316.427 193.661 316.427 189.5 321.142C186.398 324.658 184.982 324.539 184.804 324.506C197.095 327.21 211.217 335.759 216.427 353.298Z" fill="#CF8D47"/>
<path d="M172.026 323.884C170.416 324.075 168.839 324.365 167.311 324.747C155.823 328.383 138.043 338.789 136.336 365.534C134.951 387.242 149.569 382.501 179.07 382.501C205.003 382.501 226.61 387.573 216.427 353.298C211.214 335.75 197.08 327.201 184.785 324.502M172.026 323.884C169.715 322.046 165.37 318.146 166.479 317.259C167.866 316.149 171.472 318.645 173.413 317.259C175.355 315.872 177.574 312.821 181.179 314.485C184.785 316.149 183.676 318.091 187.281 317.259C190.887 316.427 193.661 316.427 189.5 321.142C186.172 324.914 184.785 324.502 184.785 324.502M172.026 323.884C173.302 323.733 174.599 323.644 175.909 323.622M184.785 324.502C183.565 324.234 182.341 324.029 181.119 323.884M181.119 323.884L183.953 318.368M181.119 323.884C179.372 323.677 177.629 323.592 175.909 323.622M175.909 323.622C175.077 322.61 173.413 320.365 173.413 319.478" stroke="black" stroke-linecap="round" stroke-linejoin="round"/>
<path d="M175.078 320.863C170.375 321.451 170.632 323.161 170.917 323.914C170.917 323.914 174.245 323.637 178.129 323.637C182.537 323.637 186.45 324.746 186.45 324.746C187.004 322.25 181.734 320.031 175.078 320.863Z" fill="#D73F3F" stroke="black"/>
</g>
<g filter="url(#filter1_i_32299_9910)">
<path d="M109.049 360.435C117.818 389.952 99.2112 385.583 76.8788 385.583C51.4729 385.583 38.8844 389.666 40.0776 370.972C41.5476 347.94 56.8588 338.979 66.7521 335.848C68.0682 335.519 69.4262 335.269 70.8127 335.105C68.8222 333.522 65.0801 330.163 66.0355 329.399C67.2298 328.444 70.335 330.593 72.007 329.399C73.679 328.205 75.5899 325.577 78.695 327.011C81.8002 328.444 80.8447 330.116 83.9499 329.399C87.055 328.683 89.4436 328.683 85.8608 332.743C83.1887 335.771 81.9697 335.669 81.8167 335.641C92.401 337.969 104.562 345.331 109.049 360.435Z" fill="#CF8D47"/>
<path d="M70.8127 335.105C69.4262 335.269 68.0682 335.519 66.7521 335.848C56.8588 338.979 41.5476 347.94 40.0776 370.972C38.8844 389.666 51.4729 385.583 76.8788 385.583C99.2112 385.583 117.818 389.952 109.049 360.435C104.56 345.323 92.3883 337.961 81.8002 335.637M70.8127 335.105C68.8222 333.522 65.0801 330.163 66.0355 329.399C67.2298 328.444 70.335 330.593 72.007 329.399C73.679 328.205 75.5899 325.577 78.695 327.011C81.8002 328.444 80.8447 330.116 83.9499 329.399C87.055 328.683 89.4436 328.683 85.8608 332.743C82.9945 335.992 81.8002 335.637 81.8002 335.637M70.8127 335.105C71.9117 334.975 73.0286 334.898 74.1567 334.879M81.8002 335.637C80.7491 335.406 79.6949 335.23 78.6429 335.105M78.6429 335.105L81.0836 330.355M78.6429 335.105C77.1382 334.926 75.6378 334.853 74.1567 334.879M74.1567 334.879C73.4401 334.008 72.007 332.074 72.007 331.31" stroke="black" stroke-linecap="round" stroke-linejoin="round"/>
<path d="M73.441 332.505C69.3917 333.011 69.6128 334.484 69.8579 335.132C69.8579 335.132 72.7244 334.893 76.0684 334.893C79.8644 334.893 83.2341 335.849 83.2341 335.849C83.7116 333.699 79.1734 331.788 73.441 332.505Z" fill="#D73F3F" stroke="black"/>
</g>
<g filter="url(#filter2_d_32299_9910)">
<path d="M156.161 378.515C166.344 412.79 144.738 407.717 118.805 407.717C89.303 407.717 74.685 412.459 76.0705 390.751C77.7776 364.006 95.5572 353.6 107.045 349.964C108.574 349.582 110.151 349.292 111.761 349.101C109.449 347.262 105.104 343.363 106.213 342.475C107.6 341.366 111.206 343.862 113.148 342.475C115.089 341.089 117.308 338.038 120.914 339.702C124.52 341.366 123.41 343.308 127.016 342.475C130.622 341.643 133.395 341.643 129.235 346.359C126.132 349.875 124.716 349.756 124.539 349.723C136.829 352.427 150.951 360.976 156.161 378.515Z" fill="#CF8D47"/>
<path d="M111.761 349.101C110.151 349.292 108.574 349.582 107.045 349.964C95.5572 353.6 77.7776 364.006 76.0705 390.751C74.685 412.459 89.303 407.717 118.805 407.717C144.738 407.717 166.344 412.79 156.161 378.515C150.948 360.966 136.815 352.418 124.52 349.719M111.761 349.101C109.449 347.262 105.104 343.363 106.213 342.475C107.6 341.366 111.206 343.862 113.148 342.475C115.089 341.089 117.308 338.038 120.914 339.702C124.52 341.366 123.41 343.308 127.016 342.475C130.622 341.643 133.395 341.643 129.235 346.359C125.906 350.131 124.52 349.719 124.52 349.719M111.761 349.101C113.037 348.95 114.334 348.861 115.644 348.839M124.52 349.719C123.299 349.451 122.075 349.246 120.853 349.101M120.853 349.101L123.687 343.585M120.853 349.101C119.106 348.894 117.364 348.809 115.644 348.839M115.644 348.839C114.812 347.827 113.148 345.582 113.148 344.694" stroke="black" stroke-linecap="round" stroke-linejoin="round"/>
<path d="M114.812 346.08C110.11 346.668 110.367 348.378 110.651 349.131C110.651 349.131 113.98 348.853 117.863 348.853C122.271 348.853 126.184 349.963 126.184 349.963C126.738 347.467 121.469 345.248 114.812 346.08Z" fill="#D73F3F" stroke="black"/>
</g>
<path d="M26.2604 313.676C33.9328 221.007 19.6276 124.661 11.2187 86.6255C11.0804 85.9997 11.5643 85.4434 12.2051 85.4434H211.477C212.108 85.4434 212.582 86.019 212.459 86.638C194.757 176.104 195.483 274.187 198.151 313.844C198.202 314.588 197.437 315.08 196.748 314.796C125.047 285.251 55.3404 301.935 27.6753 314.689C26.9712 315.013 26.1964 314.449 26.2604 313.676Z" fill="#E6E0B9" stroke="black"/>
<path d="M9.94922 83.8003C32.0807 77.3985 82.7998 56.9551 110.061 26.0814C110.452 25.6391 111.12 25.6102 111.532 26.0325C125.828 40.6807 164.348 71.5212 210.547 83.8003" stroke="black"/>
<rect x="108.383" y="1" width="7.45716" height="385.557" rx="3.72858" fill="#4E381D" stroke="black"/>
<rect x="1" y="81.7188" width="218.333" height="3.7214" rx="1.8607" fill="#4E381D" stroke="black"/>
<path d="M112.111 123.108C132.641 114.893 179.638 88.6923 205.008 49.1231C205.397 48.5174 206.268 48.4816 206.684 49.0685C220.099 67.9941 255.781 107.386 298.54 123.108" stroke="black"/>
<rect x="201.598" y="14.3828" width="7.45716" height="321.994" rx="3.72858" fill="#4E381D" stroke="black"/>
<rect x="102.535" y="121.169" width="203.733" height="3.7214" rx="1.8607" fill="#4E381D" stroke="black"/>
<g filter="url(#filter3_d_32299_9910)">
<path d="M122.613 295.181C129.564 226.138 116.576 154.443 108.845 125.755C108.673 125.117 109.161 124.52 109.821 124.52H292.716C293.365 124.52 293.842 125.127 293.689 125.757C277.556 192.457 278.164 265.46 280.592 295.32C280.65 296.042 279.941 296.554 279.255 296.324C213.425 274.245 149.437 286.691 123.958 296.239C123.255 296.502 122.538 295.928 122.613 295.181Z" fill="#FAF7E0"/>
<path d="M122.613 295.181C129.564 226.138 116.576 154.443 108.845 125.755C108.673 125.117 109.161 124.52 109.821 124.52H292.716C293.365 124.52 293.842 125.127 293.689 125.757C277.556 192.457 278.164 265.46 280.592 295.32C280.65 296.042 279.941 296.554 279.255 296.324C213.425 274.245 149.437 286.691 123.958 296.239C123.255 296.502 122.538 295.928 122.613 295.181Z" stroke="black"/>
</g>
<ellipse cx="172" cy="466" rx="117" ry="18" fill="black" fill-opacity="0.2"/>
<g filter="url(#filter4_i_32299_9910)">
<path d="M170.757 336.135C198.353 318.789 258.52 276.599 278.419 246.61H291.041L314.801 293.798C314.631 312.251 312.607 340.656 307.207 368.77C306.242 373.797 305.168 378.815 303.978 383.765C302.938 388.093 301.808 392.369 300.584 396.554C298.7 402.991 296.592 409.213 294.238 415.076C288.294 429.883 280.784 442.408 271.365 450.357C253.298 465.205 170.757 487.843 67.1789 454.326C60.7877 451.682 50.1878 443.196 41.2552 426.543C39.3982 423.081 37.6133 419.265 35.9532 415.076C34.6479 411.783 33.4199 408.258 32.2947 404.492C31.0359 400.279 29.9058 395.764 28.9404 390.933C28.0477 386.465 27.2957 381.728 26.7129 376.708C39.9541 390.821 86.0383 411.107 164.446 379.355C166.55 370.534 170.757 349.542 170.757 336.135Z" fill="#97784F"/>
</g>
<path d="M28.9404 390.933C28.0477 386.465 27.2957 381.728 26.7129 376.708C39.9541 390.821 86.0383 411.107 164.446 379.355C166.55 370.534 170.757 349.542 170.757 336.135C198.353 318.789 258.52 276.599 278.419 246.61H291.041L314.801 293.798C314.631 312.251 312.607 340.656 307.207 368.77M28.9404 390.933C64.4564 406.625 164.669 420.28 281.389 349.366C285.855 354.805 297.271 366.301 307.207 368.77M28.9404 390.933C29.9058 395.764 31.0359 400.279 32.2947 404.492M307.207 368.77C306.242 373.797 305.168 378.815 303.978 383.765M32.2947 404.492C77.2113 417.575 189.319 428.748 278.419 368.77C283.331 373.18 295.32 382.353 303.978 383.765M32.2947 404.492C33.4199 408.258 34.6479 411.783 35.9532 415.076M303.978 383.765C302.938 388.093 301.808 392.369 300.584 396.554M35.9532 415.076C74.7003 428.234 177.439 441.827 278.419 390.933C279.831 393.247 286.24 397.612 300.584 396.554M35.9532 415.076C37.6133 419.265 39.3982 423.081 41.2552 426.543M300.584 396.554C298.7 402.991 296.592 409.213 294.238 415.076M41.2552 426.543C50.1878 443.196 60.7877 451.682 67.1789 454.326C170.757 487.843 253.298 465.205 271.365 450.357C280.784 442.408 288.294 429.883 294.238 415.076M41.2552 426.543C64.6226 438.156 144.027 452.121 274.706 415.076C277.97 416.987 286.446 419.663 294.238 415.076" stroke="black"/>
<path d="M278.127 247.046C257.975 276.952 198.437 318.72 170.907 336.041C170.804 336.106 170.719 336.183 170.652 336.285C169.832 337.53 168.713 341.037 169.712 346.68C169.83 347.353 170.565 347.692 171.149 347.337C198.997 330.389 257.362 290.858 278.125 262.015C278.314 261.752 278.611 261.605 278.935 261.605H290.428C290.804 261.605 291.148 261.816 291.319 262.151L312.686 304.112C313.151 305.026 314.519 304.73 314.558 303.705C314.691 300.256 314.769 297.02 314.798 294.041C314.8 293.881 314.763 293.724 314.692 293.582L291.318 247.161C291.148 246.823 290.803 246.61 290.425 246.61H278.955C278.62 246.61 278.314 246.768 278.127 247.046Z" fill="#4E381D"/>
<path d="M163.959 379.551C85.9758 410.972 40.0774 390.858 26.778 376.778C26.7326 376.73 26.6846 376.689 26.6312 376.65C23.6694 374.486 23.1234 371.179 23.0227 368.133C22.9955 367.308 23.9476 366.829 24.6258 367.3C33.9034 373.743 55.5053 384.753 83.1422 386.411C111.515 388.113 148.311 376.811 164.826 370.337C165.567 370.047 166.335 370.691 166.176 371.471C165.589 374.344 165.031 376.869 164.564 378.853C164.49 379.168 164.259 379.43 163.959 379.551Z" fill="#4E381D"/>
<path d="M278.127 247.046C257.975 276.952 198.437 318.72 170.907 336.041C170.804 336.106 170.719 336.183 170.652 336.285C169.832 337.53 168.713 341.037 169.712 346.68C169.83 347.353 170.565 347.692 171.149 347.337C198.997 330.389 257.362 290.858 278.125 262.015C278.314 261.752 278.611 261.605 278.935 261.605H290.428C290.804 261.605 291.148 261.816 291.319 262.151L312.686 304.112C313.151 305.026 314.519 304.73 314.558 303.705C314.691 300.256 314.769 297.02 314.798 294.041C314.8 293.881 314.763 293.724 314.692 293.582L291.318 247.161C291.148 246.823 290.803 246.61 290.425 246.61H278.955C278.62 246.61 278.314 246.768 278.127 247.046Z" stroke="black"/>
<path d="M163.959 379.551C85.9758 410.972 40.0774 390.858 26.778 376.778C26.7326 376.73 26.6846 376.689 26.6312 376.65C23.6694 374.486 23.1234 371.179 23.0227 368.133C22.9955 367.308 23.9476 366.829 24.6258 367.3C33.9034 373.743 55.5053 384.753 83.1422 386.411C111.515 388.113 148.311 376.811 164.826 370.337C165.567 370.047 166.335 370.691 166.176 371.471C165.589 374.344 165.031 376.869 164.564 378.853C164.49 379.168 164.259 379.43 163.959 379.551Z" stroke="black"/>
<path d="M278.047 234.697C278.027 323.565 271.79 418.846 258.974 457.603C258.834 458.026 258.991 458.483 259.398 458.666C263.911 460.694 270.911 453.879 271.736 450.799C288.834 386.979 292.265 292.411 293.262 235.483C293.266 235.259 293.193 235.042 293.053 234.867C287.93 228.426 281.356 231.411 278.371 233.972C278.16 234.153 278.047 234.419 278.047 234.697Z" fill="#4E381D" stroke="black"/>
<path opacity="0.3" d="M277 455.848C287.802 459.021 294 462.722 294 466.674C294 478.453 238.931 488.002 171 488.002C103.069 488.002 48 478.453 48 466.674C48 462.722 54.1979 459.021 65 455.848" stroke="white"/>
<path opacity="0.3" d="M77 468C80 471 100.3 477.5 157.5 479.5" stroke="white"/>
<defs>
<filter id="filter0_i_32299_9910" x="135.746" y="313.501" width="83.7539" height="69.9375" filterUnits="userSpaceOnUse" color-interpolation-filters="sRGB">
<feFlood flood-opacity="0" result="BackgroundImageFix"/>
<feBlend mode="normal" in="SourceGraphic" in2="BackgroundImageFix" result="shape"/>
<feColorMatrix in="SourceAlpha" type="matrix" values="0 0 0 0 0 0 0 0 0 0 0 0 0 0 0 0 0 0 127 0" result="hardAlpha"/>
<feOffset dx="8" dy="-10"/>
<feComposite in2="hardAlpha" operator="arithmetic" k2="-1" k3="1"/>
<feColorMatrix type="matrix" values="0 0 0 0 0 0 0 0 0 0 0 0 0 0 0 0 0 0 0.25 0"/>
<feBlend mode="normal" in2="shape" result="effect1_innerShadow_32299_9910"/>
</filter>
<filter id="filter1_i_32299_9910" x="39.5" y="326.094" width="72.2637" height="60.3672" filterUnits="userSpaceOnUse" color-interpolation-filters="sRGB">
<feFlood flood-opacity="0" result="BackgroundImageFix"/>
<feBlend mode="normal" in="SourceGraphic" in2="BackgroundImageFix" result="shape"/>
<feColorMatrix in="SourceAlpha" type="matrix" values="0 0 0 0 0 0 0 0 0 0 0 0 0 0 0 0 0 0 127 0" result="hardAlpha"/>
<feOffset dx="8" dy="-10"/>
<feComposite in2="hardAlpha" operator="arithmetic" k2="-1" k3="1"/>
<feColorMatrix type="matrix" values="0 0 0 0 0 0 0 0 0 0 0 0 0 0 0 0 0 0 0.25 0"/>
<feBlend mode="normal" in2="shape" result="effect1_innerShadow_32299_9910"/>
</filter>
<filter id="filter2_d_32299_9910" x="57.4805" y="338.718" width="101.754" height="78.9375" filterUnits="userSpaceOnUse" color-interpolation-filters="sRGB">
<feFlood flood-opacity="0" result="BackgroundImageFix"/>
<feColorMatrix in="SourceAlpha" type="matrix" values="0 0 0 0 0 0 0 0 0 0 0 0 0 0 0 0 0 0 127 0" result="hardAlpha"/>
<feOffset dx="-18" dy="9"/>
<feComposite in2="hardAlpha" operator="out"/>
<feColorMatrix type="matrix" values="0 0 0 0 0 0 0 0 0 0 0 0 0 0 0 0 0 0 0.25 0"/>
<feBlend mode="normal" in2="BackgroundImageFix" result="effect1_dropShadow_32299_9910"/>
<feBlend mode="normal" in="SourceGraphic" in2="effect1_dropShadow_32299_9910" result="shape"/>
</filter>
<filter id="filter3_d_32299_9910" x="85.3086" y="122.02" width="208.91" height="174.859" filterUnits="userSpaceOnUse" color-interpolation-filters="sRGB">
<feFlood flood-opacity="0" result="BackgroundImageFix"/>
<feColorMatrix in="SourceAlpha" type="matrix" values="0 0 0 0 0 0 0 0 0 0 0 0 0 0 0 0 0 0 127 0" result="hardAlpha"/>
<feOffset dx="-23" dy="-2"/>
<feComposite in2="hardAlpha" operator="out"/>
<feColorMatrix type="matrix" values="0 0 0 0 0 0 0 0 0 0 0 0 0 0 0 0 0 0 0.25 0"/>
<feBlend mode="normal" in2="BackgroundImageFix" result="effect1_dropShadow_32299_9910"/>
<feBlend mode="normal" in="SourceGraphic" in2="effect1_dropShadow_32299_9910" result="shape"/>
</filter>
<filter id="filter4_i_32299_9910" x="26.041" y="246.11" width="289.262" height="226.107" filterUnits="userSpaceOnUse" color-interpolation-filters="sRGB">
<feFlood flood-opacity="0" result="BackgroundImageFix"/>
<feBlend mode="normal" in="SourceGraphic" in2="BackgroundImageFix" result="shape"/>
<feColorMatrix in="SourceAlpha" type="matrix" values="0 0 0 0 0 0 0 0 0 0 0 0 0 0 0 0 0 0 127 0" result="hardAlpha"/>
<feOffset dy="-17"/>
<feComposite in2="hardAlpha" operator="arithmetic" k2="-1" k3="1"/>
<feColorMatrix type="matrix" values="0 0 0 0 0 0 0 0 0 0 0 0 0 0 0 0 0 0 0.25 0"/>
<feBlend mode="normal" in2="shape" result="effect1_innerShadow_32299_9910"/>
</filter>
</defs>
</svg>
