<svg xmlns="http://www.w3.org/2000/svg" width="26" height="26" viewBox="0 0 26 26" fill="none">
  <path d="M12.0271 1.48605C12.5877 1.00828 13.4123 1.00828 13.9729 1.48605L16.1628 3.35228C16.5632 3.6935 17.0611 3.89972 17.5855 3.94157L20.4536 4.17045C21.1879 4.22904 21.771 4.81211 21.8296 5.54637L22.0584 8.41449C22.1003 8.93891 22.3065 9.43676 22.6477 9.83717L24.5139 12.0271C24.9917 12.5877 24.9917 13.4123 24.5139 13.9729L22.6477 16.1628C22.3065 16.5632 22.1003 17.0611 22.0584 17.5855L21.8296 20.4536C21.771 21.1879 21.1879 21.771 20.4536 21.8296L17.5855 22.0584C17.0611 22.1003 16.5632 22.3065 16.1628 22.6477L13.9729 24.5139C13.4123 24.9917 12.5877 24.9917 12.0271 24.5139L9.83717 22.6477C9.43676 22.3065 8.93891 22.1003 8.41449 22.0584L5.54637 21.8296C4.81211 21.771 4.22904 21.1879 4.17045 20.4536L3.94157 17.5855C3.89972 17.0611 3.69351 16.5632 3.35228 16.1628L1.48605 13.9729L1.1055 14.2972L1.48605 13.9729C1.00828 13.4123 1.00828 12.5877 1.48605 12.0271L3.35228 9.83717C3.6935 9.43676 3.89972 8.93891 3.94157 8.41449L4.17045 5.54637C4.22904 4.81211 4.81211 4.22904 5.54637 4.17045L8.41449 3.94157C8.93891 3.89972 9.43676 3.69351 9.83717 3.35228L12.0271 1.48605L11.7028 1.1055L12.0271 1.48605Z" fill="url(#paint0_linear_32299_10706)" stroke="black"/>
  <defs>
    <linearGradient id="paint0_linear_32299_10706" x1="13" y1="0" x2="13" y2="26" gradientUnits="userSpaceOnUse">
      <stop stop-color="#D2D3FF"/>
      <stop offset="1" stop-color="#9598DD"/>
    </linearGradient>
  </defs>
</svg>