<svg xmlns="http://www.w3.org/2000/svg" width="379" height="77" viewBox="0 0 379 77" fill="none">
  <g filter="url(#filter0_d_32299_10275)">
    <path d="M1 7C1 3.68629 3.68629 1 7 1H368C371.314 1 374 3.68629 374 7V10.6271V18.5174C374 19.5137 373.267 20.358 372.28 20.4976L361.246 22.0593L372.188 23.0917C373.215 23.1887 374 24.0511 374 25.0829V28.678V50.339V66C374 69.3137 371.314 72 368 72H7C3.6863 72 1 69.3137 1 66V60.563C1 59.5082 1.81906 58.6348 2.8716 58.5671L18.5367 57.5593L2.93142 57.0239C1.85418 56.9869 1 56.1029 1 55.0251V34.724C1 33.9683 1.42593 33.2772 2.10097 32.9375L5.78274 31.0847L2.75036 30.7033C1.7502 30.5774 1 29.7269 1 28.7189V18.75V7Z" fill="#BC9549"/>
    <path d="M1 18.75V7C1 3.68629 3.68629 1 7 1H368C371.314 1 374 3.68629 374 7V10.6271M1 18.75V28.7189C1 29.7269 1.7502 30.5774 2.75036 30.7033L5.78274 31.0847M1 18.75H11.3626M5.78274 31.0847L2.10097 32.9375C1.42593 33.2772 1 33.9683 1 34.724V55.0251C1 56.1029 1.85418 56.9869 2.93142 57.0239L18.5367 57.5593L2.8716 58.5671C1.81906 58.6348 1 59.5082 1 60.563V66C1 69.3137 3.6863 72 7 72H368C371.314 72 374 69.3137 374 66V50.339M5.78274 31.0847H19.3338M194.701 62.9746H253.688M318.998 63.5763H367.623M367.623 28.678H346.101M374 10.6271V18.5174C374 19.5137 373.267 20.358 372.28 20.4976L361.246 22.0593L372.188 23.0917C373.215 23.1887 374 24.0511 374 25.0829V28.678M374 10.6271H356.463M370.811 28.678H374M374 28.678V50.339M374 50.339H366.826M286.316 10.6271H318.998" stroke="black" stroke-linecap="round" stroke-linejoin="round"/>
  </g>
  <defs>
    <filter id="filter0_d_32299_10275" x="0.5" y="0.5" width="378" height="76" filterUnits="userSpaceOnUse" color-interpolation-filters="sRGB">
      <feFlood flood-opacity="0" result="BackgroundImageFix"/>
      <feColorMatrix in="SourceAlpha" type="matrix" values="0 0 0 0 0 0 0 0 0 0 0 0 0 0 0 0 0 0 127 0" result="hardAlpha"/>
      <feOffset dx="4" dy="4"/>
      <feComposite in2="hardAlpha" operator="out"/>
      <feColorMatrix type="matrix" values="0 0 0 0 0.294118 0 0 0 0 0.215686 0 0 0 0 0.121569 0 0 0 1 0"/>
      <feBlend mode="normal" in2="BackgroundImageFix" result="effect1_dropShadow_32299_10275"/>
      <feBlend mode="normal" in="SourceGraphic" in2="effect1_dropShadow_32299_10275" result="shape"/>
    </filter>
  </defs>
</svg>