<svg width="24" height="24" viewBox="0 0 24 24" fill="none" xmlns="http://www.w3.org/2000/svg">
<path d="M10.8447 2.36133C11.328 1.0554 13.175 1.0554 13.6582 2.36133L15.8691 8.33789C15.9198 8.47464 16.0283 8.5822 16.165 8.63281L22.1416 10.8447C23.4472 11.3281 23.4473 13.1749 22.1416 13.6582L16.165 15.8691C16.0282 15.9198 15.9198 16.0282 15.8691 16.165L13.6582 22.1416C13.1749 23.4473 11.3281 23.4472 10.8447 22.1416L8.63281 16.165C8.5822 16.0283 8.47464 15.9198 8.33789 15.8691L2.36133 13.6582C1.0554 13.175 1.0554 11.328 2.36133 10.8447L8.33789 8.63281C8.47445 8.58216 8.58216 8.47445 8.63281 8.33789L10.8447 2.36133Z" fill="#FFE100" stroke="black"/>
</svg>
