<svg xmlns="http://www.w3.org/2000/svg" width="73" height="77" viewBox="0 0 73 77" fill="none">
  <path d="M24.0193 13.1646C14.2101 23.4191 18.44 37.7558 22.055 44.0014C22.5523 40.6767 24.2806 38.3571 25.0826 37.6128C18.5129 24.6391 23.0567 12.55 23.8946 17.4112C24.7326 22.2723 29.4039 24.0285 32.701 25.2676C35.3387 26.259 36.892 25.7974 37.3389 25.4427C40.9834 21.4189 38.0724 16.677 36.1613 14.809C43.5678 15.4602 46.7052 11.089 47.3482 8.82203C41.4537 12.4079 40.4304 2.61665 31.4959 5.53042C24.3484 7.86144 23.5334 11.5911 24.0193 13.1646Z" fill="#99D137"/>
  <path d="M26.2699 11.0922C25.4488 11.7606 24.7002 12.4528 24.0193 13.1646M24.0193 13.1646C14.2101 23.4191 18.44 37.7558 22.055 44.0014C22.5523 40.6767 24.2806 38.3571 25.0826 37.6128C18.5129 24.6391 23.0567 12.55 23.8946 17.4112C24.7326 22.2723 29.4039 24.0285 32.701 25.2676C35.3387 26.259 36.892 25.7974 37.3389 25.4427C40.9834 21.4189 38.0724 16.677 36.1613 14.809M24.0193 13.1646C23.5334 11.5911 24.3484 7.86144 31.4959 5.53042C40.4304 2.61665 41.4537 12.4079 47.3482 8.82203C46.7052 11.089 43.5678 15.4602 36.1613 14.809M36.1613 14.809C34.1411 13.3703 29.0765 11.0489 24.9798 13.2722M29.726 11.5747C30.9686 11.4668 34.1206 10.8117 36.7878 9.05468M33.7618 12.9346C34.6718 13.4334 37.4612 13.8546 41.3381 11.5487M25.853 17.2064C26.9585 18.6042 30.2169 21.6995 34.4074 22.8981" stroke="black" stroke-linecap="round" stroke-linejoin="round"/>
  <path d="M19.5671 29.2863C20.0803 33.1292 21.4309 36.4876 22.4577 38.3848C22.625 38.6938 22.5834 39.0698 22.3934 39.3653C21.9855 39.9998 20.8984 40.0129 20.6695 39.2943C19.385 35.2625 18.8559 31.8771 18.7491 29.1831C18.7033 28.026 19.4139 28.1385 19.5671 29.2863Z" fill="#EBF479"/>
  <path d="M36.765 17.455C34.4104 14.2528 30.4666 13.4801 28.3506 13.5664C30.3632 13.6424 33.2883 15.9452 35.6195 18.1881C36.3701 18.9103 37.3821 18.2942 36.765 17.455Z" fill="#EBF479"/>
  <path d="M52.5219 37.4812C44.1136 36.5131 43.8824 27.1047 33.0217 29.1654C23.8173 30.9119 21.5728 38.3096 21.2925 42.706L20.0837 40.0415C14.3669 48.7132 24.6064 72.9869 47.9827 68.0737C69.3086 63.5915 63.8362 38.7838 52.5219 37.4812Z" fill="#FFCE09"/>
  <path d="M21.2925 42.706C21.2761 42.963 21.268 43.2078 21.2674 43.4385C21.8378 50.2109 26.7664 63.7535 41.9179 63.7443M21.2925 42.706C21.5728 38.3096 23.8173 30.9119 33.0217 29.1654C43.8824 27.1047 44.1136 36.5131 52.5219 37.4812C63.8362 38.7838 69.3086 63.5915 47.9827 68.0737C24.6064 72.9869 14.3669 48.7132 20.0837 40.0415L21.2925 42.706Z" stroke="black" stroke-linecap="round" stroke-linejoin="round"/>
  <path fill-rule="evenodd" clip-rule="evenodd" d="M32.3652 39.1065C31.4138 38.4923 31.1405 37.223 31.7547 36.2716C32.369 35.3202 33.6383 35.0468 34.5897 35.6611L36.4654 36.8721C37.4313 36.3477 38.4126 36.0603 39.4094 36.0096C40.7221 35.943 41.9878 36.3031 43.2065 37.0899C44.1743 37.7148 44.8957 38.4853 45.3708 39.4014C45.8574 40.2996 46.1303 41.3518 46.1895 42.5581C46.7251 41.9644 47.4539 41.6223 48.3756 41.5318C49.309 41.4234 50.1789 41.6296 50.9855 42.1503C51.8457 42.7057 52.5108 43.4652 52.9806 44.4287C53.4272 45.3288 53.5556 46.4478 53.3658 47.7858L53.8842 48.1205C54.8357 48.7348 55.109 50.004 54.4947 50.9555C53.9322 51.8268 52.8203 52.1294 51.9063 51.7024C51.7287 52.0135 51.5354 52.331 51.3264 52.6546C50.9035 53.3011 50.4694 53.8901 50.0239 54.4217C50.858 55.0662 51.0731 56.2535 50.4909 57.1552C49.8767 58.1066 48.6074 58.38 47.656 57.7657L46.7582 57.1861C46.1238 57.5259 45.4711 57.7724 44.8001 57.9255C42.3995 58.4578 39.5683 57.6711 36.3064 55.5651C33.3491 53.6559 31.491 51.4405 30.732 48.919C30.4964 48.1509 30.3742 47.379 30.3654 46.6033L28.3614 45.3095C27.41 44.6952 27.1367 43.426 27.7509 42.4745C28.3652 41.5231 29.6345 41.2498 30.5859 41.864L31.41 42.3961C31.6112 41.9965 31.8414 41.5959 32.1007 41.1943C32.4595 40.6385 32.8313 40.1257 33.2161 39.6559L32.3652 39.1065ZM40.1011 48.0355C40.4707 47.8171 40.8117 47.4659 41.1241 46.982C41.4944 46.4085 41.6782 45.8288 41.6755 45.243C41.6664 44.6277 41.3841 44.1407 40.8285 43.782C40.2908 43.4349 39.7487 43.3896 39.2022 43.6462C38.6493 43.8733 38.1819 44.2825 37.8 44.874C37.4992 45.34 37.3253 45.7863 37.2783 46.2131C37.2238 46.5334 37.2905 46.8431 37.4784 47.1421C37.6662 47.4412 37.9125 47.689 38.2172 47.8857C38.5218 48.0824 38.8491 48.2049 39.1989 48.253C39.5309 48.2895 39.8316 48.217 40.1011 48.0355ZM46.3919 52.097C46.7552 51.8491 47.0872 51.4921 47.3881 51.0261C47.7583 50.4526 47.96 49.8845 47.9932 49.3219C48.02 48.7297 47.7914 48.2774 47.3075 47.965C46.8415 47.6642 46.3442 47.6478 45.8156 47.916C45.287 48.1841 44.8375 48.6049 44.4672 49.1785C44.178 49.6265 43.9951 50.0671 43.9186 50.5002C43.8642 50.8206 43.9129 51.1187 44.0649 51.3945C44.199 51.6589 44.4004 51.8778 44.6693 52.0514C44.9381 52.2249 45.2295 52.3242 45.5435 52.3492C45.8396 52.3626 46.1224 52.2785 46.3919 52.097Z" fill="black" fill-opacity="0.44"/>
  <path d="M41.7535 34.092C40.457 32.4105 37.027 31.3187 35.4291 32.0437C33.1919 33.0586 34.8619 34.1924 37.9184 35.8319C41.4827 37.7438 44.5625 37.7353 41.7535 34.092Z" fill="white"/>
  <path d="M55.7029 22.5796C55.8357 22.0863 56.5357 22.0863 56.6685 22.5796L57.1513 22.4496L56.6685 22.5796L57.2062 24.5765C57.3451 25.0927 57.7484 25.496 58.2646 25.6349L60.2615 26.1726C60.7548 26.3054 60.7548 27.0054 60.2615 27.1382L58.2646 27.6759C57.7484 27.8149 57.3451 28.2181 57.2062 28.7343L56.6685 30.7312C56.5357 31.2246 55.8357 31.2246 55.7029 30.7312L55.1652 28.7343C55.0262 28.2181 54.623 27.8149 54.1068 27.6759L52.1099 27.1382C51.6165 27.0054 51.6165 26.3054 52.1099 26.1726L54.1068 25.6349C54.623 25.496 55.0262 25.0927 55.1652 24.5765L55.7029 22.5796Z" fill="#FFF5A9" stroke="black"/>
  <path d="M8.94978 31.6021C9.08261 31.1087 9.78256 31.1087 9.91539 31.6021L10.801 34.8914C10.94 35.4076 11.3433 35.8109 11.8595 35.9499L15.1488 36.8355C15.6422 36.9684 15.6422 37.6683 15.1488 37.8011L11.8595 38.6868C11.3433 38.8258 10.94 39.229 10.801 39.7452L9.91539 43.0346C9.78256 43.5279 9.08261 43.5279 8.94978 43.0346L8.06412 39.7452C7.92513 39.229 7.5219 38.8258 7.00569 38.6868L3.71632 37.8011C3.22298 37.6683 3.22298 36.9684 3.71632 36.8355L7.00569 35.9499C7.5219 35.8109 7.92513 35.4076 8.06412 34.8914L8.94978 31.6021Z" fill="#FFF5A9" stroke="black"/>
  <path d="M63.0845 51.2876C63.2174 50.7943 63.9173 50.7943 64.0502 51.2876L64.9358 54.577C65.0748 55.0932 65.478 55.4964 65.9942 55.6354L69.2836 56.5211C69.777 56.6539 69.7769 57.3538 69.2836 57.4867L65.9942 58.3723C65.478 58.5113 65.0748 58.9146 64.9358 59.4308L64.0502 62.7201C63.9173 63.2135 63.2174 63.2135 63.0845 62.7201L62.1989 59.4308C62.0599 58.9146 61.6567 58.5113 61.1405 58.3723L57.8511 57.4867C57.3577 57.3538 57.3577 56.6539 57.8511 56.5211L61.1405 55.6354C61.6567 55.4964 62.0599 55.0932 62.1989 54.577L63.0845 51.2876Z" fill="#FFF5A9" stroke="black"/>
</svg>