<svg width="245" height="168" viewBox="0 0 245 168" fill="none" xmlns="http://www.w3.org/2000/svg">
  <g filter="url(#filter0_d_22057_76)">
    <ellipse cx="96.0237" cy="59.3558" rx="12.051" ry="4.72736" fill="#FFFDEB"/>
    <path d="M107.894 59.3558C107.894 59.9416 107.592 60.5189 107.005 61.0637C106.417 61.6087 105.557 62.1078 104.479 62.5307C102.324 63.3761 99.3347 63.9029 96.0236 63.9029C92.7126 63.9029 89.7231 63.3761 87.5681 62.5307C86.4901 62.1078 85.6299 61.6087 85.0422 61.0637C84.4548 60.5189 84.1529 59.9416 84.1529 59.3558C84.1529 58.7699 84.4548 58.1926 85.0422 57.6478C85.6299 57.1028 86.4901 56.6037 87.5681 56.1808C89.7231 55.3354 92.7126 54.8087 96.0236 54.8087C99.3347 54.8087 102.324 55.3354 104.479 56.1808C105.557 56.6037 106.417 57.1028 107.005 57.6478C107.592 58.1926 107.894 58.7699 107.894 59.3558Z" stroke="black" stroke-width="0.360471"/>
  </g>
  <g filter="url(#filter1_d_22057_76)">
    <path d="M148 30.5859C148 43.8408 129.5 54.5859 74 54.5859C15.4884 54.5859 0 43.8408 0 30.5859C0 17.3311 21.9419 6.58594 74 6.58594C126.058 6.58594 148 17.3311 148 30.5859Z" fill="#FFFDEB"/>
    <path d="M147.82 30.5859C147.82 37.1038 143.28 43.0564 131.749 47.3878C120.217 51.7194 101.743 54.4057 74 54.4057C44.7494 54.4057 26.2771 51.7191 15.1234 47.3885C9.54839 45.2239 5.81381 42.6531 3.47339 39.8132C1.1358 36.9767 0.180235 33.8612 0.180235 30.5859C0.180235 24.0788 5.5646 18.1216 17.5396 13.7848C29.5036 9.45207 47.9795 6.76617 74 6.76617C100.021 6.76617 118.496 9.45207 130.46 13.7848C142.435 18.1216 147.82 24.0788 147.82 30.5859Z" stroke="black" stroke-width="0.360471"/>
  </g>
  <path d="M14.032 35.5859C13.2853 35.5859 12.632 35.3806 12.072 34.9699C11.5213 34.5593 11.0967 33.9759 10.798 33.2199C10.4993 32.4639 10.35 31.5726 10.35 30.5459C10.35 29.9486 10.448 29.3093 10.644 28.6279C10.8493 27.9466 11.1387 27.3726 11.512 26.9059C11.8947 26.4299 12.338 26.1919 12.842 26.1919C13.2527 26.1919 13.5933 26.3413 13.864 26.6399C14.1347 26.9386 14.27 27.3073 14.27 27.7459C14.27 27.8766 14.2373 28.0539 14.172 28.2779C14.116 28.4926 14.0507 28.7166 13.976 28.9499C13.836 29.3513 13.7287 29.7059 13.654 30.0139C13.5793 30.3126 13.542 30.6019 13.542 30.8819C13.542 31.2926 13.6027 31.5913 13.724 31.7779C13.8453 31.9646 13.9947 32.0579 14.172 32.0579C14.4053 32.0579 14.5687 31.9413 14.662 31.7079C14.7647 31.4653 14.816 31.0219 14.816 30.3779L14.802 29.4119C14.802 28.6653 14.9 28.0726 15.096 27.6339C15.292 27.1859 15.684 26.9619 16.272 26.9619C16.7107 26.9619 17.042 27.0833 17.266 27.3259C17.49 27.5686 17.6347 27.8766 17.7 28.2499C17.7653 28.6139 17.798 29.0573 17.798 29.5799V30.2939C17.798 30.9753 17.854 31.4606 17.966 31.7499C18.0873 32.0299 18.2787 32.1699 18.54 32.1699C18.7173 32.1699 18.8527 32.0813 18.946 31.9039C19.0487 31.7173 19.1 31.4419 19.1 31.0779C19.1 30.8073 19.0673 30.5366 19.002 30.2659C18.9367 29.9953 18.834 29.6499 18.694 29.2299C18.5727 28.8286 18.484 28.5299 18.428 28.3339C18.3813 28.1286 18.358 27.9326 18.358 27.7459C18.358 27.3073 18.498 26.9433 18.778 26.6539C19.0673 26.3646 19.4033 26.2199 19.786 26.2199C20.3367 26.2199 20.7987 26.4533 21.172 26.9199C21.5547 27.3773 21.8393 27.9419 22.026 28.6139C22.2127 29.2859 22.306 29.9299 22.306 30.5459C22.306 31.5726 22.1567 32.4639 21.858 33.2199C21.5593 33.9759 21.13 34.5593 20.57 34.9699C20.0193 35.3713 19.3707 35.5719 18.624 35.5719C18.2133 35.5719 17.812 35.4786 17.42 35.2919C17.028 35.1053 16.664 34.8253 16.328 34.4519C15.992 34.8253 15.6233 35.1099 15.222 35.3059C14.83 35.4926 14.4333 35.5859 14.032 35.5859ZM24.6902 35.5859C24.2328 35.5859 23.8828 35.4086 23.6402 35.0539C23.3975 34.6993 23.2295 34.1533 23.1362 33.4159C23.0522 32.6786 23.0102 31.6566 23.0102 30.3499C23.0102 29.2579 23.0382 28.4039 23.0942 27.7879C23.1595 27.1719 23.3042 26.6866 23.5282 26.3319C23.7522 25.9679 24.1022 25.7859 24.5782 25.7859C24.9888 25.7859 25.2968 25.9166 25.5022 26.1779C25.7075 26.4393 25.8382 26.7659 25.8942 27.1579C25.9502 27.5499 25.9782 28.0399 25.9782 28.6279V29.2579C26.1648 29.1646 26.3282 29.0993 26.4682 29.0619C26.6175 29.0246 26.8368 29.0059 27.1262 29.0059C27.7608 29.0059 28.3068 29.1693 28.7642 29.4959C29.2215 29.8133 29.5668 30.2426 29.8002 30.7839C30.0428 31.3253 30.1642 31.9273 30.1642 32.5899C30.1642 33.4486 30.0708 34.1579 29.8842 34.7179C29.7068 35.2686 29.3522 35.5439 28.8202 35.5439C28.4468 35.5439 28.1668 35.4599 27.9802 35.2919C27.8028 35.1239 27.6862 34.8953 27.6302 34.6059C27.5835 34.3166 27.5602 33.9199 27.5602 33.4159C27.5602 32.8653 27.4995 32.4406 27.3782 32.1419C27.2662 31.8433 27.0655 31.6939 26.7762 31.6939C26.4868 31.6939 26.2768 31.8479 26.1462 32.1559C26.0248 32.4546 25.9595 32.8746 25.9502 33.4159C25.9408 33.9199 25.9082 34.3213 25.8522 34.6199C25.8055 34.9186 25.6888 35.1566 25.5022 35.3339C25.3248 35.5019 25.0542 35.5859 24.6902 35.5859ZM34.0844 35.5999C33.4124 35.6093 32.8104 35.4693 32.2784 35.1799C31.7557 34.8906 31.345 34.4939 31.0464 33.9899C30.757 33.4766 30.603 32.9073 30.5844 32.2819C30.575 31.6566 30.7197 31.0966 31.0184 30.6019C31.317 30.1073 31.7324 29.7153 32.2644 29.4259C32.8057 29.1366 33.4124 28.9919 34.0844 28.9919C34.7377 28.9919 35.3257 29.1319 35.8484 29.4119C36.3804 29.6919 36.8004 30.0839 37.1084 30.5879C37.4164 31.0919 37.5797 31.6566 37.5984 32.2819C37.6077 32.8886 37.463 33.4439 37.1644 33.9479C36.8657 34.4426 36.4457 34.8393 35.9044 35.1379C35.3724 35.4366 34.7657 35.5906 34.0844 35.5999ZM34.1264 33.5559C34.3784 33.5559 34.5977 33.4579 34.7844 33.2619C34.971 33.0659 35.0644 32.8373 35.0644 32.5759C35.0644 32.3146 34.971 32.0906 34.7844 31.9039C34.5977 31.7079 34.3784 31.6099 34.1264 31.6099C33.8744 31.6099 33.655 31.7079 33.4684 31.9039C33.2817 32.0906 33.1884 32.3146 33.1884 32.5759C33.1884 32.8373 33.2817 33.0659 33.4684 33.2619C33.655 33.4579 33.8744 33.5559 34.1264 33.5559ZM42.1033 27.5499C42.1033 28.0166 41.996 28.4413 41.7813 28.8239C41.576 29.1973 41.324 29.4913 41.0253 29.7059C40.736 29.9206 40.4746 30.0279 40.2413 30.0279C40.0453 30.0279 39.8866 29.9719 39.7653 29.8599C39.6533 29.7479 39.5973 29.6079 39.5973 29.4399C39.5973 29.3186 39.6253 29.2159 39.6813 29.1319C39.7373 29.0479 39.8213 28.9406 39.9333 28.8099C40.008 28.7353 40.078 28.6513 40.1433 28.5579C40.2086 28.4646 40.2553 28.3713 40.2833 28.2779C39.9753 28.1939 39.742 28.0493 39.5833 27.8439C39.4246 27.6293 39.3453 27.3866 39.3453 27.1159C39.3453 26.7706 39.4666 26.4626 39.7093 26.1919C39.9613 25.9213 40.274 25.7859 40.6473 25.7859C41.086 25.7859 41.436 25.9353 41.6973 26.2339C41.968 26.5233 42.1033 26.9619 42.1033 27.5499ZM46.5478 35.5859C45.7264 35.5859 45.0731 35.4506 44.5878 35.1799C44.1024 34.9093 43.8598 34.5593 43.8598 34.1299C43.8598 33.8499 43.9531 33.6353 44.1398 33.4859C44.3358 33.3273 44.5831 33.2479 44.8818 33.2479C45.0498 33.2479 45.1851 33.2713 45.2878 33.3179C45.3904 33.3646 45.4931 33.4299 45.5958 33.5139C45.6704 33.5793 45.7311 33.6259 45.7778 33.6539C45.8338 33.6819 45.8991 33.6959 45.9738 33.6959C46.1698 33.6959 46.2678 33.6259 46.2678 33.4859C46.2678 33.3553 46.2164 33.2573 46.1138 33.1919C46.0111 33.1173 45.8338 33.0286 45.5818 32.9259C45.3484 32.8326 45.1944 32.7673 45.1198 32.7299C44.6904 32.5246 44.3731 32.2819 44.1678 32.0019C43.9624 31.7219 43.8598 31.4233 43.8598 31.1059C43.8598 30.7513 43.9858 30.4153 44.2378 30.0979C44.4991 29.7713 44.8631 29.5099 45.3298 29.3139C45.8058 29.1086 46.3518 29.0059 46.9678 29.0059C47.4998 29.0059 47.9804 29.0806 48.4098 29.2299C48.8484 29.3793 49.1938 29.5846 49.4458 29.8459C49.6978 30.0979 49.8238 30.3779 49.8238 30.6859C49.8238 30.9753 49.7304 31.1946 49.5438 31.3439C49.3664 31.4933 49.1238 31.5679 48.8158 31.5679C48.6944 31.5679 48.5964 31.5586 48.5218 31.5399C48.4564 31.5119 48.3678 31.4699 48.2558 31.4139C48.1904 31.3766 48.1204 31.3439 48.0458 31.3159C47.9804 31.2879 47.9058 31.2739 47.8218 31.2739C47.7471 31.2739 47.6818 31.3019 47.6258 31.3579C47.5698 31.4046 47.5418 31.4653 47.5418 31.5399C47.5418 31.6799 47.6444 31.7826 47.8498 31.8479C48.3911 32.0253 48.8251 32.2493 49.1518 32.5199C49.4878 32.7906 49.6558 33.1639 49.6558 33.6399C49.6558 34.2466 49.3711 34.7226 48.8018 35.0679C48.2418 35.4133 47.4904 35.5859 46.5478 35.5859ZM57.2352 35.5859C56.5072 35.5859 55.9099 35.4226 55.4432 35.0959C54.9766 34.7599 54.7432 34.2793 54.7432 33.6539C54.7432 33.1126 54.9812 32.6833 55.4572 32.3659C55.9332 32.0486 56.5259 31.8899 57.2352 31.8899C57.4966 31.8899 57.7392 31.9133 57.9632 31.9599C58.1966 31.9973 58.3552 32.0439 58.4392 32.0999C58.4392 31.8666 58.3412 31.6753 58.1452 31.5259C57.9492 31.3673 57.6506 31.2879 57.2492 31.2879C57.0719 31.2879 56.9272 31.3019 56.8152 31.3299C56.7032 31.3579 56.5819 31.3999 56.4512 31.4559C56.3206 31.5119 56.1992 31.5539 56.0872 31.5819C55.9846 31.6099 55.8446 31.6239 55.6672 31.6239C55.3686 31.6239 55.1352 31.5493 54.9672 31.3999C54.7992 31.2413 54.7152 31.0033 54.7152 30.6859C54.7152 30.3219 54.8459 30.0139 55.1072 29.7619C55.3779 29.5099 55.7139 29.3233 56.1152 29.2019C56.5166 29.0713 56.9179 29.0059 57.3192 29.0059C58.1126 29.0059 58.7752 29.1553 59.3072 29.4539C59.8486 29.7433 60.2452 30.1306 60.4972 30.6159C60.7586 31.1013 60.8892 31.6379 60.8892 32.2259C60.8892 32.5433 60.8612 32.8373 60.8052 33.1079C60.7586 33.3786 60.6932 33.5886 60.6092 33.7379C60.7399 33.8499 60.8379 33.9806 60.9032 34.1299C60.9779 34.2793 61.0152 34.4333 61.0152 34.5919C61.0152 34.8626 60.9219 35.0959 60.7352 35.2919C60.5579 35.4879 60.3199 35.5859 60.0212 35.5859C59.7972 35.5859 59.6152 35.5533 59.4752 35.4879C59.3352 35.4226 59.1859 35.3199 59.0272 35.1799C58.7939 35.3199 58.5372 35.4226 58.2572 35.4879C57.9866 35.5533 57.6459 35.5859 57.2352 35.5859ZM57.5152 34.1719C57.7112 34.1719 57.8652 34.1299 57.9772 34.0459C58.0986 33.9619 58.1592 33.8593 58.1592 33.7379C58.1592 33.6166 58.0986 33.5139 57.9772 33.4299C57.8652 33.3459 57.7112 33.3039 57.5152 33.3039C57.3192 33.3039 57.1606 33.3459 57.0392 33.4299C56.9272 33.5139 56.8712 33.6166 56.8712 33.7379C56.8712 33.8593 56.9272 33.9619 57.0392 34.0459C57.1606 34.1299 57.3192 34.1719 57.5152 34.1719ZM68.9645 37.9799C68.4232 37.9799 67.9798 37.8773 67.6345 37.6719C67.2892 37.4759 67.1165 37.2053 67.1165 36.8599C67.1165 36.5519 67.2332 36.2999 67.4665 36.1039C67.7092 35.9173 68.0125 35.8239 68.3765 35.8239C68.4418 35.8239 68.5492 35.8333 68.6985 35.8519C68.8852 35.8799 69.0578 35.8939 69.2165 35.8939C69.6178 35.8939 69.9632 35.8239 70.2525 35.6839C70.5512 35.5533 70.7332 35.3759 70.7985 35.1519C70.6492 35.2359 70.4392 35.3059 70.1685 35.3619C69.8978 35.4179 69.6085 35.4459 69.3005 35.4459C68.5072 35.4459 67.8538 35.2919 67.3405 34.9839C66.8365 34.6759 66.4725 34.2979 66.2485 33.8499C66.0245 33.3926 65.9125 32.9446 65.9125 32.5059C65.9125 31.7779 66.0712 31.1479 66.3885 30.6159C66.7152 30.0839 67.1352 29.6779 67.6485 29.3979C68.1618 29.1179 68.6985 28.9779 69.2585 28.9779C69.4452 28.9779 69.6598 28.9919 69.9025 29.0199C70.1545 29.0479 70.3645 29.0806 70.5325 29.1179C70.6072 28.8659 70.7332 28.6699 70.9105 28.5299C71.0972 28.3899 71.3725 28.3199 71.7365 28.3199C72.3432 28.3199 72.7818 28.6979 73.0525 29.4539C73.3325 30.2099 73.4725 31.1433 73.4725 32.2539C73.4725 32.7766 73.4445 33.2713 73.3885 33.7379C73.2485 35.0539 72.7865 36.0899 72.0025 36.8459C71.2185 37.6019 70.2058 37.9799 68.9645 37.9799ZM69.4825 33.3459C69.7718 33.3459 70.0238 33.2433 70.2385 33.0379C70.4532 32.8233 70.5605 32.5713 70.5605 32.2819C70.5605 31.9926 70.4532 31.7406 70.2385 31.5259C70.0238 31.3113 69.7718 31.2039 69.4825 31.2039C69.1932 31.2039 68.9412 31.3113 68.7265 31.5259C68.5212 31.7406 68.4185 31.9926 68.4185 32.2819C68.4185 32.5713 68.5212 32.8233 68.7265 33.0379C68.9412 33.2433 69.1932 33.3459 69.4825 33.3459ZM77.5199 35.5999C76.8479 35.6093 76.2459 35.4693 75.7139 35.1799C75.1913 34.8906 74.7806 34.4939 74.4819 33.9899C74.1926 33.4766 74.0386 32.9073 74.0199 32.2819C74.0106 31.6566 74.1553 31.0966 74.4539 30.6019C74.7526 30.1073 75.1679 29.7153 75.6999 29.4259C76.2413 29.1366 76.8479 28.9919 77.5199 28.9919C78.1733 28.9919 78.7613 29.1319 79.2839 29.4119C79.8159 29.6919 80.2359 30.0839 80.5439 30.5879C80.8519 31.0919 81.0153 31.6566 81.0339 32.2819C81.0433 32.8886 80.8986 33.4439 80.5999 33.9479C80.3013 34.4426 79.8813 34.8393 79.3399 35.1379C78.8079 35.4366 78.2013 35.5906 77.5199 35.5999ZM77.5619 33.5559C77.8139 33.5559 78.0333 33.4579 78.2199 33.2619C78.4066 33.0659 78.4999 32.8373 78.4999 32.5759C78.4999 32.3146 78.4066 32.0906 78.2199 31.9039C78.0333 31.7079 77.8139 31.6099 77.5619 31.6099C77.3099 31.6099 77.0906 31.7079 76.9039 31.9039C76.7173 32.0906 76.6239 32.3146 76.6239 32.5759C76.6239 32.8373 76.7173 33.0659 76.9039 33.2619C77.0906 33.4579 77.3099 33.5559 77.5619 33.5559ZM84.9574 35.5999C84.2854 35.6093 83.6834 35.4693 83.1514 35.1799C82.6288 34.8906 82.2181 34.4939 81.9194 33.9899C81.6301 33.4766 81.4761 32.9073 81.4574 32.2819C81.4481 31.6566 81.5928 31.0966 81.8914 30.6019C82.1901 30.1073 82.6054 29.7153 83.1374 29.4259C83.6788 29.1366 84.2854 28.9919 84.9574 28.9919C85.6108 28.9919 86.1988 29.1319 86.7214 29.4119C87.2534 29.6919 87.6734 30.0839 87.9814 30.5879C88.2894 31.0919 88.4528 31.6566 88.4714 32.2819C88.4808 32.8886 88.3361 33.4439 88.0374 33.9479C87.7388 34.4426 87.3188 34.8393 86.7774 35.1379C86.2454 35.4366 85.6388 35.5906 84.9574 35.5999ZM84.9994 33.5559C85.2514 33.5559 85.4708 33.4579 85.6574 33.2619C85.8441 33.0659 85.9374 32.8373 85.9374 32.5759C85.9374 32.3146 85.8441 32.0906 85.6574 31.9039C85.4708 31.7079 85.2514 31.6099 84.9994 31.6099C84.7474 31.6099 84.5281 31.7079 84.3414 31.9039C84.1548 32.0906 84.0614 32.3146 84.0614 32.5759C84.0614 32.8373 84.1548 33.0659 84.3414 33.2619C84.5281 33.4579 84.7474 33.5559 84.9994 33.5559ZM92.2269 35.5859C91.5643 35.5859 90.9763 35.4273 90.4629 35.1099C89.9589 34.7833 89.5716 34.3633 89.3009 33.8499C89.0303 33.3273 88.8949 32.7719 88.8949 32.1839C88.8949 31.4933 89.0349 30.9099 89.3149 30.4339C89.6043 29.9486 89.9729 29.5893 90.4209 29.3559C90.8783 29.1226 91.3683 29.0059 91.8909 29.0059C92.4136 29.0059 92.8803 29.1179 93.2909 29.3419C93.2723 29.1459 93.2349 28.9359 93.1789 28.7119C93.1323 28.4879 93.0996 28.3479 93.0809 28.2919C93.0063 28.0026 92.9503 27.7599 92.9129 27.5639C92.8756 27.3679 92.8569 27.1719 92.8569 26.9759C92.8569 26.5839 92.9736 26.2853 93.2069 26.0799C93.4403 25.8746 93.7203 25.7719 94.0469 25.7719C94.5696 25.7719 94.9943 26.0333 95.3209 26.5559C95.6476 27.0786 95.8809 27.7273 96.0209 28.5019C96.1703 29.2766 96.2449 30.0606 96.2449 30.8539C96.2449 31.9273 95.9976 32.9866 95.5029 34.0319C95.0176 35.0679 93.9256 35.5859 92.2269 35.5859ZM92.3109 33.3739C92.5629 33.3739 92.7823 33.2806 92.9689 33.0939C93.1556 32.8979 93.2489 32.6693 93.2489 32.4079C93.2489 32.1466 93.1556 31.9179 92.9689 31.7219C92.7823 31.5259 92.5629 31.4279 92.3109 31.4279C92.0589 31.4279 91.8349 31.5259 91.6389 31.7219C91.4523 31.9179 91.3589 32.1466 91.3589 32.4079C91.3589 32.6693 91.4523 32.8979 91.6389 33.0939C91.8349 33.2806 92.0589 33.3739 92.3109 33.3739ZM105.163 35.5859C103.464 35.5859 102.368 35.0679 101.873 34.0319C101.388 32.9866 101.145 31.9273 101.145 30.8539C101.145 30.0606 101.215 29.2766 101.355 28.5019C101.504 27.7273 101.742 27.0786 102.069 26.5559C102.396 26.0333 102.82 25.7719 103.343 25.7719C103.67 25.7719 103.95 25.8746 104.183 26.0799C104.416 26.2853 104.533 26.5839 104.533 26.9759C104.533 27.1719 104.514 27.3679 104.477 27.5639C104.44 27.7599 104.384 28.0026 104.309 28.2919C104.29 28.3479 104.253 28.4879 104.197 28.7119C104.15 28.9359 104.118 29.1459 104.099 29.3419C104.51 29.1179 104.976 29.0059 105.499 29.0059C106.022 29.0059 106.507 29.1226 106.955 29.3559C107.412 29.5893 107.781 29.9486 108.061 30.4339C108.35 30.9099 108.495 31.4933 108.495 32.1839C108.495 32.7719 108.36 33.3273 108.089 33.8499C107.818 34.3633 107.426 34.7833 106.913 35.1099C106.409 35.4273 105.826 35.5859 105.163 35.5859ZM105.079 33.3739C105.331 33.3739 105.55 33.2806 105.737 33.0939C105.933 32.8979 106.031 32.6693 106.031 32.4079C106.031 32.1466 105.933 31.9179 105.737 31.7219C105.55 31.5259 105.331 31.4279 105.079 31.4279C104.827 31.4279 104.608 31.5259 104.421 31.7219C104.234 31.9179 104.141 32.1466 104.141 32.4079C104.141 32.6693 104.234 32.8979 104.421 33.0939C104.608 33.2806 104.827 33.3739 105.079 33.3739ZM112.438 35.5859C111.748 35.5859 111.136 35.4506 110.604 35.1799C110.072 34.9093 109.657 34.5313 109.358 34.0459C109.069 33.5513 108.924 32.9959 108.924 32.3799C108.924 31.7733 109.069 31.2133 109.358 30.6999C109.657 30.1866 110.068 29.7759 110.59 29.4679C111.113 29.1599 111.706 29.0059 112.368 29.0059C112.966 29.0059 113.493 29.1273 113.95 29.3699C114.408 29.6126 114.758 29.9346 115 30.3359C115.243 30.7279 115.364 31.1386 115.364 31.5679C115.364 32.2679 115.098 32.7813 114.566 33.1079C114.044 33.4253 113.418 33.5839 112.69 33.5839C112.205 33.5839 111.794 33.5233 111.458 33.4019C111.738 33.8593 112.2 34.0879 112.844 34.0879C113.106 34.0879 113.386 34.0553 113.684 33.9899C113.796 33.9619 113.904 33.9479 114.006 33.9479C114.212 33.9479 114.375 33.9993 114.496 34.1019C114.627 34.2046 114.692 34.3446 114.692 34.5219C114.692 34.8113 114.515 35.0633 114.16 35.2779C113.806 35.4833 113.232 35.5859 112.438 35.5859ZM111.5 31.6939C111.584 31.8246 111.696 31.9226 111.836 31.9879C111.986 32.0439 112.149 32.0719 112.326 32.0719C112.532 32.0719 112.709 32.0253 112.858 31.9319C113.017 31.8386 113.096 31.7173 113.096 31.5679C113.096 31.3999 113.026 31.2553 112.886 31.1339C112.756 31.0126 112.564 30.9519 112.312 30.9519C112.06 30.9519 111.86 31.0313 111.71 31.1899C111.57 31.3393 111.5 31.5073 111.5 31.6939ZM117.422 35.5859C116.825 35.5859 116.424 35.2359 116.218 34.5359C116.022 33.8359 115.924 32.8699 115.924 31.6379C115.924 31.0779 115.948 30.6113 115.994 30.2379C116.05 29.8553 116.176 29.5333 116.372 29.2719C116.578 29.0013 116.89 28.8659 117.31 28.8659C117.572 28.8659 117.8 28.9266 117.996 29.0479C118.202 29.1693 118.332 29.3419 118.388 29.5659C118.594 29.3793 118.86 29.2393 119.186 29.1459C119.513 29.0526 119.863 29.0059 120.236 29.0059C120.535 29.0059 120.838 29.0806 121.146 29.2299C121.464 29.3793 121.725 29.5846 121.93 29.8459C122.145 30.0979 122.252 30.3733 122.252 30.6719C122.252 30.9706 122.145 31.2366 121.93 31.4699C121.725 31.6939 121.45 31.8059 121.104 31.8059C120.992 31.8059 120.885 31.7919 120.782 31.7639C120.689 31.7359 120.605 31.7079 120.53 31.6799C120.344 31.6053 120.194 31.5679 120.082 31.5679C119.718 31.5679 119.396 31.7126 119.116 32.0019C118.846 32.2819 118.71 32.6459 118.71 33.0939C118.71 33.5886 118.692 33.9993 118.654 34.3259C118.617 34.6526 118.505 34.9466 118.318 35.2079C118.132 35.4599 117.833 35.5859 117.422 35.5859ZM125.048 35.5859C124.32 35.5859 123.722 35.4226 123.256 35.0959C122.789 34.7599 122.556 34.2793 122.556 33.6539C122.556 33.1126 122.794 32.6833 123.27 32.3659C123.746 32.0486 124.338 31.8899 125.048 31.8899C125.309 31.8899 125.552 31.9133 125.776 31.9599C126.009 31.9973 126.168 32.0439 126.252 32.0999C126.252 31.8666 126.154 31.6753 125.958 31.5259C125.762 31.3673 125.463 31.2879 125.062 31.2879C124.884 31.2879 124.74 31.3019 124.628 31.3299C124.516 31.3579 124.394 31.3999 124.264 31.4559C124.133 31.5119 124.012 31.5539 123.9 31.5819C123.797 31.6099 123.657 31.6239 123.48 31.6239C123.181 31.6239 122.948 31.5493 122.78 31.3999C122.612 31.2413 122.528 31.0033 122.528 30.6859C122.528 30.3219 122.658 30.0139 122.92 29.7619C123.19 29.5099 123.526 29.3233 123.928 29.2019C124.329 29.0713 124.73 29.0059 125.132 29.0059C125.925 29.0059 126.588 29.1553 127.12 29.4539C127.661 29.7433 128.058 30.1306 128.31 30.6159C128.571 31.1013 128.702 31.6379 128.702 32.2259C128.702 32.5433 128.674 32.8373 128.618 33.1079C128.571 33.3786 128.506 33.5886 128.422 33.7379C128.552 33.8499 128.65 33.9806 128.716 34.1299C128.79 34.2793 128.828 34.4333 128.828 34.5919C128.828 34.8626 128.734 35.0959 128.548 35.2919C128.37 35.4879 128.132 35.5859 127.834 35.5859C127.61 35.5859 127.428 35.5533 127.288 35.4879C127.148 35.4226 126.998 35.3199 126.84 35.1799C126.606 35.3199 126.35 35.4226 126.07 35.4879C125.799 35.5533 125.458 35.5859 125.048 35.5859ZM125.328 34.1719C125.524 34.1719 125.678 34.1299 125.79 34.0459C125.911 33.9619 125.972 33.8593 125.972 33.7379C125.972 33.6166 125.911 33.5139 125.79 33.4299C125.678 33.3459 125.524 33.3039 125.328 33.3039C125.132 33.3039 124.973 33.3459 124.852 33.4299C124.74 33.5139 124.684 33.6166 124.684 33.7379C124.684 33.8593 124.74 33.9619 124.852 34.0459C124.973 34.1299 125.132 34.1719 125.328 34.1719ZM132.888 32.3099C132.58 32.3099 132.337 32.2073 132.16 32.0019C131.992 31.7873 131.908 31.5213 131.908 31.2039C131.908 30.6626 132.034 30.2613 132.286 29.9999C132.36 29.9159 132.482 29.7993 132.65 29.6499C132.827 29.4819 132.953 29.3513 133.028 29.2579C133.102 29.1646 133.14 29.0619 133.14 28.9499C133.14 28.7073 133.014 28.5859 132.762 28.5859C132.65 28.5859 132.552 28.6233 132.468 28.6979C132.393 28.7726 132.356 28.8659 132.356 28.9779C132.356 29.2859 132.225 29.5426 131.964 29.7479C131.712 29.9439 131.394 30.0419 131.012 30.0419C130.629 30.0419 130.321 29.9066 130.088 29.6359C129.854 29.3559 129.738 28.9686 129.738 28.4739C129.738 28.0633 129.873 27.6479 130.144 27.2279C130.414 26.8079 130.792 26.4626 131.278 26.1919C131.763 25.9213 132.309 25.7859 132.916 25.7859C133.532 25.7859 134.078 25.9166 134.554 26.1779C135.03 26.4299 135.398 26.7659 135.66 27.1859C135.93 27.6059 136.066 28.0493 136.066 28.5159C136.066 28.9919 135.977 29.3933 135.8 29.7199C135.632 30.0373 135.431 30.2846 135.198 30.4619C134.974 30.6299 134.708 30.7886 134.4 30.9379C134.222 31.0313 134.096 31.1059 134.022 31.1619C133.947 31.2179 133.91 31.2786 133.91 31.3439C133.91 31.5866 133.816 31.8106 133.63 32.0159C133.452 32.2119 133.205 32.3099 132.888 32.3099ZM132.902 32.6739C132.51 32.6739 132.169 32.8186 131.88 33.1079C131.59 33.3973 131.446 33.7379 131.446 34.1299C131.446 34.5219 131.59 34.8626 131.88 35.1519C132.169 35.4413 132.51 35.5859 132.902 35.5859C133.294 35.5859 133.634 35.4413 133.924 35.1519C134.213 34.8626 134.358 34.5219 134.358 34.1299C134.358 33.7379 134.213 33.3973 133.924 33.1079C133.634 32.8186 133.294 32.6739 132.902 32.6739Z" fill="black"/>
  <g filter="url(#filter2_d_22057_76)">
    <ellipse cx="106.643" cy="68.5628" rx="6.0255" ry="2.48809" fill="#FFFDEB"/>
    <path d="M112.488 68.5628C112.488 68.8429 112.351 69.1266 112.069 69.4023C111.786 69.6786 111.367 69.9358 110.835 70.1555C109.771 70.5948 108.289 70.8706 106.643 70.8706C104.996 70.8706 103.515 70.5948 102.451 70.1555C101.919 69.9358 101.5 69.6786 101.217 69.4023C100.934 69.1266 100.797 68.8429 100.797 68.5628C100.797 68.2826 100.934 67.999 101.217 67.7233C101.5 67.447 101.919 67.1898 102.451 66.97C103.515 66.5308 104.996 66.2549 106.643 66.2549C108.289 66.2549 109.771 66.5308 110.835 66.97C111.367 67.1898 111.786 67.447 112.069 67.7233C112.351 67.999 112.488 68.2826 112.488 68.5628Z" stroke="black" stroke-width="0.360471"/>
  </g>
  <ellipse cx="73" cy="157.321" rx="46" ry="9.75758" fill="black" fill-opacity="0.2"/>
  <path d="M75.9947 131.744C80.6029 132.597 80.0482 137.362 79.1948 139.637C79.1948 140.989 77.3601 143.733 70.0211 143.904C62.6821 144.075 63.5497 138.144 64.9009 135.157C66.6787 133.664 71.3865 130.89 75.9947 131.744Z" fill="#999999" stroke="black" stroke-width="0.360471" stroke-linecap="round" stroke-linejoin="round"/>
  <path d="M75.9947 131.744C80.6029 132.597 80.0482 137.362 79.1948 139.637C77.604 135.157 73.5751 135.157 64.9009 135.157C66.6787 133.664 71.3865 130.89 75.9947 131.744Z" fill="#D9D9D9" stroke="black" stroke-width="0.360471" stroke-linecap="round" stroke-linejoin="round"/>
  <path d="M84.9911 134.61C80.3511 135.469 75.0772 140.748 75.9365 143.039C75.9365 144.4 83.6163 146.682 91.0058 146.854C98.3953 147.026 97.5217 141.054 96.1613 138.047C94.3712 136.543 89.631 133.75 84.9911 134.61Z" fill="#999999" stroke="black" stroke-width="0.360471" stroke-linecap="round" stroke-linejoin="round"/>
  <path d="M84.9899 134.61C80.35 135.469 80.7213 138.267 85.4805 140.653C92.1753 145.426 89.6105 140.378 96.1601 138.047C94.37 136.543 89.6299 133.75 84.9899 134.61Z" fill="#D9D9D9" stroke="black" stroke-width="0.360471" stroke-linecap="round" stroke-linejoin="round"/>
  <path d="M49.7761 131.83C42.6797 133.144 43.5339 140.481 44.848 143.986C44.848 146.067 47.6735 150.294 58.9751 150.556C70.2768 150.819 68.9408 141.686 66.8601 137.087C64.1222 134.787 56.8725 130.516 49.7761 131.83Z" fill="#999999" stroke="black" stroke-width="0.360471" stroke-linecap="round" stroke-linejoin="round"/>
  <path d="M49.7761 131.83C42.6797 133.144 43.5339 140.481 44.848 143.986C47.2978 137.087 53.5021 137.087 66.8601 137.087C64.1222 134.787 56.8725 130.516 49.7761 131.83Z" fill="#D9D9D9" stroke="black" stroke-width="0.360471" stroke-linecap="round" stroke-linejoin="round"/>
  <path d="M41.1745 141.376C34.0781 142.69 34.9323 150.028 36.2465 153.532C36.2465 155.613 39.0719 159.84 50.3736 160.103C61.6753 160.366 60.3392 151.232 58.2585 146.633C55.5207 144.333 48.271 140.062 41.1745 141.376Z" fill="#999999" stroke="black" stroke-width="0.360471" stroke-linecap="round" stroke-linejoin="round"/>
  <path d="M41.1745 141.376C34.0781 142.69 34.9323 150.028 36.2465 153.532C40.4079 154.627 50.6364 154.781 58.2585 146.633C55.5207 144.333 48.271 140.062 41.1745 141.376Z" fill="#D9D9D9" stroke="black" stroke-width="0.360471" stroke-linecap="round" stroke-linejoin="round"/>
  <rect x="59.4731" y="137.829" width="8.41195" height="36.5868" rx="4.20598" transform="rotate(-55.6891 59.4731 137.829)" fill="#B27D7D" stroke="black" stroke-width="0.360471"/>
  <rect x="-0.250469" y="-0.0472774" width="8.41195" height="36.5868" rx="4.20598" transform="matrix(-0.563683 -0.825991 -0.825991 0.563683 90.4326 136.695)" fill="#A05A5A" stroke="black" stroke-width="0.360471"/>
  <path d="M98.3561 142.084C95.6835 142.848 90.8791 147.493 88.811 149.72C87.4254 151.153 88.811 160.22 96.4471 160.22C102.556 160.22 107.265 159.265 108.856 158.788C109.81 157.038 111.433 152.775 110.287 149.72C108.856 145.902 101.697 141.13 98.3561 142.084Z" fill="#999999" stroke="black" stroke-width="0.360471" stroke-linecap="round" stroke-linejoin="round"/>
  <path d="M98.3498 142.084C95.6771 142.848 90.8728 147.493 88.8047 149.72L98.3498 153.061L110.281 149.72C108.849 145.902 101.691 141.13 98.3498 142.084Z" fill="#D9D9D9" stroke="black" stroke-width="0.360471" stroke-linecap="round" stroke-linejoin="round"/>
  <path d="M78.4206 148.059C71.3242 149.374 72.1784 156.711 73.4926 160.215C73.4926 162.296 76.318 166.523 87.6197 166.786C98.9213 167.049 97.5853 157.916 95.5046 153.316C92.7668 151.016 85.5171 146.745 78.4206 148.059Z" fill="#999999" stroke="black" stroke-width="0.360471" stroke-linecap="round" stroke-linejoin="round"/>
  <path d="M78.4206 148.059C71.3242 149.374 72.1784 156.711 73.4926 160.215C75.9423 153.316 82.1466 153.316 95.5046 153.316C92.7668 151.016 85.5171 146.745 78.4206 148.059Z" fill="#D9D9D9" stroke="black" stroke-width="0.360471" stroke-linecap="round" stroke-linejoin="round"/>
  <path d="M57.3855 148.059C50.2891 149.374 51.1433 156.711 52.4574 160.215C52.4574 162.296 55.2828 166.523 66.5845 166.786C77.8862 167.049 76.5502 157.916 74.4694 153.316C71.7316 151.016 64.4819 146.745 57.3855 148.059Z" fill="#999999" stroke="black" stroke-width="0.360471" stroke-linecap="round" stroke-linejoin="round"/>
  <path d="M57.3855 148.059C50.2891 149.374 51.1433 156.711 52.4574 160.215C56.6189 161.311 64.4523 156.881 74.4694 153.316C71.7316 151.016 64.4819 146.745 57.3855 148.059Z" fill="#D9D9D9" stroke="black" stroke-width="0.360471" stroke-linecap="round" stroke-linejoin="round"/>
  <mask id="path-25-inside-1_22057_76" fill="white">
    <path fill-rule="evenodd" clip-rule="evenodd" d="M87.0318 108.787C88.6567 107.866 89.4959 106.216 89.4319 102.899C97.6349 109.381 89.7625 141.403 68.2576 134.85C63.928 133.78 60.1972 131.041 57.8791 127.231C55.561 123.421 54.8437 118.848 55.8837 114.512C56.9939 110.954 59.412 107.95 62.6502 106.106C61.4798 108.8 61.8057 111.761 63.2245 113.617C63.8983 111.444 65.1443 109.445 68.807 109.174C67.7548 111.336 68.1725 113.263 68.879 115.122C71.6967 114.009 71.4752 110.45 71.2134 106.243C70.8429 100.288 70.3915 93.0348 78.3665 89.5859C77.0961 96.9699 80.9656 101.547 84.8356 106.126C85.5798 107.006 86.324 107.886 87.0318 108.787Z"/>
  </mask>
  <path fill-rule="evenodd" clip-rule="evenodd" d="M87.0318 108.787C88.6567 107.866 89.4959 106.216 89.4319 102.899C97.6349 109.381 89.7625 141.403 68.2576 134.85C63.928 133.78 60.1972 131.041 57.8791 127.231C55.561 123.421 54.8437 118.848 55.8837 114.512C56.9939 110.954 59.412 107.95 62.6502 106.106C61.4798 108.8 61.8057 111.761 63.2245 113.617C63.8983 111.444 65.1443 109.445 68.807 109.174C67.7548 111.336 68.1725 113.263 68.879 115.122C71.6967 114.009 71.4752 110.45 71.2134 106.243C70.8429 100.288 70.3915 93.0348 78.3665 89.5859C77.0961 96.9699 80.9656 101.547 84.8356 106.126C85.5798 107.006 86.324 107.886 87.0318 108.787Z" fill="#FF6242"/>
  <path d="M89.4319 102.899L89.6554 102.616L89.0567 102.143L89.0715 102.905L89.4319 102.899ZM87.0318 108.787L86.7483 109.01L86.9399 109.253L87.2095 109.1L87.0318 108.787ZM68.2576 134.85L68.3626 134.505L68.3534 134.503L68.3441 134.5L68.2576 134.85ZM57.8791 127.231L57.5712 127.418L57.8791 127.231ZM55.8837 114.512L55.5396 114.404L55.536 114.416L55.5331 114.427L55.8837 114.512ZM62.6502 106.106L62.9808 106.249L63.412 105.257L62.4718 105.793L62.6502 106.106ZM63.2245 113.617L62.9381 113.836L63.362 114.39L63.5688 113.724L63.2245 113.617ZM68.807 109.174L69.1311 109.332L69.4054 108.768L68.7804 108.814L68.807 109.174ZM68.879 115.122L68.5421 115.25L68.6718 115.591L69.0114 115.457L68.879 115.122ZM71.2134 106.243L70.8537 106.266L71.2134 106.243ZM78.3665 89.5859L78.7217 89.6471L78.8346 88.9907L78.2234 89.2551L78.3665 89.5859ZM84.8356 106.126L85.1109 105.893L84.8356 106.126ZM89.0715 102.905C89.1029 104.537 88.9109 105.722 88.534 106.599C88.1618 107.465 87.6018 108.049 86.854 108.473L87.2095 109.1C88.0867 108.603 88.7587 107.902 89.1964 106.884C89.6293 105.876 89.8248 104.577 89.7923 102.892L89.0715 102.905ZM68.1525 135.195C73.6226 136.862 78.2529 136.079 81.9776 133.843C85.6912 131.613 88.4772 127.956 90.3134 123.912C92.15 119.867 93.0493 115.407 92.9686 111.54C92.8883 107.692 91.834 104.337 89.6554 102.616L89.2084 103.181C91.1313 104.701 92.169 107.78 92.2478 111.555C92.3261 115.309 91.4512 119.662 89.657 123.614C87.8624 127.566 85.1608 131.091 81.6065 133.225C78.0632 135.352 73.645 136.115 68.3626 134.505L68.1525 135.195ZM57.5712 127.418C59.9387 131.31 63.7491 134.107 68.1711 135.2L68.3441 134.5C64.1068 133.453 60.4557 130.772 58.1871 127.044L57.5712 127.418ZM55.5331 114.427C54.471 118.857 55.2036 123.527 57.5712 127.418L58.1871 127.044C55.9185 123.315 55.2165 118.84 56.2342 114.596L55.5331 114.427ZM62.4718 105.793C59.1543 107.682 56.677 110.76 55.5396 114.404L56.2278 114.619C57.3108 111.149 59.6697 108.218 62.8286 106.419L62.4718 105.793ZM63.5109 113.398C62.1832 111.661 61.8543 108.842 62.9808 106.249L62.3196 105.962C61.1052 108.757 61.4282 111.86 62.9381 113.836L63.5109 113.398ZM63.5688 113.724C63.8975 112.664 64.3536 111.688 65.1423 110.944C65.9245 110.206 67.0682 109.664 68.8336 109.533L68.7804 108.814C66.883 108.955 65.5724 109.547 64.6475 110.42C63.7291 111.286 63.2253 112.397 62.8802 113.51L63.5688 113.724ZM68.4829 109.016C67.3657 111.312 67.8225 113.357 68.5421 115.25L69.2159 114.993C68.5224 113.169 68.1438 111.36 69.1311 109.332L68.4829 109.016ZM70.8537 106.266C70.9854 108.383 71.1012 110.278 70.8456 111.782C70.5934 113.267 69.9947 114.293 68.7466 114.786L69.0114 115.457C70.581 114.837 71.2804 113.528 71.5564 111.903C71.829 110.298 71.7032 108.31 71.5732 106.221L70.8537 106.266ZM78.2234 89.2551C74.1306 91.0251 72.1786 93.79 71.3133 96.8775C70.4562 99.9354 70.6692 103.3 70.8537 106.266L71.5732 106.221C71.3872 103.231 71.1891 99.9919 72.0075 97.0721C72.8176 94.1818 74.6274 91.5957 78.5096 89.9168L78.2234 89.2551ZM85.1109 105.893C81.232 101.304 77.4828 96.8477 78.7217 89.6471L78.0112 89.5248C76.7093 97.0921 80.6992 101.791 84.5603 106.358L85.1109 105.893ZM87.3152 108.564C86.6028 107.658 85.8544 106.772 85.1109 105.893L84.5603 106.358C85.3052 107.24 86.0453 108.115 86.7483 109.01L87.3152 108.564Z" fill="black" mask="url(#path-25-inside-1_22057_76)"/>
  <path d="M75.4892 125.744C77.6033 124.903 79.4252 123.392 80.7174 121.416C82.5613 124.31 82.0202 127.147 80.3162 129.053C78.5595 131.018 75.5603 132 72.6178 131.021C71.5894 130.663 70.6817 129.981 70.0126 129.062C69.3926 128.21 69.0042 127.19 68.8895 126.116C71.0717 126.714 73.3737 126.585 75.4892 125.744Z" fill="#FFE500" stroke="black" stroke-width="0.360471"/>
  <ellipse cx="168.97" cy="144.16" rx="70.5289" ry="9.72812" fill="black" fill-opacity="0.2"/>
  <mask id="path-29-outside-2_22057_76" maskUnits="userSpaceOnUse" x="138.707" y="67.9888" width="106" height="78" fill="black">
    <rect fill="white" x="138.707" y="67.9888" width="106" height="78"/>
    <path fill-rule="evenodd" clip-rule="evenodd" d="M209.055 69.8472C207.477 68.5354 205.134 68.7512 203.822 70.3292L169.562 111.541L159.983 104.483C158.331 103.265 156.005 103.618 154.788 105.27C153.57 106.922 153.923 109.248 155.575 110.465L164.803 117.265L164.396 117.755L143.416 117.795C141.363 117.799 139.703 119.466 139.707 121.518C139.711 123.57 141.378 125.23 143.43 125.226L158.209 125.198L150.754 134.165C149.442 135.743 149.658 138.086 151.236 139.398C152.814 140.71 155.157 140.494 156.468 138.916L167.871 125.199L175.55 125.185L185.848 132.774L180.884 138.745C179.572 140.323 179.788 142.666 181.366 143.978C182.944 145.29 185.287 145.074 186.599 143.496L191.841 137.19L195.205 139.668C196.857 140.886 199.183 140.533 200.4 138.881C201.617 137.229 201.265 134.903 199.613 133.686L196.6 131.465L201.899 125.091L225.571 141.245C227.266 142.402 229.577 141.965 230.734 140.27C231.891 138.575 231.454 136.264 229.759 135.107L223.334 130.722L218.485 106.226C218.43 105.953 218.34 105.696 218.219 105.459L242.2 76.6122C243.512 75.0342 243.296 72.6916 241.718 71.3797C240.14 70.0679 237.798 70.2837 236.486 71.8617L236.316 72.0664C236.293 72.0644 236.27 72.0633 236.247 72.0633H210.339C210.193 71.2256 209.76 70.4335 209.055 69.8472ZM216.411 125.997L213.474 111.167L206.671 119.351L216.411 125.997ZM192.184 125.153L188.044 125.161L190.607 127.049L192.184 125.153Z"/>
  </mask>
  <path fill-rule="evenodd" clip-rule="evenodd" d="M209.055 69.8472C207.477 68.5354 205.134 68.7512 203.822 70.3292L169.562 111.541L159.983 104.483C158.331 103.265 156.005 103.618 154.788 105.27C153.57 106.922 153.923 109.248 155.575 110.465L164.803 117.265L164.396 117.755L143.416 117.795C141.363 117.799 139.703 119.466 139.707 121.518C139.711 123.57 141.378 125.23 143.43 125.226L158.209 125.198L150.754 134.165C149.442 135.743 149.658 138.086 151.236 139.398C152.814 140.71 155.157 140.494 156.468 138.916L167.871 125.199L175.55 125.185L185.848 132.774L180.884 138.745C179.572 140.323 179.788 142.666 181.366 143.978C182.944 145.29 185.287 145.074 186.599 143.496L191.841 137.19L195.205 139.668C196.857 140.886 199.183 140.533 200.4 138.881C201.617 137.229 201.265 134.903 199.613 133.686L196.6 131.465L201.899 125.091L225.571 141.245C227.266 142.402 229.577 141.965 230.734 140.27C231.891 138.575 231.454 136.264 229.759 135.107L223.334 130.722L218.485 106.226C218.43 105.953 218.34 105.696 218.219 105.459L242.2 76.6122C243.512 75.0342 243.296 72.6916 241.718 71.3797C240.14 70.0679 237.798 70.2837 236.486 71.8617L236.316 72.0664C236.293 72.0644 236.27 72.0633 236.247 72.0633H210.339C210.193 71.2256 209.76 70.4335 209.055 69.8472ZM216.411 125.997L213.474 111.167L206.671 119.351L216.411 125.997ZM192.184 125.153L188.044 125.161L190.607 127.049L192.184 125.153Z" fill="#CED2A0"/>
  <path d="M203.822 70.3292L204.377 70.7901V70.7901L203.822 70.3292ZM209.055 69.8472L208.594 70.4016V70.4016L209.055 69.8472ZM169.562 111.541L169.134 112.121L169.682 112.525L170.116 112.002L169.562 111.541ZM159.983 104.483L159.556 105.063H159.556L159.983 104.483ZM154.788 105.27L155.368 105.697L154.788 105.27ZM155.575 110.465L155.147 111.045L155.575 110.465ZM164.803 117.265L165.358 117.726L165.846 117.138L165.231 116.685L164.803 117.265ZM164.396 117.755L164.398 118.476L164.735 118.475L164.951 118.216L164.396 117.755ZM143.416 117.795L143.417 118.516H143.417L143.416 117.795ZM139.707 121.518L138.986 121.519L139.707 121.518ZM143.43 125.226L143.431 125.947H143.431L143.43 125.226ZM158.209 125.198L158.763 125.659L159.748 124.474L158.207 124.477L158.209 125.198ZM150.754 134.165L150.199 133.704H150.199L150.754 134.165ZM156.468 138.916L157.023 139.377H157.023L156.468 138.916ZM167.871 125.199L167.87 124.478L167.532 124.479L167.317 124.738L167.871 125.199ZM175.55 125.185L175.978 124.604L175.786 124.463L175.548 124.464L175.55 125.185ZM185.848 132.774L186.403 133.234L186.891 132.647L186.276 132.193L185.848 132.774ZM180.884 138.745L180.33 138.284L180.884 138.745ZM186.599 143.496L187.153 143.957L186.599 143.496ZM191.841 137.19L192.269 136.609L191.721 136.206L191.287 136.729L191.841 137.19ZM195.205 139.668L194.777 140.249L195.205 139.668ZM200.4 138.881L199.82 138.454L200.4 138.881ZM199.613 133.686L200.041 133.105L199.613 133.686ZM196.6 131.465L196.045 131.004L195.557 131.592L196.172 132.046L196.6 131.465ZM201.899 125.091L202.305 124.495L201.764 124.126L201.345 124.63L201.899 125.091ZM225.571 141.245L225.164 141.841L225.571 141.245ZM230.734 140.27L230.139 139.864L230.734 140.27ZM229.759 135.107L229.353 135.702L229.759 135.107ZM223.334 130.722L222.627 130.862L222.684 131.152L222.928 131.318L223.334 130.722ZM218.485 106.226L219.192 106.086V106.086L218.485 106.226ZM218.219 105.459L217.665 104.998L217.361 105.364L217.577 105.787L218.219 105.459ZM242.2 76.6122L242.755 77.0731V77.0731L242.2 76.6122ZM241.718 71.3797L241.257 71.9341V71.9341L241.718 71.3797ZM236.486 71.8617L237.04 72.3226L237.04 72.3226L236.486 71.8617ZM236.316 72.0664L236.251 72.7844L236.628 72.8183L236.87 72.5273L236.316 72.0664ZM210.339 72.0633L209.629 72.1874L209.733 72.7843H210.339V72.0633ZM216.411 125.997L216.004 126.593L217.46 127.586L217.118 125.857L216.411 125.997ZM213.474 111.167L214.182 111.027L213.888 109.542L212.92 110.706L213.474 111.167ZM206.671 119.351L206.117 118.89L205.61 119.499L206.265 119.946L206.671 119.351ZM188.044 125.161L188.043 124.44L185.856 124.444L187.616 125.741L188.044 125.161ZM192.184 125.153L192.738 125.614L193.723 124.429L192.183 124.432L192.184 125.153ZM190.607 127.049L190.179 127.63L190.727 128.033L191.162 127.51L190.607 127.049ZM204.377 70.7901C205.434 69.5182 207.322 69.3443 208.594 70.4016L209.516 69.2928C207.631 67.7265 204.834 67.9841 203.268 69.8683L204.377 70.7901ZM170.116 112.002L204.377 70.7901L203.268 69.8683L169.007 111.08L170.116 112.002ZM159.556 105.063L169.134 112.121L169.989 110.961L160.411 103.902L159.556 105.063ZM155.368 105.697C156.349 104.366 158.224 104.082 159.556 105.063L160.411 103.902C158.438 102.449 155.661 102.869 154.207 104.842L155.368 105.697ZM156.002 109.885C154.671 108.903 154.387 107.029 155.368 105.697L154.207 104.842C152.754 106.814 153.175 109.592 155.147 111.045L156.002 109.885ZM165.231 116.685L156.002 109.885L155.147 111.045L164.375 117.846L165.231 116.685ZM164.951 118.216L165.358 117.726L164.249 116.804L163.842 117.294L164.951 118.216ZM143.417 118.516L164.398 118.476L164.395 117.034L143.414 117.074L143.417 118.516ZM140.428 121.516C140.425 119.862 141.763 118.519 143.417 118.516L143.414 117.074C140.964 117.079 138.981 119.069 138.986 121.519L140.428 121.516ZM143.428 124.505C141.774 124.508 140.431 123.17 140.428 121.516L138.986 121.519C138.991 123.969 140.981 125.952 143.431 125.947L143.428 124.505ZM158.207 124.477L143.428 124.505L143.431 125.947L158.21 125.919L158.207 124.477ZM151.308 134.626L158.763 125.659L157.654 124.737L150.199 133.704L151.308 134.626ZM151.697 138.843C150.425 137.786 150.251 135.898 151.308 134.626L150.199 133.704C148.633 135.589 148.891 138.386 150.775 139.952L151.697 138.843ZM155.914 138.455C154.857 139.727 152.969 139.901 151.697 138.843L150.775 139.952C152.659 141.518 155.456 141.261 157.023 139.377L155.914 138.455ZM167.317 124.738L155.914 138.455L157.023 139.377L168.426 125.66L167.317 124.738ZM175.548 124.464L167.87 124.478L167.873 125.92L175.551 125.906L175.548 124.464ZM186.276 132.193L175.978 124.604L175.122 125.765L185.421 133.354L186.276 132.193ZM181.438 139.206L186.403 133.234L185.294 132.313L180.33 138.284L181.438 139.206ZM181.827 143.423C180.555 142.366 180.381 140.478 181.438 139.206L180.33 138.284C178.763 140.169 179.021 142.966 180.905 144.532L181.827 143.423ZM186.044 143.035C184.987 144.307 183.099 144.481 181.827 143.423L180.905 144.532C182.789 146.099 185.587 145.841 187.153 143.957L186.044 143.035ZM191.287 136.729L186.044 143.035L187.153 143.957L192.395 137.65L191.287 136.729ZM195.632 139.088L192.269 136.609L191.413 137.77L194.777 140.249L195.632 139.088ZM199.82 138.454C198.839 139.785 196.964 140.069 195.632 139.088L194.777 140.249C196.749 141.702 199.527 141.281 200.98 139.309L199.82 138.454ZM199.185 134.266C200.517 135.247 200.801 137.122 199.82 138.454L200.98 139.309C202.434 137.336 202.013 134.559 200.041 133.105L199.185 134.266ZM196.172 132.046L199.185 134.266L200.041 133.105L197.027 130.885L196.172 132.046ZM201.345 124.63L196.045 131.004L197.154 131.926L202.453 125.552L201.345 124.63ZM225.977 140.65L202.305 124.495L201.493 125.686L225.164 141.841L225.977 140.65ZM230.139 139.864C229.206 141.23 227.343 141.582 225.977 140.65L225.164 141.841C227.188 143.222 229.948 142.701 231.33 140.677L230.139 139.864ZM229.353 135.702C230.719 136.635 231.071 138.498 230.139 139.864L231.33 140.677C232.711 138.653 232.19 135.893 230.166 134.512L229.353 135.702ZM222.928 131.318L229.353 135.702L230.166 134.512L223.741 130.127L222.928 131.318ZM217.777 106.366L222.627 130.862L224.041 130.582L219.192 106.086L217.777 106.366ZM217.577 105.787C217.668 105.965 217.736 106.159 217.777 106.366L219.192 106.086C219.125 105.747 219.012 105.427 218.861 105.131L217.577 105.787ZM241.646 76.1514L217.665 104.998L218.774 105.92L242.755 77.0731L241.646 76.1514ZM241.257 71.9341C242.529 72.9914 242.703 74.8795 241.646 76.1514L242.755 77.0731C244.321 75.1889 244.063 72.3917 242.179 70.8253L241.257 71.9341ZM237.04 72.3226C238.098 71.0507 239.986 70.8768 241.257 71.9341L242.179 70.8253C240.295 69.259 237.498 69.5166 235.931 71.4008L237.04 72.3226ZM236.87 72.5273L237.04 72.3226L235.931 71.4008L235.761 71.6055L236.87 72.5273ZM236.247 72.7843C236.249 72.7843 236.25 72.7843 236.251 72.7844L236.38 71.3483C236.336 71.3444 236.292 71.3424 236.247 71.3424V72.7843ZM210.339 72.7843H236.247V71.3424H210.339V72.7843ZM208.594 70.4016C209.163 70.8745 209.511 71.5118 209.629 72.1874L211.049 71.9393C210.875 70.9394 210.357 69.9925 209.516 69.2928L208.594 70.4016ZM217.118 125.857L214.182 111.027L212.767 111.307L215.703 126.137L217.118 125.857ZM212.92 110.706L206.117 118.89L207.225 119.812L214.029 111.628L212.92 110.706ZM206.265 119.946L216.004 126.593L216.817 125.402L207.077 118.755L206.265 119.946ZM188.045 125.882L192.185 125.874L192.183 124.432L188.043 124.44L188.045 125.882ZM191.035 126.469L188.472 124.58L187.616 125.741L190.179 127.63L191.035 126.469ZM191.63 124.692L190.053 126.588L191.162 127.51L192.738 125.614L191.63 124.692Z" fill="black" mask="url(#path-29-outside-2_22057_76)"/>
  <rect x="206.219" y="67.7255" width="7.07074" height="90.0844" rx="3.53537" transform="rotate(39.7375 206.219 67.7255)" fill="#CED2A0" stroke="black" stroke-width="0.360471"/>
  <rect x="152.838" y="108.223" width="7.07074" height="56.2983" rx="3.53537" transform="rotate(-53.6135 152.838 108.223)" fill="#CED2A0" stroke="black" stroke-width="0.360471"/>
  <path d="M206.52 72.4321C206.623 72.3119 206.773 72.2427 206.931 72.2427H236.245C236.694 72.2427 236.948 72.7588 236.673 73.1142L199.557 121.117C199.444 121.263 199.264 121.341 199.08 121.325L168.259 118.492C167.823 118.452 167.613 117.936 167.898 117.603L206.52 72.4321Z" fill="#DF8365" stroke="black" stroke-width="0.360471" stroke-linejoin="round"/>
  <rect x="212.372" y="104.627" width="5.5137" height="31.2189" rx="2.75685" transform="rotate(-11.1984 212.372 104.627)" fill="#CED2A0" stroke="black" stroke-width="0.360471"/>
  <rect x="238.894" y="69.2582" width="7.07074" height="94.0476" rx="3.53537" transform="rotate(39.7375 238.894 69.2582)" fill="#CED2A0" stroke="black" stroke-width="0.360471"/>
  <rect x="139.899" y="125.052" width="7.07074" height="42.5956" rx="3.53537" transform="rotate(-90.1098 139.899 125.052)" fill="#CED2A0" stroke="black" stroke-width="0.360471"/>
  <rect x="141.809" y="123.228" width="3.89558" height="31.2559" rx="1.94779" transform="rotate(-90 141.809 123.228)" fill="#FFD891" stroke="black" stroke-width="0.360471" stroke-linejoin="round"/>
  <rect x="157.617" y="125.038" width="7.07074" height="44.333" rx="3.53537" transform="rotate(-90.1098 157.617 125.038)" fill="#CED2A0" stroke="black" stroke-width="0.360471"/>
  <rect x="181.497" y="110.944" width="7.07074" height="57.0261" rx="3.53537" transform="rotate(-55.6891 181.497 110.944)" fill="#CED2A0" stroke="black" stroke-width="0.360471"/>
  <path d="M189.275 23.6363C186.628 23.1069 183.189 26.3685 182.941 27.3619C182.32 29.9697 183.761 33.9929 188.53 33.6949C194.49 33.3223 194.862 24.7541 189.275 23.6363Z" fill="#725D41" stroke="black" stroke-width="0.360471" stroke-linecap="round" stroke-linejoin="round"/>
  <path d="M157.847 20.7135C160.493 20.1841 163.932 23.4456 164.18 24.4391C164.801 27.0469 163.36 31.07 158.592 30.772C152.631 30.3995 152.259 21.8312 157.847 20.7135Z" fill="#725D41" stroke="black" stroke-width="0.360471" stroke-linecap="round" stroke-linejoin="round"/>
  <path d="M111.565 99.9032C116.539 94.3075 127.046 90.1251 131.73 88.976C145.932 91.0037 147.057 113.724 144.03 114.391C117.817 120.165 124.433 135.233 119.139 134.288C114.733 133.501 97.0026 128.266 99.5129 125.252C101.521 122.841 105.775 120.591 107.741 120.979C111.144 118.823 106.59 105.499 111.565 99.9032Z" fill="#725D41" stroke="black" stroke-width="0.360471" stroke-linecap="round" stroke-linejoin="round"/>
  <path d="M108.039 73.5556C115.321 67.1668 131.293 71.4813 154.61 53.65C154.987 53.3616 155.547 53.4971 155.713 53.9421C159.53 64.2132 155.677 77.0699 142.7 82.1241C129.35 87.3231 123.328 87.3396 111.861 84.4573C111.098 86.222 111.397 87.0814 109.917 88.0846C107.875 89.469 98.838 81.6276 108.039 73.5556Z" fill="#725D41"/>
  <path d="M112.897 81.379C112.186 83.1236 111.861 84.4573 111.861 84.4573M111.861 84.4573C111.098 86.222 111.397 87.0814 109.917 88.0846C107.875 89.469 98.838 81.6276 108.039 73.5556C115.321 67.1668 131.293 71.4813 154.61 53.65C154.987 53.3616 155.547 53.4971 155.713 53.9421C159.53 64.2132 155.677 77.0699 142.7 82.1241C129.35 87.3231 123.328 87.3396 111.861 84.4573Z" stroke="black" stroke-width="0.360471"/>
  <path d="M201.938 66.4782C200.15 57.2393 192.625 48.2239 189.644 35.9302L154.998 48.2239C154.998 67.2232 129.7 76.6557 127.96 90.5769C127.048 97.873 129.48 100.001 129.48 100.001C120.663 108.817 125.527 125.233 122.487 125.233C121.098 125.233 115.521 125.512 113.671 127.361C109.719 131.313 132.215 144.386 134.952 140.738C137.14 137.819 146.875 123.678 154.998 119.761C161.331 116.708 169.1 120.687 189.644 117.633C202.249 115.759 204.173 78.0268 201.938 66.4782Z" fill="#725D41"/>
  <path d="M144.68 93.3129C139.208 93.3129 132.824 96.657 129.48 100.001M129.48 100.001C120.663 108.817 125.527 125.233 122.487 125.233C121.098 125.233 115.521 125.512 113.671 127.361C109.719 131.313 132.215 144.386 134.952 140.738C137.14 137.819 146.875 123.678 154.998 119.761C161.331 116.708 169.1 120.687 189.644 117.633C202.249 115.759 204.173 78.0268 201.938 66.4782C200.15 57.2393 192.625 48.2239 189.644 35.9302L154.998 48.2239C154.998 67.2232 129.7 76.6557 127.96 90.5769C127.048 97.873 129.48 100.001 129.48 100.001Z" stroke="black" stroke-width="0.360471" stroke-linecap="round" stroke-linejoin="round"/>
  <path d="M188.904 43.0078C186.253 46.5424 166.16 49.0339 155.381 51.1295C155.141 51.1761 154.95 51.3357 154.86 51.5625C152.718 56.9242 148.62 67.3505 147.726 71.4772C147.604 72.0407 148.171 72.3521 148.638 72.0143C163.963 60.937 188.904 49.5564 188.904 43.0078Z" fill="#B5966E" stroke="black" stroke-width="0.360471"/>
  <path d="M159.087 24.0081C153.722 26.3924 150.519 34.4393 149.773 40.7724C153.126 52.321 155.734 56.4189 175.478 51.2034C195.223 45.9879 190.38 35.9294 185.909 28.8512C181.439 21.773 165.793 21.0278 159.087 24.0081Z" fill="#725D41" stroke="black" stroke-width="0.360471" stroke-linecap="round" stroke-linejoin="round"/>
  <path d="M168.092 32.626C168.054 33.9936 169.131 35.1332 170.499 35.1712C171.867 35.2093 173.006 34.1314 173.044 32.7638C173.082 31.3962 172.082 32.1829 170.714 32.1448C169.346 32.1068 168.13 31.2583 168.092 32.626Z" fill="black"/>
  <path d="M154.689 31.8809C154.651 33.2485 155.729 34.3881 157.097 34.4261C158.464 34.4642 159.604 33.3863 159.642 32.0187C159.68 30.651 158.679 31.4378 157.312 31.3997C155.944 31.3616 154.727 30.5132 154.689 31.8809Z" fill="black"/>
  <circle cx="155.368" cy="31.8307" r="5.03527" fill="white" fill-opacity="0.21" stroke="black" stroke-width="0.360471"/>
  <path d="M162.855 31.1652C161.078 31.4614 154.372 34.1119 148.073 37.8004C147.994 37.8469 147.921 37.9126 147.866 37.986C141.76 46.1119 156.551 50.9046 162.855 49.7922C169.188 48.6746 167.698 44.204 167.325 37.8709C166.953 31.5378 165.09 30.7927 162.855 31.1652Z" fill="#B5966E" stroke="black" stroke-width="0.360471"/>
  <path d="M147.986 38.5859C147.948 39.9536 149.026 41.0931 150.394 41.1312C151.761 41.1692 152.901 40.0914 152.939 38.7238C152.977 37.3561 151.976 38.1428 150.608 38.1048C149.241 38.0667 148.024 37.2183 147.986 38.5859Z" fill="black"/>
  <circle cx="169.515" cy="32.5758" r="5.78035" fill="white" fill-opacity="0.21" stroke="black" stroke-width="0.360471"/>
  <path d="M104.428 66.7054L101.82 68.1956L110.761 81.9794L133.858 75.6463L134.231 67.823L133.486 65.9603L132.741 64.0977C122.012 64.0977 111.879 71.5484 110.761 74.1561C109.867 70.8778 108.153 69.6857 104.428 66.7054Z" fill="white"/>
  <path d="M118.957 70.0582C121.316 68.4439 127.525 65.3643 133.486 65.9603M133.486 65.9603L132.741 64.0977C122.012 64.0977 111.879 71.5484 110.761 74.1561C109.867 70.8778 108.153 69.6857 104.428 66.7054L101.82 68.1956L110.761 81.9794L133.858 75.6463L134.231 67.823L133.486 65.9603Z" stroke="black" stroke-width="0.360471"/>
  <path d="M134.613 67.2026L112.426 74.8405C112.315 74.8788 112.229 74.9691 112.197 75.0823L111.578 77.2479C111.534 77.4027 111.393 77.5094 111.232 77.5094H108.511C108.312 77.5094 108.151 77.348 108.151 77.1489V75.0266C108.151 74.9456 108.124 74.867 108.073 74.8035L100.516 65.2116C100.249 64.8729 99.7208 65.2036 99.9086 65.5917L109.626 85.6738C109.636 85.6947 109.648 85.7145 109.662 85.7331L118.582 97.6263H122.307L142.044 93.6059C142.249 93.5641 142.376 93.3566 142.319 93.1549L135.077 67.4457C135.021 67.2463 134.808 67.1351 134.613 67.2026Z" fill="#F5C142"/>
  <path d="M122.307 97.6263L142.044 93.6059C142.249 93.5641 142.376 93.3566 142.319 93.1549L135.077 67.4457C135.021 67.2463 134.808 67.1351 134.613 67.2026L112.426 74.8405C112.315 74.8788 112.229 74.9691 112.197 75.0823L111.578 77.2479C111.534 77.4027 111.393 77.5094 111.232 77.5094H108.511C108.312 77.5094 108.151 77.348 108.151 77.1489V75.0266C108.151 74.9456 108.124 74.867 108.073 74.8035L100.516 65.2116C100.249 64.8729 99.7208 65.2036 99.9086 65.5917L109.626 85.6738C109.636 85.6947 109.648 85.7145 109.662 85.7331L118.582 97.6263M122.307 97.6263H118.582M122.307 97.6263L113.366 79.372M118.582 97.6263L108.896 79.372" stroke="black" stroke-width="0.360471" stroke-linejoin="round"/>
  <path d="M151.546 75.2566C155.641 74.4365 168.238 60.1976 180.053 53.1803C180.469 52.9332 180.999 53.1702 181.105 53.6424L186.613 78.216C186.64 78.3397 186.635 78.4678 186.581 78.5825C186.201 79.386 184.11 82.8821 174.603 88.3745C160.978 96.2452 159.482 91.5228 143.162 91.5228C132.683 91.5228 129.539 89.4239 132.683 84.1767C135.827 78.9296 146.306 76.306 151.546 75.2566Z" fill="#725D41"/>
  <path d="M180.892 52.6938C168.84 59.5151 155.738 74.417 151.546 75.2566C146.306 76.306 135.827 78.9296 132.683 84.1767C129.539 89.4239 132.683 91.5228 143.162 91.5228C159.482 91.5228 160.978 96.2452 174.603 88.3745C185.502 82.0779 186.655 78.4049 186.655 78.4049" stroke="black" stroke-width="0.360471"/>
  <path d="M129.285 86.2215C129.658 85.4764 132.265 84.3589 133.756 84.3589L133.383 85.4764C132.489 85.1784 130.775 85.7248 129.285 86.2215Z" fill="black" stroke="black" stroke-width="0.360471" stroke-linejoin="round"/>
  <path d="M129.285 88.8294C129.658 88.0843 132.265 86.9668 133.756 86.9668L133.383 88.0843C132.489 87.7863 130.775 88.3327 129.285 88.8294Z" fill="black" stroke="black" stroke-width="0.360471" stroke-linejoin="round"/>
  <path d="M112.814 86.2961C112.216 86.811 110.076 86.8659 109.172 86.3443L109.957 85.5069C110.35 86.078 111.662 86.2047 112.814 86.2961Z" fill="black" stroke="black" stroke-width="0.360471" stroke-linejoin="round"/>
  <path d="M112.068 87.7859C111.47 88.3007 109.33 88.3557 108.426 87.8341L109.211 86.9967C109.604 87.5677 110.916 87.6944 112.068 87.7859Z" fill="black" stroke="black" stroke-width="0.360471" stroke-linejoin="round"/>
  <path d="M130.402 90.3197C131.892 90.2706 132.638 90.3198 134.127 89.5747L134.873 90.3197C133.756 90.6923 131.892 90.6923 130.402 90.3197Z" fill="black" stroke="black" stroke-width="0.360471" stroke-linejoin="round"/>
  <path d="M150.119 57.1352C148.66 53.9736 150.727 49.7378 151.943 48.0151C155.591 53.3656 159.746 54.0952 161.367 53.7912L157.719 62.9113C155.794 62.3033 151.578 60.2969 150.119 57.1352Z" fill="white" stroke="black" stroke-width="0.360471" stroke-linecap="round" stroke-linejoin="round"/>
  <path d="M191.074 40.3411C195.847 38.4634 201.672 44.6048 202.055 51.2818C202.439 57.9588 194.504 59.6368 175.012 62.8831C163.851 64.7418 156.059 66.5049 157.433 59.0202C158.806 51.5355 169.033 49.0122 191.074 40.3411Z" fill="white" stroke="black" stroke-width="0.360471" stroke-linecap="round" stroke-linejoin="round"/>
  <path d="M104.178 120.923C99.2904 122.284 96.2765 124.081 95.3805 124.81C91.2262 127.084 110.287 138.416 115.419 136.958C119.524 135.792 123.646 127.564 125.193 123.596C119.899 119.951 111.818 112.852 109.081 112.463C106.344 112.074 105.737 117.327 104.178 120.923Z" fill="#D73F3F" stroke="black" stroke-width="0.360471" stroke-linecap="round" stroke-linejoin="round"/>
  <path d="M109.386 109.423C107.683 109.423 107.258 111.855 107.258 113.071C113.095 115.017 118.81 119.759 120.938 121.887C122.661 120.468 125.498 117.266 123.066 115.807C120.026 113.983 111.514 109.423 109.386 109.423Z" fill="white" stroke="black" stroke-width="0.360471" stroke-linecap="round" stroke-linejoin="round"/>
  <path d="M120.644 128.453C115.239 129.303 110.623 131.26 111.19 134.863C112.106 140.691 136.28 149.005 139.253 143.068C142.766 136.053 146.897 127.095 146.897 127.095C139.682 123.613 126.594 116.746 123.196 117.281C121.394 117.564 121.185 124.059 120.644 128.453Z" fill="#D73F3F" stroke="black" stroke-width="0.360471" stroke-linecap="round" stroke-linejoin="round"/>
  <path d="M122.876 113.329C120.676 113.429 118.749 119.327 120.77 119.507C128.261 120.176 140.412 125.035 145.136 127.678C149.186 129.943 148.264 129.956 149.911 124.773C151.558 119.59 125.626 113.204 122.876 113.329Z" fill="white" stroke="black" stroke-width="0.360471" stroke-linecap="round" stroke-linejoin="round"/>
  <path d="M232.584 125.478C245.182 167.885 218.45 161.608 186.366 161.608C149.866 161.608 131.78 167.474 133.494 140.617C135.606 107.528 157.603 94.6532 171.817 90.1556C173.708 89.6829 175.659 89.3238 177.651 89.0877C174.791 86.8128 169.415 81.9884 170.787 80.8903C172.503 79.5176 176.964 82.6061 179.366 80.8903C181.768 79.1745 184.514 75.3997 188.975 77.4586C193.436 79.5176 192.063 81.9197 196.524 80.8903C200.985 79.8608 204.417 79.8608 199.27 85.6945C195.432 90.0441 193.68 89.8975 193.46 89.8574C208.666 93.2021 226.137 103.779 232.584 125.478Z" fill="#CF8D47"/>
  <path d="M177.651 89.0877C175.659 89.3238 173.708 89.6829 171.817 90.1556C157.603 94.6532 135.606 107.528 133.494 140.617C131.78 167.474 149.866 161.608 186.366 161.608C218.45 161.608 245.182 167.885 232.584 125.478C226.134 103.768 208.648 93.1909 193.436 89.8522M177.651 89.0877C174.791 86.8128 169.415 81.9884 170.787 80.8903C172.503 79.5176 176.964 82.6061 179.366 80.8903C181.768 79.1745 184.514 75.3997 188.975 77.4586C193.436 79.5176 192.063 81.9197 196.524 80.8903C200.985 79.8608 204.417 79.8608 199.27 85.6945C195.152 90.3615 193.436 89.8522 193.436 89.8522M177.651 89.0877C179.229 88.9006 180.834 88.7908 182.455 88.763M193.436 89.8522C191.926 89.5207 190.411 89.2671 188.9 89.0877M188.9 89.0877L192.406 82.2629M188.9 89.0877C186.738 88.8311 184.583 88.7264 182.455 88.763M182.455 88.763C181.425 87.5114 179.366 84.7336 179.366 83.6355" stroke="black" stroke-width="0.360471" stroke-linecap="round" stroke-linejoin="round"/>
  <path d="M201.337 26.1541C200.162 24.256 197.949 23.7222 196.046 24.4866C194.317 25.5788 193.344 26.9092 193.552 28.8847C193.76 30.8602 195.732 33.3914 198.799 32.4481C201.866 31.5048 202.804 28.5266 201.337 26.1541Z" fill="white" stroke="black" stroke-width="0.360471"/>
  <path d="M181.212 7.69907C170.523 6.48493 160.986 15.7638 157.431 18.7482C166 20.8335 184.746 29.6665 193.047 33.8223C193.275 32.6114 192.927 28.5859 192.196 24.5567C196.207 27.0525 197.579 27.6476 197.397 26.196C195.644 21.0253 191.902 8.9132 181.212 7.69907Z" fill="#D73F3F"/>
  <path d="M192.196 24.5567C196.207 27.0525 197.579 27.6476 197.397 26.196C195.644 21.0253 191.902 8.9132 181.212 7.69907C170.523 6.48493 160.986 15.7638 157.431 18.7482C166 20.8335 184.746 29.6665 193.047 33.8223C193.275 32.6114 192.927 28.5859 192.196 24.5567ZM192.196 24.5567C192.091 21.9242 191.464 20.5273 190.94 18.5625" stroke="black" stroke-width="0.360471"/>
  <path d="M177.445 23.7561C186.973 27.9522 192.067 31.0013 193.639 32.6067C195.804 34.5247 193.073 39.0889 190.679 38.3342C188.111 37.5248 184.682 36.93 171.101 32.1637C155.096 26.5463 154.185 26.6754 153.314 25.7764C152.443 24.8775 152.358 18.5548 156.074 17.0201C159.789 15.4854 169.134 20.0956 177.445 23.7561Z" fill="white" stroke="black" stroke-width="0.360471"/>
  <defs>
    <filter id="filter0_d_22057_76" x="83.9727" y="54.6284" width="26.1016" height="11.4546" filterUnits="userSpaceOnUse" color-interpolation-filters="sRGB">
      <feFlood flood-opacity="0" result="BackgroundImageFix"/>
      <feColorMatrix in="SourceAlpha" type="matrix" values="0 0 0 0 0 0 0 0 0 0 0 0 0 0 0 0 0 0 127 0" result="hardAlpha"/>
      <feOffset dx="2" dy="2"/>
      <feComposite in2="hardAlpha" operator="out"/>
      <feColorMatrix type="matrix" values="0 0 0 0 0 0 0 0 0 0 0 0 0 0 0 0 0 0 0.25 0"/>
      <feBlend mode="normal" in2="BackgroundImageFix" result="effect1_dropShadow_22057_76"/>
      <feBlend mode="normal" in="SourceGraphic" in2="effect1_dropShadow_22057_76" result="shape"/>
    </filter>
    <filter id="filter1_d_22057_76" x="0" y="6.58594" width="150" height="50" filterUnits="userSpaceOnUse" color-interpolation-filters="sRGB">
      <feFlood flood-opacity="0" result="BackgroundImageFix"/>
      <feColorMatrix in="SourceAlpha" type="matrix" values="0 0 0 0 0 0 0 0 0 0 0 0 0 0 0 0 0 0 127 0" result="hardAlpha"/>
      <feOffset dx="2" dy="2"/>
      <feComposite in2="hardAlpha" operator="out"/>
      <feColorMatrix type="matrix" values="0 0 0 0 0 0 0 0 0 0 0 0 0 0 0 0 0 0 0.25 0"/>
      <feBlend mode="normal" in2="BackgroundImageFix" result="effect1_dropShadow_22057_76"/>
      <feBlend mode="normal" in="SourceGraphic" in2="effect1_dropShadow_22057_76" result="shape"/>
    </filter>
    <filter id="filter2_d_22057_76" x="100.617" y="66.0747" width="14.0508" height="6.97607" filterUnits="userSpaceOnUse" color-interpolation-filters="sRGB">
      <feFlood flood-opacity="0" result="BackgroundImageFix"/>
      <feColorMatrix in="SourceAlpha" type="matrix" values="0 0 0 0 0 0 0 0 0 0 0 0 0 0 0 0 0 0 127 0" result="hardAlpha"/>
      <feOffset dx="2" dy="2"/>
      <feComposite in2="hardAlpha" operator="out"/>
      <feColorMatrix type="matrix" values="0 0 0 0 0 0 0 0 0 0 0 0 0 0 0 0 0 0 0.25 0"/>
      <feBlend mode="normal" in2="BackgroundImageFix" result="effect1_dropShadow_22057_76"/>
      <feBlend mode="normal" in="SourceGraphic" in2="effect1_dropShadow_22057_76" result="shape"/>
    </filter>
  </defs>
</svg>
