<svg width="1544" height="663" viewBox="0 0 1544 663" fill="none" xmlns="http://www.w3.org/2000/svg">
  <g filter="url(#filter0_d_22057_76)">
    <path d="M1231.66 281.452L1250.2 211.329C1250.73 209.34 1253.55 209.345 1254.07 211.336L1272.35 281.458C1272.68 282.725 1271.72 283.963 1270.41 283.963H1233.6C1232.29 283.963 1231.33 282.72 1231.66 281.452Z" fill="#003958"/>
    <path d="M1231.66 281.452L1250.2 211.329C1250.73 209.34 1253.55 209.345 1254.07 211.336L1272.35 281.458C1272.68 282.725 1271.72 283.963 1270.41 283.963H1233.6C1232.29 283.963 1231.33 282.72 1231.66 281.452Z" stroke="black"/>
  </g>
  <g filter="url(#filter1_d_22057_76)">
    <path d="M1494.66 281.452L1513.2 211.329C1513.73 209.34 1516.55 209.345 1517.07 211.336L1535.35 281.458C1535.68 282.725 1534.72 283.963 1533.41 283.963H1496.6C1495.29 283.963 1494.33 282.72 1494.66 281.452Z" fill="#003958"/>
    <path d="M1494.66 281.452L1513.2 211.329C1513.73 209.34 1516.55 209.345 1517.07 211.336L1535.35 281.458C1535.68 282.725 1534.72 283.963 1533.41 283.963H1496.6C1495.29 283.963 1494.33 282.72 1494.66 281.452Z" stroke="black"/>
  </g>
  <g filter="url(#filter2_d_22057_76)">
    <path d="M557.675 281.445L590.054 160.717C590.585 158.738 593.396 158.743 593.92 160.724L625.836 281.452C626.172 282.72 625.215 283.963 623.903 283.963H559.607C558.292 283.963 557.335 282.715 557.675 281.445Z" fill="#003958"/>
    <path d="M557.675 281.445L590.054 160.717C590.585 158.738 593.396 158.743 593.92 160.724L625.836 281.452C626.172 282.72 625.215 283.963 623.903 283.963H559.607C558.292 283.963 557.335 282.715 557.675 281.445Z" stroke="black"/>
  </g>
  <g filter="url(#filter3_d_22057_76)">
    <path d="M849.675 281.445L882.054 160.717C882.585 158.738 885.396 158.743 885.92 160.724L917.836 281.452C918.172 282.72 917.215 283.963 915.903 283.963H851.607C850.292 283.963 849.335 282.715 849.675 281.445Z" fill="#003958"/>
    <path d="M849.675 281.445L882.054 160.717C882.585 158.738 885.396 158.743 885.92 160.724L917.836 281.452C918.172 282.72 917.215 283.963 915.903 283.963H851.607C850.292 283.963 849.335 282.715 849.675 281.445Z" stroke="black"/>
  </g>
  <g filter="url(#filter4_d_22057_76)">
    <path d="M464.667 281.449L491.262 181.295C491.789 179.309 494.609 179.314 495.13 181.302L521.344 281.456C521.676 282.724 520.719 283.963 519.409 283.963H466.6C465.287 283.963 464.33 282.719 464.667 281.449Z" fill="#003958"/>
    <path d="M464.667 281.449L491.262 181.295C491.789 179.309 494.609 179.314 495.13 181.302L521.344 281.456C521.676 282.724 520.719 283.963 519.409 283.963H466.6C465.287 283.963 464.33 282.719 464.667 281.449Z" stroke="black"/>
  </g>
  <g filter="url(#filter5_d_22057_76)">
    <path d="M158.667 281.449L185.262 181.295C185.789 179.309 188.609 179.314 189.13 181.302L215.344 281.456C215.676 282.724 214.719 283.963 213.409 283.963H160.6C159.287 283.963 158.33 282.719 158.667 281.449Z" fill="#003958"/>
    <path d="M158.667 281.449L185.262 181.295C185.789 179.309 188.609 179.314 189.13 181.302L215.344 281.456C215.676 282.724 214.719 283.963 213.409 283.963H160.6C159.287 283.963 158.33 282.719 158.667 281.449Z" stroke="black"/>
  </g>
  <g filter="url(#filter6_d_22057_76)">
    <path d="M247.661 281.453L262.174 226.358C262.699 224.367 265.527 224.372 266.044 226.365L280.35 281.46C280.679 282.727 279.723 283.963 278.414 283.963H249.595C248.284 283.963 247.327 282.722 247.661 281.453Z" fill="#003958"/>
    <path d="M247.661 281.453L262.174 226.358C262.699 224.367 265.527 224.372 266.044 226.365L280.35 281.46C280.679 282.727 279.723 283.963 278.414 283.963H249.595C248.284 283.963 247.327 282.722 247.661 281.453Z" stroke="black"/>
  </g>
  <g filter="url(#filter7_d_22057_76)">
    <path d="M0.661044 281.453L15.1744 226.358C15.6988 224.367 18.5267 224.372 19.0442 226.364L33.3502 281.46C33.6791 282.727 32.723 283.963 31.4144 283.963H2.59507C1.28352 283.963 0.326952 282.722 0.661044 281.453Z" fill="#003958"/>
    <path d="M0.661044 281.453L15.1744 226.358C15.6988 224.367 18.5267 224.372 19.0442 226.364L33.3502 281.46C33.6791 282.727 32.723 283.963 31.4144 283.963H2.59507C1.28352 283.963 0.326952 282.722 0.661044 281.453Z" stroke="black"/>
  </g>
  <g filter="url(#filter8_d_22057_76)">
    <path d="M1057.67 281.449L1084.26 181.295C1084.79 179.309 1087.61 179.314 1088.13 181.302L1114.34 281.456C1114.68 282.724 1113.72 283.963 1112.41 283.963H1059.6C1058.29 283.963 1057.33 282.719 1057.67 281.449Z" fill="#003958"/>
    <path d="M1057.67 281.449L1084.26 181.295C1084.79 179.309 1087.61 179.314 1088.13 181.302L1114.34 281.456C1114.68 282.724 1113.72 283.963 1112.41 283.963H1059.6C1058.29 283.963 1057.33 282.719 1057.67 281.449Z" stroke="black"/>
  </g>
  <g filter="url(#filter9_d_22057_76)">
    <path d="M1262.66 281.451L1286.24 192.325C1286.77 190.337 1289.59 190.342 1290.11 192.332L1313.35 281.458C1313.68 282.725 1312.72 283.963 1311.41 283.963H1264.6C1263.29 283.963 1262.33 282.72 1262.66 281.451Z" fill="#003958"/>
    <path d="M1262.66 281.451L1286.24 192.325C1286.77 190.337 1289.59 190.342 1290.11 192.332L1313.35 281.458C1313.68 282.725 1312.72 283.963 1311.41 283.963H1264.6C1263.29 283.963 1262.33 282.72 1262.66 281.451Z" stroke="black"/>
  </g>
  <g filter="url(#filter10_d_22057_76)">
    <path d="M921.951 246.52C936.777 213.72 940.907 180.86 947.652 180.86C957.01 185.851 1011.17 279.861 1004.42 283.943C997.676 288.026 984.621 280.825 980.967 275.438C986.026 283.66 992.433 300.444 977.595 301.804C962.757 303.165 953.989 286.495 951.459 277.99C949.773 285.361 944.04 300.103 934.597 300.103C925.155 300.103 926.729 289.33 928.696 283.943C921.67 289.33 915.145 297.912 907.726 293.149C898.452 287.196 907.726 277.99 921.951 246.52Z" fill="#025B8C"/>
    <path d="M921.951 246.52C936.777 213.72 940.907 180.86 947.652 180.86C957.01 185.851 1011.17 279.861 1004.42 283.943C997.676 288.026 984.621 280.825 980.967 275.438C986.026 283.66 992.433 300.444 977.595 301.804C962.757 303.165 953.989 286.495 951.459 277.99C949.773 285.361 944.04 300.103 934.597 300.103C925.155 300.103 926.729 289.33 928.696 283.943C921.67 289.33 915.145 297.912 907.726 293.149C898.452 287.196 907.726 277.99 921.951 246.52Z" stroke="black"/>
  </g>
  <g filter="url(#filter11_d_22057_76)">
    <path d="M949.386 167.759C963.111 169.007 984.321 222.656 990.559 232.638C996.797 242.619 993.678 245.114 990.559 245.738C988.064 246.237 979.122 242.619 974.963 240.748C976.211 243.451 977.958 249.232 974.963 250.729C971.969 252.226 966.23 245.53 963.734 241.995C964.982 246.778 966.105 256.593 960.615 257.591C955.126 258.589 952.921 247.61 952.505 241.995C952.298 249.065 950.135 263.205 943.148 263.205C936.899 263.205 936.505 252.892 937.236 246.101C936.41 250.901 934.118 257.591 929.424 257.591C924.174 257.591 924.972 251.885 926.143 248.659C924.663 252.286 919.68 258.55 910.085 257.591C897.608 256.343 938.157 167.759 949.386 167.759Z" fill="#025B8C"/>
    <path d="M949.386 167.759C963.111 169.007 984.321 222.656 990.559 232.638C996.797 242.619 993.678 245.114 990.559 245.738C988.064 246.237 979.122 242.619 974.963 240.748C976.211 243.451 977.958 249.232 974.963 250.729C971.969 252.226 966.23 245.53 963.734 241.995C964.982 246.778 966.105 256.593 960.615 257.591C955.126 258.589 952.921 247.61 952.505 241.995C952.298 249.065 950.135 263.205 943.148 263.205C936.899 263.205 936.505 252.892 937.236 246.101C936.41 250.901 934.118 257.591 929.424 257.591C924.174 257.591 924.972 251.885 926.143 248.659C924.663 252.286 919.68 258.55 910.085 257.591C897.608 256.343 938.157 167.759 949.386 167.759Z" stroke="black"/>
  </g>
  <g filter="url(#filter12_d_22057_76)">
    <path d="M974.338 179.612C959.367 157.778 961.238 125.963 956.247 125.963C947.514 125.963 910.084 205.189 916.322 208.932C921.313 211.927 927.967 204.773 930.67 200.822C926.927 206.853 922.186 219.163 933.166 220.161C944.145 221.159 950.633 208.932 952.504 202.694C953.752 208.1 957.994 218.914 964.981 218.914C971.968 218.914 970.803 211.012 969.348 207.061C974.546 211.012 986.316 218.04 991.806 214.547C998.668 210.18 989.31 201.446 974.338 179.612Z" fill="#156D9D"/>
    <path d="M974.338 179.612C959.367 157.778 961.238 125.963 956.247 125.963C947.514 125.963 910.084 205.189 916.322 208.932C921.313 211.927 927.967 204.773 930.67 200.822C926.927 206.853 922.186 219.163 933.166 220.161C944.145 221.159 950.633 208.932 952.504 202.694C953.752 208.1 957.994 218.914 964.981 218.914C971.968 218.914 970.803 211.012 969.348 207.061C974.546 211.012 986.316 218.04 991.806 214.547C998.668 210.18 989.31 201.446 974.338 179.612Z" stroke="black"/>
  </g>
  <g filter="url(#filter13_d_22057_76)">
    <path d="M393.8 195.963C404.605 197.205 426.375 255.406 431.287 265.341C436.199 275.275 433.337 283.556 431.287 285.375C424.988 290.963 417.902 270.815 417.115 268.824C417.115 268.824 416.295 286.743 413.937 288.233C411.58 289.723 407.061 273.37 405.097 269.852C406.079 274.612 406.963 284.381 402.641 285.375C398.319 286.368 396.583 275.44 396.256 269.852C396.092 276.889 394.389 290.963 388.888 290.963C383.968 290.963 383.658 280.697 384.233 273.939C383.583 278.715 381.779 285.375 378.083 285.375C373.949 285.375 374.578 279.695 375.5 276.484C374.334 280.094 370.411 286.329 362.857 285.375C353.034 284.133 384.959 195.963 393.8 195.963Z" fill="#025B8C"/>
    <path d="M393.8 195.963C404.605 197.205 426.375 255.406 431.287 265.341C436.199 275.275 433.337 283.556 431.287 285.375C424.988 290.963 417.902 270.815 417.115 268.824C417.115 268.824 416.295 286.743 413.937 288.233C411.58 289.723 407.061 273.37 405.097 269.852C406.079 274.612 406.963 284.381 402.641 285.375C398.319 286.368 396.583 275.44 396.256 269.852C396.092 276.889 394.389 290.963 388.888 290.963C383.968 290.963 383.658 280.697 384.233 273.939C383.583 278.715 381.779 285.375 378.083 285.375C373.949 285.375 374.578 279.695 375.5 276.484C374.334 280.094 370.411 286.329 362.857 285.375C353.034 284.133 384.959 195.963 393.8 195.963Z" stroke="black"/>
  </g>
  <g filter="url(#filter14_d_22057_76)">
    <path d="M147.442 180.963C141.791 172.721 129.938 157.963 124.947 157.963C116.214 157.963 82.5271 209.689 88.7654 213.432C93.756 216.427 100.41 209.273 103.113 205.322C99.3703 211.353 94.6292 223.663 105.609 224.661C116.588 225.659 123.076 213.432 124.947 207.194C126.195 212.6 130.437 223.413 137.424 223.413C144.411 223.413 143.246 215.512 141.791 211.561C146.989 215.512 158.759 222.54 164.249 219.047C171.111 214.68 162.414 202.797 147.442 180.963Z" fill="#156D9D"/>
    <path d="M147.442 180.963C141.791 172.721 129.938 157.963 124.947 157.963C116.214 157.963 82.5271 209.689 88.7654 213.432C93.756 216.427 100.41 209.273 103.113 205.322C99.3703 211.353 94.6292 223.663 105.609 224.661C116.588 225.659 123.076 213.432 124.947 207.194C126.195 212.6 130.437 223.413 137.424 223.413C144.411 223.413 143.246 215.512 141.791 211.561C146.989 215.512 158.759 222.54 164.249 219.047C171.111 214.68 162.414 202.797 147.442 180.963Z" stroke="black"/>
  </g>
  <g filter="url(#filter15_d_22057_76)">
    <path d="M412.382 209.047C407.783 200.775 398.135 185.963 394.073 185.963C386.964 185.963 359.545 237.878 364.623 241.635C368.685 244.64 374.101 237.461 376.301 233.495C373.255 239.548 369.396 251.903 378.332 252.905C387.269 253.907 392.55 241.635 394.073 235.374C395.089 240.8 398.541 251.653 404.228 251.653C409.915 251.653 408.967 243.722 407.783 239.757C412.014 243.722 421.594 250.776 426.062 247.27C431.648 242.887 424.569 230.961 412.382 209.047Z" fill="#156D9D"/>
    <path d="M412.382 209.047C407.783 200.775 398.135 185.963 394.073 185.963C386.964 185.963 359.545 237.878 364.623 241.635C368.685 244.64 374.101 237.461 376.301 233.495C373.255 239.548 369.396 251.903 378.332 252.905C387.269 253.907 392.55 241.635 394.073 235.374C395.089 240.8 398.541 251.653 404.228 251.653C409.915 251.653 408.967 243.722 407.783 239.757C412.014 243.722 421.594 250.776 426.062 247.27C431.648 242.887 424.569 230.961 412.382 209.047Z" stroke="black"/>
  </g>
  <path d="M1304.42 295.311C1299.29 291.088 1342.87 166.004 1345.89 166.004C1348.9 166.004 1348.15 168.641 1361.72 211.241C1375.98 256.005 1387.36 293.803 1380.19 293.803C1374.46 293.803 1368.51 284.503 1366.25 279.854C1366.75 284.503 1366.55 293.803 1361.72 293.803C1356.9 293.803 1354.18 283.247 1353.43 277.969C1353.18 285.886 1351.39 301.569 1346.27 300.966C1341.14 300.362 1336.59 287.896 1334.96 281.739C1332.94 286.263 1327.94 295.009 1324.02 293.803C1320.1 292.596 1322.39 280.482 1324.02 274.576C1319.62 283.247 1309.55 299.533 1304.42 295.311Z" fill="#025B8C" stroke="black"/>
  <g filter="url(#filter16_d_22057_76)">
    <path d="M1304.42 261.381C1299.29 257.159 1342.87 132.074 1345.89 132.074C1348.9 132.074 1348.15 134.711 1361.72 177.312C1375.98 222.075 1387.36 259.873 1380.19 259.873C1374.46 259.873 1368.51 250.574 1366.25 245.924C1366.75 250.574 1366.55 259.873 1361.72 259.873C1356.9 259.873 1354.18 249.317 1353.43 244.039C1353.18 251.956 1351.39 267.639 1346.27 267.036C1341.14 266.433 1336.59 253.967 1334.96 247.809C1332.94 252.333 1327.94 261.08 1324.02 259.873C1320.1 258.667 1322.39 246.553 1324.02 240.647C1319.62 249.317 1309.55 265.604 1304.42 261.381Z" fill="#025B8C"/>
    <path d="M1304.42 261.381C1299.29 257.159 1342.87 132.074 1345.89 132.074C1348.9 132.074 1348.15 134.711 1361.72 177.312C1375.98 222.075 1387.36 259.873 1380.19 259.873C1374.46 259.873 1368.51 250.574 1366.25 245.924C1366.75 250.574 1366.55 259.873 1361.72 259.873C1356.9 259.873 1354.18 249.317 1353.43 244.039C1353.18 251.956 1351.39 267.639 1346.27 267.036C1341.14 266.433 1336.59 253.967 1334.96 247.809C1332.94 252.333 1327.94 261.08 1324.02 259.873C1320.1 258.667 1322.39 246.553 1324.02 240.647C1319.62 249.317 1309.55 265.604 1304.42 261.381Z" stroke="black"/>
  </g>
  <g filter="url(#filter17_d_22057_76)">
    <path d="M1311.13 217.142C1306.89 213.674 1342.93 110.963 1345.43 110.963C1347.92 110.963 1347.3 113.128 1358.53 148.109C1370.32 184.866 1379.73 215.903 1373.8 215.903C1369.06 215.903 1364.14 208.267 1362.27 204.449C1362.68 208.267 1362.52 215.903 1358.53 215.903C1354.53 215.903 1352.29 207.236 1351.67 202.902C1351.46 209.402 1349.98 222.28 1345.74 221.785C1341.5 221.29 1337.74 211.054 1336.39 205.997C1334.72 209.712 1330.59 216.894 1327.35 215.903C1324.1 214.913 1325.99 204.965 1327.35 200.116C1323.71 207.236 1315.37 220.609 1311.13 217.142Z" fill="#156D9D"/>
    <path d="M1311.13 217.142C1306.89 213.674 1342.93 110.963 1345.43 110.963C1347.92 110.963 1347.3 113.128 1358.53 148.109C1370.32 184.866 1379.73 215.903 1373.8 215.903C1369.06 215.903 1364.14 208.267 1362.27 204.449C1362.68 208.267 1362.52 215.903 1358.53 215.903C1354.53 215.903 1352.29 207.236 1351.67 202.902C1351.46 209.402 1349.98 222.28 1345.74 221.785C1341.5 221.29 1337.74 211.054 1336.39 205.997C1334.72 209.712 1330.59 216.894 1327.35 215.903C1324.1 214.913 1325.99 204.965 1327.35 200.116C1323.71 207.236 1315.37 220.609 1311.13 217.142Z" stroke="black"/>
  </g>
  <path d="M257.5 253.463C192.3 253.463 51 268.463 0 268.463V462.463H1544V268.463C1509 268.463 1470.5 253.463 1393 253.463C1302.5 253.463 1306.5 268.463 1167.5 268.463C1028.5 268.463 955 253.463 862 253.463C769 253.463 650.5 268.463 540.5 268.463C430.5 268.463 339 253.463 257.5 253.463Z" fill="url(#paint0_linear_22057_76)"/>
  <rect y="462" width="1544" height="201" fill="url(#paint1_linear_22057_76)"/>
  <defs>
    <filter id="filter0_d_22057_76" x="1231.1" y="209.34" width="41.8164" height="81.1228" filterUnits="userSpaceOnUse" color-interpolation-filters="sRGB">
      <feFlood flood-opacity="0" result="BackgroundImageFix"/>
      <feColorMatrix in="SourceAlpha" type="matrix" values="0 0 0 0 0 0 0 0 0 0 0 0 0 0 0 0 0 0 127 0" result="hardAlpha"/>
      <feOffset dy="6"/>
      <feComposite in2="hardAlpha" operator="out"/>
      <feColorMatrix type="matrix" values="0 0 0 0 0 0 0 0 0 0 0 0 0 0 0 0 0 0 0.25 0"/>
      <feBlend mode="normal" in2="BackgroundImageFix" result="effect1_dropShadow_22057_76"/>
      <feBlend mode="normal" in="SourceGraphic" in2="effect1_dropShadow_22057_76" result="shape"/>
    </filter>
    <filter id="filter1_d_22057_76" x="1494.1" y="209.34" width="41.8164" height="81.1228" filterUnits="userSpaceOnUse" color-interpolation-filters="sRGB">
      <feFlood flood-opacity="0" result="BackgroundImageFix"/>
      <feColorMatrix in="SourceAlpha" type="matrix" values="0 0 0 0 0 0 0 0 0 0 0 0 0 0 0 0 0 0 127 0" result="hardAlpha"/>
      <feOffset dy="6"/>
      <feComposite in2="hardAlpha" operator="out"/>
      <feColorMatrix type="matrix" values="0 0 0 0 0 0 0 0 0 0 0 0 0 0 0 0 0 0 0.25 0"/>
      <feBlend mode="normal" in2="BackgroundImageFix" result="effect1_dropShadow_22057_76"/>
      <feBlend mode="normal" in="SourceGraphic" in2="effect1_dropShadow_22057_76" result="shape"/>
    </filter>
    <filter id="filter2_d_22057_76" x="557.105" y="158.735" width="69.2969" height="131.727" filterUnits="userSpaceOnUse" color-interpolation-filters="sRGB">
      <feFlood flood-opacity="0" result="BackgroundImageFix"/>
      <feColorMatrix in="SourceAlpha" type="matrix" values="0 0 0 0 0 0 0 0 0 0 0 0 0 0 0 0 0 0 127 0" result="hardAlpha"/>
      <feOffset dy="6"/>
      <feComposite in2="hardAlpha" operator="out"/>
      <feColorMatrix type="matrix" values="0 0 0 0 0 0 0 0 0 0 0 0 0 0 0 0 0 0 0.25 0"/>
      <feBlend mode="normal" in2="BackgroundImageFix" result="effect1_dropShadow_22057_76"/>
      <feBlend mode="normal" in="SourceGraphic" in2="effect1_dropShadow_22057_76" result="shape"/>
    </filter>
    <filter id="filter3_d_22057_76" x="849.105" y="158.735" width="69.2969" height="131.727" filterUnits="userSpaceOnUse" color-interpolation-filters="sRGB">
      <feFlood flood-opacity="0" result="BackgroundImageFix"/>
      <feColorMatrix in="SourceAlpha" type="matrix" values="0 0 0 0 0 0 0 0 0 0 0 0 0 0 0 0 0 0 127 0" result="hardAlpha"/>
      <feOffset dy="6"/>
      <feComposite in2="hardAlpha" operator="out"/>
      <feColorMatrix type="matrix" values="0 0 0 0 0 0 0 0 0 0 0 0 0 0 0 0 0 0 0.25 0"/>
      <feBlend mode="normal" in2="BackgroundImageFix" result="effect1_dropShadow_22057_76"/>
      <feBlend mode="normal" in="SourceGraphic" in2="effect1_dropShadow_22057_76" result="shape"/>
    </filter>
    <filter id="filter4_d_22057_76" x="464.098" y="179.308" width="57.8125" height="111.155" filterUnits="userSpaceOnUse" color-interpolation-filters="sRGB">
      <feFlood flood-opacity="0" result="BackgroundImageFix"/>
      <feColorMatrix in="SourceAlpha" type="matrix" values="0 0 0 0 0 0 0 0 0 0 0 0 0 0 0 0 0 0 127 0" result="hardAlpha"/>
      <feOffset dy="6"/>
      <feComposite in2="hardAlpha" operator="out"/>
      <feColorMatrix type="matrix" values="0 0 0 0 0 0 0 0 0 0 0 0 0 0 0 0 0 0 0.25 0"/>
      <feBlend mode="normal" in2="BackgroundImageFix" result="effect1_dropShadow_22057_76"/>
      <feBlend mode="normal" in="SourceGraphic" in2="effect1_dropShadow_22057_76" result="shape"/>
    </filter>
    <filter id="filter5_d_22057_76" x="158.098" y="179.308" width="57.8125" height="111.155" filterUnits="userSpaceOnUse" color-interpolation-filters="sRGB">
      <feFlood flood-opacity="0" result="BackgroundImageFix"/>
      <feColorMatrix in="SourceAlpha" type="matrix" values="0 0 0 0 0 0 0 0 0 0 0 0 0 0 0 0 0 0 127 0" result="hardAlpha"/>
      <feOffset dy="6"/>
      <feComposite in2="hardAlpha" operator="out"/>
      <feColorMatrix type="matrix" values="0 0 0 0 0 0 0 0 0 0 0 0 0 0 0 0 0 0 0.25 0"/>
      <feBlend mode="normal" in2="BackgroundImageFix" result="effect1_dropShadow_22057_76"/>
      <feBlend mode="normal" in="SourceGraphic" in2="effect1_dropShadow_22057_76" result="shape"/>
    </filter>
    <filter id="filter6_d_22057_76" x="247.094" y="224.367" width="33.8203" height="66.0957" filterUnits="userSpaceOnUse" color-interpolation-filters="sRGB">
      <feFlood flood-opacity="0" result="BackgroundImageFix"/>
      <feColorMatrix in="SourceAlpha" type="matrix" values="0 0 0 0 0 0 0 0 0 0 0 0 0 0 0 0 0 0 127 0" result="hardAlpha"/>
      <feOffset dy="6"/>
      <feComposite in2="hardAlpha" operator="out"/>
      <feColorMatrix type="matrix" values="0 0 0 0 0 0 0 0 0 0 0 0 0 0 0 0 0 0 0.25 0"/>
      <feBlend mode="normal" in2="BackgroundImageFix" result="effect1_dropShadow_22057_76"/>
      <feBlend mode="normal" in="SourceGraphic" in2="effect1_dropShadow_22057_76" result="shape"/>
    </filter>
    <filter id="filter7_d_22057_76" x="0.09375" y="224.367" width="33.8223" height="66.0957" filterUnits="userSpaceOnUse" color-interpolation-filters="sRGB">
      <feFlood flood-opacity="0" result="BackgroundImageFix"/>
      <feColorMatrix in="SourceAlpha" type="matrix" values="0 0 0 0 0 0 0 0 0 0 0 0 0 0 0 0 0 0 127 0" result="hardAlpha"/>
      <feOffset dy="6"/>
      <feComposite in2="hardAlpha" operator="out"/>
      <feColorMatrix type="matrix" values="0 0 0 0 0 0 0 0 0 0 0 0 0 0 0 0 0 0 0.25 0"/>
      <feBlend mode="normal" in2="BackgroundImageFix" result="effect1_dropShadow_22057_76"/>
      <feBlend mode="normal" in="SourceGraphic" in2="effect1_dropShadow_22057_76" result="shape"/>
    </filter>
    <filter id="filter8_d_22057_76" x="1057.1" y="179.308" width="57.8125" height="111.155" filterUnits="userSpaceOnUse" color-interpolation-filters="sRGB">
      <feFlood flood-opacity="0" result="BackgroundImageFix"/>
      <feColorMatrix in="SourceAlpha" type="matrix" values="0 0 0 0 0 0 0 0 0 0 0 0 0 0 0 0 0 0 127 0" result="hardAlpha"/>
      <feOffset dy="6"/>
      <feComposite in2="hardAlpha" operator="out"/>
      <feColorMatrix type="matrix" values="0 0 0 0 0 0 0 0 0 0 0 0 0 0 0 0 0 0 0.25 0"/>
      <feBlend mode="normal" in2="BackgroundImageFix" result="effect1_dropShadow_22057_76"/>
      <feBlend mode="normal" in="SourceGraphic" in2="effect1_dropShadow_22057_76" result="shape"/>
    </filter>
    <filter id="filter9_d_22057_76" x="1262.1" y="190.336" width="51.8164" height="100.126" filterUnits="userSpaceOnUse" color-interpolation-filters="sRGB">
      <feFlood flood-opacity="0" result="BackgroundImageFix"/>
      <feColorMatrix in="SourceAlpha" type="matrix" values="0 0 0 0 0 0 0 0 0 0 0 0 0 0 0 0 0 0 127 0" result="hardAlpha"/>
      <feOffset dy="6"/>
      <feComposite in2="hardAlpha" operator="out"/>
      <feColorMatrix type="matrix" values="0 0 0 0 0 0 0 0 0 0 0 0 0 0 0 0 0 0 0.25 0"/>
      <feBlend mode="normal" in2="BackgroundImageFix" result="effect1_dropShadow_22057_76"/>
      <feBlend mode="normal" in="SourceGraphic" in2="effect1_dropShadow_22057_76" result="shape"/>
    </filter>
    <filter id="filter10_d_22057_76" x="903.5" y="180.36" width="102" height="131.023" filterUnits="userSpaceOnUse" color-interpolation-filters="sRGB">
      <feFlood flood-opacity="0" result="BackgroundImageFix"/>
      <feColorMatrix in="SourceAlpha" type="matrix" values="0 0 0 0 0 0 0 0 0 0 0 0 0 0 0 0 0 0 127 0" result="hardAlpha"/>
      <feOffset dy="9"/>
      <feComposite in2="hardAlpha" operator="out"/>
      <feColorMatrix type="matrix" values="0 0 0 0 0 0 0 0 0 0 0 0 0 0 0 0 0 0 0.25 0"/>
      <feBlend mode="normal" in2="BackgroundImageFix" result="effect1_dropShadow_22057_76"/>
      <feBlend mode="normal" in="SourceGraphic" in2="effect1_dropShadow_22057_76" result="shape"/>
    </filter>
    <filter id="filter11_d_22057_76" x="907.227" y="167.259" width="87.4336" height="105.446" filterUnits="userSpaceOnUse" color-interpolation-filters="sRGB">
      <feFlood flood-opacity="0" result="BackgroundImageFix"/>
      <feColorMatrix in="SourceAlpha" type="matrix" values="0 0 0 0 0 0 0 0 0 0 0 0 0 0 0 0 0 0 127 0" result="hardAlpha"/>
      <feOffset dy="9"/>
      <feComposite in2="hardAlpha" operator="out"/>
      <feColorMatrix type="matrix" values="0 0 0 0 0 0 0 0 0 0 0 0 0 0 0 0 0 0 0.25 0"/>
      <feBlend mode="normal" in2="BackgroundImageFix" result="effect1_dropShadow_22057_76"/>
      <feBlend mode="normal" in="SourceGraphic" in2="effect1_dropShadow_22057_76" result="shape"/>
    </filter>
    <filter id="filter12_d_22057_76" x="915.125" y="125.463" width="79.4688" height="104.256" filterUnits="userSpaceOnUse" color-interpolation-filters="sRGB">
      <feFlood flood-opacity="0" result="BackgroundImageFix"/>
      <feColorMatrix in="SourceAlpha" type="matrix" values="0 0 0 0 0 0 0 0 0 0 0 0 0 0 0 0 0 0 127 0" result="hardAlpha"/>
      <feOffset dy="9"/>
      <feComposite in2="hardAlpha" operator="out"/>
      <feColorMatrix type="matrix" values="0 0 0 0 0 0 0 0 0 0 0 0 0 0 0 0 0 0 0.25 0"/>
      <feBlend mode="normal" in2="BackgroundImageFix" result="effect1_dropShadow_22057_76"/>
      <feBlend mode="normal" in="SourceGraphic" in2="effect1_dropShadow_22057_76" result="shape"/>
    </filter>
    <filter id="filter13_d_22057_76" x="360.5" y="195.463" width="74" height="105" filterUnits="userSpaceOnUse" color-interpolation-filters="sRGB">
      <feFlood flood-opacity="0" result="BackgroundImageFix"/>
      <feColorMatrix in="SourceAlpha" type="matrix" values="0 0 0 0 0 0 0 0 0 0 0 0 0 0 0 0 0 0 127 0" result="hardAlpha"/>
      <feOffset dy="9"/>
      <feComposite in2="hardAlpha" operator="out"/>
      <feColorMatrix type="matrix" values="0 0 0 0 0 0 0 0 0 0 0 0 0 0 0 0 0 0 0.25 0"/>
      <feBlend mode="normal" in2="BackgroundImageFix" result="effect1_dropShadow_22057_76"/>
      <feBlend mode="normal" in="SourceGraphic" in2="effect1_dropShadow_22057_76" result="shape"/>
    </filter>
    <filter id="filter14_d_22057_76" x="87.5" y="157.463" width="79.6289" height="76.756" filterUnits="userSpaceOnUse" color-interpolation-filters="sRGB">
      <feFlood flood-opacity="0" result="BackgroundImageFix"/>
      <feColorMatrix in="SourceAlpha" type="matrix" values="0 0 0 0 0 0 0 0 0 0 0 0 0 0 0 0 0 0 127 0" result="hardAlpha"/>
      <feOffset dy="9"/>
      <feComposite in2="hardAlpha" operator="out"/>
      <feColorMatrix type="matrix" values="0 0 0 0 0 0 0 0 0 0 0 0 0 0 0 0 0 0 0.25 0"/>
      <feBlend mode="normal" in2="BackgroundImageFix" result="effect1_dropShadow_22057_76"/>
      <feBlend mode="normal" in="SourceGraphic" in2="effect1_dropShadow_22057_76" result="shape"/>
    </filter>
    <filter id="filter15_d_22057_76" x="363.5" y="185.463" width="65" height="77.0002" filterUnits="userSpaceOnUse" color-interpolation-filters="sRGB">
      <feFlood flood-opacity="0" result="BackgroundImageFix"/>
      <feColorMatrix in="SourceAlpha" type="matrix" values="0 0 0 0 0 0 0 0 0 0 0 0 0 0 0 0 0 0 127 0" result="hardAlpha"/>
      <feOffset dy="9"/>
      <feComposite in2="hardAlpha" operator="out"/>
      <feColorMatrix type="matrix" values="0 0 0 0 0 0 0 0 0 0 0 0 0 0 0 0 0 0 0.25 0"/>
      <feBlend mode="normal" in2="BackgroundImageFix" result="effect1_dropShadow_22057_76"/>
      <feBlend mode="normal" in="SourceGraphic" in2="effect1_dropShadow_22057_76" result="shape"/>
    </filter>
    <filter id="filter16_d_22057_76" x="1303.5" y="131.574" width="79.3984" height="144.979" filterUnits="userSpaceOnUse" color-interpolation-filters="sRGB">
      <feFlood flood-opacity="0" result="BackgroundImageFix"/>
      <feColorMatrix in="SourceAlpha" type="matrix" values="0 0 0 0 0 0 0 0 0 0 0 0 0 0 0 0 0 0 127 0" result="hardAlpha"/>
      <feOffset dy="9"/>
      <feComposite in2="hardAlpha" operator="out"/>
      <feColorMatrix type="matrix" values="0 0 0 0 0 0 0 0 0 0 0 0 0 0 0 0 0 0 0.25 0"/>
      <feBlend mode="normal" in2="BackgroundImageFix" result="effect1_dropShadow_22057_76"/>
      <feBlend mode="normal" in="SourceGraphic" in2="effect1_dropShadow_22057_76" result="shape"/>
    </filter>
    <filter id="filter17_d_22057_76" x="1310.29" y="110.463" width="65.8438" height="120.837" filterUnits="userSpaceOnUse" color-interpolation-filters="sRGB">
      <feFlood flood-opacity="0" result="BackgroundImageFix"/>
      <feColorMatrix in="SourceAlpha" type="matrix" values="0 0 0 0 0 0 0 0 0 0 0 0 0 0 0 0 0 0 127 0" result="hardAlpha"/>
      <feOffset dy="9"/>
      <feComposite in2="hardAlpha" operator="out"/>
      <feColorMatrix type="matrix" values="0 0 0 0 0 0 0 0 0 0 0 0 0 0 0 0 0 0 0.25 0"/>
      <feBlend mode="normal" in2="BackgroundImageFix" result="effect1_dropShadow_22057_76"/>
      <feBlend mode="normal" in="SourceGraphic" in2="effect1_dropShadow_22057_76" result="shape"/>
    </filter>
    <filter id="filter18_d_22057_76" x="840" y="0" width="65" height="85" filterUnits="userSpaceOnUse" color-interpolation-filters="sRGB">
      <feFlood flood-opacity="0" result="BackgroundImageFix"/>
      <feColorMatrix in="SourceAlpha" type="matrix" values="0 0 0 0 0 0 0 0 0 0 0 0 0 0 0 0 0 0 127 0" result="hardAlpha"/>
      <feMorphology radius="2" operator="dilate" in="SourceAlpha" result="effect1_dropShadow_22057_76"/>
      <feOffset/>
      <feGaussianBlur stdDeviation="5"/>
      <feComposite in2="hardAlpha" operator="out"/>
      <feColorMatrix type="matrix" values="0 0 0 0 1 0 0 0 0 0.880348 0 0 0 0 0.658138 0 0 0 1 0"/>
      <feBlend mode="normal" in2="BackgroundImageFix" result="effect1_dropShadow_22057_76"/>
      <feBlend mode="normal" in="SourceGraphic" in2="effect1_dropShadow_22057_76" result="shape"/>
    </filter>
    <filter id="filter19_d_22057_76" x="482" y="124" width="55" height="71" filterUnits="userSpaceOnUse" color-interpolation-filters="sRGB">
      <feFlood flood-opacity="0" result="BackgroundImageFix"/>
      <feColorMatrix in="SourceAlpha" type="matrix" values="0 0 0 0 0 0 0 0 0 0 0 0 0 0 0 0 0 0 127 0" result="hardAlpha"/>
      <feMorphology radius="2" operator="dilate" in="SourceAlpha" result="effect1_dropShadow_22057_76"/>
      <feOffset/>
      <feGaussianBlur stdDeviation="5"/>
      <feComposite in2="hardAlpha" operator="out"/>
      <feColorMatrix type="matrix" values="0 0 0 0 1 0 0 0 0 0.880348 0 0 0 0 0.658138 0 0 0 1 0"/>
      <feBlend mode="normal" in2="BackgroundImageFix" result="effect1_dropShadow_22057_76"/>
      <feBlend mode="normal" in="SourceGraphic" in2="effect1_dropShadow_22057_76" result="shape"/>
    </filter>
    <filter id="filter20_d_22057_76" x="1021" y="224" width="49" height="61" filterUnits="userSpaceOnUse" color-interpolation-filters="sRGB">
      <feFlood flood-opacity="0" result="BackgroundImageFix"/>
      <feColorMatrix in="SourceAlpha" type="matrix" values="0 0 0 0 0 0 0 0 0 0 0 0 0 0 0 0 0 0 127 0" result="hardAlpha"/>
      <feMorphology radius="2" operator="dilate" in="SourceAlpha" result="effect1_dropShadow_22057_76"/>
      <feOffset/>
      <feGaussianBlur stdDeviation="5"/>
      <feComposite in2="hardAlpha" operator="out"/>
      <feColorMatrix type="matrix" values="0 0 0 0 1 0 0 0 0 0.880348 0 0 0 0 0.658138 0 0 0 1 0"/>
      <feBlend mode="normal" in2="BackgroundImageFix" result="effect1_dropShadow_22057_76"/>
      <feBlend mode="normal" in="SourceGraphic" in2="effect1_dropShadow_22057_76" result="shape"/>
    </filter>
    <filter id="filter21_d_22057_76" x="353" y="347" width="65" height="85" filterUnits="userSpaceOnUse" color-interpolation-filters="sRGB">
      <feFlood flood-opacity="0" result="BackgroundImageFix"/>
      <feColorMatrix in="SourceAlpha" type="matrix" values="0 0 0 0 0 0 0 0 0 0 0 0 0 0 0 0 0 0 127 0" result="hardAlpha"/>
      <feMorphology radius="2" operator="dilate" in="SourceAlpha" result="effect1_dropShadow_22057_76"/>
      <feOffset/>
      <feGaussianBlur stdDeviation="5"/>
      <feComposite in2="hardAlpha" operator="out"/>
      <feColorMatrix type="matrix" values="0 0 0 0 1 0 0 0 0 0.880348 0 0 0 0 0.658138 0 0 0 1 0"/>
      <feBlend mode="normal" in2="BackgroundImageFix" result="effect1_dropShadow_22057_76"/>
      <feBlend mode="normal" in="SourceGraphic" in2="effect1_dropShadow_22057_76" result="shape"/>
    </filter>
    <filter id="filter22_d_22057_76" x="1134" y="205" width="49" height="61" filterUnits="userSpaceOnUse" color-interpolation-filters="sRGB">
      <feFlood flood-opacity="0" result="BackgroundImageFix"/>
      <feColorMatrix in="SourceAlpha" type="matrix" values="0 0 0 0 0 0 0 0 0 0 0 0 0 0 0 0 0 0 127 0" result="hardAlpha"/>
      <feMorphology radius="2" operator="dilate" in="SourceAlpha" result="effect1_dropShadow_22057_76"/>
      <feOffset/>
      <feGaussianBlur stdDeviation="5"/>
      <feComposite in2="hardAlpha" operator="out"/>
      <feColorMatrix type="matrix" values="0 0 0 0 1 0 0 0 0 0.880348 0 0 0 0 0.658138 0 0 0 1 0"/>
      <feBlend mode="normal" in2="BackgroundImageFix" result="effect1_dropShadow_22057_76"/>
      <feBlend mode="normal" in="SourceGraphic" in2="effect1_dropShadow_22057_76" result="shape"/>
    </filter>
    <linearGradient id="paint0_linear_22057_76" x1="773.25" y1="225.694" x2="773.25" y2="377.963" gradientUnits="userSpaceOnUse">
      <stop stop-color="#82BCDC"/>
      <stop offset="1" stop-color="#E9EEF7"/>
    </linearGradient>
    <linearGradient id="paint1_linear_22057_76" x1="773.25" y1="519.161" x2="773.25" y2="659.674" gradientUnits="userSpaceOnUse">
      <stop stop-color="#E9EEF7"/>
      <stop offset="0.6" stop-color="#B2DFFF"/>
      <stop offset="1" stop-color="#76AFCF"/>
    </linearGradient>
  </defs>
</svg>
