<svg width="334" height="333" viewBox="0 0 334 333" fill="none" xmlns="http://www.w3.org/2000/svg">
  <g filter="url(#filter0_d_22057_76)">
    <ellipse cx="168" cy="74.5" rx="21" ry="9.5" fill="#FFFDEB"/>
    <path d="M188.5 74.5C188.5 76.8054 186.411 79.0575 182.643 80.762C178.921 82.4456 173.745 83.5 168 83.5C162.255 83.5 157.079 82.4456 153.357 80.762C149.589 79.0575 147.5 76.8054 147.5 74.5C147.5 72.1946 149.589 69.9425 153.357 68.238C157.079 66.5544 162.255 65.5 168 65.5C173.745 65.5 178.921 66.5544 182.643 68.238C186.411 69.9425 188.5 72.1946 188.5 74.5Z" stroke="black"/>
  </g>
  <g filter="url(#filter1_d_22057_76)">
    <path d="M234 28.5C234 44.2401 212.5 57 148 57C80 57 62 44.2401 62 28.5C62 12.7599 87.5 0 148 0C208.5 0 234 12.7599 234 28.5Z" fill="#FFFDEB"/>
    <path d="M233.5 28.5C233.5 36.0725 228.354 43.0636 215.008 48.1857C201.657 53.3101 180.231 56.5 148 56.5C114.015 56.5 92.5932 53.3091 79.6844 48.1878C73.2355 45.6293 68.9434 42.6015 66.2642 39.2796C63.5922 35.9666 62.5 32.3312 62.5 28.5C62.5 20.9575 68.6036 13.9535 82.486 8.81638C96.3427 3.68881 117.774 0.5 148 0.5C178.226 0.5 199.657 3.68881 213.514 8.81638C227.396 13.9535 233.5 20.9575 233.5 28.5Z" stroke="black"/>
  </g>
  <path d="M79.608 33C78.7547 33 78.008 32.7653 77.368 32.296C76.7387 31.8267 76.2533 31.16 75.912 30.296C75.5707 29.432 75.4 28.4133 75.4 27.24C75.4 26.5573 75.512 25.8267 75.736 25.048C75.9707 24.2693 76.3013 23.6133 76.728 23.08C77.1653 22.536 77.672 22.264 78.248 22.264C78.7173 22.264 79.1067 22.4347 79.416 22.776C79.7253 23.1173 79.88 23.5387 79.88 24.04C79.88 24.1893 79.8427 24.392 79.768 24.648C79.704 24.8933 79.6293 25.1493 79.544 25.416C79.384 25.8747 79.2613 26.28 79.176 26.632C79.0907 26.9733 79.048 27.304 79.048 27.624C79.048 28.0933 79.1173 28.4347 79.256 28.648C79.3947 28.8613 79.5653 28.968 79.768 28.968C80.0347 28.968 80.2213 28.8347 80.328 28.568C80.4453 28.2907 80.504 27.784 80.504 27.048L80.488 25.944C80.488 25.0907 80.6 24.4133 80.824 23.912C81.048 23.4 81.496 23.144 82.168 23.144C82.6693 23.144 83.048 23.2827 83.304 23.56C83.56 23.8373 83.7253 24.1893 83.8 24.616C83.8747 25.032 83.912 25.5387 83.912 26.136V26.952C83.912 27.7307 83.976 28.2853 84.104 28.616C84.2427 28.936 84.4613 29.096 84.76 29.096C84.9627 29.096 85.1173 28.9947 85.224 28.792C85.3413 28.5787 85.4 28.264 85.4 27.848C85.4 27.5387 85.3627 27.2293 85.288 26.92C85.2133 26.6107 85.096 26.216 84.936 25.736C84.7973 25.2773 84.696 24.936 84.632 24.712C84.5787 24.4773 84.552 24.2533 84.552 24.04C84.552 23.5387 84.712 23.1227 85.032 22.792C85.3627 22.4613 85.7467 22.296 86.184 22.296C86.8133 22.296 87.3413 22.5627 87.768 23.096C88.2053 23.6187 88.5307 24.264 88.744 25.032C88.9573 25.8 89.064 26.536 89.064 27.24C89.064 28.4133 88.8933 29.432 88.552 30.296C88.2107 31.16 87.72 31.8267 87.08 32.296C86.4507 32.7547 85.7093 32.984 84.856 32.984C84.3867 32.984 83.928 32.8773 83.48 32.664C83.032 32.4507 82.616 32.1307 82.232 31.704C81.848 32.1307 81.4267 32.456 80.968 32.68C80.52 32.8933 80.0667 33 79.608 33ZM91.7888 33C91.2661 33 90.8661 32.7973 90.5888 32.392C90.3114 31.9867 90.1194 31.3627 90.0128 30.52C89.9168 29.6773 89.8688 28.5093 89.8688 27.016C89.8688 25.768 89.9008 24.792 89.9648 24.088C90.0394 23.384 90.2048 22.8293 90.4608 22.424C90.7168 22.008 91.1168 21.8 91.6608 21.8C92.1301 21.8 92.4821 21.9493 92.7168 22.248C92.9514 22.5467 93.1008 22.92 93.1648 23.368C93.2288 23.816 93.2608 24.376 93.2608 25.048V25.768C93.4741 25.6613 93.6608 25.5867 93.8208 25.544C93.9914 25.5013 94.2421 25.48 94.5728 25.48C95.2981 25.48 95.9221 25.6667 96.4448 26.04C96.9674 26.4027 97.3621 26.8933 97.6288 27.512C97.9061 28.1307 98.0448 28.8187 98.0448 29.576C98.0448 30.5573 97.9381 31.368 97.7248 32.008C97.5221 32.6373 97.1168 32.952 96.5088 32.952C96.0821 32.952 95.7621 32.856 95.5488 32.664C95.3461 32.472 95.2128 32.2107 95.1488 31.88C95.0954 31.5493 95.0688 31.096 95.0688 30.52C95.0688 29.8907 94.9994 29.4053 94.8608 29.064C94.7328 28.7227 94.5034 28.552 94.1727 28.552C93.8421 28.552 93.6021 28.728 93.4528 29.08C93.3141 29.4213 93.2394 29.9013 93.2288 30.52C93.2181 31.096 93.1808 31.5547 93.1168 31.896C93.0634 32.2373 92.9301 32.5093 92.7168 32.712C92.5141 32.904 92.2048 33 91.7888 33ZM102.525 33.016C101.757 33.0267 101.069 32.8667 100.461 32.536C99.8637 32.2053 99.3943 31.752 99.053 31.176C98.7223 30.5893 98.5463 29.9387 98.525 29.224C98.5143 28.5093 98.6797 27.8693 99.021 27.304C99.3623 26.7387 99.837 26.2907 100.445 25.96C101.064 25.6293 101.757 25.464 102.525 25.464C103.272 25.464 103.944 25.624 104.541 25.944C105.149 26.264 105.629 26.712 105.981 27.288C106.333 27.864 106.52 28.5093 106.541 29.224C106.552 29.9173 106.386 30.552 106.045 31.128C105.704 31.6933 105.224 32.1467 104.605 32.488C103.997 32.8293 103.304 33.0053 102.525 33.016ZM102.573 30.68C102.861 30.68 103.112 30.568 103.325 30.344C103.538 30.12 103.645 29.8587 103.645 29.56C103.645 29.2613 103.538 29.0053 103.325 28.792C103.112 28.568 102.861 28.456 102.573 28.456C102.285 28.456 102.034 28.568 101.821 28.792C101.608 29.0053 101.501 29.2613 101.501 29.56C101.501 29.8587 101.608 30.12 101.821 30.344C102.034 30.568 102.285 30.68 102.573 30.68ZM111.69 23.816C111.69 24.3493 111.567 24.8347 111.322 25.272C111.087 25.6987 110.799 26.0347 110.458 26.28C110.127 26.5253 109.828 26.648 109.562 26.648C109.338 26.648 109.156 26.584 109.018 26.456C108.89 26.328 108.826 26.168 108.826 25.976C108.826 25.8373 108.858 25.72 108.922 25.624C108.986 25.528 109.082 25.4053 109.21 25.256C109.295 25.1707 109.375 25.0747 109.45 24.968C109.524 24.8613 109.578 24.7547 109.61 24.648C109.258 24.552 108.991 24.3867 108.81 24.152C108.628 23.9067 108.538 23.6293 108.538 23.32C108.538 22.9253 108.676 22.5733 108.954 22.264C109.242 21.9547 109.599 21.8 110.026 21.8C110.527 21.8 110.927 21.9707 111.226 22.312C111.535 22.6427 111.69 23.144 111.69 23.816ZM116.769 33C115.83 33 115.084 32.8453 114.529 32.536C113.974 32.2267 113.697 31.8267 113.697 31.336C113.697 31.016 113.804 30.7707 114.017 30.6C114.241 30.4187 114.524 30.328 114.865 30.328C115.057 30.328 115.212 30.3547 115.329 30.408C115.446 30.4613 115.564 30.536 115.681 30.632C115.766 30.7067 115.836 30.76 115.889 30.792C115.953 30.824 116.028 30.84 116.113 30.84C116.337 30.84 116.449 30.76 116.449 30.6C116.449 30.4507 116.39 30.3387 116.273 30.264C116.156 30.1787 115.953 30.0773 115.665 29.96C115.398 29.8533 115.222 29.7787 115.137 29.736C114.646 29.5013 114.284 29.224 114.049 28.904C113.814 28.584 113.697 28.2427 113.697 27.88C113.697 27.4747 113.841 27.0907 114.129 26.728C114.428 26.3547 114.844 26.056 115.377 25.832C115.921 25.5973 116.545 25.48 117.249 25.48C117.857 25.48 118.406 25.5653 118.897 25.736C119.398 25.9067 119.793 26.1413 120.081 26.44C120.369 26.728 120.513 27.048 120.513 27.4C120.513 27.7307 120.406 27.9813 120.193 28.152C119.99 28.3227 119.713 28.408 119.361 28.408C119.222 28.408 119.11 28.3973 119.025 28.376C118.95 28.344 118.849 28.296 118.721 28.232C118.646 28.1893 118.566 28.152 118.481 28.12C118.406 28.088 118.321 28.072 118.225 28.072C118.14 28.072 118.065 28.104 118.001 28.168C117.937 28.2213 117.905 28.2907 117.905 28.376C117.905 28.536 118.022 28.6533 118.257 28.728C118.876 28.9307 119.372 29.1867 119.745 29.496C120.129 29.8053 120.321 30.232 120.321 30.776C120.321 31.4693 119.996 32.0133 119.345 32.408C118.705 32.8027 117.846 33 116.769 33ZM128.983 33C128.151 33 127.468 32.8133 126.935 32.44C126.402 32.056 126.135 31.5067 126.135 30.792C126.135 30.1733 126.407 29.6827 126.951 29.32C127.495 28.9573 128.172 28.776 128.983 28.776C129.282 28.776 129.559 28.8027 129.815 28.856C130.082 28.8987 130.263 28.952 130.359 29.016C130.359 28.7493 130.247 28.5307 130.023 28.36C129.799 28.1787 129.458 28.088 128.999 28.088C128.796 28.088 128.631 28.104 128.503 28.136C128.375 28.168 128.236 28.216 128.087 28.28C127.938 28.344 127.799 28.392 127.671 28.424C127.554 28.456 127.394 28.472 127.191 28.472C126.85 28.472 126.583 28.3867 126.391 28.216C126.199 28.0347 126.103 27.7627 126.103 27.4C126.103 26.984 126.252 26.632 126.551 26.344C126.86 26.056 127.244 25.8427 127.703 25.704C128.162 25.5547 128.62 25.48 129.079 25.48C129.986 25.48 130.743 25.6507 131.351 25.992C131.97 26.3227 132.423 26.7653 132.711 27.32C133.01 27.8747 133.159 28.488 133.159 29.16C133.159 29.5227 133.127 29.8587 133.063 30.168C133.01 30.4773 132.935 30.7173 132.839 30.888C132.988 31.016 133.1 31.1653 133.175 31.336C133.26 31.5067 133.303 31.6827 133.303 31.864C133.303 32.1733 133.196 32.44 132.983 32.664C132.78 32.888 132.508 33 132.167 33C131.911 33 131.703 32.9627 131.543 32.888C131.383 32.8133 131.212 32.696 131.031 32.536C130.764 32.696 130.471 32.8133 130.151 32.888C129.842 32.9627 129.452 33 128.983 33ZM129.303 31.384C129.527 31.384 129.703 31.336 129.831 31.24C129.97 31.144 130.039 31.0267 130.039 30.888C130.039 30.7493 129.97 30.632 129.831 30.536C129.703 30.44 129.527 30.392 129.303 30.392C129.079 30.392 128.898 30.44 128.759 30.536C128.631 30.632 128.567 30.7493 128.567 30.888C128.567 31.0267 128.631 31.144 128.759 31.24C128.898 31.336 129.079 31.384 129.303 31.384ZM142.388 35.736C141.769 35.736 141.263 35.6187 140.868 35.384C140.473 35.16 140.276 34.8507 140.276 34.456C140.276 34.104 140.409 33.816 140.676 33.592C140.953 33.3787 141.3 33.272 141.716 33.272C141.791 33.272 141.913 33.2827 142.084 33.304C142.297 33.336 142.495 33.352 142.676 33.352C143.135 33.352 143.529 33.272 143.86 33.112C144.201 32.9627 144.409 32.76 144.484 32.504C144.313 32.6 144.073 32.68 143.764 32.744C143.455 32.808 143.124 32.84 142.772 32.84C141.865 32.84 141.119 32.664 140.532 32.312C139.956 31.96 139.54 31.528 139.284 31.016C139.028 30.4933 138.9 29.9813 138.9 29.48C138.9 28.648 139.081 27.928 139.444 27.32C139.817 26.712 140.297 26.248 140.884 25.928C141.471 25.608 142.084 25.448 142.724 25.448C142.937 25.448 143.183 25.464 143.46 25.496C143.748 25.528 143.988 25.5653 144.18 25.608C144.265 25.32 144.409 25.096 144.612 24.936C144.825 24.776 145.14 24.696 145.556 24.696C146.249 24.696 146.751 25.128 147.06 25.992C147.38 26.856 147.54 27.9227 147.54 29.192C147.54 29.7893 147.508 30.3547 147.444 30.888C147.284 32.392 146.756 33.576 145.86 34.44C144.964 35.304 143.807 35.736 142.388 35.736ZM142.98 30.44C143.311 30.44 143.599 30.3227 143.844 30.088C144.089 29.8427 144.212 29.5547 144.212 29.224C144.212 28.8933 144.089 28.6053 143.844 28.36C143.599 28.1147 143.311 27.992 142.98 27.992C142.649 27.992 142.361 28.1147 142.116 28.36C141.881 28.6053 141.764 28.8933 141.764 29.224C141.764 29.5547 141.881 29.8427 142.116 30.088C142.361 30.3227 142.649 30.44 142.98 30.44ZM152.166 33.016C151.398 33.0267 150.71 32.8667 150.102 32.536C149.504 32.2053 149.035 31.752 148.694 31.176C148.363 30.5893 148.187 29.9387 148.166 29.224C148.155 28.5093 148.32 27.8693 148.662 27.304C149.003 26.7387 149.478 26.2907 150.086 25.96C150.704 25.6293 151.398 25.464 152.166 25.464C152.912 25.464 153.584 25.624 154.182 25.944C154.79 26.264 155.27 26.712 155.622 27.288C155.974 27.864 156.16 28.5093 156.182 29.224C156.192 29.9173 156.027 30.552 155.686 31.128C155.344 31.6933 154.864 32.1467 154.246 32.488C153.638 32.8293 152.944 33.0053 152.166 33.016ZM152.214 30.68C152.502 30.68 152.752 30.568 152.966 30.344C153.179 30.12 153.286 29.8587 153.286 29.56C153.286 29.2613 153.179 29.0053 152.966 28.792C152.752 28.568 152.502 28.456 152.214 28.456C151.926 28.456 151.675 28.568 151.462 28.792C151.248 29.0053 151.142 29.2613 151.142 29.56C151.142 29.8587 151.248 30.12 151.462 30.344C151.675 30.568 151.926 30.68 152.214 30.68ZM160.666 33.016C159.898 33.0267 159.21 32.8667 158.602 32.536C158.004 32.2053 157.535 31.752 157.194 31.176C156.863 30.5893 156.687 29.9387 156.666 29.224C156.655 28.5093 156.82 27.8693 157.162 27.304C157.503 26.7387 157.978 26.2907 158.586 25.96C159.204 25.6293 159.898 25.464 160.666 25.464C161.412 25.464 162.084 25.624 162.682 25.944C163.29 26.264 163.77 26.712 164.122 27.288C164.474 27.864 164.66 28.5093 164.682 29.224C164.692 29.9173 164.527 30.552 164.186 31.128C163.844 31.6933 163.364 32.1467 162.746 32.488C162.138 32.8293 161.444 33.0053 160.666 33.016ZM160.714 30.68C161.002 30.68 161.252 30.568 161.466 30.344C161.679 30.12 161.786 29.8587 161.786 29.56C161.786 29.2613 161.679 29.0053 161.466 28.792C161.252 28.568 161.002 28.456 160.714 28.456C160.426 28.456 160.175 28.568 159.962 28.792C159.748 29.0053 159.642 29.2613 159.642 29.56C159.642 29.8587 159.748 30.12 159.962 30.344C160.175 30.568 160.426 30.68 160.714 30.68ZM168.974 33C168.216 33 167.544 32.8187 166.958 32.456C166.382 32.0827 165.939 31.6027 165.63 31.016C165.32 30.4187 165.166 29.784 165.166 29.112C165.166 28.3227 165.326 27.656 165.646 27.112C165.976 26.5573 166.398 26.1467 166.91 25.88C167.432 25.6133 167.992 25.48 168.59 25.48C169.187 25.48 169.72 25.608 170.19 25.864C170.168 25.64 170.126 25.4 170.062 25.144C170.008 24.888 169.971 24.728 169.95 24.664C169.864 24.3333 169.8 24.056 169.758 23.832C169.715 23.608 169.694 23.384 169.694 23.16C169.694 22.712 169.827 22.3707 170.094 22.136C170.36 21.9013 170.68 21.784 171.054 21.784C171.651 21.784 172.136 22.0827 172.51 22.68C172.883 23.2773 173.15 24.0187 173.31 24.904C173.48 25.7893 173.566 26.6853 173.566 27.592C173.566 28.8187 173.283 30.0293 172.718 31.224C172.163 32.408 170.915 33 168.974 33ZM169.07 30.472C169.358 30.472 169.608 30.3653 169.822 30.152C170.035 29.928 170.142 29.6667 170.142 29.368C170.142 29.0693 170.035 28.808 169.822 28.584C169.608 28.36 169.358 28.248 169.07 28.248C168.782 28.248 168.526 28.36 168.302 28.584C168.088 28.808 167.982 29.0693 167.982 29.368C167.982 29.6667 168.088 29.928 168.302 30.152C168.526 30.3653 168.782 30.472 169.07 30.472ZM183.758 33C181.816 33 180.563 32.408 179.998 31.224C179.443 30.0293 179.166 28.8187 179.166 27.592C179.166 26.6853 179.246 25.7893 179.406 24.904C179.576 24.0187 179.848 23.2773 180.222 22.68C180.595 22.0827 181.08 21.784 181.678 21.784C182.051 21.784 182.371 21.9013 182.638 22.136C182.904 22.3707 183.038 22.712 183.038 23.16C183.038 23.384 183.016 23.608 182.974 23.832C182.931 24.056 182.867 24.3333 182.782 24.664C182.76 24.728 182.718 24.888 182.654 25.144C182.6 25.4 182.563 25.64 182.542 25.864C183.011 25.608 183.544 25.48 184.142 25.48C184.739 25.48 185.294 25.6133 185.806 25.88C186.328 26.1467 186.75 26.5573 187.07 27.112C187.4 27.656 187.566 28.3227 187.566 29.112C187.566 29.784 187.411 30.4187 187.102 31.016C186.792 31.6027 186.344 32.0827 185.758 32.456C185.182 32.8187 184.515 33 183.758 33ZM183.662 30.472C183.95 30.472 184.2 30.3653 184.414 30.152C184.638 29.928 184.75 29.6667 184.75 29.368C184.75 29.0693 184.638 28.808 184.414 28.584C184.2 28.36 183.95 28.248 183.662 28.248C183.374 28.248 183.123 28.36 182.91 28.584C182.696 28.808 182.59 29.0693 182.59 29.368C182.59 29.6667 182.696 29.928 182.91 30.152C183.123 30.3653 183.374 30.472 183.662 30.472ZM192.072 33C191.283 33 190.584 32.8453 189.976 32.536C189.368 32.2267 188.894 31.7947 188.552 31.24C188.222 30.6747 188.056 30.04 188.056 29.336C188.056 28.6427 188.222 28.0027 188.552 27.416C188.894 26.8293 189.363 26.36 189.96 26.008C190.558 25.656 191.235 25.48 191.992 25.48C192.675 25.48 193.278 25.6187 193.8 25.896C194.323 26.1733 194.723 26.5413 195 27C195.278 27.448 195.416 27.9173 195.416 28.408C195.416 29.208 195.112 29.7947 194.504 30.168C193.907 30.5307 193.192 30.712 192.36 30.712C191.806 30.712 191.336 30.6427 190.952 30.504C191.272 31.0267 191.8 31.288 192.536 31.288C192.835 31.288 193.155 31.2507 193.496 31.176C193.624 31.144 193.747 31.128 193.864 31.128C194.099 31.128 194.286 31.1867 194.424 31.304C194.574 31.4213 194.648 31.5813 194.648 31.784C194.648 32.1147 194.446 32.4027 194.04 32.648C193.635 32.8827 192.979 33 192.072 33ZM191 28.552C191.096 28.7013 191.224 28.8133 191.384 28.888C191.555 28.952 191.742 28.984 191.944 28.984C192.179 28.984 192.382 28.9307 192.552 28.824C192.734 28.7173 192.824 28.5787 192.824 28.408C192.824 28.216 192.744 28.0507 192.584 27.912C192.435 27.7733 192.216 27.704 191.928 27.704C191.64 27.704 191.411 27.7947 191.24 27.976C191.08 28.1467 191 28.3387 191 28.552ZM197.768 33C197.086 33 196.627 32.6 196.392 31.8C196.168 31 196.056 29.896 196.056 28.488C196.056 27.848 196.083 27.3147 196.136 26.888C196.2 26.4507 196.344 26.0827 196.568 25.784C196.803 25.4747 197.16 25.32 197.64 25.32C197.939 25.32 198.2 25.3893 198.424 25.528C198.659 25.6667 198.808 25.864 198.872 26.12C199.107 25.9067 199.411 25.7467 199.784 25.64C200.158 25.5333 200.558 25.48 200.984 25.48C201.326 25.48 201.672 25.5653 202.024 25.736C202.387 25.9067 202.686 26.1413 202.92 26.44C203.166 26.728 203.288 27.0427 203.288 27.384C203.288 27.7253 203.166 28.0293 202.92 28.296C202.686 28.552 202.371 28.68 201.976 28.68C201.848 28.68 201.726 28.664 201.608 28.632C201.502 28.6 201.406 28.568 201.32 28.536C201.107 28.4507 200.936 28.408 200.808 28.408C200.392 28.408 200.024 28.5733 199.704 28.904C199.395 29.224 199.24 29.64 199.24 30.152C199.24 30.7173 199.219 31.1867 199.176 31.56C199.134 31.9333 199.006 32.2693 198.792 32.568C198.579 32.856 198.238 33 197.768 33ZM206.483 33C205.651 33 204.968 32.8133 204.435 32.44C203.902 32.056 203.635 31.5067 203.635 30.792C203.635 30.1733 203.907 29.6827 204.451 29.32C204.995 28.9573 205.672 28.776 206.483 28.776C206.782 28.776 207.059 28.8027 207.315 28.856C207.582 28.8987 207.763 28.952 207.859 29.016C207.859 28.7493 207.747 28.5307 207.523 28.36C207.299 28.1787 206.958 28.088 206.499 28.088C206.296 28.088 206.131 28.104 206.003 28.136C205.875 28.168 205.736 28.216 205.587 28.28C205.438 28.344 205.299 28.392 205.171 28.424C205.054 28.456 204.894 28.472 204.691 28.472C204.35 28.472 204.083 28.3867 203.891 28.216C203.699 28.0347 203.603 27.7627 203.603 27.4C203.603 26.984 203.752 26.632 204.051 26.344C204.36 26.056 204.744 25.8427 205.203 25.704C205.662 25.5547 206.12 25.48 206.579 25.48C207.486 25.48 208.243 25.6507 208.851 25.992C209.47 26.3227 209.923 26.7653 210.211 27.32C210.51 27.8747 210.659 28.488 210.659 29.16C210.659 29.5227 210.627 29.8587 210.563 30.168C210.51 30.4773 210.435 30.7173 210.339 30.888C210.488 31.016 210.6 31.1653 210.675 31.336C210.76 31.5067 210.803 31.6827 210.803 31.864C210.803 32.1733 210.696 32.44 210.483 32.664C210.28 32.888 210.008 33 209.667 33C209.411 33 209.203 32.9627 209.043 32.888C208.883 32.8133 208.712 32.696 208.531 32.536C208.264 32.696 207.971 32.8133 207.651 32.888C207.342 32.9627 206.952 33 206.483 33ZM206.803 31.384C207.027 31.384 207.203 31.336 207.331 31.24C207.47 31.144 207.539 31.0267 207.539 30.888C207.539 30.7493 207.47 30.632 207.331 30.536C207.203 30.44 207.027 30.392 206.803 30.392C206.579 30.392 206.398 30.44 206.259 30.536C206.131 30.632 206.067 30.7493 206.067 30.888C206.067 31.0267 206.131 31.144 206.259 31.24C206.398 31.336 206.579 31.384 206.803 31.384ZM215.443 29.256C215.091 29.256 214.814 29.1387 214.611 28.904C214.419 28.6587 214.323 28.3547 214.323 27.992C214.323 27.3733 214.467 26.9147 214.755 26.616C214.84 26.52 214.979 26.3867 215.171 26.216C215.374 26.024 215.518 25.8747 215.603 25.768C215.688 25.6613 215.731 25.544 215.731 25.416C215.731 25.1387 215.587 25 215.299 25C215.171 25 215.059 25.0427 214.963 25.128C214.878 25.2133 214.835 25.32 214.835 25.448C214.835 25.8 214.686 26.0933 214.387 26.328C214.099 26.552 213.736 26.664 213.299 26.664C212.862 26.664 212.51 26.5093 212.243 26.2C211.976 25.88 211.843 25.4373 211.843 24.872C211.843 24.4027 211.998 23.928 212.307 23.448C212.616 22.968 213.048 22.5733 213.603 22.264C214.158 21.9547 214.782 21.8 215.475 21.8C216.179 21.8 216.803 21.9493 217.347 22.248C217.891 22.536 218.312 22.92 218.611 23.4C218.92 23.88 219.075 24.3867 219.075 24.92C219.075 25.464 218.974 25.9227 218.771 26.296C218.579 26.6587 218.35 26.9413 218.083 27.144C217.827 27.336 217.523 27.5173 217.171 27.688C216.968 27.7947 216.824 27.88 216.739 27.944C216.654 28.008 216.611 28.0773 216.611 28.152C216.611 28.4293 216.504 28.6853 216.291 28.92C216.088 29.144 215.806 29.256 215.443 29.256ZM215.459 29.672C215.011 29.672 214.622 29.8373 214.291 30.168C213.96 30.4987 213.795 30.888 213.795 31.336C213.795 31.784 213.96 32.1733 214.291 32.504C214.622 32.8347 215.011 33 215.459 33C215.907 33 216.296 32.8347 216.627 32.504C216.958 32.1733 217.123 31.784 217.123 31.336C217.123 30.888 216.958 30.4987 216.627 30.168C216.296 29.8373 215.907 29.672 215.459 29.672Z" fill="black"/>
  <g filter="url(#filter2_d_22057_76)">
    <ellipse cx="186.5" cy="93" rx="10.5" ry="5" fill="#FFFDEB"/>
    <path d="M196.5 93C196.5 94.0764 195.566 95.2 193.71 96.0841C191.89 96.9504 189.342 97.5 186.5 97.5C183.658 97.5 181.11 96.9504 179.29 96.0841C177.434 95.2 176.5 94.0764 176.5 93C176.5 91.9236 177.434 90.8 179.29 89.9159C181.11 89.0496 183.658 88.5 186.5 88.5C189.342 88.5 191.89 89.0496 193.71 89.9159C195.566 90.8 196.5 91.9236 196.5 93Z" stroke="black"/>
  </g>
  <ellipse cx="49.5" cy="289.886" rx="49.5" ry="10.5" fill="black" fill-opacity="0.2"/>
  <path d="M52.7306 262.364C57.6895 263.282 57.0926 268.409 56.1743 270.858C56.1743 272.312 54.1999 275.266 46.3025 275.449C38.4051 275.633 39.3387 269.251 40.7927 266.037C42.7058 264.43 47.7718 261.445 52.7306 262.364Z" fill="#999999" stroke="black" stroke-linecap="round" stroke-linejoin="round"/>
  <path d="M52.7306 262.364C57.6895 263.282 57.0926 268.409 56.1743 270.858C54.4624 266.037 50.127 266.037 40.7927 266.037C42.7058 264.43 47.7718 261.445 52.7306 262.364Z" fill="#D9D9D9" stroke="black" stroke-linecap="round" stroke-linejoin="round"/>
  <path d="M62.398 265.448C57.405 266.373 51.7299 272.054 52.6545 274.519C52.6545 275.983 60.9186 278.439 68.8703 278.624C76.8221 278.809 75.8821 272.383 74.4181 269.147C72.4918 267.529 67.391 264.524 62.398 265.448Z" fill="#999999" stroke="black" stroke-linecap="round" stroke-linejoin="round"/>
  <path d="M62.3963 265.449C57.4033 266.373 57.8028 269.384 62.9241 271.952C70.1284 277.088 67.3684 271.656 74.4164 269.147C72.4901 267.529 67.3892 264.524 62.3963 265.449Z" fill="#D9D9D9" stroke="black" stroke-linecap="round" stroke-linejoin="round"/>
  <path d="M24.5079 262.456C16.8716 263.871 17.7908 271.766 19.2049 275.537C19.2049 277.776 22.2453 282.325 34.4069 282.608C46.5685 282.891 45.1308 273.062 42.8917 268.113C39.9456 265.638 32.1443 261.042 24.5079 262.456Z" fill="#999999" stroke="black" stroke-linecap="round" stroke-linejoin="round"/>
  <path d="M24.5079 262.456C16.8716 263.871 17.7908 271.766 19.2049 275.537C21.8411 268.113 28.5174 268.113 42.8917 268.113C39.9456 265.638 32.1443 261.042 24.5079 262.456Z" fill="#D9D9D9" stroke="black" stroke-linecap="round" stroke-linejoin="round"/>
  <path d="M15.2618 272.73C7.62546 274.144 8.54466 282.04 9.9588 285.811C9.9588 288.05 12.9992 292.599 25.1608 292.881C37.3224 293.164 35.8847 283.336 33.6456 278.387C30.6995 275.912 22.8982 271.316 15.2618 272.73Z" fill="#999999" stroke="black" stroke-linecap="round" stroke-linejoin="round"/>
  <path d="M15.2618 272.73C7.62546 274.144 8.54466 282.04 9.9588 285.811C14.4369 286.989 25.4436 287.155 33.6456 278.387C30.6995 275.912 22.8982 271.316 15.2618 272.73Z" fill="#D9D9D9" stroke="black" stroke-linecap="round" stroke-linejoin="round"/>
  <rect x="35.3745" y="268.832" width="8.43989" height="38.7585" rx="4.21994" transform="rotate(-55.6891 35.3745 268.832)" fill="#B27D7D" stroke="black"/>
  <rect x="-0.694837" y="-0.131154" width="8.43989" height="38.7585" rx="4.21994" transform="matrix(-0.563683 -0.825991 -0.825991 0.563683 67.5356 267.305)" fill="#A05A5A" stroke="black"/>
  <path d="M76.7904 273.492C73.9144 274.314 68.7445 279.313 66.519 281.709C65.028 283.251 66.519 293.007 74.7361 293.007C81.3098 293.007 86.377 291.98 88.0889 291.467C89.116 289.584 90.8621 284.996 89.6296 281.709C88.0889 277.601 80.3854 272.465 76.7904 273.492Z" fill="#999999" stroke="black" stroke-linecap="round" stroke-linejoin="round"/>
  <path d="M76.7909 273.492C73.9149 274.314 68.745 279.312 66.5195 281.709L76.7909 285.304L89.63 281.709C88.0893 277.601 80.3858 272.465 76.7909 273.492Z" fill="#D9D9D9" stroke="black" stroke-linecap="round" stroke-linejoin="round"/>
  <path d="M55.3204 279.921C47.6841 281.335 48.6033 289.231 50.0174 293.002C50.0174 295.241 53.0578 299.789 65.2194 300.072C77.381 300.355 75.9433 290.527 73.7042 285.577C70.7581 283.103 62.9568 278.507 55.3204 279.921Z" fill="#999999" stroke="black" stroke-linecap="round" stroke-linejoin="round"/>
  <path d="M55.3204 279.921C47.6841 281.335 48.6033 289.231 50.0174 293.002C52.6536 285.577 59.3299 285.577 73.7042 285.577C70.7581 283.103 62.9568 278.507 55.3204 279.921Z" fill="#D9D9D9" stroke="black" stroke-linecap="round" stroke-linejoin="round"/>
  <path d="M32.7228 279.921C25.0864 281.335 26.0056 289.231 27.4197 293.002C27.4197 295.241 30.4601 299.789 42.6217 300.072C54.7833 300.355 53.3456 290.527 51.1066 285.577C48.1605 283.103 40.3591 278.507 32.7228 279.921Z" fill="#999999" stroke="black" stroke-linecap="round" stroke-linejoin="round"/>
  <path d="M32.7228 279.921C25.0864 281.335 26.0056 289.231 27.4197 293.002C31.8978 294.18 40.3272 289.414 51.1066 285.577C48.1605 283.103 40.3591 278.507 32.7228 279.921Z" fill="#D9D9D9" stroke="black" stroke-linecap="round" stroke-linejoin="round"/>
  <mask id="path-25-inside-1_22057_76" fill="white">
    <path fill-rule="evenodd" clip-rule="evenodd" d="M64.5895 237.662C66.3381 236.671 67.2411 234.895 67.1722 231.326C75.9994 238.301 67.5281 272.76 44.3868 265.708C39.7278 264.557 35.7132 261.609 33.2187 257.509C30.7243 253.409 29.9524 248.489 31.0715 243.822C32.2662 239.994 34.8683 236.762 38.3528 234.777C37.093 237.677 37.4443 240.864 38.9721 242.861C39.6971 240.522 41.0376 238.37 44.9799 238.079C43.8477 240.405 44.2969 242.478 45.057 244.478C48.0875 243.28 47.8493 239.451 47.5676 234.925C47.1689 228.517 46.6832 220.711 55.2649 217C53.8978 224.946 58.0618 229.872 62.2262 234.798C63.0271 235.745 63.8279 236.693 64.5895 237.662Z"/>
  </mask>
  <path fill-rule="evenodd" clip-rule="evenodd" d="M64.5895 237.662C66.3381 236.671 67.2411 234.895 67.1722 231.326C75.9994 238.301 67.5281 272.76 44.3868 265.708C39.7278 264.557 35.7132 261.609 33.2187 257.509C30.7243 253.409 29.9524 248.489 31.0715 243.822C32.2662 239.994 34.8683 236.762 38.3528 234.777C37.093 237.677 37.4443 240.864 38.9721 242.861C39.6971 240.522 41.0376 238.37 44.9799 238.079C43.8477 240.405 44.2969 242.478 45.057 244.478C48.0875 243.28 47.8493 239.451 47.5676 234.925C47.1689 228.517 46.6832 220.711 55.2649 217C53.8978 224.946 58.0618 229.872 62.2262 234.798C63.0271 235.745 63.8279 236.693 64.5895 237.662Z" fill="#FF6242"/>
  <path d="M67.1722 231.326L67.7922 230.541L66.1316 229.229L66.1724 231.345L67.1722 231.326ZM64.5895 237.662L63.8033 238.28L64.3346 238.956L65.0826 238.532L64.5895 237.662ZM44.3868 265.708L44.6783 264.752L44.6528 264.744L44.6268 264.738L44.3868 265.708ZM33.2187 257.509L34.073 256.99H34.073L33.2187 257.509ZM31.0715 243.822L30.1169 243.524L30.1069 243.556L30.099 243.589L31.0715 243.822ZM38.3528 234.777L39.27 235.175L40.4661 232.422L37.8579 233.908L38.3528 234.777ZM38.9721 242.861L38.1778 243.469L39.354 245.006L39.9273 243.157L38.9721 242.861ZM44.9799 238.079L45.879 238.516L46.6398 236.953L44.9061 237.081L44.9799 238.079ZM45.057 244.478L44.1223 244.833L44.4823 245.78L45.4246 245.408L45.057 244.478ZM47.5676 234.925L48.5657 234.863L47.5676 234.925ZM55.2649 217L56.2504 217.17L56.5637 215.349L54.868 216.082L55.2649 217ZM62.2262 234.798L62.9899 234.153L62.2262 234.798ZM66.1724 231.345C66.2054 233.055 66.0016 234.233 65.6437 235.066C65.2988 235.868 64.7912 236.398 64.0964 236.792L65.0826 238.532C66.1364 237.935 66.9546 237.081 67.4812 235.856C67.9947 234.661 68.2079 233.166 68.172 231.306L66.1724 231.345ZM44.0953 266.665C50.1411 268.507 55.3037 267.648 59.4658 265.149C63.5973 262.669 66.6669 258.62 68.6782 254.19C70.6905 249.758 71.6788 244.87 71.59 240.611C71.5023 236.41 70.3537 232.565 67.7922 230.541L66.5522 232.11C68.4043 233.574 69.507 236.652 69.5904 240.653C69.6727 244.597 68.7519 249.19 66.8571 253.364C64.9614 257.539 62.1258 261.219 58.4363 263.435C54.7775 265.631 50.2032 266.435 44.6783 264.752L44.0953 266.665ZM32.3644 258.029C34.9961 262.355 39.2315 265.464 44.1469 266.679L44.6268 264.738C40.224 263.649 36.4303 260.864 34.073 256.99L32.3644 258.029ZM30.099 243.589C28.9184 248.513 29.7327 253.703 32.3644 258.029L34.073 256.99C31.7158 253.115 30.9864 248.465 32.0439 244.055L30.099 243.589ZM37.8579 233.908C34.1534 236.018 31.387 239.454 30.1169 243.524L32.0261 244.12C33.1453 240.534 35.5832 237.505 38.8478 235.646L37.8579 233.908ZM39.7664 242.254C38.4915 240.587 38.1321 237.794 39.27 235.175L37.4357 234.378C36.0538 237.559 36.3971 241.141 38.1778 243.469L39.7664 242.254ZM39.9273 243.157C40.2671 242.061 40.7174 241.126 41.4558 240.43C42.1766 239.749 43.2657 239.208 45.0536 239.076L44.9061 237.081C42.7517 237.241 41.1995 237.921 40.0832 238.975C38.9846 240.012 38.4021 241.322 38.0169 242.565L39.9273 243.157ZM44.0807 237.641C42.7684 240.338 43.326 242.739 44.1223 244.833L45.9917 244.123C45.2678 242.218 44.927 240.472 45.879 238.516L44.0807 237.641ZM46.5695 234.987C46.7128 237.29 46.8289 239.248 46.5685 240.782C46.3174 242.261 45.7587 243.125 44.6895 243.548L45.4246 245.408C47.3858 244.633 48.2233 242.984 48.5403 241.117C48.8479 239.305 48.704 237.086 48.5657 234.863L46.5695 234.987ZM54.868 216.082C50.2849 218.064 48.0638 221.191 47.0857 224.681C46.1305 228.089 46.3723 231.817 46.5695 234.987L48.5657 234.863C48.3642 231.624 48.1637 228.246 49.0115 225.221C49.8362 222.278 51.6632 219.647 55.6618 217.918L54.868 216.082ZM62.9899 234.153C58.8007 229.197 54.9708 224.607 56.2504 217.17L54.2794 216.83C52.8248 225.285 57.3229 230.547 61.4625 235.444L62.9899 234.153ZM65.3757 237.044C64.6013 236.059 63.7888 235.098 62.9899 234.153L61.4625 235.444C62.2653 236.393 63.0546 237.327 63.8033 238.28L65.3757 237.044Z" fill="black" mask="url(#path-25-inside-1_22057_76)"/>
  <path d="M52.2879 256.193C54.4788 255.321 56.3824 253.799 57.7847 251.819C59.3985 254.671 58.8064 257.402 57.1408 259.265C55.3292 261.291 52.2292 262.31 49.1835 261.297C48.1389 260.933 47.2132 260.239 46.5289 259.299C45.9792 258.544 45.6063 257.658 45.4397 256.717C47.7176 257.245 50.094 257.065 52.2879 256.193Z" fill="#FFE500" stroke="black"/>
  <ellipse cx="209" cy="305.132" rx="116" ry="16" fill="black" fill-opacity="0.2"/>
  <mask id="path-29-outside-2_22057_76" maskUnits="userSpaceOnUse" x="158.863" y="179.496" width="174" height="129" fill="black">
    <rect fill="white" x="158.863" y="179.496" width="174" height="129"/>
    <path fill-rule="evenodd" clip-rule="evenodd" d="M274.914 182.908C272.319 180.75 268.466 181.105 266.308 183.7L209.959 251.483L194.203 239.872C191.486 237.87 187.661 238.45 185.659 241.167C183.656 243.884 184.236 247.709 186.953 249.712L202.132 260.897L201.465 261.701L166.963 261.767C163.588 261.773 160.857 264.515 160.863 267.89C160.87 271.265 163.611 273.996 166.986 273.989L191.288 273.943L179.026 288.692C176.868 291.288 177.223 295.141 179.819 297.298C182.414 299.456 186.267 299.101 188.425 296.506L207.18 273.945L219.806 273.921L236.753 286.41L228.593 296.225C226.436 298.821 226.791 302.674 229.386 304.831C231.981 306.989 235.834 306.634 237.992 304.039L246.61 293.673L252.133 297.743C254.85 299.745 258.675 299.165 260.678 296.448C262.68 293.731 262.1 289.905 259.383 287.903L254.436 284.258L263.153 273.772L302.079 300.337C304.867 302.239 308.669 301.522 310.572 298.734C312.474 295.946 311.757 292.144 308.969 290.241L298.402 283.03L290.425 242.74C290.337 242.293 290.19 241.873 289.993 241.486L329.441 194.034C331.599 191.439 331.244 187.586 328.649 185.428C326.053 183.27 322.2 183.625 320.043 186.221L319.332 187.076C318.986 186.755 318.521 186.551 317.977 186.551H277.027C276.786 185.174 276.074 183.871 274.914 182.908ZM287.015 275.259L282.187 250.876L271.002 264.331L287.015 275.259ZM247.179 273.868L240.355 273.881L244.58 276.995L247.179 273.868Z"/>
  </mask>
  <path fill-rule="evenodd" clip-rule="evenodd" d="M274.914 182.908C272.319 180.75 268.466 181.105 266.308 183.7L209.959 251.483L194.203 239.872C191.486 237.87 187.661 238.45 185.659 241.167C183.656 243.884 184.236 247.709 186.953 249.712L202.132 260.897L201.465 261.701L166.963 261.767C163.588 261.773 160.857 264.515 160.863 267.89C160.87 271.265 163.611 273.996 166.986 273.989L191.288 273.943L179.026 288.692C176.868 291.288 177.223 295.141 179.819 297.298C182.414 299.456 186.267 299.101 188.425 296.506L207.18 273.945L219.806 273.921L236.753 286.41L228.593 296.225C226.436 298.821 226.791 302.674 229.386 304.831C231.981 306.989 235.834 306.634 237.992 304.039L246.61 293.673L252.133 297.743C254.85 299.745 258.675 299.165 260.678 296.448C262.68 293.731 262.1 289.905 259.383 287.903L254.436 284.258L263.153 273.772L302.079 300.337C304.867 302.239 308.669 301.522 310.572 298.734C312.474 295.946 311.757 292.144 308.969 290.241L298.402 283.03L290.425 242.74C290.337 242.293 290.19 241.873 289.993 241.486L329.441 194.034C331.599 191.439 331.244 187.586 328.649 185.428C326.053 183.27 322.2 183.625 320.043 186.221L319.332 187.076C318.986 186.755 318.521 186.551 317.977 186.551H277.027C276.786 185.174 276.074 183.871 274.914 182.908ZM287.015 275.259L282.187 250.876L271.002 264.331L287.015 275.259ZM247.179 273.868L240.355 273.881L244.58 276.995L247.179 273.868Z" fill="#CED2A0"/>
  <path d="M266.308 183.7L267.846 184.979V184.979L266.308 183.7ZM274.914 182.908L276.193 181.37V181.37L274.914 182.908ZM209.959 251.483L208.773 253.093L210.291 254.212L211.497 252.761L209.959 251.483ZM194.203 239.872L193.017 241.482L194.203 239.872ZM186.953 249.712L185.766 251.322H185.766L186.953 249.712ZM202.132 260.897L203.67 262.176L205.026 260.545L203.319 259.287L202.132 260.897ZM201.465 261.701L201.468 263.701L202.404 263.699L203.003 262.979L201.465 261.701ZM166.963 261.767L166.967 263.767H166.967L166.963 261.767ZM160.863 267.89L158.863 267.894L160.863 267.89ZM166.986 273.989L166.99 275.989L166.986 273.989ZM191.288 273.943L192.826 275.221L195.558 271.934L191.284 271.943L191.288 273.943ZM179.026 288.692L177.488 287.414L179.026 288.692ZM179.819 297.298L178.54 298.836H178.54L179.819 297.298ZM188.425 296.506L189.963 297.784H189.963L188.425 296.506ZM207.18 273.945L207.176 271.945L206.24 271.947L205.642 272.666L207.18 273.945ZM219.806 273.921L220.992 272.311L220.461 271.92L219.802 271.921L219.806 273.921ZM236.753 286.41L238.291 287.688L239.647 286.058L237.94 284.8L236.753 286.41ZM228.593 296.225L227.055 294.947L228.593 296.225ZM229.386 304.831L230.665 303.293L229.386 304.831ZM237.992 304.039L236.454 302.76L237.992 304.039ZM246.61 293.673L247.796 292.063L246.277 290.944L245.072 292.394L246.61 293.673ZM252.133 297.743L253.319 296.133H253.319L252.133 297.743ZM260.678 296.448L262.288 297.635V297.635L260.678 296.448ZM259.383 287.903L260.57 286.293H260.57L259.383 287.903ZM254.436 284.258L252.898 282.979L251.543 284.61L253.25 285.868L254.436 284.258ZM263.153 273.772L264.28 272.12L262.778 271.095L261.615 272.494L263.153 273.772ZM302.079 300.337L303.207 298.685L302.079 300.337ZM310.572 298.734L308.92 297.606H308.92L310.572 298.734ZM308.969 290.241L310.096 288.589L308.969 290.241ZM298.402 283.03L296.44 283.419L296.599 284.221L297.275 284.682L298.402 283.03ZM290.425 242.74L288.463 243.128V243.128L290.425 242.74ZM289.993 241.486L288.455 240.208L287.614 241.22L288.21 242.393L289.993 241.486ZM329.441 194.034L327.903 192.756V192.756L329.441 194.034ZM328.649 185.428L327.37 186.966V186.966L328.649 185.428ZM320.043 186.221L318.505 184.942V184.942L320.043 186.221ZM319.332 187.076L317.971 188.542L319.519 189.979L320.87 188.354L319.332 187.076ZM277.027 186.551L275.057 186.896L275.346 188.551H277.027V186.551ZM287.015 275.259L285.887 276.911L289.926 279.667L288.976 274.871L287.015 275.259ZM282.187 250.876L284.149 250.488L283.334 246.368L280.649 249.598L282.187 250.876ZM271.002 264.331L269.464 263.053L268.058 264.744L269.874 265.983L271.002 264.331ZM240.355 273.881L240.351 271.881L234.285 271.893L239.169 275.492L240.355 273.881ZM247.179 273.868L248.717 275.147L251.45 271.86L247.175 271.868L247.179 273.868ZM244.58 276.995L243.394 278.605L244.912 279.724L246.118 278.273L244.58 276.995ZM267.846 184.979C269.298 183.233 271.89 182.994 273.636 184.446L276.193 181.37C272.748 178.506 267.634 178.977 264.77 182.422L267.846 184.979ZM211.497 252.761L267.846 184.979L264.77 182.422L208.421 250.204L211.497 252.761ZM193.017 241.482L208.773 253.093L211.146 249.873L195.39 238.262L193.017 241.482ZM187.269 242.353C188.616 240.525 191.189 240.135 193.017 241.482L195.39 238.262C191.784 235.605 186.706 236.374 184.048 239.98L187.269 242.353ZM188.139 248.102C186.311 246.755 185.922 244.181 187.269 242.353L184.048 239.98C181.391 243.586 182.16 248.664 185.766 251.322L188.139 248.102ZM203.319 259.287L188.139 248.102L185.766 251.322L200.946 262.508L203.319 259.287ZM203.003 262.979L203.67 262.176L200.595 259.619L199.927 260.422L203.003 262.979ZM166.967 263.767L201.468 263.701L201.461 259.701L166.959 259.767L166.967 263.767ZM162.863 267.886C162.859 265.615 164.696 263.771 166.967 263.767L166.959 259.767C162.479 259.776 158.855 263.414 158.863 267.894L162.863 267.886ZM166.982 271.989C164.712 271.994 162.868 270.156 162.863 267.886L158.863 267.894C158.872 272.373 162.51 275.998 166.99 275.989L166.982 271.989ZM191.284 271.943L166.982 271.989L166.99 275.989L191.292 275.943L191.284 271.943ZM180.564 289.971L192.826 275.221L189.75 272.664L177.488 287.414L180.564 289.971ZM181.097 295.76C179.351 294.309 179.112 291.717 180.564 289.971L177.488 287.414C174.624 290.859 175.095 295.973 178.54 298.836L181.097 295.76ZM186.887 295.227C185.435 296.973 182.843 297.212 181.097 295.76L178.54 298.836C181.985 301.7 187.099 301.229 189.963 297.784L186.887 295.227ZM205.642 272.666L186.887 295.227L189.963 297.784L208.718 275.224L205.642 272.666ZM219.802 271.921L207.176 271.945L207.184 275.945L219.81 275.921L219.802 271.921ZM237.94 284.8L220.992 272.311L218.619 275.531L235.567 288.02L237.94 284.8ZM230.131 297.504L238.291 287.688L235.215 285.131L227.055 294.947L230.131 297.504ZM230.665 303.293C228.919 301.842 228.68 299.25 230.131 297.504L227.055 294.947C224.192 298.392 224.663 303.506 228.108 306.369L230.665 303.293ZM236.454 302.76C235.003 304.506 232.411 304.745 230.665 303.293L228.108 306.369C231.552 309.233 236.666 308.762 239.53 305.317L236.454 302.76ZM245.072 292.394L236.454 302.76L239.53 305.317L248.148 294.951L245.072 292.394ZM253.319 296.133L247.796 292.063L245.423 295.283L250.946 299.353L253.319 296.133ZM259.068 295.262C257.721 297.09 255.147 297.479 253.319 296.133L250.946 299.353C254.553 302.01 259.63 301.241 262.288 297.635L259.068 295.262ZM258.197 289.513C260.025 290.86 260.415 293.434 259.068 295.262L262.288 297.635C264.945 294.028 264.176 288.951 260.57 286.293L258.197 289.513ZM253.25 285.868L258.197 289.513L260.57 286.293L255.623 282.648L253.25 285.868ZM261.615 272.494L252.898 282.979L255.974 285.536L264.691 275.051L261.615 272.494ZM303.207 298.685L264.28 272.12L262.026 275.424L300.952 301.989L303.207 298.685ZM308.92 297.606C307.64 299.482 305.082 299.965 303.207 298.685L300.952 301.989C304.652 304.514 309.699 303.561 312.224 299.861L308.92 297.606ZM307.841 291.893C309.717 293.173 310.2 295.731 308.92 297.606L312.224 299.861C314.749 296.161 313.796 291.114 310.096 288.589L307.841 291.893ZM297.275 284.682L307.841 291.893L310.096 288.589L299.529 281.378L297.275 284.682ZM288.463 243.128L296.44 283.419L300.364 282.642L292.387 242.351L288.463 243.128ZM288.21 242.393C288.324 242.617 288.411 242.863 288.463 243.128L292.387 242.351C292.263 241.723 292.055 241.129 291.776 240.58L288.21 242.393ZM327.903 192.756L288.455 240.208L291.531 242.765L330.979 195.313L327.903 192.756ZM327.37 186.966C329.116 188.417 329.355 191.01 327.903 192.756L330.979 195.313C333.843 191.868 333.372 186.754 329.927 183.89L327.37 186.966ZM321.581 187.499C323.032 185.753 325.624 185.515 327.37 186.966L329.927 183.89C326.482 181.026 321.368 181.497 318.505 184.942L321.581 187.499ZM320.87 188.354L321.581 187.499L318.505 184.942L317.794 185.797L320.87 188.354ZM317.977 188.551C317.982 188.551 317.986 188.551 317.988 188.552C317.991 188.552 317.992 188.552 317.992 188.552C317.992 188.552 317.991 188.552 317.99 188.552C317.989 188.551 317.987 188.551 317.985 188.55C317.982 188.549 317.978 188.547 317.976 188.545C317.973 188.543 317.971 188.542 317.971 188.542L320.692 185.61C319.991 184.959 319.044 184.551 317.977 184.551V188.551ZM277.027 188.551H317.977V184.551H277.027V188.551ZM273.636 184.446C274.417 185.095 274.895 185.968 275.057 186.896L278.997 186.207C278.677 184.38 277.73 182.648 276.193 181.37L273.636 184.446ZM288.976 274.871L284.149 250.488L280.225 251.264L285.053 275.648L288.976 274.871ZM280.649 249.598L269.464 263.053L272.54 265.61L283.725 252.155L280.649 249.598ZM269.874 265.983L285.887 276.911L288.142 273.607L272.129 262.679L269.874 265.983ZM240.359 275.881L247.183 275.868L247.175 271.868L240.351 271.881L240.359 275.881ZM245.767 275.385L241.542 272.271L239.169 275.492L243.394 278.605L245.767 275.385ZM245.641 272.59L243.042 275.716L246.118 278.273L248.717 275.147L245.641 272.59Z" fill="black" mask="url(#path-29-outside-2_22057_76)"/>
  <rect x="270.28" y="179.705" width="11.2222" height="147.756" rx="5.61112" transform="rotate(39.7375 270.28 179.705)" fill="#CED2A0" stroke="black"/>
  <rect x="182.73" y="245.981" width="11.2222" height="92.1876" rx="5.61112" transform="rotate(-53.6135 182.73 245.981)" fill="#CED2A0" stroke="black"/>
  <path d="M270.656 187.576C270.941 187.243 271.357 187.051 271.796 187.051H317.975C319.222 187.051 319.924 188.483 319.162 189.469L259.406 266.754C259.092 267.159 258.593 267.377 258.082 267.33L209.402 262.857C208.191 262.745 207.609 261.313 208.4 260.388L270.656 187.576Z" fill="#DF8365" stroke="black" stroke-linejoin="round"/>
  <rect x="280.595" y="240.271" width="8.66136" height="50.9391" rx="4.33068" transform="rotate(-11.1984 280.595 240.271)" fill="#CED2A0" stroke="black"/>
  <rect x="324.014" y="182.226" width="11.2222" height="154.275" rx="5.61112" transform="rotate(39.7375 324.014 182.226)" fill="#CED2A0" stroke="black"/>
  <rect x="161.374" y="273.5" width="11.2222" height="69.6506" rx="5.61112" transform="rotate(-90.1098 161.374 273.5)" fill="#CED2A0" stroke="black"/>
  <rect x="164.508" y="270.501" width="6" height="51" rx="3" transform="rotate(-90 164.508 270.501)" fill="#FFD891" stroke="black" stroke-linejoin="round"/>
  <rect x="190.515" y="273.477" width="11.2222" height="72.5082" rx="5.61112" transform="rotate(-90.1098 190.515 273.477)" fill="#CED2A0" stroke="black"/>
  <rect x="229.859" y="250.447" width="11.2222" height="93.3847" rx="5.61112" transform="rotate(-55.6891 229.859 250.447)" fill="#CED2A0" stroke="black"/>
  <path d="M242.34 106.903C237.988 106.032 232.332 111.396 231.923 113.03C230.902 117.319 233.272 123.936 241.115 123.446C250.918 122.833 251.53 108.741 242.34 106.903Z" fill="#725D41" stroke="black" stroke-linecap="round" stroke-linejoin="round"/>
  <path d="M190.66 102.096C195.012 101.225 200.668 106.589 201.077 108.223C202.098 112.513 199.728 119.13 191.885 118.639C182.082 118.027 181.47 103.934 190.66 102.096Z" fill="#725D41" stroke="black" stroke-linecap="round" stroke-linejoin="round"/>
  <path d="M114.533 232.34C122.715 223.137 139.995 216.258 147.7 214.368C171.057 217.703 172.908 255.071 167.929 256.168C124.817 265.665 135.698 290.448 126.991 288.893C119.745 287.598 90.5831 278.989 94.7118 274.032C98.0147 270.066 105.011 266.366 108.245 267.003C113.843 263.457 106.352 241.544 114.533 232.34Z" fill="#725D41" stroke="black" stroke-linecap="round" stroke-linejoin="round"/>
  <path d="M108.743 189.006C120.631 178.576 146.603 185.491 184.492 156.912C185.543 156.119 187.087 156.503 187.51 157.75C193.177 174.469 186.675 194.95 165.751 203.099C143.794 211.65 133.89 211.677 115.03 206.937C113.774 209.839 114.266 211.253 111.832 212.903C108.474 215.179 93.6105 202.283 108.743 189.006Z" fill="#725D41"/>
  <path d="M116.734 201.874C115.565 204.743 115.03 206.937 115.03 206.937M115.03 206.937C113.774 209.839 114.266 211.253 111.832 212.903C108.474 215.179 93.6105 202.283 108.743 189.006C120.631 178.576 146.603 185.491 184.492 156.912C185.543 156.119 187.087 156.503 187.51 157.75C193.177 174.469 186.675 194.95 165.751 203.099C143.794 211.65 133.89 211.677 115.03 206.937Z" stroke="black"/>
  <path d="M263.175 177.365C260.234 162.17 247.858 147.342 242.955 127.122L185.973 147.342C185.973 178.591 144.364 194.104 141.502 217.001C140.002 229.001 144.002 232.501 144.002 232.501C129.502 247.001 137.502 274.001 132.502 274.001C130.216 274.001 121.043 274.46 118.002 277.501C111.502 284.001 148.501 305.501 153.002 299.501C156.602 294.701 172.612 271.443 185.973 265.001C196.389 259.978 209.166 266.523 242.955 261.501C263.688 258.419 266.852 196.359 263.175 177.365Z" fill="#725D41"/>
  <path d="M169.002 221.501C160.002 221.501 149.502 227.001 144.002 232.501M144.002 232.501C129.502 247.001 137.502 274.001 132.502 274.001C130.216 274.001 121.043 274.46 118.002 277.501C111.502 284.001 148.501 305.501 153.002 299.501C156.602 294.701 172.612 271.443 185.973 265.001C196.389 259.978 209.166 266.523 242.955 261.501C263.688 258.419 266.852 196.359 263.175 177.365C260.234 162.17 247.858 147.342 242.955 127.122L185.973 147.342C185.973 178.591 144.364 194.104 141.502 217.001C140.002 229.001 144.002 232.501 144.002 232.501Z" stroke="black" stroke-linecap="round" stroke-linejoin="round"/>
  <path d="M241.729 138.764C237.404 144.53 204.855 148.609 187.028 152.038C186.362 152.166 185.82 152.622 185.569 153.251C182.245 161.582 176.319 176.691 174.362 184.108C173.954 185.655 175.44 186.508 176.745 185.583C202.031 167.646 241.729 149.36 241.729 138.764Z" fill="#B5966E" stroke="black"/>
  <path d="M192.712 107.515C183.889 111.437 178.62 124.672 177.395 135.088C182.909 154.082 187.198 160.822 219.672 152.244C252.146 143.666 244.181 127.123 236.828 115.481C229.475 103.839 203.741 102.614 192.712 107.515Z" fill="#725D41" stroke="black" stroke-linecap="round" stroke-linejoin="round"/>
  <path d="M207.529 121.689C207.466 123.938 209.239 125.812 211.488 125.875C213.738 125.937 215.612 124.165 215.675 121.915C215.737 119.666 214.091 120.96 211.842 120.897C209.592 120.835 207.591 119.439 207.529 121.689Z" fill="black"/>
  <path d="M185.47 120.463C185.408 122.713 187.18 124.587 189.43 124.649C191.679 124.712 193.553 122.939 193.616 120.69C193.679 118.44 192.033 119.734 189.783 119.672C187.534 119.609 185.533 118.214 185.47 120.463Z" fill="black"/>
  <circle cx="186.582" cy="120.382" r="8.07804" fill="white" fill-opacity="0.21" stroke="black"/>
  <path d="M198.913 119.287C196.003 119.772 185.057 124.095 174.737 130.12C174.517 130.249 174.315 130.429 174.163 130.635C164.375 143.921 188.579 151.746 198.913 149.923C209.329 148.085 206.878 140.732 206.265 130.316C205.653 119.899 202.589 118.674 198.913 119.287Z" fill="#B5966E" stroke="black"/>
  <path d="M174.443 131.492C174.38 133.741 176.153 135.616 178.402 135.678C180.652 135.741 182.526 133.968 182.589 131.719C182.651 129.469 181.005 130.763 178.756 130.701C176.506 130.638 174.505 129.243 174.443 131.492Z" fill="black"/>
  <circle cx="209.866" cy="121.608" r="9.30347" fill="white" fill-opacity="0.21" stroke="black"/>
  <path d="M102.805 177.741L98.5156 180.192L113.221 202.862L151.209 192.446L151.822 179.579L150.597 176.515L149.371 173.452C131.725 173.452 115.059 185.706 113.221 189.995C111.75 184.603 108.932 182.643 102.805 177.741Z" fill="white"/>
  <path d="M126.701 183.255C130.581 180.6 140.793 175.535 150.597 176.515M150.597 176.515L149.371 173.452C131.725 173.452 115.059 185.706 113.221 189.995C111.75 184.603 108.932 182.643 102.805 177.741L98.5156 180.192L113.221 202.862L151.209 192.446L151.822 179.579L150.597 176.515Z" stroke="black"/>
  <path d="M152.045 178.698L116.163 191.051C115.855 191.157 115.617 191.408 115.527 191.722L114.652 194.784C114.53 195.214 114.137 195.51 113.691 195.51H109.931C109.378 195.51 108.931 195.062 108.931 194.51V191.567C108.931 191.343 108.855 191.125 108.716 190.948L98.6909 178.224C97.9506 177.284 96.4842 178.202 97.0052 179.278L111.339 208.902C111.367 208.96 111.401 209.015 111.44 209.067L126.087 228.596H132.214L164.246 222.071C164.815 221.955 165.166 221.38 165.009 220.82L153.333 179.373C153.177 178.819 152.589 178.511 152.045 178.698Z" fill="#F5C142"/>
  <path d="M132.214 228.596L164.246 222.071C164.815 221.955 165.166 221.38 165.009 220.82L153.333 179.373C153.177 178.819 152.589 178.511 152.045 178.698L116.163 191.051C115.855 191.157 115.617 191.408 115.527 191.722L114.652 194.784C114.53 195.214 114.137 195.51 113.691 195.51H109.931C109.378 195.51 108.931 195.062 108.931 194.51V191.567C108.931 191.343 108.855 191.125 108.716 190.948L98.6909 178.224C97.9506 177.284 96.4842 178.202 97.0052 179.278L111.339 208.902C111.367 208.96 111.401 209.015 111.44 209.067L126.087 228.596M132.214 228.596H126.087M132.214 228.596L117.509 198.573M126.087 228.596L110.156 198.573" stroke="black" stroke-linejoin="round"/>
  <path d="M180.308 191.804C186.935 190.477 207.098 167.785 226.255 156.062C227.4 155.361 228.871 156.016 229.165 157.326L237.936 196.458C238.013 196.801 237.997 197.155 237.835 197.468C236.991 199.093 233.199 204.732 218.23 213.379C195.822 226.324 193.362 218.557 166.519 218.557C149.284 218.557 144.113 215.105 149.284 206.475C154.455 197.845 171.69 193.53 180.308 191.804Z" fill="#725D41"/>
  <path d="M228.575 154.695C208.752 165.914 187.203 190.423 180.308 191.804C171.69 193.53 154.455 197.845 149.284 206.475C144.113 215.105 149.284 218.557 166.519 218.557C193.362 218.557 195.822 226.324 218.231 213.379C236.157 203.023 238.053 196.982 238.053 196.982" stroke="black"/>
  <path d="M143.691 209.839C144.304 208.614 148.593 206.776 151.044 206.776L150.431 208.614C148.961 208.123 146.142 209.022 143.691 209.839Z" fill="black" stroke="black" stroke-linejoin="round"/>
  <path d="M143.691 214.128C144.304 212.903 148.593 211.065 151.044 211.065L150.431 212.903C148.961 212.412 146.142 213.311 143.691 214.128Z" fill="black" stroke="black" stroke-linejoin="round"/>
  <path d="M116.594 209.962C115.61 210.809 112.091 210.899 110.605 210.041L111.895 208.664C112.542 209.603 114.7 209.812 116.594 209.962Z" fill="black" stroke="black" stroke-linejoin="round"/>
  <path d="M115.372 212.413C114.387 213.26 110.868 213.35 109.382 212.492L110.672 211.115C111.319 212.054 113.477 212.262 115.372 212.413Z" fill="black" stroke="black" stroke-linejoin="round"/>
  <path d="M145.531 216.579C147.982 216.498 149.208 216.579 151.658 215.354L152.884 216.579C151.046 217.192 147.982 217.192 145.531 216.579Z" fill="black" stroke="black" stroke-linejoin="round"/>
  <path d="M259 161.501C264 172.668 270.6 205.501 257 247.501C240 245.168 199.5 236.101 173.5 218.501C173.333 213.168 172.1 201.001 168.5 195.001C162.5 196.601 159.333 198.001 158.5 198.501L152.5 178.001L151 178.501L150 174.501L177.5 161.501C179.667 164.834 187.6 171.901 202 173.501L259 161.501Z" fill="#D73F3F"/>
  <path d="M173.5 218.501C199.5 236.101 240 245.168 257 247.501C270.6 205.501 264 172.668 259 161.501L202 173.501M173.5 218.501C173.333 213.168 172.1 201.001 168.5 195.001M173.5 218.501C173.5 218.501 194.4 222.701 210 217.501C217.5 214.001 233.6 205.801 238 201.001M168.5 195.001C171.833 193.668 183.2 187.501 202 173.501M168.5 195.001C162.5 196.601 159.333 198.001 158.5 198.501M202 173.501C187.6 171.901 179.667 164.834 177.5 161.501L150 174.501L151 178.501L152.5 178.001L158.5 198.501M158.5 198.501C160.667 193.501 167.1 180.701 175.5 169.501" stroke="black" stroke-linecap="round" stroke-linejoin="round"/>
  <path d="M178.001 162.001C175.601 156.801 179.001 149.834 181.001 147.001C187.001 155.801 193.834 157.001 196.501 156.501L190.501 171.501C187.334 170.501 180.401 167.201 178.001 162.001Z" fill="white" stroke="black" stroke-linecap="round" stroke-linejoin="round"/>
  <path d="M245.352 134.38C253.202 131.292 262.783 141.393 263.413 152.375C264.044 163.357 250.993 166.116 218.934 171.456C200.578 174.513 187.763 177.412 190.022 165.102C192.281 152.792 209.101 148.642 245.352 134.38Z" fill="white" stroke="black" stroke-linecap="round" stroke-linejoin="round"/>
  <path d="M102.435 266.915C94.3969 269.153 89.44 272.11 87.9663 273.309C81.1337 277.049 112.483 295.686 120.923 293.289C127.676 291.371 134.455 277.838 137 271.311C128.292 265.317 115.001 253.64 110.5 253.001C105.999 252.361 105 261.001 102.435 266.915Z" fill="#D73F3F" stroke="black" stroke-linecap="round" stroke-linejoin="round"/>
  <path d="M111 248.001C108.2 248.001 107.5 252.001 107.5 254.001C117.1 257.201 126.5 265.001 130 268.501C132.833 266.168 137.5 260.901 133.5 258.501C128.5 255.501 114.5 248.001 111 248.001Z" fill="white" stroke="black" stroke-linecap="round" stroke-linejoin="round"/>
  <path d="M129.512 279.299C120.621 280.697 113.029 283.916 113.961 289.843C115.468 299.428 155.227 313.101 160.117 303.337C165.895 291.8 172.689 277.065 172.689 277.065C160.822 271.339 139.297 260.046 133.709 260.924C130.745 261.39 130.4 272.073 129.512 279.299Z" fill="#D73F3F" stroke="black" stroke-linecap="round" stroke-linejoin="round"/>
  <path d="M133.194 254.425C129.575 254.59 126.406 264.29 129.73 264.587C142.05 265.686 162.035 273.679 169.805 278.025C176.466 281.751 174.949 281.771 177.658 273.247C180.367 264.723 137.717 254.22 133.194 254.425Z" fill="white" stroke="black" stroke-linecap="round" stroke-linejoin="round"/>
  <path d="M174.999 190.001C172.599 189.601 168.778 191.001 166.499 192.501C164.22 194.001 169.5 217.501 170.499 219.001C173 222.754 177.769 222.025 180.499 221.001C184.499 219.501 177.999 190.501 174.999 190.001Z" fill="white" stroke="black" stroke-linecap="round" stroke-linejoin="round"/>
  <path d="M324.5 277C343.359 340.481 303.342 331.085 255.313 331.085C200.674 331.085 173.601 339.866 176.167 299.663C179.328 250.129 212.257 230.856 233.534 224.123C236.365 223.416 239.285 222.878 242.267 222.525C237.986 219.119 229.938 211.897 231.993 210.254C234.562 208.199 241.24 212.822 244.836 210.254C248.432 207.685 252.541 202.034 259.219 205.117C265.897 208.199 263.842 211.795 270.521 210.254C277.199 208.712 282.336 208.712 274.63 217.445C268.885 223.956 266.263 223.737 265.933 223.677C288.696 228.684 314.85 244.517 324.5 277Z" fill="#CF8D47"/>
  <path d="M242.267 222.525C239.285 222.878 236.365 223.416 233.534 224.123C212.257 230.856 179.328 250.129 176.167 299.663C173.601 339.866 200.674 331.085 255.313 331.085C303.342 331.085 343.359 340.481 324.5 277C314.845 244.5 288.669 228.667 265.897 223.669M242.267 222.525C237.986 219.119 229.938 211.897 231.993 210.254C234.562 208.199 241.24 212.822 244.836 210.254C248.432 207.685 252.541 202.034 259.219 205.117C265.897 208.199 263.842 211.795 270.521 210.254C277.199 208.712 282.336 208.712 274.63 217.445C268.466 224.432 265.897 223.669 265.897 223.669M242.267 222.525C244.631 222.245 247.033 222.08 249.459 222.039M265.897 223.669C263.637 223.173 261.37 222.793 259.107 222.525M259.107 222.525L264.356 212.308M259.107 222.525C255.871 222.141 252.644 221.984 249.459 222.039M249.459 222.039C247.918 220.165 244.836 216.007 244.836 214.363" stroke="black" stroke-linecap="round" stroke-linejoin="round"/>
  <path d="M247.919 216.932C239.21 218.02 239.686 221.188 240.213 222.582C240.213 222.582 246.378 222.069 253.57 222.069C261.734 222.069 268.981 224.124 268.981 224.124C270.008 219.5 260.248 215.391 247.919 216.932Z" fill="#D73F3F" stroke="black"/>
  <path d="M265.05 111.05C263.119 107.928 259.478 107.05 256.349 108.307C253.505 110.103 251.905 112.292 252.247 115.541C252.59 118.79 255.832 122.953 260.876 121.402C265.92 119.85 267.464 114.952 265.05 111.05Z" fill="white" stroke="black"/>
  <path d="M231.932 80.6957C214.351 78.6988 198.665 93.9599 192.818 98.8684C206.913 102.298 237.744 116.826 251.397 123.661C251.772 121.669 251.199 115.049 249.996 108.422C256.594 112.527 258.85 113.505 258.551 111.118C255.667 102.614 249.514 82.6926 231.932 80.6957Z" fill="#D73F3F"/>
  <path d="M249.996 108.422C256.594 112.527 258.85 113.505 258.551 111.118C255.667 102.614 249.514 82.6926 231.932 80.6957C214.351 78.6988 198.665 93.9599 192.818 98.8684C206.913 102.298 237.744 116.826 251.397 123.661C251.772 121.669 251.199 115.049 249.996 108.422ZM249.996 108.422C249.824 104.092 248.794 101.794 247.931 98.563" stroke="black"/>
  <path d="M225.746 107.105C241.416 114.007 249.794 119.021 252.379 121.662C255.942 124.816 251.45 132.323 247.512 131.082C243.288 129.751 237.648 128.773 215.312 120.933C188.988 111.694 187.489 111.907 186.057 110.428C184.624 108.95 184.484 98.5506 190.596 96.0264C196.707 93.5022 212.076 101.085 225.746 107.105Z" fill="white" stroke="black"/>
  <defs>
    <filter id="filter0_d_22057_76" x="147" y="65" width="48" height="25" filterUnits="userSpaceOnUse" color-interpolation-filters="sRGB">
      <feFlood flood-opacity="0" result="BackgroundImageFix"/>
      <feColorMatrix in="SourceAlpha" type="matrix" values="0 0 0 0 0 0 0 0 0 0 0 0 0 0 0 0 0 0 127 0" result="hardAlpha"/>
      <feOffset dx="6" dy="6"/>
      <feComposite in2="hardAlpha" operator="out"/>
      <feColorMatrix type="matrix" values="0 0 0 0 0 0 0 0 0 0 0 0 0 0 0 0 0 0 0.25 0"/>
      <feBlend mode="normal" in2="BackgroundImageFix" result="effect1_dropShadow_22057_76"/>
      <feBlend mode="normal" in="SourceGraphic" in2="effect1_dropShadow_22057_76" result="shape"/>
    </filter>
    <filter id="filter1_d_22057_76" x="62" y="0" width="178" height="63" filterUnits="userSpaceOnUse" color-interpolation-filters="sRGB">
      <feFlood flood-opacity="0" result="BackgroundImageFix"/>
      <feColorMatrix in="SourceAlpha" type="matrix" values="0 0 0 0 0 0 0 0 0 0 0 0 0 0 0 0 0 0 127 0" result="hardAlpha"/>
      <feOffset dx="6" dy="6"/>
      <feComposite in2="hardAlpha" operator="out"/>
      <feColorMatrix type="matrix" values="0 0 0 0 0 0 0 0 0 0 0 0 0 0 0 0 0 0 0.25 0"/>
      <feBlend mode="normal" in2="BackgroundImageFix" result="effect1_dropShadow_22057_76"/>
      <feBlend mode="normal" in="SourceGraphic" in2="effect1_dropShadow_22057_76" result="shape"/>
    </filter>
    <filter id="filter2_d_22057_76" x="176" y="88" width="27" height="16" filterUnits="userSpaceOnUse" color-interpolation-filters="sRGB">
      <feFlood flood-opacity="0" result="BackgroundImageFix"/>
      <feColorMatrix in="SourceAlpha" type="matrix" values="0 0 0 0 0 0 0 0 0 0 0 0 0 0 0 0 0 0 127 0" result="hardAlpha"/>
      <feOffset dx="6" dy="6"/>
      <feComposite in2="hardAlpha" operator="out"/>
      <feColorMatrix type="matrix" values="0 0 0 0 0 0 0 0 0 0 0 0 0 0 0 0 0 0 0.25 0"/>
      <feBlend mode="normal" in2="BackgroundImageFix" result="effect1_dropShadow_22057_76"/>
      <feBlend mode="normal" in="SourceGraphic" in2="effect1_dropShadow_22057_76" result="shape"/>
    </filter>
  </defs>
</svg>
