<svg width="155" height="203" viewBox="0 0 155 203" fill="none" xmlns="http://www.w3.org/2000/svg">
  <g filter="url(#filter0_d_28513_48)">
    <path d="M5.71484 154.647V75.3562L81.1185 98.2086V181.654L5.71484 154.647Z" fill="#F2B95E" stroke="#471C1C" stroke-width="2" stroke-linejoin="round"/>
    <path d="M141.859 149.747V74.833L81.1172 98.0702V181.655L141.859 149.747Z" fill="#C97933" stroke="#471C1C" stroke-width="2" stroke-linejoin="round"/>
    <path d="M128.759 94.0255C119.926 86.4347 102.742 103.261 95.2539 112.623L102.488 118.696C107.818 109.207 119.621 101.237 119.621 106.171C119.621 110.118 108.199 118.949 102.488 122.871V137.293L113.149 131.221V125.907C122.033 118.443 137.592 101.616 128.759 94.0255Z" fill="#D7CCA0"/>
    <path d="M102.488 152.855V141.468L113.149 135.775V147.921L102.488 152.855Z" fill="#D7CCA0"/>
    <path d="M128.759 94.0255C119.926 86.4347 102.742 103.261 95.2539 112.623L102.488 118.696C107.818 109.207 119.621 101.237 119.621 106.171C119.621 110.118 108.199 118.949 102.488 122.871V137.293L113.149 131.221V125.907C122.033 118.443 137.592 101.616 128.759 94.0255Z" stroke="#471C1C" stroke-width="2"/>
    <path d="M102.488 152.855V141.468L113.149 135.775V147.921L102.488 152.855Z" stroke="#471C1C" stroke-width="2"/>
    <path d="M1 74.394V55.3951L76.9903 32.9418L145 55.3951V74.394L81.1542 98.9199L1 74.394Z" fill="#FFDEAA" stroke="#471C1C" stroke-width="2" stroke-linejoin="round"/>
    <path d="M81.1172 98.9197V81.673L145.001 57.2906V74.4293L81.1172 98.9197Z" fill="#C97933" stroke="#471C1C" stroke-width="2" stroke-linejoin="round"/>
    <path d="M81.1161 98.9199V81.6028L1.52344 54.9344V73.9833L81.1161 98.9199Z" fill="#F2B95E" stroke="#471C1C" stroke-width="2" stroke-linejoin="round"/>
    <path d="M49.7141 100.041C40.3434 96.6152 31.1382 99.3273 27.707 101.112L34.4511 112.531C43.6799 107.178 53.6186 112.888 53.9735 115.742C54.2575 118.026 41.0769 118.121 34.4511 117.883V133.228L46.5195 136.44V130.016C52.9087 129.66 65.829 127.233 66.3969 120.381C67.1068 111.817 61.4275 104.323 49.7141 100.041Z" fill="#FCF0D2"/>
    <path d="M34.4511 148.573V136.44L46.5195 140.008V152.855L34.4511 148.573Z" fill="#FCF0D2"/>
    <path d="M49.7141 100.041C40.3434 96.6152 31.1382 99.3273 27.707 101.112L34.4511 112.531C43.6799 107.178 53.6186 112.888 53.9735 115.742C54.2575 118.026 41.0769 118.121 34.4511 117.883V133.228L46.5195 136.44V130.016C52.9087 129.66 65.829 127.233 66.3969 120.381C67.1068 111.817 61.4275 104.323 49.7141 100.041Z" stroke="#471C1C" stroke-width="2"/>
    <path d="M34.4511 148.573V136.44L46.5195 140.008V152.855L34.4511 148.573Z" stroke="#471C1C" stroke-width="2"/>
    <path d="M24.6159 60.1208L53.3036 48.3932C55.0472 47.6804 57.0194 47.8367 58.6683 48.7474C60.555 49.7895 62.7215 50.9048 64.3184 51.5286C65.264 51.898 66.0099 52.0951 66.3799 52.0026C68.029 51.5903 51.125 60.6608 50.9188 81.2756C50.7935 93.8076 51.5332 101.34 52.1971 105.049C52.4609 106.522 52.0376 108.111 50.9188 109.105C47.4561 106.797 39.7567 100.288 34.9907 91.7891L20.2222 96.6677C18.9327 97.0937 17.5142 96.8063 16.4922 95.912C17.3158 86.5354 19.5998 67.7075 22.5362 61.8543C22.9569 61.0157 23.7474 60.4759 24.6159 60.1208Z" fill="#FF994C"/>
    <path d="M50.9188 109.105V109.105C52.0376 108.111 52.4609 106.522 52.1971 105.049C51.5332 101.34 50.7935 93.8076 50.9188 81.2756C51.125 60.6608 68.029 51.5903 66.3799 52.0026C66.0099 52.0951 65.264 51.898 64.3184 51.5286M50.9188 109.105C47.4561 106.797 39.7567 100.288 34.9907 91.7891M50.9188 109.105C48.9948 99.2104 46.1362 77.1938 50.0942 68.2883C54.0523 59.3827 61.2262 53.4045 64.3184 51.5286M16.4922 95.912L32.0304 90.6108C33.165 90.2237 34.4043 90.7434 34.9907 91.7891V91.7891M16.4922 95.912C17.3158 86.5354 19.5998 67.7075 22.5362 61.8543C22.9569 61.0157 23.7474 60.4759 24.6159 60.1208L53.3036 48.3932C55.0472 47.6804 57.0194 47.8367 58.6683 48.7474C60.555 49.7895 62.7215 50.9048 64.3184 51.5286M16.4922 95.912V95.912C17.5142 96.8063 18.9327 97.0936 20.2222 96.6677L34.9907 91.7891" stroke="#471C1C" stroke-width="2" stroke-linecap="round"/>
    <path d="M119.743 64.0826L82.3616 46.8329C80.5662 46.0044 78.4834 46.1232 76.7509 47.0762C74.8994 48.0947 72.8031 49.1689 71.2474 49.7767C70.3017 50.1461 69.5558 50.3432 69.1859 50.2507C67.5367 49.8384 95.1602 67.2909 95.3663 87.9056C95.4916 100.438 94.7519 107.97 94.088 111.679C93.8242 113.152 94.2475 114.741 95.3663 115.736C98.829 113.427 106.528 106.918 111.294 98.4191L126.063 103.298C127.352 103.724 128.771 103.436 129.793 102.542C128.961 93.0762 124.842 71.6661 121.616 65.6885C121.213 64.9417 120.514 64.4382 119.743 64.0826Z" fill="#FF994C"/>
    <path d="M95.3663 115.736V115.736C94.2475 114.741 93.8242 113.152 94.088 111.679C94.7519 107.97 95.4916 100.438 95.3663 87.9056C95.1602 67.2909 67.5367 49.8384 69.1859 50.2507C69.5558 50.3432 70.3017 50.1461 71.2474 49.7767M95.3663 115.736C98.829 113.427 106.528 106.918 111.294 98.4191M95.3663 115.736C97.2903 105.84 100.149 83.8239 96.1909 74.9183C92.2329 66.0128 74.3396 51.6526 71.2474 49.7767M129.793 102.542L114.255 97.2408C113.12 96.8537 111.881 97.3735 111.294 98.4191V98.4191M129.793 102.542C128.961 93.0762 124.842 71.6661 121.616 65.6885C121.213 64.9417 120.514 64.4382 119.743 64.0826L82.3616 46.8329C80.5662 46.0044 78.4834 46.1232 76.7509 47.0762C74.8994 48.0947 72.8031 49.1689 71.2474 49.7767M129.793 102.542V102.542C128.771 103.436 127.352 103.724 126.063 103.298L111.294 98.4191" stroke="#471C1C" stroke-width="2" stroke-linecap="round"/>
    <path d="M72.977 44.3751C69.8436 46.8488 65.9679 47.6734 69.0602 42.932C73.8016 37.1599 84.0265 25.327 89.4688 21.6988C94.9111 18.0706 98.8829 22.1111 100.188 24.5849C86.995 24.3787 76.8938 41.2829 72.977 44.3751Z" fill="#D86C00" stroke="#471C1C" stroke-width="2" stroke-linecap="round"/>
    <path d="M83.2876 41.6953C76.8558 42.355 71.2623 44.9937 69.2695 46.2305C70.7813 46.2305 74.5881 46.7253 77.7216 48.7043C81.6384 51.1781 87.4105 67.0514 97.0994 65.4023C104.851 64.0829 104.589 43.8255 103.49 33.8617C99.4358 36.198 89.7194 41.0356 83.2876 41.6953Z" fill="#D86C00" stroke="#471C1C" stroke-width="2" stroke-linecap="round"/>
    <path d="M65.3507 9.12403C70.793 16.0506 70.5044 31.1131 69.6798 37.7785L59.5786 39.4277C59.9084 34.6451 48.7215 24.6538 43.0868 20.256C42.056 22.9359 40.8604 29.6563 44.3236 35.0986C47.7869 40.5409 54.5623 41.3517 57.5171 41.0769C56.9308 42.0149 56.5009 42.9285 56.1902 43.7568C55.6269 45.2585 55.4556 46.4794 55.4556 47.0551C50.7142 45.406 35.8716 49.7351 26.595 47.0551C17.3183 44.3752 12.3708 27.6773 13.8138 16.3392C15.2569 5.00105 23.7089 4.79491 26.595 5.2072C27.3193 5.23175 28.2717 5.3765 29.4182 5.68048C32.6865 6.26444 37.4319 7.17848 39.9946 7.68097C41.7125 7.13125 46.2615 5.37214 50.7142 2.73346C56.2802 -0.564904 58.5478 0.465833 65.3507 9.12403Z" fill="#FF994C"/>
    <path d="M39.9946 7.68097C41.7125 7.13125 46.2615 5.37214 50.7142 2.73346C56.2802 -0.564904 58.5478 0.465833 65.3507 9.12403C70.793 16.0506 70.5044 31.1131 69.6798 37.7785L59.5786 39.4277C59.9084 34.6451 48.7215 24.6538 43.0868 20.256M39.9946 7.68097C41.5063 8.16198 45.1483 8.8354 47.622 7.68097M39.9946 7.68097C36.4901 6.99381 28.9038 5.53704 26.595 5.2072M26.595 5.2072C23.7089 4.79491 15.2569 5.00105 13.8138 16.3392C12.3708 27.6773 17.3183 44.3752 26.595 47.0551C35.8716 49.7351 50.7142 45.406 55.4556 47.0551C55.4556 46.4794 55.6269 45.2585 56.1902 43.7568M26.595 5.2072C30.6492 5.34463 41.8499 9.24769 54.2187 23.7605M43.0868 20.256C42.056 22.9359 40.8604 29.6563 44.3236 35.0986C47.7869 40.5409 54.5623 41.3517 57.5171 41.0769C56.9308 42.0148 56.5009 42.9285 56.1902 43.7568M43.0868 20.256C39.1012 16.4766 29.6459 9.37138 23.7089 11.1855C16.2876 13.4531 18.3491 21.0806 19.1737 27.265C19.9982 33.4494 21.4413 42.3137 30.7179 43.7568C39.9946 45.1998 47.0297 41.283 56.1902 43.7568" stroke="#471C1C" stroke-width="2" stroke-linecap="round"/>
    <path d="M44.3229 35.0986C47.7862 40.5409 54.5616 41.3517 57.5164 41.0768C56.9301 42.0148 56.5002 42.9285 56.1895 43.7568C47.029 41.283 39.9939 45.1998 30.7172 43.7568C21.4406 42.3137 19.9975 33.4494 19.173 27.265C18.3484 21.0805 16.2869 13.4531 23.7082 11.1855C29.6452 9.37137 39.1005 16.4766 43.0861 20.256C42.0553 22.9359 40.8597 29.6563 44.3229 35.0986Z" fill="#D86C00" stroke="#471C1C" stroke-width="2" stroke-linecap="round"/>
    <path d="M109.878 14.7464C103.462 13.3943 97.1384 13.6534 94.2109 14.0716C96.8221 14.8962 102.91 19.885 106.374 33.2433C109.837 46.6016 104.106 61.7603 100.808 67.6699C103.35 63.3408 110.414 54.7239 118.33 54.8888C128.225 55.0949 133.791 52.415 136.883 39.2216C139.976 26.0281 133.585 13.247 127.813 9.74246C123.195 6.93886 113.932 11.9102 109.878 14.7464Z" fill="#D86C00"/>
    <path d="M115.856 16.5454C113.923 15.7562 111.896 15.1716 109.878 14.7464M109.878 14.7464C103.462 13.3943 97.1384 13.6534 94.2109 14.0716C96.8221 14.8962 102.91 19.885 106.374 33.2433C109.837 46.6016 104.106 61.7603 100.808 67.6699C103.35 63.3408 110.414 54.7239 118.33 54.8888C128.225 55.0949 133.791 52.415 136.883 39.2216C139.976 26.0281 133.585 13.247 127.813 9.74246C123.195 6.93886 113.932 11.9102 109.878 14.7464Z" stroke="#471C1C" stroke-width="2" stroke-linecap="round"/>
    <path d="M95.2436 14.2781C89.6364 13.4535 76.9652 30.2889 71.3305 38.8097C70.2998 40.3901 68.4857 43.4686 69.4752 43.1387C70.7121 42.7264 78.1334 34.2744 82.2563 28.9146C86.3793 23.5547 94.3924 14.2781 100.191 25.4101C105.99 36.542 104.27 63.5473 96.2743 64.7842C88.2786 66.0211 82.2563 52.8277 78.1334 48.0863C74.835 44.2932 70.1623 45.6812 68.2383 46.8494L68.8567 48.0863C69.6813 48.0176 71.9902 48.1687 74.6289 49.3232C77.9272 50.7662 83.9055 68.4949 93.8006 68.9072C103.696 69.3195 104.933 66.2272 107.612 46.8494C110.292 27.4715 102.253 15.3089 95.2436 14.2781Z" fill="#FF994C" stroke="#471C1C" stroke-width="2" stroke-linecap="round"/>
    <path d="M55.6624 45.8183C54.8378 52.2501 63.8396 53.8581 68.4435 53.8581C69.9553 53.1709 72.9376 51.3019 72.7727 49.3229C72.6077 47.3439 69.8178 47.6241 68.4435 48.0115C67.2483 45.8523 68.6705 42.9493 69.6804 42.1077C70.67 41.2831 71.1922 39.0155 71.3296 37.9847C69.4056 37.7099 64.8566 37.3251 62.053 37.9847C58.5485 38.8093 56.6931 37.7786 55.6624 45.8183Z" fill="#FF994C"/>
    <path d="M71.3296 37.9847C69.4056 37.7099 64.8566 37.3251 62.053 37.9847C58.5485 38.8093 56.6931 37.7786 55.6624 45.8183C54.8378 52.2501 63.8396 53.8581 68.4435 53.8581C69.9553 53.1709 72.9376 51.3019 72.7727 49.3229C72.6077 47.3439 69.8178 47.6241 68.4435 48.0115M71.3296 37.9847C71.1922 39.0155 70.67 41.2831 69.6804 42.1077C68.6705 42.9493 67.2483 45.8523 68.4435 48.0115M71.3296 37.9847C62.9188 44.7463 65.3514 49.4603 67.619 50.9721M69.6804 49.3229C69.113 48.9446 68.7121 48.4968 68.4435 48.0115" stroke="#471C1C" stroke-width="2" stroke-linecap="round"/>
  </g>
  <defs>
    <filter id="filter0_d_28513_48" x="0" y="-0.000854492" width="155" height="202.656" filterUnits="userSpaceOnUse" color-interpolation-filters="sRGB">
      <feFlood flood-opacity="0" result="BackgroundImageFix"/>
      <feColorMatrix in="SourceAlpha" type="matrix" values="0 0 0 0 0 0 0 0 0 0 0 0 0 0 0 0 0 0 127 0" result="hardAlpha"/>
      <feOffset dx="9" dy="20"/>
      <feComposite in2="hardAlpha" operator="out"/>
      <feColorMatrix type="matrix" values="0 0 0 0 0 0 0 0 0 0 0 0 0 0 0 0 0 0 0.25 0"/>
      <feBlend mode="normal" in2="BackgroundImageFix" result="effect1_dropShadow_28513_48"/>
      <feBlend mode="normal" in="SourceGraphic" in2="effect1_dropShadow_28513_48" result="shape"/>
    </filter>
  </defs>
</svg>
