<svg width="18" height="18" viewBox="0 0 18 18" fill="none" xmlns="http://www.w3.org/2000/svg">
  <path d="M13.6323 0C15.8268 0.000163065 17.6119 1.78599 17.6118 3.98047V12.6758C17.6118 14.541 16.3219 16.11 14.5874 16.5391V17.0449C14.5873 17.5722 14.1597 17.9998 13.6323 18C13.1048 18 12.6764 17.5723 12.6763 17.0449V16.6562H5.43799V17.0449C5.4379 17.5723 5.00953 18 4.48193 18C3.95453 17.9999 3.52694 17.5723 3.52686 17.0449V16.623C1.56837 16.3755 0.0483398 14.7004 0.0483398 12.6758V3.98047C0.0483398 1.78589 1.83423 0 4.02881 0H13.6323ZM4.02881 1.91113C2.88776 1.91113 1.95947 2.83942 1.95947 3.98047V12.6758C1.95947 13.8169 2.88776 14.7451 4.02881 14.7451H13.6323C14.7019 14.745 15.5847 13.9297 15.6909 12.8877L15.7017 12.6758V3.98047C15.7017 2.83952 14.7732 1.9113 13.6323 1.91113H4.02881ZM8.42139 5.14355C9.89713 5.14376 11.1471 6.12449 11.5571 7.46777H13.6626C14.1902 7.46777 14.6177 7.89528 14.6177 8.42285C14.6176 8.9504 14.1902 9.37793 13.6626 9.37793H11.5571C11.1471 10.7211 9.8969 11.701 8.42139 11.7012C6.61341 11.7012 5.14216 10.2308 5.14209 8.42285C5.14209 6.61483 6.61337 5.14355 8.42139 5.14355ZM8.42139 7.05469C7.66691 7.05469 7.05225 7.66837 7.05225 8.42285C7.05232 9.17727 7.66695 9.79102 8.42139 9.79102C9.17561 9.79076 9.78948 9.17712 9.78955 8.42285C9.78955 7.66853 9.17565 7.05494 8.42139 7.05469Z" fill="#E841C4"/>
</svg>
