<svg width="12" height="12" viewBox="0 0 12 12" fill="none" xmlns="http://www.w3.org/2000/svg">
<g opacity="0.6" clip-path="url(#clip0_36365_11751)">
<path d="M9.11621 12C9.67356 12 10.1169 11.8439 10.4346 11.5439C10.7403 11.2499 10.8362 10.9075 10.8662 10.7275L11.9395 6.05371C12.0832 5.47185 11.9696 4.90764 11.6221 4.46973C11.3044 4.07373 10.7405 3.83399 10.1172 3.83398H8.15137L8.59082 2.80273C8.68792 2.5104 8.78452 2.16368 8.87012 1.75781C8.95397 1.32587 8.75651 0.989842 8.55273 0.713867C8.1632 0.245999 7.61787 6.67572e-05 6.9707 0C5.91009 0 5.52037 0.761708 5.31055 1.17578C5.22664 1.26578 5.09416 1.53641 5.07617 1.56641C4.30311 2.88621 3.56591 4.13956 2.13965 4.13965H1.14453C0.497213 4.13965 0.0117188 4.62642 0.0117188 5.27441V10.8721C0.0117542 11.514 0.497237 12 1.14453 12H9.11621ZM2 5H3V11H2V5Z" fill="black"/>
</g>
<defs>
<clipPath id="clip0_36365_11751">
<rect width="12" height="12" fill="white" transform="matrix(1 0 0 -1 0 12)"/>
</clipPath>
</defs>
</svg>
