<svg width="18" height="17" viewBox="0 0 18 17" fill="none" xmlns="http://www.w3.org/2000/svg">
  <path d="M16.0461 17H2.02451C1.57462 17 1.19971 16.8474 0.899782 16.6185C0.374909 16.237 0 15.6266 0 14.9399V5.78383C0 4.63933 0.899781 3.72372 2.02451 3.72372L11.9971 0.1376C13.1968 -0.243902 14.7714 0.1376 14.9964 1.66361V3.72372H15.9711C17.0958 3.72372 17.9956 4.63933 17.9956 5.78383V14.9399C18.0706 16.0844 17.1708 17 16.0461 17ZM13.5717 2.12141C13.2718 1.35841 12.372 1.66361 11.9221 1.81621L6.74836 3.72372H13.5717V2.12141ZM16.571 6.31794C16.571 5.78383 16.1211 5.32603 15.5962 5.32603H2.62436C2.09949 5.32603 1.6496 5.78383 1.6496 6.31794V14.4821C1.6496 15.0162 2.09949 15.474 2.62436 15.474H15.5962C16.1211 15.474 16.571 15.0162 16.571 14.4821V6.31794ZM14.0216 10.896C13.4967 10.896 13.0468 10.4382 13.0468 9.90406C13.0468 9.36996 13.4967 8.91215 14.0216 8.91215C14.5465 8.91215 14.9964 9.36996 14.9964 9.90406C15.0713 10.4382 14.6214 10.896 14.0216 10.896Z" fill="#D99530"/>
</svg>
