<svg width="18" height="18" viewBox="0 0 18 18" fill="none" xmlns="http://www.w3.org/2000/svg">
  <path d="M16.2644 3.35189H15.6323C15.9528 2.80899 16.0935 2.29115 16.0485 1.81082C16.0112 1.40882 15.8205 0.833869 15.1217 0.375656C14.5422 -0.00513851 13.7971 -0.0985359 12.9705 0.107784C11.6299 0.444028 10.0433 1.6 9.00014 2.99701C7.95632 1.60003 6.37101 0.444028 5.03048 0.107784C4.20312 -0.099877 3.45736 -0.0058204 2.87802 0.375656C2.17976 0.833869 1.98901 1.40882 1.95174 1.81082C1.9068 2.29115 2.04616 2.80899 2.36797 3.35189H1.73591C0.778866 3.35189 0 4.13057 0 5.08739V7.32274C0 8.07963 0.499714 8.74857 1.2227 8.97321C1.15399 9.16314 1.11801 9.35948 1.11801 9.55844V16.2648C1.11801 17.221 1.89777 18 2.8549 18H15.1474C16.1044 18 16.8829 17.221 16.8829 16.2648V9.55842C16.8829 9.35819 16.8483 9.16121 16.7796 8.97253C17.5015 8.74664 18 8.0777 18 7.32272V5.08796C18 4.13121 17.2215 3.35189 16.2644 3.35189ZM15.1473 16.7641H9.6181V9.05854H15.1474C15.4229 9.05854 15.6464 9.28311 15.6464 9.55842V16.2648C15.6464 16.5401 15.4229 16.7641 15.1473 16.7641ZM10.299 3.35189C11.1783 2.33859 12.3326 1.54229 13.2698 1.3074C13.7566 1.1855 14.1549 1.21887 14.4433 1.40882C14.7498 1.60996 14.8043 1.7893 14.8165 1.92475C14.8653 2.4214 14.3322 3.091 14.0804 3.35189H10.299ZM16.7628 5.08798V7.32274C16.7628 7.59805 16.5399 7.82194 16.2644 7.82194H9.6181V4.58842H16.2644C16.5399 4.58842 16.7628 4.81272 16.7628 5.08798ZM8.38156 9.05854V16.7641H2.85488C2.57864 16.7641 2.35509 16.5401 2.35509 16.2648V9.55842C2.35509 9.28311 2.57864 9.05854 2.85488 9.05854H8.38156ZM3.18376 1.92475C3.19594 1.7893 3.2512 1.60994 3.55634 1.40882C3.84277 1.21887 4.24103 1.18386 4.73053 1.3074C5.66254 1.54097 6.81553 2.33734 7.69682 3.35189H3.91858C3.69313 3.12377 3.13428 2.43331 3.18376 1.92475ZM1.23617 5.08798C1.23617 4.81275 1.45971 4.58842 1.73588 4.58842H8.38154V7.82194H1.73588C1.45971 7.82194 1.23617 7.59805 1.23617 7.32274V5.08798Z" fill="#F47C58"/>
</svg>
