<svg width="12" height="12" viewBox="0 0 12 12" fill="none" xmlns="http://www.w3.org/2000/svg">
<g opacity="0.6" clip-path="url(#clip0_36365_11761)">
<path d="M3.51562 4.86487V10.9688H9.1162C9.41872 10.9688 9.60814 10.904 9.72333 10.7975C9.79643 10.7257 9.83585 10.6384 9.84913 10.5586L9.85426 10.5278L10.9361 5.8149L10.9381 5.80656C11.0063 5.53082 10.9597 5.29644 10.8157 5.11348C10.7042 4.97634 10.4405 4.86525 10.1171 4.86525H6.40253L7.24877 3.33494C7.34084 3.16847 7.43524 2.96457 7.5294 2.71323C7.65383 2.38107 7.76551 1.99733 7.85888 1.55723C7.8593 1.55348 7.85825 1.55116 7.85347 1.53834C7.83796 1.49681 7.80404 1.43847 7.7425 1.35302C7.55454 1.13861 7.30625 1.03125 6.97046 1.03125C6.75795 1.03125 6.63605 1.0815 6.52963 1.18212C6.43113 1.27523 6.35715 1.39136 6.23009 1.64213L6.16406 1.77241L6.10144 1.83959C6.09636 1.84802 6.09068 1.85776 6.08452 1.86858C6.06357 1.90532 5.99093 2.04323 5.96616 2.08716L5.96627 2.08723C5.67091 2.59146 5.53345 2.81921 5.35261 3.09318C5.10128 3.47392 4.85902 3.78908 4.59696 4.06211C4.26589 4.40703 3.90705 4.67743 3.51564 4.86487H3.51562ZM2.48438 5.15395C2.36978 5.16556 2.25467 5.17134 2.13949 5.17125H1.14454C1.06699 5.17125 1.04297 5.1953 1.04297 5.274V10.872C1.04297 10.9447 1.06704 10.9688 1.14454 10.9688H2.48438V5.15395ZM8.15121 3.834H10.1171C10.7405 3.834 11.3039 4.074 11.6216 4.47C11.9692 4.908 12.0831 5.472 11.9392 6.054L10.8664 10.728C10.8364 10.908 10.7405 11.25 10.4348 11.544C10.1172 11.844 9.67362 12 9.1162 12H1.14454C0.497215 12 0.0117188 11.514 0.0117188 10.872V5.274C0.0117188 4.626 0.497215 4.14 1.14454 4.14H2.13949C3.566 4.14 4.30324 2.886 5.07642 1.566C5.09441 1.536 5.22627 1.266 5.31018 1.176C5.51997 0.762 5.90955 0 6.97044 0C7.61777 0 8.1632 0.245999 8.55279 0.714C8.75658 0.99 8.95437 1.326 8.87046 1.758C8.78487 2.16387 8.68827 2.51041 8.59117 2.80275L8.15121 3.834Z" fill="black"/>
</g>
<defs>
<clipPath id="clip0_36365_11761">
<rect width="12" height="12" fill="white" transform="matrix(1 0 0 -1 0 12)"/>
</clipPath>
</defs>
</svg>
