<svg width="12" height="12" viewBox="0 0 12 12" fill="none" xmlns="http://www.w3.org/2000/svg">
<path opacity="0.6" d="M7.2461 2.74609C7.50698 2.74576 7.76575 2.7968 8.00684 2.89648C8.24779 2.99616 8.46699 3.14276 8.65137 3.32715C8.83569 3.51156 8.98143 3.73073 9.08106 3.97168C9.18068 4.21265 9.23271 4.4707 9.23242 4.73145V10.0127C9.25338 11.1117 8.34509 12 7.2461 12H1.98633C1.72552 12.0003 1.46662 11.9492 1.22559 11.8496C0.98457 11.75 0.765496 11.6033 0.581057 11.4189C0.396634 11.2345 0.250075 11.0154 0.150393 10.7744C0.05071 10.5333 -0.000328467 10.2746 2.5347e-06 10.0137V4.73242C-0.000415105 4.47153 0.0507823 4.21281 0.150393 3.97168C0.250024 3.73062 0.396652 3.51163 0.581057 3.32715C0.765503 3.14267 0.984525 2.99619 1.22559 2.89648C1.46668 2.7968 1.72545 2.74576 1.98633 2.74609H7.2461ZM1.98633 4.01367C1.89177 4.01289 1.79748 4.03058 1.70996 4.06641C1.62264 4.10217 1.54334 4.15501 1.47657 4.22168C1.4097 4.28855 1.35614 4.36854 1.32032 4.45605C1.28459 4.54341 1.26684 4.63707 1.26758 4.73145V10.0127C1.2668 10.1073 1.28449 10.2015 1.32032 10.2891C1.35614 10.3765 1.40973 10.4556 1.47657 10.5225C1.54341 10.5893 1.62249 10.6429 1.70996 10.6787C1.79745 10.7145 1.8918 10.7322 1.98633 10.7314H7.2461C7.34045 10.7322 7.43413 10.7144 7.52149 10.6787C7.609 10.6429 7.689 10.5893 7.75586 10.5225C7.82259 10.4557 7.87533 10.3764 7.91114 10.2891C7.94696 10.2015 7.96563 10.1073 7.96485 10.0127V4.73145C7.96558 4.637 7.94692 4.54347 7.91114 4.45605C7.87531 4.36854 7.82273 4.28855 7.75586 4.22168C7.68903 4.15489 7.60893 4.1022 7.52149 4.06641C7.43409 4.0307 7.3405 4.01289 7.2461 4.01367H1.98633ZM10.0557 0C10.554 0.00110718 11.0324 0.199379 11.3848 0.551758C11.737 0.904034 11.9353 1.38174 11.9365 1.87988V7.37305C11.9353 7.87119 11.737 8.34889 11.3848 8.70117C11.0324 9.05355 10.554 9.25182 10.0557 9.25293C9.88771 9.25284 9.7262 9.18615 9.60742 9.06738C9.4887 8.94855 9.42188 8.78712 9.42188 8.61914C9.4219 8.45115 9.48867 8.28972 9.60742 8.1709C9.7262 8.05213 9.88771 7.98544 10.0557 7.98535C10.2182 7.98535 10.3743 7.92058 10.4893 7.80566C10.604 7.69084 10.6689 7.53537 10.6689 7.37305V1.87988C10.6688 1.71756 10.604 1.56208 10.4893 1.44727C10.3743 1.33235 10.2182 1.26758 10.0557 1.26758H4.56348C4.40099 1.2676 4.24478 1.33237 4.12989 1.44727C4.01527 1.56206 3.95128 1.71766 3.95117 1.87988C3.95117 2.04779 3.88425 2.20931 3.76563 2.32812C3.64686 2.4469 3.48534 2.51358 3.31739 2.51367C3.14931 2.51367 2.98799 2.44697 2.86914 2.32812C2.75031 2.20928 2.6836 2.04795 2.6836 1.87988C2.6848 1.38168 2.88307 0.904046 3.23535 0.551758C3.5877 0.199492 4.06524 0.00113212 4.56348 0H10.0557Z" fill="black"/>
</svg>
