<svg width="187" height="180" viewBox="0 0 187 180" fill="none" xmlns="http://www.w3.org/2000/svg">
<path opacity="0.3" d="M1.00001 159C-3.34605 148.332 19.5931 137.437 32.0414 133.156C32.3502 133.05 32.6666 133 32.9931 133H128.059C129.24 133 130.318 133.685 130.75 134.784C136.761 150.106 137.069 177.846 94 179C38 180.5 6.50001 172.5 1.00001 159Z" fill="black"/>
<mask id="path-2-outside-1_22057_76" maskUnits="userSpaceOnUse" x="19" y="14.1719" width="161" height="155" fill="black">
<rect fill="white" x="19" y="14.1719" width="161" height="155"/>
<path fill-rule="evenodd" clip-rule="evenodd" d="M142.743 47.7946V36.7258V35.146H142.625C141.043 24.5326 123.649 16.1719 102.426 16.1719C81.2015 16.1719 63.8079 24.5326 62.2256 35.146H62.1082V36.7258V47.7946C62.1082 51.8648 64.4289 55.6587 68.4325 58.8511V58.8619V69.9307C68.4325 70.37 68.4595 70.8061 68.5128 71.2386C65.9404 73.6659 64.298 76.387 63.8291 79.2778C49.8409 82.1114 39.7003 88.8214 38.5098 96.8066H38.3925V98.3864V109.455C38.3925 112.1 39.3721 114.628 41.1566 116.95C29.9488 120.255 22.1521 126.233 21.1173 133.173H21V134.753V145.822C21 157.174 39.0507 166.376 61.3173 166.376C83.2379 166.376 101.073 157.457 101.622 146.35C103.856 145.708 105.958 144.962 107.903 144.123C115.252 148.087 125.664 150.561 137.209 150.561C159.476 150.561 177.527 141.359 177.527 130.007V118.939V117.359H177.409C175.955 107.604 161.144 99.7522 142.279 98.5456C143.606 96.5078 144.325 94.3284 144.325 92.0634V80.9946V79.6107C147.351 76.7261 149.067 73.4306 149.067 69.9307V58.8619V57.2822H148.95C148.432 53.811 146.224 50.5809 142.743 47.8054L142.743 47.7946Z"/>
</mask>
<path fill-rule="evenodd" clip-rule="evenodd" d="M142.743 47.7946V36.7258V35.146H142.625C141.043 24.5326 123.649 16.1719 102.426 16.1719C81.2015 16.1719 63.8079 24.5326 62.2256 35.146H62.1082V36.7258V47.7946C62.1082 51.8648 64.4289 55.6587 68.4325 58.8511V58.8619V69.9307C68.4325 70.37 68.4595 70.8061 68.5128 71.2386C65.9404 73.6659 64.298 76.387 63.8291 79.2778C49.8409 82.1114 39.7003 88.8214 38.5098 96.8066H38.3925V98.3864V109.455C38.3925 112.1 39.3721 114.628 41.1566 116.95C29.9488 120.255 22.1521 126.233 21.1173 133.173H21V134.753V145.822C21 157.174 39.0507 166.376 61.3173 166.376C83.2379 166.376 101.073 157.457 101.622 146.35C103.856 145.708 105.958 144.962 107.903 144.123C115.252 148.087 125.664 150.561 137.209 150.561C159.476 150.561 177.527 141.359 177.527 130.007V118.939V117.359H177.409C175.955 107.604 161.144 99.7522 142.279 98.5456C143.606 96.5078 144.325 94.3284 144.325 92.0634V80.9946V79.6107C147.351 76.7261 149.067 73.4306 149.067 69.9307V58.8619V57.2822H148.95C148.432 53.811 146.224 50.5809 142.743 47.8054L142.743 47.7946Z" fill="white"/>
<path d="M142.743 47.7946L144.743 47.796V47.7946H142.743ZM142.743 35.146H144.743C144.743 34.0415 143.847 33.146 142.743 33.146V35.146ZM142.625 35.146L140.647 35.4409C140.793 36.4208 141.635 37.146 142.625 37.146V35.146ZM62.2256 35.146V37.146C63.2162 37.146 64.0576 36.4208 64.2037 35.4409L62.2256 35.146ZM62.1082 35.146V33.146C61.0037 33.146 60.1082 34.0415 60.1082 35.146H62.1082ZM68.4325 58.8511H70.4325C70.4325 58.2425 70.1553 57.6669 69.6794 57.2874L68.4325 58.8511ZM68.5128 71.2386L69.8854 72.6932C70.3482 72.2565 70.5756 71.6256 70.4978 70.9941L68.5128 71.2386ZM63.8291 79.2778L64.2262 81.238C65.0419 81.0727 65.67 80.4196 65.8033 79.598L63.8291 79.2778ZM38.5098 96.8066V98.8066C39.5004 98.8066 40.3418 98.0814 40.4879 97.1015L38.5098 96.8066ZM38.3925 96.8066V94.8066C37.2879 94.8066 36.3925 95.702 36.3925 96.8066H38.3925ZM41.1566 116.95L41.7224 118.868C42.3548 118.681 42.8547 118.195 43.0585 117.568C43.2624 116.941 43.1442 116.254 42.7424 115.731L41.1566 116.95ZM21.1173 133.173V135.173C22.108 135.173 22.9494 134.448 23.0954 133.468L21.1173 133.173ZM21 133.173V131.173C19.8954 131.173 19 132.069 19 133.173H21ZM101.622 146.35L101.07 144.427C100.247 144.663 99.6662 145.396 99.624 146.251L101.622 146.35ZM107.903 144.123L108.852 142.362C108.314 142.072 107.672 142.044 107.11 142.286L107.903 144.123ZM177.527 117.359H179.527C179.527 116.254 178.631 115.359 177.527 115.359V117.359ZM177.409 117.359L175.431 117.654C175.577 118.634 176.419 119.359 177.409 119.359V117.359ZM142.279 98.5456L140.603 97.454C140.215 98.0497 140.173 98.8066 140.491 99.4421C140.81 100.078 141.442 100.496 142.151 100.542L142.279 98.5456ZM144.325 79.6107L142.945 78.163C142.549 78.5404 142.325 79.0636 142.325 79.6107H144.325ZM149.067 57.2822H151.067C151.067 56.1776 150.172 55.2822 149.067 55.2822V57.2822ZM148.95 57.2822L146.972 57.5771C147.118 58.5569 147.959 59.2822 148.95 59.2822V57.2822ZM142.743 47.8054L140.743 47.8039C140.742 48.4131 141.02 48.9893 141.496 49.3691L142.743 47.8054ZM142.743 36.7258H140.743V47.7946H142.743H144.743V36.7258H142.743ZM142.743 35.146H140.743V36.7258H142.743H144.743V35.146H142.743ZM142.625 35.146V37.146H142.743V35.146V33.146H142.625V35.146ZM102.426 16.1719V18.1719C112.797 18.1719 122.149 20.2181 129.034 23.4857C136.018 26.8006 140.004 31.127 140.647 35.4409L142.625 35.146L144.604 34.8511C143.664 28.5516 138.163 23.3909 130.749 19.8721C123.235 16.306 113.278 14.1719 102.426 14.1719V16.1719ZM62.2256 35.146L64.2037 35.4409C64.8469 31.127 68.8332 26.8006 75.8175 23.4857C82.7022 20.2181 92.054 18.1719 102.426 18.1719V16.1719V14.1719C91.5731 14.1719 81.6161 16.306 74.1024 19.8721C66.6883 23.3909 61.1866 28.5516 60.2474 34.8511L62.2256 35.146ZM62.1082 35.146V37.146H62.2256V35.146V33.146H62.1082V35.146ZM62.1082 36.7258H64.1082V35.146H62.1082H60.1082V36.7258H62.1082ZM62.1082 47.7946H64.1082V36.7258H62.1082H60.1082V47.7946H62.1082ZM68.4325 58.8511L69.6794 57.2874C65.9558 54.3183 64.1082 51.0433 64.1082 47.7946H62.1082H60.1082C60.1082 52.6863 62.902 56.9991 67.1856 60.4149L68.4325 58.8511ZM68.4325 58.8619H70.4325V58.8511H68.4325H66.4325V58.8619H68.4325ZM68.4325 69.9307H70.4325V58.8619H68.4325H66.4325V69.9307H68.4325ZM68.5128 71.2386L70.4978 70.9941C70.4545 70.6422 70.4325 70.2878 70.4325 69.9307H68.4325H66.4325C66.4325 70.4523 66.4646 70.97 66.5278 71.483L68.5128 71.2386ZM63.8291 79.2778L65.8033 79.598C66.1833 77.2552 67.5371 74.909 69.8854 72.6932L68.5128 71.2386L67.1402 69.7839C64.3437 72.4227 62.4127 75.5187 61.8549 78.9576L63.8291 79.2778ZM38.5098 96.8066L40.4879 97.1015C40.9699 93.8687 43.3161 90.6207 47.4989 87.7614C51.6565 84.9195 57.421 82.6165 64.2262 81.238L63.8291 79.2778L63.432 77.3176C56.249 78.7727 49.9491 81.2414 45.2417 84.4592C40.5596 87.6597 37.2402 91.7592 36.5316 96.5117L38.5098 96.8066ZM38.3925 96.8066V98.8066H38.5098V96.8066V94.8066H38.3925V96.8066ZM38.3925 98.3864H40.3925V96.8066H38.3925H36.3925V98.3864H38.3925ZM38.3925 109.455H40.3925V98.3864H38.3925H36.3925V109.455H38.3925ZM41.1566 116.95L42.7424 115.731C41.173 113.689 40.3925 111.579 40.3925 109.455H38.3925H36.3925C36.3925 112.621 37.5713 115.566 39.5707 118.168L41.1566 116.95ZM21.1173 133.173L23.0954 133.468C23.5141 130.66 25.3349 127.842 28.5691 125.262C31.795 122.689 36.294 120.469 41.7224 118.868L41.1566 116.95L40.5908 115.031C34.8114 116.736 29.8082 119.157 26.075 122.135C22.3503 125.106 19.7553 128.746 19.1392 132.879L21.1173 133.173ZM21 133.173V135.173H21.1173V133.173V131.173H21V133.173ZM21 134.753H23V133.173H21H19V134.753H21ZM21 145.822H23V134.753H21H19V145.822H21ZM61.3173 166.376V164.376C50.4326 164.376 40.6774 162.122 33.717 158.574C26.6478 154.97 23 150.353 23 145.822H21H19C19 152.643 24.3775 158.303 31.9003 162.138C39.5319 166.028 49.9354 168.376 61.3173 168.376V166.376ZM101.622 146.35L99.624 146.251C99.4037 150.708 95.6382 155.23 88.5924 158.738C81.6536 162.192 72.0316 164.376 61.3173 164.376V166.376V168.376C72.5236 168.376 82.7793 166.1 90.3751 162.319C97.8641 158.59 103.29 153.099 103.619 146.448L101.622 146.35ZM107.903 144.123L107.11 142.286C105.25 143.089 103.229 143.808 101.07 144.427L101.622 146.35L102.173 148.272C104.483 147.609 106.666 146.834 108.695 145.959L107.903 144.123ZM137.209 150.561V148.561C125.919 148.561 115.849 146.137 108.852 142.362L107.903 144.123L106.953 145.883C114.656 150.038 125.41 152.561 137.209 152.561V150.561ZM177.527 130.007H175.527C175.527 134.538 171.879 139.155 164.81 142.759C157.849 146.308 148.094 148.561 137.209 148.561V150.561V152.561C148.591 152.561 158.995 150.214 166.626 146.323C174.149 142.488 179.527 136.828 179.527 130.007H177.527ZM177.527 118.939H175.527V130.007H177.527H179.527V118.939H177.527ZM177.527 117.359H175.527V118.939H177.527H179.527V117.359H177.527ZM177.409 117.359V119.359H177.527V117.359V115.359H177.409V117.359ZM142.279 98.5456L142.151 100.542C151.363 101.131 159.492 103.34 165.431 106.511C171.442 109.72 174.841 113.695 175.431 117.654L177.409 117.359L179.388 117.064C178.523 111.268 173.79 106.439 167.315 102.982C160.77 99.4874 152.06 97.1671 142.407 96.5497L142.279 98.5456ZM144.325 92.0634H142.325C142.325 93.8863 141.751 95.6921 140.603 97.454L142.279 98.5456L143.955 99.6372C145.462 97.3235 146.325 94.7705 146.325 92.0634H144.325ZM144.325 80.9946H142.325V92.0634H144.325H146.325V80.9946H144.325ZM144.325 79.6107H142.325V80.9946H144.325H146.325V79.6107H144.325ZM149.067 69.9307H147.067C147.067 72.7289 145.703 75.534 142.945 78.163L144.325 79.6107L145.705 81.0584C148.999 77.9183 151.067 74.1322 151.067 69.9307H149.067ZM149.067 58.8619H147.067V69.9307H149.067H151.067V58.8619H149.067ZM149.067 57.2822H147.067V58.8619H149.067H151.067V57.2822H149.067ZM148.95 57.2822V59.2822H149.067V57.2822V55.2822H148.95V57.2822ZM142.743 47.8054L141.496 49.3691C144.731 51.9491 146.553 54.7682 146.972 57.5771L148.95 57.2822L150.928 56.9872C150.312 52.8538 147.716 49.2127 143.99 46.2416L142.743 47.8054ZM142.743 47.7946L140.743 47.7932L140.743 47.8039L142.743 47.8054L144.743 47.8068L144.743 47.796L142.743 47.7946Z" fill="#4B371F" mask="url(#path-2-outside-1_22057_76)"/>
<path d="M118.527 97.3027V109.451C118.527 114.841 114.23 119.849 106.991 123.54C99.7787 127.217 89.7804 129.505 78.7095 129.505C67.6386 129.505 57.6403 127.217 50.4282 123.54C43.1889 119.849 38.8921 114.841 38.8921 109.451V97.3027H118.527Z" fill="#CF7200" stroke="#4B371F"/>
<path d="M78.7095 78.3301C89.7806 78.3301 99.7787 80.6192 106.991 84.2959C114.23 87.9865 118.527 92.9944 118.527 98.3838C118.527 103.773 114.23 108.782 106.991 112.473C99.7787 116.149 89.7805 118.437 78.7095 118.438C67.6385 118.438 57.6403 116.149 50.4282 112.473C43.1889 108.782 38.8921 103.773 38.8921 98.3838C38.8922 92.9944 43.189 87.9865 50.4282 84.2959C57.6403 80.6192 67.6384 78.3301 78.7095 78.3301Z" fill="#FFF549" stroke="#4B371F"/>
<path d="M78.71 83.0723C86.7281 83.0723 93.9625 84.6542 99.1738 87.1895C104.419 89.7412 107.46 93.171 107.46 96.8018C107.46 100.433 104.419 103.862 99.1738 106.414C93.9625 108.949 86.7281 110.531 78.71 110.531C70.6919 110.531 63.4574 108.949 58.2461 106.414C53.0008 103.862 49.96 100.433 49.96 96.8018C49.96 93.171 53.0009 89.7412 58.2461 87.1895C63.4574 84.6543 70.692 83.0723 78.71 83.0723Z" fill="#FFCF23" stroke="#AF7026"/>
<path d="M94.1228 93.0946C95.1835 93.5882 95.913 94.2543 96.2132 95.0038C96.5132 95.7533 96.3698 96.5506 95.8022 97.2887C95.2346 98.0267 94.2699 98.6706 93.0372 99.1339C91.9253 99.5517 90.6429 99.804 89.3322 99.8667C88.4609 100.896 87.1778 101.826 85.5767 102.583C83.868 103.392 81.8478 103.981 79.6878 104.302C77.5276 104.623 75.2905 104.665 73.1683 104.425C71.0461 104.186 69.1006 103.671 67.4973 102.925C65.894 102.179 64.6793 101.224 63.958 100.14C63.2367 99.0574 63.0302 97.878 63.3543 96.7031C63.6784 95.5283 64.5241 94.3923 65.8201 93.3918C67.0344 92.4544 68.6096 91.6609 70.4274 91.0715C70.3935 90.6005 70.5247 90.1234 70.8152 89.6643C71.1526 89.1312 71.6967 88.635 72.4111 88.2102C73.1257 87.7853 73.9937 87.4412 74.9548 87.2023C75.9157 86.9635 76.9478 86.8354 77.9793 86.8262C79.0109 86.8171 80.018 86.9274 80.9315 87.1496C81.8451 87.3718 82.6428 87.701 83.2711 88.1139C83.8995 88.5269 84.3435 89.0141 84.5717 89.5423C84.7685 89.9977 84.8008 90.4743 84.669 90.9475C85.8366 91.3312 86.8727 91.8132 87.7415 92.3769C88.7996 92.2185 89.8959 92.1877 90.948 92.2882C92.1381 92.4019 93.2315 92.6794 94.1228 93.0946Z" fill="#FFF549" stroke="#AF7026"/>
<path d="M48.7414 97.1365C50.982 94.2839 58.519 88.2114 70.7426 86.7424" stroke="white" stroke-width="3" stroke-linecap="round" stroke-linejoin="round"/>
<path d="M177.027 117.857V130.006C177.027 135.395 172.731 140.404 165.491 144.095C158.279 147.771 148.281 150.06 137.21 150.06C126.139 150.06 116.141 147.771 108.929 144.095C101.689 140.404 97.3926 135.395 97.3926 130.006V117.857H177.027Z" fill="#CF7200" stroke="#4B371F"/>
<path d="M137.21 98.8828C148.281 98.8828 158.279 101.172 165.491 104.849C172.73 108.539 177.027 113.547 177.027 118.937C177.027 124.326 172.731 129.335 165.491 133.025C158.279 136.702 148.281 138.99 137.21 138.99C126.139 138.99 116.141 136.702 108.929 133.025C101.689 129.335 97.3926 124.326 97.3926 118.937C97.3927 113.547 101.689 108.539 108.929 104.849C116.141 101.172 126.139 98.8828 137.21 98.8828Z" fill="#FFF549" stroke="#4B371F"/>
<path d="M137.209 103.627C145.227 103.627 152.462 105.209 157.673 107.744C162.918 110.296 165.959 113.726 165.959 117.356C165.959 120.987 162.918 124.417 157.673 126.969C152.462 129.504 145.227 131.086 137.209 131.086C129.191 131.086 121.956 129.504 116.745 126.969C111.5 124.417 108.459 120.987 108.459 117.356C108.459 113.726 111.5 110.296 116.745 107.744C121.956 105.209 129.191 103.627 137.209 103.627Z" fill="#FFCF23" stroke="#AF7026"/>
<path d="M152.622 113.649C153.683 114.143 154.412 114.809 154.712 115.558C155.012 116.308 154.869 117.105 154.301 117.843C153.734 118.581 152.769 119.225 151.536 119.689C150.424 120.106 149.142 120.359 147.831 120.421C146.96 121.451 145.677 122.38 144.076 123.138C142.367 123.946 140.347 124.536 138.187 124.857C136.027 125.177 133.79 125.22 131.667 124.98C129.545 124.74 127.6 124.225 125.996 123.479C124.393 122.733 123.178 121.778 122.457 120.695C121.736 119.612 121.529 118.433 121.853 117.258C122.177 116.083 123.023 114.947 124.319 113.947C125.533 113.009 127.109 112.216 128.926 111.626C128.892 111.155 129.024 110.678 129.314 110.219C129.652 109.686 130.196 109.19 130.91 108.765C131.625 108.34 132.493 107.996 133.454 107.757C134.415 107.518 135.447 107.39 136.478 107.381C137.51 107.372 138.517 107.482 139.431 107.704C140.344 107.927 141.142 108.256 141.77 108.669C142.399 109.082 142.842 109.569 143.071 110.097C143.267 110.552 143.3 111.029 143.168 111.502C144.336 111.886 145.372 112.368 146.24 112.932C147.299 112.773 148.395 112.742 149.447 112.843C150.637 112.957 151.73 113.234 152.622 113.649Z" fill="#FFF549" stroke="#AF7026"/>
<path d="M104.797 115.246C107.038 112.393 114.575 106.321 126.798 104.852" stroke="white" stroke-linecap="round" stroke-linejoin="round"/>
<path d="M143.825 79.9141V92.0625C143.825 97.452 139.528 102.461 132.289 106.151C125.077 109.828 115.079 112.116 104.008 112.116C92.9369 112.116 82.9386 109.828 75.7266 106.151C68.4873 102.461 64.1904 97.452 64.1904 92.0625V79.9141H143.825Z" fill="#CF7200" stroke="#4B371F"/>
<path d="M104.008 60.9395C115.079 60.9395 125.077 63.2285 132.289 66.9053C139.528 70.5959 143.825 75.6037 143.825 80.9932C143.825 86.3827 139.528 91.3914 132.289 95.082C125.077 98.7587 115.079 101.047 104.008 101.047C92.9369 101.047 82.9386 98.7587 75.7266 95.082C68.4873 91.3914 64.1904 86.3827 64.1904 80.9932C64.1905 75.6037 68.4873 70.5959 75.7266 66.9053C82.9386 63.2286 92.9368 60.9395 104.008 60.9395Z" fill="#FFF549" stroke="#4B371F"/>
<path d="M104.008 65.6836C112.026 65.6836 119.261 67.2656 124.472 69.8008C129.717 72.3525 132.758 75.7824 132.758 79.4131C132.758 83.0438 129.717 86.4736 124.472 89.0254C119.261 91.5606 112.026 93.1426 104.008 93.1426C95.9902 93.1426 88.7557 91.5606 83.5444 89.0254C78.2992 86.4736 75.2583 83.0439 75.2583 79.4131C75.2584 75.7824 78.2992 72.3525 83.5444 69.8008C88.7557 67.2656 95.9903 65.6836 104.008 65.6836Z" fill="#FFCF23" stroke="#AF7026"/>
<path d="M119.421 75.7001C120.482 76.1936 121.211 76.8598 121.511 77.6093C121.812 78.3588 121.668 79.1561 121.101 79.8942C120.533 80.6322 119.568 81.276 118.336 81.7393C117.224 82.1572 115.941 82.4094 114.631 82.4721C113.759 83.5019 112.476 84.4311 110.875 85.1887C109.166 85.9972 107.146 86.5867 104.986 86.9075C102.826 87.2282 100.589 87.2706 98.4666 87.0309C96.3445 86.7911 94.399 86.2761 92.7956 85.5301C91.1923 84.7842 89.9777 83.8291 89.2563 82.746C88.5351 81.6628 88.3285 80.4835 88.6526 79.3086C88.9768 78.1337 89.8224 76.9978 91.1184 75.9973C92.3327 75.0599 93.9079 74.2663 95.7257 73.677C95.6918 73.206 95.823 72.7289 96.1136 72.2698C96.451 71.7367 96.995 71.2405 97.7095 70.8156C98.4241 70.3908 99.2921 70.0466 100.253 69.8078C101.214 69.5689 102.246 69.4408 103.278 69.4317C104.309 69.4226 105.316 69.5328 106.23 69.7551C107.143 69.9773 107.941 70.3064 108.569 70.7194C109.198 71.1324 109.642 71.6196 109.87 72.1477C110.067 72.6032 110.099 73.0798 109.967 73.553C111.135 73.9367 112.171 74.4187 113.04 74.9824C114.098 74.824 115.194 74.7931 116.246 74.8936C117.436 75.0074 118.53 75.2849 119.421 75.7001Z" fill="#FFF549" stroke="#AF7026"/>
<path d="M71.5964 77.3025C73.837 74.4499 81.374 68.3774 93.5976 66.9084" stroke="white" stroke-linecap="round" stroke-linejoin="round"/>
<path d="M101.135 133.672V145.82C101.135 151.21 96.8379 156.219 89.5986 159.909C82.3866 163.586 72.3883 165.874 61.3174 165.874C50.2465 165.874 40.2482 163.586 33.0361 159.909C25.7968 156.219 21.5 151.21 21.5 145.82V133.672H101.135Z" fill="#CF7200" stroke="#4B371F"/>
<path d="M61.3174 114.699C72.3885 114.699 82.3866 116.988 89.5986 120.665C96.8378 124.356 101.135 129.364 101.135 134.753C101.135 140.142 96.8379 145.151 89.5986 148.842C82.3866 152.518 72.3884 154.807 61.3174 154.807C50.2464 154.807 40.2482 152.518 33.0361 148.842C25.7968 145.151 21.5 140.142 21.5 134.753C21.5001 129.364 25.7969 124.356 33.0361 120.665C40.2482 116.988 50.2463 114.699 61.3174 114.699Z" fill="#FFF549" stroke="#4B371F"/>
<path d="M61.3193 119.441C69.3374 119.441 76.5719 121.023 81.7832 123.559C87.0284 126.11 90.0693 129.54 90.0693 133.171C90.0693 136.802 87.0284 140.231 81.7832 142.783C76.5719 145.318 69.3374 146.9 61.3193 146.9C53.3013 146.9 46.0668 145.318 40.8555 142.783C35.6102 140.231 32.5693 136.802 32.5693 133.171C32.5694 129.54 35.6103 126.11 40.8555 123.559C46.0668 121.023 53.3013 119.441 61.3193 119.441Z" fill="#FFCF23" stroke="#AF7026"/>
<path d="M76.7337 129.46C77.7944 129.953 78.5238 130.62 78.824 131.369C79.1241 132.119 78.9806 132.916 78.413 133.654C77.8454 134.392 76.8808 135.036 75.6481 135.499C74.5361 135.917 73.2537 136.169 71.9431 136.232C71.0718 137.262 69.7886 138.191 68.1875 138.948C66.4789 139.757 64.4586 140.346 62.2987 140.667C60.1384 140.988 57.9013 141.03 55.7791 140.791C53.657 140.551 51.7115 140.036 50.1081 139.29C48.5048 138.544 47.2902 137.589 46.5688 136.506C45.8476 135.423 45.641 134.243 45.9651 133.068C46.2893 131.893 47.1349 130.758 48.4309 129.757C49.6452 128.82 51.2204 128.026 53.0382 127.437C53.0043 126.966 53.1355 126.489 53.4261 126.03C53.7635 125.496 54.3075 125 55.022 124.575C55.7366 124.151 56.6046 123.806 57.5656 123.568C58.5266 123.329 59.5586 123.201 60.5902 123.191C61.6218 123.182 62.6289 123.293 63.5424 123.515C64.4559 123.737 65.2536 124.066 65.882 124.479C66.5103 124.892 66.9543 125.379 67.1825 125.907C67.3793 126.363 67.4116 126.84 67.2799 127.313C68.4475 127.696 69.4835 128.178 70.3523 128.742C71.4105 128.584 72.5067 128.553 73.5588 128.653C74.7489 128.767 75.8423 129.045 76.7337 129.46Z" fill="#FFF549" stroke="#AF7026"/>
<path d="M31.3523 133.508C33.5928 130.655 41.1298 124.582 53.3535 123.114" stroke="white" stroke-width="3" stroke-linecap="round" stroke-linejoin="round"/>
<path d="M121.688 116.277V128.426C121.688 133.815 117.391 138.824 110.152 142.515C102.94 146.191 92.9416 148.479 81.8706 148.479C70.7997 148.479 60.8014 146.191 53.5894 142.515C46.3501 138.824 42.0532 133.815 42.0532 128.426V116.277H121.688Z" fill="#CF7200" stroke="#4B371F"/>
<path d="M81.8706 97.3027C92.9417 97.3027 102.94 99.5918 110.152 103.269C117.391 106.959 121.688 111.967 121.688 117.356C121.688 122.746 117.391 127.755 110.152 131.445C102.94 135.122 92.9416 137.41 81.8706 137.41C70.7997 137.41 60.8014 135.122 53.5894 131.445C46.3501 127.755 42.0532 122.746 42.0532 117.356C42.0533 111.967 46.3501 106.959 53.5894 103.269C60.8014 99.5919 70.7996 97.3027 81.8706 97.3027Z" fill="#FFF549" stroke="#4B371F"/>
<path d="M81.8726 102.047C89.8907 102.047 97.1251 103.629 102.336 106.164C107.582 108.716 110.622 112.146 110.623 115.776C110.623 119.407 107.582 122.837 102.336 125.389C97.1251 127.924 89.8907 129.506 81.8726 129.506C73.8545 129.506 66.62 127.924 61.4087 125.389C56.1634 122.837 53.1226 119.407 53.1226 115.776C53.1226 112.146 56.1635 108.716 61.4087 106.164C66.62 103.629 73.8546 102.047 81.8726 102.047Z" fill="#FFCF23" stroke="#AF7026"/>
<path d="M97.2859 112.069C98.3466 112.563 99.0761 113.229 99.3762 113.978C99.6763 114.728 99.5328 115.525 98.9652 116.263C98.3977 117.001 97.433 117.645 96.2003 118.108C95.0884 118.526 93.806 118.779 92.4953 118.841C91.624 119.871 90.3409 120.8 88.7398 121.558C87.0311 122.366 85.0109 122.956 82.8509 123.277C80.6907 123.597 78.4536 123.64 76.3313 123.4C74.2092 123.16 72.2637 122.645 70.6603 121.899C69.057 121.153 67.8424 120.198 67.1211 119.115C66.3998 118.032 66.1933 116.853 66.5174 115.678C66.8415 114.503 67.6872 113.367 68.9831 112.366C70.1975 111.429 71.7727 110.635 73.5905 110.046C73.5566 109.575 73.6878 109.098 73.9783 108.639C74.3157 108.106 74.8598 107.61 75.5742 107.185C76.2888 106.76 77.1568 106.416 78.1179 106.177C79.0788 105.938 80.1109 105.81 81.1424 105.801C82.174 105.792 83.1811 105.902 84.0946 106.124C85.0081 106.346 85.8059 106.676 86.4342 107.089C87.0626 107.502 87.5066 107.989 87.7348 108.517C87.9316 108.972 87.9639 109.449 87.8321 109.922C88.9997 110.306 90.0358 110.788 90.9046 111.351C91.9627 111.193 93.059 111.162 94.1111 111.263C95.3012 111.376 96.3945 111.654 97.2859 112.069Z" fill="#FFF549" stroke="#AF7026"/>
<path d="M51.9055 116.111C54.1461 113.258 61.6831 107.186 73.9067 105.717" stroke="white" stroke-width="3" stroke-linecap="round" stroke-linejoin="round"/>
<path d="M148.567 57.7812V69.9297C148.567 75.3192 144.271 80.3279 137.031 84.0186C129.819 87.6952 119.821 89.9834 108.75 89.9834C97.6791 89.9834 87.6808 87.6952 80.4688 84.0186C73.2294 80.3279 68.9326 75.3192 68.9326 69.9297V57.7812H148.567Z" fill="#CF7200" stroke="#4B371F"/>
<path d="M108.75 38.8066C119.821 38.8067 129.819 41.0957 137.031 44.7725C144.27 48.463 148.567 53.4709 148.567 58.8604C148.567 64.2498 144.271 69.2586 137.031 72.9492C129.819 76.6259 119.821 78.914 108.75 78.9141C97.6791 78.9141 87.6808 76.6258 80.4688 72.9492C73.2294 69.2586 68.9326 64.2498 68.9326 58.8604C68.9327 53.4709 73.2295 48.463 80.4688 44.7725C87.6808 41.0958 97.6789 38.8066 108.75 38.8066Z" fill="#FFF549" stroke="#4B371F"/>
<path d="M108.75 43.5508C116.769 43.5508 124.003 45.1328 129.214 47.668C134.46 50.2197 137.5 53.6496 137.5 57.2803C137.5 60.911 134.46 64.3408 129.214 66.8926C124.003 69.4278 116.769 71.0097 108.75 71.0098C100.732 71.0098 93.4979 69.4278 88.2866 66.8926C83.0413 64.3408 80.0005 60.911 80.0005 57.2803C80.0006 53.6496 83.0414 50.2197 88.2866 47.668C93.4979 45.1328 100.732 43.5508 108.75 43.5508Z" fill="#FFCF23" stroke="#AF7026"/>
<path d="M124.165 53.5731C125.226 54.0667 125.955 54.7328 126.255 55.4823C126.555 56.2318 126.412 57.0291 125.844 57.7672C125.277 58.5052 124.312 59.1491 123.079 59.6124C121.967 60.0302 120.685 60.2825 119.374 60.3452C118.503 61.375 117.22 62.3041 115.619 63.0618C113.91 63.8702 111.89 64.4597 109.73 64.7805C107.57 65.1013 105.333 65.1437 103.21 64.9039C101.088 64.6641 99.1426 64.1491 97.5393 63.4032C95.936 62.6572 94.7213 61.7021 94 60.619C93.2787 59.5359 93.0722 58.3565 93.3963 57.1816C93.7204 56.0068 94.5661 54.8709 95.8621 53.8704C97.0764 52.9329 98.6516 52.1394 100.469 51.5501C100.435 51.0791 100.567 50.6019 100.857 50.1428C101.195 49.6097 101.739 49.1135 102.453 48.6887C103.168 48.2638 104.036 47.9197 104.997 47.6808C105.958 47.442 106.99 47.3139 108.021 47.3047C109.053 47.2956 110.06 47.4059 110.974 47.6281C111.887 47.8503 112.685 48.1795 113.313 48.5924C113.941 49.0054 114.385 49.4926 114.614 50.0208C114.81 50.4763 114.843 50.9528 114.711 51.426C115.879 51.8098 116.915 52.2918 117.783 52.8554C118.842 52.697 119.938 52.6662 120.99 52.7667C122.18 52.8804 123.273 53.1579 124.165 53.5731Z" fill="#FFF549" stroke="#AF7026"/>
<path d="M76.3371 55.1697C78.5777 52.3171 86.1147 46.2446 98.3383 44.7756" stroke="white" stroke-linecap="round" stroke-linejoin="round"/>
<path d="M142.242 35.6426V47.791C142.242 53.1805 137.945 58.1893 130.706 61.8799C123.494 65.5565 113.495 67.8447 102.424 67.8447C91.3534 67.8447 81.3551 65.5565 74.1431 61.8799C66.9038 58.1893 62.6069 53.1805 62.6069 47.791V35.6426H142.242Z" fill="#CF7200" stroke="#4B371F"/>
<path d="M102.424 16.668C113.495 16.668 123.493 18.9571 130.706 22.6338C137.945 26.3244 142.242 31.3323 142.242 36.7217C142.242 42.1112 137.945 47.1199 130.706 50.8105C123.494 54.4872 113.495 56.7754 102.424 56.7754C91.3534 56.7754 81.3551 54.4872 74.1431 50.8105C66.9038 47.1199 62.6069 42.1112 62.6069 36.7217C62.607 31.3323 66.9039 26.3244 74.1431 22.6338C81.3551 18.9571 91.3533 16.668 102.424 16.668Z" fill="#FFF549" stroke="#4B371F"/>
<path d="M102.423 21.4121C110.441 21.4121 117.676 22.9941 122.887 25.5293C128.132 28.081 131.173 31.5109 131.173 35.1416C131.173 38.7723 128.132 42.2022 122.887 44.7539C117.676 47.2891 110.441 48.8711 102.423 48.8711C94.4053 48.8711 87.1708 47.2891 81.9595 44.7539C76.7142 42.2022 73.6733 38.7724 73.6733 35.1416C73.6734 31.5109 76.7143 28.081 81.9595 25.5293C87.1708 22.9942 94.4053 21.4121 102.423 21.4121Z" fill="#FFCF23" stroke="#AF7026"/>
<path d="M117.839 31.4344C118.9 31.928 119.629 32.5942 119.929 33.3436C120.23 34.0931 120.086 34.8905 119.518 35.6285C118.951 36.3666 117.986 37.0104 116.754 37.4737C115.642 37.8916 114.359 38.1438 113.049 38.2065C112.177 39.2363 110.894 40.1654 109.293 40.9231C107.584 41.7316 105.564 42.3211 103.404 42.6418C101.244 42.9626 99.0068 43.005 96.8846 42.7652C94.7625 42.5255 92.8169 42.0104 91.2136 41.2645C89.6103 40.5186 88.3956 39.5635 87.6743 38.4803C86.953 37.3972 86.7465 36.2179 87.0706 35.043C87.3947 33.8681 88.2404 32.7322 89.5364 31.7317C90.7507 30.7943 92.3259 30.0007 94.1437 29.4114C94.1098 28.9404 94.241 28.4632 94.5315 28.0042C94.869 27.4711 95.413 26.9749 96.1274 26.55C96.8421 26.1251 97.7101 25.781 98.6711 25.5421C99.632 25.3033 100.664 25.1752 101.696 25.1661C102.727 25.1569 103.734 25.2672 104.648 25.4894C105.561 25.7117 106.359 26.0408 106.987 26.4538C107.616 26.8668 108.06 27.3539 108.288 27.8821C108.485 28.3376 108.517 28.8141 108.385 29.2873C109.553 29.6711 110.589 30.1531 111.458 30.7167C112.516 30.5584 113.612 30.5275 114.664 30.628C115.854 30.7417 116.948 31.0193 117.839 31.4344Z" fill="#FFF549" stroke="#AF7026"/>
<path d="M71.3577 33.6892C73.5982 30.8366 81.1352 24.7641 93.3588 23.2951" stroke="white" stroke-width="4" stroke-linecap="round" stroke-linejoin="round"/>
<path d="M168.783 0.5C169.01 0.500144 169.209 0.652862 169.267 0.87207L172.631 13.584L185.343 16.9492C185.562 17.0073 185.715 17.2058 185.715 17.4326C185.715 17.6593 185.562 17.858 185.343 17.916L172.631 21.2803L169.267 33.9922C169.209 34.2114 169.01 34.3641 168.783 34.3643C168.556 34.3643 168.358 34.2115 168.3 33.9922L164.935 21.2803L152.223 17.916C152.003 17.858 151.851 17.6593 151.851 17.4326C151.851 17.2058 152.003 17.0073 152.223 16.9492L164.935 13.584L168.3 0.87207L168.328 0.792969C168.408 0.616969 168.585 0.5 168.783 0.5Z" fill="#FFF5A9" stroke="#4B371F" stroke-linejoin="round"/>
</svg>
