<svg width="242" height="200" viewBox="0 0 242 200" fill="none" xmlns="http://www.w3.org/2000/svg">
<path opacity="0.3" d="M151.473 191.597C106.632 199.774 74.3226 195.089 63.3485 191.612C63.108 191.536 62.8613 191.491 62.6096 191.474C17.1404 188.378 19.2917 165.281 26.6467 152.86C27.1587 151.996 28.1041 151.5 29.1088 151.5H209.013C209.336 151.5 209.648 151.549 209.954 151.653C225.032 156.774 251.172 170.348 238.5 185C225.792 199.694 176.22 195.561 152.511 191.586C152.165 191.528 151.819 191.534 151.473 191.597Z" fill="black"/>
<mask id="path-2-outside-1_38663_343" maskUnits="userSpaceOnUse" x="0" y="0.00195312" width="231" height="191" fill="black">
<rect fill="white" y="0.00195312" width="231" height="191"/>
<path fill-rule="evenodd" clip-rule="evenodd" d="M153.142 23.6122V35.247L153.142 35.2614C156.802 38.1803 159.124 41.5774 159.668 45.228H159.791V46.8861V58.5266C159.791 60.4222 159.312 62.2608 158.413 64.0127C159.176 65.8266 159.817 67.7258 160.319 69.6995C161.141 69.6753 161.97 69.663 162.804 69.663C185.12 69.663 203.409 78.4548 205.07 89.6151H205.193V91.2732V102.914C205.193 104.805 204.717 106.64 203.821 108.388C206.387 110.904 208.01 113.71 208.452 116.683H208.575V118.342V129.982C208.575 130.102 208.573 130.222 208.57 130.341C219.878 133.867 227.694 140.018 228.752 147.133H228.875V148.791V160.431C228.875 172.366 209.897 182.041 186.486 182.041C166.215 182.041 149.268 174.788 145.086 165.094C143.084 165.749 140.967 166.322 138.753 166.801C133.482 172.178 126.235 177.275 117.673 181.248C96.4363 191.101 75.1486 190.312 70.1254 179.486L65.5768 169.682C59.3435 171.52 52.1073 172.571 44.3893 172.571C20.9783 172.571 2 162.896 2 150.961V139.326V137.663H2.12376C3.11209 131.045 9.94697 125.261 20.0009 121.649V116.182V114.518H20.1246C21.2819 106.769 30.4559 100.163 43.4278 96.8493V88.4406V86.7768H43.5515C44.5873 79.8413 52.0447 73.8211 62.8992 70.2579V67.5968V65.9331H63.023C63.8036 60.7061 68.2316 55.9991 75.0122 52.4718V46.8861V46.8717C70.8029 43.5152 68.363 39.5264 68.363 35.247V23.6122V21.9484H68.4868C70.1531 10.7908 88.4394 2.00195 110.752 2.00195C133.065 2.00195 151.351 10.7908 153.018 21.9484H153.142V23.6122Z"/>
</mask>
<path fill-rule="evenodd" clip-rule="evenodd" d="M153.142 23.6122V35.247L153.142 35.2614C156.802 38.1803 159.124 41.5774 159.668 45.228H159.791V46.8861V58.5266C159.791 60.4222 159.312 62.2608 158.413 64.0127C159.176 65.8266 159.817 67.7258 160.319 69.6995C161.141 69.6753 161.97 69.663 162.804 69.663C185.12 69.663 203.409 78.4548 205.07 89.6151H205.193V91.2732V102.914C205.193 104.805 204.717 106.64 203.821 108.388C206.387 110.904 208.01 113.71 208.452 116.683H208.575V118.342V129.982C208.575 130.102 208.573 130.222 208.57 130.341C219.878 133.867 227.694 140.018 228.752 147.133H228.875V148.791V160.431C228.875 172.366 209.897 182.041 186.486 182.041C166.215 182.041 149.268 174.788 145.086 165.094C143.084 165.749 140.967 166.322 138.753 166.801C133.482 172.178 126.235 177.275 117.673 181.248C96.4363 191.101 75.1486 190.312 70.1254 179.486L65.5768 169.682C59.3435 171.52 52.1073 172.571 44.3893 172.571C20.9783 172.571 2 162.896 2 150.961V139.326V137.663H2.12376C3.11209 131.045 9.94697 125.261 20.0009 121.649V116.182V114.518H20.1246C21.2819 106.769 30.4559 100.163 43.4278 96.8493V88.4406V86.7768H43.5515C44.5873 79.8413 52.0447 73.8211 62.8992 70.2579V67.5968V65.9331H63.023C63.8036 60.7061 68.2316 55.9991 75.0122 52.4718V46.8861V46.8717C70.8029 43.5152 68.363 39.5264 68.363 35.247V23.6122V21.9484H68.4868C70.1531 10.7908 88.4394 2.00195 110.752 2.00195C133.065 2.00195 151.351 10.7908 153.018 21.9484H153.142V23.6122Z" fill="white"/>
<path d="M153.142 35.247L155.142 35.2491V35.247H153.142ZM153.142 35.2614L151.142 35.2592C151.141 35.8687 151.418 36.4451 151.895 36.8251L153.142 35.2614ZM159.668 45.228L157.69 45.5224C157.835 46.5025 158.677 47.228 159.668 47.228V45.228ZM159.791 45.228H161.791C161.791 44.1234 160.895 43.228 159.791 43.228V45.228ZM158.413 64.0127L156.633 63.0994C156.364 63.6253 156.34 64.2438 156.569 64.7886L158.413 64.0127ZM160.319 69.6995L158.381 70.1927C158.612 71.1004 159.442 71.7262 160.378 71.6986L160.319 69.6995ZM205.07 89.6151L203.092 89.9095C203.238 90.8896 204.079 91.6151 205.07 91.6151V89.6151ZM205.193 89.6151H207.193C207.193 88.5105 206.298 87.6151 205.193 87.6151V89.6151ZM203.821 108.388L202.041 107.476C201.642 108.255 201.796 109.203 202.421 109.816L203.821 108.388ZM208.452 116.683L206.474 116.978C206.62 117.958 207.462 118.683 208.452 118.683V116.683ZM208.575 116.683H210.575C210.575 115.579 209.68 114.683 208.575 114.683V116.683ZM208.57 130.341L206.571 130.277C206.542 131.176 207.116 131.983 207.974 132.25L208.57 130.341ZM228.752 147.133L226.774 147.427C226.92 148.407 227.762 149.133 228.752 149.133V147.133ZM228.875 147.133H230.875C230.875 146.028 229.98 145.133 228.875 145.133V147.133ZM145.086 165.094L146.923 164.302C146.513 163.352 145.447 162.871 144.464 163.193L145.086 165.094ZM138.753 166.801L138.33 164.846C137.948 164.928 137.599 165.121 137.325 165.401L138.753 166.801ZM117.673 181.248L116.831 179.434L117.673 181.248ZM70.1254 179.486L68.3112 180.328L70.1254 179.486ZM65.5768 169.682L67.3911 168.841C66.974 167.942 65.9618 167.484 65.0113 167.764L65.5768 169.682ZM2 137.663V135.663C0.89543 135.663 0 136.558 0 137.663H2ZM2.12376 137.663V139.663C3.11424 139.663 3.95552 138.938 4.10182 137.958L2.12376 137.663ZM20.0009 121.649L20.677 123.531C21.4712 123.246 22.0009 122.493 22.0009 121.649H20.0009ZM20.0009 114.518V112.518C18.8963 112.518 18.0009 113.414 18.0009 114.518H20.0009ZM20.1246 114.518V116.518C21.1151 116.518 21.9564 115.793 22.1027 114.814L20.1246 114.518ZM43.4278 96.8493L43.9227 98.7871C44.8082 98.561 45.4278 97.7633 45.4278 96.8493H43.4278ZM43.4278 86.7768V84.7768C42.3232 84.7768 41.4278 85.6722 41.4278 86.7768H43.4278ZM43.5515 86.7768V88.7768C44.542 88.7768 45.3833 88.0518 45.5296 87.0722L43.5515 86.7768ZM62.8992 70.2579L63.523 72.1582C64.3441 71.8886 64.8992 71.1222 64.8992 70.2579H62.8992ZM62.8992 65.9331V63.9331C61.7946 63.9331 60.8992 64.8285 60.8992 65.9331H62.8992ZM63.023 65.9331V67.9331C64.0134 67.9331 64.8547 67.2081 65.001 66.2285L63.023 65.9331ZM75.0122 52.4718L75.9352 54.2461C76.597 53.9019 77.0122 53.2179 77.0122 52.4718H75.0122ZM75.0122 46.8717H77.0122C77.0122 46.263 76.735 45.6875 76.2591 45.308L75.0122 46.8717ZM68.363 21.9484V19.9484C67.2585 19.9484 66.363 20.8438 66.363 21.9484H68.363ZM68.4868 21.9484V23.9484C69.4773 23.9484 70.3186 23.2234 70.4649 22.2438L68.4868 21.9484ZM153.018 21.9484L151.04 22.2438C151.186 23.2234 152.027 23.9484 153.018 23.9484V21.9484ZM153.142 21.9484H155.142C155.142 20.8438 154.246 19.9484 153.142 19.9484V21.9484ZM153.142 35.247H155.142V23.6122H153.142H151.142V35.247H153.142ZM153.142 35.2614L155.142 35.2635L155.142 35.2491L153.142 35.247L151.142 35.2449L151.142 35.2592L153.142 35.2614ZM159.668 45.228L161.646 44.9335C161.004 40.6204 158.294 36.8122 154.388 33.6977L153.142 35.2614L151.895 36.8251C155.31 39.5484 157.245 42.5344 157.69 45.5224L159.668 45.228ZM159.791 45.228V43.228H159.668V45.228V47.228H159.791V45.228ZM159.791 46.8861H161.791V45.228H159.791H157.791V46.8861H159.791ZM159.791 58.5266H161.791V46.8861H159.791H157.791V58.5266H159.791ZM158.413 64.0127L160.192 64.926C161.222 62.9193 161.791 60.7697 161.791 58.5266H159.791H157.791C157.791 60.0747 157.402 61.6022 156.633 63.0994L158.413 64.0127ZM160.319 69.6995L162.257 69.2063C161.73 67.136 161.058 65.1423 160.256 63.2367L158.413 64.0127L156.569 64.7886C157.294 66.5109 157.903 68.3156 158.381 70.1927L160.319 69.6995ZM162.804 69.663V67.663C161.95 67.663 161.102 67.6756 160.26 67.7004L160.319 69.6995L160.378 71.6986C161.18 71.675 161.989 71.663 162.804 71.663V69.663ZM205.07 89.6151L207.048 89.3206C206.07 82.7475 200.325 77.3422 192.541 73.6471C184.657 69.9049 174.203 67.663 162.804 67.663V69.663V71.663C173.722 71.663 183.57 73.817 190.825 77.2607C198.18 80.7517 202.409 85.3224 203.092 89.9095L205.07 89.6151ZM205.193 89.6151V87.6151H205.07V89.6151V91.6151H205.193V89.6151ZM205.193 91.2732H207.193V89.6151H205.193H203.193V91.2732H205.193ZM205.193 102.914H207.193V91.2732H205.193H203.193V102.914H205.193ZM203.821 108.388L205.601 109.3C206.627 107.297 207.193 105.152 207.193 102.914H205.193H203.193C203.193 104.458 202.806 105.983 202.041 107.476L203.821 108.388ZM208.452 116.683L210.431 116.389C209.908 112.876 208.009 109.694 205.222 106.96L203.821 108.388L202.421 109.816C204.764 112.114 206.112 114.543 206.474 116.978L208.452 116.683ZM208.575 116.683V114.683H208.452V116.683V118.683H208.575V116.683ZM208.575 118.342H210.575V116.683H208.575H206.575V118.342H208.575ZM208.575 129.982H210.575V118.342H208.575H206.575V129.982H208.575ZM208.57 130.341L210.569 130.405C210.573 130.264 210.575 130.123 210.575 129.982H208.575H206.575C206.575 130.081 206.574 130.179 206.571 130.277L208.57 130.341ZM228.752 147.133L230.731 146.838C230.105 142.635 227.515 138.911 223.772 135.844C220.023 132.772 214.993 130.249 209.165 128.432L208.57 130.341L207.974 132.25C213.455 133.959 217.987 136.275 221.237 138.938C224.493 141.607 226.341 144.516 226.774 147.427L228.752 147.133ZM228.875 147.133V145.133H228.752V147.133V149.133H228.875V147.133ZM228.875 148.791H230.875V147.133H228.875H226.875V148.791H228.875ZM228.875 160.431H230.875V148.791H228.875H226.875V160.431H228.875ZM186.486 182.041V184.041C198.44 184.041 209.362 181.575 217.368 177.494C225.266 173.467 230.875 167.544 230.875 160.431H228.875H226.875C226.875 165.253 222.996 170.135 215.551 173.93C208.216 177.67 197.943 180.041 186.486 180.041V182.041ZM145.086 165.094L143.25 165.886C145.639 171.425 151.484 175.938 158.986 179.05C166.557 182.19 176.127 184.041 186.486 184.041V182.041V180.041C176.574 180.041 167.535 178.266 160.519 175.355C153.434 172.417 148.715 168.456 146.923 164.302L145.086 165.094ZM138.753 166.801L139.176 168.755C141.454 168.263 143.638 167.673 145.709 166.994L145.086 165.094L144.464 163.193C142.531 163.826 140.48 164.381 138.33 164.846L138.753 166.801ZM117.673 181.248L118.514 183.062C127.268 179 134.722 173.771 140.182 168.2L138.753 166.801L137.325 165.401C132.243 170.585 125.203 175.549 116.831 179.434L117.673 181.248ZM70.1254 179.486L68.3112 180.328C71.3048 186.78 78.8863 189.792 87.745 190.12C96.7258 190.453 107.671 188.093 118.514 183.062L117.673 181.248L116.831 179.434C106.438 184.256 96.1211 186.428 87.8932 186.123C79.5431 185.814 73.9692 183.018 71.9396 178.644L70.1254 179.486ZM65.5768 169.682L63.7626 170.524L68.3112 180.328L70.1254 179.486L71.9396 178.644L67.3911 168.841L65.5768 169.682ZM44.3893 172.571V174.571C52.2834 174.571 59.7113 173.497 66.1423 171.601L65.5768 169.682L65.0113 167.764C58.9758 169.543 51.9311 170.571 44.3893 170.571V172.571ZM2 150.961H0C0 158.074 5.60945 163.997 13.5071 168.024C21.5137 172.105 32.4352 174.571 44.3893 174.571V172.571V170.571C32.9324 170.571 22.6592 168.2 15.3239 164.46C7.8797 160.665 4 155.783 4 150.961H2ZM2 139.326H0V150.961H2H4V139.326H2ZM2 137.663H0V139.326H2H4V137.663H2ZM2.12376 137.663V135.663H2V137.663V139.663H2.12376V137.663ZM20.0009 121.649L19.3247 119.767C14.1292 121.633 9.66658 124.094 6.33971 127.029C3.01462 129.962 0.729544 133.458 0.145699 137.367L2.12376 137.663L4.10182 137.958C4.50631 135.25 6.13284 132.545 8.98574 130.028C11.8369 127.513 15.8186 125.276 20.677 123.531L20.0009 121.649ZM20.0009 116.182H18.0009V121.649H20.0009H22.0009V116.182H20.0009ZM20.0009 114.518H18.0009V116.182H20.0009H22.0009V114.518H20.0009ZM20.1246 114.518V112.518H20.0009V114.518V116.518H20.1246V114.518ZM43.4278 96.8493L42.9328 94.9115C36.2663 96.6143 30.471 99.1874 26.1483 102.418C21.8402 105.639 18.8301 109.646 18.1466 114.223L20.1246 114.518L22.1027 114.814C22.5764 111.642 24.732 108.471 28.5431 105.622C32.3398 102.784 37.6174 100.398 43.9227 98.7871L43.4278 96.8493ZM43.4278 88.4406H41.4278V96.8493H43.4278H45.4278V88.4406H43.4278ZM43.4278 86.7768H41.4278V88.4406H43.4278H45.4278V86.7768H43.4278ZM43.5515 86.7768V84.7768H43.4278V86.7768V88.7768H43.5515V86.7768ZM62.8992 70.2579L62.2754 68.3577C56.6765 70.1956 51.8524 72.6981 48.2562 75.722C44.6646 78.742 42.1854 82.3843 41.5735 86.4814L43.5515 86.7768L45.5296 87.0722C45.9535 84.2338 47.7209 81.3983 50.8305 78.7835C53.9356 76.1726 58.2674 73.8834 63.523 72.1582L62.8992 70.2579ZM62.8992 67.5968H60.8992V70.2579H62.8992H64.8992V67.5968H62.8992ZM62.8992 65.9331H60.8992V67.5968H62.8992H64.8992V65.9331H62.8992ZM63.023 65.9331V63.9331H62.8992V65.9331V67.9331H63.023V65.9331ZM75.0122 52.4718L74.0893 50.6975C67.0799 54.3437 61.9652 59.4756 61.0449 65.6376L63.023 65.9331L65.001 66.2285C65.642 61.9366 69.3832 57.6544 75.9352 54.2461L75.0122 52.4718ZM75.0122 46.8861H73.0122V52.4718H75.0122H77.0122V46.8861H75.0122ZM75.0122 46.8717H73.0122V46.8861H75.0122H77.0122V46.8717H75.0122ZM68.363 35.247H66.363C66.363 40.3479 69.276 44.8557 73.7653 48.4354L75.0122 46.8717L76.2591 45.308C72.3299 42.1748 70.363 38.7049 70.363 35.247H68.363ZM68.363 23.6122H66.363V35.247H68.363H70.363V23.6122H68.363ZM68.363 21.9484H66.363V23.6122H68.363H70.363V21.9484H68.363ZM68.4868 21.9484V19.9484H68.363V21.9484V23.9484H68.4868V21.9484ZM110.752 2.00195V0.00195312C99.3554 0.00195312 88.9031 2.24309 81.0196 5.98423C73.2358 9.67812 67.4901 15.0817 66.5087 21.653L68.4868 21.9484L70.4649 22.2438C71.1498 17.6575 75.3805 13.0879 82.7346 9.59795C89.9891 6.15526 99.8363 4.00195 110.752 4.00195V2.00195ZM153.018 21.9484L154.996 21.653C154.014 15.0817 148.269 9.67812 140.485 5.98423C132.602 2.24309 122.149 0.00195312 110.752 0.00195312V2.00195V4.00195C121.668 4.00195 131.515 6.15526 138.77 9.59795C146.124 13.0879 150.355 17.6575 151.04 22.2438L153.018 21.9484ZM153.142 21.9484V19.9484H153.018V21.9484V23.9484H153.142V21.9484ZM153.142 23.6122H155.142V21.9484H153.142H151.142V23.6122H153.142Z" fill="#4B371F" mask="url(#path-2-outside-1_38663_343)"/>
<path d="M86.2778 138.162V150.961C86.2777 156.642 81.7494 161.914 74.1353 165.796C66.5483 169.664 56.0323 172.071 44.3892 172.071C32.7458 172.071 22.2291 169.664 14.6421 165.796C7.02797 161.914 2.49964 156.642 2.49951 150.961V138.162H86.2778Z" fill="#CF7200" stroke="#4B371F"/>
<path d="M44.3892 118.215C56.0323 118.215 66.5483 120.622 74.1353 124.49C81.7495 128.372 86.2778 133.644 86.2778 139.325C86.2778 145.006 81.7494 150.278 74.1353 154.16C66.5483 158.028 56.0323 160.435 44.3892 160.436C32.7458 160.436 22.2291 158.028 14.6421 154.16C7.02796 150.278 2.49959 145.006 2.49951 139.325C2.49951 133.644 7.02796 128.372 14.6421 124.49C22.2291 120.622 32.7458 118.215 44.3892 118.215Z" fill="#FFF549" stroke="#4B371F"/>
<path d="M44.3896 123.205C52.8229 123.205 60.4336 124.87 65.917 127.537C71.434 130.221 74.6426 133.833 74.6426 137.666C74.6426 141.499 71.434 145.111 65.917 147.795C60.4336 150.462 52.8229 152.127 44.3896 152.127C35.9565 152.127 28.3466 150.462 22.8633 147.795C17.346 145.111 14.1367 141.499 14.1367 137.666C14.1367 133.833 17.346 130.221 22.8633 127.537C28.3466 124.87 35.9565 123.205 44.3896 123.205Z" fill="#FFCF23" stroke="#AF7026"/>
<path d="M60.572 133.777C61.6826 134.294 62.4479 134.991 62.7621 135.776C63.0763 136.561 62.9259 137.395 62.3318 138.168C61.7375 138.941 60.7265 139.614 59.4359 140.099C58.2661 140.539 56.9167 140.803 55.5376 140.867C54.6234 141.952 53.2744 142.93 51.5894 143.727C49.7968 144.576 47.6767 145.194 45.4106 145.531C43.1446 145.867 40.7988 145.911 38.5727 145.66C36.3464 145.408 34.3053 144.868 32.6232 144.086C30.9413 143.303 29.6676 142.301 28.9109 141.165C28.1543 140.029 27.9358 138.792 28.2757 137.559C28.6157 136.327 29.5044 135.135 30.8641 134.085C32.1418 133.099 33.8004 132.265 35.7146 131.646C35.6762 131.149 35.8127 130.646 36.1191 130.162C36.4723 129.604 37.0428 129.084 37.7908 128.639C38.5389 128.194 39.4475 127.834 40.4536 127.584C41.4597 127.334 42.5407 127.2 43.6206 127.19C44.7004 127.181 45.7547 127.296 46.7109 127.529C47.6673 127.762 48.503 128.106 49.1609 128.538C49.8187 128.971 50.2831 129.481 50.522 130.034C50.7294 130.514 50.7623 131.017 50.6208 131.516C51.8577 131.921 52.9542 132.431 53.8721 133.029C54.9861 132.86 56.1411 132.827 57.2492 132.933C58.4951 133.052 59.6389 133.343 60.572 133.777Z" fill="#FFF549" stroke="#AF7026"/>
<path d="M104.279 115.018V127.816C104.279 133.497 99.7504 138.77 92.1362 142.651C84.5493 146.519 74.0333 148.927 62.3901 148.927C50.7468 148.927 40.2301 146.519 32.6431 142.651C25.029 138.77 20.5006 133.497 20.5005 127.816V115.018H104.279Z" fill="#CF7200" stroke="#4B371F"/>
<path d="M62.3901 95.0703C74.0333 95.0704 84.5493 97.4778 92.1362 101.346C99.7504 105.227 104.279 110.5 104.279 116.181C104.279 121.862 99.7504 127.134 92.1362 131.016C84.5493 134.883 74.0333 137.291 62.3901 137.291C50.7468 137.291 40.2301 134.884 32.6431 131.016C25.0289 127.134 20.5006 121.862 20.5005 116.181C20.5005 110.5 25.0289 105.227 32.6431 101.346C40.2301 97.4778 50.7468 95.0703 62.3901 95.0703Z" fill="#FFF549" stroke="#4B371F"/>
<path d="M62.3892 100.057C70.8224 100.057 78.4332 101.721 83.9165 104.389C89.4335 107.073 92.6421 110.685 92.6421 114.518C92.6421 118.35 89.4335 121.962 83.9165 124.646C78.4332 127.314 70.8224 128.979 62.3892 128.979C53.956 128.979 46.3461 127.314 40.8628 124.646C35.3455 121.962 32.1362 118.35 32.1362 114.518C32.1362 110.685 35.3455 107.073 40.8628 104.389C46.3461 101.721 53.956 100.057 62.3892 100.057Z" fill="#FFCF23" stroke="#AF7026"/>
<path d="M78.574 110.633C79.6845 111.15 80.4499 111.847 80.7641 112.631C81.0782 113.416 80.9279 114.251 80.3337 115.023C79.7395 115.796 78.7285 116.47 77.4378 116.955C76.2681 117.395 74.9187 117.659 73.5396 117.723C72.6254 118.807 71.2763 119.785 69.5913 120.583C67.7987 121.431 65.6787 122.05 63.4126 122.386C61.1466 122.723 58.8008 122.767 56.5746 122.515C54.3484 122.264 52.3072 121.724 50.6252 120.941C48.9432 120.159 47.6695 119.157 46.9128 118.02C46.1562 116.884 45.9378 115.647 46.2777 114.415C46.6177 113.182 47.5064 111.99 48.866 110.941C50.1438 109.954 51.8023 109.12 53.7166 108.501C53.6782 108.005 53.8146 107.501 54.121 107.017C54.4743 106.459 55.0447 105.939 55.7927 105.495C56.5409 105.05 57.4495 104.69 58.4556 104.44C59.4617 104.19 60.5426 104.055 61.6226 104.046C62.7024 104.036 63.7567 104.152 64.7129 104.384C65.6693 104.617 66.505 104.961 67.1628 105.394C67.8206 105.826 68.285 106.337 68.5239 106.89C68.7314 107.37 68.7643 107.872 68.6228 108.371C69.8596 108.777 70.9562 109.287 71.8741 109.884C72.9881 109.716 74.1431 109.682 75.2512 109.788C76.497 109.907 77.6408 110.198 78.574 110.633Z" fill="#FFF549" stroke="#AF7026"/>
<path d="M127.706 87.2754V100.074C127.705 105.755 123.177 111.027 115.563 114.909C107.976 118.777 97.46 121.185 85.8169 121.185C74.1736 121.185 63.6569 118.777 56.0698 114.909C48.4557 111.027 43.9274 105.755 43.9272 100.074V87.2754H127.706Z" fill="#CF7200" stroke="#4B371F"/>
<path d="M85.8169 67.3281C97.4601 67.3282 107.976 69.7357 115.563 73.6035C123.177 77.4853 127.706 82.7573 127.706 88.4385C127.705 94.1196 123.177 99.3917 115.563 103.273C107.976 107.141 97.46 109.549 85.8169 109.549C74.1736 109.549 63.6569 107.141 56.0698 103.273C48.4557 99.3917 43.9273 94.1196 43.9272 88.4385C43.9272 82.7574 48.4557 77.4853 56.0698 73.6035C63.6569 69.7356 74.1736 67.3281 85.8169 67.3281Z" fill="#FFF549" stroke="#4B371F"/>
<path d="M85.8174 72.3203C94.2507 72.3203 101.861 73.9848 107.345 76.6523C112.862 79.3364 116.07 82.9487 116.07 86.7812C116.07 90.6138 112.862 94.2261 107.345 96.9102C101.861 99.5777 94.2507 101.242 85.8174 101.242C77.3842 101.242 69.7743 99.5777 64.291 96.9102C58.7737 94.2261 55.5645 90.6139 55.5645 86.7812C55.5645 82.9485 58.7737 79.3364 64.291 76.6523C69.7743 73.9848 77.3842 72.3203 85.8174 72.3203Z" fill="#FFCF23" stroke="#AF7026"/>
<path d="M102.001 82.8907C103.111 83.4075 103.877 84.1045 104.191 84.8892C104.505 85.6738 104.355 86.5085 103.76 87.2812C103.166 88.0539 102.155 88.7277 100.865 89.2128C99.6948 89.6523 98.3454 89.9166 96.9663 89.9806C96.0521 91.0651 94.7031 92.0433 93.0181 92.8406C91.2255 93.6889 89.1055 94.3077 86.8393 94.6442C84.5733 94.9806 82.2275 95.0246 80.0014 94.7731C77.7751 94.5215 75.734 93.9816 74.0519 93.199C72.37 92.4165 71.0963 91.4143 70.3396 90.2781C69.583 89.1419 69.3645 87.905 69.7045 86.6725C70.0445 85.4399 70.9331 84.2482 72.2928 83.1986C73.5705 82.2122 75.2291 81.3781 77.1433 80.7593C77.1049 80.2626 77.2414 79.7591 77.5478 79.275C77.9011 78.7168 78.4715 78.1973 79.2195 77.7525C79.9676 77.3077 80.8762 76.9475 81.8824 76.6974C82.8884 76.4474 83.9694 76.3132 85.0493 76.3036C86.1291 76.2941 87.1834 76.4095 88.1396 76.6421C89.096 76.8748 89.9317 77.2192 90.5896 77.6516C91.2474 78.0839 91.7118 78.5944 91.9507 79.1474C92.1581 79.6276 92.191 80.1303 92.0495 80.6292C93.2864 81.0344 94.3829 81.5445 95.3008 82.1418C96.4148 81.9734 97.5698 81.94 98.6779 82.0458C99.9238 82.1649 101.068 82.4561 102.001 82.8907Z" fill="#FFF549" stroke="#AF7026"/>
<path d="M54.3121 87.132C56.6678 84.1328 64.5921 77.7482 77.4439 76.2038" stroke="white" stroke-width="3" stroke-linecap="round" stroke-linejoin="round"/>
<path d="M174.243 96.877V109.676C174.243 115.357 169.714 120.629 162.1 124.511C154.513 128.379 143.997 130.786 132.354 130.786C120.711 130.786 110.194 128.379 102.607 124.511C94.9928 120.629 90.4645 115.357 90.4644 109.676V96.877H174.243Z" fill="#CF7200" stroke="#4B371F"/>
<path d="M132.354 76.9297C143.997 76.9297 154.513 79.3372 162.1 83.2051C169.714 87.0869 174.243 92.3589 174.243 98.04C174.243 103.721 169.714 108.993 162.1 112.875C154.513 116.743 143.997 119.15 132.354 119.15C120.711 119.15 110.194 116.743 102.607 112.875C94.9928 108.993 90.4644 103.721 90.4644 98.04C90.4644 92.3589 94.9928 87.0868 102.607 83.2051C110.194 79.3372 120.711 76.9297 132.354 76.9297Z" fill="#FFF549" stroke="#4B371F"/>
<path d="M132.353 81.916C140.786 81.916 148.397 83.5805 153.88 86.248C159.397 88.9321 162.606 92.5444 162.606 96.377C162.606 100.21 159.397 103.822 153.88 106.506C148.397 109.173 140.786 110.838 132.353 110.838C123.92 110.838 116.31 109.173 110.827 106.506C105.309 103.822 102.1 100.21 102.1 96.377C102.1 92.5442 105.309 88.9321 110.827 86.248C116.31 83.5805 123.92 81.916 132.353 81.916Z" fill="#FFCF23" stroke="#AF7026"/>
<path d="M148.536 92.4923C149.647 93.009 150.412 93.706 150.726 94.4907C151.041 95.2754 150.89 96.1101 150.296 96.8827C149.702 97.6554 148.691 98.3293 147.4 98.8143C146.23 99.2539 144.881 99.5182 143.502 99.5822C142.588 100.667 141.239 101.645 139.554 102.442C137.761 103.29 135.641 103.909 133.375 104.246C131.109 104.582 128.763 104.626 126.537 104.375C124.311 104.123 122.27 103.583 120.588 102.801C118.906 102.018 117.632 101.016 116.875 99.8796C116.119 98.7434 115.9 97.5065 116.24 96.2741C116.58 95.0415 117.469 93.8498 118.828 92.8001C120.106 91.8138 121.765 90.9796 123.679 90.3608C123.641 89.8642 123.777 89.3607 124.083 88.8765C124.437 88.3184 125.007 87.7988 125.755 87.3541C126.503 86.9092 127.412 86.549 128.418 86.299C129.424 86.0489 130.505 85.9148 131.585 85.9052C132.665 85.8957 133.719 86.0111 134.675 86.2437C135.632 86.4764 136.467 86.8208 137.125 87.2531C137.783 87.6855 138.247 88.196 138.486 88.7489C138.694 89.2292 138.727 89.7319 138.585 90.2307C139.822 90.6359 140.919 91.1461 141.836 91.7434C142.95 91.5749 144.105 91.5415 145.214 91.6474C146.459 91.7664 147.603 92.0577 148.536 92.4923Z" fill="#FFF549" stroke="#AF7026"/>
<path d="M98.2735 94.1594C100.629 91.1602 108.554 84.7756 121.405 83.2311" stroke="white" stroke-linecap="round" stroke-linejoin="round"/>
<path d="M164.094 134.1V146.898C164.094 152.58 159.566 157.852 151.952 161.733C144.365 165.601 133.849 168.009 122.206 168.009C110.562 168.009 100.046 165.601 92.4585 161.733C84.8444 157.852 80.316 152.58 80.3159 146.898V134.1H164.094Z" fill="#CF7200" stroke="#4B371F"/>
<path d="M122.206 114.148C133.849 114.148 144.365 116.556 151.952 120.424C159.566 124.306 164.094 129.578 164.094 135.259C164.094 140.94 159.566 146.212 151.952 150.094C144.365 153.962 133.849 156.369 122.206 156.369C110.562 156.369 100.046 153.962 92.4585 150.094C84.8444 146.212 80.316 140.94 80.3159 135.259C80.3159 129.578 84.8444 124.306 92.4585 120.424C100.046 116.556 110.562 114.148 122.206 114.148Z" fill="#FFF549" stroke="#4B371F"/>
<path d="M122.205 119.133C130.638 119.133 138.249 120.797 143.732 123.465C149.249 126.149 152.458 129.761 152.458 133.594C152.458 137.426 149.249 141.039 143.732 143.723C138.249 146.39 130.638 148.055 122.205 148.055C113.771 148.055 106.162 146.39 100.678 143.723C95.1609 141.039 91.9517 137.426 91.9517 133.594C91.9517 129.761 95.1609 126.149 100.678 123.465C106.162 120.797 113.771 119.133 122.205 119.133Z" fill="#FFCF23" stroke="#AF7026"/>
<path d="M138.388 129.711C139.499 130.228 140.264 130.925 140.579 131.709C140.893 132.494 140.742 133.329 140.148 134.101C139.554 134.874 138.543 135.548 137.252 136.033C136.083 136.473 134.733 136.737 133.354 136.801C132.44 137.885 131.091 138.864 129.406 139.661C127.613 140.509 125.493 141.128 123.227 141.464C120.961 141.801 118.615 141.845 116.389 141.593C114.163 141.342 112.122 140.802 110.44 140.019C108.758 139.237 107.484 138.235 106.727 137.098C105.971 135.962 105.752 134.725 106.092 133.493C106.432 132.26 107.321 131.069 108.681 130.019C109.958 129.033 111.617 128.198 113.531 127.58C113.493 127.083 113.629 126.579 113.935 126.095C114.289 125.537 114.859 125.018 115.607 124.573C116.355 124.128 117.264 123.768 118.27 123.518C119.276 123.268 120.357 123.134 121.437 123.124C122.517 123.114 123.571 123.23 124.527 123.462C125.484 123.695 126.319 124.04 126.977 124.472C127.635 124.904 128.099 125.415 128.338 125.968C128.546 126.448 128.579 126.951 128.437 127.449C129.674 127.855 130.771 128.365 131.689 128.962C132.803 128.794 133.958 128.76 135.066 128.866C136.311 128.985 137.455 129.276 138.388 129.711Z" fill="#FFF549" stroke="#AF7026"/>
<path d="M88.1265 131.378C90.4822 128.379 98.4066 121.994 111.258 120.45" stroke="white" stroke-linecap="round" stroke-linejoin="round"/>
<path d="M228.375 147.631V160.43C228.375 166.111 223.847 171.383 216.233 175.265C208.646 179.132 198.13 181.54 186.487 181.54C174.844 181.54 164.327 179.133 156.74 175.265C149.126 171.383 144.597 166.111 144.597 160.43V147.631H228.375Z" fill="#CF7200" stroke="#4B371F"/>
<path d="M186.487 127.68C198.13 127.68 208.646 130.087 216.233 133.955C223.847 137.837 228.375 143.109 228.375 148.79C228.375 154.471 223.847 159.743 216.233 163.625C208.646 167.493 198.13 169.9 186.487 169.9C174.844 169.9 164.327 167.493 156.74 163.625C149.126 159.743 144.597 154.471 144.597 148.79C144.597 143.109 149.126 137.837 156.74 133.955C164.327 130.087 174.844 127.68 186.487 127.68Z" fill="#FFF549" stroke="#4B371F"/>
<path d="M186.485 132.664C194.919 132.664 202.529 134.329 208.013 136.996C213.53 139.68 216.738 143.292 216.738 147.125C216.738 150.958 213.53 154.57 208.013 157.254C202.529 159.921 194.919 161.586 186.485 161.586C178.052 161.586 170.442 159.921 164.959 157.254C159.442 154.57 156.232 150.958 156.232 147.125C156.232 143.292 159.442 139.68 164.959 136.996C170.442 134.329 178.052 132.664 186.485 132.664Z" fill="#FFCF23" stroke="#AF7026"/>
<path d="M202.668 143.242C203.778 143.759 204.544 144.456 204.858 145.241C205.172 146.025 205.022 146.86 204.427 147.633C203.833 148.405 202.822 149.079 201.532 149.564C200.362 150.004 199.012 150.268 197.633 150.332C196.719 151.417 195.37 152.395 193.685 153.192C191.892 154.04 189.772 154.659 187.506 154.996C185.24 155.332 182.895 155.376 180.668 155.125C178.442 154.873 176.401 154.333 174.719 153.551C173.037 152.768 171.763 151.766 171.007 150.63C170.25 149.493 170.032 148.257 170.371 147.024C170.711 145.791 171.6 144.6 172.96 143.55C174.238 142.564 175.896 141.73 177.81 141.111C177.772 140.614 177.908 140.111 178.215 139.627C178.568 139.068 179.138 138.549 179.886 138.104C180.635 137.659 181.543 137.299 182.549 137.049C183.555 136.799 184.636 136.665 185.716 136.655C186.796 136.646 187.85 136.761 188.807 136.994C189.763 137.226 190.599 137.571 191.257 138.003C191.914 138.435 192.379 138.946 192.618 139.499C192.825 139.979 192.858 140.482 192.717 140.981C193.953 141.386 195.05 141.896 195.968 142.493C197.082 142.325 198.237 142.292 199.345 142.397C200.591 142.516 201.735 142.808 202.668 143.242Z" fill="#FFF549" stroke="#AF7026"/>
<path d="M152.407 144.909C154.763 141.91 162.687 135.526 175.539 133.981" stroke="white" stroke-linecap="round" stroke-linejoin="round"/>
<path d="M147.177 66.4316V79.2305C147.177 84.9116 142.649 90.1837 135.035 94.0654C127.448 97.9333 116.932 100.341 105.289 100.341C93.6453 100.341 83.1285 97.9333 75.5415 94.0654C67.9274 90.1837 63.3991 84.9115 63.3989 79.2305V66.4316H147.177Z" fill="#CF7200" stroke="#4B371F"/>
<path d="M105.289 46.4844C116.932 46.4844 127.448 48.8919 135.035 52.7598C142.649 56.6415 147.177 61.9136 147.177 67.5947C147.177 73.2759 142.649 78.5479 135.035 82.4297C127.448 86.2975 116.932 88.705 105.289 88.7051C93.6453 88.7051 83.1285 86.2976 75.5415 82.4297C67.9274 78.5479 63.399 73.2758 63.3989 67.5947C63.3989 61.9136 67.9274 56.6415 75.5415 52.7598C83.1285 48.8919 93.6453 46.4844 105.289 46.4844Z" fill="#FFF549" stroke="#4B371F"/>
<path d="M105.289 51.4707C113.722 51.4707 121.333 53.1352 126.816 55.8027C132.333 58.4868 135.542 62.099 135.542 65.9316C135.541 69.7642 132.333 73.3765 126.816 76.0605C121.333 78.7281 113.722 80.3926 105.289 80.3926C96.8554 80.3926 89.2455 78.7281 83.7622 76.0605C78.2449 73.3765 75.0357 69.7643 75.0356 65.9316C75.0356 62.0989 78.2449 58.4868 83.7622 55.8027C89.2455 53.1352 96.8554 51.4707 105.289 51.4707Z" fill="#FFCF23" stroke="#AF7026"/>
<path d="M121.472 62.047C122.583 62.5637 123.348 63.2607 123.662 64.0454C123.977 64.8301 123.826 65.6648 123.232 66.4374C122.638 67.2101 121.627 67.884 120.336 68.369C119.167 68.8086 117.817 69.0729 116.438 69.1369C115.524 70.2213 114.175 71.1995 112.49 71.9969C110.697 72.8451 108.577 73.4639 106.311 73.8004C104.045 74.1368 101.699 74.1808 99.4731 73.9293C97.2468 73.6778 95.2056 73.1378 93.5236 72.3553C91.8417 71.5727 90.568 70.5706 89.8113 69.4343C89.0547 68.2981 88.8362 67.0612 89.1761 65.8287C89.5161 64.5962 90.4048 63.4045 91.7645 62.3548C93.0422 61.3685 94.7008 60.5343 96.615 59.9155C96.5766 59.4189 96.7131 58.9154 97.0195 58.4312C97.3727 57.8731 97.9432 57.3535 98.6912 56.9087C99.4393 56.4639 100.348 56.1037 101.354 55.8536C102.36 55.6036 103.441 55.4695 104.521 55.4599C105.601 55.4504 106.655 55.5658 107.611 55.7984C108.568 56.031 109.403 56.3755 110.061 56.8078C110.719 57.2402 111.183 57.7507 111.422 58.3036C111.63 58.7839 111.663 59.2865 111.521 59.7854C112.758 60.1906 113.855 60.7008 114.773 61.298C115.886 61.1296 117.042 61.0962 118.15 61.2021C119.395 61.3211 120.539 61.6124 121.472 62.047Z" fill="#FFF549" stroke="#AF7026"/>
<path d="M71.2125 63.7141C73.5682 60.7148 81.4925 54.3303 94.3443 52.7858" stroke="white" stroke-linecap="round" stroke-linejoin="round"/>
<path d="M159.291 45.7266V58.5254C159.29 64.2065 154.762 69.4786 147.148 73.3604C139.561 77.2282 129.045 79.6357 117.402 79.6357C105.759 79.6357 95.2418 77.2283 87.6548 73.3604C80.0407 69.4786 75.5123 64.2065 75.5122 58.5254V45.7266H159.291Z" fill="#CF7200" stroke="#4B371F"/>
<path d="M117.402 25.7734C129.045 25.7735 139.561 28.181 147.148 32.0488C154.762 35.9306 159.291 41.2026 159.291 46.8838C159.29 52.5649 154.762 57.837 147.148 61.7188C139.561 65.5866 129.045 67.9941 117.402 67.9941C105.759 67.9941 95.2418 65.5867 87.6548 61.7188C80.0407 57.837 75.5123 52.5649 75.5122 46.8838C75.5122 41.2027 80.0407 35.9306 87.6548 32.0488C95.2418 28.1809 105.759 25.7734 117.402 25.7734Z" fill="#FFF549" stroke="#4B371F"/>
<path d="M117.4 30.7598C125.834 30.7598 133.444 32.4242 138.928 35.0918C144.445 37.7759 147.653 41.3881 147.653 45.2207C147.653 49.0533 144.445 52.6655 138.928 55.3496C133.444 58.0172 125.834 59.6816 117.4 59.6816C108.967 59.6816 101.357 58.0171 95.874 55.3496C90.3567 52.6655 87.1475 49.0534 87.1475 45.2207C87.1475 41.388 90.3567 37.7759 95.874 35.0918C101.357 32.4243 108.967 30.7598 117.4 30.7598Z" fill="#FFCF23" stroke="#AF7026"/>
<path d="M133.584 41.3361C134.695 41.8528 135.46 42.5498 135.774 43.3345C136.088 44.1191 135.938 44.9538 135.344 45.7265C134.75 46.4992 133.739 47.173 132.448 47.6581C131.278 48.0977 129.929 48.3619 128.55 48.4259C127.636 49.5104 126.287 50.4886 124.602 51.2859C122.809 52.1342 120.689 52.753 118.423 53.0895C116.157 53.4259 113.811 53.4699 111.585 53.2184C109.359 52.9668 107.317 52.4269 105.635 51.6443C103.953 50.8618 102.68 49.8596 101.923 48.7234C101.166 47.5872 100.948 46.3503 101.288 45.1178C101.628 43.8852 102.517 42.6936 103.876 41.6439C105.154 40.6575 106.813 39.8234 108.727 39.2046C108.688 38.7079 108.825 38.2044 109.131 37.7203C109.485 37.1621 110.055 36.6426 110.803 36.1978C111.551 35.753 112.46 35.3928 113.466 35.1427C114.472 34.8927 115.553 34.7585 116.633 34.7489C117.713 34.7394 118.767 34.8548 119.723 35.0874C120.68 35.3201 121.515 35.6645 122.173 36.0969C122.831 36.5292 123.295 37.0397 123.534 37.5927C123.742 38.0729 123.775 38.5756 123.633 39.0745C124.87 39.4797 125.966 39.9898 126.884 40.5871C127.998 40.4187 129.153 40.3853 130.261 40.4911C131.507 40.6102 132.651 40.9014 133.584 41.3361Z" fill="#FFF549" stroke="#AF7026"/>
<path d="M83.3228 43.0031C85.6785 40.0039 93.6029 33.6193 106.455 32.0749" stroke="white" stroke-linecap="round" stroke-linejoin="round"/>
<path d="M152.641 22.4473V35.2461C152.641 40.9272 148.113 46.1993 140.499 50.0811C132.912 53.9489 122.396 56.3564 110.752 56.3564C99.1091 56.3564 88.5924 53.949 81.0054 50.0811C73.3913 46.1993 68.8629 40.9272 68.8628 35.2461V22.4473H152.641Z" fill="#CF7200" stroke="#4B371F"/>
<path d="M110.752 2.5C122.396 2.50005 132.912 4.90753 140.499 8.77539C148.113 12.6572 152.641 17.9292 152.641 23.6104C152.641 29.2915 148.113 34.5636 140.499 38.4453C132.912 42.3132 122.396 44.7206 110.752 44.7207C99.1091 44.7207 88.5924 42.3132 81.0054 38.4453C73.3912 34.5636 68.8629 29.2915 68.8628 23.6104C68.8628 17.9292 73.3912 12.6572 81.0054 8.77539C88.5924 4.90748 99.1091 2.5 110.752 2.5Z" fill="#FFF549" stroke="#4B371F"/>
<path d="M110.751 7.48633C119.185 7.48633 126.795 9.15078 132.279 11.8184C137.796 14.5024 141.004 18.1147 141.004 21.9473C141.004 25.7799 137.796 29.3921 132.279 32.0762C126.795 34.7437 119.185 36.4082 110.751 36.4082C102.318 36.4082 94.7084 34.7437 89.2251 32.0762C83.7078 29.3921 80.4986 25.78 80.4985 21.9473C80.4985 18.1146 83.7078 14.5024 89.2251 11.8184C94.7084 9.15085 102.318 7.48634 110.751 7.48633Z" fill="#FFCF23" stroke="#AF7026"/>
<path d="M126.935 18.0626C128.045 18.5794 128.811 19.2763 129.125 20.0611C129.439 20.8457 129.289 21.6804 128.695 22.453C128.1 23.2258 127.089 23.8996 125.799 24.3846C124.629 24.8242 123.28 25.0885 121.9 25.1525C120.986 26.237 119.637 27.2152 117.952 28.0125C116.16 28.8607 114.04 29.4796 111.773 29.816C109.507 30.1524 107.162 30.1964 104.935 29.9449C102.709 29.6934 100.668 29.1534 98.986 28.3709C97.3041 27.5884 96.0304 26.5862 95.2737 25.45C94.5171 24.3137 94.2986 23.0769 94.6385 21.8444C94.9785 20.6118 95.8672 19.4201 97.2269 18.3705C98.5046 17.3841 100.163 16.5499 102.077 15.9311C102.039 15.4345 102.175 14.931 102.482 14.4468C102.835 13.8887 103.406 13.3692 104.154 12.9244C104.902 12.4795 105.81 12.1193 106.816 11.8693C107.822 11.6192 108.903 11.4851 109.983 11.4755C111.063 11.466 112.117 11.5814 113.074 11.814C114.03 12.0467 114.866 12.3911 115.524 12.8234C116.181 13.2558 116.646 13.7663 116.885 14.3192C117.092 14.7995 117.125 15.3022 116.984 15.8011C118.22 16.2063 119.317 16.7164 120.235 17.3137C121.349 17.1453 122.504 17.1118 123.612 17.2177C124.858 17.3367 126.002 17.628 126.935 18.0626Z" fill="#FFF549" stroke="#AF7026"/>
<path d="M79.2462 22.3039C81.6019 19.3047 89.5262 12.9201 102.378 11.3756" stroke="white" stroke-width="3" stroke-linecap="round" stroke-linejoin="round"/>
<path d="M126.878 107.025V119.824C126.878 125.505 122.35 130.777 114.736 134.659C107.149 138.527 96.6329 140.935 84.9897 140.935C73.3464 140.935 62.8297 138.527 55.2427 134.659C47.6286 130.777 43.1002 125.505 43.1001 119.824V107.025H126.878Z" fill="#CF7200" stroke="#4B371F"/>
<path d="M84.9897 87.0781C96.6329 87.0782 107.149 89.4857 114.736 93.3535C122.35 97.2353 126.878 102.507 126.878 108.188C126.878 113.87 122.35 119.142 114.736 123.023C107.149 126.891 96.6329 129.299 84.9897 129.299C73.3464 129.299 62.8297 126.891 55.2427 123.023C47.6285 119.142 43.1002 113.87 43.1001 108.188C43.1001 102.507 47.6285 97.2353 55.2427 93.3535C62.8297 89.4856 73.3464 87.0781 84.9897 87.0781Z" fill="#FFF549" stroke="#4B371F"/>
<path d="M84.9883 92.0645C93.4216 92.0645 101.032 93.7289 106.516 96.3965C112.033 99.0806 115.241 102.693 115.241 106.525C115.241 110.358 112.033 113.97 106.516 116.654C101.032 119.322 93.4216 120.986 84.9883 120.986C76.5551 120.986 68.9452 119.322 63.4619 116.654C57.9446 113.97 54.7354 110.358 54.7354 106.525C54.7354 102.693 57.9446 99.0806 63.4619 96.3965C68.9452 93.729 76.5551 92.0645 84.9883 92.0645Z" fill="#FFCF23" stroke="#AF7026"/>
<path d="M101.174 102.641C102.284 103.157 103.049 103.854 103.364 104.639C103.678 105.424 103.527 106.259 102.933 107.031C102.339 107.804 101.328 108.478 100.037 108.963C98.8677 109.402 97.5183 109.667 96.1392 109.731C95.225 110.815 93.8759 111.793 92.1909 112.591C90.3983 113.439 88.2783 114.058 86.0122 114.394C83.7462 114.731 81.4004 114.775 79.1743 114.523C76.948 114.272 74.9068 113.732 73.2248 112.949C71.5428 112.166 70.2692 111.164 69.5124 110.028C68.7558 108.892 68.5374 107.655 68.8773 106.422C69.2173 105.19 70.106 103.998 71.4657 102.949C72.7434 101.962 74.4019 101.128 76.3162 100.509C76.2778 100.013 76.4142 99.5091 76.7206 99.025C77.0739 98.4668 77.6443 97.9473 78.3924 97.5025C79.1405 97.0577 80.0491 96.6975 81.0552 96.4474C82.0613 96.1974 83.1422 96.0632 84.2222 96.0536C85.302 96.0441 86.3563 96.1595 87.3125 96.3921C88.2689 96.6248 89.1046 96.9692 89.7624 97.4016C90.4203 97.8339 90.8846 98.3444 91.1235 98.8974C91.331 99.3776 91.3639 99.8803 91.2224 100.379C92.4593 100.784 93.5558 101.295 94.4737 101.892C95.5877 101.723 96.7427 101.69 97.8508 101.796C99.0966 101.915 100.24 102.206 101.174 102.641Z" fill="#FFF549" stroke="#AF7026"/>
<path d="M53.483 106.882C55.8387 103.883 63.763 97.4982 76.6148 95.9538" stroke="white" stroke-width="3" stroke-linecap="round" stroke-linejoin="round"/>
<path d="M208.075 117.184V129.982C208.075 135.664 203.547 140.936 195.933 144.817C188.346 148.685 177.83 151.093 166.187 151.093C154.543 151.093 144.026 148.685 136.439 144.817C128.825 140.936 124.297 135.663 124.297 129.982V117.184H208.075Z" fill="#CF7200" stroke="#4B371F"/>
<path d="M166.187 97.2305C177.83 97.2305 188.346 99.638 195.933 103.506C203.547 107.388 208.075 112.66 208.075 118.341C208.075 124.022 203.547 129.294 195.933 133.176C188.346 137.044 177.83 139.451 166.187 139.451C154.543 139.451 144.026 137.044 136.439 133.176C128.825 129.294 124.297 124.022 124.297 118.341C124.297 112.66 128.825 107.388 136.439 103.506C144.026 99.638 154.543 97.2305 166.187 97.2305Z" fill="#FFF549" stroke="#4B371F"/>
<path d="M166.185 102.217C174.618 102.217 182.229 103.881 187.712 106.549C193.229 109.233 196.438 112.845 196.438 116.678C196.438 120.51 193.229 124.123 187.712 126.807C182.229 129.474 174.618 131.139 166.185 131.139C157.752 131.139 150.142 129.474 144.659 126.807C139.141 124.123 135.932 120.51 135.932 116.678C135.932 112.845 139.141 109.233 144.659 106.549C150.142 103.881 157.752 102.217 166.185 102.217Z" fill="#FFCF23" stroke="#AF7026"/>
<path d="M182.369 112.793C183.479 113.31 184.245 114.007 184.559 114.792C184.873 115.576 184.723 116.411 184.129 117.184C183.534 117.956 182.523 118.63 181.233 119.115C180.063 119.555 178.714 119.819 177.334 119.883C176.42 120.967 175.071 121.946 173.386 122.743C171.594 123.591 169.474 124.21 167.207 124.547C164.941 124.883 162.596 124.927 160.37 124.675C158.143 124.424 156.102 123.884 154.42 123.101C152.738 122.319 151.464 121.317 150.708 120.18C149.951 119.044 149.733 117.807 150.073 116.575C150.413 115.342 151.301 114.151 152.661 113.101C153.939 112.115 155.597 111.28 157.512 110.662C157.473 110.165 157.61 109.661 157.916 109.177C158.269 108.619 158.84 108.1 159.588 107.655C160.336 107.21 161.244 106.85 162.251 106.6C163.257 106.35 164.338 106.216 165.417 106.206C166.497 106.196 167.552 106.312 168.508 106.544C169.464 106.777 170.3 107.122 170.958 107.554C171.616 107.986 172.08 108.497 172.319 109.05C172.526 109.53 172.559 110.033 172.418 110.532C173.655 110.937 174.751 111.447 175.669 112.044C176.783 111.876 177.938 111.842 179.046 111.948C180.292 112.067 181.436 112.358 182.369 112.793Z" fill="#FFF549" stroke="#AF7026"/>
<path d="M132.107 114.46C134.463 111.461 142.388 105.076 155.239 103.532" stroke="white" stroke-linecap="round" stroke-linejoin="round"/>
<path d="M204.693 90.1152V102.914C204.693 108.595 200.165 113.867 192.551 117.749C184.964 121.617 174.448 124.024 162.805 124.024C151.161 124.024 140.645 121.617 133.058 117.749C125.444 113.867 120.915 108.595 120.915 102.914V90.1152H204.693Z" fill="#CF7200" stroke="#4B371F"/>
<path d="M162.805 70.1641C174.448 70.1641 184.964 72.5716 192.551 76.4395C200.165 80.3212 204.693 85.5933 204.693 91.2744C204.693 96.9555 200.165 102.228 192.551 106.109C184.964 109.977 174.448 112.385 162.805 112.385C151.161 112.385 140.645 109.977 133.058 106.109C125.443 102.228 120.915 96.9555 120.915 91.2744C120.915 85.5933 125.443 80.3212 133.058 76.4395C140.645 72.5715 151.161 70.1641 162.805 70.1641Z" fill="#FFF549" stroke="#4B371F"/>
<path d="M162.803 75.1484C171.237 75.1484 178.847 76.8129 184.331 79.4805C189.848 82.1645 193.056 85.7768 193.056 89.6094C193.056 93.442 189.848 97.0542 184.331 99.7383C178.847 102.406 171.237 104.07 162.803 104.07C154.37 104.07 146.76 102.406 141.277 99.7383C135.76 97.0542 132.55 93.4421 132.55 89.6094C132.55 85.7767 135.76 82.1646 141.277 79.4805C146.76 76.813 154.37 75.1484 162.803 75.1484Z" fill="#FFCF23" stroke="#AF7026"/>
<path d="M178.987 85.7267C180.098 86.2434 180.863 86.9404 181.177 87.7251C181.491 88.5098 181.341 89.3444 180.747 90.1171C180.153 90.8898 179.142 91.5636 177.851 92.0487C176.681 92.4883 175.332 92.7526 173.953 92.8166C173.038 93.901 171.689 94.8792 170.004 95.6766C168.212 96.5248 166.092 97.1436 163.826 97.4801C161.56 97.8165 159.214 97.8605 156.988 97.609C154.761 97.3575 152.72 96.8175 151.038 96.035C149.356 95.2524 148.083 94.2503 147.326 93.114C146.569 91.9778 146.351 90.7409 146.691 89.5084C147.031 88.2759 147.919 87.0842 149.279 86.0345C150.557 85.0482 152.215 84.214 154.13 83.5952C154.091 83.0986 154.228 82.5951 154.534 82.1109C154.887 81.5527 155.458 81.0332 156.206 80.5884C156.954 80.1436 157.863 79.7834 158.869 79.5333C159.875 79.2833 160.956 79.1492 162.036 79.1396C163.115 79.13 164.17 79.2455 165.126 79.4781C166.082 79.7107 166.918 80.0551 167.576 80.4875C168.234 80.9198 168.698 81.4304 168.937 81.9833C169.144 82.4636 169.177 82.9662 169.036 83.4651C170.273 83.8703 171.369 84.3805 172.287 84.9777C173.401 84.8093 174.556 84.7759 175.664 84.8818C176.91 85.0008 178.054 85.292 178.987 85.7267Z" fill="#FFF549" stroke="#AF7026"/>
<path d="M128.726 87.3938C131.081 84.3945 139.006 78.01 151.858 76.4655" stroke="white" stroke-linecap="round" stroke-linejoin="round"/>
<path d="M141.189 132.406L146.576 144.016C148.967 149.17 147.078 155.858 141.805 162.584C136.55 169.286 128.024 175.895 117.463 180.796C106.901 185.696 96.3479 187.939 87.8376 187.623C79.297 187.307 72.9703 184.43 70.5791 179.277L65.1923 167.667L141.189 132.406Z" fill="#CF7200" stroke="#4B371F"/>
<path d="M94.796 131.945C105.358 127.044 115.91 124.802 124.42 125.117C132.961 125.434 139.288 128.31 141.679 133.464C144.07 138.617 142.181 145.306 136.908 152.031C131.654 158.733 123.128 165.343 112.566 170.244C102.004 175.144 91.451 177.386 82.9408 177.071C74.4001 176.755 68.0734 173.878 65.6823 168.725C63.2912 163.571 65.1801 156.883 70.4532 150.157C75.7076 143.455 84.2342 136.845 94.796 131.945Z" fill="#FFF549" stroke="#4B371F"/>
<path d="M96.8955 136.465C104.545 132.916 112.15 131.222 118.247 131.334C124.381 131.447 128.812 133.373 130.425 136.85C132.038 140.327 130.648 144.954 126.773 149.711C122.921 154.438 116.718 159.151 109.068 162.701C101.418 166.25 93.8147 167.943 87.718 167.831C81.5835 167.719 77.1521 165.793 75.5389 162.316C73.9258 158.839 75.3167 154.212 79.1918 149.455C83.0431 144.727 89.2456 140.015 96.8955 136.465Z" fill="#FFCF23" stroke="#AF7026"/>
<path d="M116.027 139.249C117.251 139.25 118.239 139.56 118.854 140.14C119.47 140.719 119.684 141.54 119.471 142.491C119.257 143.442 118.623 144.478 117.657 145.462C116.781 146.353 115.668 147.16 114.444 147.799C114.071 149.167 113.259 150.623 112.066 152.055C110.797 153.579 109.134 155.033 107.22 156.292C105.306 157.55 103.197 158.578 101.072 159.286C98.9463 159.995 96.8675 160.365 95.0123 160.363C93.1572 160.361 91.5801 159.988 90.4154 159.275C89.2509 158.563 88.5321 157.533 88.3218 156.272C88.1114 155.011 88.416 153.556 89.2076 152.032C89.9515 150.599 91.1049 149.144 92.5809 147.777C92.3371 147.343 92.2489 146.829 92.3231 146.261C92.4086 145.606 92.7074 144.894 93.1987 144.176C93.6902 143.458 94.3628 142.748 95.1702 142.098C95.9775 141.448 96.9016 140.871 97.8773 140.408C98.8528 139.945 99.8577 139.606 100.823 139.414C101.788 139.223 102.692 139.184 103.47 139.299C104.249 139.414 104.885 139.682 105.334 140.083C105.725 140.431 105.966 140.873 106.048 141.386C107.34 141.232 108.55 141.234 109.634 141.389C110.573 140.768 111.607 140.251 112.657 139.881C113.837 139.464 114.997 139.247 116.027 139.249Z" fill="#FFF549" stroke="#AF7026"/>
<path d="M76.9302 161.016C78.1835 157.414 83.6031 148.801 95.2556 143.164" stroke="white" stroke-width="3" stroke-linecap="round" stroke-linejoin="round"/>
<path d="M111.314 45.8053C128.33 42.0576 145.623 54.4679 149.852 73.6684C154.08 92.8689 143.601 111.395 126.585 115.143C109.569 118.89 92.2768 106.481 88.0479 87.2803C83.8191 68.0798 94.2981 49.553 111.314 45.8053Z" fill="#CF7200" stroke="#4B371F"/>
<path d="M121.599 43.2369C138.616 39.4892 155.908 51.8995 160.137 71.1001C164.366 90.3005 153.886 108.827 136.87 112.574C119.854 116.322 102.562 103.912 98.333 84.712C94.1042 65.5114 104.583 46.9846 121.599 43.2369Z" fill="#FFF549" stroke="#4B371F"/>
<path d="M123.86 53.5011C135.815 50.868 147.993 59.587 150.974 73.1196C153.954 86.6522 146.566 99.6806 134.61 102.314C122.655 104.947 110.477 96.2277 107.496 82.6952C104.516 69.1626 111.904 56.1343 123.86 53.5011Z" fill="#FFCF23" stroke="#AF7026"/>
<path d="M132.288 62.3564C133.391 62.0609 134.566 62.1793 135.652 62.6805C136.735 63.1807 137.677 64.0365 138.363 65.1214C139.049 66.2066 139.452 67.4794 139.521 68.7713C139.584 69.9586 139.361 71.1201 138.872 72.124C139.829 73.7282 140.479 75.5342 140.77 77.4054C141.075 79.3719 140.977 81.3581 140.478 83.1948C139.979 85.0314 139.094 86.6696 137.888 87.9642C136.682 89.2595 135.191 90.1699 133.544 90.6112C131.897 91.0524 130.152 91.0089 128.46 90.4904C126.768 89.9722 125.182 88.9962 123.832 87.6551C122.482 86.3139 121.403 84.6431 120.685 82.7872C120.001 81.0215 119.66 79.1325 119.687 77.2645C119.055 76.8374 118.491 76.2831 118.024 75.6323C117.498 74.8975 117.105 74.0544 116.871 73.1611C116.637 72.268 116.566 71.3413 116.665 70.444C116.764 69.5469 117.031 68.6962 117.454 67.952C117.876 67.2073 118.445 66.5855 119.125 66.1361C119.807 65.6862 120.579 65.4222 121.388 65.3651C122.196 65.308 123.014 65.4591 123.786 65.8002C124.447 66.0923 125.06 66.5187 125.598 67.0517C126.559 66.5987 127.587 66.3237 128.646 66.2348C128.888 65.3448 129.307 64.538 129.88 63.8803C130.532 63.1316 131.361 62.6041 132.288 62.3564Z" fill="#FFF549" stroke="#AF7026"/>
<path d="M102.98 81.2193C100.822 69.7089 104.701 53.6171 122.404 50.2852" stroke="white" stroke-width="4" stroke-linecap="round" stroke-linejoin="round"/>
</svg>
