<svg width="23" height="23" viewBox="0 0 23 23" fill="none" xmlns="http://www.w3.org/2000/svg">
  <path d="M22.1277 11.0638C22.1277 17.1742 17.1742 22.1277 11.0638 22.1277C4.95344 22.1277 0 17.1742 0 11.0638C0 4.95344 4.95344 0 11.0638 0C17.1742 0 22.1277 4.95344 22.1277 11.0638Z" fill="#FFF549"/>
  <path fill-rule="evenodd" clip-rule="evenodd" d="M11.0638 20.9277C16.5115 20.9277 20.9277 16.5115 20.9277 11.0638C20.9277 5.61619 16.5115 1.2 11.0638 1.2C5.61619 1.2 1.2 5.61619 1.2 11.0638C1.2 16.5115 5.61619 20.9277 11.0638 20.9277ZM11.0638 22.1277C17.1742 22.1277 22.1277 17.1742 22.1277 11.0638C22.1277 4.95344 17.1742 0 11.0638 0C4.95344 0 0 4.95344 0 11.0638C0 17.1742 4.95344 22.1277 11.0638 22.1277Z" fill="#4B371F"/>
  <path d="M19.2398 11.0624C19.2398 15.5788 15.5786 19.24 11.0622 19.24C6.54586 19.24 2.88461 15.5788 2.88461 11.0624C2.88461 6.54601 6.54586 2.88477 11.0622 2.88477C15.5786 2.88477 19.2398 6.54601 19.2398 11.0624Z" fill="#FFCF23"/>
  <path fill-rule="evenodd" clip-rule="evenodd" d="M11.0622 18.04C14.9159 18.04 18.0398 14.916 18.0398 11.0624C18.0398 7.20875 14.9159 4.08477 11.0622 4.08477C7.2086 4.08477 4.08461 7.20875 4.08461 11.0624C4.08461 14.916 7.2086 18.04 11.0622 18.04ZM11.0622 19.24C15.5786 19.24 19.2398 15.5787 19.2398 11.0624C19.2398 6.54601 15.5786 2.88477 11.0622 2.88477C6.54586 2.88477 2.88461 6.54601 2.88461 11.0624C2.88461 15.5787 6.54586 19.24 11.0622 19.24Z" fill="#AF7026"/>
  <path d="M12.4099 7.16922C12.7674 7.07344 13.1457 7.08917 13.494 7.2143C13.8424 7.33942 14.1442 7.56797 14.3591 7.86936C14.574 8.17074 14.6917 8.53057 14.6965 8.90069C14.7012 9.27081 14.5928 9.63355 14.3858 9.94036C14.7225 10.4187 14.9387 10.9712 15.0161 11.551C15.0936 12.1308 15.0299 12.7207 14.8305 13.2706C14.6312 13.8205 14.302 14.3142 13.871 14.7096C13.44 15.1051 12.9199 15.3906 12.3549 15.542C11.7899 15.6934 11.1967 15.7061 10.6257 15.5792C10.0547 15.4522 9.52282 15.1893 9.07521 14.8127C8.62759 14.4362 8.27749 13.9572 8.05465 13.4163C7.83182 12.8755 7.74283 12.2889 7.79525 11.7063C7.55973 11.5915 7.35183 11.427 7.18582 11.2243C7.01981 11.0216 6.89962 10.7853 6.8335 10.5318C6.76737 10.2782 6.75687 10.0134 6.80273 9.75539C6.84858 9.4974 6.9497 9.25239 7.09914 9.03716C7.24859 8.82193 7.44282 8.64157 7.66852 8.50847C7.89422 8.37536 8.14604 8.29266 8.40671 8.26603C8.66738 8.2394 8.93072 8.26947 9.17868 8.35418C9.42663 8.4389 9.65333 8.57625 9.84321 8.75681C10.2497 8.56233 10.6886 8.44472 11.1378 8.40992C11.2257 8.11138 11.3888 7.84045 11.6116 7.62317C11.8343 7.40589 12.1093 7.24956 12.4099 7.16922Z" fill="#FFF549"/>
  <path fill-rule="evenodd" clip-rule="evenodd" d="M12.1 6.0098C12.6936 5.85096 13.3214 5.87714 13.8997 6.08484C14.4782 6.29261 14.9793 6.67213 15.3362 7.17258C15.693 7.67304 15.8885 8.27055 15.8964 8.88514C15.9007 9.22438 15.8478 9.55989 15.7418 9.87811C15.9778 10.3523 16.135 10.8637 16.2056 11.392C16.3086 12.1633 16.2239 12.948 15.9587 13.6795C15.6935 14.411 15.2556 15.0677 14.6822 15.5937C14.1089 16.1198 13.417 16.4996 12.6655 16.701C11.9139 16.9024 11.1248 16.9194 10.3652 16.7505C9.60569 16.5816 8.89814 16.2318 8.30271 15.7309C7.70728 15.23 7.24157 14.5928 6.94514 13.8734C6.74206 13.3805 6.62255 12.859 6.58985 12.3303C6.47034 12.2243 6.35912 12.1087 6.25738 11.9845C5.98172 11.6478 5.78214 11.2555 5.67233 10.8345C5.56253 10.4135 5.5451 9.97369 5.62124 9.54529C5.69738 9.1169 5.86529 8.71005 6.11345 8.35264C6.36161 7.99524 6.68415 7.69575 7.05894 7.47473C7.43372 7.2537 7.85189 7.11636 8.28474 7.07214C8.7176 7.02791 9.1549 7.07785 9.56664 7.21852C9.7186 7.27044 9.86576 7.33427 10.0068 7.40921C10.1109 7.37753 10.216 7.34936 10.322 7.32475C10.4491 7.12128 10.6005 6.9329 10.7737 6.76402C11.1436 6.40318 11.6002 6.14352 12.0994 6.00998M9.84321 8.75671C9.65332 8.57614 9.42663 8.43879 9.17867 8.35408C8.93072 8.26936 8.66738 8.23929 8.40671 8.26592C8.14604 8.29255 7.89422 8.37526 7.66852 8.50836C7.44282 8.64147 7.24858 8.82182 7.09914 9.03705C6.94969 9.25229 6.84858 9.4973 6.80272 9.75528C6.75687 10.0133 6.76737 10.2781 6.83349 10.5317C6.89962 10.7852 7.01981 11.0215 7.18582 11.2242C7.35183 11.4269 7.55973 11.5914 7.79525 11.7062C7.74283 12.2888 7.83181 12.8754 8.05465 13.4162C8.27749 13.9571 8.62759 14.4361 9.07521 14.8126C9.52282 15.1892 10.0547 15.4521 10.6257 15.5791C11.1967 15.706 11.7899 15.6933 12.3549 15.5419C12.9199 15.3905 13.44 15.105 13.871 14.7095C14.302 14.3141 14.6312 13.8204 14.8305 13.2705C15.0299 12.7206 15.0936 12.1307 15.0161 11.5509C14.9387 10.9711 14.7225 10.4186 14.3858 9.94026C14.5928 9.63345 14.7012 9.27071 14.6965 8.90059C14.6917 8.53047 14.574 8.17063 14.3591 7.86925C14.1442 7.56787 13.8424 7.33932 13.494 7.21419C13.1457 7.08907 12.7674 7.07334 12.4099 7.16911C12.1093 7.24946 11.8343 7.40579 11.6116 7.62306C11.3888 7.84034 11.2257 8.11127 11.1378 8.40981C10.6886 8.44462 10.2497 8.56223 9.84321 8.75671Z" fill="#AF7026"/>
  <path fill-rule="evenodd" clip-rule="evenodd" d="M8.69339 5.46229C8.86388 5.74644 8.77174 6.115 8.48759 6.28548C6.69711 7.35977 5.99573 8.79989 5.87476 9.28376C5.79439 9.60524 5.46863 9.8007 5.14716 9.72033C4.82568 9.63996 4.63022 9.3142 4.71059 8.99272C4.91031 8.19383 5.81239 6.49118 7.8702 5.25649C8.15434 5.086 8.5229 5.17814 8.69339 5.46229Z" fill="white"/>
</svg>
