<svg width="332" height="60" viewBox="0 0 332 60" fill="none" xmlns="http://www.w3.org/2000/svg">
<mask id="path-1-outside-1_38685_2579" maskUnits="userSpaceOnUse" x="0" y="0" width="332" height="60" fill="black">
<rect fill="white" width="332" height="60"/>
<path fill-rule="evenodd" clip-rule="evenodd" d="M42.9686 43.1953C39.5771 46.5299 34.9255 48.5869 29.7935 48.5869C19.4141 48.5869 11 40.1728 11 29.7935C11 19.4141 19.4141 11 29.7935 11C34.824 11 39.3929 12.9765 42.766 16.1953H307.072C314.528 16.1953 320.572 22.2395 320.572 29.6953C320.572 37.1512 314.528 43.1953 307.072 43.1953H42.9686Z"/>
</mask>
<path fill-rule="evenodd" clip-rule="evenodd" d="M42.9686 43.1953C39.5771 46.5299 34.9255 48.5869 29.7935 48.5869C19.4141 48.5869 11 40.1728 11 29.7935C11 19.4141 19.4141 11 29.7935 11C34.824 11 39.3929 12.9765 42.766 16.1953H307.072C314.528 16.1953 320.572 22.2395 320.572 29.6953C320.572 37.1512 314.528 43.1953 307.072 43.1953H42.9686Z" fill="#884C2C"/>
<path d="M42.9686 43.1953V32.1953H38.4668L35.2567 35.3515L42.9686 43.1953ZM42.766 16.1953L35.1719 24.1533L38.3597 27.1953H42.766V16.1953ZM42.9686 43.1953L35.2567 35.3515C33.8388 36.7455 31.9253 37.5869 29.7935 37.5869V48.5869V59.5869C37.9257 59.5869 45.3153 56.3143 50.6806 51.0391L42.9686 43.1953ZM29.7935 48.5869V37.5869C25.4893 37.5869 22 34.0977 22 29.7935H11H0C0 46.2479 13.339 59.5869 29.7935 59.5869V48.5869ZM11 29.7935H22C22 25.4893 25.4893 22 29.7935 22V11V0C13.339 0 0 13.339 0 29.7935H11ZM29.7935 11V22C31.8843 22 33.763 22.8088 35.1719 24.1533L42.766 16.1953L50.3601 8.23731C45.0229 3.14418 37.7637 0 29.7935 0V11ZM42.766 16.1953V27.1953H307.072V16.1953V5.19531H42.766V16.1953ZM307.072 16.1953V27.1953C308.453 27.1953 309.572 28.3146 309.572 29.6953H320.572H331.572C331.572 16.1643 320.603 5.19531 307.072 5.19531V16.1953ZM320.572 29.6953H309.572C309.572 31.076 308.453 32.1953 307.072 32.1953V43.1953V54.1953C320.603 54.1953 331.572 43.2263 331.572 29.6953H320.572ZM307.072 43.1953V32.1953H42.9686V43.1953V54.1953H307.072V43.1953Z" fill="#622713" mask="url(#path-1-outside-1_38685_2579)"/>
<mask id="path-3-outside-2_38685_2579" maskUnits="userSpaceOnUse" x="2" y="2" width="328" height="56" fill="black">
<rect fill="white" x="2" y="2" width="328" height="56"/>
<path fill-rule="evenodd" clip-rule="evenodd" d="M42.9686 43.1953C39.5771 46.5299 34.9255 48.5869 29.7935 48.5869C19.4141 48.5869 11 40.1728 11 29.7935C11 19.4141 19.4141 11 29.7935 11C34.824 11 39.3929 12.9765 42.766 16.1953H307.072C314.528 16.1953 320.572 22.2395 320.572 29.6953C320.572 37.1512 314.528 43.1953 307.072 43.1953H42.9686Z"/>
</mask>
<path fill-rule="evenodd" clip-rule="evenodd" d="M42.9686 43.1953C39.5771 46.5299 34.9255 48.5869 29.7935 48.5869C19.4141 48.5869 11 40.1728 11 29.7935C11 19.4141 19.4141 11 29.7935 11C34.824 11 39.3929 12.9765 42.766 16.1953H307.072C314.528 16.1953 320.572 22.2395 320.572 29.6953C320.572 37.1512 314.528 43.1953 307.072 43.1953H42.9686Z" fill="#884C2C"/>
<path d="M42.9686 43.1953V34.1953H39.2853L36.6588 36.7776L42.9686 43.1953ZM42.766 16.1953L36.5526 22.7064L39.1608 25.1953H42.766V16.1953ZM42.9686 43.1953L36.6588 36.7776C34.8821 38.5245 32.4708 39.5869 29.7935 39.5869V48.5869V57.5869C37.3802 57.5869 44.272 54.5353 49.2784 49.613L42.9686 43.1953ZM29.7935 48.5869V39.5869C24.3847 39.5869 20 35.2022 20 29.7935H11H2C2 45.1434 14.4436 57.5869 29.7935 57.5869V48.5869ZM11 29.7935H20C20 24.3847 24.3847 20 29.7935 20V11V2C14.4436 2 2 14.4436 2 29.7935H11ZM29.7935 11V20C32.4188 20 34.7866 21.0211 36.5526 22.7064L42.766 16.1953L48.9793 9.68422C43.9992 4.93188 37.2292 2 29.7935 2V11ZM42.766 16.1953V25.1953H307.072V16.1953V7.19531H42.766V16.1953ZM307.072 16.1953V25.1953C309.558 25.1953 311.572 27.21 311.572 29.6953H320.572H329.572C329.572 17.2689 319.499 7.19531 307.072 7.19531V16.1953ZM320.572 29.6953H311.572C311.572 32.1806 309.558 34.1953 307.072 34.1953V43.1953V52.1953C319.499 52.1953 329.572 42.1217 329.572 29.6953H320.572ZM307.072 43.1953V34.1953H42.9686V43.1953V52.1953H307.072V43.1953Z" fill="#884C2C" mask="url(#path-3-outside-2_38685_2579)"/>
<mask id="path-5-outside-3_38685_2579" maskUnits="userSpaceOnUse" x="9" y="9" width="314" height="42" fill="black">
<rect fill="white" x="9" y="9" width="314" height="42"/>
<path fill-rule="evenodd" clip-rule="evenodd" d="M42.9686 43.1953C39.5771 46.5299 34.9255 48.5869 29.7935 48.5869C19.4141 48.5869 11 40.1728 11 29.7935C11 19.4141 19.4141 11 29.7935 11C34.824 11 39.3929 12.9765 42.766 16.1953H307.072C314.528 16.1953 320.572 22.2395 320.572 29.6953C320.572 37.1512 314.528 43.1953 307.072 43.1953H42.9686Z"/>
</mask>
<path fill-rule="evenodd" clip-rule="evenodd" d="M42.9686 43.1953C39.5771 46.5299 34.9255 48.5869 29.7935 48.5869C19.4141 48.5869 11 40.1728 11 29.7935C11 19.4141 19.4141 11 29.7935 11C34.824 11 39.3929 12.9765 42.766 16.1953H307.072C314.528 16.1953 320.572 22.2395 320.572 29.6953C320.572 37.1512 314.528 43.1953 307.072 43.1953H42.9686Z" fill="#B76F39"/>
<path d="M42.9686 43.1953V41.1953H42.1501L41.5665 41.7692L42.9686 43.1953ZM42.766 16.1953L41.3852 17.6422L41.9648 18.1953H42.766V16.1953ZM42.9686 43.1953L41.5665 41.7692C38.5337 44.7509 34.38 46.5869 29.7935 46.5869V48.5869V50.5869C35.471 50.5869 40.6204 48.3089 44.3708 44.6215L42.9686 43.1953ZM29.7935 48.5869V46.5869C20.5187 46.5869 13 39.0682 13 29.7935H11H9C9 41.2774 18.3096 50.5869 29.7935 50.5869V48.5869ZM11 29.7935H13C13 20.5187 20.5187 13 29.7935 13V11V9C18.3096 9 9 18.3096 9 29.7935H11ZM29.7935 11V13C34.2895 13 38.3693 14.7642 41.3852 17.6422L42.766 16.1953L44.1467 14.7484C40.4165 11.1888 35.3585 9 29.7935 9V11ZM42.766 16.1953V18.1953H307.072V16.1953V14.1953H42.766V16.1953ZM307.072 16.1953V18.1953C313.424 18.1953 318.572 23.344 318.572 29.6953H320.572H322.572C322.572 21.1349 315.633 14.1953 307.072 14.1953V16.1953ZM320.572 29.6953H318.572C318.572 36.0466 313.424 41.1953 307.072 41.1953V43.1953V45.1953C315.633 45.1953 322.572 38.2557 322.572 29.6953H320.572ZM307.072 43.1953V41.1953H42.9686V43.1953V45.1953H307.072V43.1953Z" fill="#622713" mask="url(#path-5-outside-3_38685_2579)"/>
</svg>
