<svg width="77" height="68" viewBox="0 0 77 68" fill="none" xmlns="http://www.w3.org/2000/svg">
  <circle cx="55.3799" cy="31.1466" r="18.172" fill="#FFCF23"/>
  <mask id="path-2-outside-1_107_4337" maskUnits="userSpaceOnUse" x="0.000164032" y="0.000976562" width="77" height="68" fill="black">
    <rect fill="white" x="0.000164032" y="0.000976562" width="77" height="68"/>
    <path fill-rule="evenodd" clip-rule="evenodd" d="M2.00016 9.21776C2.00016 13.2035 5.23123 16.4345 9.21695 16.4345C10.3058 16.4345 11.3384 16.1934 12.2641 15.7616L32.7933 26.3281C32.4443 30.5627 34.2871 33.5845 35.4957 34.7942C36.103 38.9273 38.7803 40.4912 40.3148 40.9546C41.3012 42.2666 42.295 43.235 43.239 43.9255L43.321 44.0414L43.3317 44.056C43.888 44.8376 44.4889 45.6146 45.1248 46.3776C46.0078 47.4373 47.1185 48.2588 48.2061 48.9717C48.6287 49.2487 49.0378 49.5037 49.4322 49.7494L49.4327 49.7497L49.4329 49.7498L49.4329 49.7499C50.0874 50.1577 50.7013 50.5402 51.2685 50.9562C52.1597 51.6097 52.7902 52.2496 53.0951 52.9889C53.3879 53.6989 53.4202 54.6015 52.895 55.8769C51.7126 58.7486 51.5664 61.2553 52.4167 63.0503C53.2959 64.9063 55.1476 65.8179 57.4884 65.6378C58.6339 65.5497 59.5791 65.2587 60.3186 64.7348C61.0662 64.2053 61.5519 63.4743 61.8346 62.6028C62.3833 60.9108 62.183 58.6281 61.6913 56.0058C61.2219 53.5023 61.6303 52.1381 62.2801 51.2147C62.6179 50.7346 63.045 50.3389 63.5315 49.9507C63.7438 49.7813 63.9606 49.6186 64.1857 49.4495L64.2886 49.3722C64.5472 49.1778 64.8151 48.9744 65.0749 48.7579C65.3113 48.5608 65.6177 48.3404 65.9733 48.0847L65.9734 48.0845L65.9737 48.0844L65.9738 48.0843C66.9164 47.4062 68.2043 46.4798 69.4502 45.082C71.2111 43.1064 72.9792 40.1357 74.1497 35.2864C76.005 27.6002 72.6349 22.245 70.4837 20.3328C69.0718 15.3459 64.8575 13.9256 62.6338 13.8169C58.3865 9.7245 53.5963 10.2537 51.4546 11.1589C48.4457 10.5977 45.9831 10.7495 43.9842 11.4119C41.9351 12.0909 40.4118 13.2941 39.309 14.741C38.9795 15.1733 38.6879 15.6268 38.4308 16.0941C37.5448 16.7466 36.8991 17.536 36.4946 18.1928L16.3731 8.27786C15.9125 4.73622 12.8841 2.00098 9.21695 2.00098C5.23123 2.00098 2.00016 5.23204 2.00016 9.21776ZM9.21695 15.1224C9.73372 15.1224 10.235 15.056 10.7127 14.9313L10.7122 14.9309C10.2346 15.0556 9.73342 15.122 9.21673 15.122C7.16607 15.122 5.35956 14.0766 4.30105 12.4897C5.35951 14.0768 7.1661 15.1224 9.21695 15.1224Z"/>
  </mask>
  <path d="M12.2641 15.7616L13.1794 13.9833L12.3074 13.5345L11.4186 13.9491L12.2641 15.7616ZM32.7933 26.3281L34.7865 26.4924L34.8962 25.1611L33.7086 24.5498L32.7933 26.3281ZM35.4957 34.7942L37.4744 34.5034L37.3782 33.8488L36.9105 33.3807L35.4957 34.7942ZM40.3148 40.9546L41.9134 39.7528L41.5199 39.2293L40.893 39.04L40.3148 40.9546ZM43.239 43.9255L44.8714 42.77L44.683 42.5038L44.4197 42.3112L43.239 43.9255ZM43.321 44.0414L41.6886 45.1969L41.6976 45.2096L41.7067 45.2221L43.321 44.0414ZM43.3317 44.056L44.9611 42.8963L44.9536 42.8857L44.9459 42.8752L43.3317 44.056ZM45.1248 46.3776L43.5884 47.658L43.5884 47.658L45.1248 46.3776ZM48.2061 48.9717L47.1097 50.6444L47.1097 50.6444L48.2061 48.9717ZM49.4322 49.7494L48.3745 51.4469L48.382 51.4515L49.4322 49.7494ZM49.4327 49.7497L48.3825 51.4518L48.3845 51.4531L49.4327 49.7497ZM49.4329 49.7498L48.3847 51.4532L48.3942 51.459L48.4039 51.4648L49.4329 49.7498ZM49.4329 49.7499L50.4906 48.0524L50.4763 48.0435L50.4619 48.0349L49.4329 49.7499ZM51.2685 50.9562L50.0858 52.569L50.0858 52.569L51.2685 50.9562ZM53.0951 52.9889L54.944 52.2263L54.944 52.2263L53.0951 52.9889ZM52.895 55.8769L51.0457 55.1154L51.0457 55.1154L52.895 55.8769ZM52.4167 63.0503L54.2242 62.1941L54.2242 62.1941L52.4167 63.0503ZM57.4884 65.6378L57.335 63.6437L57.335 63.6437L57.4884 65.6378ZM60.3186 64.7348L59.1626 63.1028L59.1626 63.1028L60.3186 64.7348ZM61.8346 62.6028L63.737 63.2198L63.737 63.2198L61.8346 62.6028ZM61.6913 56.0058L63.6571 55.6372L63.6571 55.6372L61.6913 56.0058ZM62.2801 51.2147L63.9157 52.3657L63.9157 52.3657L62.2801 51.2147ZM63.5315 49.9507L62.2841 48.3874L62.2841 48.3874L63.5315 49.9507ZM64.1857 49.4495L65.3866 51.0489L65.387 51.0486L64.1857 49.4495ZM64.2886 49.3722L65.4899 50.9713L65.4905 50.9708L64.2886 49.3722ZM65.0749 48.7579L66.3553 50.2943L66.3553 50.2943L65.0749 48.7579ZM65.9733 48.0847L67.1412 49.7083L67.1486 49.7029L67.156 49.6975L65.9733 48.0847ZM65.9734 48.0845L64.811 46.4571L64.8008 46.4643L64.7907 46.4717L65.9734 48.0845ZM65.9737 48.0844L67.1362 49.7118L67.1431 49.7069L67.15 49.7018L65.9737 48.0844ZM65.9738 48.0843L64.8059 46.4607L64.7975 46.4668L65.9738 48.0843ZM69.4502 45.082L67.9572 43.7513L67.9572 43.7513L69.4502 45.082ZM74.1497 35.2864L76.0939 35.7557L76.0939 35.7557L74.1497 35.2864ZM70.4837 20.3328L68.5593 20.8776L68.7184 21.4396L69.1549 21.8276L70.4837 20.3328ZM62.6338 13.8169L61.2461 15.2572L61.7866 15.7779L62.5362 15.8146L62.6338 13.8169ZM51.4546 11.1589L51.0879 13.125L51.6792 13.2353L52.2332 13.0011L51.4546 11.1589ZM43.9842 11.4119L43.3551 9.51342L43.3551 9.51342L43.9842 11.4119ZM39.309 14.741L40.8997 15.9533L40.8997 15.9533L39.309 14.741ZM38.4308 16.0941L39.6168 17.7045L39.9711 17.4436L40.1832 17.0581L38.4308 16.0941ZM36.4946 18.1928L35.6106 19.9868L37.2432 20.7913L38.1976 19.2416L36.4946 18.1928ZM16.3731 8.27786L14.3898 8.53581L14.528 9.5983L15.4891 10.0719L16.3731 8.27786ZM10.7127 14.9313L11.2179 16.8664L15.0484 15.8664L11.9706 13.3764L10.7127 14.9313ZM10.7122 14.9309L11.9702 13.3761L11.1847 12.7406L10.2071 12.9958L10.7122 14.9309ZM4.30105 12.4897L5.96488 11.3798L2.63712 13.5993L4.30105 12.4897ZM9.21695 14.4345C6.3358 14.4345 4.00016 12.0989 4.00016 9.21776H0.000164032C0.000164032 14.308 4.12666 18.4345 9.21695 18.4345V14.4345ZM11.4186 13.9491C10.7522 14.2599 10.0077 14.4345 9.21695 14.4345V18.4345C10.6039 18.4345 11.9245 18.1269 13.1095 17.5741L11.4186 13.9491ZM33.7086 24.5498L13.1794 13.9833L11.3488 17.5399L31.878 28.1064L33.7086 24.5498ZM36.9105 33.3807C36.0629 32.5322 34.4917 30.0693 34.7865 26.4924L30.8 26.1638C30.3968 31.0561 32.5113 34.6368 34.0808 36.2078L36.9105 33.3807ZM40.893 39.04C39.9149 38.7446 37.9434 37.6946 37.4744 34.5034L33.5169 35.085C34.2627 40.16 37.6457 42.2378 39.7366 42.8692L40.893 39.04ZM44.4197 42.3112C43.6541 41.7512 42.797 40.9281 41.9134 39.7528L38.7162 42.1564C39.8053 43.6052 40.936 44.7188 42.0582 45.5397L44.4197 42.3112ZM44.9534 42.8858L44.8714 42.77L41.6066 45.081L41.6886 45.1969L44.9534 42.8858ZM44.9459 42.8752L44.9353 42.8606L41.7067 45.2221L41.7174 45.2367L44.9459 42.8752ZM46.6613 45.0973C46.0558 44.3707 45.4862 43.634 44.9611 42.8963L41.7022 45.2156C42.2898 46.0412 42.922 46.8584 43.5884 47.658L46.6613 45.0973ZM49.3025 47.299C48.2651 46.619 47.3525 45.9268 46.6613 45.0973L43.5884 47.658C44.6631 48.9477 45.9719 49.8986 47.1097 50.6444L49.3025 47.299ZM50.4899 48.052C50.0932 47.8048 49.703 47.5616 49.3025 47.299L47.1097 50.6444C47.5544 50.9359 47.9825 51.2026 48.3745 51.4468L50.4899 48.052ZM50.4829 48.0477L50.4824 48.0473L48.382 51.4515L48.3825 51.4518L50.4829 48.0477ZM50.4811 48.0465L50.4809 48.0464L48.3845 51.4531L48.3847 51.4532L50.4811 48.0465ZM50.4619 48.0349L50.4619 48.0349L48.4039 51.4648L48.4039 51.4649L50.4619 48.0349ZM52.4512 49.3434C51.8122 48.8747 51.132 48.4521 50.4906 48.0524L48.3752 51.4473C49.0428 51.8633 49.5903 52.2057 50.0858 52.569L52.4512 49.3434ZM54.944 52.2263C54.4278 50.9747 53.4378 50.0668 52.4512 49.3434L50.0858 52.569C50.8816 53.1526 51.1526 53.5245 51.2461 53.7514L54.944 52.2263ZM54.7444 56.6384C55.4191 54.9999 55.4844 53.5366 54.944 52.2263L51.2461 53.7514C51.2823 53.8392 51.3117 53.9521 51.3037 54.1325C51.2952 54.3266 51.2407 54.6418 51.0457 55.1154L54.7444 56.6384ZM54.2242 62.1941C53.7162 61.1217 53.6661 59.257 54.7444 56.6384L51.0457 55.1154C49.759 58.2401 49.4167 61.3888 50.6092 63.9065L54.2242 62.1941ZM57.335 63.6437C55.626 63.7752 54.6718 63.1391 54.2242 62.1941L50.6092 63.9065C51.9199 66.6735 54.6693 67.8606 57.6418 67.6319L57.335 63.6437ZM59.1626 63.1028C58.8025 63.3578 58.2387 63.5742 57.335 63.6437L57.6418 67.6319C59.0292 67.5252 60.3557 67.1595 61.4746 66.3669L59.1626 63.1028ZM59.9321 61.9858C59.761 62.5135 59.5057 62.8597 59.1626 63.1028L61.4746 66.3669C62.6268 65.5508 63.3429 64.435 63.737 63.2198L59.9321 61.9858ZM59.7256 56.3744C60.2182 59.0016 60.3082 60.8263 59.9321 61.9858L63.737 63.2198C64.4585 60.9953 64.1478 58.2545 63.6571 55.6372L59.7256 56.3744ZM60.6445 50.0637C59.601 51.5466 59.187 53.5017 59.7256 56.3744L63.6571 55.6372C63.2569 53.5028 63.6596 52.7297 63.9157 52.3657L60.6445 50.0637ZM62.2841 48.3874C61.7341 48.8263 61.14 49.3595 60.6445 50.0637L63.9157 52.3657C64.0959 52.1097 64.356 51.8515 64.779 51.514L62.2841 48.3874ZM62.9849 47.8501C62.7638 48.0161 62.5232 48.1966 62.2841 48.3874L64.779 51.514C64.9643 51.3661 65.1573 51.221 65.3866 51.0489L62.9849 47.8501ZM63.0874 47.7731L62.9845 47.8504L65.387 51.0486L65.4899 50.9713L63.0874 47.7731ZM63.7945 47.2214C63.5767 47.403 63.3441 47.5801 63.0867 47.7736L65.4905 50.9708C65.7503 50.7754 66.0535 50.5458 66.3553 50.2943L63.7945 47.2214ZM64.8054 46.4611C64.4702 46.7022 64.0977 46.9688 63.7945 47.2215L66.3553 50.2943C66.5249 50.1529 66.7653 49.9786 67.1412 49.7083L64.8054 46.4611ZM64.7907 46.4717L64.7905 46.4719L67.156 49.6975L67.1562 49.6974L64.7907 46.4717ZM64.8112 46.4569L64.811 46.4571L67.1359 49.712L67.1362 49.7118L64.8112 46.4569ZM64.7975 46.4668L64.7973 46.4669L67.15 49.7018L67.1502 49.7018L64.7975 46.4668ZM67.9572 43.7513C66.871 44.9698 65.7435 45.7862 64.8059 46.4607L67.1417 49.7079C68.0893 49.0262 69.5376 47.9898 70.9432 46.4128L67.9572 43.7513ZM72.2056 34.8171C71.1033 39.3836 69.4751 42.0483 67.9572 43.7513L70.9432 46.4128C72.9471 44.1645 74.8551 40.8879 76.0939 35.7557L72.2056 34.8171ZM69.1549 21.8276C70.8252 23.3123 73.8663 27.937 72.2056 34.8171L76.0939 35.7557C78.1438 27.2633 74.4447 21.1778 71.8124 18.838L69.1549 21.8276ZM62.5362 15.8146C64.2155 15.8966 67.4567 16.9831 68.5593 20.8776L72.408 19.788C70.6869 13.7087 65.4995 11.9546 62.7314 11.8193L62.5362 15.8146ZM52.2332 13.0011C53.7931 12.3418 57.688 11.8288 61.2461 15.2572L64.0215 12.3767C59.085 7.62022 53.3995 8.16554 50.6759 9.31674L52.2332 13.0011ZM44.6133 13.3104C46.2243 12.7766 48.3342 12.6114 51.0879 13.125L51.8213 9.19284C48.5572 8.58405 45.7419 8.72251 43.3551 9.51342L44.6133 13.3104ZM40.8997 15.9533C41.7783 14.8006 42.9766 13.8527 44.6133 13.3104L43.3551 9.51342C40.8936 10.3291 39.0453 11.7876 37.7183 13.5287L40.8997 15.9533ZM40.1832 17.0581C40.3958 16.6716 40.6341 16.3019 40.8997 15.9533L37.7183 13.5287C37.325 14.0448 36.9801 14.5819 36.6785 15.1301L40.1832 17.0581ZM38.1976 19.2416C38.4889 18.7685 38.9682 18.1821 39.6168 17.7045L37.2449 14.4836C36.1214 15.311 35.3093 16.3035 34.7916 17.1441L38.1976 19.2416ZM15.4891 10.0719L35.6106 19.9868L37.3786 16.3988L17.2571 6.48384L15.4891 10.0719ZM9.21695 4.00098C11.8663 4.00098 14.0571 5.97768 14.3898 8.53581L18.3564 8.01992C17.7678 3.49477 13.902 0.000976562 9.21695 0.000976562V4.00098ZM4.00016 9.21776C4.00016 6.33661 6.3358 4.00098 9.21695 4.00098V0.000976562C4.12666 0.000976562 0.000164032 4.12747 0.000164032 9.21776H4.00016ZM10.2075 12.9962C9.89332 13.0782 9.56178 13.1224 9.21695 13.1224V17.1224C9.90566 17.1224 10.5767 17.0338 11.2179 16.8664L10.2075 12.9962ZM9.45429 16.4858L9.45476 16.4862L11.9706 13.3764L11.9702 13.3761L9.45429 16.4858ZM9.21673 17.122C9.90533 17.122 10.5762 17.0334 11.2173 16.8661L10.2071 12.9958C9.89299 13.0777 9.56151 13.122 9.21673 13.122V17.122ZM2.63722 13.5995C4.0509 15.7189 6.46954 17.122 9.21673 17.122V13.122C7.86259 13.122 6.66822 12.4343 5.96488 11.3798L2.63722 13.5995ZM9.21695 13.1224C7.86272 13.1224 6.66831 12.4346 5.96497 11.38L2.63712 13.5993C4.05072 15.719 6.46948 17.1224 9.21695 17.1224V13.1224Z" fill="#4B371F" mask="url(#path-2-outside-1_107_4337)"/>
  <path d="M3.31266 9.21811C3.31266 12.4792 5.95626 15.1228 9.2173 15.1228C12.4783 15.1228 15.1219 12.4792 15.1219 9.21811C15.1219 5.95707 12.4783 3.31348 9.2173 3.31348C5.95626 3.31348 3.31266 5.95707 3.31266 9.21811Z" fill="#DB792F"/>
  <path fill-rule="evenodd" clip-rule="evenodd" d="M2.00008 9.21678C2.00008 13.2025 5.23114 16.4336 9.21686 16.4336C13.2026 16.4336 16.4336 13.2025 16.4336 9.21678C16.4336 5.23106 13.2026 2 9.21686 2C5.23114 2 2.00008 5.23106 2.00008 9.21678ZM9.21686 15.1214C5.95582 15.1214 3.31222 12.4778 3.31222 9.21678C3.31222 5.95574 5.95582 3.31214 9.21686 3.31214C12.4779 3.31214 15.1215 5.95574 15.1215 9.21678C15.1215 12.4778 12.4779 15.1214 9.21686 15.1214Z" fill="#934820"/>
  <path d="M5.7123 5.86653C4.71744 8.00129 5.90774 10.6624 8.37093 11.8104C10.8341 12.9583 13.6374 12.1583 14.6323 10.0235C15.6271 7.88877 14.4368 5.22763 11.9737 4.07971C9.51047 2.93179 6.70717 3.73178 5.7123 5.86653Z" fill="#ED9C43"/>
  <path d="M73.5121 35.1329C75.3491 27.5225 71.8719 22.3395 69.9037 20.6993C68.5917 15.7133 64.3271 14.4666 62.3588 14.4665C58.1599 10.2676 53.3925 10.9676 51.5336 11.8424C39.4619 9.4805 37.1 18.9498 37.4281 23.9797C36.1159 29.2282 38.6309 33.1647 40.0524 34.4768C40.0524 37.7572 42.3486 42.0216 45.629 45.958C48.9093 49.8945 55.7981 50.5505 53.5018 56.1271C51.2056 61.7038 53.1738 65.3121 57.4382 64.9841C61.7027 64.6561 62.0307 61.3757 61.0466 56.1271C60.0625 50.8786 62.6868 49.8945 64.655 48.2543C66.6232 46.6141 71.2159 44.6459 73.5121 35.1329Z" fill="#F8D61F"/>
  <path fill-rule="evenodd" clip-rule="evenodd" d="M51.4551 11.1586C48.4463 10.5974 45.9836 10.7492 43.9848 11.4116C41.9356 12.0906 40.4123 13.2937 39.3096 14.7407C37.1506 17.5734 36.6174 21.3143 36.7675 23.9193C35.4984 29.1634 37.8412 33.1703 39.4018 34.7582C39.4628 36.4668 40.0693 38.3543 41.0241 40.264C42.0359 42.2875 43.4609 44.3799 45.1254 46.3773C46.0084 47.4369 47.119 48.2584 48.2067 48.9714C48.6295 49.2486 49.0389 49.5036 49.4334 49.7495C50.088 50.1573 50.7018 50.5398 51.2691 50.9558C52.1602 51.6094 52.7907 52.2493 53.0956 52.9885C53.3884 53.6985 53.4208 54.6011 52.8956 55.8766C51.7131 58.7482 51.567 61.2549 52.4173 63.05C53.2964 64.9059 55.1482 65.8175 57.489 65.6375C58.6345 65.5494 59.5797 65.2583 60.3191 64.7345C61.0668 64.2049 61.5525 63.4739 61.8351 62.6025C62.3839 60.9105 62.1836 58.6277 61.6919 56.0055C61.2225 53.5019 61.6309 52.1378 62.2807 51.2144C62.6185 50.7343 63.0456 50.3386 63.5321 49.9503C63.7443 49.781 63.9611 49.6182 64.1863 49.4492C64.2204 49.4235 64.2547 49.3978 64.2892 49.3718C64.5478 49.1774 64.8156 48.974 65.0754 48.7575C65.312 48.5604 65.6186 48.3399 65.9744 48.0839C66.917 47.4059 68.2049 46.4795 69.4507 45.0817C71.2117 43.1061 72.9798 40.1354 74.1503 35.2861C76.0056 27.5998 72.6355 22.2447 70.4842 20.3324C69.0724 15.3456 64.8581 13.9252 62.6344 13.8166C58.3871 9.72416 53.5968 10.2533 51.4551 11.1586ZM51.8134 12.4352C53.472 11.6547 57.9285 10.9629 61.8953 14.9297L62.0874 15.1218L62.3592 15.1218C64.1372 15.1219 68.0578 16.2602 69.2697 20.8655L69.3231 21.0683L69.4842 21.2026C71.2823 22.701 74.6468 27.6371 72.8748 34.9782C71.7491 39.6419 70.0727 42.4118 68.4712 44.2086C67.3267 45.4926 66.2604 46.2577 65.3455 46.9141C64.9443 47.2019 64.5722 47.4689 64.2354 47.7495C64.0032 47.9431 63.7585 48.1292 63.5007 48.3231C63.4673 48.3481 63.4338 48.3733 63.3999 48.3987C63.1759 48.5669 62.9422 48.7423 62.7137 48.9247C62.1853 49.3463 61.6488 49.8322 61.2076 50.4592C60.2992 51.7501 59.8875 53.5023 60.4022 56.2473C60.8947 58.8736 61.0223 60.8553 60.587 62.1977C60.3776 62.8433 60.0432 63.322 59.5607 63.6638C59.0701 64.0113 58.375 64.2533 57.3883 64.3292C55.4647 64.4772 54.2001 63.7486 53.6031 62.4882C52.9772 61.1669 52.9951 59.0812 54.1089 56.3762C54.7318 54.8633 54.7642 53.5927 54.3086 52.4882C53.8652 51.413 52.999 50.5973 52.045 49.8977C51.4446 49.4574 50.75 49.0239 50.0603 48.5934C49.6749 48.3528 49.291 48.1132 48.926 47.874C47.8711 47.1825 46.8906 46.4459 46.1334 45.5373C44.5175 43.5983 43.1542 41.5902 42.1978 39.6772C41.2373 37.7563 40.7089 35.9746 40.7089 34.476V34.1888L40.4978 33.994C39.2121 32.8072 36.8232 29.105 38.065 24.138L38.0899 24.0385L38.0832 23.9362C37.9253 21.515 38.4237 18.0677 40.3532 15.536C41.3088 14.2821 42.6189 13.2465 44.3975 12.6571C46.1812 12.066 48.4743 11.9115 51.408 12.4855L51.6189 12.5267L51.8134 12.4352Z" fill="#F19800"/>
  <path d="M58.0945 55.799C56.5657 52.9962 58.5319 49.4569 59.0786 48.2541C55.4046 47.4669 54.4861 48.1448 54.4861 48.5822C54.8142 49.2383 57.5171 52.6893 56.4543 54.8148C55.1422 57.4391 53.8301 60.3914 56.4543 61.3756C58.6044 62.1819 60.0627 59.4073 58.0945 55.799Z" fill="#F19800"/>
  <path d="M69.9049 24.9656C68.5925 22.6694 67.0619 22.7787 66.2965 22.6694C67.0838 17.6833 61.7039 16.7648 60.0638 16.7648C58.7516 13.0908 53.3937 13.7031 50.8788 14.4685C48.2545 12.3691 44.0994 14.2498 42.3498 15.4526C39.2007 15.4526 37.32 17.8582 36.7732 19.061L14.1388 7.9078C10.8583 7.57979 8.23403 12.1703 11.1865 14.4685L33.4929 25.9497C32.968 30.411 35.0237 33.4946 36.1172 34.4787C36.642 38.6775 39.3975 40.0553 40.7097 40.3833C43.5964 44.3197 46.3956 44.9758 47.5984 44.6478C48.9106 46.616 53.8311 47.6001 54.4872 46.616C54.6587 46.3586 54.8934 46.2461 55.1431 46.219C55.6571 46.1631 56.2346 46.4688 56.4554 46.616C58.861 47.7094 64.6564 47.4033 68.5928 40.0553C73.5133 30.8703 71.1446 27.1346 69.9049 24.9656Z" fill="#DB792F"/>
  <path fill-rule="evenodd" clip-rule="evenodd" d="M9.73598 9.90897C8.93408 11.5125 9.00106 13.5998 10.781 14.9853L10.8293 15.0229L32.7932 26.3279C32.4442 30.5624 34.287 33.5843 35.4956 34.794C36.1029 38.9271 38.7802 40.491 40.3147 40.9544C42.9687 44.4847 45.6773 45.5271 47.3204 45.3613C47.7225 45.8182 48.2577 46.1963 48.8223 46.5006C49.5345 46.8846 50.3459 47.1792 51.1272 47.3746C51.9057 47.5692 52.6845 47.6727 53.3336 47.6553C53.6568 47.6467 53.9741 47.6075 54.2525 47.5191C54.5209 47.434 54.8312 47.278 55.0305 46.979C55.0622 46.9314 55.0897 46.9108 55.1091 46.8997C55.1304 46.8875 55.162 46.8757 55.2115 46.8703C55.3256 46.8579 55.4886 46.8849 55.678 46.9553C55.8605 47.0232 56.015 47.1117 56.0889 47.161L56.1331 47.1904L56.1814 47.2123C58.9439 48.468 65.0917 47.9743 69.1686 40.3642C71.6651 35.7041 72.3524 32.3527 72.2115 29.8418C72.0763 27.4334 71.1788 25.8704 70.5576 24.7885C70.5285 24.7377 70.4999 24.6879 70.472 24.6392C69.7538 23.3826 68.9401 22.7291 68.15 22.3928C67.7448 22.2204 67.344 22.137 67.0168 22.0902C67.0809 21.0184 66.8718 20.1034 66.462 19.334C65.9719 18.4136 65.2216 17.7515 64.4203 17.2807C63.0662 16.4851 61.4943 16.1924 60.5075 16.1243C59.638 14.2565 57.7984 13.508 55.9953 13.2992C54.2124 13.0928 52.3202 13.3867 51.0059 13.7473C49.5196 12.7255 47.715 12.7255 46.1392 13.0814C44.5529 13.4397 43.0833 14.1809 42.143 14.7987C39.2215 14.8857 37.3361 16.8261 36.4945 18.1926L14.3197 7.26589L14.2015 7.25407C12.2276 7.0567 10.5239 8.33348 9.73598 9.90897ZM42.7686 15.9585C43.5966 15.3984 44.9706 14.6905 46.4283 14.3613C47.5595 14.1058 48.6677 14.0924 49.6117 14.4786C44.9616 17.6071 37.9443 25.9699 39.8784 39.3655C38.6724 38.7421 37.1349 37.3424 36.7661 34.3997C35.753 25.5213 40.3404 18.4158 42.7686 15.9585ZM35.3146 32.3434C34.5215 30.9192 33.8211 28.7529 34.1419 26.0255L34.1951 25.5737L11.5412 13.9136C10.412 13.0014 10.3251 11.6646 10.9096 10.4959C11.4985 9.31827 12.6935 8.47831 13.9589 8.55089L37.0879 19.9478L37.368 19.3316C37.7495 18.4923 38.8644 17.005 40.657 16.388C38.2491 19.4594 35.1716 25.2465 35.3146 32.3434ZM41.3265 40.1164C38.8556 25.9056 46.8479 17.5172 51.1353 15.0748C52.3381 14.7178 54.1741 14.4093 55.8443 14.6027C57.3068 14.772 58.5168 15.3025 59.1682 16.3968C56.1108 17.6184 52.1476 20.2802 49.3485 24.6346C46.4092 29.2072 44.7823 35.6028 46.7739 44.0537C45.635 43.9591 43.5706 43.1245 41.3265 40.1164ZM48.2016 44.3672C46.0582 35.9329 47.6471 29.708 50.4523 25.3441C53.2508 20.9906 57.2898 18.4436 60.1688 17.4213C60.9543 17.4409 62.4957 17.6718 63.7556 18.412C64.4059 18.7941 64.9554 19.2965 65.3039 19.9507C65.6073 20.5204 65.779 21.244 65.6948 22.1752C63.0362 23.1 59.5013 25.2889 56.9669 29.044C54.3513 32.9194 52.8325 38.4178 54.3796 45.8085C54.2228 45.9114 54.0781 46.049 53.955 46.2273C53.9423 46.2349 53.9125 46.2504 53.8557 46.2684C53.7343 46.3069 53.5493 46.3369 53.2984 46.3437C52.7994 46.357 52.1431 46.276 51.4454 46.1016C50.7506 45.9279 50.0448 45.669 49.4449 45.3456C48.8824 45.0424 48.456 44.7057 48.2016 44.3672ZM55.6756 45.5953C54.1768 38.4999 55.6441 33.3494 58.0545 29.778C60.489 26.1709 63.9174 24.1282 66.3543 23.3376C66.4217 23.3455 66.4881 23.3523 66.5541 23.3591C66.8994 23.3945 67.2336 23.4289 67.6362 23.6002C68.1309 23.8107 68.7386 24.2506 69.3328 25.2903C69.3583 25.3349 69.3842 25.3801 69.4104 25.4257C70.0187 26.4864 70.7838 27.8207 70.9014 29.9153C71.0246 32.1107 70.436 35.2196 68.012 39.7446C64.2419 46.7821 58.8471 46.9471 56.7667 46.0367C56.6174 45.9423 56.3945 45.8218 56.1353 45.7255C56.0015 45.6757 55.8454 45.6276 55.6756 45.5953Z" fill="#934820"/>
  <path d="M69.9049 24.9656C68.5925 22.6694 67.0619 22.7787 66.2965 22.6694C67.0838 17.6833 61.7039 16.7648 60.0638 16.7648C58.7516 13.0908 53.3937 13.7031 50.8788 14.4685C48.2545 12.3691 44.0994 14.2498 42.3498 15.4526C39.2007 15.4526 37.32 17.8582 36.7732 19.061L14.1388 7.9078C10.8583 7.57979 8.23403 12.1703 11.1865 14.4685L33.4929 25.9497C32.968 30.411 35.0237 33.4946 36.1172 34.4787C36.642 38.6775 39.3975 40.0553 40.7097 40.3833C43.5964 44.3197 46.3956 44.9758 47.5984 44.6478C48.9106 46.616 53.8311 47.6001 54.4872 46.616C54.6587 46.3586 54.8934 46.2461 55.1431 46.219C55.6571 46.1631 56.2346 46.4688 56.4554 46.616C58.861 47.7094 64.6564 47.4033 68.5928 40.0553C73.5133 30.8703 71.1446 27.1346 69.9049 24.9656Z" fill="#DB792F"/>
  <path fill-rule="evenodd" clip-rule="evenodd" d="M9.73598 9.90897C8.93408 11.5125 9.00106 13.5998 10.781 14.9853L10.8293 15.0229L32.7932 26.3279C32.4442 30.5624 34.287 33.5843 35.4956 34.794C36.1029 38.9271 38.7802 40.491 40.3147 40.9544C42.9687 44.4847 45.6773 45.5271 47.3204 45.3613C47.7225 45.8182 48.2577 46.1963 48.8223 46.5006C49.5345 46.8846 50.3459 47.1792 51.1272 47.3746C51.9057 47.5692 52.6845 47.6727 53.3336 47.6553C53.6568 47.6467 53.9741 47.6075 54.2525 47.5191C54.5209 47.434 54.8312 47.278 55.0305 46.979C55.0622 46.9314 55.0897 46.9108 55.1091 46.8997C55.1304 46.8875 55.162 46.8757 55.2115 46.8703C55.3256 46.8579 55.4886 46.8849 55.678 46.9553C55.8605 47.0232 56.015 47.1117 56.0889 47.161L56.1331 47.1904L56.1814 47.2123C58.9439 48.468 65.0917 47.9743 69.1686 40.3642C71.6651 35.7041 72.3524 32.3527 72.2115 29.8418C72.0763 27.4334 71.1788 25.8704 70.5576 24.7885C70.5285 24.7377 70.4999 24.6879 70.472 24.6392C69.7538 23.3826 68.9401 22.7291 68.15 22.3928C67.7448 22.2204 67.344 22.137 67.0168 22.0902C67.0809 21.0184 66.8718 20.1034 66.462 19.334C65.9719 18.4136 65.2216 17.7515 64.4203 17.2807C63.0662 16.4851 61.4943 16.1924 60.5075 16.1243C59.638 14.2565 57.7984 13.508 55.9953 13.2992C54.2124 13.0928 52.3202 13.3867 51.0059 13.7473C49.5196 12.7255 47.715 12.7255 46.1392 13.0814C44.5529 13.4397 43.0833 14.1809 42.143 14.7987C39.2215 14.8857 37.3361 16.8261 36.4945 18.1926L14.3197 7.26589L14.2015 7.25407C12.2276 7.0567 10.5239 8.33348 9.73598 9.90897ZM35.6814 19.2547L13.9589 8.55089C12.6935 8.47831 11.4985 9.31827 10.9096 10.4959C10.3251 11.6646 10.412 13.0014 11.5412 13.9136L33.0701 24.9947C33.3152 24.1532 33.6672 23.105 34.1002 22.0849C34.5261 21.0819 35.0575 20.0383 35.6814 19.2547ZM34.1371 26.0671C34.352 25.2178 34.7637 23.8798 35.3081 22.5977C35.8744 21.2635 36.5351 20.1111 37.191 19.5638L37.306 19.4679L37.368 19.3316C37.7495 18.4923 38.8644 17.005 40.657 16.388C38.2491 19.4594 35.1716 25.2465 35.3146 32.3434C34.5255 30.9264 33.8282 28.775 34.1371 26.0671ZM36.7661 34.3997C35.753 25.5213 40.3404 18.4158 42.7686 15.9585C43.5966 15.3984 44.9706 14.6905 46.4283 14.3613C47.5595 14.1058 48.6677 14.0924 49.6117 14.4786C44.9616 17.6071 37.9443 25.9699 39.8784 39.3655C38.6724 38.7421 37.1349 37.3424 36.7661 34.3997ZM41.3265 40.1164C38.8556 25.9056 46.8479 17.5172 51.1353 15.0748C52.3381 14.7178 54.1741 14.4093 55.8443 14.6027C57.3068 14.772 58.5168 15.3025 59.1682 16.3968C56.1108 17.6184 52.1476 20.2802 49.3485 24.6346C46.4092 29.2072 44.7823 35.6028 46.7739 44.0537C45.635 43.9591 43.5706 43.1245 41.3265 40.1164ZM48.2016 44.3672C46.0582 35.9329 47.6471 29.708 50.4523 25.3441C53.2508 20.9906 57.2898 18.4436 60.1688 17.4213C60.9543 17.4409 62.4957 17.6718 63.7556 18.412C64.4059 18.7941 64.9554 19.2965 65.3039 19.9507C65.6073 20.5204 65.779 21.244 65.6948 22.1752C63.0362 23.1 59.5013 25.2889 56.9669 29.044C54.3513 32.9194 52.8325 38.4178 54.3796 45.8085C54.2228 45.9114 54.0781 46.049 53.955 46.2273C53.9423 46.2349 53.9125 46.2504 53.8557 46.2684C53.7343 46.3069 53.5493 46.3369 53.2984 46.3437C52.7994 46.357 52.1431 46.276 51.4454 46.1016C50.7506 45.9279 50.0448 45.669 49.4449 45.3456C48.8824 45.0424 48.456 44.7057 48.2016 44.3672ZM55.6756 45.5953C54.1768 38.4999 55.6441 33.3494 58.0545 29.778C60.489 26.1709 63.9174 24.1282 66.3543 23.3376C66.4217 23.3455 66.4881 23.3523 66.5541 23.3591C66.8994 23.3945 67.2336 23.4289 67.6362 23.6002C68.1309 23.8107 68.7386 24.2506 69.3328 25.2903C69.3583 25.3349 69.3842 25.3801 69.4104 25.4257C70.0187 26.4864 70.7838 27.8207 70.9014 29.9153C71.0246 32.1107 70.436 35.2196 68.012 39.7446C64.2419 46.7821 58.8471 46.9471 56.7667 46.0367C56.6174 45.9423 56.3945 45.8218 56.1353 45.7255C56.0015 45.6757 55.8454 45.6276 55.6756 45.5953Z" fill="#934820"/>
  <path d="M38.117 20.604C35.4276 25.8059 39.6401 33.3279 47.5259 37.4048C55.4116 41.4817 63.9845 40.5696 66.6738 35.3677C69.3632 30.1657 65.1507 22.6438 57.265 18.5669C49.3792 14.49 40.8064 15.402 38.117 20.604Z" fill="#ED9C43"/>
  <path d="M35.4615 19.0609L14.1388 8.57839C12.9159 8.45611 11.9721 9.33073 11.1865 10.2019L34.1492 21.6832C34.4116 20.8943 35.1334 19.6063 35.4615 19.0609Z" fill="#ED9C43"/>
  <path d="M62.5634 35.4125C60.5243 39.6586 60.2998 43.7868 62.0619 44.6331C63.8241 45.4793 66.9056 42.7231 68.9447 38.4769C70.9838 34.2308 71.2083 30.1026 69.4462 29.2564C67.684 28.4101 64.6025 31.1663 62.5634 35.4125Z" fill="#CE6B28"/>
  <path fill-rule="evenodd" clip-rule="evenodd" d="M61.5423 41.3334C61.6273 39.7702 62.1632 37.7613 63.1548 35.6965C64.1464 33.6317 65.3792 31.9574 66.546 30.9138C67.1306 30.3909 67.6735 30.0489 68.1373 29.8811C68.5982 29.7143 68.9285 29.7356 69.1621 29.8478C69.3958 29.96 69.6189 30.2045 69.7769 30.6684C69.9359 31.1354 70.0084 31.7729 69.9658 32.556C69.8808 34.1192 69.3448 36.1281 68.3533 38.1929C67.3617 40.2577 66.1289 41.932 64.9621 42.9756C64.3774 43.4985 63.8346 43.8405 63.3708 44.0084C62.9099 44.1751 62.5796 44.1538 62.3459 44.0416C62.1123 43.9294 61.8891 43.685 61.7312 43.221C61.5722 42.7541 61.4997 42.1166 61.5423 41.3334ZM62.0619 44.6331C60.2998 43.7868 60.5243 39.6586 62.5634 35.4125C64.6025 31.1663 67.684 28.4101 69.4462 29.2564C71.2083 30.1026 70.9838 34.2308 68.9447 38.4769C66.9056 42.7231 63.8241 45.4793 62.0619 44.6331Z" fill="#934820"/>
  <path fill-rule="evenodd" clip-rule="evenodd" d="M39.309 15.8579C38.9911 15.6841 38.5925 15.8009 38.4186 16.1188C37.0056 18.703 36.6412 21.7091 36.7686 23.919C35.4995 29.1631 37.8422 33.17 39.4029 34.7578C39.503 37.5588 41.0712 40.8734 43.3229 44.0406C43.5328 44.3359 43.9424 44.4051 44.2377 44.1952C44.5331 43.9853 44.6023 43.5757 44.3923 43.2803C42.1095 40.0693 40.7099 36.9167 40.7099 34.4757V34.1885L40.4988 33.9936C39.2131 32.8068 36.8243 29.1047 38.066 24.1377L38.0909 24.0382L38.0842 23.9359C37.951 21.8933 38.285 19.0982 39.5699 16.7483C39.7437 16.4304 39.6269 16.0317 39.309 15.8579Z" fill="#934820"/>
  <path fill-rule="evenodd" clip-rule="evenodd" d="M40.7526 15.8579C40.4347 15.6841 40.036 15.8009 39.8622 16.1188C38.4492 18.703 38.0848 21.7091 38.2122 23.919C36.9428 29.1641 39.2867 33.1716 40.8473 34.7587C40.9057 36.1666 41.387 37.936 42.1492 39.5613C42.9607 41.2916 44.1441 42.9729 45.6095 43.8888C45.9168 44.0808 46.3215 43.9874 46.5136 43.6802C46.7056 43.3729 46.6122 42.9681 46.3049 42.7761C45.1461 42.0518 44.0995 40.6297 43.3372 39.0042C42.5776 37.3846 42.1535 35.6769 42.1535 34.4757V34.1884L41.9424 33.9936C40.6567 32.8068 38.2678 29.1047 39.5096 24.1377L39.5345 24.0382L39.5278 23.9359C39.3946 21.8933 39.7285 19.0982 41.0135 16.7483C41.1873 16.4304 41.0705 16.0317 40.7526 15.8579ZM65.1593 43.2405C64.9273 42.9621 64.5136 42.9245 64.2352 43.1565C61.3213 45.5848 57.7392 45.18 56.347 44.6828C56.0058 44.5609 55.6303 44.7388 55.5085 45.08C55.3866 45.4212 55.5644 45.7966 55.9057 45.9185C57.5751 46.5147 61.6909 46.9848 65.0753 44.1645C65.3536 43.9325 65.3912 43.5188 65.1593 43.2405ZM47.8176 43.1701C47.5468 43.4108 47.5224 43.8255 47.7631 44.0963C48.2599 44.6552 49.1614 45.3915 50.3047 45.8518C51.4593 46.3167 52.8961 46.5121 54.4018 45.9098C54.7382 45.7752 54.9018 45.3934 54.7673 45.057C54.6327 44.7206 54.2509 44.5569 53.9145 44.6915C52.7959 45.139 51.7177 45.0063 50.7948 44.6347C49.8605 44.2585 49.1218 43.6499 48.7438 43.2246C48.5031 42.9538 48.0884 42.9294 47.8176 43.1701Z" fill="#FCCD0F"/>
  <path d="M61.0468 39.3968C61.5717 35.7228 63.6711 32.6174 64.6552 31.5239C66.2954 29.5557 63.3431 28.2436 60.7188 32.8361C58.0945 37.4286 60.3907 43.9893 61.0468 39.3968Z" fill="#FCCD0F"/>
  <path d="M53.8546 36.7366C54.5265 32.0178 57.2141 28.0293 58.4739 26.6249C60.5736 24.097 56.7942 22.4117 53.4346 28.3102C50.0751 34.2087 53.0147 42.6351 53.8546 36.7366Z" fill="#FCCD0F"/>
  <path d="M45.9817 32.1434C46.6537 27.4246 49.3413 23.436 50.6011 22.0316C52.7008 19.5037 48.9213 17.8184 45.5618 23.7169C42.2023 29.6154 45.1419 38.0419 45.9817 32.1434Z" fill="#FCCD0F"/>
  <path d="M50.6633 25.1693C49.8869 26.3931 50.1708 28.023 51.0886 28.6053C52.0065 29.1877 52.9417 28.4284 53.7181 27.2045C54.4946 25.9807 54.8183 24.7558 53.9004 24.1735C52.9826 23.5912 51.4398 23.9455 50.6633 25.1693Z" fill="white"/>
  <path d="M57.969 29.8208C57.2373 30.974 57.5048 32.5099 58.3697 33.0586C59.2346 33.6074 60.1158 32.8919 60.8475 31.7387C61.5791 30.5855 61.8842 29.4312 61.0193 28.8825C60.1544 28.3338 58.7006 28.6676 57.969 29.8208Z" fill="white"/>
  <path d="M44.2678 21.9993C43.5751 23.091 43.8284 24.5449 44.6471 25.0644C45.4659 25.5839 46.3001 24.9065 46.9927 23.8148C47.6853 22.7231 47.9741 21.6305 47.1553 21.1111C46.3366 20.5916 44.9604 20.9076 44.2678 21.9993Z" fill="white"/>
  <path d="M54.1598 57.5179C53.8783 58.4853 54.3834 59.5186 55.109 59.7297C55.8346 59.9408 56.312 59.2528 56.5934 58.2853C56.8749 57.3179 56.8539 56.4374 56.1283 56.2263C55.4027 56.0152 54.4412 56.5504 54.1598 57.5179Z" fill="white"/>
  <path d="M40.2596 20.4234C39.8644 21.0462 40.0089 21.8757 40.476 22.1721C40.9432 22.4685 41.4191 22.082 41.8142 21.4592C42.2094 20.8364 42.3741 20.213 41.907 19.9166C41.4399 19.6203 40.6547 19.8006 40.2596 20.4234Z" fill="white"/>
  <path d="M9.2276 4.68296C8.23933 4.57672 7.32301 5.24583 7.24333 5.98703C7.16365 6.72823 7.91438 7.073 8.90264 7.17924C9.89091 7.28549 10.7425 7.11298 10.8222 6.37178C10.9018 5.63058 10.2159 4.78921 9.2276 4.68296Z" fill="#F9BD62"/>
  <path d="M55.143 46.9414C58.2268 49.0561 62.6878 47.2695 63.6719 46.6134C61.8349 49.5001 56.8925 49.347 55.471 48.5816C51.797 50.4186 47.5981 47.1601 45.958 45.3013H47.2701C50.5505 48.9097 54.8149 47.9256 55.143 46.9414Z" fill="white"/>
  <path d="M56.7821 64.3275C61.2434 64.5899 61.1561 60.5004 60.7187 58.4229C59.7347 62.0312 59.0785 62.3593 56.7822 62.6873C54.9452 62.9497 55.798 64.3275 56.7821 64.3275Z" fill="white"/>
</svg>
