<svg width="65" height="63" viewBox="0 0 65 63" fill="none" xmlns="http://www.w3.org/2000/svg">
  <path d="M36.7283 6.61743H28.2458C13.1984 6.61743 1 18.8158 1 33.8633V33.8674C1 48.9149 13.1984 61.1133 28.2458 61.1133H36.7283C51.7758 61.1133 63.9742 48.9149 63.9742 33.8674V33.8633C63.9742 18.8158 51.7758 6.61743 36.7283 6.61743Z" fill="#F0981C" stroke="#4B371F" stroke-width="2"/>
  <path opacity="0.8" d="M41.0023 7.97119C43.1313 8.85686 44.9899 11.5222 47.0233 12.6532C53.0774 16.0212 57.984 23.7345 57.984 32.2045C57.984 46.6996 49.1272 57.2029 32.9856 57.2029H28.3368C21.2681 57.2029 17.0185 55.6894 14.4072 54.8993C18.4863 57.5065 23.0477 60.1136 28.2495 60.1136H36.7278C51.2229 60.1136 62.9737 48.3628 62.9737 33.8677C62.9737 20.828 53.4641 10.0128 41.0023 7.97119Z" fill="#FFD757"/>
  <path d="M27.3761 49.2942C38.6333 49.2942 47.759 40.5799 47.759 29.8302C47.759 19.0805 38.6333 10.3662 27.3761 10.3662C16.1189 10.3662 6.99316 19.0805 6.99316 29.8302C6.99316 40.5799 16.1189 49.2942 27.3761 49.2942Z" fill="#FACA0E"/>
  <path d="M52.2837 1H12.6946C9.67359 1 7.22461 3.44898 7.22461 6.46994V8.76105C7.22461 11.782 9.67359 14.231 12.6946 14.231H52.2837C55.3046 14.231 57.7536 11.782 57.7536 8.76105V6.46994C57.7536 3.44898 55.3046 1 52.2837 1Z" fill="#FEF5D2" stroke="#4B371F" stroke-width="2"/>
  <path d="M52.279 2H38.8359C41.3058 2 43.3059 4.00004 43.3059 6.46994V8.76105C43.3059 11.231 41.3058 13.231 38.8359 13.231H52.279C54.7489 13.231 56.749 11.231 56.749 8.76105V6.46994C56.749 4.00004 54.7489 2 52.279 2Z" fill="#E0CBA6"/>
  <path opacity="0.8" d="M52.279 2H47.7051C50.175 2 52.175 4.00004 52.175 6.46994V8.76105C52.175 11.231 50.175 13.231 47.7051 13.231H52.279C54.7489 13.231 56.7489 11.231 56.7489 8.76105V6.46994C56.7489 4.00004 54.7489 2 52.279 2Z" fill="#FEF5D2"/>
  <path d="M20.2042 21.4355C14.8899 23.3944 12.3533 34.4354 17.7678 39.6272" stroke="white" stroke-width="6" stroke-linecap="round" stroke-linejoin="round"/>
</svg>
