<svg width="63" height="69" viewBox="0 0 63 69" fill="none" xmlns="http://www.w3.org/2000/svg">
  <g filter="url(#filter0_i_105_61)">
    <path d="M48.0838 62.3496C35.73 68.8272 11.626 69.5362 4.51503 53.3456C-2.59592 37.1527 5.18967 14.0036 30.2005 12.722C55.2114 11.4381 55.8815 33.6835 55.8815 33.6835C56.1515 33.9478 56.409 34.2163 56.6541 34.4908C58.0003 35.9778 59.0127 37.6107 59.6941 39.3313C62.7633 47.0904 59.038 56.6039 48.0838 62.35V62.3496Z" fill="#FFD527"/>
  </g>
  <path d="M56.8568 33.2445C56.8443 33.0806 56.8256 32.8706 56.7978 32.6199C56.7273 31.9843 56.5981 31.0851 56.3627 30.0132C55.8929 27.8737 54.9942 25.0214 53.2738 22.2006C51.5497 19.3735 48.9976 16.5752 45.2344 14.5728C41.4706 12.57 36.5539 11.3945 30.1494 11.7233C17.3026 12.3816 8.78008 18.6827 4.42665 26.9773C0.0961223 35.2283 -0.0736921 45.3833 3.59943 53.7477L3.59945 53.7477C7.34847 62.2837 15.5519 66.2793 24.2117 67.3408C32.222 68.3226 40.8043 66.8278 47.0838 63.9528V64.0038L48.5483 63.2356C59.8141 57.326 63.9345 47.3328 60.624 38.9635L60.6239 38.9631C59.8972 37.1284 58.8206 35.3944 57.3977 33.8222C57.2227 33.6263 57.0424 33.4339 56.8568 33.2445Z" stroke="#4B371F" stroke-width="2"/>
  <g opacity="0.6">
    <path d="M14.8338 20.6057C18.9834 18.2089 23.8987 16.8498 29.4441 16.5658C30.3078 16.5215 31.1647 16.5037 31.988 16.5139C41.0786 16.6308 47.6038 20.0501 51.3801 26.6786C52.4783 28.6068 53.1791 30.5271 53.6276 32.1642C53.3606 30.3914 52.6772 27.3653 50.9426 24.3192C47.3905 18.0841 41.2526 14.8674 32.7012 14.7574C31.9267 14.7476 31.1209 14.7642 30.3082 14.8058C25.0922 15.0728 20.4684 16.3513 16.5651 18.6059C13.9266 20.1303 11.6558 22.0725 9.78613 24.3998C11.2908 22.9469 12.9767 21.6781 14.8346 20.6049L14.8338 20.6057Z" fill="white"/>
  </g>
  <path d="M16.4113 55.4967C20.403 55.3796 23.5811 53.3099 23.5096 50.8739C23.4382 48.4378 20.1443 46.5579 16.1525 46.675C12.1608 46.7921 8.98273 48.8618 9.05418 51.2978C9.12562 53.7339 12.4195 55.6138 16.4113 55.4967Z" fill="#FF765F"/>
  <path d="M60.434 40.269C59.8921 41.3463 58.9221 42.426 57.636 43.2829C54.9366 45.0758 51.8607 45.1949 50.7655 43.5472C49.6719 41.9 50.9716 39.1099 53.6709 37.317C55.0142 36.4234 56.4497 35.9458 57.6878 35.8955C58.9039 37.2391 59.8187 38.7143 60.4344 40.269H60.434Z" fill="#FF765F"/>
  <path d="M40.0554 39.9377C40.0554 39.9377 38.4698 42.2525 32.9717 41.9276C32.9717 41.9276 36.4122 48.8238 39.3142 48.1526C42.2162 47.4813 40.5364 43.9614 40.0554 39.9377Z" fill="#591428"/>
  <path d="M40.7448 47.1009C40.7448 47.1009 40.0304 41.8157 34.2275 43.241C34.2275 43.241 35.9943 46.4289 37.7603 47.262C39.5263 48.0951 40.5894 47.5759 40.7448 47.1009Z" fill="#FF765F"/>
  <path d="M38.9209 48.9174C35.7512 48.9174 32.685 42.9651 32.3277 42.2493C32.2131 42.0193 32.2293 41.7456 32.3711 41.5311C32.513 41.3167 32.7584 41.1968 33.0144 41.2089C37.957 41.5028 39.4537 39.5416 39.4681 39.5216C39.6375 39.2743 39.9393 39.162 40.2305 39.2338C40.5217 39.3053 40.735 39.5545 40.7705 39.8521C40.8847 40.8077 41.0677 41.7301 41.2447 42.6225C41.7878 45.3597 42.3493 48.1898 39.4764 48.8542C39.2911 48.897 39.1055 48.9174 38.9205 48.9174H38.9209ZM34.1984 42.6773C35.4634 44.8522 37.6518 47.7943 39.1527 47.4513C40.5353 47.1313 40.4373 45.95 39.833 42.9027C39.7351 42.41 39.63 41.8802 39.5354 41.3315C38.5704 41.9532 36.8959 42.6441 34.1988 42.6777L34.1984 42.6773Z" fill="#591428"/>
  <path d="M25.0323 47.911C27.8171 47.3868 29.5826 44.348 28.9756 41.1235C28.3687 37.8991 25.6192 35.7101 22.8343 36.2342C20.0495 36.7584 18.284 39.7973 18.8909 43.0217C19.4979 46.2462 22.2474 48.4352 25.0323 47.911Z" fill="#591428"/>
  <path d="M22.9133 43.8983C24.0482 43.6847 24.7676 42.4463 24.5203 41.1323C24.2729 39.8183 23.1525 38.9262 22.0177 39.1398C20.8828 39.3534 20.1634 40.5918 20.4107 41.9058C20.6581 43.2198 21.7785 44.1119 22.9133 43.8983Z" fill="white"/>
  <g opacity="0.35">
    <path d="M27.3217 44.2544C27.4421 43.3807 26.9281 42.5881 26.1736 42.4841C25.419 42.38 24.7097 43.004 24.5892 43.8777C24.4687 44.7514 24.9828 45.5441 25.7373 45.6481C26.4919 45.7521 27.2012 45.1282 27.3217 44.2544Z" fill="white"/>
  </g>
  <path d="M47.3733 42.0523C49.9603 41.5653 51.6004 38.7424 51.0365 35.747C50.4727 32.7516 47.9185 30.718 45.3316 31.205C42.7446 31.6919 41.1045 34.5149 41.6683 37.5103C42.2322 40.5057 44.7864 42.5392 47.3733 42.0523Z" fill="#591428"/>
  <path d="M45.4048 38.3246C46.459 38.1262 47.1273 36.9759 46.8975 35.7552C46.6678 34.5346 45.6269 33.706 44.5728 33.9044C43.5186 34.1028 42.8503 35.2532 43.0801 36.4738C43.3098 37.6944 44.3506 38.523 45.4048 38.3246Z" fill="white"/>
  <g opacity="0.35">
    <path d="M49.4988 38.657C49.6107 37.8453 49.1332 37.109 48.4323 37.0123C47.7313 36.9157 47.0723 37.4953 46.9604 38.307C46.8485 39.1186 47.3261 39.855 48.027 39.9516C48.728 40.0482 49.3869 39.4686 49.4988 38.657Z" fill="white"/>
  </g>
  <path d="M35.9717 1.40876L35.9791 1.40589C36.4129 1.23903 36.8826 1.11823 37.3787 1.05356L35.9717 1.40876ZM35.9717 1.40876L35.9642 1.41176M35.9717 1.40876L35.9642 1.41176M35.9642 1.41176C32.4372 2.83385 30.5437 6.3448 30.3262 9.77041L30.3169 9.77841L30.3069 10.2256C30.2393 13.2639 30.7361 16.1472 31.5038 19.0132L31.5088 19.0316M35.9642 1.41176L31.5088 19.0316M31.5088 19.0316L31.5144 19.0498M31.5088 19.0316L31.5144 19.0498M31.5144 19.0498C31.8214 20.043 32.7896 20.3002 33.4331 20.2119C33.7759 20.1649 34.1476 20.0178 34.442 19.7289C34.7546 19.4223 34.9427 18.9872 34.9094 18.4923C34.7567 15.9049 34.8557 13.2322 35.4291 10.7789C35.5409 10.3295 35.7086 9.7309 35.9485 9.14084C36.1033 8.75991 36.2775 8.40968 36.4685 8.11469M31.5144 19.0498L36.4685 8.11469M40.7079 1.56678C41.6482 2.04104 42.452 2.85458 42.6503 3.96654C42.8513 5.09372 42.357 6.11313 41.595 6.83358C40.8347 7.55252 39.7569 8.03855 38.5574 8.19498L40.7079 1.56678ZM40.7079 1.56678C39.76 1.0887 38.5795 0.896985 37.3788 1.05355L40.7079 1.56678ZM36.4685 8.11469C37.1253 8.25706 37.8362 8.28905 38.5573 8.19499L36.4685 8.11469Z" fill="#682942" stroke="#4B371F" stroke-width="2"/>
  <path d="M12.8574 15.8188L12.8573 15.8188C11.3629 12.531 11.4157 8.36391 14.2472 5.72577L14.2537 5.71976L14.2603 5.71385C14.5979 5.41019 14.9889 5.14059 15.4267 4.91665L15.4268 4.91662C16.4877 4.37411 17.667 4.17618 18.7349 4.30981C19.7931 4.44222 20.8392 4.91827 21.4779 5.83126C22.1367 6.77281 22.1577 7.8883 21.7466 8.85863C21.3425 9.81226 20.5286 10.6339 19.4699 11.1752L12.8574 15.8188ZM12.8574 15.8188C14.134 18.6434 15.862 21.1424 17.8334 23.5395L17.8444 23.5529L17.8559 23.5659C18.4926 24.2876 19.4293 24.2738 20.0399 23.9561C20.3534 23.793 20.6647 23.5126 20.8273 23.1056C21.0012 22.6701 20.9624 22.191 20.7276 21.7704C19.4389 19.4179 18.3469 16.9068 17.7926 14.4485C17.6973 13.9959 17.5884 13.3892 17.5497 12.7687C17.5272 12.4079 17.5305 12.0706 17.5636 11.7718C18.2073 11.6858 18.8573 11.4885 19.4697 11.1753L12.8574 15.8188Z" fill="#682942" stroke="#4B371F" stroke-width="2"/>
  <defs>
    <filter id="filter0_i_105_61" x="0" y="10.6685" width="62.7373" height="57.9734" filterUnits="userSpaceOnUse" color-interpolation-filters="sRGB">
      <feFlood flood-opacity="0" result="BackgroundImageFix"/>
      <feBlend mode="normal" in="SourceGraphic" in2="BackgroundImageFix" result="shape"/>
      <feColorMatrix in="SourceAlpha" type="matrix" values="0 0 0 0 0 0 0 0 0 0 0 0 0 0 0 0 0 0 127 0" result="hardAlpha"/>
      <feOffset dx="3" dy="-7"/>
      <feComposite in2="hardAlpha" operator="arithmetic" k2="-1" k3="1"/>
      <feColorMatrix type="matrix" values="0 0 0 0 0.968627 0 0 0 0 0.65098 0 0 0 0 0.137255 0 0 0 1 0"/>
      <feBlend mode="normal" in2="shape" result="effect1_innerShadow_105_61"/>
    </filter>
  </defs>
</svg>
