<svg width="72" height="71" viewBox="0 0 72 71" fill="none" xmlns="http://www.w3.org/2000/svg">
  <path d="M57.2252 30.6151C60.6953 46.3705 52.1045 61.6544 38.0371 64.7526C23.9698 67.8508 9.75304 57.5902 6.28302 41.8348C2.813 26.0794 11.4038 10.7955 25.4711 7.69729C39.5384 4.59906 53.7552 14.8597 57.2252 30.6151Z" fill="#CF7200"/>
  <path fill-rule="evenodd" clip-rule="evenodd" d="M37.607 62.7994C50.3933 59.9833 58.5516 45.936 55.2721 31.0453C51.9925 16.1546 38.6876 6.83438 25.9013 9.65048C13.1149 12.4666 4.95664 26.5139 8.23621 41.4046C11.5158 56.2953 24.8206 65.6155 37.607 62.7994ZM38.0371 64.7526C52.1045 61.6544 60.6953 46.3705 57.2252 30.6151C53.7552 14.8597 39.5384 4.59906 25.4711 7.69729C11.4038 10.7955 2.813 26.0794 6.28302 41.8348C9.75304 57.5902 23.9698 67.8508 38.0371 64.7526Z" fill="#4B371F"/>
  <path d="M65.5709 28.5279C69.041 44.2833 60.4502 59.5672 46.3829 62.6654C32.3155 65.7637 18.0987 55.503 14.6287 39.7476C11.1587 23.9922 19.7495 8.70836 33.8168 5.61013C47.8841 2.5119 62.1009 12.7726 65.5709 28.5279Z" fill="#FFF549"/>
  <path fill-rule="evenodd" clip-rule="evenodd" d="M45.9527 60.7122C58.739 57.8961 66.8973 43.8488 63.6178 28.9581C60.3382 14.0674 47.0333 4.74722 34.247 7.56332C21.4607 10.3794 13.3023 24.4268 16.5819 39.3174C19.8615 54.2081 33.1663 63.5283 45.9527 60.7122ZM46.3829 62.6654C60.4502 59.5672 69.041 44.2833 65.5709 28.5279C62.1009 12.7726 47.8841 2.5119 33.8168 5.61013C19.7495 8.70836 11.1587 23.9922 14.6287 39.7476C18.0987 55.503 32.3155 65.7637 46.3829 62.6654Z" fill="#4B371F"/>
  <path d="M58.1359 30.166C60.5929 41.3222 54.5099 52.1446 44.549 54.3384C34.588 56.5322 24.5213 49.2668 22.0642 38.1105C19.6071 26.9543 25.6902 16.132 35.6511 13.9381C45.612 11.7443 55.6788 19.0098 58.1359 30.166Z" fill="#FFCF23"/>
  <path fill-rule="evenodd" clip-rule="evenodd" d="M44.1188 52.3852C52.7987 50.4735 58.4493 40.8877 56.1827 30.5962C53.916 20.3046 44.7612 13.9796 36.0812 15.8913C27.4013 17.803 21.7507 27.3888 24.0174 37.6804C26.284 47.9719 35.4388 54.2969 44.1188 52.3852ZM44.549 54.3384C54.5099 52.1446 60.5929 41.3222 58.1359 30.166C55.6788 19.0098 45.612 11.7443 35.6511 13.9381C25.6902 16.132 19.6071 26.9543 22.0642 38.1105C24.5213 49.2668 34.588 56.5322 44.549 54.3384Z" fill="#AF7026"/>
  <path d="M42.6811 21.9148C43.4782 21.7013 44.3344 21.7851 45.1354 22.155C45.9363 22.5249 46.6436 23.1632 47.1627 23.9845C47.6818 24.8058 47.9878 25.7708 48.0399 26.7505C48.0919 27.7302 47.8875 28.6777 47.4539 29.4663C48.2679 30.7693 48.8181 32.2551 49.0577 33.7976C49.2973 35.3401 49.2192 36.8936 48.8302 38.3261C48.4411 39.7587 47.7526 41.0279 46.823 42.026C45.8934 43.0241 44.7504 43.7215 43.4909 44.0589C42.2314 44.3964 40.8927 44.364 39.5887 43.9644C38.2846 43.5649 37.0537 42.8099 36.0005 41.7638C34.9473 40.7178 34.1029 39.4114 33.5392 37.9558C32.9755 36.5001 32.709 34.9383 32.7624 33.4029C32.2176 33.0728 31.7296 32.6147 31.3319 32.0598C30.9343 31.505 30.6364 30.8666 30.4587 30.1884C30.2811 29.5103 30.2278 28.8084 30.3026 28.1311C30.3774 27.4537 30.5785 26.8168 30.8921 26.264C31.2057 25.7113 31.6244 25.2558 32.1194 24.9289C32.6144 24.6019 33.1741 24.4112 33.76 24.3699C34.3459 24.3285 34.9442 24.4374 35.5138 24.6892C36.0834 24.941 36.6108 25.3296 37.0599 25.8285C37.9564 25.3593 38.9349 25.0972 39.9459 25.0552C40.111 24.2752 40.4493 23.5767 40.9283 23.0267C41.4073 22.4767 42.0109 22.0938 42.6811 21.9148Z" fill="#FFF549"/>
  <path fill-rule="evenodd" clip-rule="evenodd" d="M42.1648 19.9827C43.4457 19.64 44.7803 19.7883 45.9737 20.3394C47.1598 20.8872 48.1496 21.8031 48.8531 22.9161C49.5569 24.0296 49.9668 25.3266 50.0368 26.6446C50.0855 27.5611 49.969 28.4807 49.6817 29.341C50.3499 30.6344 50.8088 32.0424 51.0338 33.4908C51.3142 35.2959 51.2264 37.1333 50.7601 38.8505C50.2936 40.5681 49.4564 42.133 48.2863 43.3892C47.1134 44.6486 45.6473 45.5518 44.0083 45.991C42.3693 46.4301 40.648 46.381 39.0025 45.8768C37.3611 45.3739 35.8536 44.4372 34.5909 43.183C33.3284 41.929 32.3337 40.3817 31.674 38.6782C31.1446 37.3113 30.838 35.8624 30.77 34.4081C30.3735 34.0569 30.0169 33.6588 29.7061 33.225C29.1622 32.4661 28.7617 31.6035 28.5238 30.6955C28.2859 29.7874 28.212 28.8394 28.3145 27.9117C28.4169 26.9841 28.6952 26.083 29.1524 25.2772C29.6103 24.4701 30.2401 23.7733 31.017 23.2602C31.796 22.7456 32.6862 22.4408 33.6189 22.375C34.5497 22.3093 35.4728 22.4847 36.3221 22.8601C36.7167 23.0345 37.0909 23.2499 37.4412 23.5003C37.772 23.3902 38.1088 23.2999 38.4503 23.2298C38.6992 22.6815 39.0228 22.1693 39.42 21.7133C40.1462 20.8795 41.0885 20.2705 42.1635 19.9831C42.1639 19.9829 42.1643 19.9828 42.1648 19.9827ZM42.6809 21.915L42.1648 19.9827ZM42.6809 21.915C42.0107 22.094 41.4071 22.4769 40.9281 23.0268C40.4491 23.5768 40.1108 24.2753 39.9457 25.0553C38.9347 25.0973 37.9562 25.3595 37.0597 25.8286C36.6106 25.3298 36.0831 24.9411 35.5135 24.6893C34.9439 24.4376 34.3457 24.3286 33.7598 24.37C33.1739 24.4114 32.6142 24.6021 32.1192 24.929C31.6242 25.256 31.2055 25.7115 30.8919 26.2642C30.5783 26.8169 30.3772 27.4538 30.3024 28.1312C30.2276 28.8086 30.2808 29.5104 30.4585 30.1886C30.6362 30.8667 30.9341 31.5051 31.3317 32.06C31.7293 32.6148 32.2173 33.073 32.7622 33.403C32.7088 34.9384 32.9753 36.5003 33.539 37.9559C34.1027 39.4115 34.9471 40.7179 36.0003 41.764C37.0535 42.8101 38.2844 43.565 39.5885 43.9646C40.8925 44.3642 42.2312 44.3966 43.4907 44.0591C44.7501 43.7216 45.8932 43.0242 46.8228 42.0261C47.7524 41.0281 48.4409 39.7588 48.83 38.3263C49.219 36.8937 49.2971 35.3402 49.0575 33.7977C48.8179 32.2553 48.2677 30.7694 47.4537 29.4665C47.8873 28.6779 48.0917 27.7304 48.0397 26.7507C47.9876 25.771 47.6816 24.8059 47.1625 23.9846C46.6434 23.1633 45.9361 22.525 45.1351 22.1552C44.3342 21.7853 43.4779 21.7015 42.6809 21.915Z" fill="#AF7026"/>
  <path fill-rule="evenodd" clip-rule="evenodd" d="M33.4906 13.9263C34.0146 15.4981 33.1651 17.1971 31.5933 17.7211C27.9388 18.9393 25.933 21.995 24.8323 25.6643C23.7292 29.3417 23.7179 33.0882 23.7177 34.7307C23.7174 36.3876 22.3741 37.7305 20.7172 37.7303C19.0604 37.7301 17.7174 36.3867 17.7177 34.7299L17.7177 34.6878C17.7178 32.9874 17.7182 28.4978 19.0853 23.9404C20.4663 19.3368 23.4236 14.1199 29.6958 12.029C31.2676 11.505 32.9666 12.3545 33.4906 13.9263Z" fill="white"/>
</svg>
