<svg width="76" height="69" viewBox="0 0 76 69" fill="none" xmlns="http://www.w3.org/2000/svg">
  <g filter="url(#filter0_i_105_18)">
    <path d="M54.2006 11.5512C54.692 15.9526 51.5224 19.9189 47.121 20.4103C42.7196 20.9018 38.7533 17.7321 38.2618 13.3307C37.7704 8.92935 40.9401 4.96296 45.3415 4.47155C49.7428 3.98014 53.7092 7.1498 54.2006 11.5512Z" fill="#E49F63"/>
  </g>
  <path fill-rule="evenodd" clip-rule="evenodd" d="M45.4527 5.46543C41.6002 5.89556 38.8258 9.36732 39.256 13.2198L37.2683 13.4417C36.7156 8.49149 40.2805 4.03047 45.2308 3.47778C50.1811 2.92509 54.6421 6.49002 55.1948 11.4403C55.455 13.7716 54.801 15.9965 53.5202 17.753L51.9042 16.5747C52.902 15.2062 53.4098 13.4775 53.2071 11.6622C52.777 7.80969 49.3052 5.0353 45.4527 5.46543Z" fill="#4B371F"/>
  <path d="M51.0581 12.3055C51.3529 14.9463 49.4511 17.3261 46.8103 17.621C44.1695 17.9158 41.7896 16.014 41.4948 13.3732C41.2 10.7324 43.1017 8.35253 45.7426 8.05769C48.3834 7.76284 50.7632 9.66464 51.0581 12.3055Z" fill="#FABEBE"/>
  <path fill-rule="evenodd" clip-rule="evenodd" d="M45.8529 9.05157C43.7609 9.28513 42.2544 11.1703 42.4879 13.2623C42.7215 15.3542 44.6067 16.8608 46.6987 16.6272C48.7906 16.3936 50.2971 14.5084 50.0636 12.4165C49.83 10.3245 47.9448 8.818 45.8529 9.05157ZM40.5003 13.4842C40.1442 10.2945 42.4412 7.42004 45.6309 7.06392C48.8206 6.70779 51.6951 9.00485 52.0512 12.1946C52.4073 15.3843 50.1103 18.2587 46.9206 18.6148C43.7309 18.971 40.8564 16.6739 40.5003 13.4842Z" fill="#4B371F"/>
  <g filter="url(#filter1_i_105_18)">
    <path d="M11.6802 58.6595C2.4885 50.4067 6.83966 38.4219 11.1293 28.6639C13.7405 22.7243 22.2399 14.1772 36.0493 13.3759C54.8887 12.2828 63.375 26.8661 67.0348 39.7709C68.7324 40.5227 72.947 42.1366 72.4634 48.6456C71.9798 55.1546 64.7478 60.6016 50.2037 62.2254C35.6596 63.8492 20.8719 66.9123 11.6802 58.6595Z" fill="#E49F63"/>
  </g>
  <g filter="url(#filter2_i_105_18)">
    <path fill-rule="evenodd" clip-rule="evenodd" d="M10.2137 28.2614C12.9682 21.9955 21.7877 13.2016 35.9911 12.3775C45.7181 11.8131 52.8292 15.3095 57.9544 20.6303C62.9291 25.7949 65.9992 32.6387 67.8659 39.0436C68.7575 39.4386 70.1413 40.1089 71.303 41.3724C72.7126 42.9055 73.7208 45.2157 73.4604 48.7196C73.1897 52.3635 71.0258 55.6059 67.1481 58.1076C63.2864 60.599 57.6756 62.3972 50.3144 63.2191C48.64 63.4061 46.9525 63.6137 45.2637 63.8215C39.6894 64.5073 34.1012 65.1948 28.9251 65.146C22.1553 65.0822 15.87 63.7654 11.0119 59.4035C6.12787 55.0183 4.85676 49.6186 5.35308 44.1359C5.84436 38.709 8.06913 33.1397 10.2137 28.2614ZM65.6289 38.5507C63.7914 32.6407 60.9176 26.5895 56.514 22.0178C51.7712 17.0941 45.2195 13.8454 36.107 14.3741C22.6916 15.1526 14.5123 23.4529 12.0446 29.0663C9.89939 33.946 7.80374 39.248 7.34494 44.3162C6.89119 49.3286 8.04035 54.0476 12.348 57.9153C16.6816 61.8062 22.386 63.0843 28.944 63.1461C33.975 63.1936 39.3788 62.5292 44.9246 61.8473C46.636 61.6369 48.3609 61.4248 50.0925 61.2315C57.2755 60.4295 62.5527 58.6923 66.0639 56.427C69.5592 54.172 71.2531 51.4365 71.4659 48.5714C71.6892 45.5663 70.8319 43.815 69.8307 42.726C68.853 41.6627 67.6669 41.1413 66.7964 40.7587C66.7604 40.7428 66.725 40.7273 66.6901 40.7119C66.2751 40.5939 65.4235 40.4335 64.4752 40.675C63.5276 40.9163 62.3685 41.5862 61.4103 43.3876C61.151 43.8752 60.5455 44.0602 60.0579 43.8008C59.5703 43.5415 59.3852 42.9359 59.6446 42.4483C60.8538 40.175 62.4611 39.1241 63.9816 38.7368C64.5724 38.5864 65.1324 38.5404 65.6289 38.5507ZM24.3705 47.8891C24.3221 47.9077 24.2744 47.9261 24.2274 47.9442C23.7119 48.1426 23.1333 47.8855 22.935 47.3701C22.7366 46.8546 22.9937 46.276 23.5091 46.0776C23.5775 46.0513 23.6482 46.024 23.7211 45.9958C26.4953 44.9231 32.4603 42.6168 38.3297 47.3072C38.7611 47.6519 38.8314 48.2812 38.4866 48.7126C38.1418 49.1441 37.5126 49.2143 37.0811 48.8696C32.1174 44.9029 27.1438 46.8201 24.3705 47.8891Z" fill="#4B371F"/>
  </g>
  <g filter="url(#filter3_i_105_18)">
    <path d="M24.7385 18.6734C25.3405 24.0651 21.4577 28.9239 16.066 29.5259C10.6743 30.1278 5.81549 26.245 5.21351 20.8533C4.61153 15.4616 8.49436 10.6028 13.886 10.0008C19.2777 9.39887 24.1366 13.2817 24.7385 18.6734Z" fill="#E49F63"/>
  </g>
  <path d="M20.3559 19.1628C20.6876 22.1337 18.548 24.811 15.5771 25.1427C12.6062 25.4744 9.92888 23.3349 9.59718 20.364C9.26548 17.393 11.405 14.7157 14.3759 14.384C17.3469 14.0523 20.0242 16.1918 20.3559 19.1628Z" fill="#FABEBE"/>
  <path fill-rule="evenodd" clip-rule="evenodd" d="M14.4867 15.3777C12.0646 15.6481 10.3204 17.8308 10.5908 20.2528C10.8612 22.6749 13.0439 24.4191 15.466 24.1487C17.888 23.8783 19.6323 21.6956 19.3618 19.2735C19.0914 16.8515 16.9087 15.1072 14.4867 15.3777ZM8.60316 20.4747C8.21018 16.9549 10.745 13.783 14.2648 13.39C17.7846 12.997 20.9565 15.5318 21.3495 19.0516C21.7425 22.5714 19.2077 25.7434 15.6879 26.1363C12.1681 26.5293 8.99614 23.9945 8.60316 20.4747Z" fill="#4B371F"/>
  <path fill-rule="evenodd" clip-rule="evenodd" d="M13.9968 10.9947C9.154 11.5354 5.66644 15.8996 6.20714 20.7424C6.74783 25.5852 11.112 29.0728 15.9548 28.5321L16.1768 30.5197C10.2362 31.183 4.88275 26.9049 4.21949 20.9643C3.55623 15.0238 7.83433 9.67033 13.7749 9.00707C19.7155 8.34382 25.0689 12.6219 25.7322 18.5625L23.7445 18.7844C23.2038 13.9416 18.8396 10.454 13.9968 10.9947Z" fill="#4B371F"/>
  <path d="M41.2428 41.2565C41.064 44.6514 38.7767 47.2906 36.134 47.1515C33.4912 47.0123 31.4937 44.1475 31.6725 40.7526C31.8512 37.3578 34.1385 34.7185 36.7813 34.8577C39.424 34.9968 41.4215 37.8617 41.2428 41.2565Z" fill="black"/>
  <path d="M39.3622 40.255C39.3055 41.332 38.5798 42.1693 37.7414 42.1251C36.903 42.081 36.2693 41.1721 36.326 40.0951C36.3827 39.0181 37.1084 38.1808 37.9468 38.2249C38.7852 38.2691 39.4189 39.178 39.3622 40.255Z" fill="white"/>
  <path d="M54.4039 38.218C55.187 40.9935 57.5733 42.7494 59.734 42.1398C61.8947 41.5302 63.0115 38.786 62.2284 36.0105C61.4453 33.2349 59.059 31.479 56.8983 32.0886C54.7376 32.6982 53.6208 35.4424 54.4039 38.218Z" fill="black"/>
  <path d="M41.0864 34.7706C41.0061 36.2953 38.6751 37.412 35.8798 37.2648C33.0846 37.1176 30.8837 35.7623 30.964 34.2377C31.0443 32.713 33.3753 31.5964 36.1705 31.7435C38.9658 31.8907 41.1666 33.246 41.0864 34.7706Z" fill="#FED2AB"/>
  <path d="M60.171 29.7227C60.7273 30.9293 59.385 32.7341 57.173 33.7539C54.961 34.7738 52.7168 34.6224 52.1605 33.4159C51.6043 32.2093 52.9465 30.4045 55.1585 29.3846C57.3706 28.3648 59.6147 28.5161 60.171 29.7227Z" fill="#FED2AB"/>
  <path d="M59.941 36.9568C60.2117 38.0007 59.7723 39.0179 58.9596 39.2286C58.1469 39.4393 57.2686 38.7638 56.9979 37.7199C56.7273 36.6759 57.1666 35.6588 57.9793 35.448C58.792 35.2373 59.6703 35.9128 59.941 36.9568Z" fill="white"/>
  <g filter="url(#filter4_d_105_18)">
    <path d="M59.4872 44.4461C59.8558 47.7471 55.8729 50.9012 50.5913 51.4909C45.3096 52.0805 40.7292 49.8826 40.3607 46.5815C39.9921 43.2805 43.975 40.1265 49.2566 39.5368C54.5383 38.9471 59.1187 41.145 59.4872 44.4461Z" fill="#FED2AB"/>
  </g>
  <path d="M53.2197 40.7082C51.9268 40.6911 49.6212 40.9978 48.2612 41.4634C46.5125 42.0621 50.0562 44.894 51.8048 44.2953C53.5535 43.6966 54.8358 40.7294 53.2197 40.7082Z" fill="black"/>
  <path d="M52.3132 41.6162C52.3378 41.8362 51.8225 42.0744 51.1623 42.1481C50.5021 42.2218 49.947 42.1032 49.9224 41.8831C49.8978 41.663 50.4131 41.4249 51.0733 41.3512C51.7335 41.2774 52.2887 41.3961 52.3132 41.6162Z" fill="#D9D9D9"/>
  <path fill-rule="evenodd" clip-rule="evenodd" d="M51.5017 43.13C52.0379 42.9977 52.5799 43.3251 52.7122 43.8612C52.9208 44.7067 52.9682 45.9761 52.9452 47.1893C52.9217 48.4314 52.821 49.7321 52.6884 50.6968C52.6132 51.244 52.1087 51.6266 51.5616 51.5514C51.0145 51.4762 50.6318 50.9717 50.707 50.4246C50.8276 49.5466 50.9233 48.3248 50.9456 47.1514C50.9684 45.9491 50.911 44.9098 50.7704 44.3405C50.6381 43.8043 50.9655 43.2623 51.5017 43.13Z" fill="black"/>
  <defs>
    <filter id="filter0_i_105_18" x="38.2119" y="4.42139" width="16.0391" height="16.0393" filterUnits="userSpaceOnUse" color-interpolation-filters="sRGB">
      <feFlood flood-opacity="0" result="BackgroundImageFix"/>
      <feBlend mode="normal" in="SourceGraphic" in2="BackgroundImageFix" result="shape"/>
      <feColorMatrix in="SourceAlpha" type="matrix" values="0 0 0 0 0 0 0 0 0 0 0 0 0 0 0 0 0 0 127 0" result="hardAlpha"/>
      <feOffset dx="4" dy="-5"/>
      <feComposite in2="hardAlpha" operator="arithmetic" k2="-1" k3="1"/>
      <feColorMatrix type="matrix" values="0 0 0 0 0 0 0 0 0 0 0 0 0 0 0 0 0 0 0.25 0"/>
      <feBlend mode="normal" in2="shape" result="effect1_innerShadow_105_18"/>
    </filter>
    <filter id="filter1_i_105_18" x="6.25293" y="13.3181" width="66.249" height="50.8306" filterUnits="userSpaceOnUse" color-interpolation-filters="sRGB">
      <feFlood flood-opacity="0" result="BackgroundImageFix"/>
      <feBlend mode="normal" in="SourceGraphic" in2="BackgroundImageFix" result="shape"/>
      <feColorMatrix in="SourceAlpha" type="matrix" values="0 0 0 0 0 0 0 0 0 0 0 0 0 0 0 0 0 0 127 0" result="hardAlpha"/>
      <feOffset dx="5" dy="-6"/>
      <feComposite in2="hardAlpha" operator="arithmetic" k2="-1" k3="1"/>
      <feColorMatrix type="matrix" values="0 0 0 0 0 0 0 0 0 0 0 0 0 0 0 0 0 0 0.25 0"/>
      <feBlend mode="normal" in2="shape" result="effect1_innerShadow_105_18"/>
    </filter>
    <filter id="filter2_i_105_18" x="5.25293" y="12.3179" width="68.249" height="52.8306" filterUnits="userSpaceOnUse" color-interpolation-filters="sRGB">
      <feFlood flood-opacity="0" result="BackgroundImageFix"/>
      <feBlend mode="normal" in="SourceGraphic" in2="BackgroundImageFix" result="shape"/>
      <feColorMatrix in="SourceAlpha" type="matrix" values="0 0 0 0 0 0 0 0 0 0 0 0 0 0 0 0 0 0 127 0" result="hardAlpha"/>
      <feOffset dx="5" dy="-6"/>
      <feComposite in2="hardAlpha" operator="arithmetic" k2="-1" k3="1"/>
      <feColorMatrix type="matrix" values="0 0 0 0 0 0 0 0 0 0 0 0 0 0 0 0 0 0 0.25 0"/>
      <feBlend mode="normal" in2="shape" result="effect1_innerShadow_105_18"/>
    </filter>
    <filter id="filter3_i_105_18" x="5.15186" y="9.93921" width="19.6479" height="19.6482" filterUnits="userSpaceOnUse" color-interpolation-filters="sRGB">
      <feFlood flood-opacity="0" result="BackgroundImageFix"/>
      <feBlend mode="normal" in="SourceGraphic" in2="BackgroundImageFix" result="shape"/>
      <feColorMatrix in="SourceAlpha" type="matrix" values="0 0 0 0 0 0 0 0 0 0 0 0 0 0 0 0 0 0 127 0" result="hardAlpha"/>
      <feOffset dx="3" dy="-1"/>
      <feComposite in2="hardAlpha" operator="arithmetic" k2="-1" k3="1"/>
      <feColorMatrix type="matrix" values="0 0 0 0 0 0 0 0 0 0 0 0 0 0 0 0 0 0 0.25 0"/>
      <feBlend mode="normal" in2="shape" result="effect1_innerShadow_105_18"/>
    </filter>
    <filter id="filter4_d_105_18" x="39.3369" y="37.4412" width="20.1738" height="14.1453" filterUnits="userSpaceOnUse" color-interpolation-filters="sRGB">
      <feFlood flood-opacity="0" result="BackgroundImageFix"/>
      <feColorMatrix in="SourceAlpha" type="matrix" values="0 0 0 0 0 0 0 0 0 0 0 0 0 0 0 0 0 0 127 0" result="hardAlpha"/>
      <feOffset dx="-1" dy="-2"/>
      <feComposite in2="hardAlpha" operator="out"/>
      <feColorMatrix type="matrix" values="0 0 0 0 0 0 0 0 0 0 0 0 0 0 0 0 0 0 0.25 0"/>
      <feBlend mode="normal" in2="BackgroundImageFix" result="effect1_dropShadow_105_18"/>
      <feBlend mode="normal" in="SourceGraphic" in2="effect1_dropShadow_105_18" result="shape"/>
    </filter>
  </defs>
</svg>
