<svg width="66" height="69" viewBox="0 0 66 69" fill="none" xmlns="http://www.w3.org/2000/svg">
  <path d="M60.3121 42.3095C59.955 43.8577 60.7516 47.2901 62.9599 46.9616C60.7696 47.9232 56.8872 49.1038 54.0278 48.8158C52.4437 48.6568 48.9122 46.4365 47.5366 43.0431C46.5885 40.2048 47.9146 39.5342 48.0781 36.7049C46.7865 34.0406 44.0847 32.7459 45.0973 29.4725C45.7589 27.3378 47.6281 26.5262 51.3995 25.317C52.8862 23.6338 53.6333 22.3212 56.1146 21.5081C57.8563 20.938 60.7711 22.4532 63.9605 24.1259C61.9578 23.9879 60.8011 25.5331 60.9317 26.9012C61.0802 28.4569 62.5954 28.886 62.9299 31.7993C62.1033 33.7015 60.5716 33.9836 60.6556 35.9368C60.7036 37.0619 62.6104 38.9146 60.3106 42.3095H60.3121Z" fill="#9A814D"/>
  <path d="M38.6932 4.25855L38.9932 3.79209L38.7564 3.29059C38.5597 2.87401 38.2049 2.53899 37.8869 2.29459C37.5465 2.03295 37.1418 1.79491 36.7245 1.59834C35.9363 1.22712 34.8918 0.905796 34.017 1.02565L33.4646 1.10133L33.2386 1.61101C31.3622 5.8423 30.9603 10.4246 31.0664 13.9533L31.0664 13.9537C31.122 15.7798 31.3132 17.3447 31.5172 18.4649L31.5173 18.4652C31.6111 18.9797 31.7092 19.4113 31.8013 19.737L31.8978 20.0784L32.1879 20.2826C32.739 20.6706 33.2565 21.0263 33.6818 21.2517C33.7277 21.2764 33.78 21.3022 33.8087 21.3164C33.8151 21.3195 33.8203 21.3221 33.824 21.324L34.7009 21.7624L35.1566 20.8944L35.1881 20.8344L35.3291 20.5659L35.2972 20.2642C35.2079 19.4208 35.1497 18.6188 35.1221 17.858L35.122 17.8561C34.8445 10.585 37.127 6.69367 38.6932 4.25855Z" fill="#D9732B" stroke="#4B371F" stroke-width="2"/>
  <path d="M18.8006 3.16806L17.8064 3.31945L17.9634 4.31283C18.1026 5.19304 18.8824 7.66499 20.5313 9.59136C21.3692 10.5704 22.4727 11.4563 23.8795 11.882C25.2557 12.2984 26.8291 12.2459 28.5822 11.5456H29.3566L29.3841 10.5739C29.4284 9.0106 28.7401 6.86697 27.05 5.25547C25.3166 3.60268 22.6161 2.58709 18.8006 3.16806Z" fill="#54A833" stroke="#4B371F" stroke-width="2"/>
  <path d="M34.152 20.3694L34.152 20.3694L34.152 20.3694ZM34.152 20.3694L34.1521 20.3693L34.152 20.3694ZM49.6139 36.4602C49.5957 36.2905 49.5344 36.1284 49.4359 35.9891L48.5146 30.1882L49.5054 30.3235C49.5055 30.3234 49.5055 30.3233 49.5055 30.3231C49.5864 29.7313 49.8358 29.2866 50.3975 28.8029C51.0086 28.2767 51.9356 27.7506 53.3373 27.0301C53.4975 26.9477 53.6325 26.8236 53.728 26.6709C53.9052 26.3875 54.0592 26.129 54.201 25.8912C54.8664 24.7744 55.2615 24.1113 56.5186 23.4553L56.519 23.4552C56.8238 23.2959 57.4473 23.2504 58.5452 23.4753C59.5899 23.6893 60.8209 24.0911 62.1851 24.5402L62.1961 24.5438C62.6837 24.7044 63.1866 24.87 63.6918 25.0298C64.0613 25.1468 64.4652 25.0396 64.7281 24.7549C64.9911 24.4701 65.0658 24.059 64.9199 23.6999C62.8492 18.6049 58.9891 14.5148 53.0011 13.6286L53.0009 13.6286C45.4857 12.518 40.0464 14.6037 36.2276 16.068C35.3404 16.4082 34.5406 16.7148 33.8226 16.9401C33.5182 17.0356 33.2856 17.2669 33.1816 17.5537C32.9661 17.3534 32.6647 17.25 32.3521 17.2968C32.0231 17.3461 31.7305 17.3597 31.4666 17.3402C27.1915 14.4498 19.6376 10.2693 10.9675 15.0425C5.18519 18.2252 2.32499 23.6571 1.37494 29.2401C0.428513 34.8018 1.35566 40.6056 3.23844 44.7375L3.23845 44.7375C5.82533 50.4144 9.62589 55.8134 13.3524 59.8876C15.2165 61.9256 17.0781 63.6497 18.7792 64.9174C20.4494 66.162 22.0728 67.049 23.4474 67.263L23.4475 67.263C25.9634 67.6544 28.3373 66.9211 30.424 66.2193C30.5862 66.1648 30.7463 66.1106 30.9046 66.057C32.8311 65.4052 34.4784 64.8478 36.0729 64.9156C37.1113 65.2096 37.9513 65.5244 38.4824 65.8073L38.4827 65.8075C40.1348 66.6867 41.8513 67.2271 43.6525 67.2056C45.4633 67.184 47.2758 66.5955 49.1138 65.3526C50.5923 64.3528 53.2237 61.9984 55.9823 58.8776C58.7505 55.746 61.7035 51.7794 63.7872 47.5277C63.9391 47.2178 63.9204 46.8514 63.7378 46.5585C63.5552 46.2656 63.2344 46.0876 62.8893 46.0876C61.2597 46.0876 60.5791 46.1793 59.7577 46.3083C59.7158 46.3149 59.6736 46.3215 59.6308 46.3283C58.8989 46.4439 57.9979 46.5862 56.0092 46.7156C55.9983 46.7137 55.9559 46.7058 55.8758 46.6743C55.7521 46.6257 55.5865 46.5396 55.3809 46.4058C54.9695 46.138 54.4774 45.7317 53.9534 45.2255C52.9131 44.2204 51.8437 42.9158 51.1389 41.7717C50.1226 39.8454 49.8421 38.5854 49.6139 36.4602Z" fill="#F70F0F" stroke="#4B371F" stroke-width="2" stroke-linejoin="round"/>
  <path d="M49.3526 17.3182C46.1527 18.6188 49.054 22.3993 42.6513 23.2184C35.3364 24.1545 35.6875 27.2463 38.2738 27.9649C42.5598 29.1561 48.673 26.9328 51.4513 23.4404C54.5297 19.5714 53.2801 15.7235 49.3526 17.3182Z" fill="#F74125"/>
  <path d="M22.6481 18.3812C20.0862 19.7561 19.0626 23.5078 23.9196 23.2818C27.5705 23.1103 28.684 20.7417 27.2329 19.0156C26.4951 18.1389 24.5104 17.3821 22.6509 18.3812H22.6481Z" fill="white"/>
  <path d="M32.5005 18.2855C32.3055 17.2144 32.1194 15.6992 32.0654 13.923C32.0474 13.2884 32.0444 12.6223 32.0654 11.9308C32.355 12.6478 32.9175 11.5902 33.4021 10.093C34.2272 7.54274 36.9275 4.46737 37.8516 3.71729C36.2209 6.25258 33.8341 10.3466 34.1222 17.891C34.1507 18.6786 34.2107 19.5036 34.3022 20.3692L34.2707 20.4293C34.2317 20.4098 34.1912 20.3903 34.1522 20.3692C33.7921 20.1787 33.3256 19.8607 32.763 19.4646C32.682 19.1781 32.5905 18.7791 32.5005 18.2855Z" fill="#8C3D1B"/>
  <path d="M49.8196 36.7169C50.0581 38.9387 49.1655 40.1823 50.2696 42.2675C51.7773 44.7293 53.222 47.6991 54.4746 47.6181C56.7369 47.4725 57.1975 48.6487 58.7772 47.6181C59.5404 47.1257 61.7261 46.9525 62.9549 46.9525C58.9065 55.3011 51.3302 62.6464 48.5534 64.5242C45.1525 66.8239 42.0531 66.5749 38.9523 64.9247C38.3102 64.5827 37.3516 64.2331 36.2355 63.9226C32.239 63.6841 28.0955 66.974 23.601 66.2749C19.1004 65.5743 9.22328 55.4601 4.14818 44.3228C1.65489 38.8501 0.888303 30.2106 4.2742 23.4238C2.22496 31.1257 3.28708 43.6537 16.2996 49.3229C27.7145 54.296 40.442 51.5671 49.3695 44.3678C50.5111 43.2202 50.8427 41.4485 51.0062 38.5216C51.0572 37.614 49.53 38.3611 49.8196 36.7169Z" fill="#CC0808"/>
  <path d="M56.6498 54.4345C59.9393 50.5473 60.8556 49.5034 62.9259 47.0115C58.8705 55.3357 51.3233 62.6508 48.5531 64.5241C45.1522 66.8239 42.0528 66.5749 38.952 64.9247C38.3099 64.5826 37.3513 64.2331 36.2351 63.9226C32.2387 63.684 28.0952 66.9739 23.6006 66.2748C22.1515 66.0483 20.1427 64.8467 17.918 62.946C22.441 65.4693 25.7174 64.8857 28.5257 63.5745C27.9257 63.3495 26.9505 63.1245 24.4752 63.1245C27.7756 61.7743 33.1763 60.3492 40.6021 62.8995C45.5572 64.6022 50.049 62.2354 56.6498 54.4345Z" fill="#992626"/>
  <path d="M62.4977 23.5904C59.8004 22.7023 57.3371 21.8997 56.0559 22.5688C55.3163 22.9544 54.8108 23.3654 54.4072 23.82C56.6665 20.9666 59.8394 21.1857 59.4598 20.0185C58.6842 18.0818 57.4601 16.5216 55.8954 15.428C59.7539 16.9597 62.4032 20.1655 63.9934 24.0765C63.4908 23.9175 62.9897 23.7525 62.4977 23.5904Z" fill="#CC0808"/>
  <path d="M31.1148 18.3069C31.5498 18.3714 32.0089 18.3579 32.5009 18.2859C32.591 18.7794 32.6825 19.1785 32.7635 19.465C32.2819 19.1275 31.7299 18.7314 31.1133 18.3099V18.3069H31.1148Z" fill="#CC0808"/>
  <path d="M41.2514 17.7188C43.7522 17.2942 44.5023 18.3819 42.6526 19.3195C41.0759 20.2061 36.9264 21.7242 34.2696 20.4296L34.3011 20.3696C34.2096 19.504 34.1496 18.6789 34.1211 17.8913C36.8829 17.0197 40.4923 15.155 45.4219 14.5249C39.1317 15.6785 39.7018 17.9828 41.2514 17.7188Z" fill="#CC0808"/>
  <path d="M62.9267 31.7766C62.9297 31.7856 62.9297 31.7931 62.9297 31.8006C62.1031 33.7028 60.5714 33.9849 60.6554 35.9381C60.6644 36.1376 60.7319 36.3597 60.8234 36.6102C59.2933 35.6756 56.962 35.218 55.8789 35.293C54.5137 35.3875 53.6886 34.5429 52.8125 32.8552C56.8795 36.2306 57.043 31.3731 59.2033 33.0818C60.0419 33.7463 62.3206 33.1208 62.9267 31.7781V31.7766Z" fill="#5F332D"/>
  <path d="M53.7834 22.7384C53.7834 22.7384 53.7894 22.7339 53.7924 22.7324C54.3925 22.2479 55.1095 21.8383 56.1147 21.5098C57.8564 20.9397 60.7712 22.4549 63.9606 24.1276C61.9579 23.9896 60.8012 25.5348 60.9317 26.9029C60.9557 27.1535 61.0158 27.3755 61.0983 27.5825C60.1486 27.278 59.154 27.7205 58.848 30.1943C58.0229 28.5801 57.0823 26.4949 55.0405 26.7979C52.9973 27.101 51.8617 28.1346 51.4461 29.4787C48.2552 28.9492 47.9972 32.4311 48.3513 33.4002C48.9243 34.9754 50.4695 35.745 51.9277 36.2445C50.834 38.5698 50.189 41.2896 52.6808 42.1552C54.6895 42.8513 56.0487 41.6212 56.5257 40.2875C57.2713 41.5882 60.2341 42.4118 61.2498 40.4C61.0787 40.9776 60.7847 41.6107 60.3092 42.3112C59.9521 43.8594 60.7487 47.2918 62.957 46.9633C60.7667 47.9249 56.8843 49.1055 54.0249 48.8175C52.4407 48.6585 48.9093 46.4382 47.5337 43.0448C46.5855 40.2065 47.9117 39.5359 48.0752 36.7066C46.7836 34.0423 44.0817 32.7476 45.0944 29.4742C45.7559 27.3395 47.6252 26.5279 51.3966 25.3187C52.2802 24.3196 52.9013 23.451 53.7804 22.7384H53.7834ZM54.874 46.3767C56.6142 47.2618 59.7016 46.3422 58.6785 44.3725C58.1579 43.3704 57.2278 43.0373 56.3427 43.7274C55.4576 44.416 53.7489 45.8037 54.874 46.3767Z" fill="#5F332D"/>
  <path d="M25.9933 5.65576C26.2192 6.50144 25.9191 7.21389 25.3364 7.7155C24.1038 8.77896 21.6085 8.89828 20.1836 7.34363C21.5598 9.77987 24.1559 12.332 28.3762 10.5491C28.3785 10.5491 28.382 10.5468 28.3843 10.5456C28.4237 9.15662 27.7437 7.09225 25.9933 5.65576Z" fill="#2A731C"/>
  <path d="M63.8662 24.75C62.712 24.8617 60.6269 25.7105 61.5205 28.2126C62.6376 31.3403 62.9725 33.4626 61.5205 34.4678C60.0686 35.4731 61.5205 37.372 61.5205 38.0422C61.5205 38.7124 61.1857 42.175 60.4038 42.2867C59.6219 42.3984 59.7334 45.3026 62.3024 45.526" stroke="#4B371F" stroke-width="2" stroke-linecap="round" stroke-linejoin="round"/>
  <path d="M15.7862 23.9365C10.4719 25.8953 7.93535 36.9363 13.3498 42.1282" stroke="white" stroke-width="6" stroke-linecap="round" stroke-linejoin="round"/>
  <path d="M28.0098 15.3279C35.8851 20.9532 37.9425 21.1137 42.957 18.5422" stroke="#4B371F" stroke-width="2" stroke-linecap="round" stroke-linejoin="round"/>
</svg>
