<svg width="143" height="76" viewBox="0 0 143 76" fill="none" xmlns="http://www.w3.org/2000/svg">
  <g filter="url(#filter0_i_107_4336)">
    <ellipse cx="71.2128" cy="48.5107" rx="70.2128" ry="25.9574" fill="#713220"/>
  </g>
  <path d="M71.2128 74.9681C90.6449 74.9681 108.259 72.0571 121.034 67.3343C127.419 64.9737 132.622 62.1508 136.237 58.9909C139.851 55.832 141.926 52.2918 141.926 48.5107C141.926 44.7295 139.851 41.1894 136.237 38.0304C132.622 34.8705 127.419 32.0477 121.034 29.687C108.259 24.9643 90.6449 22.0532 71.2128 22.0532C51.7806 22.0532 34.1661 24.9643 21.3915 29.687C15.0061 32.0477 9.80377 34.8705 6.18862 38.0304C2.5745 41.1894 0.5 44.7295 0.5 48.5107C0.5 52.2918 2.5745 55.832 6.18862 58.9909C9.80377 62.1508 15.0061 64.9737 21.3915 67.3343C34.1661 72.0571 51.7806 74.9681 71.2128 74.9681Z" stroke="#622713"/>
  <g filter="url(#filter1_i_107_4336)">
    <ellipse cx="71.2125" cy="45.9575" rx="68.5106" ry="23.4043" fill="#B76F39"/>
  </g>
  <path d="M71.2125 70.3617C90.2109 70.3617 107.453 67.7326 119.98 63.4531C126.239 61.315 131.376 58.7466 134.968 55.8454C138.551 52.9512 140.723 49.6161 140.723 45.9575C140.723 42.2988 138.551 38.9637 134.968 36.0695C131.376 33.1684 126.239 30.5999 119.98 28.4619C107.453 24.1823 90.2109 21.5532 71.2125 21.5532C52.2142 21.5532 34.9722 24.1823 22.4449 28.4619C16.1862 30.5999 11.0495 33.1684 7.45745 36.0695C3.87408 38.9637 1.70187 42.2988 1.70187 45.9575C1.70187 49.6161 3.87408 52.9512 7.45745 55.8454C11.0495 58.7466 16.1862 61.315 22.4449 63.4531C34.9722 67.7326 52.2142 70.3617 71.2125 70.3617Z" stroke="#622713" stroke-width="2"/>
  <path d="M72.0637 61C87.7673 61 102.025 58.9436 112.391 55.5922C117.568 53.9184 121.83 51.9038 124.819 49.619C127.793 47.3456 129.659 44.6797 129.659 41.7022C129.659 38.7247 127.793 36.0587 124.819 33.7853C121.83 31.5005 117.568 29.486 112.391 27.8121C102.025 24.4608 87.7673 22.4043 72.0637 22.4043C56.3602 22.4043 42.1026 24.4608 31.7368 27.8121C26.5595 29.486 22.2973 31.5005 19.3082 33.7853C16.3341 36.0587 14.468 38.7247 14.468 41.7022C14.468 44.6797 16.3341 47.3456 19.3082 49.619C22.2973 51.9038 26.5595 53.9184 31.7368 55.5922C42.1026 58.9436 56.3602 61 72.0637 61Z" fill="#541313" stroke="#622713" stroke-width="2"/>
  <g filter="url(#filter2_i_107_4336)">
    <path d="M15.5803 39.9937C14.7661 37.5893 13.5895 33.151 13.7877 28.0062C13.9144 24.7186 15.7467 21.7666 18.54 20.0284C50.4124 0.194104 126.738 13.9362 128.475 21.6093C130.726 31.553 128.785 39.2996 127.563 41.9091C124.387 47.1283 104.855 58.2977 72.5681 58.2977C37.2496 58.2977 23.4864 49.3471 17.6908 43.4225C16.738 42.4486 16.0174 41.2841 15.5803 39.9937Z" fill="#A71D1D"/>
  </g>
  <path d="M127.99 42.1691L128.005 42.1458L128.016 42.1211C129.287 39.407 131.237 31.5466 128.962 21.4989C128.815 20.8477 128.302 20.2539 127.612 19.7151C126.908 19.1649 125.945 18.6149 124.77 18.071C122.416 16.982 119.136 15.8845 115.173 14.8521C107.243 12.7862 96.514 10.9649 84.8492 10.0053C73.1841 9.04562 60.5665 8.94639 48.8604 10.3323C37.1622 11.7172 26.3329 14.5899 18.2758 19.6039C15.352 21.4234 13.4216 24.5218 13.2881 27.9869C13.0867 33.2141 14.2812 37.7164 15.1068 40.154C15.5682 41.5167 16.3291 42.7456 17.3333 43.7722C23.253 49.8235 37.1649 58.7977 72.5681 58.7977C88.7684 58.7977 101.782 55.9956 111.156 52.5296C115.842 50.7968 119.623 48.8962 122.44 47.0928C125.242 45.2993 127.136 43.5726 127.99 42.1691Z" stroke="#641414"/>
  <path d="M71.2126 45.6806C86.694 45.6806 100.754 43.3352 110.98 39.5101C116.09 37.599 120.294 35.2993 123.239 32.6949C126.183 30.0916 127.957 27.0982 127.957 23.8296C127.957 20.561 126.183 17.5675 123.239 14.9643C120.294 12.3599 116.09 10.0602 110.98 8.14903C100.754 4.32398 86.694 1.97852 71.2126 1.97852C55.7312 1.97852 41.671 4.32398 31.4449 8.14903C26.3355 10.0602 22.1312 12.3599 19.1862 14.9643C16.2425 17.5675 14.468 20.561 14.468 23.8296C14.468 27.0982 16.2425 30.0916 19.1862 32.6949C22.1312 35.2993 26.3355 37.599 31.4449 39.5101C41.671 43.3352 55.7312 45.6806 71.2126 45.6806Z" fill="#FF6F6F" stroke="#872323" stroke-width="2"/>
  <path fill-rule="evenodd" clip-rule="evenodd" d="M125.106 29.3266C126.28 27.6294 126.905 25.8489 126.905 24.0134C126.905 12.3961 101.868 2.97852 70.9834 2.97852C40.0987 2.97852 15.0617 12.3961 15.0617 24.0134C15.0617 25.849 15.6868 27.6296 16.8612 29.3269C23.1194 20.2821 44.9786 13.6053 70.9836 13.6053C96.9883 13.6053 118.847 20.282 125.106 29.3266Z" fill="#FFB6B6"/>
  <g filter="url(#filter3_d_107_4336)">
    <mask id="path-10-outside-1_107_4336" maskUnits="userSpaceOnUse" x="33.0001" y="8.53174" width="77" height="26" fill="black">
      <rect fill="white" x="33.0001" y="8.53174" width="77" height="26"/>
      <path d="M42.9682 31.5617C41.6482 31.5617 40.3782 31.3817 39.1582 31.0217C37.9582 30.6417 36.9782 30.1217 36.2182 29.4617C35.4582 28.7817 35.0782 28.0117 35.0782 27.1517C35.0782 26.3317 35.3282 25.6817 35.8282 25.2017C36.3282 24.7217 36.9582 24.4817 37.7182 24.4817C38.2182 24.4817 38.6482 24.5517 39.0082 24.6917C39.3882 24.8117 39.7982 24.9917 40.2382 25.2317C40.5582 25.3917 40.8282 25.5217 41.0482 25.6217C41.2882 25.7017 41.5382 25.7417 41.7982 25.7417C42.4582 25.7417 42.7882 25.4817 42.7882 24.9617C42.7882 24.7617 42.6482 24.5917 42.3682 24.4517C42.0882 24.2917 41.6182 24.0817 40.9582 23.8217C39.7782 23.3617 38.8182 22.9117 38.0782 22.4717C36.9382 21.7917 36.1482 21.0517 35.7082 20.2517C35.2882 19.4517 35.0782 18.4517 35.0782 17.2517C35.0782 16.0917 35.4482 15.0017 36.1882 13.9817C36.9282 12.9417 37.9382 12.1117 39.2182 11.4917C40.4982 10.8717 41.8982 10.5617 43.4182 10.5617C44.8982 10.5617 46.2482 10.7917 47.4682 11.2517C48.7082 11.6917 49.6782 12.3117 50.3782 13.1117C51.0982 13.8917 51.4582 14.7617 51.4582 15.7217C51.4582 16.8217 51.1282 17.6517 50.4682 18.2117C49.8282 18.7517 49.1082 19.0217 48.3082 19.0217C47.6482 19.0217 47.1482 18.9817 46.8082 18.9017C46.4882 18.8217 46.1682 18.7117 45.8482 18.5717C45.5882 18.4717 45.3682 18.4017 45.1882 18.3617C45.0082 18.3017 44.7582 18.2717 44.4382 18.2717C44.1782 18.2717 43.9282 18.3617 43.6882 18.5417C43.4682 18.7017 43.3582 18.9317 43.3582 19.2317C43.3582 19.4517 43.4882 19.6417 43.7482 19.8017C44.0082 19.9417 44.3082 20.0717 44.6482 20.1917C44.9882 20.3117 45.2282 20.4017 45.3682 20.4617C47.2282 21.1417 48.5982 21.9217 49.4782 22.8017C50.3582 23.6617 50.7982 24.7817 50.7982 26.1617C50.7982 27.8617 50.1082 29.1917 48.7282 30.1517C47.3682 31.0917 45.4482 31.5617 42.9682 31.5617ZM57.4781 31.5617C55.8381 31.5617 54.7181 30.6217 54.1181 28.7417C53.5381 26.8617 53.2481 24.4617 53.2481 21.5417C53.2481 19.6417 53.5881 17.8617 54.2681 16.2017C54.9681 14.5217 56.0281 13.1717 57.4481 12.1517C58.8681 11.1117 60.5981 10.5917 62.6381 10.5917C64.2781 10.5917 65.7681 10.9417 67.1081 11.6417C68.4481 12.3217 69.5081 13.3017 70.2881 14.5817C71.0881 15.8617 71.4881 17.3417 71.4881 19.0217C71.4881 20.9617 71.0981 22.5917 70.3181 23.9117C69.5381 25.2317 68.5281 26.2117 67.2881 26.8517C66.0481 27.4917 64.7381 27.8117 63.3581 27.8117C62.2381 27.8117 61.2081 27.6217 60.2681 27.2417C60.3881 27.8817 60.4481 28.3717 60.4481 28.7117C60.4481 30.6117 59.4581 31.5617 57.4781 31.5617ZM62.9381 23.1617C63.6581 23.1617 64.2781 22.9017 64.7981 22.3817C65.3381 21.8417 65.6081 21.2217 65.6081 20.5217C65.6081 19.8017 65.3381 19.1817 64.7981 18.6617C64.2781 18.1217 63.6581 17.8517 62.9381 17.8517C62.2381 17.8517 61.6181 18.1217 61.0781 18.6617C60.5381 19.1817 60.2681 19.8017 60.2681 20.5217C60.2681 21.2217 60.5381 21.8417 61.0781 22.3817C61.6181 22.9017 62.2381 23.1617 62.9381 23.1617ZM82.4271 26.1017C83.4471 26.2217 84.2371 26.4817 84.7971 26.8817C85.3771 27.2617 85.6671 27.8717 85.6671 28.7117C85.6671 29.5517 85.3671 30.1717 84.7671 30.5717C84.1871 30.9717 83.4871 31.2217 82.6671 31.3217C81.8471 31.4017 80.7871 31.4417 79.4871 31.4417C78.2071 31.4417 77.1571 31.4017 76.3371 31.3217C75.5171 31.2217 74.8171 30.9717 74.2371 30.5717C73.6571 30.1717 73.3671 29.5517 73.3671 28.7117C73.3671 27.8917 73.6371 27.2917 74.1771 26.9117C74.7371 26.5117 75.4971 26.2417 76.4571 26.1017C76.3571 24.9417 76.3071 23.2817 76.3071 21.1217C76.3071 19.1817 76.3471 17.6217 76.4271 16.4417C75.2671 16.3217 74.3571 16.0417 73.6971 15.6017C73.0371 15.1617 72.7071 14.4717 72.7071 13.5317C72.7071 12.6117 73.0271 11.9317 73.6671 11.4917C74.3071 11.0517 75.0771 10.7817 75.9771 10.6817C76.8771 10.5817 78.0371 10.5317 79.4571 10.5317C80.8771 10.5317 82.0371 10.5817 82.9371 10.6817C83.8371 10.7817 84.6071 11.0517 85.2471 11.4917C85.9071 11.9317 86.2371 12.6117 86.2371 13.5317C86.2371 14.4717 85.8971 15.1617 85.2171 15.6017C84.5571 16.0417 83.6371 16.3217 82.4571 16.4417C82.5571 17.5417 82.6071 19.1017 82.6071 21.1217C82.6071 23.0617 82.5471 24.7217 82.4271 26.1017ZM92.1152 31.5317C91.1352 31.5317 90.3352 30.9317 89.7152 29.7317C89.1152 28.5317 88.6852 27.0817 88.4252 25.3817C88.1652 23.6817 88.0352 22.0417 88.0352 20.4617C88.0352 17.8817 88.4452 15.5917 89.2652 13.5917C90.1052 11.5717 91.5052 10.5617 93.4652 10.5617C94.3252 10.5617 95.0752 10.8917 95.7152 11.5517C96.3752 12.2117 96.9452 13.0717 97.4252 14.1317C97.9052 15.1717 98.4852 16.6217 99.1652 18.4817L99.6752 19.8917C99.6352 19.1317 99.6152 18.5717 99.6152 18.2117C99.6152 15.8717 99.9252 14.0117 100.545 12.6317C101.185 11.2517 102.195 10.5617 103.575 10.5617C105.235 10.5617 106.375 11.5517 106.995 13.5317C107.615 15.4917 107.925 17.8017 107.925 20.4617C107.925 22.0417 107.725 23.6817 107.325 25.3817C106.945 27.0817 106.295 28.5317 105.375 29.7317C104.455 30.9317 103.255 31.5317 101.775 31.5317C100.875 31.5317 100.085 31.2117 99.4052 30.5717C98.7452 29.9117 98.1852 29.1017 97.7252 28.1417C97.2852 27.1817 96.7552 25.8617 96.1352 24.1817C95.8152 23.3017 95.5652 22.6417 95.3852 22.2017L95.4152 24.6317C95.4152 26.2117 95.3352 27.4917 95.1752 28.4717C95.0152 29.4317 94.6952 30.1817 94.2152 30.7217C93.7552 31.2617 93.0552 31.5317 92.1152 31.5317Z"/>
    </mask>
    <path d="M42.9682 31.5617C41.6482 31.5617 40.3782 31.3817 39.1582 31.0217C37.9582 30.6417 36.9782 30.1217 36.2182 29.4617C35.4582 28.7817 35.0782 28.0117 35.0782 27.1517C35.0782 26.3317 35.3282 25.6817 35.8282 25.2017C36.3282 24.7217 36.9582 24.4817 37.7182 24.4817C38.2182 24.4817 38.6482 24.5517 39.0082 24.6917C39.3882 24.8117 39.7982 24.9917 40.2382 25.2317C40.5582 25.3917 40.8282 25.5217 41.0482 25.6217C41.2882 25.7017 41.5382 25.7417 41.7982 25.7417C42.4582 25.7417 42.7882 25.4817 42.7882 24.9617C42.7882 24.7617 42.6482 24.5917 42.3682 24.4517C42.0882 24.2917 41.6182 24.0817 40.9582 23.8217C39.7782 23.3617 38.8182 22.9117 38.0782 22.4717C36.9382 21.7917 36.1482 21.0517 35.7082 20.2517C35.2882 19.4517 35.0782 18.4517 35.0782 17.2517C35.0782 16.0917 35.4482 15.0017 36.1882 13.9817C36.9282 12.9417 37.9382 12.1117 39.2182 11.4917C40.4982 10.8717 41.8982 10.5617 43.4182 10.5617C44.8982 10.5617 46.2482 10.7917 47.4682 11.2517C48.7082 11.6917 49.6782 12.3117 50.3782 13.1117C51.0982 13.8917 51.4582 14.7617 51.4582 15.7217C51.4582 16.8217 51.1282 17.6517 50.4682 18.2117C49.8282 18.7517 49.1082 19.0217 48.3082 19.0217C47.6482 19.0217 47.1482 18.9817 46.8082 18.9017C46.4882 18.8217 46.1682 18.7117 45.8482 18.5717C45.5882 18.4717 45.3682 18.4017 45.1882 18.3617C45.0082 18.3017 44.7582 18.2717 44.4382 18.2717C44.1782 18.2717 43.9282 18.3617 43.6882 18.5417C43.4682 18.7017 43.3582 18.9317 43.3582 19.2317C43.3582 19.4517 43.4882 19.6417 43.7482 19.8017C44.0082 19.9417 44.3082 20.0717 44.6482 20.1917C44.9882 20.3117 45.2282 20.4017 45.3682 20.4617C47.2282 21.1417 48.5982 21.9217 49.4782 22.8017C50.3582 23.6617 50.7982 24.7817 50.7982 26.1617C50.7982 27.8617 50.1082 29.1917 48.7282 30.1517C47.3682 31.0917 45.4482 31.5617 42.9682 31.5617ZM57.4781 31.5617C55.8381 31.5617 54.7181 30.6217 54.1181 28.7417C53.5381 26.8617 53.2481 24.4617 53.2481 21.5417C53.2481 19.6417 53.5881 17.8617 54.2681 16.2017C54.9681 14.5217 56.0281 13.1717 57.4481 12.1517C58.8681 11.1117 60.5981 10.5917 62.6381 10.5917C64.2781 10.5917 65.7681 10.9417 67.1081 11.6417C68.4481 12.3217 69.5081 13.3017 70.2881 14.5817C71.0881 15.8617 71.4881 17.3417 71.4881 19.0217C71.4881 20.9617 71.0981 22.5917 70.3181 23.9117C69.5381 25.2317 68.5281 26.2117 67.2881 26.8517C66.0481 27.4917 64.7381 27.8117 63.3581 27.8117C62.2381 27.8117 61.2081 27.6217 60.2681 27.2417C60.3881 27.8817 60.4481 28.3717 60.4481 28.7117C60.4481 30.6117 59.4581 31.5617 57.4781 31.5617ZM62.9381 23.1617C63.6581 23.1617 64.2781 22.9017 64.7981 22.3817C65.3381 21.8417 65.6081 21.2217 65.6081 20.5217C65.6081 19.8017 65.3381 19.1817 64.7981 18.6617C64.2781 18.1217 63.6581 17.8517 62.9381 17.8517C62.2381 17.8517 61.6181 18.1217 61.0781 18.6617C60.5381 19.1817 60.2681 19.8017 60.2681 20.5217C60.2681 21.2217 60.5381 21.8417 61.0781 22.3817C61.6181 22.9017 62.2381 23.1617 62.9381 23.1617ZM82.4271 26.1017C83.4471 26.2217 84.2371 26.4817 84.7971 26.8817C85.3771 27.2617 85.6671 27.8717 85.6671 28.7117C85.6671 29.5517 85.3671 30.1717 84.7671 30.5717C84.1871 30.9717 83.4871 31.2217 82.6671 31.3217C81.8471 31.4017 80.7871 31.4417 79.4871 31.4417C78.2071 31.4417 77.1571 31.4017 76.3371 31.3217C75.5171 31.2217 74.8171 30.9717 74.2371 30.5717C73.6571 30.1717 73.3671 29.5517 73.3671 28.7117C73.3671 27.8917 73.6371 27.2917 74.1771 26.9117C74.7371 26.5117 75.4971 26.2417 76.4571 26.1017C76.3571 24.9417 76.3071 23.2817 76.3071 21.1217C76.3071 19.1817 76.3471 17.6217 76.4271 16.4417C75.2671 16.3217 74.3571 16.0417 73.6971 15.6017C73.0371 15.1617 72.7071 14.4717 72.7071 13.5317C72.7071 12.6117 73.0271 11.9317 73.6671 11.4917C74.3071 11.0517 75.0771 10.7817 75.9771 10.6817C76.8771 10.5817 78.0371 10.5317 79.4571 10.5317C80.8771 10.5317 82.0371 10.5817 82.9371 10.6817C83.8371 10.7817 84.6071 11.0517 85.2471 11.4917C85.9071 11.9317 86.2371 12.6117 86.2371 13.5317C86.2371 14.4717 85.8971 15.1617 85.2171 15.6017C84.5571 16.0417 83.6371 16.3217 82.4571 16.4417C82.5571 17.5417 82.6071 19.1017 82.6071 21.1217C82.6071 23.0617 82.5471 24.7217 82.4271 26.1017ZM92.1152 31.5317C91.1352 31.5317 90.3352 30.9317 89.7152 29.7317C89.1152 28.5317 88.6852 27.0817 88.4252 25.3817C88.1652 23.6817 88.0352 22.0417 88.0352 20.4617C88.0352 17.8817 88.4452 15.5917 89.2652 13.5917C90.1052 11.5717 91.5052 10.5617 93.4652 10.5617C94.3252 10.5617 95.0752 10.8917 95.7152 11.5517C96.3752 12.2117 96.9452 13.0717 97.4252 14.1317C97.9052 15.1717 98.4852 16.6217 99.1652 18.4817L99.6752 19.8917C99.6352 19.1317 99.6152 18.5717 99.6152 18.2117C99.6152 15.8717 99.9252 14.0117 100.545 12.6317C101.185 11.2517 102.195 10.5617 103.575 10.5617C105.235 10.5617 106.375 11.5517 106.995 13.5317C107.615 15.4917 107.925 17.8017 107.925 20.4617C107.925 22.0417 107.725 23.6817 107.325 25.3817C106.945 27.0817 106.295 28.5317 105.375 29.7317C104.455 30.9317 103.255 31.5317 101.775 31.5317C100.875 31.5317 100.085 31.2117 99.4052 30.5717C98.7452 29.9117 98.1852 29.1017 97.7252 28.1417C97.2852 27.1817 96.7552 25.8617 96.1352 24.1817C95.8152 23.3017 95.5652 22.6417 95.3852 22.2017L95.4152 24.6317C95.4152 26.2117 95.3352 27.4917 95.1752 28.4717C95.0152 29.4317 94.6952 30.1817 94.2152 30.7217C93.7552 31.2617 93.0552 31.5317 92.1152 31.5317Z" fill="#FFF4C2"/>
    <path d="M39.1582 31.0217L38.5544 32.9284L38.5732 32.9344L38.5922 32.94L39.1582 31.0217ZM36.2182 29.4617L34.8846 30.9522L34.8956 30.9621L34.9068 30.9718L36.2182 29.4617ZM35.8282 25.2017L34.4431 23.759L34.4431 23.759L35.8282 25.2017ZM39.0082 24.6917L38.2833 26.5557L38.3439 26.5793L38.4059 26.5989L39.0082 24.6917ZM40.2382 25.2317L39.2805 26.9875L39.3118 27.0046L39.3438 27.0206L40.2382 25.2317ZM41.0482 25.6217L40.2206 27.4425L40.3161 27.4859L40.4157 27.5191L41.0482 25.6217ZM42.3682 24.4517L41.3759 26.1882L41.4241 26.2158L41.4738 26.2406L42.3682 24.4517ZM40.9582 23.8217L41.6912 21.9609L41.6846 21.9583L40.9582 23.8217ZM38.0782 22.4717L37.0536 24.1894L37.056 24.1908L38.0782 22.4717ZM35.7082 20.2517L33.9374 21.1814L33.9464 21.1986L33.9558 21.2156L35.7082 20.2517ZM36.1882 13.9817L37.807 15.1562L37.8124 15.1487L37.8178 15.1412L36.1882 13.9817ZM39.2182 11.4917L38.3463 9.69177L38.3463 9.69177L39.2182 11.4917ZM47.4682 11.2517L46.7626 13.1231L46.7809 13.13L46.7994 13.1366L47.4682 11.2517ZM50.3782 13.1117L48.873 14.4287L48.8905 14.4488L48.9086 14.4683L50.3782 13.1117ZM50.4682 18.2117L51.7579 19.7403L51.7621 19.7368L50.4682 18.2117ZM46.8082 18.9017L46.3231 20.842L46.3366 20.8454L46.3501 20.8486L46.8082 18.9017ZM45.8482 18.5717L46.6498 16.7394L46.6084 16.7213L46.5661 16.705L45.8482 18.5717ZM45.1882 18.3617L44.5557 20.2591L44.6536 20.2917L44.7543 20.3141L45.1882 18.3617ZM43.6882 18.5417L44.8645 20.1592L44.8764 20.1506L44.8882 20.1417L43.6882 18.5417ZM43.7482 19.8017L42.7 21.5051L42.7492 21.5353L42.8 21.5627L43.7482 19.8017ZM44.6482 20.1917L45.3138 18.3058L45.3138 18.3058L44.6482 20.1917ZM45.3682 20.4617L44.5804 22.3L44.6304 22.3215L44.6815 22.3401L45.3682 20.4617ZM49.4782 22.8017L48.064 24.216L48.0721 24.2241L48.0803 24.2321L49.4782 22.8017ZM48.7282 30.1517L49.8654 31.797L49.8703 31.7935L48.7282 30.1517ZM42.9682 29.5617C41.8325 29.5617 40.7536 29.4073 39.7242 29.1035L38.5922 32.94C40.0028 33.3562 41.4638 33.5617 42.9682 33.5617V29.5617ZM39.762 29.1151C38.7593 28.7975 38.0385 28.3937 37.5296 27.9517L34.9068 30.9718C35.9179 31.8498 37.1571 32.4859 38.5544 32.9284L39.762 29.1151ZM37.5518 27.9713C37.1296 27.5935 37.0782 27.3365 37.0782 27.1517H33.0782C33.0782 28.687 33.7867 29.9699 34.8846 30.9522L37.5518 27.9713ZM37.0782 27.1517C37.0782 26.7684 37.1777 26.6787 37.2132 26.6445L34.4431 23.759C33.4787 24.6848 33.0782 25.895 33.0782 27.1517H37.0782ZM37.2132 26.6445C37.3033 26.5581 37.42 26.4817 37.7182 26.4817V22.4817C36.4963 22.4817 35.3531 22.8854 34.4431 23.759L37.2132 26.6445ZM37.7182 26.4817C38.0397 26.4817 38.2114 26.5278 38.2833 26.5557L39.7331 22.8277C39.085 22.5757 38.3967 22.4817 37.7182 22.4817V26.4817ZM38.4059 26.5989C38.6362 26.6716 38.9263 26.7943 39.2805 26.9875L41.1959 23.4759C40.6701 23.1892 40.1402 22.9519 39.6104 22.7846L38.4059 26.5989ZM39.3438 27.0206C39.6765 27.1869 39.9702 27.3287 40.2206 27.4425L41.8758 23.801C41.6861 23.7148 41.4399 23.5965 41.1326 23.4429L39.3438 27.0206ZM40.4157 27.5191C40.8653 27.669 41.3293 27.7417 41.7982 27.7417V23.7417C41.7471 23.7417 41.7111 23.7345 41.6806 23.7244L40.4157 27.5191ZM41.7982 27.7417C42.3366 27.7417 43.1094 27.6448 43.7784 27.1177C44.5383 26.5191 44.7882 25.6738 44.7882 24.9617H40.7882C40.7882 24.8834 40.8004 24.7221 40.8844 24.5237C40.9734 24.3132 41.1183 24.1212 41.3029 23.9758C41.6419 23.7087 41.9198 23.7417 41.7982 23.7417V27.7417ZM44.7882 24.9617C44.7882 23.6276 43.8003 22.9317 43.2626 22.6629L41.4738 26.2406C41.4613 26.2344 41.3056 26.1576 41.1393 25.9557C40.9463 25.7212 40.7882 25.3734 40.7882 24.9617H44.7882ZM43.3605 22.7153C42.9462 22.4785 42.3607 22.2247 41.6912 21.9609L40.2251 25.6826C40.8756 25.9388 41.2302 26.1049 41.3759 26.1882L43.3605 22.7153ZM41.6846 21.9583C40.564 21.5215 39.7132 21.117 39.1003 20.7527L37.056 24.1908C37.9232 24.7064 38.9924 25.202 40.2318 25.6852L41.6846 21.9583ZM39.1027 20.7541C38.1381 20.1787 37.6687 19.6662 37.4606 19.2879L33.9558 21.2156C34.6277 22.4372 35.7383 23.4048 37.0536 24.1894L39.1027 20.7541ZM37.479 19.3221C37.2507 18.8873 37.0782 18.23 37.0782 17.2517H33.0782C33.0782 18.6735 33.3256 20.0162 33.9374 21.1814L37.479 19.3221ZM37.0782 17.2517C37.0782 16.5505 37.2922 15.8658 37.807 15.1562L34.5693 12.8073C33.6042 14.1377 33.0782 15.633 33.0782 17.2517H37.0782ZM37.8178 15.1412C38.3415 14.4052 39.0772 13.7823 40.09 13.2917L38.3463 9.69177C36.7992 10.4412 35.5149 11.4783 34.5586 12.8222L37.8178 15.1412ZM40.09 13.2917C41.0798 12.8123 42.179 12.5617 43.4182 12.5617V8.56174C41.6174 8.56174 39.9166 8.93119 38.3463 9.69177L40.09 13.2917ZM43.4182 12.5617C44.6894 12.5617 45.7964 12.7588 46.7626 13.1231L48.1738 9.38034C46.6999 8.82463 45.107 8.56174 43.4182 8.56174V12.5617ZM46.7994 13.1366C47.7924 13.489 48.4463 13.941 48.873 14.4287L51.8833 11.7947C50.9101 10.6825 49.6239 9.8945 48.137 9.36688L46.7994 13.1366ZM48.9086 14.4683C49.3266 14.9212 49.4582 15.3193 49.4582 15.7217H53.4582C53.4582 14.2042 52.8697 12.8623 51.8478 11.7552L48.9086 14.4683ZM49.4582 15.7217C49.4582 16.4061 49.2702 16.6053 49.1742 16.6867L51.7621 19.7368C52.9862 18.6982 53.4582 17.2374 53.4582 15.7217H49.4582ZM49.1784 16.6832C48.8809 16.9342 48.6127 17.0217 48.3082 17.0217V21.0217C49.6037 21.0217 50.7754 20.5693 51.7579 19.7403L49.1784 16.6832ZM48.3082 17.0217C47.6918 17.0217 47.3772 16.981 47.2663 16.9549L46.3501 20.8486C46.9192 20.9825 47.6046 21.0217 48.3082 21.0217V17.0217ZM47.2933 16.9615C47.0878 16.9101 46.8735 16.8373 46.6498 16.7394L45.0465 20.4041C45.4629 20.5862 45.8886 20.7334 46.3231 20.842L47.2933 16.9615ZM46.5661 16.705C46.2553 16.5855 45.9342 16.4787 45.622 16.4094L44.7543 20.3141C44.8022 20.3247 44.9211 20.358 45.1302 20.4384L46.5661 16.705ZM45.8206 16.4644C45.3441 16.3055 44.8469 16.2717 44.4382 16.2717V20.2717C44.5387 20.2717 44.5993 20.2766 44.6274 20.28C44.6405 20.2816 44.6408 20.2821 44.6303 20.2799C44.6202 20.2778 44.5941 20.2719 44.5557 20.2591L45.8206 16.4644ZM44.4382 16.2717C43.6809 16.2717 43.0189 16.5437 42.4882 16.9417L44.8882 20.1417C44.8692 20.156 44.8177 20.1905 44.7331 20.221C44.6457 20.2525 44.5442 20.2717 44.4382 20.2717V16.2717ZM42.5118 16.9243C41.7156 17.5034 41.3582 18.3682 41.3582 19.2317H45.3582C45.3582 19.328 45.3396 19.4992 45.245 19.6971C45.147 19.902 45.0047 20.0572 44.8645 20.1592L42.5118 16.9243ZM41.3582 19.2317C41.3582 20.3999 42.1026 21.1374 42.7 21.5051L44.7964 18.0984C44.8312 18.1198 44.9703 18.2111 45.1063 18.4099C45.2577 18.6312 45.3582 18.9193 45.3582 19.2317H41.3582ZM42.8 21.5627C43.1681 21.7609 43.5657 21.9306 43.9825 22.0777L45.3138 18.3058C45.0507 18.2129 44.8483 18.1226 44.6964 18.0408L42.8 21.5627ZM43.9825 22.0777C44.3216 22.1974 44.5066 22.2684 44.5804 22.3L46.156 18.6234C45.9498 18.5351 45.6548 18.4261 45.3138 18.3058L43.9825 22.0777ZM44.6815 22.3401C46.412 22.9728 47.4759 23.6279 48.064 24.216L50.8924 21.3875C49.7204 20.2155 48.0444 19.3107 46.0549 18.5833L44.6815 22.3401ZM48.0803 24.2321C48.5268 24.6684 48.7982 25.2484 48.7982 26.1617H52.7982C52.7982 24.3151 52.1896 22.655 50.8761 21.3714L48.0803 24.2321ZM48.7982 26.1617C48.7982 27.2159 48.4214 27.9288 47.5861 28.5099L49.8703 31.7935C51.795 30.4547 52.7982 28.5076 52.7982 26.1617H48.7982ZM47.591 28.5065C46.6941 29.1264 45.2333 29.5617 42.9682 29.5617V33.5617C45.6631 33.5617 48.0423 33.057 49.8653 31.797L47.591 28.5065ZM54.1181 28.7417L52.207 29.3313L52.2098 29.3406L52.2128 29.3498L54.1181 28.7417ZM54.2681 16.2017L52.4219 15.4325L52.4174 15.4436L54.2681 16.2017ZM57.4481 12.1517L58.6149 13.7761L58.6224 13.7707L58.6298 13.7653L57.4481 12.1517ZM67.1081 11.6417L66.1821 13.4144L66.1925 13.4199L66.203 13.4252L67.1081 11.6417ZM70.2881 14.5817L68.5802 15.6225L68.5861 15.6321L68.5921 15.6417L70.2881 14.5817ZM70.3181 23.9117L72.04 24.9292L72.04 24.9292L70.3181 23.9117ZM67.2881 26.8517L68.2054 28.629L68.2054 28.629L67.2881 26.8517ZM60.2681 27.2417L61.0177 25.3875L57.6287 24.0175L58.3024 27.6103L60.2681 27.2417ZM64.7981 22.3817L66.2123 23.796L66.2123 23.796L64.7981 22.3817ZM64.7981 18.6617L63.3575 20.049L63.3836 20.0762L63.4108 20.1024L64.7981 18.6617ZM61.0781 18.6617L62.4654 20.1024L62.479 20.0893L62.4923 20.076L61.0781 18.6617ZM61.0781 22.3817L59.6639 23.796L59.6772 23.8093L59.6908 23.8224L61.0781 22.3817ZM57.4781 29.5617C57.0675 29.5617 56.8496 29.4555 56.6939 29.3248C56.5083 29.1691 56.2475 28.8356 56.0234 28.1337L52.2128 29.3498C52.5888 30.5279 53.1879 31.6044 54.1224 32.3887C55.0866 33.198 56.2487 33.5617 57.4781 33.5617V29.5617ZM56.0292 28.1521C55.5292 26.5314 55.2481 24.3488 55.2481 21.5417H51.2481C51.2481 24.5747 51.547 27.192 52.207 29.3313L56.0292 28.1521ZM55.2481 21.5417C55.2481 19.8862 55.5432 18.3652 56.1188 16.9599L52.4174 15.4436C51.6331 17.3582 51.2481 19.3973 51.2481 21.5417H55.2481ZM56.1143 16.971C56.6777 15.6188 57.509 14.5705 58.6149 13.7761L56.2813 10.5274C54.5472 11.773 53.2585 13.4247 52.422 15.4325L56.1143 16.971ZM58.6298 13.7653C59.6545 13.0148 60.953 12.5917 62.6381 12.5917V8.59174C60.2432 8.59174 58.0817 9.20865 56.2664 10.5382L58.6298 13.7653ZM62.6381 12.5917C63.9836 12.5917 65.1517 12.8762 66.1821 13.4144L68.0341 9.86904C66.3845 9.00729 64.5726 8.59174 62.6381 8.59174V12.5917ZM66.203 13.4252C67.2125 13.9375 67.9941 14.6607 68.5802 15.6225L71.996 13.541C71.0221 11.9428 69.6837 10.706 68.0132 9.85824L66.203 13.4252ZM68.5921 15.6417C69.1715 16.5688 69.4881 17.6729 69.4881 19.0217H73.4881C73.4881 17.0106 73.0047 15.1547 71.9841 13.5217L68.5921 15.6417ZM69.4881 19.0217C69.4881 20.6974 69.1518 21.9541 68.5963 22.8943L72.04 24.9292C73.0444 23.2293 73.4881 21.226 73.4881 19.0217H69.4881ZM68.5963 22.8943C67.9881 23.9235 67.2439 24.6239 66.3708 25.0745L68.2054 28.629C69.8123 27.7996 71.0881 26.54 72.04 24.9292L68.5963 22.8943ZM66.3708 25.0745C65.4111 25.5698 64.4153 25.8117 63.3581 25.8117V29.8117C65.061 29.8117 66.6851 29.4137 68.2054 28.629L66.3708 25.0745ZM63.3581 25.8117C62.4681 25.8117 61.6958 25.6616 61.0177 25.3875L59.5185 29.096C60.7205 29.5818 62.0081 29.8117 63.3581 29.8117V25.8117ZM58.3024 27.6103C58.4162 28.2176 58.4481 28.5612 58.4481 28.7117H62.4481C62.4481 28.1822 62.36 27.5459 62.2339 26.8732L58.3024 27.6103ZM58.4481 28.7117C58.4481 29.0187 58.4075 29.2038 58.3732 29.3023C58.3567 29.3498 58.3422 29.3761 58.3347 29.3881C58.3275 29.3996 58.3231 29.404 58.3208 29.4062C58.3185 29.4084 58.3102 29.4161 58.29 29.4277C58.2691 29.4398 58.2308 29.4587 58.1682 29.4787C58.0387 29.5201 57.8194 29.5617 57.4781 29.5617V33.5617C58.7562 33.5617 60.0857 33.2563 61.0904 32.2923C62.1104 31.3135 62.4481 29.9915 62.4481 28.7117H58.4481ZM62.9381 25.1617C64.2011 25.1617 65.3262 24.682 66.2123 23.796L63.3839 20.9675C63.23 21.1214 63.1151 21.1617 62.9381 21.1617V25.1617ZM66.2123 23.796C67.0898 22.9184 67.6081 21.803 67.6081 20.5217H63.6081C63.6081 20.6404 63.5864 20.765 63.3839 20.9675L66.2123 23.796ZM67.6081 20.5217C67.6081 19.2336 67.0988 18.1007 66.1854 17.2211L63.4108 20.1024C63.5774 20.2628 63.6081 20.3699 63.6081 20.5217H67.6081ZM66.2387 17.2745C65.3592 16.361 64.2263 15.8517 62.9381 15.8517V19.8517C63.09 19.8517 63.197 19.8824 63.3575 20.049L66.2387 17.2745ZM62.9381 15.8517C61.6568 15.8517 60.5414 16.37 59.6639 17.2475L62.4923 20.076C62.6948 19.8735 62.8194 19.8517 62.9381 19.8517V15.8517ZM59.6908 17.2211C58.7774 18.1007 58.2681 19.2336 58.2681 20.5217H62.2681C62.2681 20.3699 62.2988 20.2628 62.4654 20.1024L59.6908 17.2211ZM58.2681 20.5217C58.2681 21.803 58.7864 22.9185 59.6639 23.796L62.4923 20.9675C62.2898 20.765 62.2681 20.6404 62.2681 20.5217H58.2681ZM59.6908 23.8224C60.5744 24.6732 61.6817 25.1617 62.9381 25.1617V21.1617C62.7945 21.1617 62.6618 21.1302 62.4654 20.9411L59.6908 23.8224ZM82.4271 26.1017L80.4346 25.9285L80.2665 27.8613L82.1934 28.088L82.4271 26.1017ZM84.7971 26.8817L83.6346 28.5092L83.6674 28.5326L83.701 28.5547L84.7971 26.8817ZM84.7671 30.5717L83.6577 28.9076L83.6446 28.9164L83.6316 28.9253L84.7671 30.5717ZM82.6671 31.3217L82.8613 33.3123L82.8853 33.3099L82.9092 33.307L82.6671 31.3217ZM76.3371 31.3217L76.095 33.307L76.1189 33.3099L76.1429 33.3123L76.3371 31.3217ZM74.2371 30.5717L75.3726 28.9253L75.3726 28.9253L74.2371 30.5717ZM74.1771 26.9117L75.3281 28.5474L75.3396 28.5392L74.1771 26.9117ZM76.4571 26.1017L76.7457 28.0808L78.6117 27.8087L78.4497 25.93L76.4571 26.1017ZM76.4271 16.4417L78.4225 16.577L78.5531 14.651L76.6329 14.4524L76.4271 16.4417ZM73.6971 15.6017L72.5877 17.2658L72.5877 17.2658L73.6971 15.6017ZM73.6671 11.4917L74.8002 13.1398L74.8002 13.1398L73.6671 11.4917ZM82.9371 10.6817L83.158 8.69397L83.158 8.69397L82.9371 10.6817ZM85.2471 11.4917L84.114 13.1398L84.1258 13.1479L84.1377 13.1558L85.2471 11.4917ZM85.2171 15.6017L84.1306 13.9226L84.1191 13.93L84.1077 13.9376L85.2171 15.6017ZM82.4571 16.4417L82.2547 14.452L80.2862 14.6522L80.4653 16.6228L82.4571 16.4417ZM82.1934 28.088C83.0309 28.1866 83.4514 28.3783 83.6346 28.5092L85.9596 25.2543C85.0228 24.5851 83.8633 24.2569 82.6608 24.1154L82.1934 28.088ZM83.701 28.5547C83.7032 28.5561 83.6916 28.5486 83.6754 28.5301C83.6589 28.5114 83.6483 28.4934 83.6433 28.483C83.6336 28.4625 83.6671 28.5182 83.6671 28.7117H87.6671C87.6671 27.3612 87.1618 26.04 85.8931 25.2088L83.701 28.5547ZM83.6671 28.7117C83.6671 28.8951 83.6347 28.9503 83.6418 28.9356C83.645 28.929 83.6518 28.9178 83.6612 28.9072C83.6701 28.8971 83.672 28.8981 83.6577 28.9076L85.8765 32.2358C87.1315 31.3992 87.6671 30.0926 87.6671 28.7117H83.6671ZM83.6316 28.9253C83.3601 29.1126 82.9795 29.2688 82.425 29.3364L82.9092 33.307C83.9947 33.1747 85.0141 32.8309 85.9026 32.2182L83.6316 28.9253ZM82.4729 29.3312C81.7432 29.4024 80.7546 29.4417 79.4871 29.4417V33.4417C80.8196 33.4417 81.951 33.4011 82.8613 33.3123L82.4729 29.3312ZM79.4871 29.4417C78.2407 29.4417 77.2618 29.4025 76.5313 29.3312L76.1429 33.3123C77.0524 33.401 78.1735 33.4417 79.4871 33.4417V29.4417ZM76.5792 29.3364C76.0247 29.2688 75.6441 29.1126 75.3726 28.9253L73.1016 32.2182C73.9901 32.8309 75.0095 33.1747 76.095 33.307L76.5792 29.3364ZM75.3726 28.9253C75.3636 28.9191 75.3682 28.921 75.3781 28.9326C75.3883 28.9445 75.3943 28.9553 75.3962 28.9594C75.4002 28.9679 75.3671 28.904 75.3671 28.7117H71.3671C71.3671 30.0647 71.8713 31.3696 73.1016 32.2182L75.3726 28.9253ZM75.3671 28.7117C75.3671 28.517 75.3994 28.4541 75.3934 28.4675C75.3901 28.4748 75.3809 28.492 75.3643 28.5122C75.3477 28.5322 75.3331 28.5438 75.3281 28.5474L73.0261 25.2761C71.8238 26.1222 71.3671 27.4179 71.3671 28.7117H75.3671ZM75.3396 28.5392C75.5563 28.3844 75.9796 28.1925 76.7457 28.0808L76.1685 24.1227C75.0146 24.2909 73.9179 24.6391 73.0146 25.2843L75.3396 28.5392ZM78.4497 25.93C78.3571 24.8562 78.3071 23.2639 78.3071 21.1217H74.3071C74.3071 23.2995 74.357 25.0273 74.4645 26.2735L78.4497 25.93ZM78.3071 21.1217C78.3071 19.2023 78.3469 17.6928 78.4225 16.577L74.4317 16.3065C74.3473 17.5507 74.3071 19.1612 74.3071 21.1217H78.3071ZM76.6329 14.4524C75.6553 14.3512 75.0989 14.1326 74.8065 13.9376L72.5877 17.2658C73.6153 17.9509 74.8789 18.2922 76.2213 18.4311L76.6329 14.4524ZM74.8065 13.9376C74.7796 13.9197 74.7699 13.9087 74.7683 13.9069C74.767 13.9054 74.7641 13.9022 74.7589 13.8913C74.7488 13.8703 74.7071 13.7701 74.7071 13.5317H70.7071C70.7071 14.9977 71.2622 16.3822 72.5877 17.2658L74.8065 13.9376ZM74.7071 13.5317C74.7071 13.3015 74.747 13.2041 74.7567 13.1833C74.7618 13.1726 74.7646 13.1695 74.7656 13.1683C74.7669 13.1669 74.7755 13.1567 74.8002 13.1398L72.534 9.84365C71.2457 10.7294 70.7071 12.0926 70.7071 13.5317H74.7071ZM74.8002 13.1398C75.1268 12.9152 75.5708 12.7392 76.198 12.6695L75.7562 8.69397C74.5834 8.82429 73.4874 9.18824 72.534 9.84365L74.8002 13.1398ZM76.198 12.6695C76.9957 12.5809 78.0745 12.5317 79.4571 12.5317V8.53174C77.9996 8.53174 76.7585 8.58261 75.7562 8.69397L76.198 12.6695ZM79.4571 12.5317C80.8396 12.5317 81.9185 12.5809 82.7162 12.6695L83.158 8.69397C82.1557 8.58261 80.9145 8.53174 79.4571 8.53174V12.5317ZM82.7162 12.6695C83.3434 12.7392 83.7874 12.9152 84.114 13.1398L86.3802 9.84365C85.4268 9.18824 84.3308 8.82429 83.158 8.69397L82.7162 12.6695ZM84.1377 13.1558C84.1677 13.1758 84.1792 13.1885 84.1817 13.1913C84.1838 13.1937 84.1862 13.1965 84.1903 13.2049C84.1976 13.2201 84.2371 13.3096 84.2371 13.5317H88.2371C88.2371 12.0671 87.6688 10.7025 86.3565 9.82764L84.1377 13.1558ZM84.2371 13.5317C84.2371 13.7621 84.1958 13.8545 84.1881 13.8702C84.1838 13.8789 84.1812 13.882 84.1787 13.8848C84.1758 13.888 84.163 13.9016 84.1306 13.9226L86.3036 17.2809C87.6523 16.4082 88.2371 15.023 88.2371 13.5317H84.2371ZM84.1077 13.9376C83.8203 14.1292 83.2582 14.3499 82.2547 14.452L82.6594 18.4315C84.0159 18.2935 85.2939 17.9543 86.3265 17.2658L84.1077 13.9376ZM80.4653 16.6228C80.5571 17.6325 80.6071 19.1215 80.6071 21.1217H84.6071C84.6071 19.082 84.5571 17.451 84.4489 16.2607L80.4653 16.6228ZM80.6071 21.1217C80.6071 23.0248 80.5481 24.6237 80.4346 25.9285L84.4196 26.275C84.5461 24.8197 84.6071 23.0986 84.6071 21.1217H80.6071ZM89.7152 29.7317L87.9264 30.6262L87.9323 30.638L87.9384 30.6498L89.7152 29.7317ZM88.4252 25.3817L90.4022 25.0794L88.4252 25.3817ZM89.2652 13.5917L87.4185 12.8238L87.4147 12.833L89.2652 13.5917ZM95.7152 11.5517L94.2794 12.944L94.2901 12.9551L94.301 12.966L95.7152 11.5517ZM97.4252 14.1317L95.6033 14.9568L95.6063 14.9633L95.6093 14.9699L97.4252 14.1317ZM99.1652 18.4817L101.046 17.8015L101.044 17.795L99.1652 18.4817ZM99.6752 19.8917L97.7945 20.572L101.672 19.7866L99.6752 19.8917ZM100.545 12.6317L98.7308 11.7903L98.7258 11.8012L98.7209 11.8121L100.545 12.6317ZM106.995 13.5317L105.087 14.1294L105.088 14.1349L106.995 13.5317ZM107.325 25.3817L105.378 24.9237L105.376 24.9345L105.373 24.9454L107.325 25.3817ZM99.4052 30.5717L97.991 31.986L98.0124 32.0074L98.0345 32.0281L99.4052 30.5717ZM97.7252 28.1417L95.9071 28.975L95.9142 28.9906L95.9216 29.006L97.7252 28.1417ZM96.1352 24.1817L94.2556 24.8652L94.2589 24.8742L96.1352 24.1817ZM95.3852 22.2017L97.2363 21.4445L93.3854 22.2264L95.3852 22.2017ZM95.4152 24.6317H97.4152V24.6194L97.4151 24.607L95.4152 24.6317ZM95.1752 28.4717L97.148 28.8005L97.1491 28.794L95.1752 28.4717ZM94.2152 30.7217L92.7204 29.393L92.7064 29.4088L92.6927 29.4248L94.2152 30.7217ZM92.1152 29.5317C92.0674 29.5317 92.0416 29.5278 91.9802 29.4817C91.8906 29.4146 91.7097 29.235 91.4921 28.8137L87.9384 30.6498C88.7526 32.2257 90.1101 33.5317 92.1152 33.5317V29.5317ZM91.5041 28.8373C91.0192 27.8676 90.6391 26.6284 90.4022 25.0794L86.4482 25.6841C86.7313 27.535 87.2112 29.1958 87.9264 30.6262L91.5041 28.8373ZM90.4022 25.0794C90.1562 23.4707 90.0352 21.9321 90.0352 20.4617H86.0352C86.0352 22.1514 86.1742 23.8927 86.4482 25.6841L90.4022 25.0794ZM90.0352 20.4617C90.0352 18.0926 90.4116 16.0679 91.1157 14.3504L87.4147 12.833C86.4789 15.1156 86.0352 17.6709 86.0352 20.4617H90.0352ZM91.1119 14.3597C91.4274 13.6011 91.7861 13.1787 92.1154 12.9412C92.4296 12.7145 92.8461 12.5617 93.4652 12.5617V8.56174C92.1244 8.56174 90.8608 8.91399 89.7751 9.69727C88.7043 10.4697 87.9431 11.5624 87.4185 12.8238L91.1119 14.3597ZM93.4652 12.5617C93.7439 12.5617 93.9872 12.6427 94.2794 12.944L97.151 10.1594C96.1633 9.14082 94.9065 8.56174 93.4652 8.56174V12.5617ZM94.301 12.966C94.7545 13.4195 95.1991 14.064 95.6033 14.9568L99.2471 13.3067C98.6914 12.0794 97.9959 11.004 97.1294 10.1375L94.301 12.966ZM95.6093 14.9699C96.0558 15.9373 96.6142 17.3287 97.2868 19.1685L101.044 17.795C100.356 15.9148 99.7546 14.4062 99.2411 13.2936L95.6093 14.9699ZM97.2845 19.162L97.7945 20.572L101.556 19.2115L101.046 17.8015L97.2845 19.162ZM101.672 19.7866C101.633 19.0321 101.615 18.5161 101.615 18.2117H97.6152C97.6152 18.6274 97.6377 19.2314 97.678 19.9969L101.672 19.7866ZM101.615 18.2117C101.615 16.0155 101.911 14.4716 102.37 13.4514L98.7209 11.8121C97.9392 13.5519 97.6152 15.728 97.6152 18.2117H101.615ZM102.36 13.4732C102.565 13.031 102.768 12.8283 102.911 12.7307C103.042 12.6412 103.234 12.5617 103.575 12.5617V8.56174C102.536 8.56174 101.534 8.82731 100.655 9.42782C99.7875 10.0202 99.1658 10.8524 98.7308 11.7903L102.36 13.4732ZM103.575 12.5617C103.975 12.5617 104.195 12.6675 104.364 12.8143C104.568 12.9917 104.847 13.3657 105.087 14.1294L108.904 12.9341C108.523 11.7178 107.922 10.6068 106.987 9.79417C106.016 8.95097 104.836 8.56174 103.575 8.56174V12.5617ZM105.088 14.1349C105.632 15.8522 105.925 17.9496 105.925 20.4617H109.925C109.925 17.6539 109.599 15.1313 108.902 12.9285L105.088 14.1349ZM105.925 20.4617C105.925 21.8723 105.747 23.3582 105.378 24.9237L109.272 25.8398C109.704 24.0052 109.925 22.2112 109.925 20.4617H105.925ZM105.373 24.9454C105.047 26.4048 104.506 27.5781 103.788 28.5149L106.962 30.9486C108.084 29.4854 108.843 27.7586 109.277 25.818L105.373 24.9454ZM103.788 28.5149C103.237 29.2337 102.617 29.5317 101.775 29.5317V33.5317C103.893 33.5317 105.674 32.6297 106.962 30.9486L103.788 28.5149ZM101.775 29.5317C101.405 29.5317 101.1 29.4207 100.776 29.1153L98.0345 32.0281C99.0701 33.0028 100.345 33.5317 101.775 33.5317V29.5317ZM100.819 29.1575C100.34 28.6783 99.9046 28.0617 99.5288 27.2775L95.9216 29.006C96.4658 30.1417 97.1503 31.1452 97.991 31.986L100.819 29.1575ZM99.5433 27.3084C99.1341 26.4154 98.6242 25.1494 98.0115 23.4893L94.2589 24.8742C94.8862 26.574 95.4364 27.9481 95.9071 28.975L99.5433 27.3084ZM98.0148 23.4983C97.6926 22.6123 97.4318 21.9222 97.2363 21.4445L93.5341 22.959C93.6987 23.3613 93.9378 23.9912 94.2556 24.8652L98.0148 23.4983ZM93.3854 22.2264L93.4154 24.6564L97.4151 24.607L97.3851 22.177L93.3854 22.2264ZM93.4152 24.6317C93.4152 26.1589 93.3369 27.3193 93.2014 28.1495L97.1491 28.794C97.3335 27.6642 97.4152 26.2646 97.4152 24.6317H93.4152ZM93.2024 28.1429C93.0835 28.8565 92.8773 29.2165 92.7204 29.393L95.71 32.0505C96.5131 31.147 96.9469 30.007 97.148 28.8005L93.2024 28.1429ZM92.6927 29.4248C92.6913 29.4265 92.6832 29.441 92.6255 29.4632C92.555 29.4904 92.399 29.5317 92.1152 29.5317V33.5317C93.4387 33.5317 94.7835 33.1388 95.7377 32.0187L92.6927 29.4248Z" fill="#4B371F" mask="url(#path-10-outside-1_107_4336)"/>
  </g>
  <defs>
    <filter id="filter0_i_107_4336" x="0" y="21.5532" width="142.426" height="53.915" filterUnits="userSpaceOnUse" color-interpolation-filters="sRGB">
      <feFlood flood-opacity="0" result="BackgroundImageFix"/>
      <feBlend mode="normal" in="SourceGraphic" in2="BackgroundImageFix" result="shape"/>
      <feColorMatrix in="SourceAlpha" type="matrix" values="0 0 0 0 0 0 0 0 0 0 0 0 0 0 0 0 0 0 127 0" result="hardAlpha"/>
      <feOffset dx="-2" dy="-6"/>
      <feComposite in2="hardAlpha" operator="arithmetic" k2="-1" k3="1"/>
      <feColorMatrix type="matrix" values="0 0 0 0 0 0 0 0 0 0 0 0 0 0 0 0 0 0 0.25 0"/>
      <feBlend mode="normal" in2="shape" result="effect1_innerShadow_107_4336"/>
    </filter>
    <filter id="filter1_i_107_4336" x="0.701874" y="20.5532" width="141.021" height="50.8086" filterUnits="userSpaceOnUse" color-interpolation-filters="sRGB">
      <feFlood flood-opacity="0" result="BackgroundImageFix"/>
      <feBlend mode="normal" in="SourceGraphic" in2="BackgroundImageFix" result="shape"/>
      <feColorMatrix in="SourceAlpha" type="matrix" values="0 0 0 0 0 0 0 0 0 0 0 0 0 0 0 0 0 0 127 0" result="hardAlpha"/>
      <feOffset dx="-3" dy="10"/>
      <feComposite in2="hardAlpha" operator="arithmetic" k2="-1" k3="1"/>
      <feColorMatrix type="matrix" values="0 0 0 0 0 0 0 0 0 0 0 0 0 0 0 0 0 0 0.25 0"/>
      <feBlend mode="normal" in2="shape" result="effect1_innerShadow_107_4336"/>
    </filter>
    <filter id="filter2_i_107_4336" x="12.7656" y="8.78711" width="117.745" height="50.5107" filterUnits="userSpaceOnUse" color-interpolation-filters="sRGB">
      <feFlood flood-opacity="0" result="BackgroundImageFix"/>
      <feBlend mode="normal" in="SourceGraphic" in2="BackgroundImageFix" result="shape"/>
      <feColorMatrix in="SourceAlpha" type="matrix" values="0 0 0 0 0 0 0 0 0 0 0 0 0 0 0 0 0 0 127 0" result="hardAlpha"/>
      <feOffset dx="5" dy="-8"/>
      <feComposite in2="hardAlpha" operator="arithmetic" k2="-1" k3="1"/>
      <feColorMatrix type="matrix" values="0 0 0 0 0 0 0 0 0 0 0 0 0 0 0 0 0 0 0.25 0"/>
      <feBlend mode="normal" in2="shape" result="effect1_innerShadow_107_4336"/>
    </filter>
    <filter id="filter3_d_107_4336" x="33.0782" y="8.53174" width="76.847" height="28.0298" filterUnits="userSpaceOnUse" color-interpolation-filters="sRGB">
      <feFlood flood-opacity="0" result="BackgroundImageFix"/>
      <feColorMatrix in="SourceAlpha" type="matrix" values="0 0 0 0 0 0 0 0 0 0 0 0 0 0 0 0 0 0 127 0" result="hardAlpha"/>
      <feOffset dy="3"/>
      <feComposite in2="hardAlpha" operator="out"/>
      <feColorMatrix type="matrix" values="0 0 0 0 0.294118 0 0 0 0 0.215686 0 0 0 0 0.121569 0 0 0 1 0"/>
      <feBlend mode="normal" in2="BackgroundImageFix" result="effect1_dropShadow_107_4336"/>
      <feBlend mode="normal" in="SourceGraphic" in2="effect1_dropShadow_107_4336" result="shape"/>
    </filter>
  </defs>
</svg>
