<svg width="353" height="188" viewBox="0 0 353 188" fill="none" xmlns="http://www.w3.org/2000/svg">
<path d="M309.166 1H32.3549C26.2682 1 20.1495 2.46377 16.7229 7.49443C10.1875 17.0893 1 40.1343 1 93.8721C1 153.289 12.2321 175.183 18.6922 182.862C21.2175 185.863 25.1523 186.744 29.0749 186.744H316.424C324.785 186.744 332.716 183.033 336.345 175.502C342.697 162.319 351.229 136.65 351.229 93.8721C351.229 57.3879 345.022 33.3484 339.256 18.8864C334.451 6.83603 322.139 1 309.166 1Z" fill="#532B0F" stroke="#622713" stroke-width="2"/>
<path d="M124.296 6.71289L123.925 7.99219C115.232 37.9253 113.544 77.1873 114.629 110.869C115.171 127.698 116.404 143.108 117.793 155.227C119.185 167.379 120.726 176.142 121.862 179.728L122.274 181.03H32.0762C25.2892 181.03 19.1478 176.739 17.1523 170.201C-2.72903 105.065 7.00041 45.8865 16.9756 16.5186C19.0434 10.4308 24.8883 6.7135 31.2227 6.71387C60.3213 6.71572 94.1889 6.71274 122.965 6.71289H124.296Z" fill="url(#paint0_linear_38685_2245)" stroke="#D7C69D" stroke-width="2"/>
<path d="M227.87 6.71289L228.316 8.0332C231.853 18.5068 234.023 33.549 235.2 50.5166C236.376 67.4652 236.556 86.2635 236.145 104.211C235.733 122.157 234.729 139.24 233.538 152.752C232.943 159.509 232.301 165.367 231.664 169.99C231.024 174.637 230.397 177.974 229.844 179.729L229.434 181.03H311.279C322.748 181.03 333.166 173.787 336.19 162.638C351.115 107.619 345.518 57.5913 337.422 27.2686C334.003 14.4621 321.906 6.71352 308.81 6.71387C282.769 6.71455 254.245 6.71276 229.264 6.71289H227.87Z" fill="url(#paint1_linear_38685_2245)" stroke="#D7C69D" stroke-width="2"/>
<path d="M223.146 6.71289L223.379 7.3877C226.221 15.633 228.046 28.9711 229.1 44.6484C230.155 60.3557 230.441 78.5068 230.165 96.4346C229.889 114.363 229.052 132.082 227.859 146.929C226.669 161.75 225.119 173.779 223.4 180.285L223.203 181.03H128.291L128.125 180.234C112.917 107.466 121.783 34.7852 128.13 7.4873L128.31 6.71289H223.146Z" fill="url(#paint2_linear_38685_2245)" stroke="#D7C69D" stroke-width="2"/>
<defs>
<linearGradient id="paint0_linear_38685_2245" x1="62.6195" y1="7.71289" x2="62.6195" y2="180.03" gradientUnits="userSpaceOnUse">
<stop stop-color="#FEF2CF"/>
<stop offset="0.475" stop-color="white"/>
<stop offset="1" stop-color="#FEF2CC"/>
</linearGradient>
<linearGradient id="paint1_linear_38685_2245" x1="288.782" y1="7.71289" x2="288.782" y2="180.03" gradientUnits="userSpaceOnUse">
<stop stop-color="#FEF3D2"/>
<stop offset="0.5" stop-color="white"/>
<stop offset="1" stop-color="#FEF3D3"/>
</linearGradient>
<linearGradient id="paint2_linear_38685_2245" x1="174.995" y1="7.71289" x2="174.995" y2="180.03" gradientUnits="userSpaceOnUse">
<stop stop-color="#FEF3D0"/>
<stop offset="0.495" stop-color="white"/>
<stop offset="1" stop-color="#FEF2CF"/>
</linearGradient>
</defs>
</svg>
