<svg width="390" height="1183" viewBox="0 0 390 1183" fill="none" xmlns="http://www.w3.org/2000/svg">
  <g clip-path="url(#clip0_33159_1994)">
    <g clip-path="url(#clip1_33159_1994)">
      <rect width="390" height="1229" transform="translate(0 -46)" fill="url(#paint0_linear_33159_1994)"/>
      <ellipse cx="33.5" cy="7" rx="33.5" ry="7" transform="matrix(-1 0 0 1 392 655)" fill="black" fill-opacity="0.2"/>
      <ellipse cx="23.5" cy="5" rx="23.5" ry="5" transform="matrix(-1 0 0 1 404 671)" fill="black" fill-opacity="0.2"/>
      <path d="M364.316 606.5C354.851 606.5 348.527 613.488 344.428 622.526C340.323 631.578 338.368 642.843 337.694 651.762C337.407 655.563 339.42 659.204 342.93 660.763C359.81 668.265 375.995 664.859 385.356 660.655C388.654 659.173 390.469 655.751 390.269 652.191C389.769 643.276 388.018 631.906 384.056 622.747C380.101 613.603 373.859 606.5 364.316 606.5Z" fill="#3AA75D" stroke="black" stroke-linecap="round"/>
      <path d="M364.316 607C356.34 607 350.614 612.115 346.579 619.358C346.044 622.171 346.91 628.039 354.646 629.003C362.382 629.968 366.755 625.185 367.975 622.673C370.375 626.893 377.304 634.067 385.818 629.003C382.129 617.094 375.52 607 364.316 607Z" fill="#1D773A"/>
      <path d="M389.928 657.637C389.928 640.758 384.806 607 364.316 607C378.534 618.574 379.475 649.662 377.645 662.854C382.929 661.434 387.192 659.417 389.928 657.637Z" fill="#9EFFBD" fill-opacity="0.58"/>
      <path d="M388.526 637.975C381.273 637.975 376.27 642.364 372.921 648.231C369.577 654.09 367.835 661.491 367.09 667.724C366.609 671.757 368.899 675.629 372.762 676.959C385.024 681.18 396.672 679.423 404.099 676.854C407.747 675.592 409.844 671.969 409.482 668.168C408.887 661.917 407.307 654.407 404.068 648.443C400.824 642.47 395.866 637.975 388.526 637.975Z" fill="#3AA75D" stroke="black" stroke-linecap="round"/>
      <path d="M388.527 638.475C382.066 638.475 377.427 642.067 374.158 647.155C373.725 649.131 374.426 653.252 380.693 653.93C386.96 654.607 390.503 651.248 391.491 649.484C393.435 652.448 399.048 657.487 405.946 653.93C402.957 645.565 397.603 638.475 388.527 638.475Z" fill="#1D773A"/>
      <path d="M408.984 668.215C407.8 655.78 402.705 638.475 388.525 638.475C400.043 646.604 400.805 668.441 399.323 677.707C400.992 677.318 402.536 676.865 403.93 676.383C407.341 675.204 409.326 671.808 408.984 668.215Z" fill="#9EFFBD" fill-opacity="0.58"/>
      <path d="M-17.3034 595.749C-30.3673 595.537 -53.461 591.17 -53.9667 583.029C-54.4724 574.888 -49.1204 573.489 -45.117 572.217C-44.9063 568.613 -43.6262 561.984 -36.2672 560.133C-31.2102 558.861 -26.5746 561.829 -26.7853 562.677L-22.9926 561.405C-24.889 560.133 -26.6742 558.749 -22.9926 555.045C-21.2195 553.261 -17.7886 552.589 -17.3499 553.029C-17.656 552.294 -19.2704 547.998 -16.0392 546.141C-12.4994 544.105 -10.7715 546.141 -9.71797 547.413C-7.18948 544.657 -0.994663 540.798 3.55663 547.413H6.71721C6.71721 545.293 7.34933 540.925 9.87782 540.416C12.4063 539.908 14.3027 540.204 14.9348 540.416C15.5669 537.236 18.3483 531.385 24.4167 533.42C28.8904 534.921 30.4325 536.744 30.7651 538.023C31.0563 536.083 32.6745 533.635 37.6913 534.056C43.7597 534.565 45.6982 537.66 45.9089 539.144C46.7517 537.66 49.4488 534.946 53.4944 535.964C57.5399 536.982 59.3942 540.204 59.8156 541.688C62.3441 539.78 68.4125 537.49 72.4581 543.596C76.5037 549.702 74.1437 553.772 72.4581 555.045C75.408 555.469 88.1017 557.804 85.6993 569.889C84.6879 574.977 79.3781 575.825 76.8496 575.613C77.9031 576.673 78.746 579.302 73.689 581.337C68.632 583.372 67.3677 582.609 67.3677 581.973C67.0532 583.033 65.3805 585.153 61.2068 585.153C58.5836 587.792 49.6201 591.9 45.2101 592.103C42.8923 593.674 37.6579 594.647 26.9118 594.693C26.9118 594.693 11.1087 595.749 -1.50036 595.749C-9.67635 595.749 -15.3959 596.313 -17.3034 595.749Z" fill="#6AB87C"/>
      <path d="M-17.3034 595.749C-30.3673 595.537 -53.461 591.17 -53.9667 583.029C-54.4724 574.888 -49.1204 573.489 -45.117 572.217C-44.9063 568.613 -43.6262 561.984 -36.2672 560.133C-31.2102 558.861 -26.5746 561.829 -26.7853 562.677M-17.3034 595.749C-16.4606 592.145 -13.7636 584.556 -9.71797 583.029C-5.67238 581.502 -2.5539 580.273 -1.50036 579.849M-17.3034 595.749C-15.3959 596.313 -9.67635 595.749 -1.50036 595.749C11.1087 595.749 26.9118 594.693 26.9118 594.693C37.6579 594.647 42.8923 593.674 45.2101 592.103M-26.7853 562.677C-28.8924 564.161 -32.7273 568.528 -31.2102 574.125M-26.7853 562.677L-22.9926 561.405C-24.889 560.133 -26.6742 558.749 -22.9926 555.045C-21.0962 553.137 -17.3034 552.501 -17.3034 553.137C-17.3034 553.137 -19.579 548.176 -16.0392 546.141C-12.4994 544.105 -10.7715 546.141 -9.71797 547.413C-7.18948 544.657 -0.994665 540.798 3.55663 547.413M3.55663 547.413C1.23884 548.049 -3.27031 550.084 -2.76461 553.137C-4.45027 554.621 -6.8102 558.352 -2.76461 561.405C1.28098 564.458 3.13521 564.373 3.55663 563.949C1.44955 564.797 -3.14389 567.383 -4.66098 570.945C-6.55735 575.397 -2.76461 579.213 -1.50036 579.849M3.55663 547.413H6.7172C6.7172 545.293 7.34933 540.925 9.87782 540.416C12.4063 539.908 14.3027 540.204 14.9348 540.416C15.5669 537.236 18.3483 531.385 24.4167 533.42C30.4851 535.455 31.1593 538.084 30.7379 539.144C30.5272 537.236 31.6229 533.547 37.6913 534.056C43.7597 534.565 45.6982 537.66 45.9089 539.144C46.7517 537.66 49.4488 534.946 53.4944 535.964C57.5399 536.982 59.3942 540.204 59.8156 541.688C62.3441 539.78 68.4125 537.49 72.4581 543.596C76.5037 549.702 74.1437 553.772 72.4581 555.045C75.408 555.469 88.1017 557.804 85.6993 569.889C84.6879 574.977 79.3781 575.825 76.8496 575.613C77.9031 576.673 78.746 579.302 73.689 581.337C68.632 583.372 67.3677 582.609 67.3677 581.973M-1.50036 579.849C0.606702 576.457 5.83223 569.927 9.87782 570.945C13.9234 571.963 15.7554 575.753 16.1657 577.521C17.43 576.6 20.5906 575.269 23.1191 577.304C25.6476 579.34 27.1225 581.969 27.544 583.029C27.7769 581.545 35.1294 579.429 40.1864 587.061M67.3677 581.973C67.9999 579.853 68.2527 575.613 64.2071 575.613C63.1536 573.493 60.288 571.581 57.2538 574.125C54.2196 576.669 55.1467 579.005 55.9895 580.701C53.8824 580.701 49.5419 581.464 49.0362 584.517C46.297 583.669 40.6921 582.991 40.1864 587.061M67.3677 581.973C67.0532 583.033 65.3805 585.153 61.2068 585.153M40.1864 587.061C39.6807 591.131 42.0828 592.149 43.347 592.149C43.8894 592.149 44.5191 592.135 45.2101 592.103M61.2068 585.153C62.1859 584.168 60.7836 586.248 61.2068 585.153ZM61.2068 585.153C62.0948 582.854 61.9641 580.578 61.6786 579.429M61.2068 585.153C58.5836 587.792 49.6201 591.9 45.2101 592.103" stroke="#54AB81" stroke-linecap="round"/>
      <g filter="url(#filter0_d_33159_1994)">
        <path d="M154.501 295C163.001 311.5 170.001 348 144.001 357.5C87.906 377.996 119.334 436.167 136.001 452C147.001 466 169.501 477.5 144.001 502.5C122.071 524 140.524 559.698 208.501 598.5C325.001 665 130.501 716 130.501 777C130.501 845.5 246.501 836.5 237.501 895.5C230.719 939.958 106.001 984.5 106.001 1062.5C104.668 1086.33 117.201 1135.3 178.001 1140.5" stroke="#F6E992" stroke-width="26"/>
      </g>
      <ellipse cx="162.5" cy="326.5" rx="8.5" ry="3.5" fill="black" fill-opacity="0.1"/>
      <ellipse cx="146" cy="355.5" rx="8" ry="3.5" fill="black" fill-opacity="0.1"/>
      <ellipse cx="156.5" cy="348.5" rx="2.5" ry="1.5" fill="black" fill-opacity="0.1"/>
      <ellipse cx="156.5" cy="481.5" rx="8.5" ry="3.5" fill="black" fill-opacity="0.1"/>
      <ellipse cx="140" cy="510.5" rx="8" ry="3.5" fill="black" fill-opacity="0.1"/>
      <ellipse cx="240" cy="630.5" rx="7" ry="3.5" fill="black" fill-opacity="0.1"/>
      <ellipse cx="228" cy="682" rx="10" ry="4" fill="black" fill-opacity="0.1"/>
      <ellipse cx="137" cy="809" rx="10" ry="4" fill="black" fill-opacity="0.1"/>
      <ellipse cx="234" cy="873" rx="10" ry="4" fill="black" fill-opacity="0.1"/>
      <ellipse cx="174" cy="962" rx="10" ry="4" fill="black" fill-opacity="0.1"/>
      <ellipse cx="228.5" cy="884" rx="4.5" ry="2" fill="black" fill-opacity="0.1"/>
      <ellipse cx="190.5" cy="956" rx="4.5" ry="2" fill="black" fill-opacity="0.1"/>
      <ellipse cx="151" cy="819" rx="7" ry="3" fill="black" fill-opacity="0.1"/>
      <ellipse cx="170" cy="723.5" rx="6" ry="3.5" fill="black" fill-opacity="0.1"/>
      <ellipse cx="206.5" cy="601.5" rx="8.5" ry="3.5" fill="black" fill-opacity="0.1"/>
      <ellipse cx="150.5" cy="503.5" rx="2.5" ry="1.5" fill="black" fill-opacity="0.1"/>
      <ellipse cx="248.5" cy="640.5" rx="4.5" ry="2.5" fill="black" fill-opacity="0.1"/>
      <ellipse cx="157.5" cy="729.5" rx="2.5" ry="1.5" fill="black" fill-opacity="0.18"/>
      <ellipse cx="195.5" cy="594.5" rx="2.5" ry="1.5" fill="black" fill-opacity="0.18"/>
      <ellipse cx="154" cy="563.5" rx="6" ry="2.5" fill="black" fill-opacity="0.1"/>
      <path d="M211.842 380.172C236.242 365.372 350.5 374.005 398.5 380.172C363.333 380.172 271.3 381.4 246.5 387C215.5 394 320.842 418.172 221.342 434.672C121.842 451.172 117.842 452.672 56.842 479.672C-4.15796 506.672 -74.5 462 -14 446.5C46.5 431 148.5 410.5 197.5 413C246.5 415.5 181.342 398.672 211.842 380.172Z" fill="#E7F6FF"/>
      <path d="M21 492.2C21 499.49 15.1797 501 8 501C0.820298 501 -5 499.49 -5 492.2C-5 484.91 0.820298 479 8 479C15.1797 479 21 484.91 21 492.2Z" fill="#B1D363" stroke="#849E49" stroke-linecap="round" stroke-linejoin="round"/>
      <path d="M40 424.2C40 431.49 34.1797 433 27 433C19.8203 433 14 431.49 14 424.2C14 416.91 19.8203 411 27 411C34.1797 411 40 416.91 40 424.2Z" fill="#B1D363" stroke="#849E49" stroke-linecap="round" stroke-linejoin="round"/>
      <path d="M20 430.659C20 435.441 16.1944 434.989 11.5 434.989C6.80558 434.989 3 435.441 3 430.659C3 425.877 6.80558 422 11.5 422C16.1944 422 20 425.877 20 430.659Z" fill="#B1D363" stroke="#849E49" stroke-linecap="round" stroke-linejoin="round"/>
      <ellipse cx="160" cy="428" rx="12" ry="5" fill="#BADCF2"/>
      <ellipse cx="182" cy="430.5" rx="6" ry="2.5" fill="#BADCF2"/>
      <ellipse cx="218" cy="427.5" rx="6" ry="2.5" fill="#BADCF2"/>
      <ellipse cx="29" cy="461.5" rx="6" ry="2.5" fill="#BADCF2"/>
      <ellipse cx="226" cy="387.5" rx="9" ry="3.5" fill="#BADCF2"/>
      <ellipse cx="72" cy="436" rx="12" ry="5" fill="#BADCF2"/>
      <path d="M65.0009 446C65.0009 448.761 35.4944 453 25.001 453C14.5075 453 27.0009 448.761 27.0009 446C27.0009 443.239 35.5075 441 46.0009 441C56.4944 441 65.0009 443.239 65.0009 446Z" fill="#BADCF2"/>
      <ellipse cx="55" cy="458" rx="12" ry="5" fill="#BADCF2"/>
      <ellipse cx="77" cy="459" rx="7" ry="3" fill="#BADCF2"/>
      <ellipse cx="42" cy="472.5" rx="6" ry="2.5" fill="#BADCF2"/>
      <path d="M98.5528 156.33C99.9553 154.928 102.669 154.4 103.016 154.746C102.774 154.168 101.497 150.791 104.053 149.33C106.853 147.73 108.219 149.331 109.053 150.331C111.053 148.164 115.953 145.131 119.553 150.331H122.053C122.053 148.664 122.553 145.23 124.553 144.83C126.553 144.43 128.053 144.664 128.553 144.83C129.053 142.33 131.253 137.73 136.053 139.33C139.591 140.51 140.811 141.943 141.074 142.949C141.305 141.424 142.585 139.499 146.553 139.83C151.353 140.23 152.886 142.663 153.053 143.83C153.719 142.663 155.853 140.53 159.053 141.33C162.253 142.13 163.719 144.663 164.053 145.83C166.053 144.33 170.853 142.53 174.053 147.33C177.253 152.13 175.386 155.33 174.053 156.33C176.211 156.054 180.726 156.8 181.526 162C182.326 167.2 179.86 170.258 178.526 171.138C179.15 173.065 178.316 175.319 176.026 175.83C173.626 176.366 166.36 176.054 163.026 175.83C163.193 174.72 163.026 172.5 161.026 172.5C159.026 172.5 158.193 173.5 158.026 174C157.526 173.39 156.226 172.536 155.026 174C153.826 175.464 154.526 176.277 155.026 176.5L150.526 175.83H115.553C114.876 175.492 113.283 174.009 112.789 172H97.0265C94.8598 171.833 90.6265 170.4 91.0265 166C91.4265 161.6 96.5265 161.054 99.0264 161.33C97.0264 159.731 97.8774 157.33 98.5528 156.33Z" fill="#718843"/>
      <path d="M119.553 150.331C115.953 145.131 111.053 148.164 109.053 150.331C108.219 149.331 106.853 147.73 104.053 149.33C101.253 150.93 103.053 154.83 103.053 154.83C103.053 154.33 100.053 154.83 98.5528 156.33C97.8774 157.33 97.0264 159.731 99.0264 161.33C96.5265 161.054 91.4265 161.6 91.0265 166C90.6265 170.4 94.8598 171.833 97.0265 172H112.789M119.553 150.331C117.719 150.831 114.153 152.43 114.553 154.83C113.219 155.997 111.353 158.93 114.553 161.33C117.753 163.73 119.219 163.664 119.553 163.33C117.886 163.997 114.253 166.03 113.053 168.83C112.568 169.962 112.553 171.041 112.789 172M119.553 150.331H122.053C122.053 148.664 122.553 145.23 124.553 144.83C126.553 144.43 128.053 144.664 128.553 144.83C129.053 142.33 131.253 137.73 136.053 139.33C140.853 140.93 141.386 142.997 141.053 143.83C140.886 142.33 141.753 139.43 146.553 139.83C151.353 140.23 152.886 142.663 153.053 143.83C153.719 142.663 155.853 140.53 159.053 141.33C162.253 142.13 163.719 144.663 164.053 145.83C166.053 144.33 170.853 142.53 174.053 147.33C177.253 152.13 175.386 155.33 174.053 156.33C176.211 156.054 180.726 156.8 181.526 162C182.326 167.2 179.86 170.258 178.526 171.138M150.526 175.83H115.553C114.876 175.492 113.283 174.009 112.789 172M150.526 175.83C149.693 173.941 149.426 169.895 155.026 168.83C155.693 166.61 157.926 162.836 161.526 165.5C162.526 163.72 165.326 160.795 168.526 163.33C171.726 165.866 171.193 169.167 170.526 170.5C172.193 169.5 175.926 167.9 177.526 169.5C178 169.973 178.333 170.54 178.526 171.138M150.526 175.83L155.026 176.5C154.526 176.277 153.826 175.464 155.026 174C156.226 172.536 157.526 173.39 158.026 174C158.193 173.5 159.026 172.5 161.026 172.5C163.026 172.5 163.193 174.72 163.026 175.83C166.36 176.054 173.626 176.366 176.026 175.83C178.316 175.319 179.15 173.065 178.526 171.138" stroke="#849E49" stroke-linecap="round" stroke-linejoin="round"/>
      <path d="M291.131 156.33C289.728 154.928 287.015 154.4 286.668 154.746C286.91 154.168 288.187 150.791 285.631 149.33C282.831 147.73 281.464 149.331 280.631 150.331C278.631 148.164 273.731 145.131 270.131 150.331H267.631C267.631 148.664 267.131 145.23 265.131 144.83C263.131 144.43 261.631 144.664 261.131 144.83C260.631 142.33 258.431 137.73 253.631 139.33C250.092 140.51 248.872 141.943 248.609 142.949C248.379 141.424 247.099 139.499 243.131 139.83C238.331 140.23 236.797 142.663 236.631 143.83C235.964 142.663 233.831 140.53 230.631 141.33C227.431 142.13 225.964 144.663 225.631 145.83C223.631 144.33 218.831 142.53 215.631 147.33C212.431 152.13 214.297 155.33 215.631 156.33C213.473 156.054 208.957 156.8 208.157 162C207.357 167.2 209.824 170.258 211.157 171.138C210.534 173.065 211.367 175.319 213.657 175.83C216.057 176.366 223.324 176.054 226.657 175.83C226.49 174.72 226.657 172.5 228.657 172.5C230.657 172.5 231.49 173.5 231.657 174C232.157 173.39 233.457 172.536 234.657 174C235.857 175.464 235.157 176.277 234.657 176.5L239.157 175.83H274.131C274.808 175.492 276.4 174.009 276.894 172H292.657C294.824 171.833 299.057 170.4 298.657 166C298.257 161.6 293.157 161.054 290.657 161.33C292.657 159.731 291.806 157.33 291.131 156.33Z" fill="#718843"/>
      <path d="M270.131 150.331C273.731 145.131 278.631 148.164 280.631 150.331C281.464 149.331 282.831 147.73 285.631 149.33C288.431 150.93 286.631 154.83 286.631 154.83C286.631 154.33 289.631 154.83 291.131 156.33C291.806 157.33 292.657 159.731 290.657 161.33C293.157 161.054 298.257 161.6 298.657 166C299.057 170.4 294.824 171.833 292.657 172H276.894M270.131 150.331C271.964 150.831 275.531 152.43 275.131 154.83C276.464 155.997 278.331 158.93 275.131 161.33C271.931 163.73 270.464 163.664 270.131 163.33C271.797 163.997 275.431 166.03 276.631 168.83C277.116 169.962 277.13 171.041 276.894 172M270.131 150.331H267.631C267.631 148.664 267.131 145.23 265.131 144.83C263.131 144.43 261.631 144.664 261.131 144.83C260.631 142.33 258.431 137.73 253.631 139.33C248.831 140.93 248.297 142.997 248.631 143.83C248.797 142.33 247.931 139.43 243.131 139.83C238.331 140.23 236.797 142.663 236.631 143.83C235.964 142.663 233.831 140.53 230.631 141.33C227.431 142.13 225.964 144.663 225.631 145.83C223.631 144.33 218.831 142.53 215.631 147.33C212.431 152.13 214.297 155.33 215.631 156.33C213.473 156.054 208.957 156.8 208.157 162C207.357 167.2 209.824 170.258 211.157 171.138M239.157 175.83H274.131C274.808 175.492 276.4 174.009 276.894 172M239.157 175.83C239.99 173.941 240.257 169.895 234.657 168.83C233.99 166.61 231.757 162.836 228.157 165.5C227.157 163.72 224.357 160.795 221.157 163.33C217.957 165.866 218.49 169.167 219.157 170.5C217.49 169.5 213.757 167.9 212.157 169.5C211.684 169.973 211.35 170.54 211.157 171.138M239.157 175.83L234.657 176.5C235.157 176.277 235.857 175.464 234.657 174C233.457 172.536 232.157 173.39 231.657 174C231.49 173.5 230.657 172.5 228.657 172.5C226.657 172.5 226.49 174.72 226.657 175.83C223.324 176.054 216.057 176.366 213.657 175.83C211.367 175.319 210.534 173.065 211.157 171.138" stroke="#849E49" stroke-linecap="round" stroke-linejoin="round"/>
      <path d="M164.026 197.33C153.693 197.164 135.426 193.73 135.026 187.33C134.626 180.93 138.86 179.83 142.026 178.83C142.193 175.997 143.206 170.786 149.026 169.33C153.026 168.33 156.693 170.664 156.526 171.33L159.526 170.33C158.026 169.33 156.614 168.243 159.526 165.33C160.929 163.928 163.643 163.4 163.99 163.746C163.748 163.168 162.471 159.791 165.026 158.33C167.826 156.73 169.193 158.331 170.026 159.331C172.026 157.164 176.926 154.131 180.526 159.331H183.026C183.026 157.664 183.526 154.23 185.526 153.83C187.526 153.43 189.026 153.664 189.526 153.83C190.026 151.33 192.226 146.73 197.026 148.33C200.565 149.51 201.785 150.943 202.048 151.949C202.278 150.424 203.558 148.499 207.526 148.83C212.326 149.23 213.86 151.663 214.026 152.83C214.693 151.663 216.826 149.53 220.026 150.33C223.226 151.13 224.693 153.663 225.026 154.83C227.026 153.33 231.826 151.53 235.026 156.33C238.226 161.13 236.36 164.33 235.026 165.33C237.36 165.664 247.4 167.5 245.5 177C244.7 181 240.5 181.667 238.5 181.5C239.333 182.334 240 184.401 236 186C232 187.6 231 187 231 186.5C230.751 187.333 229.428 189 226.127 189C224.052 191.075 216.962 194.304 213.474 194.464C211.64 195.699 207.5 196.464 199 196.5C199 196.5 186.5 197.33 176.526 197.33C170.059 197.33 165.535 197.774 164.026 197.33Z" fill="#B1D363"/>
      <path d="M164.026 197.33C153.693 197.164 135.426 193.73 135.026 187.33C134.626 180.93 138.86 179.83 142.026 178.83C142.193 175.997 143.206 170.786 149.026 169.33C153.026 168.33 156.693 170.664 156.526 171.33M164.026 197.33C164.693 194.497 166.826 188.531 170.026 187.33C173.226 186.13 175.693 185.164 176.526 184.83M164.026 197.33C165.535 197.774 170.059 197.33 176.526 197.33C186.5 197.33 199 196.5 199 196.5C207.5 196.464 211.64 195.699 213.474 194.464M156.526 171.33C154.86 172.497 151.826 175.93 153.026 180.33M156.526 171.33L159.526 170.33C158.026 169.33 156.614 168.243 159.526 165.33C161.026 163.83 164.026 163.33 164.026 163.83C164.026 163.83 162.226 159.93 165.026 158.33C167.826 156.73 169.193 158.331 170.026 159.331C172.026 157.164 176.926 154.131 180.526 159.331M180.526 159.331C178.693 159.831 175.126 161.43 175.526 163.83C174.193 164.997 172.326 167.93 175.526 170.33C178.726 172.73 180.193 172.664 180.526 172.33C178.86 172.997 175.226 175.03 174.026 177.83C172.526 181.33 175.526 184.33 176.526 184.83M180.526 159.331H183.026C183.026 157.664 183.526 154.23 185.526 153.83C187.526 153.43 189.026 153.664 189.526 153.83C190.026 151.33 192.226 146.73 197.026 148.33C201.826 149.93 202.36 151.997 202.026 152.83C201.86 151.33 202.726 148.43 207.526 148.83C212.326 149.23 213.86 151.663 214.026 152.83C214.693 151.663 216.826 149.53 220.026 150.33C223.226 151.13 224.693 153.663 225.026 154.83C227.026 153.33 231.826 151.53 235.026 156.33C238.226 161.13 236.36 164.33 235.026 165.33C237.36 165.664 247.4 167.5 245.5 177C244.7 181 240.5 181.667 238.5 181.5C239.333 182.334 240 184.401 236 186C232 187.6 231 187 231 186.5M176.526 184.83C178.193 182.164 182.326 177.03 185.526 177.83C188.726 178.63 190.175 181.61 190.5 183C191.5 182.277 194 181.23 196 182.83C198 184.43 199.167 186.497 199.5 187.33C199.684 186.164 205.5 184.5 209.5 190.5M231 186.5C231.5 184.833 231.7 181.5 228.5 181.5C227.667 179.833 225.4 178.33 223 180.33C220.6 182.33 221.333 184.167 222 185.5C220.333 185.5 216.9 186.1 216.5 188.5C214.333 187.834 209.9 187.301 209.5 190.5M231 186.5C230.751 187.333 229.428 189 226.127 189M209.5 190.5C209.1 193.7 211 194.5 212 194.5C212.429 194.5 212.927 194.489 213.474 194.464M226.127 189C226.901 188.226 225.792 189.861 226.127 189ZM226.127 189C226.829 187.193 226.726 185.403 226.5 184.5M226.127 189C224.052 191.075 216.962 194.304 213.474 194.464" stroke="#849E49" stroke-linecap="round" stroke-linejoin="round"/>
      <path d="M436.131 156.33C434.728 154.928 432.015 154.4 431.668 154.746C431.91 154.168 433.187 150.791 430.631 149.33C427.831 147.73 426.464 149.331 425.631 150.331C423.631 148.164 418.731 145.131 415.131 150.331H412.631C412.631 148.664 412.131 145.23 410.131 144.83C408.131 144.43 406.631 144.664 406.131 144.83C405.631 142.33 403.431 137.73 398.631 139.33C395.092 140.51 393.872 141.943 393.609 142.949C393.379 141.424 392.099 139.499 388.131 139.83C383.331 140.23 381.797 142.663 381.631 143.83C380.964 142.663 378.831 140.53 375.631 141.33C372.431 142.13 370.964 144.663 370.631 145.83C368.631 144.33 363.831 142.53 360.631 147.33C357.431 152.13 359.297 155.33 360.631 156.33C358.473 156.054 353.957 156.8 353.157 162C352.357 167.2 354.824 170.258 356.157 171.138C355.534 173.065 356.367 175.319 358.657 175.83C361.057 176.366 368.324 176.054 371.657 175.83C371.49 174.72 371.657 172.5 373.657 172.5C375.657 172.5 376.49 173.5 376.657 174C377.157 173.39 378.457 172.536 379.657 174C380.857 175.464 380.157 176.277 379.657 176.5L384.157 175.83H419.131C419.808 175.492 421.4 174.009 421.894 172H437.657C439.824 171.833 444.057 170.4 443.657 166C443.257 161.6 438.157 161.054 435.657 161.33C437.657 159.731 436.806 157.33 436.131 156.33Z" fill="#718843"/>
      <path d="M415.131 150.331C418.731 145.131 423.631 148.164 425.631 150.331C426.464 149.331 427.831 147.73 430.631 149.33C433.431 150.93 431.631 154.83 431.631 154.83C431.631 154.33 434.631 154.83 436.131 156.33C436.806 157.33 437.657 159.731 435.657 161.33C438.157 161.054 443.257 161.6 443.657 166C444.057 170.4 439.824 171.833 437.657 172H421.894M415.131 150.331C416.964 150.831 420.531 152.43 420.131 154.83C421.464 155.997 423.331 158.93 420.131 161.33C416.931 163.73 415.464 163.664 415.131 163.33C416.797 163.997 420.431 166.03 421.631 168.83C422.116 169.962 422.13 171.041 421.894 172M415.131 150.331H412.631C412.631 148.664 412.131 145.23 410.131 144.83C408.131 144.43 406.631 144.664 406.131 144.83C405.631 142.33 403.431 137.73 398.631 139.33C393.831 140.93 393.297 142.997 393.631 143.83C393.797 142.33 392.931 139.43 388.131 139.83C383.331 140.23 381.797 142.663 381.631 143.83C380.964 142.663 378.831 140.53 375.631 141.33C372.431 142.13 370.964 144.663 370.631 145.83C368.631 144.33 363.831 142.53 360.631 147.33C357.431 152.13 359.297 155.33 360.631 156.33C358.473 156.054 353.957 156.8 353.157 162C352.357 167.2 354.824 170.258 356.157 171.138M384.157 175.83H419.131C419.808 175.492 421.4 174.009 421.894 172M384.157 175.83C384.99 173.941 385.257 169.895 379.657 168.83C378.99 166.61 376.757 162.836 373.157 165.5C372.157 163.72 369.357 160.795 366.157 163.33C362.957 165.866 363.49 169.167 364.157 170.5C362.49 169.5 358.757 167.9 357.157 169.5C356.684 169.973 356.35 170.54 356.157 171.138M384.157 175.83L379.657 176.5C380.157 176.277 380.857 175.464 379.657 174C378.457 172.536 377.157 173.39 376.657 174C376.49 173.5 375.657 172.5 373.657 172.5C371.657 172.5 371.49 174.72 371.657 175.83C368.324 176.054 361.057 176.366 358.657 175.83C356.367 175.319 355.534 173.065 356.157 171.138" stroke="#849E49" stroke-linecap="round" stroke-linejoin="round"/>
      <path d="M378.857 160.037C377.455 158.635 374.741 158.107 374.394 158.453C374.636 157.875 375.913 154.498 373.357 153.037C370.557 151.437 369.191 153.037 368.357 154.037C366.357 151.871 361.457 148.838 357.857 154.037H355.357C355.357 152.371 354.857 148.937 352.857 148.537C350.857 148.137 349.357 148.371 348.857 148.537C348.357 146.037 346.157 141.437 341.357 143.037C336.557 144.637 336.394 142.204 336.728 143.037C336.894 141.537 336.028 138.637 331.228 139.037C326.428 139.437 324.894 141.871 324.728 143.037C324.061 141.871 321.928 139.737 318.728 140.537C315.528 141.337 314.061 143.871 313.728 145.037C311.728 143.537 305.428 144.907 302.228 149.707C299.028 154.507 302.024 159.037 303.357 160.037C301.147 159.261 296.228 158.807 294.228 163.207C292.228 167.607 297.728 170.04 300.728 170.707C296.894 170.761 289.628 172.602 291.228 179.537C292.828 186.473 306.228 184.54 312.728 182.707H346.228C346.351 180.707 347.224 176.707 349.728 176.707C352.231 176.707 353.771 178.594 354.228 179.537C355.85 177.481 359.646 174.602 361.857 179.537C362.534 179.199 364.127 177.716 364.621 175.707H380.384C382.55 175.54 386.784 174.107 386.384 169.707C385.984 165.307 380.884 164.761 378.384 165.037C380.384 163.437 379.533 161.037 378.857 160.037Z" fill="#718843"/>
      <path d="M357.857 154.037C361.457 148.838 366.357 151.871 368.357 154.037C369.191 153.037 370.557 151.437 373.357 153.037C376.157 154.637 374.357 158.537 374.357 158.537C374.357 158.037 377.357 158.537 378.857 160.037C379.533 161.037 380.384 163.437 378.384 165.037C380.884 164.761 385.984 165.307 386.384 169.707C386.784 174.107 382.55 175.54 380.384 175.707H364.621M357.857 154.037C359.691 154.537 363.257 156.137 362.857 158.537C364.191 159.704 366.057 162.637 362.857 165.037C359.657 167.437 358.191 167.371 357.857 167.037C359.524 167.704 363.157 169.737 364.357 172.537C364.842 173.669 364.857 174.748 364.621 175.707M357.857 154.037H355.357C355.357 152.371 354.857 148.937 352.857 148.537C350.857 148.137 349.357 148.371 348.857 148.537C348.357 146.037 346.157 141.437 341.357 143.037C336.557 144.637 336.394 142.204 336.728 143.037C336.894 141.537 336.028 138.637 331.228 139.037C326.428 139.437 324.894 141.871 324.728 143.037C324.061 141.871 321.928 139.737 318.728 140.537C315.528 141.337 314.061 143.871 313.728 145.037C311.728 143.537 305.428 144.907 302.228 149.707C299.028 154.507 302.024 159.037 303.357 160.037C301.147 159.261 296.228 158.807 294.228 163.207C292.228 167.607 297.728 170.04 300.728 170.707C296.894 170.761 289.628 172.602 291.228 179.537C292.828 186.473 306.228 184.54 312.728 182.707H346.228C346.351 180.707 347.224 176.707 349.728 176.707C352.231 176.707 353.771 178.594 354.228 179.537C355.85 177.481 359.646 174.602 361.857 179.537C362.534 179.199 364.127 177.716 364.621 175.707" stroke="#849E49" stroke-linecap="round" stroke-linejoin="round"/>
      <path d="M60.7671 172.692C59.2384 171.179 56.2802 170.609 55.902 170.982C56.1659 170.359 57.5578 166.717 54.7719 165.141C51.7198 163.416 50.23 165.141 49.3217 166.22C47.1416 163.883 41.8004 160.611 37.8762 166.22H35.1512C35.1512 164.422 34.6061 160.719 32.4261 160.287C30.246 159.856 28.6109 160.108 28.0659 160.287C27.5209 157.591 25.1228 152.629 19.8906 154.355C14.6584 156.081 14.4805 153.456 14.8439 154.355C15.0255 152.737 14.0808 149.609 8.84863 150.04C3.61642 150.472 1.94503 153.097 1.76336 154.355C1.03666 153.097 -1.28877 150.795 -4.7769 151.658C-8.26504 152.521 -9.86375 155.254 -10.2271 156.512C-12.4072 154.894 -19.2745 156.372 -22.7626 161.549C-26.2507 166.727 -22.9844 171.613 -21.531 172.692C-23.9399 171.854 -29.3028 171.365 -31.4829 176.111C-33.663 180.857 -27.6678 183.482 -24.3977 184.201C-28.5761 184.258 -36.4971 186.244 -34.7531 193.725C-33.009 201.207 -18.4024 199.122 -11.3171 197.144H25.1993C25.3338 194.987 26.2851 190.672 29.0144 190.672C31.7437 190.672 33.4217 192.708 33.9196 193.725C35.6877 191.507 39.8264 188.402 42.2364 193.725C42.9741 193.36 44.7104 191.76 45.2489 189.594H62.4309C64.7927 189.414 69.4072 187.868 68.9712 183.122C68.5351 178.376 62.9759 177.787 60.2508 178.085C62.4309 176.359 61.5034 173.771 60.7671 172.692Z" fill="#718843"/>
      <path d="M37.8762 166.22C41.8004 160.611 47.1416 163.883 49.3217 166.22C50.23 165.141 51.7198 163.416 54.7719 165.141C57.824 166.867 55.8619 171.074 55.8619 171.074C55.8619 170.535 59.1321 171.074 60.7671 172.692C61.5034 173.771 62.4309 176.359 60.2508 178.085C62.9759 177.787 68.5351 178.376 68.9712 183.122C69.4072 187.868 64.7927 189.414 62.4309 189.594H45.2489M37.8762 166.22C39.8746 166.759 43.7625 168.485 43.3264 171.074C44.7798 172.332 46.8146 175.496 43.3264 178.085C39.8383 180.674 38.2396 180.602 37.8762 180.242C39.693 180.962 43.6535 183.155 44.9615 186.175C45.49 187.395 45.506 188.559 45.2489 189.594M37.8762 166.22H35.1512C35.1512 164.422 34.6061 160.719 32.4261 160.287C30.246 159.856 28.6109 160.108 28.0659 160.287C27.5209 157.591 25.1228 152.629 19.8906 154.355C14.6584 156.081 14.4805 153.456 14.8439 154.355C15.0255 152.737 14.0808 149.609 8.84863 150.04C3.61643 150.472 1.94503 153.097 1.76336 154.355C1.03666 153.097 -1.28877 150.795 -4.7769 151.658C-8.26504 152.521 -9.86376 155.254 -10.2271 156.512C-12.4072 154.894 -19.2745 156.372 -22.7626 161.549C-26.2507 166.727 -22.9844 171.613 -21.531 172.692C-23.94 171.854 -29.3028 171.365 -31.4829 176.111C-33.663 180.857 -27.6678 183.482 -24.3977 184.201C-28.5761 184.258 -36.4971 186.244 -34.753 193.725C-33.009 201.207 -18.4024 199.122 -11.3171 197.144H25.1993C25.3338 194.987 26.2851 190.672 29.0144 190.672C31.7437 190.672 33.4217 192.708 33.9196 193.725C35.6877 191.507 39.8264 188.402 42.2364 193.725C42.9741 193.36 44.7104 191.76 45.2489 189.594" stroke="#849E49" stroke-linecap="round" stroke-linejoin="round"/>
      <path d="M146.056 202.777C146.462 200.346 142.836 198.725 140.972 198.219H138.431C138.431 196.531 137.922 193.053 135.889 192.648C133.855 192.243 132.33 192.479 131.822 192.648C131.314 190.116 129.077 185.457 124.197 187.077C119.317 188.698 119.151 186.234 119.49 187.078C119.49 187.078 118.778 182.621 113.898 183.026C109.018 183.431 107.459 185.896 107.289 187.078C106.612 185.896 104.443 183.735 101.189 184.545C97.9359 185.356 96.4448 187.922 96.1059 189.103C94.0725 187.584 87.6673 188.971 84.4139 193.833C81.1605 198.695 84.207 203.283 85.5626 204.296C83.3158 203.509 78.3138 203.05 76.2804 207.507C74.247 211.963 79.8388 214.428 82.8889 215.103C78.9916 215.157 71.6036 217.022 73.2303 224.047C74.857 231.072 88.4807 229.114 95.0892 227.258L145.039 224.047C145.727 223.704 147.347 222.202 147.849 220.167C148.089 219.196 148.074 218.103 147.581 216.957C146.443 214.313 143.156 212.344 141.343 211.542C142.014 211.642 143.484 211.282 146.056 209.361C149.309 206.93 147.411 203.959 146.056 202.777Z" fill="#B1D363"/>
      <path d="M140.972 198.219C142.836 198.725 146.462 200.346 146.056 202.777C147.411 203.959 149.309 206.93 146.056 209.361C142.802 211.791 141.311 211.724 140.972 211.386C142.667 212.062 146.361 214.121 147.581 216.957C148.074 218.103 148.089 219.196 147.849 220.167C147.347 222.202 145.727 223.704 145.039 224.047L95.0892 227.258C88.4807 229.114 74.857 231.072 73.2303 224.047C71.6036 217.022 78.9916 215.157 82.8889 215.103C79.8388 214.428 74.247 211.963 76.2804 207.507C78.3138 203.05 83.3158 203.509 85.5626 204.296C84.207 203.283 81.1605 198.695 84.4139 193.833C87.6673 188.971 94.0725 187.584 96.1059 189.103C96.4448 187.922 97.9359 185.356 101.189 184.545C104.443 183.735 106.612 185.896 107.289 187.078C107.459 185.896 109.018 183.431 113.898 183.026C118.778 182.621 119.49 187.078 119.49 187.078C119.151 186.234 119.317 188.698 124.197 187.077C129.077 185.457 131.314 190.116 131.822 192.648C132.33 192.479 133.855 192.243 135.889 192.648C137.922 193.053 138.431 196.531 138.431 198.219H140.972Z" stroke="#849E49" stroke-linecap="round" stroke-linejoin="round"/>
      <path d="M363 182C363 186.971 358.971 188 354 188C349.029 188 345 186.971 345 182C345 177.029 349.029 173 354 173C358.971 173 363 177.029 363 182Z" fill="#B1D363" stroke="#849E49" stroke-linecap="round" stroke-linejoin="round"/>
      <path d="M185 212C185 216.971 180.971 218 176 218C171.029 218 167 216.971 167 212C167 207.029 171.029 203 176 203C180.971 203 185 207.029 185 212Z" fill="#B1D363" stroke="#849E49" stroke-linecap="round" stroke-linejoin="round"/>
      <path d="M147 225.8C147 231.765 142.075 233 136 233C129.925 233 125 231.765 125 225.8C125 219.835 129.925 215 136 215C142.075 215 147 219.835 147 225.8Z" fill="#B1D363" stroke="#849E49" stroke-linecap="round" stroke-linejoin="round"/>
      <path d="M81 156C81 159.314 78.3137 160 75 160C71.6863 160 69 159.314 69 156C69 152.686 71.6863 150 75 150C78.3137 150 81 152.686 81 156Z" fill="#718843" stroke="#849E49" stroke-linecap="round" stroke-linejoin="round"/>
      <path d="M65 158C65 161.314 62.3137 162 59 162C55.6863 162 53 161.314 53 158C53 154.686 55.6863 152 59 152C62.3137 152 65 154.686 65 158Z" fill="#718843" stroke="#849E49" stroke-linecap="round" stroke-linejoin="round"/>
      <path d="M372 185C372 188.314 369.314 188 366 188C362.686 188 360 188.314 360 185C360 181.686 362.686 179 366 179C369.314 179 372 181.686 372 185Z" fill="#718843" stroke="#849E49" stroke-linecap="round" stroke-linejoin="round"/>
      <path d="M89 161.4C89 166.039 85.1944 167 80.5 167C75.8056 167 72 166.039 72 161.4C72 156.761 75.8056 153 80.5 153C85.1944 153 89 156.761 89 161.4Z" fill="#718843" stroke="#849E49" stroke-linecap="round" stroke-linejoin="round"/>
      <path d="M279 181.4C279 187.696 273.851 189 267.5 189C261.149 189 256 187.696 256 181.4C256 175.104 261.149 170 267.5 170C273.851 170 279 175.104 279 181.4Z" fill="#718843" stroke="#849E49" stroke-linecap="round" stroke-linejoin="round"/>
      <path d="M259 183C259 186.314 256.314 187 253 187C249.686 187 247 186.314 247 183C247 179.686 249.686 177 253 177C256.314 177 259 179.686 259 183Z" fill="#718843" stroke="#849E49" stroke-linecap="round" stroke-linejoin="round"/>
      <path d="M306 185C306 188.314 303.314 189 300 189C296.686 189 294 188.314 294 185C294 181.686 296.686 179 300 179C303.314 179 306 181.686 306 185Z" fill="#718843" stroke="#849E49" stroke-linecap="round" stroke-linejoin="round"/>
      <path d="M392 190C392 193.314 389.314 194 386 194C382.686 194 380 193.314 380 190C380 186.686 382.686 184 386 184C389.314 184 392 186.686 392 190Z" fill="#718843" stroke="#849E49" stroke-linecap="round" stroke-linejoin="round"/>
      <rect width="390" height="64" fill="url(#paint1_linear_33159_1994)"/>
      <g opacity="0.5">
        <ellipse cx="46.7481" cy="9.76826" rx="46.7481" ry="9.76826" transform="matrix(-1 0 0 1 360.641 298.982)" fill="black" fill-opacity="0.2"/>
        <ellipse cx="32.7934" cy="6.97733" rx="32.7934" ry="6.97733" transform="matrix(-1 0 0 1 377.387 321.311)" fill="black" fill-opacity="0.2"/>
        <path d="M322.007 231.5C308.503 231.5 299.594 241.778 293.901 254.952C288.2 268.145 285.638 284.416 284.897 296.798C284.67 300.6 286.68 304.2 290.127 305.863C315.601 318.16 340.248 312.187 353.252 305.768C356.481 304.174 358.278 300.788 358.131 297.229C357.619 284.867 355.343 268.489 349.85 255.185C344.366 241.9 335.591 231.5 322.007 231.5Z" fill="#74DA95" stroke="black" stroke-linecap="round"/>
        <path d="M322.007 232C310.878 232 302.887 239.137 297.256 249.245C296.511 253.171 297.718 261.359 308.513 262.705C319.309 264.051 325.411 257.377 327.113 253.872C330.463 259.76 340.132 269.771 352.014 262.705C346.865 246.086 337.642 232 322.007 232Z" fill="#B2F0C6"/>
        <path d="M357.747 302.663C357.747 279.108 350.598 232 322.006 232C341.846 248.151 343.158 291.533 340.606 309.943C347.979 307.96 353.928 305.146 357.747 302.663Z" fill="black" fill-opacity="0.3"/>
        <path d="M355.791 275.422C345.277 275.422 338.174 282.087 333.524 290.839C328.876 299.585 326.623 310.502 325.81 319.251C325.435 323.288 327.715 327.106 331.508 328.578C350.674 336.021 369.066 332.634 379.639 328.488C383.219 327.085 385.297 323.494 385.029 319.693C384.413 310.944 382.39 299.919 377.902 291.063C373.41 282.201 366.394 275.422 355.791 275.422Z" fill="#74DA95" stroke="black" stroke-linecap="round"/>
        <path d="M355.791 275.922C346.775 275.922 340.301 280.935 335.74 288.035C335.136 290.792 336.114 296.544 344.859 297.489C353.604 298.435 358.548 293.747 359.927 291.285C362.64 295.421 370.473 302.453 380.099 297.489C375.928 285.816 368.457 275.922 355.791 275.922Z" fill="#B2F0C6"/>
        <path d="M384.531 319.728C383.304 302.299 376.471 275.922 355.791 275.922C371.863 287.267 372.927 317.738 370.859 330.67C374.093 329.916 376.988 328.991 379.455 328.024C382.815 326.706 384.784 323.328 384.531 319.728Z" fill="black" fill-opacity="0.3"/>
        <ellipse cx="9.50692" cy="4.57741" rx="9.50692" ry="4.57741" transform="matrix(-1 0 0 1 285.275 315.738)" fill="black" fill-opacity="0.2"/>
        <path d="M278.232 311.511C278.232 309.955 276.971 308.694 275.416 308.694V308.694C273.86 308.694 272.599 309.955 272.599 311.511V317.849C272.599 319.405 273.86 320.666 275.416 320.666V320.666C276.971 320.666 278.232 319.405 278.232 317.849V311.511Z" fill="#4E3827" stroke="black" stroke-width="0.6"/>
        <path d="M293.727 308.754L286.601 291.797H266.061L258.164 308.754C259.665 309.594 261.281 310.269 262.933 310.811L265.939 306.233V311.649L267.915 308.754V312.063C272.742 312.957 277.233 312.972 279.475 312.89L280.313 307.514L281.99 312.063L282.409 308.341L284.086 311.649L284.505 307.514L286.601 311.236C288.613 310.905 292.19 309.444 293.727 308.754Z" fill="#1D773A" stroke="black" stroke-width="0.6"/>
        <path d="M290.91 296.723L284.924 282.286H267.671L261.333 298.483C267.812 300.173 275.77 300.361 278.938 300.244L279.643 295.666L281.051 299.539L281.403 296.37L282.812 299.187L283.164 295.666L284.924 298.835C286.614 298.554 289.619 297.309 290.91 296.723Z" fill="#3AA75D" stroke="black" stroke-width="0.6"/>
        <path d="M284.573 269.259L276.122 248.837L270.137 263.978L271.897 262.569L267.672 269.611L271.545 267.147L265.911 273.132L270.137 270.316L264.151 279.822L267.672 277.358L262.39 285.808C264.08 286.653 265.442 286.865 266.615 287.217L268.728 284.4C268.259 285.339 267.672 287.686 268.728 287.921C271.263 288.484 277.413 288.156 279.291 287.921L279.996 284.752L281.756 287.921V284.752L283.517 287.569L283.165 284.048L284.925 287.217C287.46 286.653 288.564 286.395 289.15 285.808L286.334 281.583H288.446L284.573 278.062L287.39 279.118L283.165 273.484L287.39 275.949L281.052 266.442L284.573 269.259Z" fill="#66CC9A" stroke="black" stroke-width="0.6" stroke-linejoin="round"/>
        <ellipse cx="11.1778" cy="5.38189" rx="11.1778" ry="5.38189" transform="matrix(-1 0 0 1 325.014 345.237)" fill="black" fill-opacity="0.2"/>
        <rect width="5.44103" height="13.9049" rx="2.72051" transform="matrix(-1 0 0 1 316.969 336.484)" fill="#4E3827" stroke="black" stroke-width="0.6"/>
        <path d="M316.969 343.134C316.969 343.134 315.76 344.343 314.248 344.947C312.737 345.552 311.528 345.552 311.528 345.552V347.97C311.528 349.473 312.746 350.691 314.248 350.691V350.691C315.751 350.691 316.969 349.473 316.969 347.97V343.134Z" fill="#A6818B" stroke="black" stroke-width="0.6"/>
        <circle cx="19.0436" cy="19.0436" r="19.0436" transform="matrix(-1 0 0 1 333.293 303.836)" fill="url(#paint2_radial_33159_1994)" stroke="black" stroke-width="0.6"/>
        <ellipse cx="10.7494" cy="5.17561" rx="10.7494" ry="5.17561" transform="matrix(-1 0 0 1 401.756 333.328)" fill="black" fill-opacity="0.2"/>
        <path d="M393.793 333.938C393.793 332.282 392.45 330.938 390.793 330.938H390.423C388.766 330.938 387.423 332.282 387.423 333.938V335.901C387.423 337.558 388.766 338.901 390.423 338.901H390.793C392.45 338.901 393.793 337.558 393.793 335.901V333.938Z" fill="#4E3827" stroke="black" stroke-width="0.6"/>
        <path d="M403.324 328.306C401.61 309.606 395.711 294.463 391.981 287.237C391.346 286.007 389.734 285.927 389.099 287.157C384.451 296.158 379.898 318.937 378.303 328.317C378.276 328.477 378.266 328.631 378.297 328.791C378.648 330.577 381.478 333.725 390.606 333.725C399.742 333.725 402.812 330.57 403.295 328.786C403.337 328.63 403.338 328.467 403.324 328.306Z" stroke="black" stroke-width="0.6"/>
        <path d="M390.606 333.726C400.161 333.726 403.08 330.276 403.346 328.551C403.188 326.793 402.994 325.067 402.768 323.375C400.754 325.233 393.408 326.879 380.13 318.598C379.326 322.56 378.684 326.06 378.264 328.551C378.397 330.276 381.051 333.726 390.606 333.726Z" fill="#1D773A" stroke="black" stroke-width="0.6"/>
        <path d="M380.965 314.614C391.086 322.895 399.406 321.781 402.301 320.188C401.91 317.759 401.457 315.41 400.959 313.154C398.214 314.703 390.639 315.968 382.309 308.643C381.834 310.658 381.384 312.667 380.965 314.614Z" fill="#3AA75D" stroke="black" stroke-width="0.6"/>
        <path d="M380.962 314.614C391.084 322.895 399.404 321.78 402.298 320.188C402.467 321.235 402.624 322.297 402.768 323.373C400.754 325.231 393.408 326.876 380.13 318.595C380.391 317.311 380.669 315.977 380.962 314.614Z" fill="#3AA75D" stroke="black" stroke-width="0.6"/>
        <path d="M382.309 308.643C389.365 315.65 397.721 314.748 401.018 313.421C400.781 312.338 400.534 311.276 400.278 310.236C397.08 311.032 389.204 311.032 383.281 304.662C382.947 305.982 382.622 307.314 382.309 308.643Z" fill="#3AA75D" stroke="black" stroke-width="0.6"/>
        <path d="M400.279 310.236C397.765 300.014 394.415 291.946 391.985 287.239C391.35 286.008 389.737 285.928 389.102 287.158C387.063 291.107 385.042 297.706 383.282 304.662C389.523 311.351 397.214 311.165 400.279 310.236Z" fill="#66CC9A" stroke="black" stroke-width="0.6"/>
      </g>
      <ellipse cx="37.764" cy="7.891" rx="37.764" ry="7.891" transform="matrix(-1 0 0 1 336.527 410.691)" fill="black" fill-opacity="0.25"/>
      <ellipse cx="26.4912" cy="5.63643" rx="26.4912" ry="5.63643" transform="matrix(-1 0 0 1 350.055 428.728)" fill="black" fill-opacity="0.25"/>
      <path d="M305.32 356.082C294.558 356.082 287.402 364.124 282.79 374.488C278.17 384.869 276.017 397.743 275.32 407.784C275.056 411.585 277.066 415.218 280.552 416.82C300.196 425.849 319.098 421.637 329.654 416.715C332.926 415.189 334.729 411.782 334.55 408.223C334.045 398.191 332.124 385.21 327.669 374.718C323.221 364.244 316.164 356.082 305.32 356.082Z" fill="#7AA73A" stroke="black" stroke-linecap="round"/>
      <path d="M305.32 356.582C296.329 356.582 289.874 362.348 285.325 370.513C284.723 373.684 285.699 380.298 294.419 381.386C303.14 382.473 308.07 377.082 309.445 374.25C312.15 379.007 319.961 387.094 329.56 381.386C325.401 367.961 317.95 356.582 305.32 356.582Z" fill="#3A771D"/>
      <path d="M334.192 413.665C334.192 394.637 328.418 356.582 305.32 356.582C321.347 369.629 322.408 404.674 320.346 419.546C326.302 417.944 331.108 415.67 334.192 413.665Z" fill="#FFEF9E" fill-opacity="0.58"/>
      <path d="M332.611 391.563C324.309 391.563 318.629 396.682 314.86 403.476C311.095 410.262 309.186 418.796 308.418 425.848C307.979 429.884 310.262 433.729 314.097 435.117C328.576 440.354 342.381 438.097 350.85 435.018C354.472 433.701 356.563 430.087 356.238 426.286C355.635 419.222 353.91 410.581 350.267 403.69C346.621 396.79 341 391.563 332.611 391.563Z" fill="#7AA73A" stroke="black" stroke-linecap="round"/>
      <path d="M332.611 392.063C325.328 392.063 320.098 396.113 316.413 401.849C315.925 404.076 316.716 408.722 323.78 409.486C330.845 410.25 334.838 406.463 335.952 404.474C338.144 407.815 344.472 413.495 352.247 409.486C348.878 400.056 342.843 392.063 332.611 392.063Z" fill="#3A771D"/>
      <path d="M355.74 426.328C354.539 412.268 348.879 392.063 332.611 392.063C345.595 401.228 346.454 425.844 344.783 436.29C346.95 435.785 348.929 435.185 350.678 434.549C354.069 433.316 356.047 429.924 355.74 426.328Z" fill="#FFEF9E" fill-opacity="0.58"/>
      <path d="M321.697 478.749C308.633 478.537 285.539 474.17 285.033 466.029C284.528 457.888 289.88 456.489 293.883 455.217C294.094 451.613 295.374 444.984 302.733 443.133C307.79 441.861 312.425 444.829 312.215 445.677L316.007 444.405C314.111 443.133 312.326 441.749 316.007 438.045C317.78 436.261 321.211 435.589 321.65 436.029C321.344 435.294 319.73 430.998 322.961 429.141C326.501 427.105 328.228 429.141 329.282 430.413C331.811 427.657 338.005 423.798 342.557 430.413H345.717C345.717 428.293 346.349 423.925 348.878 423.416C351.406 422.908 353.303 423.204 353.935 423.416C354.567 420.236 357.348 414.385 363.417 416.42C367.89 417.921 369.432 419.744 369.765 421.023C370.056 419.083 371.675 416.635 376.691 417.056C382.76 417.565 384.698 420.66 384.909 422.144C385.752 420.66 388.449 417.946 392.494 418.964C396.54 419.982 398.394 423.204 398.816 424.688C401.344 422.78 407.412 420.49 411.458 426.596C415.504 432.702 413.144 436.772 411.458 438.045C414.408 438.469 427.102 440.804 424.699 452.889C423.688 457.977 418.378 458.825 415.85 458.613C416.903 459.673 417.746 462.302 412.689 464.337C407.632 466.372 406.368 465.609 406.368 464.973C406.053 466.033 404.381 468.153 400.207 468.153C397.584 470.792 388.62 474.9 384.21 475.103C381.892 476.674 376.658 477.647 365.912 477.693C365.912 477.693 350.109 478.749 337.5 478.749C329.324 478.749 323.604 479.313 321.697 478.749Z" fill="#B1D363"/>
      <path d="M321.697 478.749C308.633 478.537 285.539 474.17 285.033 466.029C284.528 457.888 289.88 456.489 293.883 455.217C294.094 451.613 295.374 444.984 302.733 443.133C307.79 441.861 312.425 444.829 312.215 445.677M321.697 478.749C322.539 475.145 325.236 467.556 329.282 466.029C333.328 464.502 336.446 463.273 337.5 462.849M321.697 478.749C323.604 479.313 329.324 478.749 337.5 478.749C350.109 478.749 365.912 477.693 365.912 477.693C376.658 477.647 381.892 476.674 384.21 475.103M312.215 445.677C310.108 447.161 306.273 451.528 307.79 457.125M312.215 445.677L316.007 444.405C314.111 443.133 312.326 441.749 316.007 438.045C317.904 436.137 321.697 435.501 321.697 436.137C321.697 436.137 319.421 431.176 322.961 429.141C326.501 427.105 328.228 429.141 329.282 430.413C331.811 427.657 338.005 423.798 342.557 430.413M342.557 430.413C340.239 431.049 335.73 433.084 336.235 436.137C334.55 437.621 332.19 441.352 336.235 444.405C340.281 447.458 342.135 447.373 342.557 446.949C340.45 447.797 335.856 450.383 334.339 453.945C332.443 458.397 336.235 462.213 337.5 462.849M342.557 430.413H345.717C345.717 428.293 346.349 423.925 348.878 423.416C351.406 422.908 353.303 423.204 353.935 423.416C354.567 420.236 357.348 414.385 363.417 416.42C369.485 418.455 370.159 421.084 369.738 422.144C369.527 420.236 370.623 416.547 376.691 417.056C382.76 417.565 384.698 420.66 384.909 422.144C385.752 420.66 388.449 417.946 392.494 418.964C396.54 419.982 398.394 423.204 398.816 424.688C401.344 422.78 407.412 420.49 411.458 426.596C415.504 432.702 413.144 436.772 411.458 438.045C414.408 438.469 427.102 440.804 424.699 452.889C423.688 457.977 418.378 458.825 415.85 458.613C416.903 459.673 417.746 462.302 412.689 464.337C407.632 466.372 406.368 465.609 406.368 464.973M337.5 462.849C339.607 459.457 344.832 452.927 348.878 453.945C352.923 454.963 354.755 458.753 355.166 460.521C356.43 459.6 359.591 458.269 362.119 460.304C364.648 462.34 366.123 464.969 366.544 466.029C366.777 464.545 374.129 462.429 379.186 470.061M406.368 464.973C407 462.853 407.253 458.613 403.207 458.613C402.154 456.493 399.288 454.581 396.254 457.125C393.22 459.669 394.147 462.005 394.99 463.701C392.882 463.701 388.542 464.464 388.036 467.517C385.297 466.669 379.692 465.991 379.186 470.061M406.368 464.973C406.053 466.033 404.381 468.153 400.207 468.153M379.186 470.061C378.681 474.131 381.083 475.149 382.347 475.149C382.889 475.149 383.519 475.135 384.21 475.103M400.207 468.153C401.186 467.168 399.784 469.248 400.207 468.153ZM400.207 468.153C401.095 465.854 400.964 463.578 400.679 462.429M400.207 468.153C397.584 470.792 388.62 474.9 384.21 475.103" stroke="#849E49" stroke-linecap="round" stroke-linejoin="round"/>
    </g>
  </g>
  <defs>
    <filter id="filter0_d_33159_1994" x="88.9082" y="285.047" width="169.783" height="868.406" filterUnits="userSpaceOnUse" color-interpolation-filters="sRGB">
      <feFlood flood-opacity="0" result="BackgroundImageFix"/>
      <feColorMatrix in="SourceAlpha" type="matrix" values="0 0 0 0 0 0 0 0 0 0 0 0 0 0 0 0 0 0 127 0" result="hardAlpha"/>
      <feOffset dx="-4" dy="-4"/>
      <feComposite in2="hardAlpha" operator="out"/>
      <feColorMatrix type="matrix" values="0 0 0 0 0 0 0 0 0 0 0 0 0 0 0 0 0 0 0.25 0"/>
      <feBlend mode="normal" in2="BackgroundImageFix" result="effect1_dropShadow_33159_1994"/>
      <feBlend mode="normal" in="SourceGraphic" in2="effect1_dropShadow_33159_1994" result="shape"/>
    </filter>
    <linearGradient id="paint0_linear_33159_1994" x1="195" y1="65.5272" x2="195" y2="1229" gradientUnits="userSpaceOnUse">
      <stop stop-color="#637932"/>
      <stop offset="0.165" stop-color="#B6DF5D"/>
      <stop offset="0.82" stop-color="#B6DF5D"/>
      <stop offset="1" stop-color="#F7A739"/>
    </linearGradient>
    <linearGradient id="paint1_linear_33159_1994" x1="195" y1="0" x2="195" y2="64" gradientUnits="userSpaceOnUse">
      <stop/>
      <stop offset="1" stop-opacity="0"/>
    </linearGradient>
    <radialGradient id="paint2_radial_33159_1994" cx="0" cy="0" r="1" gradientUnits="userSpaceOnUse" gradientTransform="translate(19.0436 5.05098) rotate(90) scale(33.112)">
      <stop stop-color="#66CC9A"/>
      <stop offset="1" stop-color="#349051"/>
    </radialGradient>
    <clipPath id="clip0_33159_1994">
      <rect width="390" height="1183" fill="white"/>
    </clipPath>
    <clipPath id="clip1_33159_1994">
      <rect width="390" height="1229" fill="white" transform="translate(0 -46)"/>
    </clipPath>
  </defs>
</svg>
