<svg width="52" height="53" viewBox="0 0 52 53" fill="none" xmlns="http://www.w3.org/2000/svg">
  <circle cx="26" cy="27" r="26" fill="black" fill-opacity="0.5"/>
  <g filter="url(#filter0_d_31723_2116)">
    <path d="M22.2496 22.3534H18.4078V17.9402C18.4078 16.9795 18.6009 16.0839 18.9871 15.2532C19.3733 14.4226 19.9069 13.6921 20.5879 13.0616C21.2688 12.4312 22.0717 11.9358 22.9966 11.5756C23.9215 11.2153 24.9328 11.0352 26.0304 11.0352C27.0061 11.0352 27.9463 11.2153 28.8508 11.5756C29.7554 11.9358 30.5583 12.4312 31.2596 13.0616C31.9609 13.6921 32.5199 14.4226 32.9366 15.2532C33.3533 16.0839 33.5616 16.9795 33.5616 17.9402V22.3534H29.8723V18.7808C29.8723 17.5199 29.5165 16.5442 28.8051 15.8537C28.0936 15.1632 27.1281 14.8179 25.9085 14.8179C24.8108 14.8179 23.9266 15.1632 23.2558 15.8537C22.585 16.5442 22.2496 17.5199 22.2496 18.7808V22.3534ZM35.3911 24.1548C35.9399 24.1548 36.4125 24.3499 36.8089 24.7402C37.2053 25.1305 37.4035 25.5958 37.4035 26.1362V35.443C37.4035 35.9834 37.3069 36.4888 37.1138 36.9591C36.9207 37.4295 36.6564 37.8398 36.321 38.19C35.9856 38.5403 35.5893 38.8155 35.1319 39.0156C34.6745 39.2158 34.1714 39.3159 33.6226 39.3159H18.2248C17.676 39.3159 17.178 39.2158 16.7308 39.0156C16.2836 38.8155 15.9025 38.5503 15.5874 38.2201C15.2723 37.8898 15.0284 37.5045 14.8556 37.0642C14.6828 36.6239 14.5964 36.1535 14.5964 35.6532V26.1362C14.5964 25.5958 14.7895 25.1305 15.1758 24.7402C15.562 24.3499 16.0295 24.1548 16.5783 24.1548H18.4078H22.2496H29.8723H33.5616H35.3911Z" fill="#FFF5A9"/>
    <path d="M22.2496 22.8534H22.7496V22.3534V18.7808C22.7496 17.6083 23.0597 16.7731 23.6144 16.2021C24.1776 15.6224 24.9252 15.3179 25.9085 15.3179C27.0297 15.3179 27.8592 15.6324 28.4569 16.2125C29.0466 16.7849 29.3723 17.6163 29.3723 18.7808V22.3534V22.8534H29.8723H33.5616H34.0616V22.3534V17.9402C34.0616 16.9044 33.8363 15.9316 33.3835 15.029C32.9384 14.1418 32.3409 13.3614 31.5939 12.6898C30.8473 12.0186 29.9934 11.4924 29.0358 11.111C28.0723 10.7273 27.0694 10.5352 26.0304 10.5352C24.8773 10.5352 23.8037 10.7246 22.8151 11.1096L22.9966 11.5756L22.8151 11.1096C21.8359 11.4911 20.9783 12.0187 20.2482 12.6947C19.5202 13.3688 18.9477 14.1521 18.5337 15.0424C18.1153 15.9423 17.9078 16.9103 17.9078 17.9402V22.3534V22.8534H18.4078H22.2496ZM37.1597 24.3839C36.6712 23.9029 36.0731 23.6548 35.3911 23.6548H33.5616H29.8723H22.2496H18.4078H16.5783C15.8959 23.6548 15.3004 23.9034 14.8204 24.3885C14.3432 24.8707 14.0964 25.4618 14.0964 26.1362V35.6532C14.0964 36.2124 14.1932 36.745 14.3902 37.2469C14.5858 37.7453 14.8641 38.1863 15.2256 38.5652C15.5887 38.9457 16.0245 39.2473 16.5265 39.472C17.0453 39.7042 17.6141 39.8159 18.2248 39.8159H33.6226C34.2335 39.8159 34.8058 39.7041 35.3324 39.4737C35.8483 39.2479 36.2998 38.9352 36.6822 38.5358C37.0629 38.1383 37.3606 37.6744 37.5763 37.149C37.7957 36.6147 37.9035 36.0444 37.9035 35.443V26.1362C37.9035 25.4575 37.6484 24.8651 37.1597 24.3839Z" stroke="black"/>
  </g>
  <defs>
    <filter id="filter0_d_31723_2116" x="3.59644" y="0.0351562" width="44.807" height="50.2812" filterUnits="userSpaceOnUse" color-interpolation-filters="sRGB">
      <feFlood flood-opacity="0" result="BackgroundImageFix"/>
      <feColorMatrix in="SourceAlpha" type="matrix" values="0 0 0 0 0 0 0 0 0 0 0 0 0 0 0 0 0 0 127 0" result="hardAlpha"/>
      <feOffset/>
      <feGaussianBlur stdDeviation="5"/>
      <feComposite in2="hardAlpha" operator="out"/>
      <feColorMatrix type="matrix" values="0 0 0 0 0 0 0 0 0 0 0 0 0 0 0 0 0 0 0.25 0"/>
      <feBlend mode="normal" in2="BackgroundImageFix" result="effect1_dropShadow_31723_2116"/>
      <feBlend mode="normal" in="SourceGraphic" in2="effect1_dropShadow_31723_2116" result="shape"/>
    </filter>
  </defs>
</svg>
