<svg width="71" height="49" viewBox="0 0 71 49" fill="none" xmlns="http://www.w3.org/2000/svg">
  <ellipse cx="33.5" cy="7" rx="33.5" ry="7" transform="matrix(-1 0 0 1 67 35)" fill="black" fill-opacity="0.25"/>
  <path d="M9.83542 37.3515C13.534 43.4352 19.8524 42.1396 22.5493 40.7313C23.6087 42.1398 28.2126 44.506 38.1526 42.7034C48.0925 40.9008 51.1554 32.9393 51.4443 29.1838C53.0817 28.1511 55.952 24.5083 54.3339 18.1992C52.7157 11.8901 45.569 9.93729 42.1979 9.74952C42.7758 7.02677 41.3888 1.4686 31.2177 1.01795C21.0466 0.567294 18.1186 8.71641 17.9259 12.8473C17.348 12.3779 15.0942 12.6783 10.7023 17.6355C6.31031 22.5926 8.87229 26.6485 10.7023 28.0568C8.87225 28.6201 6.13684 31.2677 9.83542 37.3515Z" fill="#66CC9A"/>
  <path d="M45.3764 29.1838L43.3537 33.6904M25.1497 37.3515H29.773M38.1526 22.7057C37.7673 23.8324 36.5922 26.142 34.9741 26.3673M16.7701 22.7057C17.348 22.1424 18.9083 21.3538 20.5265 22.7057M22.5493 14.5377C23.2235 14.6316 24.6874 15.1573 25.1497 16.5093M32.0846 7.49626C32.6625 8.15361 33.8183 9.80621 33.8183 11.1578M48.8438 19.0442C49.518 19.3259 50.8086 20.1708 50.5775 21.2975M22.5493 40.7313C19.8524 42.1396 13.534 43.4352 9.83542 37.3515C6.13684 31.2677 8.87225 28.6201 10.7023 28.0568C8.87229 26.6485 6.31031 22.5926 10.7023 17.6355C15.0942 12.6783 17.348 12.3779 17.9259 12.8473C18.1186 8.71641 21.0466 0.567294 31.2177 1.01795C41.3888 1.4686 42.7758 7.02677 42.1979 9.74952C45.569 9.93729 52.7157 11.8901 54.3339 18.1992C55.952 24.5083 53.0817 28.1511 51.4443 29.1838C51.1554 32.9393 48.0925 40.9008 38.1526 42.7034C28.2126 44.506 23.6087 42.1398 22.5493 40.7313Z" stroke="black" stroke-linecap="round"/>
  <path d="M67.8555 33.1238C62.516 43.4649 51.3952 40.6189 46.3664 37.5007C38.6156 34.9229 39.9751 29.1801 41.7595 27.0335C41.7513 24.7039 43.1838 19.3407 48.9801 16.5246C54.7764 13.7085 59.2884 17.6529 60.8199 19.9771C65.3899 20.0505 73.195 22.7826 67.8555 33.1238Z" fill="#65C33E"/>
  <path d="M51.9543 21.3524C51.9565 21.9796 51.9617 23.449 51.9647 24.3092M56.7985 22.948L56.2694 25.3692M61.3824 26.9639C61.2954 27.6811 60.8528 29.2238 59.7791 29.6577M46.3664 37.5007C51.3952 40.6189 62.516 43.4649 67.8555 33.1238C73.195 22.7826 65.3899 20.0505 60.8199 19.9771C59.2884 17.6529 54.7764 13.7085 48.9801 16.5246C43.1838 19.3407 41.7513 24.7039 41.7595 27.0335C39.9751 29.1801 38.6156 34.9229 46.3664 37.5007Z" stroke="black" stroke-linecap="round"/>
</svg>
