<svg width="137" height="117" viewBox="0 0 137 117" fill="none" xmlns="http://www.w3.org/2000/svg">
  <path d="M69.9048 69.1641L60.9531 74.1077L69.9048 78.745L80.2228 73.5861L69.9048 69.1641Z" fill="#BC9549" stroke="black" stroke-linejoin="round"/>
  <path d="M76.1698 116.672L69.9053 120.357V42.1893L80.2232 37.0303L76.1698 116.672Z" fill="#76500D" stroke="black" stroke-linejoin="round"/>
  <path d="M62.0794 118.407L69.9048 120.357V42.1891L60.9531 37.5518L62.0794 118.407Z" fill="#7A4A12" stroke="black" stroke-linejoin="round"/>
  <path d="M7.73405 13.9851C7.84281 12.8506 13.2293 10.0913 16.2088 8.77159C16.822 8.49997 17.4984 8.92567 17.5484 9.59449L21.4496 61.7674C21.4589 61.8919 21.4448 62.0169 21.4081 62.1362L13.3509 88.3105C13.1659 88.9114 12.4789 89.1946 11.9242 88.8985L4.07161 84.7063C3.71548 84.5161 3.5086 84.1305 3.54712 83.7287L4.49687 73.822C4.50713 73.715 4.53457 73.6103 4.57813 73.5121L5.37997 71.7036C5.47607 71.4868 5.33158 71.2396 5.09557 71.217C4.9046 71.1987 4.76463 71.029 4.78293 70.8381L5.73911 60.8643C5.76442 60.6003 5.89357 60.3572 6.09815 60.1884L7.55174 58.9891C8.0385 58.5875 8.03617 57.841 7.54691 57.4425L6.5292 56.6134C6.30387 56.4299 6.16955 56.1574 6.16118 55.8669L5.60934 36.6964C5.60158 36.4265 5.70325 36.165 5.89124 35.9712L8.67174 33.1056C9.02657 32.7399 9.04969 32.1659 8.72541 31.7728L6.57308 29.1641C6.4043 28.9595 6.32366 28.6967 6.34897 28.4326L7.73405 13.9851Z" fill="#7A4A12" stroke="black" stroke-linecap="round" stroke-linejoin="round"/>
  <path d="M125.337 11.989L15.9201 8.86824C15.3571 8.85218 14.8919 9.304 14.8916 9.86721L14.8813 26.3333L18.7476 31.8294C19.0483 32.2568 18.9692 32.8436 18.5661 33.1761L15.9952 35.2972C15.7824 35.4728 15.6516 35.7285 15.6337 36.0038L14.081 59.9257C14.0611 60.2322 14.1832 60.5308 14.4121 60.7357L16.3258 62.4481C16.7767 62.8517 16.7688 63.5601 16.3088 63.9534L13.6733 66.2069L12.2394 88.2978C12.2013 88.8844 12.675 89.3771 13.2626 89.3622L128.073 86.4615C128.631 86.4474 129.069 85.9795 129.047 85.4219L128.304 66.8284C128.292 66.5341 128.151 66.2599 127.919 66.079L124.62 63.5135L127.783 59.1171C127.914 58.9358 127.98 58.7162 127.971 58.4931L126.895 31.5754C126.886 31.3571 126.806 31.1476 126.667 30.979L124.642 28.5248L127.139 25.7853C127.328 25.5781 127.421 25.3012 127.396 25.022L126.305 12.8989C126.259 12.3943 125.844 12.0034 125.337 11.989Z" fill="#BC9549"/>
  <path d="M124.642 28.5248L127.139 25.7853C127.328 25.5781 127.421 25.3012 127.396 25.022L126.305 12.8989C126.259 12.3943 125.844 12.0034 125.337 11.989L15.9201 8.86824C15.3571 8.85218 14.8919 9.304 14.8916 9.86721L14.8813 26.3333M124.642 28.5248L126.667 30.979C126.806 31.1476 126.886 31.3571 126.895 31.5754L127.971 58.4931C127.98 58.7162 127.914 58.9358 127.783 59.1171L124.62 63.5135M124.642 28.5248C123.738 29.2712 120.607 30.6374 115.324 30.1308M14.8813 26.3333L18.7476 31.8294C19.0483 32.2568 18.9692 32.8436 18.5661 33.1761L15.9952 35.2972C15.7824 35.4728 15.6516 35.7285 15.6337 36.0038L14.081 59.9257C14.0611 60.2322 14.1832 60.5308 14.4121 60.7357L16.3258 62.4481C16.7767 62.8517 16.7688 63.5601 16.3088 63.9534L13.6733 66.2069M14.8813 26.3333C20.7655 25.7866 35.8202 25.1748 42.3611 26.4684M124.62 63.5135L127.919 66.079C128.151 66.2599 128.292 66.5341 128.304 66.8284L129.047 85.4219C129.069 85.9795 128.631 86.4474 128.073 86.4615L13.2626 89.3622C12.675 89.3771 12.2013 88.8844 12.2394 88.2978L13.6733 66.2069M124.62 63.5135L110.428 63.8192M13.6733 66.2069C18.758 67.8052 29.4544 70.7191 31.5623 69.5882M78.9667 18.3142C89.3065 17.6392 111.307 16.4159 116.59 16.9224" stroke="black" stroke-linecap="round" stroke-linejoin="round"/>
</svg>
