<svg width="137" height="120" viewBox="0 0 137 120" fill="none" xmlns="http://www.w3.org/2000/svg">
<path d="M69.9165 68.3867L60.9648 73.3303L69.9165 77.9677L80.2345 72.8087L69.9165 68.3867Z" fill="#BC9549" stroke="black" stroke-linejoin="round"/>
<path d="M76.181 133.642L69.9165 137.327V59.159L80.2345 54L76.181 133.642Z" fill="#76500D" stroke="black" stroke-linejoin="round"/>
<path d="M62.0911 135.377L69.9165 137.327V59.1589L60.9648 54.5215L62.0911 135.377Z" fill="#7A4A12" stroke="black" stroke-linejoin="round"/>
<path d="M129.021 13.2097C128.912 12.0752 123.526 9.31588 120.546 7.99619C119.933 7.72458 119.256 8.15028 119.206 8.8191L115.305 60.992C115.296 61.1165 115.31 61.2415 115.347 61.3608L123.404 87.5351C123.589 88.136 124.276 88.4192 124.831 88.1231L132.683 83.9309C133.039 83.7407 133.246 83.3551 133.208 82.9533L132.258 73.0466C132.248 72.9396 132.22 72.835 132.177 72.7367L131.375 70.9282C131.279 70.7114 131.423 70.4642 131.659 70.4416C131.85 70.4233 131.99 70.2537 131.972 70.0627L131.016 60.0889C130.99 59.8249 130.861 59.5818 130.657 59.413L129.203 58.2137C128.716 57.8121 128.719 57.0656 129.208 56.6671L130.226 55.838C130.451 55.6545 130.585 55.382 130.594 55.0915L131.146 35.921C131.153 35.6511 131.052 35.3896 130.864 35.1959L128.083 32.3302C127.728 31.9645 127.705 31.3905 128.029 30.9974L130.182 28.3887C130.351 28.1841 130.431 27.9213 130.406 27.6573L129.021 13.2097Z" fill="#7A4A12" stroke="black" stroke-linecap="round" stroke-linejoin="round"/>
<path d="M11.4176 11.2126L120.835 8.09187C121.398 8.07581 121.863 8.52763 121.863 9.09084L121.873 25.2401C121.874 25.4462 121.81 25.6474 121.691 25.8161L118.007 31.0531C117.707 31.4804 117.786 32.0672 118.189 32.3998L120.76 34.5208C120.972 34.6964 121.103 34.9521 121.121 35.2274L122.674 59.1493C122.694 59.4558 122.572 59.7545 122.343 59.9593L119.577 62.4341L122.761 65.1564C122.966 65.3317 123.091 65.5824 123.109 65.8516L124.515 87.5214C124.554 88.108 124.08 88.6007 123.492 88.5859L8.68162 85.6852C8.12377 85.6711 7.68539 85.2031 7.70768 84.6455L8.45089 66.0521C8.46265 65.7577 8.6036 65.4835 8.83614 65.3027L12.1345 62.7372L8.97152 58.3407C8.84114 58.1595 8.77516 57.9398 8.78408 57.7167L9.86002 30.7991C9.86875 30.5807 9.94878 30.3712 10.0879 30.2026L12.1126 27.7485L9.61579 25.0089C9.42698 24.8017 9.33378 24.5248 9.35891 24.2457L10.4502 12.1225C10.4956 11.618 10.9112 11.2271 11.4176 11.2126Z" fill="#BC9549"/>
<path d="M12.1126 27.7485L9.6158 25.0089C9.42698 24.8017 9.33378 24.5248 9.35891 24.2457L10.4501 12.1225C10.4956 11.618 10.9112 11.2271 11.4176 11.2126L120.835 8.09187C121.398 8.07581 121.863 8.52763 121.863 9.09084L121.873 25.2401C121.874 25.4462 121.81 25.6474 121.691 25.8161L118.007 31.053C117.707 31.4804 117.786 32.0672 118.189 32.3998L120.76 34.5208C120.972 34.6964 121.103 34.9521 121.121 35.2274L122.674 59.1493C122.694 59.4558 122.572 59.7545 122.343 59.9593L119.577 62.4341M12.1126 27.7485L10.0879 30.2026C9.94878 30.3712 9.86875 30.5807 9.86002 30.7991L8.78407 57.7167C8.77516 57.9398 8.84114 58.1595 8.97152 58.3407L12.1345 62.7372M12.1126 27.7485C13.0173 28.4949 16.1475 29.861 21.4309 29.3545M12.1345 62.7372L8.83613 65.3027C8.60361 65.4835 8.46265 65.7577 8.45089 66.0521L7.70768 84.6455C7.68539 85.2031 8.12377 85.6711 8.68162 85.6852L123.492 88.5859C124.08 88.6007 124.554 88.108 124.515 87.5214L123.109 65.8516C123.091 65.5824 122.966 65.3317 122.761 65.1564L119.577 62.4341M12.1345 62.7372L26.3268 63.0428M119.577 62.4341L72.5 62.7372M44.5 16.146C41.5 16.146 25.4479 15.6395 20.1646 16.146" stroke="black" stroke-linecap="round" stroke-linejoin="round"/>
</svg>
