<svg width="319" height="208" viewBox="0 0 319 208" fill="none" xmlns="http://www.w3.org/2000/svg">
  <mask id="path-1-inside-1_29_344" fill="white">
    <path fill-rule="evenodd" clip-rule="evenodd" d="M54.8123 189.653C51.5291 190.372 48.1048 190.753 44.5846 190.753C20.1214 190.753 0.290039 172.359 0.290039 149.668C0.290039 126.978 20.1214 108.584 44.5846 108.584C47.9746 108.584 51.2757 108.937 54.4474 109.606C53.4633 106.668 52.9292 103.517 52.9292 100.238C52.9292 84.2839 65.5752 71.3505 81.175 71.3505C85.8081 71.3505 90.1807 72.4913 94.0389 74.5134C95.0765 33.5898 128.295 0.736572 169.122 0.736572C200.239 0.736572 226.937 19.8213 238.335 47.0181C242.915 43.7426 248.489 41.8209 254.502 41.8209C270.102 41.8209 282.748 54.7544 282.748 70.7087C282.748 74.5832 282.002 78.2796 280.649 81.6558C302.462 86.7968 318.696 106.387 318.696 129.769C318.696 157.068 296.566 179.199 269.266 179.199C261.32 179.199 253.812 177.324 247.16 173.992C228.808 193.625 187.762 207.298 140.07 207.298C106.488 207.298 76.2011 200.519 54.8123 189.653Z"/>
  </mask>
  <path fill-rule="evenodd" clip-rule="evenodd" d="M54.8123 189.653C51.5291 190.372 48.1048 190.753 44.5846 190.753C20.1214 190.753 0.290039 172.359 0.290039 149.668C0.290039 126.978 20.1214 108.584 44.5846 108.584C47.9746 108.584 51.2757 108.937 54.4474 109.606C53.4633 106.668 52.9292 103.517 52.9292 100.238C52.9292 84.2839 65.5752 71.3505 81.175 71.3505C85.8081 71.3505 90.1807 72.4913 94.0389 74.5134C95.0765 33.5898 128.295 0.736572 169.122 0.736572C200.239 0.736572 226.937 19.8213 238.335 47.0181C242.915 43.7426 248.489 41.8209 254.502 41.8209C270.102 41.8209 282.748 54.7544 282.748 70.7087C282.748 74.5832 282.002 78.2796 280.649 81.6558C302.462 86.7968 318.696 106.387 318.696 129.769C318.696 157.068 296.566 179.199 269.266 179.199C261.32 179.199 253.812 177.324 247.16 173.992C228.808 193.625 187.762 207.298 140.07 207.298C106.488 207.298 76.2011 200.519 54.8123 189.653Z" fill="white"/>
  <path d="M54.8123 189.653L55.2652 188.761L54.9469 188.599L54.5981 188.676L54.8123 189.653ZM54.4474 109.606L54.241 110.584L55.9506 110.945L55.3956 109.288L54.4474 109.606ZM94.0389 74.5134L93.5747 75.3991L94.9978 76.145L95.0385 74.5387L94.0389 74.5134ZM238.335 47.0181L237.413 47.4046L237.897 48.5606L238.917 47.8315L238.335 47.0181ZM280.649 81.6558L279.721 81.2838L279.289 82.3625L280.42 82.6291L280.649 81.6558ZM247.16 173.992L247.607 173.098L246.939 172.763L246.429 173.309L247.16 173.992ZM54.5981 188.676C51.3851 189.38 48.0326 189.753 44.5846 189.753V191.753C48.1771 191.753 51.6732 191.365 55.0264 190.629L54.5981 188.676ZM44.5846 189.753C20.6015 189.753 1.29004 171.737 1.29004 149.668H-0.709961C-0.709961 172.981 19.6413 191.753 44.5846 191.753V189.753ZM1.29004 149.668C1.29004 127.6 20.6015 109.584 44.5846 109.584V107.584C19.6413 107.584 -0.709961 126.356 -0.709961 149.668H1.29004ZM44.5846 109.584C47.905 109.584 51.1369 109.93 54.241 110.584L54.6537 108.627C51.4144 107.944 48.0442 107.584 44.5846 107.584V109.584ZM55.3956 109.288C54.4454 106.452 53.9292 103.408 53.9292 100.238H51.9292C51.9292 103.626 52.4811 106.885 53.4992 109.923L55.3956 109.288ZM53.9292 100.238C53.9292 84.8149 66.1486 72.3505 81.175 72.3505V70.3505C65.0019 70.3505 51.9292 83.753 51.9292 100.238H53.9292ZM81.175 72.3505C85.6419 72.3505 89.8557 73.45 93.5747 75.3991L94.5031 73.6276C90.5058 71.5327 85.9743 70.3505 81.175 70.3505V72.3505ZM95.0385 74.5387C96.0626 34.1482 128.847 1.73657 169.122 1.73657V-0.263428C127.744 -0.263428 94.0903 33.0313 93.0392 74.488L95.0385 74.5387ZM169.122 1.73657C199.818 1.73657 226.163 20.5627 237.413 47.4046L239.257 46.6316C227.71 19.0799 200.66 -0.263428 169.122 -0.263428V1.73657ZM238.917 47.8315C243.334 44.6724 248.706 42.8209 254.502 42.8209V40.8209C248.272 40.8209 242.496 42.8128 237.753 46.2047L238.917 47.8315ZM254.502 42.8209C269.529 42.8209 281.748 55.2854 281.748 70.7087H283.748C283.748 54.2234 270.675 40.8209 254.502 40.8209V42.8209ZM281.748 70.7087C281.748 74.454 281.027 78.0242 279.721 81.2838L281.578 82.0277C282.977 78.5349 283.748 74.7124 283.748 70.7087H281.748ZM280.42 82.6291C301.791 87.6661 317.696 106.861 317.696 129.769H319.696C319.696 105.913 303.132 85.9274 280.879 80.6825L280.42 82.6291ZM317.696 129.769C317.696 156.516 296.013 178.199 269.266 178.199V180.199C297.118 180.199 319.696 157.621 319.696 129.769H317.696ZM269.266 178.199C261.479 178.199 254.124 176.362 247.607 173.098L246.712 174.886C253.5 178.286 261.161 180.199 269.266 180.199V178.199ZM246.429 173.309C237.413 182.955 222.74 191.211 204.315 197.054C185.906 202.892 163.825 206.298 140.07 206.298V208.298C164.007 208.298 186.295 204.867 204.919 198.961C223.528 193.059 238.554 184.662 247.89 174.675L246.429 173.309ZM140.07 206.298C106.607 206.298 76.4829 199.54 55.2652 188.761L54.3593 190.544C75.9193 201.497 106.369 208.298 140.07 208.298V206.298Z" fill="#949494" mask="url(#path-1-inside-1_29_344)"/>
</svg>
