<svg width="290" height="80" viewBox="0 0 290 80" fill="none" xmlns="http://www.w3.org/2000/svg">
  <mask id="path-1-inside-1_0_1" fill="white">
    <path fill-rule="evenodd" clip-rule="evenodd" d="M165.005 59.8132C163.717 60.0229 162.382 60.076 161.022 59.9538C152.288 59.1691 145.844 51.453 146.629 42.7195C147.414 33.986 155.13 27.5422 163.863 28.3269C167.861 28.6861 171.378 30.4973 173.943 33.1935C173.948 33.1178 173.954 33.042 173.961 32.966C174.579 26.0907 180.653 21.018 187.529 21.6357C191.659 22.0069 195.139 24.3475 197.126 27.648C200.392 15.8413 215.169 7.83852 232.046 9.35499C249.955 10.9641 263.626 22.6973 263.214 35.8324C265.874 34.8102 268.803 34.3651 271.833 34.6373C282.424 35.589 290.239 44.9468 289.287 55.5385C288.336 66.1302 278.978 73.945 268.386 72.9933C265.695 72.7515 263.184 71.9672 260.95 70.7579C251.84 77.2916 233.55 80.7159 212.913 78.8616C190.165 76.8177 171.368 68.9718 165.005 59.8132Z"/>
  </mask>
  <path fill-rule="evenodd" clip-rule="evenodd" d="M165.005 59.8132C163.717 60.0229 162.382 60.076 161.022 59.9538C152.288 59.1691 145.844 51.453 146.629 42.7195C147.414 33.986 155.13 27.5422 163.863 28.3269C167.861 28.6861 171.378 30.4973 173.943 33.1935C173.948 33.1178 173.954 33.042 173.961 32.966C174.579 26.0907 180.653 21.018 187.529 21.6357C191.659 22.0069 195.139 24.3475 197.126 27.648C200.392 15.8413 215.169 7.83852 232.046 9.35499C249.955 10.9641 263.626 22.6973 263.214 35.8324C265.874 34.8102 268.803 34.3651 271.833 34.6373C282.424 35.589 290.239 44.9468 289.287 55.5385C288.336 66.1302 278.978 73.945 268.386 72.9933C265.695 72.7515 263.184 71.9672 260.95 70.7579C251.84 77.2916 233.55 80.7159 212.913 78.8616C190.165 76.8177 171.368 68.9718 165.005 59.8132Z" fill="white"/>
  <path d="M165.005 59.8132L165.826 59.2427L165.467 58.725L164.844 58.8262L165.005 59.8132ZM173.943 33.1935L173.218 33.8827L174.778 35.5226L174.94 33.2651L173.943 33.1935ZM197.126 27.648L196.269 28.1637L197.469 30.1579L198.089 27.9146L197.126 27.648ZM263.214 35.8324L262.214 35.8011L262.167 37.306L263.573 36.7659L263.214 35.8324ZM260.95 70.7579L261.426 69.8785L260.875 69.5806L260.367 69.9453L260.95 70.7579ZM164.844 58.8262C163.638 59.0226 162.387 59.0724 161.111 58.9578L160.932 60.9498C162.376 61.0795 163.796 61.0233 165.166 60.8002L164.844 58.8262ZM161.111 58.9578C152.928 58.2225 146.89 50.9924 147.625 42.809L145.633 42.63C144.799 51.9136 151.649 60.1156 160.932 60.9498L161.111 58.9578ZM147.625 42.809C148.36 34.6255 155.591 28.5876 163.774 29.3229L163.953 27.3309C154.669 26.4968 146.467 33.3464 145.633 42.63L147.625 42.809ZM163.774 29.3229C167.52 29.6595 170.815 31.3557 173.218 33.8827L174.668 32.5043C171.942 29.6388 168.201 27.7126 163.953 27.3309L163.774 29.3229ZM174.94 33.2651C174.945 33.1954 174.951 33.1255 174.957 33.0555L172.965 32.8766C172.958 32.9584 172.951 33.0402 172.945 33.1218L174.94 33.2651ZM174.957 33.0555C175.526 26.7303 181.114 22.0634 187.439 22.6317L187.618 20.6397C180.193 19.9725 173.633 25.4512 172.965 32.8766L174.957 33.0555ZM187.439 22.6317C191.239 22.9731 194.44 25.1247 196.269 28.1637L197.982 27.1324C195.839 23.5703 192.08 21.0406 187.618 20.6397L187.439 22.6317ZM198.089 27.9146C201.175 16.758 215.341 8.85798 231.957 10.351L232.136 8.359C214.997 6.81906 199.608 14.9246 196.162 27.3814L198.089 27.9146ZM231.957 10.351C240.725 11.1388 248.419 14.4029 253.851 19.0326C259.286 23.6638 262.408 29.6093 262.214 35.8011L264.213 35.8637C264.431 28.9204 260.924 22.4318 255.149 17.5103C249.372 12.5873 241.276 9.18028 232.136 8.359L231.957 10.351ZM263.573 36.7659C266.093 35.7972 268.869 35.375 271.743 35.6333L271.922 33.6413C268.737 33.3551 265.655 33.8231 262.855 34.899L263.573 36.7659ZM271.743 35.6333C281.785 36.5356 289.194 45.4073 288.291 55.449L290.283 55.628C291.284 44.4862 283.064 34.6424 271.922 33.6413L271.743 35.6333ZM288.291 55.449C287.389 65.4907 278.517 72.8996 268.476 71.9973L268.297 73.9893C279.438 74.9904 289.282 66.7698 290.283 55.628L288.291 55.449ZM268.476 71.9973C265.923 71.768 263.542 71.0242 261.426 69.8785L260.473 71.6374C262.825 72.9102 265.468 73.7351 268.297 73.9893L268.476 71.9973ZM260.367 69.9453C255.981 73.0906 249.295 75.5426 241.083 76.97C232.887 78.3945 223.244 78.7858 213.002 77.8656L212.823 79.8576C223.219 80.7917 233.039 80.398 241.425 78.9405C249.794 77.4859 256.808 74.9589 261.532 71.5705L260.367 69.9453ZM213.002 77.8656C201.712 76.8512 191.424 74.3982 183.189 71.078C174.923 67.7454 168.845 63.5874 165.826 59.2427L164.184 60.3838C167.528 65.1977 174.03 69.5419 182.441 72.9329C190.882 76.3362 201.366 78.8281 212.823 79.8576L213.002 77.8656Z" fill="#949494" mask="url(#path-1-inside-1_0_1)"/>
  <mask id="path-3-inside-2_0_1" fill="white">
    <path fill-rule="evenodd" clip-rule="evenodd" d="M56.5309 27.037C51.9879 30.7656 44.3418 33.7691 35.4397 34.8819C26.877 35.9522 19.0099 35.041 13.6872 32.7491C12.8742 33.1036 11.9974 33.3489 11.0726 33.4645C5.88471 34.113 1.15335 30.433 0.50485 25.2451C-0.143649 20.0572 3.53629 15.3258 8.72422 14.6773C8.85611 14.6608 8.98771 14.6471 9.11895 14.6362C9.2172 7.53971 14.7821 1.37903 22.3321 0.435261C27.8921 -0.259742 33.105 2.05238 36.2025 6.05677C37.6437 5.22988 39.2794 4.66661 41.0454 4.44586C46.751 3.73265 52.018 6.81928 54.095 11.6599C54.3756 11.7819 54.649 11.9079 54.915 12.0376C55.4344 11.8535 55.9815 11.7224 56.5507 11.6512C60.7996 11.1201 64.6745 14.1339 65.2056 18.3828C65.7367 22.6316 62.7229 26.5065 58.4741 27.0376C57.8136 27.1202 57.1621 27.1171 56.5309 27.037Z"/>
  </mask>
  <path fill-rule="evenodd" clip-rule="evenodd" d="M56.5309 27.037C51.9879 30.7656 44.3418 33.7691 35.4397 34.8819C26.877 35.9522 19.0099 35.041 13.6872 32.7491C12.8742 33.1036 11.9974 33.3489 11.0726 33.4645C5.88471 34.113 1.15335 30.433 0.50485 25.2451C-0.143649 20.0572 3.53629 15.3258 8.72422 14.6773C8.85611 14.6608 8.98771 14.6471 9.11895 14.6362C9.2172 7.53971 14.7821 1.37903 22.3321 0.435261C27.8921 -0.259742 33.105 2.05238 36.2025 6.05677C37.6437 5.22988 39.2794 4.66661 41.0454 4.44586C46.751 3.73265 52.018 6.81928 54.095 11.6599C54.3756 11.7819 54.649 11.9079 54.915 12.0376C55.4344 11.8535 55.9815 11.7224 56.5507 11.6512C60.7996 11.1201 64.6745 14.1339 65.2056 18.3828C65.7367 22.6316 62.7229 26.5065 58.4741 27.0376C57.8136 27.1202 57.1621 27.1171 56.5309 27.037Z" fill="white"/>
  <path d="M56.5309 27.037L56.6567 26.045L56.2294 25.9908L55.8965 26.264L56.5309 27.037ZM13.6872 32.7491L14.0827 31.8306L13.6847 31.6592L13.2874 31.8324L13.6872 32.7491ZM9.11895 14.6362L9.20201 15.6327L10.1063 15.5574L10.1189 14.65L9.11895 14.6362ZM36.2025 6.05677L35.4115 6.6686L35.9445 7.35768L36.7001 6.92414L36.2025 6.05677ZM54.095 11.6599L53.176 12.0542L53.3324 12.4186L53.696 12.5768L54.095 11.6599ZM54.915 12.0376L54.4767 12.9364L54.8537 13.1203L55.249 12.9802L54.915 12.0376ZM55.8965 26.264C51.5439 29.8364 44.0969 32.7919 35.3157 33.8896L35.5638 35.8742C44.5867 34.7463 52.432 31.6948 57.1653 27.81L55.8965 26.264ZM35.3157 33.8896C26.8727 34.945 19.1962 34.0325 14.0827 31.8306L13.2917 33.6675C18.8235 36.0495 26.8812 36.9595 35.5638 35.8742L35.3157 33.8896ZM13.2874 31.8324C12.5614 32.149 11.7773 32.3686 10.9486 32.4722L11.1967 34.4568C12.2175 34.3292 13.1871 34.0581 14.0869 33.6657L13.2874 31.8324ZM10.9486 32.4722C6.30869 33.0522 2.07712 29.761 1.49713 25.1211L-0.487428 25.3691C0.229574 31.1051 5.46073 35.1738 11.1967 34.4568L10.9486 32.4722ZM1.49713 25.1211C0.917132 20.4812 4.20835 16.2496 8.84826 15.6696L8.60018 13.685C2.86423 14.402 -1.20443 19.6332 -0.487428 25.3691L1.49713 25.1211ZM8.84826 15.6696C8.96651 15.6548 9.08444 15.6425 9.20201 15.6327L9.0359 13.6397C8.89098 13.6517 8.74572 13.6668 8.60018 13.685L8.84826 15.6696ZM10.1189 14.65C10.2098 8.07852 15.3751 2.31268 22.4561 1.42754L22.2081 -0.557017C14.189 0.445373 8.22457 7.00089 8.11905 14.6224L10.1189 14.65ZM22.4561 1.42754C27.6653 0.776381 32.5304 2.9439 35.4115 6.6686L36.9934 5.44493C33.6796 1.16086 28.1188 -1.29587 22.2081 -0.557017L22.4561 1.42754ZM36.7001 6.92414C38.0277 6.16247 39.5366 5.64225 41.1694 5.43813L40.9214 3.45358C39.0222 3.69098 37.2597 4.2973 35.7048 5.18939L36.7001 6.92414ZM41.1694 5.43813C46.4467 4.77846 51.2801 7.63561 53.176 12.0542L55.0139 11.2656C52.7559 6.00295 47.0552 2.68684 40.9214 3.45358L41.1694 5.43813ZM53.696 12.5768C53.9638 12.6934 54.2241 12.8133 54.4767 12.9364L55.3533 11.1388C55.0739 11.0025 54.7873 10.8705 54.4939 10.7429L53.696 12.5768ZM55.249 12.9802C55.7009 12.82 56.1776 12.7056 56.6748 12.6435L56.4267 10.6589C55.7854 10.7391 55.1679 10.887 54.581 11.0951L55.249 12.9802ZM56.6748 12.6435C60.3756 12.1809 63.7507 14.806 64.2134 18.5068L66.1979 18.2587C65.5983 13.4619 61.2236 10.0593 56.4267 10.6589L56.6748 12.6435ZM64.2134 18.5068C64.676 22.2076 62.0509 25.5828 58.35 26.0454L58.5981 28.0299C63.395 27.4303 66.7975 23.0556 66.1979 18.2587L64.2134 18.5068ZM58.35 26.0454C57.7732 26.1175 57.2057 26.1146 56.6567 26.045L56.405 28.0291C57.1185 28.1196 57.8539 28.1229 58.5981 28.0299L58.35 26.0454Z" fill="#949494" mask="url(#path-3-inside-2_0_1)"/>
</svg>
