<svg width="229" height="198" viewBox="0 0 229 198" fill="none" xmlns="http://www.w3.org/2000/svg">
<ellipse cx="115" cy="160" rx="103" ry="38" fill="black" fill-opacity="0.2"/>
<path d="M111.5 32.0015V37.0015C113.9 37.4015 116.833 37.1681 118 37.0015L117.5 30.5577C112.851 30.3001 111.5 31.2806 111.5 32.0015Z" fill="#999999" stroke="black"/>
<rect x="5.10617" y="64.1089" width="5" height="92.9522" transform="rotate(-6.82457 5.10617 64.1089)" fill="#92836B" stroke="black"/>
<circle cx="0.5" cy="42.5" r="0.5" fill="#FCFFA9"/>
<circle cx="7" cy="61" r="5.5" fill="#92836B" stroke="black"/>
<rect x="-0.555872" y="0.437042" width="5" height="92.9522" transform="matrix(-0.992915 -0.11883 -0.11883 0.992915 223.066 63.6089)" fill="#92836B" stroke="black"/>
<circle cx="0.5" cy="0.5" r="0.5" transform="matrix(-1 0 0 1 228.672 42)" fill="#FCFFA9"/>
<path d="M8.5 66C31.3333 59.8333 84.6 39.2 115 6" stroke="black"/>
<path d="M25.5 74.5C23.1 76.1 16.1667 68.1667 13 64C17.8 60.4 27.3333 58.5 31.5 58C30.5 62.8333 27.9 72.9 25.5 74.5Z" fill="#78BEFF" stroke="black"/>
<path d="M44.5 68.5C42.1 70.1 35.1667 62.1667 32 58C36.8 54.4 45.3333 51 49.5 50.5C48.5 55.3333 46.9 66.9 44.5 68.5Z" fill="#FF8284" stroke="black"/>
<path d="M61.5 61C59.1 62.6 52.1667 54.6667 49 50.5C53.8 46.9 62.3333 43.5 66.5 43C65.5 47.8333 63.9 59.4 61.5 61Z" fill="#FFFF52" stroke="black"/>
<path d="M77.5 54C75.1 55.6 68.6667 47.1667 65.5 43C70.5 40 76 36.5 81 34C80 38.8333 79.9 52.4 77.5 54Z" fill="#FF8284" stroke="black"/>
<path d="M92 42C89.6 43.6 84.1667 37.6667 81 33.5C86.5 29.5 88.5 28 96 23C95 27.8333 94.4 40.4 92 42Z" fill="#78BEFF" stroke="black"/>
<path d="M105 30.5325C102.6 32.1325 100.167 26.6984 97 22.5318C100.5 19.0003 111 9.5339 111 11.5318L111 11.5328C110 16.3669 107.4 28.9326 105 30.5325Z" fill="#FFFF52" stroke="black"/>
<path d="M220.5 66C197.667 59.8333 144.4 39.2 114 6" stroke="black"/>
<path d="M203.5 74.5C205.9 76.1 212.833 68.1667 216 64C211.2 60.4 201.667 58.5 197.5 58C198.5 62.8333 201.1 72.9 203.5 74.5Z" fill="#78BEFF" stroke="black"/>
<path d="M184.5 68.5C186.9 70.1 193.833 62.1667 197 58C192.2 54.4 183.667 51 179.5 50.5C180.5 55.3333 182.1 66.9 184.5 68.5Z" fill="#FF8284" stroke="black"/>
<path d="M167.5 61C169.9 62.6 176.833 54.6667 180 50.5C175.2 46.9 166.667 43.5 162.5 43C163.5 47.8333 165.1 59.4 167.5 61Z" fill="#FFFF52" stroke="black"/>
<path d="M151.5 54C153.9 55.6 160.333 47.1667 163.5 43C158.5 40 153 36.5 148 34C149 38.8333 149.1 52.4 151.5 54Z" fill="#FF8284" stroke="black"/>
<path d="M137 42C139.4 43.6 144.833 37.6667 148 33.5C142.5 29.5 140.5 28 133 23C134 27.8333 134.6 40.4 137 42Z" fill="#78BEFF" stroke="black"/>
<path d="M124 30.5325C126.4 32.1325 128.833 26.6984 132 22.5318C128.5 19.0003 118 9.5339 118 11.5318L118 11.5328C119 16.3669 121.6 28.9326 124 30.5325Z" fill="#FFFF52" stroke="black"/>
<circle cx="114" cy="6" r="5.5" fill="#92836B" stroke="black"/>
<path d="M129 14.5C124.2 11.3 115.333 10.5 111.5 10.5V32C111.5 31 114.1 29.5 124.5 31.5C134.9 33.5 143.833 25.3333 147 21C139.5 21 135 18.5 129 14.5Z" fill="#FFFF52"/>
<path d="M111.5 37V32M111.5 32V10.5C115.333 10.5 124.2 11.3 129 14.5C135 18.5 139.5 21 147 21C143.833 25.3333 134.9 33.5 124.5 31.5C114.1 29.5 111.5 31 111.5 32Z" stroke="black"/>
<circle cx="6" cy="6" r="5.5" transform="matrix(-1 0 0 1 227.672 55)" fill="#92836B" stroke="black"/>
<path d="M16.4999 156.5C26.4999 136.5 29.6665 116.167 29.9999 108.5H197.5C201.5 132.5 212.5 145.5 214.5 156.5C213.833 167.667 192.6 190 113 190C33.3999 190 15.4999 167.667 16.4999 156.5Z" fill="#E9EC8D" stroke="black"/>
<path d="M16.4999 156.5C26.4999 136.5 29.6665 116.167 29.9999 108.5H33C31 129.3 22.0596 153.5 17.8395 163C16.7062 160.62 16.3298 158.399 16.4999 156.5Z" fill="#F0575A"/>
<path d="M23.5 170.252C33.5 144.454 38 118.335 39 108.5H47.5C44.3 137.7 36.5 166.112 33 176.668C29.0343 174.601 25.9121 172.427 23.5 170.252Z" fill="#F0575A"/>
<path d="M45 181.639C54.6 149.349 56.6667 119.426 56.5 108.5H67.5C68.3333 115.695 68 141.175 60 185.542C54.3492 184.399 49.3717 183.081 45 181.639Z" fill="#F0575A"/>
<path d="M75.5566 188C79.6132 149 81.5 122.5 81.5 108.5H91.5C91.9 139.3 88.6667 175.065 87 189.098C82.9748 188.799 79.1637 188.43 75.5566 188Z" fill="#F0575A"/>
<path d="M142 188.873C138.8 158.771 136 122.749 135 108.5H125C126.2 136.1 128.833 174.09 130 189.635C134.191 189.447 138.188 189.191 142 188.873Z" fill="#F0575A"/>
<path d="M154.5 187.529C150.9 163.553 148 124.853 147 108.5H158C159.6 138.1 166.333 171.807 169.5 184.961C164.933 185.937 159.944 186.803 154.5 187.529Z" fill="#F0575A"/>
<path d="M185.5 180.562C177.5 153.812 172.5 121.375 171 108.5H182C183.667 121.928 189.1 154.106 197.5 175.392C194.117 177.2 190.142 178.945 185.5 180.562Z" fill="#F0575A"/>
<path d="M206.5 169.386C196.5 146.895 191.167 119.424 189.75 108.5H193.625C197.71 122.536 207.142 153.086 212.19 163C210.91 165.047 209.053 167.21 206.5 169.386Z" fill="#F0575A"/>
<path d="M16.4999 156.5C26.4999 136.5 29.6665 116.167 29.9999 108.5H33C31 129.3 22.0596 153.5 17.8395 163C16.7062 160.62 16.3298 158.399 16.4999 156.5Z" stroke="black"/>
<path d="M23.5 170.252C33.5 144.454 38 118.335 39 108.5H47.5C44.3 137.7 36.5 166.112 33 176.668C29.0343 174.601 25.9121 172.427 23.5 170.252Z" stroke="black"/>
<path d="M45 181.639C54.6 149.349 56.6667 119.426 56.5 108.5H67.5C68.3333 115.695 68 141.175 60 185.542C54.3492 184.399 49.3717 183.081 45 181.639Z" stroke="black"/>
<path d="M75.5566 188C79.6132 149 81.5 122.5 81.5 108.5H91.5C91.9 139.3 88.6667 175.065 87 189.098C82.9748 188.799 79.1637 188.43 75.5566 188Z" stroke="black"/>
<path d="M142 188.873C138.8 158.771 136 122.749 135 108.5H125C126.2 136.1 128.833 174.09 130 189.635C134.191 189.447 138.188 189.191 142 188.873Z" stroke="black"/>
<path d="M154.5 187.529C150.9 163.553 148 124.853 147 108.5H158C159.6 138.1 166.333 171.807 169.5 184.961C164.933 185.937 159.944 186.803 154.5 187.529Z" stroke="black"/>
<path d="M185.5 180.562C177.5 153.812 172.5 121.375 171 108.5H182C183.667 121.928 189.1 154.106 197.5 175.392C194.117 177.2 190.142 178.945 185.5 180.562Z" stroke="black"/>
<path d="M206.5 169.386C196.5 146.895 191.167 119.424 189.75 108.5H193.625C197.71 122.536 207.142 153.086 212.19 163C210.91 165.047 209.053 167.21 206.5 169.386Z" stroke="black"/>
<path d="M91 157.5V190.5H97V157.5C97.5 154.667 101.1 149 111.5 149C121.9 149 125.167 154.667 125.5 157.5V190.5H131.5V157.5C130.833 152.833 125.9 143.5 111.5 143.5C97.1 143.5 91.8333 152.833 91 157.5Z" fill="#F0575A" stroke="black"/>
<path d="M125.5 157.5V190.5H97V157.5C97.5 154.667 101.1 149 111.5 149C121.9 149 125.167 154.667 125.5 157.5Z" fill="#333333" stroke="black"/>
<path d="M42.9999 85C71.4998 72 101 50 109 38H111H113H115.75H117.125H118.5C130.5 54.5 176.5 80.5 190.5 87.5C199.206 91.853 202.305 95.8192 201.72 100C201.364 102.542 199.647 105.164 197 108C195.343 109.775 193.152 111.542 190.5 113.263C191.5 118.342 191.5 127 184 131.5C177.166 135.6 171.5 131 171 124.5V122.288C162.23 125.294 152.001 127.787 141 129.417C141 137 134 143 124 143C109 143 107.5 134.482 107.5 131.439C96.011 131.183 84.994 130.129 74.9999 128.396C75.4999 131.597 73.8999 137.8 63.4999 137C53.0999 136.2 48.8332 126.015 47.9999 121.022C40.4131 117.903 34.5408 114.185 30.9999 110C31.4999 113.193 31.6996 118.963 28.4985 116.5C25.2973 114.037 27.1647 103.807 28.4985 99C30.4712 92.6496 37.524 87.235 42.9999 85Z" fill="#FF8284"/>
<path d="M30.9999 110C34.5408 114.185 40.4131 117.903 47.9999 121.022M30.9999 110C31.4999 113.193 31.6996 118.963 28.4985 116.5C25.2973 114.037 27.1647 103.807 28.4985 99M30.9999 110C29.4755 108.4 28.6971 102 28.4985 99M47.9999 121.022C48.8332 126.015 53.0999 136.2 63.4999 137C73.8999 137.8 75.4999 131.597 74.9999 128.396M47.9999 121.022C53.9998 123.48 67.7997 128.396 74.9999 128.396M74.9999 128.396C84.994 130.129 96.011 131.183 107.5 131.439M107.5 131.439C107.5 134.482 109 143 124 143C134 143 141 137 141 129.417M107.5 131.439C113.572 131.737 128.773 131.751 141 129.417M141 129.417C152.001 127.787 162.23 125.294 171 122.288M171 122.288V124.5C171.5 131 177.166 135.6 184 131.5C191.5 127 191.5 118.342 190.5 113.263M171 122.288C176.333 120.367 187.7 115.873 190.5 113.263M190.5 113.263C193.152 111.542 195.343 109.775 197 108C199.647 105.164 201.364 102.542 201.72 100C202.305 95.8192 199.206 91.853 190.5 87.5C176.5 80.5 130.5 54.5 118.5 38H117.125H115.75H113H111H109C101 50 71.4998 72 42.9999 85C37.524 87.235 30.4712 92.6496 28.4985 99" stroke="black"/>
<path d="M31.0002 110C51.9274 95.2192 92.5409 64.1446 106.738 45.142C108.353 42.5004 109.783 40.0983 111 38H113H115.75H117.125C136.825 62 181.73 89.3333 201.72 100C201.72 107.007 203 118 197 121.022C191.959 123.561 191.093 115.849 190.5 113.263C173.7 106.042 134.583 60.079 117.125 38H115.75C126 57.5256 151.4 101.719 171 122.288C170.5 127.859 167.5 137.5 155.5 139.5C145.242 141.21 141.833 132.612 141 129.417C131 104.151 120 57.9449 115.75 38H113C113 38.223 112.991 38.4614 112.972 38.7149C111.954 64.7913 109.482 118.707 107.5 131.439C105.667 135.293 105.5 143.5 91 142C76.5 140.5 75.6668 131.931 75.0001 128.396C87.4233 103.584 112.031 51.6463 112.972 38.7149C112.982 38.4742 112.991 38.2359 113 38H111C110.171 40.0972 108.709 42.5033 106.738 45.142C93.9717 66.0193 69.6595 101.863 48.0001 121.022C48.0001 124.515 46.2001 130.6 39.0001 127C31.8001 123.4 30.6668 114.167 31.0002 110Z" fill="#FCFFA9"/>
<path d="M31.0002 110C51.9274 95.2192 92.5409 64.1446 106.738 45.142C108.353 42.5004 109.783 40.0983 111 38H113H115.75H117.125C136.825 62 181.73 89.3333 201.72 100C201.72 107.007 203 118 197 121.022C191.959 123.561 191.093 115.849 190.5 113.263C173.7 106.042 134.583 60.079 117.125 38H115.75C126 57.5256 151.4 101.719 171 122.288C170.5 127.859 167.5 137.5 155.5 139.5C145.242 141.21 141.833 132.612 141 129.417C131 104.151 120 57.9449 115.75 38H113C113 38.223 112.991 38.4614 112.972 38.7149C111.954 64.7913 109.482 118.707 107.5 131.439C105.667 135.293 105.5 143.5 91 142C76.5 140.5 75.6668 131.931 75.0001 128.396C87.4233 103.584 112.031 51.6463 112.972 38.7149C112.982 38.4742 112.991 38.2359 113 38H111C110.171 40.0972 108.709 42.5033 106.738 45.142C93.9717 66.0193 69.6595 101.863 48.0001 121.022C48.0001 124.515 46.2001 130.6 39.0001 127C31.8001 123.4 30.6668 114.167 31.0002 110Z" fill="#FCFFA9"/>
<path d="M109 38H111M31.0002 110C54.8335 93.1667 104.2 55.2 111 38M31.0002 110C34.541 114.185 40.4134 117.903 48.0001 121.022M31.0002 110C30.6668 114.167 31.8001 123.4 39.0001 127C46.2001 130.6 48.0001 124.515 48.0001 121.022M118.5 38H117.125M111 38C100.167 56.6812 72.4001 99.4392 48.0001 121.022M111 38H113M75.0001 128.396C87.6668 103.097 113 49.6 113 38M75.0001 128.396C84.9943 130.129 96.0113 131.183 107.5 131.439M75.0001 128.396C75.6668 131.931 76.5 140.5 91 142C105.5 143.5 105.667 135.293 107.5 131.439M113 38C112 63.7926 109.5 118.59 107.5 131.439M113 38H115.75M115.75 38C120 57.9449 131 104.151 141 129.417M115.75 38C126 57.5256 151.4 101.719 171 122.288M115.75 38H117.125M141 129.417C152.001 127.787 162.23 125.294 171 122.288M141 129.417C141.833 132.612 145.242 141.21 155.5 139.5C167.5 137.5 170.5 127.859 171 122.288M117.125 38C134.583 60.079 173.7 106.042 190.5 113.263M117.125 38C136.825 62 181.73 89.3333 201.72 100M190.5 113.263C193.152 111.542 195.343 109.775 197 108C199.647 105.164 201.365 102.542 201.72 100M190.5 113.263C191.093 115.849 191.959 123.561 197 121.022C203 118 201.72 107.007 201.72 100" stroke="black"/>
<path d="M116.66 36.6177C115.211 36.9243 113.81 36.8601 112.603 36.6261C110.715 36.2602 108.578 36.5449 107.184 37.8704C102.797 42.0411 96.2556 46.9136 92.5 49C88 51.5 91 64 113.5 64C136 64 143.5 54 138.5 51.5C135.051 49.7753 126.892 42.4734 121.718 37.61C120.4 36.3714 118.43 36.2434 116.66 36.6177Z" fill="#FF8284" stroke="black"/>
</svg>
