<svg width="279" height="170" viewBox="0 0 279 170" fill="none" xmlns="http://www.w3.org/2000/svg">
  <path d="M166.774 4.50195L161.768 117.861H170.708L166.774 4.50195Z" fill="#896736" stroke="black"/>
  <path d="M158.906 26.3168C151.098 31.5222 143.41 31.5616 140.311 30.608C151.732 28.9367 162.579 11.0455 167.489 2C168.899 20.3091 181.061 27.9856 186.441 29.1776C177.287 29.1776 169.515 22.5024 166.773 19.1648C166.773 19.1648 164.27 22.7408 158.906 26.3168Z" fill="#14653C" stroke="black"/>
  <path d="M158.907 41.6935C149.967 47.0575 136.974 48.0111 133.875 47.0575C150.324 45.3447 161.864 32.8589 166.774 23.8135C168.184 42.1226 185.727 44.9119 191.448 45.9847C173.211 47.4151 169.515 37.8791 166.774 34.5415C166.774 34.5415 164.435 38.3767 158.907 41.6935Z" fill="#14653C" stroke="black"/>
  <path d="M158.906 54.5665C149.966 59.9305 136.973 60.8841 133.874 59.9305C150.324 58.2178 161.864 45.732 166.773 36.6865C168.184 54.9956 185.368 55.2817 191.09 56.3545C172.852 57.7849 169.515 50.7521 166.773 47.4145C166.773 47.4145 164.434 51.2497 158.906 54.5665Z" fill="#14653C" stroke="black"/>
  <path d="M143.529 68.5148C155.259 68.5148 164.628 59.2172 167.846 54.5684C167.846 56.5948 166.63 61.7919 161.767 66.3692C156.904 70.9464 147.582 69.7068 143.529 68.5148Z" fill="#14653C" stroke="black"/>
  <path d="M182.866 67.0848C176.572 67.0848 170.23 62.0784 167.846 59.5752C166.178 61.4824 164.056 65.6544 168.919 67.0848C173.783 68.5152 180.243 67.6808 182.866 67.0848Z" fill="#14653C" stroke="black"/>
  <path d="M154.974 75.4121C160.02 75.4121 165.105 71.5293 167.016 69.5879C168.354 71.0671 170.056 74.3028 166.156 75.4121C162.257 76.5215 157.076 75.8744 154.974 75.4121Z" fill="#14653C" stroke="black"/>
  <path d="M140.303 122.917C140.675 122.83 141.059 122.805 141.439 122.842L254.543 133.802C258.485 134.184 258.86 139.79 255.004 140.694L179.747 158.325C179.375 158.412 178.991 158.438 178.611 158.401L65.5068 147.441C61.5649 147.059 61.19 141.453 65.046 140.549L140.303 122.917Z" fill="#FFC9A3" stroke="black"/>
  <ellipse cx="48.07" cy="7.2105" rx="48.07" ry="7.2105" transform="matrix(-1 0 0 1 204.193 138.546)" fill="black" fill-opacity="0.2"/>
  <ellipse cx="35.0911" cy="7.6912" rx="35.0911" ry="7.6912" transform="matrix(-1 0 0 1 70.5591 153.929)" fill="black" fill-opacity="0.2"/>
  <path d="M147.923 72.6787H79.9893L97.5299 106.968L167.59 108.858L147.923 72.6787Z" fill="#AFA05E"/>
  <path d="M167.59 108.858L147.923 72.6787H79.9893L97.5299 106.968M167.59 108.858L97.5299 106.968M167.59 108.858L179.799 131.541M97.5299 106.968L106.904 125.634" stroke="black"/>
  <path d="M148.235 72.6797L75.9444 72.6814L54.4435 110.958L128.861 112.846L148.235 72.6797Z" fill="#F7E697"/>
  <path d="M128.861 112.846L148.235 72.6797L75.9444 72.6814L54.4435 110.958M128.861 112.846L54.4435 110.958M128.861 112.846L115.157 144.271M54.4435 110.958L37.9043 138.366" stroke="black"/>
  <rect x="209.009" y="68.4697" width="6.3933" height="53.5967" rx="1.5" fill="#A05A5A" stroke="black"/>
  <path d="M213.626 69.6768V119.439" stroke="black"/>
  <rect x="186.038" y="71.0391" width="52.3351" height="29.1187" rx="1.5" fill="#E0CEAC" stroke="black"/>
  <path d="M204.908 95.4343C204.681 95.5919 204.625 95.9035 204.782 96.1302C204.94 96.357 205.252 96.413 205.478 96.2554L204.908 95.4343ZM211.778 91.2679L212.035 90.8387C211.866 90.7379 211.654 90.7452 211.493 90.8573L211.778 91.2679ZM215.733 93.6326L215.477 94.0618C215.644 94.1619 215.855 94.1554 216.016 94.0451L215.733 93.6326ZM223.1 88.5867L223.408 88.1924C223.236 88.0585 222.997 88.0512 222.818 88.1742L223.1 88.5867ZM226.236 91.0317L225.928 91.426C226.138 91.5897 226.44 91.5602 226.614 91.3589L226.236 91.0317ZM232.681 84.1232C232.661 83.8477 232.422 83.6406 232.147 83.6605L227.658 83.9846C227.383 84.0045 227.176 84.2439 227.196 84.5193C227.216 84.7947 227.455 85.0019 227.73 84.982L231.72 84.6939L232.008 88.6835C232.028 88.9589 232.267 89.1661 232.543 89.1462C232.818 89.1263 233.025 88.8869 233.005 88.6115L232.681 84.1232ZM205.478 96.2554L212.064 91.6785L211.493 90.8573L204.908 95.4343L205.478 96.2554ZM211.522 91.697L215.477 94.0618L215.99 93.2035L212.035 90.8387L211.522 91.697ZM216.016 94.0451L223.383 88.9992L222.818 88.1742L215.451 93.2201L216.016 94.0451ZM222.793 88.981L225.928 91.426L226.543 90.6374L223.408 88.1924L222.793 88.981ZM226.614 91.3589L232.561 84.4863L231.805 83.832L225.858 90.7045L226.614 91.3589Z" fill="black"/>
  <path d="M192.023 81.3305C191.163 81.3325 190.537 81.2306 190.143 81.0248C189.749 80.819 189.495 80.4896 189.381 80.0365C189.266 79.5835 189.208 78.8769 189.206 77.9169C189.203 76.9436 189.255 76.2201 189.361 75.7466C189.473 75.2663 189.722 74.9124 190.108 74.6849C190.501 74.4506 191.124 74.3326 191.978 74.3306C192.491 74.3295 193.015 74.4483 193.548 74.6871C194.082 74.9192 194.533 75.3048 194.901 75.844C195.269 76.3832 195.454 77.0727 195.456 77.9127C195.458 78.7194 195.272 79.3798 194.9 79.894C194.528 80.4015 194.079 80.7692 193.553 80.9971C193.027 81.2183 192.517 81.3294 192.023 81.3305ZM191.399 79.572C191.613 79.5981 191.766 79.6111 191.86 79.6109C192.333 79.6098 192.699 79.4823 192.959 79.2284C193.218 78.9745 193.347 78.6242 193.346 78.1775C193.345 77.7775 193.218 77.4678 192.964 77.2484C192.71 77.0223 192.353 76.9098 191.893 76.9108C191.72 76.9112 191.553 76.9249 191.394 76.952L191.399 79.572ZM197.761 81.3175C197.241 81.3187 196.815 81.203 196.481 80.9704C196.147 80.7312 195.979 80.3882 195.978 79.9416C195.977 79.5549 196.147 79.2478 196.486 79.0204C196.826 78.793 197.249 78.6787 197.756 78.6775C197.942 78.6771 198.116 78.6934 198.276 78.7263C198.442 78.7526 198.556 78.7857 198.616 78.8256C198.615 78.6589 198.545 78.5224 198.405 78.4161C198.265 78.303 198.051 78.2469 197.765 78.2475C197.638 78.2478 197.535 78.258 197.455 78.2782C197.375 78.2984 197.288 78.3286 197.195 78.3688C197.102 78.409 197.015 78.4392 196.935 78.4594C196.862 78.4796 196.762 78.4898 196.635 78.4901C196.422 78.4906 196.255 78.4376 196.135 78.3312C196.014 78.2181 195.954 78.0483 195.954 77.8216C195.953 77.5616 196.046 77.3414 196.232 77.161C196.425 76.9805 196.665 76.8467 196.951 76.7593C197.238 76.6654 197.524 76.618 197.811 76.6174C198.377 76.6161 198.851 76.7217 199.232 76.9342C199.619 77.14 199.903 77.416 200.083 77.7622C200.271 78.1085 200.365 78.4916 200.366 78.9116C200.367 79.1383 200.347 79.3483 200.307 79.5417C200.275 79.7351 200.228 79.8852 200.168 79.9921C200.262 80.0718 200.332 80.165 200.379 80.2716C200.433 80.3781 200.46 80.4881 200.46 80.6014C200.46 80.7947 200.394 80.9615 200.261 81.1018C200.135 81.2421 199.965 81.3125 199.751 81.313C199.591 81.3134 199.461 81.2903 199.361 81.2439C199.261 81.1974 199.154 81.1244 199.041 81.0246C198.874 81.125 198.691 81.1987 198.491 81.2459C198.298 81.293 198.055 81.3169 197.761 81.3175ZM197.959 80.3071C198.099 80.3067 198.209 80.2765 198.289 80.2163C198.376 80.1561 198.419 80.0827 198.418 79.996C198.418 79.9094 198.375 79.8361 198.288 79.7763C198.208 79.7165 198.098 79.6868 197.958 79.6871C197.818 79.6874 197.705 79.7176 197.618 79.7778C197.538 79.838 197.498 79.9114 197.499 79.9981C197.499 80.0848 197.539 80.158 197.619 80.2178C197.706 80.2776 197.819 80.3074 197.959 80.3071ZM202.686 81.3063C202.1 81.3077 201.633 81.2121 201.286 81.0195C200.938 80.827 200.765 80.5774 200.764 80.2707C200.763 80.0707 200.83 79.9172 200.963 79.8102C201.103 79.6966 201.279 79.6395 201.492 79.639C201.612 79.6388 201.709 79.6552 201.782 79.6884C201.856 79.7216 201.929 79.7681 202.003 79.8279C202.056 79.8744 202.1 79.9077 202.133 79.9276C202.173 79.9475 202.22 79.9574 202.273 79.9573C202.413 79.957 202.483 79.9068 202.483 79.8068C202.483 79.7135 202.446 79.6435 202.372 79.597C202.299 79.5439 202.172 79.4808 201.992 79.4079C201.825 79.3416 201.715 79.2952 201.662 79.2687C201.355 79.1227 201.127 78.9499 200.98 78.7502C200.833 78.5505 200.759 78.3374 200.759 78.1107C200.758 77.8574 200.848 77.6172 201.027 77.3901C201.213 77.1563 201.473 76.9691 201.806 76.8283C202.146 76.6809 202.536 76.6067 202.976 76.6057C203.356 76.6048 203.699 76.6574 204.006 76.7633C204.319 76.8693 204.566 77.0154 204.747 77.2017C204.927 77.3812 205.018 77.581 205.018 77.801C205.019 78.0077 204.952 78.1645 204.819 78.2715C204.693 78.3784 204.52 78.4322 204.3 78.4327C204.213 78.4329 204.143 78.4264 204.09 78.4131C204.043 78.3933 203.979 78.3634 203.899 78.3236C203.853 78.297 203.803 78.2738 203.749 78.2539C203.703 78.234 203.649 78.2241 203.589 78.2243C203.536 78.2244 203.489 78.2445 203.449 78.2846C203.409 78.318 203.389 78.3614 203.39 78.4147C203.39 78.5147 203.463 78.5879 203.61 78.6342C203.997 78.76 204.307 78.9193 204.541 79.1121C204.782 79.3049 204.902 79.5713 204.903 79.9113C204.904 80.3446 204.701 80.6851 204.295 80.9327C203.896 81.1803 203.36 81.3048 202.686 81.3063ZM206.624 81.2974C206.298 81.2981 206.047 81.172 205.874 80.9191C205.7 80.6662 205.579 80.2764 205.511 79.7499C205.45 79.2234 205.418 78.4935 205.416 77.5601C205.414 76.7801 205.433 76.1701 205.472 75.73C205.517 75.2899 205.62 74.943 205.779 74.6893C205.939 74.4289 206.188 74.2984 206.528 74.2976C206.822 74.2969 207.042 74.3898 207.189 74.5761C207.336 74.7624 207.43 74.9956 207.471 75.2755C207.511 75.5554 207.532 75.9053 207.533 76.3253L207.534 76.7753C207.667 76.7084 207.784 76.6614 207.884 76.6345C207.99 76.6076 208.147 76.5939 208.354 76.5935C208.807 76.5924 209.197 76.7082 209.524 76.9408C209.852 77.1667 210.099 77.4728 210.267 77.8591C210.441 78.2454 210.528 78.6752 210.529 79.1485C210.531 79.7619 210.465 80.2687 210.333 80.669C210.207 81.0626 209.954 81.2598 209.574 81.2607C209.308 81.2613 209.107 81.2018 208.974 81.0821C208.847 80.9624 208.763 80.7992 208.723 80.5926C208.689 80.386 208.672 80.1027 208.671 79.7428C208.67 79.3494 208.626 79.0462 208.539 78.833C208.458 78.6199 208.315 78.5136 208.108 78.514C207.901 78.5145 207.752 78.6248 207.659 78.845C207.573 79.0586 207.527 79.3587 207.521 79.7454C207.515 80.1054 207.492 80.3921 207.453 80.6055C207.42 80.8189 207.337 80.9891 207.204 81.1161C207.078 81.2364 206.884 81.2968 206.624 81.2974ZM213.705 81.2813C212.491 81.2841 211.707 80.9159 211.352 80.1767C211.004 79.4308 210.829 78.6745 210.827 77.9079C210.826 77.3412 210.874 76.7811 210.973 76.2275C211.078 75.6739 211.247 75.2102 211.48 74.8364C211.712 74.4625 212.015 74.2751 212.389 74.2743C212.622 74.2738 212.822 74.3466 212.989 74.4929C213.156 74.6392 213.24 74.8524 213.241 75.1324C213.241 75.2724 213.228 75.4124 213.201 75.5525C213.175 75.6925 213.136 75.8659 213.083 76.0727C213.069 76.1128 213.043 76.2128 213.003 76.3729C212.97 76.533 212.947 76.683 212.934 76.8231C213.227 76.6624 213.561 76.5816 213.934 76.5808C214.307 76.5799 214.654 76.6625 214.974 76.8284C215.301 76.9944 215.565 77.2504 215.766 77.5966C215.974 77.9362 216.078 78.3526 216.079 78.8459C216.08 79.2659 215.984 79.6628 215.792 80.0366C215.599 80.4037 215.32 80.7043 214.954 80.9385C214.594 81.166 214.178 81.2803 213.705 81.2813ZM213.641 79.7015C213.821 79.7011 213.977 79.634 214.11 79.5004C214.25 79.3601 214.32 79.1966 214.319 79.0099C214.319 78.8233 214.249 78.6601 214.108 78.5204C213.975 78.3807 213.818 78.3111 213.638 78.3115C213.458 78.3119 213.301 78.3822 213.168 78.5225C213.035 78.6628 212.969 78.8263 212.969 79.013C212.97 79.1997 213.037 79.3628 213.17 79.5025C213.304 79.6356 213.461 79.7019 213.641 79.7015ZM218.891 81.2796C218.411 81.2873 217.981 81.1883 217.6 80.9825C217.227 80.7767 216.933 80.494 216.719 80.1345C216.511 79.7683 216.4 79.3619 216.386 78.9152C216.378 78.4686 216.481 78.0684 216.693 77.7145C216.906 77.3607 217.202 77.08 217.581 76.8725C217.967 76.665 218.4 76.5607 218.88 76.5596C219.347 76.5585 219.767 76.6576 220.141 76.8567C220.522 77.0558 220.822 77.3352 221.043 77.6947C221.264 78.0542 221.381 78.4572 221.396 78.9039C221.403 79.3372 221.301 79.7341 221.088 80.0946C220.876 80.4484 220.577 80.7324 220.19 80.9466C219.811 81.1608 219.378 81.2718 218.891 81.2796ZM218.918 79.8195C219.098 79.8191 219.254 79.7487 219.387 79.6084C219.52 79.4681 219.587 79.3046 219.586 79.118C219.586 78.9313 219.519 78.7715 219.385 78.6384C219.252 78.4987 219.095 78.4291 218.915 78.4295C218.735 78.4299 218.578 78.5003 218.445 78.6406C218.312 78.7742 218.246 78.9343 218.246 79.121C218.247 79.3077 218.314 79.4709 218.447 79.6106C218.581 79.7503 218.738 79.8199 218.918 79.8195ZM223.504 81.2591C222.984 81.2603 222.557 81.1446 222.223 80.912C221.889 80.6727 221.722 80.3298 221.72 79.8831C221.72 79.4965 221.889 79.1894 222.228 78.962C222.568 78.7345 222.991 78.6202 223.498 78.6191C223.684 78.6187 223.858 78.6349 224.018 78.6679C224.184 78.6942 224.298 78.7273 224.358 78.7671C224.358 78.6005 224.287 78.464 224.147 78.3576C224.007 78.2446 223.793 78.1884 223.507 78.1891C223.38 78.1894 223.277 78.1996 223.197 78.2198C223.117 78.24 223.03 78.2702 222.937 78.3104C222.844 78.3506 222.757 78.3808 222.677 78.401C222.604 78.4211 222.504 78.4313 222.377 78.4316C222.164 78.4321 221.997 78.3792 221.877 78.2728C221.757 78.1597 221.696 77.9898 221.696 77.7632C221.695 77.5032 221.788 77.283 221.974 77.1025C222.167 76.9221 222.407 76.7882 222.693 76.7009C222.98 76.6069 223.266 76.5596 223.553 76.559C224.12 76.5577 224.593 76.6633 224.974 76.8757C225.361 77.0815 225.645 77.3575 225.826 77.7038C226.013 78.05 226.107 78.4332 226.108 78.8532C226.109 79.0798 226.089 79.2899 226.05 79.4833C226.017 79.6767 225.97 79.8268 225.911 79.9336C226.004 80.0134 226.074 80.1066 226.121 80.2131C226.175 80.3197 226.202 80.4296 226.202 80.543C226.202 80.7363 226.136 80.9031 226.003 81.0434C225.877 81.1837 225.707 81.2541 225.494 81.2546C225.334 81.2549 225.204 81.2319 225.103 81.1855C225.003 81.139 224.897 81.0659 224.783 80.9662C224.617 81.0666 224.433 81.1403 224.233 81.1874C224.04 81.2345 223.797 81.2584 223.504 81.2591ZM223.701 80.2486C223.841 80.2483 223.951 80.2181 224.031 80.1579C224.118 80.0977 224.161 80.0243 224.161 79.9376C224.16 79.8509 224.117 79.7777 224.03 79.7179C223.95 79.6581 223.84 79.6283 223.7 79.6286C223.56 79.629 223.447 79.6592 223.36 79.7194C223.28 79.7796 223.24 79.853 223.241 79.9397C223.241 80.0263 223.281 80.0996 223.361 80.1594C223.448 80.2192 223.561 80.2489 223.701 80.2486ZM227.676 81.2496C227.249 81.2506 226.962 81.0012 226.814 80.5016C226.673 80.0019 226.602 79.312 226.6 78.432C226.599 78.032 226.615 77.6987 226.647 77.4319C226.687 77.1585 226.776 76.9283 226.916 76.7413C227.062 76.5477 227.285 76.4505 227.585 76.4498C227.772 76.4494 227.935 76.4923 228.075 76.5787C228.222 76.665 228.316 76.7881 228.356 76.9481C228.503 76.8144 228.692 76.714 228.926 76.6468C229.159 76.5796 229.409 76.5457 229.675 76.5451C229.889 76.5446 230.105 76.5974 230.326 76.7036C230.553 76.8097 230.74 76.956 230.887 77.1423C231.04 77.322 231.117 77.5185 231.118 77.7318C231.118 77.9451 231.042 78.1353 230.889 78.3023C230.743 78.4626 230.546 78.5431 230.3 78.5436C230.22 78.5438 230.143 78.534 230.07 78.5142C230.003 78.4943 229.943 78.4745 229.89 78.4546C229.756 78.4015 229.649 78.3751 229.569 78.3753C229.309 78.3759 229.08 78.4798 228.88 78.6869C228.687 78.8873 228.591 79.1475 228.592 79.4675C228.593 79.8209 228.58 80.1142 228.554 80.3476C228.528 80.581 228.448 80.7912 228.315 80.9782C228.182 81.1585 227.969 81.2489 227.676 81.2496ZM233.507 81.2364C233.034 81.2374 232.614 81.1251 232.247 80.8992C231.886 80.6667 231.609 80.3673 231.415 80.0011C231.22 79.6282 231.123 79.2318 231.122 78.8118C231.121 78.3185 231.22 77.9016 231.419 77.5611C231.625 77.214 231.888 76.9567 232.207 76.7893C232.534 76.6219 232.883 76.5378 233.257 76.5369C233.63 76.5361 233.964 76.6153 234.257 76.7747C234.244 76.6347 234.217 76.4848 234.176 76.3248C234.143 76.1649 234.119 76.065 234.106 76.025C234.052 75.8185 234.011 75.6452 233.984 75.5053C233.957 75.3653 233.944 75.2254 233.943 75.0854C233.943 74.8054 234.026 74.5918 234.192 74.4448C234.358 74.2978 234.558 74.224 234.792 74.2234C235.165 74.2226 235.469 74.4086 235.703 74.7814C235.937 75.1542 236.105 75.6171 236.206 76.1702C236.314 76.7233 236.368 77.2832 236.37 77.8499C236.371 78.6165 236.197 79.3736 235.845 80.1211C235.5 80.8619 234.721 81.2336 233.507 81.2364ZM233.564 79.6562C233.744 79.6558 233.9 79.5888 234.033 79.4552C234.166 79.3149 234.233 79.1514 234.232 78.9647C234.232 78.7781 234.165 78.6149 234.031 78.4752C233.898 78.3355 233.741 78.2658 233.561 78.2662C233.381 78.2667 233.221 78.337 233.081 78.4773C232.948 78.6176 232.882 78.7811 232.882 78.9678C232.883 79.1545 232.95 79.3176 233.083 79.4573C233.224 79.5903 233.384 79.6567 233.564 79.6562Z" fill="black" fill-opacity="0.8"/>
  <rect x="175.236" y="90.2852" width="4.83973" height="70.075" rx="2.41986" transform="rotate(39.7375 175.236 90.2852)" fill="#B08686" stroke="black"/>
  <rect x="133.738" y="121.529" width="4.83973" height="43.5246" rx="2.41986" transform="rotate(-53.6135 133.738 121.529)" fill="#B08686" stroke="black"/>
  <path d="M175.268 94.2147C175.553 93.8814 175.97 93.6895 176.408 93.6895H195.864C197.11 93.6895 197.813 95.1211 197.05 96.107L170.151 130.896C169.837 131.302 169.338 131.519 168.827 131.473L148.15 129.573C146.938 129.461 146.356 128.029 147.147 127.104L175.268 94.2147L174.891 93.892L175.268 94.2147Z" fill="#FFF3BC" stroke="black" stroke-linejoin="round"/>
  <rect x="178.954" y="120.341" width="3.61615" height="23.8163" rx="1.80807" transform="rotate(-18.1347 178.954 120.341)" fill="#B08686" stroke="black"/>
  <rect x="200.91" y="91.4873" width="4.83973" height="73.1894" rx="2.41986" transform="rotate(39.7375 200.91 91.4873)" fill="#A05A5A" stroke="black"/>
  <rect x="123.427" y="134.471" width="4.83973" height="32.7565" rx="2.41986" transform="rotate(-90.1098 123.427 134.471)" fill="#A05A5A" stroke="black"/>
  <rect x="124.926" y="133.04" width="2.34456" height="23.8453" rx="1.17228" transform="rotate(-90 124.926 133.04)" fill="#FFF3BC" stroke="black" stroke-linejoin="round"/>
  <rect x="146.067" y="134.442" width="4.83973" height="25.4078" rx="2.41986" transform="rotate(-90.1098 146.067 134.442)" fill="#A05A5A" stroke="black"/>
  <rect x="156.252" y="123.65" width="4.83973" height="44.0966" rx="2.41986" transform="rotate(-55.6891 156.252 123.65)" fill="#A05A5A" stroke="black"/>
  <path d="M42.1847 137.754C45.5715 138.381 45.1639 141.883 44.5367 143.556C44.5367 144.549 43.1882 146.566 37.7944 146.692C32.4005 146.817 33.0382 142.458 34.0312 140.263C35.3378 139.165 38.7979 137.127 42.1847 137.754Z" fill="#999999" stroke="black" stroke-linecap="round" stroke-linejoin="round"/>
  <path d="M42.1847 137.754C45.5715 138.381 45.1639 141.883 44.5367 143.556C43.3675 140.263 40.4064 140.263 34.0312 140.263C35.3378 139.165 38.7979 137.127 42.1847 137.754Z" fill="#D9D9D9" stroke="black" stroke-linecap="round" stroke-linejoin="round"/>
  <path d="M48.7849 139.858C45.3747 140.49 41.4987 144.37 42.1302 146.054C42.1302 147.054 47.7745 148.731 53.2055 148.857C58.6364 148.984 57.9944 144.595 56.9945 142.384C55.6789 141.279 52.1951 139.227 48.7849 139.858Z" fill="#999999" stroke="black" stroke-linecap="round" stroke-linejoin="round"/>
  <path d="M48.7853 139.858C45.3751 140.49 45.648 142.546 49.1458 144.3C54.0662 147.808 52.1812 144.098 56.9949 142.384C55.6793 141.279 52.1954 139.227 48.7853 139.858Z" fill="#D9D9D9" stroke="black" stroke-linecap="round" stroke-linejoin="round"/>
  <path d="M22.9047 137.818C17.6891 138.784 18.3169 144.177 19.2828 146.753C19.2828 148.282 21.3593 151.388 29.6656 151.582C37.9719 151.775 36.9899 145.062 35.4607 141.682C33.4485 139.992 28.1203 136.853 22.9047 137.818Z" fill="#999999" stroke="black" stroke-linecap="round" stroke-linejoin="round"/>
  <path d="M22.9047 137.818C17.6891 138.784 18.3169 144.177 19.2828 146.753C21.0833 141.682 25.6432 141.682 35.4607 141.682C33.4485 139.992 28.1203 136.853 22.9047 137.818Z" fill="#D9D9D9" stroke="black" stroke-linecap="round" stroke-linejoin="round"/>
  <path d="M16.5927 144.837C11.3771 145.803 12.0049 151.196 12.9708 153.771C12.9708 155.3 15.0473 158.407 23.3536 158.6C31.6598 158.793 30.6779 152.081 29.1487 148.7C27.1365 147.01 21.8083 143.871 16.5927 144.837Z" fill="#999999" stroke="black" stroke-linecap="round" stroke-linejoin="round"/>
  <path d="M16.5927 144.837C11.3771 145.803 12.0049 151.196 12.9708 153.771C16.0293 154.576 23.5468 154.689 29.1487 148.7C27.1365 147.01 21.8083 143.871 16.5927 144.837Z" fill="#D9D9D9" stroke="black" stroke-linecap="round" stroke-linejoin="round"/>
  <rect x="30.5493" y="142.13" width="5.44736" height="26.1547" rx="2.72368" transform="rotate(-55.6891 30.5493 142.13)" fill="#B27D7D" stroke="black"/>
  <rect x="-0.694837" y="-0.131154" width="5.44736" height="26.1547" rx="2.72368" transform="matrix(-0.563683 -0.825991 -0.825991 0.563683 51.917 140.93)" fill="#A05A5A" stroke="black"/>
  <path d="M58.6173 145.355C56.6531 145.917 53.1221 149.331 51.6021 150.968C50.5837 152.02 51.6021 158.684 57.2143 158.684C61.704 158.684 65.1649 157.982 66.3341 157.632C67.0356 156.346 68.2282 153.212 67.3864 150.968C66.3341 148.162 61.0727 144.654 58.6173 145.355Z" fill="#999999" stroke="black" stroke-linecap="round" stroke-linejoin="round"/>
  <path d="M58.6173 145.355C56.653 145.917 53.122 149.331 51.6021 150.968L58.6173 153.423L67.3863 150.968C66.334 148.162 61.0726 144.654 58.6173 145.355Z" fill="#D9D9D9" stroke="black" stroke-linecap="round" stroke-linejoin="round"/>
  <path d="M43.9516 149.745C38.736 150.711 39.3638 156.104 40.3297 158.679C40.3297 160.209 42.4062 163.315 50.7125 163.508C59.0187 163.702 58.0368 156.989 56.5076 153.609C54.4954 151.918 49.1671 148.779 43.9516 149.745Z" fill="#999999" stroke="black" stroke-linecap="round" stroke-linejoin="round"/>
  <path d="M43.9516 149.745C38.736 150.711 39.3638 156.104 40.3297 158.679C42.1301 153.609 46.69 153.609 56.5076 153.609C54.4954 151.918 49.1671 148.779 43.9516 149.745Z" fill="#D9D9D9" stroke="black" stroke-linecap="round" stroke-linejoin="round"/>
  <path d="M28.519 149.745C23.3034 150.711 23.9312 156.104 24.897 158.679C24.897 160.209 26.9736 163.315 35.2799 163.508C43.5861 163.702 42.6042 156.989 41.0749 153.609C39.0628 151.918 33.7345 148.779 28.519 149.745Z" fill="#999999" stroke="black" stroke-linecap="round" stroke-linejoin="round"/>
  <path d="M28.519 149.745C23.3034 150.711 23.9312 156.104 24.897 158.679C27.9555 159.484 33.7127 156.229 41.0749 153.609C39.0628 151.918 33.7345 148.779 28.519 149.745Z" fill="#D9D9D9" stroke="black" stroke-linecap="round" stroke-linejoin="round"/>
  <mask id="path-45-inside-1_30273_22832" fill="white">
    <path fill-rule="evenodd" clip-rule="evenodd" d="M50.2831 120.885C51.4774 120.208 52.0941 118.996 52.0471 116.558C58.076 121.322 52.2901 144.857 36.4849 140.041C33.3028 139.254 30.5609 137.241 28.8572 134.441C27.1535 131.641 26.6263 128.28 27.3906 125.093C28.2066 122.478 29.9838 120.27 32.3637 118.915C31.5031 120.896 31.7433 123.073 32.7871 124.437C33.2821 122.839 34.1973 121.368 36.891 121.168C36.1175 122.758 36.4247 124.174 36.944 125.54C39.0124 124.721 38.8497 122.107 38.6573 119.016C38.385 114.639 38.0533 109.308 43.9145 106.773C42.9808 112.2 45.8248 115.565 48.669 118.929C49.216 119.576 49.763 120.224 50.2831 120.885Z"/>
  </mask>
  <path fill-rule="evenodd" clip-rule="evenodd" d="M50.2831 120.885C51.4774 120.208 52.0941 118.996 52.0471 116.558C58.076 121.322 52.2901 144.857 36.4849 140.041C33.3028 139.254 30.5609 137.241 28.8572 134.441C27.1535 131.641 26.6263 128.28 27.3906 125.093C28.2066 122.478 29.9838 120.27 32.3637 118.915C31.5031 120.896 31.7433 123.073 32.7871 124.437C33.2821 122.839 34.1973 121.368 36.891 121.168C36.1175 122.758 36.4247 124.174 36.944 125.54C39.0124 124.721 38.8497 122.107 38.6573 119.016C38.385 114.639 38.0533 109.308 43.9145 106.773C42.9808 112.2 45.8248 115.565 48.669 118.929C49.216 119.576 49.763 120.224 50.2831 120.885Z" fill="#FF6242"/>
  <path d="M52.0471 116.558L52.6671 115.773L51.0065 114.461L51.0473 116.577L52.0471 116.558ZM50.2831 120.885L49.4969 121.503L50.0282 122.179L50.7762 121.755L50.2831 120.885ZM36.4849 140.041L36.7764 139.084L36.7508 139.076L36.7249 139.07L36.4849 140.041ZM28.8572 134.441L28.0029 134.961H28.0029L28.8572 134.441ZM27.3906 125.093L26.436 124.795L26.426 124.827L26.4182 124.859L27.3906 125.093ZM32.3637 118.915L33.2809 119.313L34.477 116.56L31.8688 118.046L32.3637 118.915ZM32.7871 124.437L31.9929 125.045L33.1694 126.582L33.7423 124.733L32.7871 124.437ZM36.891 121.168L37.7901 121.606L38.5509 120.043L36.8172 120.171L36.891 121.168ZM36.944 125.54L36.0093 125.895L36.3696 126.843L37.3121 126.47L36.944 125.54ZM38.6573 119.016L39.6554 118.954L38.6573 119.016ZM43.9145 106.773L44.9 106.943L45.2133 105.122L43.5176 105.856L43.9145 106.773ZM48.669 118.929L49.4327 118.284V118.284L48.669 118.929ZM51.0473 116.577C51.0694 117.721 50.9317 118.476 50.7118 118.987C50.5051 119.468 50.2077 119.779 49.7901 120.015L50.7762 121.755C51.5528 121.315 52.1609 120.681 52.5494 119.777C52.9248 118.903 53.0719 117.832 53.0469 116.538L51.0473 116.577ZM36.1934 140.997C40.4051 142.281 44.0244 141.685 46.9469 139.931C49.8387 138.194 51.9723 135.371 53.3643 132.305C54.7573 129.237 55.443 125.851 55.3813 122.893C55.3208 119.992 54.529 117.244 52.6671 115.773L51.4271 117.342C52.5796 118.253 53.3254 120.234 53.3818 122.935C53.4369 125.579 52.8188 128.669 51.5433 131.478C50.2668 134.29 48.3672 136.745 45.9174 138.216C43.4982 139.668 40.4673 140.209 36.7764 139.084L36.1934 140.997ZM28.0029 134.961C29.8438 137.987 32.8066 140.162 36.2449 141.012L36.7249 139.07C33.7991 138.347 31.278 136.496 29.7115 133.921L28.0029 134.961ZM26.4182 124.859C25.5923 128.304 26.162 131.935 28.0029 134.961L29.7115 133.921C28.145 131.346 27.6603 128.257 28.3631 125.326L26.4182 124.859ZM31.8688 118.046C29.2689 119.527 27.3274 121.939 26.436 124.795L28.3452 125.391C29.0858 123.018 30.6987 121.014 32.8587 119.784L31.8688 118.046ZM33.5813 123.829C32.7905 122.796 32.5423 121.013 33.2809 119.313L31.4466 118.516C30.464 120.778 30.6961 123.35 31.9929 125.045L33.5813 123.829ZM33.7423 124.733C33.9672 124.007 34.2538 123.428 34.7011 123.005C35.1307 122.6 35.8012 122.252 36.9648 122.166L36.8172 120.171C35.2871 120.284 34.1532 120.772 33.328 121.551C32.5206 122.313 32.102 123.269 31.8319 124.141L33.7423 124.733ZM35.9918 120.731C35.0382 122.69 35.4538 124.434 36.0093 125.895L37.8787 125.185C37.3955 123.914 37.1969 122.825 37.7901 121.606L35.9918 120.731ZM37.6593 119.078C37.7579 120.663 37.8328 121.959 37.6625 122.963C37.5016 123.911 37.1643 124.377 36.576 124.61L37.3121 126.47C38.7921 125.884 39.4076 124.633 39.6343 123.297C39.8517 122.016 39.7491 120.459 39.6554 118.954L37.6593 119.078ZM43.5176 105.856C40.2948 107.249 38.7153 109.464 38.0229 111.934C37.3536 114.322 37.5252 116.924 37.6593 119.078L39.6554 118.954C39.5171 116.731 39.3867 114.479 39.9487 112.474C40.4877 110.551 41.673 108.832 44.3115 107.691L43.5176 105.856ZM49.4327 118.284C46.5637 114.89 44.0538 111.861 44.9 106.943L42.929 106.604C41.9078 112.539 45.0858 116.24 47.9053 119.575L49.4327 118.284ZM51.0693 120.267C50.5363 119.589 49.9777 118.929 49.4327 118.284L47.9053 119.575C48.4543 120.224 48.9896 120.858 49.4969 121.503L51.0693 120.267Z" fill="black" mask="url(#path-45-inside-1_30273_22832)"/>
  <path d="M37.409 134.103C38.9225 134.405 40.4891 134.264 41.9405 133.686C43.3898 133.11 44.6571 132.126 45.6159 130.849C46.5348 132.656 46.129 134.357 45.0783 135.532C43.8817 136.87 41.8305 137.546 39.8127 136.875C39.1315 136.638 38.5257 136.184 38.0767 135.567C37.7616 135.134 37.5346 134.635 37.409 134.103Z" fill="#FFE500" stroke="black"/>
  <path d="M224.574 113.238C220.934 114.376 220.593 119.968 220.877 122.622C221.446 121.674 223.152 119.551 225.427 118.641C227.702 117.731 231.114 118.262 232.536 118.641C231.398 116.366 228.213 112.101 224.574 113.238Z" fill="#FF4848" stroke="black" stroke-linejoin="round"/>
  <path d="M227.34 121.201C223.7 122.338 222.506 123.76 220.877 122.623C221.446 121.675 223.152 119.552 225.427 118.642C227.702 117.732 231.114 118.263 232.536 118.642C232.536 119.779 230.98 120.063 227.34 121.201Z" fill="#6E1313" stroke="black" stroke-linejoin="round"/>
  <path d="M226.202 126.318C226.657 124.271 226.392 120.916 226.202 119.494C227.624 116.65 230.183 126.318 229.899 127.456C229.614 128.593 225.633 128.878 226.202 126.318Z" fill="#F6D6B7" stroke="black"/>
  <path d="M248.839 114.536C245.65 114.744 244.41 117.774 244.188 119.264C244.819 118.809 246.586 117.839 248.613 117.6C250.641 117.361 253.356 118.043 254.461 118.414C253.915 117.035 252.028 114.329 248.839 114.536Z" fill="#BC8420" stroke="black" stroke-linejoin="round"/>
  <path d="M249.749 119.225C246.56 119.433 245.333 120.076 244.189 119.266C244.819 118.811 246.587 117.841 248.614 117.602C250.642 117.363 253.357 118.045 254.462 118.416C254.266 119.04 252.938 119.018 249.749 119.225Z" fill="#593C08" stroke="black" stroke-linejoin="round"/>
  <path d="M248.088 122.309C248.47 120.589 249.11 119.464 248.951 118.269C250.146 115.88 251.433 122.309 251.194 123.265C250.955 124.221 247.61 124.459 248.088 122.309Z" fill="#AF855B" stroke="black"/>
  <path d="M203.703 116.462C205.648 116.588 206.404 118.437 206.539 119.345C206.155 119.068 205.077 118.476 203.84 118.33C202.604 118.185 200.947 118.601 200.274 118.827C200.606 117.986 201.757 116.335 203.703 116.462Z" fill="#BC8420" stroke="black" stroke-linejoin="round"/>
  <path d="M203.149 119.32C205.094 119.447 205.842 119.839 206.54 119.345C206.156 119.067 205.077 118.476 203.841 118.33C202.604 118.184 200.948 118.6 200.275 118.826C200.394 119.207 201.204 119.194 203.149 119.32Z" fill="#593C08" stroke="black" stroke-linejoin="round"/>
  <path d="M204.161 121.203C203.927 120.154 203.537 119.467 203.634 118.739C202.905 117.281 202.12 121.203 202.266 121.786C202.412 122.369 204.452 122.514 204.161 121.203Z" fill="#AF855B" stroke="black"/>
</svg>
