<svg width="459" height="150" viewBox="0 0 459 150" fill="none" xmlns="http://www.w3.org/2000/svg">
  <path d="M105.124 105.562C146.948 133.63 344.21 48.5067 458.406 69.2586C332.647 70.3888 218.737 128.562 132.361 143.703C45.9858 158.844 -14.0186 138.366 4.34833 99.2513C36.6913 30.3727 220.223 33.7579 270.718 39.2653C228.167 39.1555 64.8507 78.5346 105.124 105.562Z" fill="url(#paint0_linear_22057_76)" stroke="black" stroke-opacity="0.6" stroke-linecap="round" stroke-linejoin="round"/>
  <path d="M186.12 64.846C185.469 61.6209 185.942 54.1817 193.047 50.2256C200.151 46.2695 207.611 47.2872 210.453 48.2905C211.933 49.3656 214.858 52.9777 214.716 58.8258C214.581 64.3838 211.366 67.3317 207.256 67.7642C193.757 72.1627 187.541 67.6514 186.12 64.846Z" fill="#D9D9D9"/>
  <path d="M210.453 48.2905C207.611 47.2872 200.151 46.2695 193.047 50.2256C185.942 54.1817 185.469 61.6209 186.12 64.846C187.541 67.6514 193.757 72.1627 207.256 67.7642M210.453 48.2905C211.933 49.3656 214.858 52.9777 214.716 58.8258C214.581 64.3838 211.366 67.3317 207.256 67.7642M210.453 48.2905C205.48 50.4406 199.619 55.3857 197.842 58.8258C196.066 62.2659 197.31 65.921 203.171 67.426C204.576 67.7868 205.96 67.9005 207.256 67.7642" stroke="black" stroke-linecap="round" stroke-linejoin="round"/>
  <path d="M210.453 48.291C211.933 49.366 214.857 52.9782 214.715 58.8263C214.58 64.3842 211.365 67.3322 207.256 67.7646C193.757 72.1632 187.541 67.6519 186.12 64.8464C188.608 64.7031 194.293 63.9864 197.134 62.2664C196.991 61.1548 197.247 59.9785 197.842 58.8263C199.618 55.3862 205.479 50.441 210.453 48.291Z" fill="#676767"/>
  <path d="M207.256 67.7646C211.365 67.3322 214.58 64.3842 214.715 58.8263C214.857 52.9782 211.933 49.366 210.453 48.291C205.479 50.441 199.618 55.3862 197.842 58.8263C197.247 59.9785 196.991 61.1548 197.134 62.2664M207.256 67.7646C205.96 67.901 204.575 67.7873 203.17 67.4265C199.272 66.4256 197.417 64.4736 197.134 62.2664M207.256 67.7646C193.757 72.1632 187.541 67.6519 186.12 64.8464C188.608 64.7031 194.293 63.9864 197.134 62.2664" stroke="black" stroke-linecap="round" stroke-linejoin="round"/>
  <path d="M214.716 58.8263C214.858 52.9782 211.933 49.366 210.453 48.291C205.48 50.441 199.618 55.3862 197.842 58.8263C196.066 62.2664 197.309 65.9215 203.171 67.4265C204.576 67.7873 205.96 67.901 207.256 67.7646C211.365 67.3322 214.58 64.3842 214.716 58.8263Z" fill="#999999" stroke="black" stroke-linecap="round" stroke-linejoin="round"/>
  <ellipse cx="35.4333" cy="9.44889" rx="35.4333" ry="9.44889" transform="matrix(-1 0 0 1 207.642 68.1709)" fill="black" fill-opacity="0.2"/>
  <path d="M110.651 33.2097L110.651 23.5389C101.221 10.4182 92.2004 8.36795 85.23 16.1584C79.0797 23.0323 79.14 37.8898 79.8233 45.6802L84.3336 44.0401V37.0698C88.1131 34.1546 99.5808 31.4661 105.321 30.9194V35.4471L110.651 33.2097Z" fill="#553322" stroke="black" stroke-linecap="round" stroke-linejoin="round"/>
  <path d="M190.058 71.3035L196.303 74.7848C181.471 24.4998 142.828 2.45175 139.315 2.06494C136.505 1.75549 136.583 3.48324 136.973 4.38579C170.385 22.0242 186.285 56.347 190.058 71.3035Z" fill="#DDAA44" stroke="black" stroke-linecap="round" stroke-linejoin="round"/>
  <path d="M149.603 82.1731C166.988 78.5649 183.908 72.1959 190.195 69.4624C190.195 66.974 189.269 63.6854 188.038 60.4419C186.51 56.4172 184.511 52.4619 183.224 50.1914C171.416 51.8315 151.516 58.8019 143.042 62.082L147.996 77.2528L149.603 82.1731Z" fill="#C09344"/>
  <path d="M188.038 60.4419C186.51 56.4172 184.511 52.4619 183.224 50.1914C171.416 51.8315 151.516 58.8019 143.042 62.082L147.996 77.2528M188.038 60.4419C189.269 63.6854 190.195 66.974 190.195 69.4624C183.908 72.1959 166.988 78.5649 149.603 82.1731L147.996 77.2528M188.038 60.4419L175.024 63.3121M147.996 77.2528L159.033 75.2027" stroke="black" stroke-linecap="round" stroke-linejoin="round"/>
  <path d="M183.225 50.1906C171.416 51.8307 151.517 58.8011 143.043 62.0812L140.993 54.0858L138.943 46.0904C164.856 41.8262 172.975 37.4799 173.795 35.8398L183.225 50.1906Z" fill="#C09344"/>
  <path d="M140.993 54.0858L138.943 46.0904C164.856 41.8262 172.975 37.4799 173.795 35.8398L183.225 50.1906C171.416 51.8307 151.517 58.8011 143.043 62.0812L140.993 54.0858ZM140.993 54.0858C146.186 52.6507 157.23 49.5346 159.854 48.5505" stroke="black" stroke-linecap="round" stroke-linejoin="round"/>
  <path d="M138.943 46.0919C164.856 41.8277 172.974 37.4814 173.794 35.8414L165.184 25.5908C162.587 25.3175 155.179 25.2628 146.323 27.2309C137.467 29.199 132.246 32.9711 130.742 34.6112L133.085 37.8913L138.943 46.0919Z" fill="#C09344"/>
  <path d="M133.085 37.8913L130.742 34.6112C132.246 32.9711 137.467 29.199 146.323 27.2309C155.179 25.2628 162.587 25.3175 165.184 25.5908L173.794 35.8414C172.974 37.4814 164.856 41.8277 138.943 46.0919L133.085 37.8913ZM133.085 37.8913C137.771 36.5246 147.963 33.6271 151.243 32.9711" stroke="black" stroke-linecap="round" stroke-linejoin="round"/>
  <path d="M146.323 27.23C155.18 25.2619 162.587 25.3166 165.184 25.59L153.293 14.1092C150.97 13.5625 144.355 12.7972 136.483 14.1092C128.61 15.4213 122.542 18.7561 120.492 20.2594L124.299 25.59L130.742 34.6103C132.246 32.9703 137.467 29.1981 146.323 27.23Z" fill="#C09344"/>
  <path d="M124.299 25.59L120.492 20.2594C122.542 18.7561 128.61 15.4213 136.483 14.1092C144.355 12.7972 150.97 13.5625 153.293 14.1092L165.184 25.59C162.587 25.3166 155.18 25.2619 146.323 27.23C137.467 29.1981 132.246 32.9703 130.742 34.6103L124.299 25.59ZM124.299 25.59C127.95 24.3598 137.057 21.5715 144.273 20.2594" stroke="black" stroke-linecap="round" stroke-linejoin="round"/>
  <path d="M136.483 14.1089C144.355 12.7968 150.97 13.5622 153.294 14.1089L148.374 11.2287L136.483 4.26825C131.289 3.85823 118.606 3.85823 109.422 7.13841L111.843 10.0085L120.492 20.2591C122.542 18.7557 128.611 15.421 136.483 14.1089Z" fill="#C09344"/>
  <path d="M148.374 11.2287L153.294 14.1089C150.97 13.5622 144.355 12.7968 136.483 14.1089C128.611 15.421 122.542 18.7557 120.492 20.2591L111.843 10.0085M148.374 11.2287L136.483 4.26825C131.289 3.85823 118.606 3.85823 109.422 7.13841L111.843 10.0085M148.374 11.2287C146.734 11.0887 142.797 10.8928 140.173 11.2287M111.843 10.0085C115 9.05182 122.706 7.13841 128.283 7.13841" stroke="black" stroke-linecap="round" stroke-linejoin="round"/>
  <path d="M196.608 74.7854C181.772 24.2961 143.122 2.15858 139.609 1.7702C140.91 1.25237 144.45 0.527394 148.198 1.7702C152.882 3.32372 167.718 11.4796 185.676 34.7823C200.043 53.4244 204.416 66.6293 204.806 70.9015L196.608 74.7854Z" fill="#825A11" stroke="black" stroke-linecap="round" stroke-linejoin="round"/>
  <path d="M109.83 22.31C125.903 41.9911 133.748 74.7928 135.661 88.7335C138.613 92.0136 141.265 93.6538 142.222 94.0639C137.301 57.572 115.16 15.3398 96.7093 9.18948C78.2583 3.03915 74.9781 34.2008 75.3882 41.1712C75.6424 45.4941 78.5317 46.0408 79.8984 45.4941L79.8984 33.3806C79.8984 21.49 89.7389 -2.29126 109.83 22.31Z" fill="#DDAA44" stroke="black" stroke-linecap="round" stroke-linejoin="round"/>
  <path d="M142.223 93.242C136.073 55.52 115.162 15.3378 96.7107 9.18751C93.9158 8.25587 91.469 8.18038 89.3304 8.74727C90.8338 7.93729 95.1527 6.15333 100.401 5.49729C106.961 4.67725 116.392 9.59751 132.383 34.6088C148.373 59.6201 154.934 93.242 153.294 93.242C153.294 93.242 148.373 94.8821 142.223 93.242Z" fill="#825A11" stroke="black" stroke-linecap="round" stroke-linejoin="round"/>
  <ellipse cx="26.9293" cy="6.61423" rx="26.9293" ry="6.61423" transform="matrix(-0.991224 0.132194 0.132194 0.991224 171.796 89.4639)" fill="black" fill-opacity="0.25"/>
  <path d="M115.615 98.2451C119.839 103.481 125.595 101.479 127.945 99.8226C129.113 101.009 133.72 102.651 142.805 99.7207C151.889 96.7908 153.764 88.9515 153.565 85.398C154.97 84.2263 157.203 80.4559 154.899 74.749C152.596 69.042 145.658 68.1057 142.478 68.3509C142.679 65.7286 140.685 60.6961 131.103 61.5444C121.52 62.3928 119.796 70.391 120.131 74.284C119.532 73.9166 117.458 74.4795 113.964 79.6709C110.47 84.8624 113.376 88.3411 115.266 89.4315C113.622 90.1877 111.391 93.0091 115.615 98.2451Z" fill="#66CC9A"/>
  <path d="M147.882 86.156L146.55 90.6294M129.958 96.3322L134.288 95.7548M140.307 80.9909C140.087 82.0942 139.275 84.4042 137.787 84.8173M120.28 83.6618C120.751 83.062 122.114 82.1285 123.799 83.1926M124.673 75.2897C125.316 75.2935 126.753 75.603 127.355 76.8115M132.724 67.5037C133.347 68.0472 134.636 69.4507 134.805 70.7166M149.863 76.2261C150.53 76.4057 151.844 77.0359 151.768 78.1199M127.945 99.8226C125.595 101.479 119.839 103.481 115.615 98.2451C111.391 93.0091 113.622 90.1877 115.266 89.4315C113.376 88.3411 110.47 84.8624 113.964 79.6709C117.458 74.4795 119.532 73.9166 120.131 74.284C119.796 70.391 121.52 62.3928 131.103 61.5444C140.685 60.6961 142.679 65.7286 142.478 68.3509C145.658 68.1057 152.596 69.042 154.899 74.749C157.203 80.4559 154.97 84.2263 153.565 85.398C153.764 88.9515 151.889 96.7908 142.805 99.7207C133.72 102.651 129.113 101.009 127.945 99.8226Z" stroke="black" stroke-linecap="round"/>
  <path d="M169.427 87.0381C165.718 97.3905 154.947 96.1141 149.847 93.8216C142.266 92.3755 142.822 86.8269 144.225 84.5935C143.926 82.4127 144.598 77.2107 149.675 73.8491C154.752 70.4875 159.471 73.6182 161.196 75.6038C165.485 75.1017 173.137 76.6857 169.427 87.0381Z" fill="#65C33E"/>
  <path d="M153.064 77.9992C153.144 78.5864 153.333 79.962 153.443 80.7673M157.8 78.8887L157.607 81.2224M162.595 82.0773C162.603 82.7599 162.381 84.2601 161.43 84.8006M149.847 93.8216C154.947 96.1141 165.718 97.3905 169.427 87.0381C173.137 76.6857 165.485 75.1017 161.196 75.6038C159.471 73.6182 154.752 70.4875 149.675 73.8491C144.598 77.2107 143.926 82.4127 144.225 84.5935C142.822 86.8269 142.266 92.3755 149.847 93.8216Z" stroke="black" stroke-linecap="round"/>
  <ellipse cx="22.2049" cy="6.14178" rx="22.2049" ry="6.14178" transform="matrix(-1 0 0 1 244.493 66.9775)" fill="black" fill-opacity="0.2"/>
  <path d="M233.52 69.3249C234.127 66.3194 233.685 59.3867 227.065 55.7C220.444 52.0132 213.492 52.9616 210.844 53.8966C209.464 54.8985 206.739 58.2647 206.871 63.7147C206.997 68.8942 209.993 71.6414 213.823 72.0444C226.403 76.1436 232.196 71.9394 233.52 69.3249Z" fill="#B6B6B6"/>
  <path d="M210.844 53.8966C213.492 52.9616 220.444 52.0132 227.065 55.7C233.685 59.3867 234.127 66.3194 233.52 69.3249C232.196 71.9394 226.403 76.1436 213.823 72.0444M210.844 53.8966C209.464 54.8985 206.739 58.2647 206.871 63.7147C206.997 68.8942 209.993 71.6414 213.823 72.0444M210.844 53.8966C215.478 55.9003 220.94 60.5088 222.596 63.7147C224.251 66.9205 223.092 70.3268 217.63 71.7294C216.321 72.0655 215.03 72.1715 213.823 72.0444" stroke="black" stroke-linecap="round" stroke-linejoin="round"/>
  <path d="M210.845 53.8965C209.465 54.8983 206.74 58.2645 206.872 63.7145C206.998 68.894 209.994 71.6413 213.824 72.0443C226.404 76.1434 232.197 71.9392 233.521 69.3248C231.202 69.1912 225.904 68.5233 223.257 66.9204C223.39 65.8845 223.151 64.7883 222.597 63.7145C220.941 60.5086 215.479 55.9001 210.845 53.8965Z" fill="#7C7C7C"/>
  <path d="M213.824 72.0443C209.994 71.6413 206.998 68.894 206.872 63.7145C206.74 58.2645 209.465 54.8983 210.845 53.8965C215.479 55.9001 220.941 60.5086 222.597 63.7145C223.151 64.7883 223.39 65.8845 223.257 66.9204M213.824 72.0443C215.031 72.1713 216.322 72.0654 217.631 71.7292C221.264 70.7964 222.993 68.9773 223.257 66.9204M213.824 72.0443C226.404 76.1434 232.197 71.9392 233.521 69.3248C231.202 69.1912 225.904 68.5233 223.257 66.9204" stroke="black" stroke-linecap="round" stroke-linejoin="round"/>
  <path d="M206.871 63.7145C206.739 58.2645 209.464 54.8983 210.844 53.8965C215.478 55.9001 220.941 60.5086 222.596 63.7145C224.251 66.9204 223.092 70.3266 217.63 71.7292C216.321 72.0654 215.031 72.1713 213.823 72.0443C209.993 71.6413 206.997 68.894 206.871 63.7145Z" fill="#818181" stroke="black" stroke-linecap="round" stroke-linejoin="round"/>
  <path d="M209.507 62.2272C213.083 63.0286 212.652 67.5035 211.99 69.6407C211.99 70.9097 210.567 73.4877 204.873 73.648C199.179 73.8083 199.852 68.2381 200.9 65.433C202.28 64.0305 205.932 61.4257 209.507 62.2272Z" fill="#999999" stroke="black" stroke-linecap="round" stroke-linejoin="round"/>
  <path d="M209.507 62.2272C213.083 63.0286 212.652 67.5035 211.99 69.6407C209.893 70.3087 204.74 70.4022 200.9 65.433C202.28 64.0305 205.932 61.4257 209.507 62.2272Z" fill="#B6B6B6" stroke="black" stroke-linecap="round" stroke-linejoin="round"/>
  <ellipse cx="15.191" cy="4.17802" rx="15.191" ry="4.17802" transform="matrix(-0.954923 0.296852 0.296852 0.954923 76.5112 44.9004)" fill="black" fill-opacity="0.2"/>
  <path d="M80.2019 43.1274C79.8892 40.0772 77.4098 33.5881 69.9929 32.0329C62.5761 30.4778 56.2192 33.4471 53.9678 35.1261C52.9481 36.4923 51.3446 40.5158 53.0889 45.6808C54.7466 50.5895 58.4233 52.3235 62.2001 51.5714C75.4295 51.7515 79.7135 46.0171 80.2019 43.1274Z" fill="#B6B6B6"/>
  <path d="M53.9678 35.1261C56.2192 33.4471 62.5761 30.4778 69.9929 32.0329C77.4098 33.5881 79.8892 40.0772 80.2019 43.1274C79.7135 46.0171 75.4295 51.7515 62.2001 51.5714M53.9678 35.1261C52.9481 36.4923 51.3446 40.5158 53.0889 45.6808C54.7466 50.5895 58.4233 52.3235 62.2001 51.5714M53.9678 35.1261C58.9883 35.6637 65.5723 38.443 68.1046 41.013C70.6368 43.583 70.5416 47.1796 65.742 50.1405C64.5915 50.8502 63.3908 51.3344 62.2001 51.5714" stroke="black" stroke-linecap="round" stroke-linejoin="round"/>
  <path d="M53.9689 35.126C52.9492 36.4922 51.3457 40.5157 53.09 45.6807C54.7477 50.5894 58.4244 52.3234 62.2012 51.5714C75.4306 51.7514 79.7146 46.0171 80.203 43.1274C77.9493 43.6881 72.6911 44.6232 69.6878 43.8783C69.5072 42.8496 68.9538 41.8737 68.1057 41.0129C65.5734 38.4429 58.9894 35.6636 53.9689 35.126Z" fill="#7C7C7C"/>
  <path d="M62.2012 51.5714C58.4244 52.3234 54.7477 50.5894 53.09 45.6807C51.3457 40.5157 52.9492 36.4922 53.9689 35.126C58.9894 35.6636 65.5734 38.4429 68.1057 41.0129C68.9538 41.8737 69.5072 42.8496 69.6878 43.8783M62.2012 51.5714C63.3919 51.3343 64.5926 50.8501 65.743 50.1404C68.9351 48.1712 70.0464 45.9209 69.6878 43.8783M62.2012 51.5714C75.4306 51.7514 79.7146 46.0171 80.203 43.1274C77.9493 43.6881 72.6911 44.6232 69.6878 43.8783" stroke="black" stroke-linecap="round" stroke-linejoin="round"/>
  <path d="M53.0895 45.6816C51.3452 40.5166 52.9487 36.493 53.9684 35.1269C58.9889 35.6645 65.5729 38.4437 68.1052 41.0138C70.6374 43.5838 70.5422 47.1804 65.7426 50.1412C64.5921 50.8509 63.3914 51.3351 62.2007 51.5722C58.4239 52.3243 54.7472 50.5903 53.0895 45.6816Z" fill="#818181" stroke="black" stroke-linecap="round" stroke-linejoin="round"/>
  <path d="M55.1659 43.4774C58.8179 43.1814 59.7353 47.5823 59.7375 49.8198C60.1142 51.0315 59.5202 53.9159 54.1305 55.7592C48.7409 57.6025 47.7301 52.0836 47.8985 49.0938C48.7993 47.345 51.5139 43.7734 55.1659 43.4774Z" fill="#999999" stroke="black" stroke-linecap="round" stroke-linejoin="round"/>
  <path d="M55.1659 43.4774C58.8179 43.1814 59.7353 47.5823 59.7375 49.8198C57.9337 51.08 53.0406 52.6991 47.8985 49.0938C48.7993 47.345 51.5139 43.7734 55.1659 43.4774Z" fill="#B6B6B6" stroke="black" stroke-linecap="round" stroke-linejoin="round"/>
  <defs>
    <linearGradient id="paint0_linear_22057_76" x1="194.908" y1="101.364" x2="215.523" y2="21.526" gradientUnits="userSpaceOnUse">
      <stop stop-color="#CCEBFF"/>
      <stop offset="1" stop-color="#4CB8FF" stop-opacity="0.74"/>
    </linearGradient>
  </defs>
</svg>
