<svg width="171" height="62" viewBox="0 0 171 62" fill="none" xmlns="http://www.w3.org/2000/svg">
<path d="M3.85787 11.8379C3.81016 9.62931 5.56193 7.80019 7.77055 7.75249L164.946 4.35744C167.155 4.30973 168.984 6.0615 169.031 8.27012L169.665 37.6132C169.713 39.8252 167.956 41.6558 165.744 41.6988L98.0143 43.0159C96.4412 43.0464 95.0322 43.9964 94.4139 45.4431L91.4603 52.3541C90.137 55.4505 85.8134 55.626 84.2435 52.647L80.5189 45.5795C79.8106 44.2357 78.4024 43.4089 76.8838 43.4456L8.58713 45.0921C6.37472 45.1454 4.53945 43.3921 4.49166 41.1796L3.85787 11.8379Z" fill="#866224" stroke="black" stroke-linecap="round"/>
<path d="M1.08638 8.62505C1.03867 6.41642 2.79044 4.5873 4.99907 4.5396L162.175 1.14455C164.383 1.09684 166.212 2.84861 166.26 5.05723L166.894 34.4003C166.942 36.6123 165.185 38.4429 162.972 38.4859L93.9505 39.8281C93.164 39.8434 92.4595 40.3183 92.1503 41.0417L87.0384 53.003C86.3767 54.5512 84.2149 54.6389 83.43 53.1494L77.1693 41.2698C76.8152 40.5978 76.1111 40.1845 75.3518 40.2028L5.81565 41.8792C3.60324 41.9325 1.76796 40.1792 1.72017 37.9667L1.08638 8.62505Z" fill="#E9B965" stroke="black" stroke-linecap="round"/>
<path d="M22.05 30.4008C19.3943 30.4422 17.3886 29.8293 16.0329 28.5623C14.6933 27.2949 13.992 25.2056 13.9291 22.2943C13.8721 19.6549 14.4672 17.5696 15.7144 16.0383C16.9613 14.491 18.7524 13.6921 21.0879 13.6417C22.5276 13.6106 23.7879 13.7994 24.869 14.2081C25.9501 14.6169 26.7872 15.215 27.3803 16.0023C27.9735 16.7897 28.2818 17.7273 28.3053 18.815C28.324 19.6788 28.1486 20.4508 27.7792 21.1309C27.4258 21.8107 26.8869 22.4225 26.1625 22.9663C26.7564 23.0495 27.2752 23.3583 27.7188 23.8929C28.1785 24.4271 28.4161 25.0541 28.4316 25.7739C28.4482 26.5417 28.256 27.2741 27.8549 27.9709C27.4695 28.6514 26.7936 29.2181 25.8272 29.6711C24.8767 30.1237 23.6177 30.3669 22.05 30.4008ZM20.2011 21.4866C20.4922 21.6244 20.8536 21.6886 21.2855 21.6793C21.7974 21.6682 22.2347 21.5387 22.5974 21.2909C22.9758 21.0266 23.1597 20.6466 23.1489 20.1507C23.1386 19.6708 22.9388 19.315 22.5498 19.0834C22.1763 18.8354 21.7257 18.7171 21.1978 18.7285C20.7819 18.7375 20.4315 18.8171 20.1467 18.9672C19.9248 19.0681 19.7605 19.2396 19.6537 19.482C19.5469 19.7244 19.4964 19.9815 19.5023 20.2535C19.5082 20.5254 19.5697 20.7801 19.6869 21.0176C19.8037 21.2392 19.9751 21.3955 20.2011 21.4866ZM20.3224 27.1013C20.6291 27.2227 20.9904 27.279 21.4063 27.27C21.9182 27.2589 22.3558 27.1454 22.7192 26.9295C23.0983 26.6973 23.2832 26.3652 23.2739 25.9333C23.2649 25.5174 23.066 25.2016 22.6773 24.986C22.2885 24.7703 21.8382 24.668 21.3263 24.6791C20.9264 24.6877 20.5759 24.7593 20.2747 24.8939C20.0528 24.9947 19.8882 25.1503 19.7807 25.3606C19.6728 25.555 19.6215 25.7722 19.6267 26.0121C19.6319 26.2521 19.6927 26.4748 19.8092 26.6803C19.9253 26.8699 20.0964 27.0102 20.3224 27.1013ZM35.315 30.1383C34.1312 30.1638 33.0785 29.9545 32.1567 29.5103C31.2349 29.0661 30.509 28.4337 29.9792 27.6129C29.465 26.7758 29.1965 25.8294 29.1737 24.7737C29.1512 23.7339 29.3784 22.7688 29.8553 21.8783C30.3482 20.9874 31.0368 20.2684 31.9212 19.7211C32.8056 19.1739 33.8157 18.888 34.9514 18.8635C35.9752 18.8414 36.8834 19.0298 37.6762 19.4288C38.469 19.8278 39.0808 20.3667 39.5116 21.0455C39.942 21.7084 40.1652 22.4077 40.181 23.1436C40.207 24.3433 39.7701 25.2329 38.8704 25.8125C37.9863 26.3757 36.9205 26.6708 35.6728 26.6977C34.8409 26.7157 34.1349 26.6269 33.5545 26.4314C34.0513 27.2049 34.8516 27.5797 35.9553 27.5558C36.4032 27.5462 36.8819 27.4798 37.3914 27.3568C37.5823 27.3047 37.7657 27.2767 37.9417 27.2729C38.2936 27.2653 38.5755 27.3472 38.7872 27.5187C39.015 27.6898 39.1321 27.9273 39.1387 28.2313C39.1494 28.7271 38.8548 29.1656 38.2549 29.5467C37.6546 29.9117 36.6747 30.1089 35.315 30.1383ZM33.5633 23.5026C33.7121 23.7234 33.9076 23.8872 34.15 23.994C34.408 24.0845 34.689 24.1264 34.9929 24.1198C35.3448 24.1122 35.647 24.0257 35.8995 23.8602C36.168 23.6944 36.2995 23.4835 36.294 23.2275C36.2877 22.9396 36.1624 22.6942 35.918 22.4915C35.6895 22.2884 35.3594 22.1915 34.9275 22.2008C34.4956 22.2101 34.1546 22.3535 33.9045 22.631C33.6701 22.8921 33.5563 23.1826 33.5633 23.5026ZM45.3742 29.921C44.1265 29.9479 43.0967 29.6901 42.2848 29.1475C41.4726 28.5889 41.0549 27.7738 41.0317 26.702C41.0117 25.7742 41.4037 25.0296 42.2078 24.4681C43.0118 23.9066 44.0217 23.6127 45.2374 23.5865C45.6853 23.5768 46.1021 23.6078 46.4877 23.6795C46.889 23.7348 47.1627 23.8089 47.3087 23.9018C47.3001 23.5019 47.125 23.1776 46.7836 22.9289C46.4418 22.6642 45.927 22.5393 45.2391 22.5542C44.9352 22.5608 44.6878 22.5901 44.4969 22.6422C44.3059 22.6944 44.0995 22.7709 43.8777 22.8717C43.6558 22.9725 43.4494 23.049 43.2585 23.1011C43.0836 23.1529 42.8441 23.1821 42.5402 23.1886C42.0283 23.1997 41.6256 23.0804 41.3322 22.8306C41.0384 22.5649 40.8856 22.1601 40.8739 21.6162C40.8604 20.9924 41.0729 20.4597 41.5115 20.0181C41.9661 19.5762 42.535 19.2438 43.2184 19.021C43.9014 18.7822 44.5868 18.6554 45.2746 18.6405C46.6343 18.6111 47.7756 18.8426 48.6984 19.3347C49.6369 19.8106 50.3311 20.4597 50.781 21.2822C51.2468 22.1044 51.4906 23.0193 51.5124 24.0271C51.5241 24.5709 51.487 25.0759 51.4011 25.5418C51.3311 26.0074 51.2269 26.3698 51.0885 26.6288C51.3166 26.8159 51.4894 27.0363 51.6069 27.2898C51.7404 27.543 51.8101 27.8055 51.8159 28.0775C51.826 28.5413 51.6746 28.9447 51.362 29.2875C51.0653 29.63 50.661 29.8068 50.1491 29.8179C49.7652 29.8261 49.4521 29.7769 49.2097 29.6701C48.9674 29.5633 48.7076 29.3929 48.4305 29.1588C48.0358 29.4074 47.5997 29.5929 47.1222 29.7152C46.6607 29.8372 46.0781 29.9058 45.3742 29.921ZM45.8018 27.4872C46.1377 27.4799 46.4001 27.4023 46.5889 27.2541C46.7938 27.1057 46.894 26.9275 46.8895 26.7195C46.885 26.5116 46.7772 26.3379 46.5661 26.1984C46.3711 26.0586 46.1056 25.9923 45.7697 25.9995C45.4337 26.0068 45.1634 26.0847 44.9585 26.2331C44.7697 26.3812 44.6775 26.5593 44.682 26.7672C44.6865 26.9752 44.7862 27.149 44.9813 27.2889C45.1924 27.4283 45.4659 27.4944 45.8018 27.4872ZM55.3855 29.7047C54.3618 29.7269 53.661 29.1419 53.2831 27.9497C52.9213 26.7573 52.7176 25.1053 52.672 22.9938C52.6512 22.034 52.674 21.2333 52.7401 20.5917C52.8219 19.9338 53.026 19.3773 53.3522 18.9221C53.6941 18.4506 54.225 18.2071 54.9448 18.1916C55.3927 18.1819 55.7869 18.2774 56.1273 18.4781C56.4837 18.6785 56.714 18.9696 56.8183 19.3514C57.1633 19.0239 57.614 18.7741 58.1704 18.602C58.7268 18.43 59.325 18.337 59.9648 18.3232C60.4767 18.3121 60.9993 18.4289 61.5327 18.6734C62.0821 18.9176 62.5376 19.2599 62.8992 19.7002C63.2765 20.1241 63.4706 20.592 63.4817 21.1039C63.4927 21.6158 63.3186 22.0756 62.9594 22.4835C62.6157 22.875 62.148 23.0772 61.5561 23.0899C61.3642 23.0941 61.1797 23.0741 61.0027 23.0299C60.8417 22.9854 60.6967 22.9405 60.5677 22.8952C60.245 22.7742 59.9877 22.7157 59.7957 22.7199C59.1719 22.7334 58.6254 22.9932 58.1562 23.4995C57.7027 23.9894 57.4842 24.6182 57.5008 25.3861C57.5191 26.2339 57.5023 26.9384 57.4504 27.4996C57.3985 28.0609 57.2174 28.5689 56.9072 29.0237C56.5966 29.4625 56.0894 29.6895 55.3855 29.7047ZM79.9975 29.1491C77.3417 29.1905 75.336 28.5776 73.9804 27.3106C72.6407 26.0433 71.9394 23.9539 71.8765 21.0426C71.8195 18.4032 72.4146 16.3179 73.6618 14.7866C74.9087 13.2393 76.6999 12.4404 79.0353 12.39C80.475 12.3589 81.7354 12.5477 82.8164 12.9565C83.8975 13.3652 84.7346 13.9633 85.3278 14.7506C85.9209 15.538 86.2292 16.4756 86.2527 17.5633C86.2714 18.4271 86.096 19.1991 85.7266 19.8792C85.3732 20.559 84.8343 21.1708 84.1099 21.7146C84.7038 21.7978 85.2226 22.1066 85.6662 22.6412C86.1259 23.1754 86.3635 23.8024 86.379 24.5222C86.3956 25.29 86.2034 26.0224 85.8023 26.7192C85.417 27.3997 84.741 27.9664 83.7746 28.4194C82.8241 28.872 81.5651 29.1153 79.9975 29.1491ZM78.1485 20.235C78.4396 20.3727 78.801 20.4369 79.2329 20.4276C79.7448 20.4165 80.1821 20.2871 80.5449 20.0392C80.9232 19.7749 81.1071 19.3949 81.0964 18.899C81.086 18.4191 80.8863 18.0633 80.4972 17.8317C80.1237 17.5837 79.6731 17.4654 79.1452 17.4768C78.7293 17.4858 78.3789 17.5654 78.0941 17.7155C77.8722 17.8164 77.7079 17.988 77.6011 18.2303C77.4943 18.4727 77.4439 18.7298 77.4497 19.0018C77.4556 19.2737 77.5171 19.5284 77.6343 19.766C77.7511 19.9875 77.9225 20.1438 78.1485 20.235ZM78.2698 25.8497C78.5765 25.9711 78.9378 26.0273 79.3537 26.0183C79.8656 26.0072 80.3032 25.8938 80.6667 25.6779C81.0457 25.4456 81.2306 25.1135 81.2213 24.6816C81.2123 24.2657 81.0134 23.95 80.6247 23.7343C80.2359 23.5187 79.7856 23.4164 79.2737 23.4274C78.8738 23.436 78.5233 23.5076 78.2221 23.6422C78.0003 23.743 77.8356 23.8986 77.7281 24.1089C77.6203 24.3033 77.5689 24.5205 77.5741 24.7604C77.5793 25.0004 77.6401 25.2231 77.7566 25.4286C77.8727 25.6182 78.0438 25.7585 78.2698 25.8497ZM91.5588 28.9234C90.3111 28.9503 89.2813 28.6925 88.4694 28.1499C87.6571 27.5913 87.2394 26.7762 87.2163 25.7044C87.1962 24.7766 87.5882 24.032 88.3923 23.4705C89.1964 22.909 90.2062 22.6151 91.422 22.5889C91.8699 22.5792 92.2866 22.6102 92.6723 22.6819C93.0735 22.7372 93.3472 22.8113 93.4933 22.9042C93.4846 22.5043 93.3096 22.18 92.9681 21.9313C92.6263 21.6666 92.1115 21.5417 91.4237 21.5566C91.1197 21.5632 90.8723 21.5925 90.6814 21.6446C90.4905 21.6968 90.2841 21.7732 90.0622 21.8741C89.8403 21.9749 89.6339 22.0514 89.443 22.1035C89.2681 22.1553 89.0287 22.1845 88.7247 22.191C88.2129 22.2021 87.8102 22.0827 87.5167 21.833C87.2229 21.5673 87.0701 21.1625 87.0584 20.6186C87.0449 19.9948 87.2575 19.4621 87.696 19.0205C88.1506 18.5786 88.7195 18.2462 89.4029 18.0234C90.0859 17.7846 90.7713 17.6578 91.4592 17.6429C92.8188 17.6135 93.9601 17.8449 94.8829 18.3371C95.8214 18.813 96.5156 19.4621 96.9655 20.2846C97.4314 21.1067 97.6752 22.0217 97.6969 23.0295C97.7087 23.5733 97.6716 24.0783 97.5856 24.5442C97.5157 25.0098 97.4115 25.3722 97.273 25.6312C97.5011 25.8183 97.6739 26.0387 97.7914 26.2922C97.9249 26.5454 97.9946 26.8079 98.0005 27.0798C98.0105 27.5437 97.8592 27.9471 97.5465 28.2899C97.2498 28.6324 96.8456 28.8092 96.3337 28.8203C95.9498 28.8285 95.6366 28.7793 95.3943 28.6725C95.1519 28.5657 94.8922 28.3953 94.615 28.1612C94.2203 28.4098 93.7842 28.5953 93.3068 28.7176C92.8453 28.8396 92.2626 28.9082 91.5588 28.9234ZM91.9863 26.4896C92.3223 26.4823 92.5846 26.4046 92.7735 26.2565C92.9783 26.1081 93.0785 25.9299 93.074 25.7219C93.0695 25.514 92.9617 25.3403 92.7507 25.2008C92.5556 25.061 92.2901 24.9947 91.9542 25.0019C91.6183 25.0092 91.3479 25.087 91.143 25.2355C90.9542 25.3836 90.862 25.5617 90.8665 25.7696C90.871 25.9776 90.9708 26.1514 91.1659 26.2913C91.3769 26.4307 91.6504 26.4968 91.9863 26.4896ZM104.479 28.6443C103.343 28.6688 102.33 28.4187 101.438 27.8938C100.562 27.3526 99.8828 26.6471 99.3999 25.7773C98.9167 24.8916 98.6642 23.9448 98.6424 22.937C98.6168 21.7533 98.8352 20.7483 99.2975 19.9222C99.7754 19.0797 100.394 18.4501 101.153 18.0337C101.928 17.6168 102.764 17.3987 103.66 17.3794C104.555 17.36 105.359 17.5347 106.071 17.9034C106.032 17.5682 105.96 17.2096 105.856 16.8278C105.768 16.4456 105.707 16.2069 105.673 16.1116C105.534 15.6185 105.429 15.2047 105.358 14.8701C105.287 14.5356 105.247 14.2003 105.24 13.8644C105.226 13.1926 105.414 12.6764 105.807 12.3158C106.199 11.9553 106.675 11.7689 107.235 11.7569C108.131 11.7375 108.868 12.1697 109.447 13.0534C110.027 13.9371 110.451 15.0402 110.719 16.3627C111.004 17.6848 111.161 19.0258 111.19 20.3855C111.23 22.225 110.845 24.0498 110.036 25.8596C109.243 27.6532 107.39 28.5814 104.479 28.6443ZM104.541 24.8501C104.973 24.8408 105.345 24.6727 105.658 24.3458C105.971 24.003 106.123 23.6076 106.113 23.1597C106.103 22.7118 105.935 22.3234 105.608 21.9944C105.28 21.6654 104.901 21.5055 104.469 21.5149C104.037 21.5242 103.657 21.7004 103.328 22.0436C103.016 22.3865 102.864 22.7818 102.874 23.2297C102.883 23.6776 103.052 24.0661 103.379 24.3951C103.722 24.7077 104.109 24.8594 104.541 24.8501ZM117.812 28.3563C116.676 28.3808 115.662 28.1307 114.771 27.6058C113.895 27.0646 113.216 26.3591 112.733 25.4893C112.25 24.6036 111.997 23.6568 111.975 22.649C111.95 21.4653 112.168 20.4604 112.63 19.6342C113.108 18.7917 113.727 18.1622 114.486 17.7457C115.261 17.3288 116.097 17.1107 116.992 17.0914C117.888 17.072 118.692 17.2467 119.404 17.6154C119.365 17.2802 119.293 16.9217 119.189 16.5398C119.101 16.1576 119.04 15.9189 119.005 15.8236C118.867 15.3305 118.762 14.9167 118.691 14.5821C118.619 14.2476 118.58 13.9124 118.573 13.5764C118.558 12.9046 118.747 12.3884 119.14 12.0278C119.532 11.6673 120.008 11.481 120.568 11.4689C121.464 11.4495 122.201 11.8817 122.78 12.7654C123.36 13.6491 123.783 14.7522 124.052 16.0747C124.337 17.3969 124.494 18.7378 124.523 20.0975C124.563 21.937 124.178 23.7618 123.369 25.5717C122.576 27.3652 120.723 28.2934 117.812 28.3563ZM117.874 24.5621C118.306 24.5528 118.678 24.3847 118.991 24.0578C119.304 23.715 119.455 23.3196 119.446 22.8717C119.436 22.4239 119.268 22.0354 118.941 21.7064C118.613 21.3774 118.234 21.2175 117.802 21.2269C117.37 21.2362 116.99 21.4124 116.661 21.7556C116.348 22.0985 116.197 22.4938 116.207 22.9417C116.216 23.3896 116.385 23.7781 116.712 24.1071C117.055 24.4197 117.442 24.5714 117.874 24.5621ZM127.99 16.4937C127.206 16.5107 126.536 16.2451 125.98 15.697C125.424 15.1328 125.137 14.4429 125.119 13.6271C125.102 12.8273 125.359 12.1415 125.891 11.5699C126.423 10.9823 127.08 10.68 127.864 10.6631C128.632 10.6465 129.294 10.9203 129.85 11.4844C130.422 12.0322 130.717 12.706 130.734 13.5058C130.752 14.3216 130.487 15.0235 129.939 15.6114C129.408 16.1831 128.758 16.4772 127.99 16.4937ZM128.241 28.131C127.586 28.1452 127.094 27.9718 126.766 27.6108C126.454 27.2334 126.233 26.6701 126.105 25.9206C125.993 25.1549 125.921 24.0682 125.891 22.6605C125.865 21.4768 125.901 20.5398 125.998 19.8495C126.111 19.1589 126.324 18.6422 126.637 18.2994C126.949 17.9566 127.41 17.7786 128.017 17.7655C128.673 17.7513 129.157 17.9329 129.47 18.3102C129.797 18.6712 130.018 19.2346 130.13 20.0003C130.258 20.7498 130.338 21.8283 130.368 23.236C130.394 24.4197 130.35 25.3569 130.237 26.0475C130.14 26.7377 129.935 27.2543 129.622 27.5971C129.309 27.9399 128.849 28.1179 128.241 28.131ZM137.807 27.9244C136.623 27.95 135.57 27.7407 134.648 27.2965C133.727 26.8523 133.001 26.2198 132.471 25.3991C131.957 24.562 131.688 23.6155 131.665 22.5598C131.643 21.52 131.87 20.5549 132.347 19.6644C132.84 18.7735 133.529 18.0545 134.413 17.5073C135.297 16.9601 136.307 16.6742 137.443 16.6496C138.467 16.6275 139.375 16.816 140.168 17.2149C140.961 17.6139 141.573 18.1528 142.003 18.8317C142.434 19.4945 142.657 20.1939 142.673 20.9297C142.699 22.1294 142.262 23.0191 141.362 23.5986C140.478 24.1619 139.412 24.4569 138.164 24.4839C137.333 24.5019 136.627 24.4131 136.046 24.2176C136.543 24.991 137.343 25.3658 138.447 25.342C138.895 25.3323 139.374 25.266 139.883 25.1429C140.074 25.0908 140.257 25.0628 140.433 25.059C140.785 25.0514 141.067 25.1334 141.279 25.3048C141.507 25.4759 141.624 25.7135 141.63 26.0174C141.641 26.5133 141.347 26.9517 140.747 27.3328C140.146 27.6978 139.166 27.895 137.807 27.9244ZM136.055 21.2887C136.204 21.5095 136.399 21.6734 136.642 21.7801C136.9 21.8706 137.181 21.9125 137.485 21.906C137.837 21.8984 138.139 21.8118 138.391 21.6463C138.66 21.4805 138.791 21.2696 138.786 21.0137C138.779 20.7257 138.654 20.4804 138.41 20.2776C138.181 20.0745 137.851 19.9776 137.419 19.9869C136.987 19.9963 136.646 20.1397 136.396 20.4171C136.162 20.6782 136.048 20.9688 136.055 21.2887ZM148.154 27.7009C146.746 27.7313 145.621 27.5236 144.78 27.0776C143.938 26.6317 143.509 26.0408 143.493 25.305C143.483 24.8251 143.635 24.4538 143.949 24.1909C144.279 23.9117 144.7 23.7666 145.212 23.7555C145.5 23.7493 145.733 23.7843 145.91 23.8605C146.088 23.9366 146.267 24.0448 146.446 24.185C146.576 24.2942 146.682 24.3719 146.763 24.4182C146.86 24.4641 146.972 24.4857 147.1 24.4829C147.436 24.4757 147.601 24.3521 147.596 24.1121C147.591 23.8882 147.5 23.7221 147.321 23.6139C147.143 23.4898 146.836 23.3444 146.4 23.1777C145.996 23.0264 145.73 22.9201 145.601 22.8589C144.857 22.5229 144.304 22.1187 143.942 21.6465C143.58 21.1742 143.393 20.6661 143.381 20.1222C143.368 19.5144 143.572 18.9338 143.992 18.3806C144.427 17.8111 145.042 17.3497 145.834 16.9965C146.642 16.627 147.574 16.4308 148.63 16.408C149.542 16.3883 150.368 16.4985 151.11 16.7385C151.867 16.9782 152.467 17.3174 152.908 17.7559C153.349 18.1785 153.576 18.6537 153.587 19.1816C153.598 19.6775 153.446 20.0568 153.132 20.3197C152.833 20.5822 152.42 20.7192 151.892 20.7306C151.684 20.735 151.516 20.7227 151.387 20.6935C151.274 20.6479 151.121 20.5792 150.927 20.4874C150.813 20.4258 150.692 20.3724 150.563 20.3272C150.45 20.2816 150.322 20.2604 150.178 20.2635C150.05 20.2662 149.939 20.3166 149.845 20.4147C149.751 20.4968 149.705 20.6018 149.708 20.7297C149.713 20.9697 149.893 21.1418 150.247 21.2462C151.181 21.5301 151.933 21.8979 152.503 22.3497C153.089 22.8012 153.391 23.4348 153.409 24.2506C153.431 25.2904 152.961 26.1167 151.998 26.7297C151.051 27.3423 149.77 27.666 148.154 27.7009Z" fill="black"/>
</svg>
