<svg width="170" height="59" viewBox="0 0 170 59" fill="none" xmlns="http://www.w3.org/2000/svg">
<path d="M3.70117 8.27149C3.70117 6.06235 5.49203 4.27148 7.70117 4.27148H164.913C167.122 4.27148 168.913 6.06235 168.913 8.27148V37.6214C168.913 39.8339 167.117 41.6262 164.905 41.6214L97.1623 41.4755C95.589 41.4721 94.1597 42.3914 93.5103 43.8244L90.4082 50.67C89.0183 53.7371 84.692 53.8192 83.1867 50.807L79.6156 43.6607C78.9366 42.3019 77.5465 41.4449 76.0275 41.4488L7.7112 41.62C5.49815 41.6255 3.70117 39.833 3.70117 37.62V8.27149Z" fill="#866224" stroke="black" stroke-linecap="round"/>
<path d="M1 5C1 2.79086 2.79086 1 5 1H162.212C164.421 1 166.212 2.79086 166.212 5V34.3499C166.212 36.5624 164.416 38.3547 162.203 38.3499L93.1686 38.2012C92.382 38.1995 91.6674 38.6591 91.3426 39.3757L85.9736 51.2237C85.2787 52.7573 83.1155 52.7984 82.3629 51.2923L76.3602 39.2801C76.0207 38.6007 75.3257 38.1723 74.5662 38.1742L5.01003 38.3485C2.79698 38.354 1 36.5616 1 34.3485V5Z" fill="#E9B965" stroke="black" stroke-linecap="round"/>
<path d="M36.879 27.2231C34.223 27.2071 32.231 26.5511 30.903 25.2551C29.591 23.9591 28.935 21.8551 28.935 18.9431C28.935 16.3031 29.575 14.2311 30.855 12.7271C32.135 11.2071 33.943 10.4471 36.279 10.4471C37.719 10.4471 38.975 10.6631 40.047 11.0951C41.119 11.5271 41.943 12.1431 42.519 12.9431C43.095 13.7431 43.383 14.6871 43.383 15.7751C43.383 16.6391 43.191 17.4071 42.807 18.0791C42.439 18.7511 41.887 19.3511 41.151 19.8791C41.743 19.9751 42.255 20.2951 42.687 20.8391C43.135 21.3831 43.359 22.0151 43.359 22.7351C43.359 23.5031 43.151 24.2311 42.735 24.9191C42.335 25.5911 41.647 26.1431 40.671 26.5751C39.711 27.0071 38.447 27.2231 36.879 27.2231ZM35.223 18.2711C35.511 18.4151 35.871 18.4871 36.303 18.4871C36.815 18.4871 37.255 18.3671 37.623 18.1271C38.007 17.8711 38.199 17.4951 38.199 16.9991C38.199 16.5191 38.007 16.1591 37.623 15.9191C37.255 15.6631 36.807 15.5351 36.279 15.5351C35.863 15.5351 35.511 15.6071 35.223 15.7511C34.999 15.8471 34.831 16.0151 34.719 16.2551C34.607 16.4951 34.551 16.7511 34.551 17.0231C34.551 17.2951 34.607 17.5511 34.719 17.7911C34.831 18.0151 34.999 18.1751 35.223 18.2711ZM35.223 23.8871C35.527 24.0151 35.887 24.0791 36.303 24.0791C36.815 24.0791 37.255 23.9751 37.623 23.7671C38.007 23.5431 38.199 23.2151 38.199 22.7831C38.199 22.3671 38.007 22.0471 37.623 21.8231C37.239 21.5991 36.791 21.4871 36.279 21.4871C35.879 21.4871 35.527 21.5511 35.223 21.6791C34.999 21.7751 34.831 21.9271 34.719 22.1351C34.607 22.3271 34.551 22.5431 34.551 22.7831C34.551 23.0231 34.607 23.2471 34.719 23.4551C34.831 23.6471 34.999 23.7911 35.223 23.8871ZM50.1465 27.2471C48.9625 27.2471 47.9145 27.0151 47.0025 26.5511C46.0905 26.0871 45.3785 25.4391 44.8665 24.6071C44.3705 23.7591 44.1225 22.8071 44.1225 21.7511C44.1225 20.7111 44.3705 19.7511 44.8665 18.8711C45.3785 17.9911 46.0825 17.2871 46.9785 16.7591C47.8745 16.2311 48.8905 15.9671 50.0265 15.9671C51.0505 15.9671 51.9545 16.1751 52.7385 16.5911C53.5225 17.0071 54.1225 17.5591 54.5385 18.2471C54.9545 18.9191 55.1625 19.6231 55.1625 20.3591C55.1625 21.5591 54.7065 22.4391 53.7945 22.9991C52.8985 23.5431 51.8265 23.8151 50.5785 23.8151C49.7465 23.8151 49.0425 23.7111 48.4665 23.5031C48.9465 24.2871 49.7385 24.6791 50.8425 24.6791C51.2905 24.6791 51.7705 24.6231 52.2825 24.5111C52.4745 24.4631 52.6585 24.4391 52.8345 24.4391C53.1865 24.4391 53.4665 24.5271 53.6745 24.7031C53.8985 24.8791 54.0105 25.1191 54.0105 25.4231C54.0105 25.9191 53.7065 26.3511 53.0985 26.7191C52.4905 27.0711 51.5065 27.2471 50.1465 27.2471ZM48.5385 20.5751C48.6825 20.7991 48.8745 20.9671 49.1145 21.0791C49.3705 21.1751 49.6505 21.2231 49.9545 21.2231C50.3065 21.2231 50.6105 21.1431 50.8665 20.9831C51.1385 20.8231 51.2745 20.6151 51.2745 20.3591C51.2745 20.0711 51.1545 19.8231 50.9145 19.6151C50.6905 19.4071 50.3625 19.3031 49.9305 19.3031C49.4985 19.3031 49.1545 19.4391 48.8985 19.7111C48.6585 19.9671 48.5385 20.2551 48.5385 20.5751ZM58.6905 27.2471C57.6665 27.2471 56.9785 26.6471 56.6265 25.4471C56.2905 24.2471 56.1225 22.5911 56.1225 20.4791C56.1225 19.5191 56.1625 18.7191 56.2425 18.0791C56.3385 17.4231 56.5545 16.8711 56.8905 16.4231C57.2425 15.9591 57.7785 15.7271 58.4985 15.7271C58.9465 15.7271 59.3385 15.8311 59.6745 16.0391C60.0265 16.2471 60.2505 16.5431 60.3465 16.9271C60.6985 16.6071 61.1545 16.3671 61.7145 16.2071C62.2745 16.0471 62.8745 15.9671 63.5145 15.9671C64.0265 15.9671 64.5465 16.0951 65.0745 16.3511C65.6185 16.6071 66.0665 16.9591 66.4185 17.4071C66.7865 17.8391 66.9705 18.3111 66.9705 18.8231C66.9705 19.3351 66.7865 19.7911 66.4185 20.1911C66.0665 20.5751 65.5945 20.7671 65.0025 20.7671C64.8105 20.7671 64.6265 20.7431 64.4505 20.6951C64.2905 20.6471 64.1465 20.5991 64.0185 20.5511C63.6985 20.4231 63.4425 20.3591 63.2505 20.3591C62.6265 20.3591 62.0745 20.6071 61.5945 21.1031C61.1305 21.5831 60.8985 22.2071 60.8985 22.9751C60.8985 23.8231 60.8665 24.5271 60.8025 25.0871C60.7385 25.6471 60.5465 26.1511 60.2265 26.5991C59.9065 27.0311 59.3945 27.2471 58.6905 27.2471ZM71.7628 27.2471C70.5148 27.2471 69.4908 26.9671 68.6908 26.4071C67.8908 25.8311 67.4908 25.0071 67.4908 23.9351C67.4908 23.0071 67.8988 22.2711 68.7148 21.7271C69.5308 21.1831 70.5468 20.9111 71.7628 20.9111C72.2108 20.9111 72.6268 20.9511 73.0108 21.0311C73.4108 21.0951 73.6828 21.1751 73.8268 21.2711C73.8268 20.8711 73.6588 20.5431 73.3228 20.2871C72.9868 20.0151 72.4748 19.8791 71.7868 19.8791C71.4828 19.8791 71.2348 19.9031 71.0428 19.9511C70.8508 19.9991 70.6428 20.0711 70.4188 20.1671C70.1948 20.2631 69.9868 20.3351 69.7948 20.3831C69.6188 20.4311 69.3788 20.4551 69.0748 20.4551C68.5628 20.4551 68.1628 20.3271 67.8748 20.0711C67.5868 19.7991 67.4428 19.3911 67.4428 18.8471C67.4428 18.2231 67.6668 17.6951 68.1148 17.2631C68.5788 16.8311 69.1548 16.5111 69.8428 16.3031C70.5308 16.0791 71.2188 15.9671 71.9068 15.9671C73.2668 15.9671 74.4028 16.2231 75.3148 16.7351C76.2428 17.2311 76.9228 17.8951 77.3548 18.7271C77.8028 19.5591 78.0268 20.4791 78.0268 21.4871C78.0268 22.0311 77.9788 22.5351 77.8828 22.9991C77.8028 23.4631 77.6908 23.8231 77.5468 24.0791C77.7708 24.2711 77.9388 24.4951 78.0508 24.7511C78.1788 25.0071 78.2428 25.2711 78.2428 25.5431C78.2428 26.0071 78.0828 26.4071 77.7628 26.7431C77.4588 27.0791 77.0508 27.2471 76.5388 27.2471C76.1548 27.2471 75.8428 27.1911 75.6028 27.0791C75.3628 26.9671 75.1068 26.7911 74.8348 26.5511C74.4348 26.7911 73.9948 26.9671 73.5148 27.0791C73.0508 27.1911 72.4668 27.2471 71.7628 27.2471ZM72.2428 24.8231C72.5788 24.8231 72.8428 24.7511 73.0348 24.6071C73.2428 24.4631 73.3468 24.2871 73.3468 24.0791C73.3468 23.8711 73.2428 23.6951 73.0348 23.5511C72.8428 23.4071 72.5788 23.3351 72.2428 23.3351C71.9068 23.3351 71.6348 23.4071 71.4268 23.5511C71.2348 23.6951 71.1388 23.8711 71.1388 24.0791C71.1388 24.2871 71.2348 24.4631 71.4268 24.6071C71.6348 24.7511 71.9068 24.8231 72.2428 24.8231ZM94.8701 27.1991C93.3021 27.1991 91.8941 26.8871 90.6461 26.2631C89.4141 25.6231 88.4381 24.6791 87.7181 23.4311C86.9981 22.1671 86.6381 20.6231 86.6381 18.7991C86.6381 17.3271 86.9741 15.9511 87.6461 14.6711C88.3181 13.3911 89.2461 12.3671 90.4301 11.5991C91.6141 10.8311 92.9421 10.4471 94.4141 10.4471C95.8061 10.4471 97.0461 10.7111 98.1341 11.2391C99.2221 11.7511 100.062 12.4551 100.654 13.3511C101.262 14.2471 101.566 15.2471 101.566 16.3511C101.566 17.0551 101.358 17.6631 100.942 18.1751C100.542 18.6871 99.9661 18.9431 99.2141 18.9431C98.6541 18.9431 98.2221 18.8471 97.9181 18.6551C97.6141 18.4631 97.2941 18.1671 96.9581 17.7671C96.6221 17.3671 96.2941 17.0711 95.9741 16.8791C95.6701 16.6711 95.2221 16.5671 94.6301 16.5671C93.8781 16.5671 93.2301 16.8551 92.6861 17.4311C92.1581 17.9911 91.8941 18.6791 91.8941 19.4951C91.8941 20.3751 92.1181 21.1191 92.5661 21.7271C93.0301 22.3191 93.6541 22.6151 94.4381 22.6151C95.0461 22.6151 95.5261 22.5271 95.8781 22.3511C96.2461 22.1751 96.6301 21.9191 97.0301 21.5831C97.3661 21.2951 97.6701 21.0791 97.9421 20.9351C98.2301 20.7911 98.5821 20.7191 98.9981 20.7191C99.6381 20.7191 100.142 20.9191 100.51 21.3191C100.878 21.7031 101.062 22.2071 101.062 22.8311C101.062 23.5671 100.79 24.2711 100.246 24.9431C99.7181 25.6151 98.9821 26.1591 98.0381 26.5751C97.0941 26.9911 96.0381 27.1991 94.8701 27.1991ZM106.357 27.2471C105.109 27.2471 104.085 26.9671 103.285 26.4071C102.485 25.8311 102.085 25.0071 102.085 23.9351C102.085 23.0071 102.493 22.2711 103.309 21.7271C104.125 21.1831 105.141 20.9111 106.357 20.9111C106.805 20.9111 107.221 20.9511 107.605 21.0311C108.005 21.0951 108.277 21.1751 108.421 21.2711C108.421 20.8711 108.253 20.5431 107.917 20.2871C107.581 20.0151 107.069 19.8791 106.381 19.8791C106.077 19.8791 105.829 19.9031 105.637 19.9511C105.445 19.9991 105.237 20.0711 105.013 20.1671C104.789 20.2631 104.581 20.3351 104.389 20.3831C104.213 20.4311 103.973 20.4551 103.669 20.4551C103.157 20.4551 102.757 20.3271 102.469 20.0711C102.181 19.7991 102.037 19.3911 102.037 18.8471C102.037 18.2231 102.261 17.6951 102.709 17.2631C103.173 16.8311 103.749 16.5111 104.437 16.3031C105.125 16.0791 105.813 15.9671 106.501 15.9671C107.861 15.9671 108.997 16.2231 109.909 16.7351C110.837 17.2311 111.517 17.8951 111.949 18.7271C112.397 19.5591 112.621 20.4791 112.621 21.4871C112.621 22.0311 112.573 22.5351 112.477 22.9991C112.397 23.4631 112.285 23.8231 112.141 24.0791C112.365 24.2711 112.533 24.4951 112.645 24.7511C112.773 25.0071 112.837 25.2711 112.837 25.5431C112.837 26.0071 112.677 26.4071 112.357 26.7431C112.053 27.0791 111.645 27.2471 111.133 27.2471C110.749 27.2471 110.437 27.1911 110.197 27.0791C109.957 26.9671 109.701 26.7911 109.429 26.5511C109.029 26.7911 108.589 26.9671 108.109 27.0791C107.645 27.1911 107.061 27.2471 106.357 27.2471ZM106.837 24.8231C107.173 24.8231 107.437 24.7511 107.629 24.6071C107.837 24.4631 107.941 24.2871 107.941 24.0791C107.941 23.8711 107.837 23.6951 107.629 23.5511C107.437 23.4071 107.173 23.3351 106.837 23.3351C106.501 23.3351 106.229 23.4071 106.021 23.5511C105.829 23.6951 105.733 23.8711 105.733 24.0791C105.733 24.2871 105.829 24.4631 106.021 24.6071C106.229 24.7511 106.501 24.8231 106.837 24.8231ZM119.244 27.2231C118.86 27.2231 118.5 27.1751 118.164 27.0791C117.844 26.9831 117.468 26.7671 117.036 26.4311C116.54 26.0311 115.98 25.3591 115.356 24.4151C114.732 23.4551 114.196 22.4231 113.748 21.3191C113.3 20.1991 113.076 19.1911 113.076 18.2951C113.076 17.6231 113.268 17.0711 113.652 16.6391C114.052 16.1911 114.516 15.9671 115.044 15.9671C115.684 15.9671 116.228 16.2151 116.676 16.7111C117.14 17.1911 117.524 17.7911 117.828 18.5111C118.148 19.2151 118.508 20.1671 118.908 21.3671C118.956 21.5111 119.004 21.6711 119.052 21.8471C119.116 22.0071 119.18 22.1751 119.244 22.3511L119.484 21.6551C119.932 20.3751 120.316 19.3671 120.636 18.6311C120.956 17.8791 121.356 17.2471 121.836 16.7351C122.316 16.2071 122.876 15.9511 123.516 15.9671C124.028 15.9831 124.46 16.1751 124.812 16.5431C125.18 16.9111 125.364 17.4471 125.364 18.1511C125.364 19.1111 125.156 20.1191 124.74 21.1751C124.324 22.2311 123.836 23.1911 123.276 24.0551C122.716 24.9031 122.236 25.5271 121.836 25.9271C121.484 26.3271 121.068 26.6471 120.588 26.8871C120.124 27.1111 119.676 27.2231 119.244 27.2231ZM131.826 27.2471C130.642 27.2471 129.594 27.0151 128.682 26.5511C127.77 26.0871 127.058 25.4391 126.546 24.6071C126.05 23.7591 125.802 22.8071 125.802 21.7511C125.802 20.7111 126.05 19.7511 126.546 18.8711C127.058 17.9911 127.762 17.2871 128.658 16.7591C129.554 16.2311 130.57 15.9671 131.706 15.9671C132.73 15.9671 133.634 16.1751 134.418 16.5911C135.202 17.0071 135.802 17.5591 136.218 18.2471C136.634 18.9191 136.842 19.6231 136.842 20.3591C136.842 21.5591 136.386 22.4391 135.474 22.9991C134.578 23.5431 133.506 23.8151 132.258 23.8151C131.426 23.8151 130.722 23.7111 130.146 23.5031C130.626 24.2871 131.418 24.6791 132.522 24.6791C132.97 24.6791 133.45 24.6231 133.962 24.5111C134.154 24.4631 134.338 24.4391 134.514 24.4391C134.866 24.4391 135.146 24.5271 135.354 24.7031C135.578 24.8791 135.69 25.1191 135.69 25.4231C135.69 25.9191 135.386 26.3511 134.778 26.7191C134.17 27.0711 133.186 27.2471 131.826 27.2471ZM130.218 20.5751C130.362 20.7991 130.554 20.9671 130.794 21.0791C131.05 21.1751 131.33 21.2231 131.634 21.2231C131.986 21.2231 132.29 21.1431 132.546 20.9831C132.818 20.8231 132.954 20.6151 132.954 20.3591C132.954 20.0711 132.834 19.8231 132.594 19.6151C132.37 19.4071 132.042 19.3031 131.61 19.3031C131.178 19.3031 130.834 19.4391 130.578 19.7111C130.338 19.9671 130.218 20.2551 130.218 20.5751Z" fill="black"/>
</svg>
