<svg width="144" height="100" viewBox="0 0 144 100" fill="none" xmlns="http://www.w3.org/2000/svg">
  <path d="M7.00615 34.31C7.03699 33.5045 10.5367 31.8417 12.552 31.0187C12.9272 30.8654 13.3546 30.9664 13.6314 31.2623L15.7758 33.5548C15.9212 33.7102 16.0133 33.908 16.0385 34.1193L21.0813 76.3557C21.1011 76.5215 21.0791 76.6897 21.0172 76.8448L17.2428 86.3057C17.0912 86.6858 16.7232 86.9352 16.314 86.9352L11.9287 86.9352C11.4016 86.9352 10.965 86.5261 10.9308 86.0002L10.3933 77.7527C10.3718 77.4228 10.5149 77.1035 10.7754 76.8998L11.2798 76.5056C11.829 76.0764 11.7816 75.2311 11.1878 74.8659L10.896 74.6865C10.6258 74.5202 10.4504 74.2356 10.4235 73.9195L8.35265 49.5916C8.33389 49.3712 8.38872 49.1508 8.50856 48.9649L9.56821 47.3212C9.83263 46.9111 9.76238 46.3699 9.40199 46.0409L7.75955 44.5413C7.56673 44.3653 7.45043 44.1221 7.43588 43.8614C7.30094 41.4452 6.97383 35.1543 7.00615 34.31Z" fill="#7A4A12" stroke="black" stroke-linecap="round" stroke-linejoin="round"/>
  <path d="M119.785 27.2105L13.0244 30.8989C12.4642 30.9183 12.0293 31.3943 12.0605 31.954L12.3406 36.9741L15.5674 41.044C15.892 41.4535 15.8467 42.0438 15.4633 42.3989L13.7463 43.9893C13.5201 44.1988 13.4032 44.5009 13.4294 44.808L15.8824 73.5403C15.9057 73.8141 16.0408 74.0662 16.2557 74.2374L17.6529 75.3504C18.1262 75.7275 18.1589 76.4352 17.7222 76.8542L15.8841 78.6179L16.3206 86.2261C16.3527 86.7864 16.8396 87.2106 17.3991 87.1656L123.191 78.6635C123.543 78.6352 123.853 78.4238 124.009 78.107L126.438 73.1535C126.656 72.7087 126.516 72.1712 126.108 71.8899L123.758 70.2694L126.232 66.3784L137.496 51.5879C137.785 51.2086 137.766 50.6781 137.45 50.3206L123.521 34.5283L121.607 32.4622L121.607 30.1323C121.607 30.0021 121.582 29.8732 121.533 29.7527L120.744 27.8304C120.586 27.4434 120.203 27.196 119.785 27.2105Z" fill="#BC9549"/>
  <path d="M121.607 32.4622L121.607 30.1323C121.607 30.0021 121.582 29.8732 121.533 29.7527L120.744 27.8304C120.586 27.4434 120.203 27.196 119.785 27.2105L13.0244 30.8989C12.4642 30.9183 12.0293 31.3943 12.0605 31.954L12.3406 36.9741M121.607 32.4622L123.521 34.5283L137.45 50.3206C137.766 50.6781 137.785 51.2086 137.496 51.5879L126.232 66.3784L123.758 70.2694M121.607 32.4622C120.918 33.1001 118.48 34.3353 114.234 34.1728M12.3406 36.9741L15.5674 41.044C15.892 41.4535 15.8467 42.0438 15.4633 42.3989L13.7463 43.9893C13.5201 44.1988 13.4032 44.5009 13.4294 44.8081L15.8824 73.5403C15.9057 73.8141 16.0408 74.0662 16.2557 74.2374L17.6529 75.3504C18.1262 75.7275 18.1589 76.4352 17.7222 76.8542L15.8841 78.6179M12.3406 36.9741C17.0177 36.2674 31.1362 34.9669 36.4224 35.7007M123.758 70.2694L126.108 71.8899C126.516 72.1712 126.656 72.7087 126.438 73.1535L124.009 78.107C123.853 78.4238 123.543 78.6352 123.191 78.6635L17.3991 87.1656C16.8396 87.2106 16.3527 86.7864 16.3206 86.2261L15.8841 78.6179M123.758 70.2694L112.431 71.1643M15.8841 78.6179C20.0206 79.662 29.1071 78.8921 30.7397 77.8917M85.0955 34.3373C93.3272 33.3239 110.852 31.3377 115.097 31.5002" stroke="black" stroke-linecap="round" stroke-linejoin="round"/>
  <circle cx="68.5907" cy="34.495" r="20.7567" transform="rotate(-3.28365 68.5907 34.495)" fill="#FFBB46" stroke="#FFE2A8" stroke-width="3" stroke-linecap="round" stroke-linejoin="round"/>
  <mask id="mask0_0_1" style="mask-type:alpha" maskUnits="userSpaceOnUse" x="49" y="15" width="39" height="39">
    <circle cx="68.5907" cy="34.495" r="19.0772" transform="rotate(-3.28365 68.5907 34.495)" fill="#FFBB46"/>
  </mask>
  <g mask="url(#mask0_0_1)">
    <mask id="path-6-outside-1_0_1" maskUnits="userSpaceOnUse" x="54.0508" y="17.9208" width="30.3597" height="43.5349" fill="black">
      <rect fill="white" x="54.0508" y="17.9208" width="30.3597" height="43.5349"/>
      <path fill-rule="evenodd" clip-rule="evenodd" d="M74.5664 23.1933C74.611 23.9706 74.3384 24.6927 73.8609 25.2337C76.5252 27.175 77.8904 30.4352 78.5638 33.4121L78.6254 33.4433C79.245 33.7555 80.5982 34.4374 80.3131 36.6517C80.0823 38.4444 78.4038 39.9284 75.2073 40.6314C77.0546 42.0002 79.0599 45.072 79.6915 46.4211C80.9873 49.1892 80.1022 50.1466 78.4023 50.2441C78.4964 49.7485 78.4884 49.202 78.4002 48.627C78.0279 46.2016 76.2269 43.2705 74.6331 41.5236L74.4762 40.7738L74.4755 40.7739L74.6326 41.5247C76.2264 43.2715 78.0275 46.2026 78.3997 48.6281C78.488 49.203 78.4959 49.7495 78.4018 50.2451C78.2185 50.9044 77.6968 51.5819 77.6968 51.5819L77.3699 55.7934C78.3056 56.0007 78.7041 57.9909 77.5 58.06L73.0377 58.316C72.1169 58.3688 71.5375 55.7016 71.444 54.0726C71.444 54.0726 70.6578 55.2314 70.3565 56.1725C71.589 56.5992 71.6919 58.3932 70.1337 58.4826C69.6219 58.512 69.2709 58.5398 68.9149 58.568L68.9149 58.568L68.9148 58.568C68.187 58.6256 67.4379 58.685 65.2491 58.7629C64.2808 58.7973 63.7961 56.9809 63.5546 55.2815C63.3568 55.3564 63.1443 55.4028 62.922 55.4156C61.7484 55.4829 60.7425 54.5861 60.6752 53.4126C60.6684 53.2948 60.6714 53.1786 60.6834 53.065C59.5092 52.6772 58.5191 51.7827 58.3556 50.0669C58.0144 46.4871 62.5973 42.2373 64.0513 41.6355C64.1362 41.6003 64.2214 41.5702 64.3064 41.545C64.3359 41.4434 64.3602 41.3552 64.3788 41.2817C62.1297 41.1075 60.1316 40.5214 58.6426 39.0321C55.5638 35.9526 57.3039 31.8208 58.9996 28.4613C57.9204 27.9231 57.1517 26.8377 57.0777 25.5475C56.9677 23.6307 58.4324 21.9877 60.3492 21.8777C61.9724 21.7846 63.3992 22.8206 63.865 24.3041C65.0862 23.8138 66.5083 23.5007 68.1172 23.4941C68.3844 23.493 68.6452 23.5005 68.8999 23.5161C68.8114 21.9524 70.0067 20.6124 71.5706 20.5227C73.1354 20.4329 74.4766 21.6286 74.5664 23.1933Z"/>
    </mask>
    <path fill-rule="evenodd" clip-rule="evenodd" d="M74.5664 23.1933C74.611 23.9706 74.3384 24.6927 73.8609 25.2337C76.5252 27.175 77.8904 30.4352 78.5638 33.4121L78.6254 33.4433C79.245 33.7555 80.5982 34.4374 80.3131 36.6517C80.0823 38.4444 78.4038 39.9284 75.2073 40.6314C77.0546 42.0002 79.0599 45.072 79.6915 46.4211C80.9873 49.1892 80.1022 50.1466 78.4023 50.2441C78.4964 49.7485 78.4884 49.202 78.4002 48.627C78.0279 46.2016 76.2269 43.2705 74.6331 41.5236L74.4762 40.7738L74.4755 40.7739L74.6326 41.5247C76.2264 43.2715 78.0275 46.2026 78.3997 48.6281C78.488 49.203 78.4959 49.7495 78.4018 50.2451C78.2185 50.9044 77.6968 51.5819 77.6968 51.5819L77.3699 55.7934C78.3056 56.0007 78.7041 57.9909 77.5 58.06L73.0377 58.316C72.1169 58.3688 71.5375 55.7016 71.444 54.0726C71.444 54.0726 70.6578 55.2314 70.3565 56.1725C71.589 56.5992 71.6919 58.3932 70.1337 58.4826C69.6219 58.512 69.2709 58.5398 68.9149 58.568L68.9149 58.568L68.9148 58.568C68.187 58.6256 67.4379 58.685 65.2491 58.7629C64.2808 58.7973 63.7961 56.9809 63.5546 55.2815C63.3568 55.3564 63.1443 55.4028 62.922 55.4156C61.7484 55.4829 60.7425 54.5861 60.6752 53.4126C60.6684 53.2948 60.6714 53.1786 60.6834 53.065C59.5092 52.6772 58.5191 51.7827 58.3556 50.0669C58.0144 46.4871 62.5973 42.2373 64.0513 41.6355C64.1362 41.6003 64.2214 41.5702 64.3064 41.545C64.3359 41.4434 64.3602 41.3552 64.3788 41.2817C62.1297 41.1075 60.1316 40.5214 58.6426 39.0321C55.5638 35.9526 57.3039 31.8208 58.9996 28.4613C57.9204 27.9231 57.1517 26.8377 57.0777 25.5475C56.9677 23.6307 58.4324 21.9877 60.3492 21.8777C61.9724 21.7846 63.3992 22.8206 63.865 24.3041C65.0862 23.8138 66.5083 23.5007 68.1172 23.4941C68.3844 23.493 68.6452 23.5005 68.8999 23.5161C68.8114 21.9524 70.0067 20.6124 71.5706 20.5227C73.1354 20.4329 74.4766 21.6286 74.5664 23.1933Z" fill="black"/>
    <path d="M73.8609 25.2337L72.3614 23.9102L70.9083 25.5568L72.6831 26.8501L73.8609 25.2337ZM78.5638 33.4121L76.6131 33.8534L76.8209 34.7721L77.6615 35.197L78.5638 33.4121ZM78.6254 33.4433L77.7231 35.2282L77.7254 35.2293L78.6254 33.4433ZM80.3131 36.6517L78.3295 36.3964L80.3131 36.6517ZM75.2073 40.6314L74.7777 38.6781L70.4855 39.622L74.0166 42.2383L75.2073 40.6314ZM79.6915 46.4211L77.8801 47.269L77.8801 47.269L79.6915 46.4211ZM78.4023 50.2441L76.4374 49.871L75.9595 52.3876L78.5168 52.2408L78.4023 50.2441ZM78.4002 48.627L76.4233 48.9304L76.4233 48.9304L78.4002 48.627ZM74.6331 41.5236L72.6754 41.9331L72.7873 42.468L73.1556 42.8717L74.6331 41.5236ZM74.4762 40.7738L76.4338 40.3643L76.0389 38.4765L74.1381 38.8026L74.4762 40.7738ZM74.4755 40.7739L74.1374 38.8027L72.0933 39.1533L72.5179 41.1834L74.4755 40.7739ZM74.6326 41.5247L72.675 41.9342L72.7868 42.469L73.1552 42.8727L74.6326 41.5247ZM78.3997 48.6281L80.3766 48.3247L80.3766 48.3246L78.3997 48.6281ZM78.4018 50.2451L80.3287 50.781L80.3511 50.7004L80.3667 50.6183L78.4018 50.2451ZM77.6968 51.5819L76.1121 50.3618L75.7489 50.8336L75.7028 51.4272L77.6968 51.5819ZM77.3699 55.7934L75.3759 55.6386L75.2415 57.3704L76.9374 57.7461L77.3699 55.7934ZM77.5 58.06L77.3854 56.0633L77.5 58.06ZM73.0377 58.316L73.1523 60.3127L73.0377 58.316ZM71.444 54.0726L73.4408 53.958L73.1027 48.0659L69.789 52.9496L71.444 54.0726ZM70.3565 56.1725L68.4517 55.5626L67.856 57.4233L69.7022 58.0624L70.3565 56.1725ZM68.9149 58.568L69.0295 60.5647L69.0512 60.5634L69.0729 60.5617L68.9149 58.568ZM68.9149 58.568L68.8003 56.5713L68.9149 58.568ZM68.9148 58.568L68.8003 56.5713L68.7786 56.5725L68.7569 56.5742L68.9148 58.568ZM65.2491 58.7629L65.3202 60.7616L65.3202 60.7616L65.2491 58.7629ZM63.5546 55.2815L65.5347 55.0001L65.1831 52.5262L62.8463 53.4111L63.5546 55.2815ZM60.6834 53.065L62.6723 53.2746L62.8413 51.6714L61.3105 51.1658L60.6834 53.065ZM58.3556 50.0669L56.3646 50.2567L56.3646 50.2567L58.3556 50.0669ZM64.0513 41.6355L63.2864 39.7875L63.2864 39.7875L64.0513 41.6355ZM64.3064 41.545L64.8758 43.4622L65.9232 43.1512L66.2274 42.1018L64.3064 41.545ZM64.3788 41.2817L66.3176 41.7727L66.9004 39.4711L64.5333 39.2877L64.3788 41.2817ZM58.6426 39.0321L57.2282 40.4461L57.2282 40.4461L58.6426 39.0321ZM58.9996 28.4613L60.785 29.3625L61.6906 27.5684L59.8921 26.6715L58.9996 28.4613ZM63.865 24.3041L61.9569 24.9033L62.6045 26.9654L64.6102 26.1601L63.865 24.3041ZM68.1172 23.4941L68.109 21.4941L68.109 21.4941L68.1172 23.4941ZM68.8999 23.5161L68.7774 25.5123L71.0238 25.6502L70.8967 23.4032L68.8999 23.5161ZM75.3605 26.5571C76.1724 25.6371 76.6391 24.4032 76.5631 23.0788L72.5697 23.3079C72.5829 23.538 72.5044 23.7483 72.3614 23.9102L75.3605 26.5571ZM80.5146 32.9709C79.8007 29.8151 78.2835 25.9815 75.0388 23.6173L72.6831 26.8501C74.7668 28.3684 75.9802 31.0552 76.6131 33.8534L80.5146 32.9709ZM79.5277 31.6584L79.4662 31.6272L77.6615 35.197L77.7231 35.2282L79.5277 31.6584ZM82.2967 36.9071C82.5003 35.3262 82.1271 34.0529 81.3843 33.1026C80.7017 32.2293 79.835 31.8132 79.5255 31.6572L77.7254 35.2293C78.0355 35.3856 78.1552 35.4666 78.2328 35.5659C78.2603 35.6011 78.2933 35.6538 78.3182 35.7519C78.3444 35.8552 78.3732 36.0563 78.3295 36.3964L82.2967 36.9071ZM75.6368 42.5847C79.1249 41.8177 81.9021 39.9727 82.2967 36.9071L78.3295 36.3964C78.2626 36.916 77.6827 38.0392 74.7777 38.6781L75.6368 42.5847ZM81.5028 45.5731C81.1168 44.7485 80.3818 43.5303 79.5189 42.3519C78.667 41.1887 77.563 39.8877 76.3979 39.0244L74.0166 42.2383C74.6989 42.7439 75.5212 43.6632 76.2917 44.7153C77.0511 45.7522 77.6346 46.7445 77.8801 47.269L81.5028 45.5731ZM78.5168 52.2408C79.5931 52.1791 81.2446 51.8028 81.9908 50.1621C82.6528 48.7066 82.1913 47.044 81.5028 45.5731L77.8801 47.269C78.1548 47.8559 78.2638 48.2439 78.2982 48.4716C78.3321 48.6958 78.2794 48.6607 78.3497 48.506C78.4343 48.3201 78.576 48.2218 78.6286 48.1962C78.6457 48.1879 78.5569 48.232 78.2877 48.2474L78.5168 52.2408ZM76.4233 48.9304C76.4869 49.3444 76.4786 49.654 76.4374 49.871L80.3672 50.6173C80.5142 49.843 80.49 49.0595 80.377 48.3236L76.4233 48.9304ZM73.1556 42.8717C74.6088 44.4644 76.134 47.045 76.4233 48.9304L80.377 48.3236C79.9219 45.3582 77.8449 42.0765 76.1105 40.1756L73.1556 42.8717ZM72.5186 41.1833L72.6754 41.9331L76.5907 41.1141L76.4338 40.3643L72.5186 41.1833ZM74.8137 42.7451L74.8143 42.745L74.1381 38.8026L74.1374 38.8027L74.8137 42.7451ZM76.5902 41.1152L76.4332 40.3644L72.5179 41.1834L72.675 41.9342L76.5902 41.1152ZM80.3766 48.3246C79.9215 45.3592 77.8445 42.0776 76.11 40.1766L73.1552 42.8727C74.6084 44.4654 76.1335 47.046 76.4229 48.9315L80.3766 48.3246ZM80.3667 50.6183C80.5137 49.844 80.4895 49.0606 80.3766 48.3247L76.4229 48.9315C76.4864 49.3454 76.4781 49.6551 76.4369 49.872L80.3667 50.6183ZM77.6968 51.5819C79.2815 52.802 79.2817 52.8018 79.2819 52.8016C79.282 52.8015 79.2821 52.8012 79.2823 52.8011C79.2825 52.8007 79.2828 52.8004 79.2831 52.8C79.2836 52.7993 79.2842 52.7986 79.2848 52.7978C79.286 52.7962 79.2874 52.7944 79.2889 52.7925C79.2918 52.7886 79.2953 52.784 79.2993 52.7787C79.3072 52.7682 79.3172 52.7549 79.3288 52.7391C79.3522 52.7075 79.3827 52.6653 79.4187 52.6141C79.4899 52.5125 79.5854 52.3707 79.6888 52.201C79.8794 51.8879 80.1646 51.3709 80.3287 50.781L76.4749 49.7092C76.4556 49.7787 76.3883 49.9301 76.2724 50.1205C76.2224 50.2026 76.176 50.2714 76.1437 50.3174C76.1279 50.34 76.1163 50.3559 76.1103 50.364C76.1074 50.3679 76.1059 50.3699 76.1062 50.3696C76.1063 50.3694 76.1068 50.3687 76.1078 50.3675C76.1083 50.3668 76.1089 50.366 76.1096 50.3651C76.1099 50.3646 76.1103 50.3641 76.1108 50.3636C76.111 50.3633 76.1112 50.363 76.1114 50.3627C76.1115 50.3626 76.1117 50.3623 76.1117 50.3623C76.1119 50.362 76.1121 50.3618 77.6968 51.5819ZM79.3639 55.9482L79.6908 51.7367L75.7028 51.4272L75.3759 55.6386L79.3639 55.9482ZM77.6145 60.0567C78.5572 60.0026 79.3745 59.5166 79.8432 58.7197C80.252 58.0246 80.2902 57.2805 80.2222 56.7321C80.1516 56.1637 79.9427 55.5837 79.5986 55.0867C79.2617 54.6001 78.6768 54.0344 77.8024 53.8407L76.9374 57.7461C76.5309 57.656 76.3467 57.4168 76.31 57.3638C76.2662 57.3005 76.2571 57.2612 76.2526 57.2249C76.2506 57.2086 76.2212 56.9879 76.3953 56.6919C76.4916 56.5281 76.6422 56.3605 76.8504 56.2357C77.0574 56.1116 77.2529 56.0709 77.3854 56.0633L77.6145 60.0567ZM73.1523 60.3127L77.6145 60.0567L77.3854 56.0633L72.9231 56.3193L73.1523 60.3127ZM69.4473 54.1871C69.5017 55.1342 69.6927 56.3755 70.0227 57.4249C70.1834 57.9358 70.4171 58.5336 70.7681 59.0414C71.0676 59.4748 71.843 60.3878 73.1523 60.3127L72.9231 56.3193C73.3302 56.2959 73.6493 56.4362 73.8359 56.5635C73.9229 56.6229 73.9802 56.678 74.0116 56.7113C74.0433 56.7448 74.058 56.7663 74.0587 56.7673C74.0597 56.7688 74.0521 56.7578 74.0375 56.7309C74.0232 56.7043 74.0046 56.6671 73.9829 56.6179C73.9387 56.5178 73.8894 56.3869 73.8385 56.225C73.6253 55.5469 73.4799 54.64 73.4408 53.958L69.4473 54.1871ZM72.2612 56.7823C72.3459 56.5178 72.5323 56.1401 72.747 55.7666C72.8463 55.5939 72.9381 55.4455 73.0042 55.3414C73.0371 55.2897 73.0631 55.2499 73.0798 55.2245C73.0881 55.2119 73.0941 55.2029 73.0974 55.198C73.0991 55.1955 73.1001 55.194 73.1003 55.1936C73.1005 55.1934 73.1005 55.1934 73.1002 55.1937C73.1001 55.1939 73.1 55.1941 73.0998 55.1944C73.0997 55.1946 73.0996 55.1947 73.0994 55.1949C73.0994 55.195 73.0993 55.1951 73.0993 55.1952C73.0992 55.1953 73.099 55.1955 71.444 54.0726C69.789 52.9496 69.7889 52.9498 69.7888 52.95C69.7888 52.95 69.7887 52.9502 69.7886 52.9503C69.7884 52.9506 69.7882 52.9509 69.788 52.9511C69.7876 52.9517 69.7872 52.9524 69.7867 52.9531C69.7857 52.9545 69.7846 52.9562 69.7832 52.9583C69.7805 52.9623 69.777 52.9674 69.7729 52.9736C69.7645 52.9861 69.7533 53.003 69.7396 53.0238C69.7121 53.0655 69.6743 53.1236 69.6287 53.1953C69.538 53.3379 69.4144 53.538 69.2794 53.7726C69.0257 54.2138 68.6683 54.8861 68.4517 55.5626L72.2612 56.7823ZM70.2482 60.4793C71.0282 60.4346 71.8047 60.158 72.4029 59.5686C72.9978 58.9825 73.2698 58.2288 73.2908 57.5124C73.3313 56.1244 72.4514 54.7813 71.0107 54.2825L69.7022 58.0624C69.494 57.9904 69.2819 57.7576 69.2925 57.3957C69.2984 57.1922 69.3811 56.9306 69.5955 56.7193C69.697 56.6193 69.8026 56.5571 69.8886 56.5222C69.9724 56.4882 70.0226 56.4857 70.0191 56.4859L70.2482 60.4793ZM69.0729 60.5617C69.4263 60.5337 69.7592 60.5074 70.2482 60.4793L70.0191 56.4859C69.4845 56.5166 69.1156 56.5458 68.757 56.5742L69.0729 60.5617ZM69.0295 60.5647L69.0295 60.5647L68.8004 56.5713L68.8003 56.5713L69.0295 60.5647ZM69.0294 60.5647L69.0295 60.5647L68.8003 56.5713L68.8003 56.5713L69.0294 60.5647ZM65.3202 60.7616C67.5386 60.6827 68.3166 60.6216 69.0728 60.5617L68.7569 56.5742C68.0574 56.6296 67.3373 56.6873 65.178 56.7641L65.3202 60.7616ZM61.5745 55.5628C61.7019 56.4593 61.9108 57.5364 62.2797 58.4332C62.4622 58.8769 62.7379 59.4131 63.171 59.8616C63.6361 60.3433 64.3651 60.7956 65.3202 60.7616L65.178 56.7641C65.6489 56.7474 65.9543 56.9855 66.0486 57.0832C66.1109 57.1478 66.0688 57.13 65.9789 56.9115C65.803 56.4839 65.6488 55.8031 65.5347 55.0001L61.5745 55.5628ZM63.0365 57.4123C63.4644 57.3877 63.8769 57.298 64.2629 57.1518L62.8463 53.4111C62.8366 53.4147 62.8242 53.4179 62.8074 53.4189L63.0365 57.4123ZM58.6785 53.5272C58.8091 55.8035 60.7602 57.5429 63.0365 57.4123L62.8074 53.4189C62.7366 53.4229 62.6759 53.3688 62.6719 53.298L58.6785 53.5272ZM58.6944 52.8553C58.6711 53.0762 58.6655 53.3008 58.6785 53.5272L62.6719 53.298C62.6714 53.2887 62.6717 53.281 62.6723 53.2746L58.6944 52.8553ZM56.3646 50.2567C56.4811 51.4787 56.9099 52.5301 57.6184 53.3613C58.3165 54.1803 59.1951 54.6797 60.0562 54.9641L61.3105 51.1658C60.9974 51.0624 60.7939 50.9207 60.6626 50.7666C60.5416 50.6247 60.3936 50.3709 60.3466 49.8772L56.3646 50.2567ZM63.2864 39.7875C62.6221 40.0625 61.8682 40.6107 61.1983 41.1849C60.4824 41.7986 59.6986 42.5842 58.9765 43.4751C57.6216 45.1467 56.1155 47.6431 56.3646 50.2567L60.3466 49.8772C60.2545 48.911 60.8692 47.4925 62.084 45.9938C62.6467 45.2996 63.2599 44.6861 63.8016 44.2218C64.0718 43.9902 64.3116 43.8065 64.5057 43.6735C64.7151 43.5299 64.8163 43.4834 64.8162 43.4834L63.2864 39.7875ZM63.737 39.6277C63.586 39.6726 63.4355 39.7258 63.2864 39.7875L64.8162 43.4834C64.8369 43.4748 64.8569 43.4678 64.8758 43.4622L63.737 39.6277ZM62.44 40.7908C62.4292 40.8337 62.4116 40.898 62.3855 40.9882L66.2274 42.1018C66.2601 41.9888 66.2913 41.8766 66.3176 41.7727L62.44 40.7908ZM57.2282 40.4461C59.1978 42.4162 61.7505 43.0841 64.2243 43.2758L64.5333 39.2877C62.5089 39.1309 61.0654 38.6267 60.057 37.618L57.2282 40.4461ZM57.2141 27.5601C56.3659 29.2406 55.3639 31.3738 55.0507 33.5693C54.7218 35.8753 55.1439 38.3614 57.2282 40.4461L60.057 37.618C59.0625 36.6233 58.8153 35.5037 59.0106 34.1341C59.2218 32.6539 59.9376 31.0415 60.785 29.3625L57.2141 27.5601ZM59.8921 26.6715C59.4284 26.4403 59.1057 25.9783 59.0744 25.4329L55.081 25.662C55.1977 27.6971 56.4123 29.406 58.107 30.2511L59.8921 26.6715ZM59.0744 25.4329C59.0277 24.6189 59.6498 23.9211 60.4638 23.8744L60.2347 19.881C57.2151 20.0542 54.9077 22.6425 55.081 25.662L59.0744 25.4329ZM60.4638 23.8744C61.1504 23.835 61.759 24.273 61.9569 24.9033L65.7732 23.7049C65.0394 21.3682 62.7943 19.7341 60.2347 19.881L60.4638 23.8744ZM68.109 21.4941C66.2409 21.5017 64.5691 21.8663 63.1199 22.4481L64.6102 26.1601C65.6033 25.7614 66.7757 25.4996 68.1253 25.4941L68.109 21.4941ZM69.0223 21.5199C68.7232 21.5015 68.4187 21.4929 68.109 21.4941L68.1253 25.4941C68.35 25.4932 68.5672 25.4995 68.7774 25.5123L69.0223 21.5199ZM71.4561 18.526C68.7899 18.679 66.7523 20.9632 66.903 23.629L70.8967 23.4032C70.8705 22.9415 71.2235 22.5459 71.6852 22.5194L71.4561 18.526ZM76.5631 23.0788C76.41 20.4113 74.1236 18.3729 71.4561 18.526L71.6852 22.5194C72.1472 22.4929 72.5432 22.8459 72.5697 23.3079L76.5631 23.0788Z" fill="#D39924" mask="url(#path-6-outside-1_0_1)"/>
    <path d="M68.5379 37.2781C68.0441 37.3064 67.6468 37.1664 67.3461 36.8581C67.0445 36.5357 66.8795 36.1276 66.8512 35.6338C66.8059 34.8438 66.9748 34.2113 67.358 33.7364C67.4777 33.6021 67.6643 33.4003 67.9178 33.131C68.1721 32.8758 68.3583 32.6669 68.4763 32.5045C68.5944 32.342 68.6486 32.1761 68.6389 32.0068C68.6235 31.7388 68.5632 31.5511 68.458 31.4439C68.3519 31.3226 68.1931 31.268 67.9815 31.2802C67.784 31.2915 67.6258 31.3714 67.5069 31.5197C67.4013 31.6532 67.3562 31.8539 67.3716 32.122C67.3991 32.6017 67.2176 33.0155 66.8271 33.3634C66.4358 33.6973 65.9297 33.882 65.309 33.9176C64.6882 33.9532 64.1752 33.7704 63.77 33.369C63.3781 32.9527 63.1599 32.3565 63.1154 31.5806C63.0782 30.9316 63.2596 30.2701 63.6597 29.596C64.0598 28.922 64.6357 28.3511 65.3874 27.8833C66.1532 27.4147 67.0228 27.1525 67.9962 27.0967C68.9838 27.04 69.8769 27.1869 70.6755 27.5375C71.4741 27.888 72.104 28.3826 72.5653 29.0214C73.0258 29.6461 73.2771 30.3252 73.3192 31.0589C73.3621 31.8066 73.257 32.4425 73.004 32.9666C72.7643 33.4757 72.4687 33.8749 72.1173 34.164C71.7791 34.4381 71.3638 34.7238 70.8713 35.021C70.5698 35.194 70.3651 35.3261 70.2571 35.4172C70.1482 35.4942 70.0967 35.5821 70.1023 35.6809C70.1242 36.0618 69.9959 36.4159 69.7174 36.7433C69.439 37.0707 69.0458 37.2489 68.5379 37.2781ZM68.5846 37.7213C67.9638 37.7569 67.434 38.0208 66.9951 38.5131C66.5696 38.9905 66.3746 39.5395 66.4102 40.1603C66.4458 40.781 66.7027 41.3112 67.1809 41.7509C67.6724 42.1756 68.2285 42.3702 68.8492 42.3346C69.47 42.299 70.0002 42.0421 70.4399 41.5639C70.8787 41.0716 71.0803 40.5151 71.0447 39.8944C71.0091 39.2736 70.7456 38.7509 70.2541 38.3261C69.7618 37.8873 69.2053 37.6856 68.5846 37.7213Z" fill="#FFE0A2"/>
  </g>
  <path d="M35.1718 74.863C33.1885 75.0496 31.6529 74.7089 30.565 73.841C29.489 72.9719 28.8422 71.4507 28.6246 69.2776C28.4273 67.3075 28.7501 65.7134 29.5929 64.4953C30.4345 63.2653 31.727 62.563 33.4702 62.3885C34.5449 62.2808 35.4983 62.3482 36.3306 62.5904C37.1629 62.8327 37.8238 63.2308 38.3135 63.7848C38.8031 64.3388 39.0886 65.0217 39.1699 65.8336C39.2345 66.4784 39.1486 67.0659 38.9123 67.5961C38.6879 68.1251 38.3208 68.6141 37.811 69.0631C38.2599 69.0905 38.6659 69.2911 39.029 69.6648C39.404 70.0372 39.6184 70.4921 39.6722 71.0295C39.7296 71.6026 39.6288 72.1614 39.3697 72.7059C39.1214 73.2373 38.6493 73.7007 37.9532 74.096C37.2691 74.4902 36.3419 74.7458 35.1718 74.863ZM33.2669 68.3062C33.4926 68.3921 33.7666 68.4189 34.089 68.3867C34.4711 68.3484 34.7905 68.226 35.0472 68.0193C35.3146 67.7996 35.4298 67.5047 35.3927 67.1345C35.3569 66.7763 35.1867 66.522 34.8822 66.3716C34.5884 66.208 34.2445 66.146 33.8505 66.1855C33.54 66.2166 33.2827 66.2966 33.0786 66.4256C32.9186 66.514 32.8058 66.6519 32.7401 66.8394C32.6745 67.0268 32.6518 67.2221 32.6722 67.4251C32.6925 67.628 32.7534 67.8149 32.8549 67.9856C32.9552 68.1444 33.0926 68.2513 33.2669 68.3062ZM33.6866 72.4972C33.9231 72.57 34.1965 72.5909 34.507 72.5598C34.889 72.5215 35.2096 72.411 35.4687 72.2283C35.7385 72.0324 35.8573 71.7733 35.825 71.4509C35.7939 71.1405 35.6267 70.916 35.3234 70.7776C35.0201 70.6391 34.6774 70.589 34.2953 70.6273C33.9968 70.6571 33.7389 70.7312 33.5216 70.8495C33.3616 70.9378 33.2476 71.0638 33.1796 71.2274C33.1103 71.3791 33.0847 71.5445 33.1026 71.7236C33.1206 71.9027 33.1791 72.0656 33.2782 72.2125C33.3762 72.3474 33.5123 72.4423 33.6866 72.4972ZM45.0747 73.8893C44.1911 73.9778 43.3917 73.883 42.6764 73.6049C41.9611 73.3268 41.3813 72.8964 40.9371 72.3138C40.5035 71.718 40.2473 71.0261 40.1684 70.2381C40.0907 69.462 40.204 68.727 40.5084 68.0332C40.8247 67.3382 41.2975 66.7603 41.9267 66.2993C42.5559 65.8383 43.2943 65.5653 44.1421 65.4804C44.9063 65.4039 45.5964 65.4915 46.2126 65.7434C46.8288 65.9953 47.3178 66.3624 47.6796 66.8447C48.0403 67.3151 48.2482 67.8249 48.3032 68.3742C48.3928 69.2697 48.1183 69.9605 47.4796 70.4466C46.8516 70.9195 46.0719 71.2026 45.1406 71.2959C44.5197 71.358 43.9865 71.3331 43.5411 71.2209C43.9579 71.7701 44.5783 72.0034 45.4021 71.9209C45.7365 71.8874 46.0905 71.8098 46.4642 71.6879C46.6039 71.6377 46.7394 71.6061 46.8708 71.5929C47.1335 71.5666 47.349 71.6114 47.5174 71.7272C47.6977 71.8418 47.7992 72.0125 47.8219 72.2394C47.859 72.6095 47.6644 72.9546 47.2382 73.2747C46.8108 73.5828 46.0896 73.7877 45.0747 73.8893ZM43.376 69.0304C43.5002 69.1868 43.6561 69.2978 43.8435 69.3635C44.0418 69.416 44.2543 69.4309 44.4812 69.4082C44.7439 69.3819 44.9647 69.2995 45.1438 69.1609C45.3349 69.0212 45.4208 68.8558 45.4017 68.6648C45.3801 68.4498 45.2721 68.2737 45.0774 68.1364C44.8947 67.998 44.6422 67.9449 44.3198 67.9771C43.9974 68.0094 43.7508 68.1366 43.5801 68.3587C43.4201 68.5677 43.3521 68.7916 43.376 69.0304ZM51.4508 73.2508C50.6866 73.3273 50.1283 72.931 49.776 72.0618C49.4355 71.1914 49.1864 69.9681 49.0285 68.392C48.9568 67.6756 48.9269 67.0756 48.9387 66.592C48.9613 66.0952 49.0813 65.6672 49.2985 65.3077C49.5266 64.9351 49.9092 64.722 50.4465 64.6681C50.7809 64.6347 51.0812 64.683 51.3475 64.8131C51.6257 64.942 51.815 65.1462 51.9153 65.4256C52.1541 65.1604 52.4764 64.9473 52.8824 64.786C53.2883 64.6247 53.7301 64.5202 54.2077 64.4724C54.5898 64.4341 54.9875 64.4908 55.4006 64.6423C55.8257 64.7927 56.1864 65.0219 56.4825 65.33C56.7894 65.6248 56.962 65.9633 57.0003 66.3454C57.0385 66.7275 56.9353 67.0816 56.6906 67.4076C56.4566 67.7204 56.1187 67.899 55.6769 67.9432C55.5336 67.9576 55.3945 67.9534 55.2596 67.9308C55.1366 67.9069 55.0256 67.8818 54.9264 67.8556C54.6781 67.784 54.4822 67.7554 54.339 67.7697C53.8733 67.8163 53.4799 68.0427 53.1588 68.4487C52.8484 68.8416 52.7219 69.3246 52.7793 69.8977C52.8426 70.5306 52.8714 71.0583 52.8655 71.481C52.8595 71.9037 52.7539 72.2942 52.5486 72.6524C52.3421 72.9987 51.9761 73.1982 51.4508 73.2508ZM61.2062 72.2738C60.2749 72.3671 59.4898 72.2347 58.8509 71.8765C58.2108 71.5065 57.8507 70.9215 57.7706 70.1215C57.7013 69.4289 57.9507 68.8492 58.519 68.3822C59.0873 67.9153 59.8252 67.6363 60.7327 67.5455C61.067 67.512 61.3804 67.5107 61.673 67.5417C61.9763 67.5596 62.1852 67.599 62.2999 67.6599C62.27 67.3614 62.1201 67.1291 61.8502 66.9632C61.5791 66.7853 61.1869 66.7221 60.6735 66.7735C60.4466 66.7962 60.2633 66.8327 60.1236 66.8829C59.9839 66.933 59.8341 67.0023 59.6741 67.0907C59.5141 67.1791 59.3643 67.2483 59.2246 67.2985C59.0968 67.3475 58.9195 67.3833 58.6926 67.4061C58.3105 67.4443 58.0025 67.3787 57.7684 67.2092C57.5332 67.0277 57.3952 66.734 57.3545 66.328C57.3079 65.8624 57.4356 65.4516 57.7377 65.0957C58.0516 64.7387 58.4576 64.4568 58.9555 64.2502C59.4522 64.0316 59.9572 63.8966 60.4706 63.8452C61.4856 63.7435 62.3525 63.8497 63.0713 64.1636C63.8009 64.4644 64.358 64.9091 64.7426 65.4977C65.1391 66.0851 65.375 66.7549 65.4503 67.5072C65.491 67.9131 65.4928 68.2928 65.4559 68.6463C65.4309 68.9985 65.3742 69.2756 65.2859 69.4774C65.4674 69.6039 65.6095 69.7585 65.7122 69.9412C65.8268 70.1227 65.8943 70.3149 65.9147 70.5179C65.9493 70.8642 65.8598 71.1746 65.6461 71.4493C65.4444 71.7227 65.1525 71.8786 64.7704 71.9169C64.4838 71.9456 64.2468 71.9271 64.0593 71.8615C63.8718 71.7958 63.6676 71.6836 63.4467 71.5248C63.1662 71.7338 62.851 71.898 62.5011 72.0175C62.1632 72.1358 61.7316 72.2212 61.2062 72.2738ZM61.3833 70.429C61.634 70.4039 61.8256 70.3304 61.9582 70.2086C62.1026 70.0856 62.1671 69.9465 62.1515 69.7913C62.136 69.636 62.0452 69.5125 61.8792 69.4205C61.7252 69.3274 61.5228 69.2934 61.272 69.3185C61.0213 69.3437 60.8237 69.4177 60.6792 69.5407C60.5467 69.6625 60.4882 69.8011 60.5038 69.9563C60.5193 70.1115 60.6041 70.2357 60.7582 70.3288C60.9241 70.4207 61.1325 70.4541 61.3833 70.429ZM70.974 71.2775C70.2098 71.354 69.4689 71.2413 68.7512 70.9393C68.0443 70.6242 67.4556 70.1646 66.985 69.5605C66.5145 68.9563 66.2392 68.2543 66.159 67.4543C66.0753 66.6185 66.1994 65.8704 66.5313 65.21C66.8738 64.5365 67.3568 63.9997 67.98 63.5996C68.6152 63.1984 69.3148 62.9594 70.079 62.8829C70.8074 62.81 71.4784 62.8875 72.0922 63.1155C72.706 63.3434 73.1974 63.6741 73.5664 64.1075C73.9342 64.5289 74.1433 64.9904 74.1935 65.4919C74.2353 65.9098 74.1363 66.2453 73.8963 66.4985C73.6683 66.7505 73.3035 66.9016 72.802 66.9518C72.5393 66.9781 72.3316 66.9507 72.1787 66.8695C72.0259 66.7883 71.8623 66.66 71.6879 66.4845C71.5267 66.3198 71.3762 66.2022 71.2365 66.1317C71.1076 66.0482 70.9296 66.0177 70.7028 66.0405C70.3804 66.0728 70.1171 66.2137 69.913 66.4633C69.7076 66.7009 69.6223 66.9929 69.657 67.3391C69.6928 67.6974 69.829 67.9732 70.0655 68.1666C70.3138 68.3588 70.6052 68.4381 70.9395 68.4046C71.1545 68.3831 71.3186 68.3365 71.4321 68.2649C71.5455 68.1932 71.6673 68.0845 71.7974 67.9388C71.9502 67.7788 72.0953 67.6618 72.2326 67.5877C72.3687 67.5017 72.574 67.445 72.8487 67.4175C73.3382 67.3685 73.7275 67.4621 74.0165 67.6985C74.3055 67.9349 74.4673 68.2262 74.502 68.5725C74.5426 68.9785 74.4197 69.3767 74.1332 69.7672C73.8586 70.1565 73.4455 70.4873 72.8939 70.7596C72.3423 71.0319 71.7023 71.2046 70.974 71.2775ZM76.3138 61.9872C75.7287 62.0458 75.2122 61.8864 74.7644 61.5092C74.3154 61.12 74.0604 60.6209 73.9994 60.012C73.9396 59.4149 74.0918 58.8872 74.4559 58.4286C74.8188 57.9581 75.2928 57.6935 75.8779 57.6349C76.451 57.5775 76.9621 57.7434 77.4111 58.1326C77.8709 58.5087 78.1307 58.9952 78.1904 59.5922C78.2514 60.2012 78.0945 60.7415 77.7196 61.2132C77.3555 61.6718 76.8869 61.9298 76.3138 61.9872ZM77.1837 70.6737C76.6941 70.7227 76.3162 70.6219 76.0499 70.3712C75.7943 70.1073 75.5967 69.699 75.4569 69.1462C75.3278 68.5802 75.2107 67.7719 75.1055 66.7211C75.017 65.8376 74.9888 65.1349 75.021 64.6131C75.0651 64.0901 75.194 63.6912 75.4077 63.4166C75.6214 63.1419 75.9551 62.9819 76.4088 62.9364C76.8984 62.8874 77.2709 62.9948 77.5265 63.2586C77.7928 63.5094 77.9905 63.9177 78.1195 64.4837C78.2593 65.0365 78.3818 65.8383 78.487 66.889C78.5755 67.7726 78.5977 68.4759 78.5536 68.9989C78.5215 69.5207 78.3985 69.9189 78.1848 70.1936C77.9711 70.4682 77.6374 70.6283 77.1837 70.6737ZM83.052 70.086C82.1207 70.1793 81.3356 70.0469 80.6967 69.6887C80.0566 69.3187 79.6965 68.7337 79.6164 67.9337C79.5471 67.2411 79.7965 66.6614 80.3648 66.1944C80.9331 65.7275 81.671 65.4486 82.5785 65.3577C82.9128 65.3242 83.2262 65.323 83.5188 65.354C83.8221 65.3718 84.031 65.4112 84.1457 65.4721C84.1158 65.1736 83.9659 64.9413 83.696 64.7754C83.4249 64.5975 83.0327 64.5343 82.5193 64.5857C82.2924 64.6085 82.1091 64.6449 81.9694 64.6951C81.8297 64.7452 81.6799 64.8145 81.5199 64.9029C81.3599 64.9913 81.2101 65.0606 81.0704 65.1107C80.9426 65.1597 80.7653 65.1955 80.5384 65.2183C80.1563 65.2565 79.8483 65.1909 79.6142 65.0214C79.379 64.8399 79.241 64.5462 79.2004 64.1402C79.1537 63.6746 79.2814 63.2638 79.5835 62.9079C79.8974 62.5509 80.3034 62.269 80.8013 62.0624C81.298 61.8438 81.803 61.7088 82.3164 61.6574C83.3314 61.5557 84.1983 61.6619 84.9171 61.9758C85.6467 62.2766 86.2038 62.7213 86.5884 63.3099C86.9849 63.8973 87.2208 64.5671 87.2961 65.3194C87.3368 65.7253 87.3386 66.105 87.3017 66.4585C87.2767 66.8107 87.22 67.0878 87.1317 67.2896C87.3132 67.4161 87.4553 67.5707 87.558 67.7534C87.6727 67.9349 87.7401 68.1271 87.7605 68.3301C87.7951 68.6764 87.7056 68.9868 87.4919 69.2615C87.2902 69.5349 86.9983 69.6908 86.6162 69.7291C86.3296 69.7578 86.0926 69.7393 85.9051 69.6737C85.7176 69.608 85.5134 69.4958 85.2925 69.337C85.012 69.546 84.6968 69.7103 84.3469 69.8297C84.009 69.948 83.5774 70.0334 83.052 70.086ZM83.2291 68.2412C83.4798 68.2161 83.6714 68.1426 83.804 68.0208C83.9484 67.8978 84.0129 67.7587 83.9973 67.6035C83.9818 67.4482 83.891 67.3247 83.725 67.2328C83.571 67.1396 83.3686 67.1056 83.1178 67.1308C82.8671 67.1559 82.6695 67.2299 82.525 67.3529C82.3925 67.4747 82.334 67.6133 82.3496 67.7685C82.3651 67.9237 82.4499 68.0479 82.604 68.141C82.7699 68.2329 82.9783 68.2663 83.2291 68.2412ZM92.6447 72.2187C91.9522 72.2881 91.3719 72.2135 90.9038 71.9951C90.4369 71.7886 90.1813 71.4645 90.137 71.0227C90.0976 70.6286 90.2146 70.2913 90.488 70.0107C90.7745 69.7408 91.1506 69.5825 91.6163 69.5359C91.6998 69.5275 91.8383 69.5257 92.0318 69.5304C92.2742 69.5423 92.4969 69.5381 92.6998 69.5178C93.2133 69.4664 93.6461 69.3326 93.9983 69.1164C94.3637 68.911 94.5738 68.6608 94.6287 68.3659C94.4484 68.4925 94.1887 68.6089 93.8496 68.7152C93.5105 68.8216 93.1439 68.8944 92.7499 68.9339C91.735 69.0355 90.8794 68.9222 90.1833 68.594C89.499 68.2645 88.9849 67.8276 88.641 67.2831C88.2958 66.7268 88.0951 66.168 88.0389 65.6068C87.9456 64.6754 88.0679 63.8491 88.4057 63.1279C88.7555 62.4054 89.2408 61.8322 89.8616 61.4083C90.4825 60.9843 91.1511 60.7364 91.8675 60.6647C92.1063 60.6408 92.3827 60.6312 92.6968 60.6359C93.0227 60.6394 93.2956 60.6543 93.5153 60.6806C93.5785 60.3486 93.7146 60.0817 93.9235 59.8799C94.1444 59.6769 94.4877 59.552 94.9533 59.5054C95.7295 59.4277 96.3391 59.8551 96.7822 60.7875C97.2373 61.7188 97.536 62.8949 97.6783 64.3158C97.7452 64.9845 97.7728 65.6209 97.7609 66.2251C97.7504 67.9266 97.2921 69.3112 96.386 70.3788C95.4799 71.4464 94.2328 72.0597 92.6447 72.2187ZM92.7137 66.224C93.0838 66.187 93.3931 66.0233 93.6414 65.7331C93.8885 65.431 93.9935 65.0949 93.9565 64.7247C93.9194 64.3546 93.7498 64.0459 93.4477 63.7988C93.1455 63.5517 92.8094 63.4467 92.4393 63.4837C92.0691 63.5208 91.7605 63.6904 91.5134 63.9925C91.2782 64.2935 91.1791 64.629 91.2162 64.9992C91.2533 65.3693 91.4169 65.6785 91.7071 65.9269C92.008 66.162 92.3435 66.2611 92.7137 66.224ZM102.029 68.1855C101.098 68.2788 100.313 68.1463 99.674 67.7882C99.034 67.4182 98.6739 66.8331 98.5938 66.0331C98.5244 65.3406 98.7739 64.7609 99.3422 64.2939C99.9105 63.8269 100.648 63.548 101.556 63.4571C101.89 63.4237 102.204 63.4224 102.496 63.4534C102.799 63.4713 103.008 63.5107 103.123 63.5715C103.093 63.273 102.943 63.0408 102.673 62.8749C102.402 62.697 102.01 62.6338 101.497 62.6852C101.27 62.7079 101.086 62.7444 100.947 62.7945C100.807 62.8447 100.657 62.914 100.497 63.0024C100.337 63.0908 100.187 63.16 100.048 63.2102C99.9199 63.2592 99.7426 63.295 99.5158 63.3177C99.1337 63.356 98.8256 63.2904 98.5916 63.1209C98.3563 62.9394 98.2183 62.6457 98.1777 62.2397C98.1311 61.774 98.2588 61.3633 98.5608 61.0074C98.8748 60.6503 99.2807 60.3685 99.7786 60.1618C100.275 59.9433 100.78 59.8083 101.294 59.7568C102.309 59.6552 103.176 59.7613 103.894 60.0753C104.624 60.3761 105.181 60.8208 105.566 61.4094C105.962 61.9968 106.198 62.6666 106.273 63.4188C106.314 63.8248 106.316 64.2045 106.279 64.558C106.254 64.9102 106.197 65.1872 106.109 65.389C106.291 65.5156 106.433 65.6702 106.535 65.8529C106.65 66.0343 106.717 66.2266 106.738 66.4296C106.772 66.7758 106.683 67.0863 106.469 67.361C106.268 67.6344 105.976 67.7903 105.594 67.8286C105.307 67.8573 105.07 67.8388 104.882 67.7731C104.695 67.7075 104.491 67.5953 104.27 67.4365C103.989 67.6455 103.674 67.8097 103.324 67.9292C102.986 68.0474 102.555 68.1329 102.029 68.1855ZM102.206 66.3407C102.457 66.3156 102.649 66.2421 102.781 66.1203C102.926 65.9973 102.99 65.8582 102.975 65.7029C102.959 65.5477 102.868 65.4241 102.702 65.3322C102.548 65.2391 102.346 65.2051 102.095 65.2302C101.844 65.2553 101.647 65.3294 101.502 65.4524C101.37 65.5742 101.311 65.7127 101.327 65.868C101.342 66.0232 101.427 66.1473 101.581 66.2405C101.747 66.3324 101.956 66.3658 102.206 66.3407Z" fill="black"/>
</svg>
