<svg width="171" height="62" viewBox="0 0 171 62" fill="none" xmlns="http://www.w3.org/2000/svg">
<path d="M3.85787 11.8389C3.81016 9.63029 5.56193 7.80117 7.77055 7.75346L164.946 4.35841C167.155 4.31071 168.984 6.06247 169.031 8.2711L169.665 37.6142C169.713 39.8262 167.956 41.6568 165.744 41.6998L98.0143 43.0168C96.4412 43.0474 95.0322 43.9973 94.4139 45.4441L91.4603 52.3551C90.137 55.4515 85.8134 55.627 84.2435 52.648L80.5189 45.5805C79.8106 44.2366 78.4024 43.4099 76.8838 43.4465L8.58713 45.093C6.37472 45.1464 4.53945 43.3931 4.49166 41.1806L3.85787 11.8389Z" fill="#866224" stroke="black" stroke-linecap="round"/>
<path d="M1.08638 8.62602C1.03867 6.4174 2.79044 4.58828 4.99907 4.54057L162.175 1.14552C164.383 1.09781 166.212 2.84958 166.26 5.05821L166.894 34.4013C166.942 36.6133 165.185 38.4439 162.972 38.4869L93.9505 39.8291C93.164 39.8444 92.4595 40.3193 92.1503 41.0427L87.0384 53.004C86.3767 54.5522 84.2149 54.6399 83.43 53.1504L77.1693 41.2707C76.8152 40.5988 76.1111 40.1855 75.3518 40.2038L5.81565 41.8801C3.60324 41.9335 1.76796 40.1802 1.72017 37.9677L1.08638 8.62602Z" fill="#E9B965" stroke="black" stroke-linecap="round"/>
<path d="M26.5488 30.3526C25.2371 30.381 24.325 29.6485 23.8127 28.1552C23.3163 26.6616 23.0429 24.747 22.9925 22.4116C22.9596 20.8919 23.2008 19.4624 23.716 18.123C24.2469 16.7672 25.0713 15.6691 26.1894 14.8288C27.3072 13.9724 28.6819 13.5266 30.3135 13.4914C31.6252 13.4631 32.823 13.7173 33.9068 14.254C34.9903 14.7747 35.8551 15.5402 36.501 16.5505C37.163 17.5604 37.5085 18.7373 37.5375 20.0809C37.571 21.6326 37.2873 22.943 36.6862 24.0122C36.0852 25.0815 35.2943 25.8827 34.3136 26.416C33.3329 26.9493 32.2906 27.2279 31.1869 27.2518C30.2911 27.2711 29.464 27.1369 28.7056 26.8492C28.8127 27.3591 28.8691 27.7499 28.875 28.0219C28.9078 29.5415 28.1324 30.3184 26.5488 30.3526ZM30.7706 23.5399C31.3465 23.5274 31.8379 23.3088 32.2448 22.8839C32.6674 22.4427 32.8726 21.9421 32.8605 21.3822C32.8481 20.8064 32.6214 20.3152 32.1805 19.9086C31.7553 19.4857 31.2548 19.2804 30.6789 19.2929C30.119 19.305 29.6278 19.5316 29.2052 19.9729C28.7823 20.3981 28.5771 20.8986 28.5895 21.4745C28.6016 22.0344 28.8283 22.5256 29.2695 22.9482C29.7104 23.3547 30.2108 23.552 30.7706 23.5399ZM41.7645 29.952C40.9647 29.9692 40.3585 29.6863 39.9458 29.103C39.5331 28.5198 39.2423 27.6539 39.0735 26.5053C38.9203 25.3403 38.8212 23.7181 38.7763 21.6385C38.7331 19.639 38.7474 18.0783 38.8192 16.9565C38.907 15.8344 39.1436 14.9331 39.529 14.2526C39.9304 13.5717 40.563 13.222 41.4268 13.2033C42.2906 13.1847 42.9297 13.507 43.3441 14.1702C43.7745 14.833 44.0498 15.7233 44.17 16.841C44.3061 17.9583 44.3958 19.5167 44.439 21.5162C44.4815 23.4838 44.4279 25.0773 44.2782 26.2968C44.1441 27.5 43.8757 28.41 43.473 29.0268C43.0698 29.6277 42.5004 29.9361 41.7645 29.952ZM49.6742 29.8291C48.4265 29.8561 47.3967 29.5982 46.5847 29.0557C45.7725 28.4971 45.3548 27.6819 45.3316 26.6101C45.3116 25.6824 45.7036 24.9377 46.5077 24.3762C47.3117 23.8147 48.3216 23.5209 49.5373 23.4946C49.9852 23.4849 50.402 23.5159 50.7876 23.5876C51.1889 23.643 51.4626 23.7171 51.6086 23.8099C51.6 23.41 51.425 23.0857 51.0835 22.837C50.7417 22.5724 50.2269 22.4475 49.5391 22.4623C49.2351 22.4689 48.9877 22.4982 48.7968 22.5504C48.6059 22.6025 48.3995 22.679 48.1776 22.7798C47.9557 22.8806 47.7493 22.9571 47.5584 23.0092C47.3835 23.061 47.1441 23.0902 46.8401 23.0967C46.3282 23.1078 45.9256 22.9885 45.6321 22.7388C45.3383 22.473 45.1855 22.0682 45.1738 21.5244C45.1603 20.9005 45.3728 20.3678 45.8114 19.9262C46.266 19.4843 46.8349 19.1519 47.5183 18.9291C48.2013 18.6903 48.8867 18.5635 49.5745 18.5486C50.9342 18.5193 52.0755 18.7507 52.9983 19.2429C53.9368 19.7187 54.631 20.3679 55.0809 21.1903C55.5467 22.0125 55.7906 22.9274 55.8123 23.9352C55.8241 24.4791 55.787 24.984 55.701 25.4499C55.631 25.9156 55.5268 26.2779 55.3884 26.5369C55.6165 26.7241 55.7893 26.9444 55.9068 27.1979C56.0403 27.4511 56.11 27.7136 56.1159 27.9856C56.1259 28.4495 55.9746 28.8528 55.6619 29.1957C55.3652 29.5381 54.9609 29.7149 54.4491 29.726C54.0651 29.7343 53.752 29.685 53.5096 29.5782C53.2673 29.4714 53.0075 29.301 52.7304 29.0669C52.3357 29.3155 51.8996 29.501 51.4221 29.6233C50.9607 29.7453 50.378 29.8139 49.6742 29.8291ZM50.1017 27.3953C50.4376 27.3881 50.7 27.3104 50.8889 27.1623C51.0937 27.0138 51.1939 26.8356 51.1894 26.6276C51.1849 26.4197 51.0771 26.246 50.8661 26.1065C50.671 25.9667 50.4055 25.9004 50.0696 25.9077C49.7337 25.9149 49.4633 25.9928 49.2584 26.1412C49.0696 26.2893 48.9774 26.4674 48.9819 26.6753C48.9864 26.8833 49.0862 27.0572 49.2812 27.197C49.4923 27.3365 49.7658 27.4026 50.1017 27.3953ZM60.4754 33.1486C59.6116 33.1673 58.8882 33.0149 58.3051 32.6914C57.7219 32.3679 57.4233 31.8782 57.4091 31.2224C57.3977 30.6945 57.6367 30.2733 58.126 29.9586C58.6153 29.644 59.1962 29.4954 59.8688 29.5129C60.5733 29.5297 61.1165 29.4859 61.4983 29.3817C61.8962 29.277 62.1963 29.0945 62.3987 28.8341C60.9271 28.8659 59.7468 28.6833 58.8581 28.2864C57.9689 27.8735 57.3147 27.2235 56.8955 26.3364C56.4919 25.4329 56.274 24.2373 56.2419 22.7496C56.2142 21.4699 56.3839 20.434 56.7509 19.6419C57.1335 18.8335 57.7487 18.4201 58.5965 18.4018C59.3484 18.3855 59.9049 18.5896 60.2661 19.0139C60.643 19.4218 60.8387 19.9617 60.8533 20.6336L60.8521 21.6898C60.8406 21.8981 60.8391 22.2022 60.8478 22.6021C60.8644 23.37 60.9729 23.9517 61.1735 24.3475C61.3738 24.7273 61.7618 24.9109 62.3377 24.8985C62.9136 24.8861 63.2933 24.6858 63.477 24.2977C63.6603 23.8937 63.7439 23.3158 63.7276 22.5639C63.719 22.164 63.7044 21.8603 63.6839 21.6527L63.6376 20.6214C63.6221 19.9016 63.7858 19.3299 64.1287 18.9064C64.4877 18.4826 65.043 18.2625 65.7949 18.2463C66.6427 18.228 67.2752 18.6144 67.6923 19.4056C68.1095 20.1968 68.3318 21.2242 68.3591 22.4879C68.3998 24.3755 68.1654 26.1169 67.6557 27.7123C67.1617 29.2913 66.3174 30.5819 65.1227 31.5839C63.9441 32.5856 62.395 33.1072 60.4754 33.1486ZM74.5518 33.3967C73.624 33.4167 72.8604 33.2572 72.261 32.9181C71.6618 32.5949 71.3559 32.1374 71.3431 31.5456C71.3317 31.0177 71.5223 30.5815 71.915 30.2369C72.324 29.908 72.8404 29.7368 73.4642 29.7233C73.5762 29.7209 73.7605 29.7329 74.0172 29.7594C74.3381 29.8005 74.6346 29.8181 74.9065 29.8122C75.5943 29.7974 76.1836 29.6646 76.6743 29.4139C77.1814 29.1789 77.4867 28.8683 77.5904 28.4819C77.3376 28.6314 76.9802 28.7592 76.5184 28.8652C76.0566 28.9712 75.5618 29.0299 75.0339 29.0413C73.6742 29.0707 72.5488 28.8309 71.6576 28.322C70.7824 27.8128 70.1445 27.1784 69.744 26.4189C69.3432 25.6434 69.1346 24.8797 69.1184 24.1279C69.0914 22.8802 69.3401 21.7946 69.8642 20.871C70.4044 19.9471 71.1092 19.2357 71.9786 18.7369C72.8481 18.238 73.7627 17.9782 74.7225 17.9574C75.0424 17.9505 75.4108 17.9666 75.8277 18.0056C76.2607 18.0442 76.6218 18.0924 76.9111 18.1502C77.0298 17.7155 77.2385 17.375 77.5372 17.1284C77.8519 16.8816 78.3212 16.7514 78.9451 16.7379C79.9849 16.7155 80.7507 17.3471 81.2426 18.6328C81.7504 19.9181 82.0249 21.5126 82.066 23.4161C82.0854 24.3119 82.0557 25.1607 81.977 25.9626C81.7858 28.2233 81.0323 30.016 79.7166 31.3407C78.4009 32.6654 76.6793 33.3508 74.5518 33.3967ZM75.2681 25.4354C75.764 25.4247 76.1921 25.2394 76.5524 24.8795C76.9123 24.5037 77.087 24.0678 77.0762 23.5719C77.0655 23.076 76.8723 22.6481 76.4964 22.2881C76.1205 21.9282 75.6847 21.7535 75.1888 21.7642C74.6929 21.7749 74.265 21.9682 73.905 22.3441C73.561 22.7196 73.3944 23.1553 73.4051 23.6512C73.4158 24.1471 73.6011 24.5752 73.961 24.9355C74.3365 25.2795 74.7722 25.4461 75.2681 25.4354ZM85.9293 29.046C84.9056 29.0681 84.2048 28.4831 83.8269 27.291C83.4651 26.0985 83.2614 24.4465 83.2158 22.335C83.195 21.3752 83.2178 20.5746 83.2839 19.933C83.3657 19.2751 83.5698 18.7185 83.896 18.2634C84.2379 17.7919 84.7688 17.5484 85.4886 17.5328C85.9365 17.5231 86.3307 17.6187 86.6711 17.8194C87.0275 18.0197 87.2578 18.3108 87.3621 18.6926C87.7071 18.3651 88.1578 18.1153 88.7142 17.9433C89.2706 17.7712 89.8688 17.6783 90.5086 17.6644C91.0205 17.6534 91.5431 17.7701 92.0765 18.0147C92.626 18.2589 93.0814 18.6011 93.443 19.0414C93.8203 19.4653 94.0144 19.9333 94.0255 20.4451C94.0365 20.957 93.8624 21.4169 93.5032 21.8247C93.1595 22.2163 92.6918 22.4184 92.0999 22.4312C91.908 22.4353 91.7235 22.4153 91.5465 22.3711C91.3855 22.3266 91.2405 22.2817 91.1115 22.2365C90.7888 22.1154 90.5315 22.057 90.3395 22.0611C89.7157 22.0746 89.1692 22.3345 88.7 22.8407C88.2465 23.3306 88.028 23.9595 88.0446 24.7273C88.0629 25.5751 88.0461 26.2796 87.9942 26.8409C87.9423 27.4021 87.7612 27.9102 87.451 28.365C87.1404 28.8038 86.6332 29.0308 85.9293 29.046ZM100.21 28.7615C99.0587 28.8024 98.0218 28.5847 97.0993 28.1086C96.1928 27.632 95.4742 26.9674 94.9437 26.1146C94.4288 25.2456 94.1438 24.2755 94.0887 23.2044C94.0495 22.133 94.2767 21.1679 94.7703 20.309C95.2639 19.4502 95.9612 18.763 96.8623 18.2474C97.7793 17.7314 98.8137 17.461 99.9655 17.4362C101.085 17.412 102.098 17.6302 103.004 18.0907C103.926 18.5509 104.661 19.2072 105.207 20.0596C105.754 20.912 106.055 21.8737 106.11 22.9448C106.148 23.9842 105.921 24.9413 105.428 25.8162C104.934 26.675 104.229 27.3704 103.312 27.9023C102.412 28.4339 101.377 28.7203 100.21 28.7615ZM100.206 25.2568C100.638 25.2475 101.011 25.0714 101.323 24.7285C101.636 24.3857 101.787 23.9904 101.778 23.5425C101.768 23.0946 101.6 22.7141 101.273 22.4011C100.946 22.0721 100.566 21.9122 100.134 21.9216C99.7025 21.9309 99.3302 22.107 99.0175 22.4498C98.7045 22.7766 98.5528 23.164 98.5625 23.6119C98.5722 24.0598 98.7406 24.4483 99.0678 24.7773C99.395 25.1063 99.7745 25.2661 100.206 25.2568ZM112.765 28.4663C111.597 28.4916 110.567 28.2257 109.675 27.6689C108.782 27.096 108.085 26.2949 107.582 25.2655C107.096 24.2198 106.837 23.0091 106.808 21.6334C106.779 20.2897 106.972 19.2293 107.387 18.4521C107.802 17.675 108.394 17.2781 109.162 17.2615C110.522 17.2322 111.216 17.9133 111.246 19.305C111.253 19.5929 111.25 19.849 111.239 20.0733C111.228 20.2816 111.216 20.4659 111.203 20.6262C111.153 21.2675 111.132 21.78 111.14 22.1639C111.155 22.8678 111.311 23.4005 111.607 23.7622C111.903 24.1239 112.259 24.3003 112.674 24.2913C113.106 24.282 113.454 24.0984 113.719 23.7406C113.999 23.3665 114.131 22.8195 114.115 22.0997C114.104 21.5878 114.07 21.1164 114.013 20.6856C113.994 20.5419 113.973 20.3343 113.951 20.0627C113.929 19.7752 113.916 19.5114 113.91 19.2715C113.88 17.8638 114.545 17.1453 115.904 17.1159C116.672 17.0993 117.272 17.4704 117.705 18.2293C118.153 18.9718 118.392 20.0229 118.421 21.3825C118.467 23.51 118.008 25.2164 117.043 26.5015C116.078 27.7706 114.652 28.4256 112.765 28.4663ZM129.089 28.1137C128.513 28.1262 128.078 27.9755 127.783 27.6618C127.504 27.3478 127.328 26.9595 127.254 26.497C127.18 26.0345 127.135 25.4353 127.119 24.6995C127.099 23.7557 126.955 23.0306 126.688 22.5243C126.421 22.0179 125.999 21.771 125.424 21.7834C124.896 21.7948 124.501 22.0594 124.24 22.5771C123.995 23.0786 123.882 23.7692 123.901 24.649C123.919 25.4968 123.909 26.1371 123.871 26.5701C123.832 27.003 123.68 27.3904 123.416 27.7322C123.15 28.058 122.706 28.2276 122.082 28.2411C121.17 28.2608 120.518 27.6907 120.125 26.5309C119.731 25.3552 119.517 23.9755 119.483 22.3918C119.4 18.5527 120.167 16.6157 121.782 16.5808C122.23 16.5712 122.601 16.6752 122.893 16.8929C123.186 17.0946 123.392 17.3942 123.513 17.7917C123.716 17.5633 124.032 17.3564 124.46 17.1711C124.904 16.9855 125.374 16.8873 125.87 16.8766C127.629 16.8386 128.955 17.4501 129.846 18.7112C130.754 19.9719 131.231 21.698 131.278 23.8895C131.306 25.1852 131.161 26.2125 130.841 26.9716C130.521 27.7147 129.937 28.0954 129.089 28.1137ZM137.811 27.9253C136.676 27.9499 135.662 27.6997 134.77 27.1748C133.894 26.6336 133.215 25.9281 132.732 25.0583C132.249 24.1726 131.996 23.2258 131.975 22.218C131.949 21.0343 132.167 20.0294 132.63 19.2032C133.108 18.3607 133.726 17.7312 134.485 17.3147C135.261 16.8978 136.096 16.6797 136.992 16.6604C137.888 16.641 138.692 16.8157 139.404 17.1844C139.364 16.8492 139.293 16.4907 139.188 16.1088C139.1 15.7266 139.039 15.4879 139.005 15.3926C138.866 14.8995 138.761 14.4857 138.69 14.1511C138.619 13.8166 138.579 13.4814 138.572 13.1454C138.558 12.4736 138.747 11.9574 139.139 11.5968C139.531 11.2363 140.007 11.05 140.567 11.0379C141.463 11.0185 142.2 11.4507 142.78 12.3344C143.359 13.2181 143.783 14.3212 144.051 15.6437C144.336 16.9659 144.493 18.3068 144.522 19.6665C144.562 21.506 144.178 23.3308 143.368 25.1407C142.575 26.9342 140.723 27.8624 137.811 27.9253ZM137.873 24.1311C138.305 24.1218 138.678 23.9537 138.991 23.6268C139.303 23.284 139.455 22.8887 139.445 22.4408C139.436 21.9929 139.267 21.6044 138.94 21.2754C138.613 20.9464 138.233 20.7865 137.801 20.7959C137.369 20.8052 136.989 20.9815 136.66 21.3246C136.348 21.6675 136.196 22.0628 136.206 22.5107C136.216 22.9586 136.384 23.3471 136.711 23.6761C137.054 23.9888 137.441 24.1404 137.873 24.1311Z" fill="black"/>
</svg>
