<svg width="130" height="59" viewBox="0 0 130 59" fill="none" xmlns="http://www.w3.org/2000/svg">
  <path d="M3.30078 8.27149C3.30078 6.06235 5.09164 4.27148 7.30078 4.27148H124.513C126.722 4.27148 128.513 6.06235 128.513 8.27148V37.6182C128.513 39.832 126.715 41.6247 124.501 41.6182L76.7642 41.4775C75.1897 41.4729 73.7589 42.3924 73.109 43.8265L70.0078 50.67C68.6179 53.7371 64.2916 53.8192 62.7863 50.807L59.2164 43.663C58.5368 42.303 57.1449 41.4458 55.6246 41.451L7.31447 41.6163C5.1 41.6239 3.30078 39.8308 3.30078 37.6163V8.27149Z" fill="#866224" stroke="black" stroke-linecap="round"/>
  <path d="M0.599609 5C0.599609 2.79086 2.39047 1 4.59961 1H121.812C124.021 1 125.812 2.79086 125.812 5V34.3467C125.812 36.5605 124.014 38.3532 121.8 38.3467L72.7694 38.2022C71.9821 38.1999 71.2667 38.6596 70.9418 39.3767L65.5732 51.2237C64.8783 52.7573 62.7151 52.7984 61.9625 51.2923L55.9604 39.2813C55.6206 38.6013 54.9247 38.1727 54.1645 38.1753L4.6133 38.3448C2.39882 38.3524 0.599609 36.5593 0.599609 34.3448V5Z" fill="#E9B965" stroke="black" stroke-linecap="round"/>
  <path d="M35.9129 27.2471C34.3769 27.2471 32.9449 26.5671 31.6169 25.2071C30.2889 23.8471 29.2329 22.1831 28.4489 20.2151C27.6649 18.2311 27.2729 16.3911 27.2729 14.6951C27.2729 13.4631 27.5449 12.4551 28.0889 11.6711C28.6329 10.8711 29.4409 10.4711 30.5129 10.4711C31.3929 10.4711 32.1129 10.8071 32.6729 11.4791C33.2489 12.1511 33.6969 12.9751 34.0169 13.9511C34.3369 14.9111 34.6809 16.1751 35.0489 17.7431C35.3849 19.2151 35.6729 20.3031 35.9129 21.0071C36.1209 20.5111 36.3209 19.9191 36.5129 19.2311C36.7049 18.5431 36.8809 17.8631 37.0409 17.1911C37.4089 15.7191 37.7449 14.5351 38.0489 13.6391C38.3689 12.7431 38.7849 11.9911 39.2969 11.3831C39.8089 10.7751 40.4569 10.4711 41.2409 10.4711C42.3129 10.4711 43.1209 10.8551 43.6649 11.6231C44.2089 12.3911 44.4809 13.4151 44.4809 14.6951C44.4809 16.3911 44.0969 18.2311 43.3289 20.2151C42.5609 22.1831 41.5129 23.8471 40.1849 25.2071C38.8729 26.5671 37.4489 27.2471 35.9129 27.2471ZM49.0304 27.2471C47.7824 27.2471 46.7584 26.9671 45.9584 26.4071C45.1584 25.8311 44.7584 25.0071 44.7584 23.9351C44.7584 23.0071 45.1664 22.2711 45.9824 21.7271C46.7984 21.1831 47.8144 20.9111 49.0304 20.9111C49.4784 20.9111 49.8944 20.9511 50.2784 21.0311C50.6784 21.0951 50.9504 21.1751 51.0944 21.2711C51.0944 20.8711 50.9264 20.5431 50.5904 20.2871C50.2544 20.0151 49.7424 19.8791 49.0544 19.8791C48.7504 19.8791 48.5024 19.9031 48.3104 19.9511C48.1184 19.9991 47.9104 20.0711 47.6864 20.1671C47.4624 20.2631 47.2544 20.3351 47.0624 20.3831C46.8864 20.4311 46.6464 20.4551 46.3424 20.4551C45.8304 20.4551 45.4304 20.3271 45.1424 20.0711C44.8544 19.7991 44.7104 19.3911 44.7104 18.8471C44.7104 18.2231 44.9344 17.6951 45.3824 17.2631C45.8464 16.8311 46.4224 16.5111 47.1104 16.3031C47.7984 16.0791 48.4864 15.9671 49.1744 15.9671C50.5344 15.9671 51.6704 16.2231 52.5824 16.7351C53.5104 17.2311 54.1904 17.8951 54.6224 18.7271C55.0704 19.5591 55.2944 20.4791 55.2944 21.4871C55.2944 22.0311 55.2464 22.5351 55.1504 22.9991C55.0704 23.4631 54.9584 23.8231 54.8144 24.0791C55.0384 24.2711 55.2064 24.4951 55.3184 24.7511C55.4464 25.0071 55.5104 25.2711 55.5104 25.5431C55.5104 26.0071 55.3504 26.4071 55.0304 26.7431C54.7264 27.0791 54.3184 27.2471 53.8064 27.2471C53.4224 27.2471 53.1104 27.1911 52.8704 27.0791C52.6304 26.9671 52.3744 26.7911 52.1024 26.5511C51.7024 26.7911 51.2624 26.9671 50.7824 27.0791C50.3184 27.1911 49.7344 27.2471 49.0304 27.2471ZM49.5104 24.8231C49.8464 24.8231 50.1104 24.7511 50.3024 24.6071C50.5104 24.4631 50.6144 24.2871 50.6144 24.0791C50.6144 23.8711 50.5104 23.6951 50.3024 23.5511C50.1104 23.4071 49.8464 23.3351 49.5104 23.3351C49.1744 23.3351 48.9024 23.4071 48.6944 23.5511C48.5024 23.6951 48.4064 23.8711 48.4064 24.0791C48.4064 24.2871 48.5024 24.4631 48.6944 24.6071C48.9024 24.7511 49.1744 24.8231 49.5104 24.8231ZM62.0496 27.2471C60.8816 27.2471 59.8576 26.9591 58.9776 26.3831C58.0976 25.7911 57.4176 24.9751 56.9376 23.9351C56.4736 22.8791 56.2416 21.6631 56.2416 20.2871C56.2416 18.9431 56.4576 17.8871 56.8896 17.1191C57.3216 16.3511 57.9216 15.9671 58.6896 15.9671C60.0496 15.9671 60.7296 16.6631 60.7296 18.0551C60.7296 18.3431 60.7216 18.5991 60.7056 18.8231C60.6896 19.0311 60.6736 19.2151 60.6576 19.3751C60.5936 20.0151 60.5616 20.5271 60.5616 20.9111C60.5616 21.6151 60.7056 22.1511 60.9936 22.5191C61.2816 22.8871 61.6336 23.0711 62.0496 23.0711C62.4816 23.0711 62.8336 22.8951 63.1056 22.5431C63.3936 22.1751 63.5376 21.6311 63.5376 20.9111C63.5376 20.3991 63.5136 19.9271 63.4656 19.4951C63.4496 19.3511 63.4336 19.1431 63.4176 18.8711C63.4016 18.5831 63.3936 18.3191 63.3936 18.0791C63.3936 16.6711 64.0736 15.9671 65.4336 15.9671C66.2016 15.9671 66.7936 16.3511 67.2096 17.1191C67.6416 17.8711 67.8576 18.9271 67.8576 20.2871C67.8576 22.4151 67.3616 24.1111 66.3696 25.3751C65.3776 26.6231 63.9376 27.2471 62.0496 27.2471ZM71.7059 27.1991C70.9059 27.1991 70.3059 26.9031 69.9059 26.3111C69.5059 25.7191 69.2339 24.8471 69.0899 23.6951C68.9619 22.5271 68.8979 20.9031 68.8979 18.8231C68.8979 16.8231 68.9459 15.2631 69.0419 14.1431C69.1539 13.0231 69.4099 12.1271 69.8099 11.4551C70.2259 10.7831 70.8659 10.4471 71.7299 10.4471C72.5939 10.4471 73.2259 10.7831 73.6259 11.4551C74.0419 12.1271 74.2979 13.0231 74.3939 14.1431C74.5059 15.2631 74.5619 16.8231 74.5619 18.8231C74.5619 20.7911 74.4739 22.3831 74.2979 23.5991C74.1379 24.7991 73.8499 25.7031 73.4339 26.3111C73.0179 26.9031 72.4419 27.1991 71.7059 27.1991ZM87.477 16.8551C87.477 17.6871 87.085 18.2551 86.301 18.5591C85.517 18.8471 84.445 18.9991 83.085 19.0151C83.069 19.4151 83.061 20.0631 83.061 20.9591C83.061 21.8711 83.125 22.5191 83.253 22.9031C83.333 23.1751 83.453 23.3511 83.613 23.4311C83.789 23.5111 84.045 23.5671 84.381 23.5991C84.493 23.6151 84.613 23.6391 84.741 23.6711C84.885 23.6871 85.045 23.7111 85.221 23.7431C85.589 23.8231 85.877 24.0231 86.085 24.3431C86.293 24.6471 86.397 25.0391 86.397 25.5191C86.397 26.0631 86.117 26.4871 85.557 26.7911C84.997 27.0951 84.229 27.2471 83.253 27.2471C82.357 27.2471 81.501 26.9911 80.685 26.4791C79.869 25.9511 79.309 25.2471 79.005 24.3671C78.685 23.4231 78.525 21.6391 78.525 19.0151C77.405 18.9831 76.501 18.8391 75.813 18.5831C75.141 18.3111 74.805 17.8311 74.805 17.1431C74.805 16.2791 75.125 15.7031 75.765 15.4151C76.405 15.1111 77.325 14.9511 78.525 14.9351C78.573 13.6551 78.773 12.5911 79.125 11.7431C79.477 10.8791 80.109 10.4471 81.021 10.4471C81.949 10.4471 82.549 10.8471 82.821 11.6471C83.109 12.4471 83.237 13.5431 83.205 14.9351C84.661 14.9191 85.733 15.0311 86.421 15.2711C87.125 15.5111 87.477 16.0391 87.477 16.8551ZM92.0918 27.2471C90.6838 27.2471 89.5638 27.0151 88.7318 26.5511C87.8998 26.0871 87.4838 25.4871 87.4838 24.7511C87.4838 24.2711 87.6438 23.9031 87.9638 23.6471C88.2998 23.3751 88.7238 23.2391 89.2358 23.2391C89.5238 23.2391 89.7558 23.2791 89.9318 23.3591C90.1078 23.4391 90.2838 23.5511 90.4598 23.6951C90.5878 23.8071 90.6918 23.8871 90.7718 23.9351C90.8678 23.9831 90.9798 24.0071 91.1078 24.0071C91.4438 24.0071 91.6118 23.8871 91.6118 23.6471C91.6118 23.4231 91.5238 23.2551 91.3478 23.1431C91.1718 23.0151 90.8678 22.8631 90.4358 22.6871C90.0358 22.5271 89.7718 22.4151 89.6438 22.3511C88.9078 21.9991 88.3638 21.5831 88.0118 21.1031C87.6598 20.6231 87.4838 20.1111 87.4838 19.5671C87.4838 18.9591 87.6998 18.3831 88.1318 17.8391C88.5798 17.2791 89.2038 16.8311 90.0038 16.4951C90.8198 16.1431 91.7558 15.9671 92.8118 15.9671C93.7238 15.9671 94.5478 16.0951 95.2838 16.3511C96.0358 16.6071 96.6278 16.9591 97.0598 17.4071C97.4918 17.8391 97.7078 18.3191 97.7078 18.8471C97.7078 19.3431 97.5478 19.7191 97.2278 19.9751C96.9238 20.2311 96.5078 20.3591 95.9798 20.3591C95.7718 20.3591 95.6038 20.3431 95.4758 20.3111C95.3638 20.2631 95.2118 20.1911 95.0198 20.0951C94.9078 20.0311 94.7878 19.9751 94.6598 19.9271C94.5478 19.8791 94.4198 19.8551 94.2758 19.8551C94.1478 19.8551 94.0358 19.9031 93.9398 19.9991C93.8438 20.0791 93.7958 20.1831 93.7958 20.3111C93.7958 20.5511 93.9718 20.7271 94.3238 20.8391C95.2518 21.1431 95.9958 21.5271 96.5558 21.9911C97.1318 22.4551 97.4198 23.0951 97.4198 23.9111C97.4198 24.9511 96.9318 25.7671 95.9558 26.3591C94.9958 26.9511 93.7078 27.2471 92.0918 27.2471Z" fill="black"/>
</svg>
