<svg width="86" height="69" viewBox="0 0 86 69" fill="none" xmlns="http://www.w3.org/2000/svg">
  <circle cx="42.0981" cy="24.1153" r="20.7567" transform="rotate(-3.28365 42.0981 24.1153)" fill="#FFBB46" stroke="#FFE2A8" stroke-width="3" stroke-linecap="round" stroke-linejoin="round"/>
  <mask id="mask0_30499_5721" style="mask-type:alpha" maskUnits="userSpaceOnUse" x="23" y="5" width="39" height="39">
    <circle cx="42.0981" cy="24.1153" r="19.0772" transform="rotate(-3.28365 42.0981 24.1153)" fill="#FFBB46"/>
  </mask>
  <g mask="url(#mask0_30499_5721)">
    <mask id="path-3-outside-1_30499_5721" maskUnits="userSpaceOnUse" x="27.5582" y="7.54137" width="30.3597" height="43.5349" fill="black">
      <rect fill="white" x="27.5582" y="7.54137" width="30.3597" height="43.5349"/>
      <path fill-rule="evenodd" clip-rule="evenodd" d="M48.0737 12.814C48.1183 13.5912 47.8457 14.3133 47.3683 14.8543C50.0325 16.7956 51.3978 20.0558 52.0712 23.0327L52.1327 23.0639C52.7524 23.3761 54.1055 24.058 53.8204 26.2723C53.5896 28.065 51.9111 29.549 48.7146 30.252C50.562 31.6208 52.5672 34.6926 53.1988 36.0417C54.4946 38.8098 53.6095 39.7672 51.9096 39.8647C52.0037 39.3691 51.9958 38.8226 51.9075 38.2476C51.5353 35.8222 49.7342 32.8911 48.1404 31.1442L47.9835 30.3944L47.9829 30.3945L48.1399 31.1453C49.7337 32.8921 51.5348 35.8232 51.9071 38.2487C51.9953 38.8236 52.0033 39.3701 51.9091 39.8657C51.7258 40.525 51.2041 41.2025 51.2041 41.2025L50.8773 45.414C51.813 45.6213 52.2114 47.6115 51.0073 47.6806L46.545 47.9366C45.6242 47.9894 45.0448 45.3222 44.9514 43.6932C44.9514 43.6932 44.1651 44.852 43.8638 45.7931C45.0963 46.2198 45.1993 48.0138 43.641 48.1032C43.1292 48.1326 42.7783 48.1604 42.4223 48.1886L42.4222 48.1886L42.4222 48.1886C41.6944 48.2462 40.9452 48.3056 38.7564 48.3835C37.7882 48.4179 37.3034 46.6015 37.0619 44.9021C36.8641 44.977 36.6517 45.0234 36.4293 45.0362C35.2558 45.1035 34.2498 44.2068 34.1825 43.0332C34.1757 42.9154 34.1787 42.7992 34.1907 42.6856C33.0165 42.2978 32.0265 41.4033 31.8629 39.6875C31.5217 36.1077 36.1046 31.8579 37.5586 31.2561C37.6435 31.2209 37.7288 31.1908 37.8137 31.1656C37.8432 31.064 37.8676 30.9758 37.8862 30.9023C35.637 30.7281 33.639 30.142 32.1499 28.6527C29.0711 25.5732 30.8113 21.4414 32.5069 18.0819C31.4277 17.5437 30.659 16.4583 30.585 15.1681C30.475 13.2513 31.9398 11.6083 33.8566 11.4983C35.4797 11.4052 36.9065 12.4412 37.3724 13.9247C38.5935 13.4344 40.0156 13.1213 41.6245 13.1147C41.8917 13.1136 42.1525 13.1211 42.4072 13.1367C42.3187 11.573 43.514 10.233 45.078 10.1433C46.6427 10.0535 47.9839 11.2492 48.0737 12.814Z"/>
    </mask>
    <path fill-rule="evenodd" clip-rule="evenodd" d="M48.0737 12.814C48.1183 13.5912 47.8457 14.3133 47.3683 14.8543C50.0325 16.7956 51.3978 20.0558 52.0712 23.0327L52.1327 23.0639C52.7524 23.3761 54.1055 24.058 53.8204 26.2723C53.5896 28.065 51.9111 29.549 48.7146 30.252C50.562 31.6208 52.5672 34.6926 53.1988 36.0417C54.4946 38.8098 53.6095 39.7672 51.9096 39.8647C52.0037 39.3691 51.9958 38.8226 51.9075 38.2476C51.5353 35.8222 49.7342 32.8911 48.1404 31.1442L47.9835 30.3944L47.9829 30.3945L48.1399 31.1453C49.7337 32.8921 51.5348 35.8232 51.9071 38.2487C51.9953 38.8236 52.0033 39.3701 51.9091 39.8657C51.7258 40.525 51.2041 41.2025 51.2041 41.2025L50.8773 45.414C51.813 45.6213 52.2114 47.6115 51.0073 47.6806L46.545 47.9366C45.6242 47.9894 45.0448 45.3222 44.9514 43.6932C44.9514 43.6932 44.1651 44.852 43.8638 45.7931C45.0963 46.2198 45.1993 48.0138 43.641 48.1032C43.1292 48.1326 42.7783 48.1604 42.4223 48.1886L42.4222 48.1886L42.4222 48.1886C41.6944 48.2462 40.9452 48.3056 38.7564 48.3835C37.7882 48.4179 37.3034 46.6015 37.0619 44.9021C36.8641 44.977 36.6517 45.0234 36.4293 45.0362C35.2558 45.1035 34.2498 44.2068 34.1825 43.0332C34.1757 42.9154 34.1787 42.7992 34.1907 42.6856C33.0165 42.2978 32.0265 41.4033 31.8629 39.6875C31.5217 36.1077 36.1046 31.8579 37.5586 31.2561C37.6435 31.2209 37.7288 31.1908 37.8137 31.1656C37.8432 31.064 37.8676 30.9758 37.8862 30.9023C35.637 30.7281 33.639 30.142 32.1499 28.6527C29.0711 25.5732 30.8113 21.4414 32.5069 18.0819C31.4277 17.5437 30.659 16.4583 30.585 15.1681C30.475 13.2513 31.9398 11.6083 33.8566 11.4983C35.4797 11.4052 36.9065 12.4412 37.3724 13.9247C38.5935 13.4344 40.0156 13.1213 41.6245 13.1147C41.8917 13.1136 42.1525 13.1211 42.4072 13.1367C42.3187 11.573 43.514 10.233 45.078 10.1433C46.6427 10.0535 47.9839 11.2492 48.0737 12.814Z" fill="black"/>
    <path d="M47.3683 14.8543L45.8688 13.5309L44.4156 15.1774L46.1905 16.4707L47.3683 14.8543ZM52.0712 23.0327L50.1205 23.474L50.3283 24.3927L51.1689 24.8176L52.0712 23.0327ZM52.1327 23.0639L51.2304 24.8488L51.2327 24.8499L52.1327 23.0639ZM53.8204 26.2723L51.8368 26.017L53.8204 26.2723ZM48.7146 30.252L48.285 28.2987L43.9928 29.2426L47.5239 31.8589L48.7146 30.252ZM53.1988 36.0417L51.3874 36.8896L51.3874 36.8896L53.1988 36.0417ZM51.9096 39.8647L49.9447 39.4916L49.4668 42.0082L52.0242 41.8614L51.9096 39.8647ZM51.9075 38.2476L49.9307 38.551L49.9307 38.551L51.9075 38.2476ZM48.1404 31.1442L46.1828 31.5537L46.2946 32.0886L46.6629 32.4923L48.1404 31.1442ZM47.9835 30.3944L49.9412 29.9849L49.5463 28.0971L47.6454 28.4232L47.9835 30.3944ZM47.9829 30.3945L47.6448 28.4233L45.6006 28.7739L46.0252 30.804L47.9829 30.3945ZM48.1399 31.1453L46.1823 31.5548L46.2942 32.0896L46.6625 32.4933L48.1399 31.1453ZM51.9071 38.2487L53.8839 37.9453L53.8839 37.9453L51.9071 38.2487ZM51.9091 39.8657L53.836 40.4016L53.8584 40.3211L53.874 40.2389L51.9091 39.8657ZM51.2041 41.2025L49.6194 39.9824L49.2562 40.4542L49.2101 41.0478L51.2041 41.2025ZM50.8773 45.414L48.8833 45.2592L48.7488 46.991L50.4448 47.3667L50.8773 45.414ZM51.0073 47.6806L51.1219 49.6773L51.0073 47.6806ZM46.545 47.9366L46.4305 45.9399L46.545 47.9366ZM44.9514 43.6932L46.9481 43.5786L46.61 37.6865L43.2964 42.5702L44.9514 43.6932ZM43.8638 45.7931L41.959 45.1832L41.3633 47.0439L43.2095 47.683L43.8638 45.7931ZM42.4223 48.1886L42.5368 50.1853L42.5585 50.1841L42.5802 50.1823L42.4223 48.1886ZM42.4222 48.1886L42.5368 50.1853L42.5368 50.1853L42.4222 48.1886ZM42.4222 48.1886L42.3076 46.1919L42.2859 46.1931L42.2642 46.1948L42.4222 48.1886ZM38.7564 48.3835L38.8275 50.3822L38.8275 50.3822L38.7564 48.3835ZM37.0619 44.9021L39.042 44.6207L38.6905 42.1468L36.3536 43.0317L37.0619 44.9021ZM34.1907 42.6856L36.1797 42.8952L36.3487 41.292L34.8178 40.7864L34.1907 42.6856ZM31.8629 39.6875L29.8719 39.8773L29.8719 39.8773L31.8629 39.6875ZM37.5586 31.2561L36.7937 29.4081L36.7937 29.4081L37.5586 31.2561ZM37.8137 31.1656L38.3831 33.0828L39.4305 32.7718L39.7347 31.7224L37.8137 31.1656ZM37.8862 30.9023L39.825 31.3933L40.4078 29.0917L38.0407 28.9083L37.8862 30.9023ZM32.1499 28.6527L30.7355 30.0667L30.7355 30.0667L32.1499 28.6527ZM32.5069 18.0819L34.2923 18.9831L35.1979 17.189L33.3994 16.2921L32.5069 18.0819ZM37.3724 13.9247L35.4642 14.5239L36.1118 16.586L38.1175 15.7807L37.3724 13.9247ZM41.6245 13.1147L41.6163 11.1147L41.6163 11.1147L41.6245 13.1147ZM42.4072 13.1367L42.2847 15.133L44.5311 15.2708L44.404 13.0238L42.4072 13.1367ZM48.8678 16.1777C49.6797 15.2577 50.1464 14.0238 50.0704 12.6994L46.077 12.9285C46.0902 13.1586 46.0117 13.3689 45.8688 13.5309L48.8678 16.1777ZM54.0219 22.5915C53.308 19.4357 51.7908 15.6021 48.5461 13.2379L46.1905 16.4707C48.2742 17.989 49.4875 20.6759 50.1205 23.474L54.0219 22.5915ZM53.0351 21.279L52.9735 21.2479L51.1689 24.8176L51.2304 24.8488L53.0351 21.279ZM55.804 26.5277C56.0076 24.9468 55.6344 23.6735 54.8916 22.7232C54.209 21.8499 53.3423 21.4338 53.0328 21.2778L51.2327 24.8499C51.5428 25.0062 51.6625 25.0872 51.7401 25.1865C51.7676 25.2217 51.8006 25.2745 51.8255 25.3725C51.8517 25.4758 51.8806 25.6769 51.8368 26.017L55.804 26.5277ZM49.1442 32.2053C52.6322 31.4383 55.4094 29.5933 55.804 26.5277L51.8368 26.017C51.7699 26.5366 51.19 27.6598 48.285 28.2987L49.1442 32.2053ZM55.0101 35.1937C54.6241 34.3691 53.8892 33.1509 53.0262 31.9725C52.1743 30.8093 51.0703 29.5083 49.9053 28.645L47.5239 31.8589C48.2062 32.3645 49.0286 33.2838 49.799 34.3359C50.5584 35.3728 51.1419 36.3652 51.3874 36.8896L55.0101 35.1937ZM52.0242 41.8614C53.1004 41.7997 54.7519 41.4234 55.4981 39.7827C56.1601 38.3272 55.6987 36.6646 55.0101 35.1937L51.3874 36.8896C51.6622 37.4765 51.7711 37.8645 51.8056 38.0922C51.8395 38.3164 51.7867 38.2813 51.857 38.1266C51.9416 37.9407 52.0833 37.8424 52.1359 37.8168C52.153 37.8085 52.0643 37.8526 51.795 37.868L52.0242 41.8614ZM49.9307 38.551C49.9942 38.965 49.9859 39.2746 49.9447 39.4916L53.8745 40.2379C54.0215 39.4636 53.9973 38.6801 53.8844 37.9442L49.9307 38.551ZM46.6629 32.4923C48.1161 34.085 49.6413 36.6656 49.9307 38.551L53.8844 37.9442C53.4292 34.9788 51.3522 31.6971 49.6178 29.7962L46.6629 32.4923ZM46.0259 30.8039L46.1828 31.5537L50.098 30.7347L49.9412 29.9849L46.0259 30.8039ZM48.321 32.3657L48.3216 32.3656L47.6454 28.4232L47.6448 28.4233L48.321 32.3657ZM50.0975 30.7358L49.9405 29.985L46.0252 30.804L46.1823 31.5548L50.0975 30.7358ZM53.8839 37.9453C53.4288 34.9798 51.3518 31.6982 49.6174 29.7972L46.6625 32.4933C48.1157 34.086 49.6408 36.6666 49.9302 38.5521L53.8839 37.9453ZM53.874 40.2389C54.0211 39.4646 53.9969 38.6812 53.8839 37.9453L49.9302 38.5521C49.9937 38.966 49.9854 39.2757 49.9443 39.4926L53.874 40.2389ZM51.2041 41.2025C52.7889 42.4226 52.789 42.4224 52.7892 42.4222C52.7893 42.4221 52.7895 42.4218 52.7896 42.4217C52.7899 42.4213 52.7901 42.421 52.7904 42.4207C52.7909 42.4199 52.7915 42.4192 52.7921 42.4184C52.7933 42.4168 52.7947 42.415 52.7962 42.4131C52.7991 42.4092 52.8026 42.4046 52.8066 42.3993C52.8146 42.3888 52.8245 42.3755 52.8362 42.3597C52.8595 42.3281 52.89 42.286 52.926 42.2347C52.9973 42.1331 53.0927 41.9913 53.1961 41.8216C53.3868 41.5085 53.672 40.9915 53.836 40.4016L49.9823 39.3299C49.963 39.3993 49.8957 39.5507 49.7797 39.7411C49.7297 39.8232 49.6833 39.892 49.651 39.938C49.6352 39.9606 49.6236 39.9765 49.6177 39.9846C49.6147 39.9885 49.6133 39.9905 49.6135 39.9902C49.6136 39.9901 49.6141 39.9893 49.6151 39.9881C49.6156 39.9874 49.6162 39.9866 49.6169 39.9857C49.6173 39.9852 49.6177 39.9847 49.6181 39.9842C49.6183 39.9839 49.6185 39.9836 49.6187 39.9833C49.6188 39.9832 49.619 39.9829 49.6191 39.9829C49.6192 39.9826 49.6194 39.9824 51.2041 41.2025ZM52.8713 45.5688L53.1981 41.3573L49.2101 41.0478L48.8833 45.2592L52.8713 45.5688ZM51.1219 49.6773C52.0645 49.6232 52.8818 49.1372 53.3505 48.3403C53.7593 47.6453 53.7976 46.9011 53.7295 46.3527C53.6589 45.7843 53.4501 45.2043 53.106 44.7073C52.769 44.2208 52.1841 43.655 51.3098 43.4613L50.4448 47.3667C50.0383 47.2766 49.854 47.0374 49.8174 46.9844C49.7735 46.9211 49.7645 46.8818 49.7599 46.8455C49.7579 46.8292 49.7285 46.6085 49.9026 46.3125C49.999 46.1487 50.1495 45.9811 50.3577 45.8563C50.5648 45.7322 50.7603 45.6915 50.8927 45.6839L51.1219 49.6773ZM46.6596 49.9333L51.1219 49.6773L50.8927 45.6839L46.4305 45.9399L46.6596 49.9333ZM42.9546 43.8077C43.009 44.7548 43.2 45.9961 43.5301 47.0455C43.6907 47.5564 43.9244 48.1542 44.2754 48.662C44.5749 49.0954 45.3503 50.0084 46.6596 49.9333L46.4305 45.9399C46.8375 45.9165 47.1566 46.0568 47.3432 46.1841C47.4302 46.2435 47.4875 46.2986 47.5189 46.3319C47.5506 46.3655 47.5654 46.3869 47.566 46.3879C47.567 46.3894 47.5595 46.3784 47.5449 46.3515C47.5305 46.3249 47.512 46.2877 47.4902 46.2385C47.446 46.1384 47.3967 46.0075 47.3458 45.8457C47.1326 45.1675 46.9872 44.2606 46.9481 43.5786L42.9546 43.8077ZM45.7685 46.403C45.8532 46.1384 46.0396 45.7607 46.2544 45.3872C46.3537 45.2145 46.4454 45.0661 46.5116 44.962C46.5444 44.9103 46.5704 44.8705 46.5871 44.8452C46.5954 44.8325 46.6014 44.8235 46.6047 44.8186C46.6064 44.8161 46.6074 44.8146 46.6077 44.8142C46.6078 44.814 46.6078 44.814 46.6076 44.8143C46.6075 44.8145 46.6073 44.8147 46.6071 44.815C46.607 44.8152 46.6069 44.8153 46.6068 44.8155C46.6067 44.8156 46.6066 44.8157 46.6066 44.8158C46.6065 44.8159 46.6064 44.8161 44.9514 43.6932C43.2964 42.5702 43.2963 42.5704 43.2961 42.5706C43.2961 42.5706 43.296 42.5708 43.2959 42.5709C43.2957 42.5712 43.2955 42.5715 43.2953 42.5717C43.295 42.5723 43.2945 42.573 43.294 42.5737C43.2931 42.5751 43.2919 42.5768 43.2905 42.5789C43.2878 42.5829 43.2844 42.588 43.2802 42.5943C43.2719 42.6067 43.2607 42.6236 43.2469 42.6444C43.2194 42.6861 43.1816 42.7442 43.136 42.8159C43.0454 42.9585 42.9217 43.1586 42.7868 43.3932C42.5331 43.8344 42.1756 44.5067 41.959 45.1832L45.7685 46.403ZM43.7556 50.0999C44.5355 50.0552 45.3121 49.7786 45.9102 49.1892C46.5051 48.6031 46.7772 47.8495 46.7981 47.133C46.8386 45.745 45.9587 44.4019 44.5181 43.9031L43.2095 47.683C43.0014 47.611 42.7892 47.3782 42.7998 47.0163C42.8057 46.8129 42.8884 46.5512 43.1028 46.3399C43.2043 46.2399 43.3099 46.1777 43.396 46.1428C43.4797 46.1088 43.5299 46.1063 43.5264 46.1065L43.7556 50.0999ZM42.5802 50.1823C42.9336 50.1543 43.2665 50.128 43.7556 50.0999L43.5264 46.1065C42.9918 46.1372 42.6229 46.1664 42.2643 46.1948L42.5802 50.1823ZM42.5368 50.1853L42.5368 50.1853L42.3077 46.1919L42.3077 46.1919L42.5368 50.1853ZM42.5367 50.1853L42.5368 50.1853L42.3077 46.1919L42.3076 46.1919L42.5367 50.1853ZM38.8275 50.3822C41.0459 50.3033 41.824 50.2422 42.5801 50.1823L42.2642 46.1948C41.5648 46.2503 40.8446 46.3079 38.6853 46.3847L38.8275 50.3822ZM35.0818 45.1834C35.2092 46.0799 35.4181 47.157 35.787 48.0538C35.9695 48.4975 36.2452 49.0337 36.6783 49.4822C37.1434 49.9639 37.8725 50.4162 38.8275 50.3822L38.6853 46.3847C39.1562 46.368 39.4616 46.6061 39.5559 46.7038C39.6183 46.7684 39.5761 46.7506 39.4863 46.5321C39.3103 46.1045 39.1561 45.4237 39.042 44.6207L35.0818 45.1834ZM36.5439 47.0329C36.9718 47.0084 37.3843 46.9186 37.7702 46.7725L36.3536 43.0317C36.3439 43.0354 36.3316 43.0385 36.3147 43.0395L36.5439 47.0329ZM32.1858 43.1478C32.3164 45.4241 34.2676 47.1635 36.5439 47.0329L36.3147 43.0395C36.244 43.0435 36.1833 42.9894 36.1792 42.9186L32.1858 43.1478ZM32.2017 42.4759C32.1784 42.6968 32.1728 42.9214 32.1858 43.1478L36.1792 42.9186C36.1787 42.9093 36.179 42.9016 36.1797 42.8952L32.2017 42.4759ZM29.8719 39.8773C29.9884 41.0993 30.4172 42.1507 31.1257 42.9819C31.8238 43.8009 32.7024 44.3003 33.5635 44.5847L34.8178 40.7864C34.5048 40.6831 34.3013 40.5413 34.1699 40.3872C34.049 40.2453 33.901 39.9915 33.8539 39.4978L29.8719 39.8773ZM36.7937 29.4081C36.1294 29.6831 35.3755 30.2313 34.7057 30.8055C33.9897 31.4192 33.206 32.2048 32.4838 33.0957C31.1289 34.7673 29.6228 37.2637 29.8719 39.8773L33.8539 39.4978C33.7618 38.5316 34.3766 37.1131 35.5913 35.6144C36.154 34.9202 36.7672 34.3067 37.3089 33.8424C37.5791 33.6108 37.8189 33.4271 38.0131 33.2941C38.2225 33.1505 38.3236 33.104 38.3235 33.104L36.7937 29.4081ZM37.2444 29.2483C37.0933 29.2932 36.9428 29.3464 36.7937 29.4081L38.3235 33.104C38.3443 33.0954 38.3642 33.0884 38.3831 33.0828L37.2444 29.2483ZM35.9474 30.4114C35.9365 30.4543 35.9189 30.5186 35.8928 30.6088L39.7347 31.7224C39.7674 31.6094 39.7986 31.4973 39.825 31.3933L35.9474 30.4114ZM30.7355 30.0667C32.7052 32.0368 35.2578 32.7047 37.7317 32.8964L38.0407 28.9083C36.0162 28.7515 34.5728 28.2473 33.5643 27.2386L30.7355 30.0667ZM30.7214 17.1807C29.8732 18.8612 28.8712 20.9944 28.558 23.1899C28.2291 25.4959 28.6512 27.982 30.7355 30.0667L33.5643 27.2386C32.5698 26.2439 32.3226 25.1243 32.518 23.7547C32.7291 22.2745 33.4449 20.6621 34.2923 18.9831L30.7214 17.1807ZM33.3994 16.2921C32.9357 16.0609 32.613 15.5989 32.5817 15.0535L28.5883 15.2826C28.7051 17.3177 29.9196 19.0266 31.6143 19.8717L33.3994 16.2921ZM32.5817 15.0535C32.535 14.2395 33.1571 13.5417 33.9711 13.495L33.742 9.50158C30.7224 9.67482 28.4151 12.2631 28.5883 15.2826L32.5817 15.0535ZM33.9711 13.495C34.6577 13.4556 35.2663 13.8936 35.4642 14.5239L39.2805 13.3255C38.5467 10.9888 36.3016 9.35472 33.742 9.50158L33.9711 13.495ZM41.6163 11.1147C39.7482 11.1224 38.0764 11.4869 36.6272 12.0687L38.1175 15.7807C39.1106 15.382 40.283 15.1202 41.6327 15.1147L41.6163 11.1147ZM42.5297 11.1405C42.2305 11.1221 41.9261 11.1135 41.6163 11.1147L41.6327 15.1147C41.8573 15.1138 42.0745 15.1201 42.2847 15.133L42.5297 11.1405ZM44.9634 8.14659C42.2972 8.29956 40.2596 10.5838 40.4104 13.2497L44.404 13.0238C44.3779 12.5621 44.7308 12.1665 45.1925 12.14L44.9634 8.14659ZM50.0704 12.6994C49.9174 10.0319 47.6309 7.99355 44.9634 8.14659L45.1925 12.14C45.6545 12.1135 46.0505 12.4665 46.077 12.9285L50.0704 12.6994Z" fill="#D39924" mask="url(#path-3-outside-1_30499_5721)"/>
    <path d="M42.0452 26.8983C41.5514 26.9266 41.1542 26.7867 40.8534 26.4784C40.5518 26.156 40.3868 25.7479 40.3585 25.2541C40.3132 24.464 40.4821 23.8315 40.8654 23.3566C40.9851 23.2223 41.1716 23.0206 41.4251 22.7512C41.6794 22.496 41.8656 22.2872 41.9837 22.1247C42.1017 21.9622 42.1559 21.7963 42.1462 21.627C42.1308 21.359 42.0705 21.1714 41.9653 21.0642C41.8592 20.9429 41.7004 20.8883 41.4888 20.9004C41.2913 20.9118 41.1331 20.9916 41.0142 21.14C40.9086 21.2734 40.8635 21.4742 40.8789 21.7422C40.9064 22.2219 40.7249 22.6357 40.3344 22.9837C39.9431 23.3175 39.437 23.5022 38.8163 23.5379C38.1955 23.5735 37.6826 23.3906 37.2774 22.9892C36.8855 22.5729 36.6672 21.9768 36.6227 21.2008C36.5855 20.5519 36.7669 19.8903 37.167 19.2163C37.5672 18.5422 38.1431 17.9713 38.8947 17.5035C39.6605 17.035 40.5301 16.7728 41.5035 16.7169C42.4911 16.6603 43.3842 16.8072 44.1828 17.1577C44.9814 17.5082 45.6114 18.0029 46.0726 18.6416C46.5331 19.2663 46.7844 19.9455 46.8265 20.6791C46.8694 21.4268 46.7643 22.0627 46.5113 22.5868C46.2716 23.096 45.976 23.4951 45.6246 23.7842C45.2864 24.0584 44.8711 24.3441 44.3786 24.6413C44.0771 24.8143 43.8724 24.9463 43.7644 25.0374C43.6556 25.1145 43.604 25.2023 43.6097 25.3011C43.6315 25.682 43.5032 26.0362 43.2248 26.3635C42.9463 26.6909 42.5531 26.8692 42.0452 26.8983ZM42.0919 27.3415C41.4711 27.3771 40.9413 27.6411 40.5025 28.1333C40.0769 28.6107 39.8819 29.1598 39.9176 29.7805C39.9532 30.4013 40.2101 30.9315 40.6882 31.3711C41.1797 31.7959 41.7358 31.9904 42.3566 31.9548C42.9773 31.9192 43.5075 31.6623 43.9472 31.1842C44.386 30.6919 44.5877 30.1354 44.5521 29.5146C44.5164 28.8939 44.2529 28.3711 43.7614 27.9464C43.2692 27.5075 42.7126 27.3059 42.0919 27.3415Z" fill="#FFE0A2"/>
  </g>
  <path d="M8.67959 64.4827C6.69631 64.6693 5.16072 64.3286 4.07282 63.4607C2.99685 62.5916 2.35006 61.0705 2.13243 58.8974C1.93512 56.9272 2.25788 55.3331 3.1007 54.1151C3.94232 52.8851 5.23477 52.1828 6.97805 52.0082C8.05267 51.9006 9.00613 51.9679 9.83841 52.2102C10.6707 52.4525 11.3317 52.8506 11.8213 53.4045C12.3109 53.9585 12.5964 54.6415 12.6777 55.4534C12.7423 56.0982 12.6564 56.6857 12.4201 57.2158C12.1957 57.7448 11.8286 58.2339 11.3188 58.6829C11.7677 58.7103 12.1737 58.9108 12.5368 59.2845C12.9118 59.657 13.1262 60.1119 13.18 60.6492C13.2374 61.2223 13.1366 61.7812 12.8775 62.3257C12.6293 62.8571 12.1571 63.3204 11.461 63.7158C10.7769 64.1099 9.84974 64.3656 8.67959 64.4827ZM6.77473 57.9259C7.00042 58.0119 7.27445 58.0387 7.59684 58.0064C7.97893 57.9681 8.29832 57.8457 8.55501 57.6391C8.82244 57.4194 8.93762 57.1244 8.90056 56.7543C8.86468 56.3961 8.69449 56.1417 8.38999 55.9913C8.09623 55.8278 7.75234 55.7658 7.35831 55.8052C7.04786 55.8363 6.79056 55.9163 6.58639 56.0453C6.4264 56.1337 6.31359 56.2716 6.24794 56.4591C6.1823 56.6466 6.15964 56.8418 6.17997 57.0448C6.2003 57.2478 6.26122 57.4347 6.36274 57.6054C6.46306 57.7642 6.60039 57.871 6.77473 57.9259ZM7.19445 62.117C7.43088 62.1898 7.70432 62.2106 8.01477 62.1795C8.39686 62.1413 8.71744 62.0308 8.97652 61.848C9.24635 61.6522 9.36512 61.3931 9.33283 61.0707C9.30174 60.7602 9.13454 60.5358 8.83123 60.3973C8.52793 60.2588 8.18523 60.2087 7.80314 60.247C7.50463 60.2769 7.24673 60.351 7.02943 60.4692C6.86944 60.5576 6.75543 60.6836 6.68739 60.8472C6.61816 60.9988 6.59251 61.1642 6.61045 61.3433C6.62839 61.5224 6.68692 61.6854 6.78604 61.8322C6.88398 61.9672 7.02011 62.0621 7.19445 62.117ZM18.5825 63.5091C17.6989 63.5976 16.8995 63.5028 16.1842 63.2247C15.4689 62.9466 14.8892 62.5162 14.4449 61.9336C14.0114 61.3378 13.7551 60.6459 13.6762 59.8578C13.5985 59.0817 13.7118 58.3468 14.0162 57.653C14.3325 56.958 14.8053 56.38 15.4345 55.919C16.0637 55.458 16.8021 55.1851 17.6499 55.1002C18.4141 55.0236 19.1042 55.1113 19.7204 55.3632C20.3366 55.615 20.8256 55.9821 21.1875 56.4644C21.5481 56.9348 21.756 57.4447 21.811 57.9939C21.9007 58.8894 21.6261 59.5802 20.9874 60.0663C20.3594 60.5392 19.5797 60.8223 18.6484 60.9156C18.0275 60.9778 17.4943 60.9528 17.0489 60.8406C17.4657 61.3898 18.0861 61.6232 18.91 61.5407C19.2443 61.5072 19.5983 61.4295 19.972 61.3077C20.1117 61.2575 20.2472 61.2258 20.3786 61.2127C20.6413 61.1864 20.8568 61.2311 21.0252 61.3469C21.2055 61.4615 21.307 61.6323 21.3297 61.8591C21.3668 62.2293 21.1722 62.5744 20.746 62.8944C20.3186 63.2026 19.5974 63.4075 18.5825 63.5091ZM16.8838 58.6502C17.008 58.8066 17.1639 58.9176 17.3514 58.9832C17.5496 59.0358 17.7621 59.0506 17.989 59.0279C18.2517 59.0016 18.4726 58.9192 18.6516 58.7807C18.8427 58.6409 18.9286 58.4755 18.9095 58.2845C18.888 58.0696 18.7799 57.8935 18.5852 57.7562C18.4025 57.6177 18.15 57.5646 17.8276 57.5969C17.5052 57.6292 17.2586 57.7564 17.0879 57.9785C16.928 58.1875 16.8599 58.4114 16.8838 58.6502ZM24.9586 62.8705C24.1944 62.9471 23.6361 62.5507 23.2838 61.6815C22.9433 60.8111 22.6942 59.5878 22.5364 58.0117C22.4646 57.2953 22.4347 56.6953 22.4465 56.2117C22.4692 55.715 22.5891 55.2869 22.8064 54.9275C23.0344 54.5549 23.417 54.3417 23.9543 54.2879C24.2887 54.2544 24.589 54.3027 24.8553 54.4328C25.1335 54.5618 25.3228 54.7659 25.4231 55.0453C25.6619 54.7802 25.9843 54.567 26.3902 54.4058C26.7962 54.2445 27.2379 54.14 27.7156 54.0921C28.0976 54.0539 28.4953 54.1105 28.9084 54.2621C29.3335 54.4125 29.6942 54.6417 29.9903 54.9497C30.2972 55.2446 30.4698 55.5831 30.5081 55.9652C30.5464 56.3473 30.4431 56.7013 30.1984 57.0273C29.9644 57.3402 29.6265 57.5188 29.1847 57.563C29.0414 57.5773 28.9023 57.5732 28.7674 57.5505C28.6444 57.5267 28.5334 57.5016 28.4343 57.4753C28.1859 57.4037 27.9901 57.3751 27.8468 57.3895C27.3811 57.4361 26.9877 57.6624 26.6666 58.0684C26.3562 58.4613 26.2297 58.9443 26.2871 59.5175C26.3504 60.1503 26.3792 60.6781 26.3733 61.1008C26.3674 61.5235 26.2617 61.9139 26.0564 62.2722C25.8499 62.6185 25.484 62.8179 24.9586 62.8705ZM34.714 61.8936C33.7827 61.9868 32.9976 61.8544 32.3587 61.4963C31.7186 61.1262 31.3586 60.5412 31.2784 59.7412C31.2091 59.0487 31.4586 58.4689 32.0269 58.002C32.5952 57.535 33.333 57.2561 34.2405 57.1652C34.5748 57.1317 34.8883 57.1305 35.1808 57.1615C35.4841 57.1794 35.6931 57.2187 35.8077 57.2796C35.7778 56.9811 35.6279 56.7489 35.358 56.583C35.087 56.4051 34.6947 56.3419 34.1813 56.3933C33.9544 56.416 33.7711 56.4524 33.6314 56.5026C33.4917 56.5528 33.3419 56.6221 33.1819 56.7104C33.0219 56.7988 32.8721 56.8681 32.7324 56.9183C32.6046 56.9672 32.4273 57.0031 32.2004 57.0258C31.8184 57.0641 31.5103 56.9984 31.2762 56.8289C31.041 56.6475 30.903 56.3538 30.8624 55.9478C30.8157 55.4821 30.9434 55.0713 31.2455 54.7155C31.5595 54.3584 31.9654 54.0766 32.4633 53.8699C32.96 53.6513 33.465 53.5163 33.9785 53.4649C34.9934 53.3633 35.8603 53.4694 36.5791 53.7833C37.3087 54.0841 37.8658 54.5288 38.2504 55.1174C38.6469 55.7049 38.8828 56.3747 38.9582 57.1269C38.9988 57.5329 39.0007 57.9126 38.9637 58.266C38.9387 58.6183 38.882 58.8953 38.7937 59.0971C38.9752 59.2237 39.1173 59.3783 39.22 59.5609C39.3347 59.7424 39.4022 59.9346 39.4225 60.1376C39.4572 60.4839 39.3677 60.7944 39.154 61.069C38.9522 61.3425 38.6603 61.4984 38.2782 61.5366C37.9916 61.5653 37.7546 61.5468 37.5671 61.4812C37.3797 61.4156 37.1755 61.3033 36.9545 61.1446C36.674 61.3536 36.3588 61.5178 36.0089 61.6373C35.671 61.7555 35.2394 61.841 34.714 61.8936ZM34.8911 60.0487C35.1418 60.0236 35.3334 59.9502 35.466 59.8284C35.6104 59.7053 35.6749 59.5662 35.6593 59.411C35.6438 59.2558 35.553 59.1322 35.387 59.0403C35.233 58.9472 35.0306 58.9132 34.7799 58.9383C34.5291 58.9634 34.3315 59.0375 34.187 59.1605C34.0545 59.2823 33.996 59.4208 34.0116 59.576C34.0271 59.7313 34.1119 59.8554 34.266 59.9485C34.432 60.0404 34.6403 60.0739 34.8911 60.0487ZM44.4818 60.8973C43.7176 60.9738 42.9767 60.8611 42.259 60.5591C41.5521 60.2439 40.9634 59.7843 40.4928 59.1802C40.0223 58.5761 39.747 57.874 39.6669 57.074C39.5831 56.2382 39.7072 55.4901 40.0391 54.8298C40.3817 54.1563 40.8646 53.6195 41.4878 53.2194C42.123 52.8181 42.8227 52.5792 43.5868 52.5027C44.3152 52.4297 44.9863 52.5072 45.6 52.7352C46.2138 52.9632 46.7052 53.2939 47.0742 53.7272C47.442 54.1487 47.6511 54.6102 47.7013 55.1116C47.7431 55.5296 47.6441 55.8651 47.4041 56.1183C47.1761 56.3702 46.8113 56.5213 46.3098 56.5716C46.0472 56.5979 45.8394 56.5704 45.6865 56.4893C45.5337 56.4081 45.3701 56.2798 45.1957 56.1043C45.0345 55.9395 44.884 55.8219 44.7443 55.7515C44.6154 55.6679 44.4374 55.6375 44.2106 55.6602C43.8882 55.6925 43.6249 55.8334 43.4208 56.083C43.2154 56.3207 43.1301 56.6126 43.1648 56.9589C43.2007 57.3171 43.3368 57.5929 43.5733 57.7863C43.8217 57.9785 44.113 58.0579 44.4473 58.0244C44.6623 58.0029 44.8264 57.9563 44.9399 57.8846C45.0533 57.813 45.1751 57.7043 45.3052 57.5586C45.458 57.3986 45.6031 57.2815 45.7404 57.2075C45.8765 57.1215 46.0819 57.0647 46.3565 57.0372C46.846 56.9882 47.2353 57.0819 47.5243 57.3183C47.8133 57.5546 47.9751 57.846 48.0098 58.1922C48.0505 58.5982 47.9275 58.9964 47.641 59.3869C47.3664 59.7762 46.9534 60.107 46.4017 60.3794C45.8501 60.6517 45.2102 60.8243 44.4818 60.8973ZM49.8216 51.6069C49.2365 51.6655 48.7201 51.5062 48.2722 51.1289C47.8232 50.7397 47.5682 50.2407 47.5072 49.6317C47.4474 49.0347 47.5996 48.5069 47.9637 48.0483C48.3266 47.5778 48.8006 47.3133 49.3857 47.2547C49.9588 47.1973 50.4699 47.3632 50.9189 47.7524C51.3787 48.1284 51.6385 48.615 51.6983 49.212C51.7592 49.8209 51.6023 50.3613 51.2274 50.833C50.8633 51.2915 50.3947 51.5495 49.8216 51.6069ZM50.6915 60.2935C50.202 60.3425 49.824 60.2417 49.5577 59.9909C49.3022 59.7271 49.1045 59.3188 48.9647 58.7659C48.8357 58.2 48.7185 57.3916 48.6133 56.3409C48.5248 55.4573 48.4966 54.7546 48.5288 54.2328C48.5729 53.7098 48.7018 53.311 48.9155 53.0363C49.1292 52.7617 49.4629 52.6016 49.9166 52.5562C50.4062 52.5071 50.7787 52.6146 51.0343 52.8784C51.3006 53.1291 51.4983 53.5374 51.6273 54.1034C51.7671 54.6562 51.8896 55.458 51.9949 56.5088C52.0833 57.3923 52.1055 58.0956 52.0614 58.6186C52.0293 59.1404 51.9063 59.5387 51.6926 59.8133C51.4789 60.088 51.1452 60.248 50.6915 60.2935ZM56.5598 59.7058C55.6285 59.799 54.8434 59.6666 54.2045 59.3085C53.5645 58.9384 53.2044 58.3534 53.1242 57.5534C53.0549 56.8609 53.3044 56.2811 53.8727 55.8142C54.441 55.3472 55.1788 55.0683 56.0863 54.9774C56.4206 54.9439 56.7341 54.9427 57.0266 54.9737C57.3299 54.9916 57.5389 55.0309 57.6535 55.0918C57.6236 54.7933 57.4737 54.5611 57.2038 54.3952C56.9328 54.2173 56.5405 54.1541 56.0271 54.2055C55.8002 54.2282 55.6169 54.2646 55.4772 54.3148C55.3375 54.365 55.1877 54.4343 55.0277 54.5226C54.8677 54.611 54.7179 54.6803 54.5782 54.7305C54.4504 54.7795 54.2731 54.8153 54.0462 54.838C53.6642 54.8763 53.3561 54.8107 53.122 54.6411C52.8868 54.4597 52.7488 54.166 52.7082 53.76C52.6615 53.2943 52.7892 52.8835 53.0913 52.5277C53.4053 52.1706 53.8112 51.8888 54.3091 51.6821C54.8058 51.4635 55.3108 51.3285 55.8243 51.2771C56.8392 51.1755 57.7061 51.2816 58.4249 51.5955C59.1545 51.8963 59.7116 52.341 60.0962 52.9297C60.4927 53.5171 60.7286 54.1869 60.804 54.9391C60.8446 55.3451 60.8465 55.7248 60.8095 56.0782C60.7845 56.4305 60.7278 56.7075 60.6395 56.9093C60.821 57.0359 60.9631 57.1905 61.0658 57.3731C61.1805 57.5546 61.248 57.7469 61.2683 57.9498C61.303 58.2961 61.2135 58.6066 60.9998 58.8812C60.798 59.1547 60.5061 59.3106 60.124 59.3488C59.8374 59.3775 59.6004 59.3591 59.4129 59.2934C59.2255 59.2278 59.0213 59.1156 58.8003 58.9568C58.5198 59.1658 58.2046 59.33 57.8547 59.4495C57.5168 59.5677 57.0852 59.6532 56.5598 59.7058ZM56.7369 57.8609C56.9876 57.8358 57.1792 57.7624 57.3118 57.6406C57.4562 57.5176 57.5207 57.3784 57.5051 57.2232C57.4896 57.068 57.3988 56.9444 57.2328 56.8525C57.0788 56.7594 56.8764 56.7254 56.6257 56.7505C56.3749 56.7756 56.1773 56.8497 56.0329 56.9727C55.9003 57.0945 55.8418 57.233 55.8574 57.3882C55.8729 57.5435 55.9577 57.6676 56.1118 57.7607C56.2778 57.8527 56.4861 57.8861 56.7369 57.8609ZM66.1525 61.8385C65.46 61.9078 64.8797 61.8333 64.4116 61.6149C63.9447 61.4084 63.6891 61.0842 63.6449 60.6424C63.6054 60.2484 63.7224 59.9111 63.9958 59.6304C64.2823 59.3605 64.6584 59.2023 65.1241 59.1556C65.2076 59.1472 65.3462 59.1454 65.5396 59.1502C65.782 59.1621 66.0047 59.1579 66.2077 59.1376C66.7211 59.0861 67.1539 58.9523 67.5061 58.7362C67.8715 58.5307 68.0816 58.2806 68.1365 57.9856C67.9562 58.1122 67.6965 58.2287 67.3574 58.335C67.0183 58.4413 66.6518 58.5142 66.2577 58.5537C65.2428 58.6553 64.3873 58.542 63.6911 58.2137C63.0068 57.8843 62.4927 57.4473 62.1488 56.9029C61.8036 56.3465 61.6029 55.7877 61.5467 55.2265C61.4535 54.2952 61.5757 53.4689 61.9135 52.7476C62.2633 52.0252 62.7486 51.452 63.3694 51.028C63.9903 50.604 64.6589 50.3562 65.3753 50.2844C65.6141 50.2605 65.8905 50.2509 66.2046 50.2556C66.5305 50.2592 66.8034 50.2741 67.0231 50.3003C67.0863 49.9684 67.2224 49.7015 67.4313 49.4996C67.6522 49.2966 67.9955 49.1718 68.4612 49.1252C69.2373 49.0474 69.8469 49.4748 70.29 50.4073C70.7451 51.3386 71.0438 52.5147 71.1861 53.9356C71.253 54.6042 71.2806 55.2406 71.2687 55.8448C71.2582 57.5463 70.7999 58.9309 69.8938 59.9985C68.9877 61.0661 67.7406 61.6794 66.1525 61.8385ZM66.2215 55.8438C66.5917 55.8067 66.9009 55.6431 67.1492 55.3529C67.3963 55.0508 67.5014 54.7146 67.4643 54.3445C67.4272 53.9743 67.2576 53.6657 66.9555 53.4186C66.6534 53.1714 66.3172 53.0664 65.9471 53.1035C65.5769 53.1406 65.2683 53.3102 65.0212 53.6123C64.786 53.9132 64.6869 54.2488 64.724 54.6189C64.7611 54.9891 64.9247 55.2983 65.2149 55.5466C65.5158 55.7818 65.8514 55.8808 66.2215 55.8438ZM75.5372 57.8052C74.6058 57.8985 73.8207 57.7661 73.1818 57.408C72.5418 57.0379 72.1817 56.4529 72.1016 55.6529C72.0322 54.9603 72.2817 54.3806 72.85 53.9136C73.4183 53.4467 74.1562 53.1678 75.0636 53.0769C75.398 53.0434 75.7114 53.0422 76.0039 53.0732C76.3072 53.091 76.5162 53.1304 76.6308 53.1913C76.6009 52.8928 76.451 52.6606 76.1812 52.4946C75.9101 52.3168 75.5178 52.2535 75.0044 52.305C74.7775 52.3277 74.5943 52.3641 74.4546 52.4143C74.3149 52.4645 74.165 52.5337 74.005 52.6221C73.8451 52.7105 73.6952 52.7798 73.5555 52.83C73.4278 52.8789 73.2504 52.9148 73.0236 52.9375C72.6415 52.9758 72.3334 52.9101 72.0994 52.7406C71.8641 52.5591 71.7262 52.2654 71.6855 51.8595C71.6389 51.3938 71.7666 50.983 72.0686 50.6272C72.3826 50.2701 72.7885 49.9882 73.2864 49.7816C73.7831 49.563 74.2882 49.428 74.8016 49.3766C75.8165 49.275 76.6834 49.3811 77.4023 49.695C78.1319 49.9958 78.689 50.4405 79.0735 51.0291C79.47 51.6165 79.706 52.2864 79.7813 53.0386C79.822 53.4446 79.8238 53.8243 79.7868 54.1777C79.7618 54.53 79.7051 54.807 79.6168 55.0088C79.7983 55.1353 79.9404 55.2899 80.0431 55.4726C80.1578 55.6541 80.2253 55.8463 80.2456 56.0493C80.2803 56.3956 80.1908 56.706 79.9771 56.9807C79.7753 57.2542 79.4834 57.41 79.1013 57.4483C78.8148 57.477 78.5777 57.4585 78.3903 57.3929C78.2028 57.3272 77.9986 57.215 77.7777 57.0563C77.4971 57.2653 77.1819 57.4295 76.8321 57.5489C76.4942 57.6672 76.0625 57.7526 75.5372 57.8052ZM75.7142 55.9604C75.965 55.9353 76.1566 55.8618 76.2891 55.74C76.4336 55.617 76.498 55.4779 76.4825 55.3227C76.4669 55.1675 76.3762 55.0439 76.2102 54.952C76.0561 54.8589 75.8537 54.8249 75.603 54.85C75.3523 54.8751 75.1547 54.9491 75.0102 55.0722C74.8777 55.194 74.8192 55.3325 74.8347 55.4877C74.8503 55.6429 74.9351 55.7671 75.0891 55.8602C75.2551 55.9521 75.4635 55.9855 75.7142 55.9604Z" fill="black"/>
</svg>
