<svg width="168" height="55" viewBox="0 0 168 55" fill="none" xmlns="http://www.w3.org/2000/svg">
<path d="M1.08638 8.62407C1.03867 6.41545 2.79044 4.58633 4.99907 4.53862L162.175 1.14357C164.383 1.09586 166.212 2.84763 166.26 5.05625L166.894 34.3993C166.942 36.6113 165.185 38.4419 162.972 38.485L93.9505 39.8271C93.164 39.8424 92.4595 40.3174 92.1503 41.0408L87.0384 53.002C86.3767 54.5502 84.2149 54.638 83.43 53.1485L77.1693 41.2688C76.8152 40.5969 76.1111 40.1835 75.3518 40.2018L5.81565 41.8782C3.60324 41.9315 1.76796 40.1783 1.72017 37.9657L1.08638 8.62407Z" fill="#E9B965" stroke="black" stroke-linecap="round"/>
<path d="M47.4488 29.827C45.8811 29.8609 44.4667 29.5794 43.2055 28.9825C41.96 28.3692 40.9638 27.4465 40.2171 26.2144C39.4699 24.9662 39.0767 23.4303 39.0373 21.6068C39.0055 20.1351 39.3117 18.7522 39.9559 17.458C40.6001 16.1638 41.5058 15.12 42.6729 14.3266C43.84 13.5332 45.1594 13.1206 46.6311 13.0888C48.0228 13.0587 49.2682 13.2959 50.3673 13.8003C51.4661 14.2887 52.3211 14.9744 52.9324 15.8574C53.5596 16.74 53.8851 17.7332 53.9089 18.837C53.9241 19.5408 53.7293 20.1532 53.3245 20.674C52.9356 21.1945 52.3653 21.4629 51.6135 21.4792C51.0536 21.4912 50.6196 21.4046 50.3115 21.2192C50.0035 21.0338 49.6771 20.7448 49.3326 20.3521C48.988 19.9595 48.6537 19.6706 48.3296 19.4856C48.0212 19.2842 47.5711 19.1899 46.9792 19.2027C46.2274 19.2189 45.5858 19.5209 45.0543 20.1085C44.5385 20.6798 44.2895 21.3733 44.3071 22.1891C44.3261 23.0689 44.5661 23.8079 45.0271 24.4061C45.5038 24.9879 46.134 25.2704 46.9179 25.2534C47.5257 25.2403 48.0037 25.142 48.3518 24.9584C48.7159 24.7745 49.0943 24.5103 49.487 24.1657C49.8167 23.8705 50.1159 23.648 50.3848 23.4982C50.6696 23.348 51.02 23.2684 51.4359 23.2594C52.0757 23.2456 52.5839 23.4347 52.9605 23.8266C53.3367 24.2026 53.5315 24.7025 53.545 25.3263C53.5609 26.0622 53.3041 26.7719 52.7748 27.4555C52.2614 28.1387 51.5373 28.6985 50.6025 29.1348C49.6677 29.5711 48.6165 29.8018 47.4488 29.827ZM58.9336 29.627C57.6858 29.6539 56.656 29.3961 55.8441 28.8535C55.0319 28.2949 54.6142 27.4798 54.591 26.408C54.571 25.4802 54.963 24.7356 55.7671 24.1741C56.5711 23.6126 57.581 23.3187 58.7967 23.2925C59.2446 23.2828 59.6614 23.3138 60.047 23.3855C60.4483 23.4408 60.722 23.5149 60.868 23.6078C60.8594 23.2079 60.6843 22.8836 60.3429 22.6349C60.0011 22.3702 59.4863 22.2453 58.7984 22.2602C58.4945 22.2667 58.2471 22.2961 58.0562 22.3482C57.8652 22.4004 57.6588 22.4768 57.437 22.5777C57.2151 22.6785 57.0087 22.7549 56.8178 22.8071C56.6429 22.8589 56.4034 22.888 56.0995 22.8946C55.5876 22.9057 55.185 22.7863 54.8915 22.5366C54.5977 22.2709 54.4449 21.8661 54.4332 21.3222C54.4197 20.6984 54.6322 20.1657 55.0708 19.7241C55.5254 19.2822 56.0943 18.9498 56.7777 18.727C57.4607 18.4882 58.1461 18.3614 58.8339 18.3465C60.1936 18.3171 61.3349 18.5485 62.2577 19.0407C63.1962 19.5166 63.8904 20.1657 64.3403 20.9882C64.8061 21.8103 65.0499 22.7253 65.0717 23.733C65.0835 24.2769 65.0463 24.7818 64.9604 25.2478C64.8904 25.7134 64.7862 26.0758 64.6478 26.3348C64.8759 26.5219 65.0487 26.7422 65.1662 26.9958C65.2997 27.2489 65.3694 27.5115 65.3752 27.7834C65.3853 28.2473 65.2339 28.6507 64.9213 28.9935C64.6246 29.336 64.2203 29.5128 63.7084 29.5238C63.3245 29.5321 63.0114 29.4829 62.769 29.3761C62.5267 29.2693 62.2669 29.0989 61.9898 28.8648C61.5951 29.1134 61.159 29.2988 60.6815 29.4212C60.22 29.5432 59.6374 29.6118 58.9336 29.627ZM59.3611 27.1932C59.697 27.1859 59.9594 27.1082 60.1482 26.9601C60.3531 26.8117 60.4533 26.6335 60.4488 26.4255C60.4443 26.2176 60.3365 26.0438 60.1254 25.9044C59.9304 25.7645 59.6649 25.6983 59.329 25.7055C58.993 25.7128 58.7227 25.7906 58.5178 25.9391C58.329 26.0872 58.2368 26.2652 58.2413 26.4732C58.2458 26.6811 58.3456 26.855 58.5406 26.9948C58.7517 27.1343 59.0252 27.2004 59.3611 27.1932ZM68.9448 29.4107C67.9211 29.4328 67.2203 28.8478 66.8425 27.6557C66.4806 26.4633 66.2769 24.8113 66.2313 22.6998C66.2106 21.74 66.2333 20.9393 66.2994 20.2977C66.3812 19.6398 66.5853 19.0833 66.9115 18.6281C67.2534 18.1566 67.7843 17.9131 68.5041 17.8976C68.952 17.8879 69.3462 17.9834 69.6866 18.1841C70.043 18.3844 70.2733 18.6755 70.3776 19.0574C70.7226 18.7298 71.1733 18.4801 71.7297 18.308C72.2861 18.1359 72.8843 18.043 73.5241 18.0292C74.036 18.0181 74.5586 18.1349 75.0921 18.3794C75.6415 18.6236 76.097 18.9658 76.4585 19.4061C76.8358 19.8301 77.0299 20.298 77.041 20.8099C77.0521 21.3218 76.8779 21.7816 76.5187 22.1895C76.175 22.581 75.7073 22.7831 75.1154 22.7959C74.9235 22.8001 74.739 22.7801 74.562 22.7359C74.401 22.6913 74.256 22.6465 74.127 22.6012C73.8043 22.4802 73.547 22.4217 73.355 22.4259C72.7312 22.4393 72.1847 22.6992 71.7155 23.2054C71.262 23.6954 71.0435 24.3242 71.0601 25.092C71.0784 25.9398 71.0616 26.6444 71.0097 27.2056C70.9578 27.7669 70.7767 28.2749 70.4665 28.7297C70.1559 29.1685 69.6487 29.3955 68.9448 29.4107ZM87.4307 29.0114C86.8548 29.0239 86.4194 28.8732 86.1246 28.5595C85.8457 28.2455 85.6693 27.8572 85.5953 27.3947C85.5213 26.9322 85.4764 26.333 85.4605 25.5972C85.4401 24.6534 85.2964 23.9283 85.0294 23.422C84.7624 22.9156 84.341 22.6687 83.7651 22.6811C83.2372 22.6925 82.8428 22.9571 82.582 23.4748C82.3367 23.9763 82.2236 24.6669 82.2426 25.5467C82.2609 26.3945 82.2508 27.0348 82.2121 27.4678C82.1734 27.9007 82.0218 28.2881 81.7571 28.6299C81.4921 28.9557 81.0476 29.1253 80.4238 29.1388C79.512 29.1585 78.8595 28.5884 78.4664 27.4286C78.0729 26.2529 77.8591 24.8732 77.8249 23.2895C77.7419 19.4504 78.5083 17.5134 80.1239 17.4785C80.5718 17.4689 80.9421 17.5729 81.2349 17.7906C81.5273 17.9923 81.7338 18.292 81.8545 18.6894C82.0576 18.461 82.3732 18.2541 82.8013 18.0688C83.2454 17.8832 83.7154 17.785 84.2112 17.7743C85.9708 17.7363 87.2963 18.3478 88.1878 19.6089C89.0952 20.8696 89.5726 22.5957 89.6199 24.7872C89.6479 26.0829 89.5021 27.1103 89.1824 27.8693C88.8624 28.6124 88.2785 28.9931 87.4307 29.0114ZM93.4668 17.2383C92.6829 17.2553 92.013 16.9897 91.4571 16.4415C90.9008 15.8774 90.6138 15.1875 90.5962 14.3717C90.5789 13.5718 90.8362 12.8861 91.3679 12.3145C91.8994 11.7269 92.557 11.4246 93.3408 11.4077C94.1086 11.3911 94.7707 11.6649 95.327 12.229C95.899 12.7768 96.1936 13.4506 96.2109 14.2504C96.2285 15.0662 95.9636 15.7681 95.4162 16.356C94.8844 16.9276 94.2346 17.2217 93.4668 17.2383ZM93.7181 28.8756C93.0623 28.8898 92.5704 28.7164 92.2425 28.3554C91.9303 27.978 91.7101 27.4146 91.5819 26.6652C91.4693 25.8995 91.3978 24.8128 91.3674 23.4051C91.3419 22.2214 91.3776 21.2844 91.4748 20.5941C91.5879 19.9035 91.8008 19.3868 92.1134 19.044C92.4261 18.7011 92.8864 18.5232 93.4942 18.51C94.1501 18.4959 94.6341 18.6775 94.9463 19.0548C95.2742 19.4158 95.4944 19.9792 95.607 20.7449C95.7352 21.4943 95.8145 22.5729 95.8449 23.9805C95.8705 25.1643 95.8267 26.1014 95.7136 26.792C95.6165 27.4823 95.4116 27.9988 95.0989 28.3417C94.7863 28.6845 94.326 28.8625 93.7181 28.8756ZM103.427 28.6419C103.043 28.6502 102.682 28.61 102.344 28.5213C102.022 28.4322 101.641 28.2244 101.202 27.8978C100.698 27.5086 100.123 26.8488 99.4792 25.9185C98.8346 24.9722 98.2764 23.952 97.8047 22.858C97.3326 21.7479 97.0869 20.745 97.0675 19.8492C97.053 19.1773 97.2331 18.6213 97.6076 18.1811C97.9979 17.7246 98.4569 17.4906 98.9848 17.4792C99.6247 17.4654 100.174 17.7016 100.632 18.1878C101.107 18.6577 101.504 19.2492 101.823 19.9625C102.158 20.6594 102.539 21.6034 102.965 22.7945C103.016 22.9374 103.067 23.0964 103.119 23.2713C103.186 23.4299 103.254 23.5965 103.322 23.771L103.547 23.07C103.967 21.7806 104.329 20.7646 104.633 20.0218C104.937 19.2631 105.323 18.6226 105.792 18.1004C106.26 17.5621 106.815 17.2941 107.455 17.2963C107.967 17.3012 108.403 17.4838 108.763 17.8441C109.139 18.2041 109.334 18.736 109.35 19.4398C109.37 20.3996 109.184 21.4119 108.791 22.4766C108.398 23.5414 107.931 24.5117 107.39 25.3876C106.848 26.2475 106.382 26.8817 105.99 27.2902C105.647 27.6977 105.238 28.0266 104.763 28.277C104.304 28.5109 103.859 28.6326 103.427 28.6419ZM114.303 28.431C113.056 28.4579 112.026 28.2001 111.214 27.6575C110.402 27.0989 109.984 26.2837 109.961 25.212C109.941 24.2842 110.333 23.5396 111.137 22.9781C111.941 22.4166 112.951 22.1227 114.167 22.0964C114.615 22.0868 115.031 22.1178 115.417 22.1895C115.818 22.2448 116.092 22.3189 116.238 22.4118C116.229 22.0119 116.054 21.6876 115.713 21.4389C115.371 21.1742 114.856 21.0493 114.168 21.0642C113.864 21.0707 113.617 21.1001 113.426 21.1522C113.235 21.2043 113.029 21.2808 112.807 21.3816C112.585 21.4825 112.379 21.5589 112.188 21.6111C112.013 21.6629 111.773 21.692 111.469 21.6986C110.958 21.7097 110.555 21.5903 110.261 21.3406C109.968 21.0749 109.815 20.6701 109.803 20.1262C109.79 19.5024 110.002 18.9696 110.441 18.5281C110.895 18.0862 111.464 17.7538 112.148 17.531C112.831 17.2922 113.516 17.1653 114.204 17.1505C115.564 17.1211 116.705 17.3525 117.628 17.8447C118.566 18.3206 119.26 18.9697 119.71 19.7922C120.176 20.6143 120.42 21.5293 120.442 22.537C120.453 23.0809 120.416 23.5858 120.33 24.0518C120.26 24.5174 120.156 24.8797 120.018 25.1388C120.246 25.3259 120.419 25.5462 120.536 25.7998C120.67 26.0529 120.739 26.3155 120.745 26.5874C120.755 27.0513 120.604 27.4547 120.291 27.7975C119.994 28.14 119.59 28.3168 119.078 28.3278C118.694 28.3361 118.381 28.2869 118.139 28.1801C117.897 28.0733 117.637 27.9029 117.36 27.6688C116.965 27.9174 116.529 28.1028 116.051 28.2252C115.59 28.3472 115.007 28.4158 114.303 28.431ZM114.731 25.9972C115.067 25.9899 115.329 25.9122 115.518 25.7641C115.723 25.6157 115.823 25.4374 115.819 25.2295C115.814 25.0215 115.706 24.8478 115.495 24.7084C115.3 24.5685 115.035 24.5023 114.699 24.5095C114.363 24.5168 114.093 24.5946 113.888 24.7431C113.699 24.8912 113.607 25.0692 113.611 25.2772C113.616 25.4851 113.715 25.659 113.911 25.7988C114.122 25.9383 114.395 26.0044 114.731 25.9972ZM124.788 28.1565C123.988 28.1738 123.382 27.8908 122.969 27.3076C122.557 26.7243 122.266 25.8584 122.097 24.7098C121.944 23.5448 121.845 21.9226 121.8 19.8431C121.757 17.8435 121.771 16.2829 121.843 15.1611C121.93 14.0389 122.167 13.1376 122.552 12.4571C122.954 11.7763 123.586 11.4265 124.45 11.4079C125.314 11.3892 125.953 11.7115 126.368 12.3747C126.798 13.0375 127.073 13.9278 127.193 15.0455C127.33 16.1628 127.419 17.7212 127.462 19.7208C127.505 21.6883 127.451 23.2818 127.302 24.5013C127.168 25.7045 126.899 26.6145 126.496 27.2314C126.093 27.8322 125.524 28.1406 124.788 28.1565Z" fill="black"/>
</svg>
