<svg width="170" height="54" viewBox="0 0 170 54" fill="none" xmlns="http://www.w3.org/2000/svg">
<path d="M3.70142 8.27149C3.70142 6.06235 5.49228 4.27148 7.70142 4.27148H164.914C167.123 4.27148 168.914 6.06235 168.914 8.27148V37.6214C168.914 39.8339 167.117 41.6262 164.905 41.6214L97.1626 41.4755C95.5892 41.4721 94.16 42.3914 93.5106 43.8244L90.4085 50.67C89.0186 53.7371 84.6922 53.8192 83.187 50.807L79.6159 43.6607C78.9368 42.3019 77.5467 41.4449 76.0277 41.4488L7.71145 41.62C5.4984 41.6255 3.70142 39.833 3.70142 37.62V8.27149Z" fill="#866224" stroke="black" stroke-linecap="round"/>
<path d="M1 5C1 2.79086 2.79086 1 5 1H162.212C164.421 1 166.212 2.79086 166.212 5V34.3499C166.212 36.5624 164.416 38.3547 162.203 38.3499L93.1686 38.2012C92.382 38.1995 91.6674 38.6591 91.3426 39.3757L85.9736 51.2237C85.2787 52.7573 83.1155 52.7984 82.3629 51.2923L76.3602 39.2801C76.0207 38.6007 75.3257 38.1723 74.5662 38.1742L5.01003 38.3485C2.79698 38.354 1 36.5616 1 34.3485V5Z" fill="#E9B965" stroke="black" stroke-linecap="round"/>
<path d="M25.7857 27.2471C25.2417 27.2471 24.7857 27.1111 24.4177 26.8391C24.0657 26.5511 23.8177 26.1671 23.6737 25.6871C23.5457 25.2391 23.4657 24.7511 23.4337 24.2231C23.4177 23.6951 23.4097 22.9511 23.4097 21.9911C23.4097 21.0951 23.3697 20.4311 23.2897 19.9991C23.2257 19.5671 23.0577 19.3511 22.7857 19.3511C22.4657 19.3511 22.2417 19.4951 22.1137 19.7831C21.9857 20.0551 21.9217 20.4471 21.9217 20.9591C21.9217 21.4231 21.9857 22.1511 22.1137 23.1431C22.1297 23.3351 22.1617 23.6391 22.2097 24.0551C22.2577 24.4711 22.2817 24.8151 22.2817 25.0871C22.2817 25.8551 22.1057 26.3991 21.7537 26.7191C21.4177 27.0391 20.9217 27.1991 20.2657 27.1991C19.4817 27.1991 18.8017 26.7751 18.2257 25.9271C17.6497 25.0791 17.2177 24.0231 16.9297 22.7591C16.6417 21.4791 16.4977 20.2231 16.4977 18.9911C16.4977 17.5191 16.7057 16.1511 17.1217 14.8871C17.5537 13.6231 18.1937 12.6071 19.0417 11.8391C19.9057 11.0711 20.9457 10.6871 22.1617 10.6871C23.1857 10.6871 24.0017 11.0071 24.6097 11.6471C25.2177 12.2711 25.6257 13.0311 25.8337 13.9271C26.0097 13.0471 26.4017 12.2871 27.0097 11.6471C27.6337 11.0071 28.4497 10.6871 29.4577 10.6871C30.6577 10.6871 31.6817 11.0631 32.5297 11.8151C33.3937 12.5511 34.0497 13.5831 34.4977 14.9111C34.9617 16.2391 35.1937 17.7751 35.1937 19.5191C35.1937 20.6551 35.0337 21.8311 34.7137 23.0471C34.3937 24.2471 33.9457 25.2471 33.3697 26.0471C32.7937 26.8471 32.1377 27.2471 31.4017 27.2471C30.7297 27.2471 30.2177 27.0791 29.8657 26.7431C29.5137 26.4071 29.3377 25.8551 29.3377 25.0871C29.3377 24.7351 29.4017 24.0791 29.5297 23.1191C29.6577 22.0951 29.7217 21.3591 29.7217 20.9111C29.7217 19.8711 29.4417 19.3511 28.8817 19.3511C28.5937 19.3511 28.4097 19.5831 28.3297 20.0471C28.2657 20.5111 28.2257 21.2631 28.2097 22.3031C28.2097 23.0871 28.1937 23.7431 28.1617 24.2711C28.1297 24.7831 28.0577 25.2551 27.9457 25.6871C27.8177 26.1511 27.5617 26.5271 27.1777 26.8151C26.8097 27.1031 26.3457 27.2471 25.7857 27.2471ZM40.2474 27.2471C38.9994 27.2471 37.9754 26.9671 37.1754 26.4071C36.3754 25.8311 35.9754 25.0071 35.9754 23.9351C35.9754 23.0071 36.3834 22.2711 37.1994 21.7271C38.0154 21.1831 39.0314 20.9111 40.2474 20.9111C40.6954 20.9111 41.1114 20.9511 41.4954 21.0311C41.8954 21.0951 42.1674 21.1751 42.3114 21.2711C42.3114 20.8711 42.1434 20.5431 41.8074 20.2871C41.4714 20.0151 40.9594 19.8791 40.2714 19.8791C39.9674 19.8791 39.7194 19.9031 39.5274 19.9511C39.3354 19.9991 39.1274 20.0711 38.9034 20.1671C38.6794 20.2631 38.4714 20.3351 38.2794 20.3831C38.1034 20.4311 37.8634 20.4551 37.5594 20.4551C37.0474 20.4551 36.6474 20.3271 36.3594 20.0711C36.0714 19.7991 35.9274 19.3911 35.9274 18.8471C35.9274 18.2231 36.1514 17.6951 36.5994 17.2631C37.0634 16.8311 37.6394 16.5111 38.3274 16.3031C39.0154 16.0791 39.7034 15.9671 40.3914 15.9671C41.7514 15.9671 42.8874 16.2231 43.7994 16.7351C44.7274 17.2311 45.4074 17.8951 45.8394 18.7271C46.2874 19.5591 46.5114 20.4791 46.5114 21.4871C46.5114 22.0311 46.4634 22.5351 46.3674 22.9991C46.2874 23.4631 46.1754 23.8231 46.0314 24.0791C46.2554 24.2711 46.4234 24.4951 46.5354 24.7511C46.6634 25.0071 46.7274 25.2711 46.7274 25.5431C46.7274 26.0071 46.5674 26.4071 46.2474 26.7431C45.9434 27.0791 45.5354 27.2471 45.0234 27.2471C44.6394 27.2471 44.3274 27.1911 44.0874 27.0791C43.8474 26.9671 43.5914 26.7911 43.3194 26.5511C42.9194 26.7911 42.4794 26.9671 41.9994 27.0791C41.5354 27.1911 40.9514 27.2471 40.2474 27.2471ZM40.7274 24.8231C41.0634 24.8231 41.3274 24.7511 41.5194 24.6071C41.7274 24.4631 41.8314 24.2871 41.8314 24.0791C41.8314 23.8711 41.7274 23.6951 41.5194 23.5511C41.3274 23.4071 41.0634 23.3351 40.7274 23.3351C40.3914 23.3351 40.1194 23.4071 39.9114 23.5511C39.7194 23.6951 39.6234 23.8711 39.6234 24.0791C39.6234 24.2871 39.7194 24.4631 39.9114 24.6071C40.1194 24.7511 40.3914 24.8231 40.7274 24.8231ZM50.261 27.2471C49.237 27.2471 48.549 26.6471 48.197 25.4471C47.861 24.2471 47.693 22.5911 47.693 20.4791C47.693 19.5191 47.733 18.7191 47.813 18.0791C47.909 17.4231 48.125 16.8711 48.461 16.4231C48.813 15.9591 49.349 15.7271 50.069 15.7271C50.517 15.7271 50.909 15.8311 51.245 16.0391C51.597 16.2471 51.821 16.5431 51.917 16.9271C52.269 16.6071 52.725 16.3671 53.285 16.2071C53.845 16.0471 54.445 15.9671 55.085 15.9671C55.597 15.9671 56.117 16.0951 56.645 16.3511C57.189 16.6071 57.637 16.9591 57.989 17.4071C58.357 17.8391 58.541 18.3111 58.541 18.8231C58.541 19.3351 58.357 19.7911 57.989 20.1911C57.637 20.5751 57.165 20.7671 56.573 20.7671C56.381 20.7671 56.197 20.7431 56.021 20.6951C55.861 20.6471 55.717 20.5991 55.589 20.5511C55.269 20.4231 55.013 20.3591 54.821 20.3591C54.197 20.3591 53.645 20.6071 53.165 21.1031C52.701 21.5831 52.469 22.2071 52.469 22.9751C52.469 23.8231 52.437 24.5271 52.373 25.0871C52.309 25.6471 52.117 26.1511 51.797 26.5991C51.477 27.0311 50.965 27.2471 50.261 27.2471ZM68.7511 21.2951C68.9911 21.5991 69.3751 22.1671 69.9031 22.9991C70.5271 23.9911 70.8391 24.8311 70.8391 25.5191C70.8391 26.0791 70.6551 26.5031 70.2871 26.7911C69.9191 27.0631 69.4871 27.1991 68.9911 27.1991C68.5271 27.1991 68.0551 27.0071 67.5751 26.6231C67.1111 26.2391 66.6231 25.7191 66.1111 25.0631C65.5671 24.3431 65.2071 23.8311 65.0311 23.5271C64.8231 23.6071 64.5911 23.6871 64.3351 23.7671C64.2231 24.9671 63.9991 25.8391 63.6631 26.3831C63.3271 26.9271 62.8151 27.1991 62.1271 27.1991C61.4231 27.1991 60.8631 26.9111 60.4471 26.3351C60.0311 25.7591 59.7271 24.8631 59.5351 23.6471C59.3591 22.4311 59.2711 20.8231 59.2711 18.8231C59.2711 16.9191 59.3271 15.3911 59.4391 14.2391C59.5671 13.0711 59.8391 12.1511 60.2551 11.4791C60.6711 10.7911 61.2951 10.4471 62.1271 10.4471C62.8151 10.4471 63.3271 10.6871 63.6631 11.1671C64.0151 11.6471 64.2391 12.3111 64.3351 13.1591C64.4471 13.9911 64.5031 15.1111 64.5031 16.5191V18.0311L64.5751 17.9831C65.5031 17.3591 66.3191 16.8711 67.0231 16.5191C67.7431 16.1671 68.3911 15.9911 68.9671 15.9911C69.6231 15.9911 70.1351 16.2151 70.5031 16.6631C70.8871 17.0951 71.0791 17.5831 71.0791 18.1271C71.0791 18.7031 70.8871 19.2311 70.5031 19.7111C70.1191 20.1911 69.5351 20.7191 68.7511 21.2951ZM77.5764 27.2471C76.3924 27.2471 75.3444 27.0151 74.4324 26.5511C73.5204 26.0871 72.8084 25.4391 72.2964 24.6071C71.8004 23.7591 71.5524 22.8071 71.5524 21.7511C71.5524 20.7111 71.8004 19.7511 72.2964 18.8711C72.8084 17.9911 73.5124 17.2871 74.4084 16.7591C75.3044 16.2311 76.3204 15.9671 77.4564 15.9671C78.4804 15.9671 79.3844 16.1751 80.1684 16.5911C80.9524 17.0071 81.5524 17.5591 81.9684 18.2471C82.3844 18.9191 82.5924 19.6231 82.5924 20.3591C82.5924 21.5591 82.1364 22.4391 81.2244 22.9991C80.3284 23.5431 79.2564 23.8151 78.0084 23.8151C77.1764 23.8151 76.4724 23.7111 75.8964 23.5031C76.3764 24.2871 77.1684 24.6791 78.2724 24.6791C78.7204 24.6791 79.2004 24.6231 79.7124 24.5111C79.9044 24.4631 80.0884 24.4391 80.2644 24.4391C80.6164 24.4391 80.8964 24.5271 81.1044 24.7031C81.3284 24.8791 81.4404 25.1191 81.4404 25.4231C81.4404 25.9191 81.1364 26.3511 80.5284 26.7191C79.9204 27.0711 78.9364 27.2471 77.5764 27.2471ZM75.9684 20.5751C76.1124 20.7991 76.3044 20.9671 76.5444 21.0791C76.8004 21.1751 77.0804 21.2231 77.3844 21.2231C77.7364 21.2231 78.0404 21.1431 78.2964 20.9831C78.5684 20.8231 78.7044 20.6151 78.7044 20.3591C78.7044 20.0711 78.5844 19.8231 78.3444 19.6151C78.1204 19.4071 77.7924 19.3031 77.3604 19.3031C76.9284 19.3031 76.5844 19.4391 76.3284 19.7111C76.0884 19.9671 75.9684 20.2551 75.9684 20.5751ZM95.03 16.8551C95.03 17.6871 94.638 18.2551 93.854 18.5591C93.07 18.8471 91.998 18.9991 90.638 19.0151C90.622 19.4151 90.614 20.0631 90.614 20.9591C90.614 21.8711 90.678 22.5191 90.806 22.9031C90.886 23.1751 91.006 23.3511 91.166 23.4311C91.342 23.5111 91.598 23.5671 91.934 23.5991C92.046 23.6151 92.166 23.6391 92.294 23.6711C92.438 23.6871 92.598 23.7111 92.774 23.7431C93.142 23.8231 93.43 24.0231 93.638 24.3431C93.846 24.6471 93.95 25.0391 93.95 25.5191C93.95 26.0631 93.67 26.4871 93.11 26.7911C92.55 27.0951 91.782 27.2471 90.806 27.2471C89.91 27.2471 89.054 26.9911 88.238 26.4791C87.422 25.9511 86.862 25.2471 86.558 24.3671C86.238 23.4231 86.078 21.6391 86.078 19.0151C84.958 18.9831 84.054 18.8391 83.366 18.5831C82.694 18.3111 82.358 17.8311 82.358 17.1431C82.358 16.2791 82.678 15.7031 83.318 15.4151C83.958 15.1111 84.878 14.9511 86.078 14.9351C86.126 13.6551 86.326 12.5911 86.678 11.7431C87.03 10.8791 87.662 10.4471 88.574 10.4471C89.502 10.4471 90.102 10.8471 90.374 11.6471C90.662 12.4471 90.79 13.5431 90.758 14.9351C92.214 14.9191 93.286 15.0311 93.974 15.2711C94.678 15.5111 95.03 16.0391 95.03 16.8551ZM97.4848 30.6791C96.7008 30.6791 96.1328 30.2791 95.7808 29.4791C95.4288 28.6951 95.2128 27.7991 95.1328 26.7911C95.0688 25.7831 95.0368 24.4551 95.0368 22.8071C95.0368 21.5431 95.0848 20.4311 95.1808 19.4711C95.2928 18.5111 95.5408 17.6791 95.9248 16.9751C96.3088 16.2711 96.8928 15.9191 97.6768 15.9191C98.4928 15.9191 99.0848 16.2391 99.4528 16.8791C99.8208 16.6071 100.277 16.3911 100.821 16.2311C101.381 16.0551 101.965 15.9671 102.573 15.9671C103.597 15.9671 104.541 16.2231 105.405 16.7351C106.269 17.2471 106.957 17.9351 107.469 18.7991C107.981 19.6631 108.237 20.6071 108.237 21.6311C108.237 22.6551 107.981 23.6071 107.469 24.4871C106.957 25.3511 106.269 26.0391 105.405 26.5511C104.541 27.0631 103.597 27.3191 102.573 27.3191C101.949 27.3191 101.365 27.2391 100.821 27.0791C100.277 26.9031 99.8128 26.6711 99.4288 26.3831C99.4288 27.4071 99.3968 28.1991 99.3328 28.7591C99.2688 29.3191 99.0928 29.7751 98.8048 30.1271C98.5328 30.4951 98.0928 30.6791 97.4848 30.6791ZM102.453 23.3351C102.869 23.3351 103.229 23.1831 103.533 22.8791C103.853 22.5591 104.013 22.1911 104.013 21.7751C104.013 21.3591 103.853 20.9991 103.533 20.6951C103.229 20.3751 102.869 20.2151 102.453 20.2151C102.037 20.2151 101.669 20.3751 101.349 20.6951C101.045 20.9991 100.893 21.3591 100.893 21.7751C100.893 22.1911 101.045 22.5591 101.349 22.8791C101.669 23.1831 102.037 23.3351 102.453 23.3351ZM112.235 27.1991C111.435 27.1991 110.835 26.9031 110.435 26.3111C110.035 25.7191 109.763 24.8471 109.619 23.6951C109.491 22.5271 109.427 20.9031 109.427 18.8231C109.427 16.8231 109.475 15.2631 109.571 14.1431C109.683 13.0231 109.939 12.1271 110.339 11.4551C110.755 10.7831 111.395 10.4471 112.259 10.4471C113.123 10.4471 113.755 10.7831 114.155 11.4551C114.571 12.1271 114.827 13.0231 114.923 14.1431C115.035 15.2631 115.091 16.8231 115.091 18.8231C115.091 20.7911 115.003 22.3831 114.827 23.5991C114.667 24.7991 114.379 25.7031 113.963 26.3111C113.547 26.9031 112.971 27.1991 112.235 27.1991ZM120.146 27.2471C118.898 27.2471 117.874 26.9671 117.074 26.4071C116.274 25.8311 115.874 25.0071 115.874 23.9351C115.874 23.0071 116.282 22.2711 117.098 21.7271C117.914 21.1831 118.93 20.9111 120.146 20.9111C120.594 20.9111 121.01 20.9511 121.394 21.0311C121.794 21.0951 122.066 21.1751 122.21 21.2711C122.21 20.8711 122.042 20.5431 121.706 20.2871C121.37 20.0151 120.858 19.8791 120.17 19.8791C119.866 19.8791 119.618 19.9031 119.426 19.9511C119.234 19.9991 119.026 20.0711 118.802 20.1671C118.578 20.2631 118.37 20.3351 118.178 20.3831C118.002 20.4311 117.762 20.4551 117.458 20.4551C116.946 20.4551 116.546 20.3271 116.258 20.0711C115.97 19.7991 115.826 19.3911 115.826 18.8471C115.826 18.2231 116.05 17.6951 116.498 17.2631C116.962 16.8311 117.538 16.5111 118.226 16.3031C118.914 16.0791 119.602 15.9671 120.29 15.9671C121.65 15.9671 122.786 16.2231 123.698 16.7351C124.626 17.2311 125.306 17.8951 125.738 18.7271C126.186 19.5591 126.41 20.4791 126.41 21.4871C126.41 22.0311 126.362 22.5351 126.266 22.9991C126.186 23.4631 126.074 23.8231 125.93 24.0791C126.154 24.2711 126.322 24.4951 126.434 24.7511C126.562 25.0071 126.626 25.2711 126.626 25.5431C126.626 26.0071 126.466 26.4071 126.146 26.7431C125.842 27.0791 125.434 27.2471 124.922 27.2471C124.538 27.2471 124.226 27.1911 123.986 27.0791C123.746 26.9671 123.49 26.7911 123.218 26.5511C122.818 26.7911 122.378 26.9671 121.898 27.0791C121.434 27.1911 120.85 27.2471 120.146 27.2471ZM120.626 24.8231C120.962 24.8231 121.226 24.7511 121.418 24.6071C121.626 24.4631 121.73 24.2871 121.73 24.0791C121.73 23.8711 121.626 23.6951 121.418 23.5511C121.226 23.4071 120.962 23.3351 120.626 23.3351C120.29 23.3351 120.018 23.4071 119.81 23.5511C119.618 23.6951 119.522 23.8711 119.522 24.0791C119.522 24.2871 119.618 24.4631 119.81 24.6071C120.018 24.7511 120.29 24.8231 120.626 24.8231ZM133.237 27.2231C132.213 27.2231 131.245 26.9751 130.333 26.4791C129.437 25.9671 128.717 25.2791 128.173 24.4151C127.629 23.5511 127.357 22.5831 127.357 21.5111C127.357 20.3911 127.621 19.4151 128.149 18.5831C128.693 17.7351 129.405 17.0871 130.285 16.6391C131.181 16.1911 132.141 15.9671 133.165 15.9671C134.141 15.9671 135.021 16.1591 135.805 16.5431C136.589 16.9271 137.197 17.4311 137.629 18.0551C138.061 18.6631 138.277 19.3031 138.277 19.9751C138.277 20.5351 138.101 20.9671 137.749 21.2711C137.413 21.5751 136.909 21.7271 136.237 21.7271C135.885 21.7271 135.613 21.6631 135.421 21.5351C135.229 21.4071 135.029 21.2151 134.821 20.9591C134.629 20.7191 134.445 20.5431 134.269 20.4311C134.109 20.3031 133.877 20.2391 133.573 20.2391C133.141 20.2391 132.773 20.3911 132.469 20.6951C132.165 20.9831 132.013 21.3591 132.013 21.8231C132.013 22.3031 132.157 22.6871 132.445 22.9751C132.749 23.2631 133.125 23.4071 133.573 23.4071C133.861 23.4071 134.085 23.3671 134.245 23.2871C134.405 23.2071 134.581 23.0791 134.773 22.9031C134.997 22.7111 135.205 22.5751 135.397 22.4951C135.589 22.3991 135.869 22.3511 136.237 22.3511C136.893 22.3511 137.397 22.5271 137.749 22.8791C138.101 23.2311 138.277 23.6391 138.277 24.1031C138.277 24.6471 138.061 25.1591 137.629 25.6391C137.213 26.1191 136.621 26.5031 135.853 26.7911C135.085 27.0791 134.213 27.2231 133.237 27.2231ZM145.264 27.2471C144.08 27.2471 143.032 27.0151 142.12 26.5511C141.208 26.0871 140.496 25.4391 139.984 24.6071C139.488 23.7591 139.24 22.8071 139.24 21.7511C139.24 20.7111 139.488 19.7511 139.984 18.8711C140.496 17.9911 141.2 17.2871 142.096 16.7591C142.992 16.2311 144.008 15.9671 145.144 15.9671C146.168 15.9671 147.072 16.1751 147.856 16.5911C148.64 17.0071 149.24 17.5591 149.656 18.2471C150.072 18.9191 150.28 19.6231 150.28 20.3591C150.28 21.5591 149.824 22.4391 148.912 22.9991C148.016 23.5431 146.944 23.8151 145.696 23.8151C144.864 23.8151 144.16 23.7111 143.584 23.5031C144.064 24.2871 144.856 24.6791 145.96 24.6791C146.408 24.6791 146.888 24.6231 147.4 24.5111C147.592 24.4631 147.776 24.4391 147.952 24.4391C148.304 24.4391 148.584 24.5271 148.792 24.7031C149.016 24.8791 149.128 25.1191 149.128 25.4231C149.128 25.9191 148.824 26.3511 148.216 26.7191C147.608 27.0711 146.624 27.2471 145.264 27.2471ZM143.656 20.5751C143.8 20.7991 143.992 20.9671 144.232 21.0791C144.488 21.1751 144.768 21.2231 145.072 21.2231C145.424 21.2231 145.728 21.1431 145.984 20.9831C146.256 20.8231 146.392 20.6151 146.392 20.3591C146.392 20.0711 146.272 19.8231 146.032 19.6151C145.808 19.4071 145.48 19.3031 145.048 19.3031C144.616 19.3031 144.272 19.4391 144.016 19.7111C143.776 19.9671 143.656 20.2551 143.656 20.5751Z" fill="black"/>
</svg>
