<svg width="146" height="169" viewBox="0 0 146 169" fill="none" xmlns="http://www.w3.org/2000/svg">
  <path d="M78.1582 162.727L72.7269 167.719L71.5514 56.1192L80.5107 56.1192L78.1582 162.727Z" fill="#76500D" stroke="black" stroke-linejoin="round"/>
  <path d="M65.8445 165.188L72.7276 167.72L71.5521 57.0078L63.6421 57.0078L65.8445 165.188Z" fill="#AE7D44" stroke="black" stroke-linejoin="round"/>
  <path d="M127.312 88.9349C127.29 88.0691 125.844 84.3525 118.565 84.9905C118.09 85.0322 117.722 85.4215 117.688 85.898L115.182 121.554C115.169 121.744 115.211 121.935 115.302 122.103L120.345 131.344C120.577 131.769 121.08 131.967 121.539 131.814L126.105 130.292C126.493 130.163 126.763 129.811 126.787 129.404L127.223 122.221C127.238 121.979 127.164 121.74 127.016 121.548L126.426 120.784C126.059 120.31 126.189 119.622 126.704 119.314L127.202 119.016C127.509 118.833 127.695 118.499 127.689 118.142L127.38 98.9261C127.377 98.7303 127.316 98.5396 127.205 98.3779L126.171 96.865C125.966 96.5647 125.94 96.1766 126.103 95.8516L127.134 93.8021C127.207 93.6551 127.244 93.4915 127.24 93.327C127.179 90.5436 127.335 89.8066 127.312 88.9349Z" fill="#7A4A12" stroke="black" stroke-linecap="round" stroke-linejoin="round"/>
  <path d="M16.0342 80.2762L122.714 85.2559C123.274 85.2821 123.704 85.7638 123.665 86.3233L123.321 91.3387L120.043 95.3671C119.713 95.7724 119.751 96.3633 120.129 96.7233L121.867 98.3742C122.067 98.5642 122.179 98.8284 122.178 99.1043L122.078 118.109C122.076 118.416 121.934 118.705 121.691 118.893L120.324 119.954C119.846 120.325 119.804 121.032 120.236 121.457L122.051 123.244L121.516 130.862C121.478 131.416 120.995 131.832 120.442 131.789L14.2436 123.621C13.8923 123.594 13.5812 123.384 13.4245 123.068L10.952 118.086C10.799 117.778 10.8153 117.412 10.9951 117.119L12.2461 115.077L10.2793 111.077L4.49369 98.6106C4.34086 98.2813 4.37851 97.8951 4.59203 97.6015L12.1954 87.1468C12.2291 87.1005 12.2668 87.0571 12.3079 87.0172L14.6944 84.7026L14.2809 83.3239C14.2138 83.1003 14.2271 82.8603 14.3184 82.6454L15.0672 80.8839C15.2308 80.4991 15.6165 80.2567 16.0342 80.2762Z" fill="#BC9549"/>
  <path d="M14.6944 84.7026L14.2809 83.3239C14.2138 83.1003 14.2271 82.8603 14.3184 82.6454L15.0672 80.8839C15.2308 80.4991 15.6165 80.2567 16.0342 80.2762L122.714 85.2559C123.274 85.2821 123.704 85.7638 123.665 86.3233L123.321 91.3387M14.6944 84.7026L12.3079 87.0172C12.2668 87.0571 12.2291 87.1005 12.1954 87.1468L4.59202 97.6015C4.3785 97.8951 4.34086 98.2813 4.49368 98.6106L10.2793 111.077L12.2461 115.077M14.6944 84.7026C15.3749 85.3493 19.2461 86.0771 19.2461 86.0771M123.321 91.3387L120.043 95.3671C119.713 95.7724 119.751 96.3633 120.129 96.7233L121.867 98.3742C122.067 98.5642 122.179 98.8284 122.178 99.1043L122.078 118.109C122.076 118.416 121.934 118.705 121.691 118.893L120.324 119.954C119.846 120.325 119.804 121.032 120.236 121.457L122.051 123.244M123.321 91.3387C118.653 90.5724 106.667 89.2403 101.372 89.9066M12.2461 115.077L10.9951 117.119C10.8153 117.412 10.799 117.778 10.952 118.086L13.4245 123.068C13.5812 123.384 13.8923 123.594 14.2436 123.621L120.442 131.789C120.995 131.832 121.478 131.416 121.516 130.862L122.051 123.244M12.2461 115.077L17.2461 115.577M122.051 123.244C117.902 124.235 109.198 125.962 107.578 124.941M52.7203 87.9223C44.5022 86.8039 27.0043 84.5943 22.7573 84.7026" stroke="black" stroke-linecap="round" stroke-linejoin="round"/>
  <path d="M9.76055 18.951C9.79139 18.1455 13.2911 16.4827 15.3064 15.6597C15.6816 15.5064 16.109 15.6074 16.3858 15.9033L18.5302 18.1958C18.6756 18.3512 18.7677 18.549 18.7929 18.7603L23.8357 60.9967C23.8555 61.1625 23.8335 61.3307 23.7716 61.4858L19.9972 70.9467C19.8456 71.3268 19.4776 71.5762 19.0684 71.5762L14.6831 71.5762C14.156 71.5762 13.7194 71.1671 13.6852 70.6412L13.1477 62.3937C13.1262 62.0638 13.2693 61.7445 13.5298 61.5408L14.0342 61.1466C14.5834 60.7174 14.5359 59.8721 13.9422 59.5069L13.6504 59.3275C13.3802 59.1612 13.2048 58.8766 13.1779 58.5605L11.107 34.2326C11.0883 34.0122 11.1431 33.7918 11.263 33.6059L12.3226 31.9622C12.587 31.552 12.5168 31.0109 12.1564 30.6819L10.5139 29.1823C10.3211 29.0062 10.2048 28.7631 10.1903 28.5024C10.0553 26.0861 9.72823 19.7953 9.76055 18.951Z" fill="#7A4A12" stroke="black" stroke-linecap="round" stroke-linejoin="round"/>
  <path d="M122.538 11.8521L15.7779 15.5405C15.2176 15.5599 14.7827 16.0359 14.8139 16.5956L15.094 21.6157L18.3208 25.6856C18.6455 26.0951 18.6001 26.6854 18.2168 27.0405L16.4997 28.6309C16.2735 28.8404 16.1566 29.1425 16.1829 29.4497L18.6358 58.1819C18.6592 58.4557 18.7942 58.7078 19.0091 58.879L20.4063 59.992C20.8797 60.3691 20.9123 61.0768 20.4756 61.4958L18.6375 63.2595L19.074 70.8677C19.1062 71.4281 19.593 71.8522 20.1525 71.8072L125.944 63.3051C126.296 63.2768 126.607 63.0654 126.762 62.7486L129.192 57.7951C129.41 57.3503 129.269 56.8128 128.861 56.5315L126.512 54.911L128.986 51.02L140.249 36.2295C140.538 35.8502 140.519 35.3197 140.204 34.9622L126.274 19.1699L124.361 17.1038L124.361 14.7739C124.361 14.6437 124.335 14.5148 124.286 14.3943L123.498 12.472C123.339 12.085 122.956 11.8376 122.538 11.8521Z" fill="#BC9549"/>
  <path d="M124.361 17.1038L124.361 14.7739C124.361 14.6437 124.335 14.5148 124.286 14.3943L123.498 12.472C123.339 12.085 122.956 11.8376 122.538 11.8521L15.7779 15.5405C15.2176 15.5599 14.7827 16.0359 14.8139 16.5956L15.094 21.6157M124.361 17.1038L126.274 19.1699L140.204 34.9622C140.519 35.3197 140.538 35.8502 140.249 36.2295L128.986 51.02L126.512 54.911M124.361 17.1038C123.672 17.7417 121.233 18.9769 116.988 18.8144M15.094 21.6157L18.3208 25.6856C18.6455 26.0951 18.6001 26.6854 18.2168 27.0405L16.4997 28.6309C16.2735 28.8404 16.1566 29.1425 16.1829 29.4497L18.6358 58.1819C18.6592 58.4557 18.7942 58.7078 19.0091 58.879L20.4063 59.992C20.8797 60.3691 20.9123 61.0768 20.4756 61.4958L18.6375 63.2595M15.094 21.6157C19.7711 20.909 33.8896 19.6085 39.1759 20.3423M126.512 54.911L128.861 56.5315C129.269 56.8128 129.41 57.3503 129.192 57.7951L126.762 62.7486C126.607 63.0654 126.296 63.2768 125.944 63.3051L20.1525 71.8072C19.593 71.8522 19.1062 71.428 19.074 70.8677L18.6375 63.2595M126.512 54.911L115.184 55.8059M18.6375 63.2595C22.774 64.3036 31.8605 63.5337 33.4931 62.5333M87.8489 18.9789C96.0806 17.9655 113.605 15.9793 117.851 16.1418" stroke="black" stroke-linecap="round" stroke-linejoin="round"/>
</svg>
