<svg width="146" height="191" viewBox="0 0 146 191" fill="none" xmlns="http://www.w3.org/2000/svg">
  <path d="M82.1579 190.034L76.7266 190.034L75.5511 48.4338L84.5105 48.4338L82.1579 190.034Z" fill="#76500D" stroke="black" stroke-linejoin="round"/>
  <path d="M69.844 187.502L76.7271 190.034L75.5516 49.3223L67.6416 49.3223L69.844 187.502Z" fill="#AE7D44" stroke="black" stroke-linejoin="round"/>
  <path d="M137.331 81.2494C137.309 80.3835 135.863 76.667 128.584 77.305C128.108 77.3467 127.74 77.736 127.707 78.2125L125.201 113.868C125.188 114.059 125.229 114.249 125.321 114.417L130.364 123.658C130.596 124.083 131.099 124.281 131.558 124.128L136.124 122.606C136.511 122.477 136.781 122.126 136.806 121.718L137.242 114.535C137.257 114.293 137.183 114.054 137.035 113.863L136.444 113.098C136.078 112.624 136.208 111.936 136.722 111.628L137.221 111.331C137.528 111.147 137.714 110.814 137.708 110.456L137.398 91.2406C137.395 91.0447 137.334 90.8541 137.224 90.6924L136.19 89.1795C135.985 88.8792 135.959 88.4911 136.122 88.1661L137.152 86.1166C137.226 85.9695 137.262 85.806 137.259 85.6414C137.198 82.8581 137.353 82.1211 137.331 81.2494Z" fill="#7A4A12" stroke="black" stroke-linecap="round" stroke-linejoin="round"/>
  <path d="M16.0496 72.5879L132.728 77.5743C133.29 77.5983 133.722 78.0808 133.683 78.6418L133.339 83.6532L130.061 87.6817C129.731 88.0869 129.769 88.6778 130.148 89.0378L131.885 90.6887C132.085 90.8787 132.198 91.143 132.196 91.4189L132.096 110.423C132.095 110.73 131.952 111.02 131.709 111.208L130.342 112.269C129.864 112.64 129.823 113.347 130.254 113.771L132.069 115.558L131.534 123.183C131.496 123.734 131.017 124.15 130.466 124.111L14.2664 115.932C13.9126 115.907 13.5985 115.697 13.4408 115.379L10.9702 110.4C10.8172 110.092 10.8335 109.727 11.0133 109.433L12.2643 107.392L10.2975 103.392L4.51191 90.9252C4.35908 90.5959 4.39673 90.2096 4.61024 89.916L12.2136 79.4614C12.2474 79.415 12.285 79.3716 12.3262 79.3317L14.7126 77.0172L14.2991 75.6384C14.2321 75.4148 14.2453 75.1748 14.3367 74.9599L15.0866 73.1957C15.2496 72.8123 15.6333 72.5701 16.0496 72.5879Z" fill="#BC9549"/>
  <path d="M14.7126 77.0172L14.2991 75.6384C14.232 75.4148 14.2453 75.1748 14.3367 74.9599L15.0866 73.1957C15.2496 72.8123 15.6333 72.5701 16.0496 72.5879L132.728 77.5743C133.29 77.5983 133.722 78.0808 133.683 78.6418L133.339 83.6532M14.7126 77.0172L12.3262 79.3317C12.285 79.3716 12.2474 79.415 12.2136 79.4614L4.61024 89.916C4.39672 90.2096 4.35908 90.5959 4.5119 90.9252L10.2975 103.392L12.2643 107.392M14.7126 77.0172C15.3932 77.6638 19.2643 78.3917 19.2643 78.3917M133.339 83.6532L130.061 87.6817C129.731 88.0869 129.769 88.6778 130.148 89.0378L131.885 90.6887C132.085 90.8787 132.198 91.143 132.196 91.4189L132.096 110.423C132.095 110.73 131.952 111.02 131.709 111.208L130.342 112.269C129.864 112.64 129.823 113.347 130.254 113.771L132.069 115.558M133.339 83.6532C128.672 82.887 116.685 81.5549 111.39 82.2212M12.2643 107.392L11.0133 109.433C10.8335 109.727 10.8172 110.092 10.9702 110.4L13.4408 115.379C13.5985 115.697 13.9126 115.907 14.2664 115.932L130.466 124.111C131.017 124.15 131.496 123.734 131.534 123.183L132.069 115.558M12.2643 107.392L17.2643 107.892M132.069 115.558C127.92 116.55 119.216 118.277 117.596 117.256M52.7385 80.2368C44.5204 79.1185 27.0225 76.9088 22.7755 77.0172" stroke="black" stroke-linecap="round" stroke-linejoin="round"/>
  <path d="M13.7601 11.2655C13.7909 10.4599 17.2907 8.79718 19.3059 7.97411C19.6811 7.82088 20.1085 7.92183 20.3853 8.21779L22.5297 10.5102C22.6751 10.6656 22.7672 10.8634 22.7924 11.0748L27.8353 53.3111C27.8551 53.477 27.833 53.6451 27.7711 53.8003L23.9967 63.2612C23.8451 63.6413 23.4771 63.8906 23.0679 63.8906L18.6826 63.8906C18.1555 63.8906 17.719 63.4816 17.6847 62.9556L17.1473 54.7082C17.1258 54.3782 17.2688 54.0589 17.5293 53.8553L18.0337 53.4611C18.5829 53.0318 18.5355 52.1865 17.9417 51.8214L17.6499 51.6419C17.3797 51.4757 17.2043 51.1911 17.1774 50.8749L15.1066 26.547C15.0878 26.3267 15.1426 26.1063 15.2625 25.9204L16.3221 24.2767C16.5865 23.8665 16.5163 23.3254 16.1559 22.9963L14.5135 21.4967C14.3206 21.3207 14.2043 21.0776 14.1898 20.8169C14.0549 18.4006 13.7277 12.1097 13.7601 11.2655Z" fill="#7A4A12" stroke="black" stroke-linecap="round" stroke-linejoin="round"/>
  <path d="M126.538 4.16554L19.7779 7.85398C19.2176 7.87334 18.7827 8.34938 18.8139 8.90909L19.094 13.9291L22.3208 17.9991C22.6455 18.4085 22.6001 18.9989 22.2168 19.354L20.4997 20.9444C20.2735 21.1539 20.1566 21.456 20.1829 21.7631L22.6358 50.4954C22.6592 50.7692 22.7942 51.0213 23.0091 51.1925L24.4063 52.3055C24.8797 52.6826 24.9123 53.3903 24.4756 53.8093L22.6375 55.573L23.074 63.1812C23.1062 63.7415 23.593 64.1657 24.1525 64.1207L129.944 55.6186C130.296 55.5903 130.607 55.3788 130.762 55.0621L133.192 50.1086C133.41 49.6638 133.269 49.1263 132.861 48.845L130.512 47.2245L132.986 43.3335L144.249 28.543C144.538 28.1637 144.519 27.6332 144.204 27.2757L130.274 11.4834L128.361 9.41725L128.361 7.08737C128.361 6.95719 128.335 6.82825 128.286 6.7078L127.498 4.78551C127.339 4.39844 126.956 4.1511 126.538 4.16554Z" fill="#BC9549"/>
  <path d="M128.361 9.41725L128.361 7.08737C128.361 6.95719 128.335 6.82825 128.286 6.7078L127.498 4.78551C127.339 4.39844 126.956 4.1511 126.538 4.16554L19.7779 7.85398C19.2176 7.87334 18.7827 8.34938 18.8139 8.90909L19.094 13.9291M128.361 9.41725L130.274 11.4834L144.204 27.2757C144.519 27.6332 144.538 28.1637 144.249 28.543L132.986 43.3335L130.512 47.2245M128.361 9.41725C127.672 10.0552 125.233 11.2904 120.988 11.1278M19.094 13.9291L22.3208 17.9991C22.6455 18.4085 22.6001 18.9989 22.2168 19.354L20.4997 20.9444C20.2735 21.1539 20.1566 21.456 20.1829 21.7631L22.6358 50.4954C22.6592 50.7692 22.7942 51.0213 23.0091 51.1925L24.4063 52.3055C24.8797 52.6826 24.9123 53.3903 24.4756 53.8093L22.6375 55.573M19.094 13.9291C23.7711 13.2225 37.8896 11.922 43.1759 12.6558M130.512 47.2245L132.861 48.845C133.269 49.1263 133.41 49.6638 133.192 50.1086L130.762 55.0621C130.607 55.3788 130.296 55.5903 129.944 55.6186L24.1525 64.1207C23.593 64.1657 23.1062 63.7415 23.074 63.1812L22.6375 55.573M130.512 47.2245L119.184 48.1194M22.6375 55.573C26.774 56.6171 35.8605 55.8472 37.4931 54.8468M91.8489 11.2924C100.081 10.279 117.605 8.29279 121.851 8.45532" stroke="black" stroke-linecap="round" stroke-linejoin="round"/>
</svg>
