<svg width="170" height="72" viewBox="0 0 170 72" fill="none" xmlns="http://www.w3.org/2000/svg">
  <path d="M4.07813 8.5C4.07812 6.29086 5.86899 4.5 8.07812 4.5H86.6842H165.29C167.499 4.5 169.29 6.29086 169.29 8.5V50.6214C169.29 52.8339 167.494 54.6262 165.282 54.6214L97.5393 54.4755C95.9659 54.4721 94.5367 55.3914 93.8873 56.8244L90.7852 63.67C89.3953 66.7371 85.0689 66.8192 83.5637 63.807L79.9926 56.6607C79.3136 55.3019 77.9235 54.4449 76.4044 54.4488L8.08816 54.62C5.87511 54.6255 4.07813 52.833 4.07813 50.62L4.07813 8.5Z" fill="#866224" stroke="black" stroke-linecap="round"/>
  <path d="M1.37695 5C1.37695 2.79086 3.16781 1 5.37695 1H83.983H162.589C164.798 1 166.589 2.79086 166.589 5V47.3499C166.589 49.5624 164.793 51.3547 162.58 51.3499L93.5456 51.2012C92.7589 51.1995 92.0443 51.6591 91.7196 52.3757L86.3506 64.2237C85.6556 65.7573 83.4924 65.7984 82.7398 64.2923L76.7372 52.2801C76.3977 51.6007 75.7026 51.1723 74.9431 51.1742L5.38698 51.3485C3.17394 51.354 1.37695 49.5616 1.37695 47.3485V5Z" fill="#E9B965" stroke="black" stroke-linecap="round"/>
  <path d="M35.3522 23.024C34.0402 23.024 33.1442 22.272 32.6642 20.768C32.2002 19.264 31.9682 17.344 31.9682 15.008C31.9682 13.488 32.2402 12.064 32.7842 10.736C33.3442 9.392 34.1922 8.312 35.3282 7.496C36.4642 6.664 37.8482 6.248 39.4802 6.248C40.7922 6.248 41.9842 6.528 43.0562 7.088C44.1282 7.632 44.9762 8.416 45.6002 9.44C46.2402 10.464 46.5602 11.648 46.5602 12.992C46.5602 14.544 46.2482 15.848 45.6242 16.904C45.0002 17.96 44.1922 18.744 43.2002 19.256C42.2082 19.768 41.1602 20.024 40.0562 20.024C39.1602 20.024 38.3362 19.872 37.5842 19.568C37.6802 20.08 37.7282 20.472 37.7282 20.744C37.7282 22.264 36.9362 23.024 35.3522 23.024ZM39.7202 16.304C40.2962 16.304 40.7922 16.096 41.2082 15.68C41.6402 15.248 41.8562 14.752 41.8562 14.192C41.8562 13.616 41.6402 13.12 41.2082 12.704C40.7922 12.272 40.2962 12.056 39.7202 12.056C39.1602 12.056 38.6642 12.272 38.2322 12.704C37.8002 13.12 37.5842 13.616 37.5842 14.192C37.5842 14.752 37.8002 15.248 38.2322 15.68C38.6642 16.096 39.1602 16.304 39.7202 16.304ZM52.8041 23.024C51.6521 23.04 50.6201 22.8 49.7081 22.304C48.8121 21.808 48.1081 21.128 47.5961 20.264C47.1001 19.384 46.8361 18.408 46.8041 17.336C46.7881 16.264 47.0361 15.304 47.5481 14.456C48.0601 13.608 48.7721 12.936 49.6841 12.44C50.6121 11.944 51.6521 11.696 52.8041 11.696C53.9241 11.696 54.9321 11.936 55.8281 12.416C56.7401 12.896 57.4601 13.568 57.9881 14.432C58.5161 15.296 58.7961 16.264 58.8281 17.336C58.8441 18.376 58.5961 19.328 58.0841 20.192C57.5721 21.04 56.8521 21.72 55.9241 22.232C55.0121 22.744 53.9721 23.008 52.8041 23.024ZM52.8761 19.52C53.3081 19.52 53.6841 19.352 54.0041 19.016C54.3241 18.68 54.4841 18.288 54.4841 17.84C54.4841 17.392 54.3241 17.008 54.0041 16.688C53.6841 16.352 53.3081 16.184 52.8761 16.184C52.4441 16.184 52.0681 16.352 51.7481 16.688C51.4281 17.008 51.2681 17.392 51.2681 17.84C51.2681 18.288 51.4281 18.68 51.7481 19.016C52.0681 19.352 52.4441 19.52 52.8761 19.52ZM62.3565 23C61.3325 23 60.6445 22.4 60.2925 21.2C59.9565 20 59.7885 18.344 59.7885 16.232C59.7885 15.272 59.8285 14.472 59.9085 13.832C60.0045 13.176 60.2205 12.624 60.5565 12.176C60.9085 11.712 61.4445 11.48 62.1645 11.48C62.6125 11.48 63.0045 11.584 63.3405 11.792C63.6925 12 63.9165 12.296 64.0125 12.68C64.3645 12.36 64.8205 12.12 65.3805 11.96C65.9405 11.8 66.5405 11.72 67.1805 11.72C67.6925 11.72 68.2125 11.848 68.7405 12.104C69.2845 12.36 69.7325 12.712 70.0845 13.16C70.4525 13.592 70.6365 14.064 70.6365 14.576C70.6365 15.088 70.4525 15.544 70.0845 15.944C69.7325 16.328 69.2605 16.52 68.6685 16.52C68.4765 16.52 68.2925 16.496 68.1165 16.448C67.9565 16.4 67.8125 16.352 67.6845 16.304C67.3645 16.176 67.1085 16.112 66.9165 16.112C66.2925 16.112 65.7405 16.36 65.2605 16.856C64.7965 17.336 64.5645 17.96 64.5645 18.728C64.5645 19.576 64.5325 20.28 64.4685 20.84C64.4045 21.4 64.2125 21.904 63.8925 22.352C63.5725 22.784 63.0605 23 62.3565 23ZM83.5474 12.608C83.5474 13.44 83.1554 14.008 82.3714 14.312C81.5874 14.6 80.5154 14.752 79.1554 14.768C79.1394 15.168 79.1314 15.816 79.1314 16.712C79.1314 17.624 79.1954 18.272 79.3234 18.656C79.4034 18.928 79.5234 19.104 79.6834 19.184C79.8594 19.264 80.1154 19.32 80.4514 19.352C80.5634 19.368 80.6834 19.392 80.8114 19.424C80.9554 19.44 81.1154 19.464 81.2914 19.496C81.6594 19.576 81.9474 19.776 82.1554 20.096C82.3634 20.4 82.4674 20.792 82.4674 21.272C82.4674 21.816 82.1874 22.24 81.6274 22.544C81.0674 22.848 80.2994 23 79.3234 23C78.4274 23 77.5714 22.744 76.7554 22.232C75.9394 21.704 75.3794 21 75.0754 20.12C74.7554 19.176 74.5954 17.392 74.5954 14.768C73.4754 14.736 72.5714 14.592 71.8834 14.336C71.2114 14.064 70.8754 13.584 70.8754 12.896C70.8754 12.032 71.1954 11.456 71.8354 11.168C72.4754 10.864 73.3954 10.704 74.5954 10.688C74.6434 9.408 74.8434 8.344 75.1954 7.496C75.5474 6.632 76.1794 6.2 77.0914 6.2C78.0194 6.2 78.6194 6.6 78.8914 7.4C79.1794 8.2 79.3074 9.296 79.2754 10.688C80.7314 10.672 81.8034 10.784 82.4914 11.024C83.1954 11.264 83.5474 11.792 83.5474 12.608ZM92.3094 13.448C93.8774 13.48 95.0054 13.648 95.6934 13.952C96.3974 14.256 96.7494 14.84 96.7494 15.704C96.7494 16.552 96.3894 17.128 95.6694 17.432C94.9654 17.72 93.8614 17.88 92.3574 17.912L92.3814 19.808C92.3974 20.112 92.4054 20.536 92.4054 21.08C92.4054 21.768 92.2134 22.256 91.8294 22.544C91.4454 22.816 90.9974 22.952 90.4854 22.952C89.6054 22.952 88.9654 22.512 88.5654 21.632C88.1654 20.752 87.9174 19.496 87.8214 17.864C86.7814 17.784 86.0054 17.584 85.4934 17.264C84.9974 16.944 84.7494 16.424 84.7494 15.704C84.7494 14.984 84.9974 14.464 85.4934 14.144C86.0054 13.808 86.7814 13.592 87.8214 13.496C87.9174 11.944 88.1494 10.64 88.5174 9.584C88.8854 8.528 89.4854 7.704 90.3174 7.112C91.1494 6.504 92.2694 6.2 93.6774 6.2C94.5574 6.2 95.2854 6.408 95.8614 6.824C96.4534 7.224 96.7494 7.808 96.7494 8.576C96.7494 9.376 96.5014 9.984 96.0054 10.4C95.5254 10.8 94.8614 11.08 94.0134 11.24C93.4534 11.352 93.0454 11.6 92.7894 11.984C92.5334 12.352 92.3734 12.84 92.3094 13.448ZM103.101 23.024C101.949 23.04 100.917 22.8 100.005 22.304C99.109 21.808 98.405 21.128 97.893 20.264C97.397 19.384 97.133 18.408 97.101 17.336C97.085 16.264 97.333 15.304 97.845 14.456C98.357 13.608 99.069 12.936 99.981 12.44C100.909 11.944 101.949 11.696 103.101 11.696C104.221 11.696 105.229 11.936 106.125 12.416C107.037 12.896 107.757 13.568 108.285 14.432C108.813 15.296 109.093 16.264 109.125 17.336C109.141 18.376 108.893 19.328 108.381 20.192C107.869 21.04 107.149 21.72 106.221 22.232C105.309 22.744 104.269 23.008 103.101 23.024ZM103.173 19.52C103.605 19.52 103.981 19.352 104.301 19.016C104.621 18.68 104.781 18.288 104.781 17.84C104.781 17.392 104.621 17.008 104.301 16.688C103.981 16.352 103.605 16.184 103.173 16.184C102.741 16.184 102.365 16.352 102.045 16.688C101.725 17.008 101.565 17.392 101.565 17.84C101.565 18.288 101.725 18.68 102.045 19.016C102.365 19.352 102.741 19.52 103.173 19.52ZM113.128 22.952C112.328 22.952 111.728 22.656 111.328 22.064C110.928 21.472 110.656 20.6 110.512 19.448C110.384 18.28 110.32 16.656 110.32 14.576C110.32 12.576 110.368 11.016 110.464 9.896C110.576 8.776 110.832 7.88 111.232 7.208C111.648 6.536 112.288 6.2 113.152 6.2C114.016 6.2 114.648 6.536 115.048 7.208C115.464 7.88 115.72 8.776 115.816 9.896C115.928 11.016 115.984 12.576 115.984 14.576C115.984 16.544 115.896 18.136 115.72 19.352C115.56 20.552 115.272 21.456 114.856 22.064C114.44 22.656 113.864 22.952 113.128 22.952ZM119.995 11.36C119.211 11.36 118.547 11.08 118.003 10.52C117.459 9.944 117.187 9.248 117.187 8.432C117.187 7.632 117.459 6.952 118.003 6.392C118.547 5.816 119.211 5.528 119.995 5.528C120.763 5.528 121.419 5.816 121.963 6.392C122.523 6.952 122.803 7.632 122.803 8.432C122.803 9.248 122.523 9.944 121.963 10.52C121.419 11.08 120.763 11.36 119.995 11.36ZM119.995 23C119.339 23 118.851 22.816 118.531 22.448C118.227 22.064 118.019 21.496 117.907 20.744C117.811 19.976 117.763 18.888 117.763 17.48C117.763 16.296 117.819 15.36 117.931 14.672C118.059 13.984 118.283 13.472 118.603 13.136C118.923 12.8 119.387 12.632 119.995 12.632C120.651 12.632 121.131 12.824 121.435 13.208C121.755 13.576 121.963 14.144 122.059 14.912C122.171 15.664 122.227 16.744 122.227 18.152C122.227 19.336 122.163 20.272 122.035 20.96C121.923 21.648 121.707 22.16 121.387 22.496C121.067 22.832 120.603 23 119.995 23ZM129.538 23.024C128.386 23.04 127.354 22.8 126.442 22.304C125.546 21.808 124.842 21.128 124.33 20.264C123.834 19.384 123.57 18.408 123.538 17.336C123.522 16.264 123.77 15.304 124.282 14.456C124.794 13.608 125.506 12.936 126.418 12.44C127.346 11.944 128.386 11.696 129.538 11.696C130.658 11.696 131.666 11.936 132.562 12.416C133.474 12.896 134.194 13.568 134.722 14.432C135.25 15.296 135.53 16.264 135.562 17.336C135.578 18.376 135.33 19.328 134.818 20.192C134.306 21.04 133.586 21.72 132.658 22.232C131.746 22.744 130.706 23.008 129.538 23.024ZM129.61 19.52C130.042 19.52 130.418 19.352 130.738 19.016C131.058 18.68 131.218 18.288 131.218 17.84C131.218 17.392 131.058 17.008 130.738 16.688C130.418 16.352 130.042 16.184 129.61 16.184C129.178 16.184 128.802 16.352 128.482 16.688C128.162 17.008 128.002 17.392 128.002 17.84C128.002 18.288 128.162 18.68 128.482 19.016C128.802 19.352 129.178 19.52 129.61 19.52ZM33.9075 45C31.8435 45 30.3395 44.752 29.3955 44.256C28.4515 43.76 27.8435 42.968 27.5715 41.88C27.2995 40.792 27.1635 39.096 27.1635 36.792C27.1635 34.456 27.2915 32.72 27.5475 31.584C27.8195 30.432 28.4195 29.584 29.3475 29.04C30.2915 28.48 31.7875 28.2 33.8355 28.2C35.0675 28.2 36.3235 28.488 37.6035 29.064C38.8835 29.624 39.9635 30.552 40.8435 31.848C41.7235 33.144 42.1635 34.8 42.1635 36.816C42.1635 38.752 41.7155 40.336 40.8195 41.568C39.9235 42.784 38.8435 43.664 37.5795 44.208C36.3155 44.736 35.0915 45 33.9075 45ZM32.4195 40.776C32.9315 40.84 33.2995 40.872 33.5235 40.872C34.6595 40.872 35.5395 40.568 36.1635 39.96C36.7875 39.352 37.0995 38.512 37.0995 37.44C37.0995 36.48 36.7955 35.736 36.1875 35.208C35.5795 34.664 34.7235 34.392 33.6195 34.392C33.2035 34.392 32.8035 34.424 32.4195 34.488V40.776ZM47.6788 45C46.4308 45 45.4068 44.72 44.6068 44.16C43.8068 43.584 43.4068 42.76 43.4068 41.688C43.4068 40.76 43.8148 40.024 44.6308 39.48C45.4468 38.936 46.4628 38.664 47.6788 38.664C48.1268 38.664 48.5428 38.704 48.9268 38.784C49.3268 38.848 49.5988 38.928 49.7428 39.024C49.7428 38.624 49.5748 38.296 49.2388 38.04C48.9028 37.768 48.3908 37.632 47.7028 37.632C47.3988 37.632 47.1508 37.656 46.9588 37.704C46.7668 37.752 46.5588 37.824 46.3348 37.92C46.1108 38.016 45.9028 38.088 45.7108 38.136C45.5348 38.184 45.2948 38.208 44.9908 38.208C44.4788 38.208 44.0788 38.08 43.7908 37.824C43.5028 37.552 43.3588 37.144 43.3588 36.6C43.3588 35.976 43.5828 35.448 44.0308 35.016C44.4948 34.584 45.0708 34.264 45.7588 34.056C46.4468 33.832 47.1348 33.72 47.8228 33.72C49.1828 33.72 50.3188 33.976 51.2308 34.488C52.1588 34.984 52.8388 35.648 53.2708 36.48C53.7188 37.312 53.9428 38.232 53.9428 39.24C53.9428 39.784 53.8948 40.288 53.7988 40.752C53.7188 41.216 53.6068 41.576 53.4628 41.832C53.6868 42.024 53.8548 42.248 53.9668 42.504C54.0948 42.76 54.1588 43.024 54.1588 43.296C54.1588 43.76 53.9988 44.16 53.6788 44.496C53.3748 44.832 52.9668 45 52.4548 45C52.0708 45 51.7588 44.944 51.5188 44.832C51.2788 44.72 51.0228 44.544 50.7508 44.304C50.3508 44.544 49.9108 44.72 49.4308 44.832C48.9668 44.944 48.3828 45 47.6788 45ZM48.1588 42.576C48.4948 42.576 48.7588 42.504 48.9508 42.36C49.1588 42.216 49.2628 42.04 49.2628 41.832C49.2628 41.624 49.1588 41.448 48.9508 41.304C48.7588 41.16 48.4948 41.088 48.1588 41.088C47.8228 41.088 47.5508 41.16 47.3428 41.304C47.1508 41.448 47.0548 41.624 47.0548 41.832C47.0548 42.04 47.1508 42.216 47.3428 42.36C47.5508 42.504 47.8228 42.576 48.1588 42.576ZM59.498 45C58.09 45 56.97 44.768 56.138 44.304C55.306 43.84 54.89 43.24 54.89 42.504C54.89 42.024 55.05 41.656 55.37 41.4C55.706 41.128 56.13 40.992 56.642 40.992C56.93 40.992 57.162 41.032 57.338 41.112C57.514 41.192 57.69 41.304 57.866 41.448C57.994 41.56 58.098 41.64 58.178 41.688C58.274 41.736 58.386 41.76 58.514 41.76C58.85 41.76 59.018 41.64 59.018 41.4C59.018 41.176 58.93 41.008 58.754 40.896C58.578 40.768 58.274 40.616 57.842 40.44C57.442 40.28 57.178 40.168 57.05 40.104C56.314 39.752 55.77 39.336 55.418 38.856C55.066 38.376 54.89 37.864 54.89 37.32C54.89 36.712 55.106 36.136 55.538 35.592C55.986 35.032 56.61 34.584 57.41 34.248C58.226 33.896 59.162 33.72 60.218 33.72C61.13 33.72 61.954 33.848 62.69 34.104C63.442 34.36 64.034 34.712 64.466 35.16C64.898 35.592 65.114 36.072 65.114 36.6C65.114 37.096 64.954 37.472 64.634 37.728C64.33 37.984 63.914 38.112 63.386 38.112C63.178 38.112 63.01 38.096 62.882 38.064C62.77 38.016 62.618 37.944 62.426 37.848C62.314 37.784 62.194 37.728 62.066 37.68C61.954 37.632 61.826 37.608 61.682 37.608C61.554 37.608 61.442 37.656 61.346 37.752C61.25 37.832 61.202 37.936 61.202 38.064C61.202 38.304 61.378 38.48 61.73 38.592C62.658 38.896 63.402 39.28 63.962 39.744C64.538 40.208 64.826 40.848 64.826 41.664C64.826 42.704 64.338 43.52 63.362 44.112C62.402 44.704 61.114 45 59.498 45ZM68.9497 45C68.1657 45 67.5657 44.696 67.1497 44.088C66.7337 43.48 66.4457 42.544 66.2857 41.28C66.1417 40.016 66.0697 38.264 66.0697 36.024C66.0697 34.152 66.1177 32.688 66.2137 31.632C66.3257 30.576 66.5737 29.744 66.9577 29.136C67.3417 28.512 67.9417 28.2 68.7577 28.2C69.4617 28.2 69.9897 28.424 70.3417 28.872C70.6937 29.32 70.9177 29.88 71.0137 30.552C71.1097 31.224 71.1577 32.064 71.1577 33.072V34.152C71.4777 33.992 71.7577 33.88 71.9977 33.816C72.2537 33.752 72.6297 33.72 73.1257 33.72C74.2137 33.72 75.1497 34 75.9337 34.56C76.7177 35.104 77.3097 35.84 77.7097 36.768C78.1257 37.696 78.3337 38.728 78.3337 39.864C78.3337 41.336 78.1737 42.552 77.8537 43.512C77.5497 44.456 76.9417 44.928 76.0297 44.928C75.3897 44.928 74.9097 44.784 74.5897 44.496C74.2857 44.208 74.0857 43.816 73.9897 43.32C73.9097 42.824 73.8697 42.144 73.8697 41.28C73.8697 40.336 73.7657 39.608 73.5577 39.096C73.3657 38.584 73.0217 38.328 72.5257 38.328C72.0297 38.328 71.6697 38.592 71.4457 39.12C71.2377 39.632 71.1257 40.352 71.1097 41.28C71.0937 42.144 71.0377 42.832 70.9417 43.344C70.8617 43.856 70.6617 44.264 70.3417 44.568C70.0377 44.856 69.5737 45 68.9497 45ZM85.9421 45C83.0301 45 81.1501 44.112 80.3021 42.336C79.4701 40.544 79.0541 38.728 79.0541 36.888C79.0541 35.528 79.1741 34.184 79.4141 32.856C79.6701 31.528 80.0781 30.416 80.6381 29.52C81.1981 28.624 81.9261 28.176 82.8221 28.176C83.3821 28.176 83.8621 28.352 84.2621 28.704C84.6621 29.056 84.8621 29.568 84.8621 30.24C84.8621 30.576 84.8301 30.912 84.7661 31.248C84.7021 31.584 84.6061 32 84.4781 32.496C84.4461 32.592 84.3821 32.832 84.2861 33.216C84.2061 33.6 84.1501 33.96 84.1181 34.296C84.8221 33.912 85.6221 33.72 86.5181 33.72C87.4141 33.72 88.2461 33.92 89.0141 34.32C89.7981 34.72 90.4301 35.336 90.9101 36.168C91.4061 36.984 91.6541 37.984 91.6541 39.168C91.6541 40.176 91.4221 41.128 90.9581 42.024C90.4941 42.904 89.8221 43.624 88.9421 44.184C88.0781 44.728 87.0781 45 85.9421 45ZM85.7981 41.208C86.2301 41.208 86.6061 41.048 86.9261 40.728C87.2621 40.392 87.4301 40 87.4301 39.552C87.4301 39.104 87.2621 38.712 86.9261 38.376C86.6061 38.04 86.2301 37.872 85.7981 37.872C85.3661 37.872 84.9901 38.04 84.6701 38.376C84.3501 38.712 84.1901 39.104 84.1901 39.552C84.1901 40 84.3501 40.392 84.6701 40.728C84.9901 41.048 85.3661 41.208 85.7981 41.208ZM98.39 45.024C97.238 45.04 96.206 44.8 95.294 44.304C94.398 43.808 93.694 43.128 93.182 42.264C92.686 41.384 92.422 40.408 92.39 39.336C92.374 38.264 92.622 37.304 93.134 36.456C93.646 35.608 94.358 34.936 95.27 34.44C96.198 33.944 97.238 33.696 98.39 33.696C99.51 33.696 100.518 33.936 101.414 34.416C102.326 34.896 103.046 35.568 103.574 36.432C104.102 37.296 104.382 38.264 104.414 39.336C104.43 40.376 104.182 41.328 103.67 42.192C103.158 43.04 102.438 43.72 101.51 44.232C100.598 44.744 99.558 45.008 98.39 45.024ZM98.462 41.52C98.894 41.52 99.27 41.352 99.59 41.016C99.91 40.68 100.07 40.288 100.07 39.84C100.07 39.392 99.91 39.008 99.59 38.688C99.27 38.352 98.894 38.184 98.462 38.184C98.03 38.184 97.654 38.352 97.334 38.688C97.014 39.008 96.854 39.392 96.854 39.84C96.854 40.288 97.014 40.68 97.334 41.016C97.654 41.352 98.03 41.52 98.462 41.52ZM109.46 45C108.212 45 107.188 44.72 106.388 44.16C105.588 43.584 105.188 42.76 105.188 41.688C105.188 40.76 105.596 40.024 106.412 39.48C107.228 38.936 108.244 38.664 109.46 38.664C109.908 38.664 110.324 38.704 110.708 38.784C111.108 38.848 111.38 38.928 111.524 39.024C111.524 38.624 111.356 38.296 111.02 38.04C110.684 37.768 110.172 37.632 109.484 37.632C109.18 37.632 108.932 37.656 108.74 37.704C108.548 37.752 108.34 37.824 108.116 37.92C107.892 38.016 107.684 38.088 107.492 38.136C107.316 38.184 107.076 38.208 106.772 38.208C106.26 38.208 105.86 38.08 105.572 37.824C105.284 37.552 105.14 37.144 105.14 36.6C105.14 35.976 105.364 35.448 105.812 35.016C106.276 34.584 106.852 34.264 107.54 34.056C108.228 33.832 108.916 33.72 109.604 33.72C110.964 33.72 112.1 33.976 113.012 34.488C113.94 34.984 114.62 35.648 115.052 36.48C115.5 37.312 115.724 38.232 115.724 39.24C115.724 39.784 115.676 40.288 115.58 40.752C115.5 41.216 115.388 41.576 115.244 41.832C115.468 42.024 115.636 42.248 115.748 42.504C115.876 42.76 115.94 43.024 115.94 43.296C115.94 43.76 115.78 44.16 115.46 44.496C115.156 44.832 114.748 45 114.236 45C113.852 45 113.54 44.944 113.3 44.832C113.06 44.72 112.804 44.544 112.532 44.304C112.132 44.544 111.692 44.72 111.212 44.832C110.748 44.944 110.164 45 109.46 45ZM109.94 42.576C110.276 42.576 110.54 42.504 110.732 42.36C110.94 42.216 111.044 42.04 111.044 41.832C111.044 41.624 110.94 41.448 110.732 41.304C110.54 41.16 110.276 41.088 109.94 41.088C109.604 41.088 109.332 41.16 109.124 41.304C108.932 41.448 108.836 41.624 108.836 41.832C108.836 42.04 108.932 42.216 109.124 42.36C109.332 42.504 109.604 42.576 109.94 42.576ZM119.474 45C118.45 45 117.762 44.4 117.41 43.2C117.074 42 116.906 40.344 116.906 38.232C116.906 37.272 116.946 36.472 117.026 35.832C117.122 35.176 117.338 34.624 117.674 34.176C118.026 33.712 118.562 33.48 119.282 33.48C119.73 33.48 120.122 33.584 120.458 33.792C120.81 34 121.034 34.296 121.13 34.68C121.482 34.36 121.938 34.12 122.498 33.96C123.058 33.8 123.658 33.72 124.298 33.72C124.81 33.72 125.33 33.848 125.858 34.104C126.402 34.36 126.85 34.712 127.202 35.16C127.57 35.592 127.754 36.064 127.754 36.576C127.754 37.088 127.57 37.544 127.202 37.944C126.85 38.328 126.378 38.52 125.786 38.52C125.594 38.52 125.41 38.496 125.234 38.448C125.074 38.4 124.93 38.352 124.802 38.304C124.482 38.176 124.226 38.112 124.034 38.112C123.41 38.112 122.858 38.36 122.378 38.856C121.914 39.336 121.682 39.96 121.682 40.728C121.682 41.576 121.65 42.28 121.586 42.84C121.522 43.4 121.33 43.904 121.01 44.352C120.69 44.784 120.178 45 119.474 45ZM133.469 45C132.333 45 131.325 44.728 130.445 44.184C129.581 43.624 128.917 42.904 128.453 42.024C127.989 41.128 127.757 40.176 127.757 39.168C127.757 37.984 127.997 36.984 128.477 36.168C128.973 35.336 129.605 34.72 130.373 34.32C131.157 33.92 131.997 33.72 132.893 33.72C133.789 33.72 134.589 33.912 135.293 34.296C135.261 33.96 135.197 33.6 135.101 33.216C135.021 32.832 134.965 32.592 134.933 32.496C134.805 32 134.709 31.584 134.645 31.248C134.581 30.912 134.549 30.576 134.549 30.24C134.549 29.568 134.749 29.056 135.149 28.704C135.549 28.352 136.029 28.176 136.589 28.176C137.485 28.176 138.213 28.624 138.773 29.52C139.333 30.416 139.733 31.528 139.973 32.856C140.229 34.184 140.357 35.528 140.357 36.888C140.357 38.728 139.933 40.544 139.085 42.336C138.253 44.112 136.381 45 133.469 45ZM133.613 41.208C134.045 41.208 134.421 41.048 134.741 40.728C135.061 40.392 135.221 40 135.221 39.552C135.221 39.104 135.061 38.712 134.741 38.376C134.421 38.04 134.045 37.872 133.613 37.872C133.181 37.872 132.797 38.04 132.461 38.376C132.141 38.712 131.981 39.104 131.981 39.552C131.981 40 132.141 40.392 132.461 40.728C132.797 41.048 133.181 41.208 133.613 41.208Z" fill="black"/>
</svg>
