<svg width="178" height="277" viewBox="0 0 178 277" fill="none" xmlns="http://www.w3.org/2000/svg">
  <path d="M93.3399 275.943L87.1693 275.943L85.8338 55.0689L96.0126 55.0689L93.3399 275.943Z" fill="#76500D" stroke="black" stroke-linejoin="round"/>
  <path d="M79.3498 271.994L87.1699 275.945L85.8343 56.4551L76.8477 56.4551L79.3498 271.994Z" fill="#AE7D44" stroke="black" stroke-linejoin="round"/>
  <path d="M15.6325 12.7988C15.668 11.8723 19.7422 9.94786 22.017 9.02532C22.3925 8.87301 22.8205 8.97373 23.0973 9.26969L25.6263 11.9733C25.7718 12.1287 25.8638 12.3265 25.889 12.5379L31.6277 60.6019C31.6475 60.7677 31.6254 60.9359 31.5635 61.091L27.2284 71.9575C27.0767 72.3376 26.7088 72.587 26.2995 72.587L21.0975 72.587C20.5705 72.587 20.1339 72.1779 20.0996 71.652L19.4761 62.0829C19.4546 61.7529 19.5976 61.4336 19.8581 61.23L20.6421 60.6172C21.1913 60.188 21.1439 59.3427 20.5502 58.9775L19.9934 58.6351C19.7231 58.4689 19.5478 58.1842 19.5208 57.8681L17.1583 30.1141C17.1396 29.8937 17.1944 29.6734 17.3143 29.4875L18.6056 27.4843C18.8701 27.0741 18.7998 26.533 18.4394 26.204L16.4475 24.3853C16.2547 24.2093 16.1385 23.9681 16.1239 23.7074C15.9727 21.0057 15.5955 13.7647 15.6325 12.7988Z" fill="#7A4A12" stroke="black" stroke-linecap="round" stroke-linejoin="round"/>
  <path d="M143.856 4.72926L22.3305 8.92783C21.7702 8.94718 21.3353 9.42323 21.3666 9.98294L21.6925 15.8251L25.4369 20.5478C25.7615 20.9572 25.7162 21.5476 25.3328 21.9027L23.2407 23.8405C23.0146 24.0499 22.8977 24.352 22.9239 24.6592L25.7214 57.427C25.7447 57.7007 25.8797 57.9529 26.0947 58.1241L27.8496 59.522C28.323 59.8991 28.3556 60.6068 27.9189 61.0258L25.7183 63.1373L26.2222 71.9201C26.2544 72.4805 26.7413 72.9046 27.3007 72.8597L147.709 63.1829C148.06 63.1546 148.371 62.9431 148.526 62.6264L151.372 56.8237C151.59 56.3789 151.45 55.8414 151.042 55.5602L148.276 53.6525L151.086 49.2318L163.951 32.3393C164.24 31.96 164.221 31.4295 163.905 31.072L148.006 13.0464L145.832 10.6991L145.832 8.02523C145.832 7.89505 145.807 7.76611 145.757 7.64566L144.816 5.34923C144.657 4.96216 144.274 4.71482 143.856 4.72926Z" fill="#BC9549"/>
  <path d="M145.832 10.6991L145.832 8.02523C145.832 7.89505 145.807 7.76611 145.757 7.64566L144.816 5.34923C144.657 4.96216 144.274 4.71482 143.856 4.72926L22.3305 8.92783C21.7702 8.94718 21.3353 9.42323 21.3666 9.98294L21.6925 15.8251M145.832 10.6991L148.006 13.0464L163.905 31.072C164.221 31.4295 164.24 31.96 163.951 32.3393L151.086 49.2318L148.276 53.6525M145.832 10.6991C145.049 11.4238 142.279 12.8272 137.456 12.6425M21.6925 15.8251L25.4369 20.5478C25.7615 20.9572 25.7162 21.5476 25.3328 21.9027L23.2407 23.8405C23.0146 24.0499 22.8977 24.352 22.9239 24.6592L25.7214 57.427C25.7447 57.7007 25.8797 57.9529 26.0947 58.1241L27.8496 59.522C28.323 59.8991 28.3556 60.6068 27.9189 61.0258L25.7183 63.1373M21.6925 15.8251C27.0062 15.0223 43.0465 13.5448 49.0523 14.3785M148.276 53.6525L151.042 55.5602C151.45 55.8414 151.59 56.3789 151.372 56.8237L148.526 62.6264C148.371 62.9431 148.06 63.1546 147.709 63.1829L27.3007 72.8597C26.7413 72.9046 26.2544 72.4805 26.2222 71.9201L25.7183 63.1373M148.276 53.6525L135.407 54.6692M25.7183 63.1373C30.4179 64.3235 40.7412 63.4488 42.596 62.3123M104.35 12.8295C113.703 11.6781 133.613 9.42157 138.436 9.60622" stroke="black" stroke-linecap="round" stroke-linejoin="round"/>
  <path d="M15.6607 155.2C15.6904 154.426 19.8587 152.834 22.1076 152.1C22.4381 151.993 22.7981 152.072 23.0588 152.302L25.5998 154.545C25.7755 154.7 25.8912 154.912 25.9266 155.144L31.9574 194.652C31.9877 194.85 31.9577 195.053 31.8715 195.234L27.6766 204.031C27.5097 204.381 27.1552 204.603 26.7673 204.601L21.4986 204.565C20.9825 204.562 20.5539 204.166 20.5091 203.652L19.8479 196.055C19.8157 195.685 19.9914 195.327 20.3041 195.126L20.6533 194.902C21.3024 194.486 21.2555 193.522 20.569 193.171L20.3747 193.071C20.0759 192.918 19.8738 192.625 19.8367 192.292L17.3158 169.619C17.287 169.361 17.3603 169.101 17.5201 168.895L18.5626 167.554C18.9047 167.114 18.8207 166.479 18.3758 166.142L16.6099 164.808C16.3814 164.636 16.238 164.375 16.2164 164.089C16.0417 161.776 15.6307 155.984 15.6607 155.2Z" fill="#7A4A12" stroke="black" stroke-linecap="round" stroke-linejoin="round"/>
  <path d="M154.142 147.87L22.4238 150.538C21.8504 150.55 21.4042 151.041 21.4468 151.612L21.7948 156.285L25.3825 160.053C25.7917 160.482 25.7388 161.172 25.2688 161.534L23.4822 162.912C23.2059 163.124 23.0606 163.466 23.0987 163.813L26.0754 190.901C26.1077 191.195 26.2684 191.46 26.5142 191.624L27.989 192.608C28.552 192.984 28.5868 193.799 28.058 194.221L26.1203 195.769L26.6704 202.973C26.7118 203.516 27.1795 203.926 27.7229 203.896L158.333 196.643C158.668 196.625 158.972 196.438 159.141 196.148L161.796 191.59C162.074 191.112 161.912 190.499 161.433 190.222L158.81 188.703L161.592 185.034L174.178 171.212C174.545 170.809 174.521 170.186 174.125 169.812L158.282 154.835L156.094 152.864L156.078 150.701C156.077 150.549 156.041 150.399 155.973 150.263L155.058 148.424C154.886 148.078 154.529 147.862 154.142 147.87Z" fill="#BC9549"/>
  <path d="M156.094 152.864L156.078 150.701C156.077 150.549 156.041 150.399 155.973 150.263L155.058 148.424C154.886 148.078 154.529 147.862 154.142 147.87L22.4238 150.538C21.8504 150.55 21.4042 151.041 21.4468 151.612L21.7948 156.285M156.094 152.864L158.282 154.835L174.125 169.812C174.521 170.186 174.545 170.809 174.178 171.212L161.592 185.034L158.81 188.703M156.094 152.864C155.316 153.463 152.555 154.616 147.732 154.432M21.7948 156.285L25.3825 160.053C25.7917 160.482 25.7388 161.172 25.2688 161.534L23.4822 162.912C23.2059 163.124 23.0606 163.466 23.0987 163.813L26.0754 190.901C26.1077 191.195 26.2684 191.46 26.5142 191.624L27.989 192.608C28.552 192.984 28.5868 193.799 28.058 194.221L26.1203 195.769M21.7948 156.285C27.1021 155.649 43.1291 154.519 49.1386 155.253M158.81 188.703L161.433 190.222C161.912 190.499 162.074 191.112 161.796 191.59L159.141 196.148C158.972 196.438 158.668 196.625 158.333 196.643L27.7229 203.896C27.1795 203.926 26.7118 203.516 26.6704 202.973L26.1203 195.769M158.81 188.703L145.951 189.469M26.1203 195.769C30.8262 196.789 41.1414 196.125 42.9886 195.189M114.636 154.377C123.979 153.476 143.87 151.721 148.693 151.905" stroke="black" stroke-linecap="round" stroke-linejoin="round"/>
  <path d="M156.024 88.71C155.999 87.7219 154.341 83.4653 145.973 84.239C145.498 84.283 145.132 84.6717 145.098 85.1482L142.24 125.808C142.227 125.999 142.269 126.19 142.36 126.357L148.164 136.992C148.395 137.416 148.898 137.614 149.358 137.461L154.74 135.667C155.127 135.538 155.397 135.187 155.422 134.779L155.926 126.475C155.941 126.234 155.867 125.995 155.719 125.803L154.923 124.773C154.556 124.298 154.687 123.61 155.201 123.303L155.967 122.845C156.274 122.662 156.459 122.329 156.454 121.971L156.1 100.02C156.097 99.8245 156.036 99.6339 155.926 99.4722L154.683 97.6533C154.477 97.353 154.451 96.9649 154.615 96.6399L155.836 94.2093C155.91 94.0622 155.947 93.8981 155.943 93.7335C155.872 90.5436 156.05 89.7039 156.024 88.71Z" fill="#7A4A12" stroke="black" stroke-linecap="round" stroke-linejoin="round"/>
  <path d="M18.1404 78.8655L150.934 84.5407C151.496 84.5647 151.928 85.0471 151.889 85.6082L151.489 91.441L147.685 96.1156C147.355 96.5208 147.393 97.1117 147.772 97.4717L149.88 99.4747C150.08 99.6647 150.192 99.9289 150.191 100.205L150.077 121.921C150.075 122.228 149.932 122.517 149.69 122.706L147.961 124.047C147.483 124.418 147.442 125.125 147.873 125.55L150.046 127.689L149.429 136.488C149.39 137.039 148.912 137.454 148.361 137.415L16.131 128.108C15.7772 128.083 15.4631 127.872 15.3054 127.555L12.4304 121.761C12.2774 121.453 12.2937 121.088 12.4735 120.794L13.9341 118.411L11.6996 113.866L5.09278 99.6302C4.93997 99.3009 4.9776 98.9146 5.19113 98.621L13.8834 86.6691C13.9171 86.6227 13.9548 86.5794 13.996 86.5394L16.7157 83.9017L16.2318 82.2882C16.1647 82.0646 16.178 81.8246 16.2693 81.6097L17.1774 79.4734C17.3404 79.0899 17.7241 78.8477 18.1404 78.8655Z" fill="#BC9549"/>
  <path d="M16.7157 83.9017L16.2318 82.2882C16.1647 82.0646 16.178 81.8246 16.2693 81.6097L17.1774 79.4734C17.3404 79.0899 17.7242 78.8477 18.1404 78.8655L150.934 84.5407C151.496 84.5647 151.928 85.0471 151.889 85.6082L151.489 91.441M16.7157 83.9017L13.996 86.5394C13.9548 86.5794 13.9172 86.6227 13.8834 86.6691L5.19113 98.621C4.9776 98.9146 4.93996 99.3009 5.09279 99.6302L11.6996 113.866L13.9341 118.411M16.7157 83.9017C17.4888 84.6364 21.8869 85.4633 21.8869 85.4633M151.489 91.441L147.685 96.1156C147.355 96.5208 147.393 97.1117 147.772 97.4717L149.88 99.4747C150.08 99.6647 150.192 99.9289 150.191 100.205L150.077 121.921C150.075 122.228 149.932 122.517 149.69 122.706L147.961 124.047C147.483 124.418 147.442 125.125 147.873 125.55L150.046 127.689M151.489 91.441C146.186 90.5705 132.568 89.057 126.553 89.814M13.9341 118.411L12.4735 120.794C12.2937 121.088 12.2774 121.453 12.4304 121.761L15.3054 127.555C15.4631 127.872 15.7772 128.083 16.131 128.108L148.361 137.415C148.912 137.454 149.39 137.039 149.429 136.488L150.046 127.689M13.9341 118.411L19.6147 118.979M150.046 127.689C145.332 128.815 135.443 130.777 133.603 129.617M59.9174 87.5596C50.5808 86.289 30.7011 83.7786 25.8761 83.9017" stroke="black" stroke-linecap="round" stroke-linejoin="round"/>
</svg>
