<svg width="19" height="21" viewBox="0 0 19 21" fill="none" xmlns="http://www.w3.org/2000/svg">
<rect x="1" width="16" height="16" rx="4" fill="black"/>
<g filter="url(#filter0_d_32622_260)">
<path d="M4.98851 9.08719L4.06152 10.4478L4.12219 10.9508L5.32884 11.8835C5.32884 11.8835 6.63582 12.9001 7.34214 13.0001C7.57581 13.0328 9.78944 11.3382 11.2584 10.5805C12.4507 9.96551 13.1457 9.73218 13.1457 9.73218L14.6717 10.0268L11.7621 7.29688C11.7621 7.29688 9.66478 8.56953 9.16212 9.08652C8.65879 9.60318 7.33748 10.5342 7.33748 10.5342L5.91083 10.1085L4.98851 9.08652V9.08719Z" fill="url(#paint0_linear_32622_260)"/>
<path d="M6.01546 6.61482L5.14014 7.8968L5.98979 8.87913L7.29511 9.27712L9.43441 7.49381L10.6927 6.78048L11.5734 6.39315L10.2314 5.3125C10.2314 5.3125 8.55342 5.41583 7.94576 6.16016C7.94576 6.16016 6.77178 7.27648 6.58245 7.13181L6.01646 6.61482H6.01546Z" fill="url(#paint1_linear_32622_260)"/>
<path d="M8.1261 3L6.14746 5.6263C6.14746 5.6263 6.51079 6.16296 6.71345 6.0503C6.94145 5.92463 7.77944 5.06664 8.1541 4.89198C8.90409 4.54198 8.57209 4.64698 9.43475 4.42665L10.0481 4.53232L8.1261 3Z" fill="url(#paint2_linear_32622_260)"/>
</g>
<defs>
<filter id="filter0_d_32622_260" x="0.0615234" y="3" width="18.6104" height="18.001" filterUnits="userSpaceOnUse" color-interpolation-filters="sRGB">
<feFlood flood-opacity="0" result="BackgroundImageFix"/>
<feColorMatrix in="SourceAlpha" type="matrix" values="0 0 0 0 0 0 0 0 0 0 0 0 0 0 0 0 0 0 127 0" result="hardAlpha"/>
<feOffset dy="4"/>
<feGaussianBlur stdDeviation="2"/>
<feComposite in2="hardAlpha" operator="out"/>
<feColorMatrix type="matrix" values="0 0 0 0 0 0 0 0 0 0 0 0 0 0 0 0 0 0 0.25 0"/>
<feBlend mode="normal" in2="BackgroundImageFix" result="effect1_dropShadow_32622_260"/>
<feBlend mode="normal" in="SourceGraphic" in2="effect1_dropShadow_32622_260" result="shape"/>
</filter>
<linearGradient id="paint0_linear_32622_260" x1="14.6717" y1="14.4531" x2="7.01278" y2="2.00462" gradientUnits="userSpaceOnUse">
<stop offset="0.333" stop-color="#3FB0FF"/>
<stop offset="0.719" stop-color="#9236EA"/>
<stop offset="1" stop-color="#F29A6B"/>
</linearGradient>
<linearGradient id="paint1_linear_32622_260" x1="14.6713" y1="14.4497" x2="7.01241" y2="2.00122" gradientUnits="userSpaceOnUse">
<stop offset="0.333" stop-color="#3FB0FF"/>
<stop offset="0.719" stop-color="#9236EA"/>
<stop offset="1" stop-color="#F29A6B"/>
</linearGradient>
<linearGradient id="paint2_linear_32622_260" x1="14.6717" y1="14.4525" x2="7.01275" y2="2.00403" gradientUnits="userSpaceOnUse">
<stop offset="0.333" stop-color="#3FB0FF"/>
<stop offset="0.719" stop-color="#9236EA"/>
<stop offset="1" stop-color="#F29A6B"/>
</linearGradient>
</defs>
</svg>
