<svg width="265" height="115" viewBox="0 0 265 115" fill="none" xmlns="http://www.w3.org/2000/svg">
<path d="M128.577 93.3865C170.513 91.6508 202.454 87.1893 223.926 80.4194C234.66 77.0351 242.813 73.0632 248.291 68.5389C253.778 64.0076 256.614 58.8927 256.614 53.2528C256.614 47.6253 253.753 41.9013 248.241 36.4188C242.728 30.9353 234.529 25.657 223.752 20.9049C202.198 11.3997 170.246 3.96143 128.589 1.23492C86.9183 -1.49252 54.9469 3.61117 33.371 12.5781C11.8322 21.5296 0.5 34.4106 0.5 47.3104C0.5 60.215 11.6893 72.5999 33.1504 81.3025C54.6476 90.0197 86.6141 95.1233 128.577 93.3865Z" fill="#FDD54C" stroke="black"/>
<path d="M128.557 92.8899C212.397 89.45 256.114 75.2088 256.114 53.6015C175.148 99.959 52.3022 68.9901 1 47.7109C1 72.6626 44.7166 96.3297 128.557 92.8899Z" fill="black" fill-opacity="0.27"/>
<path d="M222.941 4.73412L205.987 14.8006C205.236 15.2465 205.381 16.3762 206.217 16.6282C219.669 20.6805 228.956 24.3825 232.815 26.6188C233.399 26.9571 234.179 26.7017 234.397 26.0633L241.289 5.91767C241.511 5.26872 241.029 4.59398 240.343 4.59398H223.452C223.272 4.59398 223.096 4.64239 222.941 4.73412Z" fill="#FFF5A9" stroke="black"/>
<path d="M222.941 95.4797L205.987 85.4132C205.236 84.9673 205.381 83.8376 206.217 83.5857C219.669 79.5333 228.956 75.8314 232.815 73.595C233.399 73.2567 234.179 73.5122 234.397 74.1506L241.289 94.2962C241.511 94.9452 241.029 95.6199 240.343 95.6199H223.452C223.272 95.6199 223.096 95.5715 222.941 95.4797Z" fill="#FFF5A9" stroke="black"/>
<path d="M228.442 44.0483L216.047 48.0483C214.963 48.3984 215.215 50 216.355 50H253.137C253.297 50 253.454 49.9618 253.596 49.8885L261.343 45.8885C262.274 45.4076 261.932 44 260.884 44H228.749C228.645 44 228.541 44.0163 228.442 44.0483Z" fill="#FFF5A9" stroke="black"/>
<path d="M138.35 95.3079C139.747 96.1064 142.542 98.5417 142.542 101.895C142.542 103.089 142.348 104.574 141.973 106.087C141.032 109.889 138.953 113.872 135.954 113.872H90.4411C85.0515 113.872 78.8233 109.441 80.2605 106.087C82.7723 100.227 88.2094 96.2619 98.8252 95.4585L96.4298 89.3193C96.4298 88.9201 97.1484 88.2414 100.023 88.7204C103.616 89.3193 125.774 90.515 136.553 89.9171L135.954 95.3079H138.35Z" fill="#FDD54C"/>
<path d="M80.2605 106.087C78.8233 109.441 85.0515 113.872 90.4411 113.872C104.215 113.872 132.601 113.872 135.954 113.872C138.953 113.872 141.032 109.89 141.973 106.087M80.2605 106.087C82.7723 100.227 88.2094 96.2619 98.8252 95.4585M80.2605 106.087H141.973M98.8252 95.4585C100.141 95.3589 101.537 95.3079 103.017 95.3079C114.944 95.3079 128.7 95.3079 135.954 95.3079M98.8252 95.4585L96.4298 89.3193C96.4298 88.9201 97.1484 88.2414 100.023 88.7204C103.616 89.3193 125.774 90.515 136.553 89.9171L135.954 95.3079M135.954 95.3079C136.859 95.3079 137.663 95.3079 138.35 95.3079C139.747 96.1064 142.542 98.5417 142.542 101.895C142.542 103.089 142.348 104.574 141.973 106.087" stroke="black"/>
<path d="M90.4411 113.873H135.954C138.953 113.873 141.032 109.89 141.973 106.088H80.2605C78.8233 109.441 85.0515 113.873 90.4411 113.873Z" fill="black" fill-opacity="0.5" stroke="black"/>
<path d="M97.9064 98.259C93.7982 98.2375 90.1391 100.329 87.8883 102.158C87.2164 102.703 87.6296 103.689 88.4954 103.689H97.826C98.3783 103.689 98.826 103.241 98.826 102.689V99.2196C98.826 98.6995 98.4265 98.2617 97.9064 98.259Z" fill="#0F0F0F"/>
<rect x="101.82" y="97.7021" width="8.38401" height="5.98858" rx="1" fill="#0F0F0F"/>
<rect x="113.797" y="97.7021" width="8.38401" height="5.98858" rx="1" fill="#0F0F0F"/>
<path d="M41.9517 47.976C39.2957 47.96 37.3037 47.304 35.9757 46.008C34.6637 44.712 34.0077 42.608 34.0077 39.696C34.0077 37.056 34.6477 34.984 35.9277 33.48C37.2077 31.96 39.0157 31.2 41.3517 31.2C42.7917 31.2 44.0477 31.416 45.1197 31.848C46.1917 32.28 47.0157 32.896 47.5917 33.696C48.1677 34.496 48.4557 35.44 48.4557 36.528C48.4557 37.392 48.2637 38.16 47.8797 38.832C47.5117 39.504 46.9597 40.104 46.2237 40.632C46.8157 40.728 47.3277 41.048 47.7597 41.592C48.2077 42.136 48.4317 42.768 48.4317 43.488C48.4317 44.256 48.2237 44.984 47.8077 45.672C47.4077 46.344 46.7197 46.896 45.7437 47.328C44.7837 47.76 43.5197 47.976 41.9517 47.976ZM40.2957 39.024C40.5837 39.168 40.9437 39.24 41.3757 39.24C41.8877 39.24 42.3277 39.12 42.6957 38.88C43.0797 38.624 43.2717 38.248 43.2717 37.752C43.2717 37.272 43.0797 36.912 42.6957 36.672C42.3277 36.416 41.8797 36.288 41.3517 36.288C40.9357 36.288 40.5837 36.36 40.2957 36.504C40.0717 36.6 39.9037 36.768 39.7917 37.008C39.6797 37.248 39.6237 37.504 39.6237 37.776C39.6237 38.048 39.6797 38.304 39.7917 38.544C39.9037 38.768 40.0717 38.928 40.2957 39.024ZM40.2957 44.64C40.5997 44.768 40.9597 44.832 41.3757 44.832C41.8877 44.832 42.3277 44.728 42.6957 44.52C43.0797 44.296 43.2717 43.968 43.2717 43.536C43.2717 43.12 43.0797 42.8 42.6957 42.576C42.3117 42.352 41.8637 42.24 41.3517 42.24C40.9517 42.24 40.5997 42.304 40.2957 42.432C40.0717 42.528 39.9037 42.68 39.7917 42.888C39.6797 43.08 39.6237 43.296 39.6237 43.536C39.6237 43.776 39.6797 44 39.7917 44.208C39.9037 44.4 40.0717 44.544 40.2957 44.64ZM52.0032 36.36C51.2192 36.36 50.5552 36.08 50.0112 35.52C49.4672 34.944 49.1952 34.248 49.1952 33.432C49.1952 32.632 49.4672 31.952 50.0112 31.392C50.5552 30.816 51.2192 30.528 52.0032 30.528C52.7712 30.528 53.4272 30.816 53.9712 31.392C54.5312 31.952 54.8112 32.632 54.8112 33.432C54.8112 34.248 54.5312 34.944 53.9712 35.52C53.4272 36.08 52.7712 36.36 52.0032 36.36ZM52.0032 48C51.3472 48 50.8592 47.816 50.5392 47.448C50.2352 47.064 50.0272 46.496 49.9152 45.744C49.8192 44.976 49.7712 43.888 49.7712 42.48C49.7712 41.296 49.8272 40.36 49.9392 39.672C50.0672 38.984 50.2912 38.472 50.6112 38.136C50.9312 37.8 51.3952 37.632 52.0032 37.632C52.6592 37.632 53.1392 37.824 53.4432 38.208C53.7632 38.576 53.9712 39.144 54.0672 39.912C54.1792 40.664 54.2352 41.744 54.2352 43.152C54.2352 44.336 54.1712 45.272 54.0432 45.96C53.9312 46.648 53.7152 47.16 53.3952 47.496C53.0752 47.832 52.6112 48 52.0032 48ZM65.2612 48C64.6852 48 64.2532 47.84 63.9652 47.52C63.6932 47.2 63.5252 46.808 63.4612 46.344C63.3972 45.88 63.3652 45.28 63.3652 44.544C63.3652 43.6 63.2372 42.872 62.9812 42.36C62.7252 41.848 62.3092 41.592 61.7332 41.592C61.2052 41.592 60.8052 41.848 60.5332 42.36C60.2772 42.856 60.1492 43.544 60.1492 44.424C60.1492 45.272 60.1252 45.912 60.0772 46.344C60.0292 46.776 59.8692 47.16 59.5972 47.496C59.3252 47.816 58.8772 47.976 58.2532 47.976C57.3412 47.976 56.7012 47.392 56.3332 46.224C55.9652 45.04 55.7812 43.656 55.7812 42.072C55.7812 38.232 56.5892 36.312 58.2052 36.312C58.6532 36.312 59.0212 36.424 59.3092 36.648C59.5972 36.856 59.7972 37.16 59.9092 37.56C60.1172 37.336 60.4372 37.136 60.8692 36.96C61.3172 36.784 61.7892 36.696 62.2852 36.696C64.0452 36.696 65.3572 37.336 66.2212 38.616C67.1012 39.896 67.5412 41.632 67.5412 43.824C67.5412 45.12 67.3732 46.144 67.0372 46.896C66.7012 47.632 66.1092 48 65.2612 48ZM79.4932 37.608C79.4932 38.44 79.1012 39.008 78.3172 39.312C77.5332 39.6 76.4612 39.752 75.1012 39.768C75.0852 40.168 75.0772 40.816 75.0772 41.712C75.0772 42.624 75.1412 43.272 75.2692 43.656C75.3492 43.928 75.4692 44.104 75.6292 44.184C75.8052 44.264 76.0612 44.32 76.3972 44.352C76.5092 44.368 76.6292 44.392 76.7572 44.424C76.9012 44.44 77.0612 44.464 77.2372 44.496C77.6052 44.576 77.8932 44.776 78.1012 45.096C78.3092 45.4 78.4132 45.792 78.4132 46.272C78.4132 46.816 78.1332 47.24 77.5732 47.544C77.0132 47.848 76.2452 48 75.2692 48C74.3732 48 73.5172 47.744 72.7012 47.232C71.8852 46.704 71.3252 46 71.0212 45.12C70.7012 44.176 70.5412 42.392 70.5412 39.768C69.4212 39.736 68.5172 39.592 67.8292 39.336C67.1572 39.064 66.8212 38.584 66.8212 37.896C66.8212 37.032 67.1412 36.456 67.7812 36.168C68.4212 35.864 69.3412 35.704 70.5412 35.688C70.5892 34.408 70.7892 33.344 71.1412 32.496C71.4932 31.632 72.1252 31.2 73.0372 31.2C73.9652 31.2 74.5652 31.6 74.8372 32.4C75.1252 33.2 75.2532 34.296 75.2212 35.688C76.6772 35.672 77.7492 35.784 78.4372 36.024C79.1412 36.264 79.4932 36.792 79.4932 37.608ZM85.5239 48C84.3399 48 83.2919 47.768 82.3799 47.304C81.4679 46.84 80.7559 46.192 80.2439 45.36C79.7479 44.512 79.4999 43.56 79.4999 42.504C79.4999 41.464 79.7479 40.504 80.2439 39.624C80.7559 38.744 81.4599 38.04 82.3559 37.512C83.2519 36.984 84.2679 36.72 85.4039 36.72C86.4279 36.72 87.3319 36.928 88.1159 37.344C88.8999 37.76 89.4999 38.312 89.9159 39C90.3319 39.672 90.5399 40.376 90.5399 41.112C90.5399 42.312 90.0839 43.192 89.1719 43.752C88.2759 44.296 87.2039 44.568 85.9559 44.568C85.1239 44.568 84.4199 44.464 83.8439 44.256C84.3239 45.04 85.1159 45.432 86.2199 45.432C86.6679 45.432 87.1479 45.376 87.6599 45.264C87.8519 45.216 88.0359 45.192 88.2119 45.192C88.5639 45.192 88.8439 45.28 89.0519 45.456C89.2759 45.632 89.3879 45.872 89.3879 46.176C89.3879 46.672 89.0839 47.104 88.4759 47.472C87.8679 47.824 86.8839 48 85.5239 48ZM83.9159 41.328C84.0599 41.552 84.2519 41.72 84.4919 41.832C84.7479 41.928 85.0279 41.976 85.3319 41.976C85.6839 41.976 85.9879 41.896 86.2439 41.736C86.5159 41.576 86.6519 41.368 86.6519 41.112C86.6519 40.824 86.5319 40.576 86.2919 40.368C86.0679 40.16 85.7399 40.056 85.3079 40.056C84.8759 40.056 84.5319 40.192 84.2759 40.464C84.0359 40.72 83.9159 41.008 83.9159 41.328ZM100.746 48C100.17 48 99.7376 47.84 99.4496 47.52C99.1776 47.2 99.0096 46.808 98.9456 46.344C98.8816 45.88 98.8496 45.28 98.8496 44.544C98.8496 43.6 98.7216 42.872 98.4656 42.36C98.2096 41.848 97.7936 41.592 97.2176 41.592C96.6896 41.592 96.2896 41.848 96.0176 42.36C95.7616 42.856 95.6336 43.544 95.6336 44.424C95.6336 45.272 95.6096 45.912 95.5616 46.344C95.5136 46.776 95.3536 47.16 95.0816 47.496C94.8096 47.816 94.3616 47.976 93.7376 47.976C92.8256 47.976 92.1856 47.392 91.8176 46.224C91.4496 45.04 91.2656 43.656 91.2656 42.072C91.2656 38.232 92.0736 36.312 93.6896 36.312C94.1376 36.312 94.5056 36.424 94.7936 36.648C95.0816 36.856 95.2816 37.16 95.3936 37.56C95.6016 37.336 95.9216 37.136 96.3536 36.96C96.8016 36.784 97.2736 36.696 97.7696 36.696C99.5296 36.696 100.842 37.336 101.706 38.616C102.586 39.896 103.026 41.632 103.026 43.824C103.026 45.12 102.858 46.144 102.522 46.896C102.186 47.632 101.594 48 100.746 48ZM114.978 37.608C114.978 38.44 114.586 39.008 113.802 39.312C113.018 39.6 111.946 39.752 110.586 39.768C110.57 40.168 110.562 40.816 110.562 41.712C110.562 42.624 110.626 43.272 110.754 43.656C110.834 43.928 110.954 44.104 111.114 44.184C111.29 44.264 111.546 44.32 111.882 44.352C111.994 44.368 112.114 44.392 112.242 44.424C112.386 44.44 112.546 44.464 112.722 44.496C113.09 44.576 113.378 44.776 113.586 45.096C113.794 45.4 113.898 45.792 113.898 46.272C113.898 46.816 113.618 47.24 113.058 47.544C112.498 47.848 111.73 48 110.754 48C109.858 48 109.002 47.744 108.186 47.232C107.37 46.704 106.81 46 106.506 45.12C106.186 44.176 106.026 42.392 106.026 39.768C104.906 39.736 104.002 39.592 103.314 39.336C102.642 39.064 102.306 38.584 102.306 37.896C102.306 37.032 102.626 36.456 103.266 36.168C103.906 35.864 104.826 35.704 106.026 35.688C106.074 34.408 106.274 33.344 106.626 32.496C106.978 31.632 107.61 31.2 108.522 31.2C109.45 31.2 110.05 31.6 110.322 32.4C110.61 33.2 110.738 34.296 110.706 35.688C112.162 35.672 113.234 35.784 113.922 36.024C114.626 36.264 114.978 36.792 114.978 37.608ZM140.343 34.776C140.343 35.832 139.903 36.6 139.023 37.08C138.159 37.544 136.743 37.824 134.775 37.92C134.839 38.688 134.871 39.68 134.871 40.896C134.871 42.592 134.775 43.952 134.583 44.976C134.407 45.984 134.095 46.736 133.647 47.232C133.199 47.712 132.575 47.952 131.775 47.952C130.991 47.952 130.391 47.696 129.975 47.184C129.559 46.672 129.271 45.912 129.111 44.904C128.951 43.896 128.871 42.56 128.871 40.896C128.871 39.776 128.895 38.784 128.943 37.92C127.615 37.856 126.543 37.72 125.727 37.512C124.927 37.288 124.335 36.96 123.951 36.528C123.567 36.096 123.375 35.512 123.375 34.776C123.375 33.88 123.679 33.176 124.287 32.664C124.895 32.152 125.807 31.792 127.023 31.584C128.239 31.376 129.831 31.272 131.799 31.272C133.783 31.272 135.391 31.376 136.623 31.584C137.855 31.792 138.783 32.152 139.407 32.664C140.031 33.176 140.343 33.88 140.343 34.776ZM141.951 48C140.927 48 140.239 47.4 139.887 46.2C139.551 45 139.383 43.344 139.383 41.232C139.383 40.272 139.423 39.472 139.503 38.832C139.599 38.176 139.815 37.624 140.151 37.176C140.503 36.712 141.039 36.48 141.759 36.48C142.207 36.48 142.599 36.584 142.935 36.792C143.287 37 143.511 37.296 143.607 37.68C143.959 37.36 144.415 37.12 144.975 36.96C145.535 36.8 146.135 36.72 146.775 36.72C147.287 36.72 147.807 36.848 148.335 37.104C148.879 37.36 149.327 37.712 149.679 38.16C150.047 38.592 150.231 39.064 150.231 39.576C150.231 40.088 150.047 40.544 149.679 40.944C149.327 41.328 148.855 41.52 148.263 41.52C148.071 41.52 147.887 41.496 147.711 41.448C147.551 41.4 147.407 41.352 147.279 41.304C146.959 41.176 146.703 41.112 146.511 41.112C145.887 41.112 145.335 41.36 144.855 41.856C144.391 42.336 144.159 42.96 144.159 43.728C144.159 44.576 144.127 45.28 144.063 45.84C143.999 46.4 143.807 46.904 143.487 47.352C143.167 47.784 142.655 48 141.951 48ZM155.023 48C153.775 48 152.751 47.72 151.951 47.16C151.151 46.584 150.751 45.76 150.751 44.688C150.751 43.76 151.159 43.024 151.975 42.48C152.791 41.936 153.807 41.664 155.023 41.664C155.471 41.664 155.887 41.704 156.271 41.784C156.671 41.848 156.943 41.928 157.087 42.024C157.087 41.624 156.919 41.296 156.583 41.04C156.247 40.768 155.735 40.632 155.047 40.632C154.743 40.632 154.495 40.656 154.303 40.704C154.111 40.752 153.903 40.824 153.679 40.92C153.455 41.016 153.247 41.088 153.055 41.136C152.879 41.184 152.639 41.208 152.335 41.208C151.823 41.208 151.423 41.08 151.135 40.824C150.847 40.552 150.703 40.144 150.703 39.6C150.703 38.976 150.927 38.448 151.375 38.016C151.839 37.584 152.415 37.264 153.103 37.056C153.791 36.832 154.479 36.72 155.167 36.72C156.527 36.72 157.663 36.976 158.575 37.488C159.503 37.984 160.183 38.648 160.615 39.48C161.063 40.312 161.287 41.232 161.287 42.24C161.287 42.784 161.239 43.288 161.143 43.752C161.063 44.216 160.951 44.576 160.807 44.832C161.031 45.024 161.199 45.248 161.311 45.504C161.439 45.76 161.503 46.024 161.503 46.296C161.503 46.76 161.343 47.16 161.023 47.496C160.719 47.832 160.311 48 159.799 48C159.415 48 159.103 47.944 158.863 47.832C158.623 47.72 158.367 47.544 158.095 47.304C157.695 47.544 157.255 47.72 156.775 47.832C156.311 47.944 155.727 48 155.023 48ZM155.503 45.576C155.839 45.576 156.103 45.504 156.295 45.36C156.503 45.216 156.607 45.04 156.607 44.832C156.607 44.624 156.503 44.448 156.295 44.304C156.103 44.16 155.839 44.088 155.503 44.088C155.167 44.088 154.895 44.16 154.687 44.304C154.495 44.448 154.399 44.624 154.399 44.832C154.399 45.04 154.495 45.216 154.687 45.36C154.895 45.504 155.167 45.576 155.503 45.576ZM167.946 48C166.81 48 165.802 47.728 164.922 47.184C164.058 46.624 163.394 45.904 162.93 45.024C162.466 44.128 162.234 43.176 162.234 42.168C162.234 40.984 162.474 39.984 162.954 39.168C163.45 38.336 164.082 37.72 164.85 37.32C165.634 36.92 166.474 36.72 167.37 36.72C168.266 36.72 169.066 36.912 169.77 37.296C169.738 36.96 169.674 36.6 169.578 36.216C169.498 35.832 169.442 35.592 169.41 35.496C169.282 35 169.186 34.584 169.122 34.248C169.058 33.912 169.026 33.576 169.026 33.24C169.026 32.568 169.226 32.056 169.626 31.704C170.026 31.352 170.506 31.176 171.066 31.176C171.962 31.176 172.69 31.624 173.25 32.52C173.81 33.416 174.21 34.528 174.45 35.856C174.706 37.184 174.834 38.528 174.834 39.888C174.834 41.728 174.41 43.544 173.562 45.336C172.73 47.112 170.858 48 167.946 48ZM168.09 44.208C168.522 44.208 168.898 44.048 169.218 43.728C169.538 43.392 169.698 43 169.698 42.552C169.698 42.104 169.538 41.712 169.218 41.376C168.898 41.04 168.522 40.872 168.09 40.872C167.658 40.872 167.274 41.04 166.938 41.376C166.618 41.712 166.458 42.104 166.458 42.552C166.458 43 166.618 43.392 166.938 43.728C167.274 44.048 167.658 44.208 168.09 44.208ZM178.378 36.36C177.594 36.36 176.93 36.08 176.386 35.52C175.842 34.944 175.57 34.248 175.57 33.432C175.57 32.632 175.842 31.952 176.386 31.392C176.93 30.816 177.594 30.528 178.378 30.528C179.146 30.528 179.802 30.816 180.346 31.392C180.906 31.952 181.186 32.632 181.186 33.432C181.186 34.248 180.906 34.944 180.346 35.52C179.802 36.08 179.146 36.36 178.378 36.36ZM178.378 48C177.722 48 177.234 47.816 176.914 47.448C176.61 47.064 176.402 46.496 176.29 45.744C176.194 44.976 176.146 43.888 176.146 42.48C176.146 41.296 176.202 40.36 176.314 39.672C176.442 38.984 176.666 38.472 176.986 38.136C177.306 37.8 177.77 37.632 178.378 37.632C179.034 37.632 179.514 37.824 179.818 38.208C180.138 38.576 180.346 39.144 180.442 39.912C180.554 40.664 180.61 41.744 180.61 43.152C180.61 44.336 180.546 45.272 180.418 45.96C180.306 46.648 180.09 47.16 179.77 47.496C179.45 47.832 178.986 48 178.378 48ZM191.636 48C191.06 48 190.628 47.84 190.34 47.52C190.068 47.2 189.9 46.808 189.836 46.344C189.772 45.88 189.74 45.28 189.74 44.544C189.74 43.6 189.612 42.872 189.356 42.36C189.1 41.848 188.684 41.592 188.108 41.592C187.58 41.592 187.18 41.848 186.908 42.36C186.652 42.856 186.524 43.544 186.524 44.424C186.524 45.272 186.5 45.912 186.452 46.344C186.404 46.776 186.244 47.16 185.972 47.496C185.7 47.816 185.252 47.976 184.628 47.976C183.716 47.976 183.076 47.392 182.708 46.224C182.34 45.04 182.156 43.656 182.156 42.072C182.156 38.232 182.964 36.312 184.58 36.312C185.028 36.312 185.396 36.424 185.684 36.648C185.972 36.856 186.172 37.16 186.284 37.56C186.492 37.336 186.812 37.136 187.244 36.96C187.692 36.784 188.164 36.696 188.66 36.696C190.42 36.696 191.732 37.336 192.596 38.616C193.476 39.896 193.916 41.632 193.916 43.824C193.916 45.12 193.748 46.144 193.412 46.896C193.076 47.632 192.484 48 191.636 48ZM199.88 52.104C198.952 52.104 198.192 51.928 197.6 51.576C197.008 51.24 196.712 50.776 196.712 50.184C196.712 49.656 196.912 49.224 197.312 48.888C197.728 48.568 198.248 48.408 198.872 48.408C198.984 48.408 199.168 48.424 199.424 48.456C199.744 48.504 200.04 48.528 200.312 48.528C201 48.528 201.592 48.408 202.088 48.168C202.6 47.944 202.912 47.64 203.024 47.256C202.768 47.4 202.408 47.52 201.944 47.616C201.48 47.712 200.984 47.76 200.456 47.76C199.096 47.76 197.976 47.496 197.096 46.968C196.232 46.44 195.608 45.792 195.224 45.024C194.84 44.24 194.648 43.472 194.648 42.72C194.648 41.472 194.92 40.392 195.464 39.48C196.024 38.568 196.744 37.872 197.624 37.392C198.504 36.912 199.424 36.672 200.384 36.672C200.704 36.672 201.072 36.696 201.488 36.744C201.92 36.792 202.28 36.848 202.568 36.912C202.696 36.48 202.912 36.144 203.216 35.904C203.536 35.664 204.008 35.544 204.632 35.544C205.672 35.544 206.424 36.192 206.888 37.488C207.368 38.784 207.608 40.384 207.608 42.288C207.608 43.184 207.56 44.032 207.464 44.832C207.224 47.088 206.432 48.864 205.088 50.16C203.744 51.456 202.008 52.104 199.88 52.104ZM200.768 44.16C201.264 44.16 201.696 43.984 202.064 43.632C202.432 43.264 202.616 42.832 202.616 42.336C202.616 41.84 202.432 41.408 202.064 41.04C201.696 40.672 201.264 40.488 200.768 40.488C200.272 40.488 199.84 40.672 199.472 41.04C199.12 41.408 198.944 41.84 198.944 42.336C198.944 42.832 199.12 43.264 199.472 43.632C199.84 43.984 200.272 44.16 200.768 44.16ZM77.478 69.952C75.91 69.952 74.502 69.64 73.254 69.016C72.022 68.376 71.046 67.432 70.326 66.184C69.606 64.92 69.246 63.376 69.246 61.552C69.246 60.08 69.582 58.704 70.254 57.424C70.926 56.144 71.854 55.12 73.038 54.352C74.222 53.584 75.55 53.2 77.022 53.2C78.414 53.2 79.654 53.464 80.742 53.992C81.83 54.504 82.67 55.208 83.262 56.104C83.87 57 84.174 58 84.174 59.104C84.174 59.808 83.966 60.416 83.55 60.928C83.15 61.44 82.574 61.696 81.822 61.696C81.262 61.696 80.83 61.6 80.526 61.408C80.222 61.216 79.902 60.92 79.566 60.52C79.23 60.12 78.902 59.824 78.582 59.632C78.278 59.424 77.83 59.32 77.238 59.32C76.486 59.32 75.838 59.608 75.294 60.184C74.766 60.744 74.502 61.432 74.502 62.248C74.502 63.128 74.726 63.872 75.174 64.48C75.638 65.072 76.262 65.368 77.046 65.368C77.654 65.368 78.134 65.28 78.486 65.104C78.854 64.928 79.238 64.672 79.638 64.336C79.974 64.048 80.278 63.832 80.55 63.688C80.838 63.544 81.19 63.472 81.606 63.472C82.246 63.472 82.75 63.672 83.118 64.072C83.486 64.456 83.67 64.96 83.67 65.584C83.67 66.32 83.398 67.024 82.854 67.696C82.326 68.368 81.59 68.912 80.646 69.328C79.702 69.744 78.646 69.952 77.478 69.952ZM87.7823 70C86.9983 70 86.3983 69.696 85.9823 69.088C85.5663 68.48 85.2783 67.544 85.1183 66.28C84.9743 65.016 84.9023 63.264 84.9023 61.024C84.9023 59.152 84.9503 57.688 85.0463 56.632C85.1583 55.576 85.4063 54.744 85.7903 54.136C86.1743 53.512 86.7743 53.2 87.5903 53.2C88.2943 53.2 88.8223 53.424 89.1743 53.872C89.5263 54.32 89.7503 54.88 89.8463 55.552C89.9423 56.224 89.9903 57.064 89.9903 58.072V59.152C90.3103 58.992 90.5903 58.88 90.8303 58.816C91.0863 58.752 91.4623 58.72 91.9583 58.72C93.0463 58.72 93.9823 59 94.7663 59.56C95.5503 60.104 96.1423 60.84 96.5423 61.768C96.9583 62.696 97.1663 63.728 97.1663 64.864C97.1663 66.336 97.0063 67.552 96.6863 68.512C96.3823 69.456 95.7743 69.928 94.8623 69.928C94.2223 69.928 93.7423 69.784 93.4223 69.496C93.1183 69.208 92.9183 68.816 92.8223 68.32C92.7423 67.824 92.7023 67.144 92.7023 66.28C92.7023 65.336 92.5983 64.608 92.3903 64.096C92.1983 63.584 91.8543 63.328 91.3583 63.328C90.8623 63.328 90.5023 63.592 90.2783 64.12C90.0703 64.632 89.9583 65.352 89.9423 66.28C89.9263 67.144 89.8703 67.832 89.7743 68.344C89.6943 68.856 89.4943 69.264 89.1743 69.568C88.8703 69.856 88.4063 70 87.7823 70ZM102.207 70C100.959 70 99.9346 69.72 99.1346 69.16C98.3346 68.584 97.9346 67.76 97.9346 66.688C97.9346 65.76 98.3426 65.024 99.1586 64.48C99.9746 63.936 100.991 63.664 102.207 63.664C102.655 63.664 103.071 63.704 103.455 63.784C103.855 63.848 104.127 63.928 104.271 64.024C104.271 63.624 104.103 63.296 103.767 63.04C103.431 62.768 102.919 62.632 102.231 62.632C101.927 62.632 101.679 62.656 101.487 62.704C101.295 62.752 101.087 62.824 100.863 62.92C100.639 63.016 100.431 63.088 100.239 63.136C100.063 63.184 99.8226 63.208 99.5186 63.208C99.0066 63.208 98.6066 63.08 98.3186 62.824C98.0306 62.552 97.8866 62.144 97.8866 61.6C97.8866 60.976 98.1106 60.448 98.5586 60.016C99.0226 59.584 99.5986 59.264 100.287 59.056C100.975 58.832 101.663 58.72 102.351 58.72C103.711 58.72 104.847 58.976 105.759 59.488C106.687 59.984 107.367 60.648 107.799 61.48C108.247 62.312 108.471 63.232 108.471 64.24C108.471 64.784 108.423 65.288 108.327 65.752C108.247 66.216 108.135 66.576 107.991 66.832C108.215 67.024 108.383 67.248 108.495 67.504C108.623 67.76 108.687 68.024 108.687 68.296C108.687 68.76 108.527 69.16 108.207 69.496C107.903 69.832 107.495 70 106.983 70C106.599 70 106.287 69.944 106.047 69.832C105.807 69.72 105.551 69.544 105.279 69.304C104.879 69.544 104.439 69.72 103.959 69.832C103.495 69.944 102.911 70 102.207 70ZM102.687 67.576C103.023 67.576 103.287 67.504 103.479 67.36C103.687 67.216 103.791 67.04 103.791 66.832C103.791 66.624 103.687 66.448 103.479 66.304C103.287 66.16 103.023 66.088 102.687 66.088C102.351 66.088 102.079 66.16 101.871 66.304C101.679 66.448 101.583 66.624 101.583 66.832C101.583 67.04 101.679 67.216 101.871 67.36C102.079 67.504 102.351 67.576 102.687 67.576ZM112.695 69.952C111.895 69.952 111.295 69.656 110.895 69.064C110.495 68.472 110.223 67.6 110.079 66.448C109.951 65.28 109.887 63.656 109.887 61.576C109.887 59.576 109.935 58.016 110.031 56.896C110.143 55.776 110.399 54.88 110.799 54.208C111.215 53.536 111.855 53.2 112.719 53.2C113.583 53.2 114.215 53.536 114.615 54.208C115.031 54.88 115.287 55.776 115.383 56.896C115.495 58.016 115.551 59.576 115.551 61.576C115.551 63.544 115.463 65.136 115.287 66.352C115.127 67.552 114.839 68.456 114.423 69.064C114.007 69.656 113.431 69.952 112.695 69.952ZM119.562 69.952C118.762 69.952 118.162 69.656 117.762 69.064C117.362 68.472 117.09 67.6 116.946 66.448C116.818 65.28 116.754 63.656 116.754 61.576C116.754 59.576 116.802 58.016 116.898 56.896C117.01 55.776 117.266 54.88 117.666 54.208C118.082 53.536 118.722 53.2 119.586 53.2C120.45 53.2 121.082 53.536 121.482 54.208C121.898 54.88 122.154 55.776 122.25 56.896C122.362 58.016 122.418 59.576 122.418 61.576C122.418 63.544 122.33 65.136 122.154 66.352C121.994 67.552 121.706 68.456 121.29 69.064C120.874 69.656 120.298 69.952 119.562 69.952ZM129.176 70C127.992 70 126.944 69.768 126.032 69.304C125.12 68.84 124.408 68.192 123.896 67.36C123.4 66.512 123.152 65.56 123.152 64.504C123.152 63.464 123.4 62.504 123.896 61.624C124.408 60.744 125.112 60.04 126.008 59.512C126.904 58.984 127.92 58.72 129.056 58.72C130.08 58.72 130.984 58.928 131.768 59.344C132.552 59.76 133.152 60.312 133.568 61C133.984 61.672 134.192 62.376 134.192 63.112C134.192 64.312 133.736 65.192 132.824 65.752C131.928 66.296 130.856 66.568 129.608 66.568C128.776 66.568 128.072 66.464 127.496 66.256C127.976 67.04 128.768 67.432 129.872 67.432C130.32 67.432 130.8 67.376 131.312 67.264C131.504 67.216 131.688 67.192 131.864 67.192C132.216 67.192 132.496 67.28 132.704 67.456C132.928 67.632 133.04 67.872 133.04 68.176C133.04 68.672 132.736 69.104 132.128 69.472C131.52 69.824 130.536 70 129.176 70ZM127.568 63.328C127.712 63.552 127.904 63.72 128.144 63.832C128.4 63.928 128.68 63.976 128.984 63.976C129.336 63.976 129.64 63.896 129.896 63.736C130.168 63.576 130.304 63.368 130.304 63.112C130.304 62.824 130.184 62.576 129.944 62.368C129.72 62.16 129.392 62.056 128.96 62.056C128.528 62.056 128.184 62.192 127.928 62.464C127.688 62.72 127.568 63.008 127.568 63.328ZM144.398 70C143.822 70 143.39 69.84 143.102 69.52C142.83 69.2 142.662 68.808 142.598 68.344C142.534 67.88 142.502 67.28 142.502 66.544C142.502 65.6 142.374 64.872 142.118 64.36C141.862 63.848 141.446 63.592 140.87 63.592C140.342 63.592 139.942 63.848 139.67 64.36C139.414 64.856 139.286 65.544 139.286 66.424C139.286 67.272 139.262 67.912 139.214 68.344C139.166 68.776 139.006 69.16 138.734 69.496C138.462 69.816 138.014 69.976 137.39 69.976C136.478 69.976 135.838 69.392 135.47 68.224C135.102 67.04 134.918 65.656 134.918 64.072C134.918 60.232 135.726 58.312 137.342 58.312C137.79 58.312 138.158 58.424 138.446 58.648C138.734 58.856 138.934 59.16 139.046 59.56C139.254 59.336 139.574 59.136 140.006 58.96C140.454 58.784 140.926 58.696 141.422 58.696C143.182 58.696 144.494 59.336 145.358 60.616C146.238 61.896 146.678 63.632 146.678 65.824C146.678 67.12 146.51 68.144 146.174 68.896C145.838 69.632 145.246 70 144.398 70ZM152.642 74.104C151.714 74.104 150.954 73.928 150.362 73.576C149.77 73.24 149.474 72.776 149.474 72.184C149.474 71.656 149.674 71.224 150.074 70.888C150.49 70.568 151.01 70.408 151.634 70.408C151.746 70.408 151.93 70.424 152.186 70.456C152.506 70.504 152.802 70.528 153.074 70.528C153.762 70.528 154.354 70.408 154.85 70.168C155.362 69.944 155.674 69.64 155.786 69.256C155.53 69.4 155.17 69.52 154.706 69.616C154.242 69.712 153.746 69.76 153.218 69.76C151.858 69.76 150.738 69.496 149.858 68.968C148.994 68.44 148.37 67.792 147.986 67.024C147.602 66.24 147.41 65.472 147.41 64.72C147.41 63.472 147.682 62.392 148.226 61.48C148.786 60.568 149.506 59.872 150.386 59.392C151.266 58.912 152.186 58.672 153.146 58.672C153.466 58.672 153.834 58.696 154.25 58.744C154.682 58.792 155.042 58.848 155.33 58.912C155.458 58.48 155.674 58.144 155.978 57.904C156.298 57.664 156.77 57.544 157.394 57.544C158.434 57.544 159.186 58.192 159.65 59.488C160.13 60.784 160.37 62.384 160.37 64.288C160.37 65.184 160.322 66.032 160.226 66.832C159.986 69.088 159.194 70.864 157.85 72.16C156.506 73.456 154.77 74.104 152.642 74.104ZM153.53 66.16C154.026 66.16 154.458 65.984 154.826 65.632C155.194 65.264 155.378 64.832 155.378 64.336C155.378 63.84 155.194 63.408 154.826 63.04C154.458 62.672 154.026 62.488 153.53 62.488C153.034 62.488 152.602 62.672 152.234 63.04C151.882 63.408 151.706 63.84 151.706 64.336C151.706 64.832 151.882 65.264 152.234 65.632C152.602 65.984 153.034 66.16 153.53 66.16ZM167.333 70C166.149 70 165.101 69.768 164.189 69.304C163.277 68.84 162.565 68.192 162.053 67.36C161.557 66.512 161.309 65.56 161.309 64.504C161.309 63.464 161.557 62.504 162.053 61.624C162.565 60.744 163.269 60.04 164.165 59.512C165.061 58.984 166.077 58.72 167.213 58.72C168.237 58.72 169.141 58.928 169.925 59.344C170.709 59.76 171.309 60.312 171.725 61C172.141 61.672 172.349 62.376 172.349 63.112C172.349 64.312 171.893 65.192 170.981 65.752C170.085 66.296 169.013 66.568 167.765 66.568C166.933 66.568 166.229 66.464 165.653 66.256C166.133 67.04 166.925 67.432 168.029 67.432C168.477 67.432 168.957 67.376 169.469 67.264C169.661 67.216 169.845 67.192 170.021 67.192C170.373 67.192 170.653 67.28 170.861 67.456C171.085 67.632 171.197 67.872 171.197 68.176C171.197 68.672 170.893 69.104 170.285 69.472C169.677 69.824 168.693 70 167.333 70ZM165.725 63.328C165.869 63.552 166.061 63.72 166.301 63.832C166.557 63.928 166.837 63.976 167.141 63.976C167.493 63.976 167.797 63.896 168.053 63.736C168.325 63.576 168.461 63.368 168.461 63.112C168.461 62.824 168.341 62.576 168.101 62.368C167.877 62.16 167.549 62.056 167.117 62.056C166.685 62.056 166.341 62.192 166.085 62.464C165.845 62.72 165.725 63.008 165.725 63.328Z" fill="black"/>
<path d="M49.5059 17.5502C62.2815 11.9609 103.283 3.6567 165.085 15.1548M178.26 17.5502L190.238 19.9433" stroke="white" stroke-width="5" stroke-linecap="round"/>
</svg>
