<svg width="220" height="63" viewBox="0 0 220 63" fill="none" xmlns="http://www.w3.org/2000/svg">
<g filter="url(#filter0_d_32299_10201)">
<path d="M208.423 26.9531L209.347 27.3348L208.423 26.9531C208.185 27.5279 208.229 28.1805 208.541 28.7188L212.155 34.9608L209.396 37.5506C208.757 38.1504 208.583 39.0964 208.966 39.8844L212.288 46.7062L5.34552 55.7088L6.66069 50.8355C6.79042 50.3548 6.73618 49.8429 6.50858 49.4001L2.6761 41.9433L5.67153 37.9187C6.20958 37.1958 6.19772 36.2024 5.64258 35.4925L2.3522 31.2852L5.54206 26.1183C5.83808 25.6388 5.9181 25.0567 5.76244 24.5152L3.95734 18.2351L209.649 9.27421L207.89 15.6823C207.765 16.1354 207.804 16.6179 208 17.045L210.375 22.2276L208.423 26.9531Z" fill="#FFB050" stroke="#4B371F" stroke-width="2"/>
<mask id="path-2-outside-1_32299_10201" maskUnits="userSpaceOnUse" x="43.5534" y="18.8428" width="140.578" height="23.8744" fill="black">
<rect fill="white" x="43.5534" y="18.8428" width="140.578" height="23.8744"/>
<path d="M56.7517 36.0756C57.3983 36.2532 57.7327 36.6618 57.7551 37.3014C57.776 37.901 57.486 38.3848 56.8852 38.7526C56.2843 39.1205 55.231 39.3307 53.7253 39.3833C51.8464 39.4489 50.2182 39.0521 48.8408 38.193C47.4766 37.3334 46.7475 35.5578 46.6535 32.8661C46.6061 31.5069 46.7964 30.2729 47.2247 29.1639C47.6529 28.055 48.3155 27.1646 49.2127 26.4929C50.1231 25.8207 51.2512 25.4611 52.5971 25.4141C54.396 25.3513 55.6716 25.5869 56.4241 26.121C57.176 26.6418 57.566 27.3019 57.5939 28.1014C57.6069 28.4745 57.5257 28.8242 57.3504 29.1505C57.1745 29.4635 56.9031 29.7132 56.536 29.8994C56.2218 30.0705 55.8115 30.1649 55.3051 30.1825L54.7648 30.1814C54.6577 30.1718 54.5042 30.1705 54.3043 30.1775C53.6114 30.2017 53.0695 30.3473 52.6786 30.6145C52.2872 30.8683 52.0271 31.2509 51.8982 31.7624C52.4569 31.7162 52.9628 31.6852 53.4159 31.6694C54.7617 31.6224 55.6359 31.6319 56.0385 31.6979C56.4948 31.7753 56.8475 31.9431 57.0967 32.2012C57.3592 32.4589 57.4967 32.7676 57.5092 33.1274C57.5218 33.4872 57.4128 33.8045 57.1823 34.0794C56.9513 34.341 56.5975 34.5267 56.1211 34.6368C55.7508 34.7298 54.846 34.8014 53.4069 34.8516C52.8206 34.8721 52.4073 34.8799 52.167 34.8749C52.6108 35.74 53.399 36.1527 54.5316 36.1131C54.5983 36.1108 54.751 36.0921 54.99 36.0571C55.3088 36.0193 55.5815 35.9964 55.8081 35.9885C56.1945 35.975 56.509 36.0041 56.7517 36.0756ZM63.9145 39.0675C63.0217 39.0987 62.287 38.6907 61.7105 37.8437C61.1467 36.9828 60.7922 35.8078 60.6468 34.3186C60.626 34.1059 60.6084 33.793 60.594 33.3799C60.5377 31.7676 60.7544 30.3325 61.2441 29.0746C61.7334 27.8034 62.4525 26.811 63.4016 26.0975C64.3634 25.3701 65.4973 24.9837 66.8032 24.9381C68.109 24.8925 69.2604 25.1991 70.2574 25.8581C71.2672 26.5032 72.0536 27.4364 72.6165 28.6575C73.1928 29.8781 73.5093 31.3012 73.5661 32.9269C73.5805 33.34 73.5848 33.6534 73.5789 33.867C73.5387 35.3894 73.267 36.5862 72.7637 37.4577C72.2605 38.3291 71.5558 38.7806 70.6497 38.8123C69.9168 38.8379 69.3968 38.6559 69.0897 38.2664C68.7959 37.8764 68.639 37.3949 68.619 36.8219C68.6097 36.5554 68.6216 36.3215 68.6545 36.1203C67.9626 36.1711 67.3501 36.2058 66.8171 36.2245C66.4839 36.2361 66.117 36.2356 65.7163 36.2229C65.7633 36.4214 65.7914 36.6538 65.8007 36.9204C65.8212 37.5067 65.6918 38.0048 65.4127 38.4148C65.1468 38.8243 64.6474 39.0419 63.9145 39.0675ZM65.4522 32.6699C66.1708 32.6181 66.6967 32.5864 67.0298 32.5748C67.3896 32.5622 67.9164 32.5572 68.6103 32.5596C68.6318 32.4121 68.6374 32.1918 68.6272 31.8987C68.6053 31.2724 68.4544 30.7707 68.1744 30.3935C67.8939 30.0031 67.4739 29.8176 66.9142 29.8372C66.3679 29.8563 65.9682 30.0637 65.7152 30.4594C65.4622 30.8551 65.3464 31.3595 65.3678 31.9724C65.3757 32.199 65.4038 32.4315 65.4522 32.6699ZM88.436 29.8261C88.47 30.7988 88.3534 31.6634 88.0863 32.4199C87.8325 33.1758 87.4546 33.8161 86.9526 34.3406C87.4161 35.0048 87.659 35.6567 87.6813 36.2964C87.7004 36.8427 87.503 37.3032 87.0892 37.6779C86.6887 38.0521 86.2219 38.2485 85.6889 38.2671C85.3824 38.2778 85.101 38.2409 84.8445 38.1565C84.5881 38.0721 84.3093 37.9217 84.0083 37.7054C83.7481 37.5144 83.4987 37.2496 83.2601 36.911C83.0215 36.5725 82.829 36.219 82.6827 35.8505C82.2411 35.8126 81.7975 35.7147 81.3517 35.5568C81.4465 35.9804 81.4979 36.3055 81.5058 36.532C81.55 37.7979 80.9125 38.4539 79.5933 38.5C78.4873 38.5386 77.6852 37.9195 77.187 36.6428C76.6888 35.3661 76.4072 33.795 76.342 31.9294C76.2978 30.6635 76.4829 29.4697 76.8974 28.3479C77.3247 27.2123 77.9995 26.2881 78.9219 25.5755C79.8438 24.8496 80.9843 24.4629 82.3435 24.4154C83.4361 24.3772 84.437 24.5758 85.3461 25.011C86.2547 25.4329 86.9837 26.0611 87.5332 26.8958C88.096 27.73 88.3969 28.7068 88.436 29.8261ZM80.9934 31.0265C81.0092 31.4796 81.203 31.8731 81.5749 32.207C81.9463 32.5275 82.3652 32.6797 82.8316 32.6634C83.3113 32.6466 83.7186 32.4656 84.0534 32.1204C84.4011 31.7614 84.567 31.3554 84.5512 30.9023C84.5349 30.4359 84.3411 30.0424 83.9696 29.7219C83.6111 29.3875 83.192 29.2287 82.7122 29.2455C82.2459 29.2618 81.8388 29.4494 81.4911 29.8084C81.1435 30.1675 80.9775 30.5735 80.9934 31.0265ZM97.0907 37.8689C95.7449 37.9159 94.596 37.6825 93.6442 37.1688C92.6919 36.6417 92.0498 35.8303 91.718 34.7345C91.5823 34.2857 91.483 33.7354 91.4203 33.0839C91.3575 32.4324 91.3084 31.6002 91.273 30.5875C91.2037 28.6021 91.3618 27.0156 91.7472 25.8281C92.1456 24.6268 92.991 24.0036 94.2835 23.9584C95.083 23.9305 95.7191 24.1885 96.1917 24.7323C96.6776 25.2757 96.935 25.9604 96.9639 26.7866C96.9946 27.6661 96.9541 28.6081 96.8424 29.6126C96.7307 30.6171 96.5665 31.8369 96.3498 33.272C97.1667 32.9766 98.0681 32.8117 99.0542 32.7773C100.08 32.7415 100.94 32.8982 101.632 33.2476C102.338 33.5965 102.706 34.1907 102.735 35.0302C102.763 35.843 102.518 36.452 101.998 36.857C101.479 37.2621 100.841 37.5245 100.085 37.6443C99.3279 37.7508 98.33 37.8257 97.0907 37.8689ZM116.443 28.0876C116.501 29.7399 116.147 31.073 115.382 32.087C114.617 33.0877 113.54 33.7724 112.152 34.141C112.172 34.3271 112.189 34.6134 112.202 34.9998C112.228 35.746 112.029 36.3333 111.603 36.7618C111.191 37.1764 110.685 37.3942 110.085 37.4152C109.446 37.4375 108.879 37.2505 108.385 36.8542C107.89 36.4445 107.63 35.8799 107.605 35.1603C107.591 34.7473 107.587 34.4472 107.594 34.2602C106.262 33.9598 105.194 33.3501 104.388 32.431C103.595 31.5114 103.173 30.2987 103.12 28.793C103.065 27.2073 103.288 25.9521 103.789 25.0273C104.29 24.1026 105.061 23.6221 106.1 23.5858C106.846 23.5597 107.447 23.7656 107.903 24.2033C108.358 24.6276 108.599 25.2329 108.627 26.0191C108.634 26.2323 108.618 26.7265 108.578 27.5017C108.542 27.9833 108.526 28.284 108.53 28.4039C108.549 28.9636 108.657 29.3868 108.854 29.6734C109.064 29.9596 109.389 30.095 109.829 30.0796C110.269 30.0643 110.577 29.9068 110.753 29.6071C110.943 29.307 111.028 28.8771 111.008 28.3174C111.004 28.1841 110.966 27.8786 110.896 27.4007C110.802 26.6036 110.751 26.1117 110.745 25.9251C110.718 25.1523 110.923 24.5381 111.361 24.0825C111.798 23.6136 112.383 23.3664 113.116 23.3408C114.155 23.3045 114.957 23.7168 115.52 24.5776C116.084 25.4385 116.392 26.6085 116.443 28.0876ZM134.362 36.5474C132.149 36.6113 130.471 36.1229 129.327 35.0822C128.197 34.041 127.59 32.3078 127.505 29.8826C127.428 27.684 127.901 25.9397 128.923 24.6499C129.945 23.3468 131.429 22.6613 133.374 22.5933C134.573 22.5515 135.626 22.6948 136.531 23.0234C137.436 23.352 138.141 23.8411 138.643 24.4906C139.146 25.1401 139.414 25.9179 139.445 26.824C139.471 27.5436 139.333 28.1888 139.033 28.7596C138.746 29.33 138.304 29.8457 137.706 30.3069C138.202 30.3696 138.637 30.6212 139.013 31.0617C139.402 31.5017 139.607 32.0216 139.628 32.6212C139.65 33.2608 139.498 33.8732 139.172 34.4582C138.858 35.0295 138.301 35.5093 137.501 35.8974C136.714 36.2851 135.668 36.5018 134.362 36.5474ZM132.722 29.1401C132.966 29.2516 133.268 29.3011 133.628 29.2886C134.054 29.2737 134.417 29.1609 134.717 28.9504C135.029 28.726 135.178 28.4073 135.164 27.9942C135.15 27.5944 134.979 27.3002 134.653 27.1115C134.339 26.909 133.962 26.8154 133.522 26.8308C133.176 26.8429 132.885 26.9131 132.649 27.0414C132.465 27.1278 132.33 27.2726 132.244 27.4758C132.157 27.6789 132.118 27.8937 132.126 28.1203C132.134 28.3468 132.188 28.5584 132.288 28.755C132.388 28.9383 132.533 29.0667 132.722 29.1401ZM132.885 33.8172C133.142 33.915 133.444 33.9578 133.791 33.9457C134.217 33.9308 134.58 33.8314 134.881 33.6475C135.194 33.4498 135.344 33.171 135.332 32.8112C135.32 32.4648 135.151 32.2039 134.824 32.0285C134.498 31.8531 134.122 31.7729 133.695 31.7877C133.362 31.7994 133.071 31.8629 132.821 31.9784C132.638 32.0648 132.502 32.1963 132.415 32.3728C132.327 32.5359 132.287 32.7175 132.294 32.9173C132.301 33.1172 132.354 33.3021 132.453 33.4721C132.552 33.6288 132.696 33.7438 132.885 33.8172ZM149.134 32.4293C149.816 32.4856 150.349 32.6404 150.731 32.8939C151.126 33.1336 151.334 33.5332 151.353 34.0929C151.373 34.6526 151.187 35.0726 150.797 35.3531C150.42 35.6331 149.959 35.8159 149.415 35.9016C148.871 35.974 148.165 36.0253 147.299 36.0556C146.446 36.0853 145.746 36.0831 145.198 36.0489C144.649 36.0014 144.177 35.8511 143.781 35.5981C143.385 35.3451 143.178 34.9387 143.158 34.3791C143.139 33.8327 143.305 33.4267 143.656 33.161C144.02 32.8814 144.52 32.6838 145.156 32.5682C145.063 31.7977 144.991 30.6929 144.94 29.2537C144.895 27.9612 144.886 26.9209 144.912 26.1329C144.136 26.0799 143.523 25.9145 143.073 25.6367C142.623 25.3589 142.387 24.9069 142.365 24.2806C142.344 23.6676 142.541 23.2071 142.957 22.8991C143.374 22.591 143.88 22.3932 144.478 22.3057C145.075 22.2181 145.847 22.1578 146.793 22.1248C147.739 22.0917 148.513 22.098 149.115 22.1437C149.717 22.1894 150.236 22.3514 150.673 22.6297C151.123 22.9075 151.358 23.3528 151.38 23.9658C151.402 24.5921 151.191 25.0597 150.748 25.3687C150.319 25.6772 149.712 25.8852 148.929 25.9926C149.021 26.7231 149.091 27.7613 149.138 29.1072C149.183 30.3997 149.182 31.5071 149.134 32.4293ZM165.662 27.1293C165.696 28.102 165.58 28.9666 165.313 29.7231C165.059 30.479 164.681 31.1193 164.179 31.6438C164.642 32.308 164.885 32.9599 164.908 33.5995C164.927 34.1459 164.729 34.6064 164.316 34.9811C163.915 35.3553 163.448 35.5517 162.915 35.5703C162.609 35.581 162.327 35.5441 162.071 35.4597C161.814 35.3752 161.536 35.2249 161.235 35.0086C160.974 34.8176 160.725 34.5528 160.486 34.2142C160.248 33.8757 160.055 33.5222 159.909 33.1537C159.468 33.1158 159.024 33.0179 158.578 32.86C158.673 33.2836 158.724 33.6087 158.732 33.8352C158.776 35.1011 158.139 35.7571 156.82 35.8032C155.714 35.8418 154.912 35.2227 154.413 33.946C153.915 32.6693 153.634 31.0982 153.568 29.2326C153.524 27.9667 153.709 26.7729 154.124 25.6511C154.551 24.5155 155.226 23.5913 156.148 22.8787C157.07 22.1528 158.211 21.7661 159.57 21.7186C160.662 21.6804 161.663 21.879 162.572 22.3142C163.481 22.7361 164.21 23.3643 164.76 24.199C165.322 25.0332 165.623 26.0099 165.662 27.1293ZM158.22 28.3297C158.236 28.7828 158.429 29.1763 158.801 29.5102C159.173 29.8307 159.592 29.9829 160.058 29.9666C160.538 29.9498 160.945 29.7688 161.28 29.4236C161.627 29.0646 161.793 28.6586 161.778 28.2055C161.761 27.7391 161.567 27.3456 161.196 27.0251C160.837 26.6907 160.418 26.5319 159.939 26.5487C159.472 26.565 159.065 26.7526 158.718 27.1116C158.37 27.4706 158.204 27.8767 158.22 28.3297ZM174.377 35.17C172.658 35.2301 171.398 35.0673 170.598 34.6816C169.797 34.296 169.268 33.6541 169.01 32.7559C168.751 31.8577 168.589 30.4492 168.522 28.5303C168.454 26.5848 168.51 25.1353 168.69 24.1818C168.883 23.2145 169.358 22.4908 170.115 22.0107C170.885 21.5169 172.123 21.2402 173.828 21.1807C174.855 21.1448 175.909 21.3481 176.992 21.7906C178.074 22.2198 179 22.9612 179.771 24.015C180.542 25.0687 180.956 26.4351 181.015 28.1141C181.071 29.7264 180.744 31.0586 180.034 32.1107C179.323 33.1495 178.449 33.9138 177.412 34.4036C176.375 34.8801 175.363 35.1356 174.377 35.17ZM173.015 31.6954C173.443 31.7339 173.751 31.7498 173.937 31.7433C174.883 31.7103 175.607 31.4315 176.109 30.907C176.611 30.3825 176.847 29.6738 176.816 28.781C176.788 27.9815 176.513 27.3707 175.991 26.9487C175.469 26.5133 174.748 26.3117 173.829 26.3438C173.482 26.3559 173.15 26.3942 172.832 26.4586L173.015 31.6954Z"/>
</mask>
<path d="M56.7517 36.0756C57.3983 36.2532 57.7327 36.6618 57.7551 37.3014C57.776 37.901 57.486 38.3848 56.8852 38.7526C56.2843 39.1205 55.231 39.3307 53.7253 39.3833C51.8464 39.4489 50.2182 39.0521 48.8408 38.193C47.4766 37.3334 46.7475 35.5578 46.6535 32.8661C46.6061 31.5069 46.7964 30.2729 47.2247 29.1639C47.6529 28.055 48.3155 27.1646 49.2127 26.4929C50.1231 25.8207 51.2512 25.4611 52.5971 25.4141C54.396 25.3513 55.6716 25.5869 56.4241 26.121C57.176 26.6418 57.566 27.3019 57.5939 28.1014C57.6069 28.4745 57.5257 28.8242 57.3504 29.1505C57.1745 29.4635 56.9031 29.7132 56.536 29.8994C56.2218 30.0705 55.8115 30.1649 55.3051 30.1825L54.7648 30.1814C54.6577 30.1718 54.5042 30.1705 54.3043 30.1775C53.6114 30.2017 53.0695 30.3473 52.6786 30.6145C52.2872 30.8683 52.0271 31.2509 51.8982 31.7624C52.4569 31.7162 52.9628 31.6852 53.4159 31.6694C54.7617 31.6224 55.6359 31.6319 56.0385 31.6979C56.4948 31.7753 56.8475 31.9431 57.0967 32.2012C57.3592 32.4589 57.4967 32.7676 57.5092 33.1274C57.5218 33.4872 57.4128 33.8045 57.1823 34.0794C56.9513 34.341 56.5975 34.5267 56.1211 34.6368C55.7508 34.7298 54.846 34.8014 53.4069 34.8516C52.8206 34.8721 52.4073 34.8799 52.167 34.8749C52.6108 35.74 53.399 36.1527 54.5316 36.1131C54.5983 36.1108 54.751 36.0921 54.99 36.0571C55.3088 36.0193 55.5815 35.9964 55.8081 35.9885C56.1945 35.975 56.509 36.0041 56.7517 36.0756ZM63.9145 39.0675C63.0217 39.0987 62.287 38.6907 61.7105 37.8437C61.1467 36.9828 60.7922 35.8078 60.6468 34.3186C60.626 34.1059 60.6084 33.793 60.594 33.3799C60.5377 31.7676 60.7544 30.3325 61.2441 29.0746C61.7334 27.8034 62.4525 26.811 63.4016 26.0975C64.3634 25.3701 65.4973 24.9837 66.8032 24.9381C68.109 24.8925 69.2604 25.1991 70.2574 25.8581C71.2672 26.5032 72.0536 27.4364 72.6165 28.6575C73.1928 29.8781 73.5093 31.3012 73.5661 32.9269C73.5805 33.34 73.5848 33.6534 73.5789 33.867C73.5387 35.3894 73.267 36.5862 72.7637 37.4577C72.2605 38.3291 71.5558 38.7806 70.6497 38.8123C69.9168 38.8379 69.3968 38.6559 69.0897 38.2664C68.7959 37.8764 68.639 37.3949 68.619 36.8219C68.6097 36.5554 68.6216 36.3215 68.6545 36.1203C67.9626 36.1711 67.3501 36.2058 66.8171 36.2245C66.4839 36.2361 66.117 36.2356 65.7163 36.2229C65.7633 36.4214 65.7914 36.6538 65.8007 36.9204C65.8212 37.5067 65.6918 38.0048 65.4127 38.4148C65.1468 38.8243 64.6474 39.0419 63.9145 39.0675ZM65.4522 32.6699C66.1708 32.6181 66.6967 32.5864 67.0298 32.5748C67.3896 32.5622 67.9164 32.5572 68.6103 32.5596C68.6318 32.4121 68.6374 32.1918 68.6272 31.8987C68.6053 31.2724 68.4544 30.7707 68.1744 30.3935C67.8939 30.0031 67.4739 29.8176 66.9142 29.8372C66.3679 29.8563 65.9682 30.0637 65.7152 30.4594C65.4622 30.8551 65.3464 31.3595 65.3678 31.9724C65.3757 32.199 65.4038 32.4315 65.4522 32.6699ZM88.436 29.8261C88.47 30.7988 88.3534 31.6634 88.0863 32.4199C87.8325 33.1758 87.4546 33.8161 86.9526 34.3406C87.4161 35.0048 87.659 35.6567 87.6813 36.2964C87.7004 36.8427 87.503 37.3032 87.0892 37.6779C86.6887 38.0521 86.2219 38.2485 85.6889 38.2671C85.3824 38.2778 85.101 38.2409 84.8445 38.1565C84.5881 38.0721 84.3093 37.9217 84.0083 37.7054C83.7481 37.5144 83.4987 37.2496 83.2601 36.911C83.0215 36.5725 82.829 36.219 82.6827 35.8505C82.2411 35.8126 81.7975 35.7147 81.3517 35.5568C81.4465 35.9804 81.4979 36.3055 81.5058 36.532C81.55 37.7979 80.9125 38.4539 79.5933 38.5C78.4873 38.5386 77.6852 37.9195 77.187 36.6428C76.6888 35.3661 76.4072 33.795 76.342 31.9294C76.2978 30.6635 76.4829 29.4697 76.8974 28.3479C77.3247 27.2123 77.9995 26.2881 78.9219 25.5755C79.8438 24.8496 80.9843 24.4629 82.3435 24.4154C83.4361 24.3772 84.437 24.5758 85.3461 25.011C86.2547 25.4329 86.9837 26.0611 87.5332 26.8958C88.096 27.73 88.3969 28.7068 88.436 29.8261ZM80.9934 31.0265C81.0092 31.4796 81.203 31.8731 81.5749 32.207C81.9463 32.5275 82.3652 32.6797 82.8316 32.6634C83.3113 32.6466 83.7186 32.4656 84.0534 32.1204C84.4011 31.7614 84.567 31.3554 84.5512 30.9023C84.5349 30.4359 84.3411 30.0424 83.9696 29.7219C83.6111 29.3875 83.192 29.2287 82.7122 29.2455C82.2459 29.2618 81.8388 29.4494 81.4911 29.8084C81.1435 30.1675 80.9775 30.5735 80.9934 31.0265ZM97.0907 37.8689C95.7449 37.9159 94.596 37.6825 93.6442 37.1688C92.6919 36.6417 92.0498 35.8303 91.718 34.7345C91.5823 34.2857 91.483 33.7354 91.4203 33.0839C91.3575 32.4324 91.3084 31.6002 91.273 30.5875C91.2037 28.6021 91.3618 27.0156 91.7472 25.8281C92.1456 24.6268 92.991 24.0036 94.2835 23.9584C95.083 23.9305 95.7191 24.1885 96.1917 24.7323C96.6776 25.2757 96.935 25.9604 96.9639 26.7866C96.9946 27.6661 96.9541 28.6081 96.8424 29.6126C96.7307 30.6171 96.5665 31.8369 96.3498 33.272C97.1667 32.9766 98.0681 32.8117 99.0542 32.7773C100.08 32.7415 100.94 32.8982 101.632 33.2476C102.338 33.5965 102.706 34.1907 102.735 35.0302C102.763 35.843 102.518 36.452 101.998 36.857C101.479 37.2621 100.841 37.5245 100.085 37.6443C99.3279 37.7508 98.33 37.8257 97.0907 37.8689ZM116.443 28.0876C116.501 29.7399 116.147 31.073 115.382 32.087C114.617 33.0877 113.54 33.7724 112.152 34.141C112.172 34.3271 112.189 34.6134 112.202 34.9998C112.228 35.746 112.029 36.3333 111.603 36.7618C111.191 37.1764 110.685 37.3942 110.085 37.4152C109.446 37.4375 108.879 37.2505 108.385 36.8542C107.89 36.4445 107.63 35.8799 107.605 35.1603C107.591 34.7473 107.587 34.4472 107.594 34.2602C106.262 33.9598 105.194 33.3501 104.388 32.431C103.595 31.5114 103.173 30.2987 103.12 28.793C103.065 27.2073 103.288 25.9521 103.789 25.0273C104.29 24.1026 105.061 23.6221 106.1 23.5858C106.846 23.5597 107.447 23.7656 107.903 24.2033C108.358 24.6276 108.599 25.2329 108.627 26.0191C108.634 26.2323 108.618 26.7265 108.578 27.5017C108.542 27.9833 108.526 28.284 108.53 28.4039C108.549 28.9636 108.657 29.3868 108.854 29.6734C109.064 29.9596 109.389 30.095 109.829 30.0796C110.269 30.0643 110.577 29.9068 110.753 29.6071C110.943 29.307 111.028 28.8771 111.008 28.3174C111.004 28.1841 110.966 27.8786 110.896 27.4007C110.802 26.6036 110.751 26.1117 110.745 25.9251C110.718 25.1523 110.923 24.5381 111.361 24.0825C111.798 23.6136 112.383 23.3664 113.116 23.3408C114.155 23.3045 114.957 23.7168 115.52 24.5776C116.084 25.4385 116.392 26.6085 116.443 28.0876ZM134.362 36.5474C132.149 36.6113 130.471 36.1229 129.327 35.0822C128.197 34.041 127.59 32.3078 127.505 29.8826C127.428 27.684 127.901 25.9397 128.923 24.6499C129.945 23.3468 131.429 22.6613 133.374 22.5933C134.573 22.5515 135.626 22.6948 136.531 23.0234C137.436 23.352 138.141 23.8411 138.643 24.4906C139.146 25.1401 139.414 25.9179 139.445 26.824C139.471 27.5436 139.333 28.1888 139.033 28.7596C138.746 29.33 138.304 29.8457 137.706 30.3069C138.202 30.3696 138.637 30.6212 139.013 31.0617C139.402 31.5017 139.607 32.0216 139.628 32.6212C139.65 33.2608 139.498 33.8732 139.172 34.4582C138.858 35.0295 138.301 35.5093 137.501 35.8974C136.714 36.2851 135.668 36.5018 134.362 36.5474ZM132.722 29.1401C132.966 29.2516 133.268 29.3011 133.628 29.2886C134.054 29.2737 134.417 29.1609 134.717 28.9504C135.029 28.726 135.178 28.4073 135.164 27.9942C135.15 27.5944 134.979 27.3002 134.653 27.1115C134.339 26.909 133.962 26.8154 133.522 26.8308C133.176 26.8429 132.885 26.9131 132.649 27.0414C132.465 27.1278 132.33 27.2726 132.244 27.4758C132.157 27.6789 132.118 27.8937 132.126 28.1203C132.134 28.3468 132.188 28.5584 132.288 28.755C132.388 28.9383 132.533 29.0667 132.722 29.1401ZM132.885 33.8172C133.142 33.915 133.444 33.9578 133.791 33.9457C134.217 33.9308 134.58 33.8314 134.881 33.6475C135.194 33.4498 135.344 33.171 135.332 32.8112C135.32 32.4648 135.151 32.2039 134.824 32.0285C134.498 31.8531 134.122 31.7729 133.695 31.7877C133.362 31.7994 133.071 31.8629 132.821 31.9784C132.638 32.0648 132.502 32.1963 132.415 32.3728C132.327 32.5359 132.287 32.7175 132.294 32.9173C132.301 33.1172 132.354 33.3021 132.453 33.4721C132.552 33.6288 132.696 33.7438 132.885 33.8172ZM149.134 32.4293C149.816 32.4856 150.349 32.6404 150.731 32.8939C151.126 33.1336 151.334 33.5332 151.353 34.0929C151.373 34.6526 151.187 35.0726 150.797 35.3531C150.42 35.6331 149.959 35.8159 149.415 35.9016C148.871 35.974 148.165 36.0253 147.299 36.0556C146.446 36.0853 145.746 36.0831 145.198 36.0489C144.649 36.0014 144.177 35.8511 143.781 35.5981C143.385 35.3451 143.178 34.9387 143.158 34.3791C143.139 33.8327 143.305 33.4267 143.656 33.161C144.02 32.8814 144.52 32.6838 145.156 32.5682C145.063 31.7977 144.991 30.6929 144.94 29.2537C144.895 27.9612 144.886 26.9209 144.912 26.1329C144.136 26.0799 143.523 25.9145 143.073 25.6367C142.623 25.3589 142.387 24.9069 142.365 24.2806C142.344 23.6676 142.541 23.2071 142.957 22.8991C143.374 22.591 143.88 22.3932 144.478 22.3057C145.075 22.2181 145.847 22.1578 146.793 22.1248C147.739 22.0917 148.513 22.098 149.115 22.1437C149.717 22.1894 150.236 22.3514 150.673 22.6297C151.123 22.9075 151.358 23.3528 151.38 23.9658C151.402 24.5921 151.191 25.0597 150.748 25.3687C150.319 25.6772 149.712 25.8852 148.929 25.9926C149.021 26.7231 149.091 27.7613 149.138 29.1072C149.183 30.3997 149.182 31.5071 149.134 32.4293ZM165.662 27.1293C165.696 28.102 165.58 28.9666 165.313 29.7231C165.059 30.479 164.681 31.1193 164.179 31.6438C164.642 32.308 164.885 32.9599 164.908 33.5995C164.927 34.1459 164.729 34.6064 164.316 34.9811C163.915 35.3553 163.448 35.5517 162.915 35.5703C162.609 35.581 162.327 35.5441 162.071 35.4597C161.814 35.3752 161.536 35.2249 161.235 35.0086C160.974 34.8176 160.725 34.5528 160.486 34.2142C160.248 33.8757 160.055 33.5222 159.909 33.1537C159.468 33.1158 159.024 33.0179 158.578 32.86C158.673 33.2836 158.724 33.6087 158.732 33.8352C158.776 35.1011 158.139 35.7571 156.82 35.8032C155.714 35.8418 154.912 35.2227 154.413 33.946C153.915 32.6693 153.634 31.0982 153.568 29.2326C153.524 27.9667 153.709 26.7729 154.124 25.6511C154.551 24.5155 155.226 23.5913 156.148 22.8787C157.07 22.1528 158.211 21.7661 159.57 21.7186C160.662 21.6804 161.663 21.879 162.572 22.3142C163.481 22.7361 164.21 23.3643 164.76 24.199C165.322 25.0332 165.623 26.0099 165.662 27.1293ZM158.22 28.3297C158.236 28.7828 158.429 29.1763 158.801 29.5102C159.173 29.8307 159.592 29.9829 160.058 29.9666C160.538 29.9498 160.945 29.7688 161.28 29.4236C161.627 29.0646 161.793 28.6586 161.778 28.2055C161.761 27.7391 161.567 27.3456 161.196 27.0251C160.837 26.6907 160.418 26.5319 159.939 26.5487C159.472 26.565 159.065 26.7526 158.718 27.1116C158.37 27.4706 158.204 27.8767 158.22 28.3297ZM174.377 35.17C172.658 35.2301 171.398 35.0673 170.598 34.6816C169.797 34.296 169.268 33.6541 169.01 32.7559C168.751 31.8577 168.589 30.4492 168.522 28.5303C168.454 26.5848 168.51 25.1353 168.69 24.1818C168.883 23.2145 169.358 22.4908 170.115 22.0107C170.885 21.5169 172.123 21.2402 173.828 21.1807C174.855 21.1448 175.909 21.3481 176.992 21.7906C178.074 22.2198 179 22.9612 179.771 24.015C180.542 25.0687 180.956 26.4351 181.015 28.1141C181.071 29.7264 180.744 31.0586 180.034 32.1107C179.323 33.1495 178.449 33.9138 177.412 34.4036C176.375 34.8801 175.363 35.1356 174.377 35.17ZM173.015 31.6954C173.443 31.7339 173.751 31.7498 173.937 31.7433C174.883 31.7103 175.607 31.4315 176.109 30.907C176.611 30.3825 176.847 29.6738 176.816 28.781C176.788 27.9815 176.513 27.3707 175.991 26.9487C175.469 26.5133 174.748 26.3117 173.829 26.3438C173.482 26.3559 173.15 26.3942 172.832 26.4586L173.015 31.6954Z" fill="#F7F9EA"/>
<path d="M56.7517 36.0756L56.1858 37.9939L56.2039 37.9993L56.2221 38.0043L56.7517 36.0756ZM56.8852 38.7526L55.8409 37.0469L56.8852 38.7526ZM48.8408 38.193L47.7745 39.8851L47.7824 39.89L48.8408 38.193ZM47.2247 29.1639L49.0904 29.8844L49.0904 29.8844L47.2247 29.1639ZM49.2127 26.4929L48.0247 24.8839L48.0139 24.892L49.2127 26.4929ZM56.4241 26.121L55.2665 27.7519L55.2759 27.7586L55.2854 27.7652L56.4241 26.121ZM57.3504 29.1505L59.094 30.1302L59.1032 30.1139L59.112 30.0974L57.3504 29.1505ZM56.536 29.8994L55.631 28.1159L55.6051 28.129L55.5797 28.1429L56.536 29.8994ZM55.3051 30.1825L55.3009 32.1825L55.3379 32.1826L55.3749 32.1813L55.3051 30.1825ZM54.7648 30.1814L54.5861 32.1734L54.6731 32.1812L54.7605 32.1814L54.7648 30.1814ZM52.6786 30.6145L53.7668 32.2925L53.7871 32.2794L53.807 32.2657L52.6786 30.6145ZM51.8982 31.7624L49.9588 31.2737L49.2753 33.9861L52.063 33.7556L51.8982 31.7624ZM56.0385 31.6979L56.3732 29.726L56.362 29.7242L56.0385 31.6979ZM57.0967 32.2012L55.6577 33.5902L55.6764 33.6096L55.6956 33.6285L57.0967 32.2012ZM57.1823 34.0794L58.6813 35.4034L58.6982 35.3842L58.7146 35.3646L57.1823 34.0794ZM56.1211 34.6368L55.6711 32.6881L55.6525 32.6924L55.634 32.697L56.1211 34.6368ZM52.167 34.8749L52.2082 32.8753L48.8579 32.8063L50.3875 35.7878L52.167 34.8749ZM54.99 36.0571L54.7544 34.071L54.7271 34.0743L54.6999 34.0783L54.99 36.0571ZM56.2221 38.0043C56.2539 38.013 56.0983 37.9757 55.9399 37.7821C55.7748 37.5805 55.7571 37.3937 55.7563 37.3712L59.7538 37.2316C59.7307 36.5695 59.5346 35.8586 59.0351 35.2484C58.5421 34.6462 57.896 34.3158 57.2812 34.147L56.2221 38.0043ZM55.7563 37.3712C55.7555 37.3492 55.757 37.3053 55.7714 37.2474C55.786 37.1885 55.8096 37.1328 55.8379 37.0857C55.895 36.9904 55.9335 36.9902 55.8409 37.0469L57.9295 40.4583C59.0174 39.7923 59.8048 38.6902 59.7538 37.2316L55.7563 37.3712ZM55.8409 37.0469C55.7171 37.1227 55.1257 37.3332 53.6555 37.3845L53.7951 41.3821C55.3363 41.3282 56.8515 41.1183 57.9295 40.4583L55.8409 37.0469ZM53.6555 37.3845C52.1098 37.4385 50.888 37.1128 49.8991 36.496L47.7824 39.89C49.5485 40.9915 51.5831 41.4593 53.7951 41.3821L53.6555 37.3845ZM49.907 36.5009C49.3973 36.1798 48.7388 35.273 48.6523 32.7963L44.6547 32.9359C44.7562 35.8426 45.5559 38.4871 47.7745 39.8851L49.907 36.5009ZM48.6523 32.7963C48.6129 31.6682 48.7724 30.7079 49.0904 29.8844L45.3589 28.4435C44.8205 29.8379 44.5992 31.3457 44.6547 32.9359L48.6523 32.7963ZM49.0904 29.8844C49.3919 29.1035 49.8334 28.5267 50.4114 28.0939L48.0139 24.892C46.7977 25.8026 45.9138 27.0065 45.3589 28.4435L49.0904 29.8844ZM50.4006 28.1019C50.9285 27.7122 51.6463 27.4486 52.6669 27.4129L52.5273 23.4154C50.8561 23.4737 49.3177 23.9293 48.0247 24.8839L50.4006 28.1019ZM52.6669 27.4129C54.381 27.3531 55.0805 27.6199 55.2665 27.7519L57.5817 24.4901C56.2628 23.554 54.4109 23.3496 52.5273 23.4154L52.6669 27.4129ZM55.2854 27.7652C55.6032 27.9853 55.5926 28.0995 55.5951 28.1712L59.5927 28.0316C59.5393 26.5042 58.7489 25.2982 57.5627 24.4768L55.2854 27.7652ZM55.5951 28.1712C55.5955 28.181 55.5951 28.1867 55.5948 28.1891C55.5946 28.1914 55.5944 28.1919 55.5946 28.1913C55.5947 28.1906 55.5948 28.1906 55.5944 28.1918C55.5939 28.193 55.5924 28.1969 55.5887 28.2037L59.112 30.0974C59.4564 29.4566 59.618 28.7557 59.5927 28.0316L55.5951 28.1712ZM55.6067 28.1709C55.615 28.1561 55.6247 28.1418 55.635 28.1288C55.6453 28.1158 55.6546 28.1063 55.6611 28.1003C55.6746 28.0879 55.67 28.0961 55.631 28.1159L57.441 31.6829C58.1078 31.3446 58.697 30.8368 59.094 30.1302L55.6067 28.1709ZM55.5797 28.1429C55.6076 28.1277 55.6025 28.136 55.5443 28.1494C55.4855 28.1629 55.3858 28.1785 55.2353 28.1838L55.3749 32.1813C56.0708 32.157 56.816 32.0241 57.4923 31.656L55.5797 28.1429ZM55.3094 28.1825L54.769 28.1814L54.7605 32.1814L55.3009 32.1825L55.3094 28.1825ZM54.9434 28.1894C54.7114 28.1686 54.4598 28.1708 54.2345 28.1787L54.3741 32.1762C54.4533 32.1735 54.5116 32.1728 54.5523 32.1731C54.5958 32.1735 54.6036 32.175 54.5861 32.1734L54.9434 28.1894ZM54.2345 28.1787C53.3286 28.2103 52.3672 28.4049 51.5502 28.9632L53.807 32.2657C53.7718 32.2898 53.8942 32.193 54.3741 32.1762L54.2345 28.1787ZM51.5904 28.9364C50.7192 29.5014 50.1937 30.3415 49.9588 31.2737L53.8376 32.2511C53.8527 32.191 53.8625 32.1889 53.8439 32.2163C53.8351 32.2292 53.8228 32.2444 53.8073 32.2596C53.7917 32.2748 53.7773 32.2857 53.7668 32.2925L51.5904 28.9364ZM52.063 33.7556C52.5971 33.7114 53.0707 33.6827 53.4857 33.6682L53.3461 29.6706C52.855 29.6877 52.3167 29.721 51.7334 29.7692L52.063 33.7556ZM53.4857 33.6682C54.1425 33.6452 54.6642 33.6368 55.0592 33.6411C55.2563 33.6433 55.4117 33.6485 55.5301 33.6555C55.5887 33.6589 55.6338 33.6626 55.6671 33.6659C55.7012 33.6693 55.7158 33.6717 55.7149 33.6715L56.362 29.7242C55.727 29.6201 54.644 29.6253 53.3461 29.6706L53.4857 33.6682ZM55.7038 33.6697C55.7828 33.6831 55.8035 33.6961 55.7861 33.6879C55.7769 33.6835 55.7588 33.6739 55.7351 33.6572C55.7112 33.6403 55.6845 33.618 55.6577 33.5902L58.5357 30.8123C57.9141 30.1683 57.128 29.8542 56.3732 29.7261L55.7038 33.6697ZM55.6956 33.6285C55.6636 33.597 55.6119 33.5344 55.5697 33.4399C55.5273 33.3446 55.5126 33.2571 55.5105 33.1972L59.508 33.0576C59.4771 32.1732 59.1172 31.3821 58.4977 30.774L55.6956 33.6285ZM55.5105 33.1972C55.5088 33.1507 55.5148 33.0746 55.5454 32.9856C55.576 32.8965 55.6185 32.8316 55.6499 32.7942L58.7146 35.3646C59.2639 34.7098 59.5378 33.9093 59.508 33.0576L55.5105 33.1972ZM55.6832 32.7554C55.7159 32.7185 55.7465 32.6914 55.7708 32.6729C55.7947 32.6546 55.8105 32.646 55.8137 32.6443C55.8167 32.6427 55.808 32.6476 55.7841 32.6561C55.7601 32.6646 55.7232 32.676 55.6711 32.6881L56.5711 36.5855C57.2957 36.4182 58.0834 36.0803 58.6813 35.4034L55.6832 32.7554ZM55.634 32.697C55.6514 32.6926 55.6135 32.7027 55.4871 32.719C55.3706 32.734 55.2125 32.7502 55.007 32.7665C54.5957 32.799 54.0422 32.8282 53.3371 32.8528L53.4767 36.8504C54.8443 36.8027 55.9878 36.7323 56.6081 36.5766L55.634 32.697ZM53.3371 32.8528C52.7503 32.8733 52.387 32.879 52.2082 32.8753L52.1258 36.8745C52.4276 36.8807 52.8909 36.8709 53.4767 36.8504L53.3371 32.8528ZM50.3875 35.7878C50.7795 36.5519 51.3693 37.1893 52.1632 37.605C52.9377 38.0106 53.7816 38.1406 54.6014 38.1119L54.4618 34.1144C54.149 34.1253 54.0325 34.0687 54.0188 34.0615C54.0114 34.0576 54.0088 34.0555 54.0042 34.0507C53.9984 34.0447 53.9765 34.0206 53.9465 33.962L50.3875 35.7878ZM54.6014 38.1119C54.8019 38.1049 55.0746 38.0661 55.2801 38.036L54.6999 34.0783C54.5884 34.0946 54.5078 34.1055 54.4535 34.1122C54.4264 34.1155 54.4119 34.117 54.4072 34.1174C54.3977 34.1183 54.4207 34.1158 54.4618 34.1144L54.6014 38.1119ZM55.2255 38.0432C55.51 38.0095 55.7242 37.9927 55.8779 37.9873L55.7383 33.9897C55.4389 34.0002 55.1077 34.0291 54.7544 34.071L55.2255 38.0432ZM55.8779 37.9873C56.0044 37.9829 56.0932 37.9865 56.1499 37.9917C56.2082 37.9971 56.2154 38.0026 56.1858 37.9939L57.3175 34.1574C56.79 34.0018 56.2385 33.9723 55.7383 33.9897L55.8779 37.9873ZM61.7105 37.8437L60.0373 38.9393L60.0471 38.9543L60.0571 38.9691L61.7105 37.8437ZM60.6468 34.3186L62.6373 34.1243L60.6468 34.3186ZM61.2441 29.0746L63.1079 29.8002L63.1107 29.793L61.2441 29.0746ZM63.4016 26.0975L64.6035 27.696L64.6079 27.6927L63.4016 26.0975ZM70.2574 25.8581L69.1546 27.5266L69.1675 27.5351L69.1806 27.5435L70.2574 25.8581ZM72.6165 28.6575L70.8002 29.4948L70.8041 29.5031L70.8079 29.5113L72.6165 28.6575ZM73.5789 33.867L71.5797 33.812L71.5796 33.8142L73.5789 33.867ZM72.7637 37.4577L74.4957 38.4578L72.7637 37.4577ZM69.0897 38.2664L67.4923 39.4698L67.5055 39.4874L67.5192 39.5047L69.0897 38.2664ZM68.6545 36.1203L70.6282 36.4438L71.0387 33.9397L68.508 34.1256L68.6545 36.1203ZM65.7163 36.2229L65.7797 34.2239L63.1687 34.1412L63.7701 36.6833L65.7163 36.2229ZM65.4126 38.4148L63.7595 37.2891L63.7471 37.3073L63.7352 37.3258L65.4126 38.4148ZM65.4522 32.6699L63.4921 33.0674L63.8416 34.7912L65.5959 34.6648L65.4522 32.6699ZM68.6103 32.5596L68.6032 34.5596L70.3386 34.5658L70.5893 32.8485L68.6103 32.5596ZM68.1744 30.3935L66.55 31.5603L66.5592 31.5731L66.5686 31.5858L68.1744 30.3935ZM65.7152 30.4594L67.4002 31.5367L67.4002 31.5367L65.7152 30.4594ZM63.8447 37.0687C63.7377 37.0724 63.6942 37.0527 63.6648 37.0364C63.6239 37.0137 63.5143 36.9394 63.3638 36.7183L60.0571 38.9691C60.9532 40.2855 62.2944 41.1253 63.9843 41.0663L63.8447 37.0687ZM63.3836 36.748C63.0591 36.2523 62.7646 35.4276 62.6373 34.1243L58.6563 34.513C58.8198 36.188 59.2344 37.7133 60.0373 38.9393L63.3836 36.748ZM62.6373 34.1243C62.6228 33.9752 62.6068 33.7123 62.5928 33.3101L58.5952 33.4497C58.61 33.8737 58.6293 34.2366 58.6563 34.513L62.6373 34.1243ZM62.5928 33.3101C62.5441 31.9173 62.734 30.7605 63.1079 29.8002L59.3804 28.349C58.7748 29.9044 58.5312 31.6178 58.5952 33.4497L62.5928 33.3101ZM63.1107 29.793C63.4855 28.8191 63.9962 28.1526 64.6035 27.696L62.1996 24.4989C60.9089 25.4694 59.9813 26.7878 59.3776 28.3562L63.1107 29.793ZM64.6079 27.6927C65.2137 27.2346 65.9423 26.9694 66.873 26.9368L66.7334 22.9393C65.0523 22.998 63.5131 23.5057 62.1953 24.5022L64.6079 27.6927ZM66.873 26.9368C67.8039 26.9043 68.5372 27.1185 69.1546 27.5266L71.3602 24.1896C69.9837 23.2798 68.4141 22.8806 66.7334 22.9393L66.873 26.9368ZM69.1806 27.5435C69.8295 27.958 70.3774 28.5775 70.8002 29.4948L74.4328 27.8201C73.7297 26.2952 72.7049 25.0484 71.3342 24.1727L69.1806 27.5435ZM70.8079 29.5113C71.247 30.4413 71.5181 31.5881 71.5673 32.9967L75.5649 32.8571C75.5005 31.0144 75.1386 29.3149 74.4251 27.8036L70.8079 29.5113ZM71.5673 32.9967C71.5814 33.3989 71.5838 33.6622 71.5797 33.812L75.5782 33.9221C75.5858 33.6445 75.5797 33.2811 75.5649 32.8571L71.5673 32.9967ZM71.5796 33.8142C71.544 35.1604 71.3044 35.9855 71.0318 36.4575L74.4957 38.4578C75.2295 37.187 75.5333 35.6184 75.5782 33.9199L71.5796 33.8142ZM71.0318 36.4575C70.9079 36.6719 70.8127 36.7442 70.7788 36.7659C70.7535 36.7821 70.7053 36.8091 70.5799 36.8135L70.7195 40.8111C72.4004 40.7524 73.6927 39.8483 74.4957 38.4578L71.0318 36.4575ZM70.5799 36.8135C70.4862 36.8168 70.4238 36.8125 70.3877 36.808C70.3518 36.8035 70.3491 36.7997 70.3706 36.8072C70.3935 36.8152 70.4397 36.8347 70.4969 36.8742C70.5553 36.9145 70.6119 36.9668 70.6603 37.0281L67.5192 39.5047C68.3836 40.601 69.6688 40.8478 70.7195 40.8111L70.5799 36.8135ZM70.6871 37.063C70.681 37.0549 70.626 36.9884 70.6178 36.7521L66.6202 36.8917C66.652 37.8014 66.9108 38.6979 67.4923 39.4698L70.6871 37.063ZM70.6178 36.7521C70.6118 36.5796 70.6219 36.4826 70.6282 36.4438L66.6809 35.7967C66.6213 36.1605 66.6076 36.5313 66.6202 36.8917L70.6178 36.7521ZM68.508 34.1256C67.8344 34.1751 67.2484 34.2082 66.7473 34.2257L66.8869 38.2232C67.4517 38.2035 68.0907 38.1671 68.8011 38.1149L68.508 34.1256ZM66.7473 34.2257C66.4663 34.2355 66.1445 34.2354 65.7797 34.2239L65.653 38.2219C66.0895 38.2357 66.5016 38.2367 66.8869 38.2232L66.7473 34.2257ZM63.7701 36.6833C63.7791 36.7215 63.7959 36.8176 63.8019 36.9902L67.7995 36.8506C67.7869 36.4901 67.7475 36.1212 67.6626 35.7624L63.7701 36.6833ZM63.8019 36.9902C63.8064 37.1169 63.7932 37.1927 63.7833 37.231C63.7741 37.2662 63.765 37.2811 63.7595 37.2891L67.0658 39.5405C67.6258 38.7181 67.832 37.782 67.7995 36.8506L63.8019 36.9902ZM63.7352 37.3258C63.7824 37.253 63.8402 37.1895 63.9018 37.139C63.9621 37.0896 64.0129 37.0633 64.0399 37.0516C64.0854 37.0318 64.0417 37.0618 63.8447 37.0687L63.9843 41.0663C65.0261 41.0299 66.3158 40.6965 67.0901 39.5039L63.7352 37.3258ZM65.5959 34.6648C66.3113 34.6132 66.806 34.5838 67.0996 34.5736L66.96 30.576C66.5874 30.589 66.0303 30.6231 65.3085 30.6751L65.5959 34.6648ZM67.0996 34.5736C67.4201 34.5624 67.9162 34.5572 68.6032 34.5596L68.6173 30.5597C67.9167 30.5572 67.3591 30.5621 66.96 30.576L67.0996 34.5736ZM70.5893 32.8485C70.6377 32.5171 70.6372 32.1505 70.626 31.8289L66.6284 31.9685C66.6326 32.087 66.6328 32.1733 66.6313 32.2325C66.6296 32.2969 66.6265 32.3033 66.6312 32.2708L70.5893 32.8485ZM70.626 31.8289C70.5946 30.9304 70.3708 29.9968 69.7802 29.2013L66.5686 31.5858C66.538 31.5445 66.616 31.6143 66.6284 31.9685L70.626 31.8289ZM69.7988 29.2267C69.0591 28.1969 67.9446 27.8 66.8444 27.8384L66.984 31.836C67.0274 31.8344 66.9612 31.8442 66.8412 31.7912C66.7092 31.7329 66.6078 31.6408 66.55 31.5603L69.7988 29.2267ZM66.8444 27.8384C65.765 27.8761 64.6994 28.3353 64.0301 29.3821L67.4002 31.5367C67.3463 31.6212 67.2512 31.7172 67.1259 31.7822C67.0117 31.8415 66.9453 31.8373 66.984 31.836L66.8444 27.8384ZM64.0301 29.3821C63.5007 30.2102 63.3377 31.1468 63.369 32.0422L67.3666 31.9026C67.355 31.5722 67.4237 31.5001 67.4002 31.5367L64.0301 29.3821ZM63.369 32.0422C63.381 32.3866 63.4234 32.7288 63.4921 33.0674L67.4123 32.2725C67.3842 32.1342 67.3704 32.0114 67.3666 31.9026L63.369 32.0422ZM88.0863 32.4199L86.2004 31.754L86.1952 31.7686L86.1903 31.7834L88.0863 32.4199ZM86.9526 34.3406L85.5078 32.9577L84.3749 34.1414L85.3124 35.485L86.9526 34.3406ZM87.0892 37.6779L85.7469 36.1952L85.7353 36.2057L85.7238 36.2165L87.0892 37.6779ZM84.8445 38.1565L84.219 40.0562L84.8445 38.1565ZM84.0083 37.7054L82.8245 39.3175L82.8329 39.3236L82.8414 39.3297L84.0083 37.7054ZM82.6827 35.8505L84.5416 35.1125L84.0855 33.9637L82.854 33.8579L82.6827 35.8505ZM81.3517 35.5568L82.0193 33.6715L78.6097 32.464L79.4 35.9938L81.3517 35.5568ZM77.187 36.6428L79.0502 35.9158L77.187 36.6428ZM76.8974 28.3479L75.0255 27.6435L75.0213 27.6548L76.8974 28.3479ZM78.9219 25.5755L80.1446 27.1582L80.1519 27.1525L80.1592 27.1468L78.9219 25.5755ZM85.3461 25.011L84.4825 26.8149L84.4931 26.82L84.5038 26.825L85.3461 25.011ZM87.5332 26.8958L85.8627 27.9955L85.8689 28.005L85.8752 28.0143L87.5332 26.8958ZM81.5749 32.207L80.2387 33.6951L80.2533 33.7082L80.2681 33.721L81.5749 32.207ZM84.0534 32.1204L85.4891 33.5128L85.4901 33.5118L84.0534 32.1204ZM83.9696 29.7219L82.6056 31.1846L82.6338 31.2108L82.6629 31.2359L83.9696 29.7219ZM81.4911 29.8084L82.9279 31.1998L82.9279 31.1998L81.4911 29.8084ZM86.4372 29.8959C86.4643 30.6704 86.3685 31.278 86.2004 31.754L89.9722 33.0858C90.3383 32.0488 90.4757 30.9273 90.4348 29.7563L86.4372 29.8959ZM86.1903 31.7834C86.0208 32.2882 85.787 32.666 85.5078 32.9577L88.3975 35.7235C89.1223 34.9662 89.6442 34.0635 89.9823 33.0563L86.1903 31.7834ZM85.3124 35.485C85.6136 35.9166 85.6768 36.2023 85.6826 36.3661L89.6801 36.2266C89.6412 35.1112 89.2186 34.093 88.5928 33.1961L85.3124 35.485ZM85.6826 36.3661C85.6828 36.3722 85.6819 36.3627 85.6857 36.3412C85.6896 36.3193 85.6971 36.2922 85.7094 36.2636C85.7216 36.235 85.735 36.2133 85.745 36.1996C85.7547 36.1863 85.7576 36.1855 85.7469 36.1952L88.4315 39.1605C89.2715 38.4 89.7203 37.376 89.6801 36.2266L85.6826 36.3661ZM85.7238 36.2165C85.7017 36.2371 85.686 36.2486 85.6771 36.2544C85.6685 36.26 85.664 36.262 85.663 36.2624C85.6621 36.2628 85.6603 36.2635 85.6557 36.2645C85.651 36.2655 85.6395 36.2676 85.6191 36.2683L85.7587 40.2659C86.7888 40.2299 87.712 39.8331 88.4546 39.1393L85.7238 36.2165ZM85.6191 36.2683C85.5167 36.2719 85.4741 36.2582 85.47 36.2568L84.219 40.0562C84.7278 40.2237 85.2481 40.2837 85.7587 40.2659L85.6191 36.2683ZM85.47 36.2568C85.4709 36.2571 85.4456 36.2487 85.3926 36.2201C85.34 36.1917 85.2676 36.1475 85.1752 36.0811L82.8414 39.3297C83.2508 39.6238 83.7121 39.8893 84.219 40.0562L85.47 36.2568ZM85.192 36.0933C85.1474 36.0606 85.0424 35.9682 84.8948 35.7588L81.6254 38.0633C81.9551 38.531 82.3489 38.9682 82.8245 39.3175L85.192 36.0933ZM84.8948 35.7588C84.7429 35.5432 84.6272 35.3281 84.5416 35.1125L80.8239 36.5885C81.0308 37.1098 81.3 37.6017 81.6254 38.0633L84.8948 35.7588ZM82.854 33.8579C82.5927 33.8354 82.3156 33.7764 82.0193 33.6715L80.684 37.4421C81.2794 37.6529 81.8896 37.7897 82.5115 37.8432L82.854 33.8579ZM79.4 35.9938C79.4409 36.1764 79.4685 36.3205 79.4859 36.4305C79.4945 36.4849 79.4999 36.5267 79.5032 36.5574C79.5065 36.5886 79.507 36.6025 79.507 36.6018L83.5046 36.4622C83.4901 36.0463 83.4055 35.5759 83.3034 35.1198L79.4 35.9938ZM79.507 36.6018C79.5095 36.674 79.5065 36.7233 79.5032 36.7529C79.4998 36.7822 79.4966 36.7885 79.5001 36.7771C79.5039 36.7651 79.5141 36.7365 79.5362 36.6984C79.5586 36.6595 79.5889 36.6184 79.6266 36.5796C79.6641 36.5409 79.7013 36.5126 79.732 36.4935C79.762 36.4748 79.7802 36.4683 79.7795 36.4686C79.7782 36.469 79.7586 36.4759 79.7154 36.4833C79.6722 36.4908 79.6093 36.4982 79.5235 36.5012L79.6631 40.4987C80.6107 40.4657 81.6841 40.2018 82.4951 39.3673C83.321 38.5175 83.5382 37.4247 83.5046 36.4622L79.507 36.6018ZM79.5235 36.5012C79.4435 36.504 79.4084 36.4939 79.4029 36.4922C79.3996 36.4912 79.3963 36.4907 79.3842 36.4814C79.3549 36.4587 79.2122 36.331 79.0502 35.9158L75.3239 37.3698C75.66 38.2314 76.1675 39.0515 76.9403 39.6479C77.7452 40.2692 78.6903 40.5327 79.6631 40.4987L79.5235 36.5012ZM79.0502 35.9158C78.6576 34.9096 78.4007 33.5759 78.3408 31.8596L74.3433 31.9992C74.4136 34.014 74.7201 35.8226 75.3239 37.3698L79.0502 35.9158ZM78.3408 31.8596C78.3051 30.838 78.4544 29.9046 78.7734 29.0409L75.0213 27.6548C74.5115 29.0347 74.2905 30.4891 74.3433 31.9992L78.3408 31.8596ZM78.7693 29.0522C79.0715 28.249 79.5283 27.6344 80.1446 27.1582L77.6991 23.9929C76.4707 24.9419 75.5779 26.1755 75.0255 27.6435L78.7693 29.0522ZM80.1592 27.1468C80.6961 26.7241 81.4088 26.4493 82.4133 26.4142L82.2737 22.4166C80.5598 22.4765 78.9914 22.9751 77.6845 24.0042L80.1592 27.1468ZM82.4133 26.4142C83.2116 26.3863 83.8885 26.5306 84.4825 26.8149L86.2097 23.207C84.9855 22.621 83.6607 22.3682 82.2737 22.4166L82.4133 26.4142ZM84.5038 26.825C85.0762 27.0908 85.5181 27.4721 85.8627 27.9955L89.2037 25.7961C88.4493 24.6502 87.4331 23.775 86.1883 23.197L84.5038 26.825ZM85.8752 28.0143C86.2052 28.5035 86.4097 29.1075 86.4372 29.8959L90.4348 29.7563C90.3841 28.306 89.9867 26.9565 89.1911 25.7773L85.8752 28.0143ZM78.9946 31.0963C79.0314 32.1511 79.5082 33.0392 80.2387 33.6951L82.9111 30.7188C82.8887 30.6987 82.9143 30.7159 82.9447 30.7776C82.9771 30.8432 82.9905 30.9102 82.9921 30.9567L78.9946 31.0963ZM80.2681 33.721C80.9994 34.3522 81.9038 34.697 82.9014 34.6622L82.7618 30.6646C82.7648 30.6645 82.7762 30.6644 82.7941 30.6672C82.8121 30.6699 82.8315 30.6748 82.8504 30.6816C82.8914 30.6965 82.9019 30.7104 82.8817 30.6929L80.2681 33.721ZM82.9014 34.6622C83.8988 34.6273 84.7952 34.2283 85.4891 33.5128L82.6177 30.728C82.6142 30.7316 82.6366 30.7088 82.6846 30.6874C82.7327 30.666 82.7654 30.6645 82.7618 30.6646L82.9014 34.6622ZM85.4901 33.5118C86.1731 32.8065 86.5868 31.8873 86.55 30.8325L82.5524 30.9721C82.5508 30.9256 82.5595 30.8578 82.5872 30.79C82.6132 30.7264 82.6376 30.7074 82.6167 30.7291L85.4901 33.5118ZM86.55 30.8325C86.5131 29.7779 86.0452 28.8714 85.2764 28.2078L82.6629 31.2359C82.6696 31.2417 82.6344 31.2121 82.5995 31.1413C82.5635 31.0682 82.5535 31.0033 82.5524 30.9721L86.55 30.8325ZM85.3336 28.2592C84.5964 27.5717 83.6648 27.211 82.6424 27.2467L82.782 31.2443C82.7755 31.2445 82.7338 31.2435 82.6778 31.2223C82.6226 31.2014 82.5984 31.1778 82.6056 31.1846L85.3336 28.2592ZM82.6424 27.2467C81.62 27.2824 80.7339 27.7154 80.0544 28.4171L82.9279 31.1998C82.9496 31.1774 82.9397 31.1939 82.8945 31.2147C82.8735 31.2244 82.8507 31.2322 82.8283 31.2374C82.8062 31.2426 82.7899 31.244 82.782 31.2443L82.6424 27.2467ZM80.0544 28.4171C79.3714 29.1224 78.9577 30.0416 78.9946 31.0963L82.9921 30.9567C82.9938 31.0033 82.985 31.071 82.9573 31.1388C82.9313 31.2025 82.9069 31.2214 82.9279 31.1998L80.0544 28.4171ZM93.6442 37.1688L92.6757 38.9186L92.6849 38.9238L92.6942 38.9288L93.6442 37.1688ZM91.718 34.7345L89.8037 35.3135L89.8039 35.3141L91.718 34.7345ZM91.4203 33.0839L93.411 32.8921L91.4203 33.0839ZM91.7472 25.8281L89.8488 25.1986L89.8449 25.2106L91.7472 25.8281ZM96.1917 24.7323L94.6821 26.0442L94.6914 26.0549L94.7009 26.0655L96.1917 24.7323ZM96.8424 29.6126L98.8302 29.8336L96.8424 29.6126ZM96.3498 33.272L94.3722 32.9733L93.8706 36.2951L97.0299 35.1528L96.3498 33.272ZM101.632 33.2476L100.731 35.0333L100.739 35.037L100.746 35.0406L101.632 33.2476ZM101.998 36.857L100.769 35.2798L100.769 35.2798L101.998 36.857ZM100.085 37.6443L100.363 39.6248L100.381 39.6224L100.398 39.6197L100.085 37.6443ZM97.0209 35.8701C95.944 35.9078 95.1653 35.7171 94.5941 35.4088L92.6942 38.9288C94.0268 39.648 95.5458 39.9241 97.1605 39.8677L97.0209 35.8701ZM94.6127 35.4189C94.1414 35.1581 93.8218 34.781 93.6322 34.1549L89.8039 35.3141C90.2779 36.8796 91.2423 38.1253 92.6757 38.9186L94.6127 35.4189ZM93.6324 34.1556C93.5465 33.8714 93.4657 33.4597 93.411 32.8921L89.4295 33.2757C89.5003 34.0112 89.6181 34.6999 89.8037 35.3135L93.6324 34.1556ZM93.411 32.8921C93.3537 32.2967 93.3064 31.5091 93.2718 30.5177L89.2743 30.6573C89.3104 31.6914 89.3613 32.568 89.4295 33.2757L93.411 32.8921ZM93.2718 30.5177C93.2064 28.6441 93.3658 27.3197 93.6495 26.4455L89.8449 25.2106C89.3578 26.7115 89.201 28.56 89.2743 30.6573L93.2718 30.5177ZM93.6456 26.4575C93.7418 26.1673 93.8403 26.089 93.8668 26.0696C93.8966 26.0476 94.0159 25.969 94.3533 25.9572L94.2137 21.9596C93.2586 21.993 92.309 22.2486 91.4933 22.8498C90.6743 23.4536 90.151 24.2875 89.8489 25.1986L93.6456 26.4575ZM94.3533 25.9572C94.5182 25.9514 94.5907 25.9771 94.6086 25.9843C94.6202 25.9891 94.6417 25.9977 94.6821 26.0442L97.7013 23.4204C96.7858 22.3669 95.5408 21.9133 94.2137 21.9596L94.3533 25.9572ZM94.7009 26.0655C94.8333 26.2136 94.9502 26.4314 94.9651 26.8564L98.9626 26.7168C98.9198 25.4895 98.522 24.3378 97.6825 23.3991L94.7009 26.0655ZM94.9651 26.8564C94.9919 27.6258 94.9571 28.4697 94.8547 29.3916L98.8302 29.8336C98.951 28.7464 98.9972 27.7063 98.9626 26.7168L94.9651 26.8564ZM94.8547 29.3916C94.7468 30.3617 94.5866 31.554 94.3722 32.9733L98.3274 33.5706C98.5465 32.1198 98.7147 30.8725 98.8302 29.8336L94.8547 29.3916ZM97.0299 35.1528C97.6261 34.9372 98.3184 34.8042 99.124 34.7761L98.9844 30.7785C97.8179 30.8193 96.7073 31.016 95.6698 31.3912L97.0299 35.1528ZM99.124 34.7761C99.9188 34.7483 100.421 34.8766 100.731 35.0333L102.533 31.4619C101.458 30.9199 100.242 30.7346 98.9844 30.7785L99.124 34.7761ZM100.746 35.0406C100.782 35.0582 100.788 35.0664 100.778 35.0578C100.774 35.0538 100.767 35.0471 100.759 35.0377C100.751 35.0282 100.743 35.0178 100.737 35.0072C100.722 34.9844 100.72 34.972 100.722 34.9802C100.725 34.9902 100.734 35.0272 100.736 35.1L104.734 34.9604C104.71 34.2631 104.539 33.5503 104.138 32.9027C103.733 32.2482 103.163 31.7733 102.518 31.4547L100.746 35.0406ZM100.736 35.1C100.743 35.2917 100.714 35.3578 100.717 35.3485C100.719 35.3434 100.726 35.3285 100.74 35.3104C100.754 35.2923 100.766 35.2821 100.769 35.2798L103.228 38.4343C104.373 37.5419 104.779 36.2453 104.734 34.9604L100.736 35.1ZM100.769 35.2798C100.557 35.4451 100.248 35.5934 99.7718 35.6689L100.398 39.6197C101.434 39.4556 102.401 39.0791 103.228 38.4343L100.769 35.2798ZM99.806 35.6638C99.1476 35.7565 98.2275 35.828 97.0209 35.8701L97.1605 39.8677C98.4324 39.8233 99.5083 39.7451 100.363 39.6248L99.806 35.6638ZM115.382 32.087L116.971 33.3023L116.979 33.2917L115.382 32.087ZM112.152 34.141L111.639 32.208L109.982 32.6482L110.163 34.3531L112.152 34.141ZM111.603 36.7618L113.021 38.1722L113.023 38.1708L111.603 36.7618ZM108.385 36.8542L107.109 38.3944L107.121 38.4045L107.133 38.4143L108.385 36.8542ZM107.594 34.2602L109.592 34.333L109.653 32.6745L108.034 32.3092L107.594 34.2602ZM104.388 32.431L102.873 33.7367L102.878 33.7431L102.884 33.7495L104.388 32.431ZM103.789 25.0273L102.031 24.0741L102.031 24.0741L103.789 25.0273ZM107.903 24.2033L106.517 25.6455L106.528 25.6558L106.539 25.666L107.903 24.2033ZM108.578 27.5017L110.573 27.6531L110.574 27.6285L110.576 27.6038L108.578 27.5017ZM108.854 29.6734L107.205 30.8054L107.223 30.8315L107.242 30.8571L108.854 29.6734ZM110.753 29.6071L109.062 28.5388L109.045 28.5656L109.029 28.5929L110.753 29.6071ZM110.896 27.4007L108.91 27.6363L108.913 27.6636L108.917 27.6908L110.896 27.4007ZM111.361 24.0825L112.803 25.4682L112.813 25.4574L112.823 25.4465L111.361 24.0825ZM115.52 24.5776L113.847 25.6733L113.847 25.6733L115.52 24.5776ZM114.445 28.1574C114.491 29.4911 114.201 30.3325 113.786 30.8824L116.979 33.2917C118.094 31.8136 118.511 29.9887 118.442 28.0178L114.445 28.1574ZM113.794 30.8718C113.334 31.4725 112.662 31.9364 111.639 32.208L112.666 36.074C114.419 35.6083 115.899 34.7029 116.971 33.3023L113.794 30.8718ZM110.163 34.3531C110.175 34.4647 110.19 34.6919 110.203 35.0696L114.201 34.93C114.187 34.5349 114.169 34.1895 114.141 33.929L110.163 34.3531ZM110.203 35.0696C110.21 35.2485 110.186 35.3336 110.178 35.3563C110.175 35.3674 110.173 35.368 110.176 35.3626C110.178 35.3604 110.18 35.358 110.181 35.3558C110.183 35.3537 110.184 35.3526 110.184 35.3528L113.023 38.1708C113.926 37.2612 114.241 36.0881 114.201 34.93L110.203 35.0696ZM110.185 35.3513C110.148 35.389 110.128 35.3971 110.124 35.399C110.118 35.4013 110.089 35.4138 110.015 35.4164L110.155 39.4139C111.248 39.3758 112.24 38.9573 113.021 38.1722L110.185 35.3513ZM110.015 35.4164C109.849 35.4222 109.752 35.3872 109.636 35.294L107.133 38.4143C108.005 39.1137 109.042 39.4528 110.155 39.4139L110.015 35.4164ZM109.66 35.3139C109.645 35.3012 109.64 35.2941 109.639 35.2933C109.638 35.2927 109.638 35.2917 109.635 35.2873C109.633 35.2809 109.608 35.2269 109.604 35.0905L105.606 35.2301C105.649 36.4436 106.118 37.574 107.109 38.3944L109.66 35.3139ZM109.604 35.0905C109.589 34.6824 109.588 34.4434 109.592 34.333L105.595 34.1874C105.585 34.451 105.592 34.8121 105.606 35.2301L109.604 35.0905ZM108.034 32.3092C107.065 32.0906 106.386 31.6769 105.891 31.1124L102.884 33.7495C104.001 35.0232 105.46 35.829 107.153 36.2111L108.034 32.3092ZM105.903 31.1252C105.473 30.6272 105.159 29.8865 105.119 28.7232L101.121 28.8628C101.186 30.711 101.717 32.3956 102.873 33.7367L105.903 31.1252ZM105.119 28.7232C105.07 27.3262 105.281 26.4715 105.547 25.9806L102.031 24.0741C101.294 25.4326 101.059 27.0883 101.121 28.8628L105.119 28.7232ZM105.547 25.9806C105.716 25.6701 105.849 25.5958 106.17 25.5846L106.03 21.587C104.273 21.6484 102.865 22.5351 102.031 24.0741L105.547 25.9806ZM106.17 25.5846C106.341 25.5786 106.429 25.6014 106.462 25.6127C106.489 25.6217 106.501 25.6296 106.517 25.6455L109.288 22.7611C108.372 21.881 107.211 21.5458 106.03 21.587L106.17 25.5846ZM106.539 25.666C106.54 25.6673 106.551 25.6744 106.567 25.7161C106.587 25.7658 106.62 25.8796 106.628 26.0889L110.625 25.9493C110.584 24.7804 110.206 23.6162 109.267 22.7406L106.539 25.666ZM106.628 26.0889C106.632 26.1981 106.622 26.5979 106.581 27.3996L110.576 27.6038C110.614 26.8551 110.636 26.2665 110.625 25.9493L106.628 26.0889ZM106.584 27.3503C106.551 27.7901 106.522 28.2179 106.531 28.4737L110.528 28.3341C110.53 28.3664 110.529 28.3737 110.53 28.3371C110.53 28.3068 110.532 28.2608 110.536 28.1959C110.543 28.0662 110.555 27.8868 110.573 27.6531L106.584 27.3503ZM106.531 28.4737C106.556 29.2029 106.699 30.0677 107.205 30.8054L110.503 28.5414C110.567 28.6341 110.573 28.6856 110.563 28.6457C110.553 28.606 110.535 28.5084 110.528 28.3341L106.531 28.4737ZM107.242 30.8571C107.939 31.8061 108.977 32.1106 109.899 32.0784L109.759 28.0808C109.759 28.0808 109.785 28.0799 109.831 28.0871C109.878 28.0944 109.945 28.1102 110.025 28.1435C110.201 28.217 110.358 28.3421 110.466 28.4897L107.242 30.8571ZM109.899 32.0784C110.815 32.0464 111.861 31.6688 112.477 30.6213L109.029 28.5929C109.133 28.4169 109.293 28.2645 109.479 28.1693C109.563 28.1264 109.635 28.1042 109.684 28.0928C109.732 28.0817 109.759 28.0808 109.759 28.0808L109.899 32.0784ZM112.444 30.6754C112.939 29.891 113.033 28.9952 113.007 28.2476L109.009 28.3872C109.015 28.5536 109.003 28.6421 108.997 28.6714C108.992 28.6996 108.999 28.6392 109.062 28.5388L112.444 30.6754ZM113.007 28.2476C112.998 27.9805 112.94 27.555 112.875 27.1106L108.917 27.6908C108.951 27.9218 108.975 28.1003 108.991 28.231C108.999 28.2962 109.005 28.3436 109.008 28.3757C109.011 28.4126 109.01 28.4116 109.009 28.3872L113.007 28.2476ZM112.882 27.1652C112.836 26.7715 112.801 26.4608 112.777 26.2296C112.765 26.1139 112.756 26.0231 112.751 25.9547C112.744 25.8807 112.743 25.8531 112.743 25.8553L108.746 25.9949C108.756 26.2845 108.82 26.874 108.91 27.6363L112.882 27.1652ZM112.743 25.8553C112.737 25.6626 112.761 25.5602 112.775 25.519C112.786 25.4857 112.795 25.4768 112.803 25.4682L109.918 22.6968C109.025 23.6268 108.704 24.811 108.746 25.9949L112.743 25.8553ZM112.823 25.4465C112.846 25.4222 112.9 25.3496 113.186 25.3396L113.046 21.342C111.866 21.3832 110.75 21.805 109.898 22.7185L112.823 25.4465ZM113.186 25.3396C113.535 25.3274 113.672 25.4052 113.847 25.6733L117.194 23.482C116.242 22.0284 114.775 21.2816 113.046 21.342L113.186 25.3396ZM113.847 25.6733C114.141 26.1226 114.401 26.8923 114.445 28.1574L118.442 28.0178C118.383 26.3246 118.027 24.7543 117.194 23.482L113.847 25.6733ZM134.362 36.5474L134.419 38.5466L134.431 38.5462L134.362 36.5474ZM129.327 35.0822L127.972 36.5533L127.981 36.5614L129.327 35.0822ZM128.923 24.6499L130.491 25.8922L130.497 25.884L128.923 24.6499ZM136.531 23.0234L137.213 21.1434L136.531 23.0234ZM139.033 28.7596L137.263 27.8286L137.254 27.8446L137.246 27.8608L139.033 28.7596ZM137.706 30.3069L136.484 28.7235L132.649 31.683L137.455 32.2911L137.706 30.3069ZM139.013 31.0617L137.491 32.3594L137.503 32.3729L137.515 32.3862L139.013 31.0617ZM139.172 34.4582L137.425 33.4837L137.418 33.4959L139.172 34.4582ZM137.501 35.8974L136.628 34.0979L136.617 34.1033L137.501 35.8974ZM132.722 29.1401L133.554 27.3211L133.5 27.2967L133.445 27.2754L132.722 29.1401ZM134.717 28.9504L135.867 30.5864L135.875 30.5806L135.884 30.5747L134.717 28.9504ZM134.653 27.1115L133.568 28.7922L133.61 28.8188L133.652 28.8434L134.653 27.1115ZM132.649 27.0414L133.5 28.851L133.554 28.826L133.605 28.7979L132.649 27.0414ZM132.244 27.4758L130.403 26.6938L130.403 26.6938L132.244 27.4758ZM132.288 28.755L130.507 29.6635L130.519 29.6876L130.532 29.7113L132.288 28.755ZM132.885 33.8172L132.162 35.6819L132.174 35.6865L132.885 33.8172ZM134.881 33.6475L135.925 35.3532L135.937 35.3461L135.948 35.3388L134.881 33.6475ZM134.824 32.0285L135.771 30.2668L135.771 30.2668L134.824 32.0285ZM132.821 31.9784L131.981 30.1633L131.97 30.1687L132.821 31.9784ZM132.415 32.3728L134.176 33.3196L134.193 33.2896L134.208 33.259L132.415 32.3728ZM132.453 33.4721L130.726 34.4812L130.744 34.5107L130.762 34.5395L132.453 33.4721ZM134.304 34.5482C132.386 34.6036 131.296 34.1692 130.674 33.603L127.981 36.5614C129.647 38.0766 131.913 38.619 134.419 38.5465L134.304 34.5482ZM130.682 33.6111C130.122 33.0946 129.58 32.0036 129.504 29.8128L125.506 29.9524C125.599 32.612 126.273 34.9874 127.972 36.5532L130.682 33.6111ZM129.504 29.8128C129.438 27.9277 129.85 26.7004 130.491 25.8922L127.356 23.4076C125.952 25.1791 125.418 27.4402 125.506 29.9524L129.504 29.8128ZM130.497 25.884C131.089 25.1285 131.973 24.6435 133.444 24.5921L133.304 20.5946C130.884 20.6791 128.8 21.5651 127.349 23.4158L130.497 25.884ZM133.444 24.5921C134.448 24.5571 135.235 24.6808 135.849 24.9034L137.213 21.1434C136.016 20.7088 134.699 20.5459 133.304 20.5946L133.444 24.5921ZM135.849 24.9034C136.461 25.1256 136.828 25.4132 137.062 25.7151L140.225 23.2661C139.453 22.269 138.412 21.5785 137.213 21.1434L135.849 24.9034ZM137.062 25.7151C137.282 25.9987 137.428 26.3613 137.447 26.8938L141.444 26.7542C141.4 25.4746 141.011 24.2815 140.225 23.2661L137.062 25.7151ZM137.447 26.8938C137.461 27.3069 137.383 27.6004 137.263 27.8286L140.803 29.6907C141.283 28.7772 141.48 27.7803 141.444 26.7542L137.447 26.8938ZM137.246 27.8608C137.116 28.1191 136.887 28.4123 136.484 28.7235L138.928 31.8903C139.72 31.2792 140.375 30.5409 140.819 29.6584L137.246 27.8608ZM137.455 32.2911C137.449 32.2903 137.439 32.2883 137.427 32.2843C137.415 32.2804 137.407 32.2763 137.404 32.2746C137.398 32.2707 137.429 32.2869 137.491 32.3594L140.535 29.764C139.891 29.0084 139.025 28.4578 137.957 28.3227L137.455 32.2911ZM137.515 32.3862C137.589 32.4706 137.624 32.544 137.629 32.691L141.627 32.5514C141.59 31.4991 141.215 30.5329 140.512 29.7372L137.515 32.3862ZM137.629 32.691C137.638 32.9486 137.583 33.2016 137.425 33.4838L140.918 35.4327C141.414 34.5447 141.662 33.5731 141.627 32.5514L137.629 32.691ZM137.418 33.4959C137.365 33.5924 137.188 33.8262 136.628 34.0979L138.374 37.6969C139.414 37.1924 140.351 36.4667 140.925 35.4206L137.418 33.4959ZM136.617 34.1033C136.177 34.3202 135.441 34.5085 134.292 34.5486L134.431 38.5462C135.894 38.4951 137.251 38.2501 138.385 37.6915L136.617 34.1033ZM131.891 30.9591C132.497 31.236 133.129 31.3072 133.698 31.2874L133.558 27.2898C133.523 27.291 133.498 27.2904 133.48 27.2895C133.463 27.2885 133.455 27.2872 133.455 27.2872C133.456 27.2873 133.493 27.2935 133.554 27.3211L131.891 30.9591ZM133.698 31.2874C134.446 31.2612 135.201 31.0551 135.867 30.5864L133.566 27.3143C133.579 27.3056 133.591 27.2983 133.603 27.2926C133.615 27.2869 133.623 27.284 133.627 27.2829C133.634 27.2805 133.615 27.2878 133.558 27.2898L133.698 31.2874ZM135.884 30.5747C136.786 29.9268 137.198 28.9465 137.162 27.9244L133.165 28.064C133.163 28.0096 133.17 27.8694 133.251 27.6962C133.335 27.5171 133.455 27.3944 133.55 27.326L135.884 30.5747ZM137.162 27.9244C137.126 26.8854 136.619 25.9373 135.653 25.3795L133.652 28.8434C133.547 28.7824 133.404 28.6642 133.295 28.4759C133.189 28.2927 133.167 28.1343 133.165 28.064L137.162 27.9244ZM135.737 25.4308C135.022 24.9698 134.226 24.805 133.452 24.832L133.592 28.8295C133.65 28.8275 133.667 28.834 133.652 28.8305C133.646 28.8288 133.633 28.8251 133.617 28.8183C133.601 28.8114 133.585 28.8026 133.568 28.7922L135.737 25.4308ZM133.452 24.832C132.883 24.8519 132.269 24.9712 131.693 25.2848L133.605 28.7979C133.553 28.8264 133.518 28.8355 133.513 28.8367C133.509 28.8377 133.533 28.8316 133.592 28.8295L133.452 24.832ZM131.797 25.2317C131.129 25.5464 130.663 26.0807 130.403 26.6938L134.085 28.2578C134.047 28.3463 133.981 28.4623 133.872 28.5788C133.762 28.6973 133.633 28.7888 133.5 28.851L131.797 25.2317ZM130.403 26.6938C130.199 27.1733 130.11 27.6796 130.127 28.1901L134.125 28.0505C134.126 28.0754 134.124 28.109 134.117 28.1482C134.11 28.1876 134.099 28.2249 134.085 28.2578L130.403 26.6938ZM130.127 28.1901C130.145 28.7005 130.27 29.1994 130.507 29.6635L134.07 27.8465C134.086 27.8783 134.1 27.9147 134.11 27.9535C134.12 27.9922 134.124 28.0256 134.125 28.0505L130.127 28.1901ZM130.532 29.7113C130.851 30.2975 131.355 30.7552 131.999 31.0048L133.445 27.2754C133.561 27.3204 133.685 27.3915 133.8 27.4932C133.914 27.5944 133.993 27.7033 134.045 27.7987L130.532 29.7113ZM132.174 35.6865C132.736 35.9003 133.315 35.9636 133.86 35.9445L133.721 31.9469C133.574 31.9521 133.549 31.9297 133.597 31.948L132.174 35.6865ZM133.86 35.9445C134.559 35.9201 135.274 35.7517 135.925 35.3532L133.836 31.9418C133.858 31.9287 133.868 31.9275 133.855 31.9309C133.841 31.9347 133.799 31.9442 133.721 31.9469L133.86 35.9445ZM135.948 35.3388C136.841 34.7751 137.369 33.8372 137.331 32.7414L133.333 32.881C133.329 32.7554 133.353 32.5546 133.468 32.3406C133.582 32.1294 133.729 32.0095 133.813 31.9562L135.948 35.3388ZM137.331 32.7414C137.292 31.6265 136.671 30.7508 135.771 30.2668L133.877 33.7902C133.801 33.7489 133.648 33.6454 133.518 33.4439C133.383 33.2363 133.338 33.0274 133.333 32.881L137.331 32.7414ZM135.771 30.2668C135.088 29.8997 134.351 29.7636 133.625 29.789L133.765 33.7865C133.832 33.7842 133.868 33.7902 133.88 33.7928C133.891 33.795 133.887 33.7954 133.877 33.7902L135.771 30.2668ZM133.625 29.789C133.081 29.808 132.518 29.9148 131.981 30.1633L133.661 33.7934C133.623 33.811 133.643 33.7908 133.765 33.7865L133.625 29.789ZM131.97 30.1687C131.391 30.4411 130.916 30.8911 130.622 31.4866L134.208 33.259C134.155 33.3664 134.078 33.4773 133.975 33.5772C133.872 33.6765 133.766 33.7444 133.673 33.788L131.97 30.1687ZM130.653 31.4259C130.384 31.9258 130.277 32.4625 130.295 32.9871L134.292 32.8475C134.297 32.9724 134.27 33.1461 134.176 33.3196L130.653 31.4259ZM130.295 32.9871C130.313 33.5123 130.457 34.0207 130.726 34.4812L134.18 32.463C134.25 32.5835 134.288 32.7221 134.292 32.8475L130.295 32.9871ZM130.762 34.5395C131.112 35.0941 131.614 35.4692 132.162 35.6819L133.609 31.9526C133.684 31.9818 133.781 32.0317 133.883 32.1129C133.986 32.1953 134.075 32.2951 134.145 32.4047L130.762 34.5395ZM149.134 32.4293L147.137 32.3257L147.036 34.2633L148.97 34.4226L149.134 32.4293ZM150.731 32.8939L149.626 34.5609L149.66 34.5832L149.694 34.604L150.731 32.8939ZM150.797 35.3531L149.63 33.7287L149.617 33.7379L149.605 33.7473L150.797 35.3531ZM149.415 35.9016L149.679 37.8842L149.703 37.881L149.726 37.8773L149.415 35.9016ZM145.198 36.0489L145.025 38.0414L145.049 38.0435L145.073 38.045L145.198 36.0489ZM143.781 35.5981L144.858 33.913L143.781 35.5981ZM143.656 33.161L144.863 34.7554L144.875 34.7469L143.656 33.161ZM145.156 32.5682L145.514 34.536L147.369 34.1989L147.142 32.327L145.156 32.5682ZM144.912 26.1329L146.91 26.1984L146.974 24.269L145.048 24.1375L144.912 26.1329ZM143.073 25.6367L142.022 27.3385L143.073 25.6367ZM142.957 22.8991L144.147 24.5066L142.957 22.8991ZM149.115 22.1437L149.266 20.1495L149.115 22.1437ZM150.673 22.6297L149.598 24.3163L149.61 24.324L149.622 24.3315L150.673 22.6297ZM150.748 25.3687L149.604 23.7285L149.593 23.7363L149.582 23.7443L150.748 25.3687ZM148.929 25.9926L148.657 24.0111L146.697 24.2799L146.945 26.243L148.929 25.9926ZM148.97 34.4226C149.469 34.4637 149.63 34.5633 149.626 34.5609L151.836 31.2268C151.068 30.7175 150.164 30.5074 149.298 30.4361L148.97 34.4226ZM149.694 34.604C149.587 34.5389 149.478 34.4295 149.408 34.2946C149.346 34.1746 149.353 34.1092 149.354 34.1627L153.352 34.0231C153.315 32.9532 152.867 31.8503 151.768 31.1837L149.694 34.604ZM149.354 34.1627C149.356 34.206 149.346 34.1398 149.399 34.0199C149.457 33.8879 149.55 33.7865 149.63 33.7287L151.964 36.9774C152.993 36.2377 153.39 35.1233 153.352 34.0231L149.354 34.1627ZM149.605 33.7473C149.528 33.8039 149.384 33.8819 149.104 33.926L149.726 37.8773C150.535 37.7499 151.311 37.4622 151.989 36.9589L149.605 33.7473ZM149.152 33.9191C148.697 33.9795 148.063 34.0277 147.229 34.0568L147.369 38.0544C148.268 38.023 149.044 37.9685 149.679 37.8842L149.152 33.9191ZM147.229 34.0568C146.41 34.0854 145.781 34.0814 145.322 34.0528L145.073 38.045C145.711 38.0848 146.483 38.0853 147.369 38.0544L147.229 34.0568ZM145.37 34.0564C145.088 34.0319 144.939 33.9642 144.858 33.913L142.704 37.2831C143.415 37.7379 144.21 37.9708 145.025 38.0414L145.37 34.0564ZM144.858 33.913C144.951 33.9719 145.047 34.0709 145.11 34.1935C145.166 34.3034 145.159 34.3615 145.157 34.3093L141.159 34.4489C141.197 35.5212 141.642 36.6046 142.704 37.2831L144.858 33.913ZM145.157 34.3093C145.155 34.2512 145.167 34.3063 145.12 34.4214C145.067 34.5516 144.973 34.6726 144.863 34.7554L142.449 31.5665C141.452 32.3211 141.124 33.429 141.159 34.4489L145.157 34.3093ZM144.875 34.7469C144.904 34.7243 145.07 34.6166 145.514 34.536L144.799 30.6004C143.97 30.7511 143.136 31.0385 142.437 31.575L144.875 34.7469ZM147.142 32.327C147.058 31.6424 146.989 30.6053 146.939 29.1839L142.942 29.3235C142.993 30.7805 143.067 31.953 143.171 32.8094L147.142 32.327ZM146.939 29.1839C146.895 27.912 146.887 26.9221 146.91 26.1984L142.913 26.0673C142.885 26.9197 142.896 28.0104 142.942 29.3235L146.939 29.1839ZM145.048 24.1375C144.455 24.097 144.198 23.9806 144.124 23.9349L142.022 27.3385C142.848 27.8484 143.817 28.0628 144.775 28.1282L145.048 24.1375ZM144.124 23.9349C144.152 23.9527 144.192 23.9822 144.233 24.026C144.275 24.0702 144.308 24.1182 144.332 24.164C144.38 24.2563 144.367 24.2924 144.364 24.2108L140.367 24.3504C140.407 25.5023 140.892 26.6405 142.022 27.3385L144.124 23.9349ZM144.364 24.2108C144.361 24.1339 144.376 24.1693 144.336 24.2634C144.316 24.3101 144.287 24.3597 144.249 24.4065C144.212 24.453 144.175 24.4859 144.147 24.5066L141.768 21.2915C140.719 22.0676 140.327 23.2186 140.367 24.3504L144.364 24.2108ZM144.147 24.5066C144.258 24.4248 144.442 24.3323 144.768 24.2845L144.188 20.3268C143.319 20.4542 142.489 20.7573 141.768 21.2915L144.147 24.5066ZM144.768 24.2845C145.263 24.2119 145.954 24.1553 146.863 24.1235L146.723 20.126C145.739 20.1603 144.887 20.2243 144.188 20.3268L144.768 24.2845ZM146.863 24.1235C147.771 24.0918 148.464 24.1001 148.963 24.138L149.266 20.1495C148.562 20.096 147.706 20.0916 146.723 20.126L146.863 24.1235ZM148.963 24.138C149.292 24.1629 149.482 24.2424 149.598 24.3163L151.748 20.943C150.99 20.4604 150.142 20.2159 149.266 20.1495L148.963 24.138ZM149.622 24.3315C149.597 24.3157 149.559 24.288 149.519 24.2455C149.478 24.2026 149.444 24.1549 149.419 24.1075C149.368 24.0111 149.379 23.9669 149.381 24.0356L153.379 23.896C153.338 22.7388 152.84 21.6175 151.723 20.9279L149.622 24.3315ZM149.381 24.0356C149.384 24.1092 149.369 24.0663 149.415 23.9654C149.437 23.9158 149.468 23.8654 149.506 23.8197C149.544 23.7745 149.58 23.745 149.604 23.7285L151.893 27.0089C152.989 26.2441 153.42 25.0732 153.379 23.896L149.381 24.0356ZM149.582 23.7443C149.516 23.7915 149.265 23.9278 148.657 24.0111L149.201 27.974C150.16 27.8425 151.122 27.5628 151.915 26.9931L149.582 23.7443ZM146.945 26.243C147.026 26.8836 147.093 27.8509 147.139 29.177L151.137 29.0374C151.089 27.6718 151.017 26.5627 150.913 25.7421L146.945 26.243ZM147.139 29.177C147.183 30.4326 147.18 31.4789 147.137 32.3257L151.131 32.533C151.183 31.5353 151.183 30.3668 151.137 29.0374L147.139 29.177ZM165.313 29.7231L163.427 29.0572L163.422 29.0718L163.417 29.0866L165.313 29.7231ZM164.179 31.6438L162.734 30.2609L161.601 31.4446L162.539 32.7882L164.179 31.6438ZM164.316 34.9811L162.973 33.4984L162.962 33.5089L162.95 33.5197L164.316 34.9811ZM162.071 35.4597L161.445 37.3594L162.071 35.4597ZM161.235 35.0086L160.051 36.6207L160.059 36.6268L160.068 36.6329L161.235 35.0086ZM159.909 33.1537L161.768 32.4157L161.312 31.2669L160.08 31.1611L159.909 33.1537ZM158.578 32.86L159.246 30.9747L155.836 29.7672L156.626 33.297L158.578 32.86ZM154.413 33.946L156.277 33.219L154.413 33.946ZM154.124 25.6511L152.252 24.9467L152.248 24.958L154.124 25.6511ZM156.148 22.8787L157.371 24.4614L157.378 24.4557L157.386 24.45L156.148 22.8787ZM162.572 22.3142L161.709 24.1181L161.719 24.1232L161.73 24.1282L162.572 22.3142ZM164.76 24.199L163.089 25.2987L163.095 25.3082L163.102 25.3175L164.76 24.199ZM158.801 29.5102L157.465 30.9983L157.48 31.0114L157.494 31.0242L158.801 29.5102ZM161.28 29.4236L162.715 30.816L162.716 30.815L161.28 29.4236ZM161.196 27.0251L159.832 28.4878L159.86 28.514L159.889 28.5391L161.196 27.0251ZM158.718 27.1116L160.154 28.503L160.154 28.503L158.718 27.1116ZM163.664 27.1991C163.691 27.9736 163.595 28.5812 163.427 29.0572L167.199 30.3889C167.565 29.352 167.702 28.2305 167.661 27.0595L163.664 27.1991ZM163.417 29.0866C163.247 29.5914 163.013 29.9692 162.734 30.2609L165.624 33.0267C166.349 32.2694 166.871 31.3667 167.209 30.3595L163.417 29.0866ZM162.539 32.7882C162.84 33.2198 162.903 33.5055 162.909 33.6693L166.906 33.5297C166.868 32.4144 166.445 31.3962 165.819 30.4993L162.539 32.7882ZM162.909 33.6693C162.909 33.6754 162.908 33.6659 162.912 33.6444C162.916 33.6225 162.923 33.5954 162.936 33.5668C162.948 33.5382 162.961 33.5165 162.971 33.5028C162.981 33.4895 162.984 33.4887 162.973 33.4984L165.658 36.4637C166.498 35.7032 166.947 34.6792 166.906 33.5297L162.909 33.6693ZM162.95 33.5197C162.928 33.5403 162.912 33.5517 162.903 33.5576C162.895 33.5632 162.89 33.5652 162.889 33.5656C162.888 33.566 162.887 33.5667 162.882 33.5677C162.877 33.5687 162.866 33.5708 162.845 33.5715L162.985 37.5691C164.015 37.5331 164.938 37.1363 165.681 36.4425L162.95 33.5197ZM162.845 33.5715C162.743 33.5751 162.7 33.5613 162.696 33.56L161.445 37.3594C161.954 37.5269 162.474 37.5869 162.985 37.5691L162.845 33.5715ZM162.696 33.56C162.697 33.5603 162.672 33.5519 162.619 33.5233C162.566 33.4949 162.494 33.4507 162.402 33.3843L160.068 36.6329C160.477 36.927 160.938 37.1925 161.445 37.3594L162.696 33.56ZM162.418 33.3965C162.374 33.3637 162.269 33.2713 162.121 33.062L158.852 35.3665C159.181 35.8342 159.575 36.2714 160.051 36.6207L162.418 33.3965ZM162.121 33.062C161.969 32.8464 161.854 32.6313 161.768 32.4157L158.05 33.8917C158.257 34.413 158.526 34.9049 158.852 35.3665L162.121 33.062ZM160.08 31.1611C159.819 31.1386 159.542 31.0796 159.246 30.9747L157.91 34.7453C158.506 34.9561 159.116 35.0929 159.738 35.1464L160.08 31.1611ZM156.626 33.297C156.667 33.4796 156.695 33.6237 156.712 33.7337C156.721 33.7881 156.726 33.8299 156.73 33.8606C156.733 33.8918 156.733 33.9057 156.733 33.905L160.731 33.7654C160.716 33.3495 160.632 32.8791 160.53 32.423L156.626 33.297ZM156.733 33.905C156.736 33.9772 156.733 34.0265 156.73 34.0561C156.726 34.0854 156.723 34.0917 156.726 34.0803C156.73 34.0683 156.74 34.0397 156.763 34.0015C156.785 33.9627 156.815 33.9216 156.853 33.8828C156.89 33.8441 156.928 33.8158 156.958 33.7967C156.988 33.778 157.007 33.7715 157.006 33.7717C157.005 33.7722 156.985 33.7791 156.942 33.7865C156.899 33.794 156.836 33.8014 156.75 33.8044L156.889 37.8019C157.837 37.7688 158.91 37.505 159.721 36.6705C160.547 35.8207 160.765 34.7279 160.731 33.7654L156.733 33.905ZM156.75 33.8044C156.67 33.8072 156.635 33.7971 156.629 33.7954C156.626 33.7944 156.623 33.7939 156.611 33.7846C156.581 33.7619 156.439 33.6342 156.277 33.219L152.55 34.673C152.886 35.5346 153.394 36.3547 154.167 36.9511C154.972 37.5724 155.917 37.8359 156.889 37.8019L156.75 33.8044ZM156.277 33.219C155.884 32.2128 155.627 30.8791 155.567 29.1628L151.57 29.3024C151.64 31.3172 151.946 33.1258 152.55 34.673L156.277 33.219ZM155.567 29.1628C155.532 28.1412 155.681 27.2078 156 26.3441L152.248 24.958C151.738 26.3379 151.517 27.7923 151.57 29.3024L155.567 29.1628ZM155.996 26.3554C156.298 25.5522 156.755 24.9376 157.371 24.4614L154.925 21.2961C153.697 22.2451 152.804 23.4787 152.252 24.9467L155.996 26.3554ZM157.386 24.45C157.922 24.0272 158.635 23.7525 159.64 23.7174L159.5 19.7198C157.786 19.7797 156.218 20.2783 154.911 21.3074L157.386 24.45ZM159.64 23.7174C160.438 23.6895 161.115 23.8337 161.709 24.1181L163.436 20.5102C162.212 19.9242 160.887 19.6714 159.5 19.7198L159.64 23.7174ZM161.73 24.1282C162.303 24.3939 162.744 24.7753 163.089 25.2987L166.43 23.0993C165.676 21.9534 164.66 21.0782 163.415 20.5002L161.73 24.1282ZM163.102 25.3175C163.432 25.8067 163.636 26.4107 163.664 27.1991L167.661 27.0595C167.61 25.6092 167.213 24.2597 166.418 23.0804L163.102 25.3175ZM156.221 28.3995C156.258 29.4543 156.735 30.3424 157.465 30.9983L160.137 28.022C160.115 28.0019 160.141 28.0191 160.171 28.0808C160.203 28.1464 160.217 28.2134 160.218 28.2599L156.221 28.3995ZM157.494 31.0242C158.226 31.6554 159.13 32.0002 160.128 31.9654L159.988 27.9678C159.991 27.9677 160.003 27.9676 160.02 27.9704C160.038 27.9731 160.058 27.978 160.077 27.9848C160.118 27.9997 160.128 28.0136 160.108 27.9961L157.494 31.0242ZM160.128 31.9654C161.125 31.9305 162.022 31.5315 162.715 30.816L159.844 28.0312C159.841 28.0348 159.863 28.012 159.911 27.9906C159.959 27.9692 159.992 27.9677 159.988 27.9678L160.128 31.9654ZM162.716 30.815C163.399 30.1097 163.813 29.1905 163.776 28.1357L159.779 28.2753C159.777 28.2288 159.786 28.161 159.814 28.0932C159.84 28.0296 159.864 28.0106 159.843 28.0323L162.716 30.815ZM163.776 28.1357C163.74 27.0811 163.272 26.1746 162.503 25.511L159.889 28.5391C159.896 28.5449 159.861 28.5153 159.826 28.4445C159.79 28.3714 159.78 28.3065 159.779 28.2753L163.776 28.1357ZM162.56 25.5624C161.823 24.8749 160.891 24.5142 159.869 24.5499L160.008 28.5475C160.002 28.5477 159.96 28.5467 159.904 28.5255C159.849 28.5046 159.825 28.481 159.832 28.4878L162.56 25.5624ZM159.869 24.5499C158.846 24.5856 157.96 25.0186 157.281 25.7203L160.154 28.503C160.176 28.4806 160.166 28.4971 160.121 28.5179C160.1 28.5276 160.077 28.5354 160.055 28.5406C160.033 28.5458 160.016 28.5472 160.008 28.5475L159.869 24.5499ZM157.281 25.7203C156.598 26.4256 156.184 27.3447 156.221 28.3995L160.218 28.2599C160.22 28.3065 160.211 28.3742 160.184 28.442C160.158 28.5057 160.133 28.5246 160.154 28.503L157.281 25.7203ZM170.598 34.6816L171.466 32.8798L170.598 34.6816ZM169.01 32.7559L170.932 32.2034L169.01 32.7559ZM168.69 24.1818L166.729 23.7904L166.727 23.8004L166.725 23.8105L168.69 24.1818ZM170.115 22.0107L171.186 23.6998L171.195 23.6942L170.115 22.0107ZM176.992 21.7906L176.235 23.642L176.245 23.646L176.254 23.6498L176.992 21.7906ZM179.771 24.015L181.385 22.8344L181.385 22.8344L179.771 24.015ZM180.034 32.1107L181.684 33.2403L181.691 33.2299L180.034 32.1107ZM177.412 34.4036L178.247 36.2211L178.257 36.2166L178.266 36.212L177.412 34.4036ZM173.015 31.6954L171.016 31.7652L171.078 33.5297L172.836 33.6875L173.015 31.6954ZM176.109 30.907L174.664 29.5241L174.664 29.5241L176.109 30.907ZM175.991 26.9487L174.71 28.4848L174.722 28.4943L174.733 28.5036L175.991 26.9487ZM172.832 26.4586L172.435 24.4985L170.774 24.8352L170.833 26.5284L172.832 26.4586ZM174.307 33.1712C172.663 33.2287 171.811 33.0462 171.466 32.8798L169.73 36.4835C170.986 37.0883 172.653 37.2314 174.447 37.1688L174.307 33.1712ZM171.466 32.8798C171.208 32.7555 171.042 32.586 170.932 32.2034L167.087 33.3084C167.494 34.7221 168.386 35.8365 169.73 36.4835L171.466 32.8798ZM170.932 32.2034C170.745 31.5531 170.586 30.3496 170.521 28.4605L166.523 28.6001C166.591 30.5487 166.758 32.1623 167.087 33.3084L170.932 32.2034ZM170.521 28.4605C170.454 26.5464 170.518 25.2796 170.655 24.5531L166.725 23.8105C166.502 24.9911 166.454 26.6233 166.523 28.6001L170.521 28.4605ZM170.651 24.5732C170.749 24.0823 170.94 23.8561 171.186 23.6998L169.044 20.3217C167.777 21.1255 167.017 22.3466 166.729 23.7904L170.651 24.5732ZM171.195 23.6942C171.499 23.4989 172.289 23.2356 173.898 23.1794L173.759 19.1819C171.957 19.2448 170.271 19.5349 169.035 20.3273L171.195 23.6942ZM173.898 23.1794C174.605 23.1548 175.378 23.2917 176.235 23.642L177.748 19.9393C176.44 19.4046 175.104 19.1349 173.759 19.1819L173.898 23.1794ZM176.254 23.6498C176.945 23.9236 177.581 24.4082 178.157 25.1955L181.385 22.8344C180.42 21.5143 179.203 20.516 177.729 19.9315L176.254 23.6498ZM178.157 25.1955C178.631 25.8446 178.967 26.7911 179.016 28.1839L183.014 28.0443C182.945 26.0791 182.452 24.2929 181.385 22.8344L178.157 25.1955ZM179.016 28.1839C179.062 29.4889 178.793 30.3745 178.376 30.9916L181.691 33.2299C182.695 31.7428 183.081 29.964 183.014 28.0443L179.016 28.1839ZM178.383 30.9813C177.853 31.7565 177.243 32.2716 176.558 32.5953L178.266 36.212C179.655 35.556 180.793 34.5425 181.684 33.2402L178.383 30.9813ZM176.577 32.5862C175.743 32.9694 174.991 33.1474 174.307 33.1712L174.447 37.1688C175.736 37.1238 177.006 36.7909 178.247 36.2211L176.577 32.5862ZM172.836 33.6875C173.269 33.7263 173.685 33.7533 174.007 33.7421L173.867 29.7445C173.867 29.7445 173.863 29.7447 173.853 29.7447C173.844 29.7447 173.83 29.7447 173.813 29.7443C173.777 29.7437 173.73 29.742 173.67 29.7389C173.549 29.7326 173.392 29.7212 173.194 29.7034L172.836 33.6875ZM174.007 33.7421C175.31 33.6966 176.592 33.2951 177.554 32.2899L174.664 29.5241C174.623 29.5679 174.457 29.7239 173.867 29.7445L174.007 33.7421ZM177.554 32.2899C178.512 31.2893 178.86 30.0107 178.814 28.7112L174.817 28.8508C174.834 29.337 174.711 29.4756 174.664 29.5241L177.554 32.2899ZM178.814 28.7112C178.77 27.4549 178.308 26.2506 177.249 25.3938L174.733 28.5036C174.751 28.518 174.756 28.5248 174.765 28.544C174.777 28.5716 174.81 28.661 174.817 28.8508L178.814 28.7112ZM177.272 25.4126C176.256 24.5653 174.994 24.3019 173.759 24.345L173.898 28.3426C174.502 28.3215 174.682 28.4614 174.71 28.4848L177.272 25.4126ZM173.759 24.345C173.31 24.3607 172.868 24.4107 172.435 24.4985L173.23 28.4188C173.432 28.3776 173.655 28.3511 173.898 28.3426L173.759 24.345ZM170.833 26.5284L171.016 31.7652L175.014 31.6256L174.831 26.3888L170.833 26.5284Z" fill="#4B371F" mask="url(#path-2-outside-1_32299_10201)"/>
<path d="M9.62066 15.4264C7.76988 11.7391 9.25866 7.24965 12.9459 5.39887L17.026 3.35096C20.7133 1.50018 25.2027 2.98897 27.0535 6.67625L42.0405 36.5347C43.6342 39.7098 42.3522 43.5758 39.1771 45.1695C36.0019 46.7632 32.136 45.4812 30.5422 42.3061L17.7893 16.8986C17.1724 15.6695 17.6687 14.173 18.8978 13.5561C20.1269 12.9391 21.6234 13.4354 22.2403 14.6645L34.9932 40.072C35.3531 40.7889 36.226 41.0784 36.943 40.7186C37.66 40.3587 37.9494 39.4857 37.5896 38.7688L22.6026 8.91033C21.9857 7.68124 20.4892 7.18498 19.2601 7.8019L15.18 9.84982C13.9509 10.4667 13.4547 11.9632 14.0716 13.1923L16.5721 18.1741L11.2169 18.3618L9.62066 15.4264Z" fill="#FFC71E" stroke="#4B371F" stroke-width="2" stroke-linecap="round"/>
</g>
<defs>
<filter id="filter0_d_32299_10201" x="1.35156" y="1.55566" width="217.938" height="61.1533" filterUnits="userSpaceOnUse" color-interpolation-filters="sRGB">
<feFlood flood-opacity="0" result="BackgroundImageFix"/>
<feColorMatrix in="SourceAlpha" type="matrix" values="0 0 0 0 0 0 0 0 0 0 0 0 0 0 0 0 0 0 127 0" result="hardAlpha"/>
<feOffset dx="6" dy="6"/>
<feComposite in2="hardAlpha" operator="out"/>
<feColorMatrix type="matrix" values="0 0 0 0 0 0 0 0 0 0 0 0 0 0 0 0 0 0 0.25 0"/>
<feBlend mode="normal" in2="BackgroundImageFix" result="effect1_dropShadow_32299_10201"/>
<feBlend mode="normal" in="SourceGraphic" in2="effect1_dropShadow_32299_10201" result="shape"/>
</filter>
</defs>
</svg>
