<svg width="802" height="705" viewBox="0 0 802 705" fill="none" xmlns="http://www.w3.org/2000/svg" xmlns:xlink="http://www.w3.org/1999/xlink">
<path d="M39.8656 593.686C40.3839 596.094 34.2808 599.45 26.234 601.182C18.1872 602.914 11.2438 602.366 10.7255 599.958C10.2073 597.55 16.3103 594.194 24.3572 592.462C32.404 590.73 39.3473 591.278 39.8656 593.686Z" fill="#E4B860" stroke="black"/>
<path d="M39.8647 593.685C39.8747 593.732 39.8823 593.779 39.8874 593.826L54.5 684.499C50.5 691.499 32 690.499 29.9991 687.499L10.7274 599.97C11.2671 602.367 18.2003 602.91 26.2331 601.181C34.1245 599.483 40.1465 596.222 39.8874 593.826L39.8647 593.685Z" fill="#AD8A44"/>
<path d="M23.5 619.999L32 661.999M39.8647 640.999L46.5 679.499M39.8647 593.685C40.383 596.093 34.2799 599.449 26.2331 601.181C18.1863 602.913 11.2429 602.365 10.7246 599.957L29.9991 687.499C32 690.499 50.5 691.499 54.5 684.499L39.8647 593.685Z" stroke="black"/>
<path d="M245.112 233.965L46.5 637.5C48.5413 644.72 21 653.229 21 646.009M245.112 233.965L272.523 153M245.112 233.965L388 153" stroke="black" stroke-linecap="square" stroke-linejoin="round"/>
<path d="M5.68047 685.984C2.88143 685.527 4.47414 692.419 6.55272 695.964C6.72314 696.255 7.0389 696.422 7.37588 696.422L35.707 696.422C35.856 696.422 36.0028 696.386 36.1414 696.331C37.8172 695.668 39.2789 696.545 39.4237 688.481C39.5622 680.766 36.6056 681.263 34.7461 682.725C34.4486 682.959 34.321 683.203 34.2073 682.842C33.5964 680.902 30.8084 673.179 26.8625 673.273C22.041 673.389 21.3594 680.275 21.4845 681.043C21.6095 681.811 17.434 670.307 11.9427 672.719C6.45134 675.132 9.26964 685.442 11.3652 690.295C10.689 689.057 8.60546 686.461 5.68047 685.984Z" fill="#71A20F" stroke="black" stroke-linejoin="round"/>
<path d="M333.688 157.578C404.909 154.631 459.127 147.054 495.556 135.568C513.768 129.826 527.569 123.097 536.826 115.452C546.091 107.801 550.835 99.2033 550.835 89.7564C550.835 80.3221 546.04 70.683 536.717 61.4099C527.393 52.1358 513.506 43.1913 495.226 35.13C458.662 19.0063 404.433 6.37718 333.7 1.74759C262.953 -2.88292 208.704 5.78454 172.119 20.9891C135.572 36.1782 116.5 57.9706 116.5 79.6627C116.5 101.36 135.324 122.31 171.742 137.078C208.195 151.86 262.44 160.527 333.688 157.578Z" fill="#FDD54C" stroke="black"/>
<path d="M333.668 157.085C476.078 151.242 550.335 127.052 550.335 90.3494C412.807 169.092 204.142 116.488 117 80.3438C117 122.726 191.257 162.927 333.668 157.085Z" fill="black" fill-opacity="0.27"/>
<path d="M494.151 7.24365L463.809 25.259C463.058 25.7049 463.203 26.8337 464.04 27.0834C488.737 34.45 505.447 41.1879 511.568 45.001C512.141 45.3577 512.919 45.1089 513.137 44.4705L525.468 8.42719C525.69 7.77824 525.208 7.10351 524.522 7.10351H494.661C494.482 7.10351 494.305 7.15192 494.151 7.24365Z" fill="#FFF5A9" stroke="black"/>
<path d="M494.151 161.58L463.809 143.564C463.058 143.118 463.203 141.99 464.04 141.74C488.737 134.373 505.447 127.635 511.568 123.822C512.141 123.466 512.919 123.714 513.137 124.353L525.468 160.396C525.69 161.045 525.208 161.72 524.522 161.72H494.661C494.482 161.72 494.305 161.671 494.151 161.58Z" fill="#FFF5A9" stroke="black"/>
<path d="M493.214 74.2916L474.801 80.4293C473.725 80.788 473.983 82.378 475.117 82.378H525.669C525.833 82.378 525.995 82.3376 526.14 82.2603L537.648 76.1226C538.567 75.6327 538.219 74.2402 537.178 74.2402H493.531C493.423 74.2402 493.316 74.2576 493.214 74.2916Z" fill="#FFF5A9" stroke="black"/>
<path d="M350.302 161.191C352.675 162.547 357.422 166.684 357.422 172.38C357.422 174.408 357.093 176.93 356.456 179.501C354.858 185.959 351.326 192.725 346.233 192.725H268.924C259.77 192.725 249.19 185.197 251.632 179.501C255.898 169.546 265.134 162.811 283.166 161.447L279.097 151.019C279.097 150.341 280.317 149.188 285.2 150.002C291.303 151.019 328.94 153.05 347.25 152.034L346.233 161.191H350.302Z" fill="#FDD54C"/>
<path d="M251.632 179.501C249.19 185.197 259.77 192.725 268.924 192.725C292.32 192.725 340.537 192.725 346.233 192.725C351.326 192.725 354.858 185.959 356.456 179.501M251.632 179.501C255.898 169.546 265.134 162.811 283.166 161.447M251.632 179.501H356.456M283.166 161.447C285.401 161.278 287.772 161.191 290.286 161.191C310.544 161.191 333.911 161.191 346.233 161.191M283.166 161.447L279.097 151.019C279.097 150.341 280.317 149.188 285.2 150.002C291.303 151.019 328.94 153.05 347.25 152.034L346.233 161.191M346.233 161.191C347.77 161.191 349.136 161.191 350.302 161.191C352.675 162.547 357.422 166.684 357.422 172.38C357.422 174.408 357.093 176.93 356.456 179.501" stroke="black"/>
<path d="M268.924 192.726H346.233C351.326 192.726 354.858 185.96 356.456 179.502H251.632C249.19 185.198 259.77 192.726 268.924 192.726Z" fill="black" fill-opacity="0.5" stroke="black"/>
<path d="M282.252 166.218C274.226 165.921 267.131 170.471 263.398 173.849C262.756 174.43 263.188 175.428 264.054 175.428H282.17C282.722 175.428 283.17 174.98 283.17 174.428V167.193C283.17 166.673 282.771 166.237 282.252 166.218Z" fill="#0F0F0F"/>
<rect x="288.252" y="165.258" width="14.2411" height="10.1722" rx="1" fill="#0F0F0F"/>
<rect x="308.598" y="165.258" width="14.2411" height="10.1722" rx="1" fill="#0F0F0F"/>
<path d="M184.502 80.2021C179.854 80.1741 176.368 79.0261 174.044 76.7581C171.748 74.4901 170.6 70.8081 170.6 65.7121C170.6 61.0921 171.72 57.4661 173.96 54.8341C176.2 52.1741 179.364 50.8441 183.452 50.8441C185.972 50.8441 188.17 51.2221 190.046 51.9781C191.922 52.7341 193.364 53.8121 194.372 55.2121C195.38 56.6121 195.884 58.2641 195.884 60.1681C195.884 61.6801 195.548 63.0241 194.876 64.2001C194.232 65.3761 193.266 66.4261 191.978 67.3501C193.014 67.5181 193.91 68.0781 194.666 69.0301C195.45 69.9821 195.842 71.0881 195.842 72.3481C195.842 73.6921 195.478 74.9661 194.75 76.1701C194.05 77.3461 192.846 78.3121 191.138 79.0681C189.458 79.8241 187.246 80.2021 184.502 80.2021ZM181.604 64.5361C182.108 64.7881 182.738 64.9141 183.494 64.9141C184.39 64.9141 185.16 64.7041 185.804 64.2841C186.476 63.8361 186.812 63.1781 186.812 62.3101C186.812 61.4701 186.476 60.8401 185.804 60.4201C185.16 59.9721 184.376 59.7481 183.452 59.7481C182.724 59.7481 182.108 59.8741 181.604 60.1261C181.212 60.2941 180.918 60.5881 180.722 61.0081C180.526 61.4281 180.428 61.8761 180.428 62.3521C180.428 62.8281 180.526 63.2761 180.722 63.6961C180.918 64.0881 181.212 64.3681 181.604 64.5361ZM181.604 74.3641C182.136 74.5881 182.766 74.7001 183.494 74.7001C184.39 74.7001 185.16 74.5181 185.804 74.1541C186.476 73.7621 186.812 73.1881 186.812 72.4321C186.812 71.7041 186.476 71.1441 185.804 70.7521C185.132 70.3601 184.348 70.1641 183.452 70.1641C182.752 70.1641 182.136 70.2761 181.604 70.5001C181.212 70.6681 180.918 70.9341 180.722 71.2981C180.526 71.6341 180.428 72.0121 180.428 72.4321C180.428 72.8521 180.526 73.2441 180.722 73.6081C180.918 73.9441 181.212 74.1961 181.604 74.3641ZM202.092 59.8741C200.72 59.8741 199.558 59.3841 198.606 58.4041C197.654 57.3961 197.178 56.1781 197.178 54.7501C197.178 53.3501 197.654 52.1601 198.606 51.1801C199.558 50.1721 200.72 49.6681 202.092 49.6681C203.436 49.6681 204.584 50.1721 205.536 51.1801C206.516 52.1601 207.006 53.3501 207.006 54.7501C207.006 56.1781 206.516 57.3961 205.536 58.4041C204.584 59.3841 203.436 59.8741 202.092 59.8741ZM202.092 80.2441C200.944 80.2441 200.09 79.9221 199.53 79.2781C198.998 78.6061 198.634 77.6121 198.438 76.2961C198.27 74.9521 198.186 73.0481 198.186 70.5841C198.186 68.5121 198.284 66.8741 198.48 65.6701C198.704 64.4661 199.096 63.5701 199.656 62.9821C200.216 62.3941 201.028 62.1001 202.092 62.1001C203.24 62.1001 204.08 62.4361 204.612 63.1081C205.172 63.7521 205.536 64.7461 205.704 66.0901C205.9 67.4061 205.998 69.2961 205.998 71.7601C205.998 73.8321 205.886 75.4701 205.662 76.6741C205.466 77.8781 205.088 78.7741 204.528 79.3621C203.968 79.9501 203.156 80.2441 202.092 80.2441ZM225.293 80.2441C224.285 80.2441 223.529 79.9641 223.025 79.4041C222.549 78.8441 222.255 78.1581 222.143 77.3461C222.031 76.5341 221.975 75.4841 221.975 74.1961C221.975 72.5441 221.751 71.2701 221.303 70.3741C220.855 69.4781 220.127 69.0301 219.119 69.0301C218.195 69.0301 217.495 69.4781 217.019 70.3741C216.571 71.2421 216.347 72.4461 216.347 73.9861C216.347 75.4701 216.305 76.5901 216.221 77.3461C216.137 78.1021 215.857 78.7741 215.381 79.3621C214.905 79.9221 214.121 80.2021 213.029 80.2021C211.433 80.2021 210.313 79.1801 209.669 77.1361C209.025 75.0641 208.703 72.6421 208.703 69.8701C208.703 63.1501 210.117 59.7901 212.945 59.7901C213.729 59.7901 214.373 59.9861 214.877 60.3781C215.381 60.7421 215.731 61.2741 215.927 61.9741C216.291 61.5821 216.851 61.2321 217.607 60.9241C218.391 60.6161 219.217 60.4621 220.085 60.4621C223.165 60.4621 225.461 61.5821 226.973 63.8221C228.513 66.0621 229.283 69.1001 229.283 72.9361C229.283 75.2041 228.989 76.9961 228.401 78.3121C227.813 79.6001 226.777 80.2441 225.293 80.2441ZM250.199 62.0581C250.199 63.5141 249.513 64.5081 248.141 65.0401C246.769 65.5441 244.893 65.8101 242.513 65.8381C242.485 66.5381 242.471 67.6721 242.471 69.2401C242.471 70.8361 242.583 71.9701 242.807 72.6421C242.947 73.1181 243.157 73.4261 243.437 73.5661C243.745 73.7061 244.193 73.8041 244.781 73.8601C244.977 73.8881 245.187 73.9301 245.411 73.9861C245.663 74.0141 245.943 74.0561 246.251 74.1121C246.895 74.2521 247.399 74.6021 247.763 75.1621C248.127 75.6941 248.309 76.3801 248.309 77.2201C248.309 78.1721 247.819 78.9141 246.839 79.4461C245.859 79.9781 244.515 80.2441 242.807 80.2441C241.239 80.2441 239.741 79.7961 238.313 78.9001C236.885 77.9761 235.905 76.7441 235.373 75.2041C234.813 73.5521 234.533 70.4301 234.533 65.8381C232.573 65.7821 230.991 65.5301 229.787 65.0821C228.611 64.6061 228.023 63.7661 228.023 62.5621C228.023 61.0501 228.583 60.0421 229.703 59.5381C230.823 59.0061 232.433 58.7261 234.533 58.6981C234.617 56.4581 234.967 54.5961 235.583 53.1121C236.199 51.6001 237.305 50.8441 238.901 50.8441C240.525 50.8441 241.575 51.5441 242.051 52.9441C242.555 54.3441 242.779 56.2621 242.723 58.6981C245.271 58.6701 247.147 58.8661 248.351 59.2861C249.583 59.7061 250.199 60.6301 250.199 62.0581ZM260.753 80.2441C258.681 80.2441 256.847 79.8381 255.251 79.0261C253.655 78.2141 252.409 77.0801 251.513 75.6241C250.645 74.1401 250.211 72.4741 250.211 70.6261C250.211 68.8061 250.645 67.1261 251.513 65.5861C252.409 64.0461 253.641 62.8141 255.209 61.8901C256.777 60.9661 258.555 60.5041 260.543 60.5041C262.335 60.5041 263.917 60.8681 265.289 61.5961C266.661 62.3241 267.711 63.2901 268.439 64.4941C269.167 65.6701 269.531 66.9021 269.531 68.1901C269.531 70.2901 268.733 71.8301 267.137 72.8101C265.569 73.7621 263.693 74.2381 261.509 74.2381C260.053 74.2381 258.821 74.0561 257.813 73.6921C258.653 75.0641 260.039 75.7501 261.971 75.7501C262.755 75.7501 263.595 75.6521 264.491 75.4561C264.827 75.3721 265.149 75.3301 265.457 75.3301C266.073 75.3301 266.563 75.4841 266.927 75.7921C267.319 76.1001 267.515 76.5201 267.515 77.0521C267.515 77.9201 266.983 78.6761 265.919 79.3201C264.855 79.9361 263.133 80.2441 260.753 80.2441ZM257.939 68.5681C258.191 68.9601 258.527 69.2541 258.947 69.4501C259.395 69.6181 259.885 69.7021 260.417 69.7021C261.033 69.7021 261.565 69.5621 262.013 69.2821C262.489 69.0021 262.727 68.6381 262.727 68.1901C262.727 67.6861 262.517 67.2521 262.097 66.8881C261.705 66.5241 261.131 66.3421 260.375 66.3421C259.619 66.3421 259.017 66.5801 258.569 67.0561C258.149 67.5041 257.939 68.0081 257.939 68.5681ZM287.391 80.2441C286.383 80.2441 285.627 79.9641 285.123 79.4041C284.647 78.8441 284.353 78.1581 284.241 77.3461C284.129 76.5341 284.073 75.4841 284.073 74.1961C284.073 72.5441 283.849 71.2701 283.401 70.3741C282.953 69.4781 282.225 69.0301 281.217 69.0301C280.293 69.0301 279.593 69.4781 279.117 70.3741C278.669 71.2421 278.445 72.4461 278.445 73.9861C278.445 75.4701 278.403 76.5901 278.319 77.3461C278.235 78.1021 277.955 78.7741 277.479 79.3621C277.003 79.9221 276.219 80.2021 275.127 80.2021C273.531 80.2021 272.411 79.1801 271.767 77.1361C271.123 75.0641 270.801 72.6421 270.801 69.8701C270.801 63.1501 272.215 59.7901 275.043 59.7901C275.827 59.7901 276.471 59.9861 276.975 60.3781C277.479 60.7421 277.829 61.2741 278.025 61.9741C278.389 61.5821 278.949 61.2321 279.705 60.9241C280.489 60.6161 281.315 60.4621 282.183 60.4621C285.263 60.4621 287.559 61.5821 289.071 63.8221C290.611 66.0621 291.381 69.1001 291.381 72.9361C291.381 75.2041 291.087 76.9961 290.499 78.3121C289.911 79.6001 288.875 80.2441 287.391 80.2441ZM312.297 62.0581C312.297 63.5141 311.611 64.5081 310.239 65.0401C308.867 65.5441 306.991 65.8101 304.611 65.8381C304.583 66.5381 304.569 67.6721 304.569 69.2401C304.569 70.8361 304.681 71.9701 304.905 72.6421C305.045 73.1181 305.255 73.4261 305.535 73.5661C305.843 73.7061 306.291 73.8041 306.879 73.8601C307.075 73.8881 307.285 73.9301 307.509 73.9861C307.761 74.0141 308.041 74.0561 308.349 74.1121C308.993 74.2521 309.497 74.6021 309.861 75.1621C310.225 75.6941 310.407 76.3801 310.407 77.2201C310.407 78.1721 309.917 78.9141 308.937 79.4461C307.957 79.9781 306.613 80.2441 304.905 80.2441C303.337 80.2441 301.839 79.7961 300.411 78.9001C298.983 77.9761 298.003 76.7441 297.471 75.2041C296.911 73.5521 296.631 70.4301 296.631 65.8381C294.671 65.7821 293.089 65.5301 291.885 65.0821C290.709 64.6061 290.121 63.7661 290.121 62.5621C290.121 61.0501 290.681 60.0421 291.801 59.5381C292.921 59.0061 294.531 58.7261 296.631 58.6981C296.715 56.4581 297.065 54.5961 297.681 53.1121C298.297 51.6001 299.403 50.8441 300.999 50.8441C302.623 50.8441 303.673 51.5441 304.149 52.9441C304.653 54.3441 304.877 56.2621 304.821 58.6981C307.369 58.6701 309.245 58.8661 310.449 59.2861C311.681 59.7061 312.297 60.6301 312.297 62.0581ZM356.686 57.1021C356.686 58.9501 355.916 60.2941 354.376 61.1341C352.864 61.9461 350.386 62.4361 346.942 62.6041C347.054 63.9481 347.11 65.6841 347.11 67.8121C347.11 70.7801 346.942 73.1601 346.606 74.9521C346.298 76.7161 345.752 78.0321 344.968 78.9001C344.184 79.7401 343.092 80.1601 341.692 80.1601C340.32 80.1601 339.27 79.7121 338.542 78.8161C337.814 77.9201 337.31 76.5901 337.03 74.8261C336.75 73.0621 336.61 70.7241 336.61 67.8121C336.61 65.8521 336.652 64.1161 336.736 62.6041C334.412 62.4921 332.536 62.2541 331.108 61.8901C329.708 61.4981 328.672 60.9241 328 60.1681C327.328 59.4121 326.992 58.3901 326.992 57.1021C326.992 55.5341 327.524 54.3021 328.588 53.4061C329.652 52.5101 331.248 51.8801 333.376 51.5161C335.504 51.1521 338.29 50.9701 341.734 50.9701C345.206 50.9701 348.02 51.1521 350.176 51.5161C352.332 51.8801 353.956 52.5101 355.048 53.4061C356.14 54.3021 356.686 55.5341 356.686 57.1021ZM359.5 80.2441C357.708 80.2441 356.504 79.1941 355.888 77.0941C355.3 74.9941 355.006 72.0961 355.006 68.4001C355.006 66.7201 355.076 65.3201 355.216 64.2001C355.384 63.0521 355.762 62.0861 356.35 61.3021C356.966 60.4901 357.904 60.0841 359.164 60.0841C359.948 60.0841 360.634 60.2661 361.222 60.6301C361.838 60.9941 362.23 61.5121 362.398 62.1841C363.014 61.6241 363.812 61.2041 364.792 60.9241C365.772 60.6441 366.822 60.5041 367.942 60.5041C368.838 60.5041 369.748 60.7281 370.672 61.1761C371.624 61.6241 372.408 62.2401 373.024 63.0241C373.668 63.7801 373.99 64.6061 373.99 65.5021C373.99 66.3981 373.668 67.1961 373.024 67.8961C372.408 68.5681 371.582 68.9041 370.546 68.9041C370.21 68.9041 369.888 68.8621 369.58 68.7781C369.3 68.6941 369.048 68.6101 368.824 68.5261C368.264 68.3021 367.816 68.1901 367.48 68.1901C366.388 68.1901 365.422 68.6241 364.582 69.4921C363.77 70.3321 363.364 71.4241 363.364 72.7681C363.364 74.2521 363.308 75.4841 363.196 76.4641C363.084 77.4441 362.748 78.3261 362.188 79.1101C361.628 79.8661 360.732 80.2441 359.5 80.2441ZM382.376 80.2441C380.192 80.2441 378.4 79.7541 377 78.7741C375.6 77.7661 374.9 76.3241 374.9 74.4481C374.9 72.8241 375.614 71.5361 377.042 70.5841C378.47 69.6321 380.248 69.1561 382.376 69.1561C383.16 69.1561 383.888 69.2261 384.56 69.3661C385.26 69.4781 385.736 69.6181 385.988 69.7861C385.988 69.0861 385.694 68.5121 385.106 68.0641C384.518 67.5881 383.622 67.3501 382.418 67.3501C381.886 67.3501 381.452 67.3921 381.116 67.4761C380.78 67.5601 380.416 67.6861 380.024 67.8541C379.632 68.0221 379.268 68.1481 378.932 68.2321C378.624 68.3161 378.204 68.3581 377.672 68.3581C376.776 68.3581 376.076 68.1341 375.572 67.6861C375.068 67.2101 374.816 66.4961 374.816 65.5441C374.816 64.4521 375.208 63.5281 375.992 62.7721C376.804 62.0161 377.812 61.4561 379.016 61.0921C380.22 60.7001 381.424 60.5041 382.628 60.5041C385.008 60.5041 386.996 60.9521 388.592 61.8481C390.216 62.7161 391.406 63.8781 392.162 65.3341C392.946 66.7901 393.338 68.4001 393.338 70.1641C393.338 71.1161 393.254 71.9981 393.086 72.8101C392.946 73.6221 392.75 74.2521 392.498 74.7001C392.89 75.0361 393.184 75.4281 393.38 75.8761C393.604 76.3241 393.716 76.7861 393.716 77.2621C393.716 78.0741 393.436 78.7741 392.876 79.3621C392.344 79.9501 391.63 80.2441 390.734 80.2441C390.062 80.2441 389.516 80.1461 389.096 79.9501C388.676 79.7541 388.228 79.4461 387.752 79.0261C387.052 79.4461 386.282 79.7541 385.442 79.9501C384.63 80.1461 383.608 80.2441 382.376 80.2441ZM383.216 76.0021C383.804 76.0021 384.266 75.8761 384.602 75.6241C384.966 75.3721 385.148 75.0641 385.148 74.7001C385.148 74.3361 384.966 74.0281 384.602 73.7761C384.266 73.5241 383.804 73.3981 383.216 73.3981C382.628 73.3981 382.152 73.5241 381.788 73.7761C381.452 74.0281 381.284 74.3361 381.284 74.7001C381.284 75.0641 381.452 75.3721 381.788 75.6241C382.152 75.8761 382.628 76.0021 383.216 76.0021ZM404.992 80.2441C403.004 80.2441 401.24 79.7681 399.7 78.8161C398.188 77.8361 397.026 76.5761 396.214 75.0361C395.402 73.4681 394.996 71.8021 394.996 70.0381C394.996 67.9661 395.416 66.2161 396.256 64.7881C397.124 63.3321 398.23 62.2541 399.574 61.5541C400.946 60.8541 402.416 60.5041 403.984 60.5041C405.552 60.5041 406.952 60.8401 408.184 61.5121C408.128 60.9241 408.016 60.2941 407.848 59.6221C407.708 58.9501 407.61 58.5301 407.554 58.3621C407.33 57.4941 407.162 56.7661 407.05 56.1781C406.938 55.5901 406.882 55.0021 406.882 54.4141C406.882 53.2381 407.232 52.3421 407.932 51.7261C408.632 51.1101 409.472 50.8021 410.452 50.8021C412.02 50.8021 413.294 51.5861 414.274 53.1541C415.254 54.7221 415.954 56.6681 416.374 58.9921C416.822 61.3161 417.046 63.6681 417.046 66.0481C417.046 69.2681 416.304 72.4461 414.82 75.5821C413.364 78.6901 410.088 80.2441 404.992 80.2441ZM405.244 73.6081C406 73.6081 406.658 73.3281 407.218 72.7681C407.778 72.1801 408.058 71.4941 408.058 70.7101C408.058 69.9261 407.778 69.2401 407.218 68.6521C406.658 68.0641 406 67.7701 405.244 67.7701C404.488 67.7701 403.816 68.0641 403.228 68.6521C402.668 69.2401 402.388 69.9261 402.388 70.7101C402.388 71.4941 402.668 72.1801 403.228 72.7681C403.816 73.3281 404.488 73.6081 405.244 73.6081ZM423.248 59.8741C421.876 59.8741 420.714 59.3841 419.762 58.4041C418.81 57.3961 418.334 56.1781 418.334 54.7501C418.334 53.3501 418.81 52.1601 419.762 51.1801C420.714 50.1721 421.876 49.6681 423.248 49.6681C424.592 49.6681 425.74 50.1721 426.692 51.1801C427.672 52.1601 428.162 53.3501 428.162 54.7501C428.162 56.1781 427.672 57.3961 426.692 58.4041C425.74 59.3841 424.592 59.8741 423.248 59.8741ZM423.248 80.2441C422.1 80.2441 421.246 79.9221 420.686 79.2781C420.154 78.6061 419.79 77.6121 419.594 76.2961C419.426 74.9521 419.342 73.0481 419.342 70.5841C419.342 68.5121 419.44 66.8741 419.636 65.6701C419.86 64.4661 420.252 63.5701 420.812 62.9821C421.372 62.3941 422.184 62.1001 423.248 62.1001C424.396 62.1001 425.236 62.4361 425.768 63.1081C426.328 63.7521 426.692 64.7461 426.86 66.0901C427.056 67.4061 427.154 69.2961 427.154 71.7601C427.154 73.8321 427.042 75.4701 426.818 76.6741C426.622 77.8781 426.244 78.7741 425.684 79.3621C425.124 79.9501 424.312 80.2441 423.248 80.2441ZM446.449 80.2441C445.441 80.2441 444.685 79.9641 444.181 79.4041C443.705 78.8441 443.411 78.1581 443.299 77.3461C443.187 76.5341 443.131 75.4841 443.131 74.1961C443.131 72.5441 442.907 71.2701 442.459 70.3741C442.011 69.4781 441.283 69.0301 440.275 69.0301C439.351 69.0301 438.651 69.4781 438.175 70.3741C437.727 71.2421 437.503 72.4461 437.503 73.9861C437.503 75.4701 437.461 76.5901 437.377 77.3461C437.293 78.1021 437.013 78.7741 436.537 79.3621C436.061 79.9221 435.277 80.2021 434.185 80.2021C432.589 80.2021 431.469 79.1801 430.825 77.1361C430.181 75.0641 429.859 72.6421 429.859 69.8701C429.859 63.1501 431.273 59.7901 434.101 59.7901C434.885 59.7901 435.529 59.9861 436.033 60.3781C436.537 60.7421 436.887 61.2741 437.083 61.9741C437.447 61.5821 438.007 61.2321 438.763 60.9241C439.547 60.6161 440.373 60.4621 441.241 60.4621C444.321 60.4621 446.617 61.5821 448.129 63.8221C449.669 66.0621 450.439 69.1001 450.439 72.9361C450.439 75.2041 450.145 76.9961 449.557 78.3121C448.969 79.6001 447.933 80.2441 446.449 80.2441ZM460.877 87.4261C459.253 87.4261 457.923 87.1181 456.887 86.5021C455.851 85.9141 455.333 85.1021 455.333 84.0661C455.333 83.1421 455.683 82.3861 456.383 81.7981C457.111 81.2381 458.021 80.9581 459.113 80.9581C459.309 80.9581 459.631 80.9861 460.079 81.0421C460.639 81.1261 461.157 81.1681 461.633 81.1681C462.837 81.1681 463.873 80.9581 464.741 80.5381C465.637 80.1461 466.183 79.6141 466.379 78.9421C465.931 79.1941 465.301 79.4041 464.489 79.5721C463.677 79.7401 462.809 79.8241 461.885 79.8241C459.505 79.8241 457.545 79.3621 456.005 78.4381C454.493 77.5141 453.401 76.3801 452.729 75.0361C452.057 73.6641 451.721 72.3201 451.721 71.0041C451.721 68.8201 452.197 66.9301 453.149 65.3341C454.129 63.7381 455.389 62.5201 456.929 61.6801C458.469 60.8401 460.079 60.4201 461.759 60.4201C462.319 60.4201 462.963 60.4621 463.691 60.5461C464.447 60.6301 465.077 60.7281 465.581 60.8401C465.805 60.0841 466.183 59.4961 466.715 59.0761C467.275 58.6561 468.101 58.4461 469.193 58.4461C471.013 58.4461 472.329 59.5801 473.141 61.8481C473.981 64.1161 474.401 66.9161 474.401 70.2481C474.401 71.8161 474.317 73.3001 474.149 74.7001C473.729 78.6481 472.343 81.7561 469.991 84.0241C467.639 86.2921 464.601 87.4261 460.877 87.4261ZM462.431 73.5241C463.299 73.5241 464.055 73.2161 464.699 72.6001C465.343 71.9561 465.665 71.2001 465.665 70.3321C465.665 69.4641 465.343 68.7081 464.699 68.0641C464.055 67.4201 463.299 67.0981 462.431 67.0981C461.563 67.0981 460.807 67.4201 460.163 68.0641C459.547 68.7081 459.239 69.4641 459.239 70.3321C459.239 71.2001 459.547 71.9561 460.163 72.6001C460.807 73.2161 461.563 73.5241 462.431 73.5241ZM246.673 118.16C243.929 118.16 241.465 117.614 239.281 116.522C237.125 115.402 235.417 113.75 234.157 111.566C232.897 109.354 232.267 106.652 232.267 103.46C232.267 100.884 232.855 98.4761 234.031 96.2361C235.207 93.9961 236.831 92.2041 238.903 90.8601C240.975 89.5161 243.299 88.8441 245.875 88.8441C248.311 88.8441 250.481 89.3061 252.385 90.2301C254.289 91.1261 255.759 92.3581 256.795 93.9261C257.859 95.4941 258.391 97.2441 258.391 99.1761C258.391 100.408 258.027 101.472 257.299 102.368C256.599 103.264 255.591 103.712 254.275 103.712C253.295 103.712 252.539 103.544 252.007 103.208C251.475 102.872 250.915 102.354 250.327 101.654C249.739 100.954 249.165 100.436 248.605 100.1C248.073 99.7361 247.289 99.5541 246.253 99.5541C244.937 99.5541 243.803 100.058 242.851 101.066C241.927 102.046 241.465 103.25 241.465 104.678C241.465 106.218 241.857 107.52 242.641 108.584C243.453 109.62 244.545 110.138 245.917 110.138C246.981 110.138 247.821 109.984 248.437 109.676C249.081 109.368 249.753 108.92 250.453 108.332C251.041 107.828 251.573 107.45 252.049 107.198C252.553 106.946 253.169 106.82 253.897 106.82C255.017 106.82 255.899 107.17 256.543 107.87C257.187 108.542 257.509 109.424 257.509 110.516C257.509 111.804 257.033 113.036 256.081 114.212C255.157 115.388 253.869 116.34 252.217 117.068C250.565 117.796 248.717 118.16 246.673 118.16ZM264.705 118.244C263.333 118.244 262.283 117.712 261.555 116.648C260.827 115.584 260.323 113.946 260.043 111.734C259.791 109.522 259.665 106.456 259.665 102.536C259.665 99.2601 259.749 96.6981 259.917 94.8501C260.113 93.0021 260.547 91.5461 261.219 90.4821C261.891 89.3901 262.941 88.8441 264.369 88.8441C265.601 88.8441 266.525 89.2361 267.141 90.0201C267.757 90.8041 268.149 91.7841 268.317 92.9601C268.485 94.1361 268.569 95.6061 268.569 97.3701V99.2601C269.129 98.9801 269.619 98.7841 270.039 98.6721C270.487 98.5601 271.145 98.5041 272.013 98.5041C273.917 98.5041 275.555 98.9941 276.927 99.9741C278.299 100.926 279.335 102.214 280.035 103.838C280.763 105.462 281.127 107.268 281.127 109.256C281.127 111.832 280.847 113.96 280.287 115.64C279.755 117.292 278.691 118.118 277.095 118.118C275.975 118.118 275.135 117.866 274.575 117.362C274.043 116.858 273.693 116.172 273.525 115.304C273.385 114.436 273.315 113.246 273.315 111.734C273.315 110.082 273.133 108.808 272.769 107.912C272.433 107.016 271.831 106.568 270.963 106.568C270.095 106.568 269.465 107.03 269.073 107.954C268.709 108.85 268.513 110.11 268.485 111.734C268.457 113.246 268.359 114.45 268.191 115.346C268.051 116.242 267.701 116.956 267.141 117.488C266.609 117.992 265.797 118.244 264.705 118.244ZM289.948 118.244C287.764 118.244 285.972 117.754 284.572 116.774C283.172 115.766 282.472 114.324 282.472 112.448C282.472 110.824 283.186 109.536 284.614 108.584C286.042 107.632 287.82 107.156 289.948 107.156C290.732 107.156 291.46 107.226 292.132 107.366C292.832 107.478 293.308 107.618 293.56 107.786C293.56 107.086 293.266 106.512 292.678 106.064C292.09 105.588 291.194 105.35 289.99 105.35C289.458 105.35 289.024 105.392 288.688 105.476C288.352 105.56 287.988 105.686 287.596 105.854C287.204 106.022 286.84 106.148 286.504 106.232C286.196 106.316 285.776 106.358 285.244 106.358C284.348 106.358 283.648 106.134 283.144 105.686C282.64 105.21 282.388 104.496 282.388 103.544C282.388 102.452 282.78 101.528 283.564 100.772C284.376 100.016 285.384 99.4561 286.588 99.0921C287.792 98.7001 288.996 98.5041 290.2 98.5041C292.58 98.5041 294.568 98.9521 296.164 99.8481C297.788 100.716 298.978 101.878 299.734 103.334C300.518 104.79 300.91 106.4 300.91 108.164C300.91 109.116 300.826 109.998 300.658 110.81C300.518 111.622 300.322 112.252 300.07 112.7C300.462 113.036 300.756 113.428 300.952 113.876C301.176 114.324 301.288 114.786 301.288 115.262C301.288 116.074 301.008 116.774 300.448 117.362C299.916 117.95 299.202 118.244 298.306 118.244C297.634 118.244 297.088 118.146 296.668 117.95C296.248 117.754 295.8 117.446 295.324 117.026C294.624 117.446 293.854 117.754 293.014 117.95C292.202 118.146 291.18 118.244 289.948 118.244ZM290.788 114.002C291.376 114.002 291.838 113.876 292.174 113.624C292.538 113.372 292.72 113.064 292.72 112.7C292.72 112.336 292.538 112.028 292.174 111.776C291.838 111.524 291.376 111.398 290.788 111.398C290.2 111.398 289.724 111.524 289.36 111.776C289.024 112.028 288.856 112.336 288.856 112.7C288.856 113.064 289.024 113.372 289.36 113.624C289.724 113.876 290.2 114.002 290.788 114.002ZM308.302 118.16C306.902 118.16 305.852 117.642 305.152 116.606C304.452 115.57 303.976 114.044 303.724 112.028C303.5 109.984 303.388 107.142 303.388 103.502C303.388 100.002 303.472 97.2721 303.64 95.3121C303.836 93.3521 304.284 91.7841 304.984 90.6081C305.712 89.4321 306.832 88.8441 308.344 88.8441C309.856 88.8441 310.962 89.4321 311.662 90.6081C312.39 91.7841 312.838 93.3521 313.006 95.3121C313.202 97.2721 313.3 100.002 313.3 103.502C313.3 106.946 313.146 109.732 312.838 111.86C312.558 113.96 312.054 115.542 311.326 116.606C310.598 117.642 309.59 118.16 308.302 118.16ZM320.319 118.16C318.919 118.16 317.869 117.642 317.169 116.606C316.469 115.57 315.993 114.044 315.741 112.028C315.517 109.984 315.405 107.142 315.405 103.502C315.405 100.002 315.489 97.2721 315.657 95.3121C315.853 93.3521 316.301 91.7841 317.001 90.6081C317.729 89.4321 318.849 88.8441 320.361 88.8441C321.873 88.8441 322.979 89.4321 323.679 90.6081C324.407 91.7841 324.855 93.3521 325.023 95.3121C325.219 97.2721 325.317 100.002 325.317 103.502C325.317 106.946 325.163 109.732 324.855 111.86C324.575 113.96 324.071 115.542 323.343 116.606C322.615 117.642 321.607 118.16 320.319 118.16ZM337.144 118.244C335.072 118.244 333.238 117.838 331.642 117.026C330.046 116.214 328.8 115.08 327.904 113.624C327.036 112.14 326.602 110.474 326.602 108.626C326.602 106.806 327.036 105.126 327.904 103.586C328.8 102.046 330.032 100.814 331.6 99.8901C333.168 98.9661 334.946 98.5041 336.934 98.5041C338.726 98.5041 340.308 98.8681 341.68 99.5961C343.052 100.324 344.102 101.29 344.83 102.494C345.558 103.67 345.922 104.902 345.922 106.19C345.922 108.29 345.124 109.83 343.528 110.81C341.96 111.762 340.084 112.238 337.9 112.238C336.444 112.238 335.212 112.056 334.204 111.692C335.044 113.064 336.43 113.75 338.362 113.75C339.146 113.75 339.986 113.652 340.882 113.456C341.218 113.372 341.54 113.33 341.848 113.33C342.464 113.33 342.954 113.484 343.318 113.792C343.71 114.1 343.906 114.52 343.906 115.052C343.906 115.92 343.374 116.676 342.31 117.32C341.246 117.936 339.524 118.244 337.144 118.244ZM334.33 106.568C334.582 106.96 334.918 107.254 335.338 107.45C335.786 107.618 336.276 107.702 336.808 107.702C337.424 107.702 337.956 107.562 338.404 107.282C338.88 107.002 339.118 106.638 339.118 106.19C339.118 105.686 338.908 105.252 338.488 104.888C338.096 104.524 337.522 104.342 336.766 104.342C336.01 104.342 335.408 104.58 334.96 105.056C334.54 105.504 334.33 106.008 334.33 106.568ZM363.782 118.244C362.774 118.244 362.018 117.964 361.514 117.404C361.038 116.844 360.744 116.158 360.632 115.346C360.52 114.534 360.464 113.484 360.464 112.196C360.464 110.544 360.24 109.27 359.792 108.374C359.344 107.478 358.616 107.03 357.608 107.03C356.684 107.03 355.984 107.478 355.508 108.374C355.06 109.242 354.836 110.446 354.836 111.986C354.836 113.47 354.794 114.59 354.71 115.346C354.626 116.102 354.346 116.774 353.87 117.362C353.394 117.922 352.61 118.202 351.518 118.202C349.922 118.202 348.802 117.18 348.158 115.136C347.514 113.064 347.192 110.642 347.192 107.87C347.192 101.15 348.606 97.7901 351.434 97.7901C352.218 97.7901 352.862 97.9861 353.366 98.3781C353.87 98.7421 354.22 99.2741 354.416 99.9741C354.78 99.5821 355.34 99.2321 356.096 98.9241C356.88 98.6161 357.706 98.4621 358.574 98.4621C361.654 98.4621 363.95 99.5821 365.462 101.822C367.002 104.062 367.772 107.1 367.772 110.936C367.772 113.204 367.478 114.996 366.89 116.312C366.302 117.6 365.266 118.244 363.782 118.244ZM378.21 125.426C376.586 125.426 375.256 125.118 374.22 124.502C373.184 123.914 372.666 123.102 372.666 122.066C372.666 121.142 373.016 120.386 373.716 119.798C374.444 119.238 375.354 118.958 376.446 118.958C376.642 118.958 376.964 118.986 377.412 119.042C377.972 119.126 378.49 119.168 378.966 119.168C380.17 119.168 381.206 118.958 382.074 118.538C382.97 118.146 383.516 117.614 383.712 116.942C383.264 117.194 382.634 117.404 381.822 117.572C381.01 117.74 380.142 117.824 379.218 117.824C376.838 117.824 374.878 117.362 373.338 116.438C371.826 115.514 370.734 114.38 370.062 113.036C369.39 111.664 369.054 110.32 369.054 109.004C369.054 106.82 369.53 104.93 370.482 103.334C371.462 101.738 372.722 100.52 374.262 99.6801C375.802 98.8401 377.412 98.4201 379.092 98.4201C379.652 98.4201 380.296 98.4621 381.024 98.5461C381.78 98.6301 382.41 98.7281 382.914 98.8401C383.138 98.0841 383.516 97.4961 384.048 97.0761C384.608 96.6561 385.434 96.4461 386.526 96.4461C388.346 96.4461 389.662 97.5801 390.474 99.8481C391.314 102.116 391.734 104.916 391.734 108.248C391.734 109.816 391.65 111.3 391.482 112.7C391.062 116.648 389.676 119.756 387.324 122.024C384.972 124.292 381.934 125.426 378.21 125.426ZM379.764 111.524C380.632 111.524 381.388 111.216 382.032 110.6C382.676 109.956 382.998 109.2 382.998 108.332C382.998 107.464 382.676 106.708 382.032 106.064C381.388 105.42 380.632 105.098 379.764 105.098C378.896 105.098 378.14 105.42 377.496 106.064C376.88 106.708 376.572 107.464 376.572 108.332C376.572 109.2 376.88 109.956 377.496 110.6C378.14 111.216 378.896 111.524 379.764 111.524ZM403.918 118.244C401.846 118.244 400.012 117.838 398.416 117.026C396.82 116.214 395.574 115.08 394.678 113.624C393.81 112.14 393.376 110.474 393.376 108.626C393.376 106.806 393.81 105.126 394.678 103.586C395.574 102.046 396.806 100.814 398.374 99.8901C399.942 98.9661 401.72 98.5041 403.708 98.5041C405.5 98.5041 407.082 98.8681 408.454 99.5961C409.826 100.324 410.876 101.29 411.604 102.494C412.332 103.67 412.696 104.902 412.696 106.19C412.696 108.29 411.898 109.83 410.302 110.81C408.734 111.762 406.858 112.238 404.674 112.238C403.218 112.238 401.986 112.056 400.978 111.692C401.818 113.064 403.204 113.75 405.136 113.75C405.92 113.75 406.76 113.652 407.656 113.456C407.992 113.372 408.314 113.33 408.622 113.33C409.238 113.33 409.728 113.484 410.092 113.792C410.484 114.1 410.68 114.52 410.68 115.052C410.68 115.92 410.148 116.676 409.084 117.32C408.02 117.936 406.298 118.244 403.918 118.244ZM401.104 106.568C401.356 106.96 401.692 107.254 402.112 107.45C402.56 107.618 403.05 107.702 403.582 107.702C404.198 107.702 404.73 107.562 405.178 107.282C405.654 107.002 405.892 106.638 405.892 106.19C405.892 105.686 405.682 105.252 405.262 104.888C404.87 104.524 404.296 104.342 403.54 104.342C402.784 104.342 402.182 104.58 401.734 105.056C401.314 105.504 401.104 106.008 401.104 106.568Z" fill="black"/>
<path d="M199.393 29.1117C221.093 19.6177 290.739 5.51222 395.716 25.0428M418.095 29.1117L438.439 33.1767" stroke="white" stroke-width="5" stroke-linecap="round"/>
<path d="M78.5151 661.158C86.1963 662.621 76.2289 673.198 71.6567 676.703L68.9135 678.989H64.3413H60.2265C59.3121 676.246 61.141 662.072 66.1703 662.529C69.5511 662.837 69.4033 665.102 68.6825 666.723C70.6962 663.214 73.8942 660.277 78.5151 661.158Z" fill="#71A20F"/>
<path d="M66.1703 673.502C66.4914 671.843 67.162 669.647 68.2296 667.559M71.6567 676.703C76.2289 673.198 86.1963 662.621 78.5151 661.158C73.531 660.208 70.2025 663.699 68.2296 667.559M68.2296 667.559C69.2196 666.035 70.1938 662.895 66.1703 662.529C61.141 662.072 59.3121 676.246 60.2265 678.989" stroke="black" stroke-linecap="round"/>
</svg>
