<svg width="520" height="54" viewBox="0 0 520 54" fill="none" xmlns="http://www.w3.org/2000/svg">
<path d="M2.18199 16.4749C-0.022892 14.27 1.53869 10.5 4.65685 10.5H56C57.933 10.5 59.5 12.067 59.5 14V50C59.5 51.933 57.933 53.5 56 53.5H4.65685C1.53869 53.5 -0.0228968 49.73 2.18198 47.5251L14.5251 35.182C16.2825 33.4246 16.2825 30.5754 14.5251 28.818L2.18199 16.4749Z" fill="#A853C0" stroke="black"/>
<path d="M517.818 16.4749C520.023 14.27 518.461 10.5 515.343 10.5H464C462.067 10.5 460.5 12.067 460.5 14V50C460.5 51.933 462.067 53.5 464 53.5H515.343C518.461 53.5 520.023 49.73 517.818 47.5251L505.475 35.182C503.718 33.4246 503.718 30.5754 505.475 28.818L517.818 16.4749Z" fill="#A853C0" stroke="black"/>
<rect x="25.5" y="0.5" width="469" height="43" rx="5.5" fill="#E588FF" stroke="black"/>
</svg>
