<svg width="301" height="489" viewBox="0 0 301 489" fill="none" xmlns="http://www.w3.org/2000/svg">
<path d="M163.765 379.837C85.7556 411.268 39.8526 391.131 26.5703 377.05C26.534 377.012 26.5039 376.974 26.4744 376.93C21.4239 369.406 17.9058 353.522 43.9667 349.652C70.1025 345.771 137.27 357.149 167.587 363.324C166.469 369.662 165.255 375.377 164.369 379.141C164.295 379.456 164.065 379.716 163.765 379.837Z" fill="#E0BE8F"/>
<path d="M170.562 336.422C170.562 344.133 169.17 354.353 167.587 363.324M167.587 363.324C166.469 369.662 165.255 375.377 164.369 379.141C164.295 379.456 164.065 379.716 163.765 379.837C85.7556 411.268 39.8526 391.131 26.5703 377.05C26.534 377.012 26.5039 376.974 26.4744 376.93C21.4239 369.406 17.9058 353.522 43.9667 349.652C70.1025 345.771 137.27 357.149 167.587 363.324Z" stroke="black"/>
<path d="M165.413 384.076C107.846 407.527 73.9584 392.487 64.1293 381.952C64.0933 381.914 64.0634 381.876 64.0343 381.832C60.3065 376.192 57.7294 364.318 76.9764 361.424C96.2975 358.518 145.952 367.037 168.364 371.66C167.549 376.336 166.666 380.558 166.014 383.378C165.941 383.692 165.712 383.954 165.413 384.076Z" fill="#9E896B"/>
<path d="M170.563 351.518C170.563 357.291 169.534 364.944 168.364 371.66M168.364 371.66C167.549 376.336 166.666 380.558 166.014 383.378C165.941 383.692 165.712 383.954 165.413 384.076C107.846 407.527 73.9584 392.487 64.1293 381.952C64.0933 381.914 64.0634 381.876 64.0343 381.832C60.3065 376.192 57.7294 364.318 76.9764 361.424C96.2975 358.518 145.952 367.037 168.364 371.66Z" stroke="black"/>
<g filter="url(#filter0_i_22057_76)">
<path d="M216.427 353.298C226.61 387.573 205.003 382.501 179.07 382.501C149.569 382.501 134.951 387.242 136.336 365.534C138.043 338.789 155.823 328.383 167.311 324.747C168.839 324.365 170.416 324.075 172.026 323.884C169.715 322.046 165.37 318.146 166.479 317.259C167.866 316.149 171.472 318.645 173.413 317.259C175.355 315.872 177.574 312.821 181.179 314.485C184.785 316.149 183.676 318.091 187.281 317.259C190.887 316.427 193.661 316.427 189.5 321.142C186.398 324.658 184.982 324.539 184.804 324.506C197.095 327.21 211.217 335.759 216.427 353.298Z" fill="#CF8D47"/>
<path d="M172.026 323.884C170.416 324.075 168.839 324.365 167.311 324.747C155.823 328.383 138.043 338.789 136.336 365.534C134.951 387.242 149.569 382.501 179.07 382.501C205.003 382.501 226.61 387.573 216.427 353.298C211.214 335.75 197.08 327.201 184.785 324.502M172.026 323.884C169.715 322.046 165.37 318.146 166.479 317.259C167.866 316.149 171.472 318.645 173.413 317.259C175.355 315.872 177.574 312.821 181.179 314.485C184.785 316.149 183.676 318.091 187.281 317.259C190.887 316.427 193.661 316.427 189.5 321.142C186.172 324.914 184.785 324.502 184.785 324.502M172.026 323.884C173.302 323.733 174.599 323.644 175.909 323.622M184.785 324.502C183.565 324.234 182.341 324.029 181.119 323.884M181.119 323.884L183.953 318.368M181.119 323.884C179.372 323.677 177.629 323.592 175.909 323.622M175.909 323.622C175.077 322.61 173.413 320.365 173.413 319.478" stroke="black" stroke-linecap="round" stroke-linejoin="round"/>
<path d="M175.078 320.863C170.375 321.451 170.632 323.161 170.917 323.914C170.917 323.914 174.245 323.637 178.129 323.637C182.537 323.637 186.45 324.746 186.45 324.746C187.004 322.25 181.734 320.031 175.078 320.863Z" fill="#D73F3F" stroke="black"/>
</g>
<g filter="url(#filter1_i_22057_76)">
<path d="M109.049 360.435C117.818 389.952 99.2112 385.583 76.8788 385.583C51.4729 385.583 38.8844 389.666 40.0776 370.972C41.5476 347.94 56.8588 338.979 66.7521 335.848C68.0682 335.519 69.4262 335.269 70.8127 335.105C68.8222 333.522 65.0801 330.163 66.0355 329.399C67.2298 328.444 70.335 330.593 72.007 329.399C73.679 328.205 75.5899 325.577 78.695 327.011C81.8002 328.444 80.8447 330.116 83.9499 329.399C87.055 328.683 89.4436 328.683 85.8608 332.743C83.1887 335.771 81.9697 335.669 81.8167 335.641C92.401 337.969 104.562 345.331 109.049 360.435Z" fill="#CF8D47"/>
<path d="M70.8127 335.105C69.4262 335.269 68.0682 335.519 66.7521 335.848C56.8588 338.979 41.5476 347.94 40.0776 370.972C38.8844 389.666 51.4729 385.583 76.8788 385.583C99.2112 385.583 117.818 389.952 109.049 360.435C104.56 345.323 92.3883 337.961 81.8002 335.637M70.8127 335.105C68.8222 333.522 65.0801 330.163 66.0355 329.399C67.2298 328.444 70.335 330.593 72.007 329.399C73.679 328.205 75.5899 325.577 78.695 327.011C81.8002 328.444 80.8447 330.116 83.9499 329.399C87.055 328.683 89.4436 328.683 85.8608 332.743C82.9945 335.992 81.8002 335.637 81.8002 335.637M70.8127 335.105C71.9117 334.975 73.0286 334.898 74.1567 334.879M81.8002 335.637C80.7491 335.406 79.6949 335.23 78.6429 335.105M78.6429 335.105L81.0836 330.355M78.6429 335.105C77.1382 334.926 75.6378 334.853 74.1567 334.879M74.1567 334.879C73.4401 334.008 72.007 332.074 72.007 331.31" stroke="black" stroke-linecap="round" stroke-linejoin="round"/>
<path d="M73.441 332.505C69.3917 333.011 69.6128 334.484 69.8579 335.132C69.8579 335.132 72.7244 334.893 76.0684 334.893C79.8644 334.893 83.2341 335.849 83.2341 335.849C83.7116 333.699 79.1734 331.788 73.441 332.505Z" fill="#D73F3F" stroke="black"/>
</g>
<g filter="url(#filter2_d_22057_76)">
<path d="M156.161 378.515C166.344 412.79 144.738 407.717 118.805 407.717C89.303 407.717 74.685 412.459 76.0705 390.751C77.7776 364.006 95.5572 353.6 107.045 349.964C108.574 349.582 110.151 349.292 111.761 349.101C109.449 347.262 105.104 343.363 106.213 342.475C107.6 341.366 111.206 343.862 113.148 342.475C115.089 341.089 117.308 338.038 120.914 339.702C124.52 341.366 123.41 343.308 127.016 342.475C130.622 341.643 133.395 341.643 129.235 346.359C126.132 349.875 124.716 349.756 124.539 349.723C136.829 352.427 150.951 360.976 156.161 378.515Z" fill="#CF8D47"/>
<path d="M111.761 349.101C110.151 349.292 108.574 349.582 107.045 349.964C95.5572 353.6 77.7776 364.006 76.0705 390.751C74.685 412.459 89.303 407.717 118.805 407.717C144.738 407.717 166.344 412.79 156.161 378.515C150.948 360.966 136.815 352.418 124.52 349.719M111.761 349.101C109.449 347.262 105.104 343.363 106.213 342.475C107.6 341.366 111.206 343.862 113.148 342.475C115.089 341.089 117.308 338.038 120.914 339.702C124.52 341.366 123.41 343.308 127.016 342.475C130.622 341.643 133.395 341.643 129.235 346.359C125.906 350.131 124.52 349.719 124.52 349.719M111.761 349.101C113.037 348.95 114.334 348.861 115.644 348.839M124.52 349.719C123.299 349.451 122.075 349.246 120.853 349.101M120.853 349.101L123.687 343.585M120.853 349.101C119.106 348.894 117.364 348.809 115.644 348.839M115.644 348.839C114.812 347.827 113.148 345.582 113.148 344.694" stroke="black" stroke-linecap="round" stroke-linejoin="round"/>
<path d="M114.812 346.08C110.11 346.668 110.367 348.378 110.651 349.131C110.651 349.131 113.98 348.853 117.863 348.853C122.271 348.853 126.184 349.963 126.184 349.963C126.738 347.467 121.469 345.248 114.812 346.08Z" fill="#D73F3F" stroke="black"/>
</g>
<path d="M26.2604 313.676C33.9328 221.007 19.6276 124.661 11.2187 86.6255C11.0804 85.9997 11.5643 85.4434 12.2051 85.4434H211.477C212.108 85.4434 212.582 86.019 212.459 86.638C194.757 176.104 195.483 274.187 198.151 313.844C198.202 314.588 197.437 315.08 196.748 314.796C125.047 285.251 55.3404 301.935 27.6753 314.689C26.9712 315.013 26.1964 314.449 26.2604 313.676Z" fill="#E6E0B9" stroke="black"/>
<path d="M9.94922 83.8003C32.0807 77.3985 82.7998 56.9551 110.061 26.0814C110.452 25.6391 111.12 25.6102 111.532 26.0325C125.828 40.6807 164.348 71.5212 210.547 83.8003" stroke="black"/>
<rect x="108.383" y="1" width="7.45716" height="385.557" rx="3.72858" fill="#4E381D" stroke="black"/>
<rect x="1" y="81.7188" width="218.333" height="3.7214" rx="1.8607" fill="#4E381D" stroke="black"/>
<path d="M112.111 123.108C132.641 114.893 179.638 88.6923 205.008 49.1231C205.397 48.5174 206.268 48.4816 206.684 49.0685C220.099 67.9941 255.781 107.386 298.54 123.108" stroke="black"/>
<rect x="201.598" y="14.3828" width="7.45716" height="321.994" rx="3.72858" fill="#4E381D" stroke="black"/>
<rect x="102.535" y="121.169" width="203.733" height="3.7214" rx="1.8607" fill="#4E381D" stroke="black"/>
<g filter="url(#filter3_d_22057_76)">
<path d="M122.613 295.181C129.564 226.138 116.576 154.443 108.845 125.755C108.673 125.117 109.161 124.52 109.821 124.52H292.716C293.365 124.52 293.842 125.127 293.689 125.757C277.556 192.457 278.164 265.46 280.592 295.32C280.65 296.042 279.941 296.554 279.255 296.324C213.425 274.245 149.437 286.691 123.958 296.239C123.255 296.502 122.538 295.928 122.613 295.181Z" fill="#FAF7E0"/>
<path d="M122.613 295.181C129.564 226.138 116.576 154.443 108.845 125.755C108.673 125.117 109.161 124.52 109.821 124.52H292.716C293.365 124.52 293.842 125.127 293.689 125.757C277.556 192.457 278.164 265.46 280.592 295.32C280.65 296.042 279.941 296.554 279.255 296.324C213.425 274.245 149.437 286.691 123.958 296.239C123.255 296.502 122.538 295.928 122.613 295.181Z" stroke="black"/>
</g>
<ellipse cx="172" cy="466" rx="117" ry="18" fill="black" fill-opacity="0.2"/>
<g filter="url(#filter4_i_22057_76)">
<path d="M170.757 336.135C198.353 318.789 258.52 276.599 278.419 246.61H291.041L314.801 293.798C314.631 312.251 312.607 340.656 307.207 368.77C306.242 373.797 305.168 378.815 303.978 383.765C302.938 388.093 301.808 392.369 300.584 396.554C298.7 402.991 296.592 409.213 294.238 415.076C288.294 429.883 280.784 442.408 271.365 450.357C253.298 465.205 170.757 487.843 67.1789 454.326C60.7877 451.682 50.1878 443.196 41.2552 426.543C39.3982 423.081 37.6133 419.265 35.9532 415.076C34.6479 411.783 33.4199 408.258 32.2947 404.492C31.0359 400.279 29.9058 395.764 28.9404 390.933C28.0477 386.465 27.2957 381.728 26.7129 376.708C39.9541 390.821 86.0383 411.107 164.446 379.355C166.55 370.534 170.757 349.542 170.757 336.135Z" fill="#97784F"/>
</g>
<path d="M28.9404 390.933C28.0477 386.465 27.2957 381.728 26.7129 376.708C39.9541 390.821 86.0383 411.107 164.446 379.355C166.55 370.534 170.757 349.542 170.757 336.135C198.353 318.789 258.52 276.599 278.419 246.61H291.041L314.801 293.798C314.631 312.251 312.607 340.656 307.207 368.77M28.9404 390.933C64.4564 406.625 164.669 420.28 281.389 349.366C285.855 354.805 297.271 366.301 307.207 368.77M28.9404 390.933C29.9058 395.764 31.0359 400.279 32.2947 404.492M307.207 368.77C306.242 373.797 305.168 378.815 303.978 383.765M32.2947 404.492C77.2113 417.575 189.319 428.748 278.419 368.77C283.331 373.18 295.32 382.353 303.978 383.765M32.2947 404.492C33.4199 408.258 34.6479 411.783 35.9532 415.076M303.978 383.765C302.938 388.093 301.808 392.369 300.584 396.554M35.9532 415.076C74.7003 428.234 177.439 441.827 278.419 390.933C279.831 393.247 286.24 397.612 300.584 396.554M35.9532 415.076C37.6133 419.265 39.3982 423.081 41.2552 426.543M300.584 396.554C298.7 402.991 296.592 409.213 294.238 415.076M41.2552 426.543C50.1878 443.196 60.7877 451.682 67.1789 454.326C170.757 487.843 253.298 465.205 271.365 450.357C280.784 442.408 288.294 429.883 294.238 415.076M41.2552 426.543C64.6226 438.156 144.027 452.121 274.706 415.076C277.97 416.987 286.446 419.663 294.238 415.076" stroke="black"/>
<path d="M278.127 247.046C257.975 276.952 198.437 318.72 170.907 336.041C170.804 336.106 170.719 336.183 170.652 336.285C169.832 337.53 168.713 341.037 169.712 346.68C169.83 347.353 170.565 347.692 171.149 347.337C198.997 330.389 257.362 290.858 278.125 262.015C278.314 261.752 278.611 261.605 278.935 261.605H290.428C290.804 261.605 291.148 261.816 291.319 262.151L312.686 304.112C313.151 305.026 314.519 304.73 314.558 303.705C314.691 300.256 314.769 297.02 314.798 294.041C314.8 293.881 314.763 293.724 314.692 293.582L291.318 247.161C291.148 246.823 290.803 246.61 290.425 246.61H278.955C278.62 246.61 278.314 246.768 278.127 247.046Z" fill="#4E381D"/>
<path d="M163.959 379.551C85.9758 410.972 40.0774 390.858 26.778 376.778C26.7326 376.73 26.6846 376.689 26.6312 376.65C23.6694 374.486 23.1234 371.179 23.0227 368.133C22.9955 367.308 23.9476 366.829 24.6258 367.3C33.9034 373.743 55.5053 384.753 83.1422 386.411C111.515 388.113 148.311 376.811 164.826 370.337C165.567 370.047 166.335 370.691 166.176 371.471C165.589 374.344 165.031 376.869 164.564 378.853C164.49 379.168 164.259 379.43 163.959 379.551Z" fill="#4E381D"/>
<path d="M278.127 247.046C257.975 276.952 198.437 318.72 170.907 336.041C170.804 336.106 170.719 336.183 170.652 336.285C169.832 337.53 168.713 341.037 169.712 346.68C169.83 347.353 170.565 347.692 171.149 347.337C198.997 330.389 257.362 290.858 278.125 262.015C278.314 261.752 278.611 261.605 278.935 261.605H290.428C290.804 261.605 291.148 261.816 291.319 262.151L312.686 304.112C313.151 305.026 314.519 304.73 314.558 303.705C314.691 300.256 314.769 297.02 314.798 294.041C314.8 293.881 314.763 293.724 314.692 293.582L291.318 247.161C291.148 246.823 290.803 246.61 290.425 246.61H278.955C278.62 246.61 278.314 246.768 278.127 247.046Z" stroke="black"/>
<path d="M163.959 379.551C85.9758 410.972 40.0774 390.858 26.778 376.778C26.7326 376.73 26.6846 376.689 26.6312 376.65C23.6694 374.486 23.1234 371.179 23.0227 368.133C22.9955 367.308 23.9476 366.829 24.6258 367.3C33.9034 373.743 55.5053 384.753 83.1422 386.411C111.515 388.113 148.311 376.811 164.826 370.337C165.567 370.047 166.335 370.691 166.176 371.471C165.589 374.344 165.031 376.869 164.564 378.853C164.49 379.168 164.259 379.43 163.959 379.551Z" stroke="black"/>
<path d="M278.047 234.697C278.027 323.565 271.79 418.846 258.974 457.603C258.834 458.026 258.991 458.483 259.398 458.666C263.911 460.694 270.911 453.879 271.736 450.799C288.834 386.979 292.265 292.411 293.262 235.483C293.266 235.259 293.193 235.042 293.053 234.867C287.93 228.426 281.356 231.411 278.371 233.972C278.16 234.153 278.047 234.419 278.047 234.697Z" fill="#4E381D" stroke="black"/>
<path opacity="0.3" d="M277 455.848C287.802 459.021 294 462.722 294 466.674C294 478.453 238.931 488.002 171 488.002C103.069 488.002 48 478.453 48 466.674C48 462.722 54.1979 459.021 65 455.848" stroke="white"/>
<path opacity="0.3" d="M77 468C80 471 100.3 477.5 157.5 479.5" stroke="white"/>
<g opacity="0.5">
<path d="M168.746 229.974C165.869 229.957 163.711 229.246 162.272 227.842C160.851 226.438 160.14 224.159 160.14 221.004C160.14 218.144 160.834 215.899 162.22 214.27C163.607 212.623 165.566 211.8 168.096 211.8C169.656 211.8 171.017 212.034 172.178 212.502C173.34 212.97 174.232 213.637 174.856 214.504C175.48 215.371 175.792 216.393 175.792 217.572C175.792 218.508 175.584 219.34 175.168 220.068C174.77 220.796 174.172 221.446 173.374 222.018C174.016 222.122 174.57 222.469 175.038 223.058C175.524 223.647 175.766 224.332 175.766 225.112C175.766 225.944 175.541 226.733 175.09 227.478C174.657 228.206 173.912 228.804 172.854 229.272C171.814 229.74 170.445 229.974 168.746 229.974ZM166.952 220.276C167.264 220.432 167.654 220.51 168.122 220.51C168.677 220.51 169.154 220.38 169.552 220.12C169.968 219.843 170.176 219.435 170.176 218.898C170.176 218.378 169.968 217.988 169.552 217.728C169.154 217.451 168.668 217.312 168.096 217.312C167.646 217.312 167.264 217.39 166.952 217.546C166.71 217.65 166.528 217.832 166.406 218.092C166.285 218.352 166.224 218.629 166.224 218.924C166.224 219.219 166.285 219.496 166.406 219.756C166.528 219.999 166.71 220.172 166.952 220.276ZM166.952 226.36C167.282 226.499 167.672 226.568 168.122 226.568C168.677 226.568 169.154 226.455 169.552 226.23C169.968 225.987 170.176 225.632 170.176 225.164C170.176 224.713 169.968 224.367 169.552 224.124C169.136 223.881 168.651 223.76 168.096 223.76C167.663 223.76 167.282 223.829 166.952 223.968C166.71 224.072 166.528 224.237 166.406 224.462C166.285 224.67 166.224 224.904 166.224 225.164C166.224 225.424 166.285 225.667 166.406 225.892C166.528 226.1 166.71 226.256 166.952 226.36ZM179.635 217.39C178.786 217.39 178.067 217.087 177.477 216.48C176.888 215.856 176.593 215.102 176.593 214.218C176.593 213.351 176.888 212.615 177.477 212.008C178.067 211.384 178.786 211.072 179.635 211.072C180.467 211.072 181.178 211.384 181.767 212.008C182.374 212.615 182.677 213.351 182.677 214.218C182.677 215.102 182.374 215.856 181.767 216.48C181.178 217.087 180.467 217.39 179.635 217.39ZM179.635 230C178.925 230 178.396 229.801 178.049 229.402C177.72 228.986 177.495 228.371 177.373 227.556C177.269 226.724 177.217 225.545 177.217 224.02C177.217 222.737 177.278 221.723 177.399 220.978C177.538 220.233 177.781 219.678 178.127 219.314C178.474 218.95 178.977 218.768 179.635 218.768C180.346 218.768 180.866 218.976 181.195 219.392C181.542 219.791 181.767 220.406 181.871 221.238C181.993 222.053 182.053 223.223 182.053 224.748C182.053 226.031 181.984 227.045 181.845 227.79C181.724 228.535 181.49 229.09 181.143 229.454C180.797 229.818 180.294 230 179.635 230ZM193.998 230C193.374 230 192.906 229.827 192.594 229.48C192.299 229.133 192.117 228.709 192.048 228.206C191.979 227.703 191.944 227.053 191.944 226.256C191.944 225.233 191.805 224.445 191.528 223.89C191.251 223.335 190.8 223.058 190.176 223.058C189.604 223.058 189.171 223.335 188.876 223.89C188.599 224.427 188.46 225.173 188.46 226.126C188.46 227.045 188.434 227.738 188.382 228.206C188.33 228.674 188.157 229.09 187.862 229.454C187.567 229.801 187.082 229.974 186.406 229.974C185.418 229.974 184.725 229.341 184.326 228.076C183.927 226.793 183.728 225.294 183.728 223.578C183.728 219.418 184.603 217.338 186.354 217.338C186.839 217.338 187.238 217.459 187.55 217.702C187.862 217.927 188.079 218.257 188.2 218.69C188.425 218.447 188.772 218.231 189.24 218.04C189.725 217.849 190.237 217.754 190.774 217.754C192.681 217.754 194.102 218.447 195.038 219.834C195.991 221.221 196.468 223.101 196.468 225.476C196.468 226.88 196.286 227.989 195.922 228.804C195.558 229.601 194.917 230 193.998 230ZM209.416 218.742C209.416 219.643 208.991 220.259 208.142 220.588C207.293 220.9 206.131 221.065 204.658 221.082C204.641 221.515 204.632 222.217 204.632 223.188C204.632 224.176 204.701 224.878 204.84 225.294C204.927 225.589 205.057 225.779 205.23 225.866C205.421 225.953 205.698 226.013 206.062 226.048C206.183 226.065 206.313 226.091 206.452 226.126C206.608 226.143 206.781 226.169 206.972 226.204C207.371 226.291 207.683 226.507 207.908 226.854C208.133 227.183 208.246 227.608 208.246 228.128C208.246 228.717 207.943 229.177 207.336 229.506C206.729 229.835 205.897 230 204.84 230C203.869 230 202.942 229.723 202.058 229.168C201.174 228.596 200.567 227.833 200.238 226.88C199.891 225.857 199.718 223.925 199.718 221.082C198.505 221.047 197.525 220.891 196.78 220.614C196.052 220.319 195.688 219.799 195.688 219.054C195.688 218.118 196.035 217.494 196.728 217.182C197.421 216.853 198.418 216.679 199.718 216.662C199.77 215.275 199.987 214.123 200.368 213.204C200.749 212.268 201.434 211.8 202.422 211.8C203.427 211.8 204.077 212.233 204.372 213.1C204.684 213.967 204.823 215.154 204.788 216.662C206.365 216.645 207.527 216.766 208.272 217.026C209.035 217.286 209.416 217.858 209.416 218.742ZM215.949 230C214.667 230 213.531 229.749 212.543 229.246C211.555 228.743 210.784 228.041 210.229 227.14C209.692 226.221 209.423 225.19 209.423 224.046C209.423 222.919 209.692 221.879 210.229 220.926C210.784 219.973 211.547 219.21 212.517 218.638C213.488 218.066 214.589 217.78 215.819 217.78C216.929 217.78 217.908 218.005 218.757 218.456C219.607 218.907 220.257 219.505 220.707 220.25C221.158 220.978 221.383 221.741 221.383 222.538C221.383 223.838 220.889 224.791 219.901 225.398C218.931 225.987 217.769 226.282 216.417 226.282C215.516 226.282 214.753 226.169 214.129 225.944C214.649 226.793 215.507 227.218 216.703 227.218C217.189 227.218 217.709 227.157 218.263 227.036C218.471 226.984 218.671 226.958 218.861 226.958C219.243 226.958 219.546 227.053 219.771 227.244C220.014 227.435 220.135 227.695 220.135 228.024C220.135 228.561 219.806 229.029 219.147 229.428C218.489 229.809 217.423 230 215.949 230ZM214.207 222.772C214.363 223.015 214.571 223.197 214.831 223.318C215.109 223.422 215.412 223.474 215.741 223.474C216.123 223.474 216.452 223.387 216.729 223.214C217.024 223.041 217.171 222.815 217.171 222.538C217.171 222.226 217.041 221.957 216.781 221.732C216.539 221.507 216.183 221.394 215.715 221.394C215.247 221.394 214.875 221.541 214.597 221.836C214.337 222.113 214.207 222.425 214.207 222.772ZM232.44 230C231.816 230 231.348 229.827 231.036 229.48C230.741 229.133 230.559 228.709 230.49 228.206C230.42 227.703 230.386 227.053 230.386 226.256C230.386 225.233 230.247 224.445 229.97 223.89C229.692 223.335 229.242 223.058 228.618 223.058C228.046 223.058 227.612 223.335 227.318 223.89C227.04 224.427 226.902 225.173 226.902 226.126C226.902 227.045 226.876 227.738 226.824 228.206C226.772 228.674 226.598 229.09 226.304 229.454C226.009 229.801 225.524 229.974 224.848 229.974C223.86 229.974 223.166 229.341 222.768 228.076C222.369 226.793 222.17 225.294 222.17 223.578C222.17 219.418 223.045 217.338 224.796 217.338C225.281 217.338 225.68 217.459 225.992 217.702C226.304 217.927 226.52 218.257 226.642 218.69C226.867 218.447 227.214 218.231 227.682 218.04C228.167 217.849 228.678 217.754 229.216 217.754C231.122 217.754 232.544 218.447 233.48 219.834C234.433 221.221 234.91 223.101 234.91 225.476C234.91 226.88 234.728 227.989 234.364 228.804C234 229.601 233.358 230 232.44 230ZM247.858 218.742C247.858 219.643 247.433 220.259 246.584 220.588C245.734 220.9 244.573 221.065 243.1 221.082C243.082 221.515 243.074 222.217 243.074 223.188C243.074 224.176 243.143 224.878 243.282 225.294C243.368 225.589 243.498 225.779 243.672 225.866C243.862 225.953 244.14 226.013 244.504 226.048C244.625 226.065 244.755 226.091 244.894 226.126C245.05 226.143 245.223 226.169 245.414 226.204C245.812 226.291 246.124 226.507 246.35 226.854C246.575 227.183 246.688 227.608 246.688 228.128C246.688 228.717 246.384 229.177 245.778 229.506C245.171 229.835 244.339 230 243.282 230C242.311 230 241.384 229.723 240.5 229.168C239.616 228.596 239.009 227.833 238.68 226.88C238.333 225.857 238.16 223.925 238.16 221.082C236.946 221.047 235.967 220.891 235.222 220.614C234.494 220.319 234.13 219.799 234.13 219.054C234.13 218.118 234.476 217.494 235.17 217.182C235.863 216.853 236.86 216.679 238.16 216.662C238.212 215.275 238.428 214.123 238.81 213.204C239.191 212.268 239.876 211.8 240.864 211.8C241.869 211.8 242.519 212.233 242.814 213.1C243.126 213.967 243.264 215.154 243.23 216.662C244.807 216.645 245.968 216.766 246.714 217.026C247.476 217.286 247.858 217.858 247.858 218.742Z" fill="black"/>
<path d="M212.132 192.692C211.589 192.912 211.114 192.318 211.387 191.799M212.132 192.692L212.319 193.156C211.826 193.355 211.345 193.178 211.067 192.84C210.795 192.508 210.709 192.014 210.944 191.566L210.945 191.566C211.439 190.626 212.116 189.244 212.814 187.532C213.485 185.889 213.694 184.663 213.655 183.658C213.616 182.655 213.329 181.831 212.94 180.981L212.927 180.952L209.741 174.415C209.741 174.415 209.741 174.415 209.741 174.415C209.723 174.379 209.693 174.352 209.655 174.339C209.617 174.326 209.576 174.328 209.54 174.346C209.54 174.346 209.54 174.346 209.54 174.346L206.166 175.992L211.387 191.799M212.132 192.692C214.592 191.7 217.797 189.76 219.42 187.585M212.132 192.692L212.32 193.156M211.387 191.799C211.888 190.847 212.572 189.45 213.277 187.721L211.387 191.799ZM219.42 187.585L212.32 193.156M219.42 187.585C221.413 184.914 223.425 179.762 221.473 174.62L219.42 187.585ZM212.32 193.156C214.817 192.148 218.119 190.165 219.821 187.884C221.876 185.129 223.973 179.798 221.941 174.443L221.933 174.422L221.923 174.401L219.59 169.614L219.59 169.614C219.573 169.578 219.57 169.537 219.583 169.5C219.596 169.462 219.624 169.431 219.659 169.414C219.659 169.414 219.659 169.414 219.659 169.414L223.035 167.77C223.035 167.77 223.035 167.769 223.035 167.769C223.035 167.769 223.035 167.769 223.035 167.769C223.24 167.67 223.41 167.512 223.525 167.315L223.093 167.063L223.525 167.315C223.64 167.119 223.694 166.892 223.68 166.665C223.666 166.438 223.585 166.22 223.447 166.038L223.049 166.341C222.971 166.239 222.865 166.162 222.743 166.12L222.906 165.648L222.905 165.647L210.359 161.324C210.071 161.225 209.755 161.244 209.481 161.378C209.207 161.511 208.997 161.748 208.898 162.037L204.574 174.582M212.32 193.156L205.573 175.603M205.573 175.603L205.506 176.098C205.28 176.067 205.069 175.97 204.898 175.819C204.728 175.668 204.606 175.47 204.548 175.25L205.032 175.123L204.548 175.25C204.491 175.03 204.5 174.797 204.574 174.582M205.573 175.603L205.506 176.098C205.732 176.129 205.961 176.092 206.166 175.992L205.573 175.603ZM204.574 174.582C204.574 174.582 204.574 174.582 204.574 174.582L205.047 174.746L204.574 174.583L204.574 174.582Z" fill="#FFAA44" stroke="black"/>
<path d="M205.59 180.59L205.922 180.215C206.092 180.366 206.214 180.565 206.272 180.785C206.33 181.005 206.321 181.238 206.246 181.453M205.59 180.59L206.246 181.453M205.59 180.59L205.922 180.215C205.751 180.064 205.54 179.967 205.314 179.937C205.089 179.906 204.859 179.943 204.654 180.043L201.28 181.689C201.28 181.689 201.28 181.689 201.28 181.689C201.244 181.706 201.203 181.709 201.165 181.696C201.128 181.683 201.097 181.656 201.079 181.62L205.59 180.59ZM206.246 181.453L201.923 193.997C201.874 194.14 201.797 194.271 201.697 194.384C201.597 194.498 201.476 194.59 201.34 194.656L201.121 194.207M206.246 181.453L201.121 194.207M201.121 194.207L201.34 194.656C201.204 194.722 201.057 194.761 200.906 194.77C200.755 194.779 200.604 194.759 200.461 194.71L187.915 190.386L187.914 190.386C187.699 190.311 187.512 190.175 187.375 189.994L187.773 189.692L187.375 189.994C187.237 189.813 187.157 189.595 187.143 189.369C187.129 189.142 187.183 188.916 187.297 188.72C187.412 188.524 187.582 188.366 187.786 188.266L187.786 188.266L191.161 186.62L191.161 186.62C191.197 186.602 191.224 186.571 191.237 186.534C191.25 186.496 191.248 186.455 191.23 186.419L188.898 181.633L188.888 181.613L188.88 181.592C186.847 176.237 188.941 170.91 190.999 168.152C192.703 165.868 196.004 163.885 198.501 162.879C198.995 162.679 199.476 162.857 199.753 163.196C200.025 163.527 200.111 164.021 199.876 164.468C199.189 165.782 198.565 167.128 198.006 168.502L198.006 168.502C197.335 170.146 197.126 171.372 197.165 172.378C197.204 173.378 197.49 174.201 197.877 175.048L201.079 181.62L201.121 194.207Z" fill="#5BFFDB" stroke="black"/>
</g>
<defs>
<filter id="filter0_i_22057_76" x="135.746" y="313.501" width="83.7539" height="69.9375" filterUnits="userSpaceOnUse" color-interpolation-filters="sRGB">
<feFlood flood-opacity="0" result="BackgroundImageFix"/>
<feBlend mode="normal" in="SourceGraphic" in2="BackgroundImageFix" result="shape"/>
<feColorMatrix in="SourceAlpha" type="matrix" values="0 0 0 0 0 0 0 0 0 0 0 0 0 0 0 0 0 0 127 0" result="hardAlpha"/>
<feOffset dx="8" dy="-10"/>
<feComposite in2="hardAlpha" operator="arithmetic" k2="-1" k3="1"/>
<feColorMatrix type="matrix" values="0 0 0 0 0 0 0 0 0 0 0 0 0 0 0 0 0 0 0.25 0"/>
<feBlend mode="normal" in2="shape" result="effect1_innerShadow_22057_76"/>
</filter>
<filter id="filter1_i_22057_76" x="39.5" y="326.094" width="72.2637" height="60.3672" filterUnits="userSpaceOnUse" color-interpolation-filters="sRGB">
<feFlood flood-opacity="0" result="BackgroundImageFix"/>
<feBlend mode="normal" in="SourceGraphic" in2="BackgroundImageFix" result="shape"/>
<feColorMatrix in="SourceAlpha" type="matrix" values="0 0 0 0 0 0 0 0 0 0 0 0 0 0 0 0 0 0 127 0" result="hardAlpha"/>
<feOffset dx="8" dy="-10"/>
<feComposite in2="hardAlpha" operator="arithmetic" k2="-1" k3="1"/>
<feColorMatrix type="matrix" values="0 0 0 0 0 0 0 0 0 0 0 0 0 0 0 0 0 0 0.25 0"/>
<feBlend mode="normal" in2="shape" result="effect1_innerShadow_22057_76"/>
</filter>
<filter id="filter2_d_22057_76" x="57.4805" y="338.718" width="101.754" height="78.9375" filterUnits="userSpaceOnUse" color-interpolation-filters="sRGB">
<feFlood flood-opacity="0" result="BackgroundImageFix"/>
<feColorMatrix in="SourceAlpha" type="matrix" values="0 0 0 0 0 0 0 0 0 0 0 0 0 0 0 0 0 0 127 0" result="hardAlpha"/>
<feOffset dx="-18" dy="9"/>
<feComposite in2="hardAlpha" operator="out"/>
<feColorMatrix type="matrix" values="0 0 0 0 0 0 0 0 0 0 0 0 0 0 0 0 0 0 0.25 0"/>
<feBlend mode="normal" in2="BackgroundImageFix" result="effect1_dropShadow_22057_76"/>
<feBlend mode="normal" in="SourceGraphic" in2="effect1_dropShadow_22057_76" result="shape"/>
</filter>
<filter id="filter3_d_22057_76" x="85.3086" y="122.02" width="208.91" height="174.859" filterUnits="userSpaceOnUse" color-interpolation-filters="sRGB">
<feFlood flood-opacity="0" result="BackgroundImageFix"/>
<feColorMatrix in="SourceAlpha" type="matrix" values="0 0 0 0 0 0 0 0 0 0 0 0 0 0 0 0 0 0 127 0" result="hardAlpha"/>
<feOffset dx="-23" dy="-2"/>
<feComposite in2="hardAlpha" operator="out"/>
<feColorMatrix type="matrix" values="0 0 0 0 0 0 0 0 0 0 0 0 0 0 0 0 0 0 0.25 0"/>
<feBlend mode="normal" in2="BackgroundImageFix" result="effect1_dropShadow_22057_76"/>
<feBlend mode="normal" in="SourceGraphic" in2="effect1_dropShadow_22057_76" result="shape"/>
</filter>
<filter id="filter4_i_22057_76" x="26.041" y="246.11" width="289.262" height="226.107" filterUnits="userSpaceOnUse" color-interpolation-filters="sRGB">
<feFlood flood-opacity="0" result="BackgroundImageFix"/>
<feBlend mode="normal" in="SourceGraphic" in2="BackgroundImageFix" result="shape"/>
<feColorMatrix in="SourceAlpha" type="matrix" values="0 0 0 0 0 0 0 0 0 0 0 0 0 0 0 0 0 0 127 0" result="hardAlpha"/>
<feOffset dy="-17"/>
<feComposite in2="hardAlpha" operator="arithmetic" k2="-1" k3="1"/>
<feColorMatrix type="matrix" values="0 0 0 0 0 0 0 0 0 0 0 0 0 0 0 0 0 0 0.25 0"/>
<feBlend mode="normal" in2="shape" result="effect1_innerShadow_22057_76"/>
</filter>
</defs>
</svg>
