<svg width="310" height="285" viewBox="0 0 310 285" fill="none" xmlns="http://www.w3.org/2000/svg">
  <ellipse cx="254.5" cy="228" rx="55.5" ry="13" fill="black" fill-opacity="0.2"/>
  <path d="M187.612 238.226C180.122 232.918 243.785 75.6968 248.192 75.6968C252.599 75.6968 251.496 79.0113 271.323 132.556C292.158 188.821 308.773 236.33 298.309 236.33C289.938 236.33 281.237 224.642 277.932 218.798C278.667 224.642 278.373 236.33 271.323 236.33C264.274 236.33 260.309 223.062 259.207 216.428C258.84 226.379 256.233 246.092 248.743 245.333C241.253 244.575 234.608 228.907 232.221 221.167C229.284 226.853 221.978 237.847 216.25 236.33C210.522 234.814 213.864 219.587 216.25 212.164C209.825 223.062 195.102 243.533 187.612 238.226Z" fill="#1C4B51" stroke="black"/>
  <g filter="url(#filter0_d_22057_76)">
    <path d="M187.612 182.316C180.122 177.925 243.785 47.8491 248.192 47.8491C252.599 47.8491 251.496 50.5914 271.323 94.8915C292.158 141.442 308.773 180.748 298.309 180.748C289.938 180.748 281.237 171.078 277.932 166.243C278.667 171.078 278.373 180.748 271.323 180.748C264.274 180.748 260.309 169.771 259.207 164.282C258.84 172.515 256.233 188.824 248.743 188.197C241.253 187.569 234.608 174.606 232.221 168.203C229.284 172.907 221.978 182.002 216.25 180.748C210.522 179.493 213.864 166.896 216.25 160.754C209.825 169.771 195.102 186.707 187.612 182.316Z" fill="#1C4B51"/>
    <path d="M187.612 182.316C180.122 177.925 243.785 47.8491 248.192 47.8491C252.599 47.8491 251.496 50.5914 271.323 94.8915C292.158 141.442 308.773 180.748 298.309 180.748C289.938 180.748 281.237 171.078 277.932 166.243C278.667 171.078 278.373 180.748 271.323 180.748C264.274 180.748 260.309 169.771 259.207 164.282C258.84 172.515 256.233 188.824 248.743 188.197C241.253 187.569 234.608 174.606 232.221 168.203C229.284 172.907 221.978 182.002 216.25 180.748C210.522 179.493 213.864 166.896 216.25 160.754C209.825 169.771 195.102 186.707 187.612 182.316Z" stroke="black"/>
  </g>
  <g filter="url(#filter1_d_22057_76)">
    <circle cx="273.544" cy="69.8081" r="6.45852" fill="#FFF5A9"/>
    <circle cx="273.544" cy="69.8081" r="5.95852" stroke="black"/>
  </g>
  <g filter="url(#filter2_d_22057_76)">
    <path d="M201.383 125.507C195.189 121.15 235.51 52.4671 240.996 42.408C246.482 32.349 252.884 25.0292 265.538 58.9578C282.77 105.159 293.999 125.507 285.344 125.507C278.421 125.507 276.39 108.517 273.657 103.718C274.264 108.517 274.021 118.115 268.191 118.115C262.361 118.115 259.081 107.22 258.17 101.772C257.866 109.943 255.71 126.13 249.516 125.507C243.321 124.885 237.824 112.019 235.851 105.663C233.421 110.333 227.378 119.36 222.641 118.115C217.904 116.869 221.799 106.63 223.773 100.535C218.459 109.484 207.578 129.865 201.383 125.507Z" fill="#2B646B"/>
    <path d="M201.383 125.507C195.189 121.15 235.51 52.4671 240.996 42.408C246.482 32.349 252.884 25.0292 265.538 58.9578C282.77 105.159 293.999 125.507 285.344 125.507C278.421 125.507 276.39 108.517 273.657 103.718C274.264 108.517 274.021 118.115 268.191 118.115C262.361 118.115 259.081 107.22 258.17 101.772C257.866 109.943 255.71 126.13 249.516 125.507C243.321 124.885 237.824 112.019 235.851 105.663C233.421 110.333 227.378 119.36 222.641 118.115C217.904 116.869 221.799 106.63 223.773 100.535C218.459 109.484 207.578 129.865 201.383 125.507Z" stroke="black"/>
  </g>
  <g filter="url(#filter3_d_22057_76)">
    <path d="M249.5 11L252.842 22.7111L264.655 19.75L256.184 28.5L264.655 37.25L252.842 34.2889L249.5 46L246.158 34.2889L234.345 37.25L242.816 28.5L234.345 19.75L246.158 22.7111L249.5 11Z" fill="#FFF5A9"/>
    <path d="M249.981 10.8628C249.92 10.6481 249.723 10.5 249.5 10.5C249.277 10.5 249.08 10.6481 249.019 10.8628L245.81 22.1084L234.466 19.265C234.25 19.2107 234.023 19.3066 233.912 19.5C233.8 19.6934 233.83 19.9373 233.985 20.0978L242.12 28.5L233.985 36.9022C233.83 37.0627 233.8 37.3066 233.912 37.5C234.023 37.6934 234.25 37.7893 234.466 37.735L245.81 34.8916L249.019 46.1372C249.08 46.3519 249.277 46.5 249.5 46.5C249.723 46.5 249.92 46.3519 249.981 46.1372L253.19 34.8916L264.534 37.735C264.75 37.7893 264.977 37.6934 265.088 37.5C265.2 37.3066 265.17 37.0627 265.015 36.9022L256.88 28.5L265.015 20.0978C265.17 19.9373 265.2 19.6934 265.088 19.5C264.977 19.3066 264.75 19.2107 264.534 19.265L253.19 22.1084L249.981 10.8628Z" stroke="black" stroke-linejoin="round"/>
  </g>
  <g filter="url(#filter4_d_22057_76)">
    <circle cx="231.349" cy="60.3355" r="6.45852" fill="#FFF5A9"/>
    <circle cx="231.349" cy="60.3355" r="5.95852" stroke="black"/>
  </g>
  <g filter="url(#filter5_d_22057_76)">
    <circle cx="259.767" cy="93.9199" r="6.45852" fill="#FFF5A9"/>
    <circle cx="259.767" cy="93.9199" r="5.95852" stroke="black"/>
  </g>
  <circle cx="240.459" cy="136.459" r="5.95852" fill="#FFF5A9" stroke="black"/>
  <g filter="url(#filter6_d_22057_76)">
    <circle cx="284.459" cy="159.459" r="6.45852" fill="#FFF5A9"/>
    <circle cx="284.459" cy="159.459" r="5.95852" stroke="black"/>
  </g>
  <g filter="url(#filter7_b_22057_76)">
    <rect y="190" width="139" height="57" rx="28.5" fill="black" fill-opacity="0.6"/>
  </g>
  <ellipse cx="196" cy="254" rx="106" ry="15" fill="black" fill-opacity="0.2"/>
  <mask id="mask0_22057_76" style="mask-type:alpha" maskUnits="userSpaceOnUse" x="113" y="58" width="138" height="129">
    <rect x="113.43" y="58.4292" width="136.619" height="127.571" fill="#D9D9D9"/>
  </mask>
  <g mask="url(#mask0_22057_76)">
    <path d="M172.019 60.1717C162.956 60.1717 155.096 64.3675 152.299 66.4654C150.76 65.3465 145.752 63.1087 142.383 67.4761C138.233 72.8581 142.383 77.4285 145.752 83.2485C144.689 87.1412 144.327 93.5473 144.327 102.13C142.428 111.771 136.916 135.004 130.061 150.801C129.497 152.35 129.017 153.852 128.571 155.416C126.362 163.169 125.017 172.443 118.732 196.535C111.18 225.485 124.187 251.499 126.285 264.926C128.383 278.352 117.893 280.87 116.215 288.002C114.537 295.135 145.166 293.037 149.781 290.1C154.396 287.163 151.879 254.856 168.243 258.632C181.333 261.653 186.284 281.709 187.124 291.359C197.193 292.898 217.501 294.296 218.172 287.583C219.011 279.191 212.298 281.289 215.235 259.471C218.172 237.653 226.144 230.94 224.886 212.478C223.627 194.017 218.592 170.94 219.851 158.353C221.109 145.766 234.536 126.465 240.829 116.815C247.123 107.164 247.962 95.8359 246.704 93.738C245.697 92.0597 243.767 92.4792 242.927 92.8988C243.347 91.3604 243.934 88.1156 242.927 87.4443C241.92 86.773 240.55 87.724 239.99 88.2835C240.13 87.1646 240.074 84.759 238.732 84.0877C237.389 83.4164 235.934 84.9268 235.375 85.766C235.375 84.9268 234.871 83.0807 232.857 82.4094C230.844 81.7381 228.941 86.3254 228.242 88.703C228.242 88.4233 227.823 87.8639 226.144 87.8639C224.046 87.8639 223.627 90.8009 223.627 92.8988C223.627 94.9967 224.046 96.2554 221.109 102.969C218.76 108.339 213.137 114.437 210.62 116.815C209.781 108.843 205.165 103.388 201.809 91.6401C199.123 82.2415 195.375 75.1367 193.837 72.7591C195.235 70.6612 197.764 64.1154 194.407 60.1716C191.051 56.2278 184.886 59.8923 182.508 61.5356C180.503 60.8075 177.183 60.1717 172.019 60.1717Z" fill="white"/>
    <path d="M185.026 63.1087C184.785 62.6876 184.022 62.0853 182.508 61.5356M182.508 61.5356C180.503 60.8075 177.183 60.1717 172.019 60.1717C162.956 60.1717 155.096 64.3675 152.299 66.4654C150.76 65.3465 145.752 63.1087 142.383 67.4761C138.233 72.8581 142.383 77.4285 145.752 83.2485M182.508 61.5356C184.886 59.8923 191.051 56.2278 194.407 60.1716C197.764 64.1154 195.235 70.6612 193.837 72.7591M193.837 72.7591L192.598 71.0951M193.837 72.7591C195.375 75.1367 199.123 82.2415 201.809 91.6401C205.165 103.388 209.781 108.843 210.62 116.815M210.62 116.815C208.802 119.053 204.83 124.283 203.487 127.304M210.62 116.815C213.137 114.437 218.76 108.339 221.109 102.969C224.046 96.2554 223.627 94.9967 223.627 92.8988C223.627 90.8009 224.046 87.8639 226.144 87.8639C227.823 87.8639 228.242 88.4233 228.242 88.703C228.941 86.3254 230.844 81.7381 232.857 82.4094C234.871 83.0807 235.375 84.9268 235.375 85.766C235.934 84.9268 237.389 83.4164 238.732 84.0877C240.074 84.759 240.13 87.1646 239.99 88.2835C240.55 87.724 241.92 86.773 242.927 87.4443C243.934 88.1156 243.347 91.3604 242.927 92.8988C243.766 92.4792 245.697 92.0597 246.704 93.738C247.962 95.8359 247.123 107.164 240.829 116.815C234.536 126.465 221.109 145.766 219.851 158.353C218.592 170.94 223.627 194.017 224.886 212.478C226.144 230.94 218.172 237.653 215.235 259.471C212.298 281.289 219.011 279.191 218.172 287.583C217.501 294.296 197.193 292.898 187.124 291.359C186.284 281.709 181.333 261.653 168.243 258.632C151.879 254.856 154.396 287.163 149.781 290.1C145.166 293.037 114.537 295.135 116.215 288.002C117.893 280.87 128.383 278.352 126.285 264.926C124.187 251.499 111.18 225.485 118.732 196.535C125.017 172.443 126.362 163.169 128.571 155.416C129.017 153.852 129.497 152.35 130.061 150.801C136.916 135.004 142.428 111.771 144.327 102.13C144.327 93.5473 144.689 87.1412 145.752 83.2485M146.005 82.4094C145.916 82.6747 145.832 82.9544 145.752 83.2485M193.837 282.548C196.914 280.87 204.578 278.52 210.62 282.548M126.285 280.03C128.467 279.191 134.123 278.017 139.292 280.03" stroke="black" stroke-width="2" stroke-linecap="round" stroke-linejoin="round"/>
    <path d="M150.073 72.4523C149.711 71.3666 147.509 69.8888 146.454 69.2856C143.558 70.3714 146.755 75.1666 148.716 77.4285C149.319 76.2222 150.435 73.538 150.073 72.4523Z" fill="#D5DDDD"/>
    <path d="M188.072 65.6669C187.71 64.5812 191.159 62.651 192.214 62.0479C195.11 63.1336 193.199 67.9288 191.239 70.1907C190.636 68.9844 188.525 67.024 188.072 65.6669Z" fill="#D5DDDD"/>
    <ellipse cx="236.477" cy="97.7857" rx="4.52381" ry="6.78571" fill="#FFB4AF"/>
    <ellipse cx="227.881" cy="91.9047" rx="1.35714" ry="1.80952" fill="#FFB4AF"/>
    <ellipse cx="233.31" cy="87.3808" rx="1.35714" ry="1.80952" fill="#FFB4AF"/>
    <ellipse cx="238.284" cy="87.8332" rx="0.904762" ry="1.35714" fill="#FFB4AF"/>
    <circle cx="244.62" cy="96.4287" r="0.904762" fill="#FFB4AF"/>
    <circle cx="240.999" cy="91" r="0.904762" fill="#FFB4AF"/>
  </g>
  <path d="M183.249 78.0331C182.905 79.282 181.414 78.9724 179.957 78.5713C178.5 78.1701 177.159 77.0363 177.348 76.3472C177.692 75.0984 179.685 74.2604 181.141 74.6615C182.598 75.0626 183.593 76.7843 183.249 78.0331Z" fill="black"/>
  <path d="M156.316 81.6064C156.927 82.7484 158.313 82.1172 159.646 81.4043C160.978 80.6913 162.036 79.2893 161.699 78.6591C161.088 77.5171 158.959 77.1397 157.627 77.8527C156.295 78.5656 155.705 80.4643 156.316 81.6064Z" fill="black"/>
  <path d="M170.089 77.9771C164.486 78.3411 161.487 79.5568 160.303 85.77L160.303 85.77C159.119 91.9832 158.329 96.1255 160.801 97.6698C164.263 99.8317 166.045 99.7188 168.681 99.6092C171.731 99.4824 182.42 99.1899 181.464 90.8762C180.076 78.8066 175.692 77.6132 170.089 77.9771Z" fill="#D5DDDD"/>
  <path d="M168.312 79.2768C165.202 79.9683 163.647 80.8314 163.647 83.941V83.941C163.647 87.0505 163.647 89.1236 165.202 89.6418C167.378 90.3673 168.368 90.1487 169.838 89.8531C171.538 89.5111 177.514 88.3859 176.086 84.459C174.013 78.7581 171.421 78.5852 168.312 79.2768Z" fill="black"/>
  <path d="M169.838 89.8531C171.538 89.5111 177.514 88.3859 176.086 84.459C174.013 78.7581 171.421 78.5852 168.312 79.2768C165.202 79.9683 163.647 80.8314 163.647 83.941C163.647 87.0505 163.647 89.1236 165.202 89.6418C167.378 90.3673 168.368 90.1487 169.838 89.8531ZM169.838 89.8531C169.838 90.3049 169.768 90.8923 169.591 91.5246M163.129 96.3793C167.275 96.3793 169.111 93.2413 169.591 91.5246M169.591 91.5246C170.955 92.8064 176.085 95.3427 179.713 92.7514" stroke="black" stroke-linecap="round" stroke-linejoin="round"/>
  <path d="M169.867 97.9299C169.216 97.1005 168.457 96.0309 167.793 94.824L169.866 91.9487L171.939 92.9853L174.012 94.0218C173.77 95.3112 173.19 96.6382 172.64 97.6871C172.064 98.7856 170.633 98.9055 169.867 97.9299Z" fill="#B86F6F" stroke="black" stroke-linecap="round" stroke-linejoin="round"/>
  <circle cx="185.429" cy="42.403" r="4.98756" transform="rotate(8.03681 185.429 42.403)" fill="white" stroke="black" stroke-width="2" stroke-linejoin="round"/>
  <path d="M181.907 44.6534C177.293 46.1998 168.244 54.9352 164.297 59.1096C171.718 61.6838 186.778 66.5882 187.648 65.6121C188.736 64.392 187.675 42.7203 181.907 44.6534Z" fill="#DA6254" stroke="black" stroke-width="2" stroke-linejoin="round"/>
  <path d="M159.433 64.3758C156.919 64.0208 157.695 60.4672 158.398 58.7347C163.199 53.9177 189.825 63.1721 192.265 65.3483C194.706 67.5245 196.322 75.5372 185.541 70.8097C174.761 66.0822 162.576 64.8195 159.433 64.3758Z" fill="white" stroke="black" stroke-width="2" stroke-linejoin="round"/>
  <path d="M264.823 242.689C246.681 236.96 221.855 240.302 211.71 242.689L200.968 251.641C206.339 250.646 222.332 248.418 243.339 247.463C269.597 246.27 264.823 257.012 264.823 267.754C264.823 276.347 275.167 282.474 280.339 284.463L306 279.092C254.677 270.738 287.5 249.85 264.823 242.689Z" fill="#BA4E3A" stroke="black" stroke-linejoin="round"/>
  <path d="M106.331 258.329C125.139 257.968 131.047 249.446 131.65 245.23C136.271 243.875 144.791 242.972 141.898 250.199C138.281 259.233 131.65 262.846 112.36 266.008C96.9273 268.538 98.2938 272.483 100.906 274.139H84.0272C83.6253 269.02 87.5235 258.691 106.331 258.329Z" fill="#BA4E3A" stroke="black" stroke-linejoin="round"/>
  <path d="M109.142 155.084L108.482 155.254L108.398 155.93C106.471 171.499 104.158 194.951 103.483 214.709C103.145 224.58 103.215 233.571 103.958 240.206C104.328 243.515 104.871 246.3 105.645 248.332C106.387 250.278 107.493 251.922 109.232 252.2C112.197 252.675 121.397 253.166 133.558 253.577C145.758 253.988 161.024 254.32 176.189 254.465C191.352 254.609 206.423 254.566 218.228 254.226C224.129 254.056 229.226 253.812 233.116 253.479C235.06 253.312 236.717 253.122 238.028 252.905C239.304 252.694 240.361 252.441 241.029 252.107C241.855 251.694 242.448 250.84 242.901 249.888C243.369 248.902 243.768 247.635 244.113 246.158C244.804 243.199 245.312 239.245 245.671 234.668C246.389 225.505 246.519 213.703 246.258 202.052C245.998 190.398 245.347 178.867 244.5 170.239C244.077 165.93 243.602 162.321 243.097 159.777C242.846 158.512 242.579 157.466 242.291 156.717C242.15 156.349 241.981 155.994 241.77 155.713C241.583 155.464 241.194 155.053 240.581 155.053C239.993 155.053 237.306 154.96 233.073 154.815C222.365 154.446 201.764 153.736 180.202 153.321C165.184 153.032 149.724 152.888 136.888 153.104C130.47 153.213 124.699 153.412 119.963 153.729C115.247 154.045 111.491 154.482 109.142 155.084Z" fill="#E86348" stroke="black" stroke-width="2"/>
  <path d="M109.145 155.084L108.484 155.254L108.401 155.93C106.471 171.521 107.982 180.699 111.366 185.66C113.084 188.178 115.275 189.592 117.67 190.175C120.04 190.75 122.54 190.496 124.896 189.811C131.139 187.995 134.447 188.641 136.414 190.24C138.466 191.908 139.395 194.838 140.273 198.496C140.382 198.95 140.49 199.414 140.6 199.885C141.342 203.075 142.16 206.593 143.89 209.558C145.932 213.056 149.224 215.779 154.957 216.632C160.778 217.499 164.968 215.3 168.161 211.678C171.296 208.122 173.502 203.163 175.486 198.418C175.703 197.9 175.917 197.385 176.128 196.875C177.893 192.625 179.53 188.682 181.57 185.898C182.7 184.357 183.899 183.251 185.232 182.646C186.542 182.052 188.067 181.902 189.944 182.423C196.194 184.159 200.427 188.648 204.532 193C204.607 193.079 204.682 193.158 204.756 193.238C208.824 197.549 212.94 201.861 218.851 201.861C222.59 201.861 225.21 200.002 227.225 197.685C228.225 196.535 229.091 195.256 229.881 194.018C230.154 193.591 230.415 193.174 230.668 192.768C231.165 191.973 231.636 191.22 232.121 190.514C233.621 188.33 234.881 187.198 236.397 187.245C237.183 187.269 238.188 187.608 239.493 188.544C240.799 189.48 242.344 190.969 244.194 193.187L246.08 195.449L245.961 192.506C245.564 182.702 244.916 173.552 244.141 166.843C243.754 163.494 243.333 160.725 242.888 158.779C242.667 157.814 242.43 157.002 242.169 156.413C242.04 156.122 241.88 155.828 241.675 155.592C241.479 155.367 241.116 155.053 240.584 155.053C239.995 155.053 237.309 154.96 233.076 154.815C222.368 154.446 201.767 153.736 180.205 153.321C165.187 153.032 149.727 152.888 136.89 153.104C130.473 153.213 124.702 153.412 119.965 153.729C115.249 154.045 111.494 154.482 109.145 155.084Z" fill="white" stroke="black" stroke-width="2"/>
  <path d="M218.851 200.862C232.247 200.862 229.938 174.531 244.962 192.547C244.806 188.713 244.613 184.982 244.388 181.46C243.12 178.996 237.808 174.993 226.704 178.688C212.824 183.308 204.993 178.688 190.212 174.069C175.43 169.45 165.728 185.156 162.032 188.851C158.337 192.547 155.104 171.297 138.011 178.688C124.337 184.601 112.718 176.225 108.617 171.297C109.423 188.57 117.378 190.957 124.616 188.851C150.022 181.46 133.393 212.41 155.104 215.644C176.815 218.877 173.582 176.841 190.212 181.46C203.564 185.169 208.037 200.862 218.851 200.862Z" fill="#A1BFDA"/>
  <path d="M188.058 198.742L188.8 215.075C188.816 215.428 188.646 215.762 188.352 215.956L175.127 224.665C174.177 225.291 174.842 226.764 175.94 226.465L188.744 222.973C189.438 222.784 190.099 223.367 189.997 224.079L188.541 234.271C188.389 235.331 189.784 235.856 190.368 234.959L193.976 229.428C194.375 228.816 195.274 228.824 195.662 229.444L203.873 242.582C204.446 243.499 205.864 242.981 205.711 241.911L203.275 224.86C203.202 224.349 203.53 223.866 204.032 223.746L212.148 221.798C213.041 221.583 213.197 220.38 212.389 219.945L203.574 215.198C203.084 214.935 202.904 214.322 203.173 213.835L208.559 204.071C209.03 203.218 208.127 202.264 207.249 202.688L197.443 207.421C197.003 207.634 196.473 207.497 196.191 207.096L189.875 198.121C189.299 197.303 188.013 197.743 188.058 198.742Z" fill="#FFC85A"/>
  <path d="M145.196 216.047L135.765 216.473C135.196 216.498 134.72 216.044 134.72 215.474L134.72 211.272C134.72 210.185 133.23 209.878 132.801 210.878L130.278 216.759C130.1 217.175 129.665 217.419 129.218 217.355L123.397 216.529C122.336 216.378 121.813 217.775 122.712 218.358L124.858 219.749C125.473 220.147 125.465 221.051 124.842 221.437L117.567 225.956C116.647 226.527 117.163 227.948 118.235 227.796L127.6 226.466C128.291 226.368 128.867 226.99 128.717 227.671L127.272 234.243C127.036 235.313 128.447 235.928 129.071 235.027L134.84 226.69C135.131 226.269 135.694 226.136 136.143 226.382L141.774 229.47C142.628 229.938 143.58 229.032 143.154 228.156L140.47 222.631C140.255 222.188 140.393 221.656 140.796 221.374L145.814 217.865C146.635 217.291 146.196 216.001 145.196 216.047Z" fill="#FFC85A"/>
  <path d="M160.227 245.712L156.882 251.565C156.501 252.232 156.983 253.061 157.751 253.061H162.21C162.837 253.061 163.31 252.49 163.192 251.874L162.077 246.021C161.904 245.108 160.688 244.905 160.227 245.712Z" fill="#FFC85A"/>
  <circle cx="161.57" cy="227.654" r="1.84776" fill="#FFC85A"/>
  <circle cx="234.097" cy="209.638" r="3.23359" fill="#FFC85A"/>
  <circle cx="113.991" cy="200.4" r="3.23359" fill="#FFC85A"/>
  <path d="M242.894 230L244.589 232.967C244.675 233.118 244.721 233.288 244.718 233.462C244.68 235.564 244.215 239.889 243.904 242.486C243.844 242.986 243.418 243.36 242.914 243.36H230.398C229.322 243.36 229.005 241.895 229.984 241.45L240.439 236.698C240.796 236.535 241.025 236.179 241.025 235.787V230.496C241.025 229.471 242.385 229.11 242.894 230Z" fill="#FFC85A"/>
  <path d="M240.584 251.214C232.269 255.372 120.941 253.062 109.393 251.214C106.422 250.739 104.964 243.948 104.48 233.917C144.611 236.535 228.842 240.199 244.728 233.917C244.025 243.388 242.713 250.149 240.584 251.214Z" fill="black" fill-opacity="0.2"/>
  <path d="M109.918 180.171C109.638 181.99 110.002 185.206 113.694 183.528C115.673 180.32 121.094 172.393 126.943 166.351C134.253 158.798 144.323 109.237 144.323 102.13L134.253 123.109C126.197 129.802 111.316 144.359 104.883 150.801C93.1346 164.647 94.8129 174.717 95.6521 176.815C96.3234 178.493 97.61 177.514 98.1694 176.815C97.4701 177.934 96.4911 180.507 98.1694 181.85C99.8477 183.192 101.106 181.29 101.526 180.171C101.246 181.29 101.358 183.696 104.044 184.367C106.729 185.038 109.079 181.85 109.918 180.171Z" fill="white"/>
  <path d="M144.323 102.13L134.253 123.109C126.197 129.802 111.316 144.359 104.883 150.801C93.1346 164.647 94.8129 174.717 95.6521 176.815C96.3234 178.493 97.61 177.514 98.1694 176.815C97.4701 177.934 96.4911 180.507 98.1694 181.85C99.8477 183.192 101.106 181.29 101.526 180.171C101.246 181.29 101.358 183.696 104.044 184.367C106.729 185.038 109.079 181.85 109.918 180.171C109.638 181.99 110.002 185.206 113.694 183.528C115.673 180.32 121.094 172.393 126.943 166.351C129.261 161.572 132.832 152.335 136.047 145.286" stroke="black" stroke-width="2" stroke-linejoin="round"/>
  <mask id="path-53-outside-1_22057_76" maskUnits="userSpaceOnUse" x="96.19" y="57.4835" width="21.3625" height="21.8934" fill="black">
    <rect fill="white" x="96.19" y="57.4835" width="21.3625" height="21.8934"/>
    <path d="M102.068 61.9245C102.359 61.2369 102.822 60.8104 103.457 60.6448C104.097 60.467 104.906 60.5055 105.884 60.7604C106.85 61.0101 108.088 61.4547 109.598 62.0942C111.108 62.7337 112.289 63.3134 113.14 63.8332C113.979 64.3478 114.554 64.8881 114.865 65.454C115.175 66.0199 115.182 66.6528 114.886 67.3526C114.532 68.1875 113.927 68.626 113.069 68.6683C112.211 68.7105 111.021 68.4451 109.497 67.8722C109.348 68.258 109.089 68.8868 108.72 69.7585L108.314 70.7162C109.781 71.4242 110.797 72.1008 111.364 72.7462C111.93 73.3915 112.037 74.1316 111.683 74.9665C111.387 75.6663 110.928 76.1016 110.305 76.2724C109.683 76.4432 108.895 76.4063 107.941 76.1618C106.98 75.8998 105.739 75.4465 104.217 74.8018C102.694 74.157 101.505 73.5809 100.648 73.0734C99.7966 72.5536 99.2157 72.0107 98.9051 71.4448C98.5822 70.8737 98.569 70.2382 98.8654 69.5384C99.1201 68.9368 99.5106 68.5447 100.037 68.3621C100.551 68.1743 101.192 68.1636 101.962 68.3301C102.724 68.4792 103.671 68.7718 104.804 69.2081L105.358 67.9006C105.644 67.2253 105.861 66.7306 106.008 66.4166C104.329 65.6623 103.161 64.9504 102.504 64.2809C101.839 63.594 101.694 62.8085 102.068 61.9245Z"/>
  </mask>
  <path d="M102.068 61.9245C102.359 61.2369 102.822 60.8104 103.457 60.6448C104.097 60.467 104.906 60.5055 105.884 60.7604C106.85 61.0101 108.088 61.4547 109.598 62.0942C111.108 62.7337 112.289 63.3134 113.14 63.8332C113.979 64.3478 114.554 64.8881 114.865 65.454C115.175 66.0199 115.182 66.6528 114.886 67.3526C114.532 68.1875 113.927 68.626 113.069 68.6683C112.211 68.7105 111.021 68.4451 109.497 67.8722C109.348 68.258 109.089 68.8868 108.72 69.7585L108.314 70.7162C109.781 71.4242 110.797 72.1008 111.364 72.7462C111.93 73.3915 112.037 74.1316 111.683 74.9665C111.387 75.6663 110.928 76.1016 110.305 76.2724C109.683 76.4432 108.895 76.4063 107.941 76.1618C106.98 75.8998 105.739 75.4465 104.217 74.8018C102.694 74.157 101.505 73.5809 100.648 73.0734C99.7966 72.5536 99.2157 72.0107 98.9051 71.4448C98.5822 70.8737 98.569 70.2382 98.8654 69.5384C99.1201 68.9368 99.5106 68.5447 100.037 68.3621C100.551 68.1743 101.192 68.1636 101.962 68.3301C102.724 68.4792 103.671 68.7718 104.804 69.2081L105.358 67.9006C105.644 67.2253 105.861 66.7306 106.008 66.4166C104.329 65.6623 103.161 64.9504 102.504 64.2809C101.839 63.594 101.694 62.8085 102.068 61.9245Z" fill="white"/>
  <path d="M103.457 60.6448L103.709 61.6125L103.717 61.6104L103.725 61.6083L103.457 60.6448ZM105.884 60.7604L105.632 61.7281L105.634 61.7286L105.884 60.7604ZM113.14 63.8332L113.663 62.9808L113.661 62.9797L113.14 63.8332ZM114.865 65.454L115.741 64.9729L115.741 64.9729L114.865 65.454ZM113.069 68.6683L113.118 69.6671L113.069 68.6683ZM109.497 67.8722L109.849 66.9362L108.921 66.5873L108.564 67.5121L109.497 67.8722ZM108.314 70.7162L107.393 70.3262L107.022 71.2029L107.879 71.6167L108.314 70.7162ZM111.364 72.7462L110.612 73.4059L111.364 72.7462ZM110.305 76.2724L110.57 77.2368L110.305 76.2724ZM107.941 76.1618L107.678 77.1266L107.685 77.1286L107.693 77.1305L107.941 76.1618ZM100.648 73.0734L100.127 73.927L100.138 73.9337L100.648 73.0734ZM98.9051 71.4448L99.7818 70.9637L99.7756 70.9527L98.9051 71.4448ZM100.037 68.3621L100.365 69.3068L100.372 69.3041L100.38 69.3013L100.037 68.3621ZM101.962 68.3301L101.75 69.3075L101.76 69.3096L101.77 69.3116L101.962 68.3301ZM104.804 69.2081L104.445 70.1413L105.348 70.4891L105.725 69.5981L104.804 69.2081ZM106.008 66.4166L106.913 66.8417L107.346 65.9212L106.418 65.5045L106.008 66.4166ZM102.504 64.2809L101.785 64.9763L101.79 64.9817L102.504 64.2809ZM102.989 62.3145C103.178 61.8679 103.419 61.6881 103.709 61.6125L103.205 59.6772C102.225 59.9326 101.54 60.606 101.147 61.5346L102.989 62.3145ZM103.725 61.6083C104.128 61.4961 104.742 61.4963 105.632 61.7281L106.136 59.7927C105.069 59.5147 104.065 59.4378 103.189 59.6813L103.725 61.6083ZM105.634 61.7286C106.531 61.9607 107.718 62.3842 109.208 63.0151L109.988 61.1734C108.457 60.5252 107.168 60.0595 106.134 59.7922L105.634 61.7286ZM109.208 63.0151C110.698 63.6459 111.828 64.2036 112.619 64.6867L113.661 62.9797C112.75 62.4233 111.518 61.8216 109.988 61.1734L109.208 63.0151ZM112.617 64.6857C113.38 65.1532 113.794 65.5813 113.988 65.9351L115.741 64.9729C115.314 64.1948 114.579 63.5424 113.663 62.9808L112.617 64.6857ZM113.988 65.9351C114.124 66.1836 114.166 66.4886 113.965 66.9627L115.807 67.7425C116.199 66.8169 116.226 65.8562 115.741 64.9729L113.988 65.9351ZM113.965 66.9627C113.844 67.248 113.707 67.4061 113.58 67.4977C113.457 67.5872 113.285 67.6564 113.02 67.6695L113.118 69.6671C113.711 69.6379 114.271 69.4668 114.753 69.1176C115.232 68.7708 115.574 68.2921 115.807 67.7425L113.965 66.9627ZM113.02 67.6695C112.372 67.7013 111.339 67.4964 109.849 66.9362L109.145 68.8082C110.703 69.3939 112.05 69.7196 113.118 69.6671L113.02 67.6695ZM108.564 67.5121C108.421 67.8816 108.168 68.4974 107.799 69.3686L109.64 70.1485C110.01 69.2761 110.274 68.6344 110.43 68.2323L108.564 67.5121ZM107.799 69.3686L107.393 70.3262L109.235 71.1061L109.64 70.1485L107.799 69.3686ZM107.879 71.6167C109.314 72.3093 110.182 72.9155 110.612 73.4059L112.115 72.0864C111.413 71.2862 110.247 70.539 108.749 69.8156L107.879 71.6167ZM110.612 73.4059C110.787 73.6051 110.857 73.7768 110.879 73.9277C110.901 74.0824 110.883 74.2912 110.763 74.5766L112.604 75.3565C112.837 74.8069 112.943 74.2282 112.859 73.6428C112.774 73.0536 112.507 72.5326 112.115 72.0864L110.612 73.4059ZM110.763 74.5766C110.562 75.0506 110.314 75.233 110.041 75.308L110.57 77.2368C111.541 76.9702 112.212 76.2821 112.604 75.3565L110.763 74.5766ZM110.041 75.308C109.651 75.4148 109.056 75.4153 108.189 75.1931L107.693 77.1305C108.733 77.3973 109.714 77.4715 110.57 77.2368L110.041 75.308ZM108.204 75.197C107.306 74.952 106.111 74.518 104.606 73.8809L103.827 75.7226C105.367 76.375 106.655 76.8477 107.678 77.1266L108.204 75.197ZM104.606 73.8809C103.102 73.2439 101.959 72.6878 101.158 72.2131L100.138 73.9337C101.05 74.474 102.286 75.0702 103.827 75.7226L104.606 73.8809ZM101.169 72.2199C100.392 71.7457 99.9746 71.315 99.7818 70.9637L98.0284 71.9259C98.4568 72.7064 99.2008 73.3615 100.127 73.9269L101.169 72.2199ZM99.7756 70.9527C99.631 70.6969 99.5892 70.3936 99.7862 69.9284L97.9445 69.1485C97.5488 70.0829 97.5335 71.0505 98.0346 71.9369L99.7756 70.9527ZM99.7862 69.9284C99.9516 69.5378 100.152 69.3804 100.365 69.3068L99.709 67.4174C98.8687 67.7089 98.2887 68.3358 97.9445 69.1485L99.7862 69.9284ZM100.38 69.3013C100.655 69.201 101.089 69.1644 101.75 69.3075L102.173 67.3528C101.296 67.1629 100.447 67.1476 99.6936 67.4228L100.38 69.3013ZM101.77 69.3116C102.452 69.445 103.34 69.7157 104.445 70.1413L105.164 68.275C104.003 67.828 102.995 67.5133 102.154 67.3487L101.77 69.3116ZM105.725 69.5981L106.279 68.2905L104.437 67.5106L103.883 68.8182L105.725 69.5981ZM106.279 68.2905C106.564 67.6171 106.775 67.1373 106.913 66.8417L105.103 65.9916C104.947 66.324 104.724 66.8335 104.437 67.5106L106.279 68.2905ZM106.418 65.5045C104.765 64.7617 103.739 64.1114 103.217 63.5801L101.79 64.9817C102.584 65.7893 103.894 66.5628 105.598 67.3287L106.418 65.5045ZM103.222 63.5855C102.999 63.3552 102.91 63.1587 102.879 62.9948C102.849 62.8306 102.862 62.613 102.989 62.3145L101.147 61.5346C100.899 62.12 100.798 62.7371 100.913 63.3584C101.028 63.98 101.343 64.5197 101.785 64.9763L103.222 63.5855Z" fill="black" mask="url(#path-53-outside-1_22057_76)"/>
  <mask id="path-55-outside-2_22057_76" maskUnits="userSpaceOnUse" x="105.848" y="49.4841" width="16.9899" height="17.3297" fill="black">
    <rect fill="white" x="105.848" y="49.4841" width="16.9899" height="17.3297"/>
    <path d="M118.842 60.3697C118.333 61.2146 117.716 61.8626 116.993 62.3136C116.269 62.7647 115.5 62.9939 114.686 63.0011C113.867 62.9901 113.081 62.7573 112.328 62.3028C111.586 61.8552 111.007 61.265 110.593 60.5323C110.185 59.7882 109.986 58.9828 109.995 58.1162C110.004 57.2496 110.253 56.411 110.742 55.6003C111.182 54.8696 111.72 54.3141 112.354 53.9337C112.988 53.5533 113.641 53.3627 114.311 53.362C114.969 53.3544 115.561 53.509 116.086 53.8258C116.942 54.3423 117.374 55.0464 117.381 55.9382C117.384 56.8117 117.116 57.6937 116.579 58.5843C116.221 59.178 115.844 59.6356 115.448 59.9571C116.214 59.952 116.834 59.5556 117.309 58.7678C117.502 58.4481 117.669 58.0815 117.809 57.6679C117.858 57.5103 117.92 57.3686 117.996 57.243C118.147 56.9919 118.33 56.8299 118.546 56.7573C118.768 56.6732 118.987 56.6965 119.204 56.8274C119.558 57.0409 119.735 57.4437 119.736 58.036C119.726 58.6213 119.428 59.3993 118.842 60.3697ZM113.389 58.6455C113.611 58.6391 113.814 58.5744 113.997 58.4514C114.176 58.31 114.33 58.1309 114.461 57.9139C114.613 57.6628 114.686 57.4114 114.682 57.1599C114.685 56.8969 114.595 56.7103 114.413 56.6002C114.207 56.4762 113.979 56.4551 113.727 56.5368C113.482 56.6071 113.267 56.7964 113.081 57.1047C112.895 57.413 112.844 57.717 112.928 58.0167C113.007 58.2981 113.161 58.5077 113.389 58.6455Z"/>
  </mask>
  <path d="M118.842 60.3697C118.333 61.2146 117.716 61.8626 116.993 62.3136C116.269 62.7647 115.5 62.9939 114.686 63.0011C113.867 62.9901 113.081 62.7573 112.328 62.3028C111.586 61.8552 111.007 61.265 110.593 60.5323C110.185 59.7882 109.986 58.9828 109.995 58.1162C110.004 57.2496 110.253 56.411 110.742 55.6003C111.182 54.8696 111.72 54.3141 112.354 53.9337C112.988 53.5533 113.641 53.3627 114.311 53.362C114.969 53.3544 115.561 53.509 116.086 53.8258C116.942 54.3423 117.374 55.0464 117.381 55.9382C117.384 56.8117 117.116 57.6937 116.579 58.5843C116.221 59.178 115.844 59.6356 115.448 59.9571C116.214 59.952 116.834 59.5556 117.309 58.7678C117.502 58.4481 117.669 58.0815 117.809 57.6679C117.858 57.5103 117.92 57.3686 117.996 57.243C118.147 56.9919 118.33 56.8299 118.546 56.7573C118.768 56.6732 118.987 56.6965 119.204 56.8274C119.558 57.0409 119.735 57.4437 119.736 58.036C119.726 58.6213 119.428 59.3993 118.842 60.3697ZM113.389 58.6455C113.611 58.6391 113.814 58.5744 113.997 58.4514C114.176 58.31 114.33 58.1309 114.461 57.9139C114.613 57.6628 114.686 57.4114 114.682 57.1599C114.685 56.8969 114.595 56.7103 114.413 56.6002C114.207 56.4762 113.979 56.4551 113.727 56.5368C113.482 56.6071 113.267 56.7964 113.081 57.1047C112.895 57.413 112.844 57.717 112.928 58.0167C113.007 58.2981 113.161 58.5077 113.389 58.6455Z" fill="white"/>
  <path d="M116.993 62.3136L116.464 61.465L116.993 62.3136ZM114.686 63.0011L114.672 64.001L114.684 64.0012L114.695 64.0011L114.686 63.0011ZM110.593 60.5323L109.716 61.0127L109.723 61.0247L110.593 60.5323ZM109.995 58.1162L110.995 58.1265L110.995 58.1265L109.995 58.1162ZM112.354 53.9337L111.84 53.0761L112.354 53.9337ZM114.311 53.362L114.312 54.3621L114.322 54.3619L114.311 53.362ZM117.381 55.9382L118.381 55.9353L118.381 55.9303L117.381 55.9382ZM115.448 59.9571L114.818 59.1805L112.604 60.9759L115.454 60.9571L115.448 59.9571ZM117.809 57.6679L118.756 57.9895L118.761 57.9755L118.765 57.9613L117.809 57.6679ZM118.546 56.7573L118.866 57.7047L118.883 57.6989L118.9 57.6924L118.546 56.7573ZM119.736 58.036L120.736 58.0539L120.736 58.0442L120.736 58.0345L119.736 58.036ZM113.389 58.6455L112.873 59.5018L113.124 59.6535L113.418 59.6451L113.389 58.6455ZM113.997 58.4514L114.554 59.2815L114.587 59.2598L114.617 59.2356L113.997 58.4514ZM114.682 57.1599L113.682 57.1488L113.682 57.1623L113.683 57.1757L114.682 57.1599ZM113.727 56.5368L114.003 57.498L114.019 57.4932L114.036 57.4879L113.727 56.5368ZM112.928 58.0167L111.965 58.2863L111.965 58.2882L112.928 58.0167ZM117.986 59.8532C117.545 60.5844 117.034 61.1095 116.464 61.465L117.522 63.1623C118.398 62.6156 119.12 61.8448 119.699 60.8862L117.986 59.8532ZM116.464 61.465C115.888 61.8236 115.298 61.9956 114.677 62.0012L114.695 64.0011C115.702 63.9921 116.649 63.7058 117.522 63.1623L116.464 61.465ZM114.699 62.0012C114.072 61.9927 113.458 61.8165 112.844 61.4465L111.811 63.1591C112.705 63.6981 113.663 63.9874 114.672 64.001L114.699 62.0012ZM112.844 61.4465C112.245 61.085 111.79 60.6184 111.463 60.0399L109.723 61.0247C110.224 61.9116 110.926 62.6253 111.811 63.1591L112.844 61.4465ZM111.47 60.0519C111.147 59.4615 110.988 58.8255 110.995 58.1265L108.995 58.106C108.984 59.1401 109.224 60.1149 109.716 61.0127L111.47 60.0519ZM110.995 58.1265C111.002 57.4546 111.192 56.7891 111.598 56.1168L109.885 55.0838C109.313 56.0328 109.006 57.0445 108.995 58.106L110.995 58.1265ZM111.598 56.1168C111.967 55.5044 112.394 55.0755 112.868 54.7913L111.84 53.0761C111.045 53.5526 110.397 54.2349 109.885 55.0838L111.598 56.1168ZM112.868 54.7913C113.364 54.4939 113.841 54.3625 114.312 54.362L114.309 52.362C113.44 52.363 112.613 52.6127 111.84 53.0761L112.868 54.7913ZM114.322 54.3619C114.809 54.3563 115.216 54.4684 115.57 54.6821L116.603 52.9695C115.906 52.5495 115.129 52.3525 114.299 52.3621L114.322 54.3619ZM115.57 54.6821C116.171 55.045 116.377 55.4494 116.381 55.9461L118.381 55.9303C118.371 54.6434 117.714 53.6395 116.603 52.9695L115.57 54.6821ZM116.381 55.9411C116.383 56.5994 116.184 57.3039 115.723 58.0678L117.436 59.1008C118.049 58.0836 118.384 57.0241 118.381 55.9353L116.381 55.9411ZM115.723 58.0678C115.405 58.5955 115.098 58.9529 114.818 59.1805L116.078 60.7337C116.59 60.3183 117.038 59.7605 117.436 59.1008L115.723 58.0678ZM115.454 60.9571C116.643 60.9492 117.553 60.3002 118.166 59.2843L116.453 58.2513C116.116 58.8109 115.784 58.9548 115.441 58.9571L115.454 60.9571ZM118.166 59.2843C118.401 58.8937 118.597 58.4599 118.756 57.9895L116.862 57.3463C116.741 57.703 116.603 58.0025 116.453 58.2513L118.166 59.2843ZM118.765 57.9613C118.793 57.8723 118.823 57.8071 118.852 57.7595L117.139 56.7265C117.016 56.9302 116.923 57.1482 116.853 57.3745L118.765 57.9613ZM118.852 57.7595C118.885 57.7042 118.907 57.6845 118.909 57.6827C118.909 57.682 118.906 57.6853 118.898 57.6902C118.889 57.6952 118.878 57.7004 118.866 57.7047L118.225 55.8099C117.728 55.9781 117.377 56.3331 117.139 56.7265L118.852 57.7595ZM118.9 57.6924C118.875 57.7016 118.828 57.7123 118.771 57.7061C118.715 57.7002 118.686 57.6826 118.687 57.6837L119.72 55.9711C119.261 55.694 118.722 55.6212 118.191 55.8221L118.9 57.6924ZM118.687 57.6837C118.688 57.6839 118.686 57.6831 118.684 57.6813C118.682 57.6795 118.68 57.6776 118.679 57.676C118.676 57.6721 118.68 57.6752 118.687 57.6927C118.705 57.732 118.736 57.8345 118.736 58.0375L120.736 58.0345C120.735 57.2586 120.493 56.4372 119.72 55.9711L118.687 57.6837ZM118.736 58.018C118.731 58.3285 118.551 58.9165 117.986 59.8532L119.699 60.8862C120.304 59.882 120.721 58.9142 120.736 58.0539L118.736 58.018ZM113.418 59.6451C113.827 59.6333 114.213 59.5105 114.554 59.2815L113.439 57.6212C113.414 57.6384 113.395 57.6449 113.361 57.6459L113.418 59.6451ZM114.617 59.2356C114.9 59.012 115.132 58.7386 115.317 58.4304L113.605 57.3975C113.529 57.5231 113.451 57.608 113.376 57.6671L114.617 59.2356ZM115.317 58.4304C115.549 58.0459 115.69 57.6123 115.682 57.144L113.683 57.1757C113.683 57.2106 113.676 57.2797 113.605 57.3975L115.317 58.4304ZM115.682 57.1709C115.688 56.6497 115.49 56.0818 114.929 55.7439L113.896 57.4564C113.826 57.4143 113.758 57.3441 113.716 57.2568C113.679 57.179 113.683 57.131 113.682 57.1488L115.682 57.1709ZM114.929 55.7439C114.448 55.4536 113.914 55.4247 113.418 55.5857L114.036 57.4879C114.052 57.4827 114.035 57.4908 113.995 57.4871C113.952 57.4832 113.917 57.4688 113.896 57.4564L114.929 55.7439ZM113.451 55.5757C112.879 55.7399 112.487 56.1531 112.224 56.5882L113.937 57.6212C113.99 57.5335 114.028 57.4949 114.042 57.4827C114.053 57.4732 114.039 57.4875 114.003 57.498L113.451 55.5757ZM112.224 56.5882C111.92 57.0922 111.795 57.6787 111.965 58.2863L113.891 57.7471C113.889 57.7403 113.889 57.7372 113.889 57.7367C113.889 57.7362 113.888 57.7342 113.889 57.7294C113.891 57.7205 113.898 57.6853 113.937 57.6212L112.224 56.5882ZM111.965 58.2882C112.106 58.7884 112.405 59.2196 112.873 59.5018L113.906 57.7892C113.903 57.7872 113.903 57.7869 113.905 57.7886C113.906 57.7904 113.908 57.7922 113.909 57.7932C113.911 57.7962 113.901 57.785 113.89 57.7453L111.965 58.2882Z" fill="black" mask="url(#path-55-outside-2_22057_76)"/>
  <mask id="path-57-outside-3_22057_76" maskUnits="userSpaceOnUse" x="111.73" y="40.4476" width="17.4719" height="17.6382" fill="black">
    <rect fill="white" x="111.73" y="40.4476" width="17.4719" height="17.6382"/>
    <path d="M126.249 50.0064C125.952 50.3834 125.625 50.5835 125.267 50.6069C124.917 50.6199 124.574 50.5276 124.237 50.3301C123.9 50.1326 123.491 49.844 123.009 49.4643C122.392 48.9773 121.849 48.6855 121.382 48.5889C120.915 48.4923 120.533 48.6325 120.236 49.0094C119.963 49.355 119.924 49.7488 120.119 50.191C120.312 50.6144 120.696 51.0531 121.272 51.5071C121.827 51.9446 122.233 52.2905 122.491 52.5447C122.749 52.799 122.918 53.1018 122.997 53.4532C123.067 53.7963 122.94 54.172 122.618 54.5804C122.148 55.1772 121.435 55.2948 120.481 54.9331C119.516 54.5631 118.516 53.9695 117.479 53.1523C114.966 51.1713 114.126 49.652 114.96 48.5944C115.191 48.3012 115.454 48.1182 115.749 48.0452C116.034 47.9641 116.336 47.99 116.656 48.1231C116.617 47.8714 116.651 47.5588 116.758 47.1853C116.874 46.8013 117.06 46.447 117.316 46.1224C118.224 44.9706 119.32 44.4421 120.603 44.537C121.895 44.6214 123.258 45.2291 124.693 46.3599C125.541 47.0285 126.124 47.6667 126.443 48.2746C126.751 48.8742 126.687 49.4514 126.249 50.0064Z"/>
  </mask>
  <path d="M126.249 50.0064C125.952 50.3834 125.625 50.5835 125.267 50.6069C124.917 50.6199 124.574 50.5276 124.237 50.3301C123.9 50.1326 123.491 49.844 123.009 49.4643C122.392 48.9773 121.849 48.6855 121.382 48.5889C120.915 48.4923 120.533 48.6325 120.236 49.0094C119.963 49.355 119.924 49.7488 120.119 50.191C120.312 50.6144 120.696 51.0531 121.272 51.5071C121.827 51.9446 122.233 52.2905 122.491 52.5447C122.749 52.799 122.918 53.1018 122.997 53.4532C123.067 53.7963 122.94 54.172 122.618 54.5804C122.148 55.1772 121.435 55.2948 120.481 54.9331C119.516 54.5631 118.516 53.9695 117.479 53.1523C114.966 51.1713 114.126 49.652 114.96 48.5944C115.191 48.3012 115.454 48.1182 115.749 48.0452C116.034 47.9641 116.336 47.99 116.656 48.1231C116.617 47.8714 116.651 47.5588 116.758 47.1853C116.874 46.8013 117.06 46.447 117.316 46.1224C118.224 44.9706 119.32 44.4421 120.603 44.537C121.895 44.6214 123.258 45.2291 124.693 46.3599C125.541 47.0285 126.124 47.6667 126.443 48.2746C126.751 48.8742 126.687 49.4514 126.249 50.0064Z" fill="white"/>
  <path d="M125.267 50.6069L125.303 51.6063L125.318 51.6057L125.332 51.6048L125.267 50.6069ZM124.237 50.3301L124.743 49.4675L124.743 49.4675L124.237 50.3301ZM120.119 50.191L119.204 50.5941L119.209 50.6049L120.119 50.191ZM122.491 52.5447L121.789 53.2569L122.491 52.5447ZM122.997 53.4532L123.978 53.2557L123.975 53.244L123.973 53.2323L122.997 53.4532ZM120.481 54.9331L120.123 55.8668L120.127 55.8681L120.481 54.9331ZM115.749 48.0452L115.989 49.0161L116.007 49.0118L116.024 49.0069L115.749 48.0452ZM116.656 48.1231L116.271 49.0462L117.919 49.7323L117.644 47.9688L116.656 48.1231ZM116.758 47.1853L115.801 46.8962L115.798 46.9083L116.758 47.1853ZM120.603 44.537L120.529 45.5343L120.538 45.5349L120.603 44.537ZM126.443 48.2746L127.332 47.8172L127.329 47.8101L126.443 48.2746ZM125.464 49.3873C125.371 49.5051 125.3 49.561 125.259 49.586C125.224 49.6077 125.208 49.6087 125.201 49.6091L125.332 51.6048C126.059 51.5573 126.624 51.1461 127.035 50.6255L125.464 49.3873ZM125.23 49.6076C125.092 49.6127 124.935 49.5801 124.743 49.4675L123.731 51.1926C124.212 51.475 124.742 51.627 125.303 51.6063L125.23 49.6076ZM124.743 49.4675C124.461 49.3023 124.092 49.0444 123.628 48.679L122.39 50.2496C122.89 50.6436 123.339 50.9629 123.731 51.1926L124.743 49.4675ZM123.628 48.679C122.958 48.1508 122.272 47.7517 121.584 47.6096L121.179 49.5682C121.427 49.6193 121.825 49.8038 122.39 50.2496L123.628 48.679ZM121.584 47.6096C121.2 47.5302 120.795 47.5381 120.401 47.6828C120.007 47.8272 119.693 48.0829 119.45 48.3904L121.021 49.6285C121.049 49.5924 121.07 49.5745 121.08 49.5668C121.089 49.5597 121.092 49.5594 121.089 49.5604C121.087 49.5614 121.088 49.5601 121.099 49.5595C121.11 49.5589 121.136 49.5592 121.179 49.5682L121.584 47.6096ZM119.45 48.3904C119.209 48.6959 119.047 49.058 119.007 49.4659C118.967 49.868 119.052 50.2501 119.204 50.5941L121.034 49.7879C120.991 49.6897 120.998 49.6538 120.997 49.6621C120.997 49.6647 120.996 49.6669 120.997 49.6656C120.998 49.6636 121.003 49.6511 121.021 49.6285L119.45 48.3904ZM119.209 50.6049C119.495 51.2338 120.016 51.7909 120.653 52.2924L121.891 50.7218C121.375 50.3153 121.128 49.995 121.029 49.7771L119.209 50.6049ZM120.653 52.2924C121.2 52.7242 121.572 53.0426 121.789 53.2569L123.193 51.8326C122.895 51.5384 122.453 51.165 121.891 50.7218L120.653 52.2924ZM121.789 53.2569C121.912 53.3777 121.985 53.5103 122.022 53.6741L123.973 53.2323C123.851 52.6933 123.587 52.2203 123.193 51.8326L121.789 53.2569ZM122.017 53.6506C122.013 53.6283 122.021 53.6294 122.007 53.6734C121.989 53.7247 121.944 53.8206 121.833 53.9613L123.404 55.1994C123.817 54.6746 124.128 54.0034 123.978 53.2557L122.017 53.6506ZM121.833 53.9613C121.743 54.0752 121.664 54.1137 121.568 54.1295C121.443 54.1501 121.212 54.1408 120.836 53.998L120.127 55.8681C120.704 56.087 121.306 56.1998 121.894 56.1028C122.51 56.0012 123.023 55.6824 123.404 55.1994L121.833 53.9613ZM120.839 53.9994C119.99 53.6738 119.077 53.1383 118.098 52.367L116.86 53.9377C117.955 54.8008 119.042 55.4523 120.123 55.8668L120.839 53.9994ZM118.098 52.367C116.873 51.4012 116.162 50.6258 115.84 50.0434C115.684 49.7618 115.649 49.5772 115.648 49.4718C115.648 49.3859 115.67 49.3095 115.745 49.2135L114.175 47.9753C113.833 48.4081 113.647 48.9183 113.648 49.4765C113.65 50.0154 113.825 50.5327 114.089 51.0108C114.607 51.9477 115.572 52.9225 116.86 53.9377L118.098 52.367ZM115.745 49.2135C115.871 49.0541 115.956 49.0244 115.989 49.0161L115.51 47.0744C114.953 47.2119 114.511 47.5483 114.175 47.9753L115.745 49.2135ZM116.024 49.0069C116.055 48.9979 116.124 48.9848 116.271 49.0462L117.04 47.1999C116.549 46.9953 116.013 46.9302 115.475 47.0836L116.024 49.0069ZM117.644 47.9688C117.636 47.9168 117.633 47.7624 117.719 47.4623L115.798 46.9083C115.669 47.3551 115.597 47.826 115.668 48.2773L117.644 47.9688ZM117.716 47.4743C117.794 47.2138 117.921 46.9708 118.101 46.7415L116.531 45.5033C116.2 45.9231 115.954 46.3888 115.801 46.8962L117.716 47.4743ZM118.101 46.7415C118.837 45.8082 119.628 45.4676 120.529 45.5343L120.677 43.5397C119.012 43.4166 117.611 44.133 116.531 45.5033L118.101 46.7415ZM120.538 45.5349C121.56 45.6017 122.735 46.09 124.073 47.1452L125.312 45.5746C123.781 44.3681 122.229 43.6412 120.668 43.5391L120.538 45.5349ZM124.073 47.1452C124.868 47.7713 125.331 48.3066 125.557 48.739L127.329 47.8101C126.918 47.0268 126.214 46.2857 125.312 45.5746L124.073 47.1452ZM125.554 48.7319C125.633 48.8854 125.639 48.983 125.632 49.0461C125.625 49.1127 125.592 49.2245 125.464 49.3873L127.035 50.6255C127.344 50.2333 127.562 49.779 127.62 49.2684C127.677 48.7542 127.562 48.2633 127.332 47.8172L125.554 48.7319Z" fill="black" mask="url(#path-57-outside-3_22057_76)"/>
  <mask id="path-59-outside-4_22057_76" maskUnits="userSpaceOnUse" x="115.718" y="33.4245" width="17.0797" height="16.8547" fill="black">
    <rect fill="white" x="115.718" y="33.4245" width="17.0797" height="16.8547"/>
    <path d="M129.261 46.6899C128.799 47.1705 128.275 47.3601 127.688 47.2587C127.102 47.1572 126.421 46.8171 125.645 46.2384C124.87 45.6409 123.857 44.7416 122.607 43.5406C121.405 42.3858 120.496 41.4562 119.878 40.7518C119.27 40.0378 118.879 39.3666 118.707 38.7382C118.543 38.1002 118.711 37.5217 119.21 37.0025C119.709 36.4834 120.275 36.2976 120.91 36.4453C121.554 36.5834 122.24 36.9469 122.969 37.536C123.706 38.1154 124.676 38.9825 125.878 40.1373C127.06 41.2737 127.966 42.2458 128.595 43.0537C129.224 43.8428 129.6 44.5378 129.726 45.1388C129.841 45.7306 129.686 46.2476 129.261 46.6899Z"/>
  </mask>
  <path d="M129.261 46.6899C128.799 47.1705 128.275 47.3601 127.688 47.2587C127.102 47.1572 126.421 46.8171 125.645 46.2384C124.87 45.6409 123.857 44.7416 122.607 43.5406C121.405 42.3858 120.496 41.4562 119.878 40.7518C119.27 40.0378 118.879 39.3666 118.707 38.7382C118.543 38.1002 118.711 37.5217 119.21 37.0025C119.709 36.4834 120.275 36.2976 120.91 36.4453C121.554 36.5834 122.24 36.9469 122.969 37.536C123.706 38.1154 124.676 38.9825 125.878 40.1373C127.06 41.2737 127.966 42.2458 128.595 43.0537C129.224 43.8428 129.6 44.5378 129.726 45.1388C129.841 45.7306 129.686 46.2476 129.261 46.6899Z" fill="white"/>
  <path d="M127.688 47.2587L127.518 48.244L127.518 48.244L127.688 47.2587ZM125.645 46.2384L125.035 47.0306L125.041 47.0353L125.047 47.0398L125.645 46.2384ZM119.878 40.7518L119.117 41.4003L119.122 41.4057L119.126 41.411L119.878 40.7518ZM118.707 38.7382L117.738 38.9866L117.74 38.995L117.742 39.0034L118.707 38.7382ZM120.91 36.4453L120.683 37.4193L120.692 37.4213L120.7 37.4231L120.91 36.4453ZM122.969 37.536L122.34 38.3135L122.345 38.318L122.351 38.3224L122.969 37.536ZM128.595 43.0537L127.806 43.6681L127.813 43.6768L128.595 43.0537ZM129.726 45.1388L130.707 44.9472L130.705 44.935L129.726 45.1388ZM128.54 45.997C128.276 46.2717 128.075 46.3107 127.859 46.2733L127.518 48.244C128.475 48.4096 129.323 48.0694 129.982 47.3828L128.54 45.997ZM127.859 46.2733C127.495 46.2103 126.963 45.9738 126.244 45.437L125.047 47.0398C125.879 47.6604 126.709 48.104 127.518 48.244L127.859 46.2733ZM126.256 45.4462C125.523 44.8816 124.54 44.0114 123.3 42.8196L121.914 44.2616C123.174 45.4719 124.217 46.4003 125.035 47.0306L126.256 45.4462ZM123.3 42.8196C122.106 41.6718 121.22 40.7651 120.63 40.0925L119.126 41.411C119.772 42.1472 120.705 43.0997 121.914 44.2616L123.3 42.8196ZM120.64 40.1033C120.088 39.4553 119.792 38.9124 119.671 38.473L117.742 39.0034C117.967 39.8207 118.453 40.6202 119.117 41.4003L120.64 40.1033ZM119.675 38.4898C119.607 38.2232 119.645 37.9927 119.931 37.6954L118.489 36.3096C117.777 37.0506 117.479 37.9773 117.738 38.9866L119.675 38.4898ZM119.931 37.6954C120.216 37.3984 120.433 37.3611 120.683 37.4193L121.137 35.4713C120.117 35.2342 119.201 35.5684 118.489 36.3096L119.931 37.6954ZM120.7 37.4231C121.14 37.5173 121.685 37.7842 122.34 38.3135L123.597 36.7584C122.795 36.1096 121.968 35.6494 121.12 35.4675L120.7 37.4231ZM122.351 38.3224C123.05 38.8714 123.992 39.7118 125.185 40.8584L126.571 39.4163C125.36 38.2532 124.363 37.3594 123.586 36.7496L122.351 38.3224ZM125.185 40.8584C126.351 41.9787 127.218 42.9135 127.806 43.6681L129.384 42.4394C128.713 41.5781 127.77 40.5687 126.571 39.4163L125.185 40.8584ZM127.813 43.6768C128.399 44.413 128.668 44.963 128.747 45.3426L130.705 44.935C130.533 44.1125 130.048 43.2725 129.377 42.4306L127.813 43.6768ZM128.744 45.3304C128.796 45.596 128.744 45.7847 128.54 45.997L129.982 47.3828C130.628 46.7105 130.886 45.8652 130.707 44.9473L128.744 45.3304Z" fill="black" mask="url(#path-59-outside-4_22057_76)"/>
  <mask id="path-61-outside-5_22057_76" maskUnits="userSpaceOnUse" x="122.81" y="28.2126" width="19.0788" height="18.9526" fill="black">
    <rect fill="white" x="122.81" y="28.2126" width="19.0788" height="18.9526"/>
    <path d="M135.242 41.1625C134.514 41.7883 133.726 42.1862 132.877 42.3563C132.039 42.5179 131.226 42.4592 130.437 42.1803C129.649 41.8826 128.959 41.3995 128.366 40.7311C127.783 40.0541 127.428 39.3077 127.303 38.4918C127.177 37.676 127.273 36.8658 127.591 36.0613C127.92 35.2483 128.452 34.534 129.189 33.9184C129.905 33.32 130.678 32.9349 131.508 32.7631C132.347 32.5827 133.167 32.6277 133.966 32.8981C134.765 33.1685 135.462 33.6379 136.055 34.3063C136.621 34.9628 136.971 35.7041 137.105 36.5302C137.231 37.3461 137.134 38.1657 136.814 38.9889C136.504 39.8036 135.98 40.5282 135.242 41.1625ZM133.416 38.8833C133.692 38.6524 133.843 38.3441 133.868 37.9583C133.893 37.5724 133.786 37.2362 133.546 36.9497C133.307 36.6633 132.999 36.5032 132.624 36.4695C132.24 36.4257 131.909 36.5191 131.633 36.75C131.357 36.9808 131.206 37.2891 131.181 37.675C131.147 38.0506 131.25 38.3817 131.49 38.6681C131.729 38.9546 132.041 39.1198 132.425 39.1637C132.809 39.2076 133.139 39.1141 133.416 38.8833Z"/>
  </mask>
  <path d="M135.242 41.1625C134.514 41.7883 133.726 42.1862 132.877 42.3563C132.039 42.5179 131.226 42.4592 130.437 42.1803C129.649 41.8826 128.959 41.3995 128.366 40.7311C127.783 40.0541 127.428 39.3077 127.303 38.4918C127.177 37.676 127.273 36.8658 127.591 36.0613C127.92 35.2483 128.452 34.534 129.189 33.9184C129.905 33.32 130.678 32.9349 131.508 32.7631C132.347 32.5827 133.167 32.6277 133.966 32.8981C134.765 33.1685 135.462 33.6379 136.055 34.3063C136.621 34.9628 136.971 35.7041 137.105 36.5302C137.231 37.3461 137.134 38.1657 136.814 38.9889C136.504 39.8036 135.98 40.5282 135.242 41.1625ZM133.416 38.8833C133.692 38.6524 133.843 38.3441 133.868 37.9583C133.893 37.5724 133.786 37.2362 133.546 36.9497C133.307 36.6633 132.999 36.5032 132.624 36.4695C132.24 36.4257 131.909 36.5191 131.633 36.75C131.357 36.9808 131.206 37.2891 131.181 37.675C131.147 38.0506 131.25 38.3817 131.49 38.6681C131.729 38.9546 132.041 39.1198 132.425 39.1637C132.809 39.2076 133.139 39.1141 133.416 38.8833Z" fill="white"/>
  <path d="M135.242 41.1625L134.59 40.404L134.59 40.4041L135.242 41.1625ZM132.877 42.3563L133.067 43.3383L133.074 43.3368L132.877 42.3563ZM130.437 42.1803L130.083 43.1157L130.093 43.1195L130.103 43.1231L130.437 42.1803ZM128.366 40.7311L127.608 41.3837L127.613 41.3893L127.618 41.3949L128.366 40.7311ZM127.303 38.4918L126.314 38.6441L126.314 38.6441L127.303 38.4918ZM127.591 36.0613L126.664 35.6868L126.661 35.6935L127.591 36.0613ZM131.508 32.7631L131.71 33.7423L131.718 33.7408L131.508 32.7631ZM133.966 32.8981L133.646 33.8454L133.966 32.8981ZM136.055 34.3063L136.812 33.6534L136.808 33.6479L136.803 33.6425L136.055 34.3063ZM137.105 36.5302L138.093 36.378L138.092 36.3698L137.105 36.5302ZM136.814 38.9889L135.882 38.6268L135.879 38.6337L136.814 38.9889ZM132.624 36.4695L132.51 37.4631L132.522 37.4645L132.535 37.4655L132.624 36.4695ZM131.181 37.675L132.177 37.7642L132.178 37.7521L132.179 37.7399L131.181 37.675ZM132.425 39.1637L132.311 40.1572L132.311 40.1572L132.425 39.1637ZM134.59 40.4041C133.977 40.9306 133.343 41.2431 132.681 41.3759L133.074 43.3368C134.108 43.1294 135.05 42.646 135.894 41.9209L134.59 40.4041ZM132.688 41.3744C132.021 41.503 131.388 41.4559 130.77 41.2375L130.103 43.1231C131.064 43.4625 132.058 43.5328 133.067 43.3383L132.688 41.3744ZM130.79 41.2449C130.164 41.008 129.606 40.6223 129.114 40.0673L127.618 41.3949C128.312 42.1767 129.135 42.7572 130.083 43.1157L130.79 41.2449ZM129.123 40.0785C128.652 39.5313 128.386 38.9551 128.291 38.3396L126.314 38.6441C126.471 39.6602 126.913 40.5769 127.608 41.3837L129.123 40.0785ZM128.291 38.3396C128.194 37.7078 128.265 37.0768 128.521 36.4291L126.661 35.6935C126.281 36.6548 126.16 37.6442 126.314 38.6441L128.291 38.3396ZM128.519 36.4358C128.78 35.7894 129.207 35.2061 129.83 34.6858L128.548 33.1511C127.697 33.8618 127.06 34.7071 126.664 35.6868L128.519 36.4358ZM129.83 34.6858C130.433 34.182 131.058 33.8773 131.71 33.7423L131.305 31.7838C130.298 31.9924 129.377 32.4579 128.548 33.1511L129.83 34.6858ZM131.718 33.7408C132.384 33.5976 133.02 33.6338 133.646 33.8454L134.286 31.9508C133.313 31.6216 132.31 31.5678 131.298 31.7854L131.718 33.7408ZM133.646 33.8454C134.27 34.0567 134.822 34.4238 135.307 34.9701L136.803 33.6425C136.101 32.852 135.26 32.2803 134.286 31.9508L133.646 33.8454ZM135.297 34.9592C135.747 35.4812 136.015 36.0535 136.118 36.6906L138.092 36.3698C137.927 35.3548 137.494 34.4445 136.812 33.6534L135.297 34.9592ZM136.117 36.6825C136.214 37.3128 136.143 37.9552 135.882 38.6268L137.746 39.3511C138.125 38.3761 138.248 37.3794 138.093 36.378L136.117 36.6825ZM135.879 38.6337C135.635 39.2749 135.217 39.8654 134.59 40.404L135.894 41.921C136.743 41.1909 137.373 40.3324 137.749 39.3442L135.879 38.6337ZM134.057 39.6507C134.56 39.2304 134.824 38.6596 134.866 38.0232L132.87 37.8933C132.861 38.0286 132.824 38.0745 132.774 38.1159L134.057 39.6507ZM134.866 38.0232C134.907 37.3912 134.724 36.7998 134.314 36.3086L132.779 37.5909C132.847 37.6727 132.879 37.7536 132.87 37.8933L134.866 38.0232ZM134.314 36.3086C133.902 35.8162 133.35 35.5306 132.713 35.4735L132.535 37.4655C132.649 37.4758 132.711 37.5103 132.779 37.5909L134.314 36.3086ZM132.737 35.476C132.104 35.4036 131.495 35.5623 130.992 35.9826L132.274 37.5173C132.324 37.476 132.376 37.4477 132.51 37.4631L132.737 35.476ZM130.992 35.9826C130.489 36.4029 130.225 36.9737 130.183 37.6101L132.179 37.7399C132.188 37.6046 132.225 37.5587 132.274 37.5173L130.992 35.9826ZM130.185 37.5858C130.128 38.2225 130.311 38.817 130.722 39.3093L132.257 38.027C132.19 37.9463 132.167 37.8787 132.177 37.7642L130.185 37.5858ZM130.722 39.3093C131.133 39.8005 131.682 40.0854 132.311 40.1572L132.538 38.1702C132.399 38.1543 132.325 38.1087 132.257 38.027L130.722 39.3093ZM132.311 40.1572C132.945 40.2296 133.554 40.0709 134.057 39.6507L132.774 38.1159C132.725 38.1573 132.673 38.1855 132.538 38.1702L132.311 40.1572Z" fill="black" mask="url(#path-61-outside-5_22057_76)"/>
  <mask id="path-63-outside-6_22057_76" maskUnits="userSpaceOnUse" x="134.758" y="14.7749" width="22.3743" height="21.9298" fill="black">
    <rect fill="white" x="134.758" y="14.7749" width="22.3743" height="21.9298"/>
    <path d="M146.5 17.672C147.167 17.3367 147.796 17.3115 148.387 17.5966C148.989 17.8756 149.581 18.4289 150.161 19.2566C150.735 20.0723 151.39 21.2129 152.127 22.6783C152.863 24.1436 153.387 25.35 153.699 26.2975C154.005 27.233 154.093 28.017 153.963 28.6493C153.834 29.2816 153.429 29.7684 152.75 30.1097C151.94 30.5168 151.194 30.4587 150.514 29.9354C149.833 29.412 149.097 28.4386 148.307 27.0151C147.944 27.2126 147.339 27.5239 146.494 27.949L145.564 28.4159C146.223 29.9053 146.56 31.0793 146.573 31.9379C146.587 32.7966 146.189 33.4294 145.379 33.8366C144.7 34.1778 144.068 34.2119 143.483 33.9388C142.898 33.6657 142.321 33.1272 141.753 32.3234C141.191 31.5017 140.539 30.3522 139.796 28.8749C139.054 27.3976 138.521 26.1882 138.197 25.2468C137.885 24.2993 137.794 23.5094 137.924 22.8771C138.047 22.2328 138.449 21.7401 139.128 21.3988C139.712 21.1055 140.263 21.0596 140.782 21.2613C141.296 21.4511 141.791 21.8585 142.27 22.4836C142.754 23.0909 143.286 23.9276 143.867 24.9937L145.136 24.3561C145.791 24.0268 146.276 23.7903 146.592 23.6466C145.802 21.9845 145.373 20.6855 145.305 19.7495C145.244 18.7955 145.642 18.103 146.5 17.672Z"/>
  </mask>
  <path d="M146.5 17.672C147.167 17.3367 147.796 17.3115 148.387 17.5966C148.989 17.8756 149.581 18.4289 150.161 19.2566C150.735 20.0723 151.39 21.2129 152.127 22.6783C152.863 24.1436 153.387 25.35 153.699 26.2975C154.005 27.233 154.093 28.017 153.963 28.6493C153.834 29.2816 153.429 29.7684 152.75 30.1097C151.94 30.5168 151.194 30.4587 150.514 29.9354C149.833 29.412 149.097 28.4386 148.307 27.0151C147.944 27.2126 147.339 27.5239 146.494 27.949L145.564 28.4159C146.223 29.9053 146.56 31.0793 146.573 31.9379C146.587 32.7966 146.189 33.4294 145.379 33.8366C144.7 34.1778 144.068 34.2119 143.483 33.9388C142.898 33.6657 142.321 33.1272 141.753 32.3234C141.191 31.5017 140.539 30.3522 139.796 28.8749C139.054 27.3976 138.521 26.1882 138.197 25.2468C137.885 24.2993 137.794 23.5094 137.924 22.8771C138.047 22.2328 138.449 21.7401 139.128 21.3988C139.712 21.1055 140.263 21.0596 140.782 21.2613C141.296 21.4511 141.791 21.8585 142.27 22.4836C142.754 23.0909 143.286 23.9276 143.867 24.9937L145.136 24.3561C145.791 24.0268 146.276 23.7903 146.592 23.6466C145.802 21.9845 145.373 20.6855 145.305 19.7495C145.244 18.7955 145.642 18.103 146.5 17.672Z" fill="white"/>
  <path d="M148.387 17.5966L147.952 18.4973L147.959 18.5007L147.967 18.5041L148.387 17.5966ZM150.161 19.2566L149.342 19.8305L149.343 19.8321L150.161 19.2566ZM153.699 26.2975L154.65 25.9866L154.649 25.9847L153.699 26.2975ZM153.964 28.6493L154.943 28.8505L154.943 28.8505L153.964 28.6493ZM150.514 29.9354L149.904 30.7282L150.514 29.9354ZM148.307 27.0151L149.182 26.5298L148.701 25.663L147.83 26.1365L148.307 27.0151ZM145.564 28.4159L145.115 27.5224L144.265 27.9499L144.65 28.8205L145.564 28.4159ZM146.573 31.9379L145.573 31.9539L146.573 31.9379ZM143.483 33.9388L143.06 34.8449L143.483 33.9388ZM141.753 32.3234L140.928 32.8881L140.932 32.8943L140.936 32.9006L141.753 32.3234ZM138.197 25.2468L137.247 25.5596L137.251 25.5721L138.197 25.2468ZM137.924 22.8771L138.903 23.0783L138.906 23.066L137.924 22.8771ZM140.782 21.2613L140.42 22.1934L140.428 22.1964L140.436 22.1992L140.782 21.2613ZM142.27 22.4836L141.476 23.0913L141.482 23.0993L141.488 23.1071L142.27 22.4836ZM143.867 24.9937L142.989 25.472L143.451 26.3217L144.316 25.8873L143.867 24.9937ZM146.592 23.6466L147.007 24.5567L147.932 24.1353L147.495 23.217L146.592 23.6466ZM145.305 19.7495L144.307 19.8139L144.308 19.8214L145.305 19.7495ZM146.949 18.5655C147.382 18.3477 147.682 18.367 147.952 18.4973L148.821 16.6959C147.909 16.2561 146.951 16.3257 146.05 16.7784L146.949 18.5655ZM147.967 18.5041C148.347 18.6801 148.815 19.0779 149.342 19.8305L150.98 18.6826C150.347 17.7799 149.632 17.0711 148.807 16.6891L147.967 18.5041ZM149.343 19.8321C149.877 20.5903 150.507 21.6818 151.233 23.1273L153.02 22.2292C152.274 20.744 151.593 19.5543 150.979 18.6811L149.343 19.8321ZM151.233 23.1273C151.96 24.5728 152.46 25.7296 152.75 26.6103L154.649 25.9847C154.315 24.9704 153.767 23.7144 153.02 22.2292L151.233 23.1273ZM152.749 26.6084C153.027 27.4584 153.065 28.0528 152.984 28.4481L154.943 28.8505C155.122 27.9812 154.984 27.0077 154.65 25.9866L152.749 26.6084ZM152.984 28.4481C152.927 28.7257 152.761 28.985 152.301 29.2162L153.199 31.0032C154.097 30.5518 154.74 29.8375 154.943 28.8505L152.984 28.4481ZM152.301 29.2162C152.024 29.3553 151.817 29.3866 151.661 29.3745C151.509 29.3626 151.333 29.304 151.123 29.1425L149.904 30.7282C150.375 31.09 150.912 31.3222 151.506 31.3684C152.095 31.4144 152.666 31.2712 153.199 31.0032L152.301 29.2162ZM151.123 29.1425C150.609 28.7474 149.954 27.9217 149.182 26.5298L147.433 27.5003C148.241 28.9554 149.057 30.0766 149.904 30.7282L151.123 29.1425ZM147.83 26.1365C147.482 26.3256 146.89 26.6307 146.045 27.0554L146.943 28.8425C147.789 28.4171 148.406 28.0995 148.785 27.8936L147.83 26.1365ZM146.045 27.0554L145.115 27.5224L146.013 29.3095L146.943 28.8425L146.045 27.0554ZM144.65 28.8205C145.294 30.2775 145.563 31.3013 145.573 31.9539L147.573 31.922C147.556 30.8573 147.152 29.5332 146.479 28.0113L144.65 28.8205ZM145.573 31.9539C145.578 32.2189 145.52 32.395 145.438 32.524C145.355 32.6563 145.206 32.8039 144.93 32.9431L145.828 34.7301C146.361 34.4621 146.816 34.0897 147.131 33.5891C147.448 33.0853 147.583 32.5157 147.573 31.922L145.573 31.9539ZM144.93 32.9431C144.47 33.1742 144.162 33.1526 143.906 33.0327L143.06 34.8449C143.973 35.2712 144.929 35.1815 145.828 34.7301L144.93 32.9431ZM143.906 33.0327C143.54 32.862 143.086 32.4766 142.57 31.7463L140.936 32.9006C141.557 33.7779 142.255 34.4694 143.06 34.8449L143.906 33.0327ZM142.578 31.7588C142.053 30.9901 141.423 29.8855 140.69 28.4259L138.903 29.3239C139.654 30.8188 140.329 32.0132 140.928 32.8881L142.578 31.7588ZM140.69 28.4259C139.956 26.9662 139.445 25.8021 139.142 24.9214L137.251 25.5721C137.596 26.5744 138.151 27.829 138.903 29.3239L140.69 28.4259ZM139.147 24.934C138.862 24.0697 138.822 23.4709 138.903 23.0783L136.944 22.6759C136.765 23.5479 136.908 24.5289 137.247 25.5595L139.147 24.934ZM138.906 23.066C138.961 22.7774 139.126 22.5192 139.577 22.2923L138.679 20.5053C137.772 20.961 137.134 21.6883 136.942 22.6882L138.906 23.066ZM139.577 22.2923C139.956 22.1019 140.211 22.1121 140.42 22.1934L141.145 20.3292C140.316 20.0071 139.468 20.109 138.679 20.5053L139.577 22.2923ZM140.436 22.1992C140.71 22.3006 141.064 22.5539 141.476 23.0913L143.064 21.876C142.519 21.1631 141.881 20.6015 141.129 20.3234L140.436 22.1992ZM141.488 23.1071C141.922 23.6509 142.422 24.4319 142.989 25.472L144.745 24.5155C144.15 23.4233 143.586 22.5308 143.052 21.8602L141.488 23.1071ZM144.316 25.8873L145.585 25.2496L144.687 23.4626L143.418 24.1002L144.316 25.8873ZM145.585 25.2496C146.238 24.9212 146.709 24.692 147.007 24.5567L146.178 22.7364C145.844 22.8886 145.344 23.1324 144.687 23.4626L145.585 25.2496ZM147.495 23.217C146.717 21.5805 146.356 20.4204 146.303 19.6775L144.308 19.8214C144.389 20.9505 144.887 22.3885 145.689 24.0761L147.495 23.217ZM146.303 19.685C146.282 19.3653 146.342 19.1575 146.425 19.013C146.508 18.8682 146.659 18.711 146.949 18.5655L146.05 16.7784C145.482 17.0639 145.006 17.4685 144.691 18.0162C144.376 18.5643 144.266 19.1797 144.307 19.8139L146.303 19.685Z" fill="black" mask="url(#path-63-outside-6_22057_76)"/>
  <mask id="path-65-outside-7_22057_76" maskUnits="userSpaceOnUse" x="150.657" y="14.757" width="17.2264" height="16.5681" fill="black">
    <rect fill="white" x="150.657" y="14.757" width="17.2264" height="16.5681"/>
    <path d="M160.604 27.3599C159.691 27.6574 158.81 27.7216 157.962 27.5523C157.126 27.3791 156.398 27.012 155.777 26.451C155.164 25.8733 154.713 25.1618 154.423 24.3166C154.145 23.4674 154.105 22.6422 154.303 21.8407C154.501 21.0393 154.901 20.3285 155.504 19.7083C156.12 19.0841 156.886 18.6297 157.803 18.3449C158.695 18.068 159.556 18.0098 160.388 18.1703C161.232 18.3268 161.971 18.6836 162.605 19.2406C163.239 19.7977 163.701 20.4988 163.992 21.344C164.261 22.1677 164.299 22.9866 164.106 23.8008C163.908 24.6022 163.503 25.3214 162.891 25.9583C162.292 26.5912 161.529 27.0584 160.604 27.3599ZM159.795 24.5535C160.139 24.4467 160.396 24.2201 160.568 23.8736C160.739 23.5271 160.77 23.1756 160.659 22.819C160.548 22.4625 160.326 22.1965 159.992 22.0209C159.655 21.8326 159.314 21.7919 158.97 21.8987C158.626 22.0055 158.369 22.2322 158.197 22.5787C158.021 22.9124 157.989 23.2576 158.1 23.6141C158.21 23.9706 158.435 24.243 158.772 24.4313C159.11 24.6196 159.451 24.6603 159.795 24.5535Z"/>
  </mask>
  <path d="M160.604 27.3599C159.691 27.6574 158.81 27.7216 157.962 27.5523C157.126 27.3791 156.398 27.012 155.777 26.451C155.164 25.8733 154.713 25.1618 154.423 24.3166C154.145 23.4674 154.105 22.6422 154.303 21.8407C154.501 21.0393 154.901 20.3285 155.504 19.7083C156.12 19.0841 156.886 18.6297 157.803 18.3449C158.695 18.068 159.556 18.0098 160.388 18.1703C161.232 18.3268 161.971 18.6836 162.605 19.2406C163.239 19.7977 163.701 20.4988 163.992 21.344C164.261 22.1677 164.299 22.9866 164.106 23.8008C163.908 24.6022 163.503 25.3214 162.891 25.9583C162.292 26.5912 161.529 27.0584 160.604 27.3599ZM159.795 24.5535C160.139 24.4467 160.396 24.2201 160.568 23.8736C160.739 23.5271 160.77 23.1756 160.659 22.819C160.548 22.4625 160.326 22.1965 159.992 22.0209C159.655 21.8326 159.314 21.7919 158.97 21.8987C158.626 22.0055 158.369 22.2322 158.197 22.5787C158.021 22.9124 157.989 23.2576 158.1 23.6141C158.21 23.9706 158.435 24.243 158.772 24.4313C159.11 24.6196 159.451 24.6603 159.795 24.5535Z" fill="white"/>
  <path d="M160.604 27.3599L160.294 26.4091L160.294 26.4091L160.604 27.3599ZM157.962 27.5523L157.759 28.5315L157.766 28.533L157.962 27.5523ZM155.777 26.451L155.09 27.1783L155.098 27.1858L155.106 27.193L155.777 26.451ZM154.423 24.3166L153.472 24.6275L153.474 24.6346L153.477 24.6416L154.423 24.3166ZM154.303 21.8407L153.332 21.6011L153.332 21.6011L154.303 21.8407ZM155.504 19.7083L154.792 19.0059L154.787 19.0111L155.504 19.7083ZM160.388 18.1703L160.198 19.1522L160.205 19.1535L160.388 18.1703ZM162.605 19.2406L161.945 19.9917L162.605 19.2406ZM163.992 21.344L164.942 21.0327L164.94 21.0258L164.937 21.019L163.992 21.344ZM164.106 23.8008L165.076 24.0404L165.078 24.0324L164.106 23.8008ZM162.891 25.9583L162.17 25.2654L162.165 25.2708L162.891 25.9583ZM159.992 22.0209L159.505 22.8944L159.516 22.9003L159.527 22.906L159.992 22.0209ZM158.197 22.5787L159.082 23.0442L159.088 23.0334L159.093 23.0224L158.197 22.5787ZM158.772 24.4313L158.286 25.3048L158.286 25.3048L158.772 24.4313ZM160.294 26.4091C159.526 26.6594 158.82 26.7037 158.158 26.5716L157.766 28.533C158.801 28.7394 159.856 28.6554 160.914 28.3107L160.294 26.4091ZM158.165 26.5731C157.5 26.4352 156.933 26.1483 156.447 25.7089L155.106 27.193C155.862 27.8757 156.753 28.3229 157.759 28.5315L158.165 26.5731ZM156.463 25.7236C155.976 25.2639 155.61 24.6934 155.368 23.9916L153.477 24.6416C153.817 25.6303 154.353 26.4826 155.09 27.1783L156.463 25.7236ZM155.373 24.0057C155.149 23.3193 155.124 22.685 155.274 22.0804L153.332 21.6011C153.085 22.5993 153.141 23.6156 153.472 24.6275L155.373 24.0057ZM155.274 22.0804C155.427 21.4597 155.735 20.9048 156.221 20.4055L154.787 19.0111C154.067 19.7522 153.574 20.6189 153.332 21.6011L155.274 22.0804ZM156.216 20.4107C156.706 19.9144 157.325 19.5406 158.1 19.2998L157.507 17.3899C156.448 17.7187 155.534 18.2539 154.792 19.0059L156.216 20.4107ZM158.1 19.2998C158.85 19.0668 159.544 19.026 160.198 19.1521L160.577 17.1884C159.568 16.9936 158.539 17.0692 157.507 17.3899L158.1 19.2998ZM160.205 19.1535C160.876 19.2778 161.449 19.556 161.945 19.9917L163.265 18.4895C162.494 17.8112 161.588 17.3758 160.57 17.187L160.205 19.1535ZM161.945 19.9917C162.44 20.4272 162.808 20.9782 163.046 21.669L164.937 21.019C164.594 20.0194 164.037 19.1682 163.265 18.4895L161.945 19.9917ZM163.041 21.6553C163.256 22.3102 163.282 22.9412 163.133 23.5692L165.078 24.0324C165.316 23.0321 165.267 22.0253 164.942 21.0327L163.041 21.6553ZM163.135 23.5612C162.982 24.1803 162.669 24.7459 162.17 25.2654L163.612 26.6511C164.337 25.8969 164.834 25.0242 165.076 24.0404L163.135 23.5612ZM162.165 25.2708C161.693 25.7689 161.08 26.1531 160.294 26.4091L160.913 28.3107C161.979 27.9637 162.89 27.4135 163.617 26.6458L162.165 25.2708ZM160.091 25.5085C160.717 25.3141 161.181 24.8889 161.464 24.3174L159.672 23.4298C159.612 23.5513 159.56 23.5794 159.498 23.5986L160.091 25.5085ZM161.464 24.3174C161.745 23.7499 161.804 23.1337 161.614 22.5224L159.704 23.1157C159.736 23.2175 159.734 23.3043 159.672 23.4298L161.464 24.3174ZM161.614 22.5224C161.424 21.9097 161.024 21.4335 160.458 21.1359L159.527 22.906C159.629 22.9595 159.673 23.0153 159.704 23.1157L161.614 22.5224ZM160.479 21.1475C159.922 20.8369 159.299 20.7493 158.673 20.9437L159.267 22.8537C159.328 22.8345 159.387 22.8283 159.505 22.8944L160.479 21.1475ZM158.673 20.9437C158.047 21.1382 157.584 21.5634 157.301 22.1349L159.093 23.0224C159.153 22.9009 159.205 22.8728 159.267 22.8537L158.673 20.9437ZM157.312 22.1132C157.014 22.679 156.954 23.2981 157.145 23.9108L159.055 23.3174C159.024 23.2171 159.028 23.1459 159.082 23.0442L157.312 22.1132ZM157.145 23.9108C157.335 24.5221 157.732 24.9964 158.286 25.3048L159.259 23.5579C159.137 23.4897 159.086 23.4192 159.055 23.3174L157.145 23.9108ZM158.286 25.3048C158.843 25.6153 159.465 25.703 160.091 25.5085L159.498 23.5986C159.436 23.6177 159.378 23.6239 159.259 23.5579L158.286 25.3048Z" fill="black" mask="url(#path-65-outside-7_22057_76)"/>
  <mask id="path-67-outside-8_22057_76" maskUnits="userSpaceOnUse" x="166.504" y="8.2548" width="18.5821" height="17.6923" fill="black">
    <rect fill="white" x="166.504" y="8.2548" width="18.5821" height="17.6923"/>
    <path d="M179.161 9.74803C179.904 9.66983 180.501 9.86836 180.953 10.3436C181.419 10.8175 181.777 11.544 182.028 12.5231C182.277 13.489 182.487 14.7874 182.659 16.4184C182.831 18.0494 182.895 19.3632 182.853 20.3598C182.809 21.3431 182.615 22.1077 182.27 22.6534C181.925 23.1992 181.375 23.5119 180.619 23.5915C179.717 23.6864 179.04 23.3689 178.588 22.6389C178.136 21.9089 177.791 20.7386 177.555 19.1278C177.145 19.1844 176.469 19.2622 175.528 19.3614L174.494 19.4703C174.584 21.0964 174.485 22.3135 174.194 23.1217C173.904 23.9299 173.308 24.3815 172.406 24.4764C171.651 24.556 171.047 24.3648 170.596 23.9028C170.146 23.4408 169.796 22.7335 169.548 21.7809C169.313 20.8136 169.108 19.5078 168.935 17.8636C168.762 16.2194 168.69 14.8996 168.719 13.9044C168.762 12.9078 168.955 12.1367 169.3 11.5909C169.643 11.0318 170.193 10.7125 170.949 10.6329C171.598 10.5645 172.131 10.7163 172.545 11.0883C172.958 11.447 173.278 12.0032 173.505 12.7569C173.744 13.496 173.947 14.4667 174.114 15.6692L175.526 15.5205C176.255 15.4437 176.793 15.3938 177.139 15.3707C176.986 13.5367 177.043 12.1698 177.31 11.2702C177.59 10.356 178.206 9.84856 179.161 9.74803Z"/>
  </mask>
  <path d="M179.161 9.74803C179.904 9.66983 180.501 9.86836 180.953 10.3436C181.419 10.8175 181.777 11.544 182.028 12.5231C182.277 13.489 182.487 14.7874 182.659 16.4184C182.831 18.0494 182.895 19.3632 182.853 20.3598C182.809 21.3431 182.615 22.1077 182.27 22.6534C181.925 23.1992 181.375 23.5119 180.619 23.5915C179.717 23.6864 179.04 23.3689 178.588 22.6389C178.136 21.9089 177.791 20.7386 177.555 19.1278C177.145 19.1844 176.469 19.2622 175.528 19.3614L174.494 19.4703C174.584 21.0964 174.485 22.3135 174.194 23.1217C173.904 23.9299 173.308 24.3815 172.406 24.4764C171.651 24.556 171.047 24.3648 170.596 23.9028C170.146 23.4408 169.796 22.7335 169.548 21.7809C169.313 20.8136 169.108 19.5078 168.935 17.8636C168.762 16.2194 168.69 14.8996 168.719 13.9044C168.762 12.9078 168.955 12.1367 169.3 11.5909C169.643 11.0318 170.193 10.7125 170.949 10.6329C171.598 10.5645 172.131 10.7163 172.545 11.0883C172.958 11.447 173.278 12.0032 173.505 12.7569C173.744 13.496 173.947 14.4667 174.114 15.6692L175.526 15.5205C176.255 15.4437 176.793 15.3938 177.139 15.3707C176.986 13.5367 177.043 12.1698 177.31 11.2702C177.59 10.356 178.206 9.84856 179.161 9.74803Z" fill="white"/>
  <path d="M180.953 10.3436L180.229 11.033L180.234 11.0387L180.24 11.0444L180.953 10.3436ZM182.028 12.5231L181.059 12.771L181.059 12.7729L182.028 12.5231ZM182.853 20.3598L183.852 20.4044L183.852 20.4024L182.853 20.3598ZM182.27 22.6534L183.115 23.1875L183.115 23.1875L182.27 22.6534ZM178.588 22.6389L177.738 23.1656L178.588 22.6389ZM177.555 19.1278L178.544 18.9825L178.4 18.0017L177.418 18.1372L177.555 19.1278ZM174.494 19.4703L174.389 18.4758L173.442 18.5755L173.495 19.526L174.494 19.4703ZM174.194 23.1217L173.253 22.7837L174.194 23.1217ZM170.596 23.9028L169.881 24.6012L170.596 23.9028ZM169.548 21.7809L168.577 22.0179L168.579 22.0253L168.581 22.0326L169.548 21.7809ZM168.719 13.9044L167.72 13.8618L167.719 13.875L168.719 13.9044ZM169.3 11.5909L170.145 12.125L170.152 12.1142L169.3 11.5909ZM172.545 11.0883L171.877 11.8326L171.883 11.838L171.89 11.8434L172.545 11.0883ZM173.505 12.7569L172.548 13.0451L172.551 13.0547L172.554 13.0643L173.505 12.7569ZM174.114 15.6692L173.123 15.8066L173.256 16.765L174.218 16.6637L174.114 15.6692ZM177.139 15.3707L177.205 16.3685L178.22 16.301L178.135 15.2876L177.139 15.3707ZM177.31 11.2702L176.354 10.9782L176.352 10.9854L177.31 11.2702ZM179.266 10.7425C179.748 10.6917 180.022 10.8158 180.229 11.033L181.678 9.65424C180.98 8.92096 180.059 8.64792 179.056 8.75352L179.266 10.7425ZM180.24 11.0444C180.534 11.3434 180.831 11.8807 181.059 12.771L182.996 12.2752C182.723 11.2072 182.304 10.2916 181.667 9.64281L180.24 11.0444ZM181.059 12.7729C181.291 13.6707 181.495 14.9142 181.664 16.5231L183.653 16.3137C183.479 14.6606 183.263 13.3073 182.996 12.2733L181.059 12.7729ZM181.664 16.5231C181.834 18.132 181.893 19.3908 181.854 20.3171L183.852 20.4024C183.897 19.3355 183.828 17.9667 183.653 16.3137L181.664 16.5231ZM181.854 20.3151C181.814 21.2085 181.64 21.7782 181.424 22.1194L183.115 23.1875C183.589 22.4371 183.804 21.4777 183.852 20.4044L181.854 20.3151ZM181.424 22.1194C181.273 22.359 181.026 22.5431 180.514 22.597L180.724 24.586C181.723 24.4807 182.577 24.0394 183.115 23.1875L181.424 22.1194ZM180.514 22.597C180.206 22.6294 180.001 22.5856 179.86 22.5192C179.722 22.4545 179.578 22.3376 179.438 22.1123L177.738 23.1656C178.051 23.6703 178.471 24.0771 179.01 24.3299C179.546 24.5811 180.13 24.6485 180.724 24.586L180.514 22.597ZM179.438 22.1123C179.097 21.5612 178.775 20.5575 178.544 18.9825L176.565 19.2732C176.807 20.9197 177.175 22.2567 177.738 23.1656L179.438 22.1123ZM177.418 18.1372C177.026 18.1914 176.364 18.2678 175.423 18.3669L175.633 20.3559C176.575 20.2567 177.264 20.1774 177.691 20.1185L177.418 18.1372ZM175.423 18.3669L174.389 18.4758L174.598 20.4648L175.633 20.3559L175.423 18.3669ZM173.495 19.526C173.584 21.1167 173.474 22.1695 173.253 22.7837L175.136 23.4598C175.496 22.4576 175.585 21.0761 175.492 19.4145L173.495 19.526ZM173.253 22.7837C173.164 23.0331 173.047 23.1774 172.926 23.2695C172.801 23.3639 172.61 23.4495 172.302 23.4819L172.511 25.4709C173.105 25.4084 173.662 25.2207 174.134 24.8636C174.608 24.5041 174.935 24.0185 175.136 23.4598L173.253 22.7837ZM172.302 23.4819C171.79 23.5358 171.51 23.4072 171.312 23.2044L169.881 24.6012C170.585 25.3224 171.512 25.5762 172.511 25.4709L172.302 23.4819ZM171.312 23.2044C171.03 22.9155 170.741 22.3946 170.516 21.5291L168.581 22.0326C168.851 23.0724 169.261 23.9661 169.881 24.6012L171.312 23.2044ZM170.52 21.5439C170.299 20.6391 170.1 19.3835 169.929 17.7589L167.94 17.9683C168.116 19.6322 168.326 20.9881 168.577 22.0179L170.52 21.5439ZM169.929 17.7589C169.758 16.1342 169.691 14.8647 169.719 13.9338L167.719 13.875C167.688 14.9345 167.765 16.3045 167.94 17.9683L169.929 17.7589ZM169.718 13.9471C169.757 13.0379 169.931 12.4638 170.145 12.1249L168.455 11.0568C167.979 11.8096 167.766 12.7778 167.72 13.8618L169.718 13.9471ZM170.152 12.1142C170.306 11.8638 170.551 11.6804 171.053 11.6274L170.844 9.63845C169.835 9.74472 168.981 10.1999 168.448 11.0675L170.152 12.1142ZM171.053 11.6274C171.475 11.583 171.71 11.6826 171.877 11.8326L173.213 10.3439C172.551 9.75 171.722 9.54602 170.844 9.63845L171.053 11.6274ZM171.89 11.8434C172.11 12.0351 172.353 12.3971 172.548 13.0451L174.463 12.4687C174.204 11.6092 173.806 10.8589 173.201 10.3331L171.89 11.8434ZM172.554 13.0643C172.767 13.7261 172.96 14.6336 173.123 15.8066L175.104 15.5318C174.933 14.2999 174.72 13.2658 174.457 12.4495L172.554 13.0643ZM174.218 16.6637L175.63 16.515L175.421 14.526L174.009 14.6747L174.218 16.6637ZM175.63 16.515C176.358 16.4384 176.879 16.3902 177.205 16.3685L177.072 14.3729C176.706 14.3973 176.152 14.449 175.421 14.526L175.63 16.515ZM178.135 15.2876C177.985 13.4817 178.057 12.269 178.269 11.555L176.352 10.9854C176.029 12.0707 175.987 13.5916 176.142 15.4538L178.135 15.2876ZM178.267 11.5622C178.36 11.2557 178.489 11.0822 178.618 10.9763C178.747 10.8702 178.944 10.7765 179.266 10.7425L179.056 8.75352C178.424 8.82011 177.835 9.03032 177.347 9.43164C176.859 9.83319 176.54 10.3705 176.354 10.9782L178.267 11.5622Z" fill="black" mask="url(#path-67-outside-8_22057_76)"/>
  <mask id="path-69-outside-9_22057_76" maskUnits="userSpaceOnUse" x="182.208" y="12.3649" width="14.2532" height="13.2731" fill="black">
    <rect fill="white" x="182.208" y="12.3649" width="14.2532" height="13.2731"/>
    <path d="M189.238 23.5204C188.278 23.5148 187.422 23.2979 186.67 22.8697C185.932 22.4418 185.357 21.8637 184.944 21.1354C184.545 20.3941 184.341 19.5766 184.332 18.6829C184.337 17.7895 184.559 16.9937 184.999 16.2956C185.44 15.5974 186.044 15.0492 186.812 14.6509C187.593 14.2529 188.464 14.0633 189.424 14.0822C190.357 14.1006 191.193 14.3171 191.932 14.7317C192.684 15.1466 193.272 15.7183 193.698 16.4468C194.124 17.1754 194.341 17.9865 194.35 18.8801C194.347 19.7469 194.124 20.536 193.684 21.2475C193.243 21.9456 192.632 22.5004 191.851 22.9117C191.082 23.3233 190.211 23.5262 189.238 23.5204ZM189.355 20.6021C189.715 20.6092 190.031 20.4754 190.304 20.2007C190.576 19.926 190.715 19.6021 190.723 19.2288C190.73 18.8555 190.603 18.533 190.342 18.2611C190.081 17.9759 189.77 17.8298 189.41 17.8227C189.05 17.8156 188.734 17.9494 188.462 18.2241C188.19 18.4855 188.051 18.8028 188.043 19.176C188.036 19.5493 188.163 19.8785 188.424 20.1637C188.685 20.4489 188.996 20.5951 189.355 20.6021Z"/>
  </mask>
  <path d="M189.238 23.5204C188.278 23.5148 187.422 23.2979 186.67 22.8697C185.932 22.4418 185.357 21.8637 184.944 21.1354C184.545 20.3941 184.341 19.5766 184.332 18.6829C184.337 17.7895 184.559 16.9937 184.999 16.2956C185.44 15.5974 186.044 15.0492 186.812 14.6509C187.593 14.2529 188.464 14.0633 189.424 14.0822C190.357 14.1006 191.193 14.3171 191.932 14.7317C192.684 15.1466 193.272 15.7183 193.698 16.4468C194.124 17.1754 194.341 17.9865 194.35 18.8801C194.347 19.7469 194.124 20.536 193.684 21.2475C193.243 21.9456 192.632 22.5004 191.851 22.9117C191.082 23.3233 190.211 23.5262 189.238 23.5204ZM189.355 20.6021C189.715 20.6092 190.031 20.4754 190.304 20.2007C190.576 19.926 190.715 19.6021 190.723 19.2288C190.73 18.8555 190.603 18.533 190.342 18.2611C190.081 17.9759 189.77 17.8298 189.41 17.8227C189.05 17.8156 188.734 17.9494 188.462 18.2241C188.19 18.4855 188.051 18.8028 188.043 19.176C188.036 19.5493 188.163 19.8785 188.424 20.1637C188.685 20.4489 188.996 20.5951 189.355 20.6021Z" fill="white"/>
  <path d="M189.238 23.5204L189.244 22.5204L189.244 22.5204L189.238 23.5204ZM186.67 22.8697L186.169 23.7349L186.175 23.7386L186.67 22.8697ZM184.944 21.1354L184.063 21.6092L184.069 21.6187L184.074 21.6282L184.944 21.1354ZM184.332 18.6829L183.332 18.6781L183.332 18.6856L183.332 18.693L184.332 18.6829ZM184.999 16.2956L184.154 15.7619L184.154 15.7619L184.999 16.2956ZM186.812 14.6509L186.358 13.7599L186.352 13.7632L186.812 14.6509ZM191.932 14.7317L191.442 15.6038L191.448 15.6073L191.932 14.7317ZM193.698 16.4468L192.835 16.9514L193.698 16.4468ZM194.35 18.8801L195.35 18.8844L195.35 18.8772L195.35 18.87L194.35 18.8801ZM193.684 21.2475L194.529 21.7811L194.534 21.7741L193.684 21.2475ZM191.851 22.9117L191.385 22.0268L191.378 22.0303L191.851 22.9117ZM190.342 18.2611L189.604 18.9364L189.612 18.9454L189.621 18.9542L190.342 18.2611ZM188.462 18.2241L189.155 18.945L189.164 18.9365L189.173 18.9279L188.462 18.2241ZM188.424 20.1637L187.686 20.839L187.686 20.839L188.424 20.1637ZM189.244 22.5204C188.436 22.5157 187.752 22.335 187.165 22.0008L186.175 23.7386C187.092 24.2608 188.12 24.5139 189.232 24.5204L189.244 22.5204ZM187.172 22.0045C186.584 21.6639 186.137 21.213 185.814 20.6426L184.074 21.6282C184.576 22.5143 185.28 23.2197 186.169 23.7349L187.172 22.0045ZM185.825 20.6616C185.507 20.0717 185.34 19.4148 185.332 18.6727L183.332 18.693C183.343 19.7384 183.583 20.7165 184.063 21.6092L185.825 20.6616ZM185.332 18.6877C185.336 17.9655 185.513 17.3559 185.845 16.8292L184.154 15.7619C183.605 16.6315 183.337 17.6135 183.332 18.6781L185.332 18.6877ZM185.845 16.8292C186.186 16.2885 186.654 15.8593 187.273 15.5386L186.352 13.7632C185.434 14.2391 184.694 14.9063 184.154 15.7619L185.845 16.8292ZM187.266 15.542C187.887 15.2255 188.593 15.0661 189.404 15.082L189.444 13.0824C188.335 13.0606 187.3 13.2803 186.358 13.7599L187.266 15.542ZM189.404 15.082C190.19 15.0975 190.861 15.2777 191.442 15.6037L192.421 13.8597C191.524 13.3565 190.524 13.1037 189.444 13.0824L189.404 15.082ZM191.448 15.6073C192.046 15.9367 192.502 16.3815 192.835 16.9514L194.562 15.9423C194.043 15.0552 193.322 14.3565 192.415 13.8561L191.448 15.6073ZM192.835 16.9514C193.168 17.5208 193.343 18.1598 193.35 18.8903L195.35 18.87C195.34 17.8131 195.08 16.8299 194.562 15.9423L192.835 16.9514ZM193.35 18.8758C193.347 19.5649 193.173 20.1721 192.834 20.7208L194.534 21.7741C195.075 20.8999 195.346 19.9289 195.35 18.8844L193.35 18.8758ZM192.838 20.7139C192.498 21.2532 192.022 21.6912 191.385 22.0268L192.316 23.7966C193.242 23.3095 193.989 22.638 194.529 21.7811L192.838 20.7139ZM191.378 22.0303C190.774 22.3542 190.07 22.5254 189.244 22.5204L189.232 24.5204C190.352 24.5271 191.391 24.2924 192.323 23.7932L191.378 22.0303ZM189.336 21.602C189.991 21.6149 190.565 21.3576 191.014 20.9045L189.593 19.497C189.498 19.5933 189.44 19.6036 189.375 19.6023L189.336 21.602ZM191.014 20.9045C191.46 20.4546 191.71 19.8885 191.723 19.2485L189.723 19.2091C189.721 19.3157 189.692 19.3975 189.593 19.497L191.014 20.9045ZM191.723 19.2485C191.735 18.607 191.506 18.0289 191.063 17.5681L189.621 18.9542C189.701 19.037 189.725 19.104 189.723 19.2091L191.723 19.2485ZM191.079 17.5858C190.649 17.1155 190.085 16.8358 189.43 16.8229L189.391 18.8225C189.455 18.8238 189.513 18.8364 189.604 18.9364L191.079 17.5858ZM189.43 16.8229C188.775 16.81 188.201 17.0673 187.752 17.5203L189.173 18.9279C189.268 18.8316 189.326 18.8212 189.391 18.8225L189.43 16.8229ZM187.769 17.5032C187.308 17.9463 187.056 18.5149 187.043 19.1564L189.043 19.1957C189.045 19.0906 189.072 19.0246 189.155 18.945L187.769 17.5032ZM187.043 19.1564C187.031 19.7963 187.259 20.3719 187.686 20.839L189.162 19.4885C189.067 19.3852 189.041 19.3023 189.043 19.1957L187.043 19.1564ZM187.686 20.839C188.117 21.3094 188.68 21.5891 189.336 21.602L189.375 19.6023C189.311 19.6011 189.253 19.5885 189.162 19.4885L187.686 20.839Z" fill="black" mask="url(#path-69-outside-9_22057_76)"/>
  <defs>
    <filter id="filter0_d_22057_76" x="186.5" y="47.3491" width="115.531" height="150.365" filterUnits="userSpaceOnUse" color-interpolation-filters="sRGB">
      <feFlood flood-opacity="0" result="BackgroundImageFix"/>
      <feColorMatrix in="SourceAlpha" type="matrix" values="0 0 0 0 0 0 0 0 0 0 0 0 0 0 0 0 0 0 127 0" result="hardAlpha"/>
      <feOffset dy="9"/>
      <feComposite in2="hardAlpha" operator="out"/>
      <feColorMatrix type="matrix" values="0 0 0 0 0 0 0 0 0 0 0 0 0 0 0 0 0 0 0.25 0"/>
      <feBlend mode="normal" in2="BackgroundImageFix" result="effect1_dropShadow_22057_76"/>
      <feBlend mode="normal" in="SourceGraphic" in2="effect1_dropShadow_22057_76" result="shape"/>
    </filter>
    <filter id="filter1_d_22057_76" x="257.086" y="53.3496" width="32.918" height="32.917" filterUnits="userSpaceOnUse" color-interpolation-filters="sRGB">
      <feFlood flood-opacity="0" result="BackgroundImageFix"/>
      <feColorMatrix in="SourceAlpha" type="matrix" values="0 0 0 0 0 0 0 0 0 0 0 0 0 0 0 0 0 0 127 0" result="hardAlpha"/>
      <feOffset/>
      <feGaussianBlur stdDeviation="5"/>
      <feComposite in2="hardAlpha" operator="out"/>
      <feColorMatrix type="matrix" values="0 0 0 0 1 0 0 0 0 0.960784 0 0 0 0 0.662745 0 0 0 1 0"/>
      <feBlend mode="normal" in2="BackgroundImageFix" result="effect1_dropShadow_22057_76"/>
      <feBlend mode="normal" in="SourceGraphic" in2="effect1_dropShadow_22057_76" result="shape"/>
    </filter>
    <filter id="filter2_d_22057_76" x="200.238" y="33.499" width="88.5938" height="102.113" filterUnits="userSpaceOnUse" color-interpolation-filters="sRGB">
      <feFlood flood-opacity="0" result="BackgroundImageFix"/>
      <feColorMatrix in="SourceAlpha" type="matrix" values="0 0 0 0 0 0 0 0 0 0 0 0 0 0 0 0 0 0 127 0" result="hardAlpha"/>
      <feOffset dy="9"/>
      <feComposite in2="hardAlpha" operator="out"/>
      <feColorMatrix type="matrix" values="0 0 0 0 0 0 0 0 0 0 0 0 0 0 0 0 0 0 0.25 0"/>
      <feBlend mode="normal" in2="BackgroundImageFix" result="effect1_dropShadow_22057_76"/>
      <feBlend mode="normal" in="SourceGraphic" in2="effect1_dropShadow_22057_76" result="shape"/>
    </filter>
    <filter id="filter3_d_22057_76" x="223.344" y="0" width="52.3125" height="57" filterUnits="userSpaceOnUse" color-interpolation-filters="sRGB">
      <feFlood flood-opacity="0" result="BackgroundImageFix"/>
      <feColorMatrix in="SourceAlpha" type="matrix" values="0 0 0 0 0 0 0 0 0 0 0 0 0 0 0 0 0 0 127 0" result="hardAlpha"/>
      <feOffset/>
      <feGaussianBlur stdDeviation="5"/>
      <feComposite in2="hardAlpha" operator="out"/>
      <feColorMatrix type="matrix" values="0 0 0 0 1 0 0 0 0 0.960784 0 0 0 0 0.662745 0 0 0 1 0"/>
      <feBlend mode="normal" in2="BackgroundImageFix" result="effect1_dropShadow_22057_76"/>
      <feBlend mode="normal" in="SourceGraphic" in2="effect1_dropShadow_22057_76" result="shape"/>
    </filter>
    <filter id="filter4_d_22057_76" x="214.891" y="43.877" width="32.918" height="32.917" filterUnits="userSpaceOnUse" color-interpolation-filters="sRGB">
      <feFlood flood-opacity="0" result="BackgroundImageFix"/>
      <feColorMatrix in="SourceAlpha" type="matrix" values="0 0 0 0 0 0 0 0 0 0 0 0 0 0 0 0 0 0 127 0" result="hardAlpha"/>
      <feOffset/>
      <feGaussianBlur stdDeviation="5"/>
      <feComposite in2="hardAlpha" operator="out"/>
      <feColorMatrix type="matrix" values="0 0 0 0 1 0 0 0 0 0.960784 0 0 0 0 0.662745 0 0 0 1 0"/>
      <feBlend mode="normal" in2="BackgroundImageFix" result="effect1_dropShadow_22057_76"/>
      <feBlend mode="normal" in="SourceGraphic" in2="effect1_dropShadow_22057_76" result="shape"/>
    </filter>
    <filter id="filter5_d_22057_76" x="243.309" y="77.4614" width="32.918" height="32.917" filterUnits="userSpaceOnUse" color-interpolation-filters="sRGB">
      <feFlood flood-opacity="0" result="BackgroundImageFix"/>
      <feColorMatrix in="SourceAlpha" type="matrix" values="0 0 0 0 0 0 0 0 0 0 0 0 0 0 0 0 0 0 127 0" result="hardAlpha"/>
      <feOffset/>
      <feGaussianBlur stdDeviation="5"/>
      <feComposite in2="hardAlpha" operator="out"/>
      <feColorMatrix type="matrix" values="0 0 0 0 1 0 0 0 0 0.960784 0 0 0 0 0.662745 0 0 0 1 0"/>
      <feBlend mode="normal" in2="BackgroundImageFix" result="effect1_dropShadow_22057_76"/>
      <feBlend mode="normal" in="SourceGraphic" in2="effect1_dropShadow_22057_76" result="shape"/>
    </filter>
    <filter id="filter6_d_22057_76" x="268" y="143" width="32.918" height="32.917" filterUnits="userSpaceOnUse" color-interpolation-filters="sRGB">
      <feFlood flood-opacity="0" result="BackgroundImageFix"/>
      <feColorMatrix in="SourceAlpha" type="matrix" values="0 0 0 0 0 0 0 0 0 0 0 0 0 0 0 0 0 0 127 0" result="hardAlpha"/>
      <feOffset/>
      <feGaussianBlur stdDeviation="5"/>
      <feComposite in2="hardAlpha" operator="out"/>
      <feColorMatrix type="matrix" values="0 0 0 0 1 0 0 0 0 0.960784 0 0 0 0 0.662745 0 0 0 1 0"/>
      <feBlend mode="normal" in2="BackgroundImageFix" result="effect1_dropShadow_22057_76"/>
      <feBlend mode="normal" in="SourceGraphic" in2="effect1_dropShadow_22057_76" result="shape"/>
    </filter>
    <filter id="filter7_b_22057_76" x="-10" y="180" width="159" height="77" filterUnits="userSpaceOnUse" color-interpolation-filters="sRGB">
      <feFlood flood-opacity="0" result="BackgroundImageFix"/>
      <feGaussianBlur in="BackgroundImageFix" stdDeviation="5"/>
      <feComposite in2="SourceAlpha" operator="in" result="effect1_backgroundBlur_22057_76"/>
      <feBlend mode="normal" in="SourceGraphic" in2="effect1_backgroundBlur_22057_76" result="shape"/>
    </filter>
  </defs>
</svg>
