<svg width="11" height="11" viewBox="0 0 11 11" fill="none" xmlns="http://www.w3.org/2000/svg">
  <path fill-rule="evenodd" clip-rule="evenodd" d="M6.64034 0.680952C6.13352 -0.226983 4.86647 -0.226985 4.35965 0.680951L0.178377 8.17142C-0.328444 9.07935 0.30508 10.2143 1.31872 10.2143H9.68126C10.6949 10.2143 11.3284 9.07936 10.8216 8.17142L6.64034 0.680952ZM5.11988 1.13492C5.28882 0.832274 5.71117 0.832274 5.88011 1.13492L10.0614 8.62539C10.2303 8.92803 10.0191 9.30634 9.68126 9.30634H1.31872C0.980843 9.30634 0.769667 8.92803 0.938608 8.62539L5.11988 1.13492ZM4.73313 3.92857L4.92799 6.80114H5.70742L5.90227 3.92857H4.73313ZM4.88399 8.20913C4.99713 8.32228 5.1417 8.37885 5.3177 8.37885C5.49789 8.37885 5.64246 8.32228 5.75141 8.20913C5.86456 8.09599 5.92113 7.9619 5.92113 7.80685C5.92113 7.64761 5.86456 7.51561 5.75141 7.41085C5.64246 7.3019 5.49789 7.24742 5.3177 7.24742C5.1417 7.24742 4.99713 7.3019 4.88399 7.41085C4.77084 7.51561 4.71427 7.64761 4.71427 7.80685C4.71427 7.9619 4.77084 8.09599 4.88399 8.20913Z" fill="#C84E25"/>
</svg>
